<svg width="96" height="87" viewBox="0 0 96 87" fill="none" xmlns="http://www.w3.org/2000/svg">
<g filter="url(#filter0_d_8339_572)">
<path d="M5.37285 42.6921C4.62083 41.3824 4.24484 40.7272 4.09767 40.031C3.96744 39.4148 3.96744 38.7784 4.09767 38.1622C4.24484 37.466 4.62083 36.8107 5.37285 35.501L23.5901 3.76913C24.3421 2.45928 24.7181 1.80435 25.2442 1.32802C25.7096 0.906582 26.2579 0.588196 26.8535 0.393586C27.5267 0.173584 28.2787 0.173584 29.7827 0.173584H66.2171C67.7214 0.173584 68.4731 0.173584 69.1466 0.393586C69.7419 0.588196 70.2903 0.906582 70.756 1.32802C71.282 1.80435 71.6578 2.45928 72.41 3.76913L90.6271 35.501C91.3792 36.8107 91.7551 37.466 91.9021 38.1622C92.0326 38.7784 92.0326 39.4148 91.9021 40.031C91.7551 40.7272 91.3792 41.3824 90.6271 42.6921L72.41 74.4242C71.6578 75.7339 71.282 76.3887 70.756 76.8651C70.2903 77.2867 69.7419 77.6049 69.1466 77.7995C68.4731 78.0197 67.7214 78.0197 66.2171 78.0197H29.7827C28.2787 78.0197 27.5267 78.0197 26.8535 77.7995C26.2579 77.6049 25.7096 77.2867 25.2442 76.8651C24.7181 76.3887 24.3421 75.7339 23.5901 74.4242L5.37285 42.6921Z" fill="white"/>
</g>
<g clip-path="url(#clip0_8339_572)">
<path d="M55.4134 18.908C54.6686 15.5478 53.9238 12.1877 53.1786 8.82764C51.921 8.82764 50.6635 8.82764 49.4061 8.82764C49.5858 12.1878 49.7658 15.5479 49.9456 18.908H55.4134Z" fill="#F2BB41"/>
<path d="M50.2325 24.272C50.4691 28.6879 50.7054 33.1037 50.9416 37.5196C53.8072 37.5196 56.6728 37.5196 59.5384 37.5196C58.5594 33.1037 57.5809 28.6879 56.6024 24.272H50.2325Z" fill="#F2BB41"/>
<path d="M47.0039 8.82764C45.7464 8.82764 44.4888 8.82764 43.2315 8.82764C42.4866 12.1877 41.7422 15.5478 40.9974 18.908H46.4649C46.6444 15.5478 46.824 12.1877 47.0039 8.82764Z" fill="#F2BB41"/>
<path d="M36.8717 37.5196C39.7375 37.5196 42.6029 37.5196 45.4685 37.5196C45.7056 33.1037 45.9419 28.6879 46.1778 24.272H39.8087C38.83 28.6879 37.8512 33.1038 36.8717 37.5196Z" fill="#F2BB41"/>
<path d="M62.8569 20.3008H33.5532C33.3609 20.3008 33.2051 20.4566 33.2051 20.6489V22.531C33.2051 22.7233 33.3609 22.8792 33.5532 22.8792H35.4374V25.6983C35.4374 25.8906 35.5932 26.0465 35.7855 26.0465H37.6658C37.8251 26.0465 37.964 25.9383 38.0031 25.7841L38.7417 22.8793H57.6684L58.4068 25.7841C58.4459 25.9385 58.585 26.0465 58.7443 26.0465H60.6243C60.8168 26.0465 60.9725 25.8906 60.9725 25.6983V22.8792H62.8568C63.0491 22.8792 63.205 22.7233 63.205 22.531V20.6489C63.2051 20.4566 63.0491 20.3008 62.8569 20.3008Z" fill="#F2BB41"/>
</g>
<path d="M33.2047 51.1736V42.7136H34.4287V50.1296H37.9807V42.7136H39.1927V50.1296H42.7447V42.7136H43.9567V51.1736H33.2047ZM48.4153 51.2816C47.8233 51.2816 47.3113 51.1576 46.8793 50.9096C46.4553 50.6616 46.1233 50.3096 45.8833 49.8536C45.6433 49.3976 45.5233 48.8616 45.5233 48.2456C45.5233 47.6216 45.6433 47.0856 45.8833 46.6376C46.1233 46.1816 46.4553 45.8296 46.8793 45.5816C47.3113 45.3336 47.8233 45.2096 48.4153 45.2096C48.9993 45.2096 49.5033 45.3336 49.9273 45.5816C50.3593 45.8296 50.6953 46.1816 50.9353 46.6376C51.1753 47.0936 51.2953 47.6296 51.2953 48.2456C51.2953 48.8616 51.1753 49.3976 50.9353 49.8536C50.6953 50.3096 50.3593 50.6616 49.9273 50.9096C49.5033 51.1576 48.9993 51.2816 48.4153 51.2816ZM48.4033 50.3456C48.9073 50.3456 49.3113 50.1656 49.6153 49.8056C49.9193 49.4456 50.0713 48.9256 50.0713 48.2456C50.0713 47.5576 49.9193 47.0376 49.6153 46.6856C49.3113 46.3336 48.9073 46.1576 48.4033 46.1576C47.9073 46.1576 47.5073 46.3336 47.2033 46.6856C46.8993 47.0376 46.7473 47.5576 46.7473 48.2456C46.7473 48.9256 46.8993 49.4456 47.2033 49.8056C47.5073 50.1656 47.9073 50.3456 48.4033 50.3456ZM55.377 51.2816C54.777 51.2816 54.257 51.1576 53.817 50.9096C53.385 50.6536 53.049 50.2976 52.809 49.8416C52.569 49.3776 52.449 48.8336 52.449 48.2096C52.449 47.5936 52.569 47.0616 52.809 46.6136C53.049 46.1656 53.385 45.8216 53.817 45.5816C54.257 45.3336 54.777 45.2096 55.377 45.2096C55.745 45.2096 56.109 45.2736 56.469 45.4016C56.829 45.5216 57.125 45.6976 57.357 45.9296L56.973 46.7816C56.757 46.5736 56.513 46.4216 56.241 46.3256C55.969 46.2216 55.713 46.1696 55.473 46.1696C54.905 46.1696 54.465 46.3496 54.153 46.7096C53.849 47.0616 53.697 47.5656 53.697 48.2216C53.697 48.8776 53.849 49.3936 54.153 49.7696C54.465 50.1376 54.905 50.3216 55.473 50.3216C55.713 50.3216 55.969 50.2736 56.241 50.1776C56.513 50.0736 56.757 49.9176 56.973 49.7096L57.357 50.5736C57.125 50.7896 56.825 50.9616 56.457 51.0896C56.097 51.2176 55.737 51.2816 55.377 51.2816ZM61.2872 51.2816C60.6472 51.2816 60.0952 51.1616 59.6312 50.9216C59.1752 50.6736 58.8192 50.3256 58.5632 49.8776C58.3152 49.4216 58.1912 48.8816 58.1912 48.2576C58.1912 47.6496 58.3152 47.1176 58.5632 46.6616C58.8112 46.2056 59.1512 45.8496 59.5832 45.5936C60.0152 45.3376 60.5072 45.2096 61.0592 45.2096C61.6032 45.2096 62.0672 45.3296 62.4512 45.5696C62.8432 45.8016 63.1432 46.1336 63.3512 46.5656C63.5592 46.9976 63.6632 47.5136 63.6632 48.1136V48.5216H59.1512V47.7776H62.8472L62.6432 47.9456C62.6432 47.3456 62.5112 46.8816 62.2472 46.5536C61.9832 46.2256 61.6032 46.0616 61.1072 46.0616C60.7312 46.0616 60.4112 46.1496 60.1472 46.3256C59.8912 46.5016 59.6952 46.7456 59.5592 47.0576C59.4232 47.3696 59.3552 47.7336 59.3552 48.1496V48.2216C59.3552 48.6856 59.4272 49.0776 59.5712 49.3976C59.7232 49.7096 59.9432 49.9456 60.2312 50.1056C60.5192 50.2656 60.8752 50.3456 61.2992 50.3456C61.6352 50.3456 61.9632 50.2936 62.2832 50.1896C62.6112 50.0776 62.9192 49.9056 63.2072 49.6736L63.5672 50.5136C63.3032 50.7536 62.9632 50.9416 62.5472 51.0776C62.1312 51.2136 61.7112 51.2816 61.2872 51.2816Z" fill="black"/>
<path d="M28.1581 66.1736V59.1236H31.1281C31.6348 59.1236 32.0681 59.2103 32.4281 59.3836C32.7881 59.5503 33.0614 59.7936 33.2481 60.1136C33.4348 60.4336 33.5281 60.8236 33.5281 61.2836C33.5281 61.7303 33.4314 62.1169 33.2381 62.4436C33.0514 62.7703 32.7781 63.0236 32.4181 63.2036C32.0648 63.3769 31.6348 63.4636 31.1281 63.4636H29.2181V66.1736H28.1581ZM29.2181 62.5836H30.9681C31.4614 62.5836 31.8348 62.4769 32.0881 62.2636C32.3481 62.0436 32.4781 61.7169 32.4781 61.2836C32.4781 60.8569 32.3514 60.5369 32.0981 60.3236C31.8448 60.1036 31.4681 59.9936 30.9681 59.9936H29.2181V62.5836ZM36.7718 66.2636C36.2718 66.2636 35.8351 66.1603 35.4618 65.9536C35.0951 65.7403 34.8118 65.4436 34.6118 65.0636C34.4118 64.6769 34.3118 64.2269 34.3118 63.7136C34.3118 63.1936 34.4118 62.7436 34.6118 62.3636C34.8118 61.9836 35.0951 61.6903 35.4618 61.4836C35.8351 61.2703 36.2718 61.1636 36.7718 61.1636C37.2784 61.1636 37.7151 61.2703 38.0818 61.4836C38.4484 61.6903 38.7318 61.9836 38.9318 62.3636C39.1318 62.7436 39.2318 63.1936 39.2318 63.7136C39.2318 64.2269 39.1318 64.6769 38.9318 65.0636C38.7318 65.4436 38.4484 65.7403 38.0818 65.9536C37.7151 66.1603 37.2784 66.2636 36.7718 66.2636ZM36.7718 65.4236C37.2051 65.4236 37.5484 65.2736 37.8018 64.9736C38.0551 64.6736 38.1818 64.2503 38.1818 63.7036C38.1818 63.1569 38.0551 62.7369 37.8018 62.4436C37.5484 62.1503 37.2051 62.0036 36.7718 62.0036C36.3384 62.0036 35.9951 62.1503 35.7418 62.4436C35.4884 62.7369 35.3618 63.1569 35.3618 63.7036C35.3618 64.2503 35.4884 64.6736 35.7418 64.9736C35.9951 65.2736 36.3384 65.4236 36.7718 65.4236ZM42.3674 66.2636C41.9141 66.2636 41.4907 66.2103 41.0974 66.1036C40.7107 65.9969 40.3941 65.8503 40.1474 65.6636L40.4574 64.9436C40.6907 65.1236 40.9741 65.2569 41.3074 65.3436C41.6407 65.4236 41.9841 65.4636 42.3374 65.4636C42.7974 65.4636 43.1307 65.4069 43.3374 65.2936C43.5441 65.1803 43.6474 65.0003 43.6474 64.7536C43.6474 64.5203 43.5674 64.3469 43.4074 64.2336C43.2474 64.1203 43.0141 64.0636 42.7074 64.0636H41.4074V63.2936H42.6074C42.8741 63.2936 43.0841 63.2403 43.2374 63.1336C43.3907 63.0203 43.4674 62.8569 43.4674 62.6436C43.4674 62.4236 43.3774 62.2569 43.1974 62.1436C43.0241 62.0236 42.7341 61.9636 42.3274 61.9636C41.9807 61.9636 41.6574 62.0036 41.3574 62.0836C41.0574 62.1636 40.7774 62.2869 40.5174 62.4536L40.2174 61.7336C40.4974 61.5469 40.8274 61.4069 41.2074 61.3136C41.5941 61.2136 42.0107 61.1636 42.4574 61.1636C43.1174 61.1636 43.6141 61.2869 43.9474 61.5336C44.2807 61.7736 44.4474 62.1103 44.4474 62.5436C44.4474 62.8303 44.3541 63.0769 44.1674 63.2836C43.9874 63.4836 43.7374 63.6136 43.4174 63.6736V63.6036C43.6774 63.6303 43.8974 63.6969 44.0774 63.8036C44.2574 63.9103 44.3941 64.0469 44.4874 64.2136C44.5807 64.3803 44.6274 64.5769 44.6274 64.8036C44.6274 65.2503 44.4341 65.6069 44.0474 65.8736C43.6674 66.1336 43.1074 66.2636 42.3674 66.2636ZM45.5566 67.4836V65.3236H46.1066C46.2599 65.1036 46.3799 64.8703 46.4666 64.6236C46.5533 64.3703 46.6166 64.0869 46.6566 63.7736C46.6966 63.4536 46.7166 63.0903 46.7166 62.6836V61.2536H50.4866V65.3236H51.2866V67.4836H50.3866V66.1736H46.4566V67.4836H45.5566ZM47.0966 65.3336H49.4866V62.0836H47.6366V62.8936C47.6366 63.3669 47.5933 63.8136 47.5066 64.2336C47.4199 64.6536 47.2833 65.0203 47.0966 65.3336ZM52.3338 60.1336V59.0336H53.5638V60.1336H52.3338ZM52.4238 66.1736V61.2536H53.4838V66.1736H52.4238ZM54.9184 66.3036L54.5684 65.4736C54.8017 65.3869 54.9951 65.2736 55.1484 65.1336C55.3017 64.9869 55.4217 64.8036 55.5084 64.5836C55.5951 64.3636 55.6584 64.0969 55.6984 63.7836C55.7384 63.4636 55.7584 63.0836 55.7584 62.6436V61.2536H59.5984V66.1736H58.5384V62.1036H56.7284V62.6736C56.7284 63.2136 56.6951 63.6869 56.6284 64.0936C56.5684 64.5003 56.4684 64.8503 56.3284 65.1436C56.1884 65.4369 56.0017 65.6803 55.7684 65.8736C55.5351 66.0603 55.2517 66.2036 54.9184 66.3036ZM66.1661 66.2636C65.3594 66.2636 64.7294 66.0903 64.2761 65.7436C63.8227 65.3969 63.5961 64.9136 63.5961 64.2936C63.5961 63.9669 63.6594 63.6803 63.7861 63.4336C63.9194 63.1869 64.0994 62.9836 64.3261 62.8236C64.5594 62.6636 64.8227 62.5636 65.1161 62.5236V62.6236C64.8561 62.5569 64.6227 62.4436 64.4161 62.2836C64.2094 62.1236 64.0494 61.9269 63.9361 61.6936C63.8227 61.4603 63.7661 61.2036 63.7661 60.9236C63.7661 60.3303 63.9827 59.8669 64.4161 59.5336C64.8494 59.2003 65.4327 59.0336 66.1661 59.0336C66.8994 59.0336 67.4827 59.2003 67.9161 59.5336C68.3494 59.8669 68.5661 60.3303 68.5661 60.9236C68.5661 61.2036 68.5094 61.4636 68.3961 61.7036C68.2827 61.9369 68.1227 62.1336 67.9161 62.2936C67.7161 62.4469 67.4827 62.5536 67.2161 62.6136V62.5236C67.5161 62.5636 67.7794 62.6636 68.0061 62.8236C68.2327 62.9836 68.4094 63.1903 68.5361 63.4436C68.6694 63.6903 68.7361 63.9736 68.7361 64.2936C68.7361 64.9136 68.5094 65.3969 68.0561 65.7436C67.6027 66.0903 66.9727 66.2636 66.1661 66.2636ZM66.1661 65.4136C66.6861 65.4136 67.0794 65.3136 67.3461 65.1136C67.6127 64.9069 67.7461 64.6103 67.7461 64.2236C67.7461 63.8303 67.6127 63.5336 67.3461 63.3336C67.0794 63.1336 66.6861 63.0336 66.1661 63.0336C65.6527 63.0336 65.2594 63.1336 64.9861 63.3336C64.7194 63.5336 64.5861 63.8303 64.5861 64.2236C64.5861 64.6103 64.7194 64.9069 64.9861 65.1136C65.2594 65.3136 65.6527 65.4136 66.1661 65.4136ZM66.1661 62.1736C66.6127 62.1736 66.9594 62.0736 67.2061 61.8736C67.4527 61.6669 67.5761 61.3836 67.5761 61.0236C67.5761 60.6703 67.4527 60.3936 67.2061 60.1936C66.9594 59.9869 66.6127 59.8836 66.1661 59.8836C65.7261 59.8836 65.3794 59.9869 65.1261 60.1936C64.8794 60.3936 64.7561 60.6703 64.7561 61.0236C64.7561 61.3836 64.8794 61.6669 65.1261 61.8736C65.3794 62.0736 65.7261 62.1736 66.1661 62.1736Z" fill="#667085"/>
<defs>
<filter id="filter0_d_8339_572" x="0" y="0.173584" width="96" height="85.8462" filterUnits="userSpaceOnUse" color-interpolation-filters="sRGB">
<feFlood flood-opacity="0" result="BackgroundImageFix"/>
<feColorMatrix in="SourceAlpha" type="matrix" values="0 0 0 0 0 0 0 0 0 0 0 0 0 0 0 0 0 0 127 0" result="hardAlpha"/>
<feOffset dy="4"/>
<feGaussianBlur stdDeviation="2"/>
<feComposite in2="hardAlpha" operator="out"/>
<feColorMatrix type="matrix" values="0 0 0 0 0 0 0 0 0 0 0 0 0 0 0 0 0 0 0.25 0"/>
<feBlend mode="normal" in2="BackgroundImageFix" result="effect1_dropShadow_8339_572"/>
<feBlend mode="normal" in="SourceGraphic" in2="effect1_dropShadow_8339_572" result="shape"/>
</filter>
<clipPath id="clip0_8339_572">
<rect width="30" height="30" fill="white" transform="translate(33.2051 8.17358)"/>
</clipPath>
</defs>
</svg>
