<svg width="101" height="87" viewBox="0 0 101 87" fill="none" xmlns="http://www.w3.org/2000/svg">
<g filter="url(#filter0_d_8310_1160)">
<path d="M5.93525 43.0953C5.14905 41.7856 4.75597 41.1303 4.60211 40.4341C4.46596 39.8178 4.46596 39.1814 4.60211 38.5652C4.75597 37.8689 5.14905 37.2136 5.93525 35.9039L24.9806 4.17043C25.7667 2.86051 26.1598 2.20555 26.7098 1.72921C27.1964 1.30774 27.7696 0.989339 28.3923 0.79472C29.0961 0.574707 29.8823 0.574707 31.4547 0.574707H69.5452C71.1178 0.574707 71.9037 0.574707 72.6078 0.79472C73.2302 0.989339 73.8035 1.30774 74.2903 1.72921C74.8402 2.20555 75.2332 2.86051 76.0195 4.17043L95.0647 35.9039C95.851 37.2136 96.244 37.8689 96.3977 38.5652C96.5341 39.1814 96.5341 39.8178 96.3977 40.4341C96.244 41.1303 95.851 41.7856 95.0647 43.0953L76.0195 74.829C75.2332 76.1387 74.8402 76.7936 74.2903 77.27C73.8035 77.6916 73.2302 78.0098 72.6078 78.2045C71.9037 78.4247 71.1178 78.4247 69.5452 78.4247H31.4547C29.8823 78.4247 29.0961 78.4247 28.3923 78.2045C27.7696 78.0098 27.1964 77.6916 26.7098 77.27C26.1598 76.7936 25.7667 76.1387 24.9806 74.829L5.93525 43.0953Z" fill="white"/>
</g>
<path d="M60.875 30.6997H42.125C42.125 30.6997 40.25 30.6372 40.25 25.6997H62.75C62.75 30.6372 60.875 30.6997 60.875 30.6997Z" fill="#E08838"/>
<path d="M61.5 4.44971H41.5V25.6997H61.5V4.44971Z" fill="#F2BB41"/>
<path d="M57.75 11.9497H47.75V13.1997H57.75V11.9497Z" fill="#E08838"/>
<path d="M57.75 14.4497H47.75V15.6997H57.75V14.4497Z" fill="#E08838"/>
<path d="M57.75 16.9497H47.75V18.1997H57.75V16.9497Z" fill="#E08838"/>
<path d="M57.75 19.4497H47.75V20.6997H57.75V19.4497Z" fill="#E08838"/>
<path d="M57.75 21.9497H47.75V23.1997H57.75V21.9497Z" fill="#E08838"/>
<path d="M46.5 11.9497H45.25V13.1997H46.5V11.9497Z" fill="#E08838"/>
<path d="M46.5 14.4497H45.25V15.6997H46.5V14.4497Z" fill="#E08838"/>
<path d="M46.5 16.9497H45.25V18.1997H46.5V16.9497Z" fill="#E08838"/>
<path d="M46.5 19.4497H45.25V20.6997H46.5V19.4497Z" fill="#E08838"/>
<path d="M46.5 21.9497H45.25V23.1997H46.5V21.9497Z" fill="#E08838"/>
<path d="M9.66438 43.932V40.992H10.5044C10.7764 40.656 10.9964 40.244 11.1644 39.756C11.3404 39.26 11.4684 38.68 11.5484 38.016C11.6364 37.344 11.6804 36.584 11.6804 35.736V33.54H17.4644V40.992H18.6644V43.932H17.5604V42H10.7804V43.932H9.66438ZM11.7764 40.992H16.2284V34.548H12.8444V35.832C12.8444 36.656 12.8044 37.388 12.7244 38.028C12.6524 38.66 12.5364 39.22 12.3764 39.708C12.2164 40.196 12.0164 40.624 11.7764 40.992ZM22.4094 42.108C21.8174 42.108 21.3054 41.984 20.8734 41.736C20.4494 41.488 20.1174 41.136 19.8774 40.68C19.6374 40.224 19.5174 39.688 19.5174 39.072C19.5174 38.448 19.6374 37.912 19.8774 37.464C20.1174 37.008 20.4494 36.656 20.8734 36.408C21.3054 36.16 21.8174 36.036 22.4094 36.036C22.9934 36.036 23.4974 36.16 23.9214 36.408C24.3534 36.656 24.6894 37.008 24.9294 37.464C25.1694 37.92 25.2894 38.456 25.2894 39.072C25.2894 39.688 25.1694 40.224 24.9294 40.68C24.6894 41.136 24.3534 41.488 23.9214 41.736C23.4974 41.984 22.9934 42.108 22.4094 42.108ZM22.3974 41.172C22.9014 41.172 23.3054 40.992 23.6094 40.632C23.9134 40.272 24.0654 39.752 24.0654 39.072C24.0654 38.384 23.9134 37.864 23.6094 37.512C23.3054 37.16 22.9014 36.984 22.3974 36.984C21.9014 36.984 21.5014 37.16 21.1974 37.512C20.8934 37.864 20.7414 38.384 20.7414 39.072C20.7414 39.752 20.8934 40.272 21.1974 40.632C21.5014 40.992 21.9014 41.172 22.3974 41.172ZM28.0032 42V37.116H25.9392V36.144H31.2912V37.116H29.2152V42H28.0032ZM32.2756 44.16V36.144H33.4636V37.464H33.3316C33.4596 37.032 33.7116 36.688 34.0876 36.432C34.4636 36.168 34.9076 36.036 35.4196 36.036C35.9396 36.036 36.3916 36.16 36.7756 36.408C37.1676 36.656 37.4676 37.004 37.6756 37.452C37.8916 37.9 37.9996 38.44 37.9996 39.072C37.9996 39.688 37.8916 40.228 37.6756 40.692C37.4676 41.148 37.1716 41.5 36.7876 41.748C36.4036 41.988 35.9476 42.108 35.4196 42.108C34.9156 42.108 34.4756 41.98 34.0996 41.724C33.7236 41.468 33.4716 41.128 33.3436 40.704H33.4876V44.16H32.2756ZM35.1196 41.172C35.6236 41.172 36.0236 40.992 36.3196 40.632C36.6236 40.272 36.7756 39.752 36.7756 39.072C36.7756 38.384 36.6236 37.864 36.3196 37.512C36.0236 37.16 35.6236 36.984 35.1196 36.984C34.6236 36.984 34.2236 37.16 33.9196 37.512C33.6156 37.864 33.4636 38.384 33.4636 39.072C33.4636 39.752 33.6156 40.272 33.9196 40.632C34.2236 40.992 34.6236 41.172 35.1196 41.172ZM39.4823 42V36.144H40.5863V40.8H40.2743L43.7543 36.144H44.7743V42H43.6703V37.344H43.9943L40.5023 42H39.4823ZM46.5956 42V36.144H47.5916L49.7156 39.852L51.8276 36.144H52.8236V42H51.7556V37.548H52.0316L50.0036 41.052H49.4156L47.3876 37.548H47.6636V42H46.5956ZM55.2584 44.16L56.4104 41.592V42.108L53.8544 36.144H55.1504L57.1184 41.004H56.7824L58.7744 36.144H60.0224L56.5304 44.16H55.2584ZM61.0214 42V36.144H62.1254V40.8H61.8134L65.2934 36.144H66.3134V42H65.2094V37.344H65.5334L62.0414 42H61.0214ZM63.6614 35.4C63.3094 35.4 62.9934 35.34 62.7134 35.22C62.4334 35.092 62.1934 34.908 61.9934 34.668C61.7934 34.42 61.6454 34.124 61.5494 33.78L62.2094 33.552C62.3534 33.944 62.5414 34.232 62.7734 34.416C63.0134 34.6 63.3134 34.692 63.6734 34.692C64.0414 34.692 64.3414 34.604 64.5734 34.428C64.8054 34.244 65.0054 33.956 65.1734 33.564L65.8094 33.78C65.6814 34.156 65.5094 34.464 65.2934 34.704C65.0854 34.944 64.8454 35.12 64.5734 35.232C64.3014 35.344 63.9974 35.4 63.6614 35.4ZM69.3587 42V37.116H67.2947V36.144H72.6467V37.116H70.5707V42H69.3587ZM76.3439 42.108C75.7039 42.108 75.1519 41.988 74.6879 41.748C74.2319 41.5 73.8759 41.152 73.6199 40.704C73.3719 40.248 73.2479 39.708 73.2479 39.084C73.2479 38.476 73.3719 37.944 73.6199 37.488C73.8679 37.032 74.2079 36.676 74.6399 36.42C75.0719 36.164 75.5639 36.036 76.1159 36.036C76.6599 36.036 77.1239 36.156 77.5079 36.396C77.8999 36.628 78.1999 36.96 78.4079 37.392C78.6159 37.824 78.7199 38.34 78.7199 38.94V39.348H74.2079V38.604H77.9039L77.6999 38.772C77.6999 38.172 77.5679 37.708 77.3039 37.38C77.0399 37.052 76.6599 36.888 76.1639 36.888C75.7879 36.888 75.4679 36.976 75.2039 37.152C74.9479 37.328 74.7519 37.572 74.6159 37.884C74.4799 38.196 74.4119 38.56 74.4119 38.976V39.048C74.4119 39.512 74.4839 39.904 74.6279 40.224C74.7799 40.536 74.9999 40.772 75.2879 40.932C75.5759 41.092 75.9319 41.172 76.3559 41.172C76.6919 41.172 77.0199 41.12 77.3399 41.016C77.6679 40.904 77.9759 40.732 78.2639 40.5L78.6239 41.34C78.3599 41.58 78.0199 41.768 77.6039 41.904C77.1879 42.04 76.7679 42.108 76.3439 42.108ZM82.7501 42.108C82.1501 42.108 81.6301 41.984 81.1901 41.736C80.7581 41.48 80.4221 41.124 80.1821 40.668C79.9421 40.204 79.8221 39.66 79.8221 39.036C79.8221 38.42 79.9421 37.888 80.1821 37.44C80.4221 36.992 80.7581 36.648 81.1901 36.408C81.6301 36.16 82.1501 36.036 82.7501 36.036C83.1181 36.036 83.4821 36.1 83.8421 36.228C84.2021 36.348 84.4981 36.524 84.7301 36.756L84.3461 37.608C84.1301 37.4 83.8861 37.248 83.6141 37.152C83.3421 37.048 83.0861 36.996 82.8461 36.996C82.2781 36.996 81.8381 37.176 81.5261 37.536C81.2221 37.888 81.0701 38.392 81.0701 39.048C81.0701 39.704 81.2221 40.22 81.5261 40.596C81.8381 40.964 82.2781 41.148 82.8461 41.148C83.0861 41.148 83.3421 41.1 83.6141 41.004C83.8861 40.9 84.1301 40.744 84.3461 40.536L84.7301 41.4C84.4981 41.616 84.1981 41.788 83.8301 41.916C83.4701 42.044 83.1101 42.108 82.7501 42.108ZM85.9003 42V36.144H87.1123V38.172H88.7803C89.5323 38.172 90.1043 38.336 90.4963 38.664C90.8883 38.984 91.0843 39.452 91.0843 40.068C91.0843 40.46 90.9923 40.804 90.8083 41.1C90.6243 41.388 90.3603 41.612 90.0163 41.772C89.6723 41.924 89.2603 42 88.7803 42H85.9003ZM87.1123 41.172H88.6243C89.0403 41.172 89.3643 41.084 89.5963 40.908C89.8283 40.724 89.9443 40.444 89.9443 40.068C89.9443 39.7 89.8283 39.432 89.5963 39.264C89.3643 39.088 89.0403 39 88.6243 39H87.1123V41.172ZM30.5526 58V52.144H35.8566V58H34.6446V53.116H31.7646V58H30.5526ZM37.6779 60.16V52.144H38.8659V53.464H38.7339C38.8619 53.032 39.1139 52.688 39.4899 52.432C39.8659 52.168 40.3099 52.036 40.8219 52.036C41.3419 52.036 41.7939 52.16 42.1779 52.408C42.5699 52.656 42.8699 53.004 43.0779 53.452C43.2939 53.9 43.4019 54.44 43.4019 55.072C43.4019 55.688 43.2939 56.228 43.0779 56.692C42.8699 57.148 42.5739 57.5 42.1899 57.748C41.8059 57.988 41.3499 58.108 40.8219 58.108C40.3179 58.108 39.8779 57.98 39.5019 57.724C39.1259 57.468 38.8739 57.128 38.7459 56.704H38.8899V60.16H37.6779ZM40.5219 57.172C41.0259 57.172 41.4259 56.992 41.7219 56.632C42.0259 56.272 42.1779 55.752 42.1779 55.072C42.1779 54.384 42.0259 53.864 41.7219 53.512C41.4259 53.16 41.0259 52.984 40.5219 52.984C40.0259 52.984 39.6259 53.16 39.3219 53.512C39.0179 53.864 38.8659 54.384 38.8659 55.072C38.8659 55.752 39.0179 56.272 39.3219 56.632C39.6259 56.992 40.0259 57.172 40.5219 57.172ZM46.7687 58.108C46.3607 58.108 45.9927 58.028 45.6647 57.868C45.3447 57.708 45.0927 57.492 44.9087 57.22C44.7247 56.948 44.6327 56.64 44.6327 56.296C44.6327 55.864 44.7407 55.524 44.9567 55.276C45.1807 55.02 45.5447 54.84 46.0487 54.736C46.5607 54.624 47.2487 54.568 48.1127 54.568H48.6767V55.312H48.1247C47.6927 55.312 47.3287 55.328 47.0327 55.36C46.7367 55.392 46.5007 55.444 46.3247 55.516C46.1487 55.58 46.0207 55.672 45.9407 55.792C45.8687 55.912 45.8327 56.056 45.8327 56.224C45.8327 56.528 45.9367 56.776 46.1447 56.968C46.3527 57.152 46.6407 57.244 47.0087 57.244C47.3047 57.244 47.5647 57.176 47.7887 57.04C48.0127 56.896 48.1887 56.704 48.3167 56.464C48.4527 56.224 48.5207 55.948 48.5207 55.636V54.256C48.5207 53.8 48.4247 53.472 48.2327 53.272C48.0407 53.072 47.7247 52.972 47.2847 52.972C46.9487 52.972 46.6127 53.024 46.2767 53.128C45.9407 53.224 45.5967 53.38 45.2447 53.596L44.8727 52.744C45.0807 52.6 45.3207 52.476 45.5927 52.372C45.8647 52.268 46.1487 52.188 46.4447 52.132C46.7487 52.068 47.0407 52.036 47.3207 52.036C47.8567 52.036 48.2967 52.12 48.6407 52.288C48.9927 52.456 49.2527 52.712 49.4207 53.056C49.5887 53.4 49.6727 53.844 49.6727 54.388V58H48.5327V56.692H48.6407C48.5767 56.988 48.4567 57.244 48.2807 57.46C48.1127 57.668 47.9007 57.828 47.6447 57.94C47.3887 58.052 47.0967 58.108 46.7687 58.108ZM51.4706 58V52.144H54.4586C54.9386 52.144 55.3306 52.204 55.6346 52.324C55.9466 52.444 56.1746 52.62 56.3186 52.852C56.4626 53.076 56.5346 53.352 56.5346 53.68C56.5346 54.056 56.4066 54.372 56.1506 54.628C55.8946 54.876 55.5586 55.024 55.1426 55.072V54.916C55.4786 54.924 55.7626 54.992 55.9946 55.12C56.2346 55.248 56.4146 55.42 56.5346 55.636C56.6626 55.844 56.7266 56.088 56.7266 56.368C56.7266 56.872 56.5386 57.272 56.1626 57.568C55.7866 57.856 55.2506 58 54.5546 58H51.4706ZM52.6106 57.22H54.4826C54.8426 57.22 55.1186 57.144 55.3106 56.992C55.5106 56.832 55.6106 56.604 55.6106 56.308C55.6106 56.012 55.5106 55.788 55.3106 55.636C55.1186 55.484 54.8426 55.408 54.4826 55.408H52.6106V57.22ZM52.6106 54.628H54.3746C54.7026 54.628 54.9546 54.552 55.1306 54.4C55.3146 54.248 55.4066 54.04 55.4066 53.776C55.4066 53.504 55.3146 53.296 55.1306 53.152C54.9546 53.008 54.7026 52.936 54.3746 52.936H52.6106V54.628ZM58.1386 58V52.144H59.2426V56.8H58.9306L62.4106 52.144H63.4306V58H62.3266V53.344H62.6506L59.1586 58H58.1386ZM64.9998 58.156L64.5918 57.196C64.8558 57.092 65.0758 56.956 65.2518 56.788C65.4358 56.62 65.5798 56.408 65.6838 56.152C65.7878 55.888 65.8638 55.564 65.9118 55.18C65.9598 54.796 65.9838 54.332 65.9838 53.788V52.144H70.4478V58H69.2358V53.116H67.1118V53.824C67.1118 54.488 67.0718 55.068 66.9918 55.564C66.9118 56.052 66.7878 56.468 66.6198 56.812C66.4518 57.156 66.2318 57.436 65.9598 57.652C65.6958 57.868 65.3758 58.036 64.9998 58.156Z" fill="black"/>
<path d="M31.453 71.5747V64.5247H34.423C34.9296 64.5247 35.363 64.6114 35.723 64.7847C36.083 64.9514 36.3563 65.1947 36.543 65.5147C36.7296 65.8347 36.823 66.2247 36.823 66.6847C36.823 67.1314 36.7263 67.518 36.533 67.8447C36.3463 68.1714 36.073 68.4247 35.713 68.6047C35.3596 68.778 34.9296 68.8647 34.423 68.8647H32.513V71.5747H31.453ZM32.513 67.9847H34.263C34.7563 67.9847 35.1296 67.878 35.383 67.6647C35.643 67.4447 35.773 67.118 35.773 66.6847C35.773 66.258 35.6463 65.938 35.393 65.7247C35.1396 65.5047 34.763 65.3947 34.263 65.3947H32.513V67.9847ZM40.0666 71.6647C39.5666 71.6647 39.13 71.5614 38.7566 71.3547C38.39 71.1414 38.1066 70.8447 37.9066 70.4647C37.7066 70.078 37.6066 69.628 37.6066 69.1147C37.6066 68.5947 37.7066 68.1447 37.9066 67.7647C38.1066 67.3847 38.39 67.0914 38.7566 66.8847C39.13 66.6714 39.5666 66.5647 40.0666 66.5647C40.5733 66.5647 41.01 66.6714 41.3766 66.8847C41.7433 67.0914 42.0266 67.3847 42.2266 67.7647C42.4266 68.1447 42.5266 68.5947 42.5266 69.1147C42.5266 69.628 42.4266 70.078 42.2266 70.4647C42.0266 70.8447 41.7433 71.1414 41.3766 71.3547C41.01 71.5614 40.5733 71.6647 40.0666 71.6647ZM40.0666 70.8247C40.5 70.8247 40.8433 70.6747 41.0966 70.3747C41.35 70.0747 41.4766 69.6514 41.4766 69.1047C41.4766 68.558 41.35 68.138 41.0966 67.8447C40.8433 67.5514 40.5 67.4047 40.0666 67.4047C39.6333 67.4047 39.29 67.5514 39.0366 67.8447C38.7833 68.138 38.6566 68.558 38.6566 69.1047C38.6566 69.6514 38.7833 70.0747 39.0366 70.3747C39.29 70.6747 39.6333 70.8247 40.0666 70.8247ZM45.6623 71.6647C45.2089 71.6647 44.7856 71.6114 44.3923 71.5047C44.0056 71.398 43.6889 71.2514 43.4423 71.0647L43.7523 70.3447C43.9856 70.5247 44.2689 70.658 44.6023 70.7447C44.9356 70.8247 45.2789 70.8647 45.6323 70.8647C46.0923 70.8647 46.4256 70.808 46.6323 70.6947C46.8389 70.5814 46.9423 70.4014 46.9423 70.1547C46.9423 69.9214 46.8623 69.748 46.7023 69.6347C46.5423 69.5214 46.3089 69.4647 46.0023 69.4647H44.7023V68.6947H45.9023C46.1689 68.6947 46.3789 68.6414 46.5323 68.5347C46.6856 68.4214 46.7623 68.258 46.7623 68.0447C46.7623 67.8247 46.6723 67.658 46.4923 67.5447C46.3189 67.4247 46.0289 67.3647 45.6223 67.3647C45.2756 67.3647 44.9523 67.4047 44.6523 67.4847C44.3523 67.5647 44.0723 67.688 43.8123 67.8547L43.5123 67.1347C43.7923 66.948 44.1223 66.808 44.5023 66.7147C44.8889 66.6147 45.3056 66.5647 45.7523 66.5647C46.4123 66.5647 46.9089 66.688 47.2423 66.9347C47.5756 67.1747 47.7423 67.5114 47.7423 67.9447C47.7423 68.2314 47.6489 68.478 47.4623 68.6847C47.2823 68.8847 47.0323 69.0147 46.7123 69.0747V69.0047C46.9723 69.0314 47.1923 69.098 47.3723 69.2047C47.5523 69.3114 47.6889 69.448 47.7823 69.6147C47.8756 69.7814 47.9223 69.978 47.9223 70.2047C47.9223 70.6514 47.7289 71.008 47.3423 71.2747C46.9623 71.5347 46.4023 71.6647 45.6623 71.6647ZM48.8515 72.8847V70.7247H49.4015C49.5548 70.5047 49.6748 70.2714 49.7615 70.0247C49.8482 69.7714 49.9115 69.488 49.9515 69.1747C49.9915 68.8547 50.0115 68.4914 50.0115 68.0847V66.6547H53.7815V70.7247H54.5815V72.8847H53.6815V71.5747H49.7515V72.8847H48.8515ZM50.3915 70.7347H52.7815V67.4847H50.9315V68.2947C50.9315 68.768 50.8882 69.2147 50.8015 69.6347C50.7148 70.0547 50.5782 70.4214 50.3915 70.7347ZM55.6287 65.5347V64.4347H56.8587V65.5347H55.6287ZM55.7187 71.5747V66.6547H56.7787V71.5747H55.7187ZM58.2133 71.7047L57.8633 70.8747C58.0966 70.788 58.2899 70.6747 58.4433 70.5347C58.5966 70.388 58.7166 70.2047 58.8033 69.9847C58.8899 69.7647 58.9533 69.498 58.9933 69.1847C59.0333 68.8647 59.0533 68.4847 59.0533 68.0447V66.6547H62.8933V71.5747H61.8333V67.5047H60.0233V68.0747C60.0233 68.6147 59.9899 69.088 59.9233 69.4947C59.8633 69.9014 59.7633 70.2514 59.6233 70.5447C59.4833 70.838 59.2966 71.0814 59.0633 71.2747C58.8299 71.4614 58.5466 71.6047 58.2133 71.7047ZM67.4609 71.5747L70.8909 65.0047L70.9109 65.4447H67.0609V64.5247H71.8609V65.3247L68.6209 71.5747H67.4609Z" fill="#667085"/>
<defs>
<filter id="filter0_d_8310_1160" x="0.5" y="0.574707" width="100" height="85.8501" filterUnits="userSpaceOnUse" color-interpolation-filters="sRGB">
<feFlood flood-opacity="0" result="BackgroundImageFix"/>
<feColorMatrix in="SourceAlpha" type="matrix" values="0 0 0 0 0 0 0 0 0 0 0 0 0 0 0 0 0 0 127 0" result="hardAlpha"/>
<feOffset dy="4"/>
<feGaussianBlur stdDeviation="2"/>
<feComposite in2="hardAlpha" operator="out"/>
<feColorMatrix type="matrix" values="0 0 0 0 0 0 0 0 0 0 0 0 0 0 0 0 0 0 0.25 0"/>
<feBlend mode="normal" in2="BackgroundImageFix" result="effect1_dropShadow_8310_1160"/>
<feBlend mode="normal" in="SourceGraphic" in2="effect1_dropShadow_8310_1160" result="shape"/>
</filter>
</defs>
</svg>
