<svg width="96" height="87" viewBox="0 0 96 87" fill="none" xmlns="http://www.w3.org/2000/svg">
<g filter="url(#filter0_d_8310_792)">
<path d="M5.37285 43.0185C4.62083 41.7089 4.24484 41.0536 4.09767 40.3574C3.96744 39.7412 3.96744 39.1048 4.09767 38.4886C4.24484 37.7924 4.62083 37.1371 5.37285 35.8274L23.5901 4.09555C24.3421 2.78569 24.7181 2.13076 25.2442 1.65444C25.7096 1.233 26.2579 0.914612 26.8535 0.720002C27.5267 0.5 28.2787 0.5 29.7827 0.5H66.2171C67.7214 0.5 68.4731 0.5 69.1466 0.720002C69.7419 0.914612 70.2903 1.233 70.756 1.65444C71.282 2.13076 71.6578 2.78569 72.41 4.09555L90.6271 35.8274C91.3792 37.1371 91.7551 37.7924 91.9021 38.4886C92.0326 39.1048 92.0326 39.7412 91.9021 40.3574C91.7551 41.0536 91.3792 41.7089 90.6271 43.0185L72.41 74.7506C71.6578 76.0603 71.282 76.7151 70.756 77.1915C70.2903 77.6131 69.7419 77.9313 69.1466 78.1259C68.4731 78.3462 67.7214 78.3462 66.2171 78.3462H29.7827C28.2787 78.3462 27.5267 78.3462 26.8535 78.1259C26.2579 77.9313 25.7096 77.6131 25.2442 77.1915C24.7181 76.7151 24.3421 76.0603 23.5901 74.7506L5.37285 43.0185Z" fill="white"/>
</g>
<g clip-path="url(#clip0_8310_792)">
<path d="M38 22.5H44.875V24.0625C44.875 24.9742 44.5128 25.8485 43.8682 26.4932C43.2235 27.1378 42.3492 27.5 41.4375 27.5C40.5258 27.5 39.6515 27.1378 39.0068 26.4932C38.3622 25.8485 38 24.9742 38 24.0625V22.5ZM43 7.64998C45.5 7.64998 46.75 11.25 46.75 13.75C46.75 15 46.125 16.25 45.5 18.125L44.875 20H38C38 18.75 37.375 16.875 37.375 13.75C37.375 10.625 39.8725 7.64998 43 7.64998ZM58.0675 17.6225L57.7962 19.1612C57.6379 20.0592 57.1294 20.8574 56.3826 21.3804C55.6357 21.9034 54.7117 22.1083 53.8137 21.95C52.9158 21.7917 52.1176 21.2832 51.5946 20.5363C51.0716 19.7894 50.8667 18.8654 51.025 17.9675L51.2975 16.43L58.0675 17.6225ZM55.7225 2.13123C58.8025 2.67373 60.745 6.03623 60.2025 9.11373C59.66 12.1925 58.7188 13.93 58.5025 15.1612L51.7312 13.9675L51.4412 12.0125C51.1512 10.0575 50.7537 8.71748 50.97 7.48748C51.4038 5.02498 53.26 1.69748 55.7225 2.13123Z" fill="#F2BB41"/>
</g>
<path d="M31.1129 43V34.54H38.2649V43H37.0289V35.584H32.3609V43H31.1129ZM42.9298 43.108C42.2898 43.108 41.7378 42.988 41.2738 42.748C40.8178 42.5 40.4618 42.152 40.2058 41.704C39.9578 41.248 39.8338 40.708 39.8338 40.084C39.8338 39.476 39.9578 38.944 40.2058 38.488C40.4538 38.032 40.7938 37.676 41.2258 37.42C41.6578 37.164 42.1498 37.036 42.7018 37.036C43.2458 37.036 43.7098 37.156 44.0938 37.396C44.4858 37.628 44.7858 37.96 44.9938 38.392C45.2018 38.824 45.3058 39.34 45.3058 39.94V40.348H40.7938V39.604H44.4898L44.2858 39.772C44.2858 39.172 44.1538 38.708 43.8898 38.38C43.6258 38.052 43.2458 37.888 42.7498 37.888C42.3738 37.888 42.0538 37.976 41.7898 38.152C41.5338 38.328 41.3378 38.572 41.2018 38.884C41.0658 39.196 40.9978 39.56 40.9978 39.976V40.048C40.9978 40.512 41.0698 40.904 41.2138 41.224C41.3658 41.536 41.5858 41.772 41.8738 41.932C42.1618 42.092 42.5178 42.172 42.9418 42.172C43.2778 42.172 43.6058 42.12 43.9258 42.016C44.2538 41.904 44.5618 41.732 44.8498 41.5L45.2098 42.34C44.9458 42.58 44.6058 42.768 44.1898 42.904C43.7738 43.04 43.3538 43.108 42.9298 43.108ZM46.756 45.16V37.144H47.944V38.464H47.812C47.94 38.032 48.192 37.688 48.568 37.432C48.944 37.168 49.388 37.036 49.9 37.036C50.42 37.036 50.872 37.16 51.256 37.408C51.648 37.656 51.948 38.004 52.156 38.452C52.372 38.9 52.48 39.44 52.48 40.072C52.48 40.688 52.372 41.228 52.156 41.692C51.948 42.148 51.652 42.5 51.268 42.748C50.884 42.988 50.428 43.108 49.9 43.108C49.396 43.108 48.956 42.98 48.58 42.724C48.204 42.468 47.952 42.128 47.824 41.704H47.968V45.16H46.756ZM49.6 42.172C50.104 42.172 50.504 41.992 50.8 41.632C51.104 41.272 51.256 40.752 51.256 40.072C51.256 39.384 51.104 38.864 50.8 38.512C50.504 38.16 50.104 37.984 49.6 37.984C49.104 37.984 48.704 38.16 48.4 38.512C48.096 38.864 47.944 39.384 47.944 40.072C47.944 40.752 48.096 41.272 48.4 41.632C48.704 41.992 49.104 42.172 49.6 42.172ZM53.9628 43V37.144H55.1148V42.04H57.3588V37.144H58.5108V42.04H60.7548V37.144H61.9068V43H53.9628ZM63.6402 35.788V34.528H65.0562V35.788H63.6402ZM63.7482 43V37.144H64.9602V43H63.7482ZM31.7909 59V53.144H33.0029V55.52H33.9869L35.7989 53.144H37.1189L34.9469 56.036L34.6469 55.652C34.8709 55.676 35.0669 55.732 35.2349 55.82C35.4029 55.908 35.5589 56.04 35.7029 56.216C35.8549 56.392 36.0149 56.624 36.1829 56.912L37.3949 59H36.0989L35.0789 57.248C34.9589 57.04 34.8389 56.88 34.7189 56.768C34.6069 56.656 34.4829 56.58 34.3469 56.54C34.2109 56.492 34.0389 56.468 33.8309 56.468H33.0029V59H31.7909ZM38.2951 61.16V53.144H39.4831V54.464H39.3511C39.4791 54.032 39.7311 53.688 40.1071 53.432C40.4831 53.168 40.9271 53.036 41.4391 53.036C41.9591 53.036 42.4111 53.16 42.7951 53.408C43.1871 53.656 43.4871 54.004 43.6951 54.452C43.9111 54.9 44.0191 55.44 44.0191 56.072C44.0191 56.688 43.9111 57.228 43.6951 57.692C43.4871 58.148 43.1911 58.5 42.8071 58.748C42.4231 58.988 41.9671 59.108 41.4391 59.108C40.9351 59.108 40.4951 58.98 40.1191 58.724C39.7431 58.468 39.4911 58.128 39.3631 57.704H39.5071V61.16H38.2951ZM41.1391 58.172C41.6431 58.172 42.0431 57.992 42.3391 57.632C42.6431 57.272 42.7951 56.752 42.7951 56.072C42.7951 55.384 42.6431 54.864 42.3391 54.512C42.0431 54.16 41.6431 53.984 41.1391 53.984C40.6431 53.984 40.2431 54.16 39.9391 54.512C39.6351 54.864 39.4831 55.384 39.4831 56.072C39.4831 56.752 39.6351 57.272 39.9391 57.632C40.2431 57.992 40.6431 58.172 41.1391 58.172ZM48.0578 59.108C47.4658 59.108 46.9538 58.984 46.5218 58.736C46.0978 58.488 45.7658 58.136 45.5258 57.68C45.2858 57.224 45.1658 56.688 45.1658 56.072C45.1658 55.448 45.2858 54.912 45.5258 54.464C45.7658 54.008 46.0978 53.656 46.5218 53.408C46.9538 53.16 47.4658 53.036 48.0578 53.036C48.6418 53.036 49.1458 53.16 49.5698 53.408C50.0018 53.656 50.3378 54.008 50.5778 54.464C50.8178 54.92 50.9378 55.456 50.9378 56.072C50.9378 56.688 50.8178 57.224 50.5778 57.68C50.3378 58.136 50.0018 58.488 49.5698 58.736C49.1458 58.984 48.6418 59.108 48.0578 59.108ZM48.0458 58.172C48.5498 58.172 48.9538 57.992 49.2578 57.632C49.5618 57.272 49.7138 56.752 49.7138 56.072C49.7138 55.384 49.5618 54.864 49.2578 54.512C48.9538 54.16 48.5498 53.984 48.0458 53.984C47.5498 53.984 47.1498 54.16 46.8458 54.512C46.5418 54.864 46.3898 55.384 46.3898 56.072C46.3898 56.752 46.5418 57.272 46.8458 57.632C47.1498 57.992 47.5498 58.172 48.0458 58.172ZM52.4276 59V53.144H53.6396V55.52H54.6236L56.4356 53.144H57.7556L55.5836 56.036L55.2836 55.652C55.5076 55.676 55.7036 55.732 55.8716 55.82C56.0396 55.908 56.1956 56.04 56.3396 56.216C56.4916 56.392 56.6516 56.624 56.8196 56.912L58.0316 59H56.7356L55.7156 57.248C55.5956 57.04 55.4756 56.88 55.3556 56.768C55.2436 56.656 55.1196 56.58 54.9836 56.54C54.8476 56.492 54.6756 56.468 54.4676 56.468H53.6396V59H52.4276ZM58.9198 59V53.144H60.0238V57.8H59.7118L63.1918 53.144H64.2118V59H63.1078V54.344H63.4318L59.9398 59H58.9198Z" fill="black"/>
<path d="M27.953 74V66.95H30.923C31.4296 66.95 31.863 67.0367 32.223 67.21C32.583 67.3767 32.8563 67.62 33.043 67.94C33.2296 68.26 33.323 68.65 33.323 69.11C33.323 69.5567 33.2263 69.9433 33.033 70.27C32.8463 70.5967 32.573 70.85 32.213 71.03C31.8596 71.2033 31.4296 71.29 30.923 71.29H29.013V74H27.953ZM29.013 70.41H30.763C31.2563 70.41 31.6296 70.3033 31.883 70.09C32.143 69.87 32.273 69.5433 32.273 69.11C32.273 68.6833 32.1463 68.3633 31.893 68.15C31.6396 67.93 31.263 67.82 30.763 67.82H29.013V70.41ZM36.5666 74.09C36.0666 74.09 35.63 73.9867 35.2566 73.78C34.89 73.5667 34.6066 73.27 34.4066 72.89C34.2066 72.5033 34.1066 72.0533 34.1066 71.54C34.1066 71.02 34.2066 70.57 34.4066 70.19C34.6066 69.81 34.89 69.5167 35.2566 69.31C35.63 69.0967 36.0666 68.99 36.5666 68.99C37.0733 68.99 37.51 69.0967 37.8766 69.31C38.2433 69.5167 38.5266 69.81 38.7266 70.19C38.9266 70.57 39.0266 71.02 39.0266 71.54C39.0266 72.0533 38.9266 72.5033 38.7266 72.89C38.5266 73.27 38.2433 73.5667 37.8766 73.78C37.51 73.9867 37.0733 74.09 36.5666 74.09ZM36.5666 73.25C37 73.25 37.3433 73.1 37.5966 72.8C37.85 72.5 37.9766 72.0767 37.9766 71.53C37.9766 70.9833 37.85 70.5633 37.5966 70.27C37.3433 69.9767 37 69.83 36.5666 69.83C36.1333 69.83 35.79 69.9767 35.5366 70.27C35.2833 70.5633 35.1566 70.9833 35.1566 71.53C35.1566 72.0767 35.2833 72.5 35.5366 72.8C35.79 73.1 36.1333 73.25 36.5666 73.25ZM42.1623 74.09C41.7089 74.09 41.2856 74.0367 40.8923 73.93C40.5056 73.8233 40.1889 73.6767 39.9423 73.49L40.2523 72.77C40.4856 72.95 40.7689 73.0833 41.1023 73.17C41.4356 73.25 41.7789 73.29 42.1323 73.29C42.5923 73.29 42.9256 73.2333 43.1323 73.12C43.3389 73.0067 43.4423 72.8267 43.4423 72.58C43.4423 72.3467 43.3623 72.1733 43.2023 72.06C43.0423 71.9467 42.8089 71.89 42.5023 71.89H41.2023V71.12H42.4023C42.6689 71.12 42.8789 71.0667 43.0323 70.96C43.1856 70.8467 43.2623 70.6833 43.2623 70.47C43.2623 70.25 43.1723 70.0833 42.9923 69.97C42.8189 69.85 42.5289 69.79 42.1223 69.79C41.7756 69.79 41.4523 69.83 41.1523 69.91C40.8523 69.99 40.5723 70.1133 40.3123 70.28L40.0123 69.56C40.2923 69.3733 40.6223 69.2333 41.0023 69.14C41.3889 69.04 41.8056 68.99 42.2523 68.99C42.9123 68.99 43.4089 69.1133 43.7423 69.36C44.0756 69.6 44.2423 69.9367 44.2423 70.37C44.2423 70.6567 44.1489 70.9033 43.9623 71.11C43.7823 71.31 43.5323 71.44 43.2123 71.5V71.43C43.4723 71.4567 43.6923 71.5233 43.8723 71.63C44.0523 71.7367 44.1889 71.8733 44.2823 72.04C44.3756 72.2067 44.4223 72.4033 44.4223 72.63C44.4223 73.0767 44.2289 73.4333 43.8423 73.7C43.4623 73.96 42.9023 74.09 42.1623 74.09ZM45.3515 75.31V73.15H45.9015C46.0548 72.93 46.1748 72.6967 46.2615 72.45C46.3482 72.1967 46.4115 71.9133 46.4515 71.6C46.4915 71.28 46.5115 70.9167 46.5115 70.51V69.08H50.2815V73.15H51.0815V75.31H50.1815V74H46.2515V75.31H45.3515ZM46.8915 73.16H49.2815V69.91H47.4315V70.72C47.4315 71.1933 47.3882 71.64 47.3015 72.06C47.2148 72.48 47.0782 72.8467 46.8915 73.16ZM52.1287 67.96V66.86H53.3587V67.96H52.1287ZM52.2187 74V69.08H53.2787V74H52.2187ZM54.7133 74.13L54.3633 73.3C54.5966 73.2133 54.7899 73.1 54.9433 72.96C55.0966 72.8133 55.2166 72.63 55.3033 72.41C55.3899 72.19 55.4533 71.9233 55.4933 71.61C55.5333 71.29 55.5533 70.91 55.5533 70.47V69.08H59.3933V74H58.3333V69.93H56.5233V70.5C56.5233 71.04 56.4899 71.5133 56.4233 71.92C56.3633 72.3267 56.2633 72.6767 56.1233 72.97C55.9833 73.2633 55.7966 73.5067 55.5633 73.7C55.3299 73.8867 55.0466 74.03 54.7133 74.13ZM64.0009 74V73.1H65.7309V67.83L66.2709 67.86L64.3509 69.06L63.9109 68.26L66.0209 66.95H66.7909V73.1H68.4009V74H64.0009Z" fill="#667085"/>
<defs>
<filter id="filter0_d_8310_792" x="0" y="0.5" width="96" height="85.8462" filterUnits="userSpaceOnUse" color-interpolation-filters="sRGB">
<feFlood flood-opacity="0" result="BackgroundImageFix"/>
<feColorMatrix in="SourceAlpha" type="matrix" values="0 0 0 0 0 0 0 0 0 0 0 0 0 0 0 0 0 0 127 0" result="hardAlpha"/>
<feOffset dy="4"/>
<feGaussianBlur stdDeviation="2"/>
<feComposite in2="hardAlpha" operator="out"/>
<feColorMatrix type="matrix" values="0 0 0 0 0 0 0 0 0 0 0 0 0 0 0 0 0 0 0.25 0"/>
<feBlend mode="normal" in2="BackgroundImageFix" result="effect1_dropShadow_8310_792"/>
<feBlend mode="normal" in="SourceGraphic" in2="effect1_dropShadow_8310_792" result="shape"/>
</filter>
<clipPath id="clip0_8310_792">
<rect width="30" height="30" fill="white" transform="translate(33)"/>
</clipPath>
</defs>
</svg>
