<svg width="96" height="87" viewBox="0 0 96 87" fill="none" xmlns="http://www.w3.org/2000/svg">
<g filter="url(#filter0_d_8310_820)">
<path d="M5.37285 43.0185C4.62083 41.7089 4.24484 41.0536 4.09767 40.3574C3.96744 39.7412 3.96744 39.1048 4.09767 38.4886C4.24484 37.7924 4.62083 37.1371 5.37285 35.8274L23.5901 4.09555C24.3421 2.78569 24.7181 2.13076 25.2442 1.65444C25.7096 1.233 26.2579 0.914612 26.8535 0.720002C27.5267 0.5 28.2787 0.5 29.7827 0.5H66.2171C67.7214 0.5 68.4731 0.5 69.1466 0.720002C69.7419 0.914612 70.2903 1.233 70.756 1.65444C71.282 2.13076 71.6578 2.78569 72.41 4.09555L90.6271 35.8274C91.3792 37.1371 91.7551 37.7924 91.9021 38.4886C92.0326 39.1048 92.0326 39.7412 91.9021 40.3574C91.7551 41.0536 91.3792 41.7089 90.6271 43.0185L72.41 74.7506C71.6578 76.0603 71.282 76.7151 70.756 77.1915C70.2903 77.6131 69.7419 77.9313 69.1466 78.1259C68.4731 78.3462 67.7214 78.3462 66.2171 78.3462H29.7827C28.2787 78.3462 27.5267 78.3462 26.8535 78.1259C26.2579 77.9313 25.7096 77.6131 25.2442 77.1915C24.7181 76.7151 24.3421 76.0603 23.5901 74.7506L5.37285 43.0185Z" fill="white"/>
</g>
<g clip-path="url(#clip0_8310_820)">
<path d="M58.5005 20.5293C57.1402 20.1911 56.1248 18.9647 56.1248 17.4998C56.1248 15.7738 57.5239 15 59.25 15C59.4492 15 59.6571 15.0258 59.8464 15.0626C59.8552 15.2503 59.8748 15.435 59.8748 15.6248C59.8748 17.6214 59.3746 18.8762 58.5005 20.5293ZM41.0473 24.6062C42.165 23.0089 44.8598 21.8747 48 21.8747C51.1396 21.8747 53.8277 23.0147 54.9455 24.612C52.9898 26.0292 50.5945 26.8748 48 26.8748C45.4024 26.8748 43.0045 26.0265 41.0473 24.6062ZM36.1252 15C36.1252 14.8081 36.1448 14.6214 36.1536 14.4321C36.3429 14.3953 36.5504 14.3746 36.75 14.3746C38.4761 14.3746 39.8752 15.7738 39.8752 17.4998C39.8752 18.9646 38.8583 20.1889 37.4984 20.5272C36.6248 18.8746 36.1252 16.9955 36.1252 15ZM48 3.12463C53.4652 3.12463 58.0024 6.84047 59.3793 11.8965H36.6207C37.9976 6.84053 42.5348 3.12463 48 3.12463ZM48 0C39.7158 0 33 6.71537 33 15C33 23.2842 39.7158 30 48 30C56.2842 30 63 23.2842 63 15C63 6.71537 56.2842 0 48 0Z" fill="#F2BB41"/>
<path d="M52.6551 16.5516C52.6551 17.6942 50.5613 18.6206 47.9782 18.6206C45.3951 18.6206 43.3013 17.6942 43.3013 16.5516C43.3013 15.409 45.3951 14.4827 47.9782 14.4827C50.5613 14.4827 52.6551 15.409 52.6551 16.5516Z" fill="#E08838"/>
</g>
<path d="M27.9957 43V34.54H35.1477V43H33.9117V35.584H29.2437V43H27.9957ZM39.6086 43.108C39.0166 43.108 38.5046 42.984 38.0726 42.736C37.6486 42.488 37.3166 42.136 37.0766 41.68C36.8366 41.224 36.7166 40.688 36.7166 40.072C36.7166 39.448 36.8366 38.912 37.0766 38.464C37.3166 38.008 37.6486 37.656 38.0726 37.408C38.5046 37.16 39.0166 37.036 39.6086 37.036C40.1926 37.036 40.6966 37.16 41.1206 37.408C41.5526 37.656 41.8886 38.008 42.1286 38.464C42.3686 38.92 42.4886 39.456 42.4886 40.072C42.4886 40.688 42.3686 41.224 42.1286 41.68C41.8886 42.136 41.5526 42.488 41.1206 42.736C40.6966 42.984 40.1926 43.108 39.6086 43.108ZM39.5966 42.172C40.1006 42.172 40.5046 41.992 40.8086 41.632C41.1126 41.272 41.2646 40.752 41.2646 40.072C41.2646 39.384 41.1126 38.864 40.8086 38.512C40.5046 38.16 40.1006 37.984 39.5966 37.984C39.1006 37.984 38.7006 38.16 38.3966 38.512C38.0926 38.864 37.9406 39.384 37.9406 40.072C37.9406 40.752 38.0926 41.272 38.3966 41.632C38.7006 41.992 39.1006 42.172 39.5966 42.172ZM47.6984 43V40.744C47.4824 40.864 47.2504 40.956 47.0024 41.02C46.7624 41.084 46.5064 41.116 46.2344 41.116C45.6744 41.116 45.2064 41.024 44.8304 40.84C44.4624 40.656 44.1864 40.384 44.0024 40.024C43.8264 39.656 43.7384 39.196 43.7384 38.644V37.144H44.9504V38.548C44.9504 38.908 44.9984 39.208 45.0944 39.448C45.1984 39.68 45.3584 39.852 45.5744 39.964C45.7904 40.068 46.0744 40.12 46.4264 40.12C46.6824 40.12 46.9104 40.092 47.1104 40.036C47.3104 39.972 47.5024 39.876 47.6864 39.748V37.144H48.8984V43H47.6984ZM52.6007 43.108C52.1927 43.108 51.8247 43.028 51.4967 42.868C51.1767 42.708 50.9247 42.492 50.7407 42.22C50.5567 41.948 50.4647 41.64 50.4647 41.296C50.4647 40.864 50.5727 40.524 50.7887 40.276C51.0127 40.02 51.3767 39.84 51.8807 39.736C52.3927 39.624 53.0807 39.568 53.9447 39.568H54.5087V40.312H53.9567C53.5247 40.312 53.1607 40.328 52.8647 40.36C52.5687 40.392 52.3327 40.444 52.1567 40.516C51.9807 40.58 51.8527 40.672 51.7727 40.792C51.7007 40.912 51.6647 41.056 51.6647 41.224C51.6647 41.528 51.7687 41.776 51.9767 41.968C52.1847 42.152 52.4727 42.244 52.8407 42.244C53.1367 42.244 53.3967 42.176 53.6207 42.04C53.8447 41.896 54.0207 41.704 54.1487 41.464C54.2847 41.224 54.3527 40.948 54.3527 40.636V39.256C54.3527 38.8 54.2567 38.472 54.0647 38.272C53.8727 38.072 53.5567 37.972 53.1167 37.972C52.7807 37.972 52.4447 38.024 52.1087 38.128C51.7727 38.224 51.4287 38.38 51.0767 38.596L50.7047 37.744C50.9127 37.6 51.1527 37.476 51.4247 37.372C51.6967 37.268 51.9807 37.188 52.2767 37.132C52.5807 37.068 52.8727 37.036 53.1527 37.036C53.6887 37.036 54.1287 37.12 54.4727 37.288C54.8247 37.456 55.0847 37.712 55.2527 38.056C55.4207 38.4 55.5047 38.844 55.5047 39.388V43H54.3647V41.692H54.4727C54.4087 41.988 54.2887 42.244 54.1127 42.46C53.9447 42.668 53.7327 42.828 53.4767 42.94C53.2207 43.052 52.9287 43.108 52.6007 43.108ZM58.5266 43V38.116H56.4626V37.144H61.8146V38.116H59.7386V43H58.5266ZM62.787 43V37.144H63.891V41.8H63.579L67.059 37.144H68.079V43H66.975V38.344H67.299L63.807 43H62.787ZM26.5292 59V53.144H29.5172C29.9972 53.144 30.3892 53.204 30.6932 53.324C31.0052 53.444 31.2332 53.62 31.3772 53.852C31.5212 54.076 31.5932 54.352 31.5932 54.68C31.5932 55.056 31.4652 55.372 31.2092 55.628C30.9532 55.876 30.6172 56.024 30.2012 56.072V55.916C30.5372 55.924 30.8212 55.992 31.0532 56.12C31.2932 56.248 31.4732 56.42 31.5932 56.636C31.7212 56.844 31.7852 57.088 31.7852 57.368C31.7852 57.872 31.5972 58.272 31.2212 58.568C30.8452 58.856 30.3092 59 29.6132 59H26.5292ZM27.6692 58.22H29.5412C29.9012 58.22 30.1772 58.144 30.3692 57.992C30.5692 57.832 30.6692 57.604 30.6692 57.308C30.6692 57.012 30.5692 56.788 30.3692 56.636C30.1772 56.484 29.9012 56.408 29.5412 56.408H27.6692V58.22ZM27.6692 55.628H29.4332C29.7612 55.628 30.0132 55.552 30.1892 55.4C30.3732 55.248 30.4652 55.04 30.4652 54.776C30.4652 54.504 30.3732 54.296 30.1892 54.152C30.0132 54.008 29.7612 53.936 29.4332 53.936H27.6692V55.628ZM35.7532 59.108C35.1612 59.108 34.6492 58.984 34.2172 58.736C33.7932 58.488 33.4612 58.136 33.2212 57.68C32.9812 57.224 32.8612 56.688 32.8612 56.072C32.8612 55.448 32.9812 54.912 33.2212 54.464C33.4612 54.008 33.7932 53.656 34.2172 53.408C34.6492 53.16 35.1612 53.036 35.7532 53.036C36.3372 53.036 36.8412 53.16 37.2652 53.408C37.6972 53.656 38.0332 54.008 38.2732 54.464C38.5132 54.92 38.6332 55.456 38.6332 56.072C38.6332 56.688 38.5132 57.224 38.2732 57.68C38.0332 58.136 37.6972 58.488 37.2652 58.736C36.8412 58.984 36.3372 59.108 35.7532 59.108ZM35.7412 58.172C36.2452 58.172 36.6492 57.992 36.9532 57.632C37.2572 57.272 37.4092 56.752 37.4092 56.072C37.4092 55.384 37.2572 54.864 36.9532 54.512C36.6492 54.16 36.2452 53.984 35.7412 53.984C35.2452 53.984 34.8452 54.16 34.5412 54.512C34.2372 54.864 34.0852 55.384 34.0852 56.072C34.0852 56.752 34.2372 57.272 34.5412 57.632C34.8452 57.992 35.2452 58.172 35.7412 58.172ZM39.5229 60.56V58.04H40.1709C40.3469 57.776 40.4869 57.492 40.5909 57.188C40.6949 56.884 40.7709 56.54 40.8189 56.156C40.8669 55.772 40.8909 55.336 40.8909 54.848V53.144H45.2229V58.04H46.1589V60.56H45.1269V59H40.5669V60.56H39.5229ZM41.2989 58.04H44.0709V54.092H41.9469V55.1C41.9469 55.652 41.8909 56.188 41.7789 56.708C41.6669 57.228 41.5069 57.672 41.2989 58.04ZM47.2691 51.788V50.528H48.6851V51.788H47.2691ZM47.3771 59V53.144H48.5891V59H47.3771ZM50.412 59V53.144H51.624V55.508H54.54V53.144H55.752V59H54.54V56.468H51.624V59H50.412ZM57.5604 59V53.144H58.7724V55.508H61.6884V53.144H62.9004V59H61.6884V56.468H58.7724V59H57.5604ZM64.2169 59L65.1049 57.464C65.2569 57.192 65.4489 56.976 65.6809 56.816C65.9129 56.648 66.1489 56.564 66.3889 56.564H66.5809V56.684C66.1409 56.684 65.7609 56.616 65.4409 56.48C65.1289 56.344 64.8889 56.144 64.7209 55.88C64.5609 55.616 64.4809 55.3 64.4809 54.932C64.4809 54.388 64.6649 53.956 65.0329 53.636C65.4009 53.308 65.9489 53.144 66.6769 53.144H69.4729V59H68.3449V56.864H67.5889C67.3089 56.864 67.0689 56.936 66.8689 57.08C66.6689 57.224 66.5049 57.408 66.3769 57.632L65.5969 59H64.2169ZM66.9289 56.036H68.3449V53.972H66.9289C66.4889 53.972 66.1649 54.064 65.9569 54.248C65.7489 54.424 65.6449 54.672 65.6449 54.992C65.6449 55.32 65.7489 55.576 65.9569 55.76C66.1649 55.944 66.4889 56.036 66.9289 56.036Z" fill="black"/>
<path d="M27.953 74V66.95H30.923C31.4296 66.95 31.863 67.0367 32.223 67.21C32.583 67.3767 32.8563 67.62 33.043 67.94C33.2296 68.26 33.323 68.65 33.323 69.11C33.323 69.5567 33.2263 69.9433 33.033 70.27C32.8463 70.5967 32.573 70.85 32.213 71.03C31.8596 71.2033 31.4296 71.29 30.923 71.29H29.013V74H27.953ZM29.013 70.41H30.763C31.2563 70.41 31.6296 70.3033 31.883 70.09C32.143 69.87 32.273 69.5433 32.273 69.11C32.273 68.6833 32.1463 68.3633 31.893 68.15C31.6396 67.93 31.263 67.82 30.763 67.82H29.013V70.41ZM36.5666 74.09C36.0666 74.09 35.63 73.9867 35.2566 73.78C34.89 73.5667 34.6066 73.27 34.4066 72.89C34.2066 72.5033 34.1066 72.0533 34.1066 71.54C34.1066 71.02 34.2066 70.57 34.4066 70.19C34.6066 69.81 34.89 69.5167 35.2566 69.31C35.63 69.0967 36.0666 68.99 36.5666 68.99C37.0733 68.99 37.51 69.0967 37.8766 69.31C38.2433 69.5167 38.5266 69.81 38.7266 70.19C38.9266 70.57 39.0266 71.02 39.0266 71.54C39.0266 72.0533 38.9266 72.5033 38.7266 72.89C38.5266 73.27 38.2433 73.5667 37.8766 73.78C37.51 73.9867 37.0733 74.09 36.5666 74.09ZM36.5666 73.25C37 73.25 37.3433 73.1 37.5966 72.8C37.85 72.5 37.9766 72.0767 37.9766 71.53C37.9766 70.9833 37.85 70.5633 37.5966 70.27C37.3433 69.9767 37 69.83 36.5666 69.83C36.1333 69.83 35.79 69.9767 35.5366 70.27C35.2833 70.5633 35.1566 70.9833 35.1566 71.53C35.1566 72.0767 35.2833 72.5 35.5366 72.8C35.79 73.1 36.1333 73.25 36.5666 73.25ZM42.1623 74.09C41.7089 74.09 41.2856 74.0367 40.8923 73.93C40.5056 73.8233 40.1889 73.6767 39.9423 73.49L40.2523 72.77C40.4856 72.95 40.7689 73.0833 41.1023 73.17C41.4356 73.25 41.7789 73.29 42.1323 73.29C42.5923 73.29 42.9256 73.2333 43.1323 73.12C43.3389 73.0067 43.4423 72.8267 43.4423 72.58C43.4423 72.3467 43.3623 72.1733 43.2023 72.06C43.0423 71.9467 42.8089 71.89 42.5023 71.89H41.2023V71.12H42.4023C42.6689 71.12 42.8789 71.0667 43.0323 70.96C43.1856 70.8467 43.2623 70.6833 43.2623 70.47C43.2623 70.25 43.1723 70.0833 42.9923 69.97C42.8189 69.85 42.5289 69.79 42.1223 69.79C41.7756 69.79 41.4523 69.83 41.1523 69.91C40.8523 69.99 40.5723 70.1133 40.3123 70.28L40.0123 69.56C40.2923 69.3733 40.6223 69.2333 41.0023 69.14C41.3889 69.04 41.8056 68.99 42.2523 68.99C42.9123 68.99 43.4089 69.1133 43.7423 69.36C44.0756 69.6 44.2423 69.9367 44.2423 70.37C44.2423 70.6567 44.1489 70.9033 43.9623 71.11C43.7823 71.31 43.5323 71.44 43.2123 71.5V71.43C43.4723 71.4567 43.6923 71.5233 43.8723 71.63C44.0523 71.7367 44.1889 71.8733 44.2823 72.04C44.3756 72.2067 44.4223 72.4033 44.4223 72.63C44.4223 73.0767 44.2289 73.4333 43.8423 73.7C43.4623 73.96 42.9023 74.09 42.1623 74.09ZM45.3515 75.31V73.15H45.9015C46.0548 72.93 46.1748 72.6967 46.2615 72.45C46.3482 72.1967 46.4115 71.9133 46.4515 71.6C46.4915 71.28 46.5115 70.9167 46.5115 70.51V69.08H50.2815V73.15H51.0815V75.31H50.1815V74H46.2515V75.31H45.3515ZM46.8915 73.16H49.2815V69.91H47.4315V70.72C47.4315 71.1933 47.3882 71.64 47.3015 72.06C47.2148 72.48 47.0782 72.8467 46.8915 73.16ZM52.1287 67.96V66.86H53.3587V67.96H52.1287ZM52.2187 74V69.08H53.2787V74H52.2187ZM54.7133 74.13L54.3633 73.3C54.5966 73.2133 54.7899 73.1 54.9433 72.96C55.0966 72.8133 55.2166 72.63 55.3033 72.41C55.3899 72.19 55.4533 71.9233 55.4933 71.61C55.5333 71.29 55.5533 70.91 55.5533 70.47V69.08H59.3933V74H58.3333V69.93H56.5233V70.5C56.5233 71.04 56.4899 71.5133 56.4233 71.92C56.3633 72.3267 56.2633 72.6767 56.1233 72.97C55.9833 73.2633 55.7966 73.5067 55.5633 73.7C55.3299 73.8867 55.0466 74.03 54.7133 74.13ZM63.7809 74V73.22L66.1609 70.69C66.3876 70.45 66.5643 70.2333 66.6909 70.04C66.8243 69.84 66.9209 69.6467 66.9809 69.46C67.0409 69.2733 67.0709 69.0867 67.0709 68.9C67.0709 68.5333 66.9543 68.2533 66.7209 68.06C66.4943 67.8667 66.1676 67.77 65.7409 67.77C65.4143 67.77 65.0943 67.8333 64.7809 67.96C64.4676 68.08 64.1709 68.27 63.8909 68.53L63.5109 67.72C63.7976 67.4533 64.1476 67.2433 64.5609 67.09C64.9743 66.9367 65.4043 66.86 65.8509 66.86C66.3309 66.86 66.7409 66.9367 67.0809 67.09C67.4209 67.2433 67.6776 67.4667 67.8509 67.76C68.0309 68.0533 68.1209 68.4033 68.1209 68.81C68.1209 69.0233 68.0943 69.23 68.0409 69.43C67.9943 69.63 67.9209 69.83 67.8209 70.03C67.7209 70.2233 67.5909 70.4267 67.4309 70.64C67.2776 70.8467 67.0943 71.06 66.8809 71.28L64.9709 73.27V73.1H68.4009V74H63.7809Z" fill="#667085"/>
<defs>
<filter id="filter0_d_8310_820" x="0" y="0.5" width="96" height="85.8462" filterUnits="userSpaceOnUse" color-interpolation-filters="sRGB">
<feFlood flood-opacity="0" result="BackgroundImageFix"/>
<feColorMatrix in="SourceAlpha" type="matrix" values="0 0 0 0 0 0 0 0 0 0 0 0 0 0 0 0 0 0 127 0" result="hardAlpha"/>
<feOffset dy="4"/>
<feGaussianBlur stdDeviation="2"/>
<feComposite in2="hardAlpha" operator="out"/>
<feColorMatrix type="matrix" values="0 0 0 0 0 0 0 0 0 0 0 0 0 0 0 0 0 0 0.25 0"/>
<feBlend mode="normal" in2="BackgroundImageFix" result="effect1_dropShadow_8310_820"/>
<feBlend mode="normal" in="SourceGraphic" in2="effect1_dropShadow_8310_820" result="shape"/>
</filter>
<clipPath id="clip0_8310_820">
<rect width="30" height="30" fill="white" transform="translate(33)"/>
</clipPath>
</defs>
</svg>
