<svg width="102" height="89" viewBox="0 0 102 89" fill="none" xmlns="http://www.w3.org/2000/svg">
<g filter="url(#filter0_d_8334_725)">
<path d="M5.45148 44.8639C4.65639 43.5542 4.25887 42.8988 4.10327 42.2026C3.96558 41.5864 3.96558 40.9499 4.10327 40.3337C4.25887 39.6375 4.65639 38.9822 5.45148 37.6724L24.7122 5.93899C25.5072 4.62907 25.9047 3.9741 26.4609 3.49776C26.953 3.0763 27.5327 2.75789 28.1625 2.56328C28.8742 2.34326 29.6693 2.34326 31.2595 2.34326H69.7806C71.3711 2.34326 72.1659 2.34326 72.8779 2.56328C73.5073 2.75789 74.0871 3.0763 74.5794 3.49776C75.1356 3.9741 75.533 4.62907 76.3282 5.93899L95.5887 37.6724C96.3839 38.9822 96.7813 39.6375 96.9368 40.3337C97.0747 40.9499 97.0747 41.5864 96.9368 42.2026C96.7813 42.8988 96.3839 43.5542 95.5887 44.8639L76.3282 76.5975C75.533 77.9073 75.1356 78.5621 74.5794 79.0386C74.0871 79.4602 73.5073 79.7784 72.8779 79.973C72.1659 80.1933 71.3711 80.1933 69.7806 80.1933H31.2595C29.6693 80.1933 28.8742 80.1933 28.1625 79.973C27.5327 79.7784 26.953 79.4602 26.4609 79.0386C25.9047 78.5621 25.5072 77.9073 24.7122 76.5975L5.45148 44.8639Z" fill="white"/>
</g>
<path d="M58.8718 6.73878L62.2121 13.4475C62.2711 13.5357 62.3002 13.6528 62.3293 13.741C62.5346 14.2688 62.6808 15.001 62.6808 15.4697V18.6628C62.6808 19.6594 62.0068 20.4797 61.0693 20.7141V22.5891C61.0693 23.4975 60.3371 24.2007 59.4577 24.2007C58.5493 24.2007 57.8461 23.4975 57.8461 22.5891V20.7722H45.0136V22.5891C45.0136 23.4975 44.3105 24.2007 43.4021 24.2007C42.5227 24.2007 41.7905 23.4975 41.7905 22.5891V20.7141C40.853 20.4797 40.179 19.6594 40.179 18.6628V15.4697C40.179 15.001 40.3252 14.2688 40.5305 13.741C40.5596 13.6528 40.5896 13.5357 40.6477 13.4475L43.988 6.73878C44.2515 6.24097 44.9546 5.77222 45.5405 5.77222H57.3183C57.9043 5.77222 58.6083 6.24097 58.8718 6.73878ZM45.3652 8.76003L43.5783 12.8325C43.4902 12.9788 43.4902 13.155 43.4902 13.2722H59.3696C59.3696 13.155 59.3696 12.9788 59.2815 12.8325L57.4946 8.76003C57.2602 8.23222 56.5571 7.76347 56.0002 7.76347H46.8596C46.3027 7.76347 45.5996 8.23222 45.3652 8.76003ZM44.5749 18.6619C45.5124 18.6619 46.2446 17.8997 46.2446 16.9332C46.2446 15.9957 45.5124 15.2635 44.5749 15.2635C43.6374 15.2635 42.8461 15.9957 42.8461 16.9332C42.8461 17.8997 43.6374 18.6619 44.5749 18.6619ZM58.2858 18.6619C59.2233 18.6619 60.0146 17.8997 60.0146 16.9332C60.0146 15.9957 59.2233 15.2635 58.2858 15.2635C57.3483 15.2635 56.6161 15.9957 56.6161 16.9332C56.6161 17.8997 57.3483 18.6619 58.2858 18.6619Z" fill="#F2BB41"/>
<path d="M24.951 43V34.54H26.199V38.224H27.711L27.423 38.428L29.931 34.54H31.311L28.587 38.644L28.119 38.272C28.447 38.312 28.743 38.408 29.007 38.56C29.279 38.704 29.519 38.9 29.727 39.148C29.943 39.388 30.135 39.68 30.303 40.024L31.755 43H30.411L29.259 40.54C29.043 40.084 28.791 39.76 28.503 39.568C28.215 39.368 27.859 39.268 27.435 39.268H26.199V43H24.951ZM35.228 43.108C34.636 43.108 34.124 42.984 33.692 42.736C33.268 42.488 32.936 42.136 32.696 41.68C32.456 41.224 32.336 40.688 32.336 40.072C32.336 39.448 32.456 38.912 32.696 38.464C32.936 38.008 33.268 37.656 33.692 37.408C34.124 37.16 34.636 37.036 35.228 37.036C35.812 37.036 36.316 37.16 36.74 37.408C37.172 37.656 37.508 38.008 37.748 38.464C37.988 38.92 38.108 39.456 38.108 40.072C38.108 40.688 37.988 41.224 37.748 41.68C37.508 42.136 37.172 42.488 36.74 42.736C36.316 42.984 35.812 43.108 35.228 43.108ZM35.216 42.172C35.72 42.172 36.124 41.992 36.428 41.632C36.732 41.272 36.884 40.752 36.884 40.072C36.884 39.384 36.732 38.864 36.428 38.512C36.124 38.16 35.72 37.984 35.216 37.984C34.72 37.984 34.32 38.16 34.016 38.512C33.712 38.864 33.56 39.384 33.56 40.072C33.56 40.752 33.712 41.272 34.016 41.632C34.32 41.992 34.72 42.172 35.216 42.172ZM39.5978 43V37.144H40.8098V39.508H43.7258V37.144H44.9378V43H43.7258V40.468H40.8098V43H39.5978ZM47.9702 43V38.116H45.9062V37.144H51.2582V38.116H49.1822V43H47.9702ZM52.2426 45.16V37.144H53.4306V38.464H53.2986C53.4266 38.032 53.6786 37.688 54.0546 37.432C54.4306 37.168 54.8746 37.036 55.3866 37.036C55.9066 37.036 56.3586 37.16 56.7426 37.408C57.1346 37.656 57.4346 38.004 57.6426 38.452C57.8586 38.9 57.9666 39.44 57.9666 40.072C57.9666 40.688 57.8586 41.228 57.6426 41.692C57.4346 42.148 57.1386 42.5 56.7546 42.748C56.3706 42.988 55.9146 43.108 55.3866 43.108C54.8826 43.108 54.4426 42.98 54.0666 42.724C53.6906 42.468 53.4386 42.128 53.3106 41.704H53.4546V45.16H52.2426ZM55.0866 42.172C55.5906 42.172 55.9906 41.992 56.2866 41.632C56.5906 41.272 56.7426 40.752 56.7426 40.072C56.7426 39.384 56.5906 38.864 56.2866 38.512C55.9906 38.16 55.5906 37.984 55.0866 37.984C54.5906 37.984 54.1906 38.16 53.8866 38.512C53.5826 38.864 53.4306 39.384 53.4306 40.072C53.4306 40.752 53.5826 41.272 53.8866 41.632C54.1906 41.992 54.5906 42.172 55.0866 42.172ZM62.0054 43.108C61.4134 43.108 60.9014 42.984 60.4694 42.736C60.0454 42.488 59.7134 42.136 59.4734 41.68C59.2334 41.224 59.1134 40.688 59.1134 40.072C59.1134 39.448 59.2334 38.912 59.4734 38.464C59.7134 38.008 60.0454 37.656 60.4694 37.408C60.9014 37.16 61.4134 37.036 62.0054 37.036C62.5894 37.036 63.0934 37.16 63.5174 37.408C63.9494 37.656 64.2854 38.008 64.5254 38.464C64.7654 38.92 64.8854 39.456 64.8854 40.072C64.8854 40.688 64.7654 41.224 64.5254 41.68C64.2854 42.136 63.9494 42.488 63.5174 42.736C63.0934 42.984 62.5894 43.108 62.0054 43.108ZM61.9934 42.172C62.4974 42.172 62.9014 41.992 63.2054 41.632C63.5094 41.272 63.6614 40.752 63.6614 40.072C63.6614 39.384 63.5094 38.864 63.2054 38.512C62.9014 38.16 62.4974 37.984 61.9934 37.984C61.4974 37.984 61.0974 38.16 60.7934 38.512C60.4894 38.864 60.3374 39.384 60.3374 40.072C60.3374 40.752 60.4894 41.272 60.7934 41.632C61.0974 41.992 61.4974 42.172 61.9934 42.172ZM66.0059 43.156L65.5979 42.196C65.8619 42.092 66.0819 41.956 66.2579 41.788C66.4419 41.62 66.5859 41.408 66.6899 41.152C66.7939 40.888 66.8699 40.564 66.9179 40.18C66.9659 39.796 66.9899 39.332 66.9899 38.788V37.144H71.4539V43H70.2419V38.116H68.1179V38.824C68.1179 39.488 68.0779 40.068 67.9979 40.564C67.9179 41.052 67.7939 41.468 67.6259 41.812C67.4579 42.156 67.2379 42.436 66.9659 42.652C66.7019 42.868 66.3819 43.036 66.0059 43.156ZM73.2775 43V37.144H74.4895V39.172H76.1575C76.9095 39.172 77.4815 39.336 77.8735 39.664C78.2655 39.984 78.4615 40.452 78.4615 41.068C78.4615 41.46 78.3695 41.804 78.1855 42.1C78.0015 42.388 77.7375 42.612 77.3935 42.772C77.0495 42.924 76.6375 43 76.1575 43H73.2775ZM74.4895 42.172H76.0015C76.4175 42.172 76.7415 42.084 76.9735 41.908C77.2055 41.724 77.3215 41.444 77.3215 41.068C77.3215 40.7 77.2055 40.432 76.9735 40.264C76.7415 40.088 76.4175 40 76.0015 40H74.4895V42.172ZM34.0197 59V53.144H37.0077C37.4877 53.144 37.8797 53.204 38.1837 53.324C38.4957 53.444 38.7237 53.62 38.8677 53.852C39.0117 54.076 39.0837 54.352 39.0837 54.68C39.0837 55.056 38.9557 55.372 38.6997 55.628C38.4437 55.876 38.1077 56.024 37.6917 56.072V55.916C38.0277 55.924 38.3117 55.992 38.5437 56.12C38.7837 56.248 38.9637 56.42 39.0837 56.636C39.2117 56.844 39.2757 57.088 39.2757 57.368C39.2757 57.872 39.0877 58.272 38.7117 58.568C38.3357 58.856 37.7997 59 37.1037 59H34.0197ZM35.1597 58.22H37.0317C37.3917 58.22 37.6677 58.144 37.8597 57.992C38.0597 57.832 38.1597 57.604 38.1597 57.308C38.1597 57.012 38.0597 56.788 37.8597 56.636C37.6677 56.484 37.3917 56.408 37.0317 56.408H35.1597V58.22ZM35.1597 55.628H36.9237C37.2517 55.628 37.5037 55.552 37.6797 55.4C37.8637 55.248 37.9557 55.04 37.9557 54.776C37.9557 54.504 37.8637 54.296 37.6797 54.152C37.5037 54.008 37.2517 53.936 36.9237 53.936H35.1597V55.628ZM40.6876 59V53.144H41.7916V57.8H41.4796L44.9596 53.144H45.9796V59H44.8756V54.344H45.1996L41.7076 59H40.6876ZM47.8129 59V53.144H49.0249V59H47.8129ZM48.8929 51.752V50.564H50.0929V51.752H48.8929ZM46.7329 51.752V50.564H47.9329V51.752H46.7329ZM52.8878 59.108C52.3758 59.108 51.8918 59.044 51.4358 58.916C50.9798 58.788 50.6078 58.608 50.3198 58.376L50.6678 57.56C50.9478 57.776 51.2798 57.94 51.6638 58.052C52.0558 58.156 52.4558 58.208 52.8638 58.208C53.3998 58.208 53.7878 58.136 54.0278 57.992C54.2678 57.848 54.3878 57.628 54.3878 57.332C54.3878 57.06 54.2918 56.852 54.0998 56.708C53.9158 56.556 53.6438 56.48 53.2838 56.48H51.8198V55.592H53.1518C53.4718 55.592 53.7238 55.524 53.9078 55.388C54.0918 55.244 54.1838 55.044 54.1838 54.788C54.1838 54.524 54.0758 54.316 53.8598 54.164C53.6518 54.012 53.3038 53.936 52.8158 53.936C52.4158 53.936 52.0478 53.988 51.7118 54.092C51.3758 54.188 51.0558 54.336 50.7518 54.536L50.4038 53.732C50.7318 53.5 51.1158 53.328 51.5558 53.216C51.9958 53.096 52.4758 53.036 52.9958 53.036C53.7558 53.036 54.3278 53.184 54.7118 53.48C55.1038 53.768 55.2998 54.168 55.2998 54.68C55.2998 55.056 55.1718 55.372 54.9158 55.628C54.6678 55.876 54.3358 56.024 53.9198 56.072V55.916C54.2478 55.924 54.5278 55.992 54.7598 56.12C54.9998 56.24 55.1838 56.408 55.3118 56.624C55.4478 56.84 55.5158 57.088 55.5158 57.368C55.5158 57.896 55.2918 58.32 54.8438 58.64C54.3958 58.952 53.7438 59.108 52.8878 59.108ZM56.447 60.56V58.04H57.095C57.271 57.776 57.411 57.492 57.515 57.188C57.619 56.884 57.695 56.54 57.743 56.156C57.791 55.772 57.815 55.336 57.815 54.848V53.144H62.147V58.04H63.083V60.56H62.051V59H57.491V60.56H56.447ZM58.223 58.04H60.995V54.092H58.871V55.1C58.871 55.652 58.815 56.188 58.703 56.708C58.591 57.228 58.431 57.672 58.223 58.04ZM64.9012 61.16L66.0532 58.592V59.108L63.4972 53.144H64.7932L66.7612 58.004H66.4252L68.4172 53.144H69.6652L66.1732 61.16H64.9012Z" fill="black"/>
<path d="M28.3848 74V66.95H31.3548C31.8615 66.95 32.2948 67.0367 32.6548 67.21C33.0148 67.3767 33.2882 67.62 33.4748 67.94C33.6615 68.26 33.7548 68.65 33.7548 69.11C33.7548 69.5567 33.6582 69.9433 33.4648 70.27C33.2782 70.5967 33.0048 70.85 32.6448 71.03C32.2915 71.2033 31.8615 71.29 31.3548 71.29H29.4448V74H28.3848ZM29.4448 70.41H31.1948C31.6882 70.41 32.0615 70.3033 32.3148 70.09C32.5748 69.87 32.7048 69.5433 32.7048 69.11C32.7048 68.6833 32.5782 68.3633 32.3248 68.15C32.0715 67.93 31.6948 67.82 31.1948 67.82H29.4448V70.41ZM36.9985 74.09C36.4985 74.09 36.0618 73.9867 35.6885 73.78C35.3218 73.5667 35.0385 73.27 34.8385 72.89C34.6385 72.5033 34.5385 72.0533 34.5385 71.54C34.5385 71.02 34.6385 70.57 34.8385 70.19C35.0385 69.81 35.3218 69.5167 35.6885 69.31C36.0618 69.0967 36.4985 68.99 36.9985 68.99C37.5052 68.99 37.9418 69.0967 38.3085 69.31C38.6752 69.5167 38.9585 69.81 39.1585 70.19C39.3585 70.57 39.4585 71.02 39.4585 71.54C39.4585 72.0533 39.3585 72.5033 39.1585 72.89C38.9585 73.27 38.6752 73.5667 38.3085 73.78C37.9418 73.9867 37.5052 74.09 36.9985 74.09ZM36.9985 73.25C37.4318 73.25 37.7752 73.1 38.0285 72.8C38.2818 72.5 38.4085 72.0767 38.4085 71.53C38.4085 70.9833 38.2818 70.5633 38.0285 70.27C37.7752 69.9767 37.4318 69.83 36.9985 69.83C36.5652 69.83 36.2218 69.9767 35.9685 70.27C35.7152 70.5633 35.5885 70.9833 35.5885 71.53C35.5885 72.0767 35.7152 72.5 35.9685 72.8C36.2218 73.1 36.5652 73.25 36.9985 73.25ZM42.5941 74.09C42.1408 74.09 41.7175 74.0367 41.3241 73.93C40.9375 73.8233 40.6208 73.6767 40.3741 73.49L40.6841 72.77C40.9175 72.95 41.2008 73.0833 41.5341 73.17C41.8675 73.25 42.2108 73.29 42.5641 73.29C43.0241 73.29 43.3575 73.2333 43.5641 73.12C43.7708 73.0067 43.8741 72.8267 43.8741 72.58C43.8741 72.3467 43.7941 72.1733 43.6341 72.06C43.4741 71.9467 43.2408 71.89 42.9341 71.89H41.6341V71.12H42.8341C43.1008 71.12 43.3108 71.0667 43.4641 70.96C43.6175 70.8467 43.6941 70.6833 43.6941 70.47C43.6941 70.25 43.6041 70.0833 43.4241 69.97C43.2508 69.85 42.9608 69.79 42.5541 69.79C42.2075 69.79 41.8841 69.83 41.5841 69.91C41.2841 69.99 41.0041 70.1133 40.7441 70.28L40.4441 69.56C40.7241 69.3733 41.0541 69.2333 41.4341 69.14C41.8208 69.04 42.2375 68.99 42.6841 68.99C43.3441 68.99 43.8408 69.1133 44.1741 69.36C44.5075 69.6 44.6741 69.9367 44.6741 70.37C44.6741 70.6567 44.5808 70.9033 44.3941 71.11C44.2141 71.31 43.9641 71.44 43.6441 71.5V71.43C43.9041 71.4567 44.1241 71.5233 44.3041 71.63C44.4841 71.7367 44.6208 71.8733 44.7141 72.04C44.8075 72.2067 44.8541 72.4033 44.8541 72.63C44.8541 73.0767 44.6608 73.4333 44.2741 73.7C43.8941 73.96 43.3341 74.09 42.5941 74.09ZM45.7833 75.31V73.15H46.3333C46.4867 72.93 46.6067 72.6967 46.6933 72.45C46.78 72.1967 46.8433 71.9133 46.8833 71.6C46.9233 71.28 46.9433 70.9167 46.9433 70.51V69.08H50.7133V73.15H51.5133V75.31H50.6133V74H46.6833V75.31H45.7833ZM47.3233 73.16H49.7133V69.91H47.8633V70.72C47.8633 71.1933 47.82 71.64 47.7333 72.06C47.6467 72.48 47.51 72.8467 47.3233 73.16ZM52.5605 67.96V66.86H53.7905V67.96H52.5605ZM52.6505 74V69.08H53.7105V74H52.6505ZM55.1451 74.13L54.7951 73.3C55.0285 73.2133 55.2218 73.1 55.3751 72.96C55.5285 72.8133 55.6485 72.63 55.7351 72.41C55.8218 72.19 55.8851 71.9233 55.9251 71.61C55.9651 71.29 55.9851 70.91 55.9851 70.47V69.08H59.8251V74H58.7651V69.93H56.9551V70.5C56.9551 71.04 56.9218 71.5133 56.8551 71.92C56.7951 72.3267 56.6951 72.6767 56.5551 72.97C56.4151 73.2633 56.2285 73.5067 55.9951 73.7C55.7618 73.8867 55.4785 74.03 55.1451 74.13ZM64.4328 74V73.1H66.1628V67.83L66.7028 67.86L64.7828 69.06L64.3428 68.26L66.4528 66.95H67.2228V73.1H68.8328V74H64.4328ZM72.3889 74.09C71.8422 74.09 71.3789 73.9533 70.9989 73.68C70.6256 73.4 70.3422 72.99 70.1489 72.45C69.9556 71.91 69.8589 71.25 69.8589 70.47C69.8589 69.6833 69.9556 69.0233 70.1489 68.49C70.3422 67.95 70.6256 67.5433 70.9989 67.27C71.3789 66.9967 71.8422 66.86 72.3889 66.86C72.9422 66.86 73.4056 66.9967 73.7789 67.27C74.1589 67.5433 74.4422 67.9467 74.6289 68.48C74.8222 69.0133 74.9189 69.6733 74.9189 70.46C74.9189 71.24 74.8222 71.9033 74.6289 72.45C74.4356 72.99 74.1522 73.4 73.7789 73.68C73.4056 73.9533 72.9422 74.09 72.3889 74.09ZM72.3889 73.2C72.8956 73.2 73.2689 72.98 73.5089 72.54C73.7556 72.0933 73.8789 71.4 73.8789 70.46C73.8789 69.52 73.7556 68.8333 73.5089 68.4C73.2689 67.9667 72.8956 67.75 72.3889 67.75C71.8889 67.75 71.5156 67.97 71.2689 68.41C71.0222 68.8433 70.8989 69.5267 70.8989 70.46C70.8989 71.4 71.0189 72.0933 71.2589 72.54C71.5056 72.98 71.8822 73.2 72.3889 73.2Z" fill="#667085"/>
<defs>
<filter id="filter0_d_8334_725" x="0" y="2.34326" width="101.04" height="85.8501" filterUnits="userSpaceOnUse" color-interpolation-filters="sRGB">
<feFlood flood-opacity="0" result="BackgroundImageFix"/>
<feColorMatrix in="SourceAlpha" type="matrix" values="0 0 0 0 0 0 0 0 0 0 0 0 0 0 0 0 0 0 127 0" result="hardAlpha"/>
<feOffset dy="4"/>
<feGaussianBlur stdDeviation="2"/>
<feComposite in2="hardAlpha" operator="out"/>
<feColorMatrix type="matrix" values="0 0 0 0 0 0 0 0 0 0 0 0 0 0 0 0 0 0 0.25 0"/>
<feBlend mode="normal" in2="BackgroundImageFix" result="effect1_dropShadow_8334_725"/>
<feBlend mode="normal" in="SourceGraphic" in2="effect1_dropShadow_8334_725" result="shape"/>
</filter>
</defs>
</svg>
