<svg width="96" height="86" viewBox="0 0 96 86" fill="none" xmlns="http://www.w3.org/2000/svg">
<g filter="url(#filter0_d_8310_972)">
<path d="M5.37285 42.5185C4.62083 41.2089 4.24484 40.5536 4.09767 39.8574C3.96744 39.2412 3.96744 38.6048 4.09767 37.9886C4.24484 37.2924 4.62083 36.6371 5.37285 35.3274L23.5901 3.59555C24.3421 2.28569 24.7181 1.63076 25.2442 1.15444C25.7096 0.732998 26.2579 0.414612 26.8535 0.220002C27.5267 -2.00917e-07 28.2787 0 29.7827 0H66.2171C67.7214 0 68.4731 -2.00917e-07 69.1466 0.220002C69.7419 0.414612 70.2903 0.732998 70.756 1.15444C71.282 1.63076 71.6578 2.28569 72.41 3.59555L90.6271 35.3274C91.3792 36.6371 91.7551 37.2924 91.9021 37.9886C92.0326 38.6048 92.0326 39.2412 91.9021 39.8574C91.7551 40.5536 91.3792 41.2089 90.6271 42.5185L72.41 74.2506C71.6578 75.5603 71.282 76.2151 70.756 76.6915C70.2903 77.1131 69.7419 77.4313 69.1466 77.6259C68.4731 77.8462 67.7214 77.8462 66.2171 77.8462H29.7827C28.2787 77.8462 27.5267 77.8462 26.8535 77.6259C26.2579 77.4313 25.7096 77.1131 25.2442 76.6915C24.7181 76.2151 24.3421 75.5603 23.5901 74.2506L5.37285 42.5185Z" fill="white"/>
</g>
<path d="M58.2051 2.5H38.2051C36.8244 2.5 35.7051 3.61929 35.7051 5V25C35.7051 26.3807 36.8244 27.5 38.2051 27.5H58.2051C59.5858 27.5 60.7051 26.3807 60.7051 25V5C60.7051 3.61929 59.5858 2.5 58.2051 2.5Z" fill="#F2BB41"/>
<path d="M54.4551 16.2499H45.7051V13.0124L46.0676 13.3874C46.1838 13.5046 46.322 13.5976 46.4743 13.661C46.6267 13.7245 46.7901 13.7572 46.9551 13.7572C47.1201 13.7572 47.2835 13.7245 47.4358 13.661C47.5881 13.5976 47.7264 13.5046 47.8426 13.3874C47.9597 13.2712 48.0527 13.133 48.1162 12.9806C48.1796 12.8283 48.2123 12.6649 48.2123 12.4999C48.2123 12.3349 48.1796 12.1715 48.1162 12.0192C48.0527 11.8669 47.9597 11.7286 47.8426 11.6124L45.3426 9.11242C45.2264 8.99526 45.0881 8.90227 44.9358 8.83881C44.7835 8.77535 44.6201 8.74268 44.4551 8.74268C44.2901 8.74268 44.1267 8.77535 43.9743 8.83881C43.822 8.90227 43.6838 8.99526 43.5676 9.11242L41.0676 11.6124C40.951 11.729 40.8586 11.8673 40.7955 12.0196C40.7324 12.1719 40.7 12.3351 40.7 12.4999C40.7 12.8328 40.8322 13.152 41.0676 13.3874C41.3029 13.6228 41.6222 13.755 41.9551 13.755C42.2879 13.755 42.6072 13.6228 42.8426 13.3874L43.2051 13.0124V16.2499C43.2051 16.913 43.4685 17.5488 43.9373 18.0177C44.4061 18.4865 45.042 18.7499 45.7051 18.7499H54.4551C54.7866 18.7499 55.1045 18.6182 55.3389 18.3838C55.5734 18.1494 55.7051 17.8314 55.7051 17.4999C55.7051 17.1684 55.5734 16.8505 55.3389 16.616C55.1045 16.3816 54.7866 16.2499 54.4551 16.2499Z" fill="#E08838"/>
<path d="M40.4885 43V34.54H41.5325L44.8565 40.732H44.4845L47.7845 34.54H48.8045V43H47.6885V36.304H47.9525L45.0365 41.704H44.2805L41.3285 36.292H41.6165V43H40.4885ZM50.7284 43V37.144H51.8324V41.8H51.5204L55.0004 37.144H56.0204V43H54.9164V38.344H55.2404L51.7484 43H50.7284ZM15.3378 59V53.144H20.6418V59H19.4298V54.116H16.5498V59H15.3378ZM25.0071 59.108C24.4151 59.108 23.9031 58.984 23.4711 58.736C23.0471 58.488 22.7151 58.136 22.4751 57.68C22.2351 57.224 22.1151 56.688 22.1151 56.072C22.1151 55.448 22.2351 54.912 22.4751 54.464C22.7151 54.008 23.0471 53.656 23.4711 53.408C23.9031 53.16 24.4151 53.036 25.0071 53.036C25.5911 53.036 26.0951 53.16 26.5191 53.408C26.9511 53.656 27.2871 54.008 27.5271 54.464C27.7671 54.92 27.8871 55.456 27.8871 56.072C27.8871 56.688 27.7671 57.224 27.5271 57.68C27.2871 58.136 26.9511 58.488 26.5191 58.736C26.0951 58.984 25.5911 59.108 25.0071 59.108ZM24.9951 58.172C25.4991 58.172 25.9031 57.992 26.2071 57.632C26.5111 57.272 26.6631 56.752 26.6631 56.072C26.6631 55.384 26.5111 54.864 26.2071 54.512C25.9031 54.16 25.4991 53.984 24.9951 53.984C24.4991 53.984 24.0991 54.16 23.7951 54.512C23.4911 54.864 23.3391 55.384 23.3391 56.072C23.3391 56.752 23.4911 57.272 23.7951 57.632C24.0991 57.992 24.4991 58.172 24.9951 58.172ZM29.3768 59V53.144H32.3648C32.8448 53.144 33.2368 53.204 33.5408 53.324C33.8528 53.444 34.0808 53.62 34.2248 53.852C34.3688 54.076 34.4408 54.352 34.4408 54.68C34.4408 55.056 34.3128 55.372 34.0568 55.628C33.8008 55.876 33.4648 56.024 33.0488 56.072V55.916C33.3848 55.924 33.6688 55.992 33.9008 56.12C34.1408 56.248 34.3208 56.42 34.4408 56.636C34.5688 56.844 34.6328 57.088 34.6328 57.368C34.6328 57.872 34.4448 58.272 34.0688 58.568C33.6928 58.856 33.1568 59 32.4608 59H29.3768ZM30.5168 58.22H32.3888C32.7488 58.22 33.0248 58.144 33.2168 57.992C33.4168 57.832 33.5168 57.604 33.5168 57.308C33.5168 57.012 33.4168 56.788 33.2168 56.636C33.0248 56.484 32.7488 56.408 32.3888 56.408H30.5168V58.22ZM30.5168 55.628H32.2808C32.6088 55.628 32.8608 55.552 33.0368 55.4C33.2208 55.248 33.3128 55.04 33.3128 54.776C33.3128 54.504 33.2208 54.296 33.0368 54.152C32.8608 54.008 32.6088 53.936 32.2808 53.936H30.5168V55.628ZM38.8048 59.108C38.1648 59.108 37.6128 58.988 37.1488 58.748C36.6928 58.5 36.3368 58.152 36.0808 57.704C35.8328 57.248 35.7088 56.708 35.7088 56.084C35.7088 55.476 35.8328 54.944 36.0808 54.488C36.3288 54.032 36.6688 53.676 37.1008 53.42C37.5328 53.164 38.0248 53.036 38.5768 53.036C39.1208 53.036 39.5848 53.156 39.9688 53.396C40.3608 53.628 40.6608 53.96 40.8688 54.392C41.0768 54.824 41.1808 55.34 41.1808 55.94V56.348H36.6688V55.604H40.3648L40.1608 55.772C40.1608 55.172 40.0288 54.708 39.7648 54.38C39.5008 54.052 39.1208 53.888 38.6248 53.888C38.2488 53.888 37.9288 53.976 37.6648 54.152C37.4088 54.328 37.2128 54.572 37.0768 54.884C36.9408 55.196 36.8728 55.56 36.8728 55.976V56.048C36.8728 56.512 36.9448 56.904 37.0888 57.224C37.2408 57.536 37.4608 57.772 37.7488 57.932C38.0368 58.092 38.3928 58.172 38.8168 58.172C39.1528 58.172 39.4808 58.12 39.8008 58.016C40.1288 57.904 40.4368 57.732 40.7248 57.5L41.0848 58.34C40.8208 58.58 40.4808 58.768 40.0648 58.904C39.6488 59.04 39.2288 59.108 38.8048 59.108ZM42.631 61.16V53.144H43.819V54.464H43.687C43.815 54.032 44.067 53.688 44.443 53.432C44.819 53.168 45.263 53.036 45.775 53.036C46.295 53.036 46.747 53.16 47.131 53.408C47.523 53.656 47.823 54.004 48.031 54.452C48.247 54.9 48.355 55.44 48.355 56.072C48.355 56.688 48.247 57.228 48.031 57.692C47.823 58.148 47.527 58.5 47.143 58.748C46.759 58.988 46.303 59.108 45.775 59.108C45.271 59.108 44.831 58.98 44.455 58.724C44.079 58.468 43.827 58.128 43.699 57.704H43.843V61.16H42.631ZM45.475 58.172C45.979 58.172 46.379 57.992 46.675 57.632C46.979 57.272 47.131 56.752 47.131 56.072C47.131 55.384 46.979 54.864 46.675 54.512C46.379 54.16 45.979 53.984 45.475 53.984C44.979 53.984 44.579 54.16 44.275 54.512C43.971 54.864 43.819 55.384 43.819 56.072C43.819 56.752 43.971 57.272 44.275 57.632C44.579 57.992 44.979 58.172 45.475 58.172ZM51.0618 59V54.116H48.9978V53.144H54.3498V54.116H52.2738V59H51.0618ZM57.2062 59.108C56.7982 59.108 56.4302 59.028 56.1022 58.868C55.7822 58.708 55.5302 58.492 55.3462 58.22C55.1622 57.948 55.0702 57.64 55.0702 57.296C55.0702 56.864 55.1782 56.524 55.3942 56.276C55.6182 56.02 55.9822 55.84 56.4862 55.736C56.9982 55.624 57.6862 55.568 58.5502 55.568H59.1142V56.312H58.5622C58.1302 56.312 57.7662 56.328 57.4702 56.36C57.1742 56.392 56.9382 56.444 56.7622 56.516C56.5862 56.58 56.4582 56.672 56.3782 56.792C56.3062 56.912 56.2702 57.056 56.2702 57.224C56.2702 57.528 56.3742 57.776 56.5822 57.968C56.7902 58.152 57.0782 58.244 57.4462 58.244C57.7422 58.244 58.0022 58.176 58.2262 58.04C58.4502 57.896 58.6262 57.704 58.7542 57.464C58.8902 57.224 58.9582 56.948 58.9582 56.636V55.256C58.9582 54.8 58.8622 54.472 58.6702 54.272C58.4782 54.072 58.1622 53.972 57.7222 53.972C57.3862 53.972 57.0502 54.024 56.7142 54.128C56.3782 54.224 56.0342 54.38 55.6822 54.596L55.3102 53.744C55.5182 53.6 55.7582 53.476 56.0302 53.372C56.3022 53.268 56.5862 53.188 56.8822 53.132C57.1862 53.068 57.4782 53.036 57.7582 53.036C58.2942 53.036 58.7342 53.12 59.0782 53.288C59.4302 53.456 59.6902 53.712 59.8582 54.056C60.0262 54.4 60.1102 54.844 60.1102 55.388V59H58.9702V57.692H59.0782C59.0142 57.988 58.8942 58.244 58.7182 58.46C58.5502 58.668 58.3382 58.828 58.0822 58.94C57.8262 59.052 57.5342 59.108 57.2062 59.108ZM64.5601 59.108C63.9521 59.108 63.4241 58.984 62.9761 58.736C62.5281 58.48 62.1801 58.124 61.9321 57.668C61.6921 57.212 61.5721 56.668 61.5721 56.036C61.5721 55.42 61.6921 54.888 61.9321 54.44C62.1801 53.992 62.5321 53.648 62.9881 53.408C63.4441 53.16 63.9881 53.036 64.6201 53.036C65.0281 53.036 65.4281 53.1 65.8201 53.228C66.2121 53.356 66.5121 53.536 66.7201 53.768L66.3481 54.572C66.1081 54.356 65.8321 54.196 65.5201 54.092C65.2161 53.988 64.9201 53.936 64.6321 53.936C64.2161 53.936 63.8721 54.016 63.6001 54.176C63.3281 54.336 63.1201 54.556 62.9761 54.836C62.8321 55.116 62.7441 55.432 62.7121 55.784L62.5921 55.592H65.6041V56.48H62.5921L62.7121 56.228C62.7361 56.644 62.8241 57.004 62.9761 57.308C63.1361 57.604 63.3561 57.832 63.6361 57.992C63.9161 58.144 64.2481 58.22 64.6321 58.22C64.9201 58.22 65.2201 58.164 65.5321 58.052C65.8441 57.94 66.1161 57.78 66.3481 57.572L66.7201 58.376C66.5761 58.528 66.3841 58.66 66.1441 58.772C65.9121 58.884 65.6561 58.968 65.3761 59.024C65.1041 59.08 64.8321 59.108 64.5601 59.108ZM67.9198 59V53.144H68.9158L71.0398 56.852L73.1518 53.144H74.1478V59H73.0798V54.548H73.3558L71.3278 58.052H70.7398L68.7118 54.548H68.9878V59H67.9198ZM78.5266 59.108C77.9346 59.108 77.4226 58.984 76.9906 58.736C76.5666 58.488 76.2346 58.136 75.9946 57.68C75.7546 57.224 75.6346 56.688 75.6346 56.072C75.6346 55.448 75.7546 54.912 75.9946 54.464C76.2346 54.008 76.5666 53.656 76.9906 53.408C77.4226 53.16 77.9346 53.036 78.5266 53.036C79.1106 53.036 79.6146 53.16 80.0386 53.408C80.4706 53.656 80.8066 54.008 81.0466 54.464C81.2866 54.92 81.4066 55.456 81.4066 56.072C81.4066 56.688 81.2866 57.224 81.0466 57.68C80.8066 58.136 80.4706 58.488 80.0386 58.736C79.6146 58.984 79.1106 59.108 78.5266 59.108ZM78.5146 58.172C79.0186 58.172 79.4226 57.992 79.7266 57.632C80.0306 57.272 80.1826 56.752 80.1826 56.072C80.1826 55.384 80.0306 54.864 79.7266 54.512C79.4226 54.16 79.0186 53.984 78.5146 53.984C78.0186 53.984 77.6186 54.16 77.3146 54.512C77.0106 54.864 76.8586 55.384 76.8586 56.072C76.8586 56.752 77.0106 57.272 77.3146 57.632C77.6186 57.992 78.0186 58.172 78.5146 58.172Z" fill="black"/>
<path d="M28.1581 74V66.95H31.1281C31.6348 66.95 32.0681 67.0367 32.4281 67.21C32.7881 67.3767 33.0614 67.62 33.2481 67.94C33.4348 68.26 33.5281 68.65 33.5281 69.11C33.5281 69.5567 33.4314 69.9433 33.2381 70.27C33.0514 70.5967 32.7781 70.85 32.4181 71.03C32.0648 71.2033 31.6348 71.29 31.1281 71.29H29.2181V74H28.1581ZM29.2181 70.41H30.9681C31.4614 70.41 31.8348 70.3033 32.0881 70.09C32.3481 69.87 32.4781 69.5433 32.4781 69.11C32.4781 68.6833 32.3514 68.3633 32.0981 68.15C31.8448 67.93 31.4681 67.82 30.9681 67.82H29.2181V70.41ZM36.7718 74.09C36.2718 74.09 35.8351 73.9867 35.4618 73.78C35.0951 73.5667 34.8118 73.27 34.6118 72.89C34.4118 72.5033 34.3118 72.0533 34.3118 71.54C34.3118 71.02 34.4118 70.57 34.6118 70.19C34.8118 69.81 35.0951 69.5167 35.4618 69.31C35.8351 69.0967 36.2718 68.99 36.7718 68.99C37.2784 68.99 37.7151 69.0967 38.0818 69.31C38.4484 69.5167 38.7318 69.81 38.9318 70.19C39.1318 70.57 39.2318 71.02 39.2318 71.54C39.2318 72.0533 39.1318 72.5033 38.9318 72.89C38.7318 73.27 38.4484 73.5667 38.0818 73.78C37.7151 73.9867 37.2784 74.09 36.7718 74.09ZM36.7718 73.25C37.2051 73.25 37.5484 73.1 37.8018 72.8C38.0551 72.5 38.1818 72.0767 38.1818 71.53C38.1818 70.9833 38.0551 70.5633 37.8018 70.27C37.5484 69.9767 37.2051 69.83 36.7718 69.83C36.3384 69.83 35.9951 69.9767 35.7418 70.27C35.4884 70.5633 35.3618 70.9833 35.3618 71.53C35.3618 72.0767 35.4884 72.5 35.7418 72.8C35.9951 73.1 36.3384 73.25 36.7718 73.25ZM42.3674 74.09C41.9141 74.09 41.4907 74.0367 41.0974 73.93C40.7107 73.8233 40.3941 73.6767 40.1474 73.49L40.4574 72.77C40.6907 72.95 40.9741 73.0833 41.3074 73.17C41.6407 73.25 41.9841 73.29 42.3374 73.29C42.7974 73.29 43.1307 73.2333 43.3374 73.12C43.5441 73.0067 43.6474 72.8267 43.6474 72.58C43.6474 72.3467 43.5674 72.1733 43.4074 72.06C43.2474 71.9467 43.0141 71.89 42.7074 71.89H41.4074V71.12H42.6074C42.8741 71.12 43.0841 71.0667 43.2374 70.96C43.3907 70.8467 43.4674 70.6833 43.4674 70.47C43.4674 70.25 43.3774 70.0833 43.1974 69.97C43.0241 69.85 42.7341 69.79 42.3274 69.79C41.9807 69.79 41.6574 69.83 41.3574 69.91C41.0574 69.99 40.7774 70.1133 40.5174 70.28L40.2174 69.56C40.4974 69.3733 40.8274 69.2333 41.2074 69.14C41.5941 69.04 42.0107 68.99 42.4574 68.99C43.1174 68.99 43.6141 69.1133 43.9474 69.36C44.2807 69.6 44.4474 69.9367 44.4474 70.37C44.4474 70.6567 44.3541 70.9033 44.1674 71.11C43.9874 71.31 43.7374 71.44 43.4174 71.5V71.43C43.6774 71.4567 43.8974 71.5233 44.0774 71.63C44.2574 71.7367 44.3941 71.8733 44.4874 72.04C44.5807 72.2067 44.6274 72.4033 44.6274 72.63C44.6274 73.0767 44.4341 73.4333 44.0474 73.7C43.6674 73.96 43.1074 74.09 42.3674 74.09ZM45.5566 75.31V73.15H46.1066C46.2599 72.93 46.3799 72.6967 46.4666 72.45C46.5533 72.1967 46.6166 71.9133 46.6566 71.6C46.6966 71.28 46.7166 70.9167 46.7166 70.51V69.08H50.4866V73.15H51.2866V75.31H50.3866V74H46.4566V75.31H45.5566ZM47.0966 73.16H49.4866V69.91H47.6366V70.72C47.6366 71.1933 47.5933 71.64 47.5066 72.06C47.4199 72.48 47.2833 72.8467 47.0966 73.16ZM52.3338 67.96V66.86H53.5638V67.96H52.3338ZM52.4238 74V69.08H53.4838V74H52.4238ZM54.9184 74.13L54.5684 73.3C54.8017 73.2133 54.9951 73.1 55.1484 72.96C55.3017 72.8133 55.4217 72.63 55.5084 72.41C55.5951 72.19 55.6584 71.9233 55.6984 71.61C55.7384 71.29 55.7584 70.91 55.7584 70.47V69.08H59.5984V74H58.5384V69.93H56.7284V70.5C56.7284 71.04 56.6951 71.5133 56.6284 71.92C56.5684 72.3267 56.4684 72.6767 56.3284 72.97C56.1884 73.2633 56.0017 73.5067 55.7684 73.7C55.5351 73.8867 55.2517 74.03 54.9184 74.13ZM66.8461 74V72.58H63.6361V71.8L66.9061 66.95H67.8761V71.71H68.8561V72.58H67.8761V74H66.8461ZM66.8561 71.71V68.23H67.0161L64.5261 71.94L64.4761 71.71H66.8561Z" fill="#667085"/>
<defs>
<filter id="filter0_d_8310_972" x="0" y="0" width="96" height="85.8462" filterUnits="userSpaceOnUse" color-interpolation-filters="sRGB">
<feFlood flood-opacity="0" result="BackgroundImageFix"/>
<feColorMatrix in="SourceAlpha" type="matrix" values="0 0 0 0 0 0 0 0 0 0 0 0 0 0 0 0 0 0 127 0" result="hardAlpha"/>
<feOffset dy="4"/>
<feGaussianBlur stdDeviation="2"/>
<feComposite in2="hardAlpha" operator="out"/>
<feColorMatrix type="matrix" values="0 0 0 0 0 0 0 0 0 0 0 0 0 0 0 0 0 0 0.25 0"/>
<feBlend mode="normal" in2="BackgroundImageFix" result="effect1_dropShadow_8310_972"/>
<feBlend mode="normal" in="SourceGraphic" in2="effect1_dropShadow_8310_972" result="shape"/>
</filter>
</defs>
</svg>
