<svg width="102" height="92" viewBox="0 0 102 92" fill="none" xmlns="http://www.w3.org/2000/svg">
<g filter="url(#filter0_d_8310_900)">
<path d="M5.49766 45.8797C4.67727 44.4665 4.2671 43.7594 4.10655 43.0082C3.96448 42.3433 3.96448 41.6565 4.10655 40.9916C4.2671 40.2404 4.67727 39.5333 5.49766 38.1201L25.371 3.87978C26.1914 2.46638 26.6016 1.75968 27.1754 1.2457C27.6832 0.790942 28.2813 0.447387 28.9311 0.237394C29.6655 -2.168e-07 30.4859 0 32.1266 0H71.8732C73.5143 0 74.3343 -2.168e-07 75.069 0.237394C75.7185 0.447387 76.3167 0.790942 76.8247 1.2457C77.3985 1.75968 77.8085 2.46638 78.6291 3.87978L98.5023 38.1201C99.3228 39.5333 99.7328 40.2404 99.8932 40.9916C100.036 41.6565 100.036 42.3433 99.8932 43.0082C99.7328 43.7594 99.3228 44.4665 98.5023 45.8797L78.6291 80.1202C77.8085 81.5334 77.3985 82.24 76.8247 82.7541C76.3167 83.209 75.7185 83.5524 75.069 83.7624C74.3343 84 73.5143 84 71.8732 84H32.1266C30.4859 84 29.6655 84 28.9311 83.7624C28.2813 83.5524 27.6832 83.209 27.1754 82.7541C26.6016 82.24 26.1914 81.5334 25.371 80.1202L5.49766 45.8797Z" fill="white"/>
</g>
<g clip-path="url(#clip0_8310_900)">
<path d="M56.2525 23.2959L56.5876 22.6493C56.694 22.4416 56.7931 22.2375 56.8862 22.0293C57.0689 21.6147 57.2182 21.1937 57.3123 20.7777C57.5036 19.938 57.404 19.1678 56.8935 18.5975C56.3831 18.0157 55.5402 17.6253 54.669 17.3532C52.8142 16.8194 50.9176 16.2254 49.0825 15.5287C48.6218 15.3538 48.1634 15.1721 47.7067 14.9785C47.257 14.7895 46.7694 14.5685 46.3232 14.2694C45.8822 13.9712 45.4197 13.574 45.1809 12.9649C45.0626 12.6654 45.0315 12.3266 45.0713 12.0188C45.1115 11.7102 45.2119 11.4293 45.3366 11.1791C45.596 10.6663 45.9142 10.2965 46.2009 9.89969L47.0936 8.73537L48.8977 6.43135L51.9692 2.56715L49.6277 2.5C49.6277 2.5 44.2941 7.40482 41.9134 10.5001C39.8436 13.1904 40.9741 15.5675 44.7183 17.1664C47.8784 18.5166 50.8363 19.5617 50.8363 19.5617C51.3459 19.8256 51.7084 20.2882 51.8289 20.8279C51.9495 21.3681 51.8162 21.9302 51.4632 22.3689L43.3156 32.5H51.4445L54.9019 25.8866L56.2525 23.2959Z" fill="#F2BB41"/>
<path d="M64.0727 17.7944C62.938 15.8963 60.9957 14.5576 58.7455 14.1224L50.7737 12.4417C50.4413 12.3778 50.1619 12.1668 50.0208 11.8737C49.8797 11.581 49.8948 11.2417 50.0605 10.9609L55.3599 2.66403L52.7787 2.59009L49.5154 6.90681L47.7721 9.24821L46.9151 10.4249C46.6393 10.8208 46.3352 11.2121 46.1676 11.5783C45.9891 11.9568 45.9443 12.3175 46.0731 12.617C46.1973 12.9239 46.5009 13.2092 46.8671 13.4385C47.2379 13.6732 47.6457 13.8498 48.0977 14.027C48.5424 14.2028 48.9936 14.3695 49.4479 14.5293C51.2734 15.1708 53.1121 15.6986 55.0143 16.1968C55.9896 16.4872 57.022 16.8762 57.8443 17.7438C58.2452 18.178 58.5443 18.7483 58.6579 19.3386C58.7748 19.9295 58.7365 20.5112 58.6342 21.0491C58.5265 21.5865 58.358 22.0915 58.1603 22.5727C58.0603 22.812 57.9525 23.049 57.842 23.2773L57.5206 23.9361L56.2325 26.5611L53.3097 32.5001H61.5495L64.6662 24.0247C65.4238 21.9636 65.2073 19.6924 64.0727 17.7944Z" fill="#F2BB41"/>
</g>
<path d="M16.8824 45.5V37.04H20.4104C21.2904 37.04 21.9704 37.236 22.4504 37.628C22.9384 38.012 23.1824 38.552 23.1824 39.248C23.1824 39.76 23.0304 40.192 22.7264 40.544C22.4224 40.896 22.0104 41.132 21.4904 41.252V41.072C21.8824 41.128 22.2184 41.248 22.4984 41.432C22.7864 41.608 23.0064 41.844 23.1584 42.14C23.3104 42.428 23.3864 42.768 23.3864 43.16C23.3864 43.656 23.2744 44.08 23.0504 44.432C22.8264 44.784 22.5024 45.052 22.0784 45.236C21.6544 45.412 21.1464 45.5 20.5544 45.5H16.8824ZM18.0824 44.54H20.4104C20.6504 44.54 20.8624 44.524 21.0464 44.492C21.2384 44.452 21.4024 44.396 21.5384 44.324C21.6824 44.244 21.8024 44.148 21.8984 44.036C21.9944 43.916 22.0624 43.78 22.1024 43.628C22.1504 43.476 22.1744 43.304 22.1744 43.112C22.1744 42.92 22.1504 42.748 22.1024 42.596C22.0624 42.444 21.9944 42.312 21.8984 42.2C21.8024 42.088 21.6824 41.996 21.5384 41.924C21.4024 41.844 21.2384 41.788 21.0464 41.756C20.8624 41.716 20.6504 41.696 20.4104 41.696H18.0824V44.54ZM18.0824 40.736H20.2184C20.7944 40.736 21.2304 40.62 21.5264 40.388C21.8224 40.156 21.9704 39.816 21.9704 39.368C21.9704 38.92 21.8224 38.58 21.5264 38.348C21.2304 38.116 20.7944 38 20.2184 38H18.0824V40.736ZM24.9901 45.5V39.644H26.0941V44.3H25.7821L29.2621 39.644H30.2821V45.5H29.1781V40.844H29.5021L26.0101 45.5H24.9901ZM32.1034 45.5V39.644H33.3154V42.02H34.2994L36.1114 39.644H37.4314L35.2594 42.536L34.9594 42.152C35.1834 42.176 35.3794 42.232 35.5474 42.32C35.7154 42.408 35.8714 42.54 36.0154 42.716C36.1674 42.892 36.3274 43.124 36.4954 43.412L37.7074 45.5H36.4114L35.3914 43.748C35.2714 43.54 35.1514 43.38 35.0314 43.268C34.9194 43.156 34.7954 43.08 34.6594 43.04C34.5234 42.992 34.3514 42.968 34.1434 42.968H33.3154V45.5H32.1034ZM41.1516 45.608C40.5596 45.608 40.0476 45.484 39.6156 45.236C39.1916 44.988 38.8596 44.636 38.6196 44.18C38.3796 43.724 38.2596 43.188 38.2596 42.572C38.2596 41.948 38.3796 41.412 38.6196 40.964C38.8596 40.508 39.1916 40.156 39.6156 39.908C40.0476 39.66 40.5596 39.536 41.1516 39.536C41.7356 39.536 42.2396 39.66 42.6636 39.908C43.0956 40.156 43.4316 40.508 43.6716 40.964C43.9116 41.42 44.0316 41.956 44.0316 42.572C44.0316 43.188 43.9116 43.724 43.6716 44.18C43.4316 44.636 43.0956 44.988 42.6636 45.236C42.2396 45.484 41.7356 45.608 41.1516 45.608ZM41.1396 44.672C41.6436 44.672 42.0476 44.492 42.3516 44.132C42.6556 43.772 42.8076 43.252 42.8076 42.572C42.8076 41.884 42.6556 41.364 42.3516 41.012C42.0476 40.66 41.6436 40.484 41.1396 40.484C40.6436 40.484 40.2436 40.66 39.9396 41.012C39.6356 41.364 39.4836 41.884 39.4836 42.572C39.4836 43.252 39.6356 43.772 39.9396 44.132C40.2436 44.492 40.6436 44.672 41.1396 44.672ZM45.5334 47.66V39.644H46.7214V40.964H46.5894C46.7174 40.532 46.9694 40.188 47.3454 39.932C47.7214 39.668 48.1654 39.536 48.6774 39.536C49.1974 39.536 49.6494 39.66 50.0334 39.908C50.4254 40.156 50.7254 40.504 50.9334 40.952C51.1494 41.4 51.2574 41.94 51.2574 42.572C51.2574 43.188 51.1494 43.728 50.9334 44.192C50.7254 44.648 50.4294 45 50.0454 45.248C49.6614 45.488 49.2054 45.608 48.6774 45.608C48.1734 45.608 47.7334 45.48 47.3574 45.224C46.9814 44.968 46.7294 44.628 46.6014 44.204H46.7454V47.66H45.5334ZM48.3774 44.672C48.8814 44.672 49.2814 44.492 49.5774 44.132C49.8814 43.772 50.0334 43.252 50.0334 42.572C50.0334 41.884 49.8814 41.364 49.5774 41.012C49.2814 40.66 48.8814 40.484 48.3774 40.484C47.8814 40.484 47.4814 40.66 47.1774 41.012C46.8734 41.364 46.7214 41.884 46.7214 42.572C46.7214 43.252 46.8734 43.772 47.1774 44.132C47.4814 44.492 47.8814 44.672 48.3774 44.672ZM52.7401 45.5V39.644H53.8441V44.3H53.5321L57.0121 39.644H58.0321V45.5H56.9281V40.844H57.2521L53.7601 45.5H52.7401ZM62.4454 45.608C61.8454 45.608 61.3254 45.484 60.8854 45.236C60.4534 44.98 60.1174 44.624 59.8774 44.168C59.6374 43.704 59.5174 43.16 59.5174 42.536C59.5174 41.92 59.6374 41.388 59.8774 40.94C60.1174 40.492 60.4534 40.148 60.8854 39.908C61.3254 39.66 61.8454 39.536 62.4454 39.536C62.8134 39.536 63.1774 39.6 63.5374 39.728C63.8974 39.848 64.1934 40.024 64.4254 40.256L64.0414 41.108C63.8254 40.9 63.5814 40.748 63.3094 40.652C63.0374 40.548 62.7814 40.496 62.5414 40.496C61.9734 40.496 61.5334 40.676 61.2214 41.036C60.9174 41.388 60.7654 41.892 60.7654 42.548C60.7654 43.204 60.9174 43.72 61.2214 44.096C61.5334 44.464 61.9734 44.648 62.5414 44.648C62.7814 44.648 63.0374 44.6 63.3094 44.504C63.5814 44.4 63.8254 44.244 64.0414 44.036L64.4254 44.9C64.1934 45.116 63.8934 45.288 63.5254 45.416C63.1654 45.544 62.8054 45.608 62.4454 45.608ZM66.8196 45.5V40.616H64.7556V39.644H70.1076V40.616H68.0316V45.5H66.8196ZM73.6008 45.608C73.0088 45.608 72.4968 45.484 72.0648 45.236C71.6408 44.988 71.3088 44.636 71.0688 44.18C70.8288 43.724 70.7088 43.188 70.7088 42.572C70.7088 41.948 70.8288 41.412 71.0688 40.964C71.3088 40.508 71.6408 40.156 72.0648 39.908C72.4968 39.66 73.0088 39.536 73.6008 39.536C74.1848 39.536 74.6888 39.66 75.1128 39.908C75.5448 40.156 75.8808 40.508 76.1208 40.964C76.3608 41.42 76.4808 41.956 76.4808 42.572C76.4808 43.188 76.3608 43.724 76.1208 44.18C75.8808 44.636 75.5448 44.988 75.1128 45.236C74.6888 45.484 74.1848 45.608 73.6008 45.608ZM73.5888 44.672C74.0928 44.672 74.4968 44.492 74.8008 44.132C75.1048 43.772 75.2568 43.252 75.2568 42.572C75.2568 41.884 75.1048 41.364 74.8008 41.012C74.4968 40.66 74.0928 40.484 73.5888 40.484C73.0928 40.484 72.6928 40.66 72.3888 41.012C72.0848 41.364 71.9328 41.884 71.9328 42.572C71.9328 43.252 72.0848 43.772 72.3888 44.132C72.6928 44.492 73.0928 44.672 73.5888 44.672ZM77.9706 45.5V39.644H80.9586C81.4386 39.644 81.8306 39.704 82.1346 39.824C82.4466 39.944 82.6746 40.12 82.8186 40.352C82.9626 40.576 83.0346 40.852 83.0346 41.18C83.0346 41.556 82.9066 41.872 82.6506 42.128C82.3946 42.376 82.0586 42.524 81.6426 42.572V42.416C81.9786 42.424 82.2626 42.492 82.4946 42.62C82.7346 42.748 82.9146 42.92 83.0346 43.136C83.1626 43.344 83.2266 43.588 83.2266 43.868C83.2266 44.372 83.0386 44.772 82.6626 45.068C82.2866 45.356 81.7506 45.5 81.0546 45.5H77.9706ZM79.1106 44.72H80.9826C81.3426 44.72 81.6186 44.644 81.8106 44.492C82.0106 44.332 82.1106 44.104 82.1106 43.808C82.1106 43.512 82.0106 43.288 81.8106 43.136C81.6186 42.984 81.3426 42.908 80.9826 42.908H79.1106V44.72ZM79.1106 42.128H80.8746C81.2026 42.128 81.4546 42.052 81.6306 41.9C81.8146 41.748 81.9066 41.54 81.9066 41.276C81.9066 41.004 81.8146 40.796 81.6306 40.652C81.4546 40.508 81.2026 40.436 80.8746 40.436H79.1106V42.128ZM85.2506 47.66L86.4026 45.092V45.608L83.8466 39.644H85.1426L87.1106 44.504H86.7746L88.7666 39.644H90.0146L86.5226 47.66H85.2506ZM20.9647 61.5V55.644H22.0687V60.3H21.7567L25.2367 55.644H26.2567V61.5H25.1527V56.844H25.4767L21.9847 61.5H20.9647ZM23.6047 54.9C23.2527 54.9 22.9367 54.84 22.6567 54.72C22.3767 54.592 22.1367 54.408 21.9367 54.168C21.7367 53.92 21.5887 53.624 21.4927 53.28L22.1527 53.052C22.2967 53.444 22.4847 53.732 22.7167 53.916C22.9567 54.1 23.2567 54.192 23.6167 54.192C23.9847 54.192 24.2847 54.104 24.5167 53.928C24.7487 53.744 24.9487 53.456 25.1167 53.064L25.7527 53.28C25.6247 53.656 25.4527 53.964 25.2367 54.204C25.0287 54.444 24.7887 54.62 24.5167 54.732C24.2447 54.844 23.9407 54.9 23.6047 54.9ZM29.302 61.5V56.616H27.238V55.644H32.59V56.616H30.514V61.5H29.302ZM36.2872 61.608C35.6472 61.608 35.0952 61.488 34.6312 61.248C34.1752 61 33.8192 60.652 33.5632 60.204C33.3152 59.748 33.1912 59.208 33.1912 58.584C33.1912 57.976 33.3152 57.444 33.5632 56.988C33.8112 56.532 34.1512 56.176 34.5832 55.92C35.0152 55.664 35.5072 55.536 36.0592 55.536C36.6032 55.536 37.0672 55.656 37.4512 55.896C37.8432 56.128 38.1432 56.46 38.3512 56.892C38.5592 57.324 38.6632 57.84 38.6632 58.44V58.848H34.1512V58.104H37.8472L37.6432 58.272C37.6432 57.672 37.5112 57.208 37.2472 56.88C36.9832 56.552 36.6032 56.388 36.1072 56.388C35.7312 56.388 35.4112 56.476 35.1472 56.652C34.8912 56.828 34.6952 57.072 34.5592 57.384C34.4232 57.696 34.3552 58.06 34.3552 58.476V58.548C34.3552 59.012 34.4272 59.404 34.5712 59.724C34.7232 60.036 34.9432 60.272 35.2312 60.432C35.5192 60.592 35.8752 60.672 36.2992 60.672C36.6352 60.672 36.9632 60.62 37.2832 60.516C37.6112 60.404 37.9192 60.232 38.2072 60L38.5672 60.84C38.3032 61.08 37.9632 61.268 37.5472 61.404C37.1312 61.54 36.7112 61.608 36.2872 61.608ZM43.2538 61.5V55.644H46.2418C46.7218 55.644 47.1138 55.704 47.4178 55.824C47.7298 55.944 47.9578 56.12 48.1018 56.352C48.2458 56.576 48.3178 56.852 48.3178 57.18C48.3178 57.556 48.1898 57.872 47.9338 58.128C47.6778 58.376 47.3418 58.524 46.9258 58.572V58.416C47.2618 58.424 47.5458 58.492 47.7778 58.62C48.0178 58.748 48.1978 58.92 48.3178 59.136C48.4458 59.344 48.5098 59.588 48.5098 59.868C48.5098 60.372 48.3218 60.772 47.9458 61.068C47.5698 61.356 47.0338 61.5 46.3378 61.5H43.2538ZM44.3938 60.72H46.2658C46.6258 60.72 46.9018 60.644 47.0938 60.492C47.2938 60.332 47.3938 60.104 47.3938 59.808C47.3938 59.512 47.2938 59.288 47.0938 59.136C46.9018 58.984 46.6258 58.908 46.2658 58.908H44.3938V60.72ZM44.3938 58.128H46.1578C46.4858 58.128 46.7378 58.052 46.9138 57.9C47.0978 57.748 47.1898 57.54 47.1898 57.276C47.1898 57.004 47.0978 56.796 46.9138 56.652C46.7378 56.508 46.4858 56.436 46.1578 56.436H44.3938V58.128ZM50.5338 63.66L51.6858 61.092V61.608L49.1298 55.644H50.4258L52.3938 60.504H52.0578L54.0498 55.644H55.2978L51.8058 63.66H50.5338ZM55.6815 61.656L55.2735 60.696C55.5375 60.592 55.7575 60.456 55.9335 60.288C56.1175 60.12 56.2615 59.908 56.3655 59.652C56.4695 59.388 56.5455 59.064 56.5935 58.68C56.6415 58.296 56.6655 57.832 56.6655 57.288V55.644H61.1295V61.5H59.9175V56.616H57.7935V57.324C57.7935 57.988 57.7535 58.568 57.6735 59.064C57.5935 59.552 57.4695 59.968 57.3015 60.312C57.1335 60.656 56.9135 60.936 56.6415 61.152C56.3775 61.368 56.0575 61.536 55.6815 61.656ZM62.953 61.5V55.644H64.057V60.3H63.745L67.225 55.644H68.245V61.5H67.141V56.844H67.465L63.973 61.5H62.953ZM75.1303 63.06V61.5H70.0663V55.644H71.2783V60.54H74.0143V55.644H75.2263V60.54H76.1623V63.06H75.1303ZM82.4908 61.608C81.9548 61.608 81.4828 61.504 81.0748 61.296C80.6668 61.08 80.3388 60.772 80.0908 60.372C79.8508 59.972 79.7028 59.504 79.6468 58.968H78.5548V61.5H77.3788V55.644H78.5548V58.008H79.6588C79.7708 57.24 80.0748 56.636 80.5708 56.196C81.0668 55.756 81.7068 55.536 82.4908 55.536C83.0748 55.536 83.5828 55.66 84.0148 55.908C84.4468 56.156 84.7788 56.508 85.0108 56.964C85.2508 57.412 85.3708 57.948 85.3708 58.572C85.3708 59.188 85.2508 59.724 85.0108 60.18C84.7788 60.636 84.4468 60.988 84.0148 61.236C83.5828 61.484 83.0748 61.608 82.4908 61.608ZM82.4908 60.672C82.9948 60.672 83.3948 60.492 83.6908 60.132C83.9948 59.772 84.1468 59.252 84.1468 58.572C84.1468 57.884 83.9948 57.364 83.6908 57.012C83.3948 56.66 82.9948 56.484 82.4908 56.484C81.9948 56.484 81.5948 56.66 81.2908 57.012C80.9868 57.364 80.8348 57.884 80.8348 58.572C80.8348 59.252 80.9868 59.772 81.2908 60.132C81.5948 60.492 81.9948 60.672 82.4908 60.672Z" fill="black"/>
<path d="M32.953 76.5V69.45H35.923C36.4296 69.45 36.863 69.5367 37.223 69.71C37.583 69.8767 37.8563 70.12 38.043 70.44C38.2296 70.76 38.323 71.15 38.323 71.61C38.323 72.0567 38.2263 72.4433 38.033 72.77C37.8463 73.0967 37.573 73.35 37.213 73.53C36.8596 73.7033 36.4296 73.79 35.923 73.79H34.013V76.5H32.953ZM34.013 72.91H35.763C36.2563 72.91 36.6296 72.8033 36.883 72.59C37.143 72.37 37.273 72.0433 37.273 71.61C37.273 71.1833 37.1463 70.8633 36.893 70.65C36.6396 70.43 36.263 70.32 35.763 70.32H34.013V72.91ZM41.5666 76.59C41.0666 76.59 40.63 76.4867 40.2566 76.28C39.89 76.0667 39.6066 75.77 39.4066 75.39C39.2066 75.0033 39.1066 74.5533 39.1066 74.04C39.1066 73.52 39.2066 73.07 39.4066 72.69C39.6066 72.31 39.89 72.0167 40.2566 71.81C40.63 71.5967 41.0666 71.49 41.5666 71.49C42.0733 71.49 42.51 71.5967 42.8766 71.81C43.2433 72.0167 43.5266 72.31 43.7266 72.69C43.9266 73.07 44.0266 73.52 44.0266 74.04C44.0266 74.5533 43.9266 75.0033 43.7266 75.39C43.5266 75.77 43.2433 76.0667 42.8766 76.28C42.51 76.4867 42.0733 76.59 41.5666 76.59ZM41.5666 75.75C42 75.75 42.3433 75.6 42.5966 75.3C42.85 75 42.9766 74.5767 42.9766 74.03C42.9766 73.4833 42.85 73.0633 42.5966 72.77C42.3433 72.4767 42 72.33 41.5666 72.33C41.1333 72.33 40.79 72.4767 40.5366 72.77C40.2833 73.0633 40.1566 73.4833 40.1566 74.03C40.1566 74.5767 40.2833 75 40.5366 75.3C40.79 75.6 41.1333 75.75 41.5666 75.75ZM47.1623 76.59C46.7089 76.59 46.2856 76.5367 45.8923 76.43C45.5056 76.3233 45.1889 76.1767 44.9423 75.99L45.2523 75.27C45.4856 75.45 45.7689 75.5833 46.1023 75.67C46.4356 75.75 46.7789 75.79 47.1323 75.79C47.5923 75.79 47.9256 75.7333 48.1323 75.62C48.3389 75.5067 48.4423 75.3267 48.4423 75.08C48.4423 74.8467 48.3623 74.6733 48.2023 74.56C48.0423 74.4467 47.8089 74.39 47.5023 74.39H46.2023V73.62H47.4023C47.6689 73.62 47.8789 73.5667 48.0323 73.46C48.1856 73.3467 48.2623 73.1833 48.2623 72.97C48.2623 72.75 48.1723 72.5833 47.9923 72.47C47.8189 72.35 47.5289 72.29 47.1223 72.29C46.7756 72.29 46.4523 72.33 46.1523 72.41C45.8523 72.49 45.5723 72.6133 45.3123 72.78L45.0123 72.06C45.2923 71.8733 45.6223 71.7333 46.0023 71.64C46.3889 71.54 46.8056 71.49 47.2523 71.49C47.9123 71.49 48.4089 71.6133 48.7423 71.86C49.0756 72.1 49.2423 72.4367 49.2423 72.87C49.2423 73.1567 49.1489 73.4033 48.9623 73.61C48.7823 73.81 48.5323 73.94 48.2123 74V73.93C48.4723 73.9567 48.6923 74.0233 48.8723 74.13C49.0523 74.2367 49.1889 74.3733 49.2823 74.54C49.3756 74.7067 49.4223 74.9033 49.4223 75.13C49.4223 75.5767 49.2289 75.9333 48.8423 76.2C48.4623 76.46 47.9023 76.59 47.1623 76.59ZM50.3515 77.81V75.65H50.9015C51.0548 75.43 51.1748 75.1967 51.2615 74.95C51.3482 74.6967 51.4115 74.4133 51.4515 74.1C51.4915 73.78 51.5115 73.4167 51.5115 73.01V71.58H55.2815V75.65H56.0815V77.81H55.1815V76.5H51.2515V77.81H50.3515ZM51.8915 75.66H54.2815V72.41H52.4315V73.22C52.4315 73.6933 52.3882 74.14 52.3015 74.56C52.2148 74.98 52.0782 75.3467 51.8915 75.66ZM57.1287 70.46V69.36H58.3587V70.46H57.1287ZM57.2187 76.5V71.58H58.2787V76.5H57.2187ZM59.7133 76.63L59.3633 75.8C59.5966 75.7133 59.7899 75.6 59.9433 75.46C60.0966 75.3133 60.2166 75.13 60.3033 74.91C60.3899 74.69 60.4533 74.4233 60.4933 74.11C60.5333 73.79 60.5533 73.41 60.5533 72.97V71.58H64.3933V76.5H63.3333V72.43H61.5233V73C61.5233 73.54 61.4899 74.0133 61.4233 74.42C61.3633 74.8267 61.2633 75.1767 61.1233 75.47C60.9833 75.7633 60.7966 76.0067 60.5633 76.2C60.3299 76.3867 60.0466 76.53 59.7133 76.63ZM68.7809 76.5V75.72L71.1609 73.19C71.3876 72.95 71.5643 72.7333 71.6909 72.54C71.8243 72.34 71.9209 72.1467 71.9809 71.96C72.0409 71.7733 72.0709 71.5867 72.0709 71.4C72.0709 71.0333 71.9543 70.7533 71.7209 70.56C71.4943 70.3667 71.1676 70.27 70.7409 70.27C70.4143 70.27 70.0943 70.3333 69.7809 70.46C69.4676 70.58 69.1709 70.77 68.8909 71.03L68.5109 70.22C68.7976 69.9533 69.1476 69.7433 69.5609 69.59C69.9743 69.4367 70.4043 69.36 70.8509 69.36C71.3309 69.36 71.7409 69.4367 72.0809 69.59C72.4209 69.7433 72.6776 69.9667 72.8509 70.26C73.0309 70.5533 73.1209 70.9033 73.1209 71.31C73.1209 71.5233 73.0943 71.73 73.0409 71.93C72.9943 72.13 72.9209 72.33 72.8209 72.53C72.7209 72.7233 72.5909 72.9267 72.4309 73.14C72.2776 73.3467 72.0943 73.56 71.8809 73.78L69.9709 75.77V75.6H73.4009V76.5H68.7809Z" fill="#667085"/>
<defs>
<filter id="filter0_d_8310_900" x="0" y="0" width="104" height="92" filterUnits="userSpaceOnUse" color-interpolation-filters="sRGB">
<feFlood flood-opacity="0" result="BackgroundImageFix"/>
<feColorMatrix in="SourceAlpha" type="matrix" values="0 0 0 0 0 0 0 0 0 0 0 0 0 0 0 0 0 0 127 0" result="hardAlpha"/>
<feOffset dy="4"/>
<feGaussianBlur stdDeviation="2"/>
<feComposite in2="hardAlpha" operator="out"/>
<feColorMatrix type="matrix" values="0 0 0 0 0 0 0 0 0 0 0 0 0 0 0 0 0 0 0.25 0"/>
<feBlend mode="normal" in2="BackgroundImageFix" result="effect1_dropShadow_8310_900"/>
<feBlend mode="normal" in="SourceGraphic" in2="effect1_dropShadow_8310_900" result="shape"/>
</filter>
<clipPath id="clip0_8310_900">
<rect width="30" height="30" fill="white" transform="translate(38 2.5)"/>
</clipPath>
</defs>
</svg>
