<svg width="96" height="87" viewBox="0 0 96 87" fill="none" xmlns="http://www.w3.org/2000/svg">
<g filter="url(#filter0_d_8310_1103)">
<path d="M5.37285 43.1152C4.62083 41.8055 4.24484 41.1502 4.09767 40.4541C3.96744 39.8379 3.96744 39.2015 4.09767 38.5853C4.24484 37.8891 4.62083 37.2338 5.37285 35.9241L23.5901 4.19223C24.3421 2.88237 24.7181 2.22744 25.2442 1.75112C25.7096 1.32968 26.2579 1.01129 26.8535 0.816682C27.5267 0.596679 28.2787 0.59668 29.7827 0.59668H66.2171C67.7214 0.59668 68.4731 0.596679 69.1466 0.816682C69.7419 1.01129 70.2903 1.32968 70.756 1.75112C71.282 2.22744 71.6578 2.88237 72.41 4.19223L90.6271 35.9241C91.3792 37.2338 91.7551 37.8891 91.9021 38.5853C92.0326 39.2015 92.0326 39.8379 91.9021 40.4541C91.7551 41.1502 91.3792 41.8055 90.6271 43.1152L72.41 74.8473C71.6578 76.157 71.282 76.8118 70.756 77.2882C70.2903 77.7098 69.7419 78.028 69.1466 78.2226C68.4731 78.4428 67.7214 78.4428 66.2171 78.4428H29.7827C28.2787 78.4428 27.5267 78.4428 26.8535 78.2226C26.2579 78.028 25.7096 77.7098 25.2442 77.2882C24.7181 76.8118 24.3421 76.157 23.5901 74.8473L5.37285 43.1152Z" fill="white"/>
</g>
<path d="M58.2051 4.09668H38.2051C36.8244 4.09668 35.7051 5.21597 35.7051 6.59668V26.5967C35.7051 27.9774 36.8244 29.0967 38.2051 29.0967H58.2051C59.5858 29.0967 60.7051 27.9774 60.7051 26.5967V6.59668C60.7051 5.21597 59.5858 4.09668 58.2051 4.09668Z" fill="#F2BB41"/>
<path d="M54.4551 17.8466H45.7051V14.6091L46.0676 14.9841C46.1838 15.1013 46.322 15.1943 46.4743 15.2577C46.6267 15.3212 46.7901 15.3539 46.9551 15.3539C47.1201 15.3539 47.2835 15.3212 47.4358 15.2577C47.5881 15.1943 47.7264 15.1013 47.8426 14.9841C47.9597 14.8679 48.0527 14.7296 48.1162 14.5773C48.1796 14.425 48.2123 14.2616 48.2123 14.0966C48.2123 13.9316 48.1796 13.7682 48.1162 13.6159C48.0527 13.4636 47.9597 13.3253 47.8426 13.2091L45.3426 10.7091C45.2264 10.5919 45.0881 10.499 44.9358 10.4355C44.7835 10.372 44.6201 10.3394 44.4551 10.3394C44.2901 10.3394 44.1267 10.372 43.9743 10.4355C43.822 10.499 43.6838 10.5919 43.5676 10.7091L41.0676 13.2091C40.951 13.3257 40.8586 13.464 40.7955 13.6163C40.7324 13.7686 40.7 13.9318 40.7 14.0966C40.7 14.4295 40.8322 14.7487 41.0676 14.9841C41.3029 15.2195 41.6222 15.3517 41.9551 15.3517C42.2879 15.3517 42.6072 15.2195 42.8426 14.9841L43.2051 14.6091V17.8466C43.2051 18.5096 43.4685 19.1455 43.9373 19.6144C44.4061 20.0832 45.042 20.3466 45.7051 20.3466H54.4551C54.7866 20.3466 55.1045 20.2149 55.3389 19.9805C55.5734 19.7461 55.7051 19.4281 55.7051 19.0966C55.7051 18.7651 55.5734 18.4471 55.3389 18.2127C55.1045 17.9783 54.7866 17.8466 54.4551 17.8466Z" fill="#E08838"/>
<path d="M24.0398 44.7047C23.5678 44.7047 23.1278 44.6647 22.7198 44.5847C22.3198 44.5047 21.9558 44.3847 21.6278 44.2247C21.2998 44.0567 21.0117 43.8647 20.7638 43.6487L21.1838 42.7007C21.5518 43.0127 21.9598 43.2487 22.4078 43.4087C22.8558 43.5607 23.3718 43.6367 23.9558 43.6367C24.6838 43.6367 25.2158 43.5167 25.5518 43.2767C25.8958 43.0287 26.0678 42.6607 26.0678 42.1727C26.0678 41.7087 25.9238 41.3647 25.6358 41.1407C25.3478 40.9167 24.9038 40.8047 24.3038 40.8047H22.2398V39.8087H24.1118C24.6958 39.8087 25.1318 39.6967 25.4198 39.4727C25.7158 39.2487 25.8638 38.9167 25.8638 38.4767C25.8638 38.0447 25.7078 37.7047 25.3958 37.4567C25.0838 37.2087 24.6078 37.0847 23.9678 37.0847C23.4798 37.0847 23.0118 37.1607 22.5638 37.3127C22.1238 37.4647 21.7238 37.6927 21.3638 37.9967L20.9558 37.0487C21.2038 36.8247 21.4918 36.6367 21.8198 36.4847C22.1558 36.3327 22.5158 36.2207 22.8998 36.1487C23.2838 36.0687 23.6798 36.0287 24.0878 36.0287C24.7598 36.0287 25.3158 36.1247 25.7558 36.3167C26.2038 36.5087 26.5398 36.7807 26.7638 37.1327C26.9878 37.4767 27.0998 37.8807 27.0998 38.3447C27.0998 38.8567 26.9478 39.2887 26.6438 39.6407C26.3398 39.9927 25.9278 40.2287 25.4078 40.3487V40.1687C25.9998 40.2487 26.4638 40.4727 26.7998 40.8407C27.1358 41.2007 27.3038 41.6727 27.3038 42.2567C27.3038 42.7527 27.1838 43.1887 26.9438 43.5647C26.7118 43.9327 26.3558 44.2167 25.8758 44.4167C25.3958 44.6087 24.7838 44.7047 24.0398 44.7047ZM30.7804 44.7047C30.3724 44.7047 30.0044 44.6247 29.6764 44.4647C29.3564 44.3047 29.1044 44.0887 28.9204 43.8167C28.7364 43.5447 28.6444 43.2367 28.6444 42.8927C28.6444 42.4607 28.7524 42.1207 28.9684 41.8727C29.1924 41.6167 29.5564 41.4367 30.0604 41.3327C30.5724 41.2207 31.2604 41.1647 32.1244 41.1647H32.6884V41.9087H32.1364C31.7044 41.9087 31.3404 41.9247 31.0444 41.9567C30.7484 41.9887 30.5124 42.0407 30.3364 42.1127C30.1604 42.1767 30.0324 42.2687 29.9524 42.3887C29.8804 42.5087 29.8444 42.6527 29.8444 42.8207C29.8444 43.1247 29.9484 43.3727 30.1564 43.5647C30.3644 43.7487 30.6524 43.8407 31.0204 43.8407C31.3164 43.8407 31.5764 43.7727 31.8004 43.6367C32.0244 43.4927 32.2004 43.3007 32.3284 43.0607C32.4644 42.8207 32.5324 42.5447 32.5324 42.2327V40.8527C32.5324 40.3967 32.4364 40.0687 32.2444 39.8687C32.0524 39.6687 31.7364 39.5687 31.2964 39.5687C30.9604 39.5687 30.6244 39.6207 30.2884 39.7247C29.9524 39.8207 29.6084 39.9767 29.2564 40.1927L28.8844 39.3407C29.0924 39.1967 29.3324 39.0727 29.6044 38.9687C29.8764 38.8647 30.1604 38.7847 30.4564 38.7287C30.7604 38.6647 31.0524 38.6327 31.3324 38.6327C31.8684 38.6327 32.3084 38.7167 32.6524 38.8847C33.0044 39.0527 33.2644 39.3087 33.4324 39.6527C33.6004 39.9967 33.6844 40.4407 33.6844 40.9847V44.5967H32.5444V43.2887H32.6524C32.5884 43.5847 32.4684 43.8407 32.2924 44.0567C32.1244 44.2647 31.9124 44.4247 31.6564 44.5367C31.4004 44.6487 31.1084 44.7047 30.7804 44.7047ZM35.4823 44.5967V38.7407H38.4703C38.9503 38.7407 39.3423 38.8007 39.6463 38.9207C39.9583 39.0407 40.1863 39.2167 40.3303 39.4487C40.4743 39.6727 40.5463 39.9487 40.5463 40.2767C40.5463 40.6527 40.4183 40.9687 40.1623 41.2247C39.9063 41.4727 39.5703 41.6207 39.1543 41.6687V41.5127C39.4903 41.5207 39.7743 41.5887 40.0063 41.7167C40.2463 41.8447 40.4263 42.0167 40.5463 42.2327C40.6743 42.4407 40.7383 42.6847 40.7383 42.9647C40.7383 43.4687 40.5503 43.8687 40.1743 44.1647C39.7983 44.4527 39.2623 44.5967 38.5663 44.5967H35.4823ZM36.6223 43.8167H38.4943C38.8543 43.8167 39.1303 43.7407 39.3223 43.5887C39.5223 43.4287 39.6223 43.2007 39.6223 42.9047C39.6223 42.6087 39.5223 42.3847 39.3223 42.2327C39.1303 42.0807 38.8543 42.0047 38.4943 42.0047H36.6223V43.8167ZM36.6223 41.2247H38.3863C38.7143 41.2247 38.9663 41.1487 39.1423 40.9967C39.3263 40.8447 39.4183 40.6367 39.4183 40.3727C39.4183 40.1007 39.3263 39.8927 39.1423 39.7487C38.9663 39.6047 38.7143 39.5327 38.3863 39.5327H36.6223V41.2247ZM41.6675 46.1567V43.6367H42.3155C42.4915 43.3727 42.6315 43.0887 42.7355 42.7847C42.8395 42.4807 42.9155 42.1367 42.9635 41.7527C43.0115 41.3687 43.0355 40.9327 43.0355 40.4447V38.7407H47.3675V43.6367H48.3035V46.1567H47.2715V44.5967H42.7115V46.1567H41.6675ZM43.4435 43.6367H46.2155V39.6887H44.0915V40.6967C44.0915 41.2487 44.0355 41.7847 43.9235 42.3047C43.8115 42.8247 43.6515 43.2687 43.4435 43.6367ZM51.3937 44.7047C50.9857 44.7047 50.6177 44.6247 50.2897 44.4647C49.9697 44.3047 49.7177 44.0887 49.5337 43.8167C49.3497 43.5447 49.2577 43.2367 49.2577 42.8927C49.2577 42.4607 49.3657 42.1207 49.5817 41.8727C49.8057 41.6167 50.1697 41.4367 50.6737 41.3327C51.1857 41.2207 51.8737 41.1647 52.7377 41.1647H53.3017V41.9087H52.7497C52.3177 41.9087 51.9537 41.9247 51.6577 41.9567C51.3617 41.9887 51.1257 42.0407 50.9497 42.1127C50.7737 42.1767 50.6457 42.2687 50.5657 42.3887C50.4937 42.5087 50.4577 42.6527 50.4577 42.8207C50.4577 43.1247 50.5617 43.3727 50.7697 43.5647C50.9777 43.7487 51.2657 43.8407 51.6337 43.8407C51.9297 43.8407 52.1897 43.7727 52.4137 43.6367C52.6377 43.4927 52.8137 43.3007 52.9417 43.0607C53.0777 42.8207 53.1457 42.5447 53.1457 42.2327V40.8527C53.1457 40.3967 53.0497 40.0687 52.8577 39.8687C52.6657 39.6687 52.3497 39.5687 51.9097 39.5687C51.5737 39.5687 51.2377 39.6207 50.9017 39.7247C50.5657 39.8207 50.2217 39.9767 49.8697 40.1927L49.4977 39.3407C49.7057 39.1967 49.9457 39.0727 50.2177 38.9687C50.4897 38.8647 50.7737 38.7847 51.0697 38.7287C51.3737 38.6647 51.6657 38.6327 51.9457 38.6327C52.4817 38.6327 52.9217 38.7167 53.2657 38.8847C53.6177 39.0527 53.8777 39.3087 54.0457 39.6527C54.2137 39.9967 54.2977 40.4407 54.2977 40.9847V44.5967H53.1577V43.2887H53.2657C53.2017 43.5847 53.0817 43.8407 52.9057 44.0567C52.7377 44.2647 52.5257 44.4247 52.2697 44.5367C52.0137 44.6487 51.7217 44.7047 51.3937 44.7047ZM56.0956 44.5967V38.7407H57.3076V41.1047H60.2236V38.7407H61.4356V44.5967H60.2236V42.0647H57.3076V44.5967H56.0956ZM63.244 44.5967V38.7407H64.456V41.1047H67.372V38.7407H68.584V44.5967H67.372V42.0647H64.456V44.5967H63.244ZM69.9005 44.5967L70.7885 43.0607C70.9405 42.7887 71.1325 42.5727 71.3645 42.4127C71.5965 42.2447 71.8325 42.1607 72.0725 42.1607H72.2645V42.2807C71.8245 42.2807 71.4445 42.2127 71.1245 42.0767C70.8125 41.9407 70.5725 41.7407 70.4045 41.4767C70.2445 41.2127 70.1645 40.8967 70.1645 40.5287C70.1645 39.9847 70.3485 39.5527 70.7165 39.2327C71.0845 38.9047 71.6325 38.7407 72.3605 38.7407H75.1565V44.5967H74.0285V42.4607H73.2725C72.9925 42.4607 72.7525 42.5327 72.5525 42.6767C72.3525 42.8207 72.1885 43.0047 72.0605 43.2287L71.2805 44.5967H69.9005ZM72.6125 41.6327H74.0285V39.5687H72.6125C72.1725 39.5687 71.8485 39.6607 71.6405 39.8447C71.4325 40.0207 71.3285 40.2687 71.3285 40.5887C71.3285 40.9167 71.4325 41.1727 71.6405 41.3567C71.8485 41.5407 72.1725 41.6327 72.6125 41.6327ZM26.7343 60.5967V54.7407H29.7223C30.2023 54.7407 30.5943 54.8007 30.8983 54.9207C31.2103 55.0407 31.4383 55.2167 31.5823 55.4487C31.7263 55.6727 31.7983 55.9487 31.7983 56.2767C31.7983 56.6527 31.6703 56.9687 31.4143 57.2247C31.1583 57.4727 30.8223 57.6207 30.4063 57.6687V57.5127C30.7423 57.5207 31.0263 57.5887 31.2583 57.7167C31.4983 57.8447 31.6783 58.0167 31.7983 58.2327C31.9263 58.4407 31.9903 58.6847 31.9903 58.9647C31.9903 59.4687 31.8023 59.8687 31.4263 60.1647C31.0503 60.4527 30.5143 60.5967 29.8183 60.5967H26.7343ZM27.8743 59.8167H29.7463C30.1063 59.8167 30.3823 59.7407 30.5743 59.5887C30.7743 59.4287 30.8743 59.2007 30.8743 58.9047C30.8743 58.6087 30.7743 58.3847 30.5743 58.2327C30.3823 58.0807 30.1063 58.0047 29.7463 58.0047H27.8743V59.8167ZM27.8743 57.2247H29.6383C29.9663 57.2247 30.2183 57.1487 30.3943 56.9967C30.5783 56.8447 30.6703 56.6367 30.6703 56.3727C30.6703 56.1007 30.5783 55.8927 30.3943 55.7487C30.2183 55.6047 29.9663 55.5327 29.6383 55.5327H27.8743V57.2247ZM35.9582 60.7047C35.3662 60.7047 34.8542 60.5807 34.4222 60.3327C33.9982 60.0847 33.6662 59.7327 33.4262 59.2767C33.1862 58.8207 33.0662 58.2847 33.0662 57.6687C33.0662 57.0447 33.1862 56.5087 33.4262 56.0607C33.6662 55.6047 33.9982 55.2527 34.4222 55.0047C34.8542 54.7567 35.3662 54.6327 35.9582 54.6327C36.5422 54.6327 37.0462 54.7567 37.4702 55.0047C37.9022 55.2527 38.2382 55.6047 38.4782 56.0607C38.7182 56.5167 38.8382 57.0527 38.8382 57.6687C38.8382 58.2847 38.7182 58.8207 38.4782 59.2767C38.2382 59.7327 37.9022 60.0847 37.4702 60.3327C37.0462 60.5807 36.5422 60.7047 35.9582 60.7047ZM35.9462 59.7687C36.4502 59.7687 36.8542 59.5887 37.1582 59.2287C37.4622 58.8687 37.6142 58.3487 37.6142 57.6687C37.6142 56.9807 37.4622 56.4607 37.1582 56.1087C36.8542 55.7567 36.4502 55.5807 35.9462 55.5807C35.4502 55.5807 35.0502 55.7567 34.7462 56.1087C34.4422 56.4607 34.2902 56.9807 34.2902 57.6687C34.2902 58.3487 34.4422 58.8687 34.7462 59.2287C35.0502 59.5887 35.4502 59.7687 35.9462 59.7687ZM39.728 62.1567V59.6367H40.376C40.552 59.3727 40.692 59.0887 40.796 58.7847C40.9 58.4807 40.976 58.1367 41.024 57.7527C41.072 57.3687 41.096 56.9327 41.096 56.4447V54.7407H45.428V59.6367H46.364V62.1567H45.332V60.5967H40.772V62.1567H39.728ZM41.504 59.6367H44.276V55.6887H42.152V56.6967C42.152 57.2487 42.096 57.7847 41.984 58.3047C41.872 58.8247 41.712 59.2687 41.504 59.6367ZM47.4742 53.3847V52.1247H48.8902V53.3847H47.4742ZM47.5822 60.5967V54.7407H48.7942V60.5967H47.5822ZM50.6171 60.5967V54.7407H51.8291V57.1047H54.7451V54.7407H55.9571V60.5967H54.7451V58.0647H51.8291V60.5967H50.6171ZM57.7655 60.5967V54.7407H58.9775V57.1047H61.8935V54.7407H63.1055V60.5967H61.8935V58.0647H58.9775V60.5967H57.7655ZM64.422 60.5967L65.31 59.0607C65.462 58.7887 65.654 58.5727 65.886 58.4127C66.118 58.2447 66.354 58.1607 66.594 58.1607H66.786V58.2807C66.346 58.2807 65.966 58.2127 65.646 58.0767C65.334 57.9407 65.094 57.7407 64.926 57.4767C64.766 57.2127 64.686 56.8967 64.686 56.5287C64.686 55.9847 64.87 55.5527 65.238 55.2327C65.606 54.9047 66.154 54.7407 66.882 54.7407H69.678V60.5967H68.55V58.4607H67.794C67.514 58.4607 67.274 58.5327 67.074 58.6767C66.874 58.8207 66.71 59.0047 66.582 59.2287L65.802 60.5967H64.422ZM67.134 57.6327H68.55V55.5687H67.134C66.694 55.5687 66.37 55.6607 66.162 55.8447C65.954 56.0207 65.85 56.2687 65.85 56.5887C65.85 56.9167 65.954 57.1727 66.162 57.3567C66.37 57.5407 66.694 57.6327 67.134 57.6327Z" fill="black"/>
<path d="M28.1581 75.5967V68.5467H31.1281C31.6348 68.5467 32.0681 68.6333 32.4281 68.8067C32.7881 68.9733 33.0614 69.2167 33.2481 69.5367C33.4348 69.8567 33.5281 70.2467 33.5281 70.7067C33.5281 71.1533 33.4314 71.54 33.2381 71.8667C33.0514 72.1933 32.7781 72.4467 32.4181 72.6267C32.0648 72.8 31.6348 72.8867 31.1281 72.8867H29.2181V75.5967H28.1581ZM29.2181 72.0067H30.9681C31.4614 72.0067 31.8348 71.9 32.0881 71.6867C32.3481 71.4667 32.4781 71.14 32.4781 70.7067C32.4781 70.28 32.3514 69.96 32.0981 69.7467C31.8448 69.5267 31.4681 69.4167 30.9681 69.4167H29.2181V72.0067ZM36.7718 75.6867C36.2718 75.6867 35.8351 75.5833 35.4618 75.3767C35.0951 75.1633 34.8118 74.8667 34.6118 74.4867C34.4118 74.1 34.3118 73.65 34.3118 73.1367C34.3118 72.6167 34.4118 72.1667 34.6118 71.7867C34.8118 71.4067 35.0951 71.1133 35.4618 70.9067C35.8351 70.6933 36.2718 70.5867 36.7718 70.5867C37.2784 70.5867 37.7151 70.6933 38.0818 70.9067C38.4484 71.1133 38.7318 71.4067 38.9318 71.7867C39.1318 72.1667 39.2318 72.6167 39.2318 73.1367C39.2318 73.65 39.1318 74.1 38.9318 74.4867C38.7318 74.8667 38.4484 75.1633 38.0818 75.3767C37.7151 75.5833 37.2784 75.6867 36.7718 75.6867ZM36.7718 74.8467C37.2051 74.8467 37.5484 74.6967 37.8018 74.3967C38.0551 74.0967 38.1818 73.6733 38.1818 73.1267C38.1818 72.58 38.0551 72.16 37.8018 71.8667C37.5484 71.5733 37.2051 71.4267 36.7718 71.4267C36.3384 71.4267 35.9951 71.5733 35.7418 71.8667C35.4884 72.16 35.3618 72.58 35.3618 73.1267C35.3618 73.6733 35.4884 74.0967 35.7418 74.3967C35.9951 74.6967 36.3384 74.8467 36.7718 74.8467ZM42.3674 75.6867C41.9141 75.6867 41.4907 75.6333 41.0974 75.5267C40.7107 75.42 40.3941 75.2733 40.1474 75.0867L40.4574 74.3667C40.6907 74.5467 40.9741 74.68 41.3074 74.7667C41.6407 74.8467 41.9841 74.8867 42.3374 74.8867C42.7974 74.8867 43.1307 74.83 43.3374 74.7167C43.5441 74.6033 43.6474 74.4233 43.6474 74.1767C43.6474 73.9433 43.5674 73.77 43.4074 73.6567C43.2474 73.5433 43.0141 73.4867 42.7074 73.4867H41.4074V72.7167H42.6074C42.8741 72.7167 43.0841 72.6633 43.2374 72.5567C43.3907 72.4433 43.4674 72.28 43.4674 72.0667C43.4674 71.8467 43.3774 71.68 43.1974 71.5667C43.0241 71.4467 42.7341 71.3867 42.3274 71.3867C41.9807 71.3867 41.6574 71.4267 41.3574 71.5067C41.0574 71.5867 40.7774 71.71 40.5174 71.8767L40.2174 71.1567C40.4974 70.97 40.8274 70.83 41.2074 70.7367C41.5941 70.6367 42.0107 70.5867 42.4574 70.5867C43.1174 70.5867 43.6141 70.71 43.9474 70.9567C44.2807 71.1967 44.4474 71.5333 44.4474 71.9667C44.4474 72.2533 44.3541 72.5 44.1674 72.7067C43.9874 72.9067 43.7374 73.0367 43.4174 73.0967V73.0267C43.6774 73.0533 43.8974 73.12 44.0774 73.2267C44.2574 73.3333 44.3941 73.47 44.4874 73.6367C44.5807 73.8033 44.6274 74 44.6274 74.2267C44.6274 74.6733 44.4341 75.03 44.0474 75.2967C43.6674 75.5567 43.1074 75.6867 42.3674 75.6867ZM45.5566 76.9067V74.7467H46.1066C46.2599 74.5267 46.3799 74.2933 46.4666 74.0467C46.5533 73.7933 46.6166 73.51 46.6566 73.1967C46.6966 72.8767 46.7166 72.5133 46.7166 72.1067V70.6767H50.4866V74.7467H51.2866V76.9067H50.3866V75.5967H46.4566V76.9067H45.5566ZM47.0966 74.7567H49.4866V71.5067H47.6366V72.3167C47.6366 72.79 47.5933 73.2367 47.5066 73.6567C47.4199 74.0767 47.2833 74.4433 47.0966 74.7567ZM52.3338 69.5567V68.4567H53.5638V69.5567H52.3338ZM52.4238 75.5967V70.6767H53.4838V75.5967H52.4238ZM54.9184 75.7267L54.5684 74.8967C54.8017 74.81 54.9951 74.6967 55.1484 74.5567C55.3017 74.41 55.4217 74.2267 55.5084 74.0067C55.5951 73.7867 55.6584 73.52 55.6984 73.2067C55.7384 72.8867 55.7584 72.5067 55.7584 72.0667V70.6767H59.5984V75.5967H58.5384V71.5267H56.7284V72.0967C56.7284 72.6367 56.6951 73.11 56.6284 73.5167C56.5684 73.9233 56.4684 74.2733 56.3284 74.5667C56.1884 74.86 56.0017 75.1033 55.7684 75.2967C55.5351 75.4833 55.2517 75.6267 54.9184 75.7267ZM65.6761 75.6867C65.4227 75.6867 65.1727 75.6567 64.9261 75.5967C64.6794 75.5367 64.4461 75.4467 64.2261 75.3267C64.0061 75.2 63.8094 75.05 63.6361 74.8767L64.0061 74.0767C64.2594 74.3233 64.5261 74.5033 64.8061 74.6167C65.0927 74.7233 65.3861 74.7767 65.6861 74.7767C65.9994 74.7767 66.2727 74.72 66.5061 74.6067C66.7461 74.4933 66.9494 74.3267 67.1161 74.1067C67.2827 73.88 67.4061 73.6 67.4861 73.2667C67.5727 72.9267 67.6161 72.54 67.6161 72.1067V71.4167H67.6661C67.6127 71.7433 67.4961 72.0267 67.3161 72.2667C67.1427 72.5067 66.9227 72.69 66.6561 72.8167C66.3894 72.9433 66.0894 73.0067 65.7561 73.0067C65.3494 73.0067 64.9861 72.9133 64.6661 72.7267C64.3461 72.5333 64.0927 72.27 63.9061 71.9367C63.7194 71.5967 63.6261 71.21 63.6261 70.7767C63.6261 70.3233 63.7227 69.9233 63.9161 69.5767C64.1161 69.23 64.3894 68.9567 64.7361 68.7567C65.0827 68.5567 65.4761 68.4567 65.9161 68.4567C66.4961 68.4567 66.9861 68.5933 67.3861 68.8667C67.7861 69.1333 68.0894 69.5267 68.2961 70.0467C68.5027 70.5667 68.6061 71.1933 68.6061 71.9267C68.6061 72.7267 68.4894 73.4067 68.2561 73.9667C68.0227 74.5267 67.6894 74.9533 67.2561 75.2467C66.8227 75.54 66.2961 75.6867 65.6761 75.6867ZM65.9861 72.1467C66.2594 72.1467 66.4994 72.0867 66.7061 71.9667C66.9127 71.8467 67.0727 71.6833 67.1861 71.4767C67.2994 71.2633 67.3561 71.0167 67.3561 70.7367C67.3561 70.45 67.2994 70.2033 67.1861 69.9967C67.0727 69.7833 66.9127 69.6167 66.7061 69.4967C66.4994 69.3767 66.2594 69.3167 65.9861 69.3167C65.7127 69.3167 65.4727 69.3767 65.2661 69.4967C65.0661 69.6167 64.9094 69.7833 64.7961 69.9967C64.6827 70.21 64.6261 70.4567 64.6261 70.7367C64.6261 71.0167 64.6827 71.2633 64.7961 71.4767C64.9094 71.69 65.0694 71.8567 65.2761 71.9767C65.4827 72.09 65.7194 72.1467 65.9861 72.1467Z" fill="#667085"/>
<defs>
<filter id="filter0_d_8310_1103" x="0" y="0.59668" width="96" height="85.8462" filterUnits="userSpaceOnUse" color-interpolation-filters="sRGB">
<feFlood flood-opacity="0" result="BackgroundImageFix"/>
<feColorMatrix in="SourceAlpha" type="matrix" values="0 0 0 0 0 0 0 0 0 0 0 0 0 0 0 0 0 0 127 0" result="hardAlpha"/>
<feOffset dy="4"/>
<feGaussianBlur stdDeviation="2"/>
<feComposite in2="hardAlpha" operator="out"/>
<feColorMatrix type="matrix" values="0 0 0 0 0 0 0 0 0 0 0 0 0 0 0 0 0 0 0.25 0"/>
<feBlend mode="normal" in2="BackgroundImageFix" result="effect1_dropShadow_8310_1103"/>
<feBlend mode="normal" in="SourceGraphic" in2="effect1_dropShadow_8310_1103" result="shape"/>
</filter>
</defs>
</svg>
