<svg width="102" height="86" viewBox="0 0 102 86" fill="none" xmlns="http://www.w3.org/2000/svg">
<g filter="url(#filter0_d_8334_734)">
<path d="M5.45148 42.5206C4.65639 41.2109 4.25887 40.5556 4.10327 39.8593C3.96558 39.2431 3.96558 38.6067 4.10327 37.9905C4.25887 37.2942 4.65639 36.6389 5.45148 35.3292L24.7122 3.59573C25.5072 2.2858 25.9047 1.63084 26.4609 1.1545C26.953 0.733034 27.5327 0.414632 28.1625 0.220013C28.8742 -2.00927e-07 29.6693 0 31.2595 0H69.7806C71.3711 0 72.1659 -2.00927e-07 72.8779 0.220013C73.5073 0.414632 74.0871 0.733034 74.5794 1.1545C75.1356 1.63084 75.533 2.2858 76.3282 3.59573L95.5887 35.3292C96.3839 36.6389 96.7813 37.2942 96.9368 37.9905C97.0747 38.6067 97.0747 39.2431 96.9368 39.8593C96.7813 40.5556 96.3839 41.2109 95.5887 42.5206L76.3282 74.2543C75.533 75.564 75.1356 76.2189 74.5794 76.6953C74.0871 77.1169 73.5073 77.4351 72.8779 77.6298C72.1659 77.85 71.3711 77.85 69.7806 77.85H31.2595C29.6693 77.85 28.8742 77.85 28.1625 77.6298C27.5327 77.4351 26.953 77.1169 26.4609 76.6953C25.9047 76.2189 25.5072 75.564 24.7122 74.2543L5.45148 42.5206Z" fill="white"/>
</g>
<path d="M60.9148 10.8521H41.9502C41.7451 10.8527 41.5486 10.9345 41.4035 11.0796C41.2585 11.2246 41.1767 11.4211 41.176 11.6262V34.6924C41.1769 34.897 41.259 35.0928 41.4041 35.237C41.5492 35.3812 41.7456 35.4619 41.9502 35.4614H60.9148C61.0158 35.4616 61.1159 35.4418 61.2093 35.4032C61.3026 35.3646 61.3875 35.3079 61.4589 35.2365C61.5303 35.165 61.587 35.0802 61.6256 34.9868C61.6642 34.8935 61.684 34.7934 61.6838 34.6924V11.6262C61.6843 11.4216 61.6036 11.2252 61.4594 11.0801C61.3153 10.9349 61.1194 10.8529 60.9148 10.8521ZM50.4045 31.3803H45.2776C45.0736 31.3803 44.878 31.2993 44.7338 31.1551C44.5896 31.0109 44.5085 30.8153 44.5085 30.6113C44.5085 30.4073 44.5896 30.2117 44.7338 30.0675C44.878 29.9233 45.0736 29.8422 45.2776 29.8422H50.4045C51.4142 29.858 51.4168 31.3642 50.4045 31.3803ZM50.4045 25.7407H45.2776C45.0736 25.7407 44.878 25.6597 44.7338 25.5154C44.5896 25.3712 44.5085 25.1756 44.5085 24.9716C44.5085 24.7677 44.5896 24.5721 44.7338 24.4278C44.878 24.2836 45.0736 24.2026 45.2776 24.2026H50.4045C51.4142 24.2183 51.4168 25.7245 50.4045 25.7407ZM52.4758 19.5679C52.4608 20.5777 50.9534 20.5796 50.9377 19.5678V15.5842C50.9387 14.9417 51.1947 14.3259 51.6494 13.8719C52.104 13.4179 52.7203 13.1629 53.3628 13.1629C54.0053 13.1629 54.6215 13.4179 55.0762 13.8719C55.5309 14.3259 55.7868 14.9417 55.7878 15.5842V19.5679C55.7713 20.5784 54.2663 20.5795 54.2497 19.5678V18.486H52.4758V19.5679ZM58.1257 29.8935L55.6033 32.416C55.5328 32.4886 55.4483 32.546 55.3548 32.5848C55.2614 32.6236 55.161 32.6429 55.0598 32.6416C54.9588 32.6419 54.8587 32.6222 54.7654 32.5834C54.6721 32.5447 54.5874 32.4878 54.5164 32.416L53.4499 31.3496C52.7516 30.6261 53.8134 29.5545 54.5369 30.2626L55.0598 30.7855L57.0388 28.8066C57.77 28.108 58.8309 29.1719 58.1257 29.8935ZM58.1257 24.2539L55.6033 26.7763C55.5328 26.8489 55.4483 26.9063 55.3548 26.9451C55.2614 26.9839 55.161 27.0033 55.0598 27.0019C54.9588 27.0023 54.8587 26.9825 54.7654 26.9438C54.6721 26.9051 54.5874 26.8481 54.5164 26.7763L53.4499 25.7099C52.7516 24.9864 53.8134 23.9148 54.5369 24.623L55.0598 25.1459L57.0388 23.167C57.77 22.4683 58.8309 23.5322 58.1257 24.2539Z" fill="#F2BB41"/>
<path d="M54.2497 15.5841C54.2491 15.3493 54.1554 15.1243 53.9892 14.9584C53.8229 14.7926 53.5976 14.6995 53.3628 14.6995C53.1279 14.6995 52.9027 14.7926 52.7364 14.9584C52.5701 15.1243 52.4764 15.3493 52.4758 15.5841V16.9479H54.2497V15.5841Z" fill="#F2BB41"/>
<path d="M34.0448 51.1567V42.6967H41.1968V51.1567H39.9608V43.7407H35.2928V51.1567H34.0448ZM45.8617 51.2647C45.2217 51.2647 44.6697 51.1447 44.2057 50.9047C43.7497 50.6567 43.3937 50.3087 43.1377 49.8607C42.8897 49.4047 42.7657 48.8647 42.7657 48.2407C42.7657 47.6327 42.8897 47.1007 43.1377 46.6447C43.3857 46.1887 43.7257 45.8327 44.1577 45.5767C44.5897 45.3207 45.0817 45.1927 45.6337 45.1927C46.1777 45.1927 46.6417 45.3127 47.0257 45.5527C47.4177 45.7847 47.7177 46.1167 47.9257 46.5487C48.1337 46.9807 48.2377 47.4967 48.2377 48.0967V48.5047H43.7257V47.7607H47.4217L47.2177 47.9287C47.2177 47.3287 47.0857 46.8647 46.8217 46.5367C46.5577 46.2087 46.1777 46.0447 45.6817 46.0447C45.3057 46.0447 44.9857 46.1327 44.7217 46.3087C44.4657 46.4847 44.2697 46.7287 44.1337 47.0407C43.9977 47.3527 43.9297 47.7167 43.9297 48.1327V48.2047C43.9297 48.6687 44.0017 49.0607 44.1457 49.3807C44.2977 49.6927 44.5177 49.9287 44.8057 50.0887C45.0937 50.2487 45.4497 50.3287 45.8737 50.3287C46.2097 50.3287 46.5377 50.2767 46.8577 50.1727C47.1857 50.0607 47.4937 49.8887 47.7817 49.6567L48.1417 50.4967C47.8777 50.7367 47.5377 50.9247 47.1217 51.0607C46.7057 51.1967 46.2857 51.2647 45.8617 51.2647ZM49.6879 53.3167V45.3007H50.8759V46.6207H50.7439C50.8719 46.1887 51.1239 45.8447 51.4999 45.5887C51.8759 45.3247 52.3199 45.1927 52.8319 45.1927C53.3519 45.1927 53.8039 45.3167 54.1879 45.5647C54.5799 45.8127 54.8799 46.1607 55.0879 46.6087C55.3039 47.0567 55.4119 47.5967 55.4119 48.2287C55.4119 48.8447 55.3039 49.3847 55.0879 49.8487C54.8799 50.3047 54.5839 50.6567 54.1999 50.9047C53.8159 51.1447 53.3599 51.2647 52.8319 51.2647C52.3279 51.2647 51.8879 51.1367 51.5119 50.8807C51.1359 50.6247 50.8839 50.2847 50.7559 49.8607H50.8999V53.3167H49.6879ZM52.5319 50.3287C53.0359 50.3287 53.4359 50.1487 53.7319 49.7887C54.0359 49.4287 54.1879 48.9087 54.1879 48.2287C54.1879 47.5407 54.0359 47.0207 53.7319 46.6687C53.4359 46.3167 53.0359 46.1407 52.5319 46.1407C52.0359 46.1407 51.6359 46.3167 51.3319 46.6687C51.0279 47.0207 50.8759 47.5407 50.8759 48.2287C50.8759 48.9087 51.0279 49.4287 51.3319 49.7887C51.6359 50.1487 52.0359 50.3287 52.5319 50.3287ZM59.6547 51.2647C59.0147 51.2647 58.4627 51.1447 57.9987 50.9047C57.5427 50.6567 57.1867 50.3087 56.9307 49.8607C56.6827 49.4047 56.5587 48.8647 56.5587 48.2407C56.5587 47.6327 56.6827 47.1007 56.9307 46.6447C57.1787 46.1887 57.5187 45.8327 57.9507 45.5767C58.3827 45.3207 58.8747 45.1927 59.4267 45.1927C59.9707 45.1927 60.4347 45.3127 60.8187 45.5527C61.2107 45.7847 61.5107 46.1167 61.7187 46.5487C61.9267 46.9807 62.0307 47.4967 62.0307 48.0967V48.5047H57.5187V47.7607H61.2147L61.0107 47.9287C61.0107 47.3287 60.8787 46.8647 60.6147 46.5367C60.3507 46.2087 59.9707 46.0447 59.4747 46.0447C59.0987 46.0447 58.7787 46.1327 58.5147 46.3087C58.2587 46.4847 58.0627 46.7287 57.9267 47.0407C57.7907 47.3527 57.7227 47.7167 57.7227 48.1327V48.2047C57.7227 48.6687 57.7947 49.0607 57.9387 49.3807C58.0907 49.6927 58.3107 49.9287 58.5987 50.0887C58.8867 50.2487 59.2427 50.3287 59.6667 50.3287C60.0027 50.3287 60.3307 50.2767 60.6507 50.1727C60.9787 50.0607 61.2867 49.8887 61.5747 49.6567L61.9347 50.4967C61.6707 50.7367 61.3307 50.9247 60.9147 51.0607C60.4987 51.1967 60.0787 51.2647 59.6547 51.2647ZM62.8689 52.7167V50.1967H63.5169C63.6929 49.9327 63.8329 49.6487 63.9369 49.3447C64.0409 49.0407 64.1169 48.6967 64.1649 48.3127C64.2129 47.9287 64.2369 47.4927 64.2369 47.0047V45.3007H68.5689V50.1967H69.5049V52.7167H68.4729V51.1567H63.9129V52.7167H62.8689ZM64.6449 50.1967H67.4169V46.2487H65.2929V47.2567C65.2929 47.8087 65.2369 48.3447 65.1249 48.8647C65.0129 49.3847 64.8529 49.8287 64.6449 50.1967ZM30.5252 59.9447V58.6847H31.9412V59.9447H30.5252ZM30.6332 67.1567V61.3007H31.8452V67.1567H30.6332ZM36.2601 67.2647C35.6601 67.2647 35.1401 67.1407 34.7001 66.8927C34.2681 66.6367 33.9321 66.2807 33.6921 65.8247C33.4521 65.3607 33.3321 64.8167 33.3321 64.1927C33.3321 63.5767 33.4521 63.0447 33.6921 62.5967C33.9321 62.1487 34.2681 61.8047 34.7001 61.5647C35.1401 61.3167 35.6601 61.1927 36.2601 61.1927C36.6281 61.1927 36.9921 61.2567 37.3521 61.3847C37.7121 61.5047 38.0081 61.6807 38.2401 61.9127L37.8561 62.7647C37.6401 62.5567 37.3961 62.4047 37.1241 62.3087C36.8521 62.2047 36.5961 62.1527 36.3561 62.1527C35.7881 62.1527 35.3481 62.3327 35.0361 62.6927C34.7321 63.0447 34.5801 63.5487 34.5801 64.2047C34.5801 64.8607 34.7321 65.3767 35.0361 65.7527C35.3481 66.1207 35.7881 66.3047 36.3561 66.3047C36.5961 66.3047 36.8521 66.2567 37.1241 66.1607C37.3961 66.0567 37.6401 65.9007 37.8561 65.6927L38.2401 66.5567C38.0081 66.7727 37.7081 66.9447 37.3401 67.0727C36.9801 67.2007 36.6201 67.2647 36.2601 67.2647ZM39.4103 67.1567V61.3007H44.7143V67.1567H43.5023V62.2727H40.6223V67.1567H39.4103ZM46.5236 67.1567V61.3007H47.6276V65.9567H47.3156L50.7956 61.3007H51.8156V67.1567H50.7116V62.5007H51.0356L47.5436 67.1567H46.5236ZM54.8609 67.1567V62.2727H52.7969V61.3007H58.1489V62.2727H56.0729V67.1567H54.8609ZM61.6421 67.2647C61.0501 67.2647 60.5381 67.1407 60.1061 66.8927C59.6821 66.6447 59.3501 66.2927 59.1101 65.8367C58.8701 65.3807 58.7501 64.8447 58.7501 64.2287C58.7501 63.6047 58.8701 63.0687 59.1101 62.6207C59.3501 62.1647 59.6821 61.8127 60.1061 61.5647C60.5381 61.3167 61.0501 61.1927 61.6421 61.1927C62.2261 61.1927 62.7301 61.3167 63.1541 61.5647C63.5861 61.8127 63.9221 62.1647 64.1621 62.6207C64.4021 63.0767 64.5221 63.6127 64.5221 64.2287C64.5221 64.8447 64.4021 65.3807 64.1621 65.8367C63.9221 66.2927 63.5861 66.6447 63.1541 66.8927C62.7301 67.1407 62.2261 67.2647 61.6421 67.2647ZM61.6301 66.3287C62.1341 66.3287 62.5381 66.1487 62.8421 65.7887C63.1461 65.4287 63.2981 64.9087 63.2981 64.2287C63.2981 63.5407 63.1461 63.0207 62.8421 62.6687C62.5381 62.3167 62.1341 62.1407 61.6301 62.1407C61.1341 62.1407 60.7341 62.3167 60.4301 62.6687C60.1261 63.0207 59.9741 63.5407 59.9741 64.2287C59.9741 64.9087 60.1261 65.4287 60.4301 65.7887C60.7341 66.1487 61.1341 66.3287 61.6301 66.3287ZM66.0119 67.1567V61.3007H67.0079L69.1319 65.0087L71.2439 61.3007H72.2399V67.1567H71.1719V62.7047H71.4479L69.4199 66.2087H68.8319L66.8039 62.7047H67.0799V67.1567H66.0119Z" fill="black"/>
<defs>
<filter id="filter0_d_8334_734" x="0" y="0" width="101.04" height="85.8501" filterUnits="userSpaceOnUse" color-interpolation-filters="sRGB">
<feFlood flood-opacity="0" result="BackgroundImageFix"/>
<feColorMatrix in="SourceAlpha" type="matrix" values="0 0 0 0 0 0 0 0 0 0 0 0 0 0 0 0 0 0 127 0" result="hardAlpha"/>
<feOffset dy="4"/>
<feGaussianBlur stdDeviation="2"/>
<feComposite in2="hardAlpha" operator="out"/>
<feColorMatrix type="matrix" values="0 0 0 0 0 0 0 0 0 0 0 0 0 0 0 0 0 0 0.25 0"/>
<feBlend mode="normal" in2="BackgroundImageFix" result="effect1_dropShadow_8334_734"/>
<feBlend mode="normal" in="SourceGraphic" in2="effect1_dropShadow_8334_734" result="shape"/>
</filter>
</defs>
</svg>
