<svg width="96" height="86" viewBox="0 0 96 86" fill="none" xmlns="http://www.w3.org/2000/svg">
<g filter="url(#filter0_d_8310_982)">
<path d="M5.37285 42.5954C4.62083 41.2858 4.24484 40.6305 4.09767 39.9343C3.96744 39.3181 3.96744 38.6817 4.09767 38.0655C4.24484 37.3693 4.62083 36.714 5.37285 35.4043L23.5901 3.67245C24.3421 2.3626 24.7181 1.70767 25.2442 1.23135C25.7096 0.809902 26.2579 0.491516 26.8535 0.296907C27.5267 0.0769041 28.2787 0.0769043 29.7827 0.0769043H66.2171C67.7214 0.0769043 68.4731 0.0769041 69.1466 0.296907C69.7419 0.491516 70.2903 0.809902 70.756 1.23135C71.282 1.70767 71.6578 2.3626 72.41 3.67245L90.6271 35.4043C91.3792 36.714 91.7551 37.3693 91.9021 38.0655C92.0326 38.6817 92.0326 39.3181 91.9021 39.9343C91.7551 40.6305 91.3792 41.2858 90.6271 42.5954L72.41 74.3275C71.6578 75.6372 71.282 76.292 70.756 76.7684C70.2903 77.19 69.7419 77.5082 69.1466 77.7028C68.4731 77.9231 67.7214 77.9231 66.2171 77.9231H29.7827C28.2787 77.9231 27.5267 77.9231 26.8535 77.7028C26.2579 77.5082 25.7096 77.19 25.2442 76.7684C24.7181 76.292 24.3421 75.6372 23.5901 74.3275L5.37285 42.5954Z" fill="white"/>
</g>
<path d="M46.5432 36.2343L36.0476 25.7387C35.1147 24.8057 35.1147 23.348 36.0476 22.4151L46.5432 11.9194C47.4762 10.9865 48.9339 10.9865 49.8669 11.9194L60.3625 22.4151C61.2954 23.348 61.2954 24.8057 60.3625 25.7387L49.8669 36.2343C48.9339 37.1672 47.4179 37.1672 46.5432 36.2343Z" fill="#F2BB41"/>
<path d="M48.1754 25.2717C48.8195 25.2717 49.3416 24.7496 49.3416 24.1056C49.3416 23.4616 48.8195 22.9395 48.1754 22.9395C47.5314 22.9395 47.0093 23.4616 47.0093 24.1056C47.0093 24.7496 47.5314 25.2717 48.1754 25.2717Z" fill="#E08838"/>
<path d="M52.84 25.2717C53.484 25.2717 54.0061 24.7496 54.0061 24.1056C54.0061 23.4616 53.484 22.9395 52.84 22.9395C52.1959 22.9395 51.6738 23.4616 51.6738 24.1056C51.6738 24.7496 52.1959 25.2717 52.84 25.2717Z" fill="#E08838"/>
<path d="M43.5109 25.2717C44.1549 25.2717 44.677 24.7496 44.677 24.1056C44.677 23.4616 44.1549 22.9395 43.5109 22.9395C42.8668 22.9395 42.3447 23.4616 42.3447 24.1056C42.3447 24.7496 42.8668 25.2717 43.5109 25.2717Z" fill="#E08838"/>
<path d="M14.9352 52.0769V43.6169H22.0872V52.0769H20.8512V44.6609H16.1832V52.0769H14.9352ZM24.0041 54.2369V46.2209H25.1921V47.5409H25.0601C25.1881 47.1089 25.4401 46.7649 25.8161 46.5089C26.1921 46.2449 26.6361 46.1129 27.1481 46.1129C27.6681 46.1129 28.1201 46.2369 28.5041 46.4849C28.8961 46.7329 29.1961 47.0809 29.4041 47.5289C29.6201 47.9769 29.7281 48.5169 29.7281 49.1489C29.7281 49.7649 29.6201 50.3049 29.4041 50.7689C29.1961 51.2249 28.9001 51.5769 28.5161 51.8249C28.1321 52.0649 27.6761 52.1849 27.1481 52.1849C26.6441 52.1849 26.2041 52.0569 25.8281 51.8009C25.4521 51.5449 25.2001 51.2049 25.0721 50.7809H25.2161V54.2369H24.0041ZM26.8481 51.2489C27.3521 51.2489 27.7521 51.0689 28.0481 50.7089C28.3521 50.3489 28.5041 49.8289 28.5041 49.1489C28.5041 48.4609 28.3521 47.9409 28.0481 47.5889C27.7521 47.2369 27.3521 47.0609 26.8481 47.0609C26.3521 47.0609 25.9521 47.2369 25.6481 47.5889C25.3441 47.9409 25.1921 48.4609 25.1921 49.1489C25.1921 49.8289 25.3441 50.3489 25.6481 50.7089C25.9521 51.0689 26.3521 51.2489 26.8481 51.2489ZM31.1148 44.8649V43.6049H32.5308V44.8649H31.1148ZM31.2228 52.0769V46.2209H32.4348V52.0769H31.2228ZM36.8137 52.1849C36.2217 52.1849 35.7097 52.0609 35.2777 51.8129C34.8537 51.5649 34.5217 51.2129 34.2817 50.7569C34.0417 50.3009 33.9217 49.7649 33.9217 49.1489C33.9217 48.5249 34.0417 47.9889 34.2817 47.5409C34.5217 47.0849 34.8537 46.7329 35.2777 46.4849C35.7097 46.2369 36.2217 46.1129 36.8137 46.1129C37.3977 46.1129 37.9017 46.2369 38.3257 46.4849C38.7577 46.7329 39.0937 47.0849 39.3337 47.5409C39.5737 47.9969 39.6937 48.5329 39.6937 49.1489C39.6937 49.7649 39.5737 50.3009 39.3337 50.7569C39.0937 51.2129 38.7577 51.5649 38.3257 51.8129C37.9017 52.0609 37.3977 52.1849 36.8137 52.1849ZM36.8017 51.2489C37.3057 51.2489 37.7097 51.0689 38.0137 50.7089C38.3177 50.3489 38.4697 49.8289 38.4697 49.1489C38.4697 48.4609 38.3177 47.9409 38.0137 47.5889C37.7097 47.2369 37.3057 47.0609 36.8017 47.0609C36.3057 47.0609 35.9057 47.2369 35.6017 47.5889C35.2977 47.9409 35.1457 48.4609 35.1457 49.1489C35.1457 49.8289 35.2977 50.3489 35.6017 50.7089C35.9057 51.0689 36.3057 51.2489 36.8017 51.2489ZM41.1955 54.2369V46.2209H42.3835V47.5409H42.2515C42.3795 47.1089 42.6315 46.7649 43.0075 46.5089C43.3835 46.2449 43.8275 46.1129 44.3395 46.1129C44.8595 46.1129 45.3115 46.2369 45.6955 46.4849C46.0875 46.7329 46.3875 47.0809 46.5955 47.5289C46.8115 47.9769 46.9195 48.5169 46.9195 49.1489C46.9195 49.7649 46.8115 50.3049 46.5955 50.7689C46.3875 51.2249 46.0915 51.5769 45.7075 51.8249C45.3235 52.0649 44.8675 52.1849 44.3395 52.1849C43.8355 52.1849 43.3955 52.0569 43.0195 51.8009C42.6435 51.5449 42.3915 51.2049 42.2635 50.7809H42.4075V54.2369H41.1955ZM44.0395 51.2489C44.5435 51.2489 44.9435 51.0689 45.2395 50.7089C45.5435 50.3489 45.6955 49.8289 45.6955 49.1489C45.6955 48.4609 45.5435 47.9409 45.2395 47.5889C44.9435 47.2369 44.5435 47.0609 44.0395 47.0609C43.5435 47.0609 43.1435 47.2369 42.8395 47.5889C42.5355 47.9409 42.3835 48.4609 42.3835 49.1489C42.3835 49.8289 42.5355 50.3489 42.8395 50.7089C43.1435 51.0689 43.5435 51.2489 44.0395 51.2489ZM48.4022 52.0769V46.2209H49.5062V50.8769H49.1942L52.6742 46.2209H53.6942V52.0769H52.5902V47.4209H52.9142L49.4222 52.0769H48.4022ZM56.7395 52.0769V47.1929H54.6755V46.2209H60.0275V47.1929H57.9515V52.0769H56.7395ZM63.7247 52.1849C63.0847 52.1849 62.5327 52.0649 62.0687 51.8249C61.6127 51.5769 61.2567 51.2289 61.0007 50.7809C60.7527 50.3249 60.6287 49.7849 60.6287 49.1609C60.6287 48.5529 60.7527 48.0209 61.0007 47.5649C61.2487 47.1089 61.5887 46.7529 62.0207 46.4969C62.4527 46.2409 62.9447 46.1129 63.4967 46.1129C64.0407 46.1129 64.5047 46.2329 64.8887 46.4729C65.2807 46.7049 65.5807 47.0369 65.7887 47.4689C65.9967 47.9009 66.1007 48.4169 66.1007 49.0169V49.4249H61.5887V48.6809H65.2847L65.0807 48.8489C65.0807 48.2489 64.9487 47.7849 64.6847 47.4569C64.4207 47.1289 64.0407 46.9649 63.5447 46.9649C63.1687 46.9649 62.8487 47.0529 62.5847 47.2289C62.3287 47.4049 62.1327 47.6489 61.9967 47.9609C61.8607 48.2729 61.7927 48.6369 61.7927 49.0529V49.1249C61.7927 49.5889 61.8647 49.9809 62.0087 50.3009C62.1607 50.6129 62.3807 50.8489 62.6687 51.0089C62.9567 51.1689 63.3127 51.2489 63.7367 51.2489C64.0727 51.2489 64.4007 51.1969 64.7207 51.0929C65.0487 50.9809 65.3567 50.8089 65.6447 50.5769L66.0047 51.4169C65.7407 51.6569 65.4007 51.8449 64.9847 51.9809C64.5687 52.1169 64.1487 52.1849 63.7247 52.1849ZM68.763 52.0769V47.1929H66.699V46.2209H72.051V47.1929H69.975V52.0769H68.763ZM76.6677 52.0769V51.0329H78.5877V44.6729H79.2117L77.0877 45.9929L76.5837 45.0689L78.9477 43.6169H79.8237V51.0329H81.6237V52.0769H76.6677Z" fill="black"/>
<path d="M28.1581 67.0769V60.0269H31.1281C31.6348 60.0269 32.0681 60.1136 32.4281 60.2869C32.7881 60.4536 33.0614 60.6969 33.2481 61.0169C33.4348 61.3369 33.5281 61.7269 33.5281 62.1869C33.5281 62.6336 33.4314 63.0202 33.2381 63.3469C33.0514 63.6736 32.7781 63.9269 32.4181 64.1069C32.0648 64.2802 31.6348 64.3669 31.1281 64.3669H29.2181V67.0769H28.1581ZM29.2181 63.4869H30.9681C31.4614 63.4869 31.8348 63.3802 32.0881 63.1669C32.3481 62.9469 32.4781 62.6202 32.4781 62.1869C32.4781 61.7602 32.3514 61.4402 32.0981 61.2269C31.8448 61.0069 31.4681 60.8969 30.9681 60.8969H29.2181V63.4869ZM36.7718 67.1669C36.2718 67.1669 35.8351 67.0636 35.4618 66.8569C35.0951 66.6436 34.8118 66.3469 34.6118 65.9669C34.4118 65.5802 34.3118 65.1302 34.3118 64.6169C34.3118 64.0969 34.4118 63.6469 34.6118 63.2669C34.8118 62.8869 35.0951 62.5936 35.4618 62.3869C35.8351 62.1736 36.2718 62.0669 36.7718 62.0669C37.2784 62.0669 37.7151 62.1736 38.0818 62.3869C38.4484 62.5936 38.7318 62.8869 38.9318 63.2669C39.1318 63.6469 39.2318 64.0969 39.2318 64.6169C39.2318 65.1302 39.1318 65.5802 38.9318 65.9669C38.7318 66.3469 38.4484 66.6436 38.0818 66.8569C37.7151 67.0636 37.2784 67.1669 36.7718 67.1669ZM36.7718 66.3269C37.2051 66.3269 37.5484 66.1769 37.8018 65.8769C38.0551 65.5769 38.1818 65.1536 38.1818 64.6069C38.1818 64.0602 38.0551 63.6402 37.8018 63.3469C37.5484 63.0536 37.2051 62.9069 36.7718 62.9069C36.3384 62.9069 35.9951 63.0536 35.7418 63.3469C35.4884 63.6402 35.3618 64.0602 35.3618 64.6069C35.3618 65.1536 35.4884 65.5769 35.7418 65.8769C35.9951 66.1769 36.3384 66.3269 36.7718 66.3269ZM42.3674 67.1669C41.9141 67.1669 41.4907 67.1136 41.0974 67.0069C40.7107 66.9002 40.3941 66.7536 40.1474 66.5669L40.4574 65.8469C40.6907 66.0269 40.9741 66.1602 41.3074 66.2469C41.6407 66.3269 41.9841 66.3669 42.3374 66.3669C42.7974 66.3669 43.1307 66.3102 43.3374 66.1969C43.5441 66.0836 43.6474 65.9036 43.6474 65.6569C43.6474 65.4236 43.5674 65.2502 43.4074 65.1369C43.2474 65.0236 43.0141 64.9669 42.7074 64.9669H41.4074V64.1969H42.6074C42.8741 64.1969 43.0841 64.1436 43.2374 64.0369C43.3907 63.9236 43.4674 63.7602 43.4674 63.5469C43.4674 63.3269 43.3774 63.1602 43.1974 63.0469C43.0241 62.9269 42.7341 62.8669 42.3274 62.8669C41.9807 62.8669 41.6574 62.9069 41.3574 62.9869C41.0574 63.0669 40.7774 63.1902 40.5174 63.3569L40.2174 62.6369C40.4974 62.4502 40.8274 62.3102 41.2074 62.2169C41.5941 62.1169 42.0107 62.0669 42.4574 62.0669C43.1174 62.0669 43.6141 62.1902 43.9474 62.4369C44.2807 62.6769 44.4474 63.0136 44.4474 63.4469C44.4474 63.7336 44.3541 63.9802 44.1674 64.1869C43.9874 64.3869 43.7374 64.5169 43.4174 64.5769V64.5069C43.6774 64.5336 43.8974 64.6002 44.0774 64.7069C44.2574 64.8136 44.3941 64.9502 44.4874 65.1169C44.5807 65.2836 44.6274 65.4802 44.6274 65.7069C44.6274 66.1536 44.4341 66.5102 44.0474 66.7769C43.6674 67.0369 43.1074 67.1669 42.3674 67.1669ZM45.5566 68.3869V66.2269H46.1066C46.2599 66.0069 46.3799 65.7736 46.4666 65.5269C46.5533 65.2736 46.6166 64.9902 46.6566 64.6769C46.6966 64.3569 46.7166 63.9936 46.7166 63.5869V62.1569H50.4866V66.2269H51.2866V68.3869H50.3866V67.0769H46.4566V68.3869H45.5566ZM47.0966 66.2369H49.4866V62.9869H47.6366V63.7969C47.6366 64.2702 47.5933 64.7169 47.5066 65.1369C47.4199 65.5569 47.2833 65.9236 47.0966 66.2369ZM52.3338 61.0369V59.9369H53.5638V61.0369H52.3338ZM52.4238 67.0769V62.1569H53.4838V67.0769H52.4238ZM54.9184 67.2069L54.5684 66.3769C54.8017 66.2902 54.9951 66.1769 55.1484 66.0369C55.3017 65.8902 55.4217 65.7069 55.5084 65.4869C55.5951 65.2669 55.6584 65.0002 55.6984 64.6869C55.7384 64.3669 55.7584 63.9869 55.7584 63.5469V62.1569H59.5984V67.0769H58.5384V63.0069H56.7284V63.5769C56.7284 64.1169 56.6951 64.5902 56.6284 64.9969C56.5684 65.4036 56.4684 65.7536 56.3284 66.0469C56.1884 66.3402 56.0017 66.5836 55.7684 66.7769C55.5351 66.9636 55.2517 67.1069 54.9184 67.2069ZM66.2461 67.1669C65.9394 67.1669 65.6394 67.1369 65.3461 67.0769C65.0594 67.0102 64.7894 66.9136 64.5361 66.7869C64.2894 66.6602 64.0694 66.5102 63.8761 66.3369L64.2561 65.5169C64.5627 65.7702 64.8794 65.9569 65.2061 66.0769C65.5327 66.1969 65.8761 66.2569 66.2361 66.2569C66.6961 66.2569 67.0561 66.1369 67.3161 65.8969C67.5761 65.6569 67.7061 65.3302 67.7061 64.9169C67.7061 64.4902 67.5827 64.1502 67.3361 63.8969C67.0894 63.6436 66.7494 63.5169 66.3161 63.5169C66.0161 63.5169 65.7461 63.5769 65.5061 63.6969C65.2727 63.8102 65.0561 63.9969 64.8561 64.2569H64.0861V60.0269H68.3361V60.9269H65.0861V63.4069H64.9161C65.0827 63.1669 65.3061 62.9769 65.5861 62.8369C65.8727 62.6969 66.1894 62.6269 66.5361 62.6269C66.9827 62.6269 67.3694 62.7236 67.6961 62.9169C68.0227 63.1036 68.2761 63.3636 68.4561 63.6969C68.6361 64.0302 68.7261 64.4202 68.7261 64.8669C68.7261 65.3269 68.6261 65.7302 68.4261 66.0769C68.2261 66.4236 67.9394 66.6936 67.5661 66.8869C67.1927 67.0736 66.7527 67.1669 66.2461 67.1669Z" fill="#667085"/>
<defs>
<filter id="filter0_d_8310_982" x="0" y="0.0769043" width="96" height="85.8462" filterUnits="userSpaceOnUse" color-interpolation-filters="sRGB">
<feFlood flood-opacity="0" result="BackgroundImageFix"/>
<feColorMatrix in="SourceAlpha" type="matrix" values="0 0 0 0 0 0 0 0 0 0 0 0 0 0 0 0 0 0 127 0" result="hardAlpha"/>
<feOffset dy="4"/>
<feGaussianBlur stdDeviation="2"/>
<feComposite in2="hardAlpha" operator="out"/>
<feColorMatrix type="matrix" values="0 0 0 0 0 0 0 0 0 0 0 0 0 0 0 0 0 0 0.25 0"/>
<feBlend mode="normal" in2="BackgroundImageFix" result="effect1_dropShadow_8310_982"/>
<feBlend mode="normal" in="SourceGraphic" in2="effect1_dropShadow_8310_982" result="shape"/>
</filter>
</defs>
</svg>
