<svg width="96" height="86" viewBox="0 0 96 86" fill="none" xmlns="http://www.w3.org/2000/svg">
<g filter="url(#filter0_d_8310_938)">
<path d="M5.37285 42.5954C4.62083 41.2858 4.24484 40.6305 4.09767 39.9343C3.96744 39.3181 3.96744 38.6817 4.09767 38.0655C4.24484 37.3693 4.62083 36.714 5.37285 35.4043L23.5901 3.67245C24.3421 2.3626 24.7181 1.70767 25.2442 1.23135C25.7096 0.809902 26.2579 0.491516 26.8535 0.296907C27.5267 0.0769041 28.2787 0.0769043 29.7827 0.0769043H66.2171C67.7214 0.0769043 68.4731 0.0769041 69.1466 0.296907C69.7419 0.491516 70.2903 0.809902 70.756 1.23135C71.282 1.70767 71.6578 2.3626 72.41 3.67245L90.6271 35.4043C91.3792 36.714 91.7551 37.3693 91.9021 38.0655C92.0326 38.6817 92.0326 39.3181 91.9021 39.9343C91.7551 40.6305 91.3792 41.2858 90.6271 42.5954L72.41 74.3275C71.6578 75.6372 71.282 76.292 70.756 76.7684C70.2903 77.19 69.7419 77.5082 69.1466 77.7028C68.4731 77.9231 67.7214 77.9231 66.2171 77.9231H29.7827C28.2787 77.9231 27.5267 77.9231 26.8535 77.7028C26.2579 77.5082 25.7096 77.19 25.2442 76.7684C24.7181 76.292 24.3421 75.6372 23.5901 74.3275L5.37285 42.5954Z" fill="white"/>
</g>
<path d="M46.5432 37.2343L36.0476 26.7387C35.1147 25.8057 35.1147 24.348 36.0476 23.4151L46.5432 12.9194C47.4762 11.9865 48.9339 11.9865 49.8669 12.9194L60.3625 23.4151C61.2954 24.348 61.2954 25.8057 60.3625 26.7387L49.8669 37.2343C48.9339 38.1672 47.4179 38.1672 46.5432 37.2343Z" fill="#F2BB41"/>
<path d="M46.7765 30.179C46.7765 30.0041 46.8348 29.8292 46.8931 29.6542C46.9514 29.4793 47.068 29.3627 47.1847 29.2461C47.3013 29.1295 47.4762 29.0128 47.6511 28.9545C47.8261 28.8962 48.001 28.8379 48.2342 28.8379C48.4675 28.8379 48.6424 28.8962 48.8173 28.9545C48.9922 29.0128 49.1672 29.1295 49.2838 29.2461C49.4004 29.3627 49.517 29.4793 49.5753 29.6542C49.6336 29.8292 49.6919 30.0041 49.6919 30.179C49.6919 30.3539 49.6336 30.5289 49.5753 30.7038C49.517 30.8787 49.4004 30.9953 49.2838 31.112C49.1672 31.2286 48.9922 31.3452 48.8173 31.4035C48.6424 31.4618 48.4675 31.5201 48.2342 31.5201C48.001 31.5201 47.8261 31.4618 47.6511 31.4035C47.4762 31.3452 47.3596 31.2286 47.1847 31.112C47.068 30.9953 46.9514 30.8787 46.8931 30.7038C46.8348 30.5289 46.7765 30.4123 46.7765 30.179ZM49.2255 27.4968H47.1263L46.8348 18.6921H49.517L49.2255 27.4968Z" fill="#E08838"/>
<path d="M14.9352 53.0769V44.6169H22.0872V53.0769H20.8512V45.6609H16.1832V53.0769H14.9352ZM24.0041 55.2369V47.2209H25.1921V48.5409H25.0601C25.1881 48.1089 25.4401 47.7649 25.8161 47.5089C26.1921 47.2449 26.6361 47.1129 27.1481 47.1129C27.6681 47.1129 28.1201 47.2369 28.5041 47.4849C28.8961 47.7329 29.1961 48.0809 29.4041 48.5289C29.6201 48.9769 29.7281 49.5169 29.7281 50.1489C29.7281 50.7649 29.6201 51.3049 29.4041 51.7689C29.1961 52.2249 28.9001 52.5769 28.5161 52.8249C28.1321 53.0649 27.6761 53.1849 27.1481 53.1849C26.6441 53.1849 26.2041 53.0569 25.8281 52.8009C25.4521 52.5449 25.2001 52.2049 25.0721 51.7809H25.2161V55.2369H24.0041ZM26.8481 52.2489C27.3521 52.2489 27.7521 52.0689 28.0481 51.7089C28.3521 51.3489 28.5041 50.8289 28.5041 50.1489C28.5041 49.4609 28.3521 48.9409 28.0481 48.5889C27.7521 48.2369 27.3521 48.0609 26.8481 48.0609C26.3521 48.0609 25.9521 48.2369 25.6481 48.5889C25.3441 48.9409 25.1921 49.4609 25.1921 50.1489C25.1921 50.8289 25.3441 51.3489 25.6481 51.7089C25.9521 52.0689 26.3521 52.2489 26.8481 52.2489ZM31.1148 45.8649V44.6049H32.5308V45.8649H31.1148ZM31.2228 53.0769V47.2209H32.4348V53.0769H31.2228ZM36.8137 53.1849C36.2217 53.1849 35.7097 53.0609 35.2777 52.8129C34.8537 52.5649 34.5217 52.2129 34.2817 51.7569C34.0417 51.3009 33.9217 50.7649 33.9217 50.1489C33.9217 49.5249 34.0417 48.9889 34.2817 48.5409C34.5217 48.0849 34.8537 47.7329 35.2777 47.4849C35.7097 47.2369 36.2217 47.1129 36.8137 47.1129C37.3977 47.1129 37.9017 47.2369 38.3257 47.4849C38.7577 47.7329 39.0937 48.0849 39.3337 48.5409C39.5737 48.9969 39.6937 49.5329 39.6937 50.1489C39.6937 50.7649 39.5737 51.3009 39.3337 51.7569C39.0937 52.2129 38.7577 52.5649 38.3257 52.8129C37.9017 53.0609 37.3977 53.1849 36.8137 53.1849ZM36.8017 52.2489C37.3057 52.2489 37.7097 52.0689 38.0137 51.7089C38.3177 51.3489 38.4697 50.8289 38.4697 50.1489C38.4697 49.4609 38.3177 48.9409 38.0137 48.5889C37.7097 48.2369 37.3057 48.0609 36.8017 48.0609C36.3057 48.0609 35.9057 48.2369 35.6017 48.5889C35.2977 48.9409 35.1457 49.4609 35.1457 50.1489C35.1457 50.8289 35.2977 51.3489 35.6017 51.7089C35.9057 52.0689 36.3057 52.2489 36.8017 52.2489ZM41.1955 55.2369V47.2209H42.3835V48.5409H42.2515C42.3795 48.1089 42.6315 47.7649 43.0075 47.5089C43.3835 47.2449 43.8275 47.1129 44.3395 47.1129C44.8595 47.1129 45.3115 47.2369 45.6955 47.4849C46.0875 47.7329 46.3875 48.0809 46.5955 48.5289C46.8115 48.9769 46.9195 49.5169 46.9195 50.1489C46.9195 50.7649 46.8115 51.3049 46.5955 51.7689C46.3875 52.2249 46.0915 52.5769 45.7075 52.8249C45.3235 53.0649 44.8675 53.1849 44.3395 53.1849C43.8355 53.1849 43.3955 53.0569 43.0195 52.8009C42.6435 52.5449 42.3915 52.2049 42.2635 51.7809H42.4075V55.2369H41.1955ZM44.0395 52.2489C44.5435 52.2489 44.9435 52.0689 45.2395 51.7089C45.5435 51.3489 45.6955 50.8289 45.6955 50.1489C45.6955 49.4609 45.5435 48.9409 45.2395 48.5889C44.9435 48.2369 44.5435 48.0609 44.0395 48.0609C43.5435 48.0609 43.1435 48.2369 42.8395 48.5889C42.5355 48.9409 42.3835 49.4609 42.3835 50.1489C42.3835 50.8289 42.5355 51.3489 42.8395 51.7089C43.1435 52.0689 43.5435 52.2489 44.0395 52.2489ZM48.4022 53.0769V47.2209H49.5062V51.8769H49.1942L52.6742 47.2209H53.6942V53.0769H52.5902V48.4209H52.9142L49.4222 53.0769H48.4022ZM56.7395 53.0769V48.1929H54.6755V47.2209H60.0275V48.1929H57.9515V53.0769H56.7395ZM63.7247 53.1849C63.0847 53.1849 62.5327 53.0649 62.0687 52.8249C61.6127 52.5769 61.2567 52.2289 61.0007 51.7809C60.7527 51.3249 60.6287 50.7849 60.6287 50.1609C60.6287 49.5529 60.7527 49.0209 61.0007 48.5649C61.2487 48.1089 61.5887 47.7529 62.0207 47.4969C62.4527 47.2409 62.9447 47.1129 63.4967 47.1129C64.0407 47.1129 64.5047 47.2329 64.8887 47.4729C65.2807 47.7049 65.5807 48.0369 65.7887 48.4689C65.9967 48.9009 66.1007 49.4169 66.1007 50.0169V50.4249H61.5887V49.6809H65.2847L65.0807 49.8489C65.0807 49.2489 64.9487 48.7849 64.6847 48.4569C64.4207 48.1289 64.0407 47.9649 63.5447 47.9649C63.1687 47.9649 62.8487 48.0529 62.5847 48.2289C62.3287 48.4049 62.1327 48.6489 61.9967 48.9609C61.8607 49.2729 61.7927 49.6369 61.7927 50.0529V50.1249C61.7927 50.5889 61.8647 50.9809 62.0087 51.3009C62.1607 51.6129 62.3807 51.8489 62.6687 52.0089C62.9567 52.1689 63.3127 52.2489 63.7367 52.2489C64.0727 52.2489 64.4007 52.1969 64.7207 52.0929C65.0487 51.9809 65.3567 51.8089 65.6447 51.5769L66.0047 52.4169C65.7407 52.6569 65.4007 52.8449 64.9847 52.9809C64.5687 53.1169 64.1487 53.1849 63.7247 53.1849ZM68.763 53.0769V48.1929H66.699V47.2209H72.051V48.1929H69.975V53.0769H68.763ZM76.2837 53.0769V52.1529L79.1037 49.1289C79.3677 48.8409 79.5797 48.5769 79.7397 48.3369C79.8997 48.0889 80.0157 47.8529 80.0877 47.6289C80.1677 47.3969 80.2077 47.1649 80.2077 46.9329C80.2077 46.4849 80.0717 46.1449 79.7997 45.9129C79.5277 45.6809 79.1277 45.5649 78.5997 45.5649C78.1917 45.5649 77.8037 45.6409 77.4357 45.7929C77.0757 45.9449 76.7317 46.1769 76.4037 46.4889L75.9597 45.5409C76.2797 45.2289 76.6877 44.9809 77.1837 44.7969C77.6797 44.6049 78.1957 44.5089 78.7317 44.5089C79.3157 44.5089 79.8077 44.6009 80.2077 44.7849C80.6157 44.9609 80.9237 45.2209 81.1317 45.5649C81.3397 45.9089 81.4437 46.3289 81.4437 46.8249C81.4437 47.0809 81.4117 47.3329 81.3477 47.5809C81.2917 47.8209 81.1997 48.0609 81.0717 48.3009C80.9517 48.5409 80.7957 48.7889 80.6037 49.0449C80.4197 49.3009 80.1957 49.5649 79.9317 49.8369L77.5197 52.3809V52.0329H81.7797V53.0769H76.2837Z" fill="black"/>
<path d="M28.1581 68.0769V61.0269H31.1281C31.6348 61.0269 32.0681 61.1136 32.4281 61.2869C32.7881 61.4536 33.0614 61.6969 33.2481 62.0169C33.4348 62.3369 33.5281 62.7269 33.5281 63.1869C33.5281 63.6336 33.4314 64.0202 33.2381 64.3469C33.0514 64.6736 32.7781 64.9269 32.4181 65.1069C32.0648 65.2802 31.6348 65.3669 31.1281 65.3669H29.2181V68.0769H28.1581ZM29.2181 64.4869H30.9681C31.4614 64.4869 31.8348 64.3802 32.0881 64.1669C32.3481 63.9469 32.4781 63.6202 32.4781 63.1869C32.4781 62.7602 32.3514 62.4402 32.0981 62.2269C31.8448 62.0069 31.4681 61.8969 30.9681 61.8969H29.2181V64.4869ZM36.7718 68.1669C36.2718 68.1669 35.8351 68.0636 35.4618 67.8569C35.0951 67.6436 34.8118 67.3469 34.6118 66.9669C34.4118 66.5802 34.3118 66.1302 34.3118 65.6169C34.3118 65.0969 34.4118 64.6469 34.6118 64.2669C34.8118 63.8869 35.0951 63.5936 35.4618 63.3869C35.8351 63.1736 36.2718 63.0669 36.7718 63.0669C37.2784 63.0669 37.7151 63.1736 38.0818 63.3869C38.4484 63.5936 38.7318 63.8869 38.9318 64.2669C39.1318 64.6469 39.2318 65.0969 39.2318 65.6169C39.2318 66.1302 39.1318 66.5802 38.9318 66.9669C38.7318 67.3469 38.4484 67.6436 38.0818 67.8569C37.7151 68.0636 37.2784 68.1669 36.7718 68.1669ZM36.7718 67.3269C37.2051 67.3269 37.5484 67.1769 37.8018 66.8769C38.0551 66.5769 38.1818 66.1536 38.1818 65.6069C38.1818 65.0602 38.0551 64.6402 37.8018 64.3469C37.5484 64.0536 37.2051 63.9069 36.7718 63.9069C36.3384 63.9069 35.9951 64.0536 35.7418 64.3469C35.4884 64.6402 35.3618 65.0602 35.3618 65.6069C35.3618 66.1536 35.4884 66.5769 35.7418 66.8769C35.9951 67.1769 36.3384 67.3269 36.7718 67.3269ZM42.3674 68.1669C41.9141 68.1669 41.4907 68.1136 41.0974 68.0069C40.7107 67.9002 40.3941 67.7536 40.1474 67.5669L40.4574 66.8469C40.6907 67.0269 40.9741 67.1602 41.3074 67.2469C41.6407 67.3269 41.9841 67.3669 42.3374 67.3669C42.7974 67.3669 43.1307 67.3102 43.3374 67.1969C43.5441 67.0836 43.6474 66.9036 43.6474 66.6569C43.6474 66.4236 43.5674 66.2502 43.4074 66.1369C43.2474 66.0236 43.0141 65.9669 42.7074 65.9669H41.4074V65.1969H42.6074C42.8741 65.1969 43.0841 65.1436 43.2374 65.0369C43.3907 64.9236 43.4674 64.7602 43.4674 64.5469C43.4674 64.3269 43.3774 64.1602 43.1974 64.0469C43.0241 63.9269 42.7341 63.8669 42.3274 63.8669C41.9807 63.8669 41.6574 63.9069 41.3574 63.9869C41.0574 64.0669 40.7774 64.1902 40.5174 64.3569L40.2174 63.6369C40.4974 63.4502 40.8274 63.3102 41.2074 63.2169C41.5941 63.1169 42.0107 63.0669 42.4574 63.0669C43.1174 63.0669 43.6141 63.1902 43.9474 63.4369C44.2807 63.6769 44.4474 64.0136 44.4474 64.4469C44.4474 64.7336 44.3541 64.9802 44.1674 65.1869C43.9874 65.3869 43.7374 65.5169 43.4174 65.5769V65.5069C43.6774 65.5336 43.8974 65.6002 44.0774 65.7069C44.2574 65.8136 44.3941 65.9502 44.4874 66.1169C44.5807 66.2836 44.6274 66.4802 44.6274 66.7069C44.6274 67.1536 44.4341 67.5102 44.0474 67.7769C43.6674 68.0369 43.1074 68.1669 42.3674 68.1669ZM45.5566 69.3869V67.2269H46.1066C46.2599 67.0069 46.3799 66.7736 46.4666 66.5269C46.5533 66.2736 46.6166 65.9902 46.6566 65.6769C46.6966 65.3569 46.7166 64.9936 46.7166 64.5869V63.1569H50.4866V67.2269H51.2866V69.3869H50.3866V68.0769H46.4566V69.3869H45.5566ZM47.0966 67.2369H49.4866V63.9869H47.6366V64.7969C47.6366 65.2702 47.5933 65.7169 47.5066 66.1369C47.4199 66.5569 47.2833 66.9236 47.0966 67.2369ZM52.3338 62.0369V60.9369H53.5638V62.0369H52.3338ZM52.4238 68.0769V63.1569H53.4838V68.0769H52.4238ZM54.9184 68.2069L54.5684 67.3769C54.8017 67.2902 54.9951 67.1769 55.1484 67.0369C55.3017 66.8902 55.4217 66.7069 55.5084 66.4869C55.5951 66.2669 55.6584 66.0002 55.6984 65.6869C55.7384 65.3669 55.7584 64.9869 55.7584 64.5469V63.1569H59.5984V68.0769H58.5384V64.0069H56.7284V64.5769C56.7284 65.1169 56.6951 65.5902 56.6284 65.9969C56.5684 66.4036 56.4684 66.7536 56.3284 67.0469C56.1884 67.3402 56.0017 67.5836 55.7684 67.7769C55.5351 67.9636 55.2517 68.1069 54.9184 68.2069ZM66.4161 68.1669C65.8427 68.1669 65.3561 68.0302 64.9561 67.7569C64.5561 67.4836 64.2494 67.0902 64.0361 66.5769C63.8294 66.0569 63.7261 65.4302 63.7261 64.6969C63.7261 63.8902 63.8427 63.2102 64.0761 62.6569C64.3094 62.0969 64.6461 61.6702 65.0861 61.3769C65.5261 61.0836 66.0527 60.9369 66.6661 60.9369C66.9194 60.9369 67.1694 60.9702 67.4161 61.0369C67.6627 61.0969 67.8927 61.1869 68.1061 61.3069C68.3261 61.4269 68.5227 61.5769 68.6961 61.7569L68.3261 62.5569C68.0794 62.3102 67.8127 62.1302 67.5261 62.0169C67.2461 61.9036 66.9561 61.8469 66.6561 61.8469C66.3427 61.8469 66.0661 61.9036 65.8261 62.0169C65.5861 62.1302 65.3827 62.3002 65.2161 62.5269C65.0561 62.7469 64.9327 63.0236 64.8461 63.3569C64.7594 63.6902 64.7161 64.0769 64.7161 64.5169V65.2069H64.6661C64.7261 64.8736 64.8427 64.5869 65.0161 64.3469C65.1894 64.1069 65.4094 63.9236 65.6761 63.7969C65.9494 63.6702 66.2494 63.6069 66.5761 63.6069C66.9894 63.6069 67.3561 63.7036 67.6761 63.8969C67.9961 64.0836 68.2461 64.3469 68.4261 64.6869C68.6127 65.0202 68.7061 65.4069 68.7061 65.8469C68.7061 66.2936 68.6061 66.6936 68.4061 67.0469C68.2127 67.4002 67.9427 67.6769 67.5961 67.8769C67.2561 68.0702 66.8627 68.1669 66.4161 68.1669ZM66.3561 67.2969C66.6227 67.2969 66.8594 67.2402 67.0661 67.1269C67.2727 67.0069 67.4327 66.8402 67.5461 66.6269C67.6594 66.4136 67.7161 66.1636 67.7161 65.8769C67.7161 65.5969 67.6594 65.3536 67.5461 65.1469C67.4327 64.9336 67.2727 64.7702 67.0661 64.6569C66.8594 64.5369 66.6227 64.4769 66.3561 64.4769C66.0827 64.4769 65.8427 64.5369 65.6361 64.6569C65.4294 64.7702 65.2661 64.9336 65.1461 65.1469C65.0327 65.3602 64.9761 65.6036 64.9761 65.8769C64.9761 66.1636 65.0327 66.4136 65.1461 66.6269C65.2661 66.8402 65.4294 67.0069 65.6361 67.1269C65.8427 67.2402 66.0827 67.2969 66.3561 67.2969Z" fill="#667085"/>
<defs>
<filter id="filter0_d_8310_938" x="0" y="0.0769043" width="96" height="85.8462" filterUnits="userSpaceOnUse" color-interpolation-filters="sRGB">
<feFlood flood-opacity="0" result="BackgroundImageFix"/>
<feColorMatrix in="SourceAlpha" type="matrix" values="0 0 0 0 0 0 0 0 0 0 0 0 0 0 0 0 0 0 127 0" result="hardAlpha"/>
<feOffset dy="4"/>
<feGaussianBlur stdDeviation="2"/>
<feComposite in2="hardAlpha" operator="out"/>
<feColorMatrix type="matrix" values="0 0 0 0 0 0 0 0 0 0 0 0 0 0 0 0 0 0 0.25 0"/>
<feBlend mode="normal" in2="BackgroundImageFix" result="effect1_dropShadow_8310_938"/>
<feBlend mode="normal" in="SourceGraphic" in2="effect1_dropShadow_8310_938" result="shape"/>
</filter>
</defs>
</svg>
