<svg width="96" height="87" viewBox="0 0 96 87" fill="none" xmlns="http://www.w3.org/2000/svg">
<g filter="url(#filter0_d_8310_691)">
<path d="M5.37285 42.7685C4.62083 41.4589 4.24484 40.8036 4.09767 40.1074C3.96744 39.4912 3.96744 38.8548 4.09767 38.2386C4.24484 37.5424 4.62083 36.8871 5.37285 35.5774L23.5901 3.84555C24.3421 2.53569 24.7181 1.88076 25.2442 1.40444C25.7096 0.982998 26.2579 0.664612 26.8535 0.470002C27.5267 0.25 28.2787 0.25 29.7827 0.25H66.2171C67.7214 0.25 68.4731 0.25 69.1466 0.470002C69.7419 0.664612 70.2903 0.982998 70.756 1.40444C71.282 1.88076 71.6578 2.53569 72.41 3.84555L90.6271 35.5774C91.3792 36.8871 91.7551 37.5424 91.9021 38.2386C92.0326 38.8548 92.0326 39.4912 91.9021 40.1074C91.7551 40.8036 91.3792 41.4589 90.6271 42.7685L72.41 74.5006C71.6578 75.8103 71.282 76.4651 70.756 76.9415C70.2903 77.3631 69.7419 77.6813 69.1466 77.8759C68.4731 78.0962 67.7214 78.0962 66.2171 78.0962H29.7827C28.2787 78.0962 27.5267 78.0962 26.8535 77.8759C26.2579 77.6813 25.7096 77.3631 25.2442 76.9415C24.7181 76.4651 24.3421 75.8103 23.5901 74.5006L5.37285 42.7685Z" fill="white"/>
</g>
<path d="M52.2051 18.75H41.2051C40.1051 18.75 39.2051 19.65 39.2051 20.75V40.75C39.2051 41.85 40.1051 42.75 41.2051 42.75H55.2051C56.3051 42.75 57.2051 41.85 57.2051 40.75V23.75L52.2051 18.75Z" fill="#F2BB41" stroke="#F2BB41" stroke-width="2" stroke-miterlimit="10" stroke-linecap="round" stroke-linejoin="round"/>
<path d="M52.2051 18.75V23.75H57.2051L52.2051 18.75Z" fill="#E08838" stroke="#E08838" stroke-width="2" stroke-miterlimit="10" stroke-linecap="round" stroke-linejoin="round"/>
<path d="M18.1578 58.75V50.29H21.6618C22.2778 50.29 22.7978 50.394 23.2218 50.602C23.6458 50.802 23.9658 51.094 24.1818 51.478C24.4058 51.862 24.5178 52.326 24.5178 52.87C24.5178 53.414 24.4058 53.882 24.1818 54.274C23.9658 54.658 23.6458 54.954 23.2218 55.162C22.7978 55.362 22.2778 55.462 21.6618 55.462H19.4058V58.75H18.1578ZM19.4058 54.466H21.4818C22.0818 54.466 22.5338 54.334 22.8378 54.07C23.1498 53.798 23.3058 53.398 23.3058 52.87C23.3058 52.35 23.1498 51.958 22.8378 51.694C22.5338 51.422 22.0818 51.286 21.4818 51.286H19.4058V54.466ZM28.3458 58.858C27.7058 58.858 27.1538 58.738 26.6898 58.498C26.2338 58.25 25.8778 57.902 25.6218 57.454C25.3738 56.998 25.2498 56.458 25.2498 55.834C25.2498 55.226 25.3738 54.694 25.6218 54.238C25.8698 53.782 26.2098 53.426 26.6418 53.17C27.0738 52.914 27.5658 52.786 28.1178 52.786C28.6618 52.786 29.1258 52.906 29.5098 53.146C29.9018 53.378 30.2018 53.71 30.4098 54.142C30.6178 54.574 30.7218 55.09 30.7218 55.69V56.098H26.2098V55.354H29.9058L29.7018 55.522C29.7018 54.922 29.5698 54.458 29.3058 54.13C29.0418 53.802 28.6618 53.638 28.1658 53.638C27.7898 53.638 27.4698 53.726 27.2058 53.902C26.9498 54.078 26.7538 54.322 26.6178 54.634C26.4818 54.946 26.4138 55.31 26.4138 55.726V55.798C26.4138 56.262 26.4858 56.654 26.6298 56.974C26.7818 57.286 27.0018 57.522 27.2898 57.682C27.5778 57.842 27.9338 57.922 28.3578 57.922C28.6938 57.922 29.0218 57.87 29.3418 57.766C29.6698 57.654 29.9778 57.482 30.2658 57.25L30.6258 58.09C30.3618 58.33 30.0218 58.518 29.6058 58.654C29.1898 58.79 28.7698 58.858 28.3458 58.858ZM34.812 58.858C34.204 58.858 33.676 58.734 33.228 58.486C32.78 58.23 32.432 57.874 32.184 57.418C31.944 56.962 31.824 56.418 31.824 55.786C31.824 55.17 31.944 54.638 32.184 54.19C32.432 53.742 32.784 53.398 33.24 53.158C33.696 52.91 34.24 52.786 34.872 52.786C35.28 52.786 35.68 52.85 36.072 52.978C36.464 53.106 36.764 53.286 36.972 53.518L36.6 54.322C36.36 54.106 36.084 53.946 35.772 53.842C35.468 53.738 35.172 53.686 34.884 53.686C34.468 53.686 34.124 53.766 33.852 53.926C33.58 54.086 33.372 54.306 33.228 54.586C33.084 54.866 32.996 55.182 32.964 55.534L32.844 55.342H35.856V56.23H32.844L32.964 55.978C32.988 56.394 33.076 56.754 33.228 57.058C33.388 57.354 33.608 57.582 33.888 57.742C34.168 57.894 34.5 57.97 34.884 57.97C35.172 57.97 35.472 57.914 35.784 57.802C36.096 57.69 36.368 57.53 36.6 57.322L36.972 58.126C36.828 58.278 36.636 58.41 36.396 58.522C36.164 58.634 35.908 58.718 35.628 58.774C35.356 58.83 35.084 58.858 34.812 58.858ZM40.7638 58.858C40.1638 58.858 39.6438 58.734 39.2038 58.486C38.7718 58.23 38.4358 57.874 38.1958 57.418C37.9558 56.954 37.8358 56.41 37.8358 55.786C37.8358 55.17 37.9558 54.638 38.1958 54.19C38.4358 53.742 38.7718 53.398 39.2038 53.158C39.6438 52.91 40.1638 52.786 40.7638 52.786C41.1318 52.786 41.4958 52.85 41.8558 52.978C42.2158 53.098 42.5118 53.274 42.7438 53.506L42.3598 54.358C42.1438 54.15 41.8998 53.998 41.6278 53.902C41.3558 53.798 41.0998 53.746 40.8598 53.746C40.2918 53.746 39.8518 53.926 39.5398 54.286C39.2358 54.638 39.0838 55.142 39.0838 55.798C39.0838 56.454 39.2358 56.97 39.5398 57.346C39.8518 57.714 40.2918 57.898 40.8598 57.898C41.0998 57.898 41.3558 57.85 41.6278 57.754C41.8998 57.65 42.1438 57.494 42.3598 57.286L42.7438 58.15C42.5118 58.366 42.2118 58.538 41.8438 58.666C41.4838 58.794 41.1238 58.858 40.7638 58.858ZM45.138 58.75V53.866H43.074V52.894H48.426V53.866H46.35V58.75H45.138ZM49.4103 60.91V52.894H50.5983V54.214H50.4663C50.5943 53.782 50.8463 53.438 51.2223 53.182C51.5983 52.918 52.0423 52.786 52.5543 52.786C53.0743 52.786 53.5263 52.91 53.9103 53.158C54.3023 53.406 54.6023 53.754 54.8103 54.202C55.0263 54.65 55.1343 55.19 55.1343 55.822C55.1343 56.438 55.0263 56.978 54.8103 57.442C54.6023 57.898 54.3063 58.25 53.9223 58.498C53.5383 58.738 53.0823 58.858 52.5543 58.858C52.0503 58.858 51.6103 58.73 51.2343 58.474C50.8583 58.218 50.6063 57.878 50.4783 57.454H50.6223V60.91H49.4103ZM52.2543 57.922C52.7583 57.922 53.1583 57.742 53.4543 57.382C53.7583 57.022 53.9103 56.502 53.9103 55.822C53.9103 55.134 53.7583 54.614 53.4543 54.262C53.1583 53.91 52.7583 53.734 52.2543 53.734C51.7583 53.734 51.3583 53.91 51.0543 54.262C50.7503 54.614 50.5983 55.134 50.5983 55.822C50.5983 56.502 50.7503 57.022 51.0543 57.382C51.3583 57.742 51.7583 57.922 52.2543 57.922ZM58.5011 58.858C58.0931 58.858 57.7251 58.778 57.3971 58.618C57.0771 58.458 56.8251 58.242 56.6411 57.97C56.4571 57.698 56.3651 57.39 56.3651 57.046C56.3651 56.614 56.4731 56.274 56.6891 56.026C56.9131 55.77 57.2771 55.59 57.7811 55.486C58.2931 55.374 58.9811 55.318 59.8451 55.318H60.4091V56.062H59.8571C59.4251 56.062 59.0611 56.078 58.7651 56.11C58.4691 56.142 58.2331 56.194 58.0571 56.266C57.8811 56.33 57.7531 56.422 57.6731 56.542C57.6011 56.662 57.5651 56.806 57.5651 56.974C57.5651 57.278 57.6691 57.526 57.8771 57.718C58.0851 57.902 58.3731 57.994 58.7411 57.994C59.0371 57.994 59.2971 57.926 59.5211 57.79C59.7451 57.646 59.9211 57.454 60.0491 57.214C60.1851 56.974 60.2531 56.698 60.2531 56.386V55.006C60.2531 54.55 60.1571 54.222 59.9651 54.022C59.7731 53.822 59.4571 53.722 59.0171 53.722C58.6811 53.722 58.3451 53.774 58.0091 53.878C57.6731 53.974 57.3291 54.13 56.9771 54.346L56.6051 53.494C56.8131 53.35 57.0531 53.226 57.3251 53.122C57.5971 53.018 57.8811 52.938 58.1771 52.882C58.4811 52.818 58.7731 52.786 59.0531 52.786C59.5891 52.786 60.0291 52.87 60.3731 53.038C60.7251 53.206 60.9851 53.462 61.1531 53.806C61.3211 54.15 61.4051 54.594 61.4051 55.138V58.75H60.2651V57.442H60.3731C60.3091 57.738 60.1891 57.994 60.0131 58.21C59.8451 58.418 59.6331 58.578 59.3771 58.69C59.1211 58.802 58.8291 58.858 58.5011 58.858ZM68.267 60.31V58.75H63.203V52.894H64.415V57.79H67.151V52.894H68.363V57.79H69.299V60.31H68.267ZM70.4195 51.538V50.278H71.8355V51.538H70.4195ZM70.5275 58.75V52.894H71.7395V58.75H70.5275ZM73.0704 58.75L73.9584 57.214C74.1104 56.942 74.3024 56.726 74.5344 56.566C74.7664 56.398 75.0024 56.314 75.2424 56.314H75.4344V56.434C74.9944 56.434 74.6144 56.366 74.2944 56.23C73.9824 56.094 73.7424 55.894 73.5744 55.63C73.4144 55.366 73.3344 55.05 73.3344 54.682C73.3344 54.138 73.5184 53.706 73.8864 53.386C74.2544 53.058 74.8024 52.894 75.5304 52.894H78.3264V58.75H77.1984V56.614H76.4424C76.1624 56.614 75.9224 56.686 75.7224 56.83C75.5224 56.974 75.3584 57.158 75.2304 57.382L74.4504 58.75H73.0704ZM75.7824 55.786H77.1984V53.722H75.7824C75.3424 53.722 75.0184 53.814 74.8104 53.998C74.6024 54.174 74.4984 54.422 74.4984 54.742C74.4984 55.07 74.6024 55.326 74.8104 55.51C75.0184 55.694 75.3424 55.786 75.7824 55.786Z" fill="black"/>
<defs>
<filter id="filter0_d_8310_691" x="0" y="0.25" width="96" height="85.8462" filterUnits="userSpaceOnUse" color-interpolation-filters="sRGB">
<feFlood flood-opacity="0" result="BackgroundImageFix"/>
<feColorMatrix in="SourceAlpha" type="matrix" values="0 0 0 0 0 0 0 0 0 0 0 0 0 0 0 0 0 0 127 0" result="hardAlpha"/>
<feOffset dy="4"/>
<feGaussianBlur stdDeviation="2"/>
<feComposite in2="hardAlpha" operator="out"/>
<feColorMatrix type="matrix" values="0 0 0 0 0 0 0 0 0 0 0 0 0 0 0 0 0 0 0.25 0"/>
<feBlend mode="normal" in2="BackgroundImageFix" result="effect1_dropShadow_8310_691"/>
<feBlend mode="normal" in="SourceGraphic" in2="effect1_dropShadow_8310_691" result="shape"/>
</filter>
</defs>
</svg>
