<svg width="102" height="86" viewBox="0 0 102 86" fill="none" xmlns="http://www.w3.org/2000/svg">
<g filter="url(#filter0_d_8334_734)">
<path d="M5.45148 42.5206C4.65639 41.2109 4.25887 40.5556 4.10327 39.8593C3.96558 39.2431 3.96558 38.6067 4.10327 37.9905C4.25887 37.2942 4.65639 36.6389 5.45148 35.3292L24.7122 3.59573C25.5072 2.2858 25.9047 1.63084 26.4609 1.1545C26.953 0.733034 27.5327 0.414632 28.1625 0.220013C28.8742 -1.93715e-07 29.6693 0 31.2595 0H69.7806C71.3711 0 72.1659 -1.93715e-07 72.8779 0.220013C73.5073 0.414632 74.0871 0.733034 74.5794 1.1545C75.1356 1.63084 75.533 2.2858 76.3282 3.59573L95.5887 35.3292C96.3839 36.6389 96.7813 37.2942 96.9368 37.9905C97.0747 38.6067 97.0747 39.2431 96.9368 39.8593C96.7813 40.5556 96.3839 41.2109 95.5887 42.5206L76.3282 74.2543C75.533 75.564 75.1356 76.2189 74.5794 76.6953C74.0871 77.1169 73.5073 77.4351 72.8779 77.6298C72.1659 77.85 71.3711 77.85 69.7806 77.85H31.2595C29.6693 77.85 28.8742 77.85 28.1625 77.6298C27.5327 77.4351 26.953 77.1169 26.4609 76.6953C25.9047 76.2189 25.5072 75.564 24.7122 74.2543L5.45148 42.5206Z" fill="white"/>
</g>
<path d="M60.9148 18.8521H41.9502C41.7451 18.8527 41.5486 18.9345 41.4035 19.0796C41.2585 19.2246 41.1767 19.4211 41.176 19.6262V42.6924C41.1769 42.897 41.259 43.0928 41.4041 43.237C41.5492 43.3812 41.7456 43.4619 41.9502 43.4614H60.9148C61.0158 43.4616 61.1159 43.4418 61.2093 43.4032C61.3026 43.3646 61.3875 43.3079 61.4589 43.2365C61.5303 43.165 61.587 43.0802 61.6256 42.9868C61.6642 42.8935 61.684 42.7934 61.6838 42.6924V19.6262C61.6843 19.4216 61.6036 19.2252 61.4594 19.0801C61.3153 18.9349 61.1194 18.8529 60.9148 18.8521ZM50.4045 39.3803H45.2776C45.0736 39.3803 44.878 39.2993 44.7338 39.1551C44.5896 39.0109 44.5085 38.8153 44.5085 38.6113C44.5085 38.4073 44.5896 38.2117 44.7338 38.0675C44.878 37.9233 45.0736 37.8422 45.2776 37.8422H50.4045C51.4142 37.858 51.4168 39.3642 50.4045 39.3803ZM50.4045 33.7407H45.2776C45.0736 33.7407 44.878 33.6597 44.7338 33.5154C44.5896 33.3712 44.5085 33.1756 44.5085 32.9716C44.5085 32.7677 44.5896 32.5721 44.7338 32.4278C44.878 32.2836 45.0736 32.2026 45.2776 32.2026H50.4045C51.4142 32.2183 51.4168 33.7245 50.4045 33.7407ZM52.4758 27.5679C52.4608 28.5777 50.9534 28.5796 50.9377 27.5678V23.5842C50.9387 22.9417 51.1947 22.3259 51.6494 21.8719C52.104 21.4179 52.7203 21.1629 53.3628 21.1629C54.0053 21.1629 54.6215 21.4179 55.0762 21.8719C55.5309 22.3259 55.7868 22.9417 55.7878 23.5842V27.5679C55.7713 28.5784 54.2663 28.5795 54.2497 27.5678V26.486H52.4758V27.5679ZM58.1257 37.8935L55.6033 40.416C55.5328 40.4886 55.4483 40.546 55.3548 40.5848C55.2614 40.6236 55.161 40.6429 55.0598 40.6416C54.9588 40.6419 54.8587 40.6222 54.7654 40.5834C54.6721 40.5447 54.5874 40.4878 54.5164 40.416L53.4499 39.3496C52.7516 38.6261 53.8134 37.5545 54.5369 38.2626L55.0598 38.7855L57.0388 36.8066C57.77 36.108 58.8309 37.1719 58.1257 37.8935ZM58.1257 32.2539L55.6033 34.7763C55.5328 34.8489 55.4483 34.9063 55.3548 34.9451C55.2614 34.9839 55.161 35.0033 55.0598 35.0019C54.9588 35.0023 54.8587 34.9825 54.7654 34.9438C54.6721 34.9051 54.5874 34.8481 54.5164 34.7763L53.4499 33.7099C52.7516 32.9864 53.8134 31.9148 54.5369 32.623L55.0598 33.1459L57.0388 31.167C57.77 30.4683 58.8309 31.5322 58.1257 32.2539Z" fill="#F2BB41"/>
<path d="M54.2497 23.5841C54.2491 23.3493 54.1554 23.1243 53.9892 22.9584C53.8229 22.7926 53.5976 22.6995 53.3628 22.6995C53.1279 22.6995 52.9027 22.7926 52.7364 22.9584C52.5701 23.1243 52.4764 23.3493 52.4758 23.5841V24.9479H54.2497V23.5841Z" fill="#F2BB41"/>
<path d="M23.0541 59.1567V51.7407H20.0541V50.6967H27.2901V51.7407H24.2901V59.1567H23.0541ZM27.2683 59.1567V53.3007H28.4443V54.7047H28.3243C28.4523 54.2247 28.6803 53.8607 29.0083 53.6127C29.3443 53.3647 29.7883 53.2207 30.3403 53.1807L30.7363 53.1567L30.8203 54.1887L30.0883 54.2607C29.5683 54.3087 29.1723 54.4727 28.9003 54.7527C28.6283 55.0327 28.4923 55.4167 28.4923 55.9047V59.1567H27.2683ZM33.8328 59.2647C33.3608 59.2647 32.9648 59.1767 32.6448 59.0007C32.3328 58.8247 32.0968 58.5647 31.9368 58.2207C31.7848 57.8687 31.7088 57.4287 31.7088 56.9007V53.3007H32.9208V56.9127C32.9208 57.2247 32.9608 57.4847 33.0408 57.6927C33.1288 57.9007 33.2608 58.0527 33.4368 58.1487C33.6208 58.2447 33.8488 58.2927 34.1208 58.2927C34.4248 58.2927 34.6928 58.2247 34.9248 58.0887C35.1568 57.9527 35.3368 57.7567 35.4648 57.5007C35.5928 57.2447 35.6568 56.9487 35.6568 56.6127V53.3007H36.8688V59.1567H35.6928V57.8727H35.8488C35.6888 58.3207 35.4328 58.6647 35.0808 58.9047C34.7288 59.1447 34.3128 59.2647 33.8328 59.2647ZM36.6048 53.9847L35.9448 53.5527V53.3007C36.2488 53.2927 36.4928 53.2487 36.6768 53.1687C36.8608 53.0807 36.9928 52.9407 37.0728 52.7487C37.1528 52.5567 37.1928 52.3007 37.1928 51.9807V51.7647H38.2488V52.1487C38.2488 52.5007 38.1808 52.8087 38.0448 53.0727C37.9168 53.3367 37.7288 53.5487 37.4808 53.7087C37.2408 53.8687 36.9488 53.9607 36.6048 53.9847ZM41.1209 59.2647C40.5289 59.2647 40.0169 59.1407 39.5849 58.8927C39.1609 58.6447 38.8289 58.2927 38.5889 57.8367C38.3489 57.3807 38.2289 56.8447 38.2289 56.2287C38.2289 55.6047 38.3489 55.0687 38.5889 54.6207C38.8289 54.1647 39.1609 53.8127 39.5849 53.5647C40.0169 53.3167 40.5289 53.1927 41.1209 53.1927C41.7049 53.1927 42.2089 53.3167 42.6329 53.5647C43.0649 53.8127 43.4009 54.1647 43.6409 54.6207C43.8809 55.0767 44.0009 55.6127 44.0009 56.2287C44.0009 56.8447 43.8809 57.3807 43.6409 57.8367C43.4009 58.2927 43.0649 58.6447 42.6329 58.8927C42.2089 59.1407 41.7049 59.2647 41.1209 59.2647ZM41.1089 58.3287C41.6129 58.3287 42.0169 58.1487 42.3209 57.7887C42.6249 57.4287 42.7769 56.9087 42.7769 56.2287C42.7769 55.5407 42.6249 55.0207 42.3209 54.6687C42.0169 54.3167 41.6129 54.1407 41.1089 54.1407C40.6129 54.1407 40.2129 54.3167 39.9089 54.6687C39.6049 55.0207 39.4529 55.5407 39.4529 56.2287C39.4529 56.9087 39.6049 57.4287 39.9089 57.7887C40.2129 58.1487 40.6129 58.3287 41.1089 58.3287ZM42.4409 53.9847L41.7809 53.5527V53.3007C42.0849 53.2927 42.3289 53.2487 42.5129 53.1687C42.6969 53.0807 42.8289 52.9407 42.9089 52.7487C42.9889 52.5567 43.0289 52.3007 43.0289 51.9807V51.7647H44.0849V52.1487C44.0849 52.5007 44.0169 52.8087 43.8809 53.0727C43.7529 53.3367 43.5649 53.5487 43.3169 53.7087C43.0769 53.8687 42.7849 53.9607 42.4409 53.9847ZM40.6889 52.5207L41.9249 50.0967H43.1609L41.5289 52.5207H40.6889ZM47.942 59.2647C47.342 59.2647 46.822 59.1407 46.382 58.8927C45.95 58.6367 45.614 58.2807 45.374 57.8247C45.134 57.3607 45.014 56.8167 45.014 56.1927C45.014 55.5767 45.134 55.0447 45.374 54.5967C45.614 54.1487 45.95 53.8047 46.382 53.5647C46.822 53.3167 47.342 53.1927 47.942 53.1927C48.31 53.1927 48.674 53.2567 49.034 53.3847C49.394 53.5047 49.69 53.6807 49.922 53.9127L49.538 54.7647C49.322 54.5567 49.078 54.4047 48.806 54.3087C48.534 54.2047 48.278 54.1527 48.038 54.1527C47.47 54.1527 47.03 54.3327 46.718 54.6927C46.414 55.0447 46.262 55.5487 46.262 56.2047C46.262 56.8607 46.414 57.3767 46.718 57.7527C47.03 58.1207 47.47 58.3047 48.038 58.3047C48.278 58.3047 48.534 58.2567 48.806 58.1607C49.078 58.0567 49.322 57.9007 49.538 57.6927L49.922 58.5567C49.69 58.7727 49.39 58.9447 49.022 59.0727C48.662 59.2007 48.302 59.2647 47.942 59.2647ZM54.1159 59.1567V50.6967H55.3279V55.8567H55.3519L57.8959 53.3007H59.3959L56.3119 56.3967V55.8327L59.6119 59.1567H58.0999L55.3519 56.4807H55.3279V59.1567H54.1159ZM60.7042 61.3167L61.8562 58.7487V59.2647L59.3002 53.3007H60.5962L62.5642 58.1607H62.2282L64.2202 53.3007H65.4682L61.9762 61.3167H60.7042ZM61.9642 52.5207L60.3322 50.0967H61.5682L62.8042 52.5207H61.9642ZM71.9869 59.2647C71.2589 59.2647 70.7109 59.0767 70.3429 58.7007C69.9829 58.3247 69.8029 57.7807 69.8029 57.0687V54.2367H68.6629V53.3007H69.8029V51.5367H71.0149V53.3007H72.8269V54.2367H71.0149V56.9727C71.0149 57.3967 71.1029 57.7167 71.2789 57.9327C71.4629 58.1487 71.7589 58.2567 72.1669 58.2567C72.2869 58.2567 72.4069 58.2407 72.5269 58.2087C72.6549 58.1767 72.7789 58.1447 72.8989 58.1127L73.0909 59.0247C72.9709 59.0967 72.8029 59.1527 72.5869 59.1927C72.3789 59.2407 72.1789 59.2647 71.9869 59.2647ZM73.8737 59.1567V50.6967H75.0857V54.5487H74.9177C75.0937 54.1007 75.3697 53.7647 75.7457 53.5407C76.1217 53.3087 76.5537 53.1927 77.0417 53.1927C77.5057 53.1927 77.8897 53.2807 78.1937 53.4567C78.5057 53.6247 78.7377 53.8847 78.8897 54.2367C79.0417 54.5807 79.1177 55.0167 79.1177 55.5447V59.1567H77.9057V55.6167C77.9057 55.2807 77.8617 55.0087 77.7737 54.8007C77.6857 54.5847 77.5537 54.4247 77.3777 54.3207C77.2017 54.2167 76.9737 54.1647 76.6937 54.1647C76.3737 54.1647 76.0897 54.2327 75.8417 54.3687C75.6017 54.5047 75.4137 54.7007 75.2777 54.9567C75.1497 55.2127 75.0857 55.5087 75.0857 55.8447V59.1567H73.8737ZM80.6798 51.9447V50.6847H82.0958V51.9447H80.6798ZM80.7878 59.1567V53.3007H81.9998V59.1567H80.7878Z" fill="black"/>
<defs>
<filter id="filter0_d_8334_734" x="0" y="0" width="101.04" height="85.8501" filterUnits="userSpaceOnUse" color-interpolation-filters="sRGB">
<feFlood flood-opacity="0" result="BackgroundImageFix"/>
<feColorMatrix in="SourceAlpha" type="matrix" values="0 0 0 0 0 0 0 0 0 0 0 0 0 0 0 0 0 0 127 0" result="hardAlpha"/>
<feOffset dy="4"/>
<feGaussianBlur stdDeviation="2"/>
<feComposite in2="hardAlpha" operator="out"/>
<feColorMatrix type="matrix" values="0 0 0 0 0 0 0 0 0 0 0 0 0 0 0 0 0 0 0.25 0"/>
<feBlend mode="normal" in2="BackgroundImageFix" result="effect1_dropShadow_8334_734"/>
<feBlend mode="normal" in="SourceGraphic" in2="effect1_dropShadow_8334_734" result="shape"/>
</filter>
</defs>
</svg>
