<svg width="101" height="87" viewBox="0 0 101 87" fill="none" xmlns="http://www.w3.org/2000/svg">
<g filter="url(#filter0_d_8358_581)">
<path d="M5.93525 43.0953C5.14905 41.7856 4.75597 41.1303 4.60211 40.4341C4.46596 39.8178 4.46596 39.1814 4.60211 38.5652C4.75597 37.8689 5.14905 37.2136 5.93525 35.9039L24.9806 4.17043C25.7667 2.86051 26.1598 2.20555 26.7098 1.72921C27.1964 1.30774 27.7696 0.989339 28.3923 0.79472C29.0961 0.574707 29.8823 0.574707 31.4547 0.574707H69.5452C71.1178 0.574707 71.9037 0.574707 72.6078 0.79472C73.2302 0.989339 73.8035 1.30774 74.2903 1.72921C74.8402 2.20555 75.2332 2.86051 76.0195 4.17043L95.0647 35.9039C95.851 37.2136 96.244 37.8689 96.3977 38.5652C96.5341 39.1814 96.5341 39.8178 96.3977 40.4341C96.244 41.1303 95.851 41.7856 95.0647 43.0953L76.0195 74.829C75.2332 76.1387 74.8402 76.7936 74.2903 77.27C73.8035 77.6916 73.2302 78.0098 72.6078 78.2045C71.9037 78.4247 71.1178 78.4247 69.5452 78.4247H31.4547C29.8823 78.4247 29.0961 78.4247 28.3923 78.2045C27.7696 78.0098 27.1964 77.6916 26.7098 77.27C26.1598 76.7936 25.7667 76.1387 24.9806 74.829L5.93525 43.0953Z" fill="white"/>
</g>
<path d="M60.875 29.6997H42.125C42.125 29.6997 40.25 29.6372 40.25 24.6997H62.75C62.75 29.6372 60.875 29.6997 60.875 29.6997Z" fill="#E08838"/>
<path d="M61.5 3.44971H41.5V24.6997H61.5V3.44971Z" fill="#F2BB41"/>
<path d="M57.75 10.9497H47.75V12.1997H57.75V10.9497Z" fill="#E08838"/>
<path d="M57.75 13.4497H47.75V14.6997H57.75V13.4497Z" fill="#E08838"/>
<path d="M57.75 15.9497H47.75V17.1997H57.75V15.9497Z" fill="#E08838"/>
<path d="M57.75 18.4497H47.75V19.6997H57.75V18.4497Z" fill="#E08838"/>
<path d="M57.75 20.9497H47.75V22.1997H57.75V20.9497Z" fill="#E08838"/>
<path d="M46.5 10.9497H45.25V12.1997H46.5V10.9497Z" fill="#E08838"/>
<path d="M46.5 13.4497H45.25V14.6997H46.5V13.4497Z" fill="#E08838"/>
<path d="M46.5 15.9497H45.25V17.1997H46.5V15.9497Z" fill="#E08838"/>
<path d="M46.5 18.4497H45.25V19.6997H46.5V18.4497Z" fill="#E08838"/>
<path d="M46.5 20.9497H45.25V22.1997H46.5V20.9497Z" fill="#E08838"/>
<path d="M17.9347 41V33.584H14.9347V32.54H22.1707V33.584H19.1707V41H17.9347ZM24.272 41.108C23.8 41.108 23.404 41.02 23.084 40.844C22.772 40.668 22.536 40.408 22.376 40.064C22.224 39.712 22.148 39.272 22.148 38.744V35.144H23.36V38.756C23.36 39.068 23.4 39.328 23.48 39.536C23.568 39.744 23.7 39.896 23.876 39.992C24.06 40.088 24.288 40.136 24.56 40.136C24.864 40.136 25.132 40.068 25.364 39.932C25.596 39.796 25.776 39.6 25.904 39.344C26.032 39.088 26.096 38.792 26.096 38.456V35.144H27.308V41H26.132V39.716H26.288C26.128 40.164 25.872 40.508 25.52 40.748C25.168 40.988 24.752 41.108 24.272 41.108ZM30.8881 41.108C30.4801 41.108 30.1121 41.028 29.7841 40.868C29.4641 40.708 29.2121 40.492 29.0281 40.22C28.8441 39.948 28.7521 39.64 28.7521 39.296C28.7521 38.864 28.8601 38.524 29.0761 38.276C29.3001 38.02 29.6641 37.84 30.1681 37.736C30.6801 37.624 31.3681 37.568 32.2321 37.568H32.7961V38.312H32.2441C31.8121 38.312 31.4481 38.328 31.1521 38.36C30.8561 38.392 30.6201 38.444 30.4441 38.516C30.2681 38.58 30.1401 38.672 30.0601 38.792C29.9881 38.912 29.9521 39.056 29.9521 39.224C29.9521 39.528 30.0561 39.776 30.2641 39.968C30.4721 40.152 30.7601 40.244 31.1281 40.244C31.4241 40.244 31.6841 40.176 31.9081 40.04C32.1321 39.896 32.3081 39.704 32.4361 39.464C32.5721 39.224 32.6401 38.948 32.6401 38.636V37.256C32.6401 36.8 32.5441 36.472 32.3521 36.272C32.1601 36.072 31.8441 35.972 31.4041 35.972C31.0681 35.972 30.7321 36.024 30.3961 36.128C30.0601 36.224 29.7161 36.38 29.3641 36.596L28.9921 35.744C29.2001 35.6 29.4401 35.476 29.7121 35.372C29.9841 35.268 30.2681 35.188 30.5641 35.132C30.8681 35.068 31.1601 35.036 31.4401 35.036C31.9761 35.036 32.4161 35.12 32.7601 35.288C33.1121 35.456 33.3721 35.712 33.5401 36.056C33.7081 36.4 33.7921 36.844 33.7921 37.388V41H32.6521V39.692H32.7601C32.6961 39.988 32.5761 40.244 32.4001 40.46C32.2321 40.668 32.0201 40.828 31.7641 40.94C31.5081 41.052 31.2161 41.108 30.8881 41.108ZM29.5921 34.364L30.9121 31.94H32.0161L33.3361 34.364H32.5321L31.4641 32.684L30.3961 34.364H29.5921ZM35.4614 41V35.144H36.6374V36.392H36.5054C36.6814 35.944 36.9574 35.608 37.3334 35.384C37.7094 35.152 38.1414 35.036 38.6294 35.036C39.0934 35.036 39.4774 35.124 39.7814 35.3C40.0934 35.468 40.3254 35.728 40.4774 36.08C40.6294 36.424 40.7054 36.86 40.7054 37.388V41H39.4934V37.46C39.4934 37.124 39.4494 36.852 39.3614 36.644C39.2734 36.428 39.1414 36.268 38.9654 36.164C38.7894 36.06 38.5614 36.008 38.2814 36.008C37.9614 36.008 37.6774 36.076 37.4294 36.212C37.1894 36.348 37.0014 36.544 36.8654 36.8C36.7374 37.056 36.6734 37.352 36.6734 37.688V41H35.4614ZM48.0238 41.108C47.2958 41.108 46.7478 40.92 46.3798 40.544C46.0198 40.168 45.8398 39.624 45.8398 38.912V36.08H44.6998V35.144H45.8398V33.38H47.0518V35.144H48.8638V36.08H47.0518V38.816C47.0518 39.24 47.1398 39.56 47.3158 39.776C47.4998 39.992 47.7958 40.1 48.2038 40.1C48.3238 40.1 48.4438 40.084 48.5638 40.052C48.6918 40.02 48.8158 39.988 48.9358 39.956L49.1278 40.868C49.0078 40.94 48.8398 40.996 48.6238 41.036C48.4158 41.084 48.2158 41.108 48.0238 41.108ZM49.9106 41V32.54H51.1226V36.392H50.9546C51.1306 35.944 51.4066 35.608 51.7826 35.384C52.1586 35.152 52.5906 35.036 53.0786 35.036C53.5426 35.036 53.9266 35.124 54.2306 35.3C54.5426 35.468 54.7746 35.728 54.9266 36.08C55.0786 36.424 55.1546 36.86 55.1546 37.388V41H53.9426V37.46C53.9426 37.124 53.8986 36.852 53.8106 36.644C53.7226 36.428 53.5906 36.268 53.4146 36.164C53.2386 36.06 53.0106 36.008 52.7306 36.008C52.4106 36.008 52.1266 36.076 51.8786 36.212C51.6386 36.348 51.4506 36.544 51.3146 36.8C51.1866 37.056 51.1226 37.352 51.1226 37.688V41H49.9106ZM58.9127 41.108C58.4407 41.108 58.0447 41.02 57.7247 40.844C57.4127 40.668 57.1767 40.408 57.0167 40.064C56.8647 39.712 56.7887 39.272 56.7887 38.744V35.144H58.0007V38.756C58.0007 39.068 58.0407 39.328 58.1207 39.536C58.2087 39.744 58.3407 39.896 58.5167 39.992C58.7007 40.088 58.9287 40.136 59.2007 40.136C59.5047 40.136 59.7727 40.068 60.0047 39.932C60.2367 39.796 60.4167 39.6 60.5447 39.344C60.6727 39.088 60.7367 38.792 60.7367 38.456V35.144H61.9487V41H60.7727V39.716H60.9287C60.7687 40.164 60.5127 40.508 60.1607 40.748C59.8087 40.988 59.3927 41.108 58.9127 41.108ZM58.9967 34.352V34.112C58.9967 33.936 59.0327 33.792 59.1047 33.68C59.1767 33.56 59.2567 33.46 59.3447 33.38C59.4407 33.292 59.5247 33.208 59.5967 33.128C59.6687 33.04 59.7047 32.94 59.7047 32.828C59.7047 32.724 59.6607 32.644 59.5727 32.588C59.4927 32.532 59.3647 32.504 59.1887 32.504C59.0607 32.504 58.9367 32.52 58.8167 32.552C58.7047 32.576 58.5807 32.624 58.4447 32.696L58.2527 32.12C58.4127 32.024 58.5927 31.956 58.7927 31.916C58.9927 31.868 59.2087 31.844 59.4407 31.844C59.8247 31.844 60.1247 31.916 60.3407 32.06C60.5567 32.204 60.6647 32.412 60.6647 32.684C60.6647 32.884 60.6167 33.048 60.5207 33.176C60.4327 33.296 60.3287 33.4 60.2087 33.488C60.0967 33.576 59.9927 33.672 59.8967 33.776C59.8087 33.872 59.7647 34.004 59.7647 34.172V34.352H58.9967ZM70.985 43.16V39.704H71.117C70.989 40.128 70.737 40.468 70.361 40.724C69.993 40.98 69.553 41.108 69.041 41.108C68.529 41.108 68.077 40.988 67.685 40.748C67.301 40.5 67.001 40.148 66.785 39.692C66.569 39.228 66.461 38.688 66.461 38.072C66.461 37.44 66.569 36.9 66.785 36.452C67.001 36.004 67.301 35.656 67.685 35.408C68.077 35.16 68.529 35.036 69.041 35.036C69.561 35.036 70.005 35.168 70.373 35.432C70.749 35.688 71.001 36.032 71.129 36.464H71.009V35.144H72.197V43.16H70.985ZM69.353 40.172C69.849 40.172 70.249 39.992 70.553 39.632C70.857 39.272 71.009 38.752 71.009 38.072C71.009 37.384 70.857 36.864 70.553 36.512C70.249 36.16 69.849 35.984 69.353 35.984C68.849 35.984 68.445 36.16 68.141 36.512C67.837 36.864 67.685 37.384 67.685 38.072C67.685 38.752 67.837 39.272 68.141 39.632C68.445 39.992 68.849 40.172 69.353 40.172ZM75.9869 41.108C75.5149 41.108 75.1189 41.02 74.7989 40.844C74.4869 40.668 74.2509 40.408 74.0909 40.064C73.9389 39.712 73.8629 39.272 73.8629 38.744V35.144H75.0749V38.756C75.0749 39.068 75.1149 39.328 75.1949 39.536C75.2829 39.744 75.4149 39.896 75.5909 39.992C75.7749 40.088 76.0029 40.136 76.2749 40.136C76.5789 40.136 76.8469 40.068 77.0789 39.932C77.3109 39.796 77.4909 39.6 77.6189 39.344C77.7469 39.088 77.8109 38.792 77.8109 38.456V35.144H79.0229V41H77.8469V39.716H78.0029C77.8429 40.164 77.5869 40.508 77.2349 40.748C76.8829 40.988 76.4669 41.108 75.9869 41.108ZM81.3309 43.16L82.4829 40.592V41.108L79.9269 35.144H81.2229L83.1909 40.004H82.8549L84.8469 35.144H86.0949L82.6029 43.16H81.3309ZM45.6332 57.108C44.9052 57.108 44.3572 56.92 43.9892 56.544C43.6292 56.168 43.4492 55.624 43.4492 54.912V52.08H42.3092V51.144H43.4492V49.38H44.6612V51.144H46.4732V52.08H44.6612V54.816C44.6612 55.24 44.7492 55.56 44.9252 55.776C45.1092 55.992 45.4052 56.1 45.8132 56.1C45.9332 56.1 46.0532 56.084 46.1732 56.052C46.3012 56.02 46.4252 55.988 46.5452 55.956L46.7372 56.868C46.6172 56.94 46.4492 56.996 46.2332 57.036C46.0252 57.084 45.8252 57.108 45.6332 57.108ZM49.392 57.108C48.984 57.108 48.616 57.028 48.288 56.868C47.968 56.708 47.716 56.492 47.532 56.22C47.348 55.948 47.256 55.64 47.256 55.296C47.256 54.864 47.364 54.524 47.58 54.276C47.804 54.02 48.168 53.84 48.672 53.736C49.184 53.624 49.872 53.568 50.736 53.568H51.3V54.312H50.748C50.316 54.312 49.952 54.328 49.656 54.36C49.36 54.392 49.124 54.444 48.948 54.516C48.772 54.58 48.644 54.672 48.564 54.792C48.492 54.912 48.456 55.056 48.456 55.224C48.456 55.528 48.56 55.776 48.768 55.968C48.976 56.152 49.264 56.244 49.632 56.244C49.928 56.244 50.188 56.176 50.412 56.04C50.636 55.896 50.812 55.704 50.94 55.464C51.076 55.224 51.144 54.948 51.144 54.636V53.256C51.144 52.8 51.048 52.472 50.856 52.272C50.664 52.072 50.348 51.972 49.908 51.972C49.572 51.972 49.236 52.024 48.9 52.128C48.564 52.224 48.22 52.38 47.868 52.596L47.496 51.744C47.704 51.6 47.944 51.476 48.216 51.372C48.488 51.268 48.772 51.188 49.068 51.132C49.372 51.068 49.664 51.036 49.944 51.036C50.48 51.036 50.92 51.12 51.264 51.288C51.616 51.456 51.876 51.712 52.044 52.056C52.212 52.4 52.296 52.844 52.296 53.388V57H51.156V55.692H51.264C51.2 55.988 51.08 56.244 50.904 56.46C50.736 56.668 50.524 56.828 50.268 56.94C50.012 57.052 49.72 57.108 49.392 57.108ZM49.968 50.4C49.408 50.4 48.952 50.24 48.6 49.92C48.256 49.592 48.06 49.148 48.012 48.588L48.648 48.516C48.704 48.884 48.84 49.172 49.056 49.38C49.28 49.58 49.584 49.68 49.968 49.68C50.36 49.68 50.664 49.58 50.88 49.38C51.096 49.172 51.232 48.884 51.288 48.516L51.924 48.588C51.876 49.148 51.68 49.592 51.336 49.92C50.992 50.24 50.536 50.4 49.968 50.4ZM49.5 48.96L50.46 47.316H51.672L50.292 48.96H49.5ZM56.5453 57.108C55.9453 57.108 55.4253 56.984 54.9853 56.736C54.5533 56.48 54.2173 56.124 53.9773 55.668C53.7373 55.204 53.6173 54.66 53.6173 54.036C53.6173 53.42 53.7373 52.888 53.9773 52.44C54.2173 51.992 54.5533 51.648 54.9853 51.408C55.4253 51.16 55.9453 51.036 56.5453 51.036C56.9133 51.036 57.2773 51.1 57.6373 51.228C57.9973 51.348 58.2933 51.524 58.5253 51.756L58.1413 52.608C57.9253 52.4 57.6813 52.248 57.4093 52.152C57.1373 52.048 56.8813 51.996 56.6413 51.996C56.0733 51.996 55.6333 52.176 55.3213 52.536C55.0173 52.888 54.8653 53.392 54.8653 54.048C54.8653 54.704 55.0173 55.22 55.3213 55.596C55.6333 55.964 56.0733 56.148 56.6413 56.148C56.8813 56.148 57.1373 56.1 57.4093 56.004C57.6813 55.9 57.9253 55.744 58.1413 55.536L58.5253 56.4C58.2933 56.616 57.9933 56.788 57.6253 56.916C57.2653 57.044 56.9053 57.108 56.5453 57.108Z" fill="black"/>
<path d="M31.1556 72.6847C30.3783 72.6847 29.711 72.5234 29.1536 72.2007C28.5963 71.8707 28.1673 71.4087 27.8666 70.8147C27.566 70.2207 27.4156 69.513 27.4156 68.6917C27.4156 67.8704 27.566 67.1664 27.8666 66.5797C28.1673 65.9857 28.5963 65.5274 29.1536 65.2047C29.711 64.882 30.3783 64.7207 31.1556 64.7207C31.6836 64.7207 32.175 64.8014 32.6296 64.9627C33.0916 65.124 33.4766 65.3624 33.7846 65.6777L33.3776 66.5907C33.0403 66.2974 32.6956 66.0847 32.3436 65.9527C31.9916 65.8207 31.6066 65.7547 31.1886 65.7547C30.3673 65.7547 29.7366 66.0077 29.2966 66.5137C28.8566 67.0197 28.6366 67.7457 28.6366 68.6917C28.6366 69.6377 28.8566 70.3674 29.2966 70.8807C29.7366 71.3867 30.3673 71.6397 31.1886 71.6397C31.6066 71.6397 31.9916 71.5737 32.3436 71.4417C32.6956 71.3097 33.0403 71.097 33.3776 70.8037L33.7846 71.7167C33.4766 72.0247 33.0916 72.263 32.6296 72.4317C32.175 72.6004 31.6836 72.6847 31.1556 72.6847ZM35.0782 72.5747V64.8197H36.2002V68.3177H36.0902C36.2515 67.9217 36.5045 67.6174 36.8492 67.4047C37.1938 67.192 37.5862 67.0857 38.0262 67.0857C38.4662 67.0857 38.8255 67.1664 39.1042 67.3277C39.3902 67.4817 39.6028 67.72 39.7422 68.0427C39.8888 68.3654 39.9622 68.7724 39.9622 69.2637V72.5747H38.8292V69.3297C38.8292 69.029 38.7888 68.7834 38.7082 68.5927C38.6348 68.3947 38.5138 68.248 38.3452 68.1527C38.1838 68.05 37.9748 67.9987 37.7182 67.9987C37.4175 67.9987 37.1535 68.0647 36.9262 68.1967C36.6988 68.3287 36.5228 68.512 36.3982 68.7467C36.2735 68.974 36.2112 69.238 36.2112 69.5387V72.5747H35.0782ZM43.5244 72.6737C43.0844 72.6737 42.7141 72.593 42.4134 72.4317C42.1201 72.2704 41.9001 72.0284 41.7534 71.7057C41.6141 71.383 41.5444 70.9797 41.5444 70.4957V67.1847H42.6774V70.4847C42.6774 70.7634 42.7141 70.998 42.7874 71.1887C42.8681 71.3794 42.9891 71.5224 43.1504 71.6177C43.3191 71.713 43.5318 71.7607 43.7884 71.7607C44.0744 71.7607 44.3238 71.6984 44.5364 71.5737C44.7491 71.4417 44.9141 71.2584 45.0314 71.0237C45.1561 70.789 45.2184 70.5214 45.2184 70.2207V67.1847H46.3624V72.5747H45.2624V71.3977H45.3834C45.2221 71.8084 44.9801 72.1237 44.6574 72.3437C44.3348 72.5637 43.9571 72.6737 43.5244 72.6737ZM46.1204 67.8227L45.4934 67.4157V67.1847C45.7721 67.1774 45.9958 67.137 46.1644 67.0637C46.3331 66.983 46.4504 66.8547 46.5164 66.6787C46.5898 66.5027 46.6264 66.2717 46.6264 65.9857V65.7877H47.6384V66.1397C47.6384 66.4624 47.5761 66.7447 47.4514 66.9867C47.3341 67.2287 47.1618 67.423 46.9344 67.5697C46.7071 67.709 46.4358 67.7934 46.1204 67.8227ZM50.3553 72.6737C49.8126 72.6737 49.3396 72.56 48.9363 72.3327C48.5403 72.1054 48.2323 71.7827 48.0123 71.3647C47.7923 70.9394 47.6823 70.4444 47.6823 69.8797C47.6823 69.3077 47.7923 68.8127 48.0123 68.3947C48.2323 67.9767 48.5403 67.654 48.9363 67.4267C49.3396 67.1994 49.8126 67.0857 50.3553 67.0857C50.8979 67.0857 51.3673 67.1994 51.7633 67.4267C52.1666 67.654 52.4783 67.9767 52.6983 68.3947C52.9183 68.8127 53.0283 69.3077 53.0283 69.8797C53.0283 70.4444 52.9183 70.9394 52.6983 71.3647C52.4783 71.7827 52.1666 72.1054 51.7633 72.3327C51.3673 72.56 50.8979 72.6737 50.3553 72.6737ZM50.3553 71.7827C50.8246 71.7827 51.1986 71.6177 51.4773 71.2877C51.7559 70.9577 51.8953 70.4847 51.8953 69.8687C51.8953 69.26 51.7559 68.7944 51.4773 68.4717C51.1986 68.149 50.8246 67.9877 50.3553 67.9877C49.8859 67.9877 49.5119 68.149 49.2333 68.4717C48.9546 68.7944 48.8153 69.26 48.8153 69.8687C48.8153 70.4847 48.9546 70.9577 49.2333 71.2877C49.5119 71.6177 49.8859 71.7827 50.3553 71.7827ZM51.6093 67.8227L50.9823 67.4157V67.1847C51.2609 67.1774 51.4846 67.137 51.6533 67.0637C51.8219 66.983 51.9393 66.8547 52.0053 66.6787C52.0786 66.5027 52.1153 66.2717 52.1153 65.9857V65.7877H53.1273V66.1397C53.1273 66.4624 53.0649 66.7447 52.9403 66.9867C52.8229 67.2287 52.6506 67.423 52.4233 67.5697C52.1959 67.709 51.9246 67.7934 51.6093 67.8227ZM54.3496 72.5747V67.1847H55.4386V68.3287H55.3506C55.512 67.9254 55.765 67.6174 56.1096 67.4047C56.4616 67.192 56.8576 67.0857 57.2976 67.0857C57.7376 67.0857 58.1006 67.1664 58.3866 67.3277C58.6726 67.4817 58.8853 67.72 59.0246 68.0427C59.164 68.3654 59.2336 68.7724 59.2336 69.2637V72.5747H58.1006V69.3297C58.1006 69.029 58.0603 68.7834 57.9796 68.5927C57.9063 68.3947 57.7853 68.248 57.6166 68.1527C57.4553 68.05 57.2463 67.9987 56.9896 67.9987C56.689 67.9987 56.425 68.0647 56.1976 68.1967C55.9703 68.3287 55.7943 68.512 55.6696 68.7467C55.545 68.974 55.4826 69.238 55.4826 69.5387V72.5747H54.3496ZM63.2689 74.6537C62.7996 74.6537 62.3523 74.595 61.9269 74.4777C61.5089 74.3604 61.1386 74.1844 60.8159 73.9497L61.1679 73.1247C61.3733 73.264 61.5859 73.3814 61.8059 73.4767C62.0333 73.572 62.2606 73.6417 62.4879 73.6857C62.7226 73.737 62.9609 73.7627 63.2029 73.7627C63.7236 73.7627 64.1196 73.6307 64.3909 73.3667C64.6623 73.1027 64.7979 72.7214 64.7979 72.2227V71.1447H64.8639C64.7466 71.5407 64.5119 71.856 64.1599 72.0907C63.8153 72.318 63.4156 72.4317 62.9609 72.4317C62.4696 72.4317 62.0406 72.3217 61.6739 72.1017C61.3073 71.8744 61.0249 71.559 60.8269 71.1557C60.6289 70.7524 60.5299 70.2867 60.5299 69.7587C60.5299 69.2234 60.6289 68.7577 60.8269 68.3617C61.0249 67.9584 61.3073 67.6467 61.6739 67.4267C62.0406 67.1994 62.4696 67.0857 62.9609 67.0857C63.4229 67.0857 63.8263 67.203 64.1709 67.4377C64.5229 67.6724 64.7539 67.984 64.8639 68.3727H64.7869V67.1847H65.8869V72.0907C65.8869 72.648 65.7843 73.1174 65.5789 73.4987C65.3809 73.88 65.0876 74.166 64.6989 74.3567C64.3103 74.5547 63.8336 74.6537 63.2689 74.6537ZM63.2249 71.5407C63.7016 71.5407 64.0793 71.3794 64.3579 71.0567C64.6366 70.734 64.7759 70.3014 64.7759 69.7587C64.7759 69.2087 64.6366 68.776 64.3579 68.4607C64.0793 68.138 63.7016 67.9767 63.2249 67.9767C62.7483 67.9767 62.3669 68.138 62.0809 68.4607C61.8023 68.776 61.6629 69.2087 61.6629 69.7587C61.6629 70.3014 61.8023 70.734 62.0809 71.0567C62.3669 71.3794 62.7483 71.5407 63.2249 71.5407ZM70.7597 72.5747L74.5437 65.3477L74.5547 65.8097H70.3307V64.8197H75.5887V65.6777L72.0247 72.5747H70.7597Z" fill="#667085"/>
<defs>
<filter id="filter0_d_8358_581" x="0.5" y="0.574707" width="100" height="85.8501" filterUnits="userSpaceOnUse" color-interpolation-filters="sRGB">
<feFlood flood-opacity="0" result="BackgroundImageFix"/>
<feColorMatrix in="SourceAlpha" type="matrix" values="0 0 0 0 0 0 0 0 0 0 0 0 0 0 0 0 0 0 127 0" result="hardAlpha"/>
<feOffset dy="4"/>
<feGaussianBlur stdDeviation="2"/>
<feComposite in2="hardAlpha" operator="out"/>
<feColorMatrix type="matrix" values="0 0 0 0 0 0 0 0 0 0 0 0 0 0 0 0 0 0 0.25 0"/>
<feBlend mode="normal" in2="BackgroundImageFix" result="effect1_dropShadow_8358_581"/>
<feBlend mode="normal" in="SourceGraphic" in2="effect1_dropShadow_8358_581" result="shape"/>
</filter>
</defs>
</svg>
