<svg width="96" height="88" viewBox="0 0 96 88" fill="none" xmlns="http://www.w3.org/2000/svg">
<g filter="url(#filter0_d_8310_1103)">
<path d="M5.37285 43.8652C4.62083 42.5555 4.24484 41.9002 4.09767 41.2041C3.96744 40.5879 3.96744 39.9515 4.09767 39.3353C4.24484 38.6391 4.62083 37.9838 5.37285 36.6741L23.5901 4.94223C24.3421 3.63237 24.7181 2.97744 25.2442 2.50112C25.7096 2.07968 26.2579 1.76129 26.8535 1.56668C27.5267 1.34668 28.2787 1.34668 29.7827 1.34668H66.2171C67.7214 1.34668 68.4731 1.34668 69.1466 1.56668C69.7419 1.76129 70.2903 2.07968 70.756 2.50112C71.282 2.97744 71.6578 3.63237 72.41 4.94223L90.6271 36.6741C91.3792 37.9838 91.7551 38.6391 91.9021 39.3353C92.0326 39.9515 92.0326 40.5879 91.9021 41.2041C91.7551 41.9002 91.3792 42.5555 90.6271 43.8652L72.41 75.5973C71.6578 76.907 71.282 77.5618 70.756 78.0382C70.2903 78.4598 69.7419 78.778 69.1466 78.9726C68.4731 79.1928 67.7214 79.1928 66.2171 79.1928H29.7827C28.2787 79.1928 27.5267 79.1928 26.8535 78.9726C26.2579 78.778 25.7096 78.4598 25.2442 78.0382C24.7181 77.5618 24.3421 76.907 23.5901 75.5973L5.37285 43.8652Z" fill="white"/>
</g>
<path d="M58.2051 2.84668H38.2051C36.8244 2.84668 35.7051 3.96597 35.7051 5.34668V25.3467C35.7051 26.7274 36.8244 27.8467 38.2051 27.8467H58.2051C59.5858 27.8467 60.7051 26.7274 60.7051 25.3467V5.34668C60.7051 3.96597 59.5858 2.84668 58.2051 2.84668Z" fill="#F2BB41"/>
<path d="M54.4551 16.5966H45.7051V13.3591L46.0676 13.7341C46.1838 13.8513 46.322 13.9443 46.4743 14.0077C46.6267 14.0712 46.7901 14.1039 46.9551 14.1039C47.1201 14.1039 47.2835 14.0712 47.4358 14.0077C47.5881 13.9443 47.7264 13.8513 47.8426 13.7341C47.9597 13.6179 48.0527 13.4796 48.1162 13.3273C48.1796 13.175 48.2123 13.0116 48.2123 12.8466C48.2123 12.6816 48.1796 12.5182 48.1162 12.3659C48.0527 12.2136 47.9597 12.0753 47.8426 11.9591L45.3426 9.4591C45.2264 9.34194 45.0881 9.24895 44.9358 9.18549C44.7835 9.12203 44.6201 9.08936 44.4551 9.08936C44.2901 9.08936 44.1267 9.12203 43.9743 9.18549C43.822 9.24895 43.6838 9.34194 43.5676 9.4591L41.0676 11.9591C40.951 12.0757 40.8586 12.214 40.7955 12.3663C40.7324 12.5186 40.7 12.6818 40.7 12.8466C40.7 13.1795 40.8322 13.4987 41.0676 13.7341C41.3029 13.9695 41.6222 14.1017 41.9551 14.1017C42.2879 14.1017 42.6072 13.9695 42.8426 13.7341L43.2051 13.3591V16.5966C43.2051 17.2596 43.4685 17.8955 43.9373 18.3644C44.4061 18.8332 45.042 19.0966 45.7051 19.0966H54.4551C54.7866 19.0966 55.1045 18.9649 55.3389 18.7305C55.5734 18.4961 55.7051 18.1781 55.7051 17.8466C55.7051 17.5151 55.5734 17.1971 55.3389 16.9627C55.1045 16.7283 54.7866 16.5966 54.4551 16.5966Z" fill="#E08838"/>
<path d="M23.6334 43.4547C22.7774 43.4547 22.0454 43.2787 21.4374 42.9267C20.8294 42.5747 20.3614 42.0747 20.0334 41.4267C19.7134 40.7707 19.5534 39.9987 19.5534 39.1107C19.5534 38.2227 19.7134 37.4547 20.0334 36.8067C20.3614 36.1587 20.8294 35.6587 21.4374 35.3067C22.0454 34.9547 22.7774 34.7787 23.6334 34.7787C24.2094 34.7787 24.7454 34.8707 25.2414 35.0547C25.7454 35.2307 26.1654 35.4867 26.5014 35.8227L26.0694 36.8187C25.7014 36.4907 25.3214 36.2547 24.9294 36.1107C24.5454 35.9587 24.1254 35.8827 23.6694 35.8827C22.7574 35.8827 22.0614 36.1627 21.5814 36.7227C21.1014 37.2827 20.8614 38.0787 20.8614 39.1107C20.8614 40.1427 21.1014 40.9427 21.5814 41.5107C22.0614 42.0707 22.7574 42.3507 23.6694 42.3507C24.1254 42.3507 24.5454 42.2787 24.9294 42.1347C25.3214 41.9827 25.7014 41.7427 26.0694 41.4147L26.5014 42.4107C26.1654 42.7467 25.7454 43.0067 25.2414 43.1907C24.7454 43.3667 24.2094 43.4547 23.6334 43.4547ZM29.4916 43.4547C29.0836 43.4547 28.7156 43.3747 28.3876 43.2147C28.0676 43.0547 27.8156 42.8387 27.6316 42.5667C27.4476 42.2947 27.3556 41.9867 27.3556 41.6427C27.3556 41.2107 27.4636 40.8707 27.6796 40.6227C27.9036 40.3667 28.2676 40.1867 28.7716 40.0827C29.2836 39.9707 29.9716 39.9147 30.8356 39.9147H31.3996V40.6587H30.8476C30.4156 40.6587 30.0516 40.6747 29.7556 40.7067C29.4596 40.7387 29.2236 40.7907 29.0476 40.8627C28.8716 40.9267 28.7436 41.0187 28.6636 41.1387C28.5916 41.2587 28.5556 41.4027 28.5556 41.5707C28.5556 41.8747 28.6596 42.1227 28.8676 42.3147C29.0756 42.4987 29.3636 42.5907 29.7316 42.5907C30.0276 42.5907 30.2876 42.5227 30.5116 42.3867C30.7356 42.2427 30.9116 42.0507 31.0396 41.8107C31.1756 41.5707 31.2436 41.2947 31.2436 40.9827V39.6027C31.2436 39.1467 31.1476 38.8187 30.9556 38.6187C30.7636 38.4187 30.4476 38.3187 30.0076 38.3187C29.6716 38.3187 29.3356 38.3707 28.9996 38.4747C28.6636 38.5707 28.3196 38.7267 27.9676 38.9427L27.5956 38.0907C27.8036 37.9467 28.0436 37.8227 28.3156 37.7187C28.5876 37.6147 28.8716 37.5347 29.1676 37.4787C29.4716 37.4147 29.7636 37.3827 30.0436 37.3827C30.5796 37.3827 31.0196 37.4667 31.3636 37.6347C31.7156 37.8027 31.9756 38.0587 32.1436 38.4027C32.3116 38.7467 32.3956 39.1907 32.3956 39.7347V43.3467H31.2556V42.0387H31.3636C31.2996 42.3347 31.1796 42.5907 31.0036 42.8067C30.8356 43.0147 30.6236 43.1747 30.3676 43.2867C30.1116 43.3987 29.8196 43.4547 29.4916 43.4547ZM29.6476 36.7107L30.8836 34.2867H32.1196L30.4876 36.7107H29.6476ZM36.6449 43.4547C36.0449 43.4547 35.5249 43.3307 35.0849 43.0827C34.6529 42.8267 34.3169 42.4707 34.0769 42.0147C33.8369 41.5507 33.7169 41.0067 33.7169 40.3827C33.7169 39.7667 33.8369 39.2347 34.0769 38.7867C34.3169 38.3387 34.6529 37.9947 35.0849 37.7547C35.5249 37.5067 36.0449 37.3827 36.6449 37.3827C37.0129 37.3827 37.3769 37.4467 37.7369 37.5747C38.0969 37.6947 38.3929 37.8707 38.6249 38.1027L38.2409 38.9547C38.0249 38.7467 37.7809 38.5947 37.5089 38.4987C37.2369 38.3947 36.9809 38.3427 36.7409 38.3427C36.1729 38.3427 35.7329 38.5227 35.4209 38.8827C35.1169 39.2347 34.9649 39.7387 34.9649 40.3947C34.9649 41.0507 35.1169 41.5667 35.4209 41.9427C35.7329 42.3107 36.1729 42.4947 36.7409 42.4947C36.9809 42.4947 37.2369 42.4467 37.5089 42.3507C37.7809 42.2467 38.0249 42.0907 38.2409 41.8827L38.6249 42.7467C38.3929 42.9627 38.0929 43.1347 37.7249 43.2627C37.3649 43.3907 37.0049 43.4547 36.6449 43.4547ZM42.8188 43.3467V37.4907H43.9948V38.7387H43.8628C44.0388 38.2907 44.3148 37.9547 44.6908 37.7307C45.0668 37.4987 45.4988 37.3827 45.9868 37.3827C46.4508 37.3827 46.8348 37.4707 47.1388 37.6467C47.4508 37.8147 47.6828 38.0747 47.8348 38.4267C47.9868 38.7707 48.0628 39.2067 48.0628 39.7347V43.3467H46.8508V39.8067C46.8508 39.4707 46.8068 39.1987 46.7188 38.9907C46.6308 38.7747 46.4988 38.6147 46.3228 38.5107C46.1468 38.4067 45.9188 38.3547 45.6388 38.3547C45.3188 38.3547 45.0348 38.4227 44.7868 38.5587C44.5468 38.6947 44.3588 38.8907 44.2228 39.1467C44.0948 39.4027 44.0308 39.6987 44.0308 40.0347V43.3467H42.8188ZM49.7329 43.3467V34.8867H50.9449V38.7387H50.7769C50.9529 38.2907 51.2289 37.9547 51.6049 37.7307C51.9809 37.4987 52.4129 37.3827 52.9009 37.3827C53.3649 37.3827 53.7489 37.4707 54.0529 37.6467C54.3649 37.8147 54.5969 38.0747 54.7489 38.4267C54.9009 38.7707 54.9769 39.2067 54.9769 39.7347V43.3467H53.7649V39.8067C53.7649 39.4707 53.7209 39.1987 53.6329 38.9907C53.5449 38.7747 53.4129 38.6147 53.2369 38.5107C53.0609 38.4067 52.8329 38.3547 52.5529 38.3547C52.2329 38.3547 51.9489 38.4227 51.7009 38.5587C51.4609 38.6947 51.2729 38.8907 51.1369 39.1467C51.0089 39.4027 50.9449 39.6987 50.9449 40.0347V43.3467H49.7329ZM56.5389 36.1347V34.8747H57.9549V36.1347H56.5389ZM56.6469 43.3467V37.4907H57.8589V43.3467H56.6469ZM62.3129 43.4547C61.6729 43.4547 61.1209 43.3347 60.6569 43.0947C60.2009 42.8467 59.8449 42.4987 59.5889 42.0507C59.3409 41.5947 59.2169 41.0547 59.2169 40.4307C59.2169 39.8227 59.3409 39.2907 59.5889 38.8347C59.8369 38.3787 60.1769 38.0227 60.6089 37.7667C61.0409 37.5107 61.5329 37.3827 62.0849 37.3827C62.6289 37.3827 63.0929 37.5027 63.4769 37.7427C63.8689 37.9747 64.1689 38.3067 64.3769 38.7387C64.5849 39.1707 64.6889 39.6867 64.6889 40.2867V40.6947H60.1769V39.9507H63.8729L63.6689 40.1187C63.6689 39.5187 63.5369 39.0547 63.2729 38.7267C63.0089 38.3987 62.6289 38.2347 62.1329 38.2347C61.7569 38.2347 61.4369 38.3227 61.1729 38.4987C60.9169 38.6747 60.7209 38.9187 60.5849 39.2307C60.4489 39.5427 60.3809 39.9067 60.3809 40.3227V40.3947C60.3809 40.8587 60.4529 41.2507 60.5969 41.5707C60.7489 41.8827 60.9689 42.1187 61.2569 42.2787C61.5449 42.4387 61.9009 42.5187 62.3249 42.5187C62.6609 42.5187 62.9889 42.4667 63.3089 42.3627C63.6369 42.2507 63.9449 42.0787 64.2329 41.8467L64.5929 42.6867C64.3289 42.9267 63.9889 43.1147 63.5729 43.2507C63.1569 43.3867 62.7369 43.4547 62.3129 43.4547ZM61.4609 45.6867V44.4747H62.7329V45.6867H61.4609ZM60.2249 36.7107L61.5449 34.2867H62.6489L63.9689 36.7107H63.1649L62.0969 35.0307L61.0289 36.7107H60.2249ZM66.0342 43.3467V37.4907H67.2102V38.7387H67.0782C67.1822 38.4507 67.3262 38.2067 67.5102 38.0067C67.6942 37.8067 67.9142 37.6547 68.1702 37.5507C68.4342 37.4387 68.7222 37.3827 69.0342 37.3827C69.5222 37.3827 69.9182 37.4987 70.2222 37.7307C70.5262 37.9627 70.7342 38.3187 70.8462 38.7987H70.6782C70.8302 38.3587 71.0902 38.0147 71.4582 37.7667C71.8262 37.5107 72.2542 37.3827 72.7422 37.3827C73.1902 37.3827 73.5582 37.4707 73.8462 37.6467C74.1342 37.8147 74.3502 38.0747 74.4942 38.4267C74.6382 38.7707 74.7102 39.2067 74.7102 39.7347V43.3467H73.4982V39.7947C73.4982 39.2987 73.4102 38.9347 73.2342 38.7027C73.0662 38.4707 72.7862 38.3547 72.3942 38.3547C72.1062 38.3547 71.8542 38.4227 71.6382 38.5587C71.4222 38.6947 71.2542 38.8947 71.1342 39.1587C71.0222 39.4147 70.9662 39.7187 70.9662 40.0707V43.3467H69.7542V39.7947C69.7542 39.2987 69.6702 38.9347 69.5022 38.7027C69.3342 38.4707 69.0542 38.3547 68.6622 38.3547C68.3662 38.3547 68.1102 38.4227 67.8942 38.5587C67.6862 38.6947 67.5262 38.8947 67.4142 39.1587C67.3022 39.4147 67.2462 39.7187 67.2462 40.0707V43.3467H66.0342ZM27.2145 59.3467L24.6945 53.4907H26.0025L27.9585 58.3507H27.6225L29.6265 53.4907H30.8625L28.3065 59.3467H27.2145ZM33.8209 59.4547C33.3489 59.4547 32.9529 59.3667 32.6329 59.1907C32.3209 59.0147 32.0849 58.7547 31.9249 58.4107C31.7729 58.0587 31.6969 57.6187 31.6969 57.0907V53.4907H32.9089V57.1027C32.9089 57.4147 32.9489 57.6747 33.0289 57.8827C33.1169 58.0907 33.2489 58.2427 33.4249 58.3387C33.6089 58.4347 33.8369 58.4827 34.1089 58.4827C34.4129 58.4827 34.6809 58.4147 34.9129 58.2787C35.1449 58.1427 35.3249 57.9467 35.4529 57.6907C35.5809 57.4347 35.6449 57.1387 35.6449 56.8027V53.4907H36.8569V59.3467H35.6809V58.0627H35.8369C35.6769 58.5107 35.4209 58.8547 35.0689 59.0947C34.7169 59.3347 34.3009 59.4547 33.8209 59.4547ZM33.6529 61.6867V60.4747H34.9249V61.6867H33.6529ZM43.6252 59.4547C42.9852 59.4547 42.5052 59.2747 42.1852 58.9147C41.8732 58.5467 41.7172 58.0187 41.7172 57.3307V50.8867H42.9292V57.2587C42.9292 57.5147 42.9652 57.7347 43.0372 57.9187C43.1092 58.0947 43.2172 58.2267 43.3612 58.3147C43.5052 58.4027 43.6852 58.4467 43.9012 58.4467C43.9972 58.4467 44.0892 58.4427 44.1772 58.4347C44.2652 58.4267 44.3492 58.4107 44.4292 58.3867L44.4052 59.3587C44.2692 59.3907 44.1372 59.4147 44.0092 59.4307C43.8812 59.4467 43.7532 59.4547 43.6252 59.4547ZM47.2572 59.4547C46.8492 59.4547 46.4812 59.3747 46.1532 59.2147C45.8332 59.0547 45.5812 58.8387 45.3972 58.5667C45.2132 58.2947 45.1212 57.9867 45.1212 57.6427C45.1212 57.2107 45.2292 56.8707 45.4452 56.6227C45.6692 56.3667 46.0332 56.1867 46.5372 56.0827C47.0492 55.9707 47.7372 55.9147 48.6012 55.9147H49.1652V56.6587H48.6132C48.1812 56.6587 47.8172 56.6747 47.5212 56.7067C47.2252 56.7387 46.9892 56.7907 46.8132 56.8627C46.6372 56.9267 46.5092 57.0187 46.4292 57.1387C46.3572 57.2587 46.3212 57.4027 46.3212 57.5707C46.3212 57.8747 46.4252 58.1227 46.6332 58.3147C46.8412 58.4987 47.1292 58.5907 47.4972 58.5907C47.7932 58.5907 48.0532 58.5227 48.2772 58.3867C48.5012 58.2427 48.6772 58.0507 48.8052 57.8107C48.9412 57.5707 49.0092 57.2947 49.0092 56.9827V55.6027C49.0092 55.1467 48.9132 54.8187 48.7212 54.6187C48.5292 54.4187 48.2132 54.3187 47.7732 54.3187C47.4372 54.3187 47.1012 54.3707 46.7652 54.4747C46.4292 54.5707 46.0852 54.7267 45.7332 54.9427L45.3612 54.0907C45.5692 53.9467 45.8092 53.8227 46.0812 53.7187C46.3532 53.6147 46.6372 53.5347 46.9332 53.4787C47.2372 53.4147 47.5292 53.3827 47.8092 53.3827C48.3452 53.3827 48.7852 53.4667 49.1292 53.6347C49.4812 53.8027 49.7412 54.0587 49.9092 54.4027C50.0772 54.7467 50.1612 55.1907 50.1612 55.7347V59.3467H49.0212V58.0387H49.1292C49.0652 58.3347 48.9452 58.5907 48.7692 58.8067C48.6012 59.0147 48.3892 59.1747 48.1332 59.2867C47.8772 59.3987 47.5852 59.4547 47.2572 59.4547ZM47.4132 52.7107L48.6492 50.2867H49.8852L48.2532 52.7107H47.4132ZM51.7225 52.1347V50.8747H53.1385V52.1347H51.7225ZM51.8305 59.3467V53.4907H53.0425V59.3467H51.8305ZM57.1208 59.3467L59.7968 56.0227V56.6227L57.2768 53.4907H58.6928L60.4808 55.7707H60.0488L61.8368 53.4907H63.2528L60.7328 56.5987V56.0587L63.4088 59.3467H61.9688L60.0488 56.9227H60.4568L58.5488 59.3467H57.1208ZM66.9184 59.4547C66.2784 59.4547 65.7264 59.3347 65.2624 59.0947C64.8064 58.8467 64.4504 58.4987 64.1944 58.0507C63.9464 57.5947 63.8224 57.0547 63.8224 56.4307C63.8224 55.8227 63.9464 55.2907 64.1944 54.8347C64.4424 54.3787 64.7824 54.0227 65.2144 53.7667C65.6464 53.5107 66.1384 53.3827 66.6904 53.3827C67.2344 53.3827 67.6984 53.5027 68.0824 53.7427C68.4744 53.9747 68.7744 54.3067 68.9824 54.7387C69.1904 55.1707 69.2944 55.6867 69.2944 56.2867V56.6947H64.7824V55.9507H68.4784L68.2744 56.1187C68.2744 55.5187 68.1424 55.0547 67.8784 54.7267C67.6144 54.3987 67.2344 54.2347 66.7384 54.2347C66.3624 54.2347 66.0424 54.3227 65.7784 54.4987C65.5224 54.6747 65.3264 54.9187 65.1904 55.2307C65.0544 55.5427 64.9864 55.9067 64.9864 56.3227V56.3947C64.9864 56.8587 65.0584 57.2507 65.2024 57.5707C65.3544 57.8827 65.5744 58.1187 65.8624 58.2787C66.1504 58.4387 66.5064 58.5187 66.9304 58.5187C67.2664 58.5187 67.5944 58.4667 67.9144 58.3627C68.2424 58.2507 68.5504 58.0787 68.8384 57.8467L69.1984 58.6867C68.9344 58.9267 68.5944 59.1147 68.1784 59.2507C67.7624 59.3867 67.3424 59.4547 66.9184 59.4547Z" fill="black"/>
<path d="M26.8608 75.4567C26.0834 75.4567 25.4161 75.2953 24.8588 74.9727C24.3014 74.6427 23.8724 74.1807 23.5718 73.5867C23.2711 72.9927 23.1208 72.285 23.1208 71.4637C23.1208 70.6423 23.2711 69.9383 23.5718 69.3517C23.8724 68.7577 24.3014 68.2993 24.8588 67.9767C25.4161 67.654 26.0834 67.4927 26.8608 67.4927C27.3888 67.4927 27.8801 67.5733 28.3348 67.7347C28.7968 67.896 29.1818 68.1343 29.4898 68.4497L29.0828 69.3627C28.7454 69.0693 28.4008 68.8567 28.0488 68.7247C27.6968 68.5927 27.3118 68.5267 26.8938 68.5267C26.0724 68.5267 25.4418 68.7797 25.0018 69.2857C24.5618 69.7917 24.3418 70.5177 24.3418 71.4637C24.3418 72.4097 24.5618 73.1393 25.0018 73.6527C25.4418 74.1587 26.0724 74.4117 26.8938 74.4117C27.3118 74.4117 27.6968 74.3457 28.0488 74.2137C28.4008 74.0817 28.7454 73.869 29.0828 73.5757L29.4898 74.4887C29.1818 74.7967 28.7968 75.035 28.3348 75.2037C27.8801 75.3723 27.3888 75.4567 26.8608 75.4567ZM30.7833 75.3467V67.5917H31.9053V71.0897H31.7953C31.9566 70.6937 32.2096 70.3893 32.5543 70.1767C32.899 69.964 33.2913 69.8577 33.7313 69.8577C34.1713 69.8577 34.5306 69.9383 34.8093 70.0997C35.0953 70.2537 35.308 70.492 35.4473 70.8147C35.594 71.1373 35.6673 71.5443 35.6673 72.0357V75.3467H34.5343V72.1017C34.5343 71.801 34.494 71.5553 34.4133 71.3647C34.34 71.1667 34.219 71.02 34.0503 70.9247C33.889 70.822 33.68 70.7707 33.4233 70.7707C33.1226 70.7707 32.8586 70.8367 32.6313 70.9687C32.404 71.1007 32.228 71.284 32.1033 71.5187C31.9786 71.746 31.9163 72.01 31.9163 72.3107V75.3467H30.7833ZM39.2296 75.4457C38.7896 75.4457 38.4192 75.365 38.1186 75.2037C37.8252 75.0423 37.6052 74.8003 37.4586 74.4777C37.3192 74.155 37.2496 73.7517 37.2496 73.2677V69.9567H38.3826V73.2567C38.3826 73.5353 38.4192 73.77 38.4926 73.9607C38.5732 74.1513 38.6942 74.2943 38.8556 74.3897C39.0242 74.485 39.2369 74.5327 39.4936 74.5327C39.7796 74.5327 40.0289 74.4703 40.2416 74.3457C40.4542 74.2137 40.6192 74.0303 40.7366 73.7957C40.8612 73.561 40.9236 73.2933 40.9236 72.9927V69.9567H42.0676V75.3467H40.9676V74.1697H41.0886C40.9272 74.5803 40.6852 74.8957 40.3626 75.1157C40.0399 75.3357 39.6622 75.4457 39.2296 75.4457ZM41.8256 70.5947L41.1986 70.1877V69.9567C41.4772 69.9493 41.7009 69.909 41.8696 69.8357C42.0382 69.755 42.1556 69.6267 42.2216 69.4507C42.2949 69.2747 42.3316 69.0437 42.3316 68.7577V68.5597H43.3436V68.9117C43.3436 69.2343 43.2812 69.5167 43.1566 69.7587C43.0392 70.0007 42.8669 70.195 42.6396 70.3417C42.4122 70.481 42.1409 70.5653 41.8256 70.5947ZM46.0604 75.4457C45.5177 75.4457 45.0447 75.332 44.6414 75.1047C44.2454 74.8773 43.9374 74.5547 43.7174 74.1367C43.4974 73.7113 43.3874 73.2163 43.3874 72.6517C43.3874 72.0797 43.4974 71.5847 43.7174 71.1667C43.9374 70.7487 44.2454 70.426 44.6414 70.1987C45.0447 69.9713 45.5177 69.8577 46.0604 69.8577C46.6031 69.8577 47.0724 69.9713 47.4684 70.1987C47.8717 70.426 48.1834 70.7487 48.4034 71.1667C48.6234 71.5847 48.7334 72.0797 48.7334 72.6517C48.7334 73.2163 48.6234 73.7113 48.4034 74.1367C48.1834 74.5547 47.8717 74.8773 47.4684 75.1047C47.0724 75.332 46.6031 75.4457 46.0604 75.4457ZM46.0604 74.5547C46.5297 74.5547 46.9037 74.3897 47.1824 74.0597C47.4611 73.7297 47.6004 73.2567 47.6004 72.6407C47.6004 72.032 47.4611 71.5663 47.1824 71.2437C46.9037 70.921 46.5297 70.7597 46.0604 70.7597C45.5911 70.7597 45.2171 70.921 44.9384 71.2437C44.6597 71.5663 44.5204 72.032 44.5204 72.6407C44.5204 73.2567 44.6597 73.7297 44.9384 74.0597C45.2171 74.3897 45.5911 74.5547 46.0604 74.5547ZM47.3144 70.5947L46.6874 70.1877V69.9567C46.9661 69.9493 47.1897 69.909 47.3584 69.8357C47.5271 69.755 47.6444 69.6267 47.7104 69.4507C47.7837 69.2747 47.8204 69.0437 47.8204 68.7577V68.5597H48.8324V68.9117C48.8324 69.2343 48.7701 69.5167 48.6454 69.7587C48.5281 70.0007 48.3557 70.195 48.1284 70.3417C47.9011 70.481 47.6297 70.5653 47.3144 70.5947ZM50.0548 75.3467V69.9567H51.1438V71.1007H51.0558C51.2171 70.6973 51.4701 70.3893 51.8148 70.1767C52.1668 69.964 52.5628 69.8577 53.0028 69.8577C53.4428 69.8577 53.8058 69.9383 54.0918 70.0997C54.3778 70.2537 54.5904 70.492 54.7298 70.8147C54.8691 71.1373 54.9388 71.5443 54.9388 72.0357V75.3467H53.8058V72.1017C53.8058 71.801 53.7654 71.5553 53.6848 71.3647C53.6114 71.1667 53.4904 71.02 53.3218 70.9247C53.1604 70.822 52.9514 70.7707 52.6948 70.7707C52.3941 70.7707 52.1301 70.8367 51.9028 70.9687C51.6754 71.1007 51.4994 71.284 51.3748 71.5187C51.2501 71.746 51.1878 72.01 51.1878 72.3107V75.3467H50.0548ZM58.9741 77.4257C58.5047 77.4257 58.0574 77.367 57.6321 77.2497C57.2141 77.1323 56.8437 76.9563 56.5211 76.7217L56.8731 75.8967C57.0784 76.036 57.2911 76.1533 57.5111 76.2487C57.7384 76.344 57.9657 76.4137 58.1931 76.4577C58.4277 76.509 58.6661 76.5347 58.9081 76.5347C59.4287 76.5347 59.8247 76.4027 60.0961 76.1387C60.3674 75.8747 60.5031 75.4933 60.5031 74.9947V73.9167H60.5691C60.4517 74.3127 60.2171 74.628 59.8651 74.8627C59.5204 75.09 59.1207 75.2037 58.6661 75.2037C58.1747 75.2037 57.7457 75.0937 57.3791 74.8737C57.0124 74.6463 56.7301 74.331 56.5321 73.9277C56.3341 73.5243 56.2351 73.0587 56.2351 72.5307C56.2351 71.9953 56.3341 71.5297 56.5321 71.1337C56.7301 70.7303 57.0124 70.4187 57.3791 70.1987C57.7457 69.9713 58.1747 69.8577 58.6661 69.8577C59.1281 69.8577 59.5314 69.975 59.8761 70.2097C60.2281 70.4443 60.4591 70.756 60.5691 71.1447H60.4921V69.9567H61.5921V74.8627C61.5921 75.42 61.4894 75.8893 61.2841 76.2707C61.0861 76.652 60.7927 76.938 60.4041 77.1287C60.0154 77.3267 59.5387 77.4257 58.9741 77.4257ZM58.9301 74.3127C59.4067 74.3127 59.7844 74.1513 60.0631 73.8287C60.3417 73.506 60.4811 73.0733 60.4811 72.5307C60.4811 71.9807 60.3417 71.548 60.0631 71.2327C59.7844 70.91 59.4067 70.7487 58.9301 70.7487C58.4534 70.7487 58.0721 70.91 57.7861 71.2327C57.5074 71.548 57.3681 71.9807 57.3681 72.5307C57.3681 73.0733 57.5074 73.506 57.7861 73.8287C58.0721 74.1513 58.4534 74.3127 58.9301 74.3127ZM68.1148 75.4457C67.8435 75.4457 67.5721 75.4127 67.3008 75.3467C67.0295 75.2733 66.7728 75.1707 66.5308 75.0387C66.2888 74.8993 66.0725 74.7343 65.8818 74.5437L66.2888 73.6747C66.5601 73.946 66.8535 74.144 67.1688 74.2687C67.4841 74.3933 67.8031 74.4557 68.1258 74.4557C68.4705 74.4557 68.7748 74.3933 69.0388 74.2687C69.3028 74.144 69.5228 73.9607 69.6988 73.7187C69.8821 73.4693 70.0178 73.1613 70.1058 72.7947C70.2011 72.4207 70.2488 71.9917 70.2488 71.5077V70.6607H70.3258C70.2745 71.042 70.1498 71.372 69.9518 71.6507C69.7611 71.922 69.5155 72.131 69.2148 72.2777C68.9141 72.4243 68.5805 72.4977 68.2138 72.4977C67.7591 72.4977 67.3558 72.395 67.0038 72.1897C66.6591 71.977 66.3841 71.6873 66.1788 71.3207C65.9808 70.9467 65.8818 70.5213 65.8818 70.0447C65.8818 69.546 65.9881 69.106 66.2008 68.7247C66.4208 68.336 66.7178 68.0353 67.0918 67.8227C67.4731 67.6027 67.9058 67.4927 68.3898 67.4927C69.0278 67.4927 69.5631 67.643 69.9958 67.9437C70.4358 68.237 70.7695 68.6697 70.9968 69.2417C71.2241 69.8137 71.3378 70.503 71.3378 71.3097C71.3378 72.1897 71.2095 72.9377 70.9528 73.5537C70.6961 74.1697 70.3295 74.639 69.8528 74.9617C69.3761 75.2843 68.7968 75.4457 68.1148 75.4457ZM68.4668 71.5627C68.7675 71.5627 69.0278 71.4967 69.2478 71.3647C69.4751 71.2327 69.6511 71.0493 69.7758 70.8147C69.9078 70.58 69.9738 70.3087 69.9738 70.0007C69.9738 69.6853 69.9115 69.4103 69.7868 69.1757C69.6621 68.941 69.4861 68.7577 69.2588 68.6257C69.0315 68.4937 68.7675 68.4277 68.4668 68.4277C68.1661 68.4277 67.9021 68.4937 67.6748 68.6257C67.4548 68.7577 67.2788 68.941 67.1468 69.1757C67.0221 69.4103 66.9598 69.6853 66.9598 70.0007C66.9598 70.3087 67.0221 70.5837 67.1468 70.8257C67.2788 71.0603 67.4548 71.2437 67.6748 71.3757C67.9021 71.5003 68.1661 71.5627 68.4668 71.5627Z" fill="#667085"/>
<defs>
<filter id="filter0_d_8310_1103" x="0" y="1.34668" width="96" height="85.8462" filterUnits="userSpaceOnUse" color-interpolation-filters="sRGB">
<feFlood flood-opacity="0" result="BackgroundImageFix"/>
<feColorMatrix in="SourceAlpha" type="matrix" values="0 0 0 0 0 0 0 0 0 0 0 0 0 0 0 0 0 0 127 0" result="hardAlpha"/>
<feOffset dy="4"/>
<feGaussianBlur stdDeviation="2"/>
<feComposite in2="hardAlpha" operator="out"/>
<feColorMatrix type="matrix" values="0 0 0 0 0 0 0 0 0 0 0 0 0 0 0 0 0 0 0.25 0"/>
<feBlend mode="normal" in2="BackgroundImageFix" result="effect1_dropShadow_8310_1103"/>
<feBlend mode="normal" in="SourceGraphic" in2="effect1_dropShadow_8310_1103" result="shape"/>
</filter>
</defs>
</svg>
