<svg width="96" height="87" viewBox="0 0 96 87" fill="none" xmlns="http://www.w3.org/2000/svg">
<g filter="url(#filter0_d_8310_820)">
<path d="M5.37285 43.5185C4.62083 42.2089 4.24484 41.5536 4.09767 40.8574C3.96744 40.2412 3.96744 39.6048 4.09767 38.9886C4.24484 38.2924 4.62083 37.6371 5.37285 36.3274L23.5901 4.59555C24.3421 3.28569 24.7181 2.63076 25.2442 2.15444C25.7096 1.733 26.2579 1.41461 26.8535 1.22C27.5267 1 28.2787 1 29.7827 1H66.2171C67.7214 1 68.4731 1 69.1466 1.22C69.7419 1.41461 70.2903 1.733 70.756 2.15444C71.282 2.63076 71.6578 3.28569 72.41 4.59555L90.6271 36.3274C91.3792 37.6371 91.7551 38.2924 91.9021 38.9886C92.0326 39.6048 92.0326 40.2412 91.9021 40.8574C91.7551 41.5536 91.3792 42.2089 90.6271 43.5185L72.41 75.2506C71.6578 76.5603 71.282 77.2151 70.756 77.6915C70.2903 78.1131 69.7419 78.4313 69.1466 78.6259C68.4731 78.8462 67.7214 78.8462 66.2171 78.8462H29.7827C28.2787 78.8462 27.5267 78.8462 26.8535 78.6259C26.2579 78.4313 25.7096 78.1131 25.2442 77.6915C24.7181 77.2151 24.3421 76.5603 23.5901 75.2506L5.37285 43.5185Z" fill="white"/>
</g>
<g clip-path="url(#clip0_8310_820)">
<path d="M58.5005 20.5293C57.1402 20.1911 56.1248 18.9647 56.1248 17.4998C56.1248 15.7738 57.5239 15 59.25 15C59.4492 15 59.6571 15.0258 59.8464 15.0626C59.8552 15.2503 59.8748 15.435 59.8748 15.6248C59.8748 17.6214 59.3746 18.8762 58.5005 20.5293ZM41.0473 24.6062C42.165 23.0089 44.8598 21.8747 48 21.8747C51.1396 21.8747 53.8277 23.0147 54.9455 24.612C52.9898 26.0292 50.5945 26.8748 48 26.8748C45.4024 26.8748 43.0045 26.0265 41.0473 24.6062ZM36.1252 15C36.1252 14.8081 36.1448 14.6214 36.1536 14.4321C36.3429 14.3953 36.5504 14.3746 36.75 14.3746C38.4761 14.3746 39.8752 15.7738 39.8752 17.4998C39.8752 18.9646 38.8583 20.1889 37.4984 20.5272C36.6248 18.8746 36.1252 16.9955 36.1252 15ZM48 3.12463C53.4652 3.12463 58.0024 6.84047 59.3793 11.8965H36.6207C37.9976 6.84053 42.5348 3.12463 48 3.12463ZM48 0C39.7158 0 33 6.71537 33 15C33 23.2842 39.7158 30 48 30C56.2842 30 63 23.2842 63 15C63 6.71537 56.2842 0 48 0Z" fill="#F2BB41"/>
<path d="M52.6551 16.5516C52.6551 17.6942 50.5613 18.6206 47.9782 18.6206C45.3951 18.6206 43.3013 17.6942 43.3013 16.5516C43.3013 15.409 45.3951 14.4827 47.9782 14.4827C50.5613 14.4827 52.6551 15.409 52.6551 16.5516Z" fill="#E08838"/>
</g>
<path d="M19.6285 43V34.54H23.1565C24.0365 34.54 24.7165 34.736 25.1965 35.128C25.6845 35.512 25.9285 36.052 25.9285 36.748C25.9285 37.26 25.7765 37.692 25.4725 38.044C25.1685 38.396 24.7565 38.632 24.2365 38.752V38.572C24.6285 38.628 24.9645 38.748 25.2445 38.932C25.5325 39.108 25.7525 39.344 25.9045 39.64C26.0565 39.928 26.1325 40.268 26.1325 40.66C26.1325 41.156 26.0205 41.58 25.7965 41.932C25.5725 42.284 25.2485 42.552 24.8245 42.736C24.4005 42.912 23.8925 43 23.3005 43H19.6285ZM20.8285 42.04H23.1565C23.3965 42.04 23.6085 42.024 23.7925 41.992C23.9845 41.952 24.1485 41.896 24.2845 41.824C24.4285 41.744 24.5485 41.648 24.6445 41.536C24.7405 41.416 24.8085 41.28 24.8485 41.128C24.8965 40.976 24.9205 40.804 24.9205 40.612C24.9205 40.42 24.8965 40.248 24.8485 40.096C24.8085 39.944 24.7405 39.812 24.6445 39.7C24.5485 39.588 24.4285 39.496 24.2845 39.424C24.1485 39.344 23.9845 39.288 23.7925 39.256C23.6085 39.216 23.3965 39.196 23.1565 39.196H20.8285V42.04ZM20.8285 38.236H22.9645C23.5405 38.236 23.9765 38.12 24.2725 37.888C24.5685 37.656 24.7165 37.316 24.7165 36.868C24.7165 36.42 24.5685 36.08 24.2725 35.848C23.9765 35.616 23.5405 35.5 22.9645 35.5H20.8285V38.236ZM29.5482 43.108C29.1402 43.108 28.7722 43.028 28.4442 42.868C28.1242 42.708 27.8722 42.492 27.6882 42.22C27.5042 41.948 27.4122 41.64 27.4122 41.296C27.4122 40.864 27.5202 40.524 27.7362 40.276C27.9602 40.02 28.3242 39.84 28.8282 39.736C29.3402 39.624 30.0282 39.568 30.8922 39.568H31.4562V40.312H30.9042C30.4722 40.312 30.1082 40.328 29.8122 40.36C29.5162 40.392 29.2802 40.444 29.1042 40.516C28.9282 40.58 28.8002 40.672 28.7202 40.792C28.6482 40.912 28.6122 41.056 28.6122 41.224C28.6122 41.528 28.7162 41.776 28.9242 41.968C29.1322 42.152 29.4202 42.244 29.7882 42.244C30.0842 42.244 30.3442 42.176 30.5682 42.04C30.7922 41.896 30.9682 41.704 31.0962 41.464C31.2322 41.224 31.3002 40.948 31.3002 40.636V39.256C31.3002 38.8 31.2042 38.472 31.0122 38.272C30.8202 38.072 30.5042 37.972 30.0642 37.972C29.7282 37.972 29.3922 38.024 29.0562 38.128C28.7202 38.224 28.3762 38.38 28.0242 38.596L27.6522 37.744C27.8602 37.6 28.1002 37.476 28.3722 37.372C28.6442 37.268 28.9282 37.188 29.2242 37.132C29.5282 37.068 29.8202 37.036 30.1002 37.036C30.6362 37.036 31.0762 37.12 31.4202 37.288C31.7722 37.456 32.0322 37.712 32.2002 38.056C32.3682 38.4 32.4522 38.844 32.4522 39.388V43H31.3122V41.692H31.4202C31.3562 41.988 31.2362 42.244 31.0602 42.46C30.8922 42.668 30.6802 42.828 30.4242 42.94C30.1682 43.052 29.8762 43.108 29.5482 43.108ZM30.1242 36.4C29.5642 36.4 29.1082 36.24 28.7562 35.92C28.4122 35.592 28.2162 35.148 28.1682 34.588L28.8042 34.516C28.8602 34.884 28.9962 35.172 29.2122 35.38C29.4362 35.58 29.7402 35.68 30.1242 35.68C30.5162 35.68 30.8202 35.58 31.0362 35.38C31.2522 35.172 31.3882 34.884 31.4442 34.516L32.0802 34.588C32.0322 35.148 31.8362 35.592 31.4922 35.92C31.1482 36.24 30.6922 36.4 30.1242 36.4ZM29.6562 34.96L30.6162 33.316H31.8282L30.4482 34.96H29.6562ZM36.6175 43.108C35.8895 43.108 35.3415 42.92 34.9735 42.544C34.6135 42.168 34.4335 41.624 34.4335 40.912V38.08H33.2935V37.144H34.4335V35.38H35.6455V37.144H37.4575V38.08H35.6455V40.816C35.6455 41.24 35.7335 41.56 35.9095 41.776C36.0935 41.992 36.3895 42.1 36.7975 42.1C36.9175 42.1 37.0375 42.084 37.1575 42.052C37.2855 42.02 37.4095 41.988 37.5295 41.956L37.7215 42.868C37.6015 42.94 37.4335 42.996 37.2175 43.036C37.0095 43.084 36.8095 43.108 36.6175 43.108ZM43.9007 43.108C43.3887 43.108 42.9367 42.988 42.5447 42.748C42.1607 42.5 41.8607 42.148 41.6447 41.692C41.4287 41.228 41.3207 40.688 41.3207 40.072C41.3207 39.44 41.4247 38.9 41.6327 38.452C41.8487 38.004 42.1487 37.656 42.5327 37.408C42.9247 37.16 43.3807 37.036 43.9007 37.036C44.4127 37.036 44.8527 37.164 45.2207 37.42C45.5967 37.668 45.8487 38.004 45.9767 38.428H45.8447V36.412H43.5407V35.536H45.8447V34.54H47.0567V35.536H48.1247V36.412H47.0567V43H45.8447V41.68H45.9767C45.8567 42.112 45.6087 42.46 45.2327 42.724C44.8567 42.98 44.4127 43.108 43.9007 43.108ZM44.2007 42.172C44.7047 42.172 45.1047 41.992 45.4007 41.632C45.7047 41.272 45.8567 40.752 45.8567 40.072C45.8567 39.384 45.7047 38.864 45.4007 38.512C45.1047 38.16 44.7047 37.984 44.2007 37.984C43.8727 37.984 43.5807 38.064 43.3247 38.224C43.0767 38.376 42.8847 38.608 42.7487 38.92C42.6127 39.232 42.5447 39.616 42.5447 40.072C42.5447 40.752 42.6967 41.272 43.0007 41.632C43.3047 41.992 43.7047 42.172 44.2007 42.172ZM50.6185 43.108C50.2105 43.108 49.8425 43.028 49.5145 42.868C49.1945 42.708 48.9425 42.492 48.7585 42.22C48.5745 41.948 48.4825 41.64 48.4825 41.296C48.4825 40.864 48.5905 40.524 48.8065 40.276C49.0305 40.02 49.3945 39.84 49.8985 39.736C50.4105 39.624 51.0985 39.568 51.9625 39.568H52.5265V40.312H51.9745C51.5425 40.312 51.1785 40.328 50.8825 40.36C50.5865 40.392 50.3505 40.444 50.1745 40.516C49.9985 40.58 49.8705 40.672 49.7905 40.792C49.7185 40.912 49.6825 41.056 49.6825 41.224C49.6825 41.528 49.7865 41.776 49.9945 41.968C50.2025 42.152 50.4905 42.244 50.8585 42.244C51.1545 42.244 51.4145 42.176 51.6385 42.04C51.8625 41.896 52.0385 41.704 52.1665 41.464C52.3025 41.224 52.3705 40.948 52.3705 40.636V39.256C52.3705 38.8 52.2745 38.472 52.0825 38.272C51.8905 38.072 51.5745 37.972 51.1345 37.972C50.7985 37.972 50.4625 38.024 50.1265 38.128C49.7905 38.224 49.4465 38.38 49.0945 38.596L48.7225 37.744C48.9305 37.6 49.1705 37.476 49.4425 37.372C49.7145 37.268 49.9985 37.188 50.2945 37.132C50.5985 37.068 50.8905 37.036 51.1705 37.036C51.7065 37.036 52.1465 37.12 52.4905 37.288C52.8425 37.456 53.1025 37.712 53.2705 38.056C53.4385 38.4 53.5225 38.844 53.5225 39.388V43H52.3825V41.692H52.4905C52.4265 41.988 52.3065 42.244 52.1305 42.46C51.9625 42.668 51.7505 42.828 51.4945 42.94C51.2385 43.052 50.9465 43.108 50.6185 43.108ZM49.3225 36.364L50.6425 34.42H51.7465L53.0665 36.364H52.2625L51.1945 35.128L50.1265 36.364H49.3225ZM52.8745 35.116L51.5185 33.316H52.5985L53.6185 35.116H52.8745ZM57.2798 43.108C56.8078 43.108 56.4118 43.02 56.0918 42.844C55.7798 42.668 55.5438 42.408 55.3838 42.064C55.2318 41.712 55.1558 41.272 55.1558 40.744V37.144H56.3678V40.756C56.3678 41.068 56.4078 41.328 56.4878 41.536C56.5758 41.744 56.7078 41.896 56.8838 41.992C57.0678 42.088 57.2958 42.136 57.5678 42.136C57.8718 42.136 58.1398 42.068 58.3718 41.932C58.6038 41.796 58.7838 41.6 58.9118 41.344C59.0398 41.088 59.1038 40.792 59.1038 40.456V37.144H60.3158V43H59.1398V41.716H59.2958C59.1358 42.164 58.8798 42.508 58.5278 42.748C58.1758 42.988 57.7598 43.108 57.2798 43.108ZM67.0842 43.108C66.4442 43.108 65.9642 42.928 65.6442 42.568C65.3322 42.2 65.1762 41.672 65.1762 40.984V34.54H66.3882V40.912C66.3882 41.168 66.4242 41.388 66.4962 41.572C66.5682 41.748 66.6762 41.88 66.8202 41.968C66.9642 42.056 67.1442 42.1 67.3602 42.1C67.4562 42.1 67.5482 42.096 67.6362 42.088C67.7242 42.08 67.8082 42.064 67.8882 42.04L67.8642 43.012C67.7282 43.044 67.5962 43.068 67.4682 43.084C67.3402 43.1 67.2122 43.108 67.0842 43.108ZM70.7162 43.108C70.3082 43.108 69.9402 43.028 69.6122 42.868C69.2922 42.708 69.0402 42.492 68.8562 42.22C68.6722 41.948 68.5802 41.64 68.5802 41.296C68.5802 40.864 68.6882 40.524 68.9042 40.276C69.1282 40.02 69.4922 39.84 69.9962 39.736C70.5082 39.624 71.1962 39.568 72.0602 39.568H72.6242V40.312H72.0722C71.6402 40.312 71.2762 40.328 70.9802 40.36C70.6842 40.392 70.4482 40.444 70.2722 40.516C70.0962 40.58 69.9682 40.672 69.8882 40.792C69.8162 40.912 69.7802 41.056 69.7802 41.224C69.7802 41.528 69.8842 41.776 70.0922 41.968C70.3002 42.152 70.5882 42.244 70.9562 42.244C71.2522 42.244 71.5122 42.176 71.7362 42.04C71.9602 41.896 72.1362 41.704 72.2642 41.464C72.4002 41.224 72.4682 40.948 72.4682 40.636V39.256C72.4682 38.8 72.3722 38.472 72.1802 38.272C71.9882 38.072 71.6722 37.972 71.2322 37.972C70.8962 37.972 70.5602 38.024 70.2242 38.128C69.8882 38.224 69.5442 38.38 69.1922 38.596L68.8202 37.744C69.0282 37.6 69.2682 37.476 69.5402 37.372C69.8122 37.268 70.0962 37.188 70.3922 37.132C70.6962 37.068 70.9882 37.036 71.2682 37.036C71.8042 37.036 72.2442 37.12 72.5882 37.288C72.9402 37.456 73.2002 37.712 73.3682 38.056C73.5362 38.4 73.6202 38.844 73.6202 39.388V43H72.4802V41.692H72.5882C72.5242 41.988 72.4042 42.244 72.2282 42.46C72.0602 42.668 71.8482 42.828 71.5922 42.94C71.3362 43.052 71.0442 43.108 70.7162 43.108ZM70.8722 36.364L72.1082 33.94H73.3442L71.7122 36.364H70.8722ZM75.1815 35.788V34.528H76.5975V35.788H75.1815ZM75.2895 43V37.144H76.5015V43H75.2895ZM41.7146 59L44.3906 55.676V56.276L41.8706 53.144H43.2866L45.0746 55.424H44.6426L46.4306 53.144H47.8466L45.3266 56.252V55.712L48.0026 59H46.5626L44.6426 56.576H45.0506L43.1426 59H41.7146ZM51.5121 59.108C50.8721 59.108 50.3201 58.988 49.8561 58.748C49.4001 58.5 49.0441 58.152 48.7881 57.704C48.5401 57.248 48.4161 56.708 48.4161 56.084C48.4161 55.476 48.5401 54.944 48.7881 54.488C49.0361 54.032 49.3761 53.676 49.8081 53.42C50.2401 53.164 50.7321 53.036 51.2841 53.036C51.8281 53.036 52.2921 53.156 52.6761 53.396C53.0681 53.628 53.3681 53.96 53.5761 54.392C53.7841 54.824 53.8881 55.34 53.8881 55.94V56.348H49.3761V55.604H53.0721L52.8681 55.772C52.8681 55.172 52.7361 54.708 52.4721 54.38C52.2081 54.052 51.8281 53.888 51.3321 53.888C50.9561 53.888 50.6361 53.976 50.3721 54.152C50.1161 54.328 49.9201 54.572 49.7841 54.884C49.6481 55.196 49.5801 55.56 49.5801 55.976V56.048C49.5801 56.512 49.6521 56.904 49.7961 57.224C49.9481 57.536 50.1681 57.772 50.4561 57.932C50.7441 58.092 51.1001 58.172 51.5241 58.172C51.8601 58.172 52.1881 58.12 52.5081 58.016C52.8361 57.904 53.1441 57.732 53.4321 57.5L53.7921 58.34C53.5281 58.58 53.1881 58.768 52.7721 58.904C52.3561 59.04 51.9361 59.108 51.5121 59.108Z" fill="black"/>
<path d="M27.6556 75.11C26.8783 75.11 26.211 74.9487 25.6536 74.626C25.0963 74.296 24.6673 73.834 24.3666 73.24C24.066 72.646 23.9156 71.9383 23.9156 71.117C23.9156 70.2957 24.066 69.5917 24.3666 69.005C24.6673 68.411 25.0963 67.9527 25.6536 67.63C26.211 67.3073 26.8783 67.146 27.6556 67.146C28.1836 67.146 28.675 67.2267 29.1296 67.388C29.5916 67.5493 29.9766 67.7877 30.2846 68.103L29.8776 69.016C29.5403 68.7227 29.1956 68.51 28.8436 68.378C28.4916 68.246 28.1066 68.18 27.6886 68.18C26.8673 68.18 26.2366 68.433 25.7966 68.939C25.3566 69.445 25.1366 70.171 25.1366 71.117C25.1366 72.063 25.3566 72.7927 25.7966 73.306C26.2366 73.812 26.8673 74.065 27.6886 74.065C28.1066 74.065 28.4916 73.999 28.8436 73.867C29.1956 73.735 29.5403 73.5223 29.8776 73.229L30.2846 74.142C29.9766 74.45 29.5916 74.6883 29.1296 74.857C28.675 75.0257 28.1836 75.11 27.6556 75.11ZM31.5782 75V67.245H32.7002V70.743H32.5902C32.7515 70.347 33.0045 70.0427 33.3492 69.83C33.6938 69.6173 34.0862 69.511 34.5262 69.511C34.9662 69.511 35.3255 69.5917 35.6042 69.753C35.8902 69.907 36.1028 70.1453 36.2422 70.468C36.3888 70.7907 36.4622 71.1977 36.4622 71.689V75H35.3292V71.755C35.3292 71.4543 35.2888 71.2087 35.2082 71.018C35.1348 70.82 35.0138 70.6733 34.8452 70.578C34.6838 70.4753 34.4748 70.424 34.2182 70.424C33.9175 70.424 33.6535 70.49 33.4262 70.622C33.1988 70.754 33.0228 70.9373 32.8982 71.172C32.7735 71.3993 32.7112 71.6633 32.7112 71.964V75H31.5782ZM40.0244 75.099C39.5844 75.099 39.2141 75.0183 38.9134 74.857C38.6201 74.6957 38.4001 74.4537 38.2534 74.131C38.1141 73.8083 38.0444 73.405 38.0444 72.921V69.61H39.1774V72.91C39.1774 73.1887 39.2141 73.4233 39.2874 73.614C39.3681 73.8047 39.4891 73.9477 39.6504 74.043C39.8191 74.1383 40.0318 74.186 40.2884 74.186C40.5744 74.186 40.8238 74.1237 41.0364 73.999C41.2491 73.867 41.4141 73.6837 41.5314 73.449C41.6561 73.2143 41.7184 72.9467 41.7184 72.646V69.61H42.8624V75H41.7624V73.823H41.8834C41.7221 74.2337 41.4801 74.549 41.1574 74.769C40.8348 74.989 40.4571 75.099 40.0244 75.099ZM42.6204 70.248L41.9934 69.841V69.61C42.2721 69.6027 42.4958 69.5623 42.6644 69.489C42.8331 69.4083 42.9504 69.28 43.0164 69.104C43.0898 68.928 43.1264 68.697 43.1264 68.411V68.213H44.1384V68.565C44.1384 68.8877 44.0761 69.17 43.9514 69.412C43.8341 69.654 43.6618 69.8483 43.4344 69.995C43.2071 70.1343 42.9358 70.2187 42.6204 70.248ZM46.8553 75.099C46.3126 75.099 45.8396 74.9853 45.4363 74.758C45.0403 74.5307 44.7323 74.208 44.5123 73.79C44.2923 73.3647 44.1823 72.8697 44.1823 72.305C44.1823 71.733 44.2923 71.238 44.5123 70.82C44.7323 70.402 45.0403 70.0793 45.4363 69.852C45.8396 69.6247 46.3126 69.511 46.8553 69.511C47.3979 69.511 47.8673 69.6247 48.2633 69.852C48.6666 70.0793 48.9783 70.402 49.1983 70.82C49.4183 71.238 49.5283 71.733 49.5283 72.305C49.5283 72.8697 49.4183 73.3647 49.1983 73.79C48.9783 74.208 48.6666 74.5307 48.2633 74.758C47.8673 74.9853 47.3979 75.099 46.8553 75.099ZM46.8553 74.208C47.3246 74.208 47.6986 74.043 47.9773 73.713C48.2559 73.383 48.3953 72.91 48.3953 72.294C48.3953 71.6853 48.2559 71.2197 47.9773 70.897C47.6986 70.5743 47.3246 70.413 46.8553 70.413C46.3859 70.413 46.0119 70.5743 45.7333 70.897C45.4546 71.2197 45.3153 71.6853 45.3153 72.294C45.3153 72.91 45.4546 73.383 45.7333 73.713C46.0119 74.043 46.3859 74.208 46.8553 74.208ZM48.1093 70.248L47.4823 69.841V69.61C47.7609 69.6027 47.9846 69.5623 48.1533 69.489C48.3219 69.4083 48.4393 69.28 48.5053 69.104C48.5786 68.928 48.6153 68.697 48.6153 68.411V68.213H49.6273V68.565C49.6273 68.8877 49.5649 69.17 49.4403 69.412C49.3229 69.654 49.1506 69.8483 48.9233 69.995C48.6959 70.1343 48.4246 70.2187 48.1093 70.248ZM50.8496 75V69.61H51.9386V70.754H51.8506C52.012 70.3507 52.265 70.0427 52.6096 69.83C52.9616 69.6173 53.3576 69.511 53.7976 69.511C54.2376 69.511 54.6006 69.5917 54.8866 69.753C55.1726 69.907 55.3853 70.1453 55.5246 70.468C55.664 70.7907 55.7336 71.1977 55.7336 71.689V75H54.6006V71.755C54.6006 71.4543 54.5603 71.2087 54.4796 71.018C54.4063 70.82 54.2853 70.6733 54.1166 70.578C53.9553 70.4753 53.7463 70.424 53.4896 70.424C53.189 70.424 52.925 70.49 52.6976 70.622C52.4703 70.754 52.2943 70.9373 52.1696 71.172C52.045 71.3993 51.9826 71.6633 51.9826 71.964V75H50.8496ZM59.7689 77.079C59.2996 77.079 58.8523 77.0203 58.4269 76.903C58.0089 76.7857 57.6386 76.6097 57.3159 76.375L57.6679 75.55C57.8733 75.6893 58.0859 75.8067 58.3059 75.902C58.5333 75.9973 58.7606 76.067 58.9879 76.111C59.2226 76.1623 59.4609 76.188 59.7029 76.188C60.2236 76.188 60.6196 76.056 60.8909 75.792C61.1623 75.528 61.2979 75.1467 61.2979 74.648V73.57H61.3639C61.2466 73.966 61.0119 74.2813 60.6599 74.516C60.3153 74.7433 59.9156 74.857 59.4609 74.857C58.9696 74.857 58.5406 74.747 58.1739 74.527C57.8073 74.2997 57.5249 73.9843 57.3269 73.581C57.1289 73.1777 57.0299 72.712 57.0299 72.184C57.0299 71.6487 57.1289 71.183 57.3269 70.787C57.5249 70.3837 57.8073 70.072 58.1739 69.852C58.5406 69.6247 58.9696 69.511 59.4609 69.511C59.9229 69.511 60.3263 69.6283 60.6709 69.863C61.0229 70.0977 61.2539 70.4093 61.3639 70.798H61.2869V69.61H62.3869V74.516C62.3869 75.0733 62.2843 75.5427 62.0789 75.924C61.8809 76.3053 61.5876 76.5913 61.1989 76.782C60.8103 76.98 60.3336 77.079 59.7689 77.079ZM59.7249 73.966C60.2016 73.966 60.5793 73.8047 60.8579 73.482C61.1366 73.1593 61.2759 72.7267 61.2759 72.184C61.2759 71.634 61.1366 71.2013 60.8579 70.886C60.5793 70.5633 60.2016 70.402 59.7249 70.402C59.2483 70.402 58.8669 70.5633 58.5809 70.886C58.3023 71.2013 58.1629 71.634 58.1629 72.184C58.1629 72.7267 58.3023 73.1593 58.5809 73.482C58.8669 73.8047 59.2483 73.966 59.7249 73.966ZM67.0837 75V74.142L69.6797 71.37C69.929 71.106 70.1233 70.864 70.2627 70.644C70.4093 70.424 70.5157 70.2113 70.5817 70.006C70.655 69.7933 70.6917 69.5843 70.6917 69.379C70.6917 68.9757 70.5633 68.6677 70.3067 68.455C70.0573 68.2423 69.6943 68.136 69.2177 68.136C68.851 68.136 68.499 68.2057 68.1617 68.345C67.8243 68.477 67.5017 68.686 67.1937 68.972L66.7867 68.092C67.0873 67.806 67.465 67.5787 67.9197 67.41C68.3743 67.234 68.8473 67.146 69.3387 67.146C69.874 67.146 70.325 67.2303 70.6917 67.399C71.0657 67.5603 71.348 67.8023 71.5387 68.125C71.7367 68.4403 71.8357 68.8253 71.8357 69.28C71.8357 69.5147 71.8063 69.742 71.7477 69.962C71.6963 70.182 71.612 70.402 71.4947 70.622C71.3847 70.842 71.2417 71.0693 71.0657 71.304C70.897 71.5313 70.6917 71.7697 70.4497 72.019L68.3047 74.285V74.032H72.1327V75H67.0837Z" fill="#667085"/>
<defs>
<filter id="filter0_d_8310_820" x="0" y="1" width="96" height="85.8462" filterUnits="userSpaceOnUse" color-interpolation-filters="sRGB">
<feFlood flood-opacity="0" result="BackgroundImageFix"/>
<feColorMatrix in="SourceAlpha" type="matrix" values="0 0 0 0 0 0 0 0 0 0 0 0 0 0 0 0 0 0 127 0" result="hardAlpha"/>
<feOffset dy="4"/>
<feGaussianBlur stdDeviation="2"/>
<feComposite in2="hardAlpha" operator="out"/>
<feColorMatrix type="matrix" values="0 0 0 0 0 0 0 0 0 0 0 0 0 0 0 0 0 0 0.25 0"/>
<feBlend mode="normal" in2="BackgroundImageFix" result="effect1_dropShadow_8310_820"/>
<feBlend mode="normal" in="SourceGraphic" in2="effect1_dropShadow_8310_820" result="shape"/>
</filter>
<clipPath id="clip0_8310_820">
<rect width="30" height="30" fill="white" transform="translate(33)"/>
</clipPath>
</defs>
</svg>
