<svg width="96" height="87" viewBox="0 0 96 87" fill="none" xmlns="http://www.w3.org/2000/svg">
<g filter="url(#filter0_d_8310_792)">
<path d="M5.37285 43.5185C4.62083 42.2089 4.24484 41.5536 4.09767 40.8574C3.96744 40.2412 3.96744 39.6048 4.09767 38.9886C4.24484 38.2924 4.62083 37.6371 5.37285 36.3274L23.5901 4.59555C24.3421 3.28569 24.7181 2.63076 25.2442 2.15444C25.7096 1.733 26.2579 1.41461 26.8535 1.22C27.5267 1 28.2787 1 29.7827 1H66.2171C67.7214 1 68.4731 1 69.1466 1.22C69.7419 1.41461 70.2903 1.733 70.756 2.15444C71.282 2.63076 71.6578 3.28569 72.41 4.59555L90.6271 36.3274C91.3792 37.6371 91.7551 38.2924 91.9021 38.9886C92.0326 39.6048 92.0326 40.2412 91.9021 40.8574C91.7551 41.5536 91.3792 42.2089 90.6271 43.5185L72.41 75.2506C71.6578 76.5603 71.282 77.2151 70.756 77.6915C70.2903 78.1131 69.7419 78.4313 69.1466 78.6259C68.4731 78.8462 67.7214 78.8462 66.2171 78.8462H29.7827C28.2787 78.8462 27.5267 78.8462 26.8535 78.6259C26.2579 78.4313 25.7096 78.1131 25.2442 77.6915C24.7181 77.2151 24.3421 76.5603 23.5901 75.2506L5.37285 43.5185Z" fill="white"/>
</g>
<g clip-path="url(#clip0_8310_792)">
<path d="M38 22.5H44.875V24.0625C44.875 24.9742 44.5128 25.8485 43.8682 26.4932C43.2235 27.1378 42.3492 27.5 41.4375 27.5C40.5258 27.5 39.6515 27.1378 39.0068 26.4932C38.3622 25.8485 38 24.9742 38 24.0625V22.5ZM43 7.64998C45.5 7.64998 46.75 11.25 46.75 13.75C46.75 15 46.125 16.25 45.5 18.125L44.875 20H38C38 18.75 37.375 16.875 37.375 13.75C37.375 10.625 39.8725 7.64998 43 7.64998ZM58.0675 17.6225L57.7962 19.1612C57.6379 20.0592 57.1294 20.8574 56.3826 21.3804C55.6357 21.9034 54.7117 22.1083 53.8137 21.95C52.9158 21.7917 52.1176 21.2832 51.5946 20.5363C51.0716 19.7894 50.8667 18.8654 51.025 17.9675L51.2975 16.43L58.0675 17.6225ZM55.7225 2.13123C58.8025 2.67373 60.745 6.03623 60.2025 9.11373C59.66 12.1925 58.7188 13.93 58.5025 15.1612L51.7312 13.9675L51.4412 12.0125C51.1512 10.0575 50.7537 8.71748 50.97 7.48748C51.4038 5.02498 53.26 1.69748 55.7225 2.13123Z" fill="#F2BB41"/>
</g>
<path d="M15.8668 43V34.54H16.8148L21.9628 41.332H21.6628V34.54H22.8148V43H21.8908L16.7428 36.208H17.0188V43H15.8668ZM24.6528 43V34.54H25.8648V38.392H25.6968C25.8728 37.944 26.1488 37.608 26.5248 37.384C26.9008 37.152 27.3328 37.036 27.8208 37.036C28.2848 37.036 28.6688 37.124 28.9728 37.3C29.2848 37.468 29.5168 37.728 29.6688 38.08C29.8208 38.424 29.8968 38.86 29.8968 39.388V43H28.6848V39.46C28.6848 39.124 28.6408 38.852 28.5528 38.644C28.4648 38.428 28.3328 38.268 28.1568 38.164C27.9808 38.06 27.7528 38.008 27.4728 38.008C27.1528 38.008 26.8688 38.076 26.6208 38.212C26.3808 38.348 26.1928 38.544 26.0568 38.8C25.9288 39.056 25.8648 39.352 25.8648 39.688V43H24.6528ZM33.6548 43.108C33.1828 43.108 32.7868 43.02 32.4668 42.844C32.1548 42.668 31.9188 42.408 31.7588 42.064C31.6068 41.712 31.5308 41.272 31.5308 40.744V37.144H32.7428V40.756C32.7428 41.068 32.7828 41.328 32.8628 41.536C32.9508 41.744 33.0828 41.896 33.2588 41.992C33.4428 42.088 33.6708 42.136 33.9428 42.136C34.2468 42.136 34.5148 42.068 34.7468 41.932C34.9788 41.796 35.1588 41.6 35.2868 41.344C35.4148 41.088 35.4788 40.792 35.4788 40.456V37.144H36.6908V43H35.5148V41.716H35.6708C35.5108 42.164 35.2548 42.508 34.9028 42.748C34.5508 42.988 34.1348 43.108 33.6548 43.108ZM36.4268 37.828L35.7668 37.396V37.144C36.0708 37.136 36.3148 37.092 36.4988 37.012C36.6828 36.924 36.8148 36.784 36.8948 36.592C36.9748 36.4 37.0148 36.144 37.0148 35.824V35.608H38.0708V35.992C38.0708 36.344 38.0028 36.652 37.8668 36.916C37.7388 37.18 37.5508 37.392 37.3028 37.552C37.0628 37.712 36.7708 37.804 36.4268 37.828ZM32.5388 35.956L31.8908 35.908C31.9388 35.372 32.0748 34.96 32.2988 34.672C32.5308 34.376 32.8268 34.228 33.1868 34.228C33.3388 34.228 33.4828 34.264 33.6188 34.336C33.7548 34.4 33.9268 34.52 34.1348 34.696C34.3028 34.848 34.4348 34.952 34.5308 35.008C34.6348 35.064 34.7388 35.092 34.8428 35.092C35.0428 35.092 35.1988 35.016 35.3108 34.864C35.4308 34.704 35.5148 34.48 35.5628 34.192L36.1988 34.228C36.1588 34.764 36.0228 35.18 35.7908 35.476C35.5668 35.764 35.2788 35.908 34.9268 35.908C34.7588 35.908 34.5988 35.872 34.4468 35.8C34.3028 35.72 34.1388 35.6 33.9548 35.44C33.7948 35.288 33.6588 35.188 33.5468 35.14C33.4428 35.084 33.3428 35.056 33.2468 35.056C33.0548 35.056 32.8988 35.132 32.7788 35.284C32.6588 35.436 32.5788 35.66 32.5388 35.956ZM38.4692 43V37.144H39.6452V38.392H39.5132C39.6892 37.944 39.9652 37.608 40.3412 37.384C40.7172 37.152 41.1492 37.036 41.6372 37.036C42.1012 37.036 42.4852 37.124 42.7892 37.3C43.1012 37.468 43.3332 37.728 43.4852 38.08C43.6372 38.424 43.7132 38.86 43.7132 39.388V43H42.5012V39.46C42.5012 39.124 42.4572 38.852 42.3692 38.644C42.2812 38.428 42.1492 38.268 41.9732 38.164C41.7972 38.06 41.5692 38.008 41.2892 38.008C40.9692 38.008 40.6852 38.076 40.4372 38.212C40.1972 38.348 40.0092 38.544 39.8732 38.8C39.7452 39.056 39.6812 39.352 39.6812 39.688V43H38.4692ZM48.0353 45.268C47.5073 45.268 47.0153 45.204 46.5593 45.076C46.1033 44.948 45.6993 44.756 45.3473 44.5L45.7193 43.636C45.9513 43.788 46.1873 43.916 46.4273 44.02C46.6753 44.132 46.9233 44.212 47.1713 44.26C47.4273 44.308 47.6873 44.332 47.9513 44.332C48.5113 44.332 48.9313 44.188 49.2113 43.9C49.4913 43.62 49.6313 43.204 49.6313 42.652V41.428H49.7393C49.6193 41.868 49.3673 42.216 48.9833 42.472C48.5993 42.728 48.1553 42.856 47.6513 42.856C47.1233 42.856 46.6633 42.736 46.2713 42.496C45.8793 42.248 45.5753 41.908 45.3593 41.476C45.1433 41.036 45.0353 40.524 45.0353 39.94C45.0353 39.356 45.1433 38.848 45.3593 38.416C45.5753 37.984 45.8793 37.648 46.2713 37.408C46.6633 37.16 47.1233 37.036 47.6513 37.036C48.1633 37.036 48.6073 37.164 48.9833 37.42C49.3673 37.676 49.6153 38.024 49.7273 38.464H49.6313V37.144H50.8073V42.508C50.8073 43.116 50.7033 43.624 50.4953 44.032C50.2873 44.448 49.9753 44.756 49.5593 44.956C49.1513 45.164 48.6433 45.268 48.0353 45.268ZM47.9393 41.908C48.4593 41.908 48.8673 41.732 49.1633 41.38C49.4673 41.028 49.6193 40.548 49.6193 39.94C49.6193 39.34 49.4673 38.864 49.1633 38.512C48.8673 38.16 48.4593 37.984 47.9393 37.984C47.4273 37.984 47.0193 38.16 46.7153 38.512C46.4113 38.864 46.2593 39.34 46.2593 39.94C46.2593 40.548 46.4113 41.028 46.7153 41.38C47.0193 41.732 47.4273 41.908 47.9393 41.908ZM58.8046 43.108C58.2926 43.108 57.8486 42.98 57.4726 42.724C57.0966 42.46 56.8446 42.112 56.7166 41.68H56.8486V43H55.6606V34.54H56.8726V38.428H56.7286C56.8566 38.004 57.1086 37.668 57.4846 37.42C57.8606 37.164 58.3006 37.036 58.8046 37.036C59.3326 37.036 59.7886 37.16 60.1726 37.408C60.5566 37.656 60.8526 38.004 61.0606 38.452C61.2766 38.9 61.3846 39.44 61.3846 40.072C61.3846 40.688 61.2766 41.228 61.0606 41.692C60.8526 42.148 60.5526 42.5 60.1606 42.748C59.7766 42.988 59.3246 43.108 58.8046 43.108ZM58.5046 42.172C59.0086 42.172 59.4086 41.992 59.7046 41.632C60.0086 41.272 60.1606 40.752 60.1606 40.072C60.1606 39.384 60.0086 38.864 59.7046 38.512C59.4086 38.16 59.0086 37.984 58.5046 37.984C58.0086 37.984 57.6086 38.16 57.3046 38.512C57.0006 38.864 56.8486 39.384 56.8486 40.072C56.8486 40.752 57.0006 41.272 57.3046 41.632C57.6086 41.992 58.0086 42.172 58.5046 42.172ZM64.8384 43.108C64.3664 43.108 63.9704 43.02 63.6504 42.844C63.3384 42.668 63.1024 42.408 62.9424 42.064C62.7904 41.712 62.7144 41.272 62.7144 40.744V37.144H63.9264V40.756C63.9264 41.068 63.9664 41.328 64.0464 41.536C64.1344 41.744 64.2664 41.896 64.4424 41.992C64.6264 42.088 64.8544 42.136 65.1264 42.136C65.4304 42.136 65.6984 42.068 65.9304 41.932C66.1624 41.796 66.3424 41.6 66.4704 41.344C66.5984 41.088 66.6624 40.792 66.6624 40.456V37.144H67.8744V43H66.6984V41.716H66.8544C66.6944 42.164 66.4384 42.508 66.0864 42.748C65.7344 42.988 65.3184 43.108 64.8384 43.108ZM67.6104 37.828L66.9504 37.396V37.144C67.2544 37.136 67.4984 37.092 67.6824 37.012C67.8664 36.924 67.9984 36.784 68.0784 36.592C68.1584 36.4 68.1984 36.144 68.1984 35.824V35.608H69.2544V35.992C69.2544 36.344 69.1864 36.652 69.0504 36.916C68.9224 37.18 68.7344 37.392 68.4864 37.552C68.2464 37.712 67.9544 37.804 67.6104 37.828ZM72.1265 43.108C71.5345 43.108 71.0225 42.984 70.5905 42.736C70.1665 42.488 69.8345 42.136 69.5945 41.68C69.3545 41.224 69.2345 40.688 69.2345 40.072C69.2345 39.448 69.3545 38.912 69.5945 38.464C69.8345 38.008 70.1665 37.656 70.5905 37.408C71.0225 37.16 71.5345 37.036 72.1265 37.036C72.7105 37.036 73.2145 37.16 73.6385 37.408C74.0705 37.656 74.4065 38.008 74.6465 38.464C74.8865 38.92 75.0065 39.456 75.0065 40.072C75.0065 40.688 74.8865 41.224 74.6465 41.68C74.4065 42.136 74.0705 42.488 73.6385 42.736C73.2145 42.984 72.7105 43.108 72.1265 43.108ZM72.1145 42.172C72.6185 42.172 73.0225 41.992 73.3265 41.632C73.6305 41.272 73.7825 40.752 73.7825 40.072C73.7825 39.384 73.6305 38.864 73.3265 38.512C73.0225 38.16 72.6185 37.984 72.1145 37.984C71.6185 37.984 71.2185 38.16 70.9145 38.512C70.6105 38.864 70.4585 39.384 70.4585 40.072C70.4585 40.752 70.6105 41.272 70.9145 41.632C71.2185 41.992 71.6185 42.172 72.1145 42.172ZM73.4465 37.828L72.7865 37.396V37.144C73.0905 37.136 73.3345 37.092 73.5185 37.012C73.7025 36.924 73.8345 36.784 73.9145 36.592C73.9945 36.4 74.0345 36.144 74.0345 35.824V35.608H75.0905V35.992C75.0905 36.344 75.0225 36.652 74.8865 36.916C74.7585 37.18 74.5705 37.392 74.3225 37.552C74.0825 37.712 73.7905 37.804 73.4465 37.828ZM71.6945 36.364L72.9305 33.94H74.1665L72.5345 36.364H71.6945ZM78.9476 43.108C78.3476 43.108 77.8276 42.984 77.3876 42.736C76.9556 42.48 76.6196 42.124 76.3796 41.668C76.1396 41.204 76.0196 40.66 76.0196 40.036C76.0196 39.42 76.1396 38.888 76.3796 38.44C76.6196 37.992 76.9556 37.648 77.3876 37.408C77.8276 37.16 78.3476 37.036 78.9476 37.036C79.3156 37.036 79.6796 37.1 80.0396 37.228C80.3996 37.348 80.6956 37.524 80.9276 37.756L80.5436 38.608C80.3276 38.4 80.0836 38.248 79.8116 38.152C79.5396 38.048 79.2836 37.996 79.0436 37.996C78.4756 37.996 78.0356 38.176 77.7236 38.536C77.4196 38.888 77.2676 39.392 77.2676 40.048C77.2676 40.704 77.4196 41.22 77.7236 41.596C78.0356 41.964 78.4756 42.148 79.0436 42.148C79.2836 42.148 79.5396 42.1 79.8116 42.004C80.0836 41.9 80.3276 41.744 80.5436 41.536L80.9276 42.4C80.6956 42.616 80.3956 42.788 80.0276 42.916C79.6676 43.044 79.3076 43.108 78.9476 43.108ZM29.0062 59.108C28.4942 59.108 28.0422 58.988 27.6502 58.748C27.2662 58.5 26.9662 58.148 26.7502 57.692C26.5342 57.228 26.4262 56.688 26.4262 56.072C26.4262 55.44 26.5302 54.9 26.7382 54.452C26.9542 54.004 27.2542 53.656 27.6382 53.408C28.0302 53.16 28.4862 53.036 29.0062 53.036C29.5182 53.036 29.9582 53.164 30.3262 53.42C30.7022 53.668 30.9542 54.004 31.0822 54.428H30.9502V52.412H28.6462V51.536H30.9502V50.54H32.1622V51.536H33.2302V52.412H32.1622V59H30.9502V57.68H31.0822C30.9622 58.112 30.7142 58.46 30.3382 58.724C29.9622 58.98 29.5182 59.108 29.0062 59.108ZM29.3062 58.172C29.8102 58.172 30.2102 57.992 30.5062 57.632C30.8102 57.272 30.9622 56.752 30.9622 56.072C30.9622 55.384 30.8102 54.864 30.5062 54.512C30.2102 54.16 29.8102 53.984 29.3062 53.984C28.9782 53.984 28.6862 54.064 28.4302 54.224C28.1822 54.376 27.9902 54.608 27.8542 54.92C27.7182 55.232 27.6502 55.616 27.6502 56.072C27.6502 56.752 27.8022 57.272 28.1062 57.632C28.4102 57.992 28.8102 58.172 29.3062 58.172ZM35.724 59.108C35.316 59.108 34.948 59.028 34.62 58.868C34.3 58.708 34.048 58.492 33.864 58.22C33.68 57.948 33.588 57.64 33.588 57.296C33.588 56.864 33.696 56.524 33.912 56.276C34.136 56.02 34.5 55.84 35.004 55.736C35.516 55.624 36.204 55.568 37.068 55.568H37.632V56.312H37.08C36.648 56.312 36.284 56.328 35.988 56.36C35.692 56.392 35.456 56.444 35.28 56.516C35.104 56.58 34.976 56.672 34.896 56.792C34.824 56.912 34.788 57.056 34.788 57.224C34.788 57.528 34.892 57.776 35.1 57.968C35.308 58.152 35.596 58.244 35.964 58.244C36.26 58.244 36.52 58.176 36.744 58.04C36.968 57.896 37.144 57.704 37.272 57.464C37.408 57.224 37.476 56.948 37.476 56.636V55.256C37.476 54.8 37.38 54.472 37.188 54.272C36.996 54.072 36.68 53.972 36.24 53.972C35.904 53.972 35.568 54.024 35.232 54.128C34.896 54.224 34.552 54.38 34.2 54.596L33.828 53.744C34.036 53.6 34.276 53.476 34.548 53.372C34.82 53.268 35.104 53.188 35.4 53.132C35.704 53.068 35.996 53.036 36.276 53.036C36.812 53.036 37.252 53.12 37.596 53.288C37.948 53.456 38.208 53.712 38.376 54.056C38.544 54.4 38.628 54.844 38.628 55.388V59H37.488V57.692H37.596C37.532 57.988 37.412 58.244 37.236 58.46C37.068 58.668 36.856 58.828 36.6 58.94C36.344 59.052 36.052 59.108 35.724 59.108ZM34.428 52.364L35.748 50.42H36.852L38.172 52.364H37.368L36.3 51.128L35.232 52.364H34.428ZM37.98 51.116L36.624 49.316H37.704L38.724 51.116H37.98ZM42.3853 59.108C41.9133 59.108 41.5173 59.02 41.1973 58.844C40.8853 58.668 40.6493 58.408 40.4893 58.064C40.3373 57.712 40.2613 57.272 40.2613 56.744V53.144H41.4733V56.756C41.4733 57.068 41.5133 57.328 41.5933 57.536C41.6813 57.744 41.8133 57.896 41.9893 57.992C42.1733 58.088 42.4013 58.136 42.6733 58.136C42.9773 58.136 43.2453 58.068 43.4773 57.932C43.7093 57.796 43.8893 57.6 44.0173 57.344C44.1453 57.088 44.2093 56.792 44.2093 56.456V53.144H45.4213V59H44.2453V57.716H44.4013C44.2413 58.164 43.9853 58.508 43.6333 58.748C43.2813 58.988 42.8653 59.108 42.3853 59.108ZM52.7777 59.108C52.0497 59.108 51.5017 58.92 51.1337 58.544C50.7737 58.168 50.5937 57.624 50.5937 56.912V54.08H49.4537V53.144H50.5937V51.38H51.8057V53.144H53.6177V54.08H51.8057V56.816C51.8057 57.24 51.8937 57.56 52.0697 57.776C52.2537 57.992 52.5497 58.1 52.9577 58.1C53.0777 58.1 53.1977 58.084 53.3177 58.052C53.4457 58.02 53.5697 57.988 53.6897 57.956L53.8817 58.868C53.7617 58.94 53.5937 58.996 53.3777 59.036C53.1697 59.084 52.9697 59.108 52.7777 59.108ZM54.5565 51.788V50.528H55.9725V51.788H54.5565ZM54.6645 59V53.144H55.8765V59H54.6645ZM60.3305 59.108C59.6905 59.108 59.1385 58.988 58.6745 58.748C58.2185 58.5 57.8625 58.152 57.6065 57.704C57.3585 57.248 57.2345 56.708 57.2345 56.084C57.2345 55.476 57.3585 54.944 57.6065 54.488C57.8545 54.032 58.1945 53.676 58.6265 53.42C59.0585 53.164 59.5505 53.036 60.1025 53.036C60.6465 53.036 61.1105 53.156 61.4945 53.396C61.8865 53.628 62.1865 53.96 62.3945 54.392C62.6025 54.824 62.7065 55.34 62.7065 55.94V56.348H58.1945V55.604H61.8905L61.6865 55.772C61.6865 55.172 61.5545 54.708 61.2905 54.38C61.0265 54.052 60.6465 53.888 60.1505 53.888C59.7745 53.888 59.4545 53.976 59.1905 54.152C58.9345 54.328 58.7385 54.572 58.6025 54.884C58.4665 55.196 58.3985 55.56 58.3985 55.976V56.048C58.3985 56.512 58.4705 56.904 58.6145 57.224C58.7665 57.536 58.9865 57.772 59.2745 57.932C59.5625 58.092 59.9185 58.172 60.3425 58.172C60.6785 58.172 61.0065 58.12 61.3265 58.016C61.6545 57.904 61.9625 57.732 62.2505 57.5L62.6105 58.34C62.3465 58.58 62.0065 58.768 61.5905 58.904C61.1745 59.04 60.7545 59.108 60.3305 59.108ZM58.2425 52.364L59.5625 49.94H60.6665L61.9865 52.364H61.1825L60.1145 50.684L59.0465 52.364H58.2425ZM64.0278 59V53.144H65.2038V54.392H65.0718C65.2478 53.944 65.5238 53.608 65.8998 53.384C66.2758 53.152 66.7078 53.036 67.1958 53.036C67.6598 53.036 68.0438 53.124 68.3478 53.3C68.6598 53.468 68.8918 53.728 69.0438 54.08C69.1958 54.424 69.2718 54.86 69.2718 55.388V59H68.0598V55.46C68.0598 55.124 68.0158 54.852 67.9278 54.644C67.8398 54.428 67.7078 54.268 67.5318 54.164C67.3558 54.06 67.1278 54.008 66.8478 54.008C66.5278 54.008 66.2438 54.076 65.9958 54.212C65.7558 54.348 65.5678 54.544 65.4318 54.8C65.3038 55.056 65.2398 55.352 65.2398 55.688V59H64.0278Z" fill="black"/>
<path d="M27.6556 75.11C26.8783 75.11 26.211 74.9487 25.6536 74.626C25.0963 74.296 24.6673 73.834 24.3666 73.24C24.066 72.646 23.9156 71.9383 23.9156 71.117C23.9156 70.2957 24.066 69.5917 24.3666 69.005C24.6673 68.411 25.0963 67.9527 25.6536 67.63C26.211 67.3073 26.8783 67.146 27.6556 67.146C28.1836 67.146 28.675 67.2267 29.1296 67.388C29.5916 67.5493 29.9766 67.7877 30.2846 68.103L29.8776 69.016C29.5403 68.7227 29.1956 68.51 28.8436 68.378C28.4916 68.246 28.1066 68.18 27.6886 68.18C26.8673 68.18 26.2366 68.433 25.7966 68.939C25.3566 69.445 25.1366 70.171 25.1366 71.117C25.1366 72.063 25.3566 72.7927 25.7966 73.306C26.2366 73.812 26.8673 74.065 27.6886 74.065C28.1066 74.065 28.4916 73.999 28.8436 73.867C29.1956 73.735 29.5403 73.5223 29.8776 73.229L30.2846 74.142C29.9766 74.45 29.5916 74.6883 29.1296 74.857C28.675 75.0257 28.1836 75.11 27.6556 75.11ZM31.5782 75V67.245H32.7002V70.743H32.5902C32.7515 70.347 33.0045 70.0427 33.3492 69.83C33.6938 69.6173 34.0862 69.511 34.5262 69.511C34.9662 69.511 35.3255 69.5917 35.6042 69.753C35.8902 69.907 36.1028 70.1453 36.2422 70.468C36.3888 70.7907 36.4622 71.1977 36.4622 71.689V75H35.3292V71.755C35.3292 71.4543 35.2888 71.2087 35.2082 71.018C35.1348 70.82 35.0138 70.6733 34.8452 70.578C34.6838 70.4753 34.4748 70.424 34.2182 70.424C33.9175 70.424 33.6535 70.49 33.4262 70.622C33.1988 70.754 33.0228 70.9373 32.8982 71.172C32.7735 71.3993 32.7112 71.6633 32.7112 71.964V75H31.5782ZM40.0244 75.099C39.5844 75.099 39.2141 75.0183 38.9134 74.857C38.6201 74.6957 38.4001 74.4537 38.2534 74.131C38.1141 73.8083 38.0444 73.405 38.0444 72.921V69.61H39.1774V72.91C39.1774 73.1887 39.2141 73.4233 39.2874 73.614C39.3681 73.8047 39.4891 73.9477 39.6504 74.043C39.8191 74.1383 40.0318 74.186 40.2884 74.186C40.5744 74.186 40.8238 74.1237 41.0364 73.999C41.2491 73.867 41.4141 73.6837 41.5314 73.449C41.6561 73.2143 41.7184 72.9467 41.7184 72.646V69.61H42.8624V75H41.7624V73.823H41.8834C41.7221 74.2337 41.4801 74.549 41.1574 74.769C40.8348 74.989 40.4571 75.099 40.0244 75.099ZM42.6204 70.248L41.9934 69.841V69.61C42.2721 69.6027 42.4958 69.5623 42.6644 69.489C42.8331 69.4083 42.9504 69.28 43.0164 69.104C43.0898 68.928 43.1264 68.697 43.1264 68.411V68.213H44.1384V68.565C44.1384 68.8877 44.0761 69.17 43.9514 69.412C43.8341 69.654 43.6618 69.8483 43.4344 69.995C43.2071 70.1343 42.9358 70.2187 42.6204 70.248ZM46.8553 75.099C46.3126 75.099 45.8396 74.9853 45.4363 74.758C45.0403 74.5307 44.7323 74.208 44.5123 73.79C44.2923 73.3647 44.1823 72.8697 44.1823 72.305C44.1823 71.733 44.2923 71.238 44.5123 70.82C44.7323 70.402 45.0403 70.0793 45.4363 69.852C45.8396 69.6247 46.3126 69.511 46.8553 69.511C47.3979 69.511 47.8673 69.6247 48.2633 69.852C48.6666 70.0793 48.9783 70.402 49.1983 70.82C49.4183 71.238 49.5283 71.733 49.5283 72.305C49.5283 72.8697 49.4183 73.3647 49.1983 73.79C48.9783 74.208 48.6666 74.5307 48.2633 74.758C47.8673 74.9853 47.3979 75.099 46.8553 75.099ZM46.8553 74.208C47.3246 74.208 47.6986 74.043 47.9773 73.713C48.2559 73.383 48.3953 72.91 48.3953 72.294C48.3953 71.6853 48.2559 71.2197 47.9773 70.897C47.6986 70.5743 47.3246 70.413 46.8553 70.413C46.3859 70.413 46.0119 70.5743 45.7333 70.897C45.4546 71.2197 45.3153 71.6853 45.3153 72.294C45.3153 72.91 45.4546 73.383 45.7333 73.713C46.0119 74.043 46.3859 74.208 46.8553 74.208ZM48.1093 70.248L47.4823 69.841V69.61C47.7609 69.6027 47.9846 69.5623 48.1533 69.489C48.3219 69.4083 48.4393 69.28 48.5053 69.104C48.5786 68.928 48.6153 68.697 48.6153 68.411V68.213H49.6273V68.565C49.6273 68.8877 49.5649 69.17 49.4403 69.412C49.3229 69.654 49.1506 69.8483 48.9233 69.995C48.6959 70.1343 48.4246 70.2187 48.1093 70.248ZM50.8496 75V69.61H51.9386V70.754H51.8506C52.012 70.3507 52.265 70.0427 52.6096 69.83C52.9616 69.6173 53.3576 69.511 53.7976 69.511C54.2376 69.511 54.6006 69.5917 54.8866 69.753C55.1726 69.907 55.3853 70.1453 55.5246 70.468C55.664 70.7907 55.7336 71.1977 55.7336 71.689V75H54.6006V71.755C54.6006 71.4543 54.5603 71.2087 54.4796 71.018C54.4063 70.82 54.2853 70.6733 54.1166 70.578C53.9553 70.4753 53.7463 70.424 53.4896 70.424C53.189 70.424 52.925 70.49 52.6976 70.622C52.4703 70.754 52.2943 70.9373 52.1696 71.172C52.045 71.3993 51.9826 71.6633 51.9826 71.964V75H50.8496ZM59.7689 77.079C59.2996 77.079 58.8523 77.0203 58.4269 76.903C58.0089 76.7857 57.6386 76.6097 57.3159 76.375L57.6679 75.55C57.8733 75.6893 58.0859 75.8067 58.3059 75.902C58.5333 75.9973 58.7606 76.067 58.9879 76.111C59.2226 76.1623 59.4609 76.188 59.7029 76.188C60.2236 76.188 60.6196 76.056 60.8909 75.792C61.1623 75.528 61.2979 75.1467 61.2979 74.648V73.57H61.3639C61.2466 73.966 61.0119 74.2813 60.6599 74.516C60.3153 74.7433 59.9156 74.857 59.4609 74.857C58.9696 74.857 58.5406 74.747 58.1739 74.527C57.8073 74.2997 57.5249 73.9843 57.3269 73.581C57.1289 73.1777 57.0299 72.712 57.0299 72.184C57.0299 71.6487 57.1289 71.183 57.3269 70.787C57.5249 70.3837 57.8073 70.072 58.1739 69.852C58.5406 69.6247 58.9696 69.511 59.4609 69.511C59.9229 69.511 60.3263 69.6283 60.6709 69.863C61.0229 70.0977 61.2539 70.4093 61.3639 70.798H61.2869V69.61H62.3869V74.516C62.3869 75.0733 62.2843 75.5427 62.0789 75.924C61.8809 76.3053 61.5876 76.5913 61.1989 76.782C60.8103 76.98 60.3336 77.079 59.7689 77.079ZM59.7249 73.966C60.2016 73.966 60.5793 73.8047 60.8579 73.482C61.1366 73.1593 61.2759 72.7267 61.2759 72.184C61.2759 71.634 61.1366 71.2013 60.8579 70.886C60.5793 70.5633 60.2016 70.402 59.7249 70.402C59.2483 70.402 58.8669 70.5633 58.5809 70.886C58.3023 71.2013 58.1629 71.634 58.1629 72.184C58.1629 72.7267 58.3023 73.1593 58.5809 73.482C58.8669 73.8047 59.2483 73.966 59.7249 73.966ZM67.3807 75V74.032H69.2067V68.213L69.7897 68.224L67.7657 69.489L67.2927 68.631L69.5367 67.245H70.3617V74.032H72.0667V75H67.3807Z" fill="#667085"/>
<defs>
<filter id="filter0_d_8310_792" x="0" y="1" width="96" height="85.8462" filterUnits="userSpaceOnUse" color-interpolation-filters="sRGB">
<feFlood flood-opacity="0" result="BackgroundImageFix"/>
<feColorMatrix in="SourceAlpha" type="matrix" values="0 0 0 0 0 0 0 0 0 0 0 0 0 0 0 0 0 0 127 0" result="hardAlpha"/>
<feOffset dy="4"/>
<feGaussianBlur stdDeviation="2"/>
<feComposite in2="hardAlpha" operator="out"/>
<feColorMatrix type="matrix" values="0 0 0 0 0 0 0 0 0 0 0 0 0 0 0 0 0 0 0.25 0"/>
<feBlend mode="normal" in2="BackgroundImageFix" result="effect1_dropShadow_8310_792"/>
<feBlend mode="normal" in="SourceGraphic" in2="effect1_dropShadow_8310_792" result="shape"/>
</filter>
<clipPath id="clip0_8310_792">
<rect width="30" height="30" fill="white" transform="translate(33)"/>
</clipPath>
</defs>
</svg>
