<svg width="96" height="88" viewBox="0 0 96 88" fill="none" xmlns="http://www.w3.org/2000/svg">
<g filter="url(#filter0_d_8310_938)">
<path d="M5.37285 44.5185C4.62083 43.2089 4.24484 42.5536 4.09767 41.8574C3.96744 41.2412 3.96744 40.6048 4.09767 39.9886C4.24484 39.2924 4.62083 38.6371 5.37285 37.3274L23.5901 5.59555C24.3421 4.28569 24.7181 3.63076 25.2442 3.15444C25.7096 2.733 26.2579 2.41461 26.8535 2.22C27.5267 2 28.2787 2 29.7827 2H66.2171C67.7214 2 68.4731 2 69.1466 2.22C69.7419 2.41461 70.2903 2.733 70.756 3.15444C71.282 3.63076 71.6578 4.28569 72.41 5.59555L90.6271 37.3274C91.3792 38.6371 91.7551 39.2924 91.9021 39.9886C92.0326 40.6048 92.0326 41.2412 91.9021 41.8574C91.7551 42.5536 91.3792 43.2089 90.6271 44.5185L72.41 76.2506C71.6578 77.5603 71.282 78.2151 70.756 78.6915C70.2903 79.1131 69.7419 79.4313 69.1466 79.6259C68.4731 79.8462 67.7214 79.8462 66.2171 79.8462H29.7827C28.2787 79.8462 27.5267 79.8462 26.8535 79.6259C26.2579 79.4313 25.7096 79.1131 25.2442 78.6915C24.7181 78.2151 24.3421 77.5603 23.5901 76.2506L5.37285 44.5185Z" fill="white"/>
</g>
<path d="M46.5432 27.1574L36.0476 16.6618C35.1147 15.7288 35.1147 14.2711 36.0476 13.3382L46.5432 2.84253C47.4762 1.90959 48.9339 1.90959 49.8669 2.84253L60.3625 13.3382C61.2954 14.2711 61.2954 15.7288 60.3625 16.6618L49.8669 27.1574C48.9339 28.0903 47.4179 28.0903 46.5432 27.1574Z" fill="#F2BB41"/>
<path d="M46.7765 20.1021C46.7765 19.9272 46.8348 19.7523 46.8931 19.5773C46.9514 19.4024 47.068 19.2858 47.1847 19.1692C47.3013 19.0526 47.4762 18.9359 47.6511 18.8776C47.8261 18.8193 48.001 18.761 48.2342 18.761C48.4675 18.761 48.6424 18.8193 48.8173 18.8776C48.9922 18.9359 49.1672 19.0526 49.2838 19.1692C49.4004 19.2858 49.517 19.4024 49.5753 19.5773C49.6336 19.7523 49.6919 19.9272 49.6919 20.1021C49.6919 20.277 49.6336 20.452 49.5753 20.6269C49.517 20.8018 49.4004 20.9184 49.2838 21.0351C49.1672 21.1517 48.9922 21.2683 48.8173 21.3266C48.6424 21.3849 48.4675 21.4432 48.2342 21.4432C48.001 21.4432 47.8261 21.3849 47.6511 21.3266C47.4762 21.2683 47.3596 21.1517 47.1847 21.0351C47.068 20.9184 46.9514 20.8018 46.8931 20.6269C46.8348 20.452 46.7765 20.3353 46.7765 20.1021ZM49.2255 17.4199H47.1263L46.8348 8.61523H49.517L49.2255 17.4199Z" fill="#E08838"/>
<path d="M27.7126 43.108C26.5846 43.108 25.7206 42.812 25.1206 42.22C24.5286 41.628 24.2326 40.752 24.2326 39.592V34.54H25.4806V39.568C25.4806 40.392 25.6686 41.008 26.0446 41.416C26.4286 41.824 26.9846 42.028 27.7126 42.028C28.4486 42.028 29.0046 41.824 29.3806 41.416C29.7566 41.008 29.9446 40.392 29.9446 39.568V34.54H31.1686V39.592C31.1686 40.752 30.8766 41.628 30.2926 42.22C29.7086 42.812 28.8486 43.108 27.7126 43.108ZM30.8926 35.212L30.2326 34.792V34.54C30.5526 34.532 30.8006 34.488 30.9766 34.408C31.1606 34.32 31.2886 34.18 31.3606 33.988C31.4406 33.788 31.4806 33.532 31.4806 33.22V33.004H32.5486V33.388C32.5486 33.74 32.4806 34.048 32.3446 34.312C32.2166 34.576 32.0286 34.788 31.7806 34.948C31.5326 35.1 31.2366 35.188 30.8926 35.212ZM35.0494 43.108C34.5774 43.108 34.1814 43.02 33.8614 42.844C33.5494 42.668 33.3134 42.408 33.1534 42.064C33.0014 41.712 32.9254 41.272 32.9254 40.744V37.144H34.1374V40.756C34.1374 41.068 34.1774 41.328 34.2574 41.536C34.3454 41.744 34.4774 41.896 34.6534 41.992C34.8374 42.088 35.0654 42.136 35.3374 42.136C35.6414 42.136 35.9094 42.068 36.1414 41.932C36.3734 41.796 36.5534 41.6 36.6814 41.344C36.8094 41.088 36.8734 40.792 36.8734 40.456V37.144H38.0854V43H36.9094V41.716H37.0654C36.9054 42.164 36.6494 42.508 36.2974 42.748C35.9454 42.988 35.5294 43.108 35.0494 43.108ZM45.4418 43.108C44.7138 43.108 44.1658 42.92 43.7978 42.544C43.4378 42.168 43.2578 41.624 43.2578 40.912V38.08H42.1178V37.144H43.2578V35.38H44.4698V37.144H46.2818V38.08H44.4698V40.816C44.4698 41.24 44.5578 41.56 44.7338 41.776C44.9178 41.992 45.2138 42.1 45.6217 42.1C45.7418 42.1 45.8618 42.084 45.9818 42.052C46.1098 42.02 46.2338 41.988 46.3538 41.956L46.5458 42.868C46.4258 42.94 46.2578 42.996 46.0418 43.036C45.8338 43.084 45.6338 43.108 45.4418 43.108ZM47.2206 35.788V34.528H48.6366V35.788H47.2206ZM47.3286 43V37.144H48.5406V43H47.3286ZM52.9945 43.108C52.3545 43.108 51.8025 42.988 51.3385 42.748C50.8825 42.5 50.5265 42.152 50.2705 41.704C50.0225 41.248 49.8985 40.708 49.8985 40.084C49.8985 39.476 50.0225 38.944 50.2705 38.488C50.5185 38.032 50.8585 37.676 51.2905 37.42C51.7225 37.164 52.2145 37.036 52.7665 37.036C53.3105 37.036 53.7745 37.156 54.1585 37.396C54.5505 37.628 54.8505 37.96 55.0585 38.392C55.2665 38.824 55.3705 39.34 55.3705 39.94V40.348H50.8585V39.604H54.5545L54.3505 39.772C54.3505 39.172 54.2185 38.708 53.9545 38.38C53.6905 38.052 53.3105 37.888 52.8145 37.888C52.4385 37.888 52.1185 37.976 51.8545 38.152C51.5985 38.328 51.4025 38.572 51.2665 38.884C51.1305 39.196 51.0625 39.56 51.0625 39.976V40.048C51.0625 40.512 51.1345 40.904 51.2785 41.224C51.4305 41.536 51.6505 41.772 51.9385 41.932C52.2265 42.092 52.5825 42.172 53.0065 42.172C53.3425 42.172 53.6705 42.12 53.9905 42.016C54.3185 41.904 54.6265 41.732 54.9145 41.5L55.2745 42.34C55.0105 42.58 54.6705 42.768 54.2545 42.904C53.8385 43.04 53.4185 43.108 52.9945 43.108ZM50.9065 36.364L52.2265 33.94H53.3305L54.6505 36.364H53.8465L52.7785 34.684L51.7105 36.364H50.9065ZM56.6918 43V37.144H57.8678V38.392H57.7358C57.9118 37.944 58.1878 37.608 58.5638 37.384C58.9398 37.152 59.3718 37.036 59.8598 37.036C60.3238 37.036 60.7078 37.124 61.0118 37.3C61.3238 37.468 61.5558 37.728 61.7078 38.08C61.8598 38.424 61.9358 38.86 61.9358 39.388V43H60.7238V39.46C60.7238 39.124 60.6798 38.852 60.5918 38.644C60.5038 38.428 60.3718 38.268 60.1958 38.164C60.0198 38.06 59.7918 38.008 59.5118 38.008C59.1918 38.008 58.9078 38.076 58.6598 38.212C58.4198 38.348 58.2318 38.544 58.0958 38.8C57.9678 39.056 57.9038 39.352 57.9038 39.688V43H56.6918ZM66.9263 43V42.076L69.7463 39.052C70.0103 38.764 70.2223 38.5 70.3823 38.26C70.5423 38.012 70.6583 37.776 70.7303 37.552C70.8103 37.32 70.8503 37.088 70.8503 36.856C70.8503 36.408 70.7143 36.068 70.4423 35.836C70.1703 35.604 69.7703 35.488 69.2423 35.488C68.8343 35.488 68.4463 35.564 68.0783 35.716C67.7183 35.868 67.3743 36.1 67.0463 36.412L66.6023 35.464C66.9223 35.152 67.3303 34.904 67.8263 34.72C68.3223 34.528 68.8383 34.432 69.3743 34.432C69.9583 34.432 70.4503 34.524 70.8503 34.708C71.2583 34.884 71.5663 35.144 71.7743 35.488C71.9823 35.832 72.0863 36.252 72.0863 36.748C72.0863 37.004 72.0543 37.256 71.9903 37.504C71.9343 37.744 71.8423 37.984 71.7143 38.224C71.5943 38.464 71.4383 38.712 71.2463 38.968C71.0623 39.224 70.8383 39.488 70.5743 39.76L68.1623 42.304V41.956H72.4223V43H66.9263Z" fill="black"/>
<path d="M27.8608 59.11C27.0834 59.11 26.4161 58.9487 25.8588 58.626C25.3014 58.296 24.8724 57.834 24.5718 57.24C24.2711 56.646 24.1208 55.9383 24.1208 55.117C24.1208 54.2957 24.2711 53.5917 24.5718 53.005C24.8724 52.411 25.3014 51.9527 25.8588 51.63C26.4161 51.3073 27.0834 51.146 27.8608 51.146C28.3888 51.146 28.8801 51.2267 29.3348 51.388C29.7968 51.5493 30.1818 51.7877 30.4898 52.103L30.0828 53.016C29.7454 52.7227 29.4008 52.51 29.0488 52.378C28.6968 52.246 28.3118 52.18 27.8938 52.18C27.0724 52.18 26.4418 52.433 26.0018 52.939C25.5618 53.445 25.3418 54.171 25.3418 55.117C25.3418 56.063 25.5618 56.7927 26.0018 57.306C26.4418 57.812 27.0724 58.065 27.8938 58.065C28.3118 58.065 28.6968 57.999 29.0488 57.867C29.4008 57.735 29.7454 57.5223 30.0828 57.229L30.4898 58.142C30.1818 58.45 29.7968 58.6883 29.3348 58.857C28.8801 59.0257 28.3888 59.11 27.8608 59.11ZM31.7833 59V51.245H32.9053V54.743H32.7953C32.9566 54.347 33.2096 54.0427 33.5543 53.83C33.899 53.6173 34.2913 53.511 34.7313 53.511C35.1713 53.511 35.5306 53.5917 35.8093 53.753C36.0953 53.907 36.308 54.1453 36.4473 54.468C36.594 54.7907 36.6673 55.1977 36.6673 55.689V59H35.5343V55.755C35.5343 55.4543 35.494 55.2087 35.4133 55.018C35.34 54.82 35.219 54.6733 35.0503 54.578C34.889 54.4753 34.68 54.424 34.4233 54.424C34.1226 54.424 33.8586 54.49 33.6313 54.622C33.404 54.754 33.228 54.9373 33.1033 55.172C32.9786 55.3993 32.9163 55.6633 32.9163 55.964V59H31.7833ZM40.2296 59.099C39.7896 59.099 39.4192 59.0183 39.1186 58.857C38.8252 58.6957 38.6052 58.4537 38.4586 58.131C38.3192 57.8083 38.2496 57.405 38.2496 56.921V53.61H39.3826V56.91C39.3826 57.1887 39.4192 57.4233 39.4926 57.614C39.5732 57.8047 39.6942 57.9477 39.8556 58.043C40.0242 58.1383 40.2369 58.186 40.4936 58.186C40.7796 58.186 41.0289 58.1237 41.2416 57.999C41.4542 57.867 41.6192 57.6837 41.7366 57.449C41.8612 57.2143 41.9236 56.9467 41.9236 56.646V53.61H43.0676V59H41.9676V57.823H42.0886C41.9272 58.2337 41.6852 58.549 41.3626 58.769C41.0399 58.989 40.6622 59.099 40.2296 59.099ZM42.8256 54.248L42.1986 53.841V53.61C42.4772 53.6027 42.7009 53.5623 42.8696 53.489C43.0382 53.4083 43.1556 53.28 43.2216 53.104C43.2949 52.928 43.3316 52.697 43.3316 52.411V52.213H44.3436V52.565C44.3436 52.8877 44.2812 53.17 44.1566 53.412C44.0392 53.654 43.8669 53.8483 43.6396 53.995C43.4122 54.1343 43.1409 54.2187 42.8256 54.248ZM47.0604 59.099C46.5177 59.099 46.0447 58.9853 45.6414 58.758C45.2454 58.5307 44.9374 58.208 44.7174 57.79C44.4974 57.3647 44.3874 56.8697 44.3874 56.305C44.3874 55.733 44.4974 55.238 44.7174 54.82C44.9374 54.402 45.2454 54.0793 45.6414 53.852C46.0447 53.6247 46.5177 53.511 47.0604 53.511C47.6031 53.511 48.0724 53.6247 48.4684 53.852C48.8717 54.0793 49.1834 54.402 49.4034 54.82C49.6234 55.238 49.7334 55.733 49.7334 56.305C49.7334 56.8697 49.6234 57.3647 49.4034 57.79C49.1834 58.208 48.8717 58.5307 48.4684 58.758C48.0724 58.9853 47.6031 59.099 47.0604 59.099ZM47.0604 58.208C47.5297 58.208 47.9037 58.043 48.1824 57.713C48.4611 57.383 48.6004 56.91 48.6004 56.294C48.6004 55.6853 48.4611 55.2197 48.1824 54.897C47.9037 54.5743 47.5297 54.413 47.0604 54.413C46.5911 54.413 46.2171 54.5743 45.9384 54.897C45.6597 55.2197 45.5204 55.6853 45.5204 56.294C45.5204 56.91 45.6597 57.383 45.9384 57.713C46.2171 58.043 46.5911 58.208 47.0604 58.208ZM48.3144 54.248L47.6874 53.841V53.61C47.9661 53.6027 48.1897 53.5623 48.3584 53.489C48.5271 53.4083 48.6444 53.28 48.7104 53.104C48.7837 52.928 48.8204 52.697 48.8204 52.411V52.213H49.8324V52.565C49.8324 52.8877 49.7701 53.17 49.6454 53.412C49.5281 53.654 49.3557 53.8483 49.1284 53.995C48.9011 54.1343 48.6297 54.2187 48.3144 54.248ZM51.0548 59V53.61H52.1438V54.754H52.0558C52.2171 54.3507 52.4701 54.0427 52.8148 53.83C53.1668 53.6173 53.5628 53.511 54.0028 53.511C54.4428 53.511 54.8058 53.5917 55.0918 53.753C55.3778 53.907 55.5904 54.1453 55.7298 54.468C55.8691 54.7907 55.9388 55.1977 55.9388 55.689V59H54.8058V55.755C54.8058 55.4543 54.7654 55.2087 54.6848 55.018C54.6114 54.82 54.4904 54.6733 54.3218 54.578C54.1604 54.4753 53.9514 54.424 53.6948 54.424C53.3941 54.424 53.1301 54.49 52.9028 54.622C52.6754 54.754 52.4994 54.9373 52.3748 55.172C52.2501 55.3993 52.1878 55.6633 52.1878 55.964V59H51.0548ZM59.9741 61.079C59.5047 61.079 59.0574 61.0203 58.6321 60.903C58.2141 60.7857 57.8437 60.6097 57.5211 60.375L57.8731 59.55C58.0784 59.6893 58.2911 59.8067 58.5111 59.902C58.7384 59.9973 58.9657 60.067 59.1931 60.111C59.4277 60.1623 59.6661 60.188 59.9081 60.188C60.4287 60.188 60.8247 60.056 61.0961 59.792C61.3674 59.528 61.5031 59.1467 61.5031 58.648V57.57H61.5691C61.4517 57.966 61.2171 58.2813 60.8651 58.516C60.5204 58.7433 60.1207 58.857 59.6661 58.857C59.1747 58.857 58.7457 58.747 58.3791 58.527C58.0124 58.2997 57.7301 57.9843 57.5321 57.581C57.3341 57.1777 57.2351 56.712 57.2351 56.184C57.2351 55.6487 57.3341 55.183 57.5321 54.787C57.7301 54.3837 58.0124 54.072 58.3791 53.852C58.7457 53.6247 59.1747 53.511 59.6661 53.511C60.1281 53.511 60.5314 53.6283 60.8761 53.863C61.2281 54.0977 61.4591 54.4093 61.5691 54.798H61.4921V53.61H62.5921V58.516C62.5921 59.0733 62.4894 59.5427 62.2841 59.924C62.0861 60.3053 61.7927 60.5913 61.4041 60.782C61.0154 60.98 60.5387 61.079 59.9741 61.079ZM59.9301 57.966C60.4067 57.966 60.7844 57.8047 61.0631 57.482C61.3417 57.1593 61.4811 56.7267 61.4811 56.184C61.4811 55.634 61.3417 55.2013 61.0631 54.886C60.7844 54.5633 60.4067 54.402 59.9301 54.402C59.4534 54.402 59.0721 54.5633 58.7861 54.886C58.5074 55.2013 58.3681 55.634 58.3681 56.184C58.3681 56.7267 58.5074 57.1593 58.7861 57.482C59.0721 57.8047 59.4534 57.966 59.9301 57.966ZM69.9398 59.099C69.3165 59.099 68.7848 58.9487 68.3448 58.648C67.9048 58.3473 67.5675 57.9147 67.3328 57.35C67.1055 56.778 66.9918 56.0887 66.9918 55.282C66.9918 54.3947 67.1201 53.6467 67.3768 53.038C67.6335 52.422 68.0038 51.9527 68.4878 51.63C68.9718 51.3073 69.5511 51.146 70.2258 51.146C70.4971 51.146 70.7685 51.1827 71.0398 51.256C71.3111 51.322 71.5678 51.4247 71.8098 51.564C72.0518 51.696 72.2645 51.8573 72.4478 52.048L72.0518 52.917C71.7805 52.6457 71.4871 52.4477 71.1718 52.323C70.8565 52.1983 70.5338 52.136 70.2038 52.136C69.8665 52.136 69.5658 52.1983 69.3018 52.323C69.0378 52.4477 68.8141 52.6347 68.6308 52.884C68.4548 53.126 68.3191 53.4303 68.2238 53.797C68.1285 54.1637 68.0808 54.5927 68.0808 55.084V55.931H68.0038C68.0625 55.5423 68.1871 55.2123 68.3778 54.941C68.5685 54.6623 68.8141 54.4497 69.1148 54.303C69.4228 54.1563 69.7565 54.083 70.1158 54.083C70.5778 54.083 70.9811 54.1893 71.3258 54.402C71.6778 54.6073 71.9528 54.897 72.1508 55.271C72.3488 55.645 72.4478 56.0703 72.4478 56.547C72.4478 57.0383 72.3415 57.4783 72.1288 57.867C71.9161 58.2557 71.6191 58.56 71.2378 58.78C70.8638 58.9927 70.4311 59.099 69.9398 59.099ZM69.8738 58.164C70.1745 58.164 70.4348 58.098 70.6548 57.966C70.8821 57.834 71.0581 57.6507 71.1828 57.416C71.3075 57.174 71.3698 56.899 71.3698 56.591C71.3698 56.2757 71.3075 56.0007 71.1828 55.766C71.0581 55.5313 70.8821 55.348 70.6548 55.216C70.4348 55.084 70.1745 55.018 69.8738 55.018C69.5731 55.018 69.3091 55.084 69.0818 55.216C68.8618 55.348 68.6858 55.5313 68.5538 55.766C68.4291 56.0007 68.3668 56.2757 68.3668 56.591C68.3668 56.899 68.4291 57.174 68.5538 57.416C68.6858 57.6507 68.8618 57.834 69.0818 57.966C69.3091 58.098 69.5731 58.164 69.8738 58.164Z" fill="#667085"/>
<defs>
<filter id="filter0_d_8310_938" x="0" y="2" width="96" height="85.8462" filterUnits="userSpaceOnUse" color-interpolation-filters="sRGB">
<feFlood flood-opacity="0" result="BackgroundImageFix"/>
<feColorMatrix in="SourceAlpha" type="matrix" values="0 0 0 0 0 0 0 0 0 0 0 0 0 0 0 0 0 0 127 0" result="hardAlpha"/>
<feOffset dy="4"/>
<feGaussianBlur stdDeviation="2"/>
<feComposite in2="hardAlpha" operator="out"/>
<feColorMatrix type="matrix" values="0 0 0 0 0 0 0 0 0 0 0 0 0 0 0 0 0 0 0.25 0"/>
<feBlend mode="normal" in2="BackgroundImageFix" result="effect1_dropShadow_8310_938"/>
<feBlend mode="normal" in="SourceGraphic" in2="effect1_dropShadow_8310_938" result="shape"/>
</filter>
</defs>
</svg>
