<svg width="96" height="88" viewBox="0 0 96 88" fill="none" xmlns="http://www.w3.org/2000/svg">
<g filter="url(#filter0_d_8339_572)">
<path d="M5.37285 44.1921C4.62083 42.8824 4.24484 42.2272 4.09767 41.531C3.96744 40.9148 3.96744 40.2784 4.09767 39.6622C4.24484 38.966 4.62083 38.3107 5.37285 37.001L23.5901 5.26913C24.3421 3.95928 24.7181 3.30435 25.2442 2.82802C25.7096 2.40658 26.2579 2.0882 26.8535 1.89359C27.5267 1.67358 28.2787 1.67358 29.7827 1.67358H66.2171C67.7214 1.67358 68.4731 1.67358 69.1466 1.89359C69.7419 2.0882 70.2903 2.40658 70.756 2.82802C71.282 3.30435 71.6578 3.95928 72.41 5.26913L90.6271 37.001C91.3792 38.3107 91.7551 38.966 91.9021 39.6622C92.0326 40.2784 92.0326 40.9148 91.9021 41.531C91.7551 42.2272 91.3792 42.8824 90.6271 44.1921L72.41 75.9242C71.6578 77.2339 71.282 77.8887 70.756 78.3651C70.2903 78.7867 69.7419 79.1049 69.1466 79.2995C68.4731 79.5197 67.7214 79.5197 66.2171 79.5197H29.7827C28.2787 79.5197 27.5267 79.5197 26.8535 79.2995C26.2579 79.1049 25.7096 78.7867 25.2442 78.3651C24.7181 77.8887 24.3421 77.2339 23.5901 75.9242L5.37285 44.1921Z" fill="white"/>
</g>
<g clip-path="url(#clip0_8339_572)">
<path d="M55.4134 14.908C54.6686 11.5478 53.9238 8.1877 53.1786 4.82764C51.921 4.82764 50.6635 4.82764 49.4061 4.82764C49.5858 8.18778 49.7658 11.5479 49.9456 14.908H55.4134Z" fill="#F2BB41"/>
<path d="M50.2325 20.272C50.4691 24.6879 50.7054 29.1037 50.9416 33.5196C53.8072 33.5196 56.6728 33.5196 59.5384 33.5196C58.5594 29.1037 57.5809 24.6879 56.6024 20.272H50.2325Z" fill="#F2BB41"/>
<path d="M47.0039 4.82764C45.7464 4.82764 44.4888 4.82764 43.2315 4.82764C42.4866 8.1877 41.7422 11.5478 40.9974 14.908H46.4649C46.6444 11.5478 46.824 8.1877 47.0039 4.82764Z" fill="#F2BB41"/>
<path d="M36.8717 33.5196C39.7375 33.5196 42.6029 33.5196 45.4685 33.5196C45.7056 29.1037 45.9419 24.6879 46.1778 20.272H39.8087C38.83 24.6879 37.8512 29.1038 36.8717 33.5196Z" fill="#F2BB41"/>
<path d="M62.8569 16.3008H33.5532C33.3609 16.3008 33.2051 16.4566 33.2051 16.6489V18.531C33.2051 18.7233 33.3609 18.8792 33.5532 18.8792H35.4374V21.6983C35.4374 21.8906 35.5932 22.0465 35.7855 22.0465H37.6658C37.8251 22.0465 37.964 21.9383 38.0031 21.7841L38.7417 18.8793H57.6684L58.4068 21.7841C58.4459 21.9385 58.585 22.0465 58.7443 22.0465H60.6243C60.8168 22.0465 60.9725 21.8906 60.9725 21.6983V18.8792H62.8568C63.0491 18.8792 63.205 18.7233 63.205 18.531V16.6489C63.2051 16.4566 63.0491 16.3008 62.8569 16.3008Z" fill="#F2BB41"/>
</g>
<path d="M19.8863 43.1736V34.7136H22.8743C23.8023 34.7136 24.5903 34.8776 25.2383 35.2056C25.8863 35.5256 26.3783 36.0016 26.7143 36.6336C27.0583 37.2576 27.2303 38.0256 27.2303 38.9376C27.2303 39.8496 27.0583 40.6216 26.7143 41.2536C26.3783 41.8776 25.8863 42.3536 25.2383 42.6816C24.5903 43.0096 23.8023 43.1736 22.8743 43.1736H19.8863ZM21.1343 42.1296H22.8023C23.8503 42.1296 24.6343 41.8656 25.1543 41.3376C25.6743 40.8016 25.9343 40.0016 25.9343 38.9376C25.9343 37.8736 25.6703 37.0776 25.1423 36.5496C24.6223 36.0216 23.8423 35.7576 22.8023 35.7576H21.1343V42.1296ZM18.8423 39.3456V38.4216H23.4503V39.3456H18.8423ZM30.8541 43.2816C30.3821 43.2816 29.9861 43.1936 29.6661 43.0176C29.3541 42.8416 29.1181 42.5816 28.9581 42.2376C28.8061 41.8856 28.7301 41.4456 28.7301 40.9176V37.3176H29.9421V40.9296C29.9421 41.2416 29.9821 41.5016 30.0621 41.7096C30.1501 41.9176 30.2821 42.0696 30.4581 42.1656C30.6421 42.2616 30.8701 42.3096 31.1421 42.3096C31.4461 42.3096 31.7141 42.2416 31.9461 42.1056C32.1781 41.9696 32.3581 41.7736 32.4861 41.5176C32.6141 41.2616 32.6781 40.9656 32.6781 40.6296V37.3176H33.8901V43.1736H32.7141V41.8896H32.8701C32.7101 42.3376 32.4541 42.6816 32.1021 42.9216C31.7501 43.1616 31.3341 43.2816 30.8541 43.2816ZM33.6261 38.0016L32.9661 37.5696V37.3176C33.2701 37.3096 33.5141 37.2656 33.6981 37.1856C33.8821 37.0976 34.0141 36.9576 34.0941 36.7656C34.1741 36.5736 34.2141 36.3176 34.2141 35.9976V35.7816H35.2701V36.1656C35.2701 36.5176 35.2021 36.8256 35.0661 37.0896C34.9381 37.3536 34.7501 37.5656 34.5021 37.7256C34.2621 37.8856 33.9701 37.9776 33.6261 38.0016ZM38.1421 43.2816C37.5501 43.2816 37.0381 43.1576 36.6061 42.9096C36.1821 42.6616 35.8501 42.3096 35.6101 41.8536C35.3701 41.3976 35.2501 40.8616 35.2501 40.2456C35.2501 39.6216 35.3701 39.0856 35.6101 38.6376C35.8501 38.1816 36.1821 37.8296 36.6061 37.5816C37.0381 37.3336 37.5501 37.2096 38.1421 37.2096C38.7261 37.2096 39.2301 37.3336 39.6541 37.5816C40.0861 37.8296 40.4221 38.1816 40.6621 38.6376C40.9021 39.0936 41.0221 39.6296 41.0221 40.2456C41.0221 40.8616 40.9021 41.3976 40.6621 41.8536C40.4221 42.3096 40.0861 42.6616 39.6541 42.9096C39.2301 43.1576 38.7261 43.2816 38.1421 43.2816ZM38.1301 42.3456C38.6341 42.3456 39.0381 42.1656 39.3421 41.8056C39.6461 41.4456 39.7981 40.9256 39.7981 40.2456C39.7981 39.5576 39.6461 39.0376 39.3421 38.6856C39.0381 38.3336 38.6341 38.1576 38.1301 38.1576C37.6341 38.1576 37.2341 38.3336 36.9301 38.6856C36.6261 39.0376 36.4741 39.5576 36.4741 40.2456C36.4741 40.9256 36.6261 41.4456 36.9301 41.8056C37.2341 42.1656 37.6341 42.3456 38.1301 42.3456ZM39.4621 38.0016L38.8021 37.5696V37.3176C39.1061 37.3096 39.3501 37.2656 39.5341 37.1856C39.7181 37.0976 39.8501 36.9576 39.9301 36.7656C40.0101 36.5736 40.0501 36.3176 40.0501 35.9976V35.7816H41.1061V36.1656C41.1061 36.5176 41.0381 36.8256 40.9021 37.0896C40.7741 37.3536 40.5861 37.5656 40.3381 37.7256C40.0981 37.8856 39.8061 37.9776 39.4621 38.0016ZM37.7101 36.5376L36.0781 34.1136H37.3141L38.5501 36.5376H37.7101ZM42.3833 43.1736V37.3176H43.5593V38.5656H43.4273C43.6033 38.1176 43.8793 37.7816 44.2553 37.5576C44.6313 37.3256 45.0633 37.2096 45.5513 37.2096C46.0153 37.2096 46.3993 37.2976 46.7033 37.4736C47.0153 37.6416 47.2473 37.9016 47.3993 38.2536C47.5513 38.5976 47.6273 39.0336 47.6273 39.5616V43.1736H46.4153V39.6336C46.4153 39.2976 46.3713 39.0256 46.2833 38.8176C46.1953 38.6016 46.0633 38.4416 45.8873 38.3376C45.7113 38.2336 45.4833 38.1816 45.2033 38.1816C44.8833 38.1816 44.5993 38.2496 44.3513 38.3856C44.1113 38.5216 43.9233 38.7176 43.7873 38.9736C43.6593 39.2296 43.5953 39.5256 43.5953 39.8616V43.1736H42.3833ZM51.9493 45.4416C51.4213 45.4416 50.9293 45.3776 50.4733 45.2496C50.0173 45.1216 49.6133 44.9296 49.2613 44.6736L49.6333 43.8096C49.8653 43.9616 50.1013 44.0896 50.3413 44.1936C50.5893 44.3056 50.8373 44.3856 51.0853 44.4336C51.3413 44.4816 51.6013 44.5056 51.8653 44.5056C52.4253 44.5056 52.8453 44.3616 53.1253 44.0736C53.4053 43.7936 53.5453 43.3776 53.5453 42.8256V41.6016H53.6533C53.5333 42.0416 53.2813 42.3896 52.8973 42.6456C52.5133 42.9016 52.0693 43.0296 51.5653 43.0296C51.0373 43.0296 50.5773 42.9096 50.1853 42.6696C49.7933 42.4216 49.4893 42.0816 49.2733 41.6496C49.0573 41.2096 48.9493 40.6976 48.9493 40.1136C48.9493 39.5296 49.0573 39.0216 49.2733 38.5896C49.4893 38.1576 49.7933 37.8216 50.1853 37.5816C50.5773 37.3336 51.0373 37.2096 51.5653 37.2096C52.0773 37.2096 52.5213 37.3376 52.8973 37.5936C53.2813 37.8496 53.5293 38.1976 53.6413 38.6376H53.5453V37.3176H54.7213V42.6816C54.7213 43.2896 54.6173 43.7976 54.4093 44.2056C54.2013 44.6216 53.8893 44.9296 53.4733 45.1296C53.0653 45.3376 52.5573 45.4416 51.9493 45.4416ZM51.8533 42.0816C52.3733 42.0816 52.7813 41.9056 53.0773 41.5536C53.3813 41.2016 53.5333 40.7216 53.5333 40.1136C53.5333 39.5136 53.3813 39.0376 53.0773 38.6856C52.7813 38.3336 52.3733 38.1576 51.8533 38.1576C51.3413 38.1576 50.9333 38.3336 50.6293 38.6856C50.3253 39.0376 50.1733 39.5136 50.1733 40.1136C50.1733 40.7216 50.3253 41.2016 50.6293 41.5536C50.9333 41.9056 51.3413 42.0816 51.8533 42.0816ZM62.1547 43.2816C61.5547 43.2816 61.0347 43.1576 60.5947 42.9096C60.1627 42.6536 59.8267 42.2976 59.5867 41.8416C59.3467 41.3776 59.2267 40.8336 59.2267 40.2096C59.2267 39.5936 59.3467 39.0616 59.5867 38.6136C59.8267 38.1656 60.1627 37.8216 60.5947 37.5816C61.0347 37.3336 61.5547 37.2096 62.1547 37.2096C62.5227 37.2096 62.8867 37.2736 63.2467 37.4016C63.6067 37.5216 63.9027 37.6976 64.1347 37.9296L63.7507 38.7816C63.5347 38.5736 63.2907 38.4216 63.0187 38.3256C62.7467 38.2216 62.4907 38.1696 62.2507 38.1696C61.6827 38.1696 61.2427 38.3496 60.9307 38.7096C60.6267 39.0616 60.4747 39.5656 60.4747 40.2216C60.4747 40.8776 60.6267 41.3936 60.9307 41.7696C61.2427 42.1376 61.6827 42.3216 62.2507 42.3216C62.4907 42.3216 62.7467 42.2736 63.0187 42.1776C63.2907 42.0736 63.5347 41.9176 63.7507 41.7096L64.1347 42.5736C63.9027 42.7896 63.6027 42.9616 63.2347 43.0896C62.8747 43.2176 62.5147 43.2816 62.1547 43.2816ZM67.0013 43.2816C66.5933 43.2816 66.2253 43.2016 65.8973 43.0416C65.5773 42.8816 65.3253 42.6656 65.1413 42.3936C64.9573 42.1216 64.8653 41.8136 64.8653 41.4696C64.8653 41.0376 64.9733 40.6976 65.1893 40.4496C65.4133 40.1936 65.7773 40.0136 66.2813 39.9096C66.7933 39.7976 67.4813 39.7416 68.3453 39.7416H68.9093V40.4856H68.3573C67.9253 40.4856 67.5613 40.5016 67.2653 40.5336C66.9693 40.5656 66.7333 40.6176 66.5573 40.6896C66.3813 40.7536 66.2533 40.8456 66.1733 40.9656C66.1013 41.0856 66.0653 41.2296 66.0653 41.3976C66.0653 41.7016 66.1693 41.9496 66.3773 42.1416C66.5853 42.3256 66.8733 42.4176 67.2413 42.4176C67.5373 42.4176 67.7973 42.3496 68.0213 42.2136C68.2453 42.0696 68.4213 41.8776 68.5493 41.6376C68.6853 41.3976 68.7533 41.1216 68.7533 40.8096V39.4296C68.7533 38.9736 68.6573 38.6456 68.4653 38.4456C68.2733 38.2456 67.9573 38.1456 67.5173 38.1456C67.1813 38.1456 66.8453 38.1976 66.5093 38.3016C66.1733 38.3976 65.8293 38.5536 65.4773 38.7696L65.1053 37.9176C65.3133 37.7736 65.5533 37.6496 65.8253 37.5456C66.0973 37.4416 66.3813 37.3616 66.6773 37.3056C66.9813 37.2416 67.2733 37.2096 67.5533 37.2096C68.0893 37.2096 68.5293 37.2936 68.8733 37.4616C69.2253 37.6296 69.4853 37.8856 69.6533 38.2296C69.8213 38.5736 69.9053 39.0176 69.9053 39.5616V43.1736H68.7653V41.8656H68.8733C68.8093 42.1616 68.6893 42.4176 68.5133 42.6336C68.3453 42.8416 68.1333 43.0016 67.8773 43.1136C67.6213 43.2256 67.3293 43.2816 67.0013 43.2816ZM74.1187 43.2816C73.5267 43.2816 73.0147 43.1576 72.5827 42.9096C72.1587 42.6616 71.8267 42.3096 71.5867 41.8536C71.3467 41.3976 71.2267 40.8616 71.2267 40.2456C71.2267 39.6216 71.3467 39.0856 71.5867 38.6376C71.8267 38.1816 72.1587 37.8296 72.5827 37.5816C73.0147 37.3336 73.5267 37.2096 74.1187 37.2096C74.7027 37.2096 75.2067 37.3336 75.6307 37.5816C76.0627 37.8296 76.3987 38.1816 76.6387 38.6376C76.8787 39.0936 76.9987 39.6296 76.9987 40.2456C76.9987 40.8616 76.8787 41.3976 76.6387 41.8536C76.3987 42.3096 76.0627 42.6616 75.6307 42.9096C75.2067 43.1576 74.7027 43.2816 74.1187 43.2816ZM74.1067 42.3456C74.6107 42.3456 75.0147 42.1656 75.3187 41.8056C75.6227 41.4456 75.7747 40.9256 75.7747 40.2456C75.7747 39.5576 75.6227 39.0376 75.3187 38.6856C75.0147 38.3336 74.6107 38.1576 74.1067 38.1576C73.6107 38.1576 73.2107 38.3336 72.9067 38.6856C72.6027 39.0376 72.4507 39.5576 72.4507 40.2456C72.4507 40.9256 72.6027 41.4456 72.9067 41.8056C73.2107 42.1656 73.6107 42.3456 74.1067 42.3456ZM43.1976 59.2816C42.4696 59.2816 41.9216 59.0936 41.5536 58.7176C41.1936 58.3416 41.0136 57.7976 41.0136 57.0856V54.2536H39.8736V53.3176H41.0136V51.5536H42.2256V53.3176H44.0376V54.2536H42.2256V56.9896C42.2256 57.4136 42.3136 57.7336 42.4896 57.9496C42.6736 58.1656 42.9696 58.2736 43.3776 58.2736C43.4976 58.2736 43.6176 58.2576 43.7376 58.2256C43.8656 58.1936 43.9896 58.1616 44.1096 58.1296L44.3016 59.0416C44.1816 59.1136 44.0136 59.1696 43.7976 59.2096C43.5896 59.2576 43.3896 59.2816 43.1976 59.2816ZM47.5698 59.2816C46.9778 59.2816 46.4658 59.1576 46.0338 58.9096C45.6098 58.6616 45.2778 58.3096 45.0378 57.8536C44.7978 57.3976 44.6778 56.8616 44.6778 56.2456C44.6778 55.6216 44.7978 55.0856 45.0378 54.6376C45.2778 54.1816 45.6098 53.8296 46.0338 53.5816C46.4658 53.3336 46.9778 53.2096 47.5698 53.2096C48.1538 53.2096 48.6578 53.3336 49.0818 53.5816C49.5138 53.8296 49.8498 54.1816 50.0898 54.6376C50.3298 55.0936 50.4498 55.6296 50.4498 56.2456C50.4498 56.8616 50.3298 57.3976 50.0898 57.8536C49.8498 58.3096 49.5138 58.6616 49.0818 58.9096C48.6578 59.1576 48.1538 59.2816 47.5698 59.2816ZM47.5578 58.3456C48.0618 58.3456 48.4658 58.1656 48.7698 57.8056C49.0738 57.4456 49.2258 56.9256 49.2258 56.2456C49.2258 55.5576 49.0738 55.0376 48.7698 54.6856C48.4658 54.3336 48.0618 54.1576 47.5578 54.1576C47.0618 54.1576 46.6618 54.3336 46.3578 54.6856C46.0538 55.0376 45.9018 55.5576 45.9018 56.2456C45.9018 56.9256 46.0538 57.4456 46.3578 57.8056C46.6618 58.1656 47.0618 58.3456 47.5578 58.3456ZM45.6978 52.5376L47.0178 50.5936H48.1218L49.4418 52.5376H48.6378L47.5698 51.3016L46.5018 52.5376H45.6978ZM48.7818 51.2896L49.8018 49.4896H50.8818L49.5138 51.2896H48.7818ZM54.391 59.2816C53.791 59.2816 53.271 59.1576 52.831 58.9096C52.399 58.6536 52.063 58.2976 51.823 57.8416C51.583 57.3776 51.463 56.8336 51.463 56.2096C51.463 55.5936 51.583 55.0616 51.823 54.6136C52.063 54.1656 52.399 53.8216 52.831 53.5816C53.271 53.3336 53.791 53.2096 54.391 53.2096C54.759 53.2096 55.123 53.2736 55.483 53.4016C55.843 53.5216 56.139 53.6976 56.371 53.9296L55.987 54.7816C55.771 54.5736 55.527 54.4216 55.255 54.3256C54.983 54.2216 54.727 54.1696 54.487 54.1696C53.919 54.1696 53.479 54.3496 53.167 54.7096C52.863 55.0616 52.711 55.5656 52.711 56.2216C52.711 56.8776 52.863 57.3936 53.167 57.7696C53.479 58.1376 53.919 58.3216 54.487 58.3216C54.727 58.3216 54.983 58.2736 55.255 58.1776C55.527 58.0736 55.771 57.9176 55.987 57.7096L56.371 58.5736C56.139 58.7896 55.839 58.9616 55.471 59.0896C55.111 59.2176 54.751 59.2816 54.391 59.2816Z" fill="black"/>
<path d="M27.8608 75.2836C27.0834 75.2836 26.4161 75.1223 25.8588 74.7996C25.3014 74.4696 24.8724 74.0076 24.5718 73.4136C24.2711 72.8196 24.1208 72.1119 24.1208 71.2906C24.1208 70.4693 24.2711 69.7653 24.5718 69.1786C24.8724 68.5846 25.3014 68.1263 25.8588 67.8036C26.4161 67.4809 27.0834 67.3196 27.8608 67.3196C28.3888 67.3196 28.8801 67.4003 29.3348 67.5616C29.7968 67.7229 30.1818 67.9613 30.4898 68.2766L30.0828 69.1896C29.7454 68.8963 29.4008 68.6836 29.0488 68.5516C28.6968 68.4196 28.3118 68.3536 27.8938 68.3536C27.0724 68.3536 26.4418 68.6066 26.0018 69.1126C25.5618 69.6186 25.3418 70.3446 25.3418 71.2906C25.3418 72.2366 25.5618 72.9663 26.0018 73.4796C26.4418 73.9856 27.0724 74.2386 27.8938 74.2386C28.3118 74.2386 28.6968 74.1726 29.0488 74.0406C29.4008 73.9086 29.7454 73.6959 30.0828 73.4026L30.4898 74.3156C30.1818 74.6236 29.7968 74.8619 29.3348 75.0306C28.8801 75.1993 28.3888 75.2836 27.8608 75.2836ZM31.7833 75.1736V67.4186H32.9053V70.9166H32.7953C32.9566 70.5206 33.2096 70.2163 33.5543 70.0036C33.899 69.7909 34.2913 69.6846 34.7313 69.6846C35.1713 69.6846 35.5306 69.7653 35.8093 69.9266C36.0953 70.0806 36.308 70.3189 36.4473 70.6416C36.594 70.9643 36.6673 71.3713 36.6673 71.8626V75.1736H35.5343V71.9286C35.5343 71.6279 35.494 71.3823 35.4133 71.1916C35.34 70.9936 35.219 70.8469 35.0503 70.7516C34.889 70.6489 34.68 70.5976 34.4233 70.5976C34.1226 70.5976 33.8586 70.6636 33.6313 70.7956C33.404 70.9276 33.228 71.1109 33.1033 71.3456C32.9786 71.5729 32.9163 71.8369 32.9163 72.1376V75.1736H31.7833ZM40.2296 75.2726C39.7896 75.2726 39.4192 75.1919 39.1186 75.0306C38.8252 74.8693 38.6052 74.6273 38.4586 74.3046C38.3192 73.9819 38.2496 73.5786 38.2496 73.0946V69.7836H39.3826V73.0836C39.3826 73.3623 39.4192 73.5969 39.4926 73.7876C39.5732 73.9783 39.6942 74.1213 39.8556 74.2166C40.0242 74.3119 40.2369 74.3596 40.4936 74.3596C40.7796 74.3596 41.0289 74.2973 41.2416 74.1726C41.4542 74.0406 41.6192 73.8573 41.7366 73.6226C41.8612 73.3879 41.9236 73.1203 41.9236 72.8196V69.7836H43.0676V75.1736H41.9676V73.9966H42.0886C41.9272 74.4073 41.6852 74.7226 41.3626 74.9426C41.0399 75.1626 40.6622 75.2726 40.2296 75.2726ZM42.8256 70.4216L42.1986 70.0146V69.7836C42.4772 69.7763 42.7009 69.7359 42.8696 69.6626C43.0382 69.5819 43.1556 69.4536 43.2216 69.2776C43.2949 69.1016 43.3316 68.8706 43.3316 68.5846V68.3866H44.3436V68.7386C44.3436 69.0613 44.2812 69.3436 44.1566 69.5856C44.0392 69.8276 43.8669 70.0219 43.6396 70.1686C43.4122 70.3079 43.1409 70.3923 42.8256 70.4216ZM47.0604 75.2726C46.5177 75.2726 46.0447 75.1589 45.6414 74.9316C45.2454 74.7043 44.9374 74.3816 44.7174 73.9636C44.4974 73.5383 44.3874 73.0433 44.3874 72.4786C44.3874 71.9066 44.4974 71.4116 44.7174 70.9936C44.9374 70.5756 45.2454 70.2529 45.6414 70.0256C46.0447 69.7983 46.5177 69.6846 47.0604 69.6846C47.6031 69.6846 48.0724 69.7983 48.4684 70.0256C48.8717 70.2529 49.1834 70.5756 49.4034 70.9936C49.6234 71.4116 49.7334 71.9066 49.7334 72.4786C49.7334 73.0433 49.6234 73.5383 49.4034 73.9636C49.1834 74.3816 48.8717 74.7043 48.4684 74.9316C48.0724 75.1589 47.6031 75.2726 47.0604 75.2726ZM47.0604 74.3816C47.5297 74.3816 47.9037 74.2166 48.1824 73.8866C48.4611 73.5566 48.6004 73.0836 48.6004 72.4676C48.6004 71.8589 48.4611 71.3933 48.1824 71.0706C47.9037 70.7479 47.5297 70.5866 47.0604 70.5866C46.5911 70.5866 46.2171 70.7479 45.9384 71.0706C45.6597 71.3933 45.5204 71.8589 45.5204 72.4676C45.5204 73.0836 45.6597 73.5566 45.9384 73.8866C46.2171 74.2166 46.5911 74.3816 47.0604 74.3816ZM48.3144 70.4216L47.6874 70.0146V69.7836C47.9661 69.7763 48.1897 69.7359 48.3584 69.6626C48.5271 69.5819 48.6444 69.4536 48.7104 69.2776C48.7837 69.1016 48.8204 68.8706 48.8204 68.5846V68.3866H49.8324V68.7386C49.8324 69.0613 49.7701 69.3436 49.6454 69.5856C49.5281 69.8276 49.3557 70.0219 49.1284 70.1686C48.9011 70.3079 48.6297 70.3923 48.3144 70.4216ZM51.0548 75.1736V69.7836H52.1438V70.9276H52.0558C52.2171 70.5243 52.4701 70.2163 52.8148 70.0036C53.1668 69.7909 53.5628 69.6846 54.0028 69.6846C54.4428 69.6846 54.8058 69.7653 55.0918 69.9266C55.3778 70.0806 55.5904 70.3189 55.7298 70.6416C55.8691 70.9643 55.9388 71.3713 55.9388 71.8626V75.1736H54.8058V71.9286C54.8058 71.6279 54.7654 71.3823 54.6848 71.1916C54.6114 70.9936 54.4904 70.8469 54.3218 70.7516C54.1604 70.6489 53.9514 70.5976 53.6948 70.5976C53.3941 70.5976 53.1301 70.6636 52.9028 70.7956C52.6754 70.9276 52.4994 71.1109 52.3748 71.3456C52.2501 71.5729 52.1878 71.8369 52.1878 72.1376V75.1736H51.0548ZM59.9741 77.2526C59.5047 77.2526 59.0574 77.1939 58.6321 77.0766C58.2141 76.9593 57.8437 76.7833 57.5211 76.5486L57.8731 75.7236C58.0784 75.8629 58.2911 75.9803 58.5111 76.0756C58.7384 76.1709 58.9657 76.2406 59.1931 76.2846C59.4277 76.3359 59.6661 76.3616 59.9081 76.3616C60.4287 76.3616 60.8247 76.2296 61.0961 75.9656C61.3674 75.7016 61.5031 75.3203 61.5031 74.8216V73.7436H61.5691C61.4517 74.1396 61.2171 74.4549 60.8651 74.6896C60.5204 74.9169 60.1207 75.0306 59.6661 75.0306C59.1747 75.0306 58.7457 74.9206 58.3791 74.7006C58.0124 74.4733 57.7301 74.1579 57.5321 73.7546C57.3341 73.3513 57.2351 72.8856 57.2351 72.3576C57.2351 71.8223 57.3341 71.3566 57.5321 70.9606C57.7301 70.5573 58.0124 70.2456 58.3791 70.0256C58.7457 69.7983 59.1747 69.6846 59.6661 69.6846C60.1281 69.6846 60.5314 69.8019 60.8761 70.0366C61.2281 70.2713 61.4591 70.5829 61.5691 70.9716H61.4921V69.7836H62.5921V74.6896C62.5921 75.2469 62.4894 75.7163 62.2841 76.0976C62.0861 76.4789 61.7927 76.7649 61.4041 76.9556C61.0154 77.1536 60.5387 77.2526 59.9741 77.2526ZM59.9301 74.1396C60.4067 74.1396 60.7844 73.9783 61.0631 73.6556C61.3417 73.3329 61.4811 72.9003 61.4811 72.3576C61.4811 71.8076 61.3417 71.3749 61.0631 71.0596C60.7844 70.7369 60.4067 70.5756 59.9301 70.5756C59.4534 70.5756 59.0721 70.7369 58.7861 71.0596C58.5074 71.3749 58.3681 71.8076 58.3681 72.3576C58.3681 72.9003 58.5074 73.3329 58.7861 73.6556C59.0721 73.9783 59.4534 74.1396 59.9301 74.1396ZM69.6648 75.2726C68.7775 75.2726 68.0845 75.0819 67.5858 74.7006C67.0871 74.3193 66.8378 73.7876 66.8378 73.1056C66.8378 72.7463 66.9111 72.4273 67.0578 72.1486C67.2045 71.8699 67.4061 71.6426 67.6628 71.4666C67.9268 71.2906 68.2238 71.1806 68.5538 71.1366V71.2906C68.2531 71.2173 67.9855 71.0926 67.7508 70.9166C67.5235 70.7406 67.3475 70.5243 67.2228 70.2676C67.0981 70.0036 67.0358 69.7139 67.0358 69.3986C67.0358 68.7459 67.2705 68.2363 67.7398 67.8696C68.2165 67.5029 68.8581 67.3196 69.6648 67.3196C70.4715 67.3196 71.1131 67.5029 71.5898 67.8696C72.0665 68.2363 72.3048 68.7459 72.3048 69.3986C72.3048 69.7066 72.2388 69.9963 72.1068 70.2676C71.9821 70.5316 71.8061 70.7516 71.5788 70.9276C71.3515 71.0963 71.0875 71.2136 70.7868 71.2796V71.1366C71.1241 71.1806 71.4175 71.2943 71.6668 71.4776C71.9235 71.6536 72.1251 71.8809 72.2718 72.1596C72.4185 72.4309 72.4918 72.7463 72.4918 73.1056C72.4918 73.7876 72.2425 74.3193 71.7438 74.7006C71.2451 75.0819 70.5521 75.2726 69.6648 75.2726ZM69.6648 74.3486C70.2368 74.3486 70.6695 74.2386 70.9628 74.0186C71.2635 73.7913 71.4138 73.4613 71.4138 73.0286C71.4138 72.5886 71.2635 72.2586 70.9628 72.0386C70.6695 71.8186 70.2368 71.7086 69.6648 71.7086C69.1001 71.7086 68.6675 71.8186 68.3668 72.0386C68.0661 72.2586 67.9158 72.5886 67.9158 73.0286C67.9158 73.4613 68.0661 73.7913 68.3668 74.0186C68.6675 74.2386 69.1001 74.3486 69.6648 74.3486ZM69.6648 70.7846C70.1561 70.7846 70.5375 70.6709 70.8088 70.4436C71.0875 70.2163 71.2268 69.9009 71.2268 69.4976C71.2268 69.1089 71.0875 68.8046 70.8088 68.5846C70.5375 68.3573 70.1561 68.2436 69.6648 68.2436C69.1808 68.2436 68.7995 68.3573 68.5208 68.5846C68.2495 68.8046 68.1138 69.1126 68.1138 69.5086C68.1138 69.9046 68.2495 70.2163 68.5208 70.4436C68.7995 70.6709 69.1808 70.7846 69.6648 70.7846Z" fill="#667085"/>
<defs>
<filter id="filter0_d_8339_572" x="0" y="1.67358" width="96" height="85.8462" filterUnits="userSpaceOnUse" color-interpolation-filters="sRGB">
<feFlood flood-opacity="0" result="BackgroundImageFix"/>
<feColorMatrix in="SourceAlpha" type="matrix" values="0 0 0 0 0 0 0 0 0 0 0 0 0 0 0 0 0 0 127 0" result="hardAlpha"/>
<feOffset dy="4"/>
<feGaussianBlur stdDeviation="2"/>
<feComposite in2="hardAlpha" operator="out"/>
<feColorMatrix type="matrix" values="0 0 0 0 0 0 0 0 0 0 0 0 0 0 0 0 0 0 0.25 0"/>
<feBlend mode="normal" in2="BackgroundImageFix" result="effect1_dropShadow_8339_572"/>
<feBlend mode="normal" in="SourceGraphic" in2="effect1_dropShadow_8339_572" result="shape"/>
</filter>
<clipPath id="clip0_8339_572">
<rect width="30" height="30" fill="white" transform="translate(33.2051 0.173584)"/>
</clipPath>
</defs>
</svg>
