<svg width="96" height="86" viewBox="0 0 96 86" fill="none" xmlns="http://www.w3.org/2000/svg">
<g filter="url(#filter0_d_8310_972)">
<path d="M5.37285 42.5185C4.62083 41.2089 4.24484 40.5536 4.09767 39.8574C3.96744 39.2412 3.96744 38.6048 4.09767 37.9886C4.24484 37.2924 4.62083 36.6371 5.37285 35.3274L23.5901 3.59555C24.3421 2.28569 24.7181 1.63076 25.2442 1.15444C25.7096 0.732998 26.2579 0.414612 26.8535 0.220002C27.5267 -2.00917e-07 28.2787 0 29.7827 0H66.2171C67.7214 0 68.4731 -2.00917e-07 69.1466 0.220002C69.7419 0.414612 70.2903 0.732998 70.756 1.15444C71.282 1.63076 71.6578 2.28569 72.41 3.59555L90.6271 35.3274C91.3792 36.6371 91.7551 37.2924 91.9021 37.9886C92.0326 38.6048 92.0326 39.2412 91.9021 39.8574C91.7551 40.5536 91.3792 41.2089 90.6271 42.5185L72.41 74.2506C71.6578 75.5603 71.282 76.2151 70.756 76.6915C70.2903 77.1131 69.7419 77.4313 69.1466 77.6259C68.4731 77.8462 67.7214 77.8462 66.2171 77.8462H29.7827C28.2787 77.8462 27.5267 77.8462 26.8535 77.6259C26.2579 77.4313 25.7096 77.1131 25.2442 76.6915C24.7181 76.2151 24.3421 75.5603 23.5901 74.2506L5.37285 42.5185Z" fill="white"/>
</g>
<path d="M58.2051 5.5H38.2051C36.8244 5.5 35.7051 6.61929 35.7051 8V28C35.7051 29.3807 36.8244 30.5 38.2051 30.5H58.2051C59.5858 30.5 60.7051 29.3807 60.7051 28V8C60.7051 6.61929 59.5858 5.5 58.2051 5.5Z" fill="#F2BB41"/>
<path d="M54.4551 19.2499H45.7051V16.0124L46.0676 16.3874C46.1838 16.5046 46.322 16.5976 46.4743 16.661C46.6267 16.7245 46.7901 16.7572 46.9551 16.7572C47.1201 16.7572 47.2835 16.7245 47.4358 16.661C47.5881 16.5976 47.7264 16.5046 47.8426 16.3874C47.9597 16.2712 48.0527 16.133 48.1162 15.9806C48.1796 15.8283 48.2123 15.6649 48.2123 15.4999C48.2123 15.3349 48.1796 15.1715 48.1162 15.0192C48.0527 14.8669 47.9597 14.7286 47.8426 14.6124L45.3426 12.1124C45.2264 11.9953 45.0881 11.9023 44.9358 11.8388C44.7835 11.7753 44.6201 11.7427 44.4551 11.7427C44.2901 11.7427 44.1267 11.7753 43.9743 11.8388C43.822 11.9023 43.6838 11.9953 43.5676 12.1124L41.0676 14.6124C40.951 14.729 40.8586 14.8673 40.7955 15.0196C40.7324 15.1719 40.7 15.3351 40.7 15.4999C40.7 15.8328 40.8322 16.152 41.0676 16.3874C41.3029 16.6228 41.6222 16.755 41.9551 16.755C42.2879 16.755 42.6072 16.6228 42.8426 16.3874L43.2051 16.0124V19.2499C43.2051 19.913 43.4685 20.5488 43.9373 21.0177C44.4061 21.4865 45.042 21.7499 45.7051 21.7499H54.4551C54.7866 21.7499 55.1045 21.6182 55.3389 21.3838C55.5734 21.1494 55.7051 20.8314 55.7051 20.4999C55.7051 20.1684 55.5734 19.8505 55.3389 19.616C55.1045 19.3816 54.7866 19.2499 54.4551 19.2499Z" fill="#E08838"/>
<path d="M19.4479 46.108C18.5919 46.108 17.8599 45.932 17.2519 45.58C16.6439 45.228 16.1759 44.728 15.8479 44.08C15.5279 43.424 15.3679 42.652 15.3679 41.764C15.3679 40.876 15.5279 40.108 15.8479 39.46C16.1759 38.812 16.6439 38.312 17.2519 37.96C17.8599 37.608 18.5919 37.432 19.4479 37.432C20.0239 37.432 20.5599 37.524 21.0559 37.708C21.5599 37.884 21.9799 38.14 22.3159 38.476L21.8839 39.472C21.5159 39.144 21.1359 38.908 20.7439 38.764C20.3599 38.612 19.9399 38.536 19.4839 38.536C18.5719 38.536 17.8759 38.816 17.3959 39.376C16.9159 39.936 16.6759 40.732 16.6759 41.764C16.6759 42.796 16.9159 43.596 17.3959 44.164C17.8759 44.724 18.5719 45.004 19.4839 45.004C19.9399 45.004 20.3599 44.932 20.7439 44.788C21.1359 44.636 21.5159 44.396 21.8839 44.068L22.3159 45.064C21.9799 45.4 21.5599 45.66 21.0559 45.844C20.5599 46.02 20.0239 46.108 19.4479 46.108ZM23.6333 46V37.54H24.8453V41.392H24.6773C24.8533 40.944 25.1293 40.608 25.5053 40.384C25.8813 40.152 26.3133 40.036 26.8013 40.036C27.2653 40.036 27.6493 40.124 27.9533 40.3C28.2653 40.468 28.4973 40.728 28.6493 41.08C28.8013 41.424 28.8773 41.86 28.8773 42.388V46H27.6653V42.46C27.6653 42.124 27.6213 41.852 27.5333 41.644C27.4453 41.428 27.3133 41.268 27.1373 41.164C26.9613 41.06 26.7333 41.008 26.4533 41.008C26.1333 41.008 25.8493 41.076 25.6013 41.212C25.3613 41.348 25.1733 41.544 25.0373 41.8C24.9093 42.056 24.8453 42.352 24.8453 42.688V46H23.6333ZM32.6353 46.108C32.1633 46.108 31.7673 46.02 31.4473 45.844C31.1353 45.668 30.8993 45.408 30.7393 45.064C30.5873 44.712 30.5113 44.272 30.5113 43.744V40.144H31.7233V43.756C31.7233 44.068 31.7633 44.328 31.8433 44.536C31.9313 44.744 32.0633 44.896 32.2393 44.992C32.4233 45.088 32.6513 45.136 32.9233 45.136C33.2273 45.136 33.4953 45.068 33.7273 44.932C33.9593 44.796 34.1393 44.6 34.2673 44.344C34.3953 44.088 34.4593 43.792 34.4593 43.456V40.144H35.6713V46H34.4953V44.716H34.6513C34.4913 45.164 34.2353 45.508 33.8833 45.748C33.5313 45.988 33.1153 46.108 32.6353 46.108ZM32.6833 39.352L33.9193 36.928H35.1553L33.5233 39.352H32.6833ZM37.3793 46V40.144H38.5553V41.392H38.4233C38.5993 40.944 38.8753 40.608 39.2513 40.384C39.6273 40.152 40.0593 40.036 40.5473 40.036C41.0113 40.036 41.3953 40.124 41.6993 40.3C42.0113 40.468 42.2433 40.728 42.3953 41.08C42.5473 41.424 42.6233 41.86 42.6233 42.388V46H41.4113V42.46C41.4113 42.124 41.3673 41.852 41.2793 41.644C41.1913 41.428 41.0593 41.268 40.8833 41.164C40.7073 41.06 40.4793 41.008 40.1993 41.008C39.8793 41.008 39.5953 41.076 39.3473 41.212C39.1073 41.348 38.9193 41.544 38.7833 41.8C38.6553 42.056 38.5913 42.352 38.5913 42.688V46H37.3793ZM46.9454 48.268C46.4174 48.268 45.9254 48.204 45.4694 48.076C45.0134 47.948 44.6094 47.756 44.2574 47.5L44.6294 46.636C44.8614 46.788 45.0974 46.916 45.3374 47.02C45.5854 47.132 45.8334 47.212 46.0814 47.26C46.3374 47.308 46.5974 47.332 46.8614 47.332C47.4214 47.332 47.8414 47.188 48.1214 46.9C48.4014 46.62 48.5414 46.204 48.5414 45.652V44.428H48.6494C48.5294 44.868 48.2774 45.216 47.8934 45.472C47.5094 45.728 47.0654 45.856 46.5614 45.856C46.0334 45.856 45.5734 45.736 45.1814 45.496C44.7894 45.248 44.4854 44.908 44.2694 44.476C44.0534 44.036 43.9454 43.524 43.9454 42.94C43.9454 42.356 44.0534 41.848 44.2694 41.416C44.4854 40.984 44.7894 40.648 45.1814 40.408C45.5734 40.16 46.0334 40.036 46.5614 40.036C47.0734 40.036 47.5174 40.164 47.8934 40.42C48.2774 40.676 48.5254 41.024 48.6374 41.464H48.5414V40.144H49.7174V45.508C49.7174 46.116 49.6134 46.624 49.4054 47.032C49.1974 47.448 48.8854 47.756 48.4694 47.956C48.0614 48.164 47.5534 48.268 46.9454 48.268ZM46.8494 44.908C47.3694 44.908 47.7774 44.732 48.0734 44.38C48.3774 44.028 48.5294 43.548 48.5294 42.94C48.5294 42.34 48.3774 41.864 48.0734 41.512C47.7774 41.16 47.3694 40.984 46.8494 40.984C46.3374 40.984 45.9294 41.16 45.6254 41.512C45.3214 41.864 45.1694 42.34 45.1694 42.94C45.1694 43.548 45.3214 44.028 45.6254 44.38C45.9294 44.732 46.3374 44.908 46.8494 44.908ZM57.0668 46.108C56.3388 46.108 55.7908 45.92 55.4228 45.544C55.0628 45.168 54.8828 44.624 54.8828 43.912V41.08H53.7428V40.144H54.8828V38.38H56.0948V40.144H57.9068V41.08H56.0948V43.816C56.0948 44.24 56.1828 44.56 56.3588 44.776C56.5428 44.992 56.8388 45.1 57.2467 45.1C57.3668 45.1 57.4868 45.084 57.6068 45.052C57.7348 45.02 57.8588 44.988 57.9788 44.956L58.1708 45.868C58.0508 45.94 57.8828 45.996 57.6668 46.036C57.4588 46.084 57.2588 46.108 57.0668 46.108ZM61.439 46.108C60.847 46.108 60.335 45.984 59.903 45.736C59.479 45.488 59.147 45.136 58.907 44.68C58.667 44.224 58.547 43.688 58.547 43.072C58.547 42.448 58.667 41.912 58.907 41.464C59.147 41.008 59.479 40.656 59.903 40.408C60.335 40.16 60.847 40.036 61.439 40.036C62.023 40.036 62.527 40.16 62.951 40.408C63.383 40.656 63.719 41.008 63.959 41.464C64.199 41.92 64.319 42.456 64.319 43.072C64.319 43.688 64.199 44.224 63.959 44.68C63.719 45.136 63.383 45.488 62.951 45.736C62.527 45.984 62.023 46.108 61.439 46.108ZM61.427 45.172C61.931 45.172 62.335 44.992 62.639 44.632C62.943 44.272 63.095 43.752 63.095 43.072C63.095 42.384 62.943 41.864 62.639 41.512C62.335 41.16 61.931 40.984 61.427 40.984C60.931 40.984 60.531 41.16 60.227 41.512C59.923 41.864 59.771 42.384 59.771 43.072C59.771 43.752 59.923 44.272 60.227 44.632C60.531 44.992 60.931 45.172 61.427 45.172ZM59.567 39.364L60.887 36.94H61.991L63.311 39.364H62.507L61.439 37.684L60.371 39.364H59.567ZM65.5721 38.788V37.528H66.9881V38.788H65.5721ZM65.6801 46V40.144H66.8921V46H65.6801ZM71.7504 46V40.144H72.9264V41.548H72.8064C72.9344 41.068 73.1624 40.704 73.4904 40.456C73.8264 40.208 74.2704 40.064 74.8224 40.024L75.2184 40L75.3024 41.032L74.5704 41.104C74.0504 41.152 73.6544 41.316 73.3824 41.596C73.1104 41.876 72.9744 42.26 72.9744 42.748V46H71.7504ZM78.893 46.108C78.253 46.108 77.701 45.988 77.237 45.748C76.781 45.5 76.425 45.152 76.169 44.704C75.921 44.248 75.797 43.708 75.797 43.084C75.797 42.476 75.921 41.944 76.169 41.488C76.417 41.032 76.757 40.676 77.189 40.42C77.621 40.164 78.113 40.036 78.665 40.036C79.209 40.036 79.673 40.156 80.057 40.396C80.449 40.628 80.749 40.96 80.957 41.392C81.165 41.824 81.269 42.34 81.269 42.94V43.348H76.757V42.604H80.453L80.249 42.772C80.249 42.172 80.117 41.708 79.853 41.38C79.589 41.052 79.209 40.888 78.713 40.888C78.337 40.888 78.017 40.976 77.753 41.152C77.497 41.328 77.301 41.572 77.165 41.884C77.029 42.196 76.961 42.56 76.961 42.976V43.048C76.961 43.512 77.033 43.904 77.177 44.224C77.329 44.536 77.549 44.772 77.837 44.932C78.125 45.092 78.481 45.172 78.905 45.172C79.241 45.172 79.569 45.12 79.889 45.016C80.217 44.904 80.525 44.732 80.813 44.5L81.173 45.34C80.909 45.58 80.569 45.768 80.153 45.904C79.737 46.04 79.317 46.108 78.893 46.108ZM77.081 38.956L76.445 38.908C76.485 38.388 76.625 37.98 76.865 37.684C77.105 37.38 77.417 37.228 77.801 37.228C77.977 37.228 78.137 37.268 78.281 37.348C78.433 37.428 78.605 37.548 78.797 37.708C78.973 37.852 79.113 37.952 79.217 38.008C79.321 38.064 79.425 38.092 79.529 38.092C79.737 38.092 79.901 38.016 80.021 37.864C80.149 37.712 80.233 37.488 80.273 37.192L80.909 37.228C80.877 37.756 80.741 38.168 80.501 38.464C80.261 38.76 79.949 38.908 79.565 38.908C79.405 38.908 79.249 38.872 79.097 38.8C78.953 38.728 78.773 38.608 78.557 38.44C78.389 38.296 78.253 38.196 78.149 38.14C78.045 38.084 77.937 38.056 77.825 38.056C77.625 38.056 77.461 38.132 77.333 38.284C77.213 38.428 77.129 38.652 77.081 38.956Z" fill="black"/>
<path d="M27.8608 62.11C27.0834 62.11 26.4161 61.9487 25.8588 61.626C25.3014 61.296 24.8724 60.834 24.5718 60.24C24.2711 59.646 24.1208 58.9383 24.1208 58.117C24.1208 57.2957 24.2711 56.5917 24.5718 56.005C24.8724 55.411 25.3014 54.9527 25.8588 54.63C26.4161 54.3073 27.0834 54.146 27.8608 54.146C28.3888 54.146 28.8801 54.2267 29.3348 54.388C29.7968 54.5493 30.1818 54.7877 30.4898 55.103L30.0828 56.016C29.7454 55.7227 29.4008 55.51 29.0488 55.378C28.6968 55.246 28.3118 55.18 27.8938 55.18C27.0724 55.18 26.4418 55.433 26.0018 55.939C25.5618 56.445 25.3418 57.171 25.3418 58.117C25.3418 59.063 25.5618 59.7927 26.0018 60.306C26.4418 60.812 27.0724 61.065 27.8938 61.065C28.3118 61.065 28.6968 60.999 29.0488 60.867C29.4008 60.735 29.7454 60.5223 30.0828 60.229L30.4898 61.142C30.1818 61.45 29.7968 61.6883 29.3348 61.857C28.8801 62.0257 28.3888 62.11 27.8608 62.11ZM31.7833 62V54.245H32.9053V57.743H32.7953C32.9566 57.347 33.2096 57.0427 33.5543 56.83C33.899 56.6173 34.2913 56.511 34.7313 56.511C35.1713 56.511 35.5306 56.5917 35.8093 56.753C36.0953 56.907 36.308 57.1453 36.4473 57.468C36.594 57.7907 36.6673 58.1977 36.6673 58.689V62H35.5343V58.755C35.5343 58.4543 35.494 58.2087 35.4133 58.018C35.34 57.82 35.219 57.6733 35.0503 57.578C34.889 57.4753 34.68 57.424 34.4233 57.424C34.1226 57.424 33.8586 57.49 33.6313 57.622C33.404 57.754 33.228 57.9373 33.1033 58.172C32.9786 58.3993 32.9163 58.6633 32.9163 58.964V62H31.7833ZM40.2296 62.099C39.7896 62.099 39.4192 62.0183 39.1186 61.857C38.8252 61.6957 38.6052 61.4537 38.4586 61.131C38.3192 60.8083 38.2496 60.405 38.2496 59.921V56.61H39.3826V59.91C39.3826 60.1887 39.4192 60.4233 39.4926 60.614C39.5732 60.8047 39.6942 60.9477 39.8556 61.043C40.0242 61.1383 40.2369 61.186 40.4936 61.186C40.7796 61.186 41.0289 61.1237 41.2416 60.999C41.4542 60.867 41.6192 60.6837 41.7366 60.449C41.8612 60.2143 41.9236 59.9467 41.9236 59.646V56.61H43.0676V62H41.9676V60.823H42.0886C41.9272 61.2337 41.6852 61.549 41.3626 61.769C41.0399 61.989 40.6622 62.099 40.2296 62.099ZM42.8256 57.248L42.1986 56.841V56.61C42.4772 56.6027 42.7009 56.5623 42.8696 56.489C43.0382 56.4083 43.1556 56.28 43.2216 56.104C43.2949 55.928 43.3316 55.697 43.3316 55.411V55.213H44.3436V55.565C44.3436 55.8877 44.2812 56.17 44.1566 56.412C44.0392 56.654 43.8669 56.8483 43.6396 56.995C43.4122 57.1343 43.1409 57.2187 42.8256 57.248ZM47.0604 62.099C46.5177 62.099 46.0447 61.9853 45.6414 61.758C45.2454 61.5307 44.9374 61.208 44.7174 60.79C44.4974 60.3647 44.3874 59.8697 44.3874 59.305C44.3874 58.733 44.4974 58.238 44.7174 57.82C44.9374 57.402 45.2454 57.0793 45.6414 56.852C46.0447 56.6247 46.5177 56.511 47.0604 56.511C47.6031 56.511 48.0724 56.6247 48.4684 56.852C48.8717 57.0793 49.1834 57.402 49.4034 57.82C49.6234 58.238 49.7334 58.733 49.7334 59.305C49.7334 59.8697 49.6234 60.3647 49.4034 60.79C49.1834 61.208 48.8717 61.5307 48.4684 61.758C48.0724 61.9853 47.6031 62.099 47.0604 62.099ZM47.0604 61.208C47.5297 61.208 47.9037 61.043 48.1824 60.713C48.4611 60.383 48.6004 59.91 48.6004 59.294C48.6004 58.6853 48.4611 58.2197 48.1824 57.897C47.9037 57.5743 47.5297 57.413 47.0604 57.413C46.5911 57.413 46.2171 57.5743 45.9384 57.897C45.6597 58.2197 45.5204 58.6853 45.5204 59.294C45.5204 59.91 45.6597 60.383 45.9384 60.713C46.2171 61.043 46.5911 61.208 47.0604 61.208ZM48.3144 57.248L47.6874 56.841V56.61C47.9661 56.6027 48.1897 56.5623 48.3584 56.489C48.5271 56.4083 48.6444 56.28 48.7104 56.104C48.7837 55.928 48.8204 55.697 48.8204 55.411V55.213H49.8324V55.565C49.8324 55.8877 49.7701 56.17 49.6454 56.412C49.5281 56.654 49.3557 56.8483 49.1284 56.995C48.9011 57.1343 48.6297 57.2187 48.3144 57.248ZM51.0548 62V56.61H52.1438V57.754H52.0558C52.2171 57.3507 52.4701 57.0427 52.8148 56.83C53.1668 56.6173 53.5628 56.511 54.0028 56.511C54.4428 56.511 54.8058 56.5917 55.0918 56.753C55.3778 56.907 55.5904 57.1453 55.7298 57.468C55.8691 57.7907 55.9388 58.1977 55.9388 58.689V62H54.8058V58.755C54.8058 58.4543 54.7654 58.2087 54.6848 58.018C54.6114 57.82 54.4904 57.6733 54.3218 57.578C54.1604 57.4753 53.9514 57.424 53.6948 57.424C53.3941 57.424 53.1301 57.49 52.9028 57.622C52.6754 57.754 52.4994 57.9373 52.3748 58.172C52.2501 58.3993 52.1878 58.6633 52.1878 58.964V62H51.0548ZM59.9741 64.079C59.5047 64.079 59.0574 64.0203 58.6321 63.903C58.2141 63.7857 57.8437 63.6097 57.5211 63.375L57.8731 62.55C58.0784 62.6893 58.2911 62.8067 58.5111 62.902C58.7384 62.9973 58.9657 63.067 59.1931 63.111C59.4277 63.1623 59.6661 63.188 59.9081 63.188C60.4287 63.188 60.8247 63.056 61.0961 62.792C61.3674 62.528 61.5031 62.1467 61.5031 61.648V60.57H61.5691C61.4517 60.966 61.2171 61.2813 60.8651 61.516C60.5204 61.7433 60.1207 61.857 59.6661 61.857C59.1747 61.857 58.7457 61.747 58.3791 61.527C58.0124 61.2997 57.7301 60.9843 57.5321 60.581C57.3341 60.1777 57.2351 59.712 57.2351 59.184C57.2351 58.6487 57.3341 58.183 57.5321 57.787C57.7301 57.3837 58.0124 57.072 58.3791 56.852C58.7457 56.6247 59.1747 56.511 59.6661 56.511C60.1281 56.511 60.5314 56.6283 60.8761 56.863C61.2281 57.0977 61.4591 57.4093 61.5691 57.798H61.4921V56.61H62.5921V61.516C62.5921 62.0733 62.4894 62.5427 62.2841 62.924C62.0861 63.3053 61.7927 63.5913 61.4041 63.782C61.0154 63.98 60.5387 64.079 59.9741 64.079ZM59.9301 60.966C60.4067 60.966 60.7844 60.8047 61.0631 60.482C61.3417 60.1593 61.4811 59.7267 61.4811 59.184C61.4811 58.634 61.3417 58.2013 61.0631 57.886C60.7844 57.5633 60.4067 57.402 59.9301 57.402C59.4534 57.402 59.0721 57.5633 58.7861 57.886C58.5074 58.2013 58.3681 58.634 58.3681 59.184C58.3681 59.7267 58.5074 60.1593 58.7861 60.482C59.0721 60.8047 59.4534 60.966 59.9301 60.966ZM70.3908 62V60.438H66.8818V59.58L70.5228 54.245H71.5238V59.47H72.6348V60.438H71.5238V62H70.3908ZM70.4018 59.47V55.631H70.6328L67.8278 59.756L67.8058 59.47H70.4018Z" fill="#667085"/>
<defs>
<filter id="filter0_d_8310_972" x="0" y="0" width="96" height="85.8462" filterUnits="userSpaceOnUse" color-interpolation-filters="sRGB">
<feFlood flood-opacity="0" result="BackgroundImageFix"/>
<feColorMatrix in="SourceAlpha" type="matrix" values="0 0 0 0 0 0 0 0 0 0 0 0 0 0 0 0 0 0 127 0" result="hardAlpha"/>
<feOffset dy="4"/>
<feGaussianBlur stdDeviation="2"/>
<feComposite in2="hardAlpha" operator="out"/>
<feColorMatrix type="matrix" values="0 0 0 0 0 0 0 0 0 0 0 0 0 0 0 0 0 0 0.25 0"/>
<feBlend mode="normal" in2="BackgroundImageFix" result="effect1_dropShadow_8310_972"/>
<feBlend mode="normal" in="SourceGraphic" in2="effect1_dropShadow_8310_972" result="shape"/>
</filter>
</defs>
</svg>
