<svg width="102" height="87" viewBox="0 0 102 87" fill="none" xmlns="http://www.w3.org/2000/svg">
<g filter="url(#filter0_d_8334_725)">
<path d="M5.45148 43.0956C4.65639 41.7858 4.25887 41.1305 4.10327 40.4343C3.96558 39.8181 3.96558 39.1816 4.10327 38.5654C4.25887 37.8692 4.65639 37.2139 5.45148 35.9041L24.7122 4.17068C25.5072 2.86076 25.9047 2.20579 26.4609 1.72945C26.953 1.30799 27.5327 0.989583 28.1625 0.794964C28.8742 0.574951 29.6693 0.574951 31.2595 0.574951H69.7806C71.3711 0.574951 72.1659 0.574951 72.8779 0.794964C73.5073 0.989583 74.0871 1.30799 74.5794 1.72945C75.1356 2.20579 75.533 2.86076 76.3282 4.17068L95.5887 35.9041C96.3839 37.2139 96.7813 37.8692 96.9368 38.5654C97.0747 39.1816 97.0747 39.8181 96.9368 40.4343C96.7813 41.1305 96.3839 41.7858 95.5887 43.0956L76.3282 74.8292C75.533 76.139 75.1356 76.7938 74.5794 77.2703C74.0871 77.6919 73.5073 78.0101 72.8779 78.2047C72.1659 78.4249 71.3711 78.4249 69.7806 78.4249H31.2595C29.6693 78.4249 28.8742 78.4249 28.1625 78.2047C27.5327 78.0101 26.953 77.6919 26.4609 77.2703C25.9047 76.7938 25.5072 76.139 24.7122 74.8292L5.45148 43.0956Z" fill="white"/>
</g>
<path d="M57.8718 13.4705L61.2121 20.1792C61.2711 20.2673 61.3002 20.3845 61.3293 20.4727C61.5346 21.0005 61.6808 21.7327 61.6808 22.2014V25.3945C61.6808 26.3911 61.0068 27.2114 60.0693 27.4458V29.3208C60.0693 30.2292 59.3371 30.9323 58.4577 30.9323C57.5493 30.9323 56.8461 30.2292 56.8461 29.3208V27.5039H44.0136V29.3208C44.0136 30.2292 43.3105 30.9323 42.4021 30.9323C41.5227 30.9323 40.7905 30.2292 40.7905 29.3208V27.4458C39.853 27.2114 39.179 26.3911 39.179 25.3945V22.2014C39.179 21.7327 39.3252 21.0005 39.5305 20.4727C39.5596 20.3845 39.5896 20.2673 39.6477 20.1792L42.988 13.4705C43.2515 12.9727 43.9546 12.5039 44.5405 12.5039H56.3183C56.9043 12.5039 57.6083 12.9727 57.8718 13.4705ZM44.3652 15.4917L42.5783 19.5642C42.4902 19.7105 42.4902 19.8867 42.4902 20.0039H58.3696C58.3696 19.8867 58.3696 19.7105 58.2815 19.5642L56.4946 15.4917C56.2602 14.9639 55.5571 14.4952 55.0002 14.4952H45.8596C45.3027 14.4952 44.5996 14.9639 44.3652 15.4917ZM43.5749 25.3936C44.5124 25.3936 45.2446 24.6314 45.2446 23.6648C45.2446 22.7273 44.5124 21.9952 43.5749 21.9952C42.6374 21.9952 41.8461 22.7273 41.8461 23.6648C41.8461 24.6314 42.6374 25.3936 43.5749 25.3936ZM57.2858 25.3936C58.2233 25.3936 59.0146 24.6314 59.0146 23.6648C59.0146 22.7273 58.2233 21.9952 57.2858 21.9952C56.3483 21.9952 55.6161 22.7273 55.6161 23.6648C55.6161 24.6314 56.3483 25.3936 57.2858 25.3936Z" fill="#F2BB41"/>
<path d="M24.3905 49.7317V41.2717H25.6385V45.0757H25.6625L29.5865 41.2717H31.1225L26.5265 45.6757L26.5505 45.0637L31.3625 49.7317H29.8025L25.6625 45.7837H25.6385V49.7317H24.3905ZM31.8614 42.5197V41.2597H33.2774V42.5197H31.8614ZM31.9694 49.7317V43.8757H33.1814V49.7317H31.9694ZM37.6354 49.8397C36.9954 49.8397 36.4434 49.7197 35.9794 49.4797C35.5234 49.2317 35.1674 48.8837 34.9114 48.4357C34.6634 47.9797 34.5394 47.4397 34.5394 46.8157C34.5394 46.2077 34.6634 45.6757 34.9114 45.2197C35.1594 44.7637 35.4994 44.4077 35.9314 44.1517C36.3634 43.8957 36.8554 43.7677 37.4074 43.7677C37.9514 43.7677 38.4154 43.8877 38.7994 44.1277C39.1914 44.3597 39.4914 44.6917 39.6994 45.1237C39.9074 45.5557 40.0114 46.0717 40.0114 46.6717V47.0797H35.4994V46.3357H39.1954L38.9914 46.5037C38.9914 45.9037 38.8594 45.4397 38.5954 45.1117C38.3314 44.7837 37.9514 44.6197 37.4554 44.6197C37.0794 44.6197 36.7594 44.7077 36.4954 44.8837C36.2394 45.0597 36.0434 45.3037 35.9074 45.6157C35.7714 45.9277 35.7034 46.2917 35.7034 46.7077V46.7797C35.7034 47.2437 35.7754 47.6357 35.9194 47.9557C36.0714 48.2677 36.2914 48.5037 36.5794 48.6637C36.8674 48.8237 37.2234 48.9037 37.6474 48.9037C37.9834 48.9037 38.3114 48.8517 38.6314 48.7477C38.9594 48.6357 39.2674 48.4637 39.5554 48.2317L39.9154 49.0717C39.6514 49.3117 39.3114 49.4997 38.8954 49.6357C38.4794 49.7717 38.0594 49.8397 37.6354 49.8397ZM35.5474 43.0957L36.8674 41.1517H37.9714L39.2914 43.0957H38.4874L37.4194 41.8597L36.3514 43.0957H35.5474ZM38.6914 41.8477C38.6914 41.6877 38.7234 41.5597 38.7874 41.4637C38.8514 41.3597 38.9274 41.2757 39.0154 41.2117C39.1034 41.1477 39.1794 41.0837 39.2434 41.0197C39.3154 40.9477 39.3514 40.8717 39.3514 40.7917C39.3514 40.7037 39.3074 40.6477 39.2194 40.6237C39.1394 40.5917 39.0234 40.5757 38.8714 40.5757C38.7594 40.5757 38.6434 40.5877 38.5234 40.6117C38.4114 40.6277 38.2874 40.6597 38.1514 40.7077L37.9834 40.2037C38.1354 40.1397 38.2994 40.0917 38.4754 40.0597C38.6514 40.0197 38.8554 39.9997 39.0874 39.9997C39.4394 39.9997 39.7114 40.0557 39.9034 40.1677C40.0954 40.2717 40.1914 40.4197 40.1914 40.6117C40.1914 40.7717 40.1514 40.8997 40.0714 40.9957C39.9914 41.0837 39.8994 41.1677 39.7954 41.2477C39.6914 41.3277 39.5994 41.4117 39.5194 41.4997C39.4394 41.5877 39.3994 41.7037 39.3994 41.8477H38.6914ZM41.3567 49.7317V43.8757H42.5327V45.1237H42.4007C42.5047 44.8357 42.6487 44.5917 42.8327 44.3917C43.0167 44.1917 43.2367 44.0397 43.4927 43.9357C43.7567 43.8237 44.0447 43.7677 44.3567 43.7677C44.8447 43.7677 45.2407 43.8837 45.5447 44.1157C45.8487 44.3477 46.0567 44.7037 46.1687 45.1837H46.0007C46.1527 44.7437 46.4127 44.3997 46.7807 44.1517C47.1487 43.8957 47.5767 43.7677 48.0647 43.7677C48.5127 43.7677 48.8807 43.8557 49.1687 44.0317C49.4567 44.1997 49.6727 44.4597 49.8167 44.8117C49.9607 45.1557 50.0327 45.5917 50.0327 46.1197V49.7317H48.8207V46.1797C48.8207 45.6837 48.7327 45.3197 48.5567 45.0877C48.3887 44.8557 48.1087 44.7397 47.7167 44.7397C47.4287 44.7397 47.1767 44.8077 46.9607 44.9437C46.7447 45.0797 46.5767 45.2797 46.4567 45.5437C46.3447 45.7997 46.2887 46.1037 46.2887 46.4557V49.7317H45.0767V46.1797C45.0767 45.6837 44.9927 45.3197 44.8247 45.0877C44.6567 44.8557 44.3767 44.7397 43.9847 44.7397C43.6887 44.7397 43.4327 44.8077 43.2167 44.9437C43.0087 45.0797 42.8487 45.2797 42.7367 45.5437C42.6247 45.7997 42.5687 46.1037 42.5687 46.4557V49.7317H41.3567ZM56.9316 49.8397C56.6196 49.8397 56.3156 49.8117 56.0196 49.7557C55.7236 49.6997 55.4516 49.6197 55.2036 49.5157C54.9556 49.4117 54.7356 49.2837 54.5436 49.1317L54.8916 48.3157C55.0916 48.4517 55.3036 48.5717 55.5276 48.6757C55.7516 48.7717 55.9836 48.8437 56.2236 48.8917C56.4716 48.9397 56.7116 48.9637 56.9436 48.9637C57.3676 48.9637 57.6876 48.8877 57.9036 48.7357C58.1196 48.5837 58.2276 48.3797 58.2276 48.1237C58.2276 47.9157 58.1556 47.7557 58.0116 47.6437C57.8676 47.5237 57.6516 47.4317 57.3636 47.3677L56.2236 47.1397C55.7276 47.0357 55.3516 46.8517 55.0956 46.5877C54.8396 46.3237 54.7116 45.9877 54.7116 45.5797C54.7116 45.2117 54.8116 44.8917 55.0116 44.6197C55.2116 44.3477 55.4916 44.1397 55.8516 43.9957C56.2116 43.8437 56.6276 43.7677 57.0996 43.7677C57.3716 43.7677 57.6356 43.7957 57.8916 43.8517C58.1476 43.9077 58.3876 43.9877 58.6116 44.0917C58.8436 44.1957 59.0396 44.3277 59.1996 44.4877L58.8516 45.3037C58.6996 45.1677 58.5236 45.0517 58.3236 44.9557C58.1316 44.8597 57.9316 44.7877 57.7236 44.7397C57.5156 44.6837 57.3076 44.6557 57.0996 44.6557C56.6756 44.6557 56.3556 44.7357 56.1396 44.8957C55.9316 45.0477 55.8276 45.2557 55.8276 45.5197C55.8276 45.7197 55.8916 45.8837 56.0196 46.0117C56.1476 46.1397 56.3476 46.2317 56.6196 46.2877L57.7596 46.5157C58.2796 46.6197 58.6716 46.7957 58.9356 47.0437C59.2076 47.2917 59.3436 47.6277 59.3436 48.0517C59.3436 48.4197 59.2436 48.7397 59.0436 49.0117C58.8436 49.2837 58.5596 49.4917 58.1916 49.6357C57.8316 49.7717 57.4116 49.8397 56.9316 49.8397ZM63.2361 49.8397C62.6441 49.8397 62.1321 49.7157 61.7001 49.4677C61.2761 49.2197 60.9441 48.8677 60.7041 48.4117C60.4641 47.9557 60.3441 47.4197 60.3441 46.8037C60.3441 46.1797 60.4641 45.6437 60.7041 45.1957C60.9441 44.7397 61.2761 44.3877 61.7001 44.1397C62.1321 43.8917 62.6441 43.7677 63.2361 43.7677C63.8201 43.7677 64.3241 43.8917 64.7481 44.1397C65.1801 44.3877 65.5161 44.7397 65.7561 45.1957C65.9961 45.6517 66.1161 46.1877 66.1161 46.8037C66.1161 47.4197 65.9961 47.9557 65.7561 48.4117C65.5161 48.8677 65.1801 49.2197 64.7481 49.4677C64.3241 49.7157 63.8201 49.8397 63.2361 49.8397ZM63.2241 48.9037C63.7281 48.9037 64.1321 48.7237 64.4361 48.3637C64.7401 48.0037 64.8921 47.4837 64.8921 46.8037C64.8921 46.1157 64.7401 45.5957 64.4361 45.2437C64.1321 44.8917 63.7281 44.7157 63.2241 44.7157C62.7281 44.7157 62.3281 44.8917 62.0241 45.2437C61.7201 45.5957 61.5681 46.1157 61.5681 46.8037C61.5681 47.4837 61.7201 48.0037 62.0241 48.3637C62.3281 48.7237 62.7281 48.9037 63.2241 48.9037ZM69.3492 49.8397C68.9412 49.8397 68.5732 49.7597 68.2452 49.5997C67.9252 49.4397 67.6732 49.2237 67.4892 48.9517C67.3052 48.6797 67.2132 48.3717 67.2132 48.0277C67.2132 47.5957 67.3212 47.2557 67.5372 47.0077C67.7612 46.7517 68.1252 46.5717 68.6292 46.4677C69.1412 46.3557 69.8292 46.2997 70.6932 46.2997H71.2572V47.0437H70.7052C70.2732 47.0437 69.9092 47.0597 69.6132 47.0917C69.3172 47.1237 69.0812 47.1757 68.9052 47.2477C68.7292 47.3117 68.6012 47.4037 68.5212 47.5237C68.4492 47.6437 68.4132 47.7877 68.4132 47.9557C68.4132 48.2597 68.5172 48.5077 68.7252 48.6997C68.9332 48.8837 69.2212 48.9757 69.5892 48.9757C69.8852 48.9757 70.1452 48.9077 70.3692 48.7717C70.5932 48.6277 70.7692 48.4357 70.8972 48.1957C71.0332 47.9557 71.1012 47.6797 71.1012 47.3677V45.9877C71.1012 45.5317 71.0052 45.2037 70.8132 45.0037C70.6212 44.8037 70.3052 44.7037 69.8652 44.7037C69.5292 44.7037 69.1932 44.7557 68.8572 44.8597C68.5212 44.9557 68.1772 45.1117 67.8252 45.3277L67.4532 44.4757C67.6612 44.3317 67.9012 44.2077 68.1732 44.1037C68.4452 43.9997 68.7292 43.9197 69.0252 43.8637C69.3292 43.7997 69.6212 43.7677 69.9012 43.7677C70.4372 43.7677 70.8772 43.8517 71.2212 44.0197C71.5732 44.1877 71.8332 44.4437 72.0012 44.7877C72.1692 45.1317 72.2532 45.5757 72.2532 46.1197V49.7317H71.1132V48.4237H71.2212C71.1572 48.7197 71.0372 48.9757 70.8612 49.1917C70.6932 49.3997 70.4812 49.5597 70.2252 49.6717C69.9692 49.7837 69.6772 49.8397 69.3492 49.8397ZM69.5052 43.0957L70.7412 40.6717H71.9772L70.3452 43.0957H69.5052ZM76.4186 49.8397C75.6906 49.8397 75.1426 49.6517 74.7746 49.2757C74.4146 48.8997 74.2346 48.3557 74.2346 47.6437V44.8117H73.0946V43.8757H74.2346V42.1117H75.4466V43.8757H77.2586V44.8117H75.4466V47.5477C75.4466 47.9717 75.5346 48.2917 75.7106 48.5077C75.8946 48.7237 76.1906 48.8317 76.5986 48.8317C76.7186 48.8317 76.8386 48.8157 76.9586 48.7837C77.0866 48.7517 77.2106 48.7197 77.3306 48.6877L77.5226 49.5997C77.4026 49.6717 77.2346 49.7277 77.0186 49.7677C76.8106 49.8157 76.6106 49.8397 76.4186 49.8397Z" fill="black"/>
<path d="M26.7877 71.8417C26.0103 71.8417 25.343 71.6804 24.7857 71.3577C24.2283 71.0277 23.7993 70.5657 23.4987 69.9717C23.198 69.3777 23.0477 68.67 23.0477 67.8487C23.0477 67.0274 23.198 66.3234 23.4987 65.7367C23.7993 65.1427 24.2283 64.6844 24.7857 64.3617C25.343 64.039 26.0103 63.8777 26.7877 63.8777C27.3157 63.8777 27.807 63.9584 28.2617 64.1197C28.7237 64.281 29.1087 64.5194 29.4167 64.8347L29.0097 65.7477C28.6723 65.4544 28.3277 65.2417 27.9757 65.1097C27.6237 64.9777 27.2387 64.9117 26.8207 64.9117C25.9993 64.9117 25.3687 65.1647 24.9287 65.6707C24.4887 66.1767 24.2687 66.9027 24.2687 67.8487C24.2687 68.7947 24.4887 69.5244 24.9287 70.0377C25.3687 70.5437 25.9993 70.7967 26.8207 70.7967C27.2387 70.7967 27.6237 70.7307 27.9757 70.5987C28.3277 70.4667 28.6723 70.254 29.0097 69.9607L29.4167 70.8737C29.1087 71.1817 28.7237 71.42 28.2617 71.5887C27.807 71.7574 27.3157 71.8417 26.7877 71.8417ZM30.7102 71.7317V63.9767H31.8322V67.4747H31.7222C31.8835 67.0787 32.1365 66.7744 32.4812 66.5617C32.8259 66.349 33.2182 66.2427 33.6582 66.2427C34.0982 66.2427 34.4575 66.3234 34.7362 66.4847C35.0222 66.6387 35.2349 66.877 35.3742 67.1997C35.5209 67.5224 35.5942 67.9294 35.5942 68.4207V71.7317H34.4612V68.4867C34.4612 68.186 34.4209 67.9404 34.3402 67.7497C34.2669 67.5517 34.1459 67.405 33.9772 67.3097C33.8159 67.207 33.6069 67.1557 33.3502 67.1557C33.0495 67.1557 32.7855 67.2217 32.5582 67.3537C32.3309 67.4857 32.1549 67.669 32.0302 67.9037C31.9055 68.131 31.8432 68.395 31.8432 68.6957V71.7317H30.7102ZM39.1565 71.8307C38.7165 71.8307 38.3462 71.75 38.0455 71.5887C37.7522 71.4274 37.5322 71.1854 37.3855 70.8627C37.2462 70.54 37.1765 70.1367 37.1765 69.6527V66.3417H38.3095V69.6417C38.3095 69.9204 38.3462 70.155 38.4195 70.3457C38.5002 70.5364 38.6212 70.6794 38.7825 70.7747C38.9512 70.87 39.1638 70.9177 39.4205 70.9177C39.7065 70.9177 39.9558 70.8554 40.1685 70.7307C40.3812 70.5987 40.5462 70.4154 40.6635 70.1807C40.7882 69.946 40.8505 69.6784 40.8505 69.3777V66.3417H41.9945V71.7317H40.8945V70.5547H41.0155C40.8542 70.9654 40.6122 71.2807 40.2895 71.5007C39.9668 71.7207 39.5892 71.8307 39.1565 71.8307ZM41.7525 66.9797L41.1255 66.5727V66.3417C41.4042 66.3344 41.6278 66.294 41.7965 66.2207C41.9652 66.14 42.0825 66.0117 42.1485 65.8357C42.2218 65.6597 42.2585 65.4287 42.2585 65.1427V64.9447H43.2705V65.2967C43.2705 65.6194 43.2082 65.9017 43.0835 66.1437C42.9662 66.3857 42.7938 66.58 42.5665 66.7267C42.3392 66.866 42.0678 66.9504 41.7525 66.9797ZM45.9873 71.8307C45.4447 71.8307 44.9717 71.717 44.5683 71.4897C44.1723 71.2624 43.8643 70.9397 43.6443 70.5217C43.4243 70.0964 43.3143 69.6014 43.3143 69.0367C43.3143 68.4647 43.4243 67.9697 43.6443 67.5517C43.8643 67.1337 44.1723 66.811 44.5683 66.5837C44.9717 66.3564 45.4447 66.2427 45.9873 66.2427C46.53 66.2427 46.9993 66.3564 47.3953 66.5837C47.7987 66.811 48.1103 67.1337 48.3303 67.5517C48.5503 67.9697 48.6603 68.4647 48.6603 69.0367C48.6603 69.6014 48.5503 70.0964 48.3303 70.5217C48.1103 70.9397 47.7987 71.2624 47.3953 71.4897C46.9993 71.717 46.53 71.8307 45.9873 71.8307ZM45.9873 70.9397C46.4567 70.9397 46.8307 70.7747 47.1093 70.4447C47.388 70.1147 47.5273 69.6417 47.5273 69.0257C47.5273 68.417 47.388 67.9514 47.1093 67.6287C46.8307 67.306 46.4567 67.1447 45.9873 67.1447C45.518 67.1447 45.144 67.306 44.8653 67.6287C44.5867 67.9514 44.4473 68.417 44.4473 69.0257C44.4473 69.6417 44.5867 70.1147 44.8653 70.4447C45.144 70.7747 45.518 70.9397 45.9873 70.9397ZM47.2413 66.9797L46.6143 66.5727V66.3417C46.893 66.3344 47.1167 66.294 47.2853 66.2207C47.454 66.14 47.5713 66.0117 47.6373 65.8357C47.7107 65.6597 47.7473 65.4287 47.7473 65.1427V64.9447H48.7593V65.2967C48.7593 65.6194 48.697 65.9017 48.5723 66.1437C48.455 66.3857 48.2827 66.58 48.0553 66.7267C47.828 66.866 47.5567 66.9504 47.2413 66.9797ZM49.9817 71.7317V66.3417H51.0707V67.4857H50.9827C51.144 67.0824 51.397 66.7744 51.7417 66.5617C52.0937 66.349 52.4897 66.2427 52.9297 66.2427C53.3697 66.2427 53.7327 66.3234 54.0187 66.4847C54.3047 66.6387 54.5174 66.877 54.6567 67.1997C54.796 67.5224 54.8657 67.9294 54.8657 68.4207V71.7317H53.7327V68.4867C53.7327 68.186 53.6924 67.9404 53.6117 67.7497C53.5384 67.5517 53.4174 67.405 53.2487 67.3097C53.0874 67.207 52.8784 67.1557 52.6217 67.1557C52.321 67.1557 52.057 67.2217 51.8297 67.3537C51.6024 67.4857 51.4264 67.669 51.3017 67.9037C51.177 68.131 51.1147 68.395 51.1147 68.6957V71.7317H49.9817ZM58.901 73.8107C58.4316 73.8107 57.9843 73.752 57.559 73.6347C57.141 73.5174 56.7706 73.3414 56.448 73.1067L56.8 72.2817C57.0053 72.421 57.218 72.5384 57.438 72.6337C57.6653 72.729 57.8926 72.7987 58.12 72.8427C58.3546 72.894 58.593 72.9197 58.835 72.9197C59.3556 72.9197 59.7516 72.7877 60.023 72.5237C60.2943 72.2597 60.43 71.8784 60.43 71.3797V70.3017H60.496C60.3786 70.6977 60.144 71.013 59.792 71.2477C59.4473 71.475 59.0476 71.5887 58.593 71.5887C58.1016 71.5887 57.6726 71.4787 57.306 71.2587C56.9393 71.0314 56.657 70.716 56.459 70.3127C56.261 69.9094 56.162 69.4437 56.162 68.9157C56.162 68.3804 56.261 67.9147 56.459 67.5187C56.657 67.1154 56.9393 66.8037 57.306 66.5837C57.6726 66.3564 58.1016 66.2427 58.593 66.2427C59.055 66.2427 59.4583 66.36 59.803 66.5947C60.155 66.8294 60.386 67.141 60.496 67.5297H60.419V66.3417H61.519V71.2477C61.519 71.805 61.4163 72.2744 61.211 72.6557C61.013 73.037 60.7196 73.323 60.331 73.5137C59.9423 73.7117 59.4656 73.8107 58.901 73.8107ZM58.857 70.6977C59.3336 70.6977 59.7113 70.5364 59.99 70.2137C60.2686 69.891 60.408 69.4584 60.408 68.9157C60.408 68.3657 60.2686 67.933 59.99 67.6177C59.7113 67.295 59.3336 67.1337 58.857 67.1337C58.3803 67.1337 57.999 67.295 57.713 67.6177C57.4343 67.933 57.295 68.3657 57.295 68.9157C57.295 69.4584 57.4343 69.891 57.713 70.2137C57.999 70.5364 58.3803 70.6977 58.857 70.6977ZM66.5127 71.7317V70.7637H68.3387V64.9447L68.9217 64.9557L66.8977 66.2207L66.4247 65.3627L68.6687 63.9767H69.4937V70.7637H71.1987V71.7317H66.5127ZM75.1874 71.8307C74.5861 71.8307 74.0764 71.6804 73.6584 71.3797C73.2478 71.0717 72.9361 70.6207 72.7234 70.0267C72.5181 69.4327 72.4154 68.7067 72.4154 67.8487C72.4154 66.976 72.5181 66.2464 72.7234 65.6597C72.9361 65.073 73.2478 64.6294 73.6584 64.3287C74.0764 64.028 74.5861 63.8777 75.1874 63.8777C75.7961 63.8777 76.3058 64.028 76.7164 64.3287C77.1271 64.622 77.4351 65.0657 77.6404 65.6597C77.8531 66.2464 77.9594 66.9724 77.9594 67.8377C77.9594 68.6957 77.8531 69.4217 77.6404 70.0157C77.4351 70.6097 77.1234 71.0607 76.7054 71.3687C76.2948 71.6767 75.7888 71.8307 75.1874 71.8307ZM75.1874 70.8627C75.7448 70.8627 76.1591 70.6207 76.4304 70.1367C76.7018 69.6454 76.8374 68.879 76.8374 67.8377C76.8374 66.7964 76.7018 66.0374 76.4304 65.5607C76.1664 65.084 75.7521 64.8457 75.1874 64.8457C74.6301 64.8457 74.2158 65.084 73.9444 65.5607C73.6731 66.0374 73.5374 66.7964 73.5374 67.8377C73.5374 68.879 73.6731 69.6454 73.9444 70.1367C74.2158 70.6207 74.6301 70.8627 75.1874 70.8627Z" fill="#667085"/>
<defs>
<filter id="filter0_d_8334_725" x="0" y="0.574951" width="101.04" height="85.8501" filterUnits="userSpaceOnUse" color-interpolation-filters="sRGB">
<feFlood flood-opacity="0" result="BackgroundImageFix"/>
<feColorMatrix in="SourceAlpha" type="matrix" values="0 0 0 0 0 0 0 0 0 0 0 0 0 0 0 0 0 0 127 0" result="hardAlpha"/>
<feOffset dy="4"/>
<feGaussianBlur stdDeviation="2"/>
<feComposite in2="hardAlpha" operator="out"/>
<feColorMatrix type="matrix" values="0 0 0 0 0 0 0 0 0 0 0 0 0 0 0 0 0 0 0.25 0"/>
<feBlend mode="normal" in2="BackgroundImageFix" result="effect1_dropShadow_8334_725"/>
<feBlend mode="normal" in="SourceGraphic" in2="effect1_dropShadow_8334_725" result="shape"/>
</filter>
</defs>
</svg>
