<svg width="102" height="92" viewBox="0 0 102 92" fill="none" xmlns="http://www.w3.org/2000/svg">
<g filter="url(#filter0_d_8310_900)">
<path d="M5.49766 45.8797C4.67727 44.4665 4.2671 43.7594 4.10655 43.0082C3.96448 42.3433 3.96448 41.6565 4.10655 40.9916C4.2671 40.2404 4.67727 39.5333 5.49766 38.1201L25.371 3.87978C26.1914 2.46638 26.6016 1.75968 27.1754 1.2457C27.6832 0.790942 28.2813 0.447387 28.9311 0.237394C29.6655 -2.168e-07 30.4859 0 32.1266 0H71.8732C73.5143 0 74.3343 -2.168e-07 75.069 0.237394C75.7185 0.447387 76.3167 0.790942 76.8247 1.2457C77.3985 1.75968 77.8085 2.46638 78.6291 3.87978L98.5023 38.1201C99.3228 39.5333 99.7328 40.2404 99.8932 40.9916C100.036 41.6565 100.036 42.3433 99.8932 43.0082C99.7328 43.7594 99.3228 44.4665 98.5023 45.8797L78.6291 80.1202C77.8085 81.5334 77.3985 82.24 76.8247 82.7541C76.3167 83.209 75.7185 83.5524 75.069 83.7624C74.3343 84 73.5143 84 71.8732 84H32.1266C30.4859 84 29.6655 84 28.9311 83.7624C28.2813 83.5524 27.6832 83.209 27.1754 82.7541C26.6016 82.24 26.1914 81.5334 25.371 80.1202L5.49766 45.8797Z" fill="white"/>
</g>
<path d="M56.2525 22.7959L56.5876 22.1493C56.694 21.9416 56.7931 21.7375 56.8862 21.5293C57.0689 21.1147 57.2182 20.6937 57.3123 20.2777C57.5036 19.438 57.404 18.6678 56.8935 18.0975C56.3831 17.5157 55.5402 17.1253 54.669 16.8532C52.8142 16.3194 50.9176 15.7254 49.0825 15.0287C48.6218 14.8538 48.1634 14.6721 47.7067 14.4785C47.257 14.2895 46.7694 14.0685 46.3232 13.7694C45.8822 13.4712 45.4197 13.074 45.1809 12.4649C45.0626 12.1654 45.0315 11.8266 45.0713 11.5188C45.1115 11.2102 45.2119 10.9293 45.3366 10.6791C45.596 10.1663 45.9142 9.79648 46.2009 9.39969L47.0936 8.23537L48.8977 5.93135L51.9692 2.06715L49.6277 2C49.6277 2 44.2941 6.90482 41.9134 10.0001C39.8436 12.6904 40.9741 15.0675 44.7183 16.6664C47.8784 18.0166 50.8363 19.0617 50.8363 19.0617C51.3459 19.3256 51.7084 19.7882 51.8289 20.3279C51.9495 20.8681 51.8162 21.4302 51.4632 21.8689L43.3156 32H51.4445L54.9019 25.3866L56.2525 22.7959Z" fill="#F2BB41"/>
<path d="M64.0727 17.2944C62.938 15.3963 60.9957 14.0576 58.7455 13.6224L50.7737 11.9417C50.4413 11.8778 50.1619 11.6668 50.0208 11.3737C49.8797 11.081 49.8948 10.7417 50.0605 10.4609L55.3599 2.16403L52.7787 2.09009L49.5154 6.40681L47.7721 8.74821L46.9151 9.92489C46.6393 10.3208 46.3352 10.7121 46.1676 11.0783C45.9891 11.4568 45.9443 11.8175 46.0731 12.117C46.1973 12.4239 46.5009 12.7092 46.8671 12.9385C47.2379 13.1732 47.6457 13.3498 48.0977 13.527C48.5424 13.7028 48.9936 13.8695 49.4479 14.0293C51.2734 14.6708 53.1121 15.1986 55.0143 15.6968C55.9896 15.9872 57.022 16.3762 57.8443 17.2438C58.2452 17.678 58.5443 18.2483 58.6579 18.8386C58.7748 19.4295 58.7365 20.0112 58.6342 20.5491C58.5265 21.0865 58.358 21.5915 58.1603 22.0727C58.0603 22.312 57.9525 22.549 57.842 22.7773L57.5206 23.4361L56.2325 26.0611L53.3097 32.0001H61.5495L64.6662 23.5247C65.4238 21.4636 65.2073 19.1924 64.0727 17.2944Z" fill="#F2BB41"/>
<path d="M34.0989 45.108C33.6589 45.108 33.2389 45.072 32.8389 45C32.4469 44.92 32.0829 44.808 31.7469 44.664C31.4189 44.512 31.1269 44.332 30.8709 44.124L31.2669 43.14C31.5389 43.34 31.8189 43.508 32.1069 43.644C32.3949 43.78 32.7029 43.884 33.0309 43.956C33.3589 44.02 33.7149 44.052 34.0989 44.052C34.7789 44.052 35.2789 43.932 35.5989 43.692C35.9269 43.444 36.0909 43.124 36.0909 42.732C36.0909 42.516 36.0389 42.332 35.9349 42.18C35.8389 42.028 35.6789 41.9 35.4549 41.796C35.2309 41.684 34.9389 41.592 34.5789 41.52L33.2949 41.256C32.5349 41.096 31.9669 40.832 31.5909 40.464C31.2229 40.096 31.0389 39.6 31.0389 38.976C31.0389 38.464 31.1749 38.016 31.4469 37.632C31.7189 37.248 32.0909 36.952 32.5629 36.744C33.0429 36.536 33.5949 36.432 34.2189 36.432C34.6029 36.432 34.9669 36.472 35.3109 36.552C35.6629 36.624 35.9869 36.736 36.2829 36.888C36.5869 37.04 36.8509 37.224 37.0749 37.44L36.6669 38.388C36.3229 38.084 35.9509 37.86 35.5509 37.716C35.1509 37.564 34.7029 37.488 34.2069 37.488C33.8149 37.488 33.4709 37.548 33.1749 37.668C32.8869 37.788 32.6629 37.956 32.5029 38.172C32.3509 38.388 32.2749 38.644 32.2749 38.94C32.2749 39.276 32.3829 39.544 32.5989 39.744C32.8149 39.944 33.1749 40.096 33.6789 40.2L34.9509 40.464C35.7509 40.632 36.3469 40.892 36.7389 41.244C37.1309 41.596 37.3269 42.064 37.3269 42.648C37.3269 43.136 37.1949 43.568 36.9309 43.944C36.6669 44.312 36.2949 44.6 35.8149 44.808C35.3349 45.008 34.7629 45.108 34.0989 45.108ZM40.6998 45.108C40.2278 45.108 39.8318 45.02 39.5118 44.844C39.1998 44.668 38.9638 44.408 38.8038 44.064C38.6518 43.712 38.5758 43.272 38.5758 42.744V39.144H39.7878V42.756C39.7878 43.068 39.8278 43.328 39.9078 43.536C39.9958 43.744 40.1278 43.896 40.3038 43.992C40.4878 44.088 40.7158 44.136 40.9878 44.136C41.2918 44.136 41.5598 44.068 41.7918 43.932C42.0238 43.796 42.2038 43.6 42.3318 43.344C42.4598 43.088 42.5238 42.792 42.5238 42.456V39.144H43.7358V45H42.5598V43.716H42.7158C42.5558 44.164 42.2998 44.508 41.9478 44.748C41.5958 44.988 41.1798 45.108 40.6998 45.108ZM43.4718 39.828L42.8118 39.396V39.144C43.1158 39.136 43.3598 39.092 43.5438 39.012C43.7278 38.924 43.8598 38.784 43.9398 38.592C44.0198 38.4 44.0598 38.144 44.0598 37.824V37.608H45.1158V37.992C45.1158 38.344 45.0478 38.652 44.9118 38.916C44.7838 39.18 44.5958 39.392 44.3478 39.552C44.1078 39.712 43.8158 39.804 43.4718 39.828ZM40.7838 38.364V38.124C40.7838 37.948 40.8198 37.804 40.8918 37.692C40.9638 37.572 41.0438 37.472 41.1318 37.392C41.2278 37.304 41.3118 37.22 41.3838 37.14C41.4558 37.052 41.4918 36.952 41.4918 36.84C41.4918 36.736 41.4478 36.656 41.3598 36.6C41.2798 36.544 41.1518 36.516 40.9758 36.516C40.8478 36.516 40.7238 36.532 40.6038 36.564C40.4918 36.588 40.3678 36.636 40.2318 36.708L40.0398 36.132C40.1998 36.036 40.3798 35.968 40.5798 35.928C40.7798 35.88 40.9958 35.856 41.2278 35.856C41.6118 35.856 41.9118 35.928 42.1278 36.072C42.3438 36.216 42.4518 36.424 42.4518 36.696C42.4518 36.896 42.4038 37.06 42.3078 37.188C42.2198 37.308 42.1158 37.412 41.9958 37.5C41.8838 37.588 41.7798 37.684 41.6838 37.788C41.5958 37.884 41.5518 38.016 41.5518 38.184V38.364H40.7838ZM50.8281 45.108C50.3161 45.108 49.8641 44.988 49.4721 44.748C49.0881 44.5 48.7881 44.148 48.5721 43.692C48.3561 43.228 48.2481 42.688 48.2481 42.072C48.2481 41.44 48.3561 40.9 48.5721 40.452C48.7881 40.004 49.0881 39.656 49.4721 39.408C49.8641 39.16 50.3161 39.036 50.8281 39.036C51.3401 39.036 51.7801 39.164 52.1481 39.42C52.5241 39.668 52.7761 40.004 52.9041 40.428H52.7721V36.54H53.9841V45H52.7961V43.68H52.9161C52.7881 44.112 52.5361 44.46 52.1601 44.724C51.7921 44.98 51.3481 45.108 50.8281 45.108ZM51.1401 44.172C51.6361 44.172 52.0361 43.992 52.3401 43.632C52.6441 43.272 52.7961 42.752 52.7961 42.072C52.7961 41.384 52.6441 40.864 52.3401 40.512C52.0361 40.16 51.6361 39.984 51.1401 39.984C50.6361 39.984 50.2321 40.16 49.9281 40.512C49.6241 40.864 49.4721 41.384 49.4721 42.072C49.4721 42.752 49.6241 43.272 49.9281 43.632C50.2321 43.992 50.6361 44.172 51.1401 44.172ZM57.774 45.108C57.302 45.108 56.906 45.02 56.586 44.844C56.274 44.668 56.038 44.408 55.878 44.064C55.726 43.712 55.65 43.272 55.65 42.744V39.144H56.862V42.756C56.862 43.068 56.902 43.328 56.982 43.536C57.07 43.744 57.202 43.896 57.378 43.992C57.562 44.088 57.79 44.136 58.062 44.136C58.366 44.136 58.634 44.068 58.866 43.932C59.098 43.796 59.278 43.6 59.406 43.344C59.534 43.088 59.598 42.792 59.598 42.456V39.144H60.81V45H59.634V43.716H59.79C59.63 44.164 59.374 44.508 59.022 44.748C58.67 44.988 58.254 45.108 57.774 45.108ZM57.606 47.34V46.128H58.878V47.34H57.606ZM62.518 45V39.144H63.694V40.392H63.562C63.738 39.944 64.014 39.608 64.39 39.384C64.766 39.152 65.198 39.036 65.686 39.036C66.15 39.036 66.534 39.124 66.838 39.3C67.15 39.468 67.382 39.728 67.534 40.08C67.686 40.424 67.762 40.86 67.762 41.388V45H66.55V41.46C66.55 41.124 66.506 40.852 66.418 40.644C66.33 40.428 66.198 40.268 66.022 40.164C65.846 40.06 65.618 40.008 65.338 40.008C65.018 40.008 64.734 40.076 64.486 40.212C64.246 40.348 64.058 40.544 63.922 40.8C63.794 41.056 63.73 41.352 63.73 41.688V45H62.518ZM72.0841 47.268C71.5561 47.268 71.0641 47.204 70.6081 47.076C70.1521 46.948 69.7481 46.756 69.3961 46.5L69.7681 45.636C70.0001 45.788 70.2361 45.916 70.4761 46.02C70.7241 46.132 70.9721 46.212 71.2201 46.26C71.4761 46.308 71.7361 46.332 72.0001 46.332C72.5601 46.332 72.9801 46.188 73.2601 45.9C73.5401 45.62 73.6801 45.204 73.6801 44.652V43.428H73.7881C73.6681 43.868 73.4161 44.216 73.0321 44.472C72.6481 44.728 72.2041 44.856 71.7001 44.856C71.1721 44.856 70.7121 44.736 70.3201 44.496C69.9281 44.248 69.6241 43.908 69.4081 43.476C69.1921 43.036 69.0841 42.524 69.0841 41.94C69.0841 41.356 69.1921 40.848 69.4081 40.416C69.6241 39.984 69.9281 39.648 70.3201 39.408C70.7121 39.16 71.1721 39.036 71.7001 39.036C72.2121 39.036 72.6561 39.164 73.0321 39.42C73.4161 39.676 73.6641 40.024 73.7761 40.464H73.6801V39.144H74.8561V44.508C74.8561 45.116 74.7521 45.624 74.5441 46.032C74.3361 46.448 74.0241 46.756 73.6081 46.956C73.2001 47.164 72.6921 47.268 72.0841 47.268ZM71.9881 43.908C72.5081 43.908 72.9161 43.732 73.2121 43.38C73.5161 43.028 73.6681 42.548 73.6681 41.94C73.6681 41.34 73.5161 40.864 73.2121 40.512C72.9161 40.16 72.5081 39.984 71.9881 39.984C71.4761 39.984 71.0681 40.16 70.7641 40.512C70.4601 40.864 70.3081 41.34 70.3081 41.94C70.3081 42.548 70.4601 43.028 70.7641 43.38C71.0681 43.732 71.4761 43.908 71.9881 43.908ZM38.723 61.108C38.211 61.108 37.759 60.988 37.367 60.748C36.983 60.5 36.683 60.148 36.467 59.692C36.251 59.228 36.143 58.688 36.143 58.072C36.143 57.44 36.247 56.9 36.455 56.452C36.671 56.004 36.971 55.656 37.355 55.408C37.747 55.16 38.203 55.036 38.723 55.036C39.235 55.036 39.675 55.164 40.043 55.42C40.419 55.668 40.671 56.004 40.799 56.428H40.667V54.412H38.363V53.536H40.667V52.54H41.879V53.536H42.947V54.412H41.879V61H40.667V59.68H40.799C40.679 60.112 40.431 60.46 40.055 60.724C39.679 60.98 39.235 61.108 38.723 61.108ZM39.023 60.172C39.527 60.172 39.927 59.992 40.223 59.632C40.527 59.272 40.679 58.752 40.679 58.072C40.679 57.384 40.527 56.864 40.223 56.512C39.927 56.16 39.527 55.984 39.023 55.984C38.695 55.984 38.403 56.064 38.147 56.224C37.899 56.376 37.707 56.608 37.571 56.92C37.435 57.232 37.367 57.616 37.367 58.072C37.367 58.752 37.519 59.272 37.823 59.632C38.127 59.992 38.527 60.172 39.023 60.172ZM45.6568 61.108C45.1848 61.108 44.7888 61.02 44.4688 60.844C44.1568 60.668 43.9208 60.408 43.7608 60.064C43.6088 59.712 43.5328 59.272 43.5328 58.744V55.144H44.7448V58.756C44.7448 59.068 44.7848 59.328 44.8648 59.536C44.9528 59.744 45.0848 59.896 45.2608 59.992C45.4448 60.088 45.6728 60.136 45.9448 60.136C46.2488 60.136 46.5168 60.068 46.7488 59.932C46.9808 59.796 47.1608 59.6 47.2888 59.344C47.4168 59.088 47.4808 58.792 47.4808 58.456V55.144H48.6928V61H47.5168V59.716H47.6728C47.5128 60.164 47.2568 60.508 46.9048 60.748C46.5528 60.988 46.1368 61.108 45.6568 61.108ZM48.4288 55.828L47.7688 55.396V55.144C48.0728 55.136 48.3168 55.092 48.5008 55.012C48.6848 54.924 48.8168 54.784 48.8968 54.592C48.9768 54.4 49.0168 54.144 49.0168 53.824V53.608H50.0728V53.992C50.0728 54.344 50.0048 54.652 49.8688 54.916C49.7408 55.18 49.5528 55.392 49.3048 55.552C49.0648 55.712 48.7728 55.804 48.4288 55.828ZM52.9448 61.108C52.3528 61.108 51.8408 60.984 51.4088 60.736C50.9848 60.488 50.6528 60.136 50.4128 59.68C50.1728 59.224 50.0528 58.688 50.0528 58.072C50.0528 57.448 50.1728 56.912 50.4128 56.464C50.6528 56.008 50.9848 55.656 51.4088 55.408C51.8408 55.16 52.3528 55.036 52.9448 55.036C53.5288 55.036 54.0328 55.16 54.4568 55.408C54.8888 55.656 55.2248 56.008 55.4648 56.464C55.7048 56.92 55.8248 57.456 55.8248 58.072C55.8248 58.688 55.7048 59.224 55.4648 59.68C55.2248 60.136 54.8888 60.488 54.4568 60.736C54.0328 60.984 53.5288 61.108 52.9448 61.108ZM52.9328 60.172C53.4368 60.172 53.8408 59.992 54.1448 59.632C54.4488 59.272 54.6008 58.752 54.6008 58.072C54.6008 57.384 54.4488 56.864 54.1448 56.512C53.8408 56.16 53.4368 55.984 52.9328 55.984C52.4368 55.984 52.0368 56.16 51.7328 56.512C51.4288 56.864 51.2768 57.384 51.2768 58.072C51.2768 58.752 51.4288 59.272 51.7328 59.632C52.0368 59.992 52.4368 60.172 52.9328 60.172ZM54.2648 55.828L53.6048 55.396V55.144C53.9088 55.136 54.1528 55.092 54.3368 55.012C54.5208 54.924 54.6528 54.784 54.7328 54.592C54.8128 54.4 54.8528 54.144 54.8528 53.824V53.608H55.9088V53.992C55.9088 54.344 55.8408 54.652 55.7048 54.916C55.5768 55.18 55.3888 55.392 55.1408 55.552C54.9008 55.712 54.6088 55.804 54.2648 55.828ZM52.5128 54.364L50.8808 51.94H52.1168L53.3528 54.364H52.5128ZM57.186 61V55.144H58.362V56.392H58.23C58.406 55.944 58.682 55.608 59.058 55.384C59.434 55.152 59.866 55.036 60.354 55.036C60.818 55.036 61.202 55.124 61.506 55.3C61.818 55.468 62.05 55.728 62.202 56.08C62.354 56.424 62.43 56.86 62.43 57.388V61H61.218V57.46C61.218 57.124 61.174 56.852 61.086 56.644C60.998 56.428 60.866 56.268 60.69 56.164C60.514 56.06 60.286 56.008 60.006 56.008C59.686 56.008 59.402 56.076 59.154 56.212C58.914 56.348 58.726 56.544 58.59 56.8C58.462 57.056 58.398 57.352 58.398 57.688V61H57.186ZM66.752 63.268C66.224 63.268 65.732 63.204 65.276 63.076C64.82 62.948 64.416 62.756 64.064 62.5L64.436 61.636C64.668 61.788 64.904 61.916 65.144 62.02C65.392 62.132 65.64 62.212 65.888 62.26C66.144 62.308 66.404 62.332 66.668 62.332C67.228 62.332 67.648 62.188 67.928 61.9C68.208 61.62 68.348 61.204 68.348 60.652V59.428H68.456C68.336 59.868 68.084 60.216 67.7 60.472C67.316 60.728 66.872 60.856 66.368 60.856C65.84 60.856 65.38 60.736 64.988 60.496C64.596 60.248 64.292 59.908 64.076 59.476C63.86 59.036 63.752 58.524 63.752 57.94C63.752 57.356 63.86 56.848 64.076 56.416C64.292 55.984 64.596 55.648 64.988 55.408C65.38 55.16 65.84 55.036 66.368 55.036C66.88 55.036 67.324 55.164 67.7 55.42C68.084 55.676 68.332 56.024 68.444 56.464H68.348V55.144H69.524V60.508C69.524 61.116 69.42 61.624 69.212 62.032C69.004 62.448 68.692 62.756 68.276 62.956C67.868 63.164 67.36 63.268 66.752 63.268ZM66.656 59.908C67.176 59.908 67.584 59.732 67.88 59.38C68.184 59.028 68.336 58.548 68.336 57.94C68.336 57.34 68.184 56.864 67.88 56.512C67.584 56.16 67.176 55.984 66.656 55.984C66.144 55.984 65.736 56.16 65.432 56.512C65.128 56.864 64.976 57.34 64.976 57.94C64.976 58.548 65.128 59.028 65.432 59.38C65.736 59.732 66.144 59.908 66.656 59.908Z" fill="black"/>
<path d="M32.6556 77.11C31.8783 77.11 31.211 76.9487 30.6536 76.626C30.0963 76.296 29.6673 75.834 29.3666 75.24C29.066 74.646 28.9156 73.9383 28.9156 73.117C28.9156 72.2957 29.066 71.5917 29.3666 71.005C29.6673 70.411 30.0963 69.9527 30.6536 69.63C31.211 69.3073 31.8783 69.146 32.6556 69.146C33.1836 69.146 33.675 69.2267 34.1296 69.388C34.5916 69.5493 34.9766 69.7877 35.2846 70.103L34.8776 71.016C34.5403 70.7227 34.1956 70.51 33.8436 70.378C33.4916 70.246 33.1066 70.18 32.6886 70.18C31.8673 70.18 31.2366 70.433 30.7966 70.939C30.3566 71.445 30.1366 72.171 30.1366 73.117C30.1366 74.063 30.3566 74.7927 30.7966 75.306C31.2366 75.812 31.8673 76.065 32.6886 76.065C33.1066 76.065 33.4916 75.999 33.8436 75.867C34.1956 75.735 34.5403 75.5223 34.8776 75.229L35.2846 76.142C34.9766 76.45 34.5916 76.6883 34.1296 76.857C33.675 77.0257 33.1836 77.11 32.6556 77.11ZM36.5782 77V69.245H37.7002V72.743H37.5902C37.7515 72.347 38.0045 72.0427 38.3492 71.83C38.6938 71.6173 39.0862 71.511 39.5262 71.511C39.9662 71.511 40.3255 71.5917 40.6042 71.753C40.8902 71.907 41.1028 72.1453 41.2422 72.468C41.3888 72.7907 41.4622 73.1977 41.4622 73.689V77H40.3292V73.755C40.3292 73.4543 40.2888 73.2087 40.2082 73.018C40.1348 72.82 40.0138 72.6733 39.8452 72.578C39.6838 72.4753 39.4748 72.424 39.2182 72.424C38.9175 72.424 38.6535 72.49 38.4262 72.622C38.1988 72.754 38.0228 72.9373 37.8982 73.172C37.7735 73.3993 37.7112 73.6633 37.7112 73.964V77H36.5782ZM45.0244 77.099C44.5844 77.099 44.2141 77.0183 43.9134 76.857C43.6201 76.6957 43.4001 76.4537 43.2534 76.131C43.1141 75.8083 43.0444 75.405 43.0444 74.921V71.61H44.1774V74.91C44.1774 75.1887 44.2141 75.4233 44.2874 75.614C44.3681 75.8047 44.4891 75.9477 44.6504 76.043C44.8191 76.1383 45.0318 76.186 45.2884 76.186C45.5744 76.186 45.8238 76.1237 46.0364 75.999C46.2491 75.867 46.4141 75.6837 46.5314 75.449C46.6561 75.2143 46.7184 74.9467 46.7184 74.646V71.61H47.8624V77H46.7624V75.823H46.8834C46.7221 76.2337 46.4801 76.549 46.1574 76.769C45.8348 76.989 45.4571 77.099 45.0244 77.099ZM47.6204 72.248L46.9934 71.841V71.61C47.2721 71.6027 47.4958 71.5623 47.6644 71.489C47.8331 71.4083 47.9504 71.28 48.0164 71.104C48.0898 70.928 48.1264 70.697 48.1264 70.411V70.213H49.1384V70.565C49.1384 70.8877 49.0761 71.17 48.9514 71.412C48.8341 71.654 48.6618 71.8483 48.4344 71.995C48.2071 72.1343 47.9358 72.2187 47.6204 72.248ZM51.8553 77.099C51.3126 77.099 50.8396 76.9853 50.4363 76.758C50.0403 76.5307 49.7323 76.208 49.5123 75.79C49.2923 75.3647 49.1823 74.8697 49.1823 74.305C49.1823 73.733 49.2923 73.238 49.5123 72.82C49.7323 72.402 50.0403 72.0793 50.4363 71.852C50.8396 71.6247 51.3126 71.511 51.8553 71.511C52.3979 71.511 52.8673 71.6247 53.2633 71.852C53.6666 72.0793 53.9783 72.402 54.1983 72.82C54.4183 73.238 54.5283 73.733 54.5283 74.305C54.5283 74.8697 54.4183 75.3647 54.1983 75.79C53.9783 76.208 53.6666 76.5307 53.2633 76.758C52.8673 76.9853 52.3979 77.099 51.8553 77.099ZM51.8553 76.208C52.3246 76.208 52.6986 76.043 52.9773 75.713C53.2559 75.383 53.3953 74.91 53.3953 74.294C53.3953 73.6853 53.2559 73.2197 52.9773 72.897C52.6986 72.5743 52.3246 72.413 51.8553 72.413C51.3859 72.413 51.0119 72.5743 50.7333 72.897C50.4546 73.2197 50.3153 73.6853 50.3153 74.294C50.3153 74.91 50.4546 75.383 50.7333 75.713C51.0119 76.043 51.3859 76.208 51.8553 76.208ZM53.1093 72.248L52.4823 71.841V71.61C52.7609 71.6027 52.9846 71.5623 53.1533 71.489C53.3219 71.4083 53.4393 71.28 53.5053 71.104C53.5786 70.928 53.6153 70.697 53.6153 70.411V70.213H54.6273V70.565C54.6273 70.8877 54.5649 71.17 54.4403 71.412C54.3229 71.654 54.1506 71.8483 53.9233 71.995C53.6959 72.1343 53.4246 72.2187 53.1093 72.248ZM55.8496 77V71.61H56.9386V72.754H56.8506C57.012 72.3507 57.265 72.0427 57.6096 71.83C57.9616 71.6173 58.3576 71.511 58.7976 71.511C59.2376 71.511 59.6006 71.5917 59.8866 71.753C60.1726 71.907 60.3853 72.1453 60.5246 72.468C60.664 72.7907 60.7336 73.1977 60.7336 73.689V77H59.6006V73.755C59.6006 73.4543 59.5603 73.2087 59.4796 73.018C59.4063 72.82 59.2853 72.6733 59.1166 72.578C58.9553 72.4753 58.7463 72.424 58.4896 72.424C58.189 72.424 57.925 72.49 57.6976 72.622C57.4703 72.754 57.2943 72.9373 57.1696 73.172C57.045 73.3993 56.9826 73.6633 56.9826 73.964V77H55.8496ZM64.7689 79.079C64.2996 79.079 63.8523 79.0203 63.4269 78.903C63.0089 78.7857 62.6386 78.6097 62.3159 78.375L62.6679 77.55C62.8733 77.6893 63.0859 77.8067 63.3059 77.902C63.5333 77.9973 63.7606 78.067 63.9879 78.111C64.2226 78.1623 64.4609 78.188 64.7029 78.188C65.2236 78.188 65.6196 78.056 65.8909 77.792C66.1623 77.528 66.2979 77.1467 66.2979 76.648V75.57H66.3639C66.2466 75.966 66.0119 76.2813 65.6599 76.516C65.3153 76.7433 64.9156 76.857 64.4609 76.857C63.9696 76.857 63.5406 76.747 63.1739 76.527C62.8073 76.2997 62.5249 75.9843 62.3269 75.581C62.1289 75.1777 62.0299 74.712 62.0299 74.184C62.0299 73.6487 62.1289 73.183 62.3269 72.787C62.5249 72.3837 62.8073 72.072 63.1739 71.852C63.5406 71.6247 63.9696 71.511 64.4609 71.511C64.9229 71.511 65.3263 71.6283 65.6709 71.863C66.0229 72.0977 66.2539 72.4093 66.3639 72.798H66.2869V71.61H67.3869V76.516C67.3869 77.0733 67.2843 77.5427 67.0789 77.924C66.8809 78.3053 66.5876 78.5913 66.1989 78.782C65.8103 78.98 65.3336 79.079 64.7689 79.079ZM64.7249 75.966C65.2016 75.966 65.5793 75.8047 65.8579 75.482C66.1366 75.1593 66.2759 74.7267 66.2759 74.184C66.2759 73.634 66.1366 73.2013 65.8579 72.886C65.5793 72.5633 65.2016 72.402 64.7249 72.402C64.2483 72.402 63.8669 72.5633 63.5809 72.886C63.3023 73.2013 63.1629 73.634 63.1629 74.184C63.1629 74.7267 63.3023 75.1593 63.5809 75.482C63.8669 75.8047 64.2483 75.966 64.7249 75.966ZM74.3387 77.099C73.994 77.099 73.6567 77.066 73.3267 77C73.004 76.9267 72.6997 76.824 72.4137 76.692C72.135 76.56 71.8857 76.395 71.6657 76.197L72.0727 75.306C72.4247 75.5847 72.784 75.79 73.1507 75.922C73.5173 76.0467 73.9023 76.109 74.3057 76.109C74.6503 76.109 74.94 76.0613 75.1747 75.966C75.4167 75.8707 75.6 75.7277 75.7247 75.537C75.8567 75.339 75.9227 75.097 75.9227 74.811C75.9227 74.393 75.7833 74.0813 75.5047 73.876C75.2333 73.6633 74.8337 73.557 74.3057 73.557H73.1067V72.589H74.1957C74.5037 72.589 74.7677 72.5377 74.9877 72.435C75.215 72.3323 75.391 72.1857 75.5157 71.995C75.6403 71.797 75.7027 71.5587 75.7027 71.28C75.7027 70.906 75.578 70.6237 75.3287 70.433C75.0793 70.235 74.7273 70.136 74.2727 70.136C73.884 70.136 73.5173 70.202 73.1727 70.334C72.828 70.466 72.5053 70.6787 72.2047 70.972L71.8087 70.092C72.1093 69.7913 72.487 69.5603 72.9417 69.399C73.3963 69.2303 73.8693 69.146 74.3607 69.146C74.874 69.146 75.314 69.2267 75.6807 69.388C76.0547 69.5493 76.337 69.7803 76.5277 70.081C76.7257 70.3743 76.8247 70.7337 76.8247 71.159C76.8247 71.621 76.6963 72.0207 76.4397 72.358C76.1903 72.6953 75.842 72.9227 75.3947 73.04V72.952C75.7393 73.0107 76.0327 73.128 76.2747 73.304C76.524 73.4727 76.7147 73.6927 76.8467 73.964C76.9787 74.228 77.0447 74.536 77.0447 74.888C77.0447 75.3427 76.9347 75.7387 76.7147 76.076C76.4947 76.406 76.183 76.659 75.7797 76.835C75.3763 77.011 74.896 77.099 74.3387 77.099Z" fill="#667085"/>
<defs>
<filter id="filter0_d_8310_900" x="0" y="0" width="104" height="92" filterUnits="userSpaceOnUse" color-interpolation-filters="sRGB">
<feFlood flood-opacity="0" result="BackgroundImageFix"/>
<feColorMatrix in="SourceAlpha" type="matrix" values="0 0 0 0 0 0 0 0 0 0 0 0 0 0 0 0 0 0 127 0" result="hardAlpha"/>
<feOffset dy="4"/>
<feGaussianBlur stdDeviation="2"/>
<feComposite in2="hardAlpha" operator="out"/>
<feColorMatrix type="matrix" values="0 0 0 0 0 0 0 0 0 0 0 0 0 0 0 0 0 0 0.25 0"/>
<feBlend mode="normal" in2="BackgroundImageFix" result="effect1_dropShadow_8310_900"/>
<feBlend mode="normal" in="SourceGraphic" in2="effect1_dropShadow_8310_900" result="shape"/>
</filter>
</defs>
</svg>
