<svg width="96" height="88" viewBox="0 0 96 88" fill="none" xmlns="http://www.w3.org/2000/svg">
<g filter="url(#filter0_d_8310_982)">
<path d="M5.37285 44.0185C4.62083 42.7089 4.24484 42.0536 4.09767 41.3574C3.96744 40.7412 3.96744 40.1048 4.09767 39.4886C4.24484 38.7924 4.62083 38.1371 5.37285 36.8274L23.5901 5.09555C24.3421 3.78569 24.7181 3.13076 25.2442 2.65444C25.7096 2.233 26.2579 1.91461 26.8535 1.72C27.5267 1.5 28.2787 1.5 29.7827 1.5H66.2171C67.7214 1.5 68.4731 1.5 69.1466 1.72C69.7419 1.91461 70.2903 2.233 70.756 2.65444C71.282 3.13076 71.6578 3.78569 72.41 5.09555L90.6271 36.8274C91.3792 38.1371 91.7551 38.7924 91.9021 39.4886C92.0326 40.1048 92.0326 40.7412 91.9021 41.3574C91.7551 42.0536 91.3792 42.7089 90.6271 44.0185L72.41 75.7506C71.6578 77.0603 71.282 77.7151 70.756 78.1915C70.2903 78.6131 69.7419 78.9313 69.1466 79.1259C68.4731 79.3462 67.7214 79.3462 66.2171 79.3462H29.7827C28.2787 79.3462 27.5267 79.3462 26.8535 79.1259C26.2579 78.9313 25.7096 78.6131 25.2442 78.1915C24.7181 77.7151 24.3421 77.0603 23.5901 75.7506L5.37285 44.0185Z" fill="white"/>
</g>
<path d="M46.5432 27.6574L36.0476 17.1618C35.1147 16.2288 35.1147 14.7711 36.0476 13.8382L46.5432 3.34253C47.4762 2.40959 48.9339 2.40959 49.8669 3.34253L60.3625 13.8382C61.2954 14.7711 61.2954 16.2288 60.3625 17.1618L49.8669 27.6574C48.9339 28.5903 47.4179 28.5903 46.5432 27.6574Z" fill="#F2BB41"/>
<path d="M48.1754 16.6948C48.8195 16.6948 49.3416 16.1727 49.3416 15.5287C49.3416 14.8846 48.8195 14.3625 48.1754 14.3625C47.5314 14.3625 47.0093 14.8846 47.0093 15.5287C47.0093 16.1727 47.5314 16.6948 48.1754 16.6948Z" fill="#E08838"/>
<path d="M52.84 16.6948C53.484 16.6948 54.0061 16.1727 54.0061 15.5287C54.0061 14.8846 53.484 14.3625 52.84 14.3625C52.1959 14.3625 51.6738 14.8846 51.6738 15.5287C51.6738 16.1727 52.1959 16.6948 52.84 16.6948Z" fill="#E08838"/>
<path d="M43.5109 16.6948C44.1549 16.6948 44.677 16.1727 44.677 15.5287C44.677 14.8846 44.1549 14.3625 43.5109 14.3625C42.8668 14.3625 42.3447 14.8846 42.3447 15.5287C42.3447 16.1727 42.8668 16.6948 43.5109 16.6948Z" fill="#E08838"/>
<path d="M27.7126 43.608C26.5846 43.608 25.7206 43.312 25.1206 42.72C24.5286 42.128 24.2326 41.252 24.2326 40.092V35.04H25.4806V40.068C25.4806 40.892 25.6686 41.508 26.0446 41.916C26.4286 42.324 26.9846 42.528 27.7126 42.528C28.4486 42.528 29.0046 42.324 29.3806 41.916C29.7566 41.508 29.9446 40.892 29.9446 40.068V35.04H31.1686V40.092C31.1686 41.252 30.8766 42.128 30.2926 42.72C29.7086 43.312 28.8486 43.608 27.7126 43.608ZM30.8926 35.712L30.2326 35.292V35.04C30.5526 35.032 30.8006 34.988 30.9766 34.908C31.1606 34.82 31.2886 34.68 31.3606 34.488C31.4406 34.288 31.4806 34.032 31.4806 33.72V33.504H32.5486V33.888C32.5486 34.24 32.4806 34.548 32.3446 34.812C32.2166 35.076 32.0286 35.288 31.7806 35.448C31.5326 35.6 31.2366 35.688 30.8926 35.712ZM35.0494 43.608C34.5774 43.608 34.1814 43.52 33.8614 43.344C33.5494 43.168 33.3134 42.908 33.1534 42.564C33.0014 42.212 32.9254 41.772 32.9254 41.244V37.644H34.1374V41.256C34.1374 41.568 34.1774 41.828 34.2574 42.036C34.3454 42.244 34.4774 42.396 34.6534 42.492C34.8374 42.588 35.0654 42.636 35.3374 42.636C35.6414 42.636 35.9094 42.568 36.1414 42.432C36.3734 42.296 36.5534 42.1 36.6814 41.844C36.8094 41.588 36.8734 41.292 36.8734 40.956V37.644H38.0854V43.5H36.9094V42.216H37.0654C36.9054 42.664 36.6494 43.008 36.2974 43.248C35.9454 43.488 35.5294 43.608 35.0494 43.608ZM45.4418 43.608C44.7138 43.608 44.1658 43.42 43.7978 43.044C43.4378 42.668 43.2578 42.124 43.2578 41.412V38.58H42.1178V37.644H43.2578V35.88H44.4698V37.644H46.2818V38.58H44.4698V41.316C44.4698 41.74 44.5578 42.06 44.7338 42.276C44.9178 42.492 45.2138 42.6 45.6217 42.6C45.7418 42.6 45.8618 42.584 45.9818 42.552C46.1098 42.52 46.2338 42.488 46.3538 42.456L46.5458 43.368C46.4258 43.44 46.2578 43.496 46.0418 43.536C45.8338 43.584 45.6338 43.608 45.4418 43.608ZM47.2206 36.288V35.028H48.6366V36.288H47.2206ZM47.3286 43.5V37.644H48.5406V43.5H47.3286ZM52.9945 43.608C52.3545 43.608 51.8025 43.488 51.3385 43.248C50.8825 43 50.5265 42.652 50.2705 42.204C50.0225 41.748 49.8985 41.208 49.8985 40.584C49.8985 39.976 50.0225 39.444 50.2705 38.988C50.5185 38.532 50.8585 38.176 51.2905 37.92C51.7225 37.664 52.2145 37.536 52.7665 37.536C53.3105 37.536 53.7745 37.656 54.1585 37.896C54.5505 38.128 54.8505 38.46 55.0585 38.892C55.2665 39.324 55.3705 39.84 55.3705 40.44V40.848H50.8585V40.104H54.5545L54.3505 40.272C54.3505 39.672 54.2185 39.208 53.9545 38.88C53.6905 38.552 53.3105 38.388 52.8145 38.388C52.4385 38.388 52.1185 38.476 51.8545 38.652C51.5985 38.828 51.4025 39.072 51.2665 39.384C51.1305 39.696 51.0625 40.06 51.0625 40.476V40.548C51.0625 41.012 51.1345 41.404 51.2785 41.724C51.4305 42.036 51.6505 42.272 51.9385 42.432C52.2265 42.592 52.5825 42.672 53.0065 42.672C53.3425 42.672 53.6705 42.62 53.9905 42.516C54.3185 42.404 54.6265 42.232 54.9145 42L55.2745 42.84C55.0105 43.08 54.6705 43.268 54.2545 43.404C53.8385 43.54 53.4185 43.608 52.9945 43.608ZM50.9065 36.864L52.2265 34.44H53.3305L54.6505 36.864H53.8465L52.7785 35.184L51.7105 36.864H50.9065ZM56.6918 43.5V37.644H57.8678V38.892H57.7358C57.9118 38.444 58.1878 38.108 58.5638 37.884C58.9398 37.652 59.3718 37.536 59.8598 37.536C60.3238 37.536 60.7078 37.624 61.0118 37.8C61.3238 37.968 61.5558 38.228 61.7078 38.58C61.8598 38.924 61.9358 39.36 61.9358 39.888V43.5H60.7238V39.96C60.7238 39.624 60.6798 39.352 60.5918 39.144C60.5038 38.928 60.3718 38.768 60.1958 38.664C60.0198 38.56 59.7918 38.508 59.5118 38.508C59.1918 38.508 58.9078 38.576 58.6598 38.712C58.4198 38.848 58.2318 39.044 58.0958 39.3C57.9678 39.556 57.9038 39.852 57.9038 40.188V43.5H56.6918ZM67.3103 43.5V42.456H69.2303V36.096H69.8543L67.7303 37.416L67.2263 36.492L69.5903 35.04H70.4663V42.456H72.2663V43.5H67.3103Z" fill="black"/>
<path d="M27.8608 59.61C27.0834 59.61 26.4161 59.4487 25.8588 59.126C25.3014 58.796 24.8724 58.334 24.5718 57.74C24.2711 57.146 24.1208 56.4383 24.1208 55.617C24.1208 54.7957 24.2711 54.0917 24.5718 53.505C24.8724 52.911 25.3014 52.4527 25.8588 52.13C26.4161 51.8073 27.0834 51.646 27.8608 51.646C28.3888 51.646 28.8801 51.7267 29.3348 51.888C29.7968 52.0493 30.1818 52.2877 30.4898 52.603L30.0828 53.516C29.7454 53.2227 29.4008 53.01 29.0488 52.878C28.6968 52.746 28.3118 52.68 27.8938 52.68C27.0724 52.68 26.4418 52.933 26.0018 53.439C25.5618 53.945 25.3418 54.671 25.3418 55.617C25.3418 56.563 25.5618 57.2927 26.0018 57.806C26.4418 58.312 27.0724 58.565 27.8938 58.565C28.3118 58.565 28.6968 58.499 29.0488 58.367C29.4008 58.235 29.7454 58.0223 30.0828 57.729L30.4898 58.642C30.1818 58.95 29.7968 59.1883 29.3348 59.357C28.8801 59.5257 28.3888 59.61 27.8608 59.61ZM31.7833 59.5V51.745H32.9053V55.243H32.7953C32.9566 54.847 33.2096 54.5427 33.5543 54.33C33.899 54.1173 34.2913 54.011 34.7313 54.011C35.1713 54.011 35.5306 54.0917 35.8093 54.253C36.0953 54.407 36.308 54.6453 36.4473 54.968C36.594 55.2907 36.6673 55.6977 36.6673 56.189V59.5H35.5343V56.255C35.5343 55.9543 35.494 55.7087 35.4133 55.518C35.34 55.32 35.219 55.1733 35.0503 55.078C34.889 54.9753 34.68 54.924 34.4233 54.924C34.1226 54.924 33.8586 54.99 33.6313 55.122C33.404 55.254 33.228 55.4373 33.1033 55.672C32.9786 55.8993 32.9163 56.1633 32.9163 56.464V59.5H31.7833ZM40.2296 59.599C39.7896 59.599 39.4192 59.5183 39.1186 59.357C38.8252 59.1957 38.6052 58.9537 38.4586 58.631C38.3192 58.3083 38.2496 57.905 38.2496 57.421V54.11H39.3826V57.41C39.3826 57.6887 39.4192 57.9233 39.4926 58.114C39.5732 58.3047 39.6942 58.4477 39.8556 58.543C40.0242 58.6383 40.2369 58.686 40.4936 58.686C40.7796 58.686 41.0289 58.6237 41.2416 58.499C41.4542 58.367 41.6192 58.1837 41.7366 57.949C41.8612 57.7143 41.9236 57.4467 41.9236 57.146V54.11H43.0676V59.5H41.9676V58.323H42.0886C41.9272 58.7337 41.6852 59.049 41.3626 59.269C41.0399 59.489 40.6622 59.599 40.2296 59.599ZM42.8256 54.748L42.1986 54.341V54.11C42.4772 54.1027 42.7009 54.0623 42.8696 53.989C43.0382 53.9083 43.1556 53.78 43.2216 53.604C43.2949 53.428 43.3316 53.197 43.3316 52.911V52.713H44.3436V53.065C44.3436 53.3877 44.2812 53.67 44.1566 53.912C44.0392 54.154 43.8669 54.3483 43.6396 54.495C43.4122 54.6343 43.1409 54.7187 42.8256 54.748ZM47.0604 59.599C46.5177 59.599 46.0447 59.4853 45.6414 59.258C45.2454 59.0307 44.9374 58.708 44.7174 58.29C44.4974 57.8647 44.3874 57.3697 44.3874 56.805C44.3874 56.233 44.4974 55.738 44.7174 55.32C44.9374 54.902 45.2454 54.5793 45.6414 54.352C46.0447 54.1247 46.5177 54.011 47.0604 54.011C47.6031 54.011 48.0724 54.1247 48.4684 54.352C48.8717 54.5793 49.1834 54.902 49.4034 55.32C49.6234 55.738 49.7334 56.233 49.7334 56.805C49.7334 57.3697 49.6234 57.8647 49.4034 58.29C49.1834 58.708 48.8717 59.0307 48.4684 59.258C48.0724 59.4853 47.6031 59.599 47.0604 59.599ZM47.0604 58.708C47.5297 58.708 47.9037 58.543 48.1824 58.213C48.4611 57.883 48.6004 57.41 48.6004 56.794C48.6004 56.1853 48.4611 55.7197 48.1824 55.397C47.9037 55.0743 47.5297 54.913 47.0604 54.913C46.5911 54.913 46.2171 55.0743 45.9384 55.397C45.6597 55.7197 45.5204 56.1853 45.5204 56.794C45.5204 57.41 45.6597 57.883 45.9384 58.213C46.2171 58.543 46.5911 58.708 47.0604 58.708ZM48.3144 54.748L47.6874 54.341V54.11C47.9661 54.1027 48.1897 54.0623 48.3584 53.989C48.5271 53.9083 48.6444 53.78 48.7104 53.604C48.7837 53.428 48.8204 53.197 48.8204 52.911V52.713H49.8324V53.065C49.8324 53.3877 49.7701 53.67 49.6454 53.912C49.5281 54.154 49.3557 54.3483 49.1284 54.495C48.9011 54.6343 48.6297 54.7187 48.3144 54.748ZM51.0548 59.5V54.11H52.1438V55.254H52.0558C52.2171 54.8507 52.4701 54.5427 52.8148 54.33C53.1668 54.1173 53.5628 54.011 54.0028 54.011C54.4428 54.011 54.8058 54.0917 55.0918 54.253C55.3778 54.407 55.5904 54.6453 55.7298 54.968C55.8691 55.2907 55.9388 55.6977 55.9388 56.189V59.5H54.8058V56.255C54.8058 55.9543 54.7654 55.7087 54.6848 55.518C54.6114 55.32 54.4904 55.1733 54.3218 55.078C54.1604 54.9753 53.9514 54.924 53.6948 54.924C53.3941 54.924 53.1301 54.99 52.9028 55.122C52.6754 55.254 52.4994 55.4373 52.3748 55.672C52.2501 55.8993 52.1878 56.1633 52.1878 56.464V59.5H51.0548ZM59.9741 61.579C59.5047 61.579 59.0574 61.5203 58.6321 61.403C58.2141 61.2857 57.8437 61.1097 57.5211 60.875L57.8731 60.05C58.0784 60.1893 58.2911 60.3067 58.5111 60.402C58.7384 60.4973 58.9657 60.567 59.1931 60.611C59.4277 60.6623 59.6661 60.688 59.9081 60.688C60.4287 60.688 60.8247 60.556 61.0961 60.292C61.3674 60.028 61.5031 59.6467 61.5031 59.148V58.07H61.5691C61.4517 58.466 61.2171 58.7813 60.8651 59.016C60.5204 59.2433 60.1207 59.357 59.6661 59.357C59.1747 59.357 58.7457 59.247 58.3791 59.027C58.0124 58.7997 57.7301 58.4843 57.5321 58.081C57.3341 57.6777 57.2351 57.212 57.2351 56.684C57.2351 56.1487 57.3341 55.683 57.5321 55.287C57.7301 54.8837 58.0124 54.572 58.3791 54.352C58.7457 54.1247 59.1747 54.011 59.6661 54.011C60.1281 54.011 60.5314 54.1283 60.8761 54.363C61.2281 54.5977 61.4591 54.9093 61.5691 55.298H61.4921V54.11H62.5921V59.016C62.5921 59.5733 62.4894 60.0427 62.2841 60.424C62.0861 60.8053 61.7927 61.0913 61.4041 61.282C61.0154 61.48 60.5387 61.579 59.9741 61.579ZM59.9301 58.466C60.4067 58.466 60.7844 58.3047 61.0631 57.982C61.3417 57.6593 61.4811 57.2267 61.4811 56.684C61.4811 56.134 61.3417 55.7013 61.0631 55.386C60.7844 55.0633 60.4067 54.902 59.9301 54.902C59.4534 54.902 59.0721 55.0633 58.7861 55.386C58.5074 55.7013 58.3681 56.134 58.3681 56.684C58.3681 57.2267 58.5074 57.6593 58.7861 57.982C59.0721 58.3047 59.4534 58.466 59.9301 58.466ZM69.7638 59.599C69.4338 59.599 69.1075 59.566 68.7848 59.5C68.4621 59.4267 68.1615 59.3203 67.8828 59.181C67.6115 59.0417 67.3695 58.8803 67.1568 58.697L67.5638 57.806C67.9085 58.0773 68.2605 58.279 68.6198 58.411C68.9791 58.543 69.3568 58.609 69.7528 58.609C70.2588 58.609 70.6548 58.477 70.9408 58.213C71.2268 57.9417 71.3698 57.5787 71.3698 57.124C71.3698 56.662 71.2341 56.288 70.9628 56.002C70.6915 55.716 70.3175 55.573 69.8408 55.573C69.4961 55.573 69.1918 55.639 68.9278 55.771C68.6638 55.903 68.4255 56.112 68.2128 56.398H67.3878V51.745H72.0408V52.713H68.4988V55.474H68.2568C68.4401 55.2027 68.6895 54.99 69.0048 54.836C69.3275 54.682 69.6868 54.605 70.0828 54.605C70.5741 54.605 70.9995 54.7113 71.3588 54.924C71.7181 55.1293 71.9968 55.419 72.1948 55.793C72.3928 56.1597 72.4918 56.5887 72.4918 57.08C72.4918 57.5787 72.3818 58.0187 72.1618 58.4C71.9418 58.7813 71.6265 59.0783 71.2158 59.291C70.8125 59.4963 70.3285 59.599 69.7638 59.599Z" fill="#667085"/>
<defs>
<filter id="filter0_d_8310_982" x="0" y="1.5" width="96" height="85.8462" filterUnits="userSpaceOnUse" color-interpolation-filters="sRGB">
<feFlood flood-opacity="0" result="BackgroundImageFix"/>
<feColorMatrix in="SourceAlpha" type="matrix" values="0 0 0 0 0 0 0 0 0 0 0 0 0 0 0 0 0 0 127 0" result="hardAlpha"/>
<feOffset dy="4"/>
<feGaussianBlur stdDeviation="2"/>
<feComposite in2="hardAlpha" operator="out"/>
<feColorMatrix type="matrix" values="0 0 0 0 0 0 0 0 0 0 0 0 0 0 0 0 0 0 0.25 0"/>
<feBlend mode="normal" in2="BackgroundImageFix" result="effect1_dropShadow_8310_982"/>
<feBlend mode="normal" in="SourceGraphic" in2="effect1_dropShadow_8310_982" result="shape"/>
</filter>
</defs>
</svg>
