<svg width="96" height="87" viewBox="0 0 96 87" fill="none" xmlns="http://www.w3.org/2000/svg">
<g filter="url(#filter0_d_8310_691)">
<path d="M5.37285 43.0954C4.62083 41.7858 4.24484 41.1305 4.09767 40.4343C3.96744 39.8181 3.96744 39.1817 4.09767 38.5655C4.24484 37.8693 4.62083 37.214 5.37285 35.9043L23.5901 4.17245C24.3421 2.8626 24.7181 2.20767 25.2442 1.73135C25.7096 1.3099 26.2579 0.991516 26.8535 0.796907C27.5267 0.576904 28.2787 0.576904 29.7827 0.576904H66.2171C67.7214 0.576904 68.4731 0.576904 69.1466 0.796907C69.7419 0.991516 70.2903 1.3099 70.756 1.73135C71.282 2.20767 71.6578 2.8626 72.41 4.17245L90.6271 35.9043C91.3792 37.214 91.7551 37.8693 91.9021 38.5655C92.0326 39.1817 92.0326 39.8181 91.9021 40.4343C91.7551 41.1305 91.3792 41.7858 90.6271 43.0954L72.41 74.8275C71.6578 76.1372 71.282 76.792 70.756 77.2684C70.2903 77.69 69.7419 78.0082 69.1466 78.2028C68.4731 78.4231 67.7214 78.4231 66.2171 78.4231H29.7827C28.2787 78.4231 27.5267 78.4231 26.8535 78.2028C26.2579 78.0082 25.7096 77.69 25.2442 77.2684C24.7181 76.792 24.3421 76.1372 23.5901 74.8275L5.37285 43.0954Z" fill="white"/>
</g>
<path d="M52.2051 14.0769H41.2051C40.1051 14.0769 39.2051 14.9769 39.2051 16.0769V36.0769C39.2051 37.1769 40.1051 38.0769 41.2051 38.0769H55.2051C56.3051 38.0769 57.2051 37.1769 57.2051 36.0769V19.0769L52.2051 14.0769Z" fill="#F2BB41" stroke="#F2BB41" stroke-width="2" stroke-miterlimit="10" stroke-linecap="round" stroke-linejoin="round"/>
<path d="M52.2051 14.0769V19.0769H57.2051L52.2051 14.0769Z" fill="#E08838" stroke="#E08838" stroke-width="2" stroke-miterlimit="10" stroke-linecap="round" stroke-linejoin="round"/>
<path d="M26.7535 54.0769V45.6169H29.7415C30.6695 45.6169 31.4575 45.7809 32.1055 46.1089C32.7535 46.4289 33.2455 46.9049 33.5815 47.5369C33.9255 48.1609 34.0975 48.9289 34.0975 49.8409C34.0975 50.7529 33.9255 51.5249 33.5815 52.1569C33.2455 52.7809 32.7535 53.2569 32.1055 53.5849C31.4575 53.9129 30.6695 54.0769 29.7415 54.0769H26.7535ZM28.0015 53.0329H29.6695C30.7175 53.0329 31.5015 52.7689 32.0215 52.2409C32.5415 51.7049 32.8015 50.9049 32.8015 49.8409C32.8015 48.7769 32.5375 47.9809 32.0095 47.4529C31.4895 46.9249 30.7095 46.6609 29.6695 46.6609H28.0015V53.0329ZM25.7095 50.2489V49.3249H30.3175V50.2489H25.7095ZM37.5053 54.1849C37.0973 54.1849 36.7293 54.1049 36.4013 53.9449C36.0813 53.7849 35.8293 53.5689 35.6453 53.2969C35.4613 53.0249 35.3693 52.7169 35.3693 52.3729C35.3693 51.9409 35.4773 51.6009 35.6933 51.3529C35.9173 51.0969 36.2813 50.9169 36.7853 50.8129C37.2973 50.7009 37.9853 50.6449 38.8493 50.6449H39.4133V51.3889H38.8613C38.4293 51.3889 38.0653 51.4049 37.7693 51.4369C37.4733 51.4689 37.2373 51.5209 37.0613 51.5929C36.8853 51.6569 36.7573 51.7489 36.6773 51.8689C36.6053 51.9889 36.5693 52.1329 36.5693 52.3009C36.5693 52.6049 36.6733 52.8529 36.8813 53.0449C37.0893 53.2289 37.3773 53.3209 37.7453 53.3209C38.0413 53.3209 38.3013 53.2529 38.5253 53.1169C38.7493 52.9729 38.9253 52.7809 39.0533 52.5409C39.1893 52.3009 39.2573 52.0249 39.2573 51.7129V50.3329C39.2573 49.8769 39.1613 49.5489 38.9693 49.3489C38.7773 49.1489 38.4613 49.0489 38.0213 49.0489C37.6853 49.0489 37.3493 49.1009 37.0133 49.2049C36.6773 49.3009 36.3333 49.4569 35.9813 49.6729L35.6093 48.8209C35.8173 48.6769 36.0573 48.5529 36.3293 48.4489C36.6013 48.3449 36.8853 48.2649 37.1813 48.2089C37.4853 48.1449 37.7773 48.1129 38.0573 48.1129C38.5933 48.1129 39.0333 48.1969 39.3773 48.3649C39.7293 48.5329 39.9893 48.7889 40.1573 49.1329C40.3253 49.4769 40.4093 49.9209 40.4093 50.4649V54.0769H39.2693V52.7689H39.3773C39.3133 53.0649 39.1933 53.3209 39.0173 53.5369C38.8493 53.7449 38.6373 53.9049 38.3813 54.0169C38.1253 54.1289 37.8333 54.1849 37.5053 54.1849ZM38.0813 47.4769C37.7133 47.4769 37.3853 47.3849 37.0973 47.2009C36.8173 47.0169 36.5973 46.7529 36.4373 46.4089C36.2773 46.0649 36.1853 45.6569 36.1613 45.1849L36.8813 45.1129C36.9133 45.6249 37.0333 46.0209 37.2413 46.3009C37.4493 46.5729 37.7293 46.7089 38.0813 46.7089C38.4333 46.7089 38.7133 46.5729 38.9213 46.3009C39.1293 46.0209 39.2493 45.6249 39.2813 45.1129L40.0013 45.1849C39.9853 45.6569 39.8973 46.0649 39.7373 46.4089C39.5773 46.7529 39.3533 47.0169 39.0653 47.2009C38.7853 47.3849 38.4573 47.4769 38.0813 47.4769ZM42.0786 54.0769V48.2209H43.2546V49.4689H43.1226C43.2986 49.0209 43.5746 48.6849 43.9506 48.4609C44.3266 48.2289 44.7586 48.1129 45.2466 48.1129C45.7106 48.1129 46.0946 48.2009 46.3986 48.3769C46.7106 48.5449 46.9426 48.8049 47.0946 49.1569C47.2466 49.5009 47.3226 49.9369 47.3226 50.4649V54.0769H46.1106V50.5369C46.1106 50.2009 46.0666 49.9289 45.9786 49.7209C45.8906 49.5049 45.7586 49.3449 45.5826 49.2409C45.4066 49.1369 45.1786 49.0849 44.8986 49.0849C44.5786 49.0849 44.2946 49.1529 44.0466 49.2889C43.8066 49.4249 43.6186 49.6209 43.4826 49.8769C43.3546 50.1329 43.2906 50.4289 43.2906 50.7649V54.0769H42.0786ZM51.6446 56.3449C51.1166 56.3449 50.6246 56.2809 50.1686 56.1529C49.7126 56.0249 49.3086 55.8329 48.9566 55.5769L49.3286 54.7129C49.5606 54.8649 49.7966 54.9929 50.0366 55.0969C50.2846 55.2089 50.5326 55.2889 50.7806 55.3369C51.0366 55.3849 51.2966 55.4089 51.5606 55.4089C52.1206 55.4089 52.5406 55.2649 52.8206 54.9769C53.1006 54.6969 53.2406 54.2809 53.2406 53.7289V52.5049H53.3486C53.2286 52.9449 52.9766 53.2929 52.5926 53.5489C52.2086 53.8049 51.7646 53.9329 51.2606 53.9329C50.7326 53.9329 50.2726 53.8129 49.8806 53.5729C49.4886 53.3249 49.1846 52.9849 48.9686 52.5529C48.7526 52.1129 48.6446 51.6009 48.6446 51.0169C48.6446 50.4329 48.7526 49.9249 48.9686 49.4929C49.1846 49.0609 49.4886 48.7249 49.8806 48.4849C50.2726 48.2369 50.7326 48.1129 51.2606 48.1129C51.7726 48.1129 52.2166 48.2409 52.5926 48.4969C52.9766 48.7529 53.2246 49.1009 53.3366 49.5409H53.2406V48.2209H54.4166V53.5849C54.4166 54.1929 54.3126 54.7009 54.1046 55.1089C53.8966 55.5249 53.5846 55.8329 53.1686 56.0329C52.7606 56.2409 52.2526 56.3449 51.6446 56.3449ZM51.5486 52.9849C52.0686 52.9849 52.4766 52.8089 52.7726 52.4569C53.0766 52.1049 53.2286 51.6249 53.2286 51.0169C53.2286 50.4169 53.0766 49.9409 52.7726 49.5889C52.4766 49.2369 52.0686 49.0609 51.5486 49.0609C51.0366 49.0609 50.6286 49.2369 50.3246 49.5889C50.0206 49.9409 49.8686 50.4169 49.8686 51.0169C49.8686 51.6249 50.0206 52.1049 50.3246 52.4569C50.6286 52.8089 51.0366 52.9849 51.5486 52.9849ZM59.27 54.0769V45.6169H60.482V50.7769H60.506L63.05 48.2209H64.55L61.466 51.3169V50.7529L64.766 54.0769H63.254L60.506 51.4009H60.482V54.0769H59.27ZM65.8583 56.2369L67.0103 53.6689V54.1849L64.4543 48.2209H65.7503L67.7183 53.0809H67.3823L69.3743 48.2209H70.6223L67.1303 56.2369H65.8583ZM67.1183 47.4409L68.3543 45.0169H69.5903L67.9583 47.4409H67.1183Z" fill="black"/>
<defs>
<filter id="filter0_d_8310_691" x="0" y="0.576904" width="96" height="85.8462" filterUnits="userSpaceOnUse" color-interpolation-filters="sRGB">
<feFlood flood-opacity="0" result="BackgroundImageFix"/>
<feColorMatrix in="SourceAlpha" type="matrix" values="0 0 0 0 0 0 0 0 0 0 0 0 0 0 0 0 0 0 127 0" result="hardAlpha"/>
<feOffset dy="4"/>
<feGaussianBlur stdDeviation="2"/>
<feComposite in2="hardAlpha" operator="out"/>
<feColorMatrix type="matrix" values="0 0 0 0 0 0 0 0 0 0 0 0 0 0 0 0 0 0 0.25 0"/>
<feBlend mode="normal" in2="BackgroundImageFix" result="effect1_dropShadow_8310_691"/>
<feBlend mode="normal" in="SourceGraphic" in2="effect1_dropShadow_8310_691" result="shape"/>
</filter>
</defs>
</svg>
