<svg width="101" height="87" viewBox="0 0 101 87" fill="none" xmlns="http://www.w3.org/2000/svg">
<g filter="url(#filter0_d_8358_581)">
<path d="M5.93525 43.0953C5.14905 41.7856 4.75597 41.1303 4.60211 40.4341C4.46596 39.8178 4.46596 39.1814 4.60211 38.5652C4.75597 37.8689 5.14905 37.2136 5.93525 35.9039L24.9806 4.17043C25.7667 2.86051 26.1598 2.20555 26.7098 1.72921C27.1964 1.30774 27.7696 0.989339 28.3923 0.79472C29.0961 0.574707 29.8823 0.574707 31.4547 0.574707H69.5452C71.1178 0.574707 71.9037 0.574707 72.6078 0.79472C73.2302 0.989339 73.8035 1.30774 74.2903 1.72921C74.8402 2.20555 75.2332 2.86051 76.0195 4.17043L95.0647 35.9039C95.851 37.2136 96.244 37.8689 96.3977 38.5652C96.5341 39.1814 96.5341 39.8178 96.3977 40.4341C96.244 41.1303 95.851 41.7856 95.0647 43.0953L76.0195 74.829C75.2332 76.1387 74.8402 76.7936 74.2903 77.27C73.8035 77.6916 73.2302 78.0098 72.6078 78.2045C71.9037 78.4247 71.1178 78.4247 69.5452 78.4247H31.4547C29.8823 78.4247 29.0961 78.4247 28.3923 78.2045C27.7696 78.0098 27.1964 77.6916 26.7098 77.27C26.1598 76.7936 25.7667 76.1387 24.9806 74.829L5.93525 43.0953Z" fill="white"/>
</g>
<path d="M60.875 29.6997H42.125C42.125 29.6997 40.25 29.6372 40.25 24.6997H62.75C62.75 29.6372 60.875 29.6997 60.875 29.6997Z" fill="#E08838"/>
<path d="M61.5 3.44971H41.5V24.6997H61.5V3.44971Z" fill="#F2BB41"/>
<path d="M57.75 10.9497H47.75V12.1997H57.75V10.9497Z" fill="#E08838"/>
<path d="M57.75 13.4497H47.75V14.6997H57.75V13.4497Z" fill="#E08838"/>
<path d="M57.75 15.9497H47.75V17.1997H57.75V15.9497Z" fill="#E08838"/>
<path d="M57.75 18.4497H47.75V19.6997H57.75V18.4497Z" fill="#E08838"/>
<path d="M57.75 20.9497H47.75V22.1997H57.75V20.9497Z" fill="#E08838"/>
<path d="M46.5 10.9497H45.25V12.1997H46.5V10.9497Z" fill="#E08838"/>
<path d="M46.5 13.4497H45.25V14.6997H46.5V13.4497Z" fill="#E08838"/>
<path d="M46.5 15.9497H45.25V17.1997H46.5V15.9497Z" fill="#E08838"/>
<path d="M46.5 18.4497H45.25V19.6997H46.5V18.4497Z" fill="#E08838"/>
<path d="M46.5 20.9497H45.25V22.1997H46.5V20.9497Z" fill="#E08838"/>
<path d="M29.3724 41.108C28.9324 41.108 28.5124 41.072 28.1124 41C27.7204 40.92 27.3564 40.808 27.0204 40.664C26.6924 40.512 26.4004 40.332 26.1444 40.124L26.5404 39.14C26.8124 39.34 27.0924 39.508 27.3804 39.644C27.6684 39.78 27.9764 39.884 28.3044 39.956C28.6324 40.02 28.9884 40.052 29.3724 40.052C30.0524 40.052 30.5524 39.932 30.8724 39.692C31.2004 39.444 31.3644 39.124 31.3644 38.732C31.3644 38.516 31.3124 38.332 31.2084 38.18C31.1124 38.028 30.9524 37.9 30.7284 37.796C30.5044 37.684 30.2124 37.592 29.8524 37.52L28.5684 37.256C27.8084 37.096 27.2404 36.832 26.8644 36.464C26.4964 36.096 26.3124 35.6 26.3124 34.976C26.3124 34.464 26.4484 34.016 26.7204 33.632C26.9924 33.248 27.3644 32.952 27.8364 32.744C28.3164 32.536 28.8684 32.432 29.4924 32.432C29.8764 32.432 30.2404 32.472 30.5844 32.552C30.9364 32.624 31.2604 32.736 31.5564 32.888C31.8604 33.04 32.1244 33.224 32.3484 33.44L31.9404 34.388C31.5964 34.084 31.2244 33.86 30.8244 33.716C30.4244 33.564 29.9764 33.488 29.4804 33.488C29.0884 33.488 28.7444 33.548 28.4484 33.668C28.1604 33.788 27.9364 33.956 27.7764 34.172C27.6244 34.388 27.5484 34.644 27.5484 34.94C27.5484 35.276 27.6564 35.544 27.8724 35.744C28.0884 35.944 28.4484 36.096 28.9524 36.2L30.2244 36.464C31.0244 36.632 31.6204 36.892 32.0124 37.244C32.4044 37.596 32.6004 38.064 32.6004 38.648C32.6004 39.136 32.4684 39.568 32.2044 39.944C31.9404 40.312 31.5684 40.6 31.0884 40.808C30.6084 41.008 30.0364 41.108 29.3724 41.108ZM33.7772 33.788V32.528H35.1932V33.788H33.7772ZM33.8852 41V35.144H35.0972V41H33.8852ZM39.4552 43.268C38.9272 43.268 38.4352 43.204 37.9792 43.076C37.5232 42.948 37.1192 42.756 36.7672 42.5L37.1392 41.636C37.3712 41.788 37.6072 41.916 37.8472 42.02C38.0952 42.132 38.3432 42.212 38.5912 42.26C38.8472 42.308 39.1072 42.332 39.3712 42.332C39.9312 42.332 40.3512 42.188 40.6312 41.9C40.9112 41.62 41.0512 41.204 41.0512 40.652V39.428H41.1592C41.0392 39.868 40.7872 40.216 40.4032 40.472C40.0192 40.728 39.5752 40.856 39.0712 40.856C38.5432 40.856 38.0832 40.736 37.6912 40.496C37.2992 40.248 36.9952 39.908 36.7792 39.476C36.5632 39.036 36.4552 38.524 36.4552 37.94C36.4552 37.356 36.5632 36.848 36.7792 36.416C36.9952 35.984 37.2992 35.648 37.6912 35.408C38.0832 35.16 38.5432 35.036 39.0712 35.036C39.5832 35.036 40.0272 35.164 40.4032 35.42C40.7872 35.676 41.0352 36.024 41.1472 36.464H41.0512V35.144H42.2272V40.508C42.2272 41.116 42.1232 41.624 41.9152 42.032C41.7072 42.448 41.3952 42.756 40.9792 42.956C40.5712 43.164 40.0632 43.268 39.4552 43.268ZM39.3592 39.908C39.8792 39.908 40.2872 39.732 40.5832 39.38C40.8872 39.028 41.0392 38.548 41.0392 37.94C41.0392 37.34 40.8872 36.864 40.5832 36.512C40.2872 36.16 39.8792 35.984 39.3592 35.984C38.8472 35.984 38.4392 36.16 38.1352 36.512C37.8312 36.864 37.6792 37.34 37.6792 37.94C37.6792 38.548 37.8312 39.028 38.1352 39.38C38.4392 39.732 38.8472 39.908 39.3592 39.908ZM46.0162 41.108C45.5442 41.108 45.1482 41.02 44.8282 40.844C44.5162 40.668 44.2802 40.408 44.1202 40.064C43.9682 39.712 43.8922 39.272 43.8922 38.744V35.144H45.1042V38.756C45.1042 39.068 45.1442 39.328 45.2242 39.536C45.3122 39.744 45.4442 39.896 45.6202 39.992C45.8042 40.088 46.0322 40.136 46.3042 40.136C46.6082 40.136 46.8762 40.068 47.1082 39.932C47.3402 39.796 47.5202 39.6 47.6482 39.344C47.7762 39.088 47.8402 38.792 47.8402 38.456V35.144H49.0522V41H47.8762V39.716H48.0322C47.8722 40.164 47.6162 40.508 47.2642 40.748C46.9122 40.988 46.4962 41.108 46.0162 41.108ZM53.5082 41.108C52.8682 41.108 52.3162 40.988 51.8522 40.748C51.3962 40.5 51.0402 40.152 50.7842 39.704C50.5362 39.248 50.4122 38.708 50.4122 38.084C50.4122 37.476 50.5362 36.944 50.7842 36.488C51.0322 36.032 51.3722 35.676 51.8042 35.42C52.2362 35.164 52.7282 35.036 53.2802 35.036C53.8242 35.036 54.2882 35.156 54.6722 35.396C55.0642 35.628 55.3642 35.96 55.5722 36.392C55.7802 36.824 55.8842 37.34 55.8842 37.94V38.348H51.3722V37.604H55.0682L54.8642 37.772C54.8642 37.172 54.7322 36.708 54.4682 36.38C54.2042 36.052 53.8242 35.888 53.3282 35.888C52.9522 35.888 52.6322 35.976 52.3682 36.152C52.1122 36.328 51.9162 36.572 51.7802 36.884C51.6442 37.196 51.5762 37.56 51.5762 37.976V38.048C51.5762 38.512 51.6482 38.904 51.7922 39.224C51.9442 39.536 52.1642 39.772 52.4522 39.932C52.7402 40.092 53.0962 40.172 53.5202 40.172C53.8562 40.172 54.1842 40.12 54.5042 40.016C54.8322 39.904 55.1402 39.732 55.4282 39.5L55.7882 40.34C55.5242 40.58 55.1842 40.768 54.7682 40.904C54.3522 41.04 53.9322 41.108 53.5082 41.108ZM62.2659 41.108C61.6259 41.108 61.1459 40.928 60.8259 40.568C60.5139 40.2 60.3579 39.672 60.3579 38.984V32.54H61.5699V38.912C61.5699 39.168 61.6059 39.388 61.6779 39.572C61.7499 39.748 61.8579 39.88 62.0019 39.968C62.1459 40.056 62.3259 40.1 62.5419 40.1C62.6379 40.1 62.7299 40.096 62.8179 40.088C62.9059 40.08 62.9899 40.064 63.0699 40.04L63.0459 41.012C62.9099 41.044 62.7779 41.068 62.6499 41.084C62.5219 41.1 62.3939 41.108 62.2659 41.108ZM65.8978 41.108C65.4898 41.108 65.1218 41.028 64.7938 40.868C64.4738 40.708 64.2218 40.492 64.0378 40.22C63.8538 39.948 63.7618 39.64 63.7618 39.296C63.7618 38.864 63.8698 38.524 64.0858 38.276C64.3098 38.02 64.6738 37.84 65.1778 37.736C65.6898 37.624 66.3778 37.568 67.2418 37.568H67.8058V38.312H67.2538C66.8218 38.312 66.4578 38.328 66.1618 38.36C65.8658 38.392 65.6298 38.444 65.4538 38.516C65.2778 38.58 65.1498 38.672 65.0698 38.792C64.9978 38.912 64.9618 39.056 64.9618 39.224C64.9618 39.528 65.0658 39.776 65.2738 39.968C65.4818 40.152 65.7698 40.244 66.1378 40.244C66.4338 40.244 66.6938 40.176 66.9178 40.04C67.1418 39.896 67.3178 39.704 67.4458 39.464C67.5818 39.224 67.6498 38.948 67.6498 38.636V37.256C67.6498 36.8 67.5538 36.472 67.3618 36.272C67.1698 36.072 66.8538 35.972 66.4138 35.972C66.0778 35.972 65.7418 36.024 65.4058 36.128C65.0698 36.224 64.7258 36.38 64.3738 36.596L64.0018 35.744C64.2098 35.6 64.4498 35.476 64.7218 35.372C64.9938 35.268 65.2778 35.188 65.5738 35.132C65.8778 35.068 66.1698 35.036 66.4498 35.036C66.9858 35.036 67.4258 35.12 67.7698 35.288C68.1218 35.456 68.3818 35.712 68.5498 36.056C68.7178 36.4 68.8018 36.844 68.8018 37.388V41H67.6618V39.692H67.7698C67.7058 39.988 67.5858 40.244 67.4098 40.46C67.2418 40.668 67.0298 40.828 66.7738 40.94C66.5178 41.052 66.2258 41.108 65.8978 41.108ZM72.5231 41.108C72.2111 41.108 71.9071 41.08 71.6111 41.024C71.3151 40.968 71.0431 40.888 70.7951 40.784C70.5471 40.68 70.3271 40.552 70.1351 40.4L70.4831 39.584C70.6831 39.72 70.8951 39.84 71.1191 39.944C71.3431 40.04 71.5751 40.112 71.8151 40.16C72.0631 40.208 72.3031 40.232 72.5351 40.232C72.9591 40.232 73.2791 40.156 73.4951 40.004C73.7111 39.852 73.8191 39.648 73.8191 39.392C73.8191 39.184 73.7471 39.024 73.6031 38.912C73.4591 38.792 73.2431 38.7 72.9551 38.636L71.8151 38.408C71.3191 38.304 70.9431 38.12 70.6871 37.856C70.4311 37.592 70.3031 37.256 70.3031 36.848C70.3031 36.48 70.4031 36.16 70.6031 35.888C70.8031 35.616 71.0831 35.408 71.4431 35.264C71.8031 35.112 72.2191 35.036 72.6911 35.036C72.9631 35.036 73.2271 35.064 73.4831 35.12C73.7391 35.176 73.9791 35.256 74.2031 35.36C74.4351 35.464 74.6311 35.596 74.7911 35.756L74.4431 36.572C74.2911 36.436 74.1151 36.32 73.9151 36.224C73.7231 36.128 73.5231 36.056 73.3151 36.008C73.1071 35.952 72.8991 35.924 72.6911 35.924C72.2671 35.924 71.9471 36.004 71.7311 36.164C71.5231 36.316 71.4191 36.524 71.4191 36.788C71.4191 36.988 71.4831 37.152 71.6111 37.28C71.7391 37.408 71.9391 37.5 72.2111 37.556L73.3511 37.784C73.8711 37.888 74.2631 38.064 74.5271 38.312C74.7991 38.56 74.9351 38.896 74.9351 39.32C74.9351 39.688 74.8351 40.008 74.6351 40.28C74.4351 40.552 74.1511 40.76 73.7831 40.904C73.4231 41.04 73.0031 41.108 72.5231 41.108ZM34.4067 57V51.144H35.5827V52.548H35.4627C35.5907 52.068 35.8187 51.704 36.1467 51.456C36.4827 51.208 36.9267 51.064 37.4787 51.024L37.8747 51L37.9587 52.032L37.2267 52.104C36.7067 52.152 36.3107 52.316 36.0387 52.596C35.7667 52.876 35.6307 53.26 35.6307 53.748V57H34.4067ZM41.5492 57.108C40.9092 57.108 40.3572 56.988 39.8932 56.748C39.4372 56.5 39.0812 56.152 38.8252 55.704C38.5772 55.248 38.4532 54.708 38.4532 54.084C38.4532 53.476 38.5772 52.944 38.8252 52.488C39.0732 52.032 39.4132 51.676 39.8452 51.42C40.2772 51.164 40.7692 51.036 41.3212 51.036C41.8652 51.036 42.3292 51.156 42.7132 51.396C43.1052 51.628 43.4052 51.96 43.6132 52.392C43.8212 52.824 43.9252 53.34 43.9252 53.94V54.348H39.4132V53.604H43.1092L42.9052 53.772C42.9052 53.172 42.7732 52.708 42.5092 52.38C42.2452 52.052 41.8652 51.888 41.3692 51.888C40.9932 51.888 40.6732 51.976 40.4092 52.152C40.1532 52.328 39.9572 52.572 39.8212 52.884C39.6852 53.196 39.6172 53.56 39.6172 53.976V54.048C39.6172 54.512 39.6892 54.904 39.8332 55.224C39.9852 55.536 40.2052 55.772 40.4932 55.932C40.7812 56.092 41.1372 56.172 41.5612 56.172C41.8972 56.172 42.2252 56.12 42.5452 56.016C42.8732 55.904 43.1812 55.732 43.4692 55.5L43.8292 56.34C43.5652 56.58 43.2252 56.768 42.8092 56.904C42.3932 57.04 41.9732 57.108 41.5492 57.108ZM47.8985 59.268C47.3705 59.268 46.8785 59.204 46.4225 59.076C45.9665 58.948 45.5625 58.756 45.2105 58.5L45.5825 57.636C45.8145 57.788 46.0505 57.916 46.2905 58.02C46.5385 58.132 46.7865 58.212 47.0345 58.26C47.2905 58.308 47.5505 58.332 47.8145 58.332C48.3745 58.332 48.7945 58.188 49.0745 57.9C49.3545 57.62 49.4945 57.204 49.4945 56.652V55.428H49.6025C49.4825 55.868 49.2305 56.216 48.8465 56.472C48.4625 56.728 48.0185 56.856 47.5145 56.856C46.9865 56.856 46.5265 56.736 46.1345 56.496C45.7425 56.248 45.4385 55.908 45.2225 55.476C45.0065 55.036 44.8985 54.524 44.8985 53.94C44.8985 53.356 45.0065 52.848 45.2225 52.416C45.4385 51.984 45.7425 51.648 46.1345 51.408C46.5265 51.16 46.9865 51.036 47.5145 51.036C48.0265 51.036 48.4705 51.164 48.8465 51.42C49.2305 51.676 49.4785 52.024 49.5905 52.464H49.4945V51.144H50.6705V56.508C50.6705 57.116 50.5665 57.624 50.3585 58.032C50.1505 58.448 49.8385 58.756 49.4225 58.956C49.0145 59.164 48.5065 59.268 47.8985 59.268ZM47.8025 55.908C48.3225 55.908 48.7305 55.732 49.0265 55.38C49.3305 55.028 49.4825 54.548 49.4825 53.94C49.4825 53.34 49.3305 52.864 49.0265 52.512C48.7305 52.16 48.3225 51.984 47.8025 51.984C47.2905 51.984 46.8825 52.16 46.5785 52.512C46.2745 52.864 46.1225 53.34 46.1225 53.94C46.1225 54.548 46.2745 55.028 46.5785 55.38C46.8825 55.732 47.2905 55.908 47.8025 55.908ZM54.2795 57.108C53.6395 57.108 53.1595 56.928 52.8395 56.568C52.5275 56.2 52.3715 55.672 52.3715 54.984V48.54H53.5835V54.912C53.5835 55.168 53.6195 55.388 53.6915 55.572C53.7635 55.748 53.8715 55.88 54.0155 55.968C54.1595 56.056 54.3395 56.1 54.5555 56.1C54.6515 56.1 54.7435 56.096 54.8315 56.088C54.9195 56.08 55.0035 56.064 55.0835 56.04L55.0595 57.012C54.9235 57.044 54.7915 57.068 54.6635 57.084C54.5355 57.1 54.4075 57.108 54.2795 57.108ZM57.9115 57.108C57.5035 57.108 57.1355 57.028 56.8075 56.868C56.4875 56.708 56.2355 56.492 56.0515 56.22C55.8675 55.948 55.7755 55.64 55.7755 55.296C55.7755 54.864 55.8835 54.524 56.0995 54.276C56.3235 54.02 56.6875 53.84 57.1915 53.736C57.7035 53.624 58.3915 53.568 59.2555 53.568H59.8195V54.312H59.2675C58.8355 54.312 58.4715 54.328 58.1755 54.36C57.8795 54.392 57.6435 54.444 57.4675 54.516C57.2915 54.58 57.1635 54.672 57.0835 54.792C57.0115 54.912 56.9755 55.056 56.9755 55.224C56.9755 55.528 57.0795 55.776 57.2875 55.968C57.4955 56.152 57.7835 56.244 58.1515 56.244C58.4475 56.244 58.7075 56.176 58.9315 56.04C59.1555 55.896 59.3315 55.704 59.4595 55.464C59.5955 55.224 59.6635 54.948 59.6635 54.636V53.256C59.6635 52.8 59.5675 52.472 59.3755 52.272C59.1835 52.072 58.8675 51.972 58.4275 51.972C58.0915 51.972 57.7555 52.024 57.4195 52.128C57.0835 52.224 56.7395 52.38 56.3875 52.596L56.0155 51.744C56.2235 51.6 56.4635 51.476 56.7355 51.372C57.0075 51.268 57.2915 51.188 57.5875 51.132C57.8915 51.068 58.1835 51.036 58.4635 51.036C58.9995 51.036 59.4395 51.12 59.7835 51.288C60.1355 51.456 60.3955 51.712 60.5635 52.056C60.7315 52.4 60.8155 52.844 60.8155 53.388V57H59.6755V55.692H59.7835C59.7195 55.988 59.5995 56.244 59.4235 56.46C59.2555 56.668 59.0435 56.828 58.7875 56.94C58.5315 57.052 58.2395 57.108 57.9115 57.108ZM64.5368 57.108C64.2248 57.108 63.9208 57.08 63.6248 57.024C63.3288 56.968 63.0568 56.888 62.8088 56.784C62.5608 56.68 62.3408 56.552 62.1488 56.4L62.4968 55.584C62.6968 55.72 62.9088 55.84 63.1328 55.944C63.3568 56.04 63.5888 56.112 63.8288 56.16C64.0768 56.208 64.3168 56.232 64.5488 56.232C64.9728 56.232 65.2928 56.156 65.5088 56.004C65.7248 55.852 65.8328 55.648 65.8328 55.392C65.8328 55.184 65.7608 55.024 65.6168 54.912C65.4728 54.792 65.2568 54.7 64.9688 54.636L63.8288 54.408C63.3328 54.304 62.9568 54.12 62.7008 53.856C62.4448 53.592 62.3168 53.256 62.3168 52.848C62.3168 52.48 62.4168 52.16 62.6168 51.888C62.8168 51.616 63.0968 51.408 63.4568 51.264C63.8168 51.112 64.2328 51.036 64.7048 51.036C64.9768 51.036 65.2408 51.064 65.4968 51.12C65.7528 51.176 65.9928 51.256 66.2168 51.36C66.4488 51.464 66.6448 51.596 66.8048 51.756L66.4568 52.572C66.3048 52.436 66.1288 52.32 65.9288 52.224C65.7368 52.128 65.5368 52.056 65.3288 52.008C65.1208 51.952 64.9128 51.924 64.7048 51.924C64.2808 51.924 63.9608 52.004 63.7448 52.164C63.5368 52.316 63.4328 52.524 63.4328 52.788C63.4328 52.988 63.4968 53.152 63.6248 53.28C63.7528 53.408 63.9528 53.5 64.2248 53.556L65.3648 53.784C65.8848 53.888 66.2768 54.064 66.5408 54.312C66.8128 54.56 66.9488 54.896 66.9488 55.32C66.9488 55.688 66.8488 56.008 66.6488 56.28C66.4488 56.552 66.1648 56.76 65.7968 56.904C65.4368 57.04 65.0168 57.108 64.5368 57.108Z" fill="black"/>
<path d="M29.5282 72.6847C28.7509 72.6847 28.0835 72.5234 27.5262 72.2007C26.9689 71.8707 26.5399 71.4087 26.2392 70.8147C25.9385 70.2207 25.7882 69.513 25.7882 68.6917C25.7882 67.8704 25.9385 67.1664 26.2392 66.5797C26.5399 65.9857 26.9689 65.5274 27.5262 65.2047C28.0835 64.882 28.7509 64.7207 29.5282 64.7207C30.0562 64.7207 30.5475 64.8014 31.0022 64.9627C31.4642 65.124 31.8492 65.3624 32.1572 65.6777L31.7502 66.5907C31.4129 66.2974 31.0682 66.0847 30.7162 65.9527C30.3642 65.8207 29.9792 65.7547 29.5612 65.7547C28.7399 65.7547 28.1092 66.0077 27.6692 66.5137C27.2292 67.0197 27.0092 67.7457 27.0092 68.6917C27.0092 69.6377 27.2292 70.3674 27.6692 70.8807C28.1092 71.3867 28.7399 71.6397 29.5612 71.6397C29.9792 71.6397 30.3642 71.5737 30.7162 71.4417C31.0682 71.3097 31.4129 71.097 31.7502 70.8037L32.1572 71.7167C31.8492 72.0247 31.4642 72.263 31.0022 72.4317C30.5475 72.6004 30.0562 72.6847 29.5282 72.6847ZM35.0281 72.6737C34.6468 72.6737 34.3058 72.6004 34.0051 72.4537C33.7044 72.307 33.4661 72.109 33.2901 71.8597C33.1214 71.603 33.0371 71.3207 33.0371 71.0127C33.0371 70.6094 33.1398 70.294 33.3451 70.0667C33.5578 69.832 33.8988 69.6634 34.3681 69.5607C34.8448 69.458 35.4754 69.4067 36.2601 69.4067H36.8431V70.1107H36.2821C35.8861 70.1107 35.5524 70.1254 35.2811 70.1547C35.0098 70.1767 34.7898 70.2207 34.6211 70.2867C34.4598 70.3454 34.3424 70.4297 34.2691 70.5397C34.1958 70.6497 34.1591 70.7854 34.1591 70.9467C34.1591 71.218 34.2544 71.438 34.4451 71.6067C34.6431 71.7754 34.9108 71.8597 35.2481 71.8597C35.5268 71.8597 35.7724 71.7937 35.9851 71.6617C36.1978 71.5297 36.3664 71.3537 36.4911 71.1337C36.6158 70.9137 36.6781 70.6607 36.6781 70.3747V69.1207C36.6781 68.71 36.5828 68.4167 36.3921 68.2407C36.2088 68.0574 35.9081 67.9657 35.4901 67.9657C35.1821 67.9657 34.8704 68.0134 34.5551 68.1087C34.2471 68.1967 33.9318 68.3397 33.6091 68.5377L33.2571 67.7347C33.4624 67.6027 33.6898 67.489 33.9391 67.3937C34.1958 67.291 34.4634 67.214 34.7421 67.1627C35.0208 67.1114 35.2921 67.0857 35.5561 67.0857C36.0474 67.0857 36.4544 67.1627 36.7771 67.3167C37.1071 67.4707 37.3564 67.7054 37.5251 68.0207C37.6938 68.336 37.7781 68.743 37.7781 69.2417V72.5747H36.7331V71.3867H36.7991C36.7331 71.6434 36.6158 71.8707 36.4471 72.0687C36.2858 72.2594 36.0841 72.4097 35.8421 72.5197C35.6074 72.6224 35.3361 72.6737 35.0281 72.6737ZM39.3697 74.5547V67.1847H40.4587V68.3837H40.3817C40.5063 67.9804 40.741 67.665 41.0857 67.4377C41.4303 67.203 41.8373 67.0857 42.3067 67.0857C42.7907 67.0857 43.2123 67.1994 43.5717 67.4267C43.931 67.654 44.2097 67.9767 44.4077 68.3947C44.6057 68.8127 44.7047 69.3077 44.7047 69.8797C44.7047 70.4444 44.6057 70.9394 44.4077 71.3647C44.2097 71.7827 43.931 72.1054 43.5717 72.3327C43.2197 72.56 42.798 72.6737 42.3067 72.6737C41.8447 72.6737 41.445 72.56 41.1077 72.3327C40.7703 72.098 40.5357 71.7937 40.4037 71.4197H40.5027V74.5547H39.3697ZM42.0207 71.7937C42.49 71.7937 42.864 71.6287 43.1427 71.2987C43.4213 70.9614 43.5607 70.4884 43.5607 69.8797C43.5607 69.2564 43.4213 68.7834 43.1427 68.4607C42.864 68.138 42.49 67.9767 42.0207 67.9767C41.5513 67.9767 41.1773 68.138 40.8987 68.4607C40.6273 68.7834 40.4917 69.2564 40.4917 69.8797C40.4917 70.4884 40.631 70.9614 40.9097 71.2987C41.1883 71.6287 41.5587 71.7937 42.0207 71.7937ZM46.0083 72.5747V67.1847H47.1413V72.5747H46.0083ZM46.1513 66.4807L47.2953 64.2587H48.4723L46.9653 66.4807H46.1513ZM51.1011 72.6737C50.4191 72.6737 49.9094 72.5014 49.5721 72.1567C49.2347 71.8047 49.0661 71.2987 49.0661 70.6387V68.0647H48.0211V67.1847H49.0881V65.5787H50.1991V67.1847H51.9261V68.0647H50.2101V70.5617C50.2101 70.943 50.2907 71.2327 50.4521 71.4307C50.6207 71.6287 50.8921 71.7277 51.2661 71.7277C51.3907 71.7277 51.5117 71.713 51.6291 71.6837C51.7464 71.6544 51.8637 71.6214 51.9811 71.5847L52.1571 72.4427C52.0324 72.516 51.8711 72.571 51.6731 72.6077C51.4751 72.6517 51.2844 72.6737 51.1011 72.6737ZM54.9273 72.6737C54.4873 72.6737 54.1169 72.593 53.8163 72.4317C53.5229 72.2704 53.3029 72.0284 53.1563 71.7057C53.0169 71.383 52.9473 70.9797 52.9473 70.4957V67.1847H54.0803V70.4847C54.0803 70.7634 54.1169 70.998 54.1903 71.1887C54.2709 71.3794 54.3919 71.5224 54.5533 71.6177C54.7219 71.713 54.9346 71.7607 55.1913 71.7607C55.4773 71.7607 55.7266 71.6984 55.9393 71.5737C56.1519 71.4417 56.3169 71.2584 56.4343 71.0237C56.5589 70.789 56.6213 70.5214 56.6213 70.2207V67.1847H57.7653V72.5747H56.6653V71.3977H56.7863C56.6249 71.8084 56.3829 72.1237 56.0603 72.3437C55.7376 72.5637 55.3599 72.6737 54.9273 72.6737ZM61.1421 72.6737C60.5628 72.6737 60.1264 72.5087 59.8331 72.1787C59.5398 71.8487 59.3931 71.372 59.3931 70.7487V64.8197H60.5261V70.6717C60.5261 70.9064 60.5591 71.1044 60.6251 71.2657C60.6911 71.4197 60.7864 71.537 60.9111 71.6177C61.0431 71.6984 61.2044 71.7387 61.3951 71.7387C61.4831 71.7387 61.5711 71.735 61.6591 71.7277C61.7471 71.7204 61.8314 71.702 61.9121 71.6727L61.9011 72.5747C61.7764 72.6114 61.6518 72.637 61.5271 72.6517C61.4098 72.6664 61.2814 72.6737 61.1421 72.6737ZM65.1526 72.6737C64.61 72.6737 64.137 72.56 63.7336 72.3327C63.3376 72.1054 63.0296 71.7827 62.8096 71.3647C62.5896 70.9394 62.4796 70.4444 62.4796 69.8797C62.4796 69.3077 62.5896 68.8127 62.8096 68.3947C63.0296 67.9767 63.3376 67.654 63.7336 67.4267C64.137 67.1994 64.61 67.0857 65.1526 67.0857C65.6953 67.0857 66.1646 67.1994 66.5606 67.4267C66.964 67.654 67.2756 67.9767 67.4956 68.3947C67.7156 68.8127 67.8256 69.3077 67.8256 69.8797C67.8256 70.4444 67.7156 70.9394 67.4956 71.3647C67.2756 71.7827 66.964 72.1054 66.5606 72.3327C66.1646 72.56 65.6953 72.6737 65.1526 72.6737ZM65.1526 71.7827C65.622 71.7827 65.996 71.6177 66.2746 71.2877C66.5533 70.9577 66.6926 70.4847 66.6926 69.8687C66.6926 69.26 66.5533 68.7944 66.2746 68.4717C65.996 68.149 65.622 67.9877 65.1526 67.9877C64.6833 67.9877 64.3093 68.149 64.0306 68.4717C63.752 68.7944 63.6126 69.26 63.6126 69.8687C63.6126 70.4847 63.752 70.9577 64.0306 71.2877C64.3093 71.6177 64.6833 71.7827 65.1526 71.7827ZM72.3871 72.5747L76.1711 65.3477L76.1821 65.8097H71.9581V64.8197H77.2161V65.6777L73.6521 72.5747H72.3871Z" fill="#667085"/>
<defs>
<filter id="filter0_d_8358_581" x="0.5" y="0.574707" width="100" height="85.8501" filterUnits="userSpaceOnUse" color-interpolation-filters="sRGB">
<feFlood flood-opacity="0" result="BackgroundImageFix"/>
<feColorMatrix in="SourceAlpha" type="matrix" values="0 0 0 0 0 0 0 0 0 0 0 0 0 0 0 0 0 0 127 0" result="hardAlpha"/>
<feOffset dy="4"/>
<feGaussianBlur stdDeviation="2"/>
<feComposite in2="hardAlpha" operator="out"/>
<feColorMatrix type="matrix" values="0 0 0 0 0 0 0 0 0 0 0 0 0 0 0 0 0 0 0.25 0"/>
<feBlend mode="normal" in2="BackgroundImageFix" result="effect1_dropShadow_8358_581"/>
<feBlend mode="normal" in="SourceGraphic" in2="effect1_dropShadow_8358_581" result="shape"/>
</filter>
</defs>
</svg>
