<svg width="96" height="86" viewBox="0 0 96 86" fill="none" xmlns="http://www.w3.org/2000/svg">
<g filter="url(#filter0_d_8310_820)">
<path d="M5.37285 42.5185C4.62083 41.2089 4.24484 40.5536 4.09767 39.8574C3.96744 39.2412 3.96744 38.6048 4.09767 37.9886C4.24484 37.2924 4.62083 36.6371 5.37285 35.3274L23.5901 3.59555C24.3421 2.28569 24.7181 1.63076 25.2442 1.15444C25.7096 0.732998 26.2579 0.414612 26.8535 0.220002C27.5267 -2.00917e-07 28.2787 0 29.7827 0H66.2171C67.7214 0 68.4731 -2.00917e-07 69.1466 0.220002C69.7419 0.414612 70.2903 0.732998 70.756 1.15444C71.282 1.63076 71.6578 2.28569 72.41 3.59555L90.6271 35.3274C91.3792 36.6371 91.7551 37.2924 91.9021 37.9886C92.0326 38.6048 92.0326 39.2412 91.9021 39.8574C91.7551 40.5536 91.3792 41.2089 90.6271 42.5185L72.41 74.2506C71.6578 75.5603 71.282 76.2151 70.756 76.6915C70.2903 77.1131 69.7419 77.4313 69.1466 77.6259C68.4731 77.8462 67.7214 77.8462 66.2171 77.8462H29.7827C28.2787 77.8462 27.5267 77.8462 26.8535 77.6259C26.2579 77.4313 25.7096 77.1131 25.2442 76.6915C24.7181 76.2151 24.3421 75.5603 23.5901 74.2506L5.37285 42.5185Z" fill="white"/>
</g>
<g clip-path="url(#clip0_8310_820)">
<path d="M58.5005 22.5293C57.1402 22.1911 56.1248 20.9647 56.1248 19.4998C56.1248 17.7738 57.5239 17 59.25 17C59.4492 17 59.6571 17.0258 59.8464 17.0626C59.8552 17.2503 59.8748 17.435 59.8748 17.6248C59.8748 19.6214 59.3746 20.8762 58.5005 22.5293ZM41.0473 26.6062C42.165 25.0089 44.8598 23.8747 48 23.8747C51.1396 23.8747 53.8277 25.0147 54.9455 26.612C52.9898 28.0292 50.5945 28.8748 48 28.8748C45.4024 28.8748 43.0045 28.0265 41.0473 26.6062ZM36.1252 17C36.1252 16.8081 36.1448 16.6214 36.1536 16.4321C36.3429 16.3953 36.5504 16.3746 36.75 16.3746C38.4761 16.3746 39.8752 17.7738 39.8752 19.4998C39.8752 20.9646 38.8583 22.1889 37.4984 22.5272C36.6248 20.8746 36.1252 18.9955 36.1252 17ZM48 5.12463C53.4652 5.12463 58.0024 8.84047 59.3793 13.8965H36.6207C37.9976 8.84053 42.5348 5.12463 48 5.12463ZM48 2C39.7158 2 33 8.71537 33 17C33 25.2842 39.7158 32 48 32C56.2842 32 63 25.2842 63 17C63 8.71537 56.2842 2 48 2Z" fill="#F2BB41"/>
<path d="M52.6551 18.5516C52.6551 19.6942 50.5613 20.6206 47.9782 20.6206C45.3951 20.6206 43.3013 19.6942 43.3013 18.5516C43.3013 17.409 45.3951 16.4827 47.9782 16.4827C50.5613 16.4827 52.6551 17.409 52.6551 18.5516Z" fill="#E08838"/>
</g>
<path d="M20.6256 45.108C19.7696 45.108 19.0376 44.932 18.4296 44.58C17.8216 44.228 17.3536 43.728 17.0256 43.08C16.7056 42.424 16.5456 41.652 16.5456 40.764C16.5456 39.876 16.7056 39.108 17.0256 38.46C17.3536 37.812 17.8216 37.312 18.4296 36.96C19.0376 36.608 19.7696 36.432 20.6256 36.432C21.2016 36.432 21.7376 36.524 22.2336 36.708C22.7376 36.884 23.1576 37.14 23.4936 37.476L23.0616 38.472C22.6936 38.144 22.3136 37.908 21.9216 37.764C21.5376 37.612 21.1176 37.536 20.6616 37.536C19.7496 37.536 19.0536 37.816 18.5736 38.376C18.0936 38.936 17.8536 39.732 17.8536 40.764C17.8536 41.796 18.0936 42.596 18.5736 43.164C19.0536 43.724 19.7496 44.004 20.6616 44.004C21.1176 44.004 21.5376 43.932 21.9216 43.788C22.3136 43.636 22.6936 43.396 23.0616 43.068L23.4936 44.064C23.1576 44.4 22.7376 44.66 22.2336 44.844C21.7376 45.02 21.2016 45.108 20.6256 45.108ZM26.9331 45.108C26.3411 45.108 25.8291 44.984 25.3971 44.736C24.9731 44.488 24.6411 44.136 24.4011 43.68C24.1611 43.224 24.0411 42.688 24.0411 42.072C24.0411 41.448 24.1611 40.912 24.4011 40.464C24.6411 40.008 24.9731 39.656 25.3971 39.408C25.8291 39.16 26.3411 39.036 26.9331 39.036C27.5171 39.036 28.0211 39.16 28.4451 39.408C28.8771 39.656 29.2131 40.008 29.4531 40.464C29.6931 40.92 29.8131 41.456 29.8131 42.072C29.8131 42.688 29.6931 43.224 29.4531 43.68C29.2131 44.136 28.8771 44.488 28.4451 44.736C28.0211 44.984 27.5171 45.108 26.9331 45.108ZM26.9211 44.172C27.4251 44.172 27.8291 43.992 28.1331 43.632C28.4371 43.272 28.5891 42.752 28.5891 42.072C28.5891 41.384 28.4371 40.864 28.1331 40.512C27.8291 40.16 27.4251 39.984 26.9211 39.984C26.4251 39.984 26.0251 40.16 25.7211 40.512C25.4171 40.864 25.2651 41.384 25.2651 42.072C25.2651 42.752 25.4171 43.272 25.7211 43.632C26.0251 43.992 26.4251 44.172 26.9211 44.172ZM31.1983 45V39.144H32.3743V40.392H32.2423C32.3463 40.104 32.4903 39.86 32.6743 39.66C32.8583 39.46 33.0783 39.308 33.3343 39.204C33.5983 39.092 33.8863 39.036 34.1983 39.036C34.6863 39.036 35.0823 39.152 35.3863 39.384C35.6903 39.616 35.8983 39.972 36.0103 40.452H35.8423C35.9943 40.012 36.2543 39.668 36.6223 39.42C36.9903 39.164 37.4183 39.036 37.9063 39.036C38.3543 39.036 38.7223 39.124 39.0103 39.3C39.2983 39.468 39.5143 39.728 39.6583 40.08C39.8023 40.424 39.8743 40.86 39.8743 41.388V45H38.6623V41.448C38.6623 40.952 38.5743 40.588 38.3983 40.356C38.2303 40.124 37.9503 40.008 37.5583 40.008C37.2703 40.008 37.0183 40.076 36.8023 40.212C36.5863 40.348 36.4183 40.548 36.2983 40.812C36.1863 41.068 36.1303 41.372 36.1303 41.724V45H34.9183V41.448C34.9183 40.952 34.8343 40.588 34.6663 40.356C34.4983 40.124 34.2183 40.008 33.8263 40.008C33.5303 40.008 33.2743 40.076 33.0583 40.212C32.8503 40.348 32.6903 40.548 32.5783 40.812C32.4663 41.068 32.4103 41.372 32.4103 41.724V45H31.1983ZM44.3168 45.108C43.6768 45.108 43.1248 44.988 42.6608 44.748C42.2048 44.5 41.8488 44.152 41.5928 43.704C41.3448 43.248 41.2208 42.708 41.2208 42.084C41.2208 41.476 41.3448 40.944 41.5928 40.488C41.8408 40.032 42.1808 39.676 42.6128 39.42C43.0448 39.164 43.5368 39.036 44.0888 39.036C44.6328 39.036 45.0968 39.156 45.4808 39.396C45.8728 39.628 46.1728 39.96 46.3808 40.392C46.5888 40.824 46.6928 41.34 46.6928 41.94V42.348H42.1808V41.604H45.8768L45.6728 41.772C45.6728 41.172 45.5408 40.708 45.2768 40.38C45.0128 40.052 44.6328 39.888 44.1368 39.888C43.7608 39.888 43.4408 39.976 43.1768 40.152C42.9208 40.328 42.7248 40.572 42.5888 40.884C42.4528 41.196 42.3848 41.56 42.3848 41.976V42.048C42.3848 42.512 42.4568 42.904 42.6008 43.224C42.7528 43.536 42.9728 43.772 43.2608 43.932C43.5488 44.092 43.9048 44.172 44.3288 44.172C44.6648 44.172 44.9928 44.12 45.3128 44.016C45.6408 43.904 45.9488 43.732 46.2368 43.5L46.5968 44.34C46.3328 44.58 45.9928 44.768 45.5768 44.904C45.1608 45.04 44.7408 45.108 44.3168 45.108ZM48.0141 45V39.144H49.1901V40.392H49.0581C49.2341 39.944 49.5101 39.608 49.8861 39.384C50.2621 39.152 50.6941 39.036 51.1821 39.036C51.6461 39.036 52.0301 39.124 52.3341 39.3C52.6461 39.468 52.8781 39.728 53.0301 40.08C53.1821 40.424 53.2581 40.86 53.2581 41.388V45H52.0461V41.46C52.0461 41.124 52.0021 40.852 51.9141 40.644C51.8261 40.428 51.6941 40.268 51.5181 40.164C51.3421 40.06 51.1141 40.008 50.8341 40.008C50.5141 40.008 50.2301 40.076 49.9821 40.212C49.7421 40.348 49.5541 40.544 49.4181 40.8C49.2901 41.056 49.2261 41.352 49.2261 41.688V45H48.0141ZM54.7002 45V44.208L58.1322 39.78V40.08H54.7002V39.144H59.2242V39.948L55.7682 44.4V44.076H59.3562V45H54.7002ZM62.3549 45.108C61.9469 45.108 61.5789 45.028 61.2509 44.868C60.9309 44.708 60.6789 44.492 60.4949 44.22C60.3109 43.948 60.2189 43.64 60.2189 43.296C60.2189 42.864 60.3269 42.524 60.5429 42.276C60.7669 42.02 61.1309 41.84 61.6349 41.736C62.1469 41.624 62.8349 41.568 63.6989 41.568H64.2629V42.312H63.7109C63.2789 42.312 62.9149 42.328 62.6189 42.36C62.3229 42.392 62.0869 42.444 61.9109 42.516C61.7349 42.58 61.6069 42.672 61.5269 42.792C61.4549 42.912 61.4189 43.056 61.4189 43.224C61.4189 43.528 61.5229 43.776 61.7309 43.968C61.9389 44.152 62.2269 44.244 62.5949 44.244C62.8909 44.244 63.1509 44.176 63.3749 44.04C63.5989 43.896 63.7749 43.704 63.9029 43.464C64.0389 43.224 64.1069 42.948 64.1069 42.636V41.256C64.1069 40.8 64.0109 40.472 63.8189 40.272C63.6269 40.072 63.3109 39.972 62.8709 39.972C62.5349 39.972 62.1989 40.024 61.8629 40.128C61.5269 40.224 61.1829 40.38 60.8309 40.596L60.4589 39.744C60.6669 39.6 60.9069 39.476 61.1789 39.372C61.4509 39.268 61.7349 39.188 62.0309 39.132C62.3349 39.068 62.6269 39.036 62.9069 39.036C63.4429 39.036 63.8829 39.12 64.2269 39.288C64.5789 39.456 64.8389 39.712 65.0069 40.056C65.1749 40.4 65.2589 40.844 65.2589 41.388V45H64.1189V43.692H64.2269C64.1629 43.988 64.0429 44.244 63.8669 44.46C63.6989 44.668 63.4869 44.828 63.2309 44.94C62.9749 45.052 62.6829 45.108 62.3549 45.108ZM66.9282 45V39.144H68.1042V40.548H67.9842C68.1122 40.068 68.3402 39.704 68.6682 39.456C69.0042 39.208 69.4482 39.064 70.0002 39.024L70.3962 39L70.4802 40.032L69.7482 40.104C69.2282 40.152 68.8322 40.316 68.5602 40.596C68.2882 40.876 68.1522 41.26 68.1522 41.748V45H66.9282ZM76.4291 45.108C76.0211 45.108 75.6531 45.028 75.3251 44.868C75.0051 44.708 74.7531 44.492 74.5691 44.22C74.3851 43.948 74.2931 43.64 74.2931 43.296C74.2931 42.864 74.4011 42.524 74.6171 42.276C74.8411 42.02 75.2051 41.84 75.7091 41.736C76.2211 41.624 76.9091 41.568 77.7731 41.568H78.3371V42.312H77.7851C77.3531 42.312 76.9891 42.328 76.6931 42.36C76.3971 42.392 76.1611 42.444 75.9851 42.516C75.8091 42.58 75.6811 42.672 75.6011 42.792C75.5291 42.912 75.4931 43.056 75.4931 43.224C75.4931 43.528 75.5971 43.776 75.8051 43.968C76.0131 44.152 76.3011 44.244 76.6691 44.244C76.9651 44.244 77.2251 44.176 77.4491 44.04C77.6731 43.896 77.8491 43.704 77.9771 43.464C78.1131 43.224 78.1811 42.948 78.1811 42.636V41.256C78.1811 40.8 78.0851 40.472 77.8931 40.272C77.7011 40.072 77.3851 39.972 76.9451 39.972C76.6091 39.972 76.2731 40.024 75.9371 40.128C75.6011 40.224 75.2571 40.38 74.9051 40.596L74.5331 39.744C74.7411 39.6 74.9811 39.476 75.2531 39.372C75.5251 39.268 75.8091 39.188 76.1051 39.132C76.4091 39.068 76.7011 39.036 76.9811 39.036C77.5171 39.036 77.9571 39.12 78.3011 39.288C78.6531 39.456 78.9131 39.712 79.0811 40.056C79.2491 40.4 79.3331 40.844 79.3331 41.388V45H78.1931V43.692H78.3011C78.2371 43.988 78.1171 44.244 77.9411 44.46C77.7731 44.668 77.5611 44.828 77.3051 44.94C77.0491 45.052 76.7571 45.108 76.4291 45.108ZM28.3812 61.108C27.7812 61.108 27.2612 60.984 26.8212 60.736C26.3892 60.48 26.0532 60.124 25.8132 59.668C25.5732 59.204 25.4532 58.66 25.4532 58.036C25.4532 57.42 25.5732 56.888 25.8132 56.44C26.0532 55.992 26.3892 55.648 26.8212 55.408C27.2612 55.16 27.7812 55.036 28.3812 55.036C28.7492 55.036 29.1132 55.1 29.4732 55.228C29.8332 55.348 30.1292 55.524 30.3612 55.756L29.9772 56.608C29.7612 56.4 29.5172 56.248 29.2452 56.152C28.9732 56.048 28.7172 55.996 28.4772 55.996C27.9092 55.996 27.4692 56.176 27.1572 56.536C26.8532 56.888 26.7012 57.392 26.7012 58.048C26.7012 58.704 26.8532 59.22 27.1572 59.596C27.4692 59.964 27.9092 60.148 28.4772 60.148C28.7172 60.148 28.9732 60.1 29.2452 60.004C29.5172 59.9 29.7612 59.744 29.9772 59.536L30.3612 60.4C30.1292 60.616 29.8292 60.788 29.4612 60.916C29.1012 61.044 28.7412 61.108 28.3812 61.108ZM33.8296 61.108C33.2376 61.108 32.7256 60.984 32.2936 60.736C31.8696 60.488 31.5376 60.136 31.2976 59.68C31.0576 59.224 30.9376 58.688 30.9376 58.072C30.9376 57.448 31.0576 56.912 31.2976 56.464C31.5376 56.008 31.8696 55.656 32.2936 55.408C32.7256 55.16 33.2376 55.036 33.8296 55.036C34.4136 55.036 34.9176 55.16 35.3416 55.408C35.7736 55.656 36.1096 56.008 36.3496 56.464C36.5896 56.92 36.7096 57.456 36.7096 58.072C36.7096 58.688 36.5896 59.224 36.3496 59.68C36.1096 60.136 35.7736 60.488 35.3416 60.736C34.9176 60.984 34.4136 61.108 33.8296 61.108ZM33.8176 60.172C34.3216 60.172 34.7256 59.992 35.0296 59.632C35.3336 59.272 35.4856 58.752 35.4856 58.072C35.4856 57.384 35.3336 56.864 35.0296 56.512C34.7256 56.16 34.3216 55.984 33.8176 55.984C33.3216 55.984 32.9216 56.16 32.6176 56.512C32.3136 56.864 32.1616 57.384 32.1616 58.072C32.1616 58.752 32.3136 59.272 32.6176 59.632C32.9216 59.992 33.3216 60.172 33.8176 60.172ZM38.0708 61V55.144H39.2468V56.392H39.1148C39.2908 55.944 39.5668 55.608 39.9428 55.384C40.3188 55.152 40.7508 55.036 41.2388 55.036C41.7028 55.036 42.0868 55.124 42.3908 55.3C42.7028 55.468 42.9348 55.728 43.0868 56.08C43.2388 56.424 43.3148 56.86 43.3148 57.388V61H42.1028V57.46C42.1028 57.124 42.0588 56.852 41.9708 56.644C41.8828 56.428 41.7508 56.268 41.5748 56.164C41.3988 56.06 41.1708 56.008 40.8908 56.008C40.5708 56.008 40.2868 56.076 40.0388 56.212C39.7988 56.348 39.6108 56.544 39.4748 56.8C39.3468 57.056 39.2828 57.352 39.2828 57.688V61H38.0708ZM47.2168 61.108C46.7048 61.108 46.2528 60.988 45.8608 60.748C45.4768 60.5 45.1768 60.148 44.9608 59.692C44.7448 59.228 44.6368 58.688 44.6368 58.072C44.6368 57.44 44.7448 56.9 44.9608 56.452C45.1768 56.004 45.4768 55.656 45.8608 55.408C46.2528 55.16 46.7048 55.036 47.2168 55.036C47.7288 55.036 48.1688 55.164 48.5368 55.42C48.9128 55.668 49.1648 56.004 49.2928 56.428H49.1608V52.54H50.3728V61H49.1848V59.68H49.3048C49.1768 60.112 48.9248 60.46 48.5488 60.724C48.1808 60.98 47.7368 61.108 47.2168 61.108ZM47.5288 60.172C48.0248 60.172 48.4248 59.992 48.7288 59.632C49.0328 59.272 49.1848 58.752 49.1848 58.072C49.1848 57.384 49.0328 56.864 48.7288 56.512C48.4248 56.16 48.0248 55.984 47.5288 55.984C47.0248 55.984 46.6208 56.16 46.3168 56.512C46.0128 56.864 45.8608 57.384 45.8608 58.072C45.8608 58.752 46.0128 59.272 46.3168 59.632C46.6208 59.992 47.0248 60.172 47.5288 60.172ZM54.1627 61.108C53.6907 61.108 53.2947 61.02 52.9747 60.844C52.6627 60.668 52.4267 60.408 52.2667 60.064C52.1147 59.712 52.0387 59.272 52.0387 58.744V55.144H53.2507V58.756C53.2507 59.068 53.2907 59.328 53.3707 59.536C53.4587 59.744 53.5907 59.896 53.7667 59.992C53.9507 60.088 54.1787 60.136 54.4507 60.136C54.7547 60.136 55.0227 60.068 55.2547 59.932C55.4867 59.796 55.6667 59.6 55.7947 59.344C55.9227 59.088 55.9867 58.792 55.9867 58.456V55.144H57.1987V61H56.0227V59.716H56.1787C56.0187 60.164 55.7627 60.508 55.4107 60.748C55.0587 60.988 54.6427 61.108 54.1627 61.108ZM61.4867 61.108C60.8867 61.108 60.3667 60.984 59.9267 60.736C59.4947 60.48 59.1587 60.124 58.9187 59.668C58.6787 59.204 58.5587 58.66 58.5587 58.036C58.5587 57.42 58.6787 56.888 58.9187 56.44C59.1587 55.992 59.4947 55.648 59.9267 55.408C60.3667 55.16 60.8867 55.036 61.4867 55.036C61.8547 55.036 62.2187 55.1 62.5787 55.228C62.9387 55.348 63.2347 55.524 63.4667 55.756L63.0827 56.608C62.8667 56.4 62.6227 56.248 62.3507 56.152C62.0787 56.048 61.8227 55.996 61.5827 55.996C61.0147 55.996 60.5747 56.176 60.2627 56.536C59.9587 56.888 59.8067 57.392 59.8067 58.048C59.8067 58.704 59.9587 59.22 60.2627 59.596C60.5747 59.964 61.0147 60.148 61.5827 60.148C61.8227 60.148 62.0787 60.1 62.3507 60.004C62.6227 59.9 62.8667 59.744 63.0827 59.536L63.4667 60.4C63.2347 60.616 62.9347 60.788 62.5667 60.916C62.2067 61.044 61.8467 61.108 61.4867 61.108ZM64.4003 53.788V52.528H65.8163V53.788H64.4003ZM64.5083 61V55.144H65.7203V61H64.5083ZM67.4262 61V55.144H68.6022V56.548H68.4822C68.6102 56.068 68.8382 55.704 69.1662 55.456C69.5022 55.208 69.9462 55.064 70.4982 55.024L70.8942 55L70.9782 56.032L70.2462 56.104C69.7262 56.152 69.3302 56.316 69.0582 56.596C68.7862 56.876 68.6502 57.26 68.6502 57.748V61H67.4262Z" fill="black"/>
<path d="M26.0282 71.11C25.2509 71.11 24.5835 70.9487 24.0262 70.626C23.4689 70.296 23.0399 69.834 22.7392 69.24C22.4385 68.646 22.2882 67.9383 22.2882 67.117C22.2882 66.2957 22.4385 65.5917 22.7392 65.005C23.0399 64.411 23.4689 63.9527 24.0262 63.63C24.5835 63.3073 25.2509 63.146 26.0282 63.146C26.5562 63.146 27.0475 63.2267 27.5022 63.388C27.9642 63.5493 28.3492 63.7877 28.6572 64.103L28.2502 65.016C27.9129 64.7227 27.5682 64.51 27.2162 64.378C26.8642 64.246 26.4792 64.18 26.0612 64.18C25.2399 64.18 24.6092 64.433 24.1692 64.939C23.7292 65.445 23.5092 66.171 23.5092 67.117C23.5092 68.063 23.7292 68.7927 24.1692 69.306C24.6092 69.812 25.2399 70.065 26.0612 70.065C26.4792 70.065 26.8642 69.999 27.2162 69.867C27.5682 69.735 27.9129 69.5223 28.2502 69.229L28.6572 70.142C28.3492 70.45 27.9642 70.6883 27.5022 70.857C27.0475 71.0257 26.5562 71.11 26.0282 71.11ZM31.5281 71.099C31.1468 71.099 30.8058 71.0257 30.5051 70.879C30.2044 70.7323 29.9661 70.5343 29.7901 70.285C29.6214 70.0283 29.5371 69.746 29.5371 69.438C29.5371 69.0347 29.6398 68.7193 29.8451 68.492C30.0578 68.2573 30.3988 68.0887 30.8681 67.986C31.3448 67.8833 31.9754 67.832 32.7601 67.832H33.3431V68.536H32.7821C32.3861 68.536 32.0524 68.5507 31.7811 68.58C31.5098 68.602 31.2898 68.646 31.1211 68.712C30.9598 68.7707 30.8424 68.855 30.7691 68.965C30.6958 69.075 30.6591 69.2107 30.6591 69.372C30.6591 69.6433 30.7544 69.8633 30.9451 70.032C31.1431 70.2007 31.4108 70.285 31.7481 70.285C32.0268 70.285 32.2724 70.219 32.4851 70.087C32.6978 69.955 32.8664 69.779 32.9911 69.559C33.1158 69.339 33.1781 69.086 33.1781 68.8V67.546C33.1781 67.1353 33.0828 66.842 32.8921 66.666C32.7088 66.4827 32.4081 66.391 31.9901 66.391C31.6821 66.391 31.3704 66.4387 31.0551 66.534C30.7471 66.622 30.4318 66.765 30.1091 66.963L29.7571 66.16C29.9624 66.028 30.1898 65.9143 30.4391 65.819C30.6958 65.7163 30.9634 65.6393 31.2421 65.588C31.5208 65.5367 31.7921 65.511 32.0561 65.511C32.5474 65.511 32.9544 65.588 33.2771 65.742C33.6071 65.896 33.8564 66.1307 34.0251 66.446C34.1938 66.7613 34.2781 67.1683 34.2781 67.667V71H33.2331V69.812H33.2991C33.2331 70.0687 33.1158 70.296 32.9471 70.494C32.7858 70.6847 32.5841 70.835 32.3421 70.945C32.1074 71.0477 31.8361 71.099 31.5281 71.099ZM35.8697 72.98V65.61H36.9587V66.809H36.8817C37.0063 66.4057 37.241 66.0903 37.5857 65.863C37.9303 65.6283 38.3373 65.511 38.8067 65.511C39.2907 65.511 39.7123 65.6247 40.0717 65.852C40.431 66.0793 40.7097 66.402 40.9077 66.82C41.1057 67.238 41.2047 67.733 41.2047 68.305C41.2047 68.8697 41.1057 69.3647 40.9077 69.79C40.7097 70.208 40.431 70.5307 40.0717 70.758C39.7197 70.9853 39.298 71.099 38.8067 71.099C38.3447 71.099 37.945 70.9853 37.6077 70.758C37.2703 70.5233 37.0357 70.219 36.9037 69.845H37.0027V72.98H35.8697ZM38.5207 70.219C38.99 70.219 39.364 70.054 39.6427 69.724C39.9213 69.3867 40.0607 68.9137 40.0607 68.305C40.0607 67.6817 39.9213 67.2087 39.6427 66.886C39.364 66.5633 38.99 66.402 38.5207 66.402C38.0513 66.402 37.6773 66.5633 37.3987 66.886C37.1273 67.2087 36.9917 67.6817 36.9917 68.305C36.9917 68.9137 37.131 69.3867 37.4097 69.724C37.6883 70.054 38.0587 70.219 38.5207 70.219ZM42.5083 71V65.61H43.6413V71H42.5083ZM42.6513 64.906L43.7953 62.684H44.9723L43.4653 64.906H42.6513ZM47.6011 71.099C46.9191 71.099 46.4094 70.9267 46.0721 70.582C45.7347 70.23 45.5661 69.724 45.5661 69.064V66.49H44.5211V65.61H45.5881V64.004H46.6991V65.61H48.4261V66.49H46.7101V68.987C46.7101 69.3683 46.7907 69.658 46.9521 69.856C47.1207 70.054 47.3921 70.153 47.7661 70.153C47.8907 70.153 48.0117 70.1383 48.1291 70.109C48.2464 70.0797 48.3637 70.0467 48.4811 70.01L48.6571 70.868C48.5324 70.9413 48.3711 70.9963 48.1731 71.033C47.9751 71.077 47.7844 71.099 47.6011 71.099ZM51.4273 71.099C50.9873 71.099 50.6169 71.0183 50.3163 70.857C50.0229 70.6957 49.8029 70.4537 49.6563 70.131C49.5169 69.8083 49.4473 69.405 49.4473 68.921V65.61H50.5803V68.91C50.5803 69.1887 50.6169 69.4233 50.6903 69.614C50.7709 69.8047 50.8919 69.9477 51.0533 70.043C51.2219 70.1383 51.4346 70.186 51.6913 70.186C51.9773 70.186 52.2266 70.1237 52.4393 69.999C52.6519 69.867 52.8169 69.6837 52.9343 69.449C53.0589 69.2143 53.1213 68.9467 53.1213 68.646V65.61H54.2653V71H53.1653V69.823H53.2863C53.1249 70.2337 52.8829 70.549 52.5603 70.769C52.2376 70.989 51.8599 71.099 51.4273 71.099ZM57.6421 71.099C57.0628 71.099 56.6264 70.934 56.3331 70.604C56.0398 70.274 55.8931 69.7973 55.8931 69.174V63.245H57.0261V69.097C57.0261 69.3317 57.0591 69.5297 57.1251 69.691C57.1911 69.845 57.2864 69.9623 57.4111 70.043C57.5431 70.1237 57.7044 70.164 57.8951 70.164C57.9831 70.164 58.0711 70.1603 58.1591 70.153C58.2471 70.1457 58.3314 70.1273 58.4121 70.098L58.4011 71C58.2764 71.0367 58.1518 71.0623 58.0271 71.077C57.9098 71.0917 57.7814 71.099 57.6421 71.099ZM61.6526 71.099C61.11 71.099 60.637 70.9853 60.2336 70.758C59.8376 70.5307 59.5296 70.208 59.3096 69.79C59.0896 69.3647 58.9796 68.8697 58.9796 68.305C58.9796 67.733 59.0896 67.238 59.3096 66.82C59.5296 66.402 59.8376 66.0793 60.2336 65.852C60.637 65.6247 61.11 65.511 61.6526 65.511C62.1953 65.511 62.6646 65.6247 63.0606 65.852C63.464 66.0793 63.7756 66.402 63.9956 66.82C64.2156 67.238 64.3256 67.733 64.3256 68.305C64.3256 68.8697 64.2156 69.3647 63.9956 69.79C63.7756 70.208 63.464 70.5307 63.0606 70.758C62.6646 70.9853 62.1953 71.099 61.6526 71.099ZM61.6526 70.208C62.122 70.208 62.496 70.043 62.7746 69.713C63.0533 69.383 63.1926 68.91 63.1926 68.294C63.1926 67.6853 63.0533 67.2197 62.7746 66.897C62.496 66.5743 62.122 66.413 61.6526 66.413C61.1833 66.413 60.8093 66.5743 60.5306 66.897C60.252 67.2197 60.1126 67.6853 60.1126 68.294C60.1126 68.91 60.252 69.383 60.5306 69.713C60.8093 70.043 61.1833 70.208 61.6526 70.208ZM68.7111 71V70.142L71.3071 67.37C71.5564 67.106 71.7508 66.864 71.8901 66.644C72.0368 66.424 72.1431 66.2113 72.2091 66.006C72.2824 65.7933 72.3191 65.5843 72.3191 65.379C72.3191 64.9757 72.1908 64.6677 71.9341 64.455C71.6848 64.2423 71.3218 64.136 70.8451 64.136C70.4784 64.136 70.1264 64.2057 69.7891 64.345C69.4518 64.477 69.1291 64.686 68.8211 64.972L68.4141 64.092C68.7148 63.806 69.0924 63.5787 69.5471 63.41C70.0018 63.234 70.4748 63.146 70.9661 63.146C71.5014 63.146 71.9524 63.2303 72.3191 63.399C72.6931 63.5603 72.9754 63.8023 73.1661 64.125C73.3641 64.4403 73.4631 64.8253 73.4631 65.28C73.4631 65.5147 73.4338 65.742 73.3751 65.962C73.3238 66.182 73.2394 66.402 73.1221 66.622C73.0121 66.842 72.8691 67.0693 72.6931 67.304C72.5244 67.5313 72.3191 67.7697 72.0771 68.019L69.9321 70.285V70.032H73.7601V71H68.7111Z" fill="#667085"/>
<defs>
<filter id="filter0_d_8310_820" x="0" y="0" width="96" height="85.8462" filterUnits="userSpaceOnUse" color-interpolation-filters="sRGB">
<feFlood flood-opacity="0" result="BackgroundImageFix"/>
<feColorMatrix in="SourceAlpha" type="matrix" values="0 0 0 0 0 0 0 0 0 0 0 0 0 0 0 0 0 0 127 0" result="hardAlpha"/>
<feOffset dy="4"/>
<feGaussianBlur stdDeviation="2"/>
<feComposite in2="hardAlpha" operator="out"/>
<feColorMatrix type="matrix" values="0 0 0 0 0 0 0 0 0 0 0 0 0 0 0 0 0 0 0.25 0"/>
<feBlend mode="normal" in2="BackgroundImageFix" result="effect1_dropShadow_8310_820"/>
<feBlend mode="normal" in="SourceGraphic" in2="effect1_dropShadow_8310_820" result="shape"/>
</filter>
<clipPath id="clip0_8310_820">
<rect width="30" height="30" fill="white" transform="translate(33 2)"/>
</clipPath>
</defs>
</svg>
