<svg width="96" height="88" viewBox="0 0 96 88" fill="none" xmlns="http://www.w3.org/2000/svg">
<g filter="url(#filter0_d_8310_982)">
<path d="M5.37285 44.0185C4.62083 42.7089 4.24484 42.0536 4.09767 41.3574C3.96744 40.7412 3.96744 40.1048 4.09767 39.4886C4.24484 38.7924 4.62083 38.1371 5.37285 36.8274L23.5901 5.09555C24.3421 3.78569 24.7181 3.13076 25.2442 2.65444C25.7096 2.233 26.2579 1.91461 26.8535 1.72C27.5267 1.5 28.2787 1.5 29.7827 1.5H66.2171C67.7214 1.5 68.4731 1.5 69.1466 1.72C69.7419 1.91461 70.2903 2.233 70.756 2.65444C71.282 3.13076 71.6578 3.78569 72.41 5.09555L90.6271 36.8274C91.3792 38.1371 91.7551 38.7924 91.9021 39.4886C92.0326 40.1048 92.0326 40.7412 91.9021 41.3574C91.7551 42.0536 91.3792 42.7089 90.6271 44.0185L72.41 75.7506C71.6578 77.0603 71.282 77.7151 70.756 78.1915C70.2903 78.6131 69.7419 78.9313 69.1466 79.1259C68.4731 79.3462 67.7214 79.3462 66.2171 79.3462H29.7827C28.2787 79.3462 27.5267 79.3462 26.8535 79.1259C26.2579 78.9313 25.7096 78.6131 25.2442 78.1915C24.7181 77.7151 24.3421 77.0603 23.5901 75.7506L5.37285 44.0185Z" fill="white"/>
</g>
<path d="M46.5432 27.6574L36.0476 17.1618C35.1147 16.2288 35.1147 14.7711 36.0476 13.8382L46.5432 3.34253C47.4762 2.40959 48.9339 2.40959 49.8669 3.34253L60.3625 13.8382C61.2954 14.7711 61.2954 16.2288 60.3625 17.1618L49.8669 27.6574C48.9339 28.5903 47.4179 28.5903 46.5432 27.6574Z" fill="#F2BB41"/>
<path d="M48.1754 16.6948C48.8195 16.6948 49.3416 16.1727 49.3416 15.5287C49.3416 14.8846 48.8195 14.3625 48.1754 14.3625C47.5314 14.3625 47.0093 14.8846 47.0093 15.5287C47.0093 16.1727 47.5314 16.6948 48.1754 16.6948Z" fill="#E08838"/>
<path d="M52.84 16.6948C53.484 16.6948 54.0061 16.1727 54.0061 15.5287C54.0061 14.8846 53.484 14.3625 52.84 14.3625C52.1959 14.3625 51.6738 14.8846 51.6738 15.5287C51.6738 16.1727 52.1959 16.6948 52.84 16.6948Z" fill="#E08838"/>
<path d="M43.5109 16.6948C44.1549 16.6948 44.677 16.1727 44.677 15.5287C44.677 14.8846 44.1549 14.3625 43.5109 14.3625C42.8668 14.3625 42.3447 14.8846 42.3447 15.5287C42.3447 16.1727 42.8668 16.6948 43.5109 16.6948Z" fill="#E08838"/>
<path d="M19.1246 43.5V35.04H22.6286C23.2446 35.04 23.7646 35.144 24.1886 35.352C24.6126 35.552 24.9326 35.844 25.1486 36.228C25.3726 36.612 25.4846 37.076 25.4846 37.62C25.4846 38.164 25.3726 38.632 25.1486 39.024C24.9326 39.408 24.6126 39.704 24.1886 39.912C23.7646 40.112 23.2446 40.212 22.6286 40.212H20.3726V43.5H19.1246ZM20.3726 39.216H22.4486C23.0486 39.216 23.5006 39.084 23.8046 38.82C24.1166 38.548 24.2726 38.148 24.2726 37.62C24.2726 37.1 24.1166 36.708 23.8046 36.444C23.5006 36.172 23.0486 36.036 22.4486 36.036H20.3726V39.216ZM26.5747 43.5V37.644H27.7507V39.048H27.6307C27.7587 38.568 27.9867 38.204 28.3147 37.956C28.6507 37.708 29.0947 37.564 29.6467 37.524L30.0427 37.5L30.1267 38.532L29.3947 38.604C28.8747 38.652 28.4787 38.816 28.2067 39.096C27.9347 39.376 27.7987 39.76 27.7987 40.248V43.5H26.5747ZM30.9432 36.288V35.028H32.3592V36.288H30.9432ZM31.0512 43.5V37.644H32.2632V43.5H31.0512ZM36.5132 43.608C35.9212 43.608 35.4092 43.484 34.9772 43.236C34.5532 42.988 34.2212 42.636 33.9812 42.18C33.7412 41.724 33.6212 41.188 33.6212 40.572C33.6212 39.948 33.7412 39.412 33.9812 38.964C34.2212 38.508 34.5532 38.156 34.9772 37.908C35.4092 37.66 35.9212 37.536 36.5132 37.536C37.0972 37.536 37.6012 37.66 38.0252 37.908C38.4572 38.156 38.7932 38.508 39.0332 38.964C39.2732 39.42 39.3932 39.956 39.3932 40.572C39.3932 41.188 39.2732 41.724 39.0332 42.18C38.7932 42.636 38.4572 42.988 38.0252 43.236C37.6012 43.484 37.0972 43.608 36.5132 43.608ZM36.5012 42.672C37.0052 42.672 37.4092 42.492 37.7132 42.132C38.0172 41.772 38.1692 41.252 38.1692 40.572C38.1692 39.884 38.0172 39.364 37.7132 39.012C37.4092 38.66 37.0052 38.484 36.5012 38.484C36.0052 38.484 35.6052 38.66 35.3012 39.012C34.9972 39.364 34.8452 39.884 34.8452 40.572C34.8452 41.252 34.9972 41.772 35.3012 42.132C35.6052 42.492 36.0052 42.672 36.5012 42.672ZM40.7543 43.5V37.644H41.9303V39.048H41.8103C41.9383 38.568 42.1663 38.204 42.4943 37.956C42.8303 37.708 43.2743 37.564 43.8263 37.524L44.2223 37.5L44.3063 38.532L43.5743 38.604C43.0543 38.652 42.6583 38.816 42.3863 39.096C42.1143 39.376 41.9783 39.76 41.9783 40.248V43.5H40.7543ZM45.1229 36.288V35.028H46.5389V36.288H45.1229ZM45.2309 43.5V37.644H46.4429V43.5H45.2309ZM50.3809 43.608C49.8689 43.608 49.4169 43.488 49.0249 43.248C48.6409 43 48.3409 42.648 48.1249 42.192C47.9089 41.728 47.8009 41.188 47.8009 40.572C47.8009 39.94 47.9089 39.4 48.1249 38.952C48.3409 38.504 48.6409 38.156 49.0249 37.908C49.4169 37.66 49.8689 37.536 50.3809 37.536C50.8929 37.536 51.3329 37.664 51.7009 37.92C52.0769 38.168 52.3289 38.504 52.4569 38.928H52.3249V35.04H53.5369V43.5H52.3489V42.18H52.4689C52.3409 42.612 52.0889 42.96 51.7129 43.224C51.3449 43.48 50.9009 43.608 50.3809 43.608ZM50.6929 42.672C51.1889 42.672 51.5889 42.492 51.8929 42.132C52.1969 41.772 52.3489 41.252 52.3489 40.572C52.3489 39.884 52.1969 39.364 51.8929 39.012C51.5889 38.66 51.1889 38.484 50.6929 38.484C50.1889 38.484 49.7849 38.66 49.4809 39.012C49.1769 39.364 49.0249 39.884 49.0249 40.572C49.0249 41.252 49.1769 41.772 49.4809 42.132C49.7849 42.492 50.1889 42.672 50.6929 42.672ZM57.1107 43.608C56.7027 43.608 56.3347 43.528 56.0067 43.368C55.6867 43.208 55.4347 42.992 55.2507 42.72C55.0667 42.448 54.9747 42.14 54.9747 41.796C54.9747 41.364 55.0827 41.024 55.2987 40.776C55.5227 40.52 55.8867 40.34 56.3907 40.236C56.9027 40.124 57.5907 40.068 58.4547 40.068H59.0187V40.812H58.4667C58.0347 40.812 57.6707 40.828 57.3747 40.86C57.0787 40.892 56.8427 40.944 56.6667 41.016C56.4907 41.08 56.3627 41.172 56.2827 41.292C56.2107 41.412 56.1747 41.556 56.1747 41.724C56.1747 42.028 56.2787 42.276 56.4867 42.468C56.6947 42.652 56.9827 42.744 57.3507 42.744C57.6467 42.744 57.9067 42.676 58.1307 42.54C58.3547 42.396 58.5307 42.204 58.6587 41.964C58.7947 41.724 58.8627 41.448 58.8627 41.136V39.756C58.8627 39.3 58.7667 38.972 58.5747 38.772C58.3827 38.572 58.0667 38.472 57.6267 38.472C57.2907 38.472 56.9547 38.524 56.6187 38.628C56.2827 38.724 55.9387 38.88 55.5867 39.096L55.2147 38.244C55.4227 38.1 55.6627 37.976 55.9347 37.872C56.2067 37.768 56.4907 37.688 56.7867 37.632C57.0907 37.568 57.3827 37.536 57.6627 37.536C58.1987 37.536 58.6387 37.62 58.9827 37.788C59.3347 37.956 59.5947 38.212 59.7627 38.556C59.9307 38.9 60.0147 39.344 60.0147 39.888V43.5H58.8747V42.192H58.9827C58.9187 42.488 58.7987 42.744 58.6227 42.96C58.4547 43.168 58.2427 43.328 57.9867 43.44C57.7307 43.552 57.4387 43.608 57.1107 43.608ZM63.916 43.608C63.404 43.608 62.952 43.488 62.56 43.248C62.176 43 61.876 42.648 61.66 42.192C61.444 41.728 61.336 41.188 61.336 40.572C61.336 39.94 61.444 39.4 61.66 38.952C61.876 38.504 62.176 38.156 62.56 37.908C62.952 37.66 63.404 37.536 63.916 37.536C64.428 37.536 64.868 37.664 65.236 37.92C65.612 38.168 65.864 38.504 65.992 38.928H65.86V35.04H67.072V43.5H65.884V42.18H66.004C65.876 42.612 65.624 42.96 65.248 43.224C64.88 43.48 64.436 43.608 63.916 43.608ZM64.228 42.672C64.724 42.672 65.124 42.492 65.428 42.132C65.732 41.772 65.884 41.252 65.884 40.572C65.884 39.884 65.732 39.364 65.428 39.012C65.124 38.66 64.724 38.484 64.228 38.484C63.724 38.484 63.32 38.66 63.016 39.012C62.712 39.364 62.56 39.884 62.56 40.572C62.56 41.252 62.712 41.772 63.016 42.132C63.32 42.492 63.724 42.672 64.228 42.672ZM72.4782 43.5V42.456H74.3982V36.096H75.0222L72.8982 37.416L72.3942 36.492L74.7582 35.04H75.6342V42.456H77.4342V43.5H72.4782Z" fill="black"/>
<path d="M26.2333 59.61C25.456 59.61 24.7886 59.4487 24.2313 59.126C23.674 58.796 23.245 58.334 22.9443 57.74C22.6436 57.146 22.4933 56.4383 22.4933 55.617C22.4933 54.7957 22.6436 54.0917 22.9443 53.505C23.245 52.911 23.674 52.4527 24.2313 52.13C24.7886 51.8073 25.456 51.646 26.2333 51.646C26.7613 51.646 27.2526 51.7267 27.7073 51.888C28.1693 52.0493 28.5543 52.2877 28.8623 52.603L28.4553 53.516C28.118 53.2227 27.7733 53.01 27.4213 52.878C27.0693 52.746 26.6843 52.68 26.2663 52.68C25.445 52.68 24.8143 52.933 24.3743 53.439C23.9343 53.945 23.7143 54.671 23.7143 55.617C23.7143 56.563 23.9343 57.2927 24.3743 57.806C24.8143 58.312 25.445 58.565 26.2663 58.565C26.6843 58.565 27.0693 58.499 27.4213 58.367C27.7733 58.235 28.118 58.0223 28.4553 57.729L28.8623 58.642C28.5543 58.95 28.1693 59.1883 27.7073 59.357C27.2526 59.5257 26.7613 59.61 26.2333 59.61ZM31.7332 59.599C31.3519 59.599 31.0109 59.5257 30.7102 59.379C30.4096 59.2323 30.1712 59.0343 29.9952 58.785C29.8266 58.5283 29.7422 58.246 29.7422 57.938C29.7422 57.5347 29.8449 57.2193 30.0502 56.992C30.2629 56.7573 30.6039 56.5887 31.0732 56.486C31.5499 56.3833 32.1806 56.332 32.9652 56.332H33.5482V57.036H32.9872C32.5912 57.036 32.2576 57.0507 31.9862 57.08C31.7149 57.102 31.4949 57.146 31.3262 57.212C31.1649 57.2707 31.0476 57.355 30.9742 57.465C30.9009 57.575 30.8642 57.7107 30.8642 57.872C30.8642 58.1433 30.9596 58.3633 31.1502 58.532C31.3482 58.7007 31.6159 58.785 31.9532 58.785C32.2319 58.785 32.4776 58.719 32.6902 58.587C32.9029 58.455 33.0716 58.279 33.1962 58.059C33.3209 57.839 33.3832 57.586 33.3832 57.3V56.046C33.3832 55.6353 33.2879 55.342 33.0972 55.166C32.9139 54.9827 32.6132 54.891 32.1952 54.891C31.8872 54.891 31.5756 54.9387 31.2602 55.034C30.9522 55.122 30.6369 55.265 30.3142 55.463L29.9622 54.66C30.1676 54.528 30.3949 54.4143 30.6442 54.319C30.9009 54.2163 31.1686 54.1393 31.4472 54.088C31.7259 54.0367 31.9972 54.011 32.2612 54.011C32.7526 54.011 33.1596 54.088 33.4822 54.242C33.8122 54.396 34.0616 54.6307 34.2302 54.946C34.3989 55.2613 34.4832 55.6683 34.4832 56.167V59.5H33.4382V58.312H33.5042C33.4382 58.5687 33.3209 58.796 33.1522 58.994C32.9909 59.1847 32.7892 59.335 32.5472 59.445C32.3126 59.5477 32.0412 59.599 31.7332 59.599ZM36.0748 61.48V54.11H37.1638V55.309H37.0868C37.2115 54.9057 37.4461 54.5903 37.7908 54.363C38.1355 54.1283 38.5425 54.011 39.0118 54.011C39.4958 54.011 39.9175 54.1247 40.2768 54.352C40.6361 54.5793 40.9148 54.902 41.1128 55.32C41.3108 55.738 41.4098 56.233 41.4098 56.805C41.4098 57.3697 41.3108 57.8647 41.1128 58.29C40.9148 58.708 40.6361 59.0307 40.2768 59.258C39.9248 59.4853 39.5031 59.599 39.0118 59.599C38.5498 59.599 38.1501 59.4853 37.8128 59.258C37.4755 59.0233 37.2408 58.719 37.1088 58.345H37.2078V61.48H36.0748ZM38.7258 58.719C39.1951 58.719 39.5691 58.554 39.8478 58.224C40.1265 57.8867 40.2658 57.4137 40.2658 56.805C40.2658 56.1817 40.1265 55.7087 39.8478 55.386C39.5691 55.0633 39.1951 54.902 38.7258 54.902C38.2565 54.902 37.8825 55.0633 37.6038 55.386C37.3325 55.7087 37.1968 56.1817 37.1968 56.805C37.1968 57.4137 37.3361 57.8867 37.6148 58.224C37.8935 58.554 38.2638 58.719 38.7258 58.719ZM42.7135 59.5V54.11H43.8465V59.5H42.7135ZM42.8565 53.406L44.0005 51.184H45.1775L43.6705 53.406H42.8565ZM47.8062 59.599C47.1242 59.599 46.6145 59.4267 46.2772 59.082C45.9399 58.73 45.7712 58.224 45.7712 57.564V54.99H44.7262V54.11H45.7932V52.504H46.9042V54.11H48.6312V54.99H46.9152V57.487C46.9152 57.8683 46.9959 58.158 47.1572 58.356C47.3259 58.554 47.5972 58.653 47.9712 58.653C48.0959 58.653 48.2169 58.6383 48.3342 58.609C48.4515 58.5797 48.5689 58.5467 48.6862 58.51L48.8622 59.368C48.7375 59.4413 48.5762 59.4963 48.3782 59.533C48.1802 59.577 47.9895 59.599 47.8062 59.599ZM51.6324 59.599C51.1924 59.599 50.8221 59.5183 50.5214 59.357C50.2281 59.1957 50.0081 58.9537 49.8614 58.631C49.7221 58.3083 49.6524 57.905 49.6524 57.421V54.11H50.7854V57.41C50.7854 57.6887 50.8221 57.9233 50.8954 58.114C50.9761 58.3047 51.0971 58.4477 51.2584 58.543C51.4271 58.6383 51.6397 58.686 51.8964 58.686C52.1824 58.686 52.4317 58.6237 52.6444 58.499C52.8571 58.367 53.0221 58.1837 53.1394 57.949C53.2641 57.7143 53.3264 57.4467 53.3264 57.146V54.11H54.4704V59.5H53.3704V58.323H53.4914C53.3301 58.7337 53.0881 59.049 52.7654 59.269C52.4427 59.489 52.0651 59.599 51.6324 59.599ZM57.8472 59.599C57.2679 59.599 56.8316 59.434 56.5382 59.104C56.2449 58.774 56.0982 58.2973 56.0982 57.674V51.745H57.2312V57.597C57.2312 57.8317 57.2642 58.0297 57.3302 58.191C57.3962 58.345 57.4916 58.4623 57.6162 58.543C57.7482 58.6237 57.9096 58.664 58.1002 58.664C58.1882 58.664 58.2762 58.6603 58.3642 58.653C58.4522 58.6457 58.5366 58.6273 58.6172 58.598L58.6062 59.5C58.4816 59.5367 58.3569 59.5623 58.2322 59.577C58.1149 59.5917 57.9866 59.599 57.8472 59.599ZM61.8578 59.599C61.3151 59.599 60.8421 59.4853 60.4388 59.258C60.0428 59.0307 59.7348 58.708 59.5148 58.29C59.2948 57.8647 59.1848 57.3697 59.1848 56.805C59.1848 56.233 59.2948 55.738 59.5148 55.32C59.7348 54.902 60.0428 54.5793 60.4388 54.352C60.8421 54.1247 61.3151 54.011 61.8578 54.011C62.4004 54.011 62.8698 54.1247 63.2658 54.352C63.6691 54.5793 63.9808 54.902 64.2008 55.32C64.4208 55.738 64.5308 56.233 64.5308 56.805C64.5308 57.3697 64.4208 57.8647 64.2008 58.29C63.9808 58.708 63.6691 59.0307 63.2658 59.258C62.8698 59.4853 62.4004 59.599 61.8578 59.599ZM61.8578 58.708C62.3271 58.708 62.7011 58.543 62.9798 58.213C63.2584 57.883 63.3978 57.41 63.3978 56.794C63.3978 56.1853 63.2584 55.7197 62.9798 55.397C62.7011 55.0743 62.3271 54.913 61.8578 54.913C61.3884 54.913 61.0144 55.0743 60.7358 55.397C60.4571 55.7197 60.3178 56.1853 60.3178 56.794C60.3178 57.41 60.4571 57.883 60.7358 58.213C61.0144 58.543 61.3884 58.708 61.8578 58.708ZM71.3912 59.599C71.0612 59.599 70.7349 59.566 70.4122 59.5C70.0896 59.4267 69.7889 59.3203 69.5102 59.181C69.2389 59.0417 68.9969 58.8803 68.7842 58.697L69.1912 57.806C69.5359 58.0773 69.8879 58.279 70.2472 58.411C70.6066 58.543 70.9842 58.609 71.3802 58.609C71.8862 58.609 72.2822 58.477 72.5682 58.213C72.8542 57.9417 72.9972 57.5787 72.9972 57.124C72.9972 56.662 72.8616 56.288 72.5902 56.002C72.3189 55.716 71.9449 55.573 71.4682 55.573C71.1236 55.573 70.8192 55.639 70.5552 55.771C70.2912 55.903 70.0529 56.112 69.8402 56.398H69.0152V51.745H73.6682V52.713H70.1262V55.474H69.8842C70.0676 55.2027 70.3169 54.99 70.6322 54.836C70.9549 54.682 71.3142 54.605 71.7102 54.605C72.2016 54.605 72.6269 54.7113 72.9862 54.924C73.3456 55.1293 73.6242 55.419 73.8222 55.793C74.0202 56.1597 74.1192 56.5887 74.1192 57.08C74.1192 57.5787 74.0092 58.0187 73.7892 58.4C73.5692 58.7813 73.2539 59.0783 72.8432 59.291C72.4399 59.4963 71.9559 59.599 71.3912 59.599Z" fill="#667085"/>
<defs>
<filter id="filter0_d_8310_982" x="0" y="1.5" width="96" height="85.8462" filterUnits="userSpaceOnUse" color-interpolation-filters="sRGB">
<feFlood flood-opacity="0" result="BackgroundImageFix"/>
<feColorMatrix in="SourceAlpha" type="matrix" values="0 0 0 0 0 0 0 0 0 0 0 0 0 0 0 0 0 0 127 0" result="hardAlpha"/>
<feOffset dy="4"/>
<feGaussianBlur stdDeviation="2"/>
<feComposite in2="hardAlpha" operator="out"/>
<feColorMatrix type="matrix" values="0 0 0 0 0 0 0 0 0 0 0 0 0 0 0 0 0 0 0.25 0"/>
<feBlend mode="normal" in2="BackgroundImageFix" result="effect1_dropShadow_8310_982"/>
<feBlend mode="normal" in="SourceGraphic" in2="effect1_dropShadow_8310_982" result="shape"/>
</filter>
</defs>
</svg>
