<svg width="96" height="88" viewBox="0 0 96 88" fill="none" xmlns="http://www.w3.org/2000/svg">
<g filter="url(#filter0_d_8310_938)">
<path d="M5.37285 44.5185C4.62083 43.2089 4.24484 42.5536 4.09767 41.8574C3.96744 41.2412 3.96744 40.6048 4.09767 39.9886C4.24484 39.2924 4.62083 38.6371 5.37285 37.3274L23.5901 5.59555C24.3421 4.28569 24.7181 3.63076 25.2442 3.15444C25.7096 2.733 26.2579 2.41461 26.8535 2.22C27.5267 2 28.2787 2 29.7827 2H66.2171C67.7214 2 68.4731 2 69.1466 2.22C69.7419 2.41461 70.2903 2.733 70.756 3.15444C71.282 3.63076 71.6578 4.28569 72.41 5.59555L90.6271 37.3274C91.3792 38.6371 91.7551 39.2924 91.9021 39.9886C92.0326 40.6048 92.0326 41.2412 91.9021 41.8574C91.7551 42.5536 91.3792 43.2089 90.6271 44.5185L72.41 76.2506C71.6578 77.5603 71.282 78.2151 70.756 78.6915C70.2903 79.1131 69.7419 79.4313 69.1466 79.6259C68.4731 79.8462 67.7214 79.8462 66.2171 79.8462H29.7827C28.2787 79.8462 27.5267 79.8462 26.8535 79.6259C26.2579 79.4313 25.7096 79.1131 25.2442 78.6915C24.7181 78.2151 24.3421 77.5603 23.5901 76.2506L5.37285 44.5185Z" fill="white"/>
</g>
<path d="M46.5432 27.1574L36.0476 16.6618C35.1147 15.7288 35.1147 14.2711 36.0476 13.3382L46.5432 2.84253C47.4762 1.90959 48.9339 1.90959 49.8669 2.84253L60.3625 13.3382C61.2954 14.2711 61.2954 15.7288 60.3625 16.6618L49.8669 27.1574C48.9339 28.0903 47.4179 28.0903 46.5432 27.1574Z" fill="#F2BB41"/>
<path d="M46.7765 20.1021C46.7765 19.9272 46.8348 19.7523 46.8931 19.5773C46.9514 19.4024 47.068 19.2858 47.1847 19.1692C47.3013 19.0526 47.4762 18.9359 47.6511 18.8776C47.8261 18.8193 48.001 18.761 48.2342 18.761C48.4675 18.761 48.6424 18.8193 48.8173 18.8776C48.9922 18.9359 49.1672 19.0526 49.2838 19.1692C49.4004 19.2858 49.517 19.4024 49.5753 19.5773C49.6336 19.7523 49.6919 19.9272 49.6919 20.1021C49.6919 20.277 49.6336 20.452 49.5753 20.6269C49.517 20.8018 49.4004 20.9184 49.2838 21.0351C49.1672 21.1517 48.9922 21.2683 48.8173 21.3266C48.6424 21.3849 48.4675 21.4432 48.2342 21.4432C48.001 21.4432 47.8261 21.3849 47.6511 21.3266C47.4762 21.2683 47.3596 21.1517 47.1847 21.0351C47.068 20.9184 46.9514 20.8018 46.8931 20.6269C46.8348 20.452 46.7765 20.3353 46.7765 20.1021ZM49.2255 17.4199H47.1263L46.8348 8.61523H49.517L49.2255 17.4199Z" fill="#E08838"/>
<path d="M19.1246 43V34.54H22.6286C23.2446 34.54 23.7646 34.644 24.1886 34.852C24.6126 35.052 24.9326 35.344 25.1486 35.728C25.3726 36.112 25.4846 36.576 25.4846 37.12C25.4846 37.664 25.3726 38.132 25.1486 38.524C24.9326 38.908 24.6126 39.204 24.1886 39.412C23.7646 39.612 23.2446 39.712 22.6286 39.712H20.3726V43H19.1246ZM20.3726 38.716H22.4486C23.0486 38.716 23.5006 38.584 23.8046 38.32C24.1166 38.048 24.2726 37.648 24.2726 37.12C24.2726 36.6 24.1166 36.208 23.8046 35.944C23.5006 35.672 23.0486 35.536 22.4486 35.536H20.3726V38.716ZM26.5747 43V37.144H27.7507V38.548H27.6307C27.7587 38.068 27.9867 37.704 28.3147 37.456C28.6507 37.208 29.0947 37.064 29.6467 37.024L30.0427 37L30.1267 38.032L29.3947 38.104C28.8747 38.152 28.4787 38.316 28.2067 38.596C27.9347 38.876 27.7987 39.26 27.7987 39.748V43H26.5747ZM30.9432 35.788V34.528H32.3592V35.788H30.9432ZM31.0512 43V37.144H32.2632V43H31.0512ZM36.5132 43.108C35.9212 43.108 35.4092 42.984 34.9772 42.736C34.5532 42.488 34.2212 42.136 33.9812 41.68C33.7412 41.224 33.6212 40.688 33.6212 40.072C33.6212 39.448 33.7412 38.912 33.9812 38.464C34.2212 38.008 34.5532 37.656 34.9772 37.408C35.4092 37.16 35.9212 37.036 36.5132 37.036C37.0972 37.036 37.6012 37.16 38.0252 37.408C38.4572 37.656 38.7932 38.008 39.0332 38.464C39.2732 38.92 39.3932 39.456 39.3932 40.072C39.3932 40.688 39.2732 41.224 39.0332 41.68C38.7932 42.136 38.4572 42.488 38.0252 42.736C37.6012 42.984 37.0972 43.108 36.5132 43.108ZM36.5012 42.172C37.0052 42.172 37.4092 41.992 37.7132 41.632C38.0172 41.272 38.1692 40.752 38.1692 40.072C38.1692 39.384 38.0172 38.864 37.7132 38.512C37.4092 38.16 37.0052 37.984 36.5012 37.984C36.0052 37.984 35.6052 38.16 35.3012 38.512C34.9972 38.864 34.8452 39.384 34.8452 40.072C34.8452 40.752 34.9972 41.272 35.3012 41.632C35.6052 41.992 36.0052 42.172 36.5012 42.172ZM40.7543 43V37.144H41.9303V38.548H41.8103C41.9383 38.068 42.1663 37.704 42.4943 37.456C42.8303 37.208 43.2743 37.064 43.8263 37.024L44.2223 37L44.3063 38.032L43.5743 38.104C43.0543 38.152 42.6583 38.316 42.3863 38.596C42.1143 38.876 41.9783 39.26 41.9783 39.748V43H40.7543ZM45.1229 35.788V34.528H46.5389V35.788H45.1229ZM45.2309 43V37.144H46.4429V43H45.2309ZM50.3809 43.108C49.8689 43.108 49.4169 42.988 49.0249 42.748C48.6409 42.5 48.3409 42.148 48.1249 41.692C47.9089 41.228 47.8009 40.688 47.8009 40.072C47.8009 39.44 47.9089 38.9 48.1249 38.452C48.3409 38.004 48.6409 37.656 49.0249 37.408C49.4169 37.16 49.8689 37.036 50.3809 37.036C50.8929 37.036 51.3329 37.164 51.7009 37.42C52.0769 37.668 52.3289 38.004 52.4569 38.428H52.3249V34.54H53.5369V43H52.3489V41.68H52.4689C52.3409 42.112 52.0889 42.46 51.7129 42.724C51.3449 42.98 50.9009 43.108 50.3809 43.108ZM50.6929 42.172C51.1889 42.172 51.5889 41.992 51.8929 41.632C52.1969 41.272 52.3489 40.752 52.3489 40.072C52.3489 39.384 52.1969 38.864 51.8929 38.512C51.5889 38.16 51.1889 37.984 50.6929 37.984C50.1889 37.984 49.7849 38.16 49.4809 38.512C49.1769 38.864 49.0249 39.384 49.0249 40.072C49.0249 40.752 49.1769 41.272 49.4809 41.632C49.7849 41.992 50.1889 42.172 50.6929 42.172ZM57.1107 43.108C56.7027 43.108 56.3347 43.028 56.0067 42.868C55.6867 42.708 55.4347 42.492 55.2507 42.22C55.0667 41.948 54.9747 41.64 54.9747 41.296C54.9747 40.864 55.0827 40.524 55.2987 40.276C55.5227 40.02 55.8867 39.84 56.3907 39.736C56.9027 39.624 57.5907 39.568 58.4547 39.568H59.0187V40.312H58.4667C58.0347 40.312 57.6707 40.328 57.3747 40.36C57.0787 40.392 56.8427 40.444 56.6667 40.516C56.4907 40.58 56.3627 40.672 56.2827 40.792C56.2107 40.912 56.1747 41.056 56.1747 41.224C56.1747 41.528 56.2787 41.776 56.4867 41.968C56.6947 42.152 56.9827 42.244 57.3507 42.244C57.6467 42.244 57.9067 42.176 58.1307 42.04C58.3547 41.896 58.5307 41.704 58.6587 41.464C58.7947 41.224 58.8627 40.948 58.8627 40.636V39.256C58.8627 38.8 58.7667 38.472 58.5747 38.272C58.3827 38.072 58.0667 37.972 57.6267 37.972C57.2907 37.972 56.9547 38.024 56.6187 38.128C56.2827 38.224 55.9387 38.38 55.5867 38.596L55.2147 37.744C55.4227 37.6 55.6627 37.476 55.9347 37.372C56.2067 37.268 56.4907 37.188 56.7867 37.132C57.0907 37.068 57.3827 37.036 57.6627 37.036C58.1987 37.036 58.6387 37.12 58.9827 37.288C59.3347 37.456 59.5947 37.712 59.7627 38.056C59.9307 38.4 60.0147 38.844 60.0147 39.388V43H58.8747V41.692H58.9827C58.9187 41.988 58.7987 42.244 58.6227 42.46C58.4547 42.668 58.2427 42.828 57.9867 42.94C57.7307 43.052 57.4387 43.108 57.1107 43.108ZM63.916 43.108C63.404 43.108 62.952 42.988 62.56 42.748C62.176 42.5 61.876 42.148 61.66 41.692C61.444 41.228 61.336 40.688 61.336 40.072C61.336 39.44 61.444 38.9 61.66 38.452C61.876 38.004 62.176 37.656 62.56 37.408C62.952 37.16 63.404 37.036 63.916 37.036C64.428 37.036 64.868 37.164 65.236 37.42C65.612 37.668 65.864 38.004 65.992 38.428H65.86V34.54H67.072V43H65.884V41.68H66.004C65.876 42.112 65.624 42.46 65.248 42.724C64.88 42.98 64.436 43.108 63.916 43.108ZM64.228 42.172C64.724 42.172 65.124 41.992 65.428 41.632C65.732 41.272 65.884 40.752 65.884 40.072C65.884 39.384 65.732 38.864 65.428 38.512C65.124 38.16 64.724 37.984 64.228 37.984C63.724 37.984 63.32 38.16 63.016 38.512C62.712 38.864 62.56 39.384 62.56 40.072C62.56 40.752 62.712 41.272 63.016 41.632C63.32 41.992 63.724 42.172 64.228 42.172ZM72.0942 43V42.076L74.9142 39.052C75.1782 38.764 75.3902 38.5 75.5502 38.26C75.7102 38.012 75.8262 37.776 75.8982 37.552C75.9782 37.32 76.0182 37.088 76.0182 36.856C76.0182 36.408 75.8822 36.068 75.6102 35.836C75.3382 35.604 74.9382 35.488 74.4102 35.488C74.0022 35.488 73.6142 35.564 73.2462 35.716C72.8862 35.868 72.5422 36.1 72.2142 36.412L71.7702 35.464C72.0902 35.152 72.4982 34.904 72.9942 34.72C73.4902 34.528 74.0062 34.432 74.5422 34.432C75.1262 34.432 75.6182 34.524 76.0182 34.708C76.4262 34.884 76.7342 35.144 76.9422 35.488C77.1502 35.832 77.2542 36.252 77.2542 36.748C77.2542 37.004 77.2222 37.256 77.1582 37.504C77.1022 37.744 77.0102 37.984 76.8822 38.224C76.7622 38.464 76.6062 38.712 76.4142 38.968C76.2302 39.224 76.0062 39.488 75.7422 39.76L73.3302 42.304V41.956H77.5902V43H72.0942Z" fill="black"/>
<path d="M26.2333 59.11C25.456 59.11 24.7886 58.9487 24.2313 58.626C23.674 58.296 23.245 57.834 22.9443 57.24C22.6436 56.646 22.4933 55.9383 22.4933 55.117C22.4933 54.2957 22.6436 53.5917 22.9443 53.005C23.245 52.411 23.674 51.9527 24.2313 51.63C24.7886 51.3073 25.456 51.146 26.2333 51.146C26.7613 51.146 27.2526 51.2267 27.7073 51.388C28.1693 51.5493 28.5543 51.7877 28.8623 52.103L28.4553 53.016C28.118 52.7227 27.7733 52.51 27.4213 52.378C27.0693 52.246 26.6843 52.18 26.2663 52.18C25.445 52.18 24.8143 52.433 24.3743 52.939C23.9343 53.445 23.7143 54.171 23.7143 55.117C23.7143 56.063 23.9343 56.7927 24.3743 57.306C24.8143 57.812 25.445 58.065 26.2663 58.065C26.6843 58.065 27.0693 57.999 27.4213 57.867C27.7733 57.735 28.118 57.5223 28.4553 57.229L28.8623 58.142C28.5543 58.45 28.1693 58.6883 27.7073 58.857C27.2526 59.0257 26.7613 59.11 26.2333 59.11ZM31.7332 59.099C31.3519 59.099 31.0109 59.0257 30.7102 58.879C30.4096 58.7323 30.1712 58.5343 29.9952 58.285C29.8266 58.0283 29.7422 57.746 29.7422 57.438C29.7422 57.0347 29.8449 56.7193 30.0502 56.492C30.2629 56.2573 30.6039 56.0887 31.0732 55.986C31.5499 55.8833 32.1806 55.832 32.9652 55.832H33.5482V56.536H32.9872C32.5912 56.536 32.2576 56.5507 31.9862 56.58C31.7149 56.602 31.4949 56.646 31.3262 56.712C31.1649 56.7707 31.0476 56.855 30.9742 56.965C30.9009 57.075 30.8642 57.2107 30.8642 57.372C30.8642 57.6433 30.9596 57.8633 31.1502 58.032C31.3482 58.2007 31.6159 58.285 31.9532 58.285C32.2319 58.285 32.4776 58.219 32.6902 58.087C32.9029 57.955 33.0716 57.779 33.1962 57.559C33.3209 57.339 33.3832 57.086 33.3832 56.8V55.546C33.3832 55.1353 33.2879 54.842 33.0972 54.666C32.9139 54.4827 32.6132 54.391 32.1952 54.391C31.8872 54.391 31.5756 54.4387 31.2602 54.534C30.9522 54.622 30.6369 54.765 30.3142 54.963L29.9622 54.16C30.1676 54.028 30.3949 53.9143 30.6442 53.819C30.9009 53.7163 31.1686 53.6393 31.4472 53.588C31.7259 53.5367 31.9972 53.511 32.2612 53.511C32.7526 53.511 33.1596 53.588 33.4822 53.742C33.8122 53.896 34.0616 54.1307 34.2302 54.446C34.3989 54.7613 34.4832 55.1683 34.4832 55.667V59H33.4382V57.812H33.5042C33.4382 58.0687 33.3209 58.296 33.1522 58.494C32.9909 58.6847 32.7892 58.835 32.5472 58.945C32.3126 59.0477 32.0412 59.099 31.7332 59.099ZM36.0748 60.98V53.61H37.1638V54.809H37.0868C37.2115 54.4057 37.4461 54.0903 37.7908 53.863C38.1355 53.6283 38.5425 53.511 39.0118 53.511C39.4958 53.511 39.9175 53.6247 40.2768 53.852C40.6361 54.0793 40.9148 54.402 41.1128 54.82C41.3108 55.238 41.4098 55.733 41.4098 56.305C41.4098 56.8697 41.3108 57.3647 41.1128 57.79C40.9148 58.208 40.6361 58.5307 40.2768 58.758C39.9248 58.9853 39.5031 59.099 39.0118 59.099C38.5498 59.099 38.1501 58.9853 37.8128 58.758C37.4755 58.5233 37.2408 58.219 37.1088 57.845H37.2078V60.98H36.0748ZM38.7258 58.219C39.1951 58.219 39.5691 58.054 39.8478 57.724C40.1265 57.3867 40.2658 56.9137 40.2658 56.305C40.2658 55.6817 40.1265 55.2087 39.8478 54.886C39.5691 54.5633 39.1951 54.402 38.7258 54.402C38.2565 54.402 37.8825 54.5633 37.6038 54.886C37.3325 55.2087 37.1968 55.6817 37.1968 56.305C37.1968 56.9137 37.3361 57.3867 37.6148 57.724C37.8935 58.054 38.2638 58.219 38.7258 58.219ZM42.7135 59V53.61H43.8465V59H42.7135ZM42.8565 52.906L44.0005 50.684H45.1775L43.6705 52.906H42.8565ZM47.8062 59.099C47.1242 59.099 46.6145 58.9267 46.2772 58.582C45.9399 58.23 45.7712 57.724 45.7712 57.064V54.49H44.7262V53.61H45.7932V52.004H46.9042V53.61H48.6312V54.49H46.9152V56.987C46.9152 57.3683 46.9959 57.658 47.1572 57.856C47.3259 58.054 47.5972 58.153 47.9712 58.153C48.0959 58.153 48.2169 58.1383 48.3342 58.109C48.4515 58.0797 48.5689 58.0467 48.6862 58.01L48.8622 58.868C48.7375 58.9413 48.5762 58.9963 48.3782 59.033C48.1802 59.077 47.9895 59.099 47.8062 59.099ZM51.6324 59.099C51.1924 59.099 50.8221 59.0183 50.5214 58.857C50.2281 58.6957 50.0081 58.4537 49.8614 58.131C49.7221 57.8083 49.6524 57.405 49.6524 56.921V53.61H50.7854V56.91C50.7854 57.1887 50.8221 57.4233 50.8954 57.614C50.9761 57.8047 51.0971 57.9477 51.2584 58.043C51.4271 58.1383 51.6397 58.186 51.8964 58.186C52.1824 58.186 52.4317 58.1237 52.6444 57.999C52.8571 57.867 53.0221 57.6837 53.1394 57.449C53.2641 57.2143 53.3264 56.9467 53.3264 56.646V53.61H54.4704V59H53.3704V57.823H53.4914C53.3301 58.2337 53.0881 58.549 52.7654 58.769C52.4427 58.989 52.0651 59.099 51.6324 59.099ZM57.8472 59.099C57.2679 59.099 56.8316 58.934 56.5382 58.604C56.2449 58.274 56.0982 57.7973 56.0982 57.174V51.245H57.2312V57.097C57.2312 57.3317 57.2642 57.5297 57.3302 57.691C57.3962 57.845 57.4916 57.9623 57.6162 58.043C57.7482 58.1237 57.9096 58.164 58.1002 58.164C58.1882 58.164 58.2762 58.1603 58.3642 58.153C58.4522 58.1457 58.5366 58.1273 58.6172 58.098L58.6062 59C58.4816 59.0367 58.3569 59.0623 58.2322 59.077C58.1149 59.0917 57.9866 59.099 57.8472 59.099ZM61.8578 59.099C61.3151 59.099 60.8421 58.9853 60.4388 58.758C60.0428 58.5307 59.7348 58.208 59.5148 57.79C59.2948 57.3647 59.1848 56.8697 59.1848 56.305C59.1848 55.733 59.2948 55.238 59.5148 54.82C59.7348 54.402 60.0428 54.0793 60.4388 53.852C60.8421 53.6247 61.3151 53.511 61.8578 53.511C62.4004 53.511 62.8698 53.6247 63.2658 53.852C63.6691 54.0793 63.9808 54.402 64.2008 54.82C64.4208 55.238 64.5308 55.733 64.5308 56.305C64.5308 56.8697 64.4208 57.3647 64.2008 57.79C63.9808 58.208 63.6691 58.5307 63.2658 58.758C62.8698 58.9853 62.4004 59.099 61.8578 59.099ZM61.8578 58.208C62.3271 58.208 62.7011 58.043 62.9798 57.713C63.2584 57.383 63.3978 56.91 63.3978 56.294C63.3978 55.6853 63.2584 55.2197 62.9798 54.897C62.7011 54.5743 62.3271 54.413 61.8578 54.413C61.3884 54.413 61.0144 54.5743 60.7358 54.897C60.4571 55.2197 60.3178 55.6853 60.3178 56.294C60.3178 56.91 60.4571 57.383 60.7358 57.713C61.0144 58.043 61.3884 58.208 61.8578 58.208ZM71.5672 59.099C70.9439 59.099 70.4122 58.9487 69.9722 58.648C69.5322 58.3473 69.1949 57.9147 68.9602 57.35C68.7329 56.778 68.6192 56.0887 68.6192 55.282C68.6192 54.3947 68.7476 53.6467 69.0042 53.038C69.2609 52.422 69.6312 51.9527 70.1152 51.63C70.5992 51.3073 71.1786 51.146 71.8532 51.146C72.1246 51.146 72.3959 51.1827 72.6672 51.256C72.9386 51.322 73.1952 51.4247 73.4372 51.564C73.6792 51.696 73.8919 51.8573 74.0752 52.048L73.6792 52.917C73.4079 52.6457 73.1146 52.4477 72.7992 52.323C72.4839 52.1983 72.1612 52.136 71.8312 52.136C71.4939 52.136 71.1932 52.1983 70.9292 52.323C70.6652 52.4477 70.4416 52.6347 70.2582 52.884C70.0822 53.126 69.9466 53.4303 69.8512 53.797C69.7559 54.1637 69.7082 54.5927 69.7082 55.084V55.931H69.6312C69.6899 55.5423 69.8146 55.2123 70.0052 54.941C70.1959 54.6623 70.4416 54.4497 70.7422 54.303C71.0502 54.1563 71.3839 54.083 71.7432 54.083C72.2052 54.083 72.6086 54.1893 72.9532 54.402C73.3052 54.6073 73.5802 54.897 73.7782 55.271C73.9762 55.645 74.0752 56.0703 74.0752 56.547C74.0752 57.0383 73.9689 57.4783 73.7562 57.867C73.5436 58.2557 73.2466 58.56 72.8652 58.78C72.4912 58.9927 72.0586 59.099 71.5672 59.099ZM71.5012 58.164C71.8019 58.164 72.0622 58.098 72.2822 57.966C72.5096 57.834 72.6856 57.6507 72.8102 57.416C72.9349 57.174 72.9972 56.899 72.9972 56.591C72.9972 56.2757 72.9349 56.0007 72.8102 55.766C72.6856 55.5313 72.5096 55.348 72.2822 55.216C72.0622 55.084 71.8019 55.018 71.5012 55.018C71.2006 55.018 70.9366 55.084 70.7092 55.216C70.4892 55.348 70.3132 55.5313 70.1812 55.766C70.0566 56.0007 69.9942 56.2757 69.9942 56.591C69.9942 56.899 70.0566 57.174 70.1812 57.416C70.3132 57.6507 70.4892 57.834 70.7092 57.966C70.9366 58.098 71.2006 58.164 71.5012 58.164Z" fill="#667085"/>
<defs>
<filter id="filter0_d_8310_938" x="0" y="2" width="96" height="85.8462" filterUnits="userSpaceOnUse" color-interpolation-filters="sRGB">
<feFlood flood-opacity="0" result="BackgroundImageFix"/>
<feColorMatrix in="SourceAlpha" type="matrix" values="0 0 0 0 0 0 0 0 0 0 0 0 0 0 0 0 0 0 127 0" result="hardAlpha"/>
<feOffset dy="4"/>
<feGaussianBlur stdDeviation="2"/>
<feComposite in2="hardAlpha" operator="out"/>
<feColorMatrix type="matrix" values="0 0 0 0 0 0 0 0 0 0 0 0 0 0 0 0 0 0 0.25 0"/>
<feBlend mode="normal" in2="BackgroundImageFix" result="effect1_dropShadow_8310_938"/>
<feBlend mode="normal" in="SourceGraphic" in2="effect1_dropShadow_8310_938" result="shape"/>
</filter>
</defs>
</svg>
