<svg width="96" height="88" viewBox="0 0 96 88" fill="none" xmlns="http://www.w3.org/2000/svg">
<g filter="url(#filter0_d_8310_972)">
<path d="M5.37285 44.0185C4.62083 42.7089 4.24484 42.0536 4.09767 41.3574C3.96744 40.7412 3.96744 40.1048 4.09767 39.4886C4.24484 38.7924 4.62083 38.1371 5.37285 36.8274L23.5901 5.09555C24.3421 3.78569 24.7181 3.13076 25.2442 2.65444C25.7096 2.233 26.2579 1.91461 26.8535 1.72C27.5267 1.5 28.2787 1.5 29.7827 1.5H66.2171C67.7214 1.5 68.4731 1.5 69.1466 1.72C69.7419 1.91461 70.2903 2.233 70.756 2.65444C71.282 3.13076 71.6578 3.78569 72.41 5.09555L90.6271 36.8274C91.3792 38.1371 91.7551 38.7924 91.9021 39.4886C92.0326 40.1048 92.0326 40.7412 91.9021 41.3574C91.7551 42.0536 91.3792 42.7089 90.6271 44.0185L72.41 75.7506C71.6578 77.0603 71.282 77.7151 70.756 78.1915C70.2903 78.6131 69.7419 78.9313 69.1466 79.1259C68.4731 79.3462 67.7214 79.3462 66.2171 79.3462H29.7827C28.2787 79.3462 27.5267 79.3462 26.8535 79.1259C26.2579 78.9313 25.7096 78.6131 25.2442 78.1915C24.7181 77.7151 24.3421 77.0603 23.5901 75.7506L5.37285 44.0185Z" fill="white"/>
</g>
<path d="M58.2051 3H38.2051C36.8244 3 35.7051 4.11929 35.7051 5.5V25.5C35.7051 26.8807 36.8244 28 38.2051 28H58.2051C59.5858 28 60.7051 26.8807 60.7051 25.5V5.5C60.7051 4.11929 59.5858 3 58.2051 3Z" fill="#F2BB41"/>
<path d="M54.4551 16.7499H45.7051V13.5124L46.0676 13.8874C46.1838 14.0046 46.322 14.0976 46.4743 14.161C46.6267 14.2245 46.7901 14.2572 46.9551 14.2572C47.1201 14.2572 47.2835 14.2245 47.4358 14.161C47.5881 14.0976 47.7264 14.0046 47.8426 13.8874C47.9597 13.7712 48.0527 13.633 48.1162 13.4806C48.1796 13.3283 48.2123 13.1649 48.2123 12.9999C48.2123 12.8349 48.1796 12.6715 48.1162 12.5192C48.0527 12.3669 47.9597 12.2286 47.8426 12.1124L45.3426 9.61242C45.2264 9.49526 45.0881 9.40227 44.9358 9.33881C44.7835 9.27535 44.6201 9.24268 44.4551 9.24268C44.2901 9.24268 44.1267 9.27535 43.9743 9.33881C43.822 9.40227 43.6838 9.49526 43.5676 9.61242L41.0676 12.1124C40.951 12.229 40.8586 12.3673 40.7955 12.5196C40.7324 12.6719 40.7 12.8351 40.7 12.9999C40.7 13.3328 40.8322 13.652 41.0676 13.8874C41.3029 14.1228 41.6222 14.255 41.9551 14.255C42.2879 14.255 42.6072 14.1228 42.8426 13.8874L43.2051 13.5124V16.7499C43.2051 17.413 43.4685 18.0488 43.9373 18.5177C44.4061 18.9865 45.042 19.2499 45.7051 19.2499H54.4551C54.7866 19.2499 55.1045 19.1182 55.3389 18.8838C55.5734 18.6494 55.7051 18.3314 55.7051 17.9999C55.7051 17.6684 55.5734 17.3505 55.3389 17.116C55.1045 16.8816 54.7866 16.7499 54.4551 16.7499Z" fill="#E08838"/>
<path d="M24.3805 43.5V35.04H25.3285L30.4765 41.832H30.1765V35.04H31.3285V43.5H30.4045L25.2565 36.708H25.5325V43.5H24.3805ZM35.7105 43.608C35.1185 43.608 34.6065 43.484 34.1745 43.236C33.7505 42.988 33.4185 42.636 33.1785 42.18C32.9385 41.724 32.8185 41.188 32.8185 40.572C32.8185 39.948 32.9385 39.412 33.1785 38.964C33.4185 38.508 33.7505 38.156 34.1745 37.908C34.6065 37.66 35.1185 37.536 35.7105 37.536C36.2945 37.536 36.7985 37.66 37.2225 37.908C37.6545 38.156 37.9905 38.508 38.2305 38.964C38.4705 39.42 38.5905 39.956 38.5905 40.572C38.5905 41.188 38.4705 41.724 38.2305 42.18C37.9905 42.636 37.6545 42.988 37.2225 43.236C36.7985 43.484 36.2945 43.608 35.7105 43.608ZM35.6985 42.672C36.2025 42.672 36.6065 42.492 36.9105 42.132C37.2145 41.772 37.3665 41.252 37.3665 40.572C37.3665 39.884 37.2145 39.364 36.9105 39.012C36.6065 38.66 36.2025 38.484 35.6985 38.484C35.2025 38.484 34.8025 38.66 34.4985 39.012C34.1945 39.364 34.0425 39.884 34.0425 40.572C34.0425 41.252 34.1945 41.772 34.4985 42.132C34.8025 42.492 35.2025 42.672 35.6985 42.672ZM42.0036 43.608C41.6916 43.608 41.3876 43.58 41.0916 43.524C40.7956 43.468 40.5236 43.388 40.2756 43.284C40.0276 43.18 39.8076 43.052 39.6156 42.9L39.9636 42.084C40.1636 42.22 40.3756 42.34 40.5996 42.444C40.8236 42.54 41.0556 42.612 41.2956 42.66C41.5436 42.708 41.7836 42.732 42.0156 42.732C42.4396 42.732 42.7596 42.656 42.9756 42.504C43.1916 42.352 43.2996 42.148 43.2996 41.892C43.2996 41.684 43.2276 41.524 43.0836 41.412C42.9396 41.292 42.7236 41.2 42.4356 41.136L41.2956 40.908C40.7996 40.804 40.4236 40.62 40.1676 40.356C39.9116 40.092 39.7836 39.756 39.7836 39.348C39.7836 38.98 39.8836 38.66 40.0836 38.388C40.2836 38.116 40.5636 37.908 40.9236 37.764C41.2836 37.612 41.6996 37.536 42.1716 37.536C42.4436 37.536 42.7076 37.564 42.9636 37.62C43.2196 37.676 43.4596 37.756 43.6836 37.86C43.9156 37.964 44.1116 38.096 44.2716 38.256L43.9236 39.072C43.7716 38.936 43.5956 38.82 43.3956 38.724C43.2036 38.628 43.0036 38.556 42.7956 38.508C42.5876 38.452 42.3796 38.424 42.1716 38.424C41.7476 38.424 41.4276 38.504 41.2116 38.664C41.0036 38.816 40.8996 39.024 40.8996 39.288C40.8996 39.488 40.9636 39.652 41.0916 39.78C41.2196 39.908 41.4196 40 41.6916 40.056L42.8316 40.284C43.3516 40.388 43.7436 40.564 44.0076 40.812C44.2796 41.06 44.4156 41.396 44.4156 41.82C44.4156 42.188 44.3156 42.508 44.1156 42.78C43.9156 43.052 43.6316 43.26 43.2636 43.404C42.9036 43.54 42.4836 43.608 42.0036 43.608ZM48.3081 43.608C47.7161 43.608 47.2041 43.484 46.7721 43.236C46.3481 42.988 46.0161 42.636 45.7761 42.18C45.5361 41.724 45.4161 41.188 45.4161 40.572C45.4161 39.948 45.5361 39.412 45.7761 38.964C46.0161 38.508 46.3481 38.156 46.7721 37.908C47.2041 37.66 47.7161 37.536 48.3081 37.536C48.8921 37.536 49.3961 37.66 49.8201 37.908C50.2521 38.156 50.5881 38.508 50.8281 38.964C51.0681 39.42 51.1881 39.956 51.1881 40.572C51.1881 41.188 51.0681 41.724 50.8281 42.18C50.5881 42.636 50.2521 42.988 49.8201 43.236C49.3961 43.484 48.8921 43.608 48.3081 43.608ZM48.2961 42.672C48.8001 42.672 49.2041 42.492 49.5081 42.132C49.8121 41.772 49.9641 41.252 49.9641 40.572C49.9641 39.884 49.8121 39.364 49.5081 39.012C49.2041 38.66 48.8001 38.484 48.2961 38.484C47.8001 38.484 47.4001 38.66 47.0961 39.012C46.7921 39.364 46.6401 39.884 46.6401 40.572C46.6401 41.252 46.7921 41.772 47.0961 42.132C47.4001 42.492 47.8001 42.672 48.2961 42.672ZM54.9867 43.608C54.2587 43.608 53.7107 43.42 53.3427 43.044C52.9827 42.668 52.8027 42.124 52.8027 41.412V38.58H51.6627V37.644H52.8027V35.88H54.0147V37.644H55.8267V38.58H54.0147V41.316C54.0147 41.74 54.1027 42.06 54.2787 42.276C54.4627 42.492 54.7587 42.6 55.1667 42.6C55.2867 42.6 55.4067 42.584 55.5267 42.552C55.6547 42.52 55.7787 42.488 55.8987 42.456L56.0907 43.368C55.9707 43.44 55.8027 43.496 55.5867 43.536C55.3787 43.584 55.1787 43.608 54.9867 43.608ZM56.8735 43.5V37.644H58.0495V39.048H57.9295C58.0575 38.568 58.2855 38.204 58.6135 37.956C58.9495 37.708 59.3935 37.564 59.9455 37.524L60.3415 37.5L60.4255 38.532L59.6935 38.604C59.1735 38.652 58.7775 38.816 58.5055 39.096C58.2335 39.376 58.0975 39.76 58.0975 40.248V43.5H56.8735ZM63.812 43.608C63.22 43.608 62.708 43.484 62.276 43.236C61.852 42.988 61.52 42.636 61.28 42.18C61.04 41.724 60.92 41.188 60.92 40.572C60.92 39.948 61.04 39.412 61.28 38.964C61.52 38.508 61.852 38.156 62.276 37.908C62.708 37.66 63.22 37.536 63.812 37.536C64.396 37.536 64.9 37.66 65.324 37.908C65.756 38.156 66.092 38.508 66.332 38.964C66.572 39.42 66.692 39.956 66.692 40.572C66.692 41.188 66.572 41.724 66.332 42.18C66.092 42.636 65.756 42.988 65.324 43.236C64.9 43.484 64.396 43.608 63.812 43.608ZM63.8 42.672C64.304 42.672 64.708 42.492 65.012 42.132C65.316 41.772 65.468 41.252 65.468 40.572C65.468 39.884 65.316 39.364 65.012 39.012C64.708 38.66 64.304 38.484 63.8 38.484C63.304 38.484 62.904 38.66 62.6 39.012C62.296 39.364 62.144 39.884 62.144 40.572C62.144 41.252 62.296 41.772 62.6 42.132C62.904 42.492 63.304 42.672 63.8 42.672ZM70.1052 43.608C69.7932 43.608 69.4892 43.58 69.1932 43.524C68.8972 43.468 68.6252 43.388 68.3772 43.284C68.1292 43.18 67.9092 43.052 67.7172 42.9L68.0652 42.084C68.2652 42.22 68.4772 42.34 68.7012 42.444C68.9252 42.54 69.1572 42.612 69.3972 42.66C69.6452 42.708 69.8852 42.732 70.1172 42.732C70.5412 42.732 70.8612 42.656 71.0772 42.504C71.2932 42.352 71.4012 42.148 71.4012 41.892C71.4012 41.684 71.3292 41.524 71.1852 41.412C71.0412 41.292 70.8252 41.2 70.5372 41.136L69.3972 40.908C68.9012 40.804 68.5252 40.62 68.2692 40.356C68.0132 40.092 67.8852 39.756 67.8852 39.348C67.8852 38.98 67.9852 38.66 68.1852 38.388C68.3852 38.116 68.6652 37.908 69.0252 37.764C69.3852 37.612 69.8012 37.536 70.2732 37.536C70.5452 37.536 70.8092 37.564 71.0652 37.62C71.3212 37.676 71.5612 37.756 71.7852 37.86C72.0172 37.964 72.2132 38.096 72.3732 38.256L72.0252 39.072C71.8732 38.936 71.6972 38.82 71.4972 38.724C71.3052 38.628 71.1052 38.556 70.8972 38.508C70.6892 38.452 70.4812 38.424 70.2732 38.424C69.8492 38.424 69.5292 38.504 69.3132 38.664C69.1052 38.816 69.0012 39.024 69.0012 39.288C69.0012 39.488 69.0652 39.652 69.1932 39.78C69.3212 39.908 69.5212 40 69.7932 40.056L70.9332 40.284C71.4532 40.388 71.8452 40.564 72.1092 40.812C72.3812 41.06 72.5172 41.396 72.5172 41.82C72.5172 42.188 72.4172 42.508 72.2172 42.78C72.0172 43.052 71.7332 43.26 71.3652 43.404C71.0052 43.54 70.5852 43.608 70.1052 43.608ZM29.7599 61.768C29.2319 61.768 28.7399 61.704 28.2839 61.576C27.8279 61.448 27.4239 61.256 27.0719 61L27.4439 60.136C27.6759 60.288 27.9119 60.416 28.1519 60.52C28.3999 60.632 28.6479 60.712 28.8959 60.76C29.1519 60.808 29.4119 60.832 29.6759 60.832C30.2359 60.832 30.6559 60.688 30.9359 60.4C31.2159 60.12 31.3559 59.704 31.3559 59.152V57.928H31.4639C31.3439 58.368 31.0919 58.716 30.7079 58.972C30.3239 59.228 29.8799 59.356 29.3759 59.356C28.8479 59.356 28.3879 59.236 27.9959 58.996C27.6039 58.748 27.2999 58.408 27.0839 57.976C26.8679 57.536 26.7599 57.024 26.7599 56.44C26.7599 55.856 26.8679 55.348 27.0839 54.916C27.2999 54.484 27.6039 54.148 27.9959 53.908C28.3879 53.66 28.8479 53.536 29.3759 53.536C29.8879 53.536 30.3319 53.664 30.7079 53.92C31.0919 54.176 31.3399 54.524 31.4519 54.964H31.3559V53.644H32.5319V59.008C32.5319 59.616 32.4279 60.124 32.2199 60.532C32.0119 60.948 31.6999 61.256 31.2839 61.456C30.8759 61.664 30.3679 61.768 29.7599 61.768ZM29.6639 58.408C30.1839 58.408 30.5919 58.232 30.8879 57.88C31.1919 57.528 31.3439 57.048 31.3439 56.44C31.3439 55.84 31.1919 55.364 30.8879 55.012C30.5919 54.66 30.1839 54.484 29.6639 54.484C29.1519 54.484 28.7439 54.66 28.4399 55.012C28.1359 55.364 27.9839 55.84 27.9839 56.44C27.9839 57.048 28.1359 57.528 28.4399 57.88C28.7439 58.232 29.1519 58.408 29.6639 58.408ZM34.1249 52.288V51.028H35.5409V52.288H34.1249ZM34.2329 59.5V53.644H35.4449V59.5H34.2329ZM37.1508 59.5V53.644H38.3268V55.048H38.2068C38.3348 54.568 38.5628 54.204 38.8908 53.956C39.2268 53.708 39.6708 53.564 40.2228 53.524L40.6188 53.5L40.7028 54.532L39.9708 54.604C39.4508 54.652 39.0548 54.816 38.7828 55.096C38.5108 55.376 38.3748 55.76 38.3748 56.248V59.5H37.1508ZM43.4408 59.608C43.0328 59.608 42.6648 59.528 42.3368 59.368C42.0168 59.208 41.7648 58.992 41.5808 58.72C41.3968 58.448 41.3048 58.14 41.3048 57.796C41.3048 57.364 41.4128 57.024 41.6288 56.776C41.8528 56.52 42.2168 56.34 42.7208 56.236C43.2328 56.124 43.9208 56.068 44.7848 56.068H45.3488V56.812H44.7968C44.3648 56.812 44.0008 56.828 43.7048 56.86C43.4088 56.892 43.1728 56.944 42.9968 57.016C42.8208 57.08 42.6928 57.172 42.6128 57.292C42.5408 57.412 42.5048 57.556 42.5048 57.724C42.5048 58.028 42.6088 58.276 42.8168 58.468C43.0248 58.652 43.3128 58.744 43.6808 58.744C43.9768 58.744 44.2368 58.676 44.4608 58.54C44.6848 58.396 44.8608 58.204 44.9888 57.964C45.1248 57.724 45.1928 57.448 45.1928 57.136V55.756C45.1928 55.3 45.0968 54.972 44.9048 54.772C44.7128 54.572 44.3968 54.472 43.9568 54.472C43.6208 54.472 43.2848 54.524 42.9488 54.628C42.6128 54.724 42.2688 54.88 41.9168 55.096L41.5448 54.244C41.7528 54.1 41.9928 53.976 42.2648 53.872C42.5368 53.768 42.8208 53.688 43.1168 53.632C43.4208 53.568 43.7128 53.536 43.9928 53.536C44.5288 53.536 44.9688 53.62 45.3128 53.788C45.6648 53.956 45.9248 54.212 46.0928 54.556C46.2608 54.9 46.3448 55.344 46.3448 55.888V59.5H45.2048V58.192H45.3128C45.2488 58.488 45.1288 58.744 44.9528 58.96C44.7848 59.168 44.5728 59.328 44.3168 59.44C44.0608 59.552 43.7688 59.608 43.4408 59.608ZM48.0381 59.5V53.644H49.2141V54.892H49.0821C49.1861 54.604 49.3301 54.36 49.5141 54.16C49.6981 53.96 49.9181 53.808 50.1741 53.704C50.4381 53.592 50.7261 53.536 51.0381 53.536C51.5261 53.536 51.9221 53.652 52.2261 53.884C52.5301 54.116 52.7381 54.472 52.8501 54.952H52.6821C52.8341 54.512 53.0941 54.168 53.4621 53.92C53.8301 53.664 54.2581 53.536 54.7461 53.536C55.1941 53.536 55.5621 53.624 55.8501 53.8C56.1381 53.968 56.3541 54.228 56.4981 54.58C56.6421 54.924 56.7141 55.36 56.7141 55.888V59.5H55.5021V55.948C55.5021 55.452 55.4141 55.088 55.2381 54.856C55.0701 54.624 54.7901 54.508 54.3981 54.508C54.1101 54.508 53.8581 54.576 53.6421 54.712C53.4261 54.848 53.2581 55.048 53.1381 55.312C53.0261 55.568 52.9701 55.872 52.9701 56.224V59.5H51.7581V55.948C51.7581 55.452 51.6741 55.088 51.5061 54.856C51.3381 54.624 51.0581 54.508 50.6661 54.508C50.3701 54.508 50.1141 54.576 49.8981 54.712C49.6901 54.848 49.5301 55.048 49.4181 55.312C49.3061 55.568 49.2501 55.872 49.2501 56.224V59.5H48.0381ZM60.9526 59.608C60.3606 59.608 59.8486 59.484 59.4166 59.236C58.9926 58.988 58.6606 58.636 58.4206 58.18C58.1806 57.724 58.0606 57.188 58.0606 56.572C58.0606 55.948 58.1806 55.412 58.4206 54.964C58.6606 54.508 58.9926 54.156 59.4166 53.908C59.8486 53.66 60.3606 53.536 60.9526 53.536C61.5366 53.536 62.0406 53.66 62.4646 53.908C62.8966 54.156 63.2326 54.508 63.4726 54.964C63.7126 55.42 63.8326 55.956 63.8326 56.572C63.8326 57.188 63.7126 57.724 63.4726 58.18C63.2326 58.636 62.8966 58.988 62.4646 59.236C62.0406 59.484 61.5366 59.608 60.9526 59.608ZM60.9406 58.672C61.4446 58.672 61.8486 58.492 62.1526 58.132C62.4566 57.772 62.6086 57.252 62.6086 56.572C62.6086 55.884 62.4566 55.364 62.1526 55.012C61.8486 54.66 61.4446 54.484 60.9406 54.484C60.4446 54.484 60.0446 54.66 59.7406 55.012C59.4366 55.364 59.2846 55.884 59.2846 56.572C59.2846 57.252 59.4366 57.772 59.7406 58.132C60.0446 58.492 60.4446 58.672 60.9406 58.672ZM67.2458 59.608C66.9338 59.608 66.6298 59.58 66.3338 59.524C66.0378 59.468 65.7658 59.388 65.5178 59.284C65.2698 59.18 65.0498 59.052 64.8578 58.9L65.2058 58.084C65.4058 58.22 65.6178 58.34 65.8418 58.444C66.0658 58.54 66.2978 58.612 66.5378 58.66C66.7858 58.708 67.0258 58.732 67.2578 58.732C67.6818 58.732 68.0018 58.656 68.2178 58.504C68.4338 58.352 68.5418 58.148 68.5418 57.892C68.5418 57.684 68.4698 57.524 68.3258 57.412C68.1818 57.292 67.9658 57.2 67.6778 57.136L66.5378 56.908C66.0418 56.804 65.6658 56.62 65.4098 56.356C65.1538 56.092 65.0258 55.756 65.0258 55.348C65.0258 54.98 65.1258 54.66 65.3258 54.388C65.5258 54.116 65.8058 53.908 66.1658 53.764C66.5258 53.612 66.9418 53.536 67.4138 53.536C67.6858 53.536 67.9498 53.564 68.2058 53.62C68.4618 53.676 68.7018 53.756 68.9258 53.86C69.1578 53.964 69.3538 54.096 69.5138 54.256L69.1658 55.072C69.0138 54.936 68.8378 54.82 68.6378 54.724C68.4458 54.628 68.2458 54.556 68.0378 54.508C67.8298 54.452 67.6218 54.424 67.4138 54.424C66.9898 54.424 66.6698 54.504 66.4538 54.664C66.2458 54.816 66.1418 55.024 66.1418 55.288C66.1418 55.488 66.2058 55.652 66.3338 55.78C66.4618 55.908 66.6618 56 66.9338 56.056L68.0738 56.284C68.5938 56.388 68.9858 56.564 69.2498 56.812C69.5218 57.06 69.6578 57.396 69.6578 57.82C69.6578 58.188 69.5578 58.508 69.3578 58.78C69.1578 59.052 68.8738 59.26 68.5058 59.404C68.1458 59.54 67.7258 59.608 67.2458 59.608Z" fill="black"/>
<path d="M26.2333 74.61C25.456 74.61 24.7886 74.4487 24.2313 74.126C23.674 73.796 23.245 73.334 22.9443 72.74C22.6436 72.146 22.4933 71.4383 22.4933 70.617C22.4933 69.7957 22.6436 69.0917 22.9443 68.505C23.245 67.911 23.674 67.4527 24.2313 67.13C24.7886 66.8073 25.456 66.646 26.2333 66.646C26.7613 66.646 27.2526 66.7267 27.7073 66.888C28.1693 67.0493 28.5543 67.2877 28.8623 67.603L28.4553 68.516C28.118 68.2227 27.7733 68.01 27.4213 67.878C27.0693 67.746 26.6843 67.68 26.2663 67.68C25.445 67.68 24.8143 67.933 24.3743 68.439C23.9343 68.945 23.7143 69.671 23.7143 70.617C23.7143 71.563 23.9343 72.2927 24.3743 72.806C24.8143 73.312 25.445 73.565 26.2663 73.565C26.6843 73.565 27.0693 73.499 27.4213 73.367C27.7733 73.235 28.118 73.0223 28.4553 72.729L28.8623 73.642C28.5543 73.95 28.1693 74.1883 27.7073 74.357C27.2526 74.5257 26.7613 74.61 26.2333 74.61ZM31.7332 74.599C31.3519 74.599 31.0109 74.5257 30.7102 74.379C30.4096 74.2323 30.1712 74.0343 29.9952 73.785C29.8266 73.5283 29.7422 73.246 29.7422 72.938C29.7422 72.5347 29.8449 72.2193 30.0502 71.992C30.2629 71.7573 30.6039 71.5887 31.0732 71.486C31.5499 71.3833 32.1806 71.332 32.9652 71.332H33.5482V72.036H32.9872C32.5912 72.036 32.2576 72.0507 31.9862 72.08C31.7149 72.102 31.4949 72.146 31.3262 72.212C31.1649 72.2707 31.0476 72.355 30.9742 72.465C30.9009 72.575 30.8642 72.7107 30.8642 72.872C30.8642 73.1433 30.9596 73.3633 31.1502 73.532C31.3482 73.7007 31.6159 73.785 31.9532 73.785C32.2319 73.785 32.4776 73.719 32.6902 73.587C32.9029 73.455 33.0716 73.279 33.1962 73.059C33.3209 72.839 33.3832 72.586 33.3832 72.3V71.046C33.3832 70.6353 33.2879 70.342 33.0972 70.166C32.9139 69.9827 32.6132 69.891 32.1952 69.891C31.8872 69.891 31.5756 69.9387 31.2602 70.034C30.9522 70.122 30.6369 70.265 30.3142 70.463L29.9622 69.66C30.1676 69.528 30.3949 69.4143 30.6442 69.319C30.9009 69.2163 31.1686 69.1393 31.4472 69.088C31.7259 69.0367 31.9972 69.011 32.2612 69.011C32.7526 69.011 33.1596 69.088 33.4822 69.242C33.8122 69.396 34.0616 69.6307 34.2302 69.946C34.3989 70.2613 34.4832 70.6683 34.4832 71.167V74.5H33.4382V73.312H33.5042C33.4382 73.5687 33.3209 73.796 33.1522 73.994C32.9909 74.1847 32.7892 74.335 32.5472 74.445C32.3126 74.5477 32.0412 74.599 31.7332 74.599ZM36.0748 76.48V69.11H37.1638V70.309H37.0868C37.2115 69.9057 37.4461 69.5903 37.7908 69.363C38.1355 69.1283 38.5425 69.011 39.0118 69.011C39.4958 69.011 39.9175 69.1247 40.2768 69.352C40.6361 69.5793 40.9148 69.902 41.1128 70.32C41.3108 70.738 41.4098 71.233 41.4098 71.805C41.4098 72.3697 41.3108 72.8647 41.1128 73.29C40.9148 73.708 40.6361 74.0307 40.2768 74.258C39.9248 74.4853 39.5031 74.599 39.0118 74.599C38.5498 74.599 38.1501 74.4853 37.8128 74.258C37.4755 74.0233 37.2408 73.719 37.1088 73.345H37.2078V76.48H36.0748ZM38.7258 73.719C39.1951 73.719 39.5691 73.554 39.8478 73.224C40.1265 72.8867 40.2658 72.4137 40.2658 71.805C40.2658 71.1817 40.1265 70.7087 39.8478 70.386C39.5691 70.0633 39.1951 69.902 38.7258 69.902C38.2565 69.902 37.8825 70.0633 37.6038 70.386C37.3325 70.7087 37.1968 71.1817 37.1968 71.805C37.1968 72.4137 37.3361 72.8867 37.6148 73.224C37.8935 73.554 38.2638 73.719 38.7258 73.719ZM42.7135 74.5V69.11H43.8465V74.5H42.7135ZM42.8565 68.406L44.0005 66.184H45.1775L43.6705 68.406H42.8565ZM47.8062 74.599C47.1242 74.599 46.6145 74.4267 46.2772 74.082C45.9399 73.73 45.7712 73.224 45.7712 72.564V69.99H44.7262V69.11H45.7932V67.504H46.9042V69.11H48.6312V69.99H46.9152V72.487C46.9152 72.8683 46.9959 73.158 47.1572 73.356C47.3259 73.554 47.5972 73.653 47.9712 73.653C48.0959 73.653 48.2169 73.6383 48.3342 73.609C48.4515 73.5797 48.5689 73.5467 48.6862 73.51L48.8622 74.368C48.7375 74.4413 48.5762 74.4963 48.3782 74.533C48.1802 74.577 47.9895 74.599 47.8062 74.599ZM51.6324 74.599C51.1924 74.599 50.8221 74.5183 50.5214 74.357C50.2281 74.1957 50.0081 73.9537 49.8614 73.631C49.7221 73.3083 49.6524 72.905 49.6524 72.421V69.11H50.7854V72.41C50.7854 72.6887 50.8221 72.9233 50.8954 73.114C50.9761 73.3047 51.0971 73.4477 51.2584 73.543C51.4271 73.6383 51.6397 73.686 51.8964 73.686C52.1824 73.686 52.4317 73.6237 52.6444 73.499C52.8571 73.367 53.0221 73.1837 53.1394 72.949C53.2641 72.7143 53.3264 72.4467 53.3264 72.146V69.11H54.4704V74.5H53.3704V73.323H53.4914C53.3301 73.7337 53.0881 74.049 52.7654 74.269C52.4427 74.489 52.0651 74.599 51.6324 74.599ZM57.8472 74.599C57.2679 74.599 56.8316 74.434 56.5382 74.104C56.2449 73.774 56.0982 73.2973 56.0982 72.674V66.745H57.2312V72.597C57.2312 72.8317 57.2642 73.0297 57.3302 73.191C57.3962 73.345 57.4916 73.4623 57.6162 73.543C57.7482 73.6237 57.9096 73.664 58.1002 73.664C58.1882 73.664 58.2762 73.6603 58.3642 73.653C58.4522 73.6457 58.5366 73.6273 58.6172 73.598L58.6062 74.5C58.4816 74.5367 58.3569 74.5623 58.2322 74.577C58.1149 74.5917 57.9866 74.599 57.8472 74.599ZM61.8578 74.599C61.3151 74.599 60.8421 74.4853 60.4388 74.258C60.0428 74.0307 59.7348 73.708 59.5148 73.29C59.2948 72.8647 59.1848 72.3697 59.1848 71.805C59.1848 71.233 59.2948 70.738 59.5148 70.32C59.7348 69.902 60.0428 69.5793 60.4388 69.352C60.8421 69.1247 61.3151 69.011 61.8578 69.011C62.4004 69.011 62.8698 69.1247 63.2658 69.352C63.6691 69.5793 63.9808 69.902 64.2008 70.32C64.4208 70.738 64.5308 71.233 64.5308 71.805C64.5308 72.3697 64.4208 72.8647 64.2008 73.29C63.9808 73.708 63.6691 74.0307 63.2658 74.258C62.8698 74.4853 62.4004 74.599 61.8578 74.599ZM61.8578 73.708C62.3271 73.708 62.7011 73.543 62.9798 73.213C63.2584 72.883 63.3978 72.41 63.3978 71.794C63.3978 71.1853 63.2584 70.7197 62.9798 70.397C62.7011 70.0743 62.3271 69.913 61.8578 69.913C61.3884 69.913 61.0144 70.0743 60.7358 70.397C60.4571 70.7197 60.3178 71.1853 60.3178 71.794C60.3178 72.41 60.4571 72.883 60.7358 73.213C61.0144 73.543 61.3884 73.708 61.8578 73.708ZM72.0182 74.5V72.938H68.5092V72.08L72.1502 66.745H73.1512V71.97H74.2622V72.938H73.1512V74.5H72.0182ZM72.0292 71.97V68.131H72.2602L69.4552 72.256L69.4332 71.97H72.0292Z" fill="#667085"/>
<defs>
<filter id="filter0_d_8310_972" x="0" y="1.5" width="96" height="85.8462" filterUnits="userSpaceOnUse" color-interpolation-filters="sRGB">
<feFlood flood-opacity="0" result="BackgroundImageFix"/>
<feColorMatrix in="SourceAlpha" type="matrix" values="0 0 0 0 0 0 0 0 0 0 0 0 0 0 0 0 0 0 127 0" result="hardAlpha"/>
<feOffset dy="4"/>
<feGaussianBlur stdDeviation="2"/>
<feComposite in2="hardAlpha" operator="out"/>
<feColorMatrix type="matrix" values="0 0 0 0 0 0 0 0 0 0 0 0 0 0 0 0 0 0 0.25 0"/>
<feBlend mode="normal" in2="BackgroundImageFix" result="effect1_dropShadow_8310_972"/>
<feBlend mode="normal" in="SourceGraphic" in2="effect1_dropShadow_8310_972" result="shape"/>
</filter>
</defs>
</svg>
