<svg width="96" height="87" viewBox="0 0 96 87" fill="none" xmlns="http://www.w3.org/2000/svg">
<g filter="url(#filter0_d_8339_572)">
<path d="M5.37285 43.1921C4.62083 41.8824 4.24484 41.2272 4.09767 40.531C3.96744 39.9148 3.96744 39.2784 4.09767 38.6622C4.24484 37.966 4.62083 37.3107 5.37285 36.001L23.5901 4.26913C24.3421 2.95928 24.7181 2.30435 25.2442 1.82802C25.7096 1.40658 26.2579 1.0882 26.8535 0.893586C27.5267 0.673584 28.2787 0.673584 29.7827 0.673584H66.2171C67.7214 0.673584 68.4731 0.673584 69.1466 0.893586C69.7419 1.0882 70.2903 1.40658 70.756 1.82802C71.282 2.30435 71.6578 2.95928 72.41 4.26913L90.6271 36.001C91.3792 37.3107 91.7551 37.966 91.9021 38.6622C92.0326 39.2784 92.0326 39.9148 91.9021 40.531C91.7551 41.2272 91.3792 41.8824 90.6271 43.1921L72.41 74.9242C71.6578 76.2339 71.282 76.8887 70.756 77.3651C70.2903 77.7867 69.7419 78.1049 69.1466 78.2995C68.4731 78.5197 67.7214 78.5197 66.2171 78.5197H29.7827C28.2787 78.5197 27.5267 78.5197 26.8535 78.2995C26.2579 78.1049 25.7096 77.7867 25.2442 77.3651C24.7181 76.8887 24.3421 76.2339 23.5901 74.9242L5.37285 43.1921Z" fill="white"/>
</g>
<g clip-path="url(#clip0_8339_572)">
<path d="M55.4134 21.908C54.6686 18.5478 53.9238 15.1877 53.1786 11.8276C51.921 11.8276 50.6635 11.8276 49.4061 11.8276C49.5858 15.1878 49.7658 18.5479 49.9456 21.908H55.4134Z" fill="#F2BB41"/>
<path d="M50.2325 27.272C50.4691 31.6879 50.7054 36.1037 50.9416 40.5196C53.8072 40.5196 56.6728 40.5196 59.5384 40.5196C58.5594 36.1037 57.5809 31.6879 56.6024 27.272H50.2325Z" fill="#F2BB41"/>
<path d="M47.0039 11.8276C45.7464 11.8276 44.4888 11.8276 43.2315 11.8276C42.4866 15.1877 41.7422 18.5478 40.9974 21.908H46.4649C46.6444 18.5478 46.824 15.1877 47.0039 11.8276Z" fill="#F2BB41"/>
<path d="M36.8717 40.5196C39.7375 40.5196 42.6029 40.5196 45.4685 40.5196C45.7056 36.1037 45.9419 31.6879 46.1778 27.272H39.8087C38.83 31.6879 37.8512 36.1038 36.8717 40.5196Z" fill="#F2BB41"/>
<path d="M62.8569 23.3008H33.5532C33.3609 23.3008 33.2051 23.4566 33.2051 23.6489V25.531C33.2051 25.7233 33.3609 25.8792 33.5532 25.8792H35.4374V28.6983C35.4374 28.8906 35.5932 29.0465 35.7855 29.0465H37.6658C37.8251 29.0465 37.964 28.9383 38.0031 28.7841L38.7417 25.8793H57.6684L58.4068 28.7841C58.4459 28.9385 58.585 29.0465 58.7443 29.0465H60.6243C60.8168 29.0465 60.9725 28.8906 60.9725 28.6983V25.8792H62.8568C63.0491 25.8792 63.205 25.7233 63.205 25.531V23.6489C63.2051 23.4566 63.0491 23.3008 62.8569 23.3008Z" fill="#F2BB41"/>
</g>
<path d="M21.6535 50.1736L25.4215 41.7136H26.4535L30.2335 50.1736H28.9615L27.9295 47.7736L28.4935 48.1096H23.3815L23.9335 47.7736L22.9135 50.1736H21.6535ZM25.9255 43.0936L24.1135 47.3896L23.8135 47.1016H28.0495L27.7735 47.3896L25.9495 43.0936H25.9255ZM33.2974 50.2816C32.8254 50.2816 32.4294 50.1936 32.1094 50.0176C31.7974 49.8416 31.5614 49.5816 31.4014 49.2376C31.2494 48.8856 31.1734 48.4456 31.1734 47.9176V44.3176H32.3854V47.9296C32.3854 48.2416 32.4254 48.5016 32.5054 48.7096C32.5934 48.9176 32.7254 49.0696 32.9014 49.1656C33.0854 49.2616 33.3134 49.3096 33.5854 49.3096C33.8894 49.3096 34.1574 49.2416 34.3894 49.1056C34.6214 48.9696 34.8014 48.7736 34.9294 48.5176C35.0574 48.2616 35.1214 47.9656 35.1214 47.6296V44.3176H36.3334V50.1736H35.1574V48.8896H35.3134C35.1534 49.3376 34.8974 49.6816 34.5454 49.9216C34.1934 50.1616 33.7774 50.2816 33.2974 50.2816ZM40.5375 50.2816C39.8095 50.2816 39.2615 50.0936 38.8935 49.7176C38.5335 49.3416 38.3535 48.7976 38.3535 48.0856V45.2536H37.2135V44.3176H38.3535V42.5536H39.5655V44.3176H41.3775V45.2536H39.5655V47.9896C39.5655 48.4136 39.6535 48.7336 39.8295 48.9496C40.0135 49.1656 40.3095 49.2736 40.7175 49.2736C40.8375 49.2736 40.9575 49.2576 41.0775 49.2256C41.2055 49.1936 41.3295 49.1616 41.4495 49.1296L41.6415 50.0416C41.5215 50.1136 41.3535 50.1696 41.1375 50.2096C40.9295 50.2576 40.7295 50.2816 40.5375 50.2816ZM44.9097 50.2816C44.3177 50.2816 43.8057 50.1576 43.3737 49.9096C42.9497 49.6616 42.6177 49.3096 42.3777 48.8536C42.1377 48.3976 42.0177 47.8616 42.0177 47.2456C42.0177 46.6216 42.1377 46.0856 42.3777 45.6376C42.6177 45.1816 42.9497 44.8296 43.3737 44.5816C43.8057 44.3336 44.3177 44.2096 44.9097 44.2096C45.4937 44.2096 45.9977 44.3336 46.4217 44.5816C46.8537 44.8296 47.1897 45.1816 47.4297 45.6376C47.6697 46.0936 47.7897 46.6296 47.7897 47.2456C47.7897 47.8616 47.6697 48.3976 47.4297 48.8536C47.1897 49.3096 46.8537 49.6616 46.4217 49.9096C45.9977 50.1576 45.4937 50.2816 44.9097 50.2816ZM44.8977 49.3456C45.4017 49.3456 45.8057 49.1656 46.1097 48.8056C46.4137 48.4456 46.5657 47.9256 46.5657 47.2456C46.5657 46.5576 46.4137 46.0376 46.1097 45.6856C45.8057 45.3336 45.4017 45.1576 44.8977 45.1576C44.4017 45.1576 44.0017 45.3336 43.6977 45.6856C43.3937 46.0376 43.2417 46.5576 43.2417 47.2456C43.2417 47.9256 43.3937 48.4456 43.6977 48.8056C44.0017 49.1656 44.4017 49.3456 44.8977 49.3456ZM49.1508 52.3336V44.3176H50.3388V45.6376H50.2068C50.3348 45.2056 50.5868 44.8616 50.9628 44.6056C51.3388 44.3416 51.7828 44.2096 52.2948 44.2096C52.8148 44.2096 53.2668 44.3336 53.6508 44.5816C54.0428 44.8296 54.3428 45.1776 54.5508 45.6256C54.7668 46.0736 54.8748 46.6136 54.8748 47.2456C54.8748 47.8616 54.7668 48.4016 54.5508 48.8656C54.3428 49.3216 54.0468 49.6736 53.6628 49.9216C53.2788 50.1616 52.8228 50.2816 52.2948 50.2816C51.7908 50.2816 51.3508 50.1536 50.9748 49.8976C50.5988 49.6416 50.3468 49.3016 50.2188 48.8776H50.3628V52.3336H49.1508ZM51.9948 49.3456C52.4988 49.3456 52.8988 49.1656 53.1948 48.8056C53.4988 48.4456 53.6508 47.9256 53.6508 47.2456C53.6508 46.5576 53.4988 46.0376 53.1948 45.6856C52.8988 45.3336 52.4988 45.1576 51.9948 45.1576C51.4988 45.1576 51.0988 45.3336 50.7948 45.6856C50.4908 46.0376 50.3388 46.5576 50.3388 47.2456C50.3388 47.9256 50.4908 48.4456 50.7948 48.8056C51.0988 49.1656 51.4988 49.3456 51.9948 49.3456ZM56.1327 42.9616V41.7016H57.5487V42.9616H56.1327ZM56.2407 50.1736V44.3176H57.4527V50.1736H56.2407ZM61.2106 50.2816C60.8986 50.2816 60.5946 50.2536 60.2986 50.1976C60.0026 50.1416 59.7306 50.0616 59.4826 49.9576C59.2346 49.8536 59.0146 49.7256 58.8226 49.5736L59.1706 48.7576C59.3706 48.8936 59.5826 49.0136 59.8066 49.1176C60.0306 49.2136 60.2626 49.2856 60.5026 49.3336C60.7506 49.3816 60.9906 49.4056 61.2226 49.4056C61.6466 49.4056 61.9666 49.3296 62.1826 49.1776C62.3986 49.0256 62.5066 48.8216 62.5066 48.5656C62.5066 48.3576 62.4346 48.1976 62.2906 48.0856C62.1466 47.9656 61.9306 47.8736 61.6426 47.8096L60.5026 47.5816C60.0066 47.4776 59.6306 47.2936 59.3746 47.0296C59.1186 46.7656 58.9906 46.4296 58.9906 46.0216C58.9906 45.6536 59.0906 45.3336 59.2906 45.0616C59.4906 44.7896 59.7706 44.5816 60.1306 44.4376C60.4906 44.2856 60.9066 44.2096 61.3786 44.2096C61.6506 44.2096 61.9146 44.2376 62.1706 44.2936C62.4266 44.3496 62.6666 44.4296 62.8906 44.5336C63.1226 44.6376 63.3186 44.7696 63.4786 44.9296L63.1306 45.7456C62.9786 45.6096 62.8026 45.4936 62.6026 45.3976C62.4106 45.3016 62.2106 45.2296 62.0026 45.1816C61.7946 45.1256 61.5866 45.0976 61.3786 45.0976C60.9546 45.0976 60.6346 45.1776 60.4186 45.3376C60.2106 45.4896 60.1066 45.6976 60.1066 45.9616C60.1066 46.1616 60.1706 46.3256 60.2986 46.4536C60.4266 46.5816 60.6266 46.6736 60.8986 46.7296L62.0386 46.9576C62.5586 47.0616 62.9506 47.2376 63.2146 47.4856C63.4866 47.7336 63.6226 48.0696 63.6226 48.4936C63.6226 48.8616 63.5226 49.1816 63.3226 49.4536C63.1226 49.7256 62.8386 49.9336 62.4706 50.0776C62.1106 50.2136 61.6906 50.2816 61.2106 50.2816ZM67.4085 50.2816C66.6805 50.2816 66.1325 50.0936 65.7645 49.7176C65.4045 49.3416 65.2245 48.7976 65.2245 48.0856V45.2536H64.0845V44.3176H65.2245V42.5536H66.4365V44.3176H68.2485V45.2536H66.4365V47.9896C66.4365 48.4136 66.5245 48.7336 66.7005 48.9496C66.8845 49.1656 67.1805 49.2736 67.5885 49.2736C67.7085 49.2736 67.8285 49.2576 67.9485 49.2256C68.0765 49.1936 68.2005 49.1616 68.3205 49.1296L68.5125 50.0416C68.3925 50.1136 68.2245 50.1696 68.0085 50.2096C67.8005 50.2576 67.6005 50.2816 67.4085 50.2816ZM71.1674 50.2816C70.7594 50.2816 70.3914 50.2016 70.0634 50.0416C69.7434 49.8816 69.4914 49.6656 69.3074 49.3936C69.1234 49.1216 69.0314 48.8136 69.0314 48.4696C69.0314 48.0376 69.1394 47.6976 69.3554 47.4496C69.5794 47.1936 69.9434 47.0136 70.4474 46.9096C70.9594 46.7976 71.6474 46.7416 72.5114 46.7416H73.0754V47.4856H72.5234C72.0914 47.4856 71.7274 47.5016 71.4314 47.5336C71.1354 47.5656 70.8994 47.6176 70.7234 47.6896C70.5474 47.7536 70.4194 47.8456 70.3394 47.9656C70.2674 48.0856 70.2314 48.2296 70.2314 48.3976C70.2314 48.7016 70.3354 48.9496 70.5434 49.1416C70.7514 49.3256 71.0394 49.4176 71.4074 49.4176C71.7034 49.4176 71.9634 49.3496 72.1874 49.2136C72.4114 49.0696 72.5874 48.8776 72.7154 48.6376C72.8514 48.3976 72.9194 48.1216 72.9194 47.8096V46.4296C72.9194 45.9736 72.8234 45.6456 72.6314 45.4456C72.4394 45.2456 72.1234 45.1456 71.6834 45.1456C71.3474 45.1456 71.0114 45.1976 70.6754 45.3016C70.3394 45.3976 69.9954 45.5536 69.6434 45.7696L69.2714 44.9176C69.4794 44.7736 69.7194 44.6496 69.9914 44.5456C70.2634 44.4416 70.5474 44.3616 70.8434 44.3056C71.1474 44.2416 71.4394 44.2096 71.7194 44.2096C72.2554 44.2096 72.6954 44.2936 73.0394 44.4616C73.3914 44.6296 73.6514 44.8856 73.8194 45.2296C73.9874 45.5736 74.0714 46.0176 74.0714 46.5616V50.1736H72.9314V48.8656H73.0394C72.9754 49.1616 72.8554 49.4176 72.6794 49.6336C72.5114 49.8416 72.2994 50.0016 72.0434 50.1136C71.7874 50.2256 71.4954 50.2816 71.1674 50.2816Z" fill="black"/>
<path d="M26.2333 66.2836C25.456 66.2836 24.7886 66.1223 24.2313 65.7996C23.674 65.4696 23.245 65.0076 22.9443 64.4136C22.6436 63.8196 22.4933 63.1119 22.4933 62.2906C22.4933 61.4693 22.6436 60.7653 22.9443 60.1786C23.245 59.5846 23.674 59.1263 24.2313 58.8036C24.7886 58.4809 25.456 58.3196 26.2333 58.3196C26.7613 58.3196 27.2526 58.4003 27.7073 58.5616C28.1693 58.7229 28.5543 58.9613 28.8623 59.2766L28.4553 60.1896C28.118 59.8963 27.7733 59.6836 27.4213 59.5516C27.0693 59.4196 26.6843 59.3536 26.2663 59.3536C25.445 59.3536 24.8143 59.6066 24.3743 60.1126C23.9343 60.6186 23.7143 61.3446 23.7143 62.2906C23.7143 63.2366 23.9343 63.9663 24.3743 64.4796C24.8143 64.9856 25.445 65.2386 26.2663 65.2386C26.6843 65.2386 27.0693 65.1726 27.4213 65.0406C27.7733 64.9086 28.118 64.6959 28.4553 64.4026L28.8623 65.3156C28.5543 65.6236 28.1693 65.8619 27.7073 66.0306C27.2526 66.1993 26.7613 66.2836 26.2333 66.2836ZM31.7332 66.2726C31.3519 66.2726 31.0109 66.1993 30.7102 66.0526C30.4096 65.9059 30.1712 65.7079 29.9952 65.4586C29.8266 65.2019 29.7422 64.9196 29.7422 64.6116C29.7422 64.2083 29.8449 63.8929 30.0502 63.6656C30.2629 63.4309 30.6039 63.2623 31.0732 63.1596C31.5499 63.0569 32.1806 63.0056 32.9652 63.0056H33.5482V63.7096H32.9872C32.5912 63.7096 32.2576 63.7243 31.9862 63.7536C31.7149 63.7756 31.4949 63.8196 31.3262 63.8856C31.1649 63.9443 31.0476 64.0286 30.9742 64.1386C30.9009 64.2486 30.8642 64.3843 30.8642 64.5456C30.8642 64.8169 30.9596 65.0369 31.1502 65.2056C31.3482 65.3743 31.6159 65.4586 31.9532 65.4586C32.2319 65.4586 32.4776 65.3926 32.6902 65.2606C32.9029 65.1286 33.0716 64.9526 33.1962 64.7326C33.3209 64.5126 33.3832 64.2596 33.3832 63.9736V62.7196C33.3832 62.3089 33.2879 62.0156 33.0972 61.8396C32.9139 61.6563 32.6132 61.5646 32.1952 61.5646C31.8872 61.5646 31.5756 61.6123 31.2602 61.7076C30.9522 61.7956 30.6369 61.9386 30.3142 62.1366L29.9622 61.3336C30.1676 61.2016 30.3949 61.0879 30.6442 60.9926C30.9009 60.8899 31.1686 60.8129 31.4472 60.7616C31.7259 60.7103 31.9972 60.6846 32.2612 60.6846C32.7526 60.6846 33.1596 60.7616 33.4822 60.9156C33.8122 61.0696 34.0616 61.3043 34.2302 61.6196C34.3989 61.9349 34.4832 62.3419 34.4832 62.8406V66.1736H33.4382V64.9856H33.5042C33.4382 65.2423 33.3209 65.4696 33.1522 65.6676C32.9909 65.8583 32.7892 66.0086 32.5472 66.1186C32.3126 66.2213 32.0412 66.2726 31.7332 66.2726ZM36.0748 68.1536V60.7836H37.1638V61.9826H37.0868C37.2115 61.5793 37.4461 61.2639 37.7908 61.0366C38.1355 60.8019 38.5425 60.6846 39.0118 60.6846C39.4958 60.6846 39.9175 60.7983 40.2768 61.0256C40.6361 61.2529 40.9148 61.5756 41.1128 61.9936C41.3108 62.4116 41.4098 62.9066 41.4098 63.4786C41.4098 64.0433 41.3108 64.5383 41.1128 64.9636C40.9148 65.3816 40.6361 65.7043 40.2768 65.9316C39.9248 66.1589 39.5031 66.2726 39.0118 66.2726C38.5498 66.2726 38.1501 66.1589 37.8128 65.9316C37.4755 65.6969 37.2408 65.3926 37.1088 65.0186H37.2078V68.1536H36.0748ZM38.7258 65.3926C39.1951 65.3926 39.5691 65.2276 39.8478 64.8976C40.1265 64.5603 40.2658 64.0873 40.2658 63.4786C40.2658 62.8553 40.1265 62.3823 39.8478 62.0596C39.5691 61.7369 39.1951 61.5756 38.7258 61.5756C38.2565 61.5756 37.8825 61.7369 37.6038 62.0596C37.3325 62.3823 37.1968 62.8553 37.1968 63.4786C37.1968 64.0873 37.3361 64.5603 37.6148 64.8976C37.8935 65.2276 38.2638 65.3926 38.7258 65.3926ZM42.7135 66.1736V60.7836H43.8465V66.1736H42.7135ZM42.8565 60.0796L44.0005 57.8576H45.1775L43.6705 60.0796H42.8565ZM47.8062 66.2726C47.1242 66.2726 46.6145 66.1003 46.2772 65.7556C45.9399 65.4036 45.7712 64.8976 45.7712 64.2376V61.6636H44.7262V60.7836H45.7932V59.1776H46.9042V60.7836H48.6312V61.6636H46.9152V64.1606C46.9152 64.5419 46.9959 64.8316 47.1572 65.0296C47.3259 65.2276 47.5972 65.3266 47.9712 65.3266C48.0959 65.3266 48.2169 65.3119 48.3342 65.2826C48.4515 65.2533 48.5689 65.2203 48.6862 65.1836L48.8622 66.0416C48.7375 66.1149 48.5762 66.1699 48.3782 66.2066C48.1802 66.2506 47.9895 66.2726 47.8062 66.2726ZM51.6324 66.2726C51.1924 66.2726 50.8221 66.1919 50.5214 66.0306C50.2281 65.8693 50.0081 65.6273 49.8614 65.3046C49.7221 64.9819 49.6524 64.5786 49.6524 64.0946V60.7836H50.7854V64.0836C50.7854 64.3623 50.8221 64.5969 50.8954 64.7876C50.9761 64.9783 51.0971 65.1213 51.2584 65.2166C51.4271 65.3119 51.6397 65.3596 51.8964 65.3596C52.1824 65.3596 52.4317 65.2973 52.6444 65.1726C52.8571 65.0406 53.0221 64.8573 53.1394 64.6226C53.2641 64.3879 53.3264 64.1203 53.3264 63.8196V60.7836H54.4704V66.1736H53.3704V64.9966H53.4914C53.3301 65.4073 53.0881 65.7226 52.7654 65.9426C52.4427 66.1626 52.0651 66.2726 51.6324 66.2726ZM57.8472 66.2726C57.2679 66.2726 56.8316 66.1076 56.5382 65.7776C56.2449 65.4476 56.0982 64.9709 56.0982 64.3476V58.4186H57.2312V64.2706C57.2312 64.5053 57.2642 64.7033 57.3302 64.8646C57.3962 65.0186 57.4916 65.1359 57.6162 65.2166C57.7482 65.2973 57.9096 65.3376 58.1002 65.3376C58.1882 65.3376 58.2762 65.3339 58.3642 65.3266C58.4522 65.3193 58.5366 65.3009 58.6172 65.2716L58.6062 66.1736C58.4816 66.2103 58.3569 66.2359 58.2322 66.2506C58.1149 66.2653 57.9866 66.2726 57.8472 66.2726ZM61.8578 66.2726C61.3151 66.2726 60.8421 66.1589 60.4388 65.9316C60.0428 65.7043 59.7348 65.3816 59.5148 64.9636C59.2948 64.5383 59.1848 64.0433 59.1848 63.4786C59.1848 62.9066 59.2948 62.4116 59.5148 61.9936C59.7348 61.5756 60.0428 61.2529 60.4388 61.0256C60.8421 60.7983 61.3151 60.6846 61.8578 60.6846C62.4004 60.6846 62.8698 60.7983 63.2658 61.0256C63.6691 61.2529 63.9808 61.5756 64.2008 61.9936C64.4208 62.4116 64.5308 62.9066 64.5308 63.4786C64.5308 64.0433 64.4208 64.5383 64.2008 64.9636C63.9808 65.3816 63.6691 65.7043 63.2658 65.9316C62.8698 66.1589 62.4004 66.2726 61.8578 66.2726ZM61.8578 65.3816C62.3271 65.3816 62.7011 65.2166 62.9798 64.8866C63.2584 64.5566 63.3978 64.0836 63.3978 63.4676C63.3978 62.8589 63.2584 62.3933 62.9798 62.0706C62.7011 61.7479 62.3271 61.5866 61.8578 61.5866C61.3884 61.5866 61.0144 61.7479 60.7358 62.0706C60.4571 62.3933 60.3178 62.8589 60.3178 63.4676C60.3178 64.0836 60.4571 64.5566 60.7358 64.8866C61.0144 65.2166 61.3884 65.3816 61.8578 65.3816ZM71.2922 66.2726C70.4049 66.2726 69.7119 66.0819 69.2132 65.7006C68.7146 65.3193 68.4652 64.7876 68.4652 64.1056C68.4652 63.7463 68.5386 63.4273 68.6852 63.1486C68.8319 62.8699 69.0336 62.6426 69.2902 62.4666C69.5542 62.2906 69.8512 62.1806 70.1812 62.1366V62.2906C69.8806 62.2173 69.6129 62.0926 69.3782 61.9166C69.1509 61.7406 68.9749 61.5243 68.8502 61.2676C68.7256 61.0036 68.6632 60.7139 68.6632 60.3986C68.6632 59.7459 68.8979 59.2363 69.3672 58.8696C69.8439 58.5029 70.4856 58.3196 71.2922 58.3196C72.0989 58.3196 72.7406 58.5029 73.2172 58.8696C73.6939 59.2363 73.9322 59.7459 73.9322 60.3986C73.9322 60.7066 73.8662 60.9963 73.7342 61.2676C73.6096 61.5316 73.4336 61.7516 73.2062 61.9276C72.9789 62.0963 72.7149 62.2136 72.4142 62.2796V62.1366C72.7516 62.1806 73.0449 62.2943 73.2942 62.4776C73.5509 62.6536 73.7526 62.8809 73.8992 63.1596C74.0459 63.4309 74.1192 63.7463 74.1192 64.1056C74.1192 64.7876 73.8699 65.3193 73.3712 65.7006C72.8726 66.0819 72.1796 66.2726 71.2922 66.2726ZM71.2922 65.3486C71.8642 65.3486 72.2969 65.2386 72.5902 65.0186C72.8909 64.7913 73.0412 64.4613 73.0412 64.0286C73.0412 63.5886 72.8909 63.2586 72.5902 63.0386C72.2969 62.8186 71.8642 62.7086 71.2922 62.7086C70.7276 62.7086 70.2949 62.8186 69.9942 63.0386C69.6936 63.2586 69.5432 63.5886 69.5432 64.0286C69.5432 64.4613 69.6936 64.7913 69.9942 65.0186C70.2949 65.2386 70.7276 65.3486 71.2922 65.3486ZM71.2922 61.7846C71.7836 61.7846 72.1649 61.6709 72.4362 61.4436C72.7149 61.2163 72.8542 60.9009 72.8542 60.4976C72.8542 60.1089 72.7149 59.8046 72.4362 59.5846C72.1649 59.3573 71.7836 59.2436 71.2922 59.2436C70.8082 59.2436 70.4269 59.3573 70.1482 59.5846C69.8769 59.8046 69.7412 60.1126 69.7412 60.5086C69.7412 60.9046 69.8769 61.2163 70.1482 61.4436C70.4269 61.6709 70.8082 61.7846 71.2922 61.7846Z" fill="#667085"/>
<defs>
<filter id="filter0_d_8339_572" x="0" y="0.673584" width="96" height="85.8462" filterUnits="userSpaceOnUse" color-interpolation-filters="sRGB">
<feFlood flood-opacity="0" result="BackgroundImageFix"/>
<feColorMatrix in="SourceAlpha" type="matrix" values="0 0 0 0 0 0 0 0 0 0 0 0 0 0 0 0 0 0 127 0" result="hardAlpha"/>
<feOffset dy="4"/>
<feGaussianBlur stdDeviation="2"/>
<feComposite in2="hardAlpha" operator="out"/>
<feColorMatrix type="matrix" values="0 0 0 0 0 0 0 0 0 0 0 0 0 0 0 0 0 0 0.25 0"/>
<feBlend mode="normal" in2="BackgroundImageFix" result="effect1_dropShadow_8339_572"/>
<feBlend mode="normal" in="SourceGraphic" in2="effect1_dropShadow_8339_572" result="shape"/>
</filter>
<clipPath id="clip0_8339_572">
<rect width="30" height="30" fill="white" transform="translate(33.2051 7.17358)"/>
</clipPath>
</defs>
</svg>
