<svg width="102" height="92" viewBox="0 0 102 92" fill="none" xmlns="http://www.w3.org/2000/svg">
<g filter="url(#filter0_d_8310_900)">
<path d="M5.49766 45.8797C4.67727 44.4665 4.2671 43.7594 4.10655 43.0082C3.96448 42.3433 3.96448 41.6565 4.10655 40.9916C4.2671 40.2404 4.67727 39.5333 5.49766 38.1201L25.371 3.87978C26.1914 2.46638 26.6016 1.75968 27.1754 1.2457C27.6832 0.790942 28.2813 0.447387 28.9311 0.237394C29.6655 -2.168e-07 30.4859 0 32.1266 0H71.8732C73.5143 0 74.3343 -2.168e-07 75.069 0.237394C75.7185 0.447387 76.3167 0.790942 76.8247 1.2457C77.3985 1.75968 77.8085 2.46638 78.6291 3.87978L98.5023 38.1201C99.3228 39.5333 99.7328 40.2404 99.8932 40.9916C100.036 41.6565 100.036 42.3433 99.8932 43.0082C99.7328 43.7594 99.3228 44.4665 98.5023 45.8797L78.6291 80.1202C77.8085 81.5334 77.3985 82.24 76.8247 82.7541C76.3167 83.209 75.7185 83.5524 75.069 83.7624C74.3343 84 73.5143 84 71.8732 84H32.1266C30.4859 84 29.6655 84 28.9311 83.7624C28.2813 83.5524 27.6832 83.209 27.1754 82.7541C26.6016 82.24 26.1914 81.5334 25.371 80.1202L5.49766 45.8797Z" fill="white"/>
</g>
<g clip-path="url(#clip0_8310_900)">
<path d="M56.2525 27.7959L56.5876 27.1493C56.694 26.9416 56.7931 26.7375 56.8862 26.5293C57.0689 26.1147 57.2182 25.6937 57.3123 25.2777C57.5036 24.438 57.404 23.6678 56.8935 23.0975C56.3831 22.5157 55.5402 22.1253 54.669 21.8532C52.8142 21.3194 50.9176 20.7254 49.0825 20.0287C48.6218 19.8538 48.1634 19.6721 47.7067 19.4785C47.257 19.2895 46.7694 19.0685 46.3232 18.7694C45.8822 18.4712 45.4197 18.074 45.1809 17.4649C45.0626 17.1654 45.0315 16.8266 45.0713 16.5188C45.1115 16.2102 45.2119 15.9293 45.3366 15.6791C45.596 15.1663 45.9142 14.7965 46.2009 14.3997L47.0936 13.2354L48.8977 10.9313L51.9692 7.06715L49.6277 7C49.6277 7 44.2941 11.9048 41.9134 15.0001C39.8436 17.6904 40.9741 20.0675 44.7183 21.6664C47.8784 23.0166 50.8363 24.0617 50.8363 24.0617C51.3459 24.3256 51.7084 24.7882 51.8289 25.3279C51.9495 25.8681 51.8162 26.4302 51.4632 26.8689L43.3156 37H51.4445L54.9019 30.3866L56.2525 27.7959Z" fill="#F2BB41"/>
<path d="M64.0727 22.2944C62.938 20.3963 60.9957 19.0576 58.7455 18.6224L50.7737 16.9417C50.4413 16.8778 50.1619 16.6668 50.0208 16.3737C49.8797 16.081 49.8948 15.7417 50.0605 15.4609L55.3599 7.16403L52.7787 7.09009L49.5154 11.4068L47.7721 13.7482L46.9151 14.9249C46.6393 15.3208 46.3352 15.7121 46.1676 16.0783C45.9891 16.4568 45.9443 16.8175 46.0731 17.117C46.1973 17.4239 46.5009 17.7092 46.8671 17.9385C47.2379 18.1732 47.6457 18.3498 48.0977 18.527C48.5424 18.7028 48.9936 18.8695 49.4479 19.0293C51.2734 19.6708 53.1121 20.1986 55.0143 20.6968C55.9896 20.9872 57.022 21.3762 57.8443 22.2438C58.2452 22.678 58.5443 23.2483 58.6579 23.8386C58.7748 24.4295 58.7365 25.0112 58.6342 25.5491C58.5265 26.0865 58.358 26.5915 58.1603 27.0727C58.0603 27.312 57.9525 27.549 57.842 27.7773L57.5206 28.4361L56.2325 31.0611L53.3097 37.0001H61.5495L64.6662 28.5247C65.4238 26.4636 65.2073 24.1924 64.0727 22.2944Z" fill="#F2BB41"/>
</g>
<path d="M22.8063 53V44.54H25.7943C26.7223 44.54 27.5103 44.704 28.1583 45.032C28.8063 45.352 29.2983 45.828 29.6343 46.46C29.9783 47.084 30.1503 47.852 30.1503 48.764C30.1503 49.676 29.9783 50.448 29.6343 51.08C29.2983 51.704 28.8063 52.18 28.1583 52.508C27.5103 52.836 26.7223 53 25.7943 53H22.8063ZM24.0543 51.956H25.7223C26.7703 51.956 27.5543 51.692 28.0743 51.164C28.5943 50.628 28.8543 49.828 28.8543 48.764C28.8543 47.7 28.5903 46.904 28.0623 46.376C27.5423 45.848 26.7623 45.584 25.7223 45.584H24.0543V51.956ZM33.558 53.108C33.15 53.108 32.782 53.028 32.454 52.868C32.134 52.708 31.882 52.492 31.698 52.22C31.514 51.948 31.422 51.64 31.422 51.296C31.422 50.864 31.53 50.524 31.746 50.276C31.97 50.02 32.334 49.84 32.838 49.736C33.35 49.624 34.038 49.568 34.902 49.568H35.466V50.312H34.914C34.482 50.312 34.118 50.328 33.822 50.36C33.526 50.392 33.29 50.444 33.114 50.516C32.938 50.58 32.81 50.672 32.73 50.792C32.658 50.912 32.622 51.056 32.622 51.224C32.622 51.528 32.726 51.776 32.934 51.968C33.142 52.152 33.43 52.244 33.798 52.244C34.094 52.244 34.354 52.176 34.578 52.04C34.802 51.896 34.978 51.704 35.106 51.464C35.242 51.224 35.31 50.948 35.31 50.636V49.256C35.31 48.8 35.214 48.472 35.022 48.272C34.83 48.072 34.514 47.972 34.074 47.972C33.738 47.972 33.402 48.024 33.066 48.128C32.73 48.224 32.386 48.38 32.034 48.596L31.662 47.744C31.87 47.6 32.11 47.476 32.382 47.372C32.654 47.268 32.938 47.188 33.234 47.132C33.538 47.068 33.83 47.036 34.11 47.036C34.646 47.036 35.086 47.12 35.43 47.288C35.782 47.456 36.042 47.712 36.21 48.056C36.378 48.4 36.462 48.844 36.462 49.388V53H35.322V51.692H35.43C35.366 51.988 35.246 52.244 35.07 52.46C34.902 52.668 34.69 52.828 34.434 52.94C34.178 53.052 33.886 53.108 33.558 53.108ZM38.1313 53V47.144H39.3073V48.392H39.1753C39.3513 47.944 39.6273 47.608 40.0033 47.384C40.3793 47.152 40.8113 47.036 41.2993 47.036C41.7633 47.036 42.1473 47.124 42.4513 47.3C42.7633 47.468 42.9953 47.728 43.1473 48.08C43.2993 48.424 43.3753 48.86 43.3753 49.388V53H42.1633V49.46C42.1633 49.124 42.1193 48.852 42.0313 48.644C41.9433 48.428 41.8113 48.268 41.6353 48.164C41.4593 48.06 41.2313 48.008 40.9513 48.008C40.6313 48.008 40.3473 48.076 40.0993 48.212C39.8593 48.348 39.6713 48.544 39.5353 48.8C39.4073 49.056 39.3433 49.352 39.3433 49.688V53H38.1313ZM47.0974 53.108C46.7854 53.108 46.4814 53.08 46.1854 53.024C45.8894 52.968 45.6174 52.888 45.3694 52.784C45.1214 52.68 44.9014 52.552 44.7094 52.4L45.0574 51.584C45.2574 51.72 45.4694 51.84 45.6934 51.944C45.9174 52.04 46.1494 52.112 46.3894 52.16C46.6374 52.208 46.8774 52.232 47.1094 52.232C47.5334 52.232 47.8534 52.156 48.0694 52.004C48.2854 51.852 48.3934 51.648 48.3934 51.392C48.3934 51.184 48.3214 51.024 48.1774 50.912C48.0334 50.792 47.8174 50.7 47.5294 50.636L46.3894 50.408C45.8934 50.304 45.5174 50.12 45.2614 49.856C45.0054 49.592 44.8774 49.256 44.8774 48.848C44.8774 48.48 44.9774 48.16 45.1774 47.888C45.3774 47.616 45.6574 47.408 46.0174 47.264C46.3774 47.112 46.7934 47.036 47.2654 47.036C47.5374 47.036 47.8014 47.064 48.0574 47.12C48.3134 47.176 48.5534 47.256 48.7774 47.36C49.0094 47.464 49.2054 47.596 49.3654 47.756L49.0174 48.572C48.8654 48.436 48.6894 48.32 48.4894 48.224C48.2974 48.128 48.0974 48.056 47.8894 48.008C47.6814 47.952 47.4734 47.924 47.2654 47.924C46.8414 47.924 46.5214 48.004 46.3054 48.164C46.0974 48.316 45.9934 48.524 45.9934 48.788C45.9934 48.988 46.0574 49.152 46.1854 49.28C46.3134 49.408 46.5134 49.5 46.7854 49.556L47.9254 49.784C48.4454 49.888 48.8374 50.064 49.1014 50.312C49.3734 50.56 49.5094 50.896 49.5094 51.32C49.5094 51.688 49.4094 52.008 49.2094 52.28C49.0094 52.552 48.7254 52.76 48.3574 52.904C47.9974 53.04 47.5774 53.108 47.0974 53.108ZM55.9182 53.108C55.2782 53.108 54.7982 52.928 54.4782 52.568C54.1662 52.2 54.0102 51.672 54.0102 50.984V44.54H55.2222V50.912C55.2222 51.168 55.2582 51.388 55.3302 51.572C55.4022 51.748 55.5102 51.88 55.6542 51.968C55.7982 52.056 55.9782 52.1 56.1942 52.1C56.2902 52.1 56.3822 52.096 56.4702 52.088C56.5582 52.08 56.6422 52.064 56.7222 52.04L56.6982 53.012C56.5622 53.044 56.4302 53.068 56.3022 53.084C56.1742 53.1 56.0462 53.108 55.9182 53.108ZM59.5502 53.108C59.1422 53.108 58.7742 53.028 58.4462 52.868C58.1262 52.708 57.8742 52.492 57.6902 52.22C57.5062 51.948 57.4142 51.64 57.4142 51.296C57.4142 50.864 57.5222 50.524 57.7382 50.276C57.9622 50.02 58.3262 49.84 58.8302 49.736C59.3422 49.624 60.0302 49.568 60.8942 49.568H61.4582V50.312H60.9062C60.4742 50.312 60.1102 50.328 59.8142 50.36C59.5182 50.392 59.2822 50.444 59.1062 50.516C58.9302 50.58 58.8022 50.672 58.7222 50.792C58.6502 50.912 58.6142 51.056 58.6142 51.224C58.6142 51.528 58.7182 51.776 58.9262 51.968C59.1342 52.152 59.4222 52.244 59.7902 52.244C60.0862 52.244 60.3462 52.176 60.5702 52.04C60.7942 51.896 60.9702 51.704 61.0982 51.464C61.2342 51.224 61.3022 50.948 61.3022 50.636V49.256C61.3022 48.8 61.2062 48.472 61.0142 48.272C60.8222 48.072 60.5062 47.972 60.0662 47.972C59.7302 47.972 59.3942 48.024 59.0582 48.128C58.7222 48.224 58.3782 48.38 58.0262 48.596L57.6542 47.744C57.8622 47.6 58.1022 47.476 58.3742 47.372C58.6462 47.268 58.9302 47.188 59.2262 47.132C59.5302 47.068 59.8222 47.036 60.1022 47.036C60.6382 47.036 61.0782 47.12 61.4222 47.288C61.7742 47.456 62.0342 47.712 62.2022 48.056C62.3702 48.4 62.4542 48.844 62.4542 49.388V53H61.3142V51.692H61.4222C61.3582 51.988 61.2382 52.244 61.0622 52.46C60.8942 52.668 60.6822 52.828 60.4262 52.94C60.1702 53.052 59.8782 53.108 59.5502 53.108ZM67.2758 53V47.144H68.4518V48.548H68.3318C68.4598 48.068 68.6878 47.704 69.0158 47.456C69.3518 47.208 69.7958 47.064 70.3478 47.024L70.7438 47L70.8278 48.032L70.0958 48.104C69.5758 48.152 69.1798 48.316 68.9078 48.596C68.6358 48.876 68.4998 49.26 68.4998 49.748V53H67.2758ZM73.8404 53.108C73.3684 53.108 72.9724 53.02 72.6524 52.844C72.3404 52.668 72.1044 52.408 71.9444 52.064C71.7924 51.712 71.7164 51.272 71.7164 50.744V47.144H72.9284V50.756C72.9284 51.068 72.9684 51.328 73.0484 51.536C73.1364 51.744 73.2684 51.896 73.4444 51.992C73.6284 52.088 73.8564 52.136 74.1284 52.136C74.4324 52.136 74.7004 52.068 74.9324 51.932C75.1644 51.796 75.3444 51.6 75.4724 51.344C75.6004 51.088 75.6644 50.792 75.6644 50.456V47.144H76.8764V53H75.7004V51.716H75.8564C75.6964 52.164 75.4404 52.508 75.0884 52.748C74.7364 52.988 74.3204 53.108 73.8404 53.108ZM81.3324 53.108C80.6924 53.108 80.1404 52.988 79.6764 52.748C79.2204 52.5 78.8644 52.152 78.6084 51.704C78.3604 51.248 78.2364 50.708 78.2364 50.084C78.2364 49.476 78.3604 48.944 78.6084 48.488C78.8564 48.032 79.1964 47.676 79.6284 47.42C80.0604 47.164 80.5524 47.036 81.1044 47.036C81.6484 47.036 82.1124 47.156 82.4964 47.396C82.8884 47.628 83.1884 47.96 83.3964 48.392C83.6044 48.824 83.7084 49.34 83.7084 49.94V50.348H79.1964V49.604H82.8924L82.6884 49.772C82.6884 49.172 82.5564 48.708 82.2924 48.38C82.0284 48.052 81.6484 47.888 81.1524 47.888C80.7764 47.888 80.4564 47.976 80.1924 48.152C79.9364 48.328 79.7404 48.572 79.6044 48.884C79.4684 49.196 79.4004 49.56 79.4004 49.976V50.048C79.4004 50.512 79.4724 50.904 79.6164 51.224C79.7684 51.536 79.9884 51.772 80.2764 51.932C80.5644 52.092 80.9204 52.172 81.3444 52.172C81.6804 52.172 82.0084 52.12 82.3284 52.016C82.6564 51.904 82.9644 51.732 83.2524 51.5L83.6124 52.34C83.3484 52.58 83.0084 52.768 82.5924 52.904C82.1764 53.04 81.7564 53.108 81.3324 53.108Z" fill="black"/>
<path d="M31.0282 69.11C30.2509 69.11 29.5835 68.9487 29.0262 68.626C28.4689 68.296 28.0399 67.834 27.7392 67.24C27.4385 66.646 27.2882 65.9383 27.2882 65.117C27.2882 64.2957 27.4385 63.5917 27.7392 63.005C28.0399 62.411 28.4689 61.9527 29.0262 61.63C29.5835 61.3073 30.2509 61.146 31.0282 61.146C31.5562 61.146 32.0475 61.2267 32.5022 61.388C32.9642 61.5493 33.3492 61.7877 33.6572 62.103L33.2502 63.016C32.9129 62.7227 32.5682 62.51 32.2162 62.378C31.8642 62.246 31.4792 62.18 31.0612 62.18C30.2399 62.18 29.6092 62.433 29.1692 62.939C28.7292 63.445 28.5092 64.171 28.5092 65.117C28.5092 66.063 28.7292 66.7927 29.1692 67.306C29.6092 67.812 30.2399 68.065 31.0612 68.065C31.4792 68.065 31.8642 67.999 32.2162 67.867C32.5682 67.735 32.9129 67.5223 33.2502 67.229L33.6572 68.142C33.3492 68.45 32.9642 68.6883 32.5022 68.857C32.0475 69.0257 31.5562 69.11 31.0282 69.11ZM36.5281 69.099C36.1468 69.099 35.8058 69.0257 35.5051 68.879C35.2044 68.7323 34.9661 68.5343 34.7901 68.285C34.6214 68.0283 34.5371 67.746 34.5371 67.438C34.5371 67.0347 34.6398 66.7193 34.8451 66.492C35.0578 66.2573 35.3988 66.0887 35.8681 65.986C36.3448 65.8833 36.9754 65.832 37.7601 65.832H38.3431V66.536H37.7821C37.3861 66.536 37.0524 66.5507 36.7811 66.58C36.5098 66.602 36.2898 66.646 36.1211 66.712C35.9598 66.7707 35.8424 66.855 35.7691 66.965C35.6958 67.075 35.6591 67.2107 35.6591 67.372C35.6591 67.6433 35.7544 67.8633 35.9451 68.032C36.1431 68.2007 36.4108 68.285 36.7481 68.285C37.0268 68.285 37.2724 68.219 37.4851 68.087C37.6978 67.955 37.8664 67.779 37.9911 67.559C38.1158 67.339 38.1781 67.086 38.1781 66.8V65.546C38.1781 65.1353 38.0828 64.842 37.8921 64.666C37.7088 64.4827 37.4081 64.391 36.9901 64.391C36.6821 64.391 36.3704 64.4387 36.0551 64.534C35.7471 64.622 35.4318 64.765 35.1091 64.963L34.7571 64.16C34.9624 64.028 35.1898 63.9143 35.4391 63.819C35.6958 63.7163 35.9634 63.6393 36.2421 63.588C36.5208 63.5367 36.7921 63.511 37.0561 63.511C37.5474 63.511 37.9544 63.588 38.2771 63.742C38.6071 63.896 38.8564 64.1307 39.0251 64.446C39.1938 64.7613 39.2781 65.1683 39.2781 65.667V69H38.2331V67.812H38.2991C38.2331 68.0687 38.1158 68.296 37.9471 68.494C37.7858 68.6847 37.5841 68.835 37.3421 68.945C37.1074 69.0477 36.8361 69.099 36.5281 69.099ZM40.8697 70.98V63.61H41.9587V64.809H41.8817C42.0063 64.4057 42.241 64.0903 42.5857 63.863C42.9303 63.6283 43.3373 63.511 43.8067 63.511C44.2907 63.511 44.7123 63.6247 45.0717 63.852C45.431 64.0793 45.7097 64.402 45.9077 64.82C46.1057 65.238 46.2047 65.733 46.2047 66.305C46.2047 66.8697 46.1057 67.3647 45.9077 67.79C45.7097 68.208 45.431 68.5307 45.0717 68.758C44.7197 68.9853 44.298 69.099 43.8067 69.099C43.3447 69.099 42.945 68.9853 42.6077 68.758C42.2703 68.5233 42.0357 68.219 41.9037 67.845H42.0027V70.98H40.8697ZM43.5207 68.219C43.99 68.219 44.364 68.054 44.6427 67.724C44.9213 67.3867 45.0607 66.9137 45.0607 66.305C45.0607 65.6817 44.9213 65.2087 44.6427 64.886C44.364 64.5633 43.99 64.402 43.5207 64.402C43.0513 64.402 42.6773 64.5633 42.3987 64.886C42.1273 65.2087 41.9917 65.6817 41.9917 66.305C41.9917 66.9137 42.131 67.3867 42.4097 67.724C42.6883 68.054 43.0587 68.219 43.5207 68.219ZM47.5083 69V63.61H48.6413V69H47.5083ZM47.6513 62.906L48.7953 60.684H49.9723L48.4653 62.906H47.6513ZM52.6011 69.099C51.9191 69.099 51.4094 68.9267 51.0721 68.582C50.7347 68.23 50.5661 67.724 50.5661 67.064V64.49H49.5211V63.61H50.5881V62.004H51.6991V63.61H53.4261V64.49H51.7101V66.987C51.7101 67.3683 51.7907 67.658 51.9521 67.856C52.1207 68.054 52.3921 68.153 52.7661 68.153C52.8907 68.153 53.0117 68.1383 53.1291 68.109C53.2464 68.0797 53.3637 68.0467 53.4811 68.01L53.6571 68.868C53.5324 68.9413 53.3711 68.9963 53.1731 69.033C52.9751 69.077 52.7844 69.099 52.6011 69.099ZM56.4273 69.099C55.9873 69.099 55.6169 69.0183 55.3163 68.857C55.0229 68.6957 54.8029 68.4537 54.6563 68.131C54.5169 67.8083 54.4473 67.405 54.4473 66.921V63.61H55.5803V66.91C55.5803 67.1887 55.6169 67.4233 55.6903 67.614C55.7709 67.8047 55.8919 67.9477 56.0533 68.043C56.2219 68.1383 56.4346 68.186 56.6913 68.186C56.9773 68.186 57.2266 68.1237 57.4393 67.999C57.6519 67.867 57.8169 67.6837 57.9343 67.449C58.0589 67.2143 58.1213 66.9467 58.1213 66.646V63.61H59.2653V69H58.1653V67.823H58.2863C58.1249 68.2337 57.8829 68.549 57.5603 68.769C57.2376 68.989 56.8599 69.099 56.4273 69.099ZM62.6421 69.099C62.0628 69.099 61.6264 68.934 61.3331 68.604C61.0398 68.274 60.8931 67.7973 60.8931 67.174V61.245H62.0261V67.097C62.0261 67.3317 62.0591 67.5297 62.1251 67.691C62.1911 67.845 62.2864 67.9623 62.4111 68.043C62.5431 68.1237 62.7044 68.164 62.8951 68.164C62.9831 68.164 63.0711 68.1603 63.1591 68.153C63.2471 68.1457 63.3314 68.1273 63.4121 68.098L63.4011 69C63.2764 69.0367 63.1518 69.0623 63.0271 69.077C62.9098 69.0917 62.7814 69.099 62.6421 69.099ZM66.6526 69.099C66.11 69.099 65.637 68.9853 65.2336 68.758C64.8376 68.5307 64.5296 68.208 64.3096 67.79C64.0896 67.3647 63.9796 66.8697 63.9796 66.305C63.9796 65.733 64.0896 65.238 64.3096 64.82C64.5296 64.402 64.8376 64.0793 65.2336 63.852C65.637 63.6247 66.11 63.511 66.6526 63.511C67.1953 63.511 67.6646 63.6247 68.0606 63.852C68.464 64.0793 68.7756 64.402 68.9956 64.82C69.2156 65.238 69.3256 65.733 69.3256 66.305C69.3256 66.8697 69.2156 67.3647 68.9956 67.79C68.7756 68.208 68.464 68.5307 68.0606 68.758C67.6646 68.9853 67.1953 69.099 66.6526 69.099ZM66.6526 68.208C67.122 68.208 67.496 68.043 67.7746 67.713C68.0533 67.383 68.1926 66.91 68.1926 66.294C68.1926 65.6853 68.0533 65.2197 67.7746 64.897C67.496 64.5743 67.122 64.413 66.6526 64.413C66.1833 64.413 65.8093 64.5743 65.5306 64.897C65.252 65.2197 65.1126 65.6853 65.1126 66.294C65.1126 66.91 65.252 67.383 65.5306 67.713C65.8093 68.043 66.1833 68.208 66.6526 68.208ZM75.9661 69.099C75.6214 69.099 75.2841 69.066 74.9541 69C74.6314 68.9267 74.3271 68.824 74.0411 68.692C73.7624 68.56 73.5131 68.395 73.2931 68.197L73.7001 67.306C74.0521 67.5847 74.4114 67.79 74.7781 67.922C75.1448 68.0467 75.5298 68.109 75.9331 68.109C76.2778 68.109 76.5674 68.0613 76.8021 67.966C77.0441 67.8707 77.2274 67.7277 77.3521 67.537C77.4841 67.339 77.5501 67.097 77.5501 66.811C77.5501 66.393 77.4108 66.0813 77.1321 65.876C76.8608 65.6633 76.4611 65.557 75.9331 65.557H74.7341V64.589H75.8231C76.1311 64.589 76.3951 64.5377 76.6151 64.435C76.8424 64.3323 77.0184 64.1857 77.1431 63.995C77.2678 63.797 77.3301 63.5587 77.3301 63.28C77.3301 62.906 77.2054 62.6237 76.9561 62.433C76.7068 62.235 76.3548 62.136 75.9001 62.136C75.5114 62.136 75.1448 62.202 74.8001 62.334C74.4554 62.466 74.1328 62.6787 73.8321 62.972L73.4361 62.092C73.7368 61.7913 74.1144 61.5603 74.5691 61.399C75.0238 61.2303 75.4968 61.146 75.9881 61.146C76.5014 61.146 76.9414 61.2267 77.3081 61.388C77.6821 61.5493 77.9644 61.7803 78.1551 62.081C78.3531 62.3743 78.4521 62.7337 78.4521 63.159C78.4521 63.621 78.3238 64.0207 78.0671 64.358C77.8178 64.6953 77.4694 64.9227 77.0221 65.04V64.952C77.3668 65.0107 77.6601 65.128 77.9021 65.304C78.1514 65.4727 78.3421 65.6927 78.4741 65.964C78.6061 66.228 78.6721 66.536 78.6721 66.888C78.6721 67.3427 78.5621 67.7387 78.3421 68.076C78.1221 68.406 77.8104 68.659 77.4071 68.835C77.0038 69.011 76.5234 69.099 75.9661 69.099Z" fill="#667085"/>
<defs>
<filter id="filter0_d_8310_900" x="0" y="0" width="104" height="92" filterUnits="userSpaceOnUse" color-interpolation-filters="sRGB">
<feFlood flood-opacity="0" result="BackgroundImageFix"/>
<feColorMatrix in="SourceAlpha" type="matrix" values="0 0 0 0 0 0 0 0 0 0 0 0 0 0 0 0 0 0 127 0" result="hardAlpha"/>
<feOffset dy="4"/>
<feGaussianBlur stdDeviation="2"/>
<feComposite in2="hardAlpha" operator="out"/>
<feColorMatrix type="matrix" values="0 0 0 0 0 0 0 0 0 0 0 0 0 0 0 0 0 0 0.25 0"/>
<feBlend mode="normal" in2="BackgroundImageFix" result="effect1_dropShadow_8310_900"/>
<feBlend mode="normal" in="SourceGraphic" in2="effect1_dropShadow_8310_900" result="shape"/>
</filter>
<clipPath id="clip0_8310_900">
<rect width="30" height="30" fill="white" transform="translate(38 10)"/>
</clipPath>
</defs>
</svg>
