<svg width="102" height="86" viewBox="0 0 102 86" fill="none" xmlns="http://www.w3.org/2000/svg">
<g filter="url(#filter0_d_8334_734)">
<path d="M5.45148 42.5206C4.65639 41.2109 4.25887 40.5556 4.10327 39.8593C3.96558 39.2431 3.96558 38.6067 4.10327 37.9905C4.25887 37.2942 4.65639 36.6389 5.45148 35.3292L24.7122 3.59573C25.5072 2.2858 25.9047 1.63084 26.4609 1.1545C26.953 0.733034 27.5327 0.414632 28.1625 0.220013C28.8742 -1.93715e-07 29.6693 0 31.2595 0H69.7806C71.3711 0 72.1659 -1.93715e-07 72.8779 0.220013C73.5073 0.414632 74.0871 0.733034 74.5794 1.1545C75.1356 1.63084 75.533 2.2858 76.3282 3.59573L95.5887 35.3292C96.3839 36.6389 96.7813 37.2942 96.9368 37.9905C97.0747 38.6067 97.0747 39.2431 96.9368 39.8593C96.7813 40.5556 96.3839 41.2109 95.5887 42.5206L76.3282 74.2543C75.533 75.564 75.1356 76.2189 74.5794 76.6953C74.0871 77.1169 73.5073 77.4351 72.8779 77.6298C72.1659 77.85 71.3711 77.85 69.7806 77.85H31.2595C29.6693 77.85 28.8742 77.85 28.1625 77.6298C27.5327 77.4351 26.953 77.1169 26.4609 76.6953C25.9047 76.2189 25.5072 75.564 24.7122 74.2543L5.45148 42.5206Z" fill="white"/>
</g>
<path d="M60.9148 10.8521H41.9502C41.7451 10.8527 41.5486 10.9345 41.4035 11.0796C41.2585 11.2246 41.1767 11.4211 41.176 11.6262V34.6924C41.1769 34.897 41.259 35.0928 41.4041 35.237C41.5492 35.3812 41.7456 35.4619 41.9502 35.4614H60.9148C61.0158 35.4616 61.1159 35.4418 61.2093 35.4032C61.3026 35.3646 61.3875 35.3079 61.4589 35.2365C61.5303 35.165 61.587 35.0802 61.6256 34.9868C61.6642 34.8935 61.684 34.7934 61.6838 34.6924V11.6262C61.6843 11.4216 61.6036 11.2252 61.4594 11.0801C61.3153 10.9349 61.1194 10.8529 60.9148 10.8521ZM50.4045 31.3803H45.2776C45.0736 31.3803 44.878 31.2993 44.7338 31.1551C44.5896 31.0109 44.5085 30.8153 44.5085 30.6113C44.5085 30.4073 44.5896 30.2117 44.7338 30.0675C44.878 29.9233 45.0736 29.8422 45.2776 29.8422H50.4045C51.4142 29.858 51.4168 31.3642 50.4045 31.3803ZM50.4045 25.7407H45.2776C45.0736 25.7407 44.878 25.6597 44.7338 25.5154C44.5896 25.3712 44.5085 25.1756 44.5085 24.9716C44.5085 24.7677 44.5896 24.5721 44.7338 24.4278C44.878 24.2836 45.0736 24.2026 45.2776 24.2026H50.4045C51.4142 24.2183 51.4168 25.7245 50.4045 25.7407ZM52.4758 19.5679C52.4608 20.5777 50.9534 20.5796 50.9377 19.5678V15.5842C50.9387 14.9417 51.1947 14.3259 51.6494 13.8719C52.104 13.4179 52.7203 13.1629 53.3628 13.1629C54.0053 13.1629 54.6215 13.4179 55.0762 13.8719C55.5309 14.3259 55.7868 14.9417 55.7878 15.5842V19.5679C55.7713 20.5784 54.2663 20.5795 54.2497 19.5678V18.486H52.4758V19.5679ZM58.1257 29.8935L55.6033 32.416C55.5328 32.4886 55.4483 32.546 55.3548 32.5848C55.2614 32.6236 55.161 32.6429 55.0598 32.6416C54.9588 32.6419 54.8587 32.6222 54.7654 32.5834C54.6721 32.5447 54.5874 32.4878 54.5164 32.416L53.4499 31.3496C52.7516 30.6261 53.8134 29.5545 54.5369 30.2626L55.0598 30.7855L57.0388 28.8066C57.77 28.108 58.8309 29.1719 58.1257 29.8935ZM58.1257 24.2539L55.6033 26.7763C55.5328 26.8489 55.4483 26.9063 55.3548 26.9451C55.2614 26.9839 55.161 27.0033 55.0598 27.0019C54.9588 27.0023 54.8587 26.9825 54.7654 26.9438C54.6721 26.9051 54.5874 26.8481 54.5164 26.7763L53.4499 25.7099C52.7516 24.9864 53.8134 23.9148 54.5369 24.623L55.0598 25.1459L57.0388 23.167C57.77 22.4683 58.8309 23.5322 58.1257 24.2539Z" fill="#F2BB41"/>
<path d="M54.2497 15.5841C54.2491 15.3493 54.1554 15.1243 53.9892 14.9584C53.8229 14.7926 53.5976 14.6995 53.3628 14.6995C53.1279 14.6995 52.9027 14.7926 52.7364 14.9584C52.5701 15.1243 52.4764 15.3493 52.4758 15.5841V16.9479H54.2497V15.5841Z" fill="#F2BB41"/>
<path d="M25.2182 51.1567L28.9862 42.6967H30.0182L33.7982 51.1567H32.5262L31.4942 48.7567L32.0582 49.0927H26.9462L27.4982 48.7567L26.4782 51.1567H25.2182ZM29.4902 44.0767L27.6782 48.3727L27.3782 48.0847H31.6142L31.3382 48.3727L29.5142 44.0767H29.4902ZM34.7741 51.1567V45.3007H35.9501V46.5487H35.8181C35.9941 46.1007 36.2701 45.7647 36.6461 45.5407C37.0221 45.3087 37.4541 45.1927 37.9421 45.1927C38.4061 45.1927 38.7901 45.2807 39.0941 45.4567C39.4061 45.6247 39.6381 45.8847 39.7901 46.2367C39.9421 46.5807 40.0181 47.0167 40.0181 47.5447V51.1567H38.8061V47.6167C38.8061 47.2807 38.7621 47.0087 38.6741 46.8007C38.5861 46.5847 38.4541 46.4247 38.2781 46.3207C38.1021 46.2167 37.8741 46.1647 37.5941 46.1647C37.2741 46.1647 36.9901 46.2327 36.7421 46.3687C36.5021 46.5047 36.3141 46.7007 36.1781 46.9567C36.0501 47.2127 35.9861 47.5087 35.9861 47.8447V51.1567H34.7741ZM44.1842 51.2647C43.4562 51.2647 42.9082 51.0767 42.5402 50.7007C42.1802 50.3247 42.0002 49.7807 42.0002 49.0687V46.2367H40.8602V45.3007H42.0002V43.5367H43.2122V45.3007H45.0242V46.2367H43.2122V48.9727C43.2122 49.3967 43.3002 49.7167 43.4762 49.9327C43.6602 50.1487 43.9562 50.2567 44.3642 50.2567C44.4842 50.2567 44.6042 50.2407 44.7242 50.2087C44.8522 50.1767 44.9762 50.1447 45.0962 50.1127L45.2882 51.0247C45.1682 51.0967 45.0002 51.1527 44.7842 51.1927C44.5762 51.2407 44.3762 51.2647 44.1842 51.2647ZM48.7604 51.2647C48.1204 51.2647 47.5684 51.1447 47.1044 50.9047C46.6484 50.6567 46.2924 50.3087 46.0364 49.8607C45.7884 49.4047 45.6644 48.8647 45.6644 48.2407C45.6644 47.6327 45.7884 47.1007 46.0364 46.6447C46.2844 46.1887 46.6244 45.8327 47.0564 45.5767C47.4884 45.3207 47.9804 45.1927 48.5324 45.1927C49.0764 45.1927 49.5404 45.3127 49.9244 45.5527C50.3164 45.7847 50.6164 46.1167 50.8244 46.5487C51.0324 46.9807 51.1364 47.4967 51.1364 48.0967V48.5047H46.6244V47.7607H50.3204L50.1164 47.9287C50.1164 47.3287 49.9844 46.8647 49.7204 46.5367C49.4564 46.2087 49.0764 46.0447 48.5804 46.0447C48.2044 46.0447 47.8844 46.1327 47.6204 46.3087C47.3644 46.4847 47.1684 46.7287 47.0324 47.0407C46.8964 47.3527 46.8284 47.7167 46.8284 48.1327V48.2047C46.8284 48.6687 46.9004 49.0607 47.0444 49.3807C47.1964 49.6927 47.4164 49.9287 47.7044 50.0887C47.9924 50.2487 48.3484 50.3287 48.7724 50.3287C49.1084 50.3287 49.4364 50.2767 49.7564 50.1727C50.0844 50.0607 50.3924 49.8887 50.6804 49.6567L51.0404 50.4967C50.7764 50.7367 50.4364 50.9247 50.0204 51.0607C49.6044 51.1967 49.1844 51.2647 48.7604 51.2647ZM54.5097 51.2647C54.1977 51.2647 53.8937 51.2367 53.5977 51.1807C53.3017 51.1247 53.0297 51.0447 52.7817 50.9407C52.5337 50.8367 52.3137 50.7087 52.1217 50.5567L52.4697 49.7407C52.6697 49.8767 52.8817 49.9967 53.1057 50.1007C53.3297 50.1967 53.5617 50.2687 53.8017 50.3167C54.0497 50.3647 54.2897 50.3887 54.5217 50.3887C54.9457 50.3887 55.2657 50.3127 55.4817 50.1607C55.6977 50.0087 55.8057 49.8047 55.8057 49.5487C55.8057 49.3407 55.7337 49.1807 55.5897 49.0687C55.4457 48.9487 55.2297 48.8567 54.9417 48.7927L53.8017 48.5647C53.3057 48.4607 52.9297 48.2767 52.6737 48.0127C52.4177 47.7487 52.2897 47.4127 52.2897 47.0047C52.2897 46.6367 52.3897 46.3167 52.5897 46.0447C52.7897 45.7727 53.0697 45.5647 53.4297 45.4207C53.7897 45.2687 54.2057 45.1927 54.6777 45.1927C54.9497 45.1927 55.2137 45.2207 55.4697 45.2767C55.7257 45.3327 55.9657 45.4127 56.1897 45.5167C56.4217 45.6207 56.6177 45.7527 56.7777 45.9127L56.4297 46.7287C56.2777 46.5927 56.1017 46.4767 55.9017 46.3807C55.7097 46.2847 55.5097 46.2127 55.3017 46.1647C55.0937 46.1087 54.8857 46.0807 54.6777 46.0807C54.2537 46.0807 53.9337 46.1607 53.7177 46.3207C53.5097 46.4727 53.4057 46.6807 53.4057 46.9447C53.4057 47.1447 53.4697 47.3087 53.5977 47.4367C53.7257 47.5647 53.9257 47.6567 54.1977 47.7127L55.3377 47.9407C55.8577 48.0447 56.2497 48.2207 56.5137 48.4687C56.7857 48.7167 56.9217 49.0527 56.9217 49.4767C56.9217 49.8447 56.8217 50.1647 56.6217 50.4367C56.4217 50.7087 56.1377 50.9167 55.7697 51.0607C55.4097 51.1967 54.9897 51.2647 54.5097 51.2647ZM63.6546 51.2647C63.1426 51.2647 62.6906 51.1447 62.2986 50.9047C61.9146 50.6567 61.6146 50.3047 61.3986 49.8487C61.1826 49.3847 61.0746 48.8447 61.0746 48.2287C61.0746 47.5967 61.1826 47.0567 61.3986 46.6087C61.6146 46.1607 61.9146 45.8127 62.2986 45.5647C62.6906 45.3167 63.1426 45.1927 63.6546 45.1927C64.1666 45.1927 64.6066 45.3207 64.9746 45.5767C65.3506 45.8247 65.6026 46.1607 65.7306 46.5847H65.5986V42.6967H66.8106V51.1567H65.6226V49.8367H65.7426C65.6146 50.2687 65.3626 50.6167 64.9866 50.8807C64.6186 51.1367 64.1746 51.2647 63.6546 51.2647ZM63.9666 50.3287C64.4626 50.3287 64.8626 50.1487 65.1666 49.7887C65.4706 49.4287 65.6226 48.9087 65.6226 48.2287C65.6226 47.5407 65.4706 47.0207 65.1666 46.6687C64.8626 46.3167 64.4626 46.1407 63.9666 46.1407C63.4626 46.1407 63.0586 46.3167 62.7546 46.6687C62.4506 47.0207 62.2986 47.5407 62.2986 48.2287C62.2986 48.9087 62.4506 49.4287 62.7546 49.7887C63.0586 50.1487 63.4626 50.3287 63.9666 50.3287ZM71.2604 51.2647C70.6204 51.2647 70.0684 51.1447 69.6044 50.9047C69.1484 50.6567 68.7924 50.3087 68.5364 49.8607C68.2884 49.4047 68.1644 48.8647 68.1644 48.2407C68.1644 47.6327 68.2884 47.1007 68.5364 46.6447C68.7844 46.1887 69.1244 45.8327 69.5564 45.5767C69.9884 45.3207 70.4804 45.1927 71.0324 45.1927C71.5764 45.1927 72.0404 45.3127 72.4244 45.5527C72.8164 45.7847 73.1164 46.1167 73.3244 46.5487C73.5324 46.9807 73.6364 47.4967 73.6364 48.0967V48.5047H69.1244V47.7607H72.8204L72.6164 47.9287C72.6164 47.3287 72.4844 46.8647 72.2204 46.5367C71.9564 46.2087 71.5764 46.0447 71.0804 46.0447C70.7044 46.0447 70.3844 46.1327 70.1204 46.3087C69.8644 46.4847 69.6684 46.7287 69.5324 47.0407C69.3964 47.3527 69.3284 47.7167 69.3284 48.1327V48.2047C69.3284 48.6687 69.4004 49.0607 69.5444 49.3807C69.6964 49.6927 69.9164 49.9287 70.2044 50.0887C70.4924 50.2487 70.8484 50.3287 71.2724 50.3287C71.6084 50.3287 71.9364 50.2767 72.2564 50.1727C72.5844 50.0607 72.8924 49.8887 73.1804 49.6567L73.5404 50.4967C73.2764 50.7367 72.9364 50.9247 72.5204 51.0607C72.1044 51.1967 71.6844 51.2647 71.2604 51.2647ZM76.8657 51.2647C76.2257 51.2647 75.7457 51.0847 75.4257 50.7247C75.1137 50.3567 74.9577 49.8287 74.9577 49.1407V42.6967H76.1697V49.0687C76.1697 49.3247 76.2057 49.5447 76.2777 49.7287C76.3497 49.9047 76.4577 50.0367 76.6017 50.1247C76.7457 50.2127 76.9257 50.2567 77.1417 50.2567C77.2377 50.2567 77.3297 50.2527 77.4177 50.2447C77.5057 50.2367 77.5897 50.2207 77.6697 50.1967L77.6457 51.1687C77.5097 51.2007 77.3777 51.2247 77.2497 51.2407C77.1217 51.2567 76.9937 51.2647 76.8657 51.2647ZM33.5495 67.2647C32.9095 67.2647 32.3575 67.1447 31.8935 66.9047C31.4375 66.6567 31.0815 66.3087 30.8255 65.8607C30.5775 65.4047 30.4535 64.8647 30.4535 64.2407C30.4535 63.6327 30.5775 63.1007 30.8255 62.6447C31.0735 62.1887 31.4135 61.8327 31.8455 61.5767C32.2775 61.3207 32.7695 61.1927 33.3215 61.1927C33.8655 61.1927 34.3295 61.3127 34.7135 61.5527C35.1055 61.7847 35.4055 62.1167 35.6135 62.5487C35.8215 62.9807 35.9255 63.4967 35.9255 64.0967V64.5047H31.4135V63.7607H35.1095L34.9055 63.9287C34.9055 63.3287 34.7735 62.8647 34.5095 62.5367C34.2455 62.2087 33.8655 62.0447 33.3695 62.0447C32.9935 62.0447 32.6735 62.1327 32.4095 62.3087C32.1535 62.4847 31.9575 62.7287 31.8215 63.0407C31.6855 63.3527 31.6175 63.7167 31.6175 64.1327V64.2047C31.6175 64.6687 31.6895 65.0607 31.8335 65.3807C31.9855 65.6927 32.2055 65.9287 32.4935 66.0887C32.7815 66.2487 33.1375 66.3287 33.5615 66.3287C33.8975 66.3287 34.2255 66.2767 34.5455 66.1727C34.8735 66.0607 35.1815 65.8887 35.4695 65.6567L35.8295 66.4967C35.5655 66.7367 35.2255 66.9247 34.8095 67.0607C34.3935 67.1967 33.9735 67.2647 33.5495 67.2647ZM36.4199 67.1567L39.0959 63.8327V64.4327L36.5759 61.3007H37.9919L39.7799 63.5807H39.3479L41.1359 61.3007H42.5519L40.0319 64.4087V63.8687L42.7079 67.1567H41.2679L39.3479 64.7327H39.7559L37.8479 67.1567H36.4199ZM45.4352 67.2647C45.0272 67.2647 44.6592 67.1847 44.3312 67.0247C44.0112 66.8647 43.7592 66.6487 43.5752 66.3767C43.3912 66.1047 43.2992 65.7967 43.2992 65.4527C43.2992 65.0207 43.4072 64.6807 43.6232 64.4327C43.8472 64.1767 44.2112 63.9967 44.7152 63.8927C45.2272 63.7807 45.9152 63.7247 46.7792 63.7247H47.3432V64.4687H46.7912C46.3592 64.4687 45.9952 64.4847 45.6992 64.5167C45.4032 64.5487 45.1672 64.6007 44.9912 64.6727C44.8152 64.7367 44.6872 64.8287 44.6072 64.9487C44.5352 65.0687 44.4992 65.2127 44.4992 65.3807C44.4992 65.6847 44.6032 65.9327 44.8112 66.1247C45.0192 66.3087 45.3072 66.4007 45.6752 66.4007C45.9712 66.4007 46.2312 66.3327 46.4552 66.1967C46.6792 66.0527 46.8552 65.8607 46.9832 65.6207C47.1192 65.3807 47.1872 65.1047 47.1872 64.7927V63.4127C47.1872 62.9567 47.0912 62.6287 46.8992 62.4287C46.7072 62.2287 46.3912 62.1287 45.9512 62.1287C45.6152 62.1287 45.2792 62.1807 44.9432 62.2847C44.6072 62.3807 44.2632 62.5367 43.9112 62.7527L43.5392 61.9007C43.7472 61.7567 43.9872 61.6327 44.2592 61.5287C44.5312 61.4247 44.8152 61.3447 45.1112 61.2887C45.4152 61.2247 45.7072 61.1927 45.9872 61.1927C46.5232 61.1927 46.9632 61.2767 47.3072 61.4447C47.6592 61.6127 47.9192 61.8687 48.0872 62.2127C48.2552 62.5567 48.3392 63.0007 48.3392 63.5447V67.1567H47.1992V65.8487H47.3072C47.2432 66.1447 47.1232 66.4007 46.9472 66.6167C46.7792 66.8247 46.5672 66.9847 46.3112 67.0967C46.0552 67.2087 45.7632 67.2647 45.4352 67.2647ZM50.0325 67.1567V61.3007H51.2085V62.5487H51.0765C51.1805 62.2607 51.3245 62.0167 51.5085 61.8167C51.6925 61.6167 51.9125 61.4647 52.1685 61.3607C52.4325 61.2487 52.7205 61.1927 53.0325 61.1927C53.5205 61.1927 53.9165 61.3087 54.2205 61.5407C54.5245 61.7727 54.7325 62.1287 54.8445 62.6087H54.6765C54.8285 62.1687 55.0885 61.8247 55.4565 61.5767C55.8245 61.3207 56.2525 61.1927 56.7405 61.1927C57.1885 61.1927 57.5565 61.2807 57.8445 61.4567C58.1325 61.6247 58.3485 61.8847 58.4925 62.2367C58.6365 62.5807 58.7085 63.0167 58.7085 63.5447V67.1567H57.4965V63.6047C57.4965 63.1087 57.4085 62.7447 57.2325 62.5127C57.0645 62.2807 56.7845 62.1647 56.3925 62.1647C56.1045 62.1647 55.8525 62.2327 55.6365 62.3687C55.4205 62.5047 55.2525 62.7047 55.1325 62.9687C55.0205 63.2247 54.9645 63.5287 54.9645 63.8807V67.1567H53.7525V63.6047C53.7525 63.1087 53.6685 62.7447 53.5005 62.5127C53.3325 62.2807 53.0525 62.1647 52.6605 62.1647C52.3645 62.1647 52.1085 62.2327 51.8925 62.3687C51.6845 62.5047 51.5245 62.7047 51.4125 62.9687C51.3005 63.2247 51.2445 63.5287 51.2445 63.8807V67.1567H50.0325ZM63.151 67.2647C62.511 67.2647 61.959 67.1447 61.495 66.9047C61.039 66.6567 60.683 66.3087 60.427 65.8607C60.179 65.4047 60.055 64.8647 60.055 64.2407C60.055 63.6327 60.179 63.1007 60.427 62.6447C60.675 62.1887 61.015 61.8327 61.447 61.5767C61.879 61.3207 62.371 61.1927 62.923 61.1927C63.467 61.1927 63.931 61.3127 64.315 61.5527C64.707 61.7847 65.007 62.1167 65.215 62.5487C65.423 62.9807 65.527 63.4967 65.527 64.0967V64.5047H61.015V63.7607H64.711L64.507 63.9287C64.507 63.3287 64.375 62.8647 64.111 62.5367C63.847 62.2087 63.467 62.0447 62.971 62.0447C62.595 62.0447 62.275 62.1327 62.011 62.3087C61.755 62.4847 61.559 62.7287 61.423 63.0407C61.287 63.3527 61.219 63.7167 61.219 64.1327V64.2047C61.219 64.6687 61.291 65.0607 61.435 65.3807C61.587 65.6927 61.807 65.9287 62.095 66.0887C62.383 66.2487 62.739 66.3287 63.163 66.3287C63.499 66.3287 63.827 66.2767 64.147 66.1727C64.475 66.0607 64.783 65.8887 65.071 65.6567L65.431 66.4967C65.167 66.7367 64.827 66.9247 64.411 67.0607C63.995 67.1967 63.575 67.2647 63.151 67.2647ZM66.8483 67.1567V61.3007H68.0243V62.5487H67.8923C68.0683 62.1007 68.3443 61.7647 68.7203 61.5407C69.0963 61.3087 69.5283 61.1927 70.0163 61.1927C70.4803 61.1927 70.8643 61.2807 71.1683 61.4567C71.4803 61.6247 71.7123 61.8847 71.8643 62.2367C72.0163 62.5807 72.0923 63.0167 72.0923 63.5447V67.1567H70.8803V63.6167C70.8803 63.2807 70.8363 63.0087 70.7483 62.8007C70.6603 62.5847 70.5283 62.4247 70.3523 62.3207C70.1763 62.2167 69.9483 62.1647 69.6683 62.1647C69.3483 62.1647 69.0643 62.2327 68.8163 62.3687C68.5763 62.5047 68.3883 62.7007 68.2523 62.9567C68.1243 63.2127 68.0603 63.5087 68.0603 63.8447V67.1567H66.8483Z" fill="black"/>
<defs>
<filter id="filter0_d_8334_734" x="0" y="0" width="101.04" height="85.8501" filterUnits="userSpaceOnUse" color-interpolation-filters="sRGB">
<feFlood flood-opacity="0" result="BackgroundImageFix"/>
<feColorMatrix in="SourceAlpha" type="matrix" values="0 0 0 0 0 0 0 0 0 0 0 0 0 0 0 0 0 0 127 0" result="hardAlpha"/>
<feOffset dy="4"/>
<feGaussianBlur stdDeviation="2"/>
<feComposite in2="hardAlpha" operator="out"/>
<feColorMatrix type="matrix" values="0 0 0 0 0 0 0 0 0 0 0 0 0 0 0 0 0 0 0.25 0"/>
<feBlend mode="normal" in2="BackgroundImageFix" result="effect1_dropShadow_8334_734"/>
<feBlend mode="normal" in="SourceGraphic" in2="effect1_dropShadow_8334_734" result="shape"/>
</filter>
</defs>
</svg>
