<svg width="96" height="88" viewBox="0 0 96 88" fill="none" xmlns="http://www.w3.org/2000/svg">
<g filter="url(#filter0_d_8310_792)">
<path d="M5.37285 44.5185C4.62083 43.2089 4.24484 42.5536 4.09767 41.8574C3.96744 41.2412 3.96744 40.6048 4.09767 39.9886C4.24484 39.2924 4.62083 38.6371 5.37285 37.3274L23.5901 5.59555C24.3421 4.28569 24.7181 3.63076 25.2442 3.15444C25.7096 2.733 26.2579 2.41461 26.8535 2.22C27.5267 2 28.2787 2 29.7827 2H66.2171C67.7214 2 68.4731 2 69.1466 2.22C69.7419 2.41461 70.2903 2.733 70.756 3.15444C71.282 3.63076 71.6578 4.28569 72.41 5.59555L90.6271 37.3274C91.3792 38.6371 91.7551 39.2924 91.9021 39.9886C92.0326 40.6048 92.0326 41.2412 91.9021 41.8574C91.7551 42.5536 91.3792 43.2089 90.6271 44.5185L72.41 76.2506C71.6578 77.5603 71.282 78.2151 70.756 78.6915C70.2903 79.1131 69.7419 79.4313 69.1466 79.6259C68.4731 79.8462 67.7214 79.8462 66.2171 79.8462H29.7827C28.2787 79.8462 27.5267 79.8462 26.8535 79.6259C26.2579 79.4313 25.7096 79.1131 25.2442 78.6915C24.7181 78.2151 24.3421 77.5603 23.5901 76.2506L5.37285 44.5185Z" fill="white"/>
</g>
<g clip-path="url(#clip0_8310_792)">
<path d="M38 22.5H44.875V24.0625C44.875 24.9742 44.5128 25.8485 43.8682 26.4932C43.2235 27.1378 42.3492 27.5 41.4375 27.5C40.5258 27.5 39.6515 27.1378 39.0068 26.4932C38.3622 25.8485 38 24.9742 38 24.0625V22.5ZM43 7.64998C45.5 7.64998 46.75 11.25 46.75 13.75C46.75 15 46.125 16.25 45.5 18.125L44.875 20H38C38 18.75 37.375 16.875 37.375 13.75C37.375 10.625 39.8725 7.64998 43 7.64998ZM58.0675 17.6225L57.7962 19.1612C57.6379 20.0592 57.1294 20.8574 56.3826 21.3804C55.6357 21.9034 54.7117 22.1083 53.8137 21.95C52.9158 21.7917 52.1176 21.2832 51.5946 20.5363C51.0716 19.7894 50.8667 18.8654 51.025 17.9675L51.2975 16.43L58.0675 17.6225ZM55.7225 2.13123C58.8025 2.67373 60.745 6.03623 60.2025 9.11373C59.66 12.1925 58.7188 13.93 58.5025 15.1612L51.7312 13.9675L51.4412 12.0125C51.1512 10.0575 50.7537 8.71748 50.97 7.48748C51.4038 5.02498 53.26 1.69748 55.7225 2.13123Z" fill="#F2BB41"/>
</g>
<path d="M24.5797 43V34.54H28.0837C28.6997 34.54 29.2197 34.644 29.6437 34.852C30.0677 35.052 30.3877 35.344 30.6037 35.728C30.8277 36.112 30.9397 36.576 30.9397 37.12C30.9397 37.664 30.8277 38.132 30.6037 38.524C30.3877 38.908 30.0677 39.204 29.6437 39.412C29.2197 39.612 28.6997 39.712 28.0837 39.712H25.8277V43H24.5797ZM25.8277 38.716H27.9037C28.5037 38.716 28.9557 38.584 29.2597 38.32C29.5717 38.048 29.7277 37.648 29.7277 37.12C29.7277 36.6 29.5717 36.208 29.2597 35.944C28.9557 35.672 28.5037 35.536 27.9037 35.536H25.8277V38.716ZM32.0297 43V37.144H33.2057V38.548H33.0857C33.2137 38.068 33.4417 37.704 33.7697 37.456C34.1057 37.208 34.5497 37.064 35.1017 37.024L35.4977 37L35.5817 38.032L34.8497 38.104C34.3297 38.152 33.9337 38.316 33.6617 38.596C33.3897 38.876 33.2537 39.26 33.2537 39.748V43H32.0297ZM36.3983 35.788V34.528H37.8143V35.788H36.3983ZM36.5063 43V37.144H37.7183V43H36.5063ZM39.4483 43V37.144H40.6243V38.392H40.4923C40.5963 38.104 40.7403 37.86 40.9243 37.66C41.1083 37.46 41.3283 37.308 41.5843 37.204C41.8483 37.092 42.1363 37.036 42.4483 37.036C42.9363 37.036 43.3323 37.152 43.6363 37.384C43.9403 37.616 44.1483 37.972 44.2603 38.452H44.0923C44.2443 38.012 44.5043 37.668 44.8723 37.42C45.2403 37.164 45.6683 37.036 46.1563 37.036C46.6043 37.036 46.9723 37.124 47.2603 37.3C47.5483 37.468 47.7643 37.728 47.9083 38.08C48.0523 38.424 48.1243 38.86 48.1243 39.388V43H46.9123V39.448C46.9123 38.952 46.8243 38.588 46.6483 38.356C46.4803 38.124 46.2003 38.008 45.8083 38.008C45.5203 38.008 45.2683 38.076 45.0523 38.212C44.8363 38.348 44.6683 38.548 44.5483 38.812C44.4363 39.068 44.3803 39.372 44.3803 39.724V43H43.1683V39.448C43.1683 38.952 43.0843 38.588 42.9163 38.356C42.7483 38.124 42.4683 38.008 42.0763 38.008C41.7803 38.008 41.5243 38.076 41.3083 38.212C41.1003 38.348 40.9403 38.548 40.8283 38.812C40.7163 39.068 40.6603 39.372 40.6603 39.724V43H39.4483ZM52.5668 43.108C51.9268 43.108 51.3748 42.988 50.9108 42.748C50.4548 42.5 50.0988 42.152 49.8428 41.704C49.5948 41.248 49.4708 40.708 49.4708 40.084C49.4708 39.476 49.5948 38.944 49.8428 38.488C50.0908 38.032 50.4308 37.676 50.8628 37.42C51.2948 37.164 51.7868 37.036 52.3388 37.036C52.8828 37.036 53.3468 37.156 53.7308 37.396C54.1228 37.628 54.4228 37.96 54.6308 38.392C54.8388 38.824 54.9428 39.34 54.9428 39.94V40.348H50.4308V39.604H54.1268L53.9228 39.772C53.9228 39.172 53.7908 38.708 53.5268 38.38C53.2628 38.052 52.8828 37.888 52.3868 37.888C52.0108 37.888 51.6908 37.976 51.4268 38.152C51.1708 38.328 50.9748 38.572 50.8388 38.884C50.7028 39.196 50.6348 39.56 50.6348 39.976V40.048C50.6348 40.512 50.7068 40.904 50.8508 41.224C51.0028 41.536 51.2228 41.772 51.5108 41.932C51.7988 42.092 52.1548 42.172 52.5788 42.172C52.9148 42.172 53.2428 42.12 53.5628 42.016C53.8908 41.904 54.1988 41.732 54.4868 41.5L54.8468 42.34C54.5828 42.58 54.2428 42.768 53.8268 42.904C53.4108 43.04 52.9908 43.108 52.5668 43.108ZM56.2641 43V37.144H57.4401V38.548H57.3201C57.4481 38.068 57.6761 37.704 58.0041 37.456C58.3401 37.208 58.7841 37.064 59.3361 37.024L59.7321 37L59.8161 38.032L59.0841 38.104C58.5641 38.152 58.1681 38.316 57.8961 38.596C57.6241 38.876 57.4881 39.26 57.4881 39.748V43H56.2641ZM63.2026 43.108C62.6106 43.108 62.0986 42.984 61.6666 42.736C61.2426 42.488 60.9106 42.136 60.6706 41.68C60.4306 41.224 60.3106 40.688 60.3106 40.072C60.3106 39.448 60.4306 38.912 60.6706 38.464C60.9106 38.008 61.2426 37.656 61.6666 37.408C62.0986 37.16 62.6106 37.036 63.2026 37.036C63.7866 37.036 64.2906 37.16 64.7146 37.408C65.1466 37.656 65.4826 38.008 65.7226 38.464C65.9626 38.92 66.0826 39.456 66.0826 40.072C66.0826 40.688 65.9626 41.224 65.7226 41.68C65.4826 42.136 65.1466 42.488 64.7146 42.736C64.2906 42.984 63.7866 43.108 63.2026 43.108ZM63.1906 42.172C63.6946 42.172 64.0986 41.992 64.4026 41.632C64.7066 41.272 64.8586 40.752 64.8586 40.072C64.8586 39.384 64.7066 38.864 64.4026 38.512C64.0986 38.16 63.6946 37.984 63.1906 37.984C62.6946 37.984 62.2946 38.16 61.9906 38.512C61.6866 38.864 61.5346 39.384 61.5346 40.072C61.5346 40.752 61.6866 41.272 61.9906 41.632C62.2946 41.992 62.6946 42.172 63.1906 42.172ZM69.4958 43.108C69.1838 43.108 68.8798 43.08 68.5838 43.024C68.2878 42.968 68.0158 42.888 67.7678 42.784C67.5198 42.68 67.2998 42.552 67.1078 42.4L67.4558 41.584C67.6558 41.72 67.8678 41.84 68.0918 41.944C68.3158 42.04 68.5478 42.112 68.7878 42.16C69.0358 42.208 69.2758 42.232 69.5078 42.232C69.9318 42.232 70.2518 42.156 70.4678 42.004C70.6838 41.852 70.7918 41.648 70.7918 41.392C70.7918 41.184 70.7198 41.024 70.5758 40.912C70.4318 40.792 70.2158 40.7 69.9278 40.636L68.7878 40.408C68.2918 40.304 67.9158 40.12 67.6598 39.856C67.4038 39.592 67.2758 39.256 67.2758 38.848C67.2758 38.48 67.3758 38.16 67.5758 37.888C67.7758 37.616 68.0558 37.408 68.4158 37.264C68.7758 37.112 69.1918 37.036 69.6638 37.036C69.9358 37.036 70.1998 37.064 70.4558 37.12C70.7118 37.176 70.9518 37.256 71.1758 37.36C71.4078 37.464 71.6038 37.596 71.7638 37.756L71.4158 38.572C71.2638 38.436 71.0878 38.32 70.8878 38.224C70.6958 38.128 70.4958 38.056 70.2878 38.008C70.0798 37.952 69.8718 37.924 69.6638 37.924C69.2398 37.924 68.9198 38.004 68.7038 38.164C68.4958 38.316 68.3918 38.524 68.3918 38.788C68.3918 38.988 68.4558 39.152 68.5838 39.28C68.7118 39.408 68.9118 39.5 69.1838 39.556L70.3238 39.784C70.8438 39.888 71.2358 40.064 71.4998 40.312C71.7718 40.56 71.9078 40.896 71.9078 41.32C71.9078 41.688 71.8078 42.008 71.6078 42.28C71.4078 42.552 71.1238 42.76 70.7558 42.904C70.3958 43.04 69.9758 43.108 69.4958 43.108ZM32.8793 61.16V53.144H34.0673V54.464H33.9353C34.0633 54.032 34.3153 53.688 34.6913 53.432C35.0673 53.168 35.5113 53.036 36.0233 53.036C36.5433 53.036 36.9953 53.16 37.3793 53.408C37.7713 53.656 38.0713 54.004 38.2793 54.452C38.4953 54.9 38.6033 55.44 38.6033 56.072C38.6033 56.688 38.4953 57.228 38.2793 57.692C38.0713 58.148 37.7753 58.5 37.3913 58.748C37.0073 58.988 36.5513 59.108 36.0233 59.108C35.5193 59.108 35.0793 58.98 34.7033 58.724C34.3273 58.468 34.0753 58.128 33.9473 57.704H34.0913V61.16H32.8793ZM35.7233 58.172C36.2273 58.172 36.6273 57.992 36.9233 57.632C37.2273 57.272 37.3793 56.752 37.3793 56.072C37.3793 55.384 37.2273 54.864 36.9233 54.512C36.6273 54.16 36.2273 53.984 35.7233 53.984C35.2273 53.984 34.8273 54.16 34.5233 54.512C34.2193 54.864 34.0673 55.384 34.0673 56.072C34.0673 56.752 34.2193 57.272 34.5233 57.632C34.8273 57.992 35.2273 58.172 35.7233 58.172ZM41.8412 59.108C41.4332 59.108 41.0652 59.028 40.7372 58.868C40.4172 58.708 40.1652 58.492 39.9812 58.22C39.7972 57.948 39.7052 57.64 39.7052 57.296C39.7052 56.864 39.8132 56.524 40.0292 56.276C40.2532 56.02 40.6172 55.84 41.1212 55.736C41.6332 55.624 42.3212 55.568 43.1852 55.568H43.7492V56.312H43.1972C42.7652 56.312 42.4012 56.328 42.1052 56.36C41.8092 56.392 41.5732 56.444 41.3972 56.516C41.2212 56.58 41.0932 56.672 41.0132 56.792C40.9412 56.912 40.9052 57.056 40.9052 57.224C40.9052 57.528 41.0092 57.776 41.2172 57.968C41.4252 58.152 41.7132 58.244 42.0812 58.244C42.3772 58.244 42.6372 58.176 42.8612 58.04C43.0852 57.896 43.2612 57.704 43.3892 57.464C43.5252 57.224 43.5932 56.948 43.5932 56.636V55.256C43.5932 54.8 43.4972 54.472 43.3052 54.272C43.1132 54.072 42.7972 53.972 42.3572 53.972C42.0212 53.972 41.6852 54.024 41.3492 54.128C41.0132 54.224 40.6692 54.38 40.3172 54.596L39.9452 53.744C40.1532 53.6 40.3932 53.476 40.6652 53.372C40.9372 53.268 41.2212 53.188 41.5172 53.132C41.8212 53.068 42.1132 53.036 42.3932 53.036C42.9292 53.036 43.3692 53.12 43.7132 53.288C44.0652 53.456 44.3252 53.712 44.4932 54.056C44.6612 54.4 44.7452 54.844 44.7452 55.388V59H43.6052V57.692H43.7132C43.6492 57.988 43.5292 58.244 43.3532 58.46C43.1852 58.668 42.9732 58.828 42.7172 58.94C42.4612 59.052 42.1692 59.108 41.8412 59.108ZM48.4665 59.108C48.1545 59.108 47.8505 59.08 47.5545 59.024C47.2585 58.968 46.9865 58.888 46.7385 58.784C46.4905 58.68 46.2705 58.552 46.0785 58.4L46.4265 57.584C46.6265 57.72 46.8385 57.84 47.0625 57.944C47.2865 58.04 47.5185 58.112 47.7585 58.16C48.0065 58.208 48.2465 58.232 48.4785 58.232C48.9025 58.232 49.2225 58.156 49.4385 58.004C49.6545 57.852 49.7625 57.648 49.7625 57.392C49.7625 57.184 49.6905 57.024 49.5465 56.912C49.4025 56.792 49.1865 56.7 48.8985 56.636L47.7585 56.408C47.2625 56.304 46.8865 56.12 46.6305 55.856C46.3745 55.592 46.2465 55.256 46.2465 54.848C46.2465 54.48 46.3465 54.16 46.5465 53.888C46.7465 53.616 47.0265 53.408 47.3865 53.264C47.7465 53.112 48.1625 53.036 48.6345 53.036C48.9065 53.036 49.1705 53.064 49.4265 53.12C49.6825 53.176 49.9225 53.256 50.1465 53.36C50.3785 53.464 50.5745 53.596 50.7345 53.756L50.3865 54.572C50.2345 54.436 50.0585 54.32 49.8585 54.224C49.6665 54.128 49.4665 54.056 49.2585 54.008C49.0505 53.952 48.8425 53.924 48.6345 53.924C48.2105 53.924 47.8905 54.004 47.6745 54.164C47.4665 54.316 47.3625 54.524 47.3625 54.788C47.3625 54.988 47.4265 55.152 47.5545 55.28C47.6825 55.408 47.8825 55.5 48.1545 55.556L49.2945 55.784C49.8145 55.888 50.2065 56.064 50.4705 56.312C50.7425 56.56 50.8785 56.896 50.8785 57.32C50.8785 57.688 50.7785 58.008 50.5785 58.28C50.3785 58.552 50.0945 58.76 49.7265 58.904C49.3665 59.04 48.9465 59.108 48.4665 59.108ZM54.771 59.108C54.179 59.108 53.667 58.984 53.235 58.736C52.811 58.488 52.479 58.136 52.239 57.68C51.999 57.224 51.879 56.688 51.879 56.072C51.879 55.448 51.999 54.912 52.239 54.464C52.479 54.008 52.811 53.656 53.235 53.408C53.667 53.16 54.179 53.036 54.771 53.036C55.355 53.036 55.859 53.16 56.283 53.408C56.715 53.656 57.051 54.008 57.291 54.464C57.531 54.92 57.651 55.456 57.651 56.072C57.651 56.688 57.531 57.224 57.291 57.68C57.051 58.136 56.715 58.488 56.283 58.736C55.859 58.984 55.355 59.108 54.771 59.108ZM54.759 58.172C55.263 58.172 55.667 57.992 55.971 57.632C56.275 57.272 56.427 56.752 56.427 56.072C56.427 55.384 56.275 54.864 55.971 54.512C55.667 54.16 55.263 53.984 54.759 53.984C54.263 53.984 53.863 54.16 53.559 54.512C53.255 54.864 53.103 55.384 53.103 56.072C53.103 56.752 53.255 57.272 53.559 57.632C53.863 57.992 54.263 58.172 54.759 58.172ZM61.0642 59.108C60.7522 59.108 60.4482 59.08 60.1522 59.024C59.8562 58.968 59.5842 58.888 59.3362 58.784C59.0882 58.68 58.8682 58.552 58.6762 58.4L59.0242 57.584C59.2242 57.72 59.4362 57.84 59.6602 57.944C59.8842 58.04 60.1162 58.112 60.3562 58.16C60.6042 58.208 60.8442 58.232 61.0762 58.232C61.5002 58.232 61.8202 58.156 62.0362 58.004C62.2522 57.852 62.3602 57.648 62.3602 57.392C62.3602 57.184 62.2882 57.024 62.1442 56.912C62.0002 56.792 61.7842 56.7 61.4962 56.636L60.3562 56.408C59.8602 56.304 59.4842 56.12 59.2282 55.856C58.9722 55.592 58.8442 55.256 58.8442 54.848C58.8442 54.48 58.9442 54.16 59.1442 53.888C59.3442 53.616 59.6242 53.408 59.9842 53.264C60.3442 53.112 60.7602 53.036 61.2322 53.036C61.5042 53.036 61.7682 53.064 62.0242 53.12C62.2802 53.176 62.5202 53.256 62.7442 53.36C62.9762 53.464 63.1722 53.596 63.3322 53.756L62.9842 54.572C62.8322 54.436 62.6562 54.32 62.4562 54.224C62.2642 54.128 62.0642 54.056 61.8562 54.008C61.6482 53.952 61.4402 53.924 61.2322 53.924C60.8082 53.924 60.4882 54.004 60.2722 54.164C60.0642 54.316 59.9602 54.524 59.9602 54.788C59.9602 54.988 60.0242 55.152 60.1522 55.28C60.2802 55.408 60.4802 55.5 60.7522 55.556L61.8922 55.784C62.4122 55.888 62.8042 56.064 63.0682 56.312C63.3402 56.56 63.4762 56.896 63.4762 57.32C63.4762 57.688 63.3762 58.008 63.1762 58.28C62.9762 58.552 62.6922 58.76 62.3242 58.904C61.9642 59.04 61.5442 59.108 61.0642 59.108Z" fill="black"/>
<path d="M26.0282 75.11C25.2509 75.11 24.5835 74.9487 24.0262 74.626C23.4689 74.296 23.0399 73.834 22.7392 73.24C22.4385 72.646 22.2882 71.9383 22.2882 71.117C22.2882 70.2957 22.4385 69.5917 22.7392 69.005C23.0399 68.411 23.4689 67.9527 24.0262 67.63C24.5835 67.3073 25.2509 67.146 26.0282 67.146C26.5562 67.146 27.0475 67.2267 27.5022 67.388C27.9642 67.5493 28.3492 67.7877 28.6572 68.103L28.2502 69.016C27.9129 68.7227 27.5682 68.51 27.2162 68.378C26.8642 68.246 26.4792 68.18 26.0612 68.18C25.2399 68.18 24.6092 68.433 24.1692 68.939C23.7292 69.445 23.5092 70.171 23.5092 71.117C23.5092 72.063 23.7292 72.7927 24.1692 73.306C24.6092 73.812 25.2399 74.065 26.0612 74.065C26.4792 74.065 26.8642 73.999 27.2162 73.867C27.5682 73.735 27.9129 73.5223 28.2502 73.229L28.6572 74.142C28.3492 74.45 27.9642 74.6883 27.5022 74.857C27.0475 75.0257 26.5562 75.11 26.0282 75.11ZM31.5281 75.099C31.1468 75.099 30.8058 75.0257 30.5051 74.879C30.2044 74.7323 29.9661 74.5343 29.7901 74.285C29.6214 74.0283 29.5371 73.746 29.5371 73.438C29.5371 73.0347 29.6398 72.7193 29.8451 72.492C30.0578 72.2573 30.3988 72.0887 30.8681 71.986C31.3448 71.8833 31.9754 71.832 32.7601 71.832H33.3431V72.536H32.7821C32.3861 72.536 32.0524 72.5507 31.7811 72.58C31.5098 72.602 31.2898 72.646 31.1211 72.712C30.9598 72.7707 30.8424 72.855 30.7691 72.965C30.6958 73.075 30.6591 73.2107 30.6591 73.372C30.6591 73.6433 30.7544 73.8633 30.9451 74.032C31.1431 74.2007 31.4108 74.285 31.7481 74.285C32.0268 74.285 32.2724 74.219 32.4851 74.087C32.6978 73.955 32.8664 73.779 32.9911 73.559C33.1158 73.339 33.1781 73.086 33.1781 72.8V71.546C33.1781 71.1353 33.0828 70.842 32.8921 70.666C32.7088 70.4827 32.4081 70.391 31.9901 70.391C31.6821 70.391 31.3704 70.4387 31.0551 70.534C30.7471 70.622 30.4318 70.765 30.1091 70.963L29.7571 70.16C29.9624 70.028 30.1898 69.9143 30.4391 69.819C30.6958 69.7163 30.9634 69.6393 31.2421 69.588C31.5208 69.5367 31.7921 69.511 32.0561 69.511C32.5474 69.511 32.9544 69.588 33.2771 69.742C33.6071 69.896 33.8564 70.1307 34.0251 70.446C34.1938 70.7613 34.2781 71.1683 34.2781 71.667V75H33.2331V73.812H33.2991C33.2331 74.0687 33.1158 74.296 32.9471 74.494C32.7858 74.6847 32.5841 74.835 32.3421 74.945C32.1074 75.0477 31.8361 75.099 31.5281 75.099ZM35.8697 76.98V69.61H36.9587V70.809H36.8817C37.0063 70.4057 37.241 70.0903 37.5857 69.863C37.9303 69.6283 38.3373 69.511 38.8067 69.511C39.2907 69.511 39.7123 69.6247 40.0717 69.852C40.431 70.0793 40.7097 70.402 40.9077 70.82C41.1057 71.238 41.2047 71.733 41.2047 72.305C41.2047 72.8697 41.1057 73.3647 40.9077 73.79C40.7097 74.208 40.431 74.5307 40.0717 74.758C39.7197 74.9853 39.298 75.099 38.8067 75.099C38.3447 75.099 37.945 74.9853 37.6077 74.758C37.2703 74.5233 37.0357 74.219 36.9037 73.845H37.0027V76.98H35.8697ZM38.5207 74.219C38.99 74.219 39.364 74.054 39.6427 73.724C39.9213 73.3867 40.0607 72.9137 40.0607 72.305C40.0607 71.6817 39.9213 71.2087 39.6427 70.886C39.364 70.5633 38.99 70.402 38.5207 70.402C38.0513 70.402 37.6773 70.5633 37.3987 70.886C37.1273 71.2087 36.9917 71.6817 36.9917 72.305C36.9917 72.9137 37.131 73.3867 37.4097 73.724C37.6883 74.054 38.0587 74.219 38.5207 74.219ZM42.5083 75V69.61H43.6413V75H42.5083ZM42.6513 68.906L43.7953 66.684H44.9723L43.4653 68.906H42.6513ZM47.6011 75.099C46.9191 75.099 46.4094 74.9267 46.0721 74.582C45.7347 74.23 45.5661 73.724 45.5661 73.064V70.49H44.5211V69.61H45.5881V68.004H46.6991V69.61H48.4261V70.49H46.7101V72.987C46.7101 73.3683 46.7907 73.658 46.9521 73.856C47.1207 74.054 47.3921 74.153 47.7661 74.153C47.8907 74.153 48.0117 74.1383 48.1291 74.109C48.2464 74.0797 48.3637 74.0467 48.4811 74.01L48.6571 74.868C48.5324 74.9413 48.3711 74.9963 48.1731 75.033C47.9751 75.077 47.7844 75.099 47.6011 75.099ZM51.4273 75.099C50.9873 75.099 50.6169 75.0183 50.3163 74.857C50.0229 74.6957 49.8029 74.4537 49.6563 74.131C49.5169 73.8083 49.4473 73.405 49.4473 72.921V69.61H50.5803V72.91C50.5803 73.1887 50.6169 73.4233 50.6903 73.614C50.7709 73.8047 50.8919 73.9477 51.0533 74.043C51.2219 74.1383 51.4346 74.186 51.6913 74.186C51.9773 74.186 52.2266 74.1237 52.4393 73.999C52.6519 73.867 52.8169 73.6837 52.9343 73.449C53.0589 73.2143 53.1213 72.9467 53.1213 72.646V69.61H54.2653V75H53.1653V73.823H53.2863C53.1249 74.2337 52.8829 74.549 52.5603 74.769C52.2376 74.989 51.8599 75.099 51.4273 75.099ZM57.6421 75.099C57.0628 75.099 56.6264 74.934 56.3331 74.604C56.0398 74.274 55.8931 73.7973 55.8931 73.174V67.245H57.0261V73.097C57.0261 73.3317 57.0591 73.5297 57.1251 73.691C57.1911 73.845 57.2864 73.9623 57.4111 74.043C57.5431 74.1237 57.7044 74.164 57.8951 74.164C57.9831 74.164 58.0711 74.1603 58.1591 74.153C58.2471 74.1457 58.3314 74.1273 58.4121 74.098L58.4011 75C58.2764 75.0367 58.1518 75.0623 58.0271 75.077C57.9098 75.0917 57.7814 75.099 57.6421 75.099ZM61.6526 75.099C61.11 75.099 60.637 74.9853 60.2336 74.758C59.8376 74.5307 59.5296 74.208 59.3096 73.79C59.0896 73.3647 58.9796 72.8697 58.9796 72.305C58.9796 71.733 59.0896 71.238 59.3096 70.82C59.5296 70.402 59.8376 70.0793 60.2336 69.852C60.637 69.6247 61.11 69.511 61.6526 69.511C62.1953 69.511 62.6646 69.6247 63.0606 69.852C63.464 70.0793 63.7756 70.402 63.9956 70.82C64.2156 71.238 64.3256 71.733 64.3256 72.305C64.3256 72.8697 64.2156 73.3647 63.9956 73.79C63.7756 74.208 63.464 74.5307 63.0606 74.758C62.6646 74.9853 62.1953 75.099 61.6526 75.099ZM61.6526 74.208C62.122 74.208 62.496 74.043 62.7746 73.713C63.0533 73.383 63.1926 72.91 63.1926 72.294C63.1926 71.6853 63.0533 71.2197 62.7746 70.897C62.496 70.5743 62.122 70.413 61.6526 70.413C61.1833 70.413 60.8093 70.5743 60.5306 70.897C60.252 71.2197 60.1126 71.6853 60.1126 72.294C60.1126 72.91 60.252 73.383 60.5306 73.713C60.8093 74.043 61.1833 74.208 61.6526 74.208ZM69.0081 75V74.032H70.8341V68.213L71.4171 68.224L69.3931 69.489L68.9201 68.631L71.1641 67.245H71.9891V74.032H73.6941V75H69.0081Z" fill="#667085"/>
<defs>
<filter id="filter0_d_8310_792" x="0" y="2" width="96" height="85.8462" filterUnits="userSpaceOnUse" color-interpolation-filters="sRGB">
<feFlood flood-opacity="0" result="BackgroundImageFix"/>
<feColorMatrix in="SourceAlpha" type="matrix" values="0 0 0 0 0 0 0 0 0 0 0 0 0 0 0 0 0 0 127 0" result="hardAlpha"/>
<feOffset dy="4"/>
<feGaussianBlur stdDeviation="2"/>
<feComposite in2="hardAlpha" operator="out"/>
<feColorMatrix type="matrix" values="0 0 0 0 0 0 0 0 0 0 0 0 0 0 0 0 0 0 0.25 0"/>
<feBlend mode="normal" in2="BackgroundImageFix" result="effect1_dropShadow_8310_792"/>
<feBlend mode="normal" in="SourceGraphic" in2="effect1_dropShadow_8310_792" result="shape"/>
</filter>
<clipPath id="clip0_8310_792">
<rect width="30" height="30" fill="white" transform="translate(33)"/>
</clipPath>
</defs>
</svg>
