<svg width="96" height="86" viewBox="0 0 96 86" fill="none" xmlns="http://www.w3.org/2000/svg">
<g filter="url(#filter0_d_8310_691)">
<path d="M5.37285 42.5185C4.62083 41.2089 4.24484 40.5536 4.09767 39.8574C3.96744 39.2412 3.96744 38.6048 4.09767 37.9886C4.24484 37.2924 4.62083 36.6371 5.37285 35.3274L23.5901 3.59555C24.3421 2.28569 24.7181 1.63076 25.2442 1.15444C25.7096 0.732998 26.2579 0.414612 26.8535 0.220002C27.5267 -2.00917e-07 28.2787 0 29.7827 0H66.2171C67.7214 0 68.4731 -2.00917e-07 69.1466 0.220002C69.7419 0.414612 70.2903 0.732998 70.756 1.15444C71.282 1.63076 71.6578 2.28569 72.41 3.59555L90.6271 35.3274C91.3792 36.6371 91.7551 37.2924 91.9021 37.9886C92.0326 38.6048 92.0326 39.2412 91.9021 39.8574C91.7551 40.5536 91.3792 41.2089 90.6271 42.5185L72.41 74.2506C71.6578 75.5603 71.282 76.2151 70.756 76.6915C70.2903 77.1131 69.7419 77.4313 69.1466 77.6259C68.4731 77.8462 67.7214 77.8462 66.2171 77.8462H29.7827C28.2787 77.8462 27.5267 77.8462 26.8535 77.6259C26.2579 77.4313 25.7096 77.1131 25.2442 76.6915C24.7181 76.2151 24.3421 75.5603 23.5901 74.2506L5.37285 42.5185Z" fill="white"/>
</g>
<path d="M52.2051 13.5H41.2051C40.1051 13.5 39.2051 14.4 39.2051 15.5V35.5C39.2051 36.6 40.1051 37.5 41.2051 37.5H55.2051C56.3051 37.5 57.2051 36.6 57.2051 35.5V18.5L52.2051 13.5Z" fill="#F2BB41" stroke="#F2BB41" stroke-width="2" stroke-miterlimit="10" stroke-linecap="round" stroke-linejoin="round"/>
<path d="M52.2051 13.5V18.5H57.2051L52.2051 13.5Z" fill="#E08838" stroke="#E08838" stroke-width="2" stroke-miterlimit="10" stroke-linecap="round" stroke-linejoin="round"/>
<path d="M26.2965 53.5V45.04H29.8005C30.7125 45.04 31.4165 45.256 31.9125 45.688C32.4085 46.12 32.6565 46.732 32.6565 47.524C32.6565 48.036 32.5445 48.476 32.3205 48.844C32.0965 49.212 31.7685 49.492 31.3365 49.684C30.9125 49.876 30.4005 49.972 29.8005 49.972L29.9085 49.804H30.2205C30.5405 49.804 30.8165 49.884 31.0485 50.044C31.2885 50.204 31.5045 50.46 31.6965 50.812L33.1605 53.5H31.7925L30.3285 50.8C30.2165 50.592 30.0925 50.432 29.9565 50.32C29.8285 50.2 29.6765 50.12 29.5005 50.08C29.3325 50.032 29.1325 50.008 28.9005 50.008H27.5445V53.5H26.2965ZM27.5445 49.072H29.5965C30.2045 49.072 30.6645 48.944 30.9765 48.688C31.2885 48.432 31.4445 48.052 31.4445 47.548C31.4445 47.052 31.2885 46.676 30.9765 46.42C30.6645 46.164 30.2045 46.036 29.5965 46.036H27.5445V49.072ZM36.893 53.608C36.253 53.608 35.701 53.488 35.237 53.248C34.781 53 34.425 52.652 34.169 52.204C33.921 51.748 33.797 51.208 33.797 50.584C33.797 49.976 33.921 49.444 34.169 48.988C34.417 48.532 34.757 48.176 35.189 47.92C35.621 47.664 36.113 47.536 36.665 47.536C37.209 47.536 37.673 47.656 38.057 47.896C38.449 48.128 38.749 48.46 38.957 48.892C39.165 49.324 39.269 49.84 39.269 50.44V50.848H34.757V50.104H38.453L38.249 50.272C38.249 49.672 38.117 49.208 37.853 48.88C37.589 48.552 37.209 48.388 36.713 48.388C36.337 48.388 36.017 48.476 35.753 48.652C35.497 48.828 35.301 49.072 35.165 49.384C35.029 49.696 34.961 50.06 34.961 50.476V50.548C34.961 51.012 35.033 51.404 35.177 51.724C35.329 52.036 35.549 52.272 35.837 52.432C36.125 52.592 36.481 52.672 36.905 52.672C37.241 52.672 37.569 52.62 37.889 52.516C38.217 52.404 38.525 52.232 38.813 52L39.173 52.84C38.909 53.08 38.569 53.268 38.153 53.404C37.737 53.54 37.317 53.608 36.893 53.608ZM43.2423 55.768C42.7143 55.768 42.2223 55.704 41.7663 55.576C41.3103 55.448 40.9063 55.256 40.5543 55L40.9263 54.136C41.1583 54.288 41.3943 54.416 41.6343 54.52C41.8823 54.632 42.1303 54.712 42.3783 54.76C42.6343 54.808 42.8943 54.832 43.1583 54.832C43.7183 54.832 44.1383 54.688 44.4183 54.4C44.6983 54.12 44.8383 53.704 44.8383 53.152V51.928H44.9463C44.8263 52.368 44.5743 52.716 44.1903 52.972C43.8063 53.228 43.3623 53.356 42.8583 53.356C42.3303 53.356 41.8703 53.236 41.4783 52.996C41.0863 52.748 40.7823 52.408 40.5663 51.976C40.3503 51.536 40.2423 51.024 40.2423 50.44C40.2423 49.856 40.3503 49.348 40.5663 48.916C40.7823 48.484 41.0863 48.148 41.4783 47.908C41.8703 47.66 42.3303 47.536 42.8583 47.536C43.3703 47.536 43.8143 47.664 44.1903 47.92C44.5743 48.176 44.8223 48.524 44.9343 48.964H44.8383V47.644H46.0143V53.008C46.0143 53.616 45.9103 54.124 45.7023 54.532C45.4943 54.948 45.1823 55.256 44.7663 55.456C44.3583 55.664 43.8503 55.768 43.2423 55.768ZM43.1463 52.408C43.6663 52.408 44.0743 52.232 44.3703 51.88C44.6743 51.528 44.8263 51.048 44.8263 50.44C44.8263 49.84 44.6743 49.364 44.3703 49.012C44.0743 48.66 43.6663 48.484 43.1463 48.484C42.6343 48.484 42.2263 48.66 41.9223 49.012C41.6183 49.364 41.4663 49.84 41.4663 50.44C41.4663 51.048 41.6183 51.528 41.9223 51.88C42.2263 52.232 42.6343 52.408 43.1463 52.408ZM47.6073 46.288V45.028H49.0233V46.288H47.6073ZM47.7153 53.5V47.644H48.9273V53.5H47.7153ZM52.6853 53.608C52.3733 53.608 52.0693 53.58 51.7733 53.524C51.4773 53.468 51.2053 53.388 50.9573 53.284C50.7093 53.18 50.4893 53.052 50.2973 52.9L50.6453 52.084C50.8453 52.22 51.0573 52.34 51.2812 52.444C51.5053 52.54 51.7373 52.612 51.9773 52.66C52.2253 52.708 52.4653 52.732 52.6973 52.732C53.1213 52.732 53.4413 52.656 53.6573 52.504C53.8733 52.352 53.9813 52.148 53.9813 51.892C53.9813 51.684 53.9093 51.524 53.7653 51.412C53.6213 51.292 53.4053 51.2 53.1173 51.136L51.9773 50.908C51.4813 50.804 51.1053 50.62 50.8493 50.356C50.5933 50.092 50.4653 49.756 50.4653 49.348C50.4653 48.98 50.5653 48.66 50.7653 48.388C50.9653 48.116 51.2453 47.908 51.6053 47.764C51.9653 47.612 52.3813 47.536 52.8533 47.536C53.1253 47.536 53.3893 47.564 53.6453 47.62C53.9013 47.676 54.1413 47.756 54.3653 47.86C54.5973 47.964 54.7933 48.096 54.9533 48.256L54.6053 49.072C54.4533 48.936 54.2773 48.82 54.0773 48.724C53.8853 48.628 53.6853 48.556 53.4773 48.508C53.2693 48.452 53.0613 48.424 52.8533 48.424C52.4293 48.424 52.1093 48.504 51.8933 48.664C51.6853 48.816 51.5813 49.024 51.5813 49.288C51.5813 49.488 51.6453 49.652 51.7733 49.78C51.9013 49.908 52.1013 50 52.3733 50.056L53.5133 50.284C54.0333 50.388 54.4253 50.564 54.6893 50.812C54.9613 51.06 55.0973 51.396 55.0973 51.82C55.0973 52.188 54.9973 52.508 54.7973 52.78C54.5973 53.052 54.3133 53.26 53.9453 53.404C53.5853 53.54 53.1653 53.608 52.6853 53.608ZM58.8832 53.608C58.1552 53.608 57.6072 53.42 57.2392 53.044C56.8792 52.668 56.6992 52.124 56.6992 51.412V48.58H55.5592V47.644H56.6992V45.88H57.9112V47.644H59.7232V48.58H57.9112V51.316C57.9112 51.74 57.9992 52.06 58.1752 52.276C58.3592 52.492 58.6552 52.6 59.0632 52.6C59.1832 52.6 59.3032 52.584 59.4232 52.552C59.5512 52.52 59.6752 52.488 59.7952 52.456L59.9872 53.368C59.8672 53.44 59.6992 53.496 59.4832 53.536C59.2752 53.584 59.0752 53.608 58.8832 53.608ZM60.77 53.5V47.644H61.946V49.048H61.826C61.954 48.568 62.182 48.204 62.51 47.956C62.846 47.708 63.29 47.564 63.842 47.524L64.238 47.5L64.322 48.532L63.59 48.604C63.07 48.652 62.674 48.816 62.402 49.096C62.13 49.376 61.994 49.76 61.994 50.248V53.5H60.77ZM67.7085 53.608C67.1165 53.608 66.6045 53.484 66.1725 53.236C65.7485 52.988 65.4165 52.636 65.1765 52.18C64.9365 51.724 64.8165 51.188 64.8165 50.572C64.8165 49.948 64.9365 49.412 65.1765 48.964C65.4165 48.508 65.7485 48.156 66.1725 47.908C66.6045 47.66 67.1165 47.536 67.7085 47.536C68.2925 47.536 68.7965 47.66 69.2205 47.908C69.6525 48.156 69.9885 48.508 70.2285 48.964C70.4685 49.42 70.5885 49.956 70.5885 50.572C70.5885 51.188 70.4685 51.724 70.2285 52.18C69.9885 52.636 69.6525 52.988 69.2205 53.236C68.7965 53.484 68.2925 53.608 67.7085 53.608ZM67.6965 52.672C68.2005 52.672 68.6045 52.492 68.9085 52.132C69.2125 51.772 69.3645 51.252 69.3645 50.572C69.3645 49.884 69.2125 49.364 68.9085 49.012C68.6045 48.66 68.2005 48.484 67.6965 48.484C67.2005 48.484 66.8005 48.66 66.4965 49.012C66.1925 49.364 66.0405 49.884 66.0405 50.572C66.0405 51.252 66.1925 51.772 66.4965 52.132C66.8005 52.492 67.2005 52.672 67.6965 52.672Z" fill="black"/>
<defs>
<filter id="filter0_d_8310_691" x="0" y="0" width="96" height="85.8462" filterUnits="userSpaceOnUse" color-interpolation-filters="sRGB">
<feFlood flood-opacity="0" result="BackgroundImageFix"/>
<feColorMatrix in="SourceAlpha" type="matrix" values="0 0 0 0 0 0 0 0 0 0 0 0 0 0 0 0 0 0 127 0" result="hardAlpha"/>
<feOffset dy="4"/>
<feGaussianBlur stdDeviation="2"/>
<feComposite in2="hardAlpha" operator="out"/>
<feColorMatrix type="matrix" values="0 0 0 0 0 0 0 0 0 0 0 0 0 0 0 0 0 0 0.25 0"/>
<feBlend mode="normal" in2="BackgroundImageFix" result="effect1_dropShadow_8310_691"/>
<feBlend mode="normal" in="SourceGraphic" in2="effect1_dropShadow_8310_691" result="shape"/>
</filter>
</defs>
</svg>
