<svg width="102" height="92" viewBox="0 0 102 92" fill="none" xmlns="http://www.w3.org/2000/svg">
<g filter="url(#filter0_d_8334_725)">
<path d="M5.45148 47.8639C4.65639 46.5542 4.25887 45.8988 4.10327 45.2026C3.96558 44.5864 3.96558 43.9499 4.10327 43.3337C4.25887 42.6375 4.65639 41.9822 5.45148 40.6724L24.7122 8.93899C25.5072 7.62907 25.9047 6.9741 26.4609 6.49776C26.953 6.0763 27.5327 5.75789 28.1625 5.56328C28.8742 5.34326 29.6693 5.34326 31.2595 5.34326H69.7806C71.3711 5.34326 72.1659 5.34326 72.8779 5.56328C73.5073 5.75789 74.0871 6.0763 74.5794 6.49776C75.1356 6.9741 75.533 7.62907 76.3282 8.93899L95.5887 40.6724C96.3839 41.9822 96.7813 42.6375 96.9368 43.3337C97.0747 43.9499 97.0747 44.5864 96.9368 45.2026C96.7813 45.8988 96.3839 46.5542 95.5887 47.8639L76.3282 79.5975C75.533 80.9073 75.1356 81.5621 74.5794 82.0386C74.0871 82.4602 73.5073 82.7784 72.8779 82.973C72.1659 83.1933 71.3711 83.1933 69.7806 83.1933H31.2595C29.6693 83.1933 28.8742 83.1933 28.1625 82.973C27.5327 82.7784 26.953 82.4602 26.4609 82.0386C25.9047 81.5621 25.5072 80.9073 24.7122 79.5975L5.45148 47.8639Z" fill="white"/>
</g>
<path d="M57.8718 10.7388L61.2121 17.4475C61.2711 17.5357 61.3002 17.6528 61.3293 17.741C61.5346 18.2688 61.6808 19.001 61.6808 19.4697V22.6628C61.6808 23.6594 61.0068 24.4797 60.0693 24.7141V26.5891C60.0693 27.4975 59.3371 28.2007 58.4577 28.2007C57.5493 28.2007 56.8461 27.4975 56.8461 26.5891V24.7722H44.0136V26.5891C44.0136 27.4975 43.3105 28.2007 42.4021 28.2007C41.5227 28.2007 40.7905 27.4975 40.7905 26.5891V24.7141C39.853 24.4797 39.179 23.6594 39.179 22.6628V19.4697C39.179 19.001 39.3252 18.2688 39.5305 17.741C39.5596 17.6528 39.5896 17.5357 39.6477 17.4475L42.988 10.7388C43.2515 10.241 43.9546 9.77222 44.5405 9.77222H56.3183C56.9043 9.77222 57.6083 10.241 57.8718 10.7388ZM44.3652 12.76L42.5783 16.8325C42.4902 16.9788 42.4902 17.155 42.4902 17.2722H58.3696C58.3696 17.155 58.3696 16.9788 58.2815 16.8325L56.4946 12.76C56.2602 12.2322 55.5571 11.7635 55.0002 11.7635H45.8596C45.3027 11.7635 44.5996 12.2322 44.3652 12.76ZM43.5749 22.6619C44.5124 22.6619 45.2446 21.8997 45.2446 20.9332C45.2446 19.9957 44.5124 19.2635 43.5749 19.2635C42.6374 19.2635 41.8461 19.9957 41.8461 20.9332C41.8461 21.8997 42.6374 22.6619 43.5749 22.6619ZM57.2858 22.6619C58.2233 22.6619 59.0146 21.8997 59.0146 20.9332C59.0146 19.9957 58.2233 19.2635 57.2858 19.2635C56.3483 19.2635 55.6161 19.9957 55.6161 20.9332C55.6161 21.8997 56.3483 22.6619 57.2858 22.6619Z" fill="#F2BB41"/>
<path d="M26.5536 43.108C25.6976 43.108 24.9656 42.932 24.3576 42.58C23.7496 42.228 23.2816 41.728 22.9536 41.08C22.6336 40.424 22.4736 39.652 22.4736 38.764C22.4736 37.876 22.6336 37.108 22.9536 36.46C23.2816 35.812 23.7496 35.312 24.3576 34.96C24.9656 34.608 25.6976 34.432 26.5536 34.432C27.1296 34.432 27.6656 34.524 28.1616 34.708C28.6656 34.884 29.0856 35.14 29.4216 35.476L28.9896 36.472C28.6216 36.144 28.2416 35.908 27.8496 35.764C27.4656 35.612 27.0456 35.536 26.5896 35.536C25.6776 35.536 24.9816 35.816 24.5016 36.376C24.0216 36.936 23.7816 37.732 23.7816 38.764C23.7816 39.796 24.0216 40.596 24.5016 41.164C24.9816 41.724 25.6776 42.004 26.5896 42.004C27.0456 42.004 27.4656 41.932 27.8496 41.788C28.2416 41.636 28.6216 41.396 28.9896 41.068L29.4216 42.064C29.0856 42.4 28.6656 42.66 28.1616 42.844C27.6656 43.02 27.1296 43.108 26.5536 43.108ZM32.8611 43.108C32.2691 43.108 31.7571 42.984 31.3251 42.736C30.9011 42.488 30.5691 42.136 30.3291 41.68C30.0891 41.224 29.9691 40.688 29.9691 40.072C29.9691 39.448 30.0891 38.912 30.3291 38.464C30.5691 38.008 30.9011 37.656 31.3251 37.408C31.7571 37.16 32.2691 37.036 32.8611 37.036C33.4451 37.036 33.9491 37.16 34.3731 37.408C34.8051 37.656 35.1411 38.008 35.3811 38.464C35.6211 38.92 35.7411 39.456 35.7411 40.072C35.7411 40.688 35.6211 41.224 35.3811 41.68C35.1411 42.136 34.8051 42.488 34.3731 42.736C33.9491 42.984 33.4451 43.108 32.8611 43.108ZM32.8491 42.172C33.3531 42.172 33.7571 41.992 34.0611 41.632C34.3651 41.272 34.5171 40.752 34.5171 40.072C34.5171 39.384 34.3651 38.864 34.0611 38.512C33.7571 38.16 33.3531 37.984 32.8491 37.984C32.3531 37.984 31.9531 38.16 31.6491 38.512C31.3451 38.864 31.1931 39.384 31.1931 40.072C31.1931 40.752 31.3451 41.272 31.6491 41.632C31.9531 41.992 32.3531 42.172 32.8491 42.172ZM37.1022 43V37.144H38.2782V38.392H38.1462C38.3222 37.944 38.5982 37.608 38.9742 37.384C39.3502 37.152 39.7822 37.036 40.2702 37.036C40.7342 37.036 41.1182 37.124 41.4222 37.3C41.7342 37.468 41.9662 37.728 42.1182 38.08C42.2702 38.424 42.3462 38.86 42.3462 39.388V43H41.1342V39.46C41.1342 39.124 41.0902 38.852 41.0022 38.644C40.9142 38.428 40.7822 38.268 40.6062 38.164C40.4302 38.06 40.2022 38.008 39.9222 38.008C39.6022 38.008 39.3182 38.076 39.0702 38.212C38.8302 38.348 38.6422 38.544 38.5062 38.8C38.3782 39.056 38.3142 39.352 38.3142 39.688V43H37.1022ZM46.5123 43.108C45.7843 43.108 45.2363 42.92 44.8683 42.544C44.5083 42.168 44.3283 41.624 44.3283 40.912V38.08H43.1883V37.144H44.3283V35.38H45.5403V37.144H47.3523V38.08H45.5403V40.816C45.5403 41.24 45.6283 41.56 45.8043 41.776C45.9883 41.992 46.2843 42.1 46.6923 42.1C46.8123 42.1 46.9323 42.084 47.0523 42.052C47.1803 42.02 47.3043 41.988 47.4243 41.956L47.6163 42.868C47.4963 42.94 47.3283 42.996 47.1123 43.036C46.9043 43.084 46.7043 43.108 46.5123 43.108ZM48.3991 43V37.144H49.5751V38.548H49.4551C49.5831 38.068 49.8111 37.704 50.1391 37.456C50.4751 37.208 50.9191 37.064 51.4711 37.024L51.8671 37L51.9511 38.032L51.2191 38.104C50.6991 38.152 50.3031 38.316 50.0311 38.596C49.7591 38.876 49.6231 39.26 49.6231 39.748V43H48.3991ZM55.3377 43.108C54.7457 43.108 54.2337 42.984 53.8017 42.736C53.3777 42.488 53.0457 42.136 52.8057 41.68C52.5657 41.224 52.4457 40.688 52.4457 40.072C52.4457 39.448 52.5657 38.912 52.8057 38.464C53.0457 38.008 53.3777 37.656 53.8017 37.408C54.2337 37.16 54.7457 37.036 55.3377 37.036C55.9217 37.036 56.4257 37.16 56.8497 37.408C57.2817 37.656 57.6177 38.008 57.8577 38.464C58.0977 38.92 58.2177 39.456 58.2177 40.072C58.2177 40.688 58.0977 41.224 57.8577 41.68C57.6177 42.136 57.2817 42.488 56.8497 42.736C56.4257 42.984 55.9217 43.108 55.3377 43.108ZM55.3257 42.172C55.8297 42.172 56.2337 41.992 56.5377 41.632C56.8417 41.272 56.9937 40.752 56.9937 40.072C56.9937 39.384 56.8417 38.864 56.5377 38.512C56.2337 38.16 55.8297 37.984 55.3257 37.984C54.8297 37.984 54.4297 38.16 54.1257 38.512C53.8217 38.864 53.6697 39.384 53.6697 40.072C53.6697 40.752 53.8217 41.272 54.1257 41.632C54.4297 41.992 54.8297 42.172 55.3257 42.172ZM61.4868 43.108C60.8468 43.108 60.3668 42.928 60.0468 42.568C59.7348 42.2 59.5788 41.672 59.5788 40.984V34.54H60.7908V40.912C60.7908 41.168 60.8268 41.388 60.8988 41.572C60.9708 41.748 61.0788 41.88 61.2228 41.968C61.3668 42.056 61.5468 42.1 61.7628 42.1C61.8588 42.1 61.9508 42.096 62.0388 42.088C62.1268 42.08 62.2108 42.064 62.2908 42.04L62.2668 43.012C62.1308 43.044 61.9988 43.068 61.8708 43.084C61.7428 43.1 61.6148 43.108 61.4868 43.108ZM68.6311 43.108C68.1191 43.108 67.6671 42.988 67.2751 42.748C66.8911 42.5 66.5911 42.148 66.3751 41.692C66.1591 41.228 66.0511 40.688 66.0511 40.072C66.0511 39.44 66.1591 38.9 66.3751 38.452C66.5911 38.004 66.8911 37.656 67.2751 37.408C67.6671 37.16 68.1191 37.036 68.6311 37.036C69.1431 37.036 69.5831 37.164 69.9511 37.42C70.3271 37.668 70.5791 38.004 70.7071 38.428H70.5751V34.54H71.7871V43H70.5991V41.68H70.7191C70.5911 42.112 70.3391 42.46 69.9631 42.724C69.5951 42.98 69.1511 43.108 68.6311 43.108ZM68.9431 42.172C69.4391 42.172 69.8391 41.992 70.1431 41.632C70.4471 41.272 70.5991 40.752 70.5991 40.072C70.5991 39.384 70.4471 38.864 70.1431 38.512C69.8391 38.16 69.4391 37.984 68.9431 37.984C68.4391 37.984 68.0351 38.16 67.7311 38.512C67.4271 38.864 67.2751 39.384 67.2751 40.072C67.2751 40.752 67.4271 41.272 67.7311 41.632C68.0351 41.992 68.4391 42.172 68.9431 42.172ZM76.237 43.108C75.597 43.108 75.045 42.988 74.581 42.748C74.125 42.5 73.769 42.152 73.513 41.704C73.265 41.248 73.141 40.708 73.141 40.084C73.141 39.476 73.265 38.944 73.513 38.488C73.761 38.032 74.101 37.676 74.533 37.42C74.965 37.164 75.457 37.036 76.009 37.036C76.553 37.036 77.017 37.156 77.401 37.396C77.793 37.628 78.093 37.96 78.301 38.392C78.509 38.824 78.613 39.34 78.613 39.94V40.348H74.101V39.604H77.797L77.593 39.772C77.593 39.172 77.461 38.708 77.197 38.38C76.933 38.052 76.553 37.888 76.057 37.888C75.681 37.888 75.361 37.976 75.097 38.152C74.841 38.328 74.645 38.572 74.509 38.884C74.373 39.196 74.305 39.56 74.305 39.976V40.048C74.305 40.512 74.377 40.904 74.521 41.224C74.673 41.536 74.893 41.772 75.181 41.932C75.469 42.092 75.825 42.172 76.249 42.172C76.585 42.172 76.913 42.12 77.233 42.016C77.561 41.904 77.869 41.732 78.157 41.5L78.517 42.34C78.253 42.58 77.913 42.768 77.497 42.904C77.081 43.04 76.661 43.108 76.237 43.108ZM37.1445 59.108C36.8325 59.108 36.5285 59.08 36.2325 59.024C35.9365 58.968 35.6645 58.888 35.4165 58.784C35.1685 58.68 34.9485 58.552 34.7565 58.4L35.1045 57.584C35.3045 57.72 35.5165 57.84 35.7405 57.944C35.9645 58.04 36.1965 58.112 36.4365 58.16C36.6845 58.208 36.9245 58.232 37.1565 58.232C37.5805 58.232 37.9005 58.156 38.1165 58.004C38.3325 57.852 38.4405 57.648 38.4405 57.392C38.4405 57.184 38.3685 57.024 38.2245 56.912C38.0805 56.792 37.8645 56.7 37.5765 56.636L36.4365 56.408C35.9405 56.304 35.5645 56.12 35.3085 55.856C35.0525 55.592 34.9245 55.256 34.9245 54.848C34.9245 54.48 35.0245 54.16 35.2245 53.888C35.4245 53.616 35.7045 53.408 36.0645 53.264C36.4245 53.112 36.8405 53.036 37.3125 53.036C37.5845 53.036 37.8485 53.064 38.1045 53.12C38.3605 53.176 38.6005 53.256 38.8245 53.36C39.0565 53.464 39.2525 53.596 39.4125 53.756L39.0645 54.572C38.9125 54.436 38.7365 54.32 38.5365 54.224C38.3445 54.128 38.1445 54.056 37.9365 54.008C37.7285 53.952 37.5205 53.924 37.3125 53.924C36.8885 53.924 36.5685 54.004 36.3525 54.164C36.1445 54.316 36.0405 54.524 36.0405 54.788C36.0405 54.988 36.1045 55.152 36.2325 55.28C36.3605 55.408 36.5605 55.5 36.8325 55.556L37.9725 55.784C38.4925 55.888 38.8845 56.064 39.1485 56.312C39.4205 56.56 39.5565 56.896 39.5565 57.32C39.5565 57.688 39.4565 58.008 39.2565 58.28C39.0565 58.552 38.7725 58.76 38.4045 58.904C38.0445 59.04 37.6245 59.108 37.1445 59.108ZM42.777 59.108C42.369 59.108 42.001 59.028 41.673 58.868C41.353 58.708 41.101 58.492 40.917 58.22C40.733 57.948 40.641 57.64 40.641 57.296C40.641 56.864 40.749 56.524 40.965 56.276C41.189 56.02 41.553 55.84 42.057 55.736C42.569 55.624 43.257 55.568 44.121 55.568H44.685V56.312H44.133C43.701 56.312 43.337 56.328 43.041 56.36C42.745 56.392 42.509 56.444 42.333 56.516C42.157 56.58 42.029 56.672 41.949 56.792C41.877 56.912 41.841 57.056 41.841 57.224C41.841 57.528 41.945 57.776 42.153 57.968C42.361 58.152 42.649 58.244 43.017 58.244C43.313 58.244 43.573 58.176 43.797 58.04C44.021 57.896 44.197 57.704 44.325 57.464C44.461 57.224 44.529 56.948 44.529 56.636V55.256C44.529 54.8 44.433 54.472 44.241 54.272C44.049 54.072 43.733 53.972 43.293 53.972C42.957 53.972 42.621 54.024 42.285 54.128C41.949 54.224 41.605 54.38 41.253 54.596L40.881 53.744C41.089 53.6 41.329 53.476 41.601 53.372C41.873 53.268 42.157 53.188 42.453 53.132C42.757 53.068 43.049 53.036 43.329 53.036C43.865 53.036 44.305 53.12 44.649 53.288C45.001 53.456 45.261 53.712 45.429 54.056C45.597 54.4 45.681 54.844 45.681 55.388V59H44.541V57.692H44.649C44.585 57.988 44.465 58.244 44.289 58.46C44.121 58.668 43.909 58.828 43.653 58.94C43.397 59.052 43.105 59.108 42.777 59.108ZM49.2583 59.108C48.6183 59.108 48.1383 58.928 47.8183 58.568C47.5063 58.2 47.3503 57.672 47.3503 56.984V50.54H48.5623V56.912C48.5623 57.168 48.5983 57.388 48.6703 57.572C48.7423 57.748 48.8503 57.88 48.9943 57.968C49.1383 58.056 49.3183 58.1 49.5343 58.1C49.6303 58.1 49.7223 58.096 49.8103 58.088C49.8983 58.08 49.9823 58.064 50.0623 58.04L50.0383 59.012C49.9023 59.044 49.7703 59.068 49.6423 59.084C49.5143 59.1 49.3863 59.108 49.2583 59.108ZM50.9103 51.788V50.528H52.3263V51.788H50.9103ZM51.0183 59V53.144H52.2303V59H51.0183ZM56.1682 59.108C55.6562 59.108 55.2042 58.988 54.8122 58.748C54.4282 58.5 54.1282 58.148 53.9122 57.692C53.6962 57.228 53.5882 56.688 53.5882 56.072C53.5882 55.44 53.6962 54.9 53.9122 54.452C54.1282 54.004 54.4282 53.656 54.8122 53.408C55.2042 53.16 55.6562 53.036 56.1682 53.036C56.6802 53.036 57.1202 53.164 57.4882 53.42C57.8642 53.668 58.1162 54.004 58.2442 54.428H58.1122V50.54H59.3242V59H58.1362V57.68H58.2562C58.1282 58.112 57.8762 58.46 57.5002 58.724C57.1322 58.98 56.6882 59.108 56.1682 59.108ZM56.4802 58.172C56.9762 58.172 57.3762 57.992 57.6802 57.632C57.9842 57.272 58.1362 56.752 58.1362 56.072C58.1362 55.384 57.9842 54.864 57.6802 54.512C57.3762 54.16 56.9762 53.984 56.4802 53.984C55.9762 53.984 55.5722 54.16 55.2682 54.512C54.9642 54.864 54.8122 55.384 54.8122 56.072C54.8122 56.752 54.9642 57.272 55.2682 57.632C55.5722 57.992 55.9762 58.172 56.4802 58.172ZM62.8981 59.108C62.4901 59.108 62.1221 59.028 61.7941 58.868C61.4741 58.708 61.2221 58.492 61.0381 58.22C60.8541 57.948 60.7621 57.64 60.7621 57.296C60.7621 56.864 60.8701 56.524 61.0861 56.276C61.3101 56.02 61.6741 55.84 62.1781 55.736C62.6901 55.624 63.3781 55.568 64.2421 55.568H64.8061V56.312H64.2541C63.8221 56.312 63.4581 56.328 63.1621 56.36C62.8661 56.392 62.6301 56.444 62.4541 56.516C62.2781 56.58 62.1501 56.672 62.0701 56.792C61.9981 56.912 61.9621 57.056 61.9621 57.224C61.9621 57.528 62.0661 57.776 62.2741 57.968C62.4821 58.152 62.7701 58.244 63.1381 58.244C63.4341 58.244 63.6941 58.176 63.9181 58.04C64.1421 57.896 64.3181 57.704 64.4461 57.464C64.5821 57.224 64.6501 56.948 64.6501 56.636V55.256C64.6501 54.8 64.5541 54.472 64.3621 54.272C64.1701 54.072 63.8541 53.972 63.4141 53.972C63.0781 53.972 62.7421 54.024 62.4061 54.128C62.0701 54.224 61.7261 54.38 61.3741 54.596L61.0021 53.744C61.2101 53.6 61.4501 53.476 61.7221 53.372C61.9941 53.268 62.2781 53.188 62.5741 53.132C62.8781 53.068 63.1701 53.036 63.4501 53.036C63.9861 53.036 64.4261 53.12 64.7701 53.288C65.1221 53.456 65.3821 53.712 65.5501 54.056C65.7181 54.4 65.8021 54.844 65.8021 55.388V59H64.6621V57.692H64.7701C64.7061 57.988 64.5861 58.244 64.4101 58.46C64.2421 58.668 64.0301 58.828 63.7741 58.94C63.5181 59.052 63.2261 59.108 62.8981 59.108Z" fill="black"/>
<path d="M25.1603 76.11C24.3829 76.11 23.7156 75.9487 23.1583 75.626C22.6009 75.296 22.1719 74.834 21.8713 74.24C21.5706 73.646 21.4203 72.9383 21.4203 72.117C21.4203 71.2957 21.5706 70.5917 21.8713 70.005C22.1719 69.411 22.6009 68.9527 23.1583 68.63C23.7156 68.3073 24.3829 68.146 25.1603 68.146C25.6883 68.146 26.1796 68.2267 26.6343 68.388C27.0963 68.5493 27.4813 68.7877 27.7893 69.103L27.3823 70.016C27.0449 69.7227 26.7003 69.51 26.3483 69.378C25.9963 69.246 25.6113 69.18 25.1933 69.18C24.3719 69.18 23.7413 69.433 23.3013 69.939C22.8613 70.445 22.6413 71.171 22.6413 72.117C22.6413 73.063 22.8613 73.7927 23.3013 74.306C23.7413 74.812 24.3719 75.065 25.1933 75.065C25.6113 75.065 25.9963 74.999 26.3483 74.867C26.7003 74.735 27.0449 74.5223 27.3823 74.229L27.7893 75.142C27.4813 75.45 27.0963 75.6883 26.6343 75.857C26.1796 76.0257 25.6883 76.11 25.1603 76.11ZM30.6602 76.099C30.2788 76.099 29.9378 76.0257 29.6372 75.879C29.3365 75.7323 29.0982 75.5343 28.9222 75.285C28.7535 75.0283 28.6692 74.746 28.6692 74.438C28.6692 74.0347 28.7718 73.7193 28.9772 73.492C29.1898 73.2573 29.5308 73.0887 30.0002 72.986C30.4768 72.8833 31.1075 72.832 31.8922 72.832H32.4752V73.536H31.9142C31.5182 73.536 31.1845 73.5507 30.9132 73.58C30.6418 73.602 30.4218 73.646 30.2532 73.712C30.0918 73.7707 29.9745 73.855 29.9012 73.965C29.8278 74.075 29.7912 74.2107 29.7912 74.372C29.7912 74.6433 29.8865 74.8633 30.0772 75.032C30.2752 75.2007 30.5428 75.285 30.8802 75.285C31.1588 75.285 31.4045 75.219 31.6172 75.087C31.8298 74.955 31.9985 74.779 32.1232 74.559C32.2478 74.339 32.3102 74.086 32.3102 73.8V72.546C32.3102 72.1353 32.2148 71.842 32.0242 71.666C31.8408 71.4827 31.5402 71.391 31.1222 71.391C30.8142 71.391 30.5025 71.4387 30.1872 71.534C29.8792 71.622 29.5638 71.765 29.2412 71.963L28.8892 71.16C29.0945 71.028 29.3218 70.9143 29.5712 70.819C29.8278 70.7163 30.0955 70.6393 30.3742 70.588C30.6528 70.5367 30.9242 70.511 31.1882 70.511C31.6795 70.511 32.0865 70.588 32.4092 70.742C32.7392 70.896 32.9885 71.1307 33.1572 71.446C33.3258 71.7613 33.4102 72.1683 33.4102 72.667V76H32.3652V74.812H32.4312C32.3652 75.0687 32.2478 75.296 32.0792 75.494C31.9178 75.6847 31.7162 75.835 31.4742 75.945C31.2395 76.0477 30.9682 76.099 30.6602 76.099ZM35.0017 77.98V70.61H36.0907V71.809H36.0137C36.1384 71.4057 36.3731 71.0903 36.7177 70.863C37.0624 70.6283 37.4694 70.511 37.9387 70.511C38.4227 70.511 38.8444 70.6247 39.2037 70.852C39.5631 71.0793 39.8417 71.402 40.0397 71.82C40.2377 72.238 40.3367 72.733 40.3367 73.305C40.3367 73.8697 40.2377 74.3647 40.0397 74.79C39.8417 75.208 39.5631 75.5307 39.2037 75.758C38.8517 75.9853 38.4301 76.099 37.9387 76.099C37.4767 76.099 37.0771 75.9853 36.7397 75.758C36.4024 75.5233 36.1677 75.219 36.0357 74.845H36.1347V77.98H35.0017ZM37.6527 75.219C38.1221 75.219 38.4961 75.054 38.7747 74.724C39.0534 74.3867 39.1927 73.9137 39.1927 73.305C39.1927 72.6817 39.0534 72.2087 38.7747 71.886C38.4961 71.5633 38.1221 71.402 37.6527 71.402C37.1834 71.402 36.8094 71.5633 36.5307 71.886C36.2594 72.2087 36.1237 72.6817 36.1237 73.305C36.1237 73.9137 36.2631 74.3867 36.5417 74.724C36.8204 75.054 37.1907 75.219 37.6527 75.219ZM41.6404 76V70.61H42.7734V76H41.6404ZM41.7834 69.906L42.9274 67.684H44.1044L42.5974 69.906H41.7834ZM46.7332 76.099C46.0512 76.099 45.5415 75.9267 45.2042 75.582C44.8668 75.23 44.6982 74.724 44.6982 74.064V71.49H43.6532V70.61H44.7202V69.004H45.8312V70.61H47.5582V71.49H45.8422V73.987C45.8422 74.3683 45.9228 74.658 46.0842 74.856C46.2528 75.054 46.5242 75.153 46.8982 75.153C47.0228 75.153 47.1438 75.1383 47.2612 75.109C47.3785 75.0797 47.4958 75.0467 47.6132 75.01L47.7892 75.868C47.6645 75.9413 47.5032 75.9963 47.3052 76.033C47.1072 76.077 46.9165 76.099 46.7332 76.099ZM50.5594 76.099C50.1194 76.099 49.749 76.0183 49.4484 75.857C49.155 75.6957 48.935 75.4537 48.7884 75.131C48.649 74.8083 48.5794 74.405 48.5794 73.921V70.61H49.7124V73.91C49.7124 74.1887 49.749 74.4233 49.8224 74.614C49.903 74.8047 50.024 74.9477 50.1854 75.043C50.354 75.1383 50.5667 75.186 50.8234 75.186C51.1094 75.186 51.3587 75.1237 51.5714 74.999C51.784 74.867 51.949 74.6837 52.0664 74.449C52.191 74.2143 52.2534 73.9467 52.2534 73.646V70.61H53.3974V76H52.2974V74.823H52.4184C52.257 75.2337 52.015 75.549 51.6924 75.769C51.3697 75.989 50.992 76.099 50.5594 76.099ZM56.7742 76.099C56.1948 76.099 55.7585 75.934 55.4652 75.604C55.1718 75.274 55.0252 74.7973 55.0252 74.174V68.245H56.1582V74.097C56.1582 74.3317 56.1912 74.5297 56.2572 74.691C56.3232 74.845 56.4185 74.9623 56.5432 75.043C56.6752 75.1237 56.8365 75.164 57.0272 75.164C57.1152 75.164 57.2032 75.1603 57.2912 75.153C57.3792 75.1457 57.4635 75.1273 57.5442 75.098L57.5332 76C57.4085 76.0367 57.2838 76.0623 57.1592 76.077C57.0418 76.0917 56.9135 76.099 56.7742 76.099ZM60.7847 76.099C60.242 76.099 59.769 75.9853 59.3657 75.758C58.9697 75.5307 58.6617 75.208 58.4417 74.79C58.2217 74.3647 58.1117 73.8697 58.1117 73.305C58.1117 72.733 58.2217 72.238 58.4417 71.82C58.6617 71.402 58.9697 71.0793 59.3657 70.852C59.769 70.6247 60.242 70.511 60.7847 70.511C61.3274 70.511 61.7967 70.6247 62.1927 70.852C62.596 71.0793 62.9077 71.402 63.1277 71.82C63.3477 72.238 63.4577 72.733 63.4577 73.305C63.4577 73.8697 63.3477 74.3647 63.1277 74.79C62.9077 75.208 62.596 75.5307 62.1927 75.758C61.7967 75.9853 61.3274 76.099 60.7847 76.099ZM60.7847 75.208C61.254 75.208 61.628 75.043 61.9067 74.713C62.1854 74.383 62.3247 73.91 62.3247 73.294C62.3247 72.6853 62.1854 72.2197 61.9067 71.897C61.628 71.5743 61.254 71.413 60.7847 71.413C60.3154 71.413 59.9414 71.5743 59.6627 71.897C59.384 72.2197 59.2447 72.6853 59.2447 73.294C59.2447 73.91 59.384 74.383 59.6627 74.713C59.9414 75.043 60.3154 75.208 60.7847 75.208ZM68.1402 76V75.032H69.9662V69.213L70.5492 69.224L68.5252 70.489L68.0522 69.631L70.2962 68.245H71.1212V75.032H72.8262V76H68.1402ZM76.8149 76.099C76.2136 76.099 75.7039 75.9487 75.2859 75.648C74.8752 75.34 74.5636 74.889 74.3509 74.295C74.1456 73.701 74.0429 72.975 74.0429 72.117C74.0429 71.2443 74.1456 70.5147 74.3509 69.928C74.5636 69.3413 74.8752 68.8977 75.2859 68.597C75.7039 68.2963 76.2136 68.146 76.8149 68.146C77.4236 68.146 77.9332 68.2963 78.3439 68.597C78.7546 68.8903 79.0626 69.334 79.2679 69.928C79.4806 70.5147 79.5869 71.2407 79.5869 72.106C79.5869 72.964 79.4806 73.69 79.2679 74.284C79.0626 74.878 78.7509 75.329 78.3329 75.637C77.9222 75.945 77.4162 76.099 76.8149 76.099ZM76.8149 75.131C77.3722 75.131 77.7866 74.889 78.0579 74.405C78.3292 73.9137 78.4649 73.1473 78.4649 72.106C78.4649 71.0647 78.3292 70.3057 78.0579 69.829C77.7939 69.3523 77.3796 69.114 76.8149 69.114C76.2576 69.114 75.8432 69.3523 75.5719 69.829C75.3006 70.3057 75.1649 71.0647 75.1649 72.106C75.1649 73.1473 75.3006 73.9137 75.5719 74.405C75.8432 74.889 76.2576 75.131 76.8149 75.131Z" fill="#667085"/>
<defs>
<filter id="filter0_d_8334_725" x="0" y="5.34326" width="101.04" height="85.8501" filterUnits="userSpaceOnUse" color-interpolation-filters="sRGB">
<feFlood flood-opacity="0" result="BackgroundImageFix"/>
<feColorMatrix in="SourceAlpha" type="matrix" values="0 0 0 0 0 0 0 0 0 0 0 0 0 0 0 0 0 0 127 0" result="hardAlpha"/>
<feOffset dy="4"/>
<feGaussianBlur stdDeviation="2"/>
<feComposite in2="hardAlpha" operator="out"/>
<feColorMatrix type="matrix" values="0 0 0 0 0 0 0 0 0 0 0 0 0 0 0 0 0 0 0.25 0"/>
<feBlend mode="normal" in2="BackgroundImageFix" result="effect1_dropShadow_8334_725"/>
<feBlend mode="normal" in="SourceGraphic" in2="effect1_dropShadow_8334_725" result="shape"/>
</filter>
</defs>
</svg>
