<svg width="96" height="89" viewBox="0 0 96 89" fill="none" xmlns="http://www.w3.org/2000/svg">
<g filter="url(#filter0_d_8310_1103)">
<path d="M5.37285 45.1921C4.62083 43.8824 4.24484 43.2272 4.09767 42.531C3.96744 41.9148 3.96744 41.2784 4.09767 40.6622C4.24484 39.966 4.62083 39.3107 5.37285 38.001L23.5901 6.26913C24.3421 4.95928 24.7181 4.30435 25.2442 3.82802C25.7096 3.40658 26.2579 3.0882 26.8535 2.89359C27.5267 2.67358 28.2787 2.67358 29.7827 2.67358H66.2171C67.7214 2.67358 68.4731 2.67358 69.1466 2.89359C69.7419 3.0882 70.2903 3.40658 70.756 3.82802C71.282 4.30435 71.6578 4.95928 72.41 6.26913L90.6271 38.001C91.3792 39.3107 91.7551 39.966 91.9021 40.6622C92.0326 41.2784 92.0326 41.9148 91.9021 42.531C91.7551 43.2272 91.3792 43.8824 90.6271 45.1921L72.41 76.9242C71.6578 78.2339 71.282 78.8887 70.756 79.3651C70.2903 79.7867 69.7419 80.1049 69.1466 80.2995C68.4731 80.5197 67.7214 80.5197 66.2171 80.5197H29.7827C28.2787 80.5197 27.5267 80.5197 26.8535 80.2995C26.2579 80.1049 25.7096 79.7867 25.2442 79.3651C24.7181 78.8887 24.3421 78.2339 23.5901 76.9242L5.37285 45.1921Z" fill="white"/>
</g>
<path d="M58.2051 3.17358H38.2051C36.8244 3.17358 35.7051 4.29287 35.7051 5.67358V25.6736C35.7051 27.0543 36.8244 28.1736 38.2051 28.1736H58.2051C59.5858 28.1736 60.7051 27.0543 60.7051 25.6736V5.67358C60.7051 4.29287 59.5858 3.17358 58.2051 3.17358Z" fill="#F2BB41"/>
<path d="M54.4551 16.9235H45.7051V13.686L46.0676 14.061C46.1838 14.1782 46.322 14.2712 46.4743 14.3346C46.6267 14.3981 46.7901 14.4308 46.9551 14.4308C47.1201 14.4308 47.2835 14.3981 47.4358 14.3346C47.5881 14.2712 47.7264 14.1782 47.8426 14.061C47.9597 13.9448 48.0527 13.8066 48.1162 13.6542C48.1796 13.5019 48.2123 13.3385 48.2123 13.1735C48.2123 13.0085 48.1796 12.8451 48.1162 12.6928C48.0527 12.5405 47.9597 12.4022 47.8426 12.286L45.3426 9.78601C45.2264 9.66885 45.0881 9.57585 44.9358 9.51239C44.7835 9.44893 44.6201 9.41626 44.4551 9.41626C44.2901 9.41626 44.1267 9.44893 43.9743 9.51239C43.822 9.57585 43.6838 9.66885 43.5676 9.78601L41.0676 12.286C40.951 12.4026 40.8586 12.5409 40.7955 12.6932C40.7324 12.8455 40.7 13.0087 40.7 13.1735C40.7 13.5064 40.8322 13.8256 41.0676 14.061C41.3029 14.2964 41.6222 14.4286 41.9551 14.4286C42.2879 14.4286 42.6072 14.2964 42.8426 14.061L43.2051 13.686V16.9235C43.2051 17.5865 43.4685 18.2224 43.9373 18.6913C44.4061 19.1601 45.042 19.4235 45.7051 19.4235H54.4551C54.7866 19.4235 55.1045 19.2918 55.3389 19.0574C55.5734 18.823 55.7051 18.505 55.7051 18.1735C55.7051 17.842 55.5734 17.524 55.3389 17.2896C55.1045 17.0552 54.7866 16.9235 54.4551 16.9235Z" fill="#E08838"/>
<path d="M23.9328 43.6736V36.2576H20.9328V35.2136H28.1688V36.2576H25.1688V43.6736H23.9328ZM30.0189 43.7816C29.6109 43.7816 29.2429 43.7016 28.9149 43.5416C28.5949 43.3816 28.3429 43.1656 28.1589 42.8936C27.9749 42.6216 27.8829 42.3136 27.8829 41.9696C27.8829 41.5376 27.9909 41.1976 28.2069 40.9496C28.4309 40.6936 28.7949 40.5136 29.2989 40.4096C29.8109 40.2976 30.4989 40.2416 31.3629 40.2416H31.9269V40.9856H31.3749C30.9429 40.9856 30.5789 41.0016 30.2829 41.0336C29.9869 41.0656 29.7509 41.1176 29.5749 41.1896C29.3989 41.2536 29.2709 41.3456 29.1909 41.4656C29.1189 41.5856 29.0829 41.7296 29.0829 41.8976C29.0829 42.2016 29.1869 42.4496 29.3949 42.6416C29.6029 42.8256 29.8909 42.9176 30.2589 42.9176C30.5549 42.9176 30.8149 42.8496 31.0389 42.7136C31.2629 42.5696 31.4389 42.3776 31.5669 42.1376C31.7029 41.8976 31.7709 41.6216 31.7709 41.3096V39.9296C31.7709 39.4736 31.6749 39.1456 31.4829 38.9456C31.2909 38.7456 30.9749 38.6456 30.5349 38.6456C30.1989 38.6456 29.8629 38.6976 29.5269 38.8016C29.1909 38.8976 28.8469 39.0536 28.4949 39.2696L28.1229 38.4176C28.3309 38.2736 28.5709 38.1496 28.8429 38.0456C29.1149 37.9416 29.3989 37.8616 29.6949 37.8056C29.9989 37.7416 30.2909 37.7096 30.5709 37.7096C31.1069 37.7096 31.5469 37.7936 31.8909 37.9616C32.2429 38.1296 32.5029 38.3856 32.6709 38.7296C32.8389 39.0736 32.9229 39.5176 32.9229 40.0616V43.6736H31.7829V42.3656H31.8909C31.8269 42.6616 31.7069 42.9176 31.5309 43.1336C31.3629 43.3416 31.1509 43.5016 30.8949 43.6136C30.6389 43.7256 30.3469 43.7816 30.0189 43.7816ZM34.5922 43.6736V37.8176H35.7682V39.2216H35.6482C35.7762 38.7416 36.0042 38.3776 36.3322 38.1296C36.6682 37.8816 37.1122 37.7376 37.6642 37.6976L38.0602 37.6736L38.1442 38.7056L37.4122 38.7776C36.8922 38.8256 36.4962 38.9896 36.2242 39.2696C35.9522 39.5496 35.8162 39.9336 35.8162 40.4216V43.6736H34.5922ZM41.7348 43.7816C41.0948 43.7816 40.5428 43.6616 40.0788 43.4216C39.6228 43.1736 39.2668 42.8256 39.0108 42.3776C38.7628 41.9216 38.6388 41.3816 38.6388 40.7576C38.6388 40.1496 38.7628 39.6176 39.0108 39.1616C39.2588 38.7056 39.5988 38.3496 40.0308 38.0936C40.4628 37.8376 40.9548 37.7096 41.5068 37.7096C42.0508 37.7096 42.5148 37.8296 42.8988 38.0696C43.2908 38.3016 43.5908 38.6336 43.7988 39.0656C44.0068 39.4976 44.1108 40.0136 44.1108 40.6136V41.0216H39.5988V40.2776H43.2948L43.0908 40.4456C43.0908 39.8456 42.9588 39.3816 42.6948 39.0536C42.4308 38.7256 42.0508 38.5616 41.5548 38.5616C41.1788 38.5616 40.8588 38.6496 40.5948 38.8256C40.3388 39.0016 40.1428 39.2456 40.0068 39.5576C39.8708 39.8696 39.8028 40.2336 39.8028 40.6496V40.7216C39.8028 41.1856 39.8748 41.5776 40.0188 41.8976C40.1708 42.2096 40.3908 42.4456 40.6788 42.6056C40.9668 42.7656 41.3228 42.8456 41.7468 42.8456C42.0828 42.8456 42.4108 42.7936 42.7308 42.6896C43.0588 42.5776 43.3668 42.4056 43.6548 42.1736L44.0148 43.0136C43.7508 43.2536 43.4108 43.4416 42.9948 43.5776C42.5788 43.7136 42.1588 43.7816 41.7348 43.7816ZM47.3041 43.7816C46.8961 43.7816 46.5281 43.7016 46.2001 43.5416C45.8801 43.3816 45.6281 43.1656 45.4441 42.8936C45.2601 42.6216 45.1681 42.3136 45.1681 41.9696C45.1681 41.5376 45.2761 41.1976 45.4921 40.9496C45.7161 40.6936 46.0801 40.5136 46.5841 40.4096C47.0961 40.2976 47.7841 40.2416 48.6481 40.2416H49.2121V40.9856H48.6601C48.2281 40.9856 47.8641 41.0016 47.5681 41.0336C47.2721 41.0656 47.0361 41.1176 46.8601 41.1896C46.6841 41.2536 46.5561 41.3456 46.4761 41.4656C46.4041 41.5856 46.3681 41.7296 46.3681 41.8976C46.3681 42.2016 46.4721 42.4496 46.6801 42.6416C46.8881 42.8256 47.1761 42.9176 47.5441 42.9176C47.8401 42.9176 48.1001 42.8496 48.3241 42.7136C48.5481 42.5696 48.7241 42.3776 48.8521 42.1376C48.9881 41.8976 49.0561 41.6216 49.0561 41.3096V39.9296C49.0561 39.4736 48.9601 39.1456 48.7681 38.9456C48.5761 38.7456 48.2601 38.6456 47.8201 38.6456C47.4841 38.6456 47.1481 38.6976 46.8121 38.8016C46.4761 38.8976 46.1321 39.0536 45.7801 39.2696L45.4081 38.4176C45.6161 38.2736 45.8561 38.1496 46.1281 38.0456C46.4001 37.9416 46.6841 37.8616 46.9801 37.8056C47.2841 37.7416 47.5761 37.7096 47.8561 37.7096C48.3921 37.7096 48.8321 37.7936 49.1761 37.9616C49.5281 38.1296 49.7881 38.3856 49.9561 38.7296C50.1241 39.0736 50.2081 39.5176 50.2081 40.0616V43.6736H49.0681V42.3656H49.1761C49.1121 42.6616 48.9921 42.9176 48.8161 43.1336C48.6481 43.3416 48.4361 43.5016 48.1801 43.6136C47.9241 43.7256 47.6321 43.7816 47.3041 43.7816ZM53.9294 43.7816C53.6174 43.7816 53.3134 43.7536 53.0174 43.6976C52.7214 43.6416 52.4494 43.5616 52.2014 43.4576C51.9534 43.3536 51.7334 43.2256 51.5414 43.0736L51.8894 42.2576C52.0894 42.3936 52.3014 42.5136 52.5254 42.6176C52.7494 42.7136 52.9814 42.7856 53.2214 42.8336C53.4694 42.8816 53.7094 42.9056 53.9414 42.9056C54.3654 42.9056 54.6854 42.8296 54.9014 42.6776C55.1174 42.5256 55.2254 42.3216 55.2254 42.0656C55.2254 41.8576 55.1534 41.6976 55.0094 41.5856C54.8654 41.4656 54.6494 41.3736 54.3614 41.3096L53.2214 41.0816C52.7254 40.9776 52.3494 40.7936 52.0934 40.5296C51.8374 40.2656 51.7094 39.9296 51.7094 39.5216C51.7094 39.1536 51.8094 38.8336 52.0094 38.5616C52.2094 38.2896 52.4894 38.0816 52.8494 37.9376C53.2094 37.7856 53.6254 37.7096 54.0974 37.7096C54.3694 37.7096 54.6334 37.7376 54.8894 37.7936C55.1454 37.8496 55.3854 37.9296 55.6094 38.0336C55.8414 38.1376 56.0374 38.2696 56.1974 38.4296L55.8494 39.2456C55.6974 39.1096 55.5214 38.9936 55.3214 38.8976C55.1294 38.8016 54.9294 38.7296 54.7214 38.6816C54.5134 38.6256 54.3054 38.5976 54.0974 38.5976C53.6734 38.5976 53.3534 38.6776 53.1374 38.8376C52.9294 38.9896 52.8254 39.1976 52.8254 39.4616C52.8254 39.6616 52.8894 39.8256 53.0174 39.9536C53.1454 40.0816 53.3454 40.1736 53.6174 40.2296L54.7574 40.4576C55.2774 40.5616 55.6694 40.7376 55.9334 40.9856C56.2054 41.2336 56.3414 41.5696 56.3414 41.9936C56.3414 42.3616 56.2414 42.6816 56.0414 42.9536C55.8414 43.2256 55.5574 43.4336 55.1894 43.5776C54.8294 43.7136 54.4094 43.7816 53.9294 43.7816ZM63.0742 43.7816C62.5622 43.7816 62.1102 43.6616 61.7182 43.4216C61.3342 43.1736 61.0342 42.8216 60.8182 42.3656C60.6022 41.9016 60.4942 41.3616 60.4942 40.7456C60.4942 40.1136 60.6022 39.5736 60.8182 39.1256C61.0342 38.6776 61.3342 38.3296 61.7182 38.0816C62.1102 37.8336 62.5622 37.7096 63.0742 37.7096C63.5862 37.7096 64.0262 37.8376 64.3942 38.0936C64.7702 38.3416 65.0222 38.6776 65.1502 39.1016H65.0182V35.2136H66.2302V43.6736H65.0422V42.3536H65.1622C65.0342 42.7856 64.7822 43.1336 64.4062 43.3976C64.0382 43.6536 63.5942 43.7816 63.0742 43.7816ZM63.3862 42.8456C63.8822 42.8456 64.2822 42.6656 64.5862 42.3056C64.8902 41.9456 65.0422 41.4256 65.0422 40.7456C65.0422 40.0576 64.8902 39.5376 64.5862 39.1856C64.2822 38.8336 63.8822 38.6576 63.3862 38.6576C62.8822 38.6576 62.4782 38.8336 62.1742 39.1856C61.8702 39.5376 61.7182 40.0576 61.7182 40.7456C61.7182 41.4256 61.8702 41.9456 62.1742 42.3056C62.4782 42.6656 62.8822 42.8456 63.3862 42.8456ZM70.6801 43.7816C70.0401 43.7816 69.4881 43.6616 69.0241 43.4216C68.5681 43.1736 68.2121 42.8256 67.9561 42.3776C67.7081 41.9216 67.5841 41.3816 67.5841 40.7576C67.5841 40.1496 67.7081 39.6176 67.9561 39.1616C68.2041 38.7056 68.5441 38.3496 68.9761 38.0936C69.4081 37.8376 69.9001 37.7096 70.4521 37.7096C70.9961 37.7096 71.4601 37.8296 71.8441 38.0696C72.2361 38.3016 72.5361 38.6336 72.7441 39.0656C72.9521 39.4976 73.0561 40.0136 73.0561 40.6136V41.0216H68.5441V40.2776H72.2401L72.0361 40.4456C72.0361 39.8456 71.9041 39.3816 71.6401 39.0536C71.3761 38.7256 70.9961 38.5616 70.5001 38.5616C70.1241 38.5616 69.8041 38.6496 69.5401 38.8256C69.2841 39.0016 69.0881 39.2456 68.9521 39.5576C68.8161 39.8696 68.7481 40.2336 68.7481 40.6496V40.7216C68.7481 41.1856 68.8201 41.5776 68.9641 41.8976C69.1161 42.2096 69.3361 42.4456 69.6241 42.6056C69.9121 42.7656 70.2681 42.8456 70.6921 42.8456C71.0281 42.8456 71.3561 42.7936 71.6761 42.6896C72.0041 42.5776 72.3121 42.4056 72.6001 42.1736L72.9601 43.0136C72.6961 43.2536 72.3561 43.4416 71.9401 43.5776C71.5241 43.7136 71.1041 43.7816 70.6801 43.7816ZM20.2328 59.7816C19.6328 59.7816 19.1128 59.6576 18.6728 59.4096C18.2408 59.1536 17.9048 58.7976 17.6648 58.3416C17.4248 57.8776 17.3048 57.3336 17.3048 56.7096C17.3048 56.0936 17.4248 55.5616 17.6648 55.1136C17.9048 54.6656 18.2408 54.3216 18.6728 54.0816C19.1128 53.8336 19.6328 53.7096 20.2328 53.7096C20.6008 53.7096 20.9648 53.7736 21.3248 53.9016C21.6848 54.0216 21.9808 54.1976 22.2128 54.4296L21.8288 55.2816C21.6128 55.0736 21.3688 54.9216 21.0968 54.8256C20.8248 54.7216 20.5688 54.6696 20.3288 54.6696C19.7608 54.6696 19.3208 54.8496 19.0088 55.2096C18.7048 55.5616 18.5528 56.0656 18.5528 56.7216C18.5528 57.3776 18.7048 57.8936 19.0088 58.2696C19.3208 58.6376 19.7608 58.8216 20.3288 58.8216C20.5688 58.8216 20.8248 58.7736 21.0968 58.6776C21.3688 58.5736 21.6128 58.4176 21.8288 58.2096L22.2128 59.0736C21.9808 59.2896 21.6808 59.4616 21.3128 59.5896C20.9528 59.7176 20.5928 59.7816 20.2328 59.7816ZM25.6812 59.7816C25.0892 59.7816 24.5772 59.6576 24.1452 59.4096C23.7212 59.1616 23.3892 58.8096 23.1492 58.3536C22.9092 57.8976 22.7892 57.3616 22.7892 56.7456C22.7892 56.1216 22.9092 55.5856 23.1492 55.1376C23.3892 54.6816 23.7212 54.3296 24.1452 54.0816C24.5772 53.8336 25.0892 53.7096 25.6812 53.7096C26.2652 53.7096 26.7692 53.8336 27.1932 54.0816C27.6252 54.3296 27.9612 54.6816 28.2012 55.1376C28.4412 55.5936 28.5612 56.1296 28.5612 56.7456C28.5612 57.3616 28.4412 57.8976 28.2012 58.3536C27.9612 58.8096 27.6252 59.1616 27.1932 59.4096C26.7692 59.6576 26.2652 59.7816 25.6812 59.7816ZM25.6692 58.8456C26.1732 58.8456 26.5772 58.6656 26.8812 58.3056C27.1852 57.9456 27.3372 57.4256 27.3372 56.7456C27.3372 56.0576 27.1852 55.5376 26.8812 55.1856C26.5772 54.8336 26.1732 54.6576 25.6692 54.6576C25.1732 54.6576 24.7732 54.8336 24.4692 55.1856C24.1652 55.5376 24.0132 56.0576 24.0132 56.7456C24.0132 57.4256 24.1652 57.9456 24.4692 58.3056C24.7732 58.6656 25.1732 58.8456 25.6692 58.8456ZM29.9223 59.6736V53.8176H31.0983V55.0656H30.9663C31.1423 54.6176 31.4183 54.2816 31.7943 54.0576C32.1703 53.8256 32.6023 53.7096 33.0903 53.7096C33.5543 53.7096 33.9383 53.7976 34.2423 53.9736C34.5543 54.1416 34.7863 54.4016 34.9383 54.7536C35.0903 55.0976 35.1663 55.5336 35.1663 56.0616V59.6736H33.9543V56.1336C33.9543 55.7976 33.9103 55.5256 33.8223 55.3176C33.7343 55.1016 33.6023 54.9416 33.4263 54.8376C33.2503 54.7336 33.0223 54.6816 32.7423 54.6816C32.4223 54.6816 32.1383 54.7496 31.8903 54.8856C31.6503 55.0216 31.4623 55.2176 31.3263 55.4736C31.1983 55.7296 31.1343 56.0256 31.1343 56.3616V59.6736H29.9223ZM39.0684 59.7816C38.5564 59.7816 38.1044 59.6616 37.7124 59.4216C37.3284 59.1736 37.0284 58.8216 36.8124 58.3656C36.5964 57.9016 36.4884 57.3616 36.4884 56.7456C36.4884 56.1136 36.5964 55.5736 36.8124 55.1256C37.0284 54.6776 37.3284 54.3296 37.7124 54.0816C38.1044 53.8336 38.5564 53.7096 39.0684 53.7096C39.5804 53.7096 40.0204 53.8376 40.3884 54.0936C40.7644 54.3416 41.0164 54.6776 41.1444 55.1016H41.0124V51.2136H42.2244V59.6736H41.0364V58.3536H41.1564C41.0284 58.7856 40.7764 59.1336 40.4004 59.3976C40.0324 59.6536 39.5884 59.7816 39.0684 59.7816ZM39.3804 58.8456C39.8764 58.8456 40.2764 58.6656 40.5804 58.3056C40.8844 57.9456 41.0364 57.4256 41.0364 56.7456C41.0364 56.0576 40.8844 55.5376 40.5804 55.1856C40.2764 54.8336 39.8764 54.6576 39.3804 54.6576C38.8764 54.6576 38.4724 54.8336 38.1684 55.1856C37.8644 55.5376 37.7124 56.0576 37.7124 56.7456C37.7124 57.4256 37.8644 57.9456 38.1684 58.3056C38.4724 58.6656 38.8764 58.8456 39.3804 58.8456ZM46.0142 59.7816C45.5422 59.7816 45.1462 59.6936 44.8262 59.5176C44.5142 59.3416 44.2782 59.0816 44.1182 58.7376C43.9662 58.3856 43.8902 57.9456 43.8902 57.4176V53.8176H45.1022V57.4296C45.1022 57.7416 45.1422 58.0016 45.2222 58.2096C45.3102 58.4176 45.4422 58.5696 45.6182 58.6656C45.8022 58.7616 46.0302 58.8096 46.3022 58.8096C46.6062 58.8096 46.8742 58.7416 47.1062 58.6056C47.3382 58.4696 47.5182 58.2736 47.6462 58.0176C47.7742 57.7616 47.8382 57.4656 47.8382 57.1296V53.8176H49.0502V59.6736H47.8742V58.3896H48.0302C47.8702 58.8376 47.6142 59.1816 47.2622 59.4216C46.9102 59.6616 46.4942 59.7816 46.0142 59.7816ZM53.3383 59.7816C52.7383 59.7816 52.2183 59.6576 51.7783 59.4096C51.3463 59.1536 51.0103 58.7976 50.7703 58.3416C50.5303 57.8776 50.4103 57.3336 50.4103 56.7096C50.4103 56.0936 50.5303 55.5616 50.7703 55.1136C51.0103 54.6656 51.3463 54.3216 51.7783 54.0816C52.2183 53.8336 52.7383 53.7096 53.3383 53.7096C53.7063 53.7096 54.0703 53.7736 54.4303 53.9016C54.7903 54.0216 55.0863 54.1976 55.3183 54.4296L54.9343 55.2816C54.7183 55.0736 54.4743 54.9216 54.2023 54.8256C53.9303 54.7216 53.6743 54.6696 53.4342 54.6696C52.8663 54.6696 52.4263 54.8496 52.1143 55.2096C51.8103 55.5616 51.6583 56.0656 51.6583 56.7216C51.6583 57.3776 51.8103 57.8936 52.1143 58.2696C52.4263 58.6376 52.8663 58.8216 53.4342 58.8216C53.6743 58.8216 53.9303 58.7736 54.2023 58.6776C54.4743 58.5736 54.7183 58.4176 54.9343 58.2096L55.3183 59.0736C55.0863 59.2896 54.7863 59.4616 54.4183 59.5896C54.0583 59.7176 53.6983 59.7816 53.3383 59.7816ZM58.8226 59.7816C58.2226 59.7816 57.7026 59.6576 57.2626 59.4096C56.8306 59.1536 56.4946 58.7976 56.2546 58.3416C56.0146 57.8776 55.8946 57.3336 55.8946 56.7096C55.8946 56.0936 56.0146 55.5616 56.2546 55.1136C56.4946 54.6656 56.8306 54.3216 57.2626 54.0816C57.7026 53.8336 58.2226 53.7096 58.8226 53.7096C59.1906 53.7096 59.5546 53.7736 59.9146 53.9016C60.2746 54.0216 60.5706 54.1976 60.8026 54.4296L60.4186 55.2816C60.2026 55.0736 59.9586 54.9216 59.6866 54.8256C59.4146 54.7216 59.1586 54.6696 58.9186 54.6696C58.3506 54.6696 57.9106 54.8496 57.5986 55.2096C57.2946 55.5616 57.1426 56.0656 57.1426 56.7216C57.1426 57.3776 57.2946 57.8936 57.5986 58.2696C57.9106 58.6376 58.3506 58.8216 58.9186 58.8216C59.1586 58.8216 59.4146 58.7736 59.6866 58.6776C59.9586 58.5736 60.2026 58.4176 60.4186 58.2096L60.8026 59.0736C60.5706 59.2896 60.2706 59.4616 59.9026 59.5896C59.5426 59.7176 59.1826 59.7816 58.8226 59.7816ZM61.7362 52.4616V51.2016H63.1522V52.4616H61.7362ZM61.8442 59.6736V53.8176H63.0562V59.6736H61.8442ZM67.3062 59.7816C66.7142 59.7816 66.2022 59.6576 65.7702 59.4096C65.3462 59.1616 65.0142 58.8096 64.7742 58.3536C64.5342 57.8976 64.4142 57.3616 64.4142 56.7456C64.4142 56.1216 64.5342 55.5856 64.7742 55.1376C65.0142 54.6816 65.3462 54.3296 65.7702 54.0816C66.2022 53.8336 66.7142 53.7096 67.3062 53.7096C67.8902 53.7096 68.3942 53.8336 68.8182 54.0816C69.2502 54.3296 69.5862 54.6816 69.8262 55.1376C70.0662 55.5936 70.1862 56.1296 70.1862 56.7456C70.1862 57.3616 70.0662 57.8976 69.8262 58.3536C69.5862 58.8096 69.2502 59.1616 68.8182 59.4096C68.3942 59.6576 67.8902 59.7816 67.3062 59.7816ZM67.2942 58.8456C67.7982 58.8456 68.2022 58.6656 68.5062 58.3056C68.8102 57.9456 68.9622 57.4256 68.9622 56.7456C68.9622 56.0576 68.8102 55.5376 68.5062 55.1856C68.2022 54.8336 67.7982 54.6576 67.2942 54.6576C66.7982 54.6576 66.3982 54.8336 66.0942 55.1856C65.7902 55.5376 65.6382 56.0576 65.6382 56.7456C65.6382 57.4256 65.7902 57.9456 66.0942 58.3056C66.3982 58.6656 66.7982 58.8456 67.2942 58.8456ZM66.8862 53.0376L68.1222 50.6136H69.3582L67.7262 53.0376H66.8862ZM71.5473 59.6736V53.8176H72.7233V55.0656H72.5913C72.7673 54.6176 73.0433 54.2816 73.4193 54.0576C73.7953 53.8256 74.2273 53.7096 74.7153 53.7096C75.1793 53.7096 75.5633 53.7976 75.8673 53.9736C76.1793 54.1416 76.4113 54.4016 76.5633 54.7536C76.7153 55.0976 76.7913 55.5336 76.7913 56.0616V59.6736H75.5793V56.1336C75.5793 55.7976 75.5353 55.5256 75.4473 55.3176C75.3593 55.1016 75.2273 54.9416 75.0513 54.8376C74.8753 54.7336 74.6473 54.6816 74.3673 54.6816C74.0473 54.6816 73.7633 54.7496 73.5153 54.8856C73.2753 55.0216 73.0873 55.2176 72.9513 55.4736C72.8233 55.7296 72.7593 56.0256 72.7593 56.3616V59.6736H71.5473Z" fill="black"/>
<path d="M25.2333 75.7836C24.456 75.7836 23.7886 75.6223 23.2313 75.2996C22.674 74.9696 22.245 74.5076 21.9443 73.9136C21.6436 73.3196 21.4933 72.6119 21.4933 71.7906C21.4933 70.9693 21.6436 70.2653 21.9443 69.6786C22.245 69.0846 22.674 68.6263 23.2313 68.3036C23.7886 67.9809 24.456 67.8196 25.2333 67.8196C25.7613 67.8196 26.2526 67.9003 26.7073 68.0616C27.1693 68.2229 27.5543 68.4613 27.8623 68.7766L27.4553 69.6896C27.118 69.3963 26.7733 69.1836 26.4213 69.0516C26.0693 68.9196 25.6843 68.8536 25.2663 68.8536C24.445 68.8536 23.8143 69.1066 23.3743 69.6126C22.9343 70.1186 22.7143 70.8446 22.7143 71.7906C22.7143 72.7366 22.9343 73.4663 23.3743 73.9796C23.8143 74.4856 24.445 74.7386 25.2663 74.7386C25.6843 74.7386 26.0693 74.6726 26.4213 74.5406C26.7733 74.4086 27.118 74.1959 27.4553 73.9026L27.8623 74.8156C27.5543 75.1236 27.1693 75.3619 26.7073 75.5306C26.2526 75.6993 25.7613 75.7836 25.2333 75.7836ZM30.7332 75.7726C30.3519 75.7726 30.0109 75.6993 29.7102 75.5526C29.4096 75.4059 29.1712 75.2079 28.9952 74.9586C28.8266 74.7019 28.7422 74.4196 28.7422 74.1116C28.7422 73.7083 28.8449 73.3929 29.0502 73.1656C29.2629 72.9309 29.6039 72.7623 30.0732 72.6596C30.5499 72.5569 31.1806 72.5056 31.9652 72.5056H32.5482V73.2096H31.9872C31.5912 73.2096 31.2576 73.2243 30.9862 73.2536C30.7149 73.2756 30.4949 73.3196 30.3262 73.3856C30.1649 73.4443 30.0476 73.5286 29.9742 73.6386C29.9009 73.7486 29.8642 73.8843 29.8642 74.0456C29.8642 74.3169 29.9596 74.5369 30.1502 74.7056C30.3482 74.8743 30.6159 74.9586 30.9532 74.9586C31.2319 74.9586 31.4776 74.8926 31.6902 74.7606C31.9029 74.6286 32.0716 74.4526 32.1962 74.2326C32.3209 74.0126 32.3832 73.7596 32.3832 73.4736V72.2196C32.3832 71.8089 32.2879 71.5156 32.0972 71.3396C31.9139 71.1563 31.6132 71.0646 31.1952 71.0646C30.8872 71.0646 30.5756 71.1123 30.2602 71.2076C29.9522 71.2956 29.6369 71.4386 29.3142 71.6366L28.9622 70.8336C29.1676 70.7016 29.3949 70.5879 29.6442 70.4926C29.9009 70.3899 30.1686 70.3129 30.4472 70.2616C30.7259 70.2103 30.9972 70.1846 31.2612 70.1846C31.7526 70.1846 32.1596 70.2616 32.4822 70.4156C32.8122 70.5696 33.0616 70.8043 33.2302 71.1196C33.3989 71.4349 33.4832 71.8419 33.4832 72.3406V75.6736H32.4382V74.4856H32.5042C32.4382 74.7423 32.3209 74.9696 32.1522 75.1676C31.9909 75.3583 31.7892 75.5086 31.5472 75.6186C31.3126 75.7213 31.0412 75.7726 30.7332 75.7726ZM35.0748 77.6536V70.2836H36.1638V71.4826H36.0868C36.2115 71.0793 36.4461 70.7639 36.7908 70.5366C37.1355 70.3019 37.5425 70.1846 38.0118 70.1846C38.4958 70.1846 38.9175 70.2983 39.2768 70.5256C39.6361 70.7529 39.9148 71.0756 40.1128 71.4936C40.3108 71.9116 40.4098 72.4066 40.4098 72.9786C40.4098 73.5433 40.3108 74.0383 40.1128 74.4636C39.9148 74.8816 39.6361 75.2043 39.2768 75.4316C38.9248 75.6589 38.5031 75.7726 38.0118 75.7726C37.5498 75.7726 37.1501 75.6589 36.8128 75.4316C36.4755 75.1969 36.2408 74.8926 36.1088 74.5186H36.2078V77.6536H35.0748ZM37.7258 74.8926C38.1951 74.8926 38.5691 74.7276 38.8478 74.3976C39.1265 74.0603 39.2658 73.5873 39.2658 72.9786C39.2658 72.3553 39.1265 71.8823 38.8478 71.5596C38.5691 71.2369 38.1951 71.0756 37.7258 71.0756C37.2565 71.0756 36.8825 71.2369 36.6038 71.5596C36.3325 71.8823 36.1968 72.3553 36.1968 72.9786C36.1968 73.5873 36.3361 74.0603 36.6148 74.3976C36.8935 74.7276 37.2638 74.8926 37.7258 74.8926ZM41.7135 75.6736V70.2836H42.8465V75.6736H41.7135ZM41.8565 69.5796L43.0005 67.3576H44.1775L42.6705 69.5796H41.8565ZM46.8062 75.7726C46.1242 75.7726 45.6145 75.6003 45.2772 75.2556C44.9399 74.9036 44.7712 74.3976 44.7712 73.7376V71.1636H43.7262V70.2836H44.7932V68.6776H45.9042V70.2836H47.6312V71.1636H45.9152V73.6606C45.9152 74.0419 45.9959 74.3316 46.1572 74.5296C46.3259 74.7276 46.5972 74.8266 46.9712 74.8266C47.0959 74.8266 47.2169 74.8119 47.3342 74.7826C47.4515 74.7533 47.5689 74.7203 47.6862 74.6836L47.8622 75.5416C47.7375 75.6149 47.5762 75.6699 47.3782 75.7066C47.1802 75.7506 46.9895 75.7726 46.8062 75.7726ZM50.6324 75.7726C50.1924 75.7726 49.8221 75.6919 49.5214 75.5306C49.2281 75.3693 49.0081 75.1273 48.8614 74.8046C48.7221 74.4819 48.6524 74.0786 48.6524 73.5946V70.2836H49.7854V73.5836C49.7854 73.8623 49.8221 74.0969 49.8954 74.2876C49.9761 74.4783 50.0971 74.6213 50.2584 74.7166C50.4271 74.8119 50.6397 74.8596 50.8964 74.8596C51.1824 74.8596 51.4317 74.7973 51.6444 74.6726C51.8571 74.5406 52.0221 74.3573 52.1394 74.1226C52.2641 73.8879 52.3264 73.6203 52.3264 73.3196V70.2836H53.4704V75.6736H52.3704V74.4966H52.4914C52.3301 74.9073 52.0881 75.2226 51.7654 75.4426C51.4427 75.6626 51.0651 75.7726 50.6324 75.7726ZM56.8472 75.7726C56.2679 75.7726 55.8316 75.6076 55.5382 75.2776C55.2449 74.9476 55.0982 74.4709 55.0982 73.8476V67.9186H56.2312V73.7706C56.2312 74.0053 56.2642 74.2033 56.3302 74.3646C56.3962 74.5186 56.4916 74.6359 56.6162 74.7166C56.7482 74.7973 56.9096 74.8376 57.1002 74.8376C57.1882 74.8376 57.2762 74.8339 57.3642 74.8266C57.4522 74.8193 57.5366 74.8009 57.6172 74.7716L57.6062 75.6736C57.4816 75.7103 57.3569 75.7359 57.2322 75.7506C57.1149 75.7653 56.9866 75.7726 56.8472 75.7726ZM60.8578 75.7726C60.3151 75.7726 59.8421 75.6589 59.4388 75.4316C59.0428 75.2043 58.7348 74.8816 58.5148 74.4636C58.2948 74.0383 58.1848 73.5433 58.1848 72.9786C58.1848 72.4066 58.2948 71.9116 58.5148 71.4936C58.7348 71.0756 59.0428 70.7529 59.4388 70.5256C59.8421 70.2983 60.3151 70.1846 60.8578 70.1846C61.4004 70.1846 61.8698 70.2983 62.2658 70.5256C62.6691 70.7529 62.9808 71.0756 63.2008 71.4936C63.4208 71.9116 63.5308 72.4066 63.5308 72.9786C63.5308 73.5433 63.4208 74.0383 63.2008 74.4636C62.9808 74.8816 62.6691 75.2043 62.2658 75.4316C61.8698 75.6589 61.4004 75.7726 60.8578 75.7726ZM60.8578 74.8816C61.3271 74.8816 61.7011 74.7166 61.9798 74.3866C62.2584 74.0566 62.3978 73.5836 62.3978 72.9676C62.3978 72.3589 62.2584 71.8933 61.9798 71.5706C61.7011 71.2479 61.3271 71.0866 60.8578 71.0866C60.3884 71.0866 60.0144 71.2479 59.7358 71.5706C59.4571 71.8933 59.3178 72.3589 59.3178 72.9676C59.3178 73.5836 59.4571 74.0566 59.7358 74.3866C60.0144 74.7166 60.3884 74.8816 60.8578 74.8816ZM69.7422 75.7726C69.4709 75.7726 69.1996 75.7396 68.9282 75.6736C68.6569 75.6003 68.4002 75.4976 68.1582 75.3656C67.9162 75.2263 67.6999 75.0613 67.5092 74.8706L67.9162 74.0016C68.1876 74.2729 68.4809 74.4709 68.7962 74.5956C69.1116 74.7203 69.4306 74.7826 69.7532 74.7826C70.0979 74.7826 70.4022 74.7203 70.6662 74.5956C70.9302 74.4709 71.1502 74.2876 71.3262 74.0456C71.5096 73.7963 71.6452 73.4883 71.7332 73.1216C71.8286 72.7476 71.8762 72.3186 71.8762 71.8346V70.9876H71.9532C71.9019 71.3689 71.7772 71.6989 71.5792 71.9776C71.3886 72.2489 71.1429 72.4579 70.8422 72.6046C70.5416 72.7513 70.2079 72.8246 69.8412 72.8246C69.3866 72.8246 68.9832 72.7219 68.6312 72.5166C68.2866 72.3039 68.0116 72.0143 67.8062 71.6476C67.6082 71.2736 67.5092 70.8483 67.5092 70.3716C67.5092 69.8729 67.6156 69.4329 67.8282 69.0516C68.0482 68.6629 68.3452 68.3623 68.7192 68.1496C69.1006 67.9296 69.5332 67.8196 70.0172 67.8196C70.6552 67.8196 71.1906 67.9699 71.6232 68.2706C72.0632 68.5639 72.3969 68.9966 72.6242 69.5686C72.8516 70.1406 72.9652 70.8299 72.9652 71.6366C72.9652 72.5166 72.8369 73.2646 72.5802 73.8806C72.3236 74.4966 71.9569 74.9659 71.4802 75.2886C71.0036 75.6113 70.4242 75.7726 69.7422 75.7726ZM70.0942 71.8896C70.3949 71.8896 70.6552 71.8236 70.8752 71.6916C71.1026 71.5596 71.2786 71.3763 71.4032 71.1416C71.5352 70.9069 71.6012 70.6356 71.6012 70.3276C71.6012 70.0123 71.5389 69.7373 71.4142 69.5026C71.2896 69.2679 71.1136 69.0846 70.8862 68.9526C70.6589 68.8206 70.3949 68.7546 70.0942 68.7546C69.7936 68.7546 69.5296 68.8206 69.3022 68.9526C69.0822 69.0846 68.9062 69.2679 68.7742 69.5026C68.6496 69.7373 68.5872 70.0123 68.5872 70.3276C68.5872 70.6356 68.6496 70.9106 68.7742 71.1526C68.9062 71.3873 69.0822 71.5706 69.3022 71.7026C69.5296 71.8273 69.7936 71.8896 70.0942 71.8896Z" fill="#667085"/>
<defs>
<filter id="filter0_d_8310_1103" x="0" y="2.67358" width="96" height="85.8462" filterUnits="userSpaceOnUse" color-interpolation-filters="sRGB">
<feFlood flood-opacity="0" result="BackgroundImageFix"/>
<feColorMatrix in="SourceAlpha" type="matrix" values="0 0 0 0 0 0 0 0 0 0 0 0 0 0 0 0 0 0 127 0" result="hardAlpha"/>
<feOffset dy="4"/>
<feGaussianBlur stdDeviation="2"/>
<feComposite in2="hardAlpha" operator="out"/>
<feColorMatrix type="matrix" values="0 0 0 0 0 0 0 0 0 0 0 0 0 0 0 0 0 0 0.25 0"/>
<feBlend mode="normal" in2="BackgroundImageFix" result="effect1_dropShadow_8310_1103"/>
<feBlend mode="normal" in="SourceGraphic" in2="effect1_dropShadow_8310_1103" result="shape"/>
</filter>
</defs>
</svg>
