<svg width="96" height="88" viewBox="0 0 96 88" fill="none" xmlns="http://www.w3.org/2000/svg">
<g filter="url(#filter0_d_8310_792)">
<path d="M5.37285 44.5185C4.62083 43.2089 4.24484 42.5536 4.09767 41.8574C3.96744 41.2412 3.96744 40.6048 4.09767 39.9886C4.24484 39.2924 4.62083 38.6371 5.37285 37.3274L23.5901 5.59555C24.3421 4.28569 24.7181 3.63076 25.2442 3.15444C25.7096 2.733 26.2579 2.41461 26.8535 2.22C27.5267 2 28.2787 2 29.7827 2H66.2171C67.7214 2 68.4731 2 69.1466 2.22C69.7419 2.41461 70.2903 2.733 70.756 3.15444C71.282 3.63076 71.6578 4.28569 72.41 5.59555L90.6271 37.3274C91.3792 38.6371 91.7551 39.2924 91.9021 39.9886C92.0326 40.6048 92.0326 41.2412 91.9021 41.8574C91.7551 42.5536 91.3792 43.2089 90.6271 44.5185L72.41 76.2506C71.6578 77.5603 71.282 78.2151 70.756 78.6915C70.2903 79.1131 69.7419 79.4313 69.1466 79.6259C68.4731 79.8462 67.7214 79.8462 66.2171 79.8462H29.7827C28.2787 79.8462 27.5267 79.8462 26.8535 79.6259C26.2579 79.4313 25.7096 79.1131 25.2442 78.6915C24.7181 78.2151 24.3421 77.5603 23.5901 76.2506L5.37285 44.5185Z" fill="white"/>
</g>
<g clip-path="url(#clip0_8310_792)">
<path d="M38 22.5H44.875V24.0625C44.875 24.9742 44.5128 25.8485 43.8682 26.4932C43.2235 27.1378 42.3492 27.5 41.4375 27.5C40.5258 27.5 39.6515 27.1378 39.0068 26.4932C38.3622 25.8485 38 24.9742 38 24.0625V22.5ZM43 7.64998C45.5 7.64998 46.75 11.25 46.75 13.75C46.75 15 46.125 16.25 45.5 18.125L44.875 20H38C38 18.75 37.375 16.875 37.375 13.75C37.375 10.625 39.8725 7.64998 43 7.64998ZM58.0675 17.6225L57.7962 19.1612C57.6379 20.0592 57.1294 20.8574 56.3826 21.3804C55.6357 21.9034 54.7117 22.1083 53.8137 21.95C52.9158 21.7917 52.1176 21.2832 51.5946 20.5363C51.0716 19.7894 50.8667 18.8654 51.025 17.9675L51.2975 16.43L58.0675 17.6225ZM55.7225 2.13123C58.8025 2.67373 60.745 6.03623 60.2025 9.11373C59.66 12.1925 58.7188 13.93 58.5025 15.1612L51.7312 13.9675L51.4412 12.0125C51.1512 10.0575 50.7537 8.71748 50.97 7.48748C51.4038 5.02498 53.26 1.69748 55.7225 2.13123Z" fill="#F2BB41"/>
</g>
<path d="M24.7789 43V34.54H28.2829C28.8989 34.54 29.4189 34.644 29.8429 34.852C30.2669 35.052 30.5869 35.344 30.8029 35.728C31.0269 36.112 31.1389 36.576 31.1389 37.12C31.1389 37.664 31.0269 38.132 30.8029 38.524C30.5869 38.908 30.2669 39.204 29.8429 39.412C29.4189 39.612 28.8989 39.712 28.2829 39.712H26.0269V43H24.7789ZM26.0269 38.716H28.1029C28.7029 38.716 29.1549 38.584 29.4589 38.32C29.7709 38.048 29.9269 37.648 29.9269 37.12C29.9269 36.6 29.7709 36.208 29.4589 35.944C29.1549 35.672 28.7029 35.536 28.1029 35.536H26.0269V38.716ZM32.229 43V37.144H33.405V38.548H33.285C33.413 38.068 33.641 37.704 33.969 37.456C34.305 37.208 34.749 37.064 35.301 37.024L35.697 37L35.781 38.032L35.049 38.104C34.529 38.152 34.133 38.316 33.861 38.596C33.589 38.876 33.453 39.26 33.453 39.748V43H32.229ZM39.3715 43.108C38.7315 43.108 38.1795 42.988 37.7155 42.748C37.2595 42.5 36.9035 42.152 36.6475 41.704C36.3995 41.248 36.2755 40.708 36.2755 40.084C36.2755 39.476 36.3995 38.944 36.6475 38.488C36.8955 38.032 37.2355 37.676 37.6675 37.42C38.0995 37.164 38.5915 37.036 39.1435 37.036C39.6875 37.036 40.1515 37.156 40.5355 37.396C40.9275 37.628 41.2275 37.96 41.4355 38.392C41.6435 38.824 41.7475 39.34 41.7475 39.94V40.348H37.2355V39.604H40.9315L40.7275 39.772C40.7275 39.172 40.5955 38.708 40.3315 38.38C40.0675 38.052 39.6875 37.888 39.1915 37.888C38.8155 37.888 38.4955 37.976 38.2315 38.152C37.9755 38.328 37.7795 38.572 37.6435 38.884C37.5075 39.196 37.4395 39.56 37.4395 39.976V40.048C37.4395 40.512 37.5115 40.904 37.6555 41.224C37.8075 41.536 38.0275 41.772 38.3155 41.932C38.6035 42.092 38.9595 42.172 39.3835 42.172C39.7195 42.172 40.0475 42.12 40.3675 42.016C40.6955 41.904 41.0035 41.732 41.2915 41.5L41.6515 42.34C41.3875 42.58 41.0475 42.768 40.6315 42.904C40.2155 43.04 39.7955 43.108 39.3715 43.108ZM43.0928 43V37.144H44.2688V38.392H44.1368C44.2408 38.104 44.3848 37.86 44.5688 37.66C44.7528 37.46 44.9728 37.308 45.2288 37.204C45.4928 37.092 45.7808 37.036 46.0928 37.036C46.5808 37.036 46.9768 37.152 47.2808 37.384C47.5848 37.616 47.7928 37.972 47.9048 38.452H47.7368C47.8888 38.012 48.1488 37.668 48.5168 37.42C48.8848 37.164 49.3128 37.036 49.8008 37.036C50.2488 37.036 50.6168 37.124 50.9048 37.3C51.1928 37.468 51.4088 37.728 51.5528 38.08C51.6968 38.424 51.7688 38.86 51.7688 39.388V43H50.5568V39.448C50.5568 38.952 50.4688 38.588 50.2928 38.356C50.1248 38.124 49.8448 38.008 49.4528 38.008C49.1648 38.008 48.9128 38.076 48.6968 38.212C48.4808 38.348 48.3128 38.548 48.1928 38.812C48.0808 39.068 48.0248 39.372 48.0248 39.724V43H46.8128V39.448C46.8128 38.952 46.7288 38.588 46.5608 38.356C46.3928 38.124 46.1128 38.008 45.7208 38.008C45.4248 38.008 45.1688 38.076 44.9528 38.212C44.7448 38.348 44.5848 38.548 44.4728 38.812C44.3608 39.068 44.3048 39.372 44.3048 39.724V43H43.0928ZM53.3553 35.788V34.528H54.7713V35.788H53.3553ZM53.4633 43V37.144H54.6753V43H53.4633ZM59.1293 43.108C58.4893 43.108 57.9373 42.988 57.4733 42.748C57.0173 42.5 56.6613 42.152 56.4053 41.704C56.1573 41.248 56.0333 40.708 56.0333 40.084C56.0333 39.476 56.1573 38.944 56.4053 38.488C56.6533 38.032 56.9933 37.676 57.4253 37.42C57.8573 37.164 58.3493 37.036 58.9013 37.036C59.4453 37.036 59.9093 37.156 60.2933 37.396C60.6853 37.628 60.9853 37.96 61.1933 38.392C61.4013 38.824 61.5053 39.34 61.5053 39.94V40.348H56.9933V39.604H60.6893L60.4853 39.772C60.4853 39.172 60.3533 38.708 60.0893 38.38C59.8253 38.052 59.4453 37.888 58.9493 37.888C58.5733 37.888 58.2533 37.976 57.9893 38.152C57.7333 38.328 57.5373 38.572 57.4013 38.884C57.2653 39.196 57.1973 39.56 57.1973 39.976V40.048C57.1973 40.512 57.2693 40.904 57.4133 41.224C57.5653 41.536 57.7853 41.772 58.0733 41.932C58.3613 42.092 58.7173 42.172 59.1413 42.172C59.4773 42.172 59.8053 42.12 60.1253 42.016C60.4533 41.904 60.7613 41.732 61.0493 41.5L61.4093 42.34C61.1453 42.58 60.8053 42.768 60.3893 42.904C59.9733 43.04 59.5533 43.108 59.1293 43.108ZM62.8266 43V37.144H64.0026V38.548H63.8826C64.0106 38.068 64.2386 37.704 64.5666 37.456C64.9026 37.208 65.3466 37.064 65.8986 37.024L66.2946 37L66.3786 38.032L65.6466 38.104C65.1266 38.152 64.7306 38.316 64.4586 38.596C64.1866 38.876 64.0506 39.26 64.0506 39.748V43H62.8266ZM69.2966 43.108C68.9846 43.108 68.6806 43.08 68.3846 43.024C68.0886 42.968 67.8166 42.888 67.5686 42.784C67.3206 42.68 67.1006 42.552 66.9086 42.4L67.2566 41.584C67.4566 41.72 67.6686 41.84 67.8926 41.944C68.1166 42.04 68.3486 42.112 68.5886 42.16C68.8366 42.208 69.0766 42.232 69.3086 42.232C69.7326 42.232 70.0526 42.156 70.2686 42.004C70.4846 41.852 70.5926 41.648 70.5926 41.392C70.5926 41.184 70.5206 41.024 70.3766 40.912C70.2326 40.792 70.0166 40.7 69.7286 40.636L68.5886 40.408C68.0926 40.304 67.7166 40.12 67.4606 39.856C67.2046 39.592 67.0766 39.256 67.0766 38.848C67.0766 38.48 67.1766 38.16 67.3766 37.888C67.5766 37.616 67.8566 37.408 68.2166 37.264C68.5766 37.112 68.9926 37.036 69.4646 37.036C69.7366 37.036 70.0006 37.064 70.2566 37.12C70.5126 37.176 70.7526 37.256 70.9766 37.36C71.2086 37.464 71.4046 37.596 71.5646 37.756L71.2166 38.572C71.0646 38.436 70.8886 38.32 70.6886 38.224C70.4966 38.128 70.2966 38.056 70.0886 38.008C69.8806 37.952 69.6726 37.924 69.4646 37.924C69.0406 37.924 68.7206 38.004 68.5046 38.164C68.2966 38.316 68.1926 38.524 68.1926 38.788C68.1926 38.988 68.2566 39.152 68.3846 39.28C68.5126 39.408 68.7126 39.5 68.9846 39.556L70.1246 39.784C70.6446 39.888 71.0366 40.064 71.3006 40.312C71.5726 40.56 71.7086 40.896 71.7086 41.32C71.7086 41.688 71.6086 42.008 71.4086 42.28C71.2086 42.552 70.9246 42.76 70.5566 42.904C70.1966 43.04 69.7766 43.108 69.2966 43.108ZM39.1782 61.16V53.144H40.3662V54.464H40.2342C40.3622 54.032 40.6142 53.688 40.9902 53.432C41.3662 53.168 41.8102 53.036 42.3222 53.036C42.8422 53.036 43.2942 53.16 43.6782 53.408C44.0702 53.656 44.3702 54.004 44.5782 54.452C44.7942 54.9 44.9022 55.44 44.9022 56.072C44.9022 56.688 44.7942 57.228 44.5782 57.692C44.3702 58.148 44.0742 58.5 43.6902 58.748C43.3062 58.988 42.8502 59.108 42.3222 59.108C41.8182 59.108 41.3782 58.98 41.0022 58.724C40.6262 58.468 40.3742 58.128 40.2462 57.704H40.3902V61.16H39.1782ZM42.0222 58.172C42.5262 58.172 42.9262 57.992 43.2222 57.632C43.5262 57.272 43.6782 56.752 43.6782 56.072C43.6782 55.384 43.5262 54.864 43.2222 54.512C42.9262 54.16 42.5262 53.984 42.0222 53.984C41.5262 53.984 41.1262 54.16 40.8222 54.512C40.5182 54.864 40.3662 55.384 40.3662 56.072C40.3662 56.752 40.5182 57.272 40.8222 57.632C41.1262 57.992 41.5262 58.172 42.0222 58.172ZM48.14 59.108C47.732 59.108 47.364 59.028 47.036 58.868C46.716 58.708 46.464 58.492 46.28 58.22C46.096 57.948 46.004 57.64 46.004 57.296C46.004 56.864 46.112 56.524 46.328 56.276C46.552 56.02 46.916 55.84 47.42 55.736C47.932 55.624 48.62 55.568 49.484 55.568H50.048V56.312H49.496C49.064 56.312 48.7 56.328 48.404 56.36C48.108 56.392 47.872 56.444 47.696 56.516C47.52 56.58 47.392 56.672 47.312 56.792C47.24 56.912 47.204 57.056 47.204 57.224C47.204 57.528 47.308 57.776 47.516 57.968C47.724 58.152 48.012 58.244 48.38 58.244C48.676 58.244 48.936 58.176 49.16 58.04C49.384 57.896 49.56 57.704 49.688 57.464C49.824 57.224 49.892 56.948 49.892 56.636V55.256C49.892 54.8 49.796 54.472 49.604 54.272C49.412 54.072 49.096 53.972 48.656 53.972C48.32 53.972 47.984 54.024 47.648 54.128C47.312 54.224 46.968 54.38 46.616 54.596L46.244 53.744C46.452 53.6 46.692 53.476 46.964 53.372C47.236 53.268 47.52 53.188 47.816 53.132C48.12 53.068 48.412 53.036 48.692 53.036C49.228 53.036 49.668 53.12 50.012 53.288C50.364 53.456 50.624 53.712 50.792 54.056C50.96 54.4 51.044 54.844 51.044 55.388V59H49.904V57.692H50.012C49.948 57.988 49.828 58.244 49.652 58.46C49.484 58.668 49.272 58.828 49.016 58.94C48.76 59.052 48.468 59.108 48.14 59.108ZM54.7653 59.108C54.4533 59.108 54.1493 59.08 53.8533 59.024C53.5573 58.968 53.2853 58.888 53.0373 58.784C52.7893 58.68 52.5693 58.552 52.3773 58.4L52.7253 57.584C52.9253 57.72 53.1373 57.84 53.3613 57.944C53.5853 58.04 53.8173 58.112 54.0573 58.16C54.3053 58.208 54.5453 58.232 54.7773 58.232C55.2013 58.232 55.5213 58.156 55.7373 58.004C55.9533 57.852 56.0613 57.648 56.0613 57.392C56.0613 57.184 55.9893 57.024 55.8453 56.912C55.7013 56.792 55.4853 56.7 55.1973 56.636L54.0573 56.408C53.5613 56.304 53.1853 56.12 52.9293 55.856C52.6733 55.592 52.5453 55.256 52.5453 54.848C52.5453 54.48 52.6453 54.16 52.8453 53.888C53.0453 53.616 53.3253 53.408 53.6853 53.264C54.0453 53.112 54.4613 53.036 54.9333 53.036C55.2053 53.036 55.4693 53.064 55.7253 53.12C55.9813 53.176 56.2213 53.256 56.4453 53.36C56.6773 53.464 56.8733 53.596 57.0333 53.756L56.6853 54.572C56.5333 54.436 56.3573 54.32 56.1573 54.224C55.9653 54.128 55.7653 54.056 55.5573 54.008C55.3493 53.952 55.1413 53.924 54.9333 53.924C54.5093 53.924 54.1893 54.004 53.9733 54.164C53.7653 54.316 53.6613 54.524 53.6613 54.788C53.6613 54.988 53.7253 55.152 53.8533 55.28C53.9813 55.408 54.1813 55.5 54.4533 55.556L55.5933 55.784C56.1133 55.888 56.5053 56.064 56.7693 56.312C57.0413 56.56 57.1773 56.896 57.1773 57.32C57.1773 57.688 57.0773 58.008 56.8773 58.28C56.6773 58.552 56.3933 58.76 56.0253 58.904C55.6653 59.04 55.2453 59.108 54.7653 59.108Z" fill="black"/>
<path d="M25.6576 75.11C24.8802 75.11 24.2129 74.9487 23.6556 74.626C23.0982 74.296 22.6692 73.834 22.3686 73.24C22.0679 72.646 21.9176 71.9383 21.9176 71.117C21.9176 70.2957 22.0679 69.5917 22.3686 69.005C22.6692 68.411 23.0982 67.9527 23.6556 67.63C24.2129 67.3073 24.8802 67.146 25.6576 67.146C26.1856 67.146 26.6769 67.2267 27.1316 67.388C27.5936 67.5493 27.9786 67.7877 28.2866 68.103L27.8796 69.016C27.5422 68.7227 27.1976 68.51 26.8456 68.378C26.4936 68.246 26.1086 68.18 25.6906 68.18C24.8692 68.18 24.2386 68.433 23.7986 68.939C23.3586 69.445 23.1386 70.171 23.1386 71.117C23.1386 72.063 23.3586 72.7927 23.7986 73.306C24.2386 73.812 24.8692 74.065 25.6906 74.065C26.1086 74.065 26.4936 73.999 26.8456 73.867C27.1976 73.735 27.5422 73.5223 27.8796 73.229L28.2866 74.142C27.9786 74.45 27.5936 74.6883 27.1316 74.857C26.6769 75.0257 26.1856 75.11 25.6576 75.11ZM29.5801 75V67.245H30.7021V70.743H30.5921C30.7534 70.347 31.0064 70.0427 31.3511 69.83C31.6958 69.6173 32.0881 69.511 32.5281 69.511C32.9681 69.511 33.3274 69.5917 33.6061 69.753C33.8921 69.907 34.1048 70.1453 34.2441 70.468C34.3908 70.7907 34.4641 71.1977 34.4641 71.689V75H33.3311V71.755C33.3311 71.4543 33.2908 71.2087 33.2101 71.018C33.1368 70.82 33.0158 70.6733 32.8471 70.578C32.6858 70.4753 32.4768 70.424 32.2201 70.424C31.9194 70.424 31.6554 70.49 31.4281 70.622C31.2008 70.754 31.0248 70.9373 30.9001 71.172C30.7754 71.3993 30.7131 71.6633 30.7131 71.964V75H29.5801ZM37.8284 75.099C37.4471 75.099 37.1061 75.0257 36.8054 74.879C36.5047 74.7323 36.2664 74.5343 36.0904 74.285C35.9217 74.0283 35.8374 73.746 35.8374 73.438C35.8374 73.0347 35.9401 72.7193 36.1454 72.492C36.3581 72.2573 36.6991 72.0887 37.1684 71.986C37.6451 71.8833 38.2757 71.832 39.0604 71.832H39.6434V72.536H39.0824C38.6864 72.536 38.3527 72.5507 38.0814 72.58C37.8101 72.602 37.5901 72.646 37.4214 72.712C37.2601 72.7707 37.1427 72.855 37.0694 72.965C36.9961 73.075 36.9594 73.2107 36.9594 73.372C36.9594 73.6433 37.0547 73.8633 37.2454 74.032C37.4434 74.2007 37.7111 74.285 38.0484 74.285C38.3271 74.285 38.5727 74.219 38.7854 74.087C38.9981 73.955 39.1667 73.779 39.2914 73.559C39.4161 73.339 39.4784 73.086 39.4784 72.8V71.546C39.4784 71.1353 39.3831 70.842 39.1924 70.666C39.0091 70.4827 38.7084 70.391 38.2904 70.391C37.9824 70.391 37.6707 70.4387 37.3554 70.534C37.0474 70.622 36.7321 70.765 36.4094 70.963L36.0574 70.16C36.2627 70.028 36.4901 69.9143 36.7394 69.819C36.9961 69.7163 37.2637 69.6393 37.5424 69.588C37.8211 69.5367 38.0924 69.511 38.3564 69.511C38.8477 69.511 39.2547 69.588 39.5774 69.742C39.9074 69.896 40.1567 70.1307 40.3254 70.446C40.4941 70.7613 40.5784 71.1683 40.5784 71.667V75H39.5334V73.812H39.5994C39.5334 74.0687 39.4161 74.296 39.2474 74.494C39.0861 74.6847 38.8844 74.835 38.6424 74.945C38.4077 75.0477 38.1364 75.099 37.8284 75.099ZM42.17 76.98V69.61H43.259V70.809H43.182C43.3066 70.4057 43.5413 70.0903 43.886 69.863C44.2306 69.6283 44.6376 69.511 45.107 69.511C45.591 69.511 46.0126 69.6247 46.372 69.852C46.7313 70.0793 47.01 70.402 47.208 70.82C47.406 71.238 47.505 71.733 47.505 72.305C47.505 72.8697 47.406 73.3647 47.208 73.79C47.01 74.208 46.7313 74.5307 46.372 74.758C46.02 74.9853 45.5983 75.099 45.107 75.099C44.645 75.099 44.2453 74.9853 43.908 74.758C43.5706 74.5233 43.336 74.219 43.204 73.845H43.303V76.98H42.17ZM44.821 74.219C45.2903 74.219 45.6643 74.054 45.943 73.724C46.2216 73.3867 46.361 72.9137 46.361 72.305C46.361 71.6817 46.2216 71.2087 45.943 70.886C45.6643 70.5633 45.2903 70.402 44.821 70.402C44.3516 70.402 43.9776 70.5633 43.699 70.886C43.4276 71.2087 43.292 71.6817 43.292 72.305C43.292 72.9137 43.4313 73.3867 43.71 73.724C43.9886 74.054 44.359 74.219 44.821 74.219ZM48.7096 68.367V67.19H50.0296V68.367H48.7096ZM48.8086 75V69.61H49.9416V75H48.8086ZM53.9014 75.099C53.2194 75.099 52.7097 74.9267 52.3724 74.582C52.035 74.23 51.8664 73.724 51.8664 73.064V70.49H50.8214V69.61H51.8884V68.004H52.9994V69.61H54.7264V70.49H53.0104V72.987C53.0104 73.3683 53.091 73.658 53.2524 73.856C53.421 74.054 53.6924 74.153 54.0664 74.153C54.191 74.153 54.312 74.1383 54.4294 74.109C54.5467 74.0797 54.664 74.0467 54.7814 74.01L54.9574 74.868C54.8327 74.9413 54.6714 74.9963 54.4734 75.033C54.2754 75.077 54.0847 75.099 53.9014 75.099ZM55.7696 75V69.61H56.8586V70.897H56.7706C56.8952 70.4643 57.1116 70.1343 57.4196 69.907C57.7276 69.6797 58.1272 69.5477 58.6186 69.511L59.0256 69.478L59.1136 70.468L58.3876 70.534C57.9109 70.578 57.5442 70.732 57.2876 70.996C57.0382 71.2527 56.9136 71.601 56.9136 72.041V75H55.7696ZM62.533 75.099C61.939 75.099 61.4257 74.989 60.993 74.769C60.5604 74.5417 60.2267 74.219 59.992 73.801C59.7647 73.383 59.651 72.888 59.651 72.316C59.651 71.7587 59.761 71.271 59.981 70.853C60.2084 70.435 60.52 70.1087 60.916 69.874C61.3194 69.632 61.785 69.511 62.313 69.511C62.819 69.511 63.2517 69.621 63.611 69.841C63.9704 70.061 64.249 70.3727 64.447 70.776C64.645 71.172 64.744 71.6487 64.744 72.206V72.58H60.531V71.876H63.963L63.787 72.041C63.787 71.491 63.6624 71.0693 63.413 70.776C63.1637 70.4753 62.808 70.325 62.346 70.325C62.0014 70.325 61.708 70.402 61.466 70.556C61.2314 70.71 61.048 70.9263 60.916 71.205C60.7914 71.4837 60.729 71.8173 60.729 72.206V72.283C60.729 72.7083 60.7987 73.064 60.938 73.35C61.0774 73.636 61.2827 73.8523 61.554 73.999C61.8254 74.1383 62.159 74.208 62.555 74.208C62.8557 74.208 63.1564 74.164 63.457 74.076C63.7577 73.9807 64.04 73.8303 64.304 73.625L64.645 74.406C64.3884 74.626 64.0694 74.7983 63.688 74.923C63.3067 75.0403 62.9217 75.099 62.533 75.099ZM69.3787 75V74.032H71.2047V68.213L71.7877 68.224L69.7637 69.489L69.2907 68.631L71.5347 67.245H72.3597V74.032H74.0647V75H69.3787Z" fill="#667085"/>
<defs>
<filter id="filter0_d_8310_792" x="0" y="2" width="96" height="85.8462" filterUnits="userSpaceOnUse" color-interpolation-filters="sRGB">
<feFlood flood-opacity="0" result="BackgroundImageFix"/>
<feColorMatrix in="SourceAlpha" type="matrix" values="0 0 0 0 0 0 0 0 0 0 0 0 0 0 0 0 0 0 127 0" result="hardAlpha"/>
<feOffset dy="4"/>
<feGaussianBlur stdDeviation="2"/>
<feComposite in2="hardAlpha" operator="out"/>
<feColorMatrix type="matrix" values="0 0 0 0 0 0 0 0 0 0 0 0 0 0 0 0 0 0 0.25 0"/>
<feBlend mode="normal" in2="BackgroundImageFix" result="effect1_dropShadow_8310_792"/>
<feBlend mode="normal" in="SourceGraphic" in2="effect1_dropShadow_8310_792" result="shape"/>
</filter>
<clipPath id="clip0_8310_792">
<rect width="30" height="30" fill="white" transform="translate(33)"/>
</clipPath>
</defs>
</svg>
