<svg width="96" height="86" viewBox="0 0 96 86" fill="none" xmlns="http://www.w3.org/2000/svg">
<g filter="url(#filter0_d_8310_691)">
<path d="M5.37285 42.5185C4.62083 41.2089 4.24484 40.5536 4.09767 39.8574C3.96744 39.2412 3.96744 38.6048 4.09767 37.9886C4.24484 37.2924 4.62083 36.6371 5.37285 35.3274L23.5901 3.59555C24.3421 2.28569 24.7181 1.63076 25.2442 1.15444C25.7096 0.732998 26.2579 0.414612 26.8535 0.220002C27.5267 -2.00917e-07 28.2787 0 29.7827 0H66.2171C67.7214 0 68.4731 -2.00917e-07 69.1466 0.220002C69.7419 0.414612 70.2903 0.732998 70.756 1.15444C71.282 1.63076 71.6578 2.28569 72.41 3.59555L90.6271 35.3274C91.3792 36.6371 91.7551 37.2924 91.9021 37.9886C92.0326 38.6048 92.0326 39.2412 91.9021 39.8574C91.7551 40.5536 91.3792 41.2089 90.6271 42.5185L72.41 74.2506C71.6578 75.5603 71.282 76.2151 70.756 76.6915C70.2903 77.1131 69.7419 77.4313 69.1466 77.6259C68.4731 77.8462 67.7214 77.8462 66.2171 77.8462H29.7827C28.2787 77.8462 27.5267 77.8462 26.8535 77.6259C26.2579 77.4313 25.7096 77.1131 25.2442 76.6915C24.7181 76.2151 24.3421 75.5603 23.5901 74.2506L5.37285 42.5185Z" fill="white"/>
</g>
<path d="M52.2051 13.5H41.2051C40.1051 13.5 39.2051 14.4 39.2051 15.5V35.5C39.2051 36.6 40.1051 37.5 41.2051 37.5H55.2051C56.3051 37.5 57.2051 36.6 57.2051 35.5V18.5L52.2051 13.5Z" fill="#F2BB41" stroke="#F2BB41" stroke-width="2" stroke-miterlimit="10" stroke-linecap="round" stroke-linejoin="round"/>
<path d="M52.2051 13.5V18.5H57.2051L52.2051 13.5Z" fill="#E08838" stroke="#E08838" stroke-width="2" stroke-miterlimit="10" stroke-linecap="round" stroke-linejoin="round"/>
<path d="M20.7125 53.5V45.04H21.9605V53.5H20.7125ZM23.7797 53.5V47.644H24.9557V48.892H24.8237C24.9997 48.444 25.2757 48.108 25.6517 47.884C26.0277 47.652 26.4597 47.536 26.9477 47.536C27.4117 47.536 27.7957 47.624 28.0997 47.8C28.4117 47.968 28.6437 48.228 28.7957 48.58C28.9477 48.924 29.0237 49.36 29.0237 49.888V53.5H27.8117V49.96C27.8117 49.624 27.7677 49.352 27.6797 49.144C27.5917 48.928 27.4597 48.768 27.2837 48.664C27.1077 48.56 26.8797 48.508 26.5997 48.508C26.2797 48.508 25.9957 48.576 25.7477 48.712C25.5077 48.848 25.3197 49.044 25.1837 49.3C25.0557 49.556 24.9917 49.852 24.9917 50.188V53.5H23.7797ZM32.7458 53.608C32.4338 53.608 32.1298 53.58 31.8338 53.524C31.5378 53.468 31.2658 53.388 31.0178 53.284C30.7698 53.18 30.5498 53.052 30.3578 52.9L30.7058 52.084C30.9058 52.22 31.1178 52.34 31.3418 52.444C31.5658 52.54 31.7978 52.612 32.0378 52.66C32.2858 52.708 32.5258 52.732 32.7578 52.732C33.1818 52.732 33.5018 52.656 33.7178 52.504C33.9338 52.352 34.0418 52.148 34.0418 51.892C34.0418 51.684 33.9698 51.524 33.8258 51.412C33.6818 51.292 33.4658 51.2 33.1778 51.136L32.0378 50.908C31.5418 50.804 31.1658 50.62 30.9098 50.356C30.6538 50.092 30.5258 49.756 30.5258 49.348C30.5258 48.98 30.6258 48.66 30.8258 48.388C31.0258 48.116 31.3058 47.908 31.6658 47.764C32.0258 47.612 32.4418 47.536 32.9138 47.536C33.1858 47.536 33.4498 47.564 33.7058 47.62C33.9618 47.676 34.2018 47.756 34.4258 47.86C34.6578 47.964 34.8538 48.096 35.0138 48.256L34.6658 49.072C34.5138 48.936 34.3378 48.82 34.1378 48.724C33.9458 48.628 33.7458 48.556 33.5378 48.508C33.3298 48.452 33.1218 48.424 32.9138 48.424C32.4898 48.424 32.1698 48.504 31.9538 48.664C31.7458 48.816 31.6418 49.024 31.6418 49.288C31.6418 49.488 31.7058 49.652 31.8338 49.78C31.9618 49.908 32.1618 50 32.4338 50.056L33.5738 50.284C34.0938 50.388 34.4858 50.564 34.7498 50.812C35.0218 51.06 35.1578 51.396 35.1578 51.82C35.1578 52.188 35.0578 52.508 34.8578 52.78C34.6578 53.052 34.3738 53.26 34.0058 53.404C33.6458 53.54 33.2258 53.608 32.7458 53.608ZM39.0863 53.608C38.4863 53.608 37.9663 53.484 37.5263 53.236C37.0943 52.98 36.7583 52.624 36.5183 52.168C36.2783 51.704 36.1583 51.16 36.1583 50.536C36.1583 49.92 36.2783 49.388 36.5183 48.94C36.7583 48.492 37.0943 48.148 37.5263 47.908C37.9663 47.66 38.4863 47.536 39.0863 47.536C39.4543 47.536 39.8183 47.6 40.1783 47.728C40.5383 47.848 40.8343 48.024 41.0663 48.256L40.6823 49.108C40.4663 48.9 40.2223 48.748 39.9503 48.652C39.6783 48.548 39.4223 48.496 39.1823 48.496C38.6143 48.496 38.1743 48.676 37.8623 49.036C37.5583 49.388 37.4063 49.892 37.4063 50.548C37.4063 51.204 37.5583 51.72 37.8623 52.096C38.1743 52.464 38.6143 52.648 39.1823 52.648C39.4223 52.648 39.6783 52.6 39.9503 52.504C40.2223 52.4 40.4663 52.244 40.6823 52.036L41.0663 52.9C40.8343 53.116 40.5343 53.288 40.1663 53.416C39.8063 53.544 39.4463 53.608 39.0863 53.608ZM42.1079 53.5V47.644H43.2839V49.048H43.1639C43.2919 48.568 43.5199 48.204 43.8479 47.956C44.1839 47.708 44.6279 47.564 45.1799 47.524L45.5759 47.5L45.6599 48.532L44.9279 48.604C44.4079 48.652 44.0119 48.816 43.7399 49.096C43.4679 49.376 43.3319 49.76 43.3319 50.248V53.5H42.1079ZM46.4764 46.288V45.028H47.8924V46.288H46.4764ZM46.5844 53.5V47.644H47.7964V53.5H46.5844ZM49.5024 55.66V47.644H50.6904V48.964H50.5584C50.6864 48.532 50.9384 48.188 51.3144 47.932C51.6904 47.668 52.1344 47.536 52.6464 47.536C53.1664 47.536 53.6184 47.66 54.0024 47.908C54.3944 48.156 54.6944 48.504 54.9024 48.952C55.1184 49.4 55.2264 49.94 55.2264 50.572C55.2264 51.188 55.1184 51.728 54.9024 52.192C54.6944 52.648 54.3984 53 54.0144 53.248C53.6304 53.488 53.1744 53.608 52.6464 53.608C52.1424 53.608 51.7024 53.48 51.3264 53.224C50.9504 52.968 50.6984 52.628 50.5704 52.204H50.7144V55.66H49.5024ZM52.3464 52.672C52.8504 52.672 53.2504 52.492 53.5464 52.132C53.8504 51.772 54.0024 51.252 54.0024 50.572C54.0024 49.884 53.8504 49.364 53.5464 49.012C53.2504 48.66 52.8504 48.484 52.3464 48.484C51.8504 48.484 51.4504 48.66 51.1464 49.012C50.8424 49.364 50.6904 49.884 50.6904 50.572C50.6904 51.252 50.8424 51.772 51.1464 52.132C51.4504 52.492 51.8504 52.672 52.3464 52.672ZM59.0296 53.608C58.3016 53.608 57.7536 53.42 57.3856 53.044C57.0256 52.668 56.8456 52.124 56.8456 51.412V48.58H55.7056V47.644H56.8456V45.88H58.0576V47.644H59.8696V48.58H58.0576V51.316C58.0576 51.74 58.1456 52.06 58.3216 52.276C58.5056 52.492 58.8016 52.6 59.2096 52.6C59.3296 52.6 59.4496 52.584 59.5696 52.552C59.6976 52.52 59.8216 52.488 59.9416 52.456L60.1336 53.368C60.0136 53.44 59.8456 53.496 59.6296 53.536C59.4216 53.584 59.2216 53.608 59.0296 53.608ZM60.8085 46.288V45.028H62.2245V46.288H60.8085ZM60.9165 53.5V47.644H62.1285V53.5H60.9165ZM66.3784 53.608C65.7864 53.608 65.2744 53.484 64.8424 53.236C64.4184 52.988 64.0864 52.636 63.8464 52.18C63.6064 51.724 63.4864 51.188 63.4864 50.572C63.4864 49.948 63.6064 49.412 63.8464 48.964C64.0864 48.508 64.4184 48.156 64.8424 47.908C65.2744 47.66 65.7864 47.536 66.3784 47.536C66.9624 47.536 67.4664 47.66 67.8904 47.908C68.3224 48.156 68.6584 48.508 68.8984 48.964C69.1384 49.42 69.2584 49.956 69.2584 50.572C69.2584 51.188 69.1384 51.724 68.8984 52.18C68.6584 52.636 68.3224 52.988 67.8904 53.236C67.4664 53.484 66.9624 53.608 66.3784 53.608ZM66.3664 52.672C66.8704 52.672 67.2744 52.492 67.5784 52.132C67.8824 51.772 68.0344 51.252 68.0344 50.572C68.0344 49.884 67.8824 49.364 67.5784 49.012C67.2744 48.66 66.8704 48.484 66.3664 48.484C65.8704 48.484 65.4704 48.66 65.1664 49.012C64.8624 49.364 64.7104 49.884 64.7104 50.572C64.7104 51.252 64.8624 51.772 65.1664 52.132C65.4704 52.492 65.8704 52.672 66.3664 52.672ZM70.6196 53.5V47.644H71.7956V48.892H71.6636C71.8396 48.444 72.1156 48.108 72.4916 47.884C72.8676 47.652 73.2996 47.536 73.7876 47.536C74.2516 47.536 74.6356 47.624 74.9396 47.8C75.2516 47.968 75.4836 48.228 75.6356 48.58C75.7876 48.924 75.8636 49.36 75.8636 49.888V53.5H74.6516V49.96C74.6516 49.624 74.6076 49.352 74.5196 49.144C74.4316 48.928 74.2996 48.768 74.1236 48.664C73.9476 48.56 73.7196 48.508 73.4396 48.508C73.1196 48.508 72.8356 48.576 72.5876 48.712C72.3476 48.848 72.1596 49.044 72.0236 49.3C71.8956 49.556 71.8316 49.852 71.8316 50.188V53.5H70.6196Z" fill="black"/>
<defs>
<filter id="filter0_d_8310_691" x="0" y="0" width="96" height="85.8462" filterUnits="userSpaceOnUse" color-interpolation-filters="sRGB">
<feFlood flood-opacity="0" result="BackgroundImageFix"/>
<feColorMatrix in="SourceAlpha" type="matrix" values="0 0 0 0 0 0 0 0 0 0 0 0 0 0 0 0 0 0 127 0" result="hardAlpha"/>
<feOffset dy="4"/>
<feGaussianBlur stdDeviation="2"/>
<feComposite in2="hardAlpha" operator="out"/>
<feColorMatrix type="matrix" values="0 0 0 0 0 0 0 0 0 0 0 0 0 0 0 0 0 0 0.25 0"/>
<feBlend mode="normal" in2="BackgroundImageFix" result="effect1_dropShadow_8310_691"/>
<feBlend mode="normal" in="SourceGraphic" in2="effect1_dropShadow_8310_691" result="shape"/>
</filter>
</defs>
</svg>
