<svg width="96" height="86" viewBox="0 0 96 86" fill="none" xmlns="http://www.w3.org/2000/svg">
<g filter="url(#filter0_d_8310_972)">
<path d="M5.37285 42.5185C4.62083 41.2089 4.24484 40.5536 4.09767 39.8574C3.96744 39.2412 3.96744 38.6048 4.09767 37.9886C4.24484 37.2924 4.62083 36.6371 5.37285 35.3274L23.5901 3.59555C24.3421 2.28569 24.7181 1.63076 25.2442 1.15444C25.7096 0.732998 26.2579 0.414612 26.8535 0.220002C27.5267 -2.00917e-07 28.2787 0 29.7827 0H66.2171C67.7214 0 68.4731 -2.00917e-07 69.1466 0.220002C69.7419 0.414612 70.2903 0.732998 70.756 1.15444C71.282 1.63076 71.6578 2.28569 72.41 3.59555L90.6271 35.3274C91.3792 36.6371 91.7551 37.2924 91.9021 37.9886C92.0326 38.6048 92.0326 39.2412 91.9021 39.8574C91.7551 40.5536 91.3792 41.2089 90.6271 42.5185L72.41 74.2506C71.6578 75.5603 71.282 76.2151 70.756 76.6915C70.2903 77.1131 69.7419 77.4313 69.1466 77.6259C68.4731 77.8462 67.7214 77.8462 66.2171 77.8462H29.7827C28.2787 77.8462 27.5267 77.8462 26.8535 77.6259C26.2579 77.4313 25.7096 77.1131 25.2442 76.6915C24.7181 76.2151 24.3421 75.5603 23.5901 74.2506L5.37285 42.5185Z" fill="white"/>
</g>
<path d="M58.2051 5.5H38.2051C36.8244 5.5 35.7051 6.61929 35.7051 8V28C35.7051 29.3807 36.8244 30.5 38.2051 30.5H58.2051C59.5858 30.5 60.7051 29.3807 60.7051 28V8C60.7051 6.61929 59.5858 5.5 58.2051 5.5Z" fill="#F2BB41"/>
<path d="M54.4551 19.2499H45.7051V16.0124L46.0676 16.3874C46.1838 16.5046 46.322 16.5976 46.4743 16.661C46.6267 16.7245 46.7901 16.7572 46.9551 16.7572C47.1201 16.7572 47.2835 16.7245 47.4358 16.661C47.5881 16.5976 47.7264 16.5046 47.8426 16.3874C47.9597 16.2712 48.0527 16.133 48.1162 15.9806C48.1796 15.8283 48.2123 15.6649 48.2123 15.4999C48.2123 15.3349 48.1796 15.1715 48.1162 15.0192C48.0527 14.8669 47.9597 14.7286 47.8426 14.6124L45.3426 12.1124C45.2264 11.9953 45.0881 11.9023 44.9358 11.8388C44.7835 11.7753 44.6201 11.7427 44.4551 11.7427C44.2901 11.7427 44.1267 11.7753 43.9743 11.8388C43.822 11.9023 43.6838 11.9953 43.5676 12.1124L41.0676 14.6124C40.951 14.729 40.8586 14.8673 40.7955 15.0196C40.7324 15.1719 40.7 15.3351 40.7 15.4999C40.7 15.8328 40.8322 16.152 41.0676 16.3874C41.3029 16.6228 41.6222 16.755 41.9551 16.755C42.2879 16.755 42.6072 16.6228 42.8426 16.3874L43.2051 16.0124V19.2499C43.2051 19.913 43.4685 20.5488 43.9373 21.0177C44.4061 21.4865 45.042 21.7499 45.7051 21.7499H54.4551C54.7866 21.7499 55.1045 21.6182 55.3389 21.3838C55.5734 21.1494 55.7051 20.8314 55.7051 20.4999C55.7051 20.1684 55.5734 19.8505 55.3389 19.616C55.1045 19.3816 54.7866 19.2499 54.4551 19.2499Z" fill="#E08838"/>
<path d="M9.0172 46V37.54H9.9652L15.1132 44.332H14.8132V37.54H15.9652V46H15.0412L9.8932 39.208H10.1692V46H9.0172ZM20.3472 46.108C19.7552 46.108 19.2432 45.984 18.8112 45.736C18.3872 45.488 18.0552 45.136 17.8152 44.68C17.5752 44.224 17.4552 43.688 17.4552 43.072C17.4552 42.448 17.5752 41.912 17.8152 41.464C18.0552 41.008 18.3872 40.656 18.8112 40.408C19.2432 40.16 19.7552 40.036 20.3472 40.036C20.9312 40.036 21.4352 40.16 21.8592 40.408C22.2912 40.656 22.6272 41.008 22.8672 41.464C23.1072 41.92 23.2272 42.456 23.2272 43.072C23.2272 43.688 23.1072 44.224 22.8672 44.68C22.6272 45.136 22.2912 45.488 21.8592 45.736C21.4352 45.984 20.9312 46.108 20.3472 46.108ZM20.3352 45.172C20.8392 45.172 21.2432 44.992 21.5472 44.632C21.8512 44.272 22.0032 43.752 22.0032 43.072C22.0032 42.384 21.8512 41.864 21.5472 41.512C21.2432 41.16 20.8392 40.984 20.3352 40.984C19.8392 40.984 19.4392 41.16 19.1352 41.512C18.8312 41.864 18.6792 42.384 18.6792 43.072C18.6792 43.752 18.8312 44.272 19.1352 44.632C19.4392 44.992 19.8392 45.172 20.3352 45.172ZM26.6763 46.108C26.2043 46.108 25.8083 46.02 25.4883 45.844C25.1763 45.668 24.9403 45.408 24.7803 45.064C24.6283 44.712 24.5523 44.272 24.5523 43.744V40.144H25.7643V43.756C25.7643 44.068 25.8043 44.328 25.8843 44.536C25.9723 44.744 26.1043 44.896 26.2803 44.992C26.4643 45.088 26.6923 45.136 26.9643 45.136C27.2683 45.136 27.5363 45.068 27.7683 44.932C28.0003 44.796 28.1803 44.6 28.3083 44.344C28.4363 44.088 28.5003 43.792 28.5003 43.456V40.144H29.7123V46H28.5363V44.716H28.6923C28.5323 45.164 28.2763 45.508 27.9243 45.748C27.5723 45.988 27.1563 46.108 26.6763 46.108ZM33.4724 46.108C33.1604 46.108 32.8564 46.08 32.5604 46.024C32.2644 45.968 31.9924 45.888 31.7444 45.784C31.4964 45.68 31.2764 45.552 31.0844 45.4L31.4324 44.584C31.6324 44.72 31.8444 44.84 32.0684 44.944C32.2924 45.04 32.5244 45.112 32.7644 45.16C33.0124 45.208 33.2524 45.232 33.4844 45.232C33.9084 45.232 34.2284 45.156 34.4444 45.004C34.6604 44.852 34.7684 44.648 34.7684 44.392C34.7684 44.184 34.6964 44.024 34.5524 43.912C34.4084 43.792 34.1924 43.7 33.9044 43.636L32.7644 43.408C32.2684 43.304 31.8924 43.12 31.6364 42.856C31.3804 42.592 31.2524 42.256 31.2524 41.848C31.2524 41.48 31.3524 41.16 31.5524 40.888C31.7524 40.616 32.0324 40.408 32.3924 40.264C32.7524 40.112 33.1684 40.036 33.6404 40.036C33.9124 40.036 34.1764 40.064 34.4324 40.12C34.6884 40.176 34.9284 40.256 35.1524 40.36C35.3844 40.464 35.5804 40.596 35.7404 40.756L35.3924 41.572C35.2404 41.436 35.0644 41.32 34.8644 41.224C34.6724 41.128 34.4724 41.056 34.2644 41.008C34.0564 40.952 33.8484 40.924 33.6404 40.924C33.2164 40.924 32.8964 41.004 32.6804 41.164C32.4724 41.316 32.3684 41.524 32.3684 41.788C32.3684 41.988 32.4324 42.152 32.5604 42.28C32.6884 42.408 32.8884 42.5 33.1604 42.556L34.3004 42.784C34.8204 42.888 35.2124 43.064 35.4764 43.312C35.7484 43.56 35.8844 43.896 35.8844 44.32C35.8844 44.688 35.7844 45.008 35.5844 45.28C35.3844 45.552 35.1004 45.76 34.7324 45.904C34.3724 46.04 33.9524 46.108 33.4724 46.108ZM42.8812 46.108C42.1532 46.108 41.6052 45.92 41.2372 45.544C40.8772 45.168 40.6972 44.624 40.6972 43.912V41.08H39.5572V40.144H40.6972V38.38H41.9092V40.144H43.7212V41.08H41.9092V43.816C41.9092 44.24 41.9972 44.56 42.1732 44.776C42.3572 44.992 42.6532 45.1 43.0612 45.1C43.1812 45.1 43.3012 45.084 43.4212 45.052C43.5492 45.02 43.6732 44.988 43.7932 44.956L43.9852 45.868C43.8652 45.94 43.6972 45.996 43.4812 46.036C43.2732 46.084 43.0732 46.108 42.8812 46.108ZM47.2534 46.108C46.6614 46.108 46.1494 45.984 45.7174 45.736C45.2934 45.488 44.9614 45.136 44.7214 44.68C44.4814 44.224 44.3614 43.688 44.3614 43.072C44.3614 42.448 44.4814 41.912 44.7214 41.464C44.9614 41.008 45.2934 40.656 45.7174 40.408C46.1494 40.16 46.6614 40.036 47.2534 40.036C47.8374 40.036 48.3414 40.16 48.7654 40.408C49.1974 40.656 49.5334 41.008 49.7734 41.464C50.0134 41.92 50.1334 42.456 50.1334 43.072C50.1334 43.688 50.0134 44.224 49.7734 44.68C49.5334 45.136 49.1974 45.488 48.7654 45.736C48.3414 45.984 47.8374 46.108 47.2534 46.108ZM47.2414 45.172C47.7454 45.172 48.1494 44.992 48.4534 44.632C48.7574 44.272 48.9094 43.752 48.9094 43.072C48.9094 42.384 48.7574 41.864 48.4534 41.512C48.1494 41.16 47.7454 40.984 47.2414 40.984C46.7454 40.984 46.3454 41.16 46.0414 41.512C45.7374 41.864 45.5854 42.384 45.5854 43.072C45.5854 43.752 45.7374 44.272 46.0414 44.632C46.3454 44.992 46.7454 45.172 47.2414 45.172ZM53.5826 46.108C53.1106 46.108 52.7146 46.02 52.3946 45.844C52.0826 45.668 51.8466 45.408 51.6866 45.064C51.5346 44.712 51.4586 44.272 51.4586 43.744V40.144H52.6706V43.756C52.6706 44.068 52.7106 44.328 52.7906 44.536C52.8786 44.744 53.0106 44.896 53.1866 44.992C53.3706 45.088 53.5986 45.136 53.8706 45.136C54.1746 45.136 54.4426 45.068 54.6746 44.932C54.9066 44.796 55.0866 44.6 55.2146 44.344C55.3426 44.088 55.4066 43.792 55.4066 43.456V40.144H56.6186V46H55.4426V44.716H55.5986C55.4386 45.164 55.1826 45.508 54.8306 45.748C54.4786 45.988 54.0626 46.108 53.5826 46.108ZM58.3266 46V40.144H59.5026V41.548H59.3826C59.5106 41.068 59.7386 40.704 60.0666 40.456C60.4026 40.208 60.8466 40.064 61.3986 40.024L61.7946 40L61.8786 41.032L61.1466 41.104C60.6266 41.152 60.2306 41.316 59.9586 41.596C59.6866 41.876 59.5506 42.26 59.5506 42.748V46H58.3266ZM62.8032 46V40.144H63.9792V41.392H63.8472C64.0232 40.944 64.2992 40.608 64.6752 40.384C65.0512 40.152 65.4832 40.036 65.9712 40.036C66.4352 40.036 66.8192 40.124 67.1232 40.3C67.4352 40.468 67.6672 40.728 67.8192 41.08C67.9712 41.424 68.0472 41.86 68.0472 42.388V46H66.8352V42.46C66.8352 42.124 66.7912 41.852 66.7032 41.644C66.6152 41.428 66.4832 41.268 66.3072 41.164C66.1312 41.06 65.9032 41.008 65.6232 41.008C65.3032 41.008 65.0192 41.076 64.7712 41.212C64.5312 41.348 64.3432 41.544 64.2072 41.8C64.0792 42.056 64.0152 42.352 64.0152 42.688V46H62.8032ZM72.2612 46.108C71.6692 46.108 71.1572 45.984 70.7252 45.736C70.3012 45.488 69.9692 45.136 69.7292 44.68C69.4892 44.224 69.3692 43.688 69.3692 43.072C69.3692 42.448 69.4892 41.912 69.7292 41.464C69.9692 41.008 70.3012 40.656 70.7252 40.408C71.1572 40.16 71.6692 40.036 72.2612 40.036C72.8452 40.036 73.3492 40.16 73.7732 40.408C74.2052 40.656 74.5412 41.008 74.7812 41.464C75.0212 41.92 75.1412 42.456 75.1412 43.072C75.1412 43.688 75.0212 44.224 74.7812 44.68C74.5412 45.136 74.2052 45.488 73.7732 45.736C73.3492 45.984 72.8452 46.108 72.2612 46.108ZM72.2492 45.172C72.7532 45.172 73.1572 44.992 73.4612 44.632C73.7652 44.272 73.9172 43.752 73.9172 43.072C73.9172 42.384 73.7652 41.864 73.4612 41.512C73.1572 41.16 72.7532 40.984 72.2492 40.984C71.7532 40.984 71.3532 41.16 71.0492 41.512C70.7452 41.864 70.5932 42.384 70.5932 43.072C70.5932 43.752 70.7452 44.272 71.0492 44.632C71.3532 44.992 71.7532 45.172 72.2492 45.172ZM76.5024 46V40.144H77.6784V41.392H77.5464C77.7224 40.944 77.9984 40.608 78.3744 40.384C78.7504 40.152 79.1824 40.036 79.6704 40.036C80.1344 40.036 80.5184 40.124 80.8224 40.3C81.1344 40.468 81.3664 40.728 81.5184 41.08C81.6704 41.424 81.7464 41.86 81.7464 42.388V46H80.5344V42.46C80.5344 42.124 80.4904 41.852 80.4024 41.644C80.3144 41.428 80.1824 41.268 80.0064 41.164C79.8304 41.06 79.6024 41.008 79.3224 41.008C79.0024 41.008 78.7184 41.076 78.4704 41.212C78.2304 41.348 78.0424 41.544 77.9064 41.8C77.7784 42.056 77.7144 42.352 77.7144 42.688V46H76.5024ZM85.4685 46.108C85.1565 46.108 84.8525 46.08 84.5565 46.024C84.2605 45.968 83.9885 45.888 83.7405 45.784C83.4925 45.68 83.2725 45.552 83.0805 45.4L83.4285 44.584C83.6285 44.72 83.8405 44.84 84.0645 44.944C84.2885 45.04 84.5205 45.112 84.7605 45.16C85.0085 45.208 85.2485 45.232 85.4805 45.232C85.9045 45.232 86.2245 45.156 86.4405 45.004C86.6565 44.852 86.7645 44.648 86.7645 44.392C86.7645 44.184 86.6925 44.024 86.5485 43.912C86.4045 43.792 86.1885 43.7 85.9005 43.636L84.7605 43.408C84.2645 43.304 83.8885 43.12 83.6325 42.856C83.3765 42.592 83.2485 42.256 83.2485 41.848C83.2485 41.48 83.3485 41.16 83.5485 40.888C83.7485 40.616 84.0285 40.408 84.3885 40.264C84.7485 40.112 85.1645 40.036 85.6365 40.036C85.9085 40.036 86.1725 40.064 86.4285 40.12C86.6845 40.176 86.9245 40.256 87.1485 40.36C87.3805 40.464 87.5765 40.596 87.7365 40.756L87.3885 41.572C87.2365 41.436 87.0605 41.32 86.8605 41.224C86.6685 41.128 86.4685 41.056 86.2605 41.008C86.0525 40.952 85.8445 40.924 85.6365 40.924C85.2125 40.924 84.8925 41.004 84.6765 41.164C84.4685 41.316 84.3645 41.524 84.3645 41.788C84.3645 41.988 84.4285 42.152 84.5565 42.28C84.6845 42.408 84.8845 42.5 85.1565 42.556L86.2965 42.784C86.8165 42.888 87.2085 43.064 87.4725 43.312C87.7445 43.56 87.8805 43.896 87.8805 44.32C87.8805 44.688 87.7805 45.008 87.5805 45.28C87.3805 45.552 87.0965 45.76 86.7285 45.904C86.3685 46.04 85.9485 46.108 85.4685 46.108Z" fill="black"/>
<path d="M25.8627 62.11C25.0854 62.11 24.418 61.9487 23.8607 61.626C23.3034 61.296 22.8744 60.834 22.5737 60.24C22.273 59.646 22.1227 58.9383 22.1227 58.117C22.1227 57.2957 22.273 56.5917 22.5737 56.005C22.8744 55.411 23.3034 54.9527 23.8607 54.63C24.418 54.3073 25.0854 54.146 25.8627 54.146C26.3907 54.146 26.882 54.2267 27.3367 54.388C27.7987 54.5493 28.1837 54.7877 28.4917 55.103L28.0847 56.016C27.7474 55.7227 27.4027 55.51 27.0507 55.378C26.6987 55.246 26.3137 55.18 25.8957 55.18C25.0744 55.18 24.4437 55.433 24.0037 55.939C23.5637 56.445 23.3437 57.171 23.3437 58.117C23.3437 59.063 23.5637 59.7927 24.0037 60.306C24.4437 60.812 25.0744 61.065 25.8957 61.065C26.3137 61.065 26.6987 60.999 27.0507 60.867C27.4027 60.735 27.7474 60.5223 28.0847 60.229L28.4917 61.142C28.1837 61.45 27.7987 61.6883 27.3367 61.857C26.882 62.0257 26.3907 62.11 25.8627 62.11ZM29.7852 62V54.245H30.9072V57.743H30.7972C30.9586 57.347 31.2116 57.0427 31.5562 56.83C31.9009 56.6173 32.2932 56.511 32.7332 56.511C33.1732 56.511 33.5326 56.5917 33.8112 56.753C34.0972 56.907 34.3099 57.1453 34.4492 57.468C34.5959 57.7907 34.6692 58.1977 34.6692 58.689V62H33.5362V58.755C33.5362 58.4543 33.4959 58.2087 33.4152 58.018C33.3419 57.82 33.2209 57.6733 33.0522 57.578C32.8909 57.4753 32.6819 57.424 32.4252 57.424C32.1246 57.424 31.8606 57.49 31.6332 57.622C31.4059 57.754 31.2299 57.9373 31.1052 58.172C30.9806 58.3993 30.9182 58.6633 30.9182 58.964V62H29.7852ZM38.0335 62.099C37.6522 62.099 37.3112 62.0257 37.0105 61.879C36.7099 61.7323 36.4715 61.5343 36.2955 61.285C36.1269 61.0283 36.0425 60.746 36.0425 60.438C36.0425 60.0347 36.1452 59.7193 36.3505 59.492C36.5632 59.2573 36.9042 59.0887 37.3735 58.986C37.8502 58.8833 38.4809 58.832 39.2655 58.832H39.8485V59.536H39.2875C38.8915 59.536 38.5579 59.5507 38.2865 59.58C38.0152 59.602 37.7952 59.646 37.6265 59.712C37.4652 59.7707 37.3479 59.855 37.2745 59.965C37.2012 60.075 37.1645 60.2107 37.1645 60.372C37.1645 60.6433 37.2599 60.8633 37.4505 61.032C37.6485 61.2007 37.9162 61.285 38.2535 61.285C38.5322 61.285 38.7779 61.219 38.9905 61.087C39.2032 60.955 39.3719 60.779 39.4965 60.559C39.6212 60.339 39.6835 60.086 39.6835 59.8V58.546C39.6835 58.1353 39.5882 57.842 39.3975 57.666C39.2142 57.4827 38.9135 57.391 38.4955 57.391C38.1875 57.391 37.8759 57.4387 37.5605 57.534C37.2525 57.622 36.9372 57.765 36.6145 57.963L36.2625 57.16C36.4679 57.028 36.6952 56.9143 36.9445 56.819C37.2012 56.7163 37.4689 56.6393 37.7475 56.588C38.0262 56.5367 38.2975 56.511 38.5615 56.511C39.0529 56.511 39.4599 56.588 39.7825 56.742C40.1125 56.896 40.3619 57.1307 40.5305 57.446C40.6992 57.7613 40.7835 58.1683 40.7835 58.667V62H39.7385V60.812H39.8045C39.7385 61.0687 39.6212 61.296 39.4525 61.494C39.2912 61.6847 39.0895 61.835 38.8475 61.945C38.6129 62.0477 38.3415 62.099 38.0335 62.099ZM42.3751 63.98V56.61H43.4641V57.809H43.3871C43.5118 57.4057 43.7464 57.0903 44.0911 56.863C44.4358 56.6283 44.8428 56.511 45.3121 56.511C45.7961 56.511 46.2178 56.6247 46.5771 56.852C46.9364 57.0793 47.2151 57.402 47.4131 57.82C47.6111 58.238 47.7101 58.733 47.7101 59.305C47.7101 59.8697 47.6111 60.3647 47.4131 60.79C47.2151 61.208 46.9364 61.5307 46.5771 61.758C46.2251 61.9853 45.8034 62.099 45.3121 62.099C44.8501 62.099 44.4504 61.9853 44.1131 61.758C43.7758 61.5233 43.5411 61.219 43.4091 60.845H43.5081V63.98H42.3751ZM45.0261 61.219C45.4954 61.219 45.8694 61.054 46.1481 60.724C46.4268 60.3867 46.5661 59.9137 46.5661 59.305C46.5661 58.6817 46.4268 58.2087 46.1481 57.886C45.8694 57.5633 45.4954 57.402 45.0261 57.402C44.5568 57.402 44.1828 57.5633 43.9041 57.886C43.6328 58.2087 43.4971 58.6817 43.4971 59.305C43.4971 59.9137 43.6364 60.3867 43.9151 60.724C44.1938 61.054 44.5641 61.219 45.0261 61.219ZM48.9148 55.367V54.19H50.2348V55.367H48.9148ZM49.0138 62V56.61H50.1468V62H49.0138ZM54.1065 62.099C53.4245 62.099 52.9148 61.9267 52.5775 61.582C52.2402 61.23 52.0715 60.724 52.0715 60.064V57.49H51.0265V56.61H52.0935V55.004H53.2045V56.61H54.9315V57.49H53.2155V59.987C53.2155 60.3683 53.2962 60.658 53.4575 60.856C53.6262 61.054 53.8975 61.153 54.2715 61.153C54.3962 61.153 54.5172 61.1383 54.6345 61.109C54.7518 61.0797 54.8692 61.0467 54.9865 61.01L55.1625 61.868C55.0378 61.9413 54.8765 61.9963 54.6785 62.033C54.4805 62.077 54.2898 62.099 54.1065 62.099ZM55.9747 62V56.61H57.0637V57.897H56.9757C57.1004 57.4643 57.3167 57.1343 57.6247 56.907C57.9327 56.6797 58.3324 56.5477 58.8237 56.511L59.2307 56.478L59.3187 57.468L58.5927 57.534C58.116 57.578 57.7494 57.732 57.4927 57.996C57.2434 58.2527 57.1187 58.601 57.1187 59.041V62H55.9747ZM62.7381 62.099C62.1441 62.099 61.6308 61.989 61.1981 61.769C60.7655 61.5417 60.4318 61.219 60.1971 60.801C59.9698 60.383 59.8561 59.888 59.8561 59.316C59.8561 58.7587 59.9661 58.271 60.1861 57.853C60.4135 57.435 60.7251 57.1087 61.1211 56.874C61.5245 56.632 61.9901 56.511 62.5181 56.511C63.0241 56.511 63.4568 56.621 63.8161 56.841C64.1755 57.061 64.4541 57.3727 64.6521 57.776C64.8501 58.172 64.9491 58.6487 64.9491 59.206V59.58H60.7361V58.876H64.1681L63.9921 59.041C63.9921 58.491 63.8675 58.0693 63.6181 57.776C63.3688 57.4753 63.0131 57.325 62.5511 57.325C62.2065 57.325 61.9131 57.402 61.6711 57.556C61.4365 57.71 61.2531 57.9263 61.1211 58.205C60.9965 58.4837 60.9341 58.8173 60.9341 59.206V59.283C60.9341 59.7083 61.0038 60.064 61.1431 60.35C61.2825 60.636 61.4878 60.8523 61.7591 60.999C62.0305 61.1383 62.3641 61.208 62.7601 61.208C63.0608 61.208 63.3615 61.164 63.6621 61.076C63.9628 60.9807 64.2451 60.8303 64.5091 60.625L64.8501 61.406C64.5935 61.626 64.2745 61.7983 63.8931 61.923C63.5118 62.0403 63.1268 62.099 62.7381 62.099ZM72.3888 62V60.438H68.8798V59.58L72.5208 54.245H73.5218V59.47H74.6328V60.438H73.5218V62H72.3888ZM72.3998 59.47V55.631H72.6308L69.8258 59.756L69.8038 59.47H72.3998Z" fill="#667085"/>
<defs>
<filter id="filter0_d_8310_972" x="0" y="0" width="96" height="85.8462" filterUnits="userSpaceOnUse" color-interpolation-filters="sRGB">
<feFlood flood-opacity="0" result="BackgroundImageFix"/>
<feColorMatrix in="SourceAlpha" type="matrix" values="0 0 0 0 0 0 0 0 0 0 0 0 0 0 0 0 0 0 127 0" result="hardAlpha"/>
<feOffset dy="4"/>
<feGaussianBlur stdDeviation="2"/>
<feComposite in2="hardAlpha" operator="out"/>
<feColorMatrix type="matrix" values="0 0 0 0 0 0 0 0 0 0 0 0 0 0 0 0 0 0 0.25 0"/>
<feBlend mode="normal" in2="BackgroundImageFix" result="effect1_dropShadow_8310_972"/>
<feBlend mode="normal" in="SourceGraphic" in2="effect1_dropShadow_8310_972" result="shape"/>
</filter>
</defs>
</svg>
