<svg width="101" height="87" viewBox="0 0 101 87" fill="none" xmlns="http://www.w3.org/2000/svg">
<g filter="url(#filter0_d_8358_581)">
<path d="M5.93525 43.0953C5.14905 41.7856 4.75597 41.1303 4.60211 40.4341C4.46596 39.8178 4.46596 39.1814 4.60211 38.5652C4.75597 37.8689 5.14905 37.2136 5.93525 35.9039L24.9806 4.17043C25.7667 2.86051 26.1598 2.20555 26.7098 1.72921C27.1964 1.30774 27.7696 0.989339 28.3923 0.79472C29.0961 0.574707 29.8823 0.574707 31.4547 0.574707H69.5452C71.1178 0.574707 71.9037 0.574707 72.6078 0.79472C73.2302 0.989339 73.8035 1.30774 74.2903 1.72921C74.8402 2.20555 75.2332 2.86051 76.0195 4.17043L95.0647 35.9039C95.851 37.2136 96.244 37.8689 96.3977 38.5652C96.5341 39.1814 96.5341 39.8178 96.3977 40.4341C96.244 41.1303 95.851 41.7856 95.0647 43.0953L76.0195 74.829C75.2332 76.1387 74.8402 76.7936 74.2903 77.27C73.8035 77.6916 73.2302 78.0098 72.6078 78.2045C71.9037 78.4247 71.1178 78.4247 69.5452 78.4247H31.4547C29.8823 78.4247 29.0961 78.4247 28.3923 78.2045C27.7696 78.0098 27.1964 77.6916 26.7098 77.27C26.1598 76.7936 25.7667 76.1387 24.9806 74.829L5.93525 43.0953Z" fill="white"/>
</g>
<path d="M60.875 29.6997H42.125C42.125 29.6997 40.25 29.6372 40.25 24.6997H62.75C62.75 29.6372 60.875 29.6997 60.875 29.6997Z" fill="#E08838"/>
<path d="M61.5 3.44971H41.5V24.6997H61.5V3.44971Z" fill="#F2BB41"/>
<path d="M57.75 10.9497H47.75V12.1997H57.75V10.9497Z" fill="#E08838"/>
<path d="M57.75 13.4497H47.75V14.6997H57.75V13.4497Z" fill="#E08838"/>
<path d="M57.75 15.9497H47.75V17.1997H57.75V15.9497Z" fill="#E08838"/>
<path d="M57.75 18.4497H47.75V19.6997H57.75V18.4497Z" fill="#E08838"/>
<path d="M57.75 20.9497H47.75V22.1997H57.75V20.9497Z" fill="#E08838"/>
<path d="M46.5 10.9497H45.25V12.1997H46.5V10.9497Z" fill="#E08838"/>
<path d="M46.5 13.4497H45.25V14.6997H46.5V13.4497Z" fill="#E08838"/>
<path d="M46.5 15.9497H45.25V17.1997H46.5V15.9497Z" fill="#E08838"/>
<path d="M46.5 18.4497H45.25V19.6997H46.5V18.4497Z" fill="#E08838"/>
<path d="M46.5 20.9497H45.25V22.1997H46.5V20.9497Z" fill="#E08838"/>
<path d="M14.1188 41V32.54H17.6228C18.5348 32.54 19.2388 32.756 19.7348 33.188C20.2308 33.62 20.4788 34.232 20.4788 35.024C20.4788 35.536 20.3668 35.976 20.1428 36.344C19.9188 36.712 19.5908 36.992 19.1588 37.184C18.7348 37.376 18.2228 37.472 17.6228 37.472L17.7308 37.304H18.0428C18.3628 37.304 18.6388 37.384 18.8708 37.544C19.1108 37.704 19.3268 37.96 19.5188 38.312L20.9828 41H19.6148L18.1508 38.3C18.0388 38.092 17.9148 37.932 17.7788 37.82C17.6508 37.7 17.4988 37.62 17.3228 37.58C17.1548 37.532 16.9548 37.508 16.7228 37.508H15.3668V41H14.1188ZM15.3668 36.572H17.4188C18.0268 36.572 18.4868 36.444 18.7988 36.188C19.1108 35.932 19.2668 35.552 19.2668 35.048C19.2668 34.552 19.1108 34.176 18.7988 33.92C18.4868 33.664 18.0268 33.536 17.4188 33.536H15.3668V36.572ZM24.7152 41.108C24.0752 41.108 23.5232 40.988 23.0592 40.748C22.6032 40.5 22.2472 40.152 21.9912 39.704C21.7432 39.248 21.6192 38.708 21.6192 38.084C21.6192 37.476 21.7432 36.944 21.9912 36.488C22.2392 36.032 22.5792 35.676 23.0112 35.42C23.4432 35.164 23.9352 35.036 24.4872 35.036C25.0312 35.036 25.4952 35.156 25.8792 35.396C26.2712 35.628 26.5712 35.96 26.7792 36.392C26.9872 36.824 27.0912 37.34 27.0912 37.94V38.348H22.5792V37.604H26.2752L26.0712 37.772C26.0712 37.172 25.9392 36.708 25.6752 36.38C25.4112 36.052 25.0312 35.888 24.5352 35.888C24.1592 35.888 23.8392 35.976 23.5752 36.152C23.3192 36.328 23.1232 36.572 22.9872 36.884C22.8512 37.196 22.7832 37.56 22.7832 37.976V38.048C22.7832 38.512 22.8552 38.904 22.9992 39.224C23.1512 39.536 23.3712 39.772 23.6592 39.932C23.9472 40.092 24.3032 40.172 24.7272 40.172C25.0632 40.172 25.3912 40.12 25.7112 40.016C26.0392 39.904 26.3472 39.732 26.6352 39.5L26.9952 40.34C26.7312 40.58 26.3912 40.768 25.9752 40.904C25.5592 41.04 25.1392 41.108 24.7152 41.108ZM30.4645 41.108C30.1525 41.108 29.8485 41.08 29.5525 41.024C29.2565 40.968 28.9845 40.888 28.7365 40.784C28.4885 40.68 28.2685 40.552 28.0765 40.4L28.4245 39.584C28.6245 39.72 28.8365 39.84 29.0605 39.944C29.2845 40.04 29.5165 40.112 29.7565 40.16C30.0045 40.208 30.2445 40.232 30.4765 40.232C30.9005 40.232 31.2205 40.156 31.4365 40.004C31.6525 39.852 31.7605 39.648 31.7605 39.392C31.7605 39.184 31.6885 39.024 31.5445 38.912C31.4005 38.792 31.1845 38.7 30.8965 38.636L29.7565 38.408C29.2605 38.304 28.8845 38.12 28.6285 37.856C28.3725 37.592 28.2445 37.256 28.2445 36.848C28.2445 36.48 28.3445 36.16 28.5445 35.888C28.7445 35.616 29.0245 35.408 29.3845 35.264C29.7445 35.112 30.1605 35.036 30.6325 35.036C30.9045 35.036 31.1685 35.064 31.4245 35.12C31.6805 35.176 31.9205 35.256 32.1445 35.36C32.3765 35.464 32.5725 35.596 32.7325 35.756L32.3845 36.572C32.2325 36.436 32.0565 36.32 31.8565 36.224C31.6645 36.128 31.4645 36.056 31.2565 36.008C31.0485 35.952 30.8405 35.924 30.6325 35.924C30.2085 35.924 29.8885 36.004 29.6725 36.164C29.4645 36.316 29.3605 36.524 29.3605 36.788C29.3605 36.988 29.4245 37.152 29.5525 37.28C29.6805 37.408 29.8805 37.5 30.1525 37.556L31.2925 37.784C31.8125 37.888 32.2045 38.064 32.4685 38.312C32.7405 38.56 32.8765 38.896 32.8765 39.32C32.8765 39.688 32.7765 40.008 32.5765 40.28C32.3765 40.552 32.0925 40.76 31.7245 40.904C31.3645 41.04 30.9445 41.108 30.4645 41.108ZM34.225 43.16V35.144H35.413V36.464H35.281C35.409 36.032 35.661 35.688 36.037 35.432C36.413 35.168 36.857 35.036 37.369 35.036C37.889 35.036 38.341 35.16 38.725 35.408C39.117 35.656 39.417 36.004 39.625 36.452C39.841 36.9 39.949 37.44 39.949 38.072C39.949 38.688 39.841 39.228 39.625 39.692C39.417 40.148 39.121 40.5 38.737 40.748C38.353 40.988 37.897 41.108 37.369 41.108C36.865 41.108 36.425 40.98 36.049 40.724C35.673 40.468 35.421 40.128 35.293 39.704H35.437V43.16H34.225ZM37.069 40.172C37.573 40.172 37.973 39.992 38.269 39.632C38.573 39.272 38.725 38.752 38.725 38.072C38.725 37.384 38.573 36.864 38.269 36.512C37.973 36.16 37.573 35.984 37.069 35.984C36.573 35.984 36.173 36.16 35.869 36.512C35.565 36.864 35.413 37.384 35.413 38.072C35.413 38.752 35.565 39.272 35.869 39.632C36.173 39.992 36.573 40.172 37.069 40.172ZM44.0629 41.108C43.4229 41.108 42.8709 40.988 42.4069 40.748C41.9509 40.5 41.5949 40.152 41.3389 39.704C41.0909 39.248 40.9669 38.708 40.9669 38.084C40.9669 37.476 41.0909 36.944 41.3389 36.488C41.5869 36.032 41.9269 35.676 42.3589 35.42C42.7909 35.164 43.2829 35.036 43.8349 35.036C44.3789 35.036 44.8429 35.156 45.2269 35.396C45.6189 35.628 45.9189 35.96 46.1269 36.392C46.3349 36.824 46.4389 37.34 46.4389 37.94V38.348H41.9269V37.604H45.6229L45.4189 37.772C45.4189 37.172 45.2869 36.708 45.0229 36.38C44.7589 36.052 44.3789 35.888 43.8829 35.888C43.5069 35.888 43.1869 35.976 42.9229 36.152C42.6669 36.328 42.4709 36.572 42.3349 36.884C42.1989 37.196 42.1309 37.56 42.1309 37.976V38.048C42.1309 38.512 42.2029 38.904 42.3469 39.224C42.4989 39.536 42.7189 39.772 43.0069 39.932C43.2949 40.092 43.6509 40.172 44.0749 40.172C44.4109 40.172 44.7389 40.12 45.0589 40.016C45.3869 39.904 45.6949 39.732 45.9829 39.5L46.3429 40.34C46.0789 40.58 45.7389 40.768 45.3229 40.904C44.9069 41.04 44.4869 41.108 44.0629 41.108ZM50.3402 41.108C49.7402 41.108 49.2202 40.984 48.7802 40.736C48.3482 40.48 48.0122 40.124 47.7722 39.668C47.5322 39.204 47.4122 38.66 47.4122 38.036C47.4122 37.42 47.5322 36.888 47.7722 36.44C48.0122 35.992 48.3482 35.648 48.7802 35.408C49.2202 35.16 49.7402 35.036 50.3402 35.036C50.7082 35.036 51.0722 35.1 51.4322 35.228C51.7922 35.348 52.0882 35.524 52.3202 35.756L51.9362 36.608C51.7202 36.4 51.4762 36.248 51.2042 36.152C50.9322 36.048 50.6762 35.996 50.4362 35.996C49.8682 35.996 49.4282 36.176 49.1162 36.536C48.8122 36.888 48.6602 37.392 48.6602 38.048C48.6602 38.704 48.8122 39.22 49.1162 39.596C49.4282 39.964 49.8682 40.148 50.4362 40.148C50.6762 40.148 50.9322 40.1 51.2042 40.004C51.4762 39.9 51.7202 39.744 51.9362 39.536L52.3202 40.4C52.0882 40.616 51.7882 40.788 51.4202 40.916C51.0602 41.044 50.7002 41.108 50.3402 41.108ZM55.8695 41.108C55.1415 41.108 54.5935 40.92 54.2255 40.544C53.8655 40.168 53.6855 39.624 53.6855 38.912V36.08H52.5455V35.144H53.6855V33.38H54.8975V35.144H56.7095V36.08H54.8975V38.816C54.8975 39.24 54.9855 39.56 55.1615 39.776C55.3455 39.992 55.6415 40.1 56.0495 40.1C56.1695 40.1 56.2895 40.084 56.4095 40.052C56.5375 40.02 56.6615 39.988 56.7815 39.956L56.9735 40.868C56.8535 40.94 56.6855 40.996 56.4695 41.036C56.2615 41.084 56.0615 41.108 55.8695 41.108ZM60.4457 41.108C59.8057 41.108 59.2537 40.988 58.7897 40.748C58.3337 40.5 57.9777 40.152 57.7217 39.704C57.4737 39.248 57.3497 38.708 57.3497 38.084C57.3497 37.476 57.4737 36.944 57.7217 36.488C57.9697 36.032 58.3097 35.676 58.7417 35.42C59.1737 35.164 59.6657 35.036 60.2177 35.036C60.7617 35.036 61.2257 35.156 61.6097 35.396C62.0017 35.628 62.3017 35.96 62.5097 36.392C62.7177 36.824 62.8217 37.34 62.8217 37.94V38.348H58.3097V37.604H62.0057L61.8017 37.772C61.8017 37.172 61.6697 36.708 61.4057 36.38C61.1417 36.052 60.7617 35.888 60.2657 35.888C59.8897 35.888 59.5697 35.976 59.3057 36.152C59.0497 36.328 58.8537 36.572 58.7177 36.884C58.5817 37.196 58.5137 37.56 58.5137 37.976V38.048C58.5137 38.512 58.5857 38.904 58.7297 39.224C58.8817 39.536 59.1017 39.772 59.3897 39.932C59.6777 40.092 60.0337 40.172 60.4577 40.172C60.7937 40.172 61.1217 40.12 61.4417 40.016C61.7697 39.904 62.0777 39.732 62.3657 39.5L62.7257 40.34C62.4617 40.58 62.1217 40.768 61.7057 40.904C61.2897 41.04 60.8697 41.108 60.4457 41.108ZM63.8564 41V40.208L67.2884 35.78V36.08H63.8564V35.144H68.3804V35.948L64.9244 40.4V40.076H68.5124V41H63.8564ZM74.758 41.108C74.118 41.108 73.638 40.928 73.318 40.568C73.006 40.2 72.85 39.672 72.85 38.984V32.54H74.062V38.912C74.062 39.168 74.098 39.388 74.17 39.572C74.242 39.748 74.35 39.88 74.494 39.968C74.638 40.056 74.818 40.1 75.034 40.1C75.13 40.1 75.222 40.096 75.31 40.088C75.398 40.08 75.482 40.064 75.562 40.04L75.538 41.012C75.402 41.044 75.27 41.068 75.142 41.084C75.014 41.1 74.886 41.108 74.758 41.108ZM79.2074 41.108C78.5674 41.108 78.0154 40.988 77.5514 40.748C77.0954 40.5 76.7394 40.152 76.4834 39.704C76.2354 39.248 76.1114 38.708 76.1114 38.084C76.1114 37.476 76.2354 36.944 76.4834 36.488C76.7314 36.032 77.0714 35.676 77.5034 35.42C77.9354 35.164 78.4274 35.036 78.9794 35.036C79.5234 35.036 79.9874 35.156 80.3714 35.396C80.7634 35.628 81.0634 35.96 81.2714 36.392C81.4794 36.824 81.5834 37.34 81.5834 37.94V38.348H77.0714V37.604H80.7674L80.5634 37.772C80.5634 37.172 80.4314 36.708 80.1674 36.38C79.9034 36.052 79.5234 35.888 79.0274 35.888C78.6514 35.888 78.3314 35.976 78.0674 36.152C77.8114 36.328 77.6154 36.572 77.4794 36.884C77.3434 37.196 77.2754 37.56 77.2754 37.976V38.048C77.2754 38.512 77.3474 38.904 77.4914 39.224C77.6434 39.536 77.8634 39.772 78.1514 39.932C78.4394 40.092 78.7954 40.172 79.2194 40.172C79.5554 40.172 79.8834 40.12 80.2034 40.016C80.5314 39.904 80.8394 39.732 81.1274 39.5L81.4874 40.34C81.2234 40.58 80.8834 40.768 80.4674 40.904C80.0514 41.04 79.6314 41.108 79.2074 41.108ZM84.9567 41.108C84.6447 41.108 84.3407 41.08 84.0447 41.024C83.7487 40.968 83.4767 40.888 83.2287 40.784C82.9807 40.68 82.7607 40.552 82.5687 40.4L82.9167 39.584C83.1167 39.72 83.3287 39.84 83.5527 39.944C83.7767 40.04 84.0087 40.112 84.2487 40.16C84.4967 40.208 84.7367 40.232 84.9687 40.232C85.3927 40.232 85.7127 40.156 85.9287 40.004C86.1447 39.852 86.2527 39.648 86.2527 39.392C86.2527 39.184 86.1807 39.024 86.0367 38.912C85.8927 38.792 85.6767 38.7 85.3887 38.636L84.2487 38.408C83.7527 38.304 83.3767 38.12 83.1207 37.856C82.8647 37.592 82.7367 37.256 82.7367 36.848C82.7367 36.48 82.8367 36.16 83.0367 35.888C83.2367 35.616 83.5167 35.408 83.8767 35.264C84.2367 35.112 84.6527 35.036 85.1247 35.036C85.3967 35.036 85.6607 35.064 85.9167 35.12C86.1727 35.176 86.4127 35.256 86.6367 35.36C86.8687 35.464 87.0647 35.596 87.2247 35.756L86.8767 36.572C86.7247 36.436 86.5487 36.32 86.3487 36.224C86.1567 36.128 85.9567 36.056 85.7487 36.008C85.5407 35.952 85.3327 35.924 85.1247 35.924C84.7007 35.924 84.3807 36.004 84.1647 36.164C83.9567 36.316 83.8527 36.524 83.8527 36.788C83.8527 36.988 83.9167 37.152 84.0447 37.28C84.1727 37.408 84.3727 37.5 84.6447 37.556L85.7847 37.784C86.3047 37.888 86.6967 38.064 86.9607 38.312C87.2327 38.56 87.3687 38.896 87.3687 39.32C87.3687 39.688 87.2687 40.008 87.0687 40.28C86.8687 40.552 86.5847 40.76 86.2167 40.904C85.8567 41.04 85.4367 41.108 84.9567 41.108ZM34.436 57V51.144H35.612V52.548H35.492C35.62 52.068 35.848 51.704 36.176 51.456C36.512 51.208 36.956 51.064 37.508 51.024L37.904 51L37.988 52.032L37.256 52.104C36.736 52.152 36.34 52.316 36.068 52.596C35.796 52.876 35.66 53.26 35.66 53.748V57H34.436ZM41.5785 57.108C40.9385 57.108 40.3865 56.988 39.9225 56.748C39.4665 56.5 39.1105 56.152 38.8545 55.704C38.6065 55.248 38.4825 54.708 38.4825 54.084C38.4825 53.476 38.6065 52.944 38.8545 52.488C39.1025 52.032 39.4425 51.676 39.8745 51.42C40.3065 51.164 40.7985 51.036 41.3505 51.036C41.8945 51.036 42.3585 51.156 42.7425 51.396C43.1345 51.628 43.4345 51.96 43.6425 52.392C43.8505 52.824 43.9545 53.34 43.9545 53.94V54.348H39.4425V53.604H43.1385L42.9345 53.772C42.9345 53.172 42.8025 52.708 42.5385 52.38C42.2745 52.052 41.8945 51.888 41.3985 51.888C41.0225 51.888 40.7025 51.976 40.4385 52.152C40.1825 52.328 39.9865 52.572 39.8505 52.884C39.7145 53.196 39.6465 53.56 39.6465 53.976V54.048C39.6465 54.512 39.7185 54.904 39.8625 55.224C40.0145 55.536 40.2345 55.772 40.5225 55.932C40.8105 56.092 41.1665 56.172 41.5905 56.172C41.9265 56.172 42.2545 56.12 42.5745 56.016C42.9025 55.904 43.2105 55.732 43.4985 55.5L43.8585 56.34C43.5945 56.58 43.2545 56.768 42.8385 56.904C42.4225 57.04 42.0025 57.108 41.5785 57.108ZM40.9425 50.364L39.3105 47.94H40.5465L41.7825 50.364H40.9425ZM47.9278 59.268C47.3998 59.268 46.9078 59.204 46.4518 59.076C45.9958 58.948 45.5918 58.756 45.2398 58.5L45.6118 57.636C45.8438 57.788 46.0798 57.916 46.3198 58.02C46.5678 58.132 46.8158 58.212 47.0638 58.26C47.3198 58.308 47.5798 58.332 47.8438 58.332C48.4038 58.332 48.8238 58.188 49.1038 57.9C49.3838 57.62 49.5238 57.204 49.5238 56.652V55.428H49.6318C49.5118 55.868 49.2598 56.216 48.8758 56.472C48.4918 56.728 48.0478 56.856 47.5438 56.856C47.0158 56.856 46.5558 56.736 46.1638 56.496C45.7718 56.248 45.4678 55.908 45.2518 55.476C45.0358 55.036 44.9278 54.524 44.9278 53.94C44.9278 53.356 45.0358 52.848 45.2518 52.416C45.4678 51.984 45.7718 51.648 46.1638 51.408C46.5558 51.16 47.0158 51.036 47.5438 51.036C48.0558 51.036 48.4998 51.164 48.8758 51.42C49.2598 51.676 49.5078 52.024 49.6198 52.464H49.5238V51.144H50.6998V56.508C50.6998 57.116 50.5958 57.624 50.3878 58.032C50.1798 58.448 49.8678 58.756 49.4518 58.956C49.0438 59.164 48.5358 59.268 47.9278 59.268ZM47.8318 55.908C48.3518 55.908 48.7598 55.732 49.0558 55.38C49.3598 55.028 49.5118 54.548 49.5118 53.94C49.5118 53.34 49.3598 52.864 49.0558 52.512C48.7598 52.16 48.3518 51.984 47.8318 51.984C47.3198 51.984 46.9118 52.16 46.6078 52.512C46.3038 52.864 46.1518 53.34 46.1518 53.94C46.1518 54.548 46.3038 55.028 46.6078 55.38C46.9118 55.732 47.3198 55.908 47.8318 55.908ZM54.3088 57.108C53.6688 57.108 53.1888 56.928 52.8688 56.568C52.5568 56.2 52.4008 55.672 52.4008 54.984V48.54H53.6128V54.912C53.6128 55.168 53.6488 55.388 53.7208 55.572C53.7928 55.748 53.9008 55.88 54.0448 55.968C54.1888 56.056 54.3688 56.1 54.5848 56.1C54.6808 56.1 54.7728 56.096 54.8608 56.088C54.9488 56.08 55.0328 56.064 55.1128 56.04L55.0888 57.012C54.9528 57.044 54.8208 57.068 54.6928 57.084C54.5648 57.1 54.4368 57.108 54.3088 57.108ZM58.7582 57.108C58.1182 57.108 57.5662 56.988 57.1022 56.748C56.6462 56.5 56.2902 56.152 56.0342 55.704C55.7862 55.248 55.6622 54.708 55.6622 54.084C55.6622 53.476 55.7862 52.944 56.0342 52.488C56.2822 52.032 56.6222 51.676 57.0542 51.42C57.4862 51.164 57.9782 51.036 58.5302 51.036C59.0742 51.036 59.5382 51.156 59.9222 51.396C60.3142 51.628 60.6142 51.96 60.8222 52.392C61.0302 52.824 61.1342 53.34 61.1342 53.94V54.348H56.6222V53.604H60.3182L60.1142 53.772C60.1142 53.172 59.9822 52.708 59.7182 52.38C59.4542 52.052 59.0742 51.888 58.5782 51.888C58.2022 51.888 57.8822 51.976 57.6182 52.152C57.3622 52.328 57.1662 52.572 57.0302 52.884C56.8942 53.196 56.8262 53.56 56.8262 53.976V54.048C56.8262 54.512 56.8982 54.904 57.0422 55.224C57.1942 55.536 57.4142 55.772 57.7022 55.932C57.9902 56.092 58.3462 56.172 58.7702 56.172C59.1062 56.172 59.4342 56.12 59.7542 56.016C60.0822 55.904 60.3902 55.732 60.6782 55.5L61.0382 56.34C60.7742 56.58 60.4342 56.768 60.0182 56.904C59.6022 57.04 59.1822 57.108 58.7582 57.108ZM64.5075 57.108C64.1955 57.108 63.8915 57.08 63.5955 57.024C63.2995 56.968 63.0275 56.888 62.7795 56.784C62.5315 56.68 62.3115 56.552 62.1195 56.4L62.4675 55.584C62.6675 55.72 62.8795 55.84 63.1035 55.944C63.3275 56.04 63.5595 56.112 63.7995 56.16C64.0475 56.208 64.2875 56.232 64.5195 56.232C64.9435 56.232 65.2635 56.156 65.4795 56.004C65.6955 55.852 65.8035 55.648 65.8035 55.392C65.8035 55.184 65.7315 55.024 65.5875 54.912C65.4435 54.792 65.2275 54.7 64.9395 54.636L63.7995 54.408C63.3035 54.304 62.9275 54.12 62.6715 53.856C62.4155 53.592 62.2875 53.256 62.2875 52.848C62.2875 52.48 62.3875 52.16 62.5875 51.888C62.7875 51.616 63.0675 51.408 63.4275 51.264C63.7875 51.112 64.2035 51.036 64.6755 51.036C64.9475 51.036 65.2115 51.064 65.4675 51.12C65.7235 51.176 65.9635 51.256 66.1875 51.36C66.4195 51.464 66.6155 51.596 66.7755 51.756L66.4275 52.572C66.2755 52.436 66.0995 52.32 65.8995 52.224C65.7075 52.128 65.5075 52.056 65.2995 52.008C65.0915 51.952 64.8835 51.924 64.6755 51.924C64.2515 51.924 63.9315 52.004 63.7155 52.164C63.5075 52.316 63.4035 52.524 63.4035 52.788C63.4035 52.988 63.4675 53.152 63.5955 53.28C63.7235 53.408 63.9235 53.5 64.1955 53.556L65.3355 53.784C65.8555 53.888 66.2475 54.064 66.5115 54.312C66.7835 54.56 66.9195 54.896 66.9195 55.32C66.9195 55.688 66.8195 56.008 66.6195 56.28C66.4195 56.552 66.1355 56.76 65.7675 56.904C65.4075 57.04 64.9875 57.108 64.5075 57.108Z" fill="black"/>
<path d="M29.1576 72.6847C28.3802 72.6847 27.7129 72.5234 27.1556 72.2007C26.5982 71.8707 26.1692 71.4087 25.8686 70.8147C25.5679 70.2207 25.4176 69.513 25.4176 68.6917C25.4176 67.8704 25.5679 67.1664 25.8686 66.5797C26.1692 65.9857 26.5982 65.5274 27.1556 65.2047C27.7129 64.882 28.3802 64.7207 29.1576 64.7207C29.6856 64.7207 30.1769 64.8014 30.6316 64.9627C31.0936 65.124 31.4786 65.3624 31.7866 65.6777L31.3796 66.5907C31.0422 66.2974 30.6976 66.0847 30.3456 65.9527C29.9936 65.8207 29.6086 65.7547 29.1906 65.7547C28.3692 65.7547 27.7386 66.0077 27.2986 66.5137C26.8586 67.0197 26.6386 67.7457 26.6386 68.6917C26.6386 69.6377 26.8586 70.3674 27.2986 70.8807C27.7386 71.3867 28.3692 71.6397 29.1906 71.6397C29.6086 71.6397 29.9936 71.5737 30.3456 71.4417C30.6976 71.3097 31.0422 71.097 31.3796 70.8037L31.7866 71.7167C31.4786 72.0247 31.0936 72.263 30.6316 72.4317C30.1769 72.6004 29.6856 72.6847 29.1576 72.6847ZM33.0801 72.5747V64.8197H34.2021V68.3177H34.0921C34.2534 67.9217 34.5064 67.6174 34.8511 67.4047C35.1958 67.192 35.5881 67.0857 36.0281 67.0857C36.4681 67.0857 36.8274 67.1664 37.1061 67.3277C37.3921 67.4817 37.6048 67.72 37.7441 68.0427C37.8908 68.3654 37.9641 68.7724 37.9641 69.2637V72.5747H36.8311V69.3297C36.8311 69.029 36.7908 68.7834 36.7101 68.5927C36.6368 68.3947 36.5158 68.248 36.3471 68.1527C36.1858 68.05 35.9768 67.9987 35.7201 67.9987C35.4194 67.9987 35.1554 68.0647 34.9281 68.1967C34.7008 68.3287 34.5248 68.512 34.4001 68.7467C34.2754 68.974 34.2131 69.238 34.2131 69.5387V72.5747H33.0801ZM41.3284 72.6737C40.9471 72.6737 40.6061 72.6004 40.3054 72.4537C40.0047 72.307 39.7664 72.109 39.5904 71.8597C39.4217 71.603 39.3374 71.3207 39.3374 71.0127C39.3374 70.6094 39.4401 70.294 39.6454 70.0667C39.8581 69.832 40.1991 69.6634 40.6684 69.5607C41.1451 69.458 41.7757 69.4067 42.5604 69.4067H43.1434V70.1107H42.5824C42.1864 70.1107 41.8527 70.1254 41.5814 70.1547C41.3101 70.1767 41.0901 70.2207 40.9214 70.2867C40.7601 70.3454 40.6427 70.4297 40.5694 70.5397C40.4961 70.6497 40.4594 70.7854 40.4594 70.9467C40.4594 71.218 40.5547 71.438 40.7454 71.6067C40.9434 71.7754 41.2111 71.8597 41.5484 71.8597C41.8271 71.8597 42.0727 71.7937 42.2854 71.6617C42.4981 71.5297 42.6667 71.3537 42.7914 71.1337C42.9161 70.9137 42.9784 70.6607 42.9784 70.3747V69.1207C42.9784 68.71 42.8831 68.4167 42.6924 68.2407C42.5091 68.0574 42.2084 67.9657 41.7904 67.9657C41.4824 67.9657 41.1707 68.0134 40.8554 68.1087C40.5474 68.1967 40.2321 68.3397 39.9094 68.5377L39.5574 67.7347C39.7627 67.6027 39.9901 67.489 40.2394 67.3937C40.4961 67.291 40.7637 67.214 41.0424 67.1627C41.3211 67.1114 41.5924 67.0857 41.8564 67.0857C42.3477 67.0857 42.7547 67.1627 43.0774 67.3167C43.4074 67.4707 43.6567 67.7054 43.8254 68.0207C43.9941 68.336 44.0784 68.743 44.0784 69.2417V72.5747H43.0334V71.3867H43.0994C43.0334 71.6434 42.9161 71.8707 42.7474 72.0687C42.5861 72.2594 42.3844 72.4097 42.1424 72.5197C41.9077 72.6224 41.6364 72.6737 41.3284 72.6737ZM45.67 74.5547V67.1847H46.759V68.3837H46.682C46.8066 67.9804 47.0413 67.665 47.386 67.4377C47.7306 67.203 48.1376 67.0857 48.607 67.0857C49.091 67.0857 49.5126 67.1994 49.872 67.4267C50.2313 67.654 50.51 67.9767 50.708 68.3947C50.906 68.8127 51.005 69.3077 51.005 69.8797C51.005 70.4444 50.906 70.9394 50.708 71.3647C50.51 71.7827 50.2313 72.1054 49.872 72.3327C49.52 72.56 49.0983 72.6737 48.607 72.6737C48.145 72.6737 47.7453 72.56 47.408 72.3327C47.0706 72.098 46.836 71.7937 46.704 71.4197H46.803V74.5547H45.67ZM48.321 71.7937C48.7903 71.7937 49.1643 71.6287 49.443 71.2987C49.7216 70.9614 49.861 70.4884 49.861 69.8797C49.861 69.2564 49.7216 68.7834 49.443 68.4607C49.1643 68.138 48.7903 67.9767 48.321 67.9767C47.8516 67.9767 47.4776 68.138 47.199 68.4607C46.9276 68.7834 46.792 69.2564 46.792 69.8797C46.792 70.4884 46.9313 70.9614 47.21 71.2987C47.4886 71.6287 47.859 71.7937 48.321 71.7937ZM52.2096 65.9417V64.7647H53.5296V65.9417H52.2096ZM52.3086 72.5747V67.1847H53.4416V72.5747H52.3086ZM57.4014 72.6737C56.7194 72.6737 56.2097 72.5014 55.8724 72.1567C55.535 71.8047 55.3664 71.2987 55.3664 70.6387V68.0647H54.3214V67.1847H55.3884V65.5787H56.4994V67.1847H58.2264V68.0647H56.5104V70.5617C56.5104 70.943 56.591 71.2327 56.7524 71.4307C56.921 71.6287 57.1924 71.7277 57.5664 71.7277C57.691 71.7277 57.812 71.713 57.9294 71.6837C58.0467 71.6544 58.164 71.6214 58.2814 71.5847L58.4574 72.4427C58.3327 72.516 58.1714 72.571 57.9734 72.6077C57.7754 72.6517 57.5847 72.6737 57.4014 72.6737ZM59.2696 72.5747V67.1847H60.3586V68.4717H60.2706C60.3952 68.039 60.6116 67.709 60.9196 67.4817C61.2276 67.2544 61.6272 67.1224 62.1186 67.0857L62.5256 67.0527L62.6136 68.0427L61.8876 68.1087C61.4109 68.1527 61.0442 68.3067 60.7876 68.5707C60.5382 68.8274 60.4136 69.1757 60.4136 69.6157V72.5747H59.2696ZM66.033 72.6737C65.439 72.6737 64.9257 72.5637 64.493 72.3437C64.0604 72.1164 63.7267 71.7937 63.492 71.3757C63.2647 70.9577 63.151 70.4627 63.151 69.8907C63.151 69.3334 63.261 68.8457 63.481 68.4277C63.7084 68.0097 64.02 67.6834 64.416 67.4487C64.8194 67.2067 65.285 67.0857 65.813 67.0857C66.319 67.0857 66.7517 67.1957 67.111 67.4157C67.4704 67.6357 67.749 67.9474 67.947 68.3507C68.145 68.7467 68.244 69.2234 68.244 69.7807V70.1547H64.031V69.4507H67.463L67.287 69.6157C67.287 69.0657 67.1624 68.644 66.913 68.3507C66.6637 68.05 66.308 67.8997 65.846 67.8997C65.5014 67.8997 65.208 67.9767 64.966 68.1307C64.7314 68.2847 64.548 68.501 64.416 68.7797C64.2914 69.0584 64.229 69.392 64.229 69.7807V69.8577C64.229 70.283 64.2987 70.6387 64.438 70.9247C64.5774 71.2107 64.7827 71.427 65.054 71.5737C65.3254 71.713 65.659 71.7827 66.055 71.7827C66.3557 71.7827 66.6564 71.7387 66.957 71.6507C67.2577 71.5554 67.54 71.405 67.804 71.1997L68.145 71.9807C67.8884 72.2007 67.5694 72.373 67.188 72.4977C66.8067 72.615 66.4217 72.6737 66.033 72.6737ZM72.7577 72.5747L76.5417 65.3477L76.5527 65.8097H72.3287V64.8197H77.5867V65.6777L74.0227 72.5747H72.7577Z" fill="#667085"/>
<defs>
<filter id="filter0_d_8358_581" x="0.5" y="0.574707" width="100" height="85.8501" filterUnits="userSpaceOnUse" color-interpolation-filters="sRGB">
<feFlood flood-opacity="0" result="BackgroundImageFix"/>
<feColorMatrix in="SourceAlpha" type="matrix" values="0 0 0 0 0 0 0 0 0 0 0 0 0 0 0 0 0 0 127 0" result="hardAlpha"/>
<feOffset dy="4"/>
<feGaussianBlur stdDeviation="2"/>
<feComposite in2="hardAlpha" operator="out"/>
<feColorMatrix type="matrix" values="0 0 0 0 0 0 0 0 0 0 0 0 0 0 0 0 0 0 0.25 0"/>
<feBlend mode="normal" in2="BackgroundImageFix" result="effect1_dropShadow_8358_581"/>
<feBlend mode="normal" in="SourceGraphic" in2="effect1_dropShadow_8358_581" result="shape"/>
</filter>
</defs>
</svg>
