<svg width="96" height="87" viewBox="0 0 96 87" fill="none" xmlns="http://www.w3.org/2000/svg">
<g filter="url(#filter0_d_8339_572)">
<path d="M5.37285 43.1921C4.62083 41.8824 4.24484 41.2272 4.09767 40.531C3.96744 39.9148 3.96744 39.2784 4.09767 38.6622C4.24484 37.966 4.62083 37.3107 5.37285 36.001L23.5901 4.26913C24.3421 2.95928 24.7181 2.30435 25.2442 1.82802C25.7096 1.40658 26.2579 1.0882 26.8535 0.893586C27.5267 0.673584 28.2787 0.673584 29.7827 0.673584H66.2171C67.7214 0.673584 68.4731 0.673584 69.1466 0.893586C69.7419 1.0882 70.2903 1.40658 70.756 1.82802C71.282 2.30435 71.6578 2.95928 72.41 4.26913L90.6271 36.001C91.3792 37.3107 91.7551 37.966 91.9021 38.6622C92.0326 39.2784 92.0326 39.9148 91.9021 40.531C91.7551 41.2272 91.3792 41.8824 90.6271 43.1921L72.41 74.9242C71.6578 76.2339 71.282 76.8887 70.756 77.3651C70.2903 77.7867 69.7419 78.1049 69.1466 78.2995C68.4731 78.5197 67.7214 78.5197 66.2171 78.5197H29.7827C28.2787 78.5197 27.5267 78.5197 26.8535 78.2995C26.2579 78.1049 25.7096 77.7867 25.2442 77.3651C24.7181 76.8887 24.3421 76.2339 23.5901 74.9242L5.37285 43.1921Z" fill="white"/>
</g>
<g clip-path="url(#clip0_8339_572)">
<path d="M55.4134 21.908C54.6686 18.5478 53.9238 15.1877 53.1786 11.8276C51.921 11.8276 50.6635 11.8276 49.4061 11.8276C49.5858 15.1878 49.7658 18.5479 49.9456 21.908H55.4134Z" fill="#F2BB41"/>
<path d="M50.2325 27.272C50.4691 31.6879 50.7054 36.1037 50.9416 40.5196C53.8072 40.5196 56.6728 40.5196 59.5384 40.5196C58.5594 36.1037 57.5809 31.6879 56.6024 27.272H50.2325Z" fill="#F2BB41"/>
<path d="M47.0039 11.8276C45.7464 11.8276 44.4888 11.8276 43.2315 11.8276C42.4866 15.1877 41.7422 18.5478 40.9974 21.908H46.4649C46.6444 18.5478 46.824 15.1877 47.0039 11.8276Z" fill="#F2BB41"/>
<path d="M36.8717 40.5196C39.7375 40.5196 42.6029 40.5196 45.4685 40.5196C45.7056 36.1037 45.9419 31.6879 46.1778 27.272H39.8087C38.83 31.6879 37.8512 36.1038 36.8717 40.5196Z" fill="#F2BB41"/>
<path d="M62.8569 23.3008H33.5532C33.3609 23.3008 33.2051 23.4566 33.2051 23.6489V25.531C33.2051 25.7233 33.3609 25.8792 33.5532 25.8792H35.4374V28.6983C35.4374 28.8906 35.5932 29.0465 35.7855 29.0465H37.6658C37.8251 29.0465 37.964 28.9383 38.0031 28.7841L38.7417 25.8793H57.6684L58.4068 28.7841C58.4459 28.9385 58.585 29.0465 58.7443 29.0465H60.6243C60.8168 29.0465 60.9725 28.8906 60.9725 28.6983V25.8792H62.8568C63.0491 25.8792 63.205 25.7233 63.205 25.531V23.6489C63.2051 23.4566 63.0491 23.3008 62.8569 23.3008Z" fill="#F2BB41"/>
</g>
<path d="M20.5578 50.1736L24.3258 41.7136H25.3578L29.1378 50.1736H27.8658L26.8338 47.7736L27.3978 48.1096H22.2858L22.8378 47.7736L21.8178 50.1736H20.5578ZM24.8298 43.0936L23.0178 47.3896L22.7178 47.1016H26.9538L26.6778 47.3896L24.8538 43.0936H24.8298ZM32.2017 50.2816C31.7297 50.2816 31.3337 50.1936 31.0137 50.0176C30.7017 49.8416 30.4657 49.5816 30.3057 49.2376C30.1537 48.8856 30.0777 48.4456 30.0777 47.9176V44.3176H31.2897V47.9296C31.2897 48.2416 31.3297 48.5016 31.4097 48.7096C31.4977 48.9176 31.6297 49.0696 31.8057 49.1656C31.9897 49.2616 32.2177 49.3096 32.4897 49.3096C32.7937 49.3096 33.0617 49.2416 33.2937 49.1056C33.5257 48.9696 33.7057 48.7736 33.8337 48.5176C33.9617 48.2616 34.0257 47.9656 34.0257 47.6296V44.3176H35.2377V50.1736H34.0617V48.8896H34.2177C34.0577 49.3376 33.8017 49.6816 33.4497 49.9216C33.0977 50.1616 32.6817 50.2816 32.2017 50.2816ZM39.4418 50.2816C38.7138 50.2816 38.1658 50.0936 37.7978 49.7176C37.4378 49.3416 37.2578 48.7976 37.2578 48.0856V45.2536H36.1178V44.3176H37.2578V42.5536H38.4698V44.3176H40.2818V45.2536H38.4698V47.9896C38.4698 48.4136 38.5578 48.7336 38.7338 48.9496C38.9178 49.1656 39.2138 49.2736 39.6217 49.2736C39.7418 49.2736 39.8618 49.2576 39.9818 49.2256C40.1098 49.1936 40.2338 49.1616 40.3538 49.1296L40.5458 50.0416C40.4258 50.1136 40.2578 50.1696 40.0418 50.2096C39.8338 50.2576 39.6338 50.2816 39.4418 50.2816ZM43.814 50.2816C43.222 50.2816 42.71 50.1576 42.278 49.9096C41.854 49.6616 41.522 49.3096 41.282 48.8536C41.042 48.3976 40.922 47.8616 40.922 47.2456C40.922 46.6216 41.042 46.0856 41.282 45.6376C41.522 45.1816 41.854 44.8296 42.278 44.5816C42.71 44.3336 43.222 44.2096 43.814 44.2096C44.398 44.2096 44.902 44.3336 45.326 44.5816C45.758 44.8296 46.094 45.1816 46.334 45.6376C46.574 46.0936 46.694 46.6296 46.694 47.2456C46.694 47.8616 46.574 48.3976 46.334 48.8536C46.094 49.3096 45.758 49.6616 45.326 49.9096C44.902 50.1576 44.398 50.2816 43.814 50.2816ZM43.802 49.3456C44.306 49.3456 44.71 49.1656 45.014 48.8056C45.318 48.4456 45.47 47.9256 45.47 47.2456C45.47 46.5576 45.318 46.0376 45.014 45.6856C44.71 45.3336 44.306 45.1576 43.802 45.1576C43.306 45.1576 42.906 45.3336 42.602 45.6856C42.298 46.0376 42.146 46.5576 42.146 47.2456C42.146 47.9256 42.298 48.4456 42.602 48.8056C42.906 49.1656 43.306 49.3456 43.802 49.3456ZM48.0551 50.1736V44.3176H49.2311V45.7216H49.1111C49.2391 45.2416 49.4671 44.8776 49.7951 44.6296C50.1311 44.3816 50.5751 44.2376 51.1271 44.1976L51.5231 44.1736L51.6071 45.2056L50.8751 45.2776C50.3551 45.3256 49.9591 45.4896 49.6871 45.7696C49.4151 46.0496 49.2791 46.4336 49.2791 46.9216V50.1736H48.0551ZM54.9937 50.2816C54.4017 50.2816 53.8897 50.1576 53.4577 49.9096C53.0337 49.6616 52.7017 49.3096 52.4617 48.8536C52.2217 48.3976 52.1017 47.8616 52.1017 47.2456C52.1017 46.6216 52.2217 46.0856 52.4617 45.6376C52.7017 45.1816 53.0337 44.8296 53.4577 44.5816C53.8897 44.3336 54.4017 44.2096 54.9937 44.2096C55.5777 44.2096 56.0817 44.3336 56.5057 44.5816C56.9377 44.8296 57.2737 45.1816 57.5137 45.6376C57.7537 46.0936 57.8737 46.6296 57.8737 47.2456C57.8737 47.8616 57.7537 48.3976 57.5137 48.8536C57.2737 49.3096 56.9377 49.6616 56.5057 49.9096C56.0817 50.1576 55.5777 50.2816 54.9937 50.2816ZM54.9817 49.3456C55.4857 49.3456 55.8897 49.1656 56.1937 48.8056C56.4977 48.4456 56.6497 47.9256 56.6497 47.2456C56.6497 46.5576 56.4977 46.0376 56.1937 45.6856C55.8897 45.3336 55.4857 45.1576 54.9817 45.1576C54.4857 45.1576 54.0857 45.3336 53.7817 45.6856C53.4777 46.0376 53.3257 46.5576 53.3257 47.2456C53.3257 47.9256 53.4777 48.4456 53.7817 48.8056C54.0857 49.1656 54.4857 49.3456 54.9817 49.3456ZM61.3228 50.2816C60.8508 50.2816 60.4548 50.1936 60.1348 50.0176C59.8228 49.8416 59.5868 49.5816 59.4268 49.2376C59.2748 48.8856 59.1988 48.4456 59.1988 47.9176V44.3176H60.4108V47.9296C60.4108 48.2416 60.4508 48.5016 60.5308 48.7096C60.6188 48.9176 60.7508 49.0696 60.9268 49.1656C61.1108 49.2616 61.3388 49.3096 61.6108 49.3096C61.9148 49.3096 62.1828 49.2416 62.4148 49.1056C62.6468 48.9696 62.8268 48.7736 62.9548 48.5176C63.0828 48.2616 63.1468 47.9656 63.1468 47.6296V44.3176H64.3588V50.1736H63.1828V48.8896H63.3388C63.1788 49.3376 62.9228 49.6816 62.5708 49.9216C62.2188 50.1616 61.8028 50.2816 61.3228 50.2816ZM68.5628 50.2816C67.8348 50.2816 67.2868 50.0936 66.9188 49.7176C66.5588 49.3416 66.3788 48.7976 66.3788 48.0856V45.2536H65.2388V44.3176H66.3788V42.5536H67.5908V44.3176H69.4028V45.2536H67.5908V47.9896C67.5908 48.4136 67.6788 48.7336 67.8548 48.9496C68.0388 49.1656 68.3348 49.2736 68.7428 49.2736C68.8628 49.2736 68.9828 49.2576 69.1028 49.2256C69.2308 49.1936 69.3548 49.1616 69.4748 49.1296L69.6668 50.0416C69.5468 50.1136 69.3788 50.1696 69.1628 50.2096C68.9548 50.2576 68.7548 50.2816 68.5628 50.2816ZM73.1391 50.2816C72.4991 50.2816 71.9471 50.1616 71.4831 49.9216C71.0271 49.6736 70.6711 49.3256 70.4151 48.8776C70.1671 48.4216 70.0431 47.8816 70.0431 47.2576C70.0431 46.6496 70.1671 46.1176 70.4151 45.6616C70.6631 45.2056 71.0031 44.8496 71.4351 44.5936C71.8671 44.3376 72.3591 44.2096 72.9111 44.2096C73.4551 44.2096 73.9191 44.3296 74.3031 44.5696C74.6951 44.8016 74.9951 45.1336 75.2031 45.5656C75.4111 45.9976 75.5151 46.5136 75.5151 47.1136V47.5216H71.0031V46.7776H74.6991L74.4951 46.9456C74.4951 46.3456 74.3631 45.8816 74.0991 45.5536C73.8351 45.2256 73.4551 45.0616 72.9591 45.0616C72.5831 45.0616 72.2631 45.1496 71.9991 45.3256C71.7431 45.5016 71.5471 45.7456 71.4111 46.0576C71.2751 46.3696 71.2071 46.7336 71.2071 47.1496V47.2216C71.2071 47.6856 71.2791 48.0776 71.4231 48.3976C71.5751 48.7096 71.7951 48.9456 72.0831 49.1056C72.3711 49.2656 72.7271 49.3456 73.1511 49.3456C73.4871 49.3456 73.8151 49.2936 74.1351 49.1896C74.4631 49.0776 74.7711 48.9056 75.0591 48.6736L75.4191 49.5136C75.1551 49.7536 74.8151 49.9416 74.3991 50.0776C73.9831 50.2136 73.5631 50.2816 73.1391 50.2816Z" fill="black"/>
<path d="M25.8627 66.2836C25.0854 66.2836 24.418 66.1223 23.8607 65.7996C23.3034 65.4696 22.8744 65.0076 22.5737 64.4136C22.273 63.8196 22.1227 63.1119 22.1227 62.2906C22.1227 61.4693 22.273 60.7653 22.5737 60.1786C22.8744 59.5846 23.3034 59.1263 23.8607 58.8036C24.418 58.4809 25.0854 58.3196 25.8627 58.3196C26.3907 58.3196 26.882 58.4003 27.3367 58.5616C27.7987 58.7229 28.1837 58.9613 28.4917 59.2766L28.0847 60.1896C27.7474 59.8963 27.4027 59.6836 27.0507 59.5516C26.6987 59.4196 26.3137 59.3536 25.8957 59.3536C25.0744 59.3536 24.4437 59.6066 24.0037 60.1126C23.5637 60.6186 23.3437 61.3446 23.3437 62.2906C23.3437 63.2366 23.5637 63.9663 24.0037 64.4796C24.4437 64.9856 25.0744 65.2386 25.8957 65.2386C26.3137 65.2386 26.6987 65.1726 27.0507 65.0406C27.4027 64.9086 27.7474 64.6959 28.0847 64.4026L28.4917 65.3156C28.1837 65.6236 27.7987 65.8619 27.3367 66.0306C26.882 66.1993 26.3907 66.2836 25.8627 66.2836ZM29.7852 66.1736V58.4186H30.9072V61.9166H30.7972C30.9586 61.5206 31.2116 61.2163 31.5562 61.0036C31.9009 60.7909 32.2932 60.6846 32.7332 60.6846C33.1732 60.6846 33.5326 60.7653 33.8112 60.9266C34.0972 61.0806 34.3099 61.3189 34.4492 61.6416C34.5959 61.9643 34.6692 62.3713 34.6692 62.8626V66.1736H33.5362V62.9286C33.5362 62.6279 33.4959 62.3823 33.4152 62.1916C33.3419 61.9936 33.2209 61.8469 33.0522 61.7516C32.8909 61.6489 32.6819 61.5976 32.4252 61.5976C32.1246 61.5976 31.8606 61.6636 31.6332 61.7956C31.4059 61.9276 31.2299 62.1109 31.1052 62.3456C30.9806 62.5729 30.9182 62.8369 30.9182 63.1376V66.1736H29.7852ZM38.0335 66.2726C37.6522 66.2726 37.3112 66.1993 37.0105 66.0526C36.7099 65.9059 36.4715 65.7079 36.2955 65.4586C36.1269 65.2019 36.0425 64.9196 36.0425 64.6116C36.0425 64.2083 36.1452 63.8929 36.3505 63.6656C36.5632 63.4309 36.9042 63.2623 37.3735 63.1596C37.8502 63.0569 38.4809 63.0056 39.2655 63.0056H39.8485V63.7096H39.2875C38.8915 63.7096 38.5579 63.7243 38.2865 63.7536C38.0152 63.7756 37.7952 63.8196 37.6265 63.8856C37.4652 63.9443 37.3479 64.0286 37.2745 64.1386C37.2012 64.2486 37.1645 64.3843 37.1645 64.5456C37.1645 64.8169 37.2599 65.0369 37.4505 65.2056C37.6485 65.3743 37.9162 65.4586 38.2535 65.4586C38.5322 65.4586 38.7779 65.3926 38.9905 65.2606C39.2032 65.1286 39.3719 64.9526 39.4965 64.7326C39.6212 64.5126 39.6835 64.2596 39.6835 63.9736V62.7196C39.6835 62.3089 39.5882 62.0156 39.3975 61.8396C39.2142 61.6563 38.9135 61.5646 38.4955 61.5646C38.1875 61.5646 37.8759 61.6123 37.5605 61.7076C37.2525 61.7956 36.9372 61.9386 36.6145 62.1366L36.2625 61.3336C36.4679 61.2016 36.6952 61.0879 36.9445 60.9926C37.2012 60.8899 37.4689 60.8129 37.7475 60.7616C38.0262 60.7103 38.2975 60.6846 38.5615 60.6846C39.0529 60.6846 39.4599 60.7616 39.7825 60.9156C40.1125 61.0696 40.3619 61.3043 40.5305 61.6196C40.6992 61.9349 40.7835 62.3419 40.7835 62.8406V66.1736H39.7385V64.9856H39.8045C39.7385 65.2423 39.6212 65.4696 39.4525 65.6676C39.2912 65.8583 39.0895 66.0086 38.8475 66.1186C38.6129 66.2213 38.3415 66.2726 38.0335 66.2726ZM42.3751 68.1536V60.7836H43.4641V61.9826H43.3871C43.5118 61.5793 43.7464 61.2639 44.0911 61.0366C44.4358 60.8019 44.8428 60.6846 45.3121 60.6846C45.7961 60.6846 46.2178 60.7983 46.5771 61.0256C46.9364 61.2529 47.2151 61.5756 47.4131 61.9936C47.6111 62.4116 47.7101 62.9066 47.7101 63.4786C47.7101 64.0433 47.6111 64.5383 47.4131 64.9636C47.2151 65.3816 46.9364 65.7043 46.5771 65.9316C46.2251 66.1589 45.8034 66.2726 45.3121 66.2726C44.8501 66.2726 44.4504 66.1589 44.1131 65.9316C43.7758 65.6969 43.5411 65.3926 43.4091 65.0186H43.5081V68.1536H42.3751ZM45.0261 65.3926C45.4954 65.3926 45.8694 65.2276 46.1481 64.8976C46.4268 64.5603 46.5661 64.0873 46.5661 63.4786C46.5661 62.8553 46.4268 62.3823 46.1481 62.0596C45.8694 61.7369 45.4954 61.5756 45.0261 61.5756C44.5568 61.5756 44.1828 61.7369 43.9041 62.0596C43.6328 62.3823 43.4971 62.8553 43.4971 63.4786C43.4971 64.0873 43.6364 64.5603 43.9151 64.8976C44.1938 65.2276 44.5641 65.3926 45.0261 65.3926ZM48.9148 59.5406V58.3636H50.2348V59.5406H48.9148ZM49.0138 66.1736V60.7836H50.1468V66.1736H49.0138ZM54.1065 66.2726C53.4245 66.2726 52.9148 66.1003 52.5775 65.7556C52.2402 65.4036 52.0715 64.8976 52.0715 64.2376V61.6636H51.0265V60.7836H52.0935V59.1776H53.2045V60.7836H54.9315V61.6636H53.2155V64.1606C53.2155 64.5419 53.2962 64.8316 53.4575 65.0296C53.6262 65.2276 53.8975 65.3266 54.2715 65.3266C54.3962 65.3266 54.5172 65.3119 54.6345 65.2826C54.7518 65.2533 54.8692 65.2203 54.9865 65.1836L55.1625 66.0416C55.0378 66.1149 54.8765 66.1699 54.6785 66.2066C54.4805 66.2506 54.2898 66.2726 54.1065 66.2726ZM55.9747 66.1736V60.7836H57.0637V62.0706H56.9757C57.1004 61.6379 57.3167 61.3079 57.6247 61.0806C57.9327 60.8533 58.3324 60.7213 58.8237 60.6846L59.2307 60.6516L59.3187 61.6416L58.5927 61.7076C58.116 61.7516 57.7494 61.9056 57.4927 62.1696C57.2434 62.4263 57.1187 62.7746 57.1187 63.2146V66.1736H55.9747ZM62.7381 66.2726C62.1441 66.2726 61.6308 66.1626 61.1981 65.9426C60.7655 65.7153 60.4318 65.3926 60.1971 64.9746C59.9698 64.5566 59.8561 64.0616 59.8561 63.4896C59.8561 62.9323 59.9661 62.4446 60.1861 62.0266C60.4135 61.6086 60.7251 61.2823 61.1211 61.0476C61.5245 60.8056 61.9901 60.6846 62.5181 60.6846C63.0241 60.6846 63.4568 60.7946 63.8161 61.0146C64.1755 61.2346 64.4541 61.5463 64.6521 61.9496C64.8501 62.3456 64.9491 62.8223 64.9491 63.3796V63.7536H60.7361V63.0496H64.1681L63.9921 63.2146C63.9921 62.6646 63.8675 62.2429 63.6181 61.9496C63.3688 61.6489 63.0131 61.4986 62.5511 61.4986C62.2065 61.4986 61.9131 61.5756 61.6711 61.7296C61.4365 61.8836 61.2531 62.0999 61.1211 62.3786C60.9965 62.6573 60.9341 62.9909 60.9341 63.3796V63.4566C60.9341 63.8819 61.0038 64.2376 61.1431 64.5236C61.2825 64.8096 61.4878 65.0259 61.7591 65.1726C62.0305 65.3119 62.3641 65.3816 62.7601 65.3816C63.0608 65.3816 63.3615 65.3376 63.6621 65.2496C63.9628 65.1543 64.2451 65.0039 64.5091 64.7986L64.8501 65.5796C64.5935 65.7996 64.2745 65.9719 63.8931 66.0966C63.5118 66.2139 63.1268 66.2726 62.7381 66.2726ZM71.6628 66.2726C70.7755 66.2726 70.0825 66.0819 69.5838 65.7006C69.0852 65.3193 68.8358 64.7876 68.8358 64.1056C68.8358 63.7463 68.9092 63.4273 69.0558 63.1486C69.2025 62.8699 69.4042 62.6426 69.6608 62.4666C69.9248 62.2906 70.2218 62.1806 70.5518 62.1366V62.2906C70.2512 62.2173 69.9835 62.0926 69.7488 61.9166C69.5215 61.7406 69.3455 61.5243 69.2208 61.2676C69.0962 61.0036 69.0338 60.7139 69.0338 60.3986C69.0338 59.7459 69.2685 59.2363 69.7378 58.8696C70.2145 58.5029 70.8562 58.3196 71.6628 58.3196C72.4695 58.3196 73.1112 58.5029 73.5878 58.8696C74.0645 59.2363 74.3028 59.7459 74.3028 60.3986C74.3028 60.7066 74.2368 60.9963 74.1048 61.2676C73.9802 61.5316 73.8042 61.7516 73.5768 61.9276C73.3495 62.0963 73.0855 62.2136 72.7848 62.2796V62.1366C73.1222 62.1806 73.4155 62.2943 73.6648 62.4776C73.9215 62.6536 74.1232 62.8809 74.2698 63.1596C74.4165 63.4309 74.4898 63.7463 74.4898 64.1056C74.4898 64.7876 74.2405 65.3193 73.7418 65.7006C73.2432 66.0819 72.5502 66.2726 71.6628 66.2726ZM71.6628 65.3486C72.2348 65.3486 72.6675 65.2386 72.9608 65.0186C73.2615 64.7913 73.4118 64.4613 73.4118 64.0286C73.4118 63.5886 73.2615 63.2586 72.9608 63.0386C72.6675 62.8186 72.2348 62.7086 71.6628 62.7086C71.0982 62.7086 70.6655 62.8186 70.3648 63.0386C70.0642 63.2586 69.9138 63.5886 69.9138 64.0286C69.9138 64.4613 70.0642 64.7913 70.3648 65.0186C70.6655 65.2386 71.0982 65.3486 71.6628 65.3486ZM71.6628 61.7846C72.1542 61.7846 72.5355 61.6709 72.8068 61.4436C73.0855 61.2163 73.2248 60.9009 73.2248 60.4976C73.2248 60.1089 73.0855 59.8046 72.8068 59.5846C72.5355 59.3573 72.1542 59.2436 71.6628 59.2436C71.1788 59.2436 70.7975 59.3573 70.5188 59.5846C70.2475 59.8046 70.1118 60.1126 70.1118 60.5086C70.1118 60.9046 70.2475 61.2163 70.5188 61.4436C70.7975 61.6709 71.1788 61.7846 71.6628 61.7846Z" fill="#667085"/>
<defs>
<filter id="filter0_d_8339_572" x="0" y="0.673584" width="96" height="85.8462" filterUnits="userSpaceOnUse" color-interpolation-filters="sRGB">
<feFlood flood-opacity="0" result="BackgroundImageFix"/>
<feColorMatrix in="SourceAlpha" type="matrix" values="0 0 0 0 0 0 0 0 0 0 0 0 0 0 0 0 0 0 127 0" result="hardAlpha"/>
<feOffset dy="4"/>
<feGaussianBlur stdDeviation="2"/>
<feComposite in2="hardAlpha" operator="out"/>
<feColorMatrix type="matrix" values="0 0 0 0 0 0 0 0 0 0 0 0 0 0 0 0 0 0 0.25 0"/>
<feBlend mode="normal" in2="BackgroundImageFix" result="effect1_dropShadow_8339_572"/>
<feBlend mode="normal" in="SourceGraphic" in2="effect1_dropShadow_8339_572" result="shape"/>
</filter>
<clipPath id="clip0_8339_572">
<rect width="30" height="30" fill="white" transform="translate(33.2051 7.17358)"/>
</clipPath>
</defs>
</svg>
