<svg width="102" height="86" viewBox="0 0 102 86" fill="none" xmlns="http://www.w3.org/2000/svg">
<g filter="url(#filter0_d_8334_734)">
<path d="M5.45148 42.5206C4.65639 41.2109 4.25887 40.5556 4.10327 39.8593C3.96558 39.2431 3.96558 38.6067 4.10327 37.9905C4.25887 37.2942 4.65639 36.6389 5.45148 35.3292L24.7122 3.59573C25.5072 2.2858 25.9047 1.63084 26.4609 1.1545C26.953 0.733034 27.5327 0.414632 28.1625 0.220013C28.8742 -1.93715e-07 29.6693 0 31.2595 0H69.7806C71.3711 0 72.1659 -1.93715e-07 72.8779 0.220013C73.5073 0.414632 74.0871 0.733034 74.5794 1.1545C75.1356 1.63084 75.533 2.2858 76.3282 3.59573L95.5887 35.3292C96.3839 36.6389 96.7813 37.2942 96.9368 37.9905C97.0747 38.6067 97.0747 39.2431 96.9368 39.8593C96.7813 40.5556 96.3839 41.2109 95.5887 42.5206L76.3282 74.2543C75.533 75.564 75.1356 76.2189 74.5794 76.6953C74.0871 77.1169 73.5073 77.4351 72.8779 77.6298C72.1659 77.85 71.3711 77.85 69.7806 77.85H31.2595C29.6693 77.85 28.8742 77.85 28.1625 77.6298C27.5327 77.4351 26.953 77.1169 26.4609 76.6953C25.9047 76.2189 25.5072 75.564 24.7122 74.2543L5.45148 42.5206Z" fill="white"/>
</g>
<path d="M60.9148 10.8521H41.9502C41.7451 10.8527 41.5486 10.9345 41.4035 11.0796C41.2585 11.2246 41.1767 11.4211 41.176 11.6262V34.6924C41.1769 34.897 41.259 35.0928 41.4041 35.237C41.5492 35.3812 41.7456 35.4619 41.9502 35.4614H60.9148C61.0158 35.4616 61.1159 35.4418 61.2093 35.4032C61.3026 35.3646 61.3875 35.3079 61.4589 35.2365C61.5303 35.165 61.587 35.0802 61.6256 34.9868C61.6642 34.8935 61.684 34.7934 61.6838 34.6924V11.6262C61.6843 11.4216 61.6036 11.2252 61.4594 11.0801C61.3153 10.9349 61.1194 10.8529 60.9148 10.8521ZM50.4045 31.3803H45.2776C45.0736 31.3803 44.878 31.2993 44.7338 31.1551C44.5896 31.0109 44.5085 30.8153 44.5085 30.6113C44.5085 30.4073 44.5896 30.2117 44.7338 30.0675C44.878 29.9233 45.0736 29.8422 45.2776 29.8422H50.4045C51.4142 29.858 51.4168 31.3642 50.4045 31.3803ZM50.4045 25.7407H45.2776C45.0736 25.7407 44.878 25.6597 44.7338 25.5154C44.5896 25.3712 44.5085 25.1756 44.5085 24.9716C44.5085 24.7677 44.5896 24.5721 44.7338 24.4278C44.878 24.2836 45.0736 24.2026 45.2776 24.2026H50.4045C51.4142 24.2183 51.4168 25.7245 50.4045 25.7407ZM52.4758 19.5679C52.4608 20.5777 50.9534 20.5796 50.9377 19.5678V15.5842C50.9387 14.9417 51.1947 14.3259 51.6494 13.8719C52.104 13.4179 52.7203 13.1629 53.3628 13.1629C54.0053 13.1629 54.6215 13.4179 55.0762 13.8719C55.5309 14.3259 55.7868 14.9417 55.7878 15.5842V19.5679C55.7713 20.5784 54.2663 20.5795 54.2497 19.5678V18.486H52.4758V19.5679ZM58.1257 29.8935L55.6033 32.416C55.5328 32.4886 55.4483 32.546 55.3548 32.5848C55.2614 32.6236 55.161 32.6429 55.0598 32.6416C54.9588 32.6419 54.8587 32.6222 54.7654 32.5834C54.6721 32.5447 54.5874 32.4878 54.5164 32.416L53.4499 31.3496C52.7516 30.6261 53.8134 29.5545 54.5369 30.2626L55.0598 30.7855L57.0388 28.8066C57.77 28.108 58.8309 29.1719 58.1257 29.8935ZM58.1257 24.2539L55.6033 26.7763C55.5328 26.8489 55.4483 26.9063 55.3548 26.9451C55.2614 26.9839 55.161 27.0033 55.0598 27.0019C54.9588 27.0023 54.8587 26.9825 54.7654 26.9438C54.6721 26.9051 54.5874 26.8481 54.5164 26.7763L53.4499 25.7099C52.7516 24.9864 53.8134 23.9148 54.5369 24.623L55.0598 25.1459L57.0388 23.167C57.77 22.4683 58.8309 23.5322 58.1257 24.2539Z" fill="#F2BB41"/>
<path d="M54.2497 15.5841C54.2491 15.3493 54.1554 15.1243 53.9892 14.9584C53.8229 14.7926 53.5976 14.6995 53.3628 14.6995C53.1279 14.6995 52.9027 14.7926 52.7364 14.9584C52.5701 15.1243 52.4764 15.3493 52.4758 15.5841V16.9479H54.2497V15.5841Z" fill="#F2BB41"/>
<path d="M35.3783 51.1567L39.1463 42.6967H40.1783L43.9583 51.1567H42.6863L41.6543 48.7567L42.2183 49.0927H37.1063L37.6583 48.7567L36.6383 51.1567H35.3783ZM39.6503 44.0767L37.8383 48.3727L37.5383 48.0847H41.7743L41.4983 48.3727L39.6743 44.0767H39.6503ZM46.3222 51.1567L43.8022 45.3007H45.1102L47.0662 50.1607H46.7302L48.7342 45.3007H49.9702L47.4142 51.1567H46.3222ZM52.5953 51.2647C52.1873 51.2647 51.8193 51.1847 51.4913 51.0247C51.1713 50.8647 50.9193 50.6487 50.7353 50.3767C50.5513 50.1047 50.4593 49.7967 50.4593 49.4527C50.4593 49.0207 50.5673 48.6807 50.7833 48.4327C51.0073 48.1767 51.3713 47.9967 51.8753 47.8927C52.3873 47.7807 53.0753 47.7247 53.9393 47.7247H54.5033V48.4687H53.9513C53.5193 48.4687 53.1553 48.4847 52.8593 48.5167C52.5633 48.5487 52.3273 48.6007 52.1513 48.6727C51.9753 48.7367 51.8473 48.8287 51.7673 48.9487C51.6953 49.0687 51.6593 49.2127 51.6593 49.3807C51.6593 49.6847 51.7633 49.9327 51.9713 50.1247C52.1793 50.3087 52.4673 50.4007 52.8353 50.4007C53.1313 50.4007 53.3913 50.3327 53.6153 50.1967C53.8393 50.0527 54.0153 49.8607 54.1433 49.6207C54.2793 49.3807 54.3473 49.1047 54.3473 48.7927V47.4127C54.3473 46.9567 54.2513 46.6287 54.0593 46.4287C53.8673 46.2287 53.5513 46.1287 53.1113 46.1287C52.7753 46.1287 52.4393 46.1807 52.1033 46.2847C51.7673 46.3807 51.4233 46.5367 51.0713 46.7527L50.6993 45.9007C50.9073 45.7567 51.1473 45.6327 51.4193 45.5287C51.6913 45.4247 51.9753 45.3447 52.2713 45.2887C52.5753 45.2247 52.8673 45.1927 53.1473 45.1927C53.6833 45.1927 54.1233 45.2767 54.4673 45.4447C54.8193 45.6127 55.0793 45.8687 55.2473 46.2127C55.4153 46.5567 55.4993 47.0007 55.4993 47.5447V51.1567H54.3593V49.8487H54.4673C54.4033 50.1447 54.2833 50.4007 54.1073 50.6167C53.9393 50.8247 53.7273 50.9847 53.4713 51.0967C53.2153 51.2087 52.9233 51.2647 52.5953 51.2647ZM57.1687 51.1567V45.3007H58.3447V46.5487H58.2127C58.3887 46.1007 58.6647 45.7647 59.0407 45.5407C59.4167 45.3087 59.8487 45.1927 60.3367 45.1927C60.8007 45.1927 61.1847 45.2807 61.4887 45.4567C61.8007 45.6247 62.0327 45.8847 62.1847 46.2367C62.3367 46.5807 62.4127 47.0167 62.4127 47.5447V51.1567H61.2007V47.6167C61.2007 47.2807 61.1567 47.0087 61.0687 46.8007C60.9807 46.5847 60.8487 46.4247 60.6727 46.3207C60.4967 46.2167 60.2687 46.1647 59.9887 46.1647C59.6687 46.1647 59.3847 46.2327 59.1367 46.3687C58.8967 46.5047 58.7087 46.7007 58.5727 46.9567C58.4447 47.2127 58.3807 47.5087 58.3807 47.8447V51.1567H57.1687ZM66.5787 51.2647C65.8507 51.2647 65.3027 51.0767 64.9347 50.7007C64.5747 50.3247 64.3947 49.7807 64.3947 49.0687V46.2367H63.2547V45.3007H64.3947V43.5367H65.6067V45.3007H67.4187V46.2367H65.6067V48.9727C65.6067 49.3967 65.6947 49.7167 65.8707 49.9327C66.0547 50.1487 66.3507 50.2567 66.7587 50.2567C66.8787 50.2567 66.9987 50.2407 67.1187 50.2087C67.2467 50.1767 67.3707 50.1447 67.4907 50.1127L67.6827 51.0247C67.5627 51.0967 67.3947 51.1527 67.1787 51.1927C66.9707 51.2407 66.7707 51.2647 66.5787 51.2647ZM29.7388 67.2647C29.0988 67.2647 28.6188 67.0847 28.2988 66.7247C27.9868 66.3567 27.8308 65.8287 27.8308 65.1407V58.6967H29.0428V65.0687C29.0428 65.3247 29.0788 65.5447 29.1508 65.7287C29.2228 65.9047 29.3308 66.0367 29.4748 66.1247C29.6188 66.2127 29.7988 66.2567 30.0148 66.2567C30.1108 66.2567 30.2028 66.2527 30.2908 66.2447C30.3788 66.2367 30.4628 66.2207 30.5428 66.1967L30.5188 67.1687C30.3828 67.2007 30.2508 67.2247 30.1228 67.2407C29.9948 67.2567 29.8668 67.2647 29.7388 67.2647ZM31.1385 62.0927L30.8385 58.6967H32.2545L31.9545 62.0927H31.1385ZM36.5202 67.2647C35.8802 67.2647 35.3282 67.1447 34.8642 66.9047C34.4082 66.6567 34.0522 66.3087 33.7962 65.8607C33.5482 65.4047 33.4242 64.8647 33.4242 64.2407C33.4242 63.6327 33.5482 63.1007 33.7962 62.6447C34.0442 62.1887 34.3842 61.8327 34.8162 61.5767C35.2482 61.3207 35.7402 61.1927 36.2922 61.1927C36.8362 61.1927 37.3002 61.3127 37.6842 61.5527C38.0762 61.7847 38.3762 62.1167 38.5842 62.5487C38.7922 62.9807 38.8962 63.4967 38.8962 64.0967V64.5047H34.3842V63.7607H38.0802L37.8762 63.9287C37.8762 63.3287 37.7442 62.8647 37.4802 62.5367C37.2162 62.2087 36.8362 62.0447 36.3402 62.0447C35.9642 62.0447 35.6442 62.1327 35.3802 62.3087C35.1242 62.4847 34.9282 62.7287 34.7922 63.0407C34.6562 63.3527 34.5882 63.7167 34.5882 64.1327V64.2047C34.5882 64.6687 34.6602 65.0607 34.8042 65.3807C34.9562 65.6927 35.1762 65.9287 35.4642 66.0887C35.7522 66.2487 36.1082 66.3287 36.5322 66.3287C36.8682 66.3287 37.1962 66.2767 37.5162 66.1727C37.8442 66.0607 38.1522 65.8887 38.4402 65.6567L38.8002 66.4967C38.5362 66.7367 38.1962 66.9247 37.7802 67.0607C37.3642 67.1967 36.9442 67.2647 36.5202 67.2647ZM39.3906 67.1567L42.0666 63.8327V64.4327L39.5466 61.3007H40.9626L42.7506 63.5807H42.3186L44.1066 61.3007H45.5226L43.0026 64.4087V63.8687L45.6786 67.1567H44.2386L42.3186 64.7327H42.7266L40.8186 67.1567H39.3906ZM48.4059 67.2647C47.9979 67.2647 47.6299 67.1847 47.3019 67.0247C46.9819 66.8647 46.7299 66.6487 46.5459 66.3767C46.3619 66.1047 46.2699 65.7967 46.2699 65.4527C46.2699 65.0207 46.3779 64.6807 46.5939 64.4327C46.8179 64.1767 47.1819 63.9967 47.6859 63.8927C48.1979 63.7807 48.8859 63.7247 49.7499 63.7247H50.3139V64.4687H49.7619C49.3299 64.4687 48.9659 64.4847 48.6699 64.5167C48.3739 64.5487 48.1379 64.6007 47.9619 64.6727C47.7859 64.7367 47.6579 64.8287 47.5779 64.9487C47.5059 65.0687 47.4699 65.2127 47.4699 65.3807C47.4699 65.6847 47.5739 65.9327 47.7819 66.1247C47.9899 66.3087 48.2779 66.4007 48.6459 66.4007C48.9419 66.4007 49.2019 66.3327 49.4259 66.1967C49.6499 66.0527 49.8259 65.8607 49.9539 65.6207C50.0899 65.3807 50.1579 65.1047 50.1579 64.7927V63.4127C50.1579 62.9567 50.0619 62.6287 49.8699 62.4287C49.6779 62.2287 49.3619 62.1287 48.9219 62.1287C48.5859 62.1287 48.2499 62.1807 47.9139 62.2847C47.5779 62.3807 47.2339 62.5367 46.8819 62.7527L46.5099 61.9007C46.7179 61.7567 46.9579 61.6327 47.2299 61.5287C47.5019 61.4247 47.7859 61.3447 48.0819 61.2887C48.3859 61.2247 48.6779 61.1927 48.9579 61.1927C49.4939 61.1927 49.9339 61.2767 50.2779 61.4447C50.6299 61.6127 50.8899 61.8687 51.0579 62.2127C51.2259 62.5567 51.3099 63.0007 51.3099 63.5447V67.1567H50.1699V65.8487H50.2779C50.2139 66.1447 50.0939 66.4007 49.9179 66.6167C49.7499 66.8247 49.5379 66.9847 49.2819 67.0967C49.0259 67.2087 48.7339 67.2647 48.4059 67.2647ZM53.0032 67.1567V61.3007H54.1792V62.5487H54.0472C54.1512 62.2607 54.2952 62.0167 54.4792 61.8167C54.6632 61.6167 54.8832 61.4647 55.1392 61.3607C55.4032 61.2487 55.6912 61.1927 56.0032 61.1927C56.4912 61.1927 56.8872 61.3087 57.1912 61.5407C57.4952 61.7727 57.7032 62.1287 57.8152 62.6087H57.6472C57.7992 62.1687 58.0592 61.8247 58.4272 61.5767C58.7952 61.3207 59.2232 61.1927 59.7112 61.1927C60.1592 61.1927 60.5272 61.2807 60.8152 61.4567C61.1032 61.6247 61.3192 61.8847 61.4632 62.2367C61.6072 62.5807 61.6792 63.0167 61.6792 63.5447V67.1567H60.4672V63.6047C60.4672 63.1087 60.3792 62.7447 60.2032 62.5127C60.0352 62.2807 59.7552 62.1647 59.3632 62.1647C59.0752 62.1647 58.8232 62.2327 58.6072 62.3687C58.3912 62.5047 58.2232 62.7047 58.1032 62.9687C57.9912 63.2247 57.9352 63.5287 57.9352 63.8807V67.1567H56.7232V63.6047C56.7232 63.1087 56.6392 62.7447 56.4712 62.5127C56.3032 62.2807 56.0232 62.1647 55.6312 62.1647C55.3352 62.1647 55.0792 62.2327 54.8632 62.3687C54.6552 62.5047 54.4952 62.7047 54.3832 62.9687C54.2712 63.2247 54.2152 63.5287 54.2152 63.8807V67.1567H53.0032ZM66.1217 67.2647C65.4817 67.2647 64.9297 67.1447 64.4657 66.9047C64.0097 66.6567 63.6537 66.3087 63.3977 65.8607C63.1497 65.4047 63.0257 64.8647 63.0257 64.2407C63.0257 63.6327 63.1497 63.1007 63.3977 62.6447C63.6457 62.1887 63.9857 61.8327 64.4177 61.5767C64.8497 61.3207 65.3417 61.1927 65.8937 61.1927C66.4377 61.1927 66.9017 61.3127 67.2857 61.5527C67.6777 61.7847 67.9777 62.1167 68.1857 62.5487C68.3937 62.9807 68.4977 63.4967 68.4977 64.0967V64.5047H63.9857V63.7607H67.6817L67.4777 63.9287C67.4777 63.3287 67.3457 62.8647 67.0817 62.5367C66.8177 62.2087 66.4377 62.0447 65.9417 62.0447C65.5657 62.0447 65.2457 62.1327 64.9817 62.3087C64.7257 62.4847 64.5297 62.7287 64.3937 63.0407C64.2577 63.3527 64.1897 63.7167 64.1897 64.1327V64.2047C64.1897 64.6687 64.2617 65.0607 64.4057 65.3807C64.5577 65.6927 64.7777 65.9287 65.0657 66.0887C65.3537 66.2487 65.7097 66.3287 66.1337 66.3287C66.4697 66.3287 66.7977 66.2767 67.1177 66.1727C67.4457 66.0607 67.7537 65.8887 68.0417 65.6567L68.4017 66.4967C68.1377 66.7367 67.7977 66.9247 67.3817 67.0607C66.9657 67.1967 66.5457 67.2647 66.1217 67.2647ZM69.819 67.1567V61.3007H70.995V62.5487H70.863C71.039 62.1007 71.315 61.7647 71.691 61.5407C72.067 61.3087 72.499 61.1927 72.987 61.1927C73.451 61.1927 73.835 61.2807 74.139 61.4567C74.451 61.6247 74.683 61.8847 74.835 62.2367C74.987 62.5807 75.063 63.0167 75.063 63.5447V67.1567H73.851V63.6167C73.851 63.2807 73.807 63.0087 73.719 62.8007C73.631 62.5847 73.499 62.4247 73.323 62.3207C73.147 62.2167 72.919 62.1647 72.639 62.1647C72.319 62.1647 72.035 62.2327 71.787 62.3687C71.547 62.5047 71.359 62.7007 71.223 62.9567C71.095 63.2127 71.031 63.5087 71.031 63.8447V67.1567H69.819Z" fill="black"/>
<defs>
<filter id="filter0_d_8334_734" x="0" y="0" width="101.04" height="85.8501" filterUnits="userSpaceOnUse" color-interpolation-filters="sRGB">
<feFlood flood-opacity="0" result="BackgroundImageFix"/>
<feColorMatrix in="SourceAlpha" type="matrix" values="0 0 0 0 0 0 0 0 0 0 0 0 0 0 0 0 0 0 127 0" result="hardAlpha"/>
<feOffset dy="4"/>
<feGaussianBlur stdDeviation="2"/>
<feComposite in2="hardAlpha" operator="out"/>
<feColorMatrix type="matrix" values="0 0 0 0 0 0 0 0 0 0 0 0 0 0 0 0 0 0 0.25 0"/>
<feBlend mode="normal" in2="BackgroundImageFix" result="effect1_dropShadow_8334_734"/>
<feBlend mode="normal" in="SourceGraphic" in2="effect1_dropShadow_8334_734" result="shape"/>
</filter>
</defs>
</svg>
