<svg width="96" height="88" viewBox="0 0 96 88" fill="none" xmlns="http://www.w3.org/2000/svg">
<g filter="url(#filter0_d_8310_982)">
<path d="M5.37285 44.0185C4.62083 42.7089 4.24484 42.0536 4.09767 41.3574C3.96744 40.7412 3.96744 40.1048 4.09767 39.4886C4.24484 38.7924 4.62083 38.1371 5.37285 36.8274L23.5901 5.09555C24.3421 3.78569 24.7181 3.13076 25.2442 2.65444C25.7096 2.233 26.2579 1.91461 26.8535 1.72C27.5267 1.5 28.2787 1.5 29.7827 1.5H66.2171C67.7214 1.5 68.4731 1.5 69.1466 1.72C69.7419 1.91461 70.2903 2.233 70.756 2.65444C71.282 3.13076 71.6578 3.78569 72.41 5.09555L90.6271 36.8274C91.3792 38.1371 91.7551 38.7924 91.9021 39.4886C92.0326 40.1048 92.0326 40.7412 91.9021 41.3574C91.7551 42.0536 91.3792 42.7089 90.6271 44.0185L72.41 75.7506C71.6578 77.0603 71.282 77.7151 70.756 78.1915C70.2903 78.6131 69.7419 78.9313 69.1466 79.1259C68.4731 79.3462 67.7214 79.3462 66.2171 79.3462H29.7827C28.2787 79.3462 27.5267 79.3462 26.8535 79.1259C26.2579 78.9313 25.7096 78.6131 25.2442 78.1915C24.7181 77.7151 24.3421 77.0603 23.5901 75.7506L5.37285 44.0185Z" fill="white"/>
</g>
<path d="M46.5432 27.6574L36.0476 17.1618C35.1147 16.2288 35.1147 14.7711 36.0476 13.8382L46.5432 3.34253C47.4762 2.40959 48.9339 2.40959 49.8669 3.34253L60.3625 13.8382C61.2954 14.7711 61.2954 16.2288 60.3625 17.1618L49.8669 27.6574C48.9339 28.5903 47.4179 28.5903 46.5432 27.6574Z" fill="#F2BB41"/>
<path d="M48.1754 16.6948C48.8195 16.6948 49.3416 16.1727 49.3416 15.5287C49.3416 14.8846 48.8195 14.3625 48.1754 14.3625C47.5314 14.3625 47.0093 14.8846 47.0093 15.5287C47.0093 16.1727 47.5314 16.6948 48.1754 16.6948Z" fill="#E08838"/>
<path d="M52.84 16.6948C53.484 16.6948 54.0061 16.1727 54.0061 15.5287C54.0061 14.8846 53.484 14.3625 52.84 14.3625C52.1959 14.3625 51.6738 14.8846 51.6738 15.5287C51.6738 16.1727 52.1959 16.6948 52.84 16.6948Z" fill="#E08838"/>
<path d="M43.5109 16.6948C44.1549 16.6948 44.677 16.1727 44.677 15.5287C44.677 14.8846 44.1549 14.3625 43.5109 14.3625C42.8668 14.3625 42.3447 14.8846 42.3447 15.5287C42.3447 16.1727 42.8668 16.6948 43.5109 16.6948Z" fill="#E08838"/>
<path d="M24.0524 43.5V35.04H27.5564C28.1724 35.04 28.6924 35.144 29.1164 35.352C29.5404 35.552 29.8604 35.844 30.0764 36.228C30.3004 36.612 30.4124 37.076 30.4124 37.62C30.4124 38.164 30.3004 38.632 30.0764 39.024C29.8604 39.408 29.5404 39.704 29.1164 39.912C28.6924 40.112 28.1724 40.212 27.5564 40.212H25.3004V43.5H24.0524ZM25.3004 39.216H27.3764C27.9764 39.216 28.4284 39.084 28.7324 38.82C29.0444 38.548 29.2004 38.148 29.2004 37.62C29.2004 37.1 29.0444 36.708 28.7324 36.444C28.4284 36.172 27.9764 36.036 27.3764 36.036H25.3004V39.216ZM31.5024 43.5V37.644H32.6784V39.048H32.5584C32.6864 38.568 32.9144 38.204 33.2424 37.956C33.5784 37.708 34.0224 37.564 34.5744 37.524L34.9704 37.5L35.0544 38.532L34.3224 38.604C33.8024 38.652 33.4064 38.816 33.1344 39.096C32.8624 39.376 32.7264 39.76 32.7264 40.248V43.5H31.5024ZM35.871 36.288V35.028H37.287V36.288H35.871ZM35.979 43.5V37.644H37.191V43.5H35.979ZM41.4409 43.608C40.8489 43.608 40.3369 43.484 39.9049 43.236C39.4809 42.988 39.1489 42.636 38.9089 42.18C38.6689 41.724 38.5489 41.188 38.5489 40.572C38.5489 39.948 38.6689 39.412 38.9089 38.964C39.1489 38.508 39.4809 38.156 39.9049 37.908C40.3369 37.66 40.8489 37.536 41.4409 37.536C42.0249 37.536 42.5289 37.66 42.9529 37.908C43.3849 38.156 43.7209 38.508 43.9609 38.964C44.2009 39.42 44.3209 39.956 44.3209 40.572C44.3209 41.188 44.2009 41.724 43.9609 42.18C43.7209 42.636 43.3849 42.988 42.9529 43.236C42.5289 43.484 42.0249 43.608 41.4409 43.608ZM41.4289 42.672C41.9329 42.672 42.3369 42.492 42.6409 42.132C42.9449 41.772 43.0969 41.252 43.0969 40.572C43.0969 39.884 42.9449 39.364 42.6409 39.012C42.3369 38.66 41.9329 38.484 41.4289 38.484C40.9329 38.484 40.5329 38.66 40.2289 39.012C39.9249 39.364 39.7729 39.884 39.7729 40.572C39.7729 41.252 39.9249 41.772 40.2289 42.132C40.5329 42.492 40.9329 42.672 41.4289 42.672ZM45.6821 43.5V37.644H46.8581V39.048H46.7381C46.8661 38.568 47.0941 38.204 47.4221 37.956C47.7581 37.708 48.2021 37.564 48.7541 37.524L49.1501 37.5L49.2341 38.532L48.5021 38.604C47.9821 38.652 47.5861 38.816 47.3141 39.096C47.0421 39.376 46.9061 39.76 46.9061 40.248V43.5H45.6821ZM50.0506 36.288V35.028H51.4666V36.288H50.0506ZM50.1586 43.5V37.644H51.3706V43.5H50.1586ZM55.5726 43.608C54.8446 43.608 54.2966 43.42 53.9286 43.044C53.5686 42.668 53.3886 42.124 53.3886 41.412V38.58H52.2486V37.644H53.3886V35.88H54.6006V37.644H56.4126V38.58H54.6006V41.316C54.6006 41.74 54.6886 42.06 54.8646 42.276C55.0486 42.492 55.3446 42.6 55.7526 42.6C55.8726 42.6 55.9926 42.584 56.1126 42.552C56.2406 42.52 56.3646 42.488 56.4846 42.456L56.6766 43.368C56.5566 43.44 56.3886 43.496 56.1726 43.536C55.9646 43.584 55.7646 43.608 55.5726 43.608ZM60.1488 43.608C59.5088 43.608 58.9568 43.488 58.4928 43.248C58.0368 43 57.6808 42.652 57.4248 42.204C57.1768 41.748 57.0528 41.208 57.0528 40.584C57.0528 39.976 57.1768 39.444 57.4248 38.988C57.6728 38.532 58.0128 38.176 58.4448 37.92C58.8768 37.664 59.3688 37.536 59.9208 37.536C60.4648 37.536 60.9288 37.656 61.3128 37.896C61.7048 38.128 62.0048 38.46 62.2128 38.892C62.4208 39.324 62.5248 39.84 62.5248 40.44V40.848H58.0128V40.104H61.7088L61.5048 40.272C61.5048 39.672 61.3728 39.208 61.1088 38.88C60.8448 38.552 60.4648 38.388 59.9688 38.388C59.5928 38.388 59.2728 38.476 59.0088 38.652C58.7528 38.828 58.5568 39.072 58.4208 39.384C58.2848 39.696 58.2168 40.06 58.2168 40.476V40.548C58.2168 41.012 58.2888 41.404 58.4328 41.724C58.5848 42.036 58.8048 42.272 59.0928 42.432C59.3808 42.592 59.7368 42.672 60.1608 42.672C60.4968 42.672 60.8248 42.62 61.1448 42.516C61.4728 42.404 61.7808 42.232 62.0688 42L62.4288 42.84C62.1648 43.08 61.8248 43.268 61.4088 43.404C60.9928 43.54 60.5728 43.608 60.1488 43.608ZM59.5128 36.864L60.7488 34.44H61.9848L60.3528 36.864H59.5128ZM67.5505 43.5V42.456H69.4705V36.096H70.0945L67.9705 37.416L67.4665 36.492L69.8305 35.04H70.7065V42.456H72.5065V43.5H67.5505Z" fill="black"/>
<path d="M25.8627 59.61C25.0854 59.61 24.418 59.4487 23.8607 59.126C23.3034 58.796 22.8744 58.334 22.5737 57.74C22.273 57.146 22.1227 56.4383 22.1227 55.617C22.1227 54.7957 22.273 54.0917 22.5737 53.505C22.8744 52.911 23.3034 52.4527 23.8607 52.13C24.418 51.8073 25.0854 51.646 25.8627 51.646C26.3907 51.646 26.882 51.7267 27.3367 51.888C27.7987 52.0493 28.1837 52.2877 28.4917 52.603L28.0847 53.516C27.7474 53.2227 27.4027 53.01 27.0507 52.878C26.6987 52.746 26.3137 52.68 25.8957 52.68C25.0744 52.68 24.4437 52.933 24.0037 53.439C23.5637 53.945 23.3437 54.671 23.3437 55.617C23.3437 56.563 23.5637 57.2927 24.0037 57.806C24.4437 58.312 25.0744 58.565 25.8957 58.565C26.3137 58.565 26.6987 58.499 27.0507 58.367C27.4027 58.235 27.7474 58.0223 28.0847 57.729L28.4917 58.642C28.1837 58.95 27.7987 59.1883 27.3367 59.357C26.882 59.5257 26.3907 59.61 25.8627 59.61ZM29.7852 59.5V51.745H30.9072V55.243H30.7972C30.9586 54.847 31.2116 54.5427 31.5562 54.33C31.9009 54.1173 32.2932 54.011 32.7332 54.011C33.1732 54.011 33.5326 54.0917 33.8112 54.253C34.0972 54.407 34.3099 54.6453 34.4492 54.968C34.5959 55.2907 34.6692 55.6977 34.6692 56.189V59.5H33.5362V56.255C33.5362 55.9543 33.4959 55.7087 33.4152 55.518C33.3419 55.32 33.2209 55.1733 33.0522 55.078C32.8909 54.9753 32.6819 54.924 32.4252 54.924C32.1246 54.924 31.8606 54.99 31.6332 55.122C31.4059 55.254 31.2299 55.4373 31.1052 55.672C30.9806 55.8993 30.9182 56.1633 30.9182 56.464V59.5H29.7852ZM38.0335 59.599C37.6522 59.599 37.3112 59.5257 37.0105 59.379C36.7099 59.2323 36.4715 59.0343 36.2955 58.785C36.1269 58.5283 36.0425 58.246 36.0425 57.938C36.0425 57.5347 36.1452 57.2193 36.3505 56.992C36.5632 56.7573 36.9042 56.5887 37.3735 56.486C37.8502 56.3833 38.4809 56.332 39.2655 56.332H39.8485V57.036H39.2875C38.8915 57.036 38.5579 57.0507 38.2865 57.08C38.0152 57.102 37.7952 57.146 37.6265 57.212C37.4652 57.2707 37.3479 57.355 37.2745 57.465C37.2012 57.575 37.1645 57.7107 37.1645 57.872C37.1645 58.1433 37.2599 58.3633 37.4505 58.532C37.6485 58.7007 37.9162 58.785 38.2535 58.785C38.5322 58.785 38.7779 58.719 38.9905 58.587C39.2032 58.455 39.3719 58.279 39.4965 58.059C39.6212 57.839 39.6835 57.586 39.6835 57.3V56.046C39.6835 55.6353 39.5882 55.342 39.3975 55.166C39.2142 54.9827 38.9135 54.891 38.4955 54.891C38.1875 54.891 37.8759 54.9387 37.5605 55.034C37.2525 55.122 36.9372 55.265 36.6145 55.463L36.2625 54.66C36.4679 54.528 36.6952 54.4143 36.9445 54.319C37.2012 54.2163 37.4689 54.1393 37.7475 54.088C38.0262 54.0367 38.2975 54.011 38.5615 54.011C39.0529 54.011 39.4599 54.088 39.7825 54.242C40.1125 54.396 40.3619 54.6307 40.5305 54.946C40.6992 55.2613 40.7835 55.6683 40.7835 56.167V59.5H39.7385V58.312H39.8045C39.7385 58.5687 39.6212 58.796 39.4525 58.994C39.2912 59.1847 39.0895 59.335 38.8475 59.445C38.6129 59.5477 38.3415 59.599 38.0335 59.599ZM42.3751 61.48V54.11H43.4641V55.309H43.3871C43.5118 54.9057 43.7464 54.5903 44.0911 54.363C44.4358 54.1283 44.8428 54.011 45.3121 54.011C45.7961 54.011 46.2178 54.1247 46.5771 54.352C46.9364 54.5793 47.2151 54.902 47.4131 55.32C47.6111 55.738 47.7101 56.233 47.7101 56.805C47.7101 57.3697 47.6111 57.8647 47.4131 58.29C47.2151 58.708 46.9364 59.0307 46.5771 59.258C46.2251 59.4853 45.8034 59.599 45.3121 59.599C44.8501 59.599 44.4504 59.4853 44.1131 59.258C43.7758 59.0233 43.5411 58.719 43.4091 58.345H43.5081V61.48H42.3751ZM45.0261 58.719C45.4954 58.719 45.8694 58.554 46.1481 58.224C46.4268 57.8867 46.5661 57.4137 46.5661 56.805C46.5661 56.1817 46.4268 55.7087 46.1481 55.386C45.8694 55.0633 45.4954 54.902 45.0261 54.902C44.5568 54.902 44.1828 55.0633 43.9041 55.386C43.6328 55.7087 43.4971 56.1817 43.4971 56.805C43.4971 57.4137 43.6364 57.8867 43.9151 58.224C44.1938 58.554 44.5641 58.719 45.0261 58.719ZM48.9148 52.867V51.69H50.2348V52.867H48.9148ZM49.0138 59.5V54.11H50.1468V59.5H49.0138ZM54.1065 59.599C53.4245 59.599 52.9148 59.4267 52.5775 59.082C52.2402 58.73 52.0715 58.224 52.0715 57.564V54.99H51.0265V54.11H52.0935V52.504H53.2045V54.11H54.9315V54.99H53.2155V57.487C53.2155 57.8683 53.2962 58.158 53.4575 58.356C53.6262 58.554 53.8975 58.653 54.2715 58.653C54.3962 58.653 54.5172 58.6383 54.6345 58.609C54.7518 58.5797 54.8692 58.5467 54.9865 58.51L55.1625 59.368C55.0378 59.4413 54.8765 59.4963 54.6785 59.533C54.4805 59.577 54.2898 59.599 54.1065 59.599ZM55.9747 59.5V54.11H57.0637V55.397H56.9757C57.1004 54.9643 57.3167 54.6343 57.6247 54.407C57.9327 54.1797 58.3324 54.0477 58.8237 54.011L59.2307 53.978L59.3187 54.968L58.5927 55.034C58.116 55.078 57.7494 55.232 57.4927 55.496C57.2434 55.7527 57.1187 56.101 57.1187 56.541V59.5H55.9747ZM62.7381 59.599C62.1441 59.599 61.6308 59.489 61.1981 59.269C60.7655 59.0417 60.4318 58.719 60.1971 58.301C59.9698 57.883 59.8561 57.388 59.8561 56.816C59.8561 56.2587 59.9661 55.771 60.1861 55.353C60.4135 54.935 60.7251 54.6087 61.1211 54.374C61.5245 54.132 61.9901 54.011 62.5181 54.011C63.0241 54.011 63.4568 54.121 63.8161 54.341C64.1755 54.561 64.4541 54.8727 64.6521 55.276C64.8501 55.672 64.9491 56.1487 64.9491 56.706V57.08H60.7361V56.376H64.1681L63.9921 56.541C63.9921 55.991 63.8675 55.5693 63.6181 55.276C63.3688 54.9753 63.0131 54.825 62.5511 54.825C62.2065 54.825 61.9131 54.902 61.6711 55.056C61.4365 55.21 61.2531 55.4263 61.1211 55.705C60.9965 55.9837 60.9341 56.3173 60.9341 56.706V56.783C60.9341 57.2083 61.0038 57.564 61.1431 57.85C61.2825 58.136 61.4878 58.3523 61.7591 58.499C62.0305 58.6383 62.3641 58.708 62.7601 58.708C63.0608 58.708 63.3615 58.664 63.6621 58.576C63.9628 58.4807 64.2451 58.3303 64.5091 58.125L64.8501 58.906C64.5935 59.126 64.2745 59.2983 63.8931 59.423C63.5118 59.5403 63.1268 59.599 62.7381 59.599ZM71.7618 59.599C71.4318 59.599 71.1055 59.566 70.7828 59.5C70.4602 59.4267 70.1595 59.3203 69.8808 59.181C69.6095 59.0417 69.3675 58.8803 69.1548 58.697L69.5618 57.806C69.9065 58.0773 70.2585 58.279 70.6178 58.411C70.9772 58.543 71.3548 58.609 71.7508 58.609C72.2568 58.609 72.6528 58.477 72.9388 58.213C73.2248 57.9417 73.3678 57.5787 73.3678 57.124C73.3678 56.662 73.2322 56.288 72.9608 56.002C72.6895 55.716 72.3155 55.573 71.8388 55.573C71.4942 55.573 71.1898 55.639 70.9258 55.771C70.6618 55.903 70.4235 56.112 70.2108 56.398H69.3858V51.745H74.0388V52.713H70.4968V55.474H70.2548C70.4382 55.2027 70.6875 54.99 71.0028 54.836C71.3255 54.682 71.6848 54.605 72.0808 54.605C72.5722 54.605 72.9975 54.7113 73.3568 54.924C73.7162 55.1293 73.9948 55.419 74.1928 55.793C74.3908 56.1597 74.4898 56.5887 74.4898 57.08C74.4898 57.5787 74.3798 58.0187 74.1598 58.4C73.9398 58.7813 73.6245 59.0783 73.2138 59.291C72.8105 59.4963 72.3265 59.599 71.7618 59.599Z" fill="#667085"/>
<defs>
<filter id="filter0_d_8310_982" x="0" y="1.5" width="96" height="85.8462" filterUnits="userSpaceOnUse" color-interpolation-filters="sRGB">
<feFlood flood-opacity="0" result="BackgroundImageFix"/>
<feColorMatrix in="SourceAlpha" type="matrix" values="0 0 0 0 0 0 0 0 0 0 0 0 0 0 0 0 0 0 127 0" result="hardAlpha"/>
<feOffset dy="4"/>
<feGaussianBlur stdDeviation="2"/>
<feComposite in2="hardAlpha" operator="out"/>
<feColorMatrix type="matrix" values="0 0 0 0 0 0 0 0 0 0 0 0 0 0 0 0 0 0 0.25 0"/>
<feBlend mode="normal" in2="BackgroundImageFix" result="effect1_dropShadow_8310_982"/>
<feBlend mode="normal" in="SourceGraphic" in2="effect1_dropShadow_8310_982" result="shape"/>
</filter>
</defs>
</svg>
