<svg width="96" height="89" viewBox="0 0 96 89" fill="none" xmlns="http://www.w3.org/2000/svg">
<g filter="url(#filter0_d_8310_1103)">
<path d="M5.37285 45.1921C4.62083 43.8824 4.24484 43.2272 4.09767 42.531C3.96744 41.9148 3.96744 41.2784 4.09767 40.6622C4.24484 39.966 4.62083 39.3107 5.37285 38.001L23.5901 6.26913C24.3421 4.95928 24.7181 4.30435 25.2442 3.82802C25.7096 3.40658 26.2579 3.0882 26.8535 2.89359C27.5267 2.67358 28.2787 2.67358 29.7827 2.67358H66.2171C67.7214 2.67358 68.4731 2.67358 69.1466 2.89359C69.7419 3.0882 70.2903 3.40658 70.756 3.82802C71.282 4.30435 71.6578 4.95928 72.41 6.26913L90.6271 38.001C91.3792 39.3107 91.7551 39.966 91.9021 40.6622C92.0326 41.2784 92.0326 41.9148 91.9021 42.531C91.7551 43.2272 91.3792 43.8824 90.6271 45.1921L72.41 76.9242C71.6578 78.2339 71.282 78.8887 70.756 79.3651C70.2903 79.7867 69.7419 80.1049 69.1466 80.2995C68.4731 80.5197 67.7214 80.5197 66.2171 80.5197H29.7827C28.2787 80.5197 27.5267 80.5197 26.8535 80.2995C26.2579 80.1049 25.7096 79.7867 25.2442 79.3651C24.7181 78.8887 24.3421 78.2339 23.5901 76.9242L5.37285 45.1921Z" fill="white"/>
</g>
<path d="M58.2051 3.17358H38.2051C36.8244 3.17358 35.7051 4.29287 35.7051 5.67358V25.6736C35.7051 27.0543 36.8244 28.1736 38.2051 28.1736H58.2051C59.5858 28.1736 60.7051 27.0543 60.7051 25.6736V5.67358C60.7051 4.29287 59.5858 3.17358 58.2051 3.17358Z" fill="#F2BB41"/>
<path d="M54.4551 16.9235H45.7051V13.686L46.0676 14.061C46.1838 14.1782 46.322 14.2712 46.4743 14.3346C46.6267 14.3981 46.7901 14.4308 46.9551 14.4308C47.1201 14.4308 47.2835 14.3981 47.4358 14.3346C47.5881 14.2712 47.7264 14.1782 47.8426 14.061C47.9597 13.9448 48.0527 13.8066 48.1162 13.6542C48.1796 13.5019 48.2123 13.3385 48.2123 13.1735C48.2123 13.0085 48.1796 12.8451 48.1162 12.6928C48.0527 12.5405 47.9597 12.4022 47.8426 12.286L45.3426 9.78601C45.2264 9.66885 45.0881 9.57585 44.9358 9.51239C44.7835 9.44893 44.6201 9.41626 44.4551 9.41626C44.2901 9.41626 44.1267 9.44893 43.9743 9.51239C43.822 9.57585 43.6838 9.66885 43.5676 9.78601L41.0676 12.286C40.951 12.4026 40.8586 12.5409 40.7955 12.6932C40.7324 12.8455 40.7 13.0087 40.7 13.1735C40.7 13.5064 40.8322 13.8256 41.0676 14.061C41.3029 14.2964 41.6222 14.4286 41.9551 14.4286C42.2879 14.4286 42.6072 14.2964 42.8426 14.061L43.2051 13.686V16.9235C43.2051 17.5865 43.4685 18.2224 43.9373 18.6913C44.4061 19.1601 45.042 19.4235 45.7051 19.4235H54.4551C54.7866 19.4235 55.1045 19.2918 55.3389 19.0574C55.5734 18.823 55.7051 18.505 55.7051 18.1735C55.7051 17.842 55.5734 17.524 55.3389 17.2896C55.1045 17.0552 54.7866 16.9235 54.4551 16.9235Z" fill="#E08838"/>
<path d="M23.0949 43.6736V36.2576H20.0949V35.2136H27.3309V36.2576H24.3309V43.6736H23.0949ZM29.181 43.7816C28.773 43.7816 28.405 43.7016 28.077 43.5416C27.757 43.3816 27.505 43.1656 27.321 42.8936C27.137 42.6216 27.045 42.3136 27.045 41.9696C27.045 41.5376 27.153 41.1976 27.369 40.9496C27.593 40.6936 27.957 40.5136 28.461 40.4096C28.973 40.2976 29.661 40.2416 30.525 40.2416H31.089V40.9856H30.537C30.105 40.9856 29.741 41.0016 29.445 41.0336C29.149 41.0656 28.913 41.1176 28.737 41.1896C28.561 41.2536 28.433 41.3456 28.353 41.4656C28.281 41.5856 28.245 41.7296 28.245 41.8976C28.245 42.2016 28.349 42.4496 28.557 42.6416C28.765 42.8256 29.053 42.9176 29.421 42.9176C29.717 42.9176 29.977 42.8496 30.201 42.7136C30.425 42.5696 30.601 42.3776 30.729 42.1376C30.865 41.8976 30.933 41.6216 30.933 41.3096V39.9296C30.933 39.4736 30.837 39.1456 30.645 38.9456C30.453 38.7456 30.137 38.6456 29.697 38.6456C29.361 38.6456 29.025 38.6976 28.689 38.8016C28.353 38.8976 28.009 39.0536 27.657 39.2696L27.285 38.4176C27.493 38.2736 27.733 38.1496 28.005 38.0456C28.277 37.9416 28.561 37.8616 28.857 37.8056C29.161 37.7416 29.453 37.7096 29.733 37.7096C30.269 37.7096 30.709 37.7936 31.053 37.9616C31.405 38.1296 31.665 38.3856 31.833 38.7296C32.001 39.0736 32.085 39.5176 32.085 40.0616V43.6736H30.945V42.3656H31.053C30.989 42.6616 30.869 42.9176 30.693 43.1336C30.525 43.3416 30.313 43.5016 30.057 43.6136C29.801 43.7256 29.509 43.7816 29.181 43.7816ZM27.885 37.0376L29.205 34.6136H30.309L31.629 37.0376H30.825L29.757 35.3576L28.689 37.0376H27.885ZM36.3343 43.7816C35.7343 43.7816 35.2143 43.6576 34.7743 43.4096C34.3423 43.1536 34.0063 42.7976 33.7663 42.3416C33.5263 41.8776 33.4063 41.3336 33.4063 40.7096C33.4063 40.0936 33.5263 39.5616 33.7663 39.1136C34.0063 38.6656 34.3423 38.3216 34.7743 38.0816C35.2143 37.8336 35.7343 37.7096 36.3343 37.7096C36.7023 37.7096 37.0663 37.7736 37.4263 37.9016C37.7863 38.0216 38.0823 38.1976 38.3143 38.4296L37.9303 39.2816C37.7143 39.0736 37.4703 38.9216 37.1983 38.8256C36.9263 38.7216 36.6703 38.6696 36.4303 38.6696C35.8623 38.6696 35.4223 38.8496 35.1103 39.2096C34.8063 39.5616 34.6543 40.0656 34.6543 40.7216C34.6543 41.3776 34.8063 41.8936 35.1103 42.2696C35.4223 42.6376 35.8623 42.8216 36.4303 42.8216C36.6703 42.8216 36.9263 42.7736 37.1983 42.6776C37.4703 42.5736 37.7143 42.4176 37.9303 42.2096L38.3143 43.0736C38.0823 43.2896 37.7823 43.4616 37.4143 43.5896C37.0543 43.7176 36.6943 43.7816 36.3343 43.7816ZM39.3559 43.6736V35.2136H40.5679V39.0656H40.3999C40.5759 38.6176 40.8519 38.2816 41.2279 38.0576C41.6039 37.8256 42.0359 37.7096 42.5239 37.7096C42.9879 37.7096 43.3719 37.7976 43.6759 37.9736C43.9879 38.1416 44.2199 38.4016 44.3719 38.7536C44.5239 39.0976 44.5999 39.5336 44.5999 40.0616V43.6736H43.3879V40.1336C43.3879 39.7976 43.3439 39.5256 43.2559 39.3176C43.1679 39.1016 43.0359 38.9416 42.8599 38.8376C42.6839 38.7336 42.4559 38.6816 42.1759 38.6816C41.8559 38.6816 41.5719 38.7496 41.3239 38.8856C41.0839 39.0216 40.8959 39.2176 40.7599 39.4736C40.6319 39.7296 40.5679 40.0256 40.5679 40.3616V43.6736H39.3559ZM49.018 43.7816C48.378 43.7816 47.826 43.6616 47.362 43.4216C46.906 43.1736 46.55 42.8256 46.294 42.3776C46.046 41.9216 45.922 41.3816 45.922 40.7576C45.922 40.1496 46.046 39.6176 46.294 39.1616C46.542 38.7056 46.882 38.3496 47.314 38.0936C47.746 37.8376 48.238 37.7096 48.79 37.7096C49.334 37.7096 49.798 37.8296 50.182 38.0696C50.574 38.3016 50.874 38.6336 51.082 39.0656C51.29 39.4976 51.394 40.0136 51.394 40.6136V41.0216H46.882V40.2776H50.578L50.374 40.4456C50.374 39.8456 50.242 39.3816 49.978 39.0536C49.714 38.7256 49.334 38.5616 48.838 38.5616C48.462 38.5616 48.142 38.6496 47.878 38.8256C47.622 39.0016 47.426 39.2456 47.29 39.5576C47.154 39.8696 47.086 40.2336 47.086 40.6496V40.7216C47.086 41.1856 47.158 41.5776 47.302 41.8976C47.454 42.2096 47.674 42.4456 47.962 42.6056C48.25 42.7656 48.606 42.8456 49.03 42.8456C49.366 42.8456 49.694 42.7936 50.014 42.6896C50.342 42.5776 50.65 42.4056 50.938 42.1736L51.298 43.0136C51.034 43.2536 50.694 43.4416 50.278 43.5776C49.862 43.7136 49.442 43.7816 49.018 43.7816ZM54.7673 43.7816C54.4553 43.7816 54.1513 43.7536 53.8553 43.6976C53.5593 43.6416 53.2873 43.5616 53.0393 43.4576C52.7913 43.3536 52.5713 43.2256 52.3793 43.0736L52.7273 42.2576C52.9273 42.3936 53.1393 42.5136 53.3633 42.6176C53.5873 42.7136 53.8193 42.7856 54.0593 42.8336C54.3073 42.8816 54.5473 42.9056 54.7793 42.9056C55.2033 42.9056 55.5233 42.8296 55.7393 42.6776C55.9553 42.5256 56.0633 42.3216 56.0633 42.0656C56.0633 41.8576 55.9913 41.6976 55.8473 41.5856C55.7033 41.4656 55.4873 41.3736 55.1993 41.3096L54.0593 41.0816C53.5633 40.9776 53.1873 40.7936 52.9313 40.5296C52.6753 40.2656 52.5473 39.9296 52.5473 39.5216C52.5473 39.1536 52.6473 38.8336 52.8473 38.5616C53.0473 38.2896 53.3273 38.0816 53.6873 37.9376C54.0473 37.7856 54.4633 37.7096 54.9353 37.7096C55.2073 37.7096 55.4713 37.7376 55.7273 37.7936C55.9833 37.8496 56.2233 37.9296 56.4473 38.0336C56.6793 38.1376 56.8753 38.2696 57.0353 38.4296L56.6873 39.2456C56.5353 39.1096 56.3593 38.9936 56.1593 38.8976C55.9673 38.8016 55.7673 38.7296 55.5593 38.6816C55.3513 38.6256 55.1433 38.5976 54.9353 38.5976C54.5113 38.5976 54.1913 38.6776 53.9753 38.8376C53.7673 38.9896 53.6633 39.1976 53.6633 39.4616C53.6633 39.6616 53.7273 39.8256 53.8553 39.9536C53.9833 40.0816 54.1833 40.1736 54.4553 40.2296L55.5953 40.4576C56.1153 40.5616 56.5073 40.7376 56.7713 40.9856C57.0433 41.2336 57.1793 41.5696 57.1793 41.9936C57.1793 42.3616 57.0793 42.6816 56.8793 42.9536C56.6793 43.2256 56.3953 43.4336 56.0273 43.5776C55.6673 43.7136 55.2473 43.7816 54.7673 43.7816ZM63.9121 43.7816C63.4001 43.7816 62.9481 43.6616 62.5561 43.4216C62.1721 43.1736 61.8721 42.8216 61.6561 42.3656C61.4401 41.9016 61.3321 41.3616 61.3321 40.7456C61.3321 40.1136 61.4401 39.5736 61.6561 39.1256C61.8721 38.6776 62.1721 38.3296 62.5561 38.0816C62.9481 37.8336 63.4001 37.7096 63.9121 37.7096C64.4241 37.7096 64.8641 37.8376 65.2321 38.0936C65.6081 38.3416 65.8601 38.6776 65.9881 39.1016H65.8561V35.2136H67.0681V43.6736H65.8801V42.3536H66.0001C65.8721 42.7856 65.6201 43.1336 65.2441 43.3976C64.8761 43.6536 64.4321 43.7816 63.9121 43.7816ZM64.2241 42.8456C64.7201 42.8456 65.1201 42.6656 65.4241 42.3056C65.7281 41.9456 65.8801 41.4256 65.8801 40.7456C65.8801 40.0576 65.7281 39.5376 65.4241 39.1856C65.1201 38.8336 64.7201 38.6576 64.2241 38.6576C63.7201 38.6576 63.3161 38.8336 63.0121 39.1856C62.7081 39.5376 62.5561 40.0576 62.5561 40.7456C62.5561 41.4256 62.7081 41.9456 63.0121 42.3056C63.3161 42.6656 63.7201 42.8456 64.2241 42.8456ZM71.518 43.7816C70.878 43.7816 70.326 43.6616 69.862 43.4216C69.406 43.1736 69.05 42.8256 68.794 42.3776C68.546 41.9216 68.422 41.3816 68.422 40.7576C68.422 40.1496 68.546 39.6176 68.794 39.1616C69.042 38.7056 69.382 38.3496 69.814 38.0936C70.246 37.8376 70.738 37.7096 71.29 37.7096C71.834 37.7096 72.298 37.8296 72.682 38.0696C73.074 38.3016 73.374 38.6336 73.582 39.0656C73.79 39.4976 73.894 40.0136 73.894 40.6136V41.0216H69.382V40.2776H73.078L72.874 40.4456C72.874 39.8456 72.742 39.3816 72.478 39.0536C72.214 38.7256 71.834 38.5616 71.338 38.5616C70.962 38.5616 70.642 38.6496 70.378 38.8256C70.122 39.0016 69.926 39.2456 69.79 39.5576C69.654 39.8696 69.586 40.2336 69.586 40.6496V40.7216C69.586 41.1856 69.658 41.5776 69.802 41.8976C69.954 42.2096 70.174 42.4456 70.462 42.6056C70.75 42.7656 71.106 42.8456 71.53 42.8456C71.866 42.8456 72.194 42.7936 72.514 42.6896C72.842 42.5776 73.15 42.4056 73.438 42.1736L73.798 43.0136C73.534 43.2536 73.194 43.4416 72.778 43.5776C72.362 43.7136 71.942 43.7816 71.518 43.7816ZM27.2406 59.7816C26.6406 59.7816 26.1206 59.6576 25.6806 59.4096C25.2486 59.1536 24.9126 58.7976 24.6726 58.3416C24.4326 57.8776 24.3126 57.3336 24.3126 56.7096C24.3126 56.0936 24.4326 55.5616 24.6726 55.1136C24.9126 54.6656 25.2486 54.3216 25.6806 54.0816C26.1206 53.8336 26.6406 53.7096 27.2406 53.7096C27.6086 53.7096 27.9726 53.7736 28.3326 53.9016C28.6926 54.0216 28.9886 54.1976 29.2206 54.4296L28.8366 55.2816C28.6206 55.0736 28.3766 54.9216 28.1046 54.8256C27.8326 54.7216 27.5766 54.6696 27.3366 54.6696C26.7686 54.6696 26.3286 54.8496 26.0166 55.2096C25.7126 55.5616 25.5606 56.0656 25.5606 56.7216C25.5606 57.3776 25.7126 57.8936 26.0166 58.2696C26.3286 58.6376 26.7686 58.8216 27.3366 58.8216C27.5766 58.8216 27.8326 58.7736 28.1046 58.6776C28.3766 58.5736 28.6206 58.4176 28.8366 58.2096L29.2206 59.0736C28.9886 59.2896 28.6886 59.4616 28.3206 59.5896C27.9606 59.7176 27.6006 59.7816 27.2406 59.7816ZM32.689 59.7816C32.097 59.7816 31.585 59.6576 31.153 59.4096C30.729 59.1616 30.397 58.8096 30.157 58.3536C29.917 57.8976 29.797 57.3616 29.797 56.7456C29.797 56.1216 29.917 55.5856 30.157 55.1376C30.397 54.6816 30.729 54.3296 31.153 54.0816C31.585 53.8336 32.097 53.7096 32.689 53.7096C33.273 53.7096 33.777 53.8336 34.201 54.0816C34.633 54.3296 34.969 54.6816 35.209 55.1376C35.449 55.5936 35.569 56.1296 35.569 56.7456C35.569 57.3616 35.449 57.8976 35.209 58.3536C34.969 58.8096 34.633 59.1616 34.201 59.4096C33.777 59.6576 33.273 59.7816 32.689 59.7816ZM32.677 58.8456C33.181 58.8456 33.585 58.6656 33.889 58.3056C34.193 57.9456 34.345 57.4256 34.345 56.7456C34.345 56.0576 34.193 55.5376 33.889 55.1856C33.585 54.8336 33.181 54.6576 32.677 54.6576C32.181 54.6576 31.781 54.8336 31.477 55.1856C31.173 55.5376 31.021 56.0576 31.021 56.7456C31.021 57.4256 31.173 57.9456 31.477 58.3056C31.781 58.6656 32.181 58.8456 32.677 58.8456ZM36.9301 59.6736V53.8176H38.1061V55.0656H37.9741C38.1501 54.6176 38.4261 54.2816 38.8021 54.0576C39.1781 53.8256 39.6101 53.7096 40.0981 53.7096C40.5621 53.7096 40.9461 53.7976 41.2501 53.9736C41.5621 54.1416 41.7941 54.4016 41.9461 54.7536C42.0981 55.0976 42.1741 55.5336 42.1741 56.0616V59.6736H40.9621V56.1336C40.9621 55.7976 40.9181 55.5256 40.8301 55.3176C40.7421 55.1016 40.6101 54.9416 40.4341 54.8376C40.2581 54.7336 40.0301 54.6816 39.7501 54.6816C39.4301 54.6816 39.1461 54.7496 38.8981 54.8856C38.6581 55.0216 38.4701 55.2176 38.3341 55.4736C38.2061 55.7296 38.1421 56.0256 38.1421 56.3616V59.6736H36.9301ZM46.0762 59.7816C45.5642 59.7816 45.1122 59.6616 44.7202 59.4216C44.3362 59.1736 44.0362 58.8216 43.8202 58.3656C43.6042 57.9016 43.4962 57.3616 43.4962 56.7456C43.4962 56.1136 43.6042 55.5736 43.8202 55.1256C44.0362 54.6776 44.3362 54.3296 44.7202 54.0816C45.1122 53.8336 45.5642 53.7096 46.0762 53.7096C46.5882 53.7096 47.0282 53.8376 47.3962 54.0936C47.7722 54.3416 48.0242 54.6776 48.1522 55.1016H48.0202V51.2136H49.2322V59.6736H48.0442V58.3536H48.1642C48.0362 58.7856 47.7842 59.1336 47.4082 59.3976C47.0402 59.6536 46.5962 59.7816 46.0762 59.7816ZM46.3882 58.8456C46.8842 58.8456 47.2842 58.6656 47.5882 58.3056C47.8922 57.9456 48.0442 57.4256 48.0442 56.7456C48.0442 56.0576 47.8922 55.5376 47.5882 55.1856C47.2842 54.8336 46.8842 54.6576 46.3882 54.6576C45.8842 54.6576 45.4802 54.8336 45.1762 55.1856C44.8722 55.5376 44.7202 56.0576 44.7202 56.7456C44.7202 57.4256 44.8722 57.9456 45.1762 58.3056C45.4802 58.6656 45.8842 58.8456 46.3882 58.8456ZM53.022 59.7816C52.55 59.7816 52.154 59.6936 51.834 59.5176C51.522 59.3416 51.286 59.0816 51.126 58.7376C50.974 58.3856 50.898 57.9456 50.898 57.4176V53.8176H52.11V57.4296C52.11 57.7416 52.15 58.0016 52.23 58.2096C52.318 58.4176 52.45 58.5696 52.626 58.6656C52.81 58.7616 53.038 58.8096 53.31 58.8096C53.614 58.8096 53.882 58.7416 54.114 58.6056C54.346 58.4696 54.526 58.2736 54.654 58.0176C54.782 57.7616 54.846 57.4656 54.846 57.1296V53.8176H56.058V59.6736H54.882V58.3896H55.038C54.878 58.8376 54.622 59.1816 54.27 59.4216C53.918 59.6616 53.502 59.7816 53.022 59.7816ZM57.6581 52.4616V51.2016H59.0741V52.4616H57.6581ZM57.7661 59.6736V53.8176H58.9781V59.6736H57.7661ZM63.18 59.7816C62.452 59.7816 61.904 59.5936 61.536 59.2176C61.176 58.8416 60.996 58.2976 60.996 57.5856V54.7536H59.856V53.8176H60.996V52.0536H62.208V53.8176H64.02V54.7536H62.208V57.4896C62.208 57.9136 62.296 58.2336 62.472 58.4496C62.656 58.6656 62.952 58.7736 63.36 58.7736C63.48 58.7736 63.6 58.7576 63.72 58.7256C63.848 58.6936 63.972 58.6616 64.092 58.6296L64.284 59.5416C64.164 59.6136 63.996 59.6696 63.78 59.7096C63.572 59.7576 63.372 59.7816 63.18 59.7816ZM67.7563 59.7816C67.1163 59.7816 66.5643 59.6616 66.1003 59.4216C65.6443 59.1736 65.2883 58.8256 65.0323 58.3776C64.7843 57.9216 64.6603 57.3816 64.6603 56.7576C64.6603 56.1496 64.7843 55.6176 65.0323 55.1616C65.2803 54.7056 65.6203 54.3496 66.0523 54.0936C66.4843 53.8376 66.9763 53.7096 67.5283 53.7096C68.0723 53.7096 68.5363 53.8296 68.9203 54.0696C69.3123 54.3016 69.6123 54.6336 69.8203 55.0656C70.0283 55.4976 70.1323 56.0136 70.1323 56.6136V57.0216H65.6203V56.2776H69.3163L69.1123 56.4456C69.1123 55.8456 68.9803 55.3816 68.7163 55.0536C68.4523 54.7256 68.0723 54.5616 67.5763 54.5616C67.2003 54.5616 66.8803 54.6496 66.6163 54.8256C66.3603 55.0016 66.1643 55.2456 66.0283 55.5576C65.8923 55.8696 65.8243 56.2336 65.8243 56.6496V56.7216C65.8243 57.1856 65.8963 57.5776 66.0403 57.8976C66.1923 58.2096 66.4123 58.4456 66.7003 58.6056C66.9883 58.7656 67.3443 58.8456 67.7683 58.8456C68.1043 58.8456 68.4323 58.7936 68.7523 58.6896C69.0803 58.5776 69.3883 58.4056 69.6763 58.1736L70.0363 59.0136C69.7723 59.2536 69.4323 59.4416 69.0163 59.5776C68.6003 59.7136 68.1803 59.7816 67.7563 59.7816Z" fill="black"/>
<path d="M24.8627 75.7836C24.0854 75.7836 23.418 75.6223 22.8607 75.2996C22.3034 74.9696 21.8744 74.5076 21.5737 73.9136C21.273 73.3196 21.1227 72.6119 21.1227 71.7906C21.1227 70.9693 21.273 70.2653 21.5737 69.6786C21.8744 69.0846 22.3034 68.6263 22.8607 68.3036C23.418 67.9809 24.0854 67.8196 24.8627 67.8196C25.3907 67.8196 25.882 67.9003 26.3367 68.0616C26.7987 68.2229 27.1837 68.4613 27.4917 68.7766L27.0847 69.6896C26.7474 69.3963 26.4027 69.1836 26.0507 69.0516C25.6987 68.9196 25.3137 68.8536 24.8957 68.8536C24.0744 68.8536 23.4437 69.1066 23.0037 69.6126C22.5637 70.1186 22.3437 70.8446 22.3437 71.7906C22.3437 72.7366 22.5637 73.4663 23.0037 73.9796C23.4437 74.4856 24.0744 74.7386 24.8957 74.7386C25.3137 74.7386 25.6987 74.6726 26.0507 74.5406C26.4027 74.4086 26.7474 74.1959 27.0847 73.9026L27.4917 74.8156C27.1837 75.1236 26.7987 75.3619 26.3367 75.5306C25.882 75.6993 25.3907 75.7836 24.8627 75.7836ZM28.7852 75.6736V67.9186H29.9072V71.4166H29.7972C29.9586 71.0206 30.2116 70.7163 30.5562 70.5036C30.9009 70.2909 31.2932 70.1846 31.7332 70.1846C32.1732 70.1846 32.5326 70.2653 32.8112 70.4266C33.0972 70.5806 33.3099 70.8189 33.4492 71.1416C33.5959 71.4643 33.6692 71.8713 33.6692 72.3626V75.6736H32.5362V72.4286C32.5362 72.1279 32.4959 71.8823 32.4152 71.6916C32.3419 71.4936 32.2209 71.3469 32.0522 71.2516C31.8909 71.1489 31.6819 71.0976 31.4252 71.0976C31.1246 71.0976 30.8606 71.1636 30.6332 71.2956C30.4059 71.4276 30.2299 71.6109 30.1052 71.8456C29.9806 72.0729 29.9182 72.3369 29.9182 72.6376V75.6736H28.7852ZM37.0335 75.7726C36.6522 75.7726 36.3112 75.6993 36.0105 75.5526C35.7099 75.4059 35.4715 75.2079 35.2955 74.9586C35.1269 74.7019 35.0425 74.4196 35.0425 74.1116C35.0425 73.7083 35.1452 73.3929 35.3505 73.1656C35.5632 72.9309 35.9042 72.7623 36.3735 72.6596C36.8502 72.5569 37.4809 72.5056 38.2655 72.5056H38.8485V73.2096H38.2875C37.8915 73.2096 37.5579 73.2243 37.2865 73.2536C37.0152 73.2756 36.7952 73.3196 36.6265 73.3856C36.4652 73.4443 36.3479 73.5286 36.2745 73.6386C36.2012 73.7486 36.1645 73.8843 36.1645 74.0456C36.1645 74.3169 36.2599 74.5369 36.4505 74.7056C36.6485 74.8743 36.9162 74.9586 37.2535 74.9586C37.5322 74.9586 37.7779 74.8926 37.9905 74.7606C38.2032 74.6286 38.3719 74.4526 38.4965 74.2326C38.6212 74.0126 38.6835 73.7596 38.6835 73.4736V72.2196C38.6835 71.8089 38.5882 71.5156 38.3975 71.3396C38.2142 71.1563 37.9135 71.0646 37.4955 71.0646C37.1875 71.0646 36.8759 71.1123 36.5605 71.2076C36.2525 71.2956 35.9372 71.4386 35.6145 71.6366L35.2625 70.8336C35.4679 70.7016 35.6952 70.5879 35.9445 70.4926C36.2012 70.3899 36.4689 70.3129 36.7475 70.2616C37.0262 70.2103 37.2975 70.1846 37.5615 70.1846C38.0529 70.1846 38.4599 70.2616 38.7825 70.4156C39.1125 70.5696 39.3619 70.8043 39.5305 71.1196C39.6992 71.4349 39.7835 71.8419 39.7835 72.3406V75.6736H38.7385V74.4856H38.8045C38.7385 74.7423 38.6212 74.9696 38.4525 75.1676C38.2912 75.3583 38.0895 75.5086 37.8475 75.6186C37.6129 75.7213 37.3415 75.7726 37.0335 75.7726ZM41.3751 77.6536V70.2836H42.4641V71.4826H42.3871C42.5118 71.0793 42.7464 70.7639 43.0911 70.5366C43.4358 70.3019 43.8428 70.1846 44.3121 70.1846C44.7961 70.1846 45.2178 70.2983 45.5771 70.5256C45.9364 70.7529 46.2151 71.0756 46.4131 71.4936C46.6111 71.9116 46.7101 72.4066 46.7101 72.9786C46.7101 73.5433 46.6111 74.0383 46.4131 74.4636C46.2151 74.8816 45.9364 75.2043 45.5771 75.4316C45.2251 75.6589 44.8034 75.7726 44.3121 75.7726C43.8501 75.7726 43.4504 75.6589 43.1131 75.4316C42.7758 75.1969 42.5411 74.8926 42.4091 74.5186H42.5081V77.6536H41.3751ZM44.0261 74.8926C44.4954 74.8926 44.8694 74.7276 45.1481 74.3976C45.4268 74.0603 45.5661 73.5873 45.5661 72.9786C45.5661 72.3553 45.4268 71.8823 45.1481 71.5596C44.8694 71.2369 44.4954 71.0756 44.0261 71.0756C43.5568 71.0756 43.1828 71.2369 42.9041 71.5596C42.6328 71.8823 42.4971 72.3553 42.4971 72.9786C42.4971 73.5873 42.6364 74.0603 42.9151 74.3976C43.1938 74.7276 43.5641 74.8926 44.0261 74.8926ZM47.9148 69.0406V67.8636H49.2348V69.0406H47.9148ZM48.0138 75.6736V70.2836H49.1468V75.6736H48.0138ZM53.1065 75.7726C52.4245 75.7726 51.9148 75.6003 51.5775 75.2556C51.2402 74.9036 51.0715 74.3976 51.0715 73.7376V71.1636H50.0265V70.2836H51.0935V68.6776H52.2045V70.2836H53.9315V71.1636H52.2155V73.6606C52.2155 74.0419 52.2962 74.3316 52.4575 74.5296C52.6262 74.7276 52.8975 74.8266 53.2715 74.8266C53.3962 74.8266 53.5172 74.8119 53.6345 74.7826C53.7518 74.7533 53.8692 74.7203 53.9865 74.6836L54.1625 75.5416C54.0378 75.6149 53.8765 75.6699 53.6785 75.7066C53.4805 75.7506 53.2898 75.7726 53.1065 75.7726ZM54.9747 75.6736V70.2836H56.0637V71.5706H55.9757C56.1004 71.1379 56.3167 70.8079 56.6247 70.5806C56.9327 70.3533 57.3324 70.2213 57.8237 70.1846L58.2307 70.1516L58.3187 71.1416L57.5927 71.2076C57.116 71.2516 56.7494 71.4056 56.4927 71.6696C56.2434 71.9263 56.1187 72.2746 56.1187 72.7146V75.6736H54.9747ZM61.7381 75.7726C61.1441 75.7726 60.6308 75.6626 60.1981 75.4426C59.7655 75.2153 59.4318 74.8926 59.1971 74.4746C58.9698 74.0566 58.8561 73.5616 58.8561 72.9896C58.8561 72.4323 58.9661 71.9446 59.1861 71.5266C59.4135 71.1086 59.7251 70.7823 60.1211 70.5476C60.5245 70.3056 60.9901 70.1846 61.5181 70.1846C62.0241 70.1846 62.4568 70.2946 62.8161 70.5146C63.1755 70.7346 63.4541 71.0463 63.6521 71.4496C63.8501 71.8456 63.9491 72.3223 63.9491 72.8796V73.2536H59.7361V72.5496H63.1681L62.9921 72.7146C62.9921 72.1646 62.8675 71.7429 62.6181 71.4496C62.3688 71.1489 62.0131 70.9986 61.5511 70.9986C61.2065 70.9986 60.9131 71.0756 60.6711 71.2296C60.4365 71.3836 60.2531 71.5999 60.1211 71.8786C59.9965 72.1573 59.9341 72.4909 59.9341 72.8796V72.9566C59.9341 73.3819 60.0038 73.7376 60.1431 74.0236C60.2825 74.3096 60.4878 74.5259 60.7591 74.6726C61.0305 74.8119 61.3641 74.8816 61.7601 74.8816C62.0608 74.8816 62.3615 74.8376 62.6621 74.7496C62.9628 74.6543 63.2451 74.5039 63.5091 74.2986L63.8501 75.0796C63.5935 75.2996 63.2745 75.4719 62.8931 75.5966C62.5118 75.7139 62.1268 75.7726 61.7381 75.7726ZM70.1128 75.7726C69.8415 75.7726 69.5702 75.7396 69.2988 75.6736C69.0275 75.6003 68.7708 75.4976 68.5288 75.3656C68.2868 75.2263 68.0705 75.0613 67.8798 74.8706L68.2868 74.0016C68.5582 74.2729 68.8515 74.4709 69.1668 74.5956C69.4822 74.7203 69.8012 74.7826 70.1238 74.7826C70.4685 74.7826 70.7728 74.7203 71.0368 74.5956C71.3008 74.4709 71.5208 74.2876 71.6968 74.0456C71.8802 73.7963 72.0158 73.4883 72.1038 73.1216C72.1992 72.7476 72.2468 72.3186 72.2468 71.8346V70.9876H72.3238C72.2725 71.3689 72.1478 71.6989 71.9498 71.9776C71.7592 72.2489 71.5135 72.4579 71.2128 72.6046C70.9122 72.7513 70.5785 72.8246 70.2118 72.8246C69.7572 72.8246 69.3538 72.7219 69.0018 72.5166C68.6572 72.3039 68.3822 72.0143 68.1768 71.6476C67.9788 71.2736 67.8798 70.8483 67.8798 70.3716C67.8798 69.8729 67.9862 69.4329 68.1988 69.0516C68.4188 68.6629 68.7158 68.3623 69.0898 68.1496C69.4712 67.9296 69.9038 67.8196 70.3878 67.8196C71.0258 67.8196 71.5612 67.9699 71.9938 68.2706C72.4338 68.5639 72.7675 68.9966 72.9948 69.5686C73.2222 70.1406 73.3358 70.8299 73.3358 71.6366C73.3358 72.5166 73.2075 73.2646 72.9508 73.8806C72.6942 74.4966 72.3275 74.9659 71.8508 75.2886C71.3742 75.6113 70.7948 75.7726 70.1128 75.7726ZM70.4648 71.8896C70.7655 71.8896 71.0258 71.8236 71.2458 71.6916C71.4732 71.5596 71.6492 71.3763 71.7738 71.1416C71.9058 70.9069 71.9718 70.6356 71.9718 70.3276C71.9718 70.0123 71.9095 69.7373 71.7848 69.5026C71.6602 69.2679 71.4842 69.0846 71.2568 68.9526C71.0295 68.8206 70.7655 68.7546 70.4648 68.7546C70.1642 68.7546 69.9002 68.8206 69.6728 68.9526C69.4528 69.0846 69.2768 69.2679 69.1448 69.5026C69.0202 69.7373 68.9578 70.0123 68.9578 70.3276C68.9578 70.6356 69.0202 70.9106 69.1448 71.1526C69.2768 71.3873 69.4528 71.5706 69.6728 71.7026C69.9002 71.8273 70.1642 71.8896 70.4648 71.8896Z" fill="#667085"/>
<defs>
<filter id="filter0_d_8310_1103" x="0" y="2.67358" width="96" height="85.8462" filterUnits="userSpaceOnUse" color-interpolation-filters="sRGB">
<feFlood flood-opacity="0" result="BackgroundImageFix"/>
<feColorMatrix in="SourceAlpha" type="matrix" values="0 0 0 0 0 0 0 0 0 0 0 0 0 0 0 0 0 0 127 0" result="hardAlpha"/>
<feOffset dy="4"/>
<feGaussianBlur stdDeviation="2"/>
<feComposite in2="hardAlpha" operator="out"/>
<feColorMatrix type="matrix" values="0 0 0 0 0 0 0 0 0 0 0 0 0 0 0 0 0 0 0.25 0"/>
<feBlend mode="normal" in2="BackgroundImageFix" result="effect1_dropShadow_8310_1103"/>
<feBlend mode="normal" in="SourceGraphic" in2="effect1_dropShadow_8310_1103" result="shape"/>
</filter>
</defs>
</svg>
