<svg width="96" height="88" viewBox="0 0 96 88" fill="none" xmlns="http://www.w3.org/2000/svg">
<g filter="url(#filter0_d_8310_938)">
<path d="M5.37285 44.5185C4.62083 43.2089 4.24484 42.5536 4.09767 41.8574C3.96744 41.2412 3.96744 40.6048 4.09767 39.9886C4.24484 39.2924 4.62083 38.6371 5.37285 37.3274L23.5901 5.59555C24.3421 4.28569 24.7181 3.63076 25.2442 3.15444C25.7096 2.733 26.2579 2.41461 26.8535 2.22C27.5267 2 28.2787 2 29.7827 2H66.2171C67.7214 2 68.4731 2 69.1466 2.22C69.7419 2.41461 70.2903 2.733 70.756 3.15444C71.282 3.63076 71.6578 4.28569 72.41 5.59555L90.6271 37.3274C91.3792 38.6371 91.7551 39.2924 91.9021 39.9886C92.0326 40.6048 92.0326 41.2412 91.9021 41.8574C91.7551 42.5536 91.3792 43.2089 90.6271 44.5185L72.41 76.2506C71.6578 77.5603 71.282 78.2151 70.756 78.6915C70.2903 79.1131 69.7419 79.4313 69.1466 79.6259C68.4731 79.8462 67.7214 79.8462 66.2171 79.8462H29.7827C28.2787 79.8462 27.5267 79.8462 26.8535 79.6259C26.2579 79.4313 25.7096 79.1131 25.2442 78.6915C24.7181 78.2151 24.3421 77.5603 23.5901 76.2506L5.37285 44.5185Z" fill="white"/>
</g>
<path d="M46.5432 27.1574L36.0476 16.6618C35.1147 15.7288 35.1147 14.2711 36.0476 13.3382L46.5432 2.84253C47.4762 1.90959 48.9339 1.90959 49.8669 2.84253L60.3625 13.3382C61.2954 14.2711 61.2954 15.7288 60.3625 16.6618L49.8669 27.1574C48.9339 28.0903 47.4179 28.0903 46.5432 27.1574Z" fill="#F2BB41"/>
<path d="M46.7765 20.1021C46.7765 19.9272 46.8348 19.7523 46.8931 19.5773C46.9514 19.4024 47.068 19.2858 47.1847 19.1692C47.3013 19.0526 47.4762 18.9359 47.6511 18.8776C47.8261 18.8193 48.001 18.761 48.2342 18.761C48.4675 18.761 48.6424 18.8193 48.8173 18.8776C48.9922 18.9359 49.1672 19.0526 49.2838 19.1692C49.4004 19.2858 49.517 19.4024 49.5753 19.5773C49.6336 19.7523 49.6919 19.9272 49.6919 20.1021C49.6919 20.277 49.6336 20.452 49.5753 20.6269C49.517 20.8018 49.4004 20.9184 49.2838 21.0351C49.1672 21.1517 48.9922 21.2683 48.8173 21.3266C48.6424 21.3849 48.4675 21.4432 48.2342 21.4432C48.001 21.4432 47.8261 21.3849 47.6511 21.3266C47.4762 21.2683 47.3596 21.1517 47.1847 21.0351C47.068 20.9184 46.9514 20.8018 46.8931 20.6269C46.8348 20.452 46.7765 20.3353 46.7765 20.1021ZM49.2255 17.4199H47.1263L46.8348 8.61523H49.517L49.2255 17.4199Z" fill="#E08838"/>
<path d="M24.0524 43V34.54H27.5564C28.1724 34.54 28.6924 34.644 29.1164 34.852C29.5404 35.052 29.8604 35.344 30.0764 35.728C30.3004 36.112 30.4124 36.576 30.4124 37.12C30.4124 37.664 30.3004 38.132 30.0764 38.524C29.8604 38.908 29.5404 39.204 29.1164 39.412C28.6924 39.612 28.1724 39.712 27.5564 39.712H25.3004V43H24.0524ZM25.3004 38.716H27.3764C27.9764 38.716 28.4284 38.584 28.7324 38.32C29.0444 38.048 29.2004 37.648 29.2004 37.12C29.2004 36.6 29.0444 36.208 28.7324 35.944C28.4284 35.672 27.9764 35.536 27.3764 35.536H25.3004V38.716ZM31.5024 43V37.144H32.6784V38.548H32.5584C32.6864 38.068 32.9144 37.704 33.2424 37.456C33.5784 37.208 34.0224 37.064 34.5744 37.024L34.9704 37L35.0544 38.032L34.3224 38.104C33.8024 38.152 33.4064 38.316 33.1344 38.596C32.8624 38.876 32.7264 39.26 32.7264 39.748V43H31.5024ZM35.871 35.788V34.528H37.287V35.788H35.871ZM35.979 43V37.144H37.191V43H35.979ZM41.4409 43.108C40.8489 43.108 40.3369 42.984 39.9049 42.736C39.4809 42.488 39.1489 42.136 38.9089 41.68C38.6689 41.224 38.5489 40.688 38.5489 40.072C38.5489 39.448 38.6689 38.912 38.9089 38.464C39.1489 38.008 39.4809 37.656 39.9049 37.408C40.3369 37.16 40.8489 37.036 41.4409 37.036C42.0249 37.036 42.5289 37.16 42.9529 37.408C43.3849 37.656 43.7209 38.008 43.9609 38.464C44.2009 38.92 44.3209 39.456 44.3209 40.072C44.3209 40.688 44.2009 41.224 43.9609 41.68C43.7209 42.136 43.3849 42.488 42.9529 42.736C42.5289 42.984 42.0249 43.108 41.4409 43.108ZM41.4289 42.172C41.9329 42.172 42.3369 41.992 42.6409 41.632C42.9449 41.272 43.0969 40.752 43.0969 40.072C43.0969 39.384 42.9449 38.864 42.6409 38.512C42.3369 38.16 41.9329 37.984 41.4289 37.984C40.9329 37.984 40.5329 38.16 40.2289 38.512C39.9249 38.864 39.7729 39.384 39.7729 40.072C39.7729 40.752 39.9249 41.272 40.2289 41.632C40.5329 41.992 40.9329 42.172 41.4289 42.172ZM45.6821 43V37.144H46.8581V38.548H46.7381C46.8661 38.068 47.0941 37.704 47.4221 37.456C47.7581 37.208 48.2021 37.064 48.7541 37.024L49.1501 37L49.2341 38.032L48.5021 38.104C47.9821 38.152 47.5861 38.316 47.3141 38.596C47.0421 38.876 46.9061 39.26 46.9061 39.748V43H45.6821ZM50.0506 35.788V34.528H51.4666V35.788H50.0506ZM50.1586 43V37.144H51.3706V43H50.1586ZM55.5726 43.108C54.8446 43.108 54.2966 42.92 53.9286 42.544C53.5686 42.168 53.3886 41.624 53.3886 40.912V38.08H52.2486V37.144H53.3886V35.38H54.6006V37.144H56.4126V38.08H54.6006V40.816C54.6006 41.24 54.6886 41.56 54.8646 41.776C55.0486 41.992 55.3446 42.1 55.7526 42.1C55.8726 42.1 55.9926 42.084 56.1126 42.052C56.2406 42.02 56.3646 41.988 56.4846 41.956L56.6766 42.868C56.5566 42.94 56.3886 42.996 56.1726 43.036C55.9646 43.084 55.7646 43.108 55.5726 43.108ZM60.1488 43.108C59.5088 43.108 58.9568 42.988 58.4928 42.748C58.0368 42.5 57.6808 42.152 57.4248 41.704C57.1768 41.248 57.0528 40.708 57.0528 40.084C57.0528 39.476 57.1768 38.944 57.4248 38.488C57.6728 38.032 58.0128 37.676 58.4448 37.42C58.8768 37.164 59.3688 37.036 59.9208 37.036C60.4648 37.036 60.9288 37.156 61.3128 37.396C61.7048 37.628 62.0048 37.96 62.2128 38.392C62.4208 38.824 62.5248 39.34 62.5248 39.94V40.348H58.0128V39.604H61.7088L61.5048 39.772C61.5048 39.172 61.3728 38.708 61.1088 38.38C60.8448 38.052 60.4648 37.888 59.9688 37.888C59.5928 37.888 59.2728 37.976 59.0088 38.152C58.7528 38.328 58.5568 38.572 58.4208 38.884C58.2848 39.196 58.2168 39.56 58.2168 39.976V40.048C58.2168 40.512 58.2888 40.904 58.4328 41.224C58.5848 41.536 58.8048 41.772 59.0928 41.932C59.3808 42.092 59.7368 42.172 60.1608 42.172C60.4968 42.172 60.8248 42.12 61.1448 42.016C61.4728 41.904 61.7808 41.732 62.0688 41.5L62.4288 42.34C62.1648 42.58 61.8248 42.768 61.4088 42.904C60.9928 43.04 60.5728 43.108 60.1488 43.108ZM59.5128 36.364L60.7488 33.94H61.9848L60.3528 36.364H59.5128ZM67.1665 43V42.076L69.9865 39.052C70.2505 38.764 70.4625 38.5 70.6225 38.26C70.7825 38.012 70.8985 37.776 70.9705 37.552C71.0505 37.32 71.0905 37.088 71.0905 36.856C71.0905 36.408 70.9545 36.068 70.6825 35.836C70.4105 35.604 70.0105 35.488 69.4825 35.488C69.0745 35.488 68.6865 35.564 68.3185 35.716C67.9585 35.868 67.6145 36.1 67.2865 36.412L66.8425 35.464C67.1625 35.152 67.5705 34.904 68.0665 34.72C68.5625 34.528 69.0785 34.432 69.6145 34.432C70.1985 34.432 70.6905 34.524 71.0905 34.708C71.4985 34.884 71.8065 35.144 72.0145 35.488C72.2225 35.832 72.3265 36.252 72.3265 36.748C72.3265 37.004 72.2945 37.256 72.2305 37.504C72.1745 37.744 72.0825 37.984 71.9545 38.224C71.8345 38.464 71.6785 38.712 71.4865 38.968C71.3025 39.224 71.0785 39.488 70.8145 39.76L68.4025 42.304V41.956H72.6625V43H67.1665Z" fill="black"/>
<path d="M25.8627 59.11C25.0854 59.11 24.418 58.9487 23.8607 58.626C23.3034 58.296 22.8744 57.834 22.5737 57.24C22.273 56.646 22.1227 55.9383 22.1227 55.117C22.1227 54.2957 22.273 53.5917 22.5737 53.005C22.8744 52.411 23.3034 51.9527 23.8607 51.63C24.418 51.3073 25.0854 51.146 25.8627 51.146C26.3907 51.146 26.882 51.2267 27.3367 51.388C27.7987 51.5493 28.1837 51.7877 28.4917 52.103L28.0847 53.016C27.7474 52.7227 27.4027 52.51 27.0507 52.378C26.6987 52.246 26.3137 52.18 25.8957 52.18C25.0744 52.18 24.4437 52.433 24.0037 52.939C23.5637 53.445 23.3437 54.171 23.3437 55.117C23.3437 56.063 23.5637 56.7927 24.0037 57.306C24.4437 57.812 25.0744 58.065 25.8957 58.065C26.3137 58.065 26.6987 57.999 27.0507 57.867C27.4027 57.735 27.7474 57.5223 28.0847 57.229L28.4917 58.142C28.1837 58.45 27.7987 58.6883 27.3367 58.857C26.882 59.0257 26.3907 59.11 25.8627 59.11ZM29.7852 59V51.245H30.9072V54.743H30.7972C30.9586 54.347 31.2116 54.0427 31.5562 53.83C31.9009 53.6173 32.2932 53.511 32.7332 53.511C33.1732 53.511 33.5326 53.5917 33.8112 53.753C34.0972 53.907 34.3099 54.1453 34.4492 54.468C34.5959 54.7907 34.6692 55.1977 34.6692 55.689V59H33.5362V55.755C33.5362 55.4543 33.4959 55.2087 33.4152 55.018C33.3419 54.82 33.2209 54.6733 33.0522 54.578C32.8909 54.4753 32.6819 54.424 32.4252 54.424C32.1246 54.424 31.8606 54.49 31.6332 54.622C31.4059 54.754 31.2299 54.9373 31.1052 55.172C30.9806 55.3993 30.9182 55.6633 30.9182 55.964V59H29.7852ZM38.0335 59.099C37.6522 59.099 37.3112 59.0257 37.0105 58.879C36.7099 58.7323 36.4715 58.5343 36.2955 58.285C36.1269 58.0283 36.0425 57.746 36.0425 57.438C36.0425 57.0347 36.1452 56.7193 36.3505 56.492C36.5632 56.2573 36.9042 56.0887 37.3735 55.986C37.8502 55.8833 38.4809 55.832 39.2655 55.832H39.8485V56.536H39.2875C38.8915 56.536 38.5579 56.5507 38.2865 56.58C38.0152 56.602 37.7952 56.646 37.6265 56.712C37.4652 56.7707 37.3479 56.855 37.2745 56.965C37.2012 57.075 37.1645 57.2107 37.1645 57.372C37.1645 57.6433 37.2599 57.8633 37.4505 58.032C37.6485 58.2007 37.9162 58.285 38.2535 58.285C38.5322 58.285 38.7779 58.219 38.9905 58.087C39.2032 57.955 39.3719 57.779 39.4965 57.559C39.6212 57.339 39.6835 57.086 39.6835 56.8V55.546C39.6835 55.1353 39.5882 54.842 39.3975 54.666C39.2142 54.4827 38.9135 54.391 38.4955 54.391C38.1875 54.391 37.8759 54.4387 37.5605 54.534C37.2525 54.622 36.9372 54.765 36.6145 54.963L36.2625 54.16C36.4679 54.028 36.6952 53.9143 36.9445 53.819C37.2012 53.7163 37.4689 53.6393 37.7475 53.588C38.0262 53.5367 38.2975 53.511 38.5615 53.511C39.0529 53.511 39.4599 53.588 39.7825 53.742C40.1125 53.896 40.3619 54.1307 40.5305 54.446C40.6992 54.7613 40.7835 55.1683 40.7835 55.667V59H39.7385V57.812H39.8045C39.7385 58.0687 39.6212 58.296 39.4525 58.494C39.2912 58.6847 39.0895 58.835 38.8475 58.945C38.6129 59.0477 38.3415 59.099 38.0335 59.099ZM42.3751 60.98V53.61H43.4641V54.809H43.3871C43.5118 54.4057 43.7464 54.0903 44.0911 53.863C44.4358 53.6283 44.8428 53.511 45.3121 53.511C45.7961 53.511 46.2178 53.6247 46.5771 53.852C46.9364 54.0793 47.2151 54.402 47.4131 54.82C47.6111 55.238 47.7101 55.733 47.7101 56.305C47.7101 56.8697 47.6111 57.3647 47.4131 57.79C47.2151 58.208 46.9364 58.5307 46.5771 58.758C46.2251 58.9853 45.8034 59.099 45.3121 59.099C44.8501 59.099 44.4504 58.9853 44.1131 58.758C43.7758 58.5233 43.5411 58.219 43.4091 57.845H43.5081V60.98H42.3751ZM45.0261 58.219C45.4954 58.219 45.8694 58.054 46.1481 57.724C46.4268 57.3867 46.5661 56.9137 46.5661 56.305C46.5661 55.6817 46.4268 55.2087 46.1481 54.886C45.8694 54.5633 45.4954 54.402 45.0261 54.402C44.5568 54.402 44.1828 54.5633 43.9041 54.886C43.6328 55.2087 43.4971 55.6817 43.4971 56.305C43.4971 56.9137 43.6364 57.3867 43.9151 57.724C44.1938 58.054 44.5641 58.219 45.0261 58.219ZM48.9148 52.367V51.19H50.2348V52.367H48.9148ZM49.0138 59V53.61H50.1468V59H49.0138ZM54.1065 59.099C53.4245 59.099 52.9148 58.9267 52.5775 58.582C52.2402 58.23 52.0715 57.724 52.0715 57.064V54.49H51.0265V53.61H52.0935V52.004H53.2045V53.61H54.9315V54.49H53.2155V56.987C53.2155 57.3683 53.2962 57.658 53.4575 57.856C53.6262 58.054 53.8975 58.153 54.2715 58.153C54.3962 58.153 54.5172 58.1383 54.6345 58.109C54.7518 58.0797 54.8692 58.0467 54.9865 58.01L55.1625 58.868C55.0378 58.9413 54.8765 58.9963 54.6785 59.033C54.4805 59.077 54.2898 59.099 54.1065 59.099ZM55.9747 59V53.61H57.0637V54.897H56.9757C57.1004 54.4643 57.3167 54.1343 57.6247 53.907C57.9327 53.6797 58.3324 53.5477 58.8237 53.511L59.2307 53.478L59.3187 54.468L58.5927 54.534C58.116 54.578 57.7494 54.732 57.4927 54.996C57.2434 55.2527 57.1187 55.601 57.1187 56.041V59H55.9747ZM62.7381 59.099C62.1441 59.099 61.6308 58.989 61.1981 58.769C60.7655 58.5417 60.4318 58.219 60.1971 57.801C59.9698 57.383 59.8561 56.888 59.8561 56.316C59.8561 55.7587 59.9661 55.271 60.1861 54.853C60.4135 54.435 60.7251 54.1087 61.1211 53.874C61.5245 53.632 61.9901 53.511 62.5181 53.511C63.0241 53.511 63.4568 53.621 63.8161 53.841C64.1755 54.061 64.4541 54.3727 64.6521 54.776C64.8501 55.172 64.9491 55.6487 64.9491 56.206V56.58H60.7361V55.876H64.1681L63.9921 56.041C63.9921 55.491 63.8675 55.0693 63.6181 54.776C63.3688 54.4753 63.0131 54.325 62.5511 54.325C62.2065 54.325 61.9131 54.402 61.6711 54.556C61.4365 54.71 61.2531 54.9263 61.1211 55.205C60.9965 55.4837 60.9341 55.8173 60.9341 56.206V56.283C60.9341 56.7083 61.0038 57.064 61.1431 57.35C61.2825 57.636 61.4878 57.8523 61.7591 57.999C62.0305 58.1383 62.3641 58.208 62.7601 58.208C63.0608 58.208 63.3615 58.164 63.6621 58.076C63.9628 57.9807 64.2451 57.8303 64.5091 57.625L64.8501 58.406C64.5935 58.626 64.2745 58.7983 63.8931 58.923C63.5118 59.0403 63.1268 59.099 62.7381 59.099ZM71.9378 59.099C71.3145 59.099 70.7828 58.9487 70.3428 58.648C69.9028 58.3473 69.5655 57.9147 69.3308 57.35C69.1035 56.778 68.9898 56.0887 68.9898 55.282C68.9898 54.3947 69.1182 53.6467 69.3748 53.038C69.6315 52.422 70.0018 51.9527 70.4858 51.63C70.9698 51.3073 71.5492 51.146 72.2238 51.146C72.4952 51.146 72.7665 51.1827 73.0378 51.256C73.3092 51.322 73.5658 51.4247 73.8078 51.564C74.0498 51.696 74.2625 51.8573 74.4458 52.048L74.0498 52.917C73.7785 52.6457 73.4852 52.4477 73.1698 52.323C72.8545 52.1983 72.5318 52.136 72.2018 52.136C71.8645 52.136 71.5638 52.1983 71.2998 52.323C71.0358 52.4477 70.8122 52.6347 70.6288 52.884C70.4528 53.126 70.3172 53.4303 70.2218 53.797C70.1265 54.1637 70.0788 54.5927 70.0788 55.084V55.931H70.0018C70.0605 55.5423 70.1852 55.2123 70.3758 54.941C70.5665 54.6623 70.8122 54.4497 71.1128 54.303C71.4208 54.1563 71.7545 54.083 72.1138 54.083C72.5758 54.083 72.9792 54.1893 73.3238 54.402C73.6758 54.6073 73.9508 54.897 74.1488 55.271C74.3468 55.645 74.4458 56.0703 74.4458 56.547C74.4458 57.0383 74.3395 57.4783 74.1268 57.867C73.9142 58.2557 73.6172 58.56 73.2358 58.78C72.8618 58.9927 72.4292 59.099 71.9378 59.099ZM71.8718 58.164C72.1725 58.164 72.4328 58.098 72.6528 57.966C72.8802 57.834 73.0562 57.6507 73.1808 57.416C73.3055 57.174 73.3678 56.899 73.3678 56.591C73.3678 56.2757 73.3055 56.0007 73.1808 55.766C73.0562 55.5313 72.8802 55.348 72.6528 55.216C72.4328 55.084 72.1725 55.018 71.8718 55.018C71.5712 55.018 71.3072 55.084 71.0798 55.216C70.8598 55.348 70.6838 55.5313 70.5518 55.766C70.4272 56.0007 70.3648 56.2757 70.3648 56.591C70.3648 56.899 70.4272 57.174 70.5518 57.416C70.6838 57.6507 70.8598 57.834 71.0798 57.966C71.3072 58.098 71.5712 58.164 71.8718 58.164Z" fill="#667085"/>
<defs>
<filter id="filter0_d_8310_938" x="0" y="2" width="96" height="85.8462" filterUnits="userSpaceOnUse" color-interpolation-filters="sRGB">
<feFlood flood-opacity="0" result="BackgroundImageFix"/>
<feColorMatrix in="SourceAlpha" type="matrix" values="0 0 0 0 0 0 0 0 0 0 0 0 0 0 0 0 0 0 127 0" result="hardAlpha"/>
<feOffset dy="4"/>
<feGaussianBlur stdDeviation="2"/>
<feComposite in2="hardAlpha" operator="out"/>
<feColorMatrix type="matrix" values="0 0 0 0 0 0 0 0 0 0 0 0 0 0 0 0 0 0 0.25 0"/>
<feBlend mode="normal" in2="BackgroundImageFix" result="effect1_dropShadow_8310_938"/>
<feBlend mode="normal" in="SourceGraphic" in2="effect1_dropShadow_8310_938" result="shape"/>
</filter>
</defs>
</svg>
