<svg width="102" height="92" viewBox="0 0 102 92" fill="none" xmlns="http://www.w3.org/2000/svg">
<g filter="url(#filter0_d_8310_900)">
<path d="M5.49766 45.8797C4.67727 44.4665 4.2671 43.7594 4.10655 43.0082C3.96448 42.3433 3.96448 41.6565 4.10655 40.9916C4.2671 40.2404 4.67727 39.5333 5.49766 38.1201L25.371 3.87978C26.1914 2.46638 26.6016 1.75968 27.1754 1.2457C27.6832 0.790942 28.2813 0.447387 28.9311 0.237394C29.6655 -2.168e-07 30.4859 0 32.1266 0H71.8732C73.5143 0 74.3343 -2.168e-07 75.069 0.237394C75.7185 0.447387 76.3167 0.790942 76.8247 1.2457C77.3985 1.75968 77.8085 2.46638 78.6291 3.87978L98.5023 38.1201C99.3228 39.5333 99.7328 40.2404 99.8932 40.9916C100.036 41.6565 100.036 42.3433 99.8932 43.0082C99.7328 43.7594 99.3228 44.4665 98.5023 45.8797L78.6291 80.1202C77.8085 81.5334 77.3985 82.24 76.8247 82.7541C76.3167 83.209 75.7185 83.5524 75.069 83.7624C74.3343 84 73.5143 84 71.8732 84H32.1266C30.4859 84 29.6655 84 28.9311 83.7624C28.2813 83.5524 27.6832 83.209 27.1754 82.7541C26.6016 82.24 26.1914 81.5334 25.371 80.1202L5.49766 45.8797Z" fill="white"/>
</g>
<g clip-path="url(#clip0_8310_900)">
<path d="M56.2525 27.7959L56.5876 27.1493C56.694 26.9416 56.7931 26.7375 56.8862 26.5293C57.0689 26.1147 57.2182 25.6937 57.3123 25.2777C57.5036 24.438 57.404 23.6678 56.8935 23.0975C56.3831 22.5157 55.5402 22.1253 54.669 21.8532C52.8142 21.3194 50.9176 20.7254 49.0825 20.0287C48.6218 19.8538 48.1634 19.6721 47.7067 19.4785C47.257 19.2895 46.7694 19.0685 46.3232 18.7694C45.8822 18.4712 45.4197 18.074 45.1809 17.4649C45.0626 17.1654 45.0315 16.8266 45.0713 16.5188C45.1115 16.2102 45.2119 15.9293 45.3366 15.6791C45.596 15.1663 45.9142 14.7965 46.2009 14.3997L47.0936 13.2354L48.8977 10.9313L51.9692 7.06715L49.6277 7C49.6277 7 44.2941 11.9048 41.9134 15.0001C39.8436 17.6904 40.9741 20.0675 44.7183 21.6664C47.8784 23.0166 50.8363 24.0617 50.8363 24.0617C51.3459 24.3256 51.7084 24.7882 51.8289 25.3279C51.9495 25.8681 51.8162 26.4302 51.4632 26.8689L43.3156 37H51.4445L54.9019 30.3866L56.2525 27.7959Z" fill="#F2BB41"/>
<path d="M64.0727 22.2944C62.938 20.3963 60.9957 19.0576 58.7455 18.6224L50.7737 16.9417C50.4413 16.8778 50.1619 16.6668 50.0208 16.3737C49.8797 16.081 49.8948 15.7417 50.0605 15.4609L55.3599 7.16403L52.7787 7.09009L49.5154 11.4068L47.7721 13.7482L46.9151 14.9249C46.6393 15.3208 46.3352 15.7121 46.1676 16.0783C45.9891 16.4568 45.9443 16.8175 46.0731 17.117C46.1973 17.4239 46.5009 17.7092 46.8671 17.9385C47.2379 18.1732 47.6457 18.3498 48.0977 18.527C48.5424 18.7028 48.9936 18.8695 49.4479 19.0293C51.2734 19.6708 53.1121 20.1986 55.0143 20.6968C55.9896 20.9872 57.022 21.3762 57.8443 22.2438C58.2452 22.678 58.5443 23.2483 58.6579 23.8386C58.7748 24.4295 58.7365 25.0112 58.6342 25.5491C58.5265 26.0865 58.358 26.5915 58.1603 27.0727C58.0603 27.312 57.9525 27.549 57.842 27.7773L57.5206 28.4361L56.2325 31.0611L53.3097 37.0001H61.5495L64.6662 28.5247C65.4238 26.4636 65.2073 24.1924 64.0727 22.2944Z" fill="#F2BB41"/>
</g>
<path d="M22.8063 53V44.54H25.7943C26.7223 44.54 27.5103 44.704 28.1583 45.032C28.8063 45.352 29.2983 45.828 29.6343 46.46C29.9783 47.084 30.1503 47.852 30.1503 48.764C30.1503 49.676 29.9783 50.448 29.6343 51.08C29.2983 51.704 28.8063 52.18 28.1583 52.508C27.5103 52.836 26.7223 53 25.7943 53H22.8063ZM24.0543 51.956H25.7223C26.7703 51.956 27.5543 51.692 28.0743 51.164C28.5943 50.628 28.8543 49.828 28.8543 48.764C28.8543 47.7 28.5903 46.904 28.0623 46.376C27.5423 45.848 26.7623 45.584 25.7223 45.584H24.0543V51.956ZM33.558 53.108C33.15 53.108 32.782 53.028 32.454 52.868C32.134 52.708 31.882 52.492 31.698 52.22C31.514 51.948 31.422 51.64 31.422 51.296C31.422 50.864 31.53 50.524 31.746 50.276C31.97 50.02 32.334 49.84 32.838 49.736C33.35 49.624 34.038 49.568 34.902 49.568H35.466V50.312H34.914C34.482 50.312 34.118 50.328 33.822 50.36C33.526 50.392 33.29 50.444 33.114 50.516C32.938 50.58 32.81 50.672 32.73 50.792C32.658 50.912 32.622 51.056 32.622 51.224C32.622 51.528 32.726 51.776 32.934 51.968C33.142 52.152 33.43 52.244 33.798 52.244C34.094 52.244 34.354 52.176 34.578 52.04C34.802 51.896 34.978 51.704 35.106 51.464C35.242 51.224 35.31 50.948 35.31 50.636V49.256C35.31 48.8 35.214 48.472 35.022 48.272C34.83 48.072 34.514 47.972 34.074 47.972C33.738 47.972 33.402 48.024 33.066 48.128C32.73 48.224 32.386 48.38 32.034 48.596L31.662 47.744C31.87 47.6 32.11 47.476 32.382 47.372C32.654 47.268 32.938 47.188 33.234 47.132C33.538 47.068 33.83 47.036 34.11 47.036C34.646 47.036 35.086 47.12 35.43 47.288C35.782 47.456 36.042 47.712 36.21 48.056C36.378 48.4 36.462 48.844 36.462 49.388V53H35.322V51.692H35.43C35.366 51.988 35.246 52.244 35.07 52.46C34.902 52.668 34.69 52.828 34.434 52.94C34.178 53.052 33.886 53.108 33.558 53.108ZM38.1313 53V47.144H39.3073V48.392H39.1753C39.3513 47.944 39.6273 47.608 40.0033 47.384C40.3793 47.152 40.8113 47.036 41.2993 47.036C41.7633 47.036 42.1473 47.124 42.4513 47.3C42.7633 47.468 42.9953 47.728 43.1473 48.08C43.2993 48.424 43.3753 48.86 43.3753 49.388V53H42.1633V49.46C42.1633 49.124 42.1193 48.852 42.0313 48.644C41.9433 48.428 41.8113 48.268 41.6353 48.164C41.4593 48.06 41.2313 48.008 40.9513 48.008C40.6313 48.008 40.3473 48.076 40.0993 48.212C39.8593 48.348 39.6713 48.544 39.5353 48.8C39.4073 49.056 39.3433 49.352 39.3433 49.688V53H38.1313ZM47.0974 53.108C46.7854 53.108 46.4814 53.08 46.1854 53.024C45.8894 52.968 45.6174 52.888 45.3694 52.784C45.1214 52.68 44.9014 52.552 44.7094 52.4L45.0574 51.584C45.2574 51.72 45.4694 51.84 45.6934 51.944C45.9174 52.04 46.1494 52.112 46.3894 52.16C46.6374 52.208 46.8774 52.232 47.1094 52.232C47.5334 52.232 47.8534 52.156 48.0694 52.004C48.2854 51.852 48.3934 51.648 48.3934 51.392C48.3934 51.184 48.3214 51.024 48.1774 50.912C48.0334 50.792 47.8174 50.7 47.5294 50.636L46.3894 50.408C45.8934 50.304 45.5174 50.12 45.2614 49.856C45.0054 49.592 44.8774 49.256 44.8774 48.848C44.8774 48.48 44.9774 48.16 45.1774 47.888C45.3774 47.616 45.6574 47.408 46.0174 47.264C46.3774 47.112 46.7934 47.036 47.2654 47.036C47.5374 47.036 47.8014 47.064 48.0574 47.12C48.3134 47.176 48.5534 47.256 48.7774 47.36C49.0094 47.464 49.2054 47.596 49.3654 47.756L49.0174 48.572C48.8654 48.436 48.6894 48.32 48.4894 48.224C48.2974 48.128 48.0974 48.056 47.8894 48.008C47.6814 47.952 47.4734 47.924 47.2654 47.924C46.8414 47.924 46.5214 48.004 46.3054 48.164C46.0974 48.316 45.9934 48.524 45.9934 48.788C45.9934 48.988 46.0574 49.152 46.1854 49.28C46.3134 49.408 46.5134 49.5 46.7854 49.556L47.9254 49.784C48.4454 49.888 48.8374 50.064 49.1014 50.312C49.3734 50.56 49.5094 50.896 49.5094 51.32C49.5094 51.688 49.4094 52.008 49.2094 52.28C49.0094 52.552 48.7254 52.76 48.3574 52.904C47.9974 53.04 47.5774 53.108 47.0974 53.108ZM55.9182 53.108C55.2782 53.108 54.7982 52.928 54.4782 52.568C54.1662 52.2 54.0102 51.672 54.0102 50.984V44.54H55.2222V50.912C55.2222 51.168 55.2582 51.388 55.3302 51.572C55.4022 51.748 55.5102 51.88 55.6542 51.968C55.7982 52.056 55.9782 52.1 56.1942 52.1C56.2902 52.1 56.3822 52.096 56.4702 52.088C56.5582 52.08 56.6422 52.064 56.7222 52.04L56.6982 53.012C56.5622 53.044 56.4302 53.068 56.3022 53.084C56.1742 53.1 56.0462 53.108 55.9182 53.108ZM59.5502 53.108C59.1422 53.108 58.7742 53.028 58.4462 52.868C58.1262 52.708 57.8742 52.492 57.6902 52.22C57.5062 51.948 57.4142 51.64 57.4142 51.296C57.4142 50.864 57.5222 50.524 57.7382 50.276C57.9622 50.02 58.3262 49.84 58.8302 49.736C59.3422 49.624 60.0302 49.568 60.8942 49.568H61.4582V50.312H60.9062C60.4742 50.312 60.1102 50.328 59.8142 50.36C59.5182 50.392 59.2822 50.444 59.1062 50.516C58.9302 50.58 58.8022 50.672 58.7222 50.792C58.6502 50.912 58.6142 51.056 58.6142 51.224C58.6142 51.528 58.7182 51.776 58.9262 51.968C59.1342 52.152 59.4222 52.244 59.7902 52.244C60.0862 52.244 60.3462 52.176 60.5702 52.04C60.7942 51.896 60.9702 51.704 61.0982 51.464C61.2342 51.224 61.3022 50.948 61.3022 50.636V49.256C61.3022 48.8 61.2062 48.472 61.0142 48.272C60.8222 48.072 60.5062 47.972 60.0662 47.972C59.7302 47.972 59.3942 48.024 59.0582 48.128C58.7222 48.224 58.3782 48.38 58.0262 48.596L57.6542 47.744C57.8622 47.6 58.1022 47.476 58.3742 47.372C58.6462 47.268 58.9302 47.188 59.2262 47.132C59.5302 47.068 59.8222 47.036 60.1022 47.036C60.6382 47.036 61.0782 47.12 61.4222 47.288C61.7742 47.456 62.0342 47.712 62.2022 48.056C62.3702 48.4 62.4542 48.844 62.4542 49.388V53H61.3142V51.692H61.4222C61.3582 51.988 61.2382 52.244 61.0622 52.46C60.8942 52.668 60.6822 52.828 60.4262 52.94C60.1702 53.052 59.8782 53.108 59.5502 53.108ZM67.2758 53V47.144H68.4518V48.548H68.3318C68.4598 48.068 68.6878 47.704 69.0158 47.456C69.3518 47.208 69.7958 47.064 70.3478 47.024L70.7438 47L70.8278 48.032L70.0958 48.104C69.5758 48.152 69.1798 48.316 68.9078 48.596C68.6358 48.876 68.4998 49.26 68.4998 49.748V53H67.2758ZM73.8404 53.108C73.3684 53.108 72.9724 53.02 72.6524 52.844C72.3404 52.668 72.1044 52.408 71.9444 52.064C71.7924 51.712 71.7164 51.272 71.7164 50.744V47.144H72.9284V50.756C72.9284 51.068 72.9684 51.328 73.0484 51.536C73.1364 51.744 73.2684 51.896 73.4444 51.992C73.6284 52.088 73.8564 52.136 74.1284 52.136C74.4324 52.136 74.7004 52.068 74.9324 51.932C75.1644 51.796 75.3444 51.6 75.4724 51.344C75.6004 51.088 75.6644 50.792 75.6644 50.456V47.144H76.8764V53H75.7004V51.716H75.8564C75.6964 52.164 75.4404 52.508 75.0884 52.748C74.7364 52.988 74.3204 53.108 73.8404 53.108ZM81.3324 53.108C80.6924 53.108 80.1404 52.988 79.6764 52.748C79.2204 52.5 78.8644 52.152 78.6084 51.704C78.3604 51.248 78.2364 50.708 78.2364 50.084C78.2364 49.476 78.3604 48.944 78.6084 48.488C78.8564 48.032 79.1964 47.676 79.6284 47.42C80.0604 47.164 80.5524 47.036 81.1044 47.036C81.6484 47.036 82.1124 47.156 82.4964 47.396C82.8884 47.628 83.1884 47.96 83.3964 48.392C83.6044 48.824 83.7084 49.34 83.7084 49.94V50.348H79.1964V49.604H82.8924L82.6884 49.772C82.6884 49.172 82.5564 48.708 82.2924 48.38C82.0284 48.052 81.6484 47.888 81.1524 47.888C80.7764 47.888 80.4564 47.976 80.1924 48.152C79.9364 48.328 79.7404 48.572 79.6044 48.884C79.4684 49.196 79.4004 49.56 79.4004 49.976V50.048C79.4004 50.512 79.4724 50.904 79.6164 51.224C79.7684 51.536 79.9884 51.772 80.2764 51.932C80.5644 52.092 80.9204 52.172 81.3444 52.172C81.6804 52.172 82.0084 52.12 82.3284 52.016C82.6564 51.904 82.9644 51.732 83.2524 51.5L83.6124 52.34C83.3484 52.58 83.0084 52.768 82.5924 52.904C82.1764 53.04 81.7564 53.108 81.3324 53.108Z" fill="black"/>
<path d="M30.6576 69.11C29.8802 69.11 29.2129 68.9487 28.6556 68.626C28.0982 68.296 27.6692 67.834 27.3686 67.24C27.0679 66.646 26.9176 65.9383 26.9176 65.117C26.9176 64.2957 27.0679 63.5917 27.3686 63.005C27.6692 62.411 28.0982 61.9527 28.6556 61.63C29.2129 61.3073 29.8802 61.146 30.6576 61.146C31.1856 61.146 31.6769 61.2267 32.1316 61.388C32.5936 61.5493 32.9786 61.7877 33.2866 62.103L32.8796 63.016C32.5422 62.7227 32.1976 62.51 31.8456 62.378C31.4936 62.246 31.1086 62.18 30.6906 62.18C29.8692 62.18 29.2386 62.433 28.7986 62.939C28.3586 63.445 28.1386 64.171 28.1386 65.117C28.1386 66.063 28.3586 66.7927 28.7986 67.306C29.2386 67.812 29.8692 68.065 30.6906 68.065C31.1086 68.065 31.4936 67.999 31.8456 67.867C32.1976 67.735 32.5422 67.5223 32.8796 67.229L33.2866 68.142C32.9786 68.45 32.5936 68.6883 32.1316 68.857C31.6769 69.0257 31.1856 69.11 30.6576 69.11ZM34.5801 69V61.245H35.7021V64.743H35.5921C35.7534 64.347 36.0064 64.0427 36.3511 63.83C36.6958 63.6173 37.0881 63.511 37.5281 63.511C37.9681 63.511 38.3274 63.5917 38.6061 63.753C38.8921 63.907 39.1048 64.1453 39.2441 64.468C39.3908 64.7907 39.4641 65.1977 39.4641 65.689V69H38.3311V65.755C38.3311 65.4543 38.2908 65.2087 38.2101 65.018C38.1368 64.82 38.0158 64.6733 37.8471 64.578C37.6858 64.4753 37.4768 64.424 37.2201 64.424C36.9194 64.424 36.6554 64.49 36.4281 64.622C36.2008 64.754 36.0248 64.9373 35.9001 65.172C35.7754 65.3993 35.7131 65.6633 35.7131 65.964V69H34.5801ZM42.8284 69.099C42.4471 69.099 42.1061 69.0257 41.8054 68.879C41.5047 68.7323 41.2664 68.5343 41.0904 68.285C40.9217 68.0283 40.8374 67.746 40.8374 67.438C40.8374 67.0347 40.9401 66.7193 41.1454 66.492C41.3581 66.2573 41.6991 66.0887 42.1684 65.986C42.6451 65.8833 43.2757 65.832 44.0604 65.832H44.6434V66.536H44.0824C43.6864 66.536 43.3527 66.5507 43.0814 66.58C42.8101 66.602 42.5901 66.646 42.4214 66.712C42.2601 66.7707 42.1427 66.855 42.0694 66.965C41.9961 67.075 41.9594 67.2107 41.9594 67.372C41.9594 67.6433 42.0547 67.8633 42.2454 68.032C42.4434 68.2007 42.7111 68.285 43.0484 68.285C43.3271 68.285 43.5727 68.219 43.7854 68.087C43.9981 67.955 44.1667 67.779 44.2914 67.559C44.4161 67.339 44.4784 67.086 44.4784 66.8V65.546C44.4784 65.1353 44.3831 64.842 44.1924 64.666C44.0091 64.4827 43.7084 64.391 43.2904 64.391C42.9824 64.391 42.6707 64.4387 42.3554 64.534C42.0474 64.622 41.7321 64.765 41.4094 64.963L41.0574 64.16C41.2627 64.028 41.4901 63.9143 41.7394 63.819C41.9961 63.7163 42.2637 63.6393 42.5424 63.588C42.8211 63.5367 43.0924 63.511 43.3564 63.511C43.8477 63.511 44.2547 63.588 44.5774 63.742C44.9074 63.896 45.1567 64.1307 45.3254 64.446C45.4941 64.7613 45.5784 65.1683 45.5784 65.667V69H44.5334V67.812H44.5994C44.5334 68.0687 44.4161 68.296 44.2474 68.494C44.0861 68.6847 43.8844 68.835 43.6424 68.945C43.4077 69.0477 43.1364 69.099 42.8284 69.099ZM47.17 70.98V63.61H48.259V64.809H48.182C48.3066 64.4057 48.5413 64.0903 48.886 63.863C49.2306 63.6283 49.6376 63.511 50.107 63.511C50.591 63.511 51.0126 63.6247 51.372 63.852C51.7313 64.0793 52.01 64.402 52.208 64.82C52.406 65.238 52.505 65.733 52.505 66.305C52.505 66.8697 52.406 67.3647 52.208 67.79C52.01 68.208 51.7313 68.5307 51.372 68.758C51.02 68.9853 50.5983 69.099 50.107 69.099C49.645 69.099 49.2453 68.9853 48.908 68.758C48.5706 68.5233 48.336 68.219 48.204 67.845H48.303V70.98H47.17ZM49.821 68.219C50.2903 68.219 50.6643 68.054 50.943 67.724C51.2216 67.3867 51.361 66.9137 51.361 66.305C51.361 65.6817 51.2216 65.2087 50.943 64.886C50.6643 64.5633 50.2903 64.402 49.821 64.402C49.3516 64.402 48.9776 64.5633 48.699 64.886C48.4276 65.2087 48.292 65.6817 48.292 66.305C48.292 66.9137 48.4313 67.3867 48.71 67.724C48.9886 68.054 49.359 68.219 49.821 68.219ZM53.7096 62.367V61.19H55.0296V62.367H53.7096ZM53.8086 69V63.61H54.9416V69H53.8086ZM58.9014 69.099C58.2194 69.099 57.7097 68.9267 57.3724 68.582C57.035 68.23 56.8664 67.724 56.8664 67.064V64.49H55.8214V63.61H56.8884V62.004H57.9994V63.61H59.7264V64.49H58.0104V66.987C58.0104 67.3683 58.091 67.658 58.2524 67.856C58.421 68.054 58.6924 68.153 59.0664 68.153C59.191 68.153 59.312 68.1383 59.4294 68.109C59.5467 68.0797 59.664 68.0467 59.7814 68.01L59.9574 68.868C59.8327 68.9413 59.6714 68.9963 59.4734 69.033C59.2754 69.077 59.0847 69.099 58.9014 69.099ZM60.7696 69V63.61H61.8586V64.897H61.7706C61.8952 64.4643 62.1116 64.1343 62.4196 63.907C62.7276 63.6797 63.1272 63.5477 63.6186 63.511L64.0256 63.478L64.1136 64.468L63.3876 64.534C62.9109 64.578 62.5442 64.732 62.2876 64.996C62.0382 65.2527 61.9136 65.601 61.9136 66.041V69H60.7696ZM67.533 69.099C66.939 69.099 66.4257 68.989 65.993 68.769C65.5604 68.5417 65.2267 68.219 64.992 67.801C64.7647 67.383 64.651 66.888 64.651 66.316C64.651 65.7587 64.761 65.271 64.981 64.853C65.2084 64.435 65.52 64.1087 65.916 63.874C66.3194 63.632 66.785 63.511 67.313 63.511C67.819 63.511 68.2517 63.621 68.611 63.841C68.9704 64.061 69.249 64.3727 69.447 64.776C69.645 65.172 69.744 65.6487 69.744 66.206V66.58H65.531V65.876H68.963L68.787 66.041C68.787 65.491 68.6624 65.0693 68.413 64.776C68.1637 64.4753 67.808 64.325 67.346 64.325C67.0014 64.325 66.708 64.402 66.466 64.556C66.2314 64.71 66.048 64.9263 65.916 65.205C65.7914 65.4837 65.729 65.8173 65.729 66.206V66.283C65.729 66.7083 65.7987 67.064 65.938 67.35C66.0774 67.636 66.2827 67.8523 66.554 67.999C66.8254 68.1383 67.159 68.208 67.555 68.208C67.8557 68.208 68.1564 68.164 68.457 68.076C68.7577 67.9807 69.04 67.8303 69.304 67.625L69.645 68.406C69.3884 68.626 69.0694 68.7983 68.688 68.923C68.3067 69.0403 67.9217 69.099 67.533 69.099ZM76.3367 69.099C75.992 69.099 75.6547 69.066 75.3247 69C75.002 68.9267 74.6977 68.824 74.4117 68.692C74.133 68.56 73.8837 68.395 73.6637 68.197L74.0707 67.306C74.4227 67.5847 74.782 67.79 75.1487 67.922C75.5154 68.0467 75.9004 68.109 76.3037 68.109C76.6484 68.109 76.938 68.0613 77.1727 67.966C77.4147 67.8707 77.598 67.7277 77.7227 67.537C77.8547 67.339 77.9207 67.097 77.9207 66.811C77.9207 66.393 77.7814 66.0813 77.5027 65.876C77.2314 65.6633 76.8317 65.557 76.3037 65.557H75.1047V64.589H76.1937C76.5017 64.589 76.7657 64.5377 76.9857 64.435C77.213 64.3323 77.389 64.1857 77.5137 63.995C77.6384 63.797 77.7007 63.5587 77.7007 63.28C77.7007 62.906 77.576 62.6237 77.3267 62.433C77.0774 62.235 76.7254 62.136 76.2707 62.136C75.882 62.136 75.5154 62.202 75.1707 62.334C74.826 62.466 74.5034 62.6787 74.2027 62.972L73.8067 62.092C74.1074 61.7913 74.485 61.5603 74.9397 61.399C75.3944 61.2303 75.8674 61.146 76.3587 61.146C76.872 61.146 77.312 61.2267 77.6787 61.388C78.0527 61.5493 78.335 61.7803 78.5257 62.081C78.7237 62.3743 78.8227 62.7337 78.8227 63.159C78.8227 63.621 78.6944 64.0207 78.4377 64.358C78.1884 64.6953 77.84 64.9227 77.3927 65.04V64.952C77.7374 65.0107 78.0307 65.128 78.2727 65.304C78.522 65.4727 78.7127 65.6927 78.8447 65.964C78.9767 66.228 79.0427 66.536 79.0427 66.888C79.0427 67.3427 78.9327 67.7387 78.7127 68.076C78.4927 68.406 78.181 68.659 77.7777 68.835C77.3744 69.011 76.894 69.099 76.3367 69.099Z" fill="#667085"/>
<defs>
<filter id="filter0_d_8310_900" x="0" y="0" width="104" height="92" filterUnits="userSpaceOnUse" color-interpolation-filters="sRGB">
<feFlood flood-opacity="0" result="BackgroundImageFix"/>
<feColorMatrix in="SourceAlpha" type="matrix" values="0 0 0 0 0 0 0 0 0 0 0 0 0 0 0 0 0 0 127 0" result="hardAlpha"/>
<feOffset dy="4"/>
<feGaussianBlur stdDeviation="2"/>
<feComposite in2="hardAlpha" operator="out"/>
<feColorMatrix type="matrix" values="0 0 0 0 0 0 0 0 0 0 0 0 0 0 0 0 0 0 0.25 0"/>
<feBlend mode="normal" in2="BackgroundImageFix" result="effect1_dropShadow_8310_900"/>
<feBlend mode="normal" in="SourceGraphic" in2="effect1_dropShadow_8310_900" result="shape"/>
</filter>
<clipPath id="clip0_8310_900">
<rect width="30" height="30" fill="white" transform="translate(38 10)"/>
</clipPath>
</defs>
</svg>
