<svg width="102" height="92" viewBox="0 0 102 92" fill="none" xmlns="http://www.w3.org/2000/svg">
<g filter="url(#filter0_d_8334_725)">
<path d="M5.45148 47.8639C4.65639 46.5542 4.25887 45.8988 4.10327 45.2026C3.96558 44.5864 3.96558 43.9499 4.10327 43.3337C4.25887 42.6375 4.65639 41.9822 5.45148 40.6724L24.7122 8.93899C25.5072 7.62907 25.9047 6.9741 26.4609 6.49776C26.953 6.0763 27.5327 5.75789 28.1625 5.56328C28.8742 5.34326 29.6693 5.34326 31.2595 5.34326H69.7806C71.3711 5.34326 72.1659 5.34326 72.8779 5.56328C73.5073 5.75789 74.0871 6.0763 74.5794 6.49776C75.1356 6.9741 75.533 7.62907 76.3282 8.93899L95.5887 40.6724C96.3839 41.9822 96.7813 42.6375 96.9368 43.3337C97.0747 43.9499 97.0747 44.5864 96.9368 45.2026C96.7813 45.8988 96.3839 46.5542 95.5887 47.8639L76.3282 79.5975C75.533 80.9073 75.1356 81.5621 74.5794 82.0386C74.0871 82.4602 73.5073 82.7784 72.8779 82.973C72.1659 83.1933 71.3711 83.1933 69.7806 83.1933H31.2595C29.6693 83.1933 28.8742 83.1933 28.1625 82.973C27.5327 82.7784 26.953 82.4602 26.4609 82.0386C25.9047 81.5621 25.5072 80.9073 24.7122 79.5975L5.45148 47.8639Z" fill="white"/>
</g>
<path d="M57.8718 10.7388L61.2121 17.4475C61.2711 17.5357 61.3002 17.6528 61.3293 17.741C61.5346 18.2688 61.6808 19.001 61.6808 19.4697V22.6628C61.6808 23.6594 61.0068 24.4797 60.0693 24.7141V26.5891C60.0693 27.4975 59.3371 28.2007 58.4577 28.2007C57.5493 28.2007 56.8461 27.4975 56.8461 26.5891V24.7722H44.0136V26.5891C44.0136 27.4975 43.3105 28.2007 42.4021 28.2007C41.5227 28.2007 40.7905 27.4975 40.7905 26.5891V24.7141C39.853 24.4797 39.179 23.6594 39.179 22.6628V19.4697C39.179 19.001 39.3252 18.2688 39.5305 17.741C39.5596 17.6528 39.5896 17.5357 39.6477 17.4475L42.988 10.7388C43.2515 10.241 43.9546 9.77222 44.5405 9.77222H56.3183C56.9043 9.77222 57.6083 10.241 57.8718 10.7388ZM44.3652 12.76L42.5783 16.8325C42.4902 16.9788 42.4902 17.155 42.4902 17.2722H58.3696C58.3696 17.155 58.3696 16.9788 58.2815 16.8325L56.4946 12.76C56.2602 12.2322 55.5571 11.7635 55.0002 11.7635H45.8596C45.3027 11.7635 44.5996 12.2322 44.3652 12.76ZM43.5749 22.6619C44.5124 22.6619 45.2446 21.8997 45.2446 20.9332C45.2446 19.9957 44.5124 19.2635 43.5749 19.2635C42.6374 19.2635 41.8461 19.9957 41.8461 20.9332C41.8461 21.8997 42.6374 22.6619 43.5749 22.6619ZM57.2858 22.6619C58.2233 22.6619 59.0146 21.8997 59.0146 20.9332C59.0146 19.9957 58.2233 19.2635 57.2858 19.2635C56.3483 19.2635 55.6161 19.9957 55.6161 20.9332C55.6161 21.8997 56.3483 22.6619 57.2858 22.6619Z" fill="#F2BB41"/>
<path d="M23.3602 43.108C22.5042 43.108 21.7722 42.932 21.1642 42.58C20.5562 42.228 20.0882 41.728 19.7602 41.08C19.4402 40.424 19.2802 39.652 19.2802 38.764C19.2802 37.876 19.4402 37.108 19.7602 36.46C20.0882 35.812 20.5562 35.312 21.1642 34.96C21.7722 34.608 22.5042 34.432 23.3602 34.432C23.9362 34.432 24.4722 34.524 24.9682 34.708C25.4722 34.884 25.8922 35.14 26.2282 35.476L25.7962 36.472C25.4282 36.144 25.0482 35.908 24.6562 35.764C24.2722 35.612 23.8522 35.536 23.3962 35.536C22.4842 35.536 21.7882 35.816 21.3082 36.376C20.8282 36.936 20.5882 37.732 20.5882 38.764C20.5882 39.796 20.8282 40.596 21.3082 41.164C21.7882 41.724 22.4842 42.004 23.3962 42.004C23.8522 42.004 24.2722 41.932 24.6562 41.788C25.0482 41.636 25.4282 41.396 25.7962 41.068L26.2282 42.064C25.8922 42.4 25.4722 42.66 24.9682 42.844C24.4722 43.02 23.9362 43.108 23.3602 43.108ZM29.6677 43.108C29.0757 43.108 28.5637 42.984 28.1317 42.736C27.7077 42.488 27.3757 42.136 27.1357 41.68C26.8957 41.224 26.7757 40.688 26.7757 40.072C26.7757 39.448 26.8957 38.912 27.1357 38.464C27.3757 38.008 27.7077 37.656 28.1317 37.408C28.5637 37.16 29.0757 37.036 29.6677 37.036C30.2517 37.036 30.7557 37.16 31.1797 37.408C31.6117 37.656 31.9477 38.008 32.1877 38.464C32.4277 38.92 32.5477 39.456 32.5477 40.072C32.5477 40.688 32.4277 41.224 32.1877 41.68C31.9477 42.136 31.6117 42.488 31.1797 42.736C30.7557 42.984 30.2517 43.108 29.6677 43.108ZM29.6557 42.172C30.1597 42.172 30.5637 41.992 30.8677 41.632C31.1717 41.272 31.3237 40.752 31.3237 40.072C31.3237 39.384 31.1717 38.864 30.8677 38.512C30.5637 38.16 30.1597 37.984 29.6557 37.984C29.1597 37.984 28.7597 38.16 28.4557 38.512C28.1517 38.864 27.9997 39.384 27.9997 40.072C27.9997 40.752 28.1517 41.272 28.4557 41.632C28.7597 41.992 29.1597 42.172 29.6557 42.172ZM33.9089 43V37.144H35.0849V38.392H34.9529C35.1289 37.944 35.4049 37.608 35.7809 37.384C36.1569 37.152 36.5889 37.036 37.0769 37.036C37.5409 37.036 37.9249 37.124 38.2289 37.3C38.5409 37.468 38.7729 37.728 38.9249 38.08C39.0769 38.424 39.1529 38.86 39.1529 39.388V43H37.9409V39.46C37.9409 39.124 37.8969 38.852 37.8089 38.644C37.7209 38.428 37.5889 38.268 37.4129 38.164C37.2369 38.06 37.0089 38.008 36.7289 38.008C36.4089 38.008 36.1249 38.076 35.8769 38.212C35.6369 38.348 35.4489 38.544 35.3129 38.8C35.1849 39.056 35.1209 39.352 35.1209 39.688V43H33.9089ZM43.3189 43.108C42.5909 43.108 42.0429 42.92 41.6749 42.544C41.3149 42.168 41.1349 41.624 41.1349 40.912V38.08H39.9949V37.144H41.1349V35.38H42.3469V37.144H44.1589V38.08H42.3469V40.816C42.3469 41.24 42.4349 41.56 42.6109 41.776C42.7949 41.992 43.0909 42.1 43.4989 42.1C43.6189 42.1 43.7389 42.084 43.8589 42.052C43.9869 42.02 44.1109 41.988 44.2309 41.956L44.4229 42.868C44.3029 42.94 44.1349 42.996 43.9189 43.036C43.7109 43.084 43.5109 43.108 43.3189 43.108ZM45.2058 43V37.144H46.3818V38.548H46.2618C46.3898 38.068 46.6178 37.704 46.9458 37.456C47.2818 37.208 47.7258 37.064 48.2778 37.024L48.6738 37L48.7578 38.032L48.0258 38.104C47.5058 38.152 47.1098 38.316 46.8378 38.596C46.5658 38.876 46.4298 39.26 46.4298 39.748V43H45.2058ZM52.1443 43.108C51.5523 43.108 51.0403 42.984 50.6083 42.736C50.1843 42.488 49.8523 42.136 49.6123 41.68C49.3723 41.224 49.2523 40.688 49.2523 40.072C49.2523 39.448 49.3723 38.912 49.6123 38.464C49.8523 38.008 50.1843 37.656 50.6083 37.408C51.0403 37.16 51.5523 37.036 52.1443 37.036C52.7283 37.036 53.2323 37.16 53.6563 37.408C54.0883 37.656 54.4243 38.008 54.6643 38.464C54.9043 38.92 55.0243 39.456 55.0243 40.072C55.0243 40.688 54.9043 41.224 54.6643 41.68C54.4243 42.136 54.0883 42.488 53.6563 42.736C53.2323 42.984 52.7283 43.108 52.1443 43.108ZM52.1323 42.172C52.6363 42.172 53.0403 41.992 53.3443 41.632C53.6483 41.272 53.8003 40.752 53.8003 40.072C53.8003 39.384 53.6483 38.864 53.3443 38.512C53.0403 38.16 52.6363 37.984 52.1323 37.984C51.6363 37.984 51.2363 38.16 50.9323 38.512C50.6283 38.864 50.4763 39.384 50.4763 40.072C50.4763 40.752 50.6283 41.272 50.9323 41.632C51.2363 41.992 51.6363 42.172 52.1323 42.172ZM50.2723 36.364L51.5923 33.94H52.6963L54.0163 36.364H53.2123L52.1443 34.684L51.0763 36.364H50.2723ZM58.2934 43.108C57.6534 43.108 57.1734 42.928 56.8534 42.568C56.5414 42.2 56.3854 41.672 56.3854 40.984V34.54H57.5974V40.912C57.5974 41.168 57.6334 41.388 57.7054 41.572C57.7774 41.748 57.8854 41.88 58.0294 41.968C58.1734 42.056 58.3534 42.1 58.5694 42.1C58.6654 42.1 58.7574 42.096 58.8454 42.088C58.9334 42.08 59.0174 42.064 59.0974 42.04L59.0734 43.012C58.9374 43.044 58.8054 43.068 58.6774 43.084C58.5494 43.1 58.4214 43.108 58.2934 43.108ZM62.7428 43.108C62.1028 43.108 61.5508 42.988 61.0868 42.748C60.6308 42.5 60.2748 42.152 60.0188 41.704C59.7708 41.248 59.6468 40.708 59.6468 40.084C59.6468 39.476 59.7708 38.944 60.0188 38.488C60.2668 38.032 60.6068 37.676 61.0388 37.42C61.4708 37.164 61.9628 37.036 62.5148 37.036C63.0588 37.036 63.5228 37.156 63.9068 37.396C64.2988 37.628 64.5988 37.96 64.8068 38.392C65.0148 38.824 65.1188 39.34 65.1188 39.94V40.348H60.6068V39.604H64.3028L64.0988 39.772C64.0988 39.172 63.9668 38.708 63.7028 38.38C63.4388 38.052 63.0588 37.888 62.5628 37.888C62.1868 37.888 61.8668 37.976 61.6028 38.152C61.3468 38.328 61.1508 38.572 61.0148 38.884C60.8788 39.196 60.8108 39.56 60.8108 39.976V40.048C60.8108 40.512 60.8828 40.904 61.0268 41.224C61.1788 41.536 61.3988 41.772 61.6868 41.932C61.9748 42.092 62.3308 42.172 62.7548 42.172C63.0908 42.172 63.4188 42.12 63.7388 42.016C64.0668 41.904 64.3748 41.732 64.6628 41.5L65.0228 42.34C64.7588 42.58 64.4188 42.768 64.0028 42.904C63.5868 43.04 63.1668 43.108 62.7428 43.108ZM71.8245 43.108C71.3125 43.108 70.8605 42.988 70.4685 42.748C70.0845 42.5 69.7845 42.148 69.5685 41.692C69.3525 41.228 69.2445 40.688 69.2445 40.072C69.2445 39.44 69.3525 38.9 69.5685 38.452C69.7845 38.004 70.0845 37.656 70.4685 37.408C70.8605 37.16 71.3125 37.036 71.8245 37.036C72.3365 37.036 72.7765 37.164 73.1445 37.42C73.5205 37.668 73.7725 38.004 73.9005 38.428H73.7685V34.54H74.9805V43H73.7925V41.68H73.9125C73.7845 42.112 73.5325 42.46 73.1565 42.724C72.7885 42.98 72.3445 43.108 71.8245 43.108ZM72.1365 42.172C72.6325 42.172 73.0325 41.992 73.3365 41.632C73.6405 41.272 73.7925 40.752 73.7925 40.072C73.7925 39.384 73.6405 38.864 73.3365 38.512C73.0325 38.16 72.6325 37.984 72.1365 37.984C71.6325 37.984 71.2285 38.16 70.9245 38.512C70.6205 38.864 70.4685 39.384 70.4685 40.072C70.4685 40.752 70.6205 41.272 70.9245 41.632C71.2285 41.992 71.6325 42.172 72.1365 42.172ZM79.4303 43.108C78.7903 43.108 78.2383 42.988 77.7743 42.748C77.3183 42.5 76.9623 42.152 76.7063 41.704C76.4583 41.248 76.3343 40.708 76.3343 40.084C76.3343 39.476 76.4583 38.944 76.7063 38.488C76.9543 38.032 77.2943 37.676 77.7263 37.42C78.1583 37.164 78.6503 37.036 79.2023 37.036C79.7463 37.036 80.2103 37.156 80.5943 37.396C80.9863 37.628 81.2863 37.96 81.4943 38.392C81.7023 38.824 81.8063 39.34 81.8063 39.94V40.348H77.2943V39.604H80.9903L80.7863 39.772C80.7863 39.172 80.6543 38.708 80.3903 38.38C80.1263 38.052 79.7463 37.888 79.2503 37.888C78.8743 37.888 78.5543 37.976 78.2903 38.152C78.0343 38.328 77.8383 38.572 77.7023 38.884C77.5663 39.196 77.4983 39.56 77.4983 39.976V40.048C77.4983 40.512 77.5703 40.904 77.7143 41.224C77.8663 41.536 78.0863 41.772 78.3743 41.932C78.6623 42.092 79.0183 42.172 79.4423 42.172C79.7783 42.172 80.1063 42.12 80.4263 42.016C80.7543 41.904 81.0623 41.732 81.3503 41.5L81.7103 42.34C81.4463 42.58 81.1063 42.768 80.6903 42.904C80.2743 43.04 79.8543 43.108 79.4303 43.108ZM35.385 59.108C34.873 59.108 34.421 58.988 34.029 58.748C33.645 58.5 33.345 58.148 33.129 57.692C32.913 57.228 32.805 56.688 32.805 56.072C32.805 55.44 32.913 54.9 33.129 54.452C33.345 54.004 33.645 53.656 34.029 53.408C34.421 53.16 34.873 53.036 35.385 53.036C35.897 53.036 36.337 53.164 36.705 53.42C37.081 53.668 37.333 54.004 37.461 54.428H37.329V50.54H38.541V59H37.353V57.68H37.473C37.345 58.112 37.093 58.46 36.717 58.724C36.349 58.98 35.905 59.108 35.385 59.108ZM35.697 58.172C36.193 58.172 36.593 57.992 36.897 57.632C37.201 57.272 37.353 56.752 37.353 56.072C37.353 55.384 37.201 54.864 36.897 54.512C36.593 54.16 36.193 53.984 35.697 53.984C35.193 53.984 34.789 54.16 34.485 54.512C34.181 54.864 34.029 55.384 34.029 56.072C34.029 56.752 34.181 57.272 34.485 57.632C34.789 57.992 35.193 58.172 35.697 58.172ZM42.9909 59.108C42.3509 59.108 41.7989 58.988 41.3349 58.748C40.8789 58.5 40.5229 58.152 40.2669 57.704C40.0189 57.248 39.8949 56.708 39.8949 56.084C39.8949 55.476 40.0189 54.944 40.2669 54.488C40.5149 54.032 40.8549 53.676 41.2869 53.42C41.7189 53.164 42.2109 53.036 42.7629 53.036C43.3069 53.036 43.7709 53.156 44.1549 53.396C44.5469 53.628 44.8469 53.96 45.0549 54.392C45.2629 54.824 45.3669 55.34 45.3669 55.94V56.348H40.8549V55.604H44.5509L44.3469 55.772C44.3469 55.172 44.2149 54.708 43.9509 54.38C43.6869 54.052 43.3069 53.888 42.8109 53.888C42.4349 53.888 42.1149 53.976 41.8509 54.152C41.5949 54.328 41.3989 54.572 41.2629 54.884C41.1269 55.196 41.0589 55.56 41.0589 55.976V56.048C41.0589 56.512 41.1309 56.904 41.2749 57.224C41.4269 57.536 41.6469 57.772 41.9349 57.932C42.2229 58.092 42.5789 58.172 43.0029 58.172C43.3389 58.172 43.6669 58.12 43.9869 58.016C44.3149 57.904 44.6229 57.732 44.9109 57.5L45.2709 58.34C45.0069 58.58 44.6669 58.768 44.2509 58.904C43.8349 59.04 43.4149 59.108 42.9909 59.108ZM42.3549 52.364L43.5909 49.94H44.8269L43.1949 52.364H42.3549ZM46.6882 61.16V53.144H47.8762V54.464H47.7442C47.8722 54.032 48.1242 53.688 48.5002 53.432C48.8762 53.168 49.3202 53.036 49.8322 53.036C50.3522 53.036 50.8042 53.16 51.1882 53.408C51.5802 53.656 51.8802 54.004 52.0882 54.452C52.3042 54.9 52.4122 55.44 52.4122 56.072C52.4122 56.688 52.3042 57.228 52.0882 57.692C51.8802 58.148 51.5842 58.5 51.2002 58.748C50.8162 58.988 50.3602 59.108 49.8322 59.108C49.3282 59.108 48.8882 58.98 48.5122 58.724C48.1362 58.468 47.8842 58.128 47.7562 57.704H47.9002V61.16H46.6882ZM49.5322 58.172C50.0362 58.172 50.4362 57.992 50.7322 57.632C51.0362 57.272 51.1882 56.752 51.1882 56.072C51.1882 55.384 51.0362 54.864 50.7322 54.512C50.4362 54.16 50.0362 53.984 49.5322 53.984C49.0362 53.984 48.6362 54.16 48.3322 54.512C48.0282 54.864 47.8762 55.384 47.8762 56.072C47.8762 56.752 48.0282 57.272 48.3322 57.632C48.6362 57.992 49.0362 58.172 49.5322 58.172ZM55.65 59.108C55.242 59.108 54.874 59.028 54.546 58.868C54.226 58.708 53.974 58.492 53.79 58.22C53.606 57.948 53.514 57.64 53.514 57.296C53.514 56.864 53.622 56.524 53.838 56.276C54.062 56.02 54.426 55.84 54.93 55.736C55.442 55.624 56.13 55.568 56.994 55.568H57.558V56.312H57.006C56.574 56.312 56.21 56.328 55.914 56.36C55.618 56.392 55.382 56.444 55.206 56.516C55.03 56.58 54.902 56.672 54.822 56.792C54.75 56.912 54.714 57.056 54.714 57.224C54.714 57.528 54.818 57.776 55.026 57.968C55.234 58.152 55.522 58.244 55.89 58.244C56.186 58.244 56.446 58.176 56.67 58.04C56.894 57.896 57.07 57.704 57.198 57.464C57.334 57.224 57.402 56.948 57.402 56.636V55.256C57.402 54.8 57.306 54.472 57.114 54.272C56.922 54.072 56.606 53.972 56.166 53.972C55.83 53.972 55.494 54.024 55.158 54.128C54.822 54.224 54.478 54.38 54.126 54.596L53.754 53.744C53.962 53.6 54.202 53.476 54.474 53.372C54.746 53.268 55.03 53.188 55.326 53.132C55.63 53.068 55.922 53.036 56.202 53.036C56.738 53.036 57.178 53.12 57.522 53.288C57.874 53.456 58.134 53.712 58.302 54.056C58.47 54.4 58.554 54.844 58.554 55.388V59H57.414V57.692H57.522C57.458 57.988 57.338 58.244 57.162 58.46C56.994 58.668 56.782 58.828 56.526 58.94C56.27 59.052 55.978 59.108 55.65 59.108ZM60.2233 59V53.144H61.3993V54.548H61.2793C61.4073 54.068 61.6353 53.704 61.9633 53.456C62.2993 53.208 62.7433 53.064 63.2953 53.024L63.6913 53L63.7753 54.032L63.0433 54.104C62.5233 54.152 62.1273 54.316 61.8553 54.596C61.5833 54.876 61.4473 55.26 61.4473 55.748V59H60.2233ZM67.524 59.108C66.796 59.108 66.248 58.92 65.88 58.544C65.52 58.168 65.34 57.624 65.34 56.912V54.08H64.2V53.144H65.34V51.38H66.552V53.144H68.364V54.08H66.552V56.816C66.552 57.24 66.64 57.56 66.816 57.776C67 57.992 67.296 58.1 67.704 58.1C67.824 58.1 67.944 58.084 68.064 58.052C68.192 58.02 68.316 57.988 68.436 57.956L68.628 58.868C68.508 58.94 68.34 58.996 68.124 59.036C67.916 59.084 67.716 59.108 67.524 59.108Z" fill="black"/>
<path d="M24.7897 76.11C24.0123 76.11 23.345 75.9487 22.7877 75.626C22.2303 75.296 21.8013 74.834 21.5007 74.24C21.2 73.646 21.0497 72.9383 21.0497 72.117C21.0497 71.2957 21.2 70.5917 21.5007 70.005C21.8013 69.411 22.2303 68.9527 22.7877 68.63C23.345 68.3073 24.0123 68.146 24.7897 68.146C25.3177 68.146 25.809 68.2267 26.2637 68.388C26.7257 68.5493 27.1107 68.7877 27.4187 69.103L27.0117 70.016C26.6743 69.7227 26.3297 69.51 25.9777 69.378C25.6257 69.246 25.2407 69.18 24.8227 69.18C24.0013 69.18 23.3707 69.433 22.9307 69.939C22.4907 70.445 22.2707 71.171 22.2707 72.117C22.2707 73.063 22.4907 73.7927 22.9307 74.306C23.3707 74.812 24.0013 75.065 24.8227 75.065C25.2407 75.065 25.6257 74.999 25.9777 74.867C26.3297 74.735 26.6743 74.5223 27.0117 74.229L27.4187 75.142C27.1107 75.45 26.7257 75.6883 26.2637 75.857C25.809 76.0257 25.3177 76.11 24.7897 76.11ZM28.7122 76V68.245H29.8342V71.743H29.7242C29.8855 71.347 30.1385 71.0427 30.4832 70.83C30.8279 70.6173 31.2202 70.511 31.6602 70.511C32.1002 70.511 32.4595 70.5917 32.7382 70.753C33.0242 70.907 33.2369 71.1453 33.3762 71.468C33.5229 71.7907 33.5962 72.1977 33.5962 72.689V76H32.4632V72.755C32.4632 72.4543 32.4229 72.2087 32.3422 72.018C32.2689 71.82 32.1479 71.6733 31.9792 71.578C31.8179 71.4753 31.6089 71.424 31.3522 71.424C31.0515 71.424 30.7875 71.49 30.5602 71.622C30.3329 71.754 30.1569 71.9373 30.0322 72.172C29.9075 72.3993 29.8452 72.6633 29.8452 72.964V76H28.7122ZM36.9605 76.099C36.5791 76.099 36.2381 76.0257 35.9375 75.879C35.6368 75.7323 35.3985 75.5343 35.2225 75.285C35.0538 75.0283 34.9695 74.746 34.9695 74.438C34.9695 74.0347 35.0721 73.7193 35.2775 73.492C35.4901 73.2573 35.8311 73.0887 36.3005 72.986C36.7771 72.8833 37.4078 72.832 38.1925 72.832H38.7755V73.536H38.2145C37.8185 73.536 37.4848 73.5507 37.2135 73.58C36.9421 73.602 36.7221 73.646 36.5535 73.712C36.3921 73.7707 36.2748 73.855 36.2015 73.965C36.1281 74.075 36.0915 74.2107 36.0915 74.372C36.0915 74.6433 36.1868 74.8633 36.3775 75.032C36.5755 75.2007 36.8431 75.285 37.1805 75.285C37.4591 75.285 37.7048 75.219 37.9175 75.087C38.1301 74.955 38.2988 74.779 38.4235 74.559C38.5481 74.339 38.6105 74.086 38.6105 73.8V72.546C38.6105 72.1353 38.5151 71.842 38.3245 71.666C38.1411 71.4827 37.8405 71.391 37.4225 71.391C37.1145 71.391 36.8028 71.4387 36.4875 71.534C36.1795 71.622 35.8641 71.765 35.5415 71.963L35.1895 71.16C35.3948 71.028 35.6221 70.9143 35.8715 70.819C36.1281 70.7163 36.3958 70.6393 36.6745 70.588C36.9531 70.5367 37.2245 70.511 37.4885 70.511C37.9798 70.511 38.3868 70.588 38.7095 70.742C39.0395 70.896 39.2888 71.1307 39.4575 71.446C39.6261 71.7613 39.7105 72.1683 39.7105 72.667V76H38.6655V74.812H38.7315C38.6655 75.0687 38.5481 75.296 38.3795 75.494C38.2181 75.6847 38.0165 75.835 37.7745 75.945C37.5398 76.0477 37.2685 76.099 36.9605 76.099ZM41.302 77.98V70.61H42.391V71.809H42.314C42.4387 71.4057 42.6734 71.0903 43.018 70.863C43.3627 70.6283 43.7697 70.511 44.239 70.511C44.723 70.511 45.1447 70.6247 45.504 70.852C45.8634 71.0793 46.142 71.402 46.34 71.82C46.538 72.238 46.637 72.733 46.637 73.305C46.637 73.8697 46.538 74.3647 46.34 74.79C46.142 75.208 45.8634 75.5307 45.504 75.758C45.152 75.9853 44.7304 76.099 44.239 76.099C43.777 76.099 43.3774 75.9853 43.04 75.758C42.7027 75.5233 42.468 75.219 42.336 74.845H42.435V77.98H41.302ZM43.953 75.219C44.4224 75.219 44.7964 75.054 45.075 74.724C45.3537 74.3867 45.493 73.9137 45.493 73.305C45.493 72.6817 45.3537 72.2087 45.075 71.886C44.7964 71.5633 44.4224 71.402 43.953 71.402C43.4837 71.402 43.1097 71.5633 42.831 71.886C42.5597 72.2087 42.424 72.6817 42.424 73.305C42.424 73.9137 42.5634 74.3867 42.842 74.724C43.1207 75.054 43.491 75.219 43.953 75.219ZM47.8417 69.367V68.19H49.1617V69.367H47.8417ZM47.9407 76V70.61H49.0737V76H47.9407ZM53.0335 76.099C52.3515 76.099 51.8418 75.9267 51.5045 75.582C51.1671 75.23 50.9985 74.724 50.9985 74.064V71.49H49.9535V70.61H51.0205V69.004H52.1315V70.61H53.8585V71.49H52.1425V73.987C52.1425 74.3683 52.2231 74.658 52.3845 74.856C52.5531 75.054 52.8245 75.153 53.1985 75.153C53.3231 75.153 53.4441 75.1383 53.5615 75.109C53.6788 75.0797 53.7961 75.0467 53.9135 75.01L54.0895 75.868C53.9648 75.9413 53.8035 75.9963 53.6055 76.033C53.4075 76.077 53.2168 76.099 53.0335 76.099ZM54.9016 76V70.61H55.9906V71.897H55.9026C56.0273 71.4643 56.2436 71.1343 56.5516 70.907C56.8596 70.6797 57.2593 70.5477 57.7506 70.511L58.1576 70.478L58.2456 71.468L57.5196 71.534C57.043 71.578 56.6763 71.732 56.4196 71.996C56.1703 72.2527 56.0456 72.601 56.0456 73.041V76H54.9016ZM61.6651 76.099C61.0711 76.099 60.5578 75.989 60.1251 75.769C59.6924 75.5417 59.3588 75.219 59.1241 74.801C58.8968 74.383 58.7831 73.888 58.7831 73.316C58.7831 72.7587 58.8931 72.271 59.1131 71.853C59.3404 71.435 59.6521 71.1087 60.0481 70.874C60.4514 70.632 60.9171 70.511 61.4451 70.511C61.9511 70.511 62.3838 70.621 62.7431 70.841C63.1024 71.061 63.3811 71.3727 63.5791 71.776C63.7771 72.172 63.8761 72.6487 63.8761 73.206V73.58H59.6631V72.876H63.0951L62.9191 73.041C62.9191 72.491 62.7944 72.0693 62.5451 71.776C62.2958 71.4753 61.9401 71.325 61.4781 71.325C61.1334 71.325 60.8401 71.402 60.5981 71.556C60.3634 71.71 60.1801 71.9263 60.0481 72.205C59.9234 72.4837 59.8611 72.8173 59.8611 73.206V73.283C59.8611 73.7083 59.9308 74.064 60.0701 74.35C60.2094 74.636 60.4148 74.8523 60.6861 74.999C60.9574 75.1383 61.2911 75.208 61.6871 75.208C61.9878 75.208 62.2884 75.164 62.5891 75.076C62.8898 74.9807 63.1721 74.8303 63.4361 74.625L63.7771 75.406C63.5204 75.626 63.2014 75.7983 62.8201 75.923C62.4388 76.0403 62.0538 76.099 61.6651 76.099ZM68.5108 76V75.032H70.3368V69.213L70.9198 69.224L68.8958 70.489L68.4228 69.631L70.6668 68.245H71.4918V75.032H73.1968V76H68.5108ZM77.1855 76.099C76.5842 76.099 76.0745 75.9487 75.6565 75.648C75.2458 75.34 74.9342 74.889 74.7215 74.295C74.5162 73.701 74.4135 72.975 74.4135 72.117C74.4135 71.2443 74.5162 70.5147 74.7215 69.928C74.9342 69.3413 75.2458 68.8977 75.6565 68.597C76.0745 68.2963 76.5842 68.146 77.1855 68.146C77.7942 68.146 78.3038 68.2963 78.7145 68.597C79.1252 68.8903 79.4332 69.334 79.6385 69.928C79.8512 70.5147 79.9575 71.2407 79.9575 72.106C79.9575 72.964 79.8512 73.69 79.6385 74.284C79.4332 74.878 79.1215 75.329 78.7035 75.637C78.2928 75.945 77.7868 76.099 77.1855 76.099ZM77.1855 75.131C77.7428 75.131 78.1572 74.889 78.4285 74.405C78.6998 73.9137 78.8355 73.1473 78.8355 72.106C78.8355 71.0647 78.6998 70.3057 78.4285 69.829C78.1645 69.3523 77.7502 69.114 77.1855 69.114C76.6282 69.114 76.2138 69.3523 75.9425 69.829C75.6712 70.3057 75.5355 71.0647 75.5355 72.106C75.5355 73.1473 75.6712 73.9137 75.9425 74.405C76.2138 74.889 76.6282 75.131 77.1855 75.131Z" fill="#667085"/>
<defs>
<filter id="filter0_d_8334_725" x="0" y="5.34326" width="101.04" height="85.8501" filterUnits="userSpaceOnUse" color-interpolation-filters="sRGB">
<feFlood flood-opacity="0" result="BackgroundImageFix"/>
<feColorMatrix in="SourceAlpha" type="matrix" values="0 0 0 0 0 0 0 0 0 0 0 0 0 0 0 0 0 0 127 0" result="hardAlpha"/>
<feOffset dy="4"/>
<feGaussianBlur stdDeviation="2"/>
<feComposite in2="hardAlpha" operator="out"/>
<feColorMatrix type="matrix" values="0 0 0 0 0 0 0 0 0 0 0 0 0 0 0 0 0 0 0.25 0"/>
<feBlend mode="normal" in2="BackgroundImageFix" result="effect1_dropShadow_8334_725"/>
<feBlend mode="normal" in="SourceGraphic" in2="effect1_dropShadow_8334_725" result="shape"/>
</filter>
</defs>
</svg>
