<svg width="96" height="86" viewBox="0 0 96 86" fill="none" xmlns="http://www.w3.org/2000/svg">
<g filter="url(#filter0_d_8310_820)">
<path d="M5.37285 42.5185C4.62083 41.2089 4.24484 40.5536 4.09767 39.8574C3.96744 39.2412 3.96744 38.6048 4.09767 37.9886C4.24484 37.2924 4.62083 36.6371 5.37285 35.3274L23.5901 3.59555C24.3421 2.28569 24.7181 1.63076 25.2442 1.15444C25.7096 0.732998 26.2579 0.414612 26.8535 0.220002C27.5267 -2.00917e-07 28.2787 0 29.7827 0H66.2171C67.7214 0 68.4731 -2.00917e-07 69.1466 0.220002C69.7419 0.414612 70.2903 0.732998 70.756 1.15444C71.282 1.63076 71.6578 2.28569 72.41 3.59555L90.6271 35.3274C91.3792 36.6371 91.7551 37.2924 91.9021 37.9886C92.0326 38.6048 92.0326 39.2412 91.9021 39.8574C91.7551 40.5536 91.3792 41.2089 90.6271 42.5185L72.41 74.2506C71.6578 75.5603 71.282 76.2151 70.756 76.6915C70.2903 77.1131 69.7419 77.4313 69.1466 77.6259C68.4731 77.8462 67.7214 77.8462 66.2171 77.8462H29.7827C28.2787 77.8462 27.5267 77.8462 26.8535 77.6259C26.2579 77.4313 25.7096 77.1131 25.2442 76.6915C24.7181 76.2151 24.3421 75.5603 23.5901 74.2506L5.37285 42.5185Z" fill="white"/>
</g>
<g clip-path="url(#clip0_8310_820)">
<path d="M58.5005 22.5293C57.1402 22.1911 56.1248 20.9647 56.1248 19.4998C56.1248 17.7738 57.5239 17 59.25 17C59.4492 17 59.6571 17.0258 59.8464 17.0626C59.8552 17.2503 59.8748 17.435 59.8748 17.6248C59.8748 19.6214 59.3746 20.8762 58.5005 22.5293ZM41.0473 26.6062C42.165 25.0089 44.8598 23.8747 48 23.8747C51.1396 23.8747 53.8277 25.0147 54.9455 26.612C52.9898 28.0292 50.5945 28.8748 48 28.8748C45.4024 28.8748 43.0045 28.0265 41.0473 26.6062ZM36.1252 17C36.1252 16.8081 36.1448 16.6214 36.1536 16.4321C36.3429 16.3953 36.5504 16.3746 36.75 16.3746C38.4761 16.3746 39.8752 17.7738 39.8752 19.4998C39.8752 20.9646 38.8583 22.1889 37.4984 22.5272C36.6248 20.8746 36.1252 18.9955 36.1252 17ZM48 5.12463C53.4652 5.12463 58.0024 8.84047 59.3793 13.8965H36.6207C37.9976 8.84053 42.5348 5.12463 48 5.12463ZM48 2C39.7158 2 33 8.71537 33 17C33 25.2842 39.7158 32 48 32C56.2842 32 63 25.2842 63 17C63 8.71537 56.2842 2 48 2Z" fill="#F2BB41"/>
<path d="M52.6551 18.5516C52.6551 19.6942 50.5613 20.6206 47.9782 20.6206C45.3951 20.6206 43.3013 19.6942 43.3013 18.5516C43.3013 17.409 45.3951 16.4827 47.9782 16.4827C50.5613 16.4827 52.6551 17.409 52.6551 18.5516Z" fill="#E08838"/>
</g>
<path d="M20.2623 45.108C19.4063 45.108 18.6743 44.932 18.0663 44.58C17.4583 44.228 16.9903 43.728 16.6623 43.08C16.3423 42.424 16.1823 41.652 16.1823 40.764C16.1823 39.876 16.3423 39.108 16.6623 38.46C16.9903 37.812 17.4583 37.312 18.0663 36.96C18.6743 36.608 19.4063 36.432 20.2623 36.432C20.8383 36.432 21.3743 36.524 21.8703 36.708C22.3743 36.884 22.7943 37.14 23.1303 37.476L22.6983 38.472C22.3303 38.144 21.9503 37.908 21.5583 37.764C21.1743 37.612 20.7543 37.536 20.2983 37.536C19.3863 37.536 18.6903 37.816 18.2103 38.376C17.7303 38.936 17.4903 39.732 17.4903 40.764C17.4903 41.796 17.7303 42.596 18.2103 43.164C18.6903 43.724 19.3863 44.004 20.2983 44.004C20.7543 44.004 21.1743 43.932 21.5583 43.788C21.9503 43.636 22.3303 43.396 22.6983 43.068L23.1303 44.064C22.7943 44.4 22.3743 44.66 21.8703 44.844C21.3743 45.02 20.8383 45.108 20.2623 45.108ZM26.5698 45.108C25.9778 45.108 25.4658 44.984 25.0338 44.736C24.6098 44.488 24.2778 44.136 24.0378 43.68C23.7978 43.224 23.6778 42.688 23.6778 42.072C23.6778 41.448 23.7978 40.912 24.0378 40.464C24.2778 40.008 24.6098 39.656 25.0338 39.408C25.4658 39.16 25.9778 39.036 26.5698 39.036C27.1538 39.036 27.6578 39.16 28.0818 39.408C28.5138 39.656 28.8498 40.008 29.0898 40.464C29.3298 40.92 29.4498 41.456 29.4498 42.072C29.4498 42.688 29.3298 43.224 29.0898 43.68C28.8498 44.136 28.5138 44.488 28.0818 44.736C27.6578 44.984 27.1538 45.108 26.5698 45.108ZM26.5578 44.172C27.0618 44.172 27.4658 43.992 27.7698 43.632C28.0738 43.272 28.2258 42.752 28.2258 42.072C28.2258 41.384 28.0738 40.864 27.7698 40.512C27.4658 40.16 27.0618 39.984 26.5578 39.984C26.0618 39.984 25.6618 40.16 25.3578 40.512C25.0538 40.864 24.9018 41.384 24.9018 42.072C24.9018 42.752 25.0538 43.272 25.3578 43.632C25.6618 43.992 26.0618 44.172 26.5578 44.172ZM30.835 45V39.144H32.011V40.392H31.879C31.983 40.104 32.127 39.86 32.311 39.66C32.495 39.46 32.715 39.308 32.971 39.204C33.235 39.092 33.523 39.036 33.835 39.036C34.323 39.036 34.719 39.152 35.023 39.384C35.327 39.616 35.535 39.972 35.647 40.452H35.479C35.631 40.012 35.891 39.668 36.259 39.42C36.627 39.164 37.055 39.036 37.543 39.036C37.991 39.036 38.359 39.124 38.647 39.3C38.935 39.468 39.151 39.728 39.295 40.08C39.439 40.424 39.511 40.86 39.511 41.388V45H38.299V41.448C38.299 40.952 38.211 40.588 38.035 40.356C37.867 40.124 37.587 40.008 37.195 40.008C36.907 40.008 36.655 40.076 36.439 40.212C36.223 40.348 36.055 40.548 35.935 40.812C35.823 41.068 35.767 41.372 35.767 41.724V45H34.555V41.448C34.555 40.952 34.471 40.588 34.303 40.356C34.135 40.124 33.855 40.008 33.463 40.008C33.167 40.008 32.911 40.076 32.695 40.212C32.487 40.348 32.327 40.548 32.215 40.812C32.103 41.068 32.047 41.372 32.047 41.724V45H30.835ZM41.2295 45V39.144H42.4055V40.392H42.2735C42.3775 40.104 42.5215 39.86 42.7055 39.66C42.8895 39.46 43.1095 39.308 43.3655 39.204C43.6295 39.092 43.9175 39.036 44.2295 39.036C44.7175 39.036 45.1135 39.152 45.4175 39.384C45.7215 39.616 45.9295 39.972 46.0415 40.452H45.8735C46.0255 40.012 46.2855 39.668 46.6535 39.42C47.0215 39.164 47.4495 39.036 47.9375 39.036C48.3855 39.036 48.7535 39.124 49.0415 39.3C49.3295 39.468 49.5455 39.728 49.6895 40.08C49.8335 40.424 49.9055 40.86 49.9055 41.388V45H48.6935V41.448C48.6935 40.952 48.6055 40.588 48.4295 40.356C48.2615 40.124 47.9815 40.008 47.5895 40.008C47.3015 40.008 47.0495 40.076 46.8335 40.212C46.6175 40.348 46.4495 40.548 46.3295 40.812C46.2175 41.068 46.1615 41.372 46.1615 41.724V45H44.9495V41.448C44.9495 40.952 44.8655 40.588 44.6975 40.356C44.5295 40.124 44.2495 40.008 43.8575 40.008C43.5615 40.008 43.3055 40.076 43.0895 40.212C42.8815 40.348 42.7215 40.548 42.6095 40.812C42.4975 41.068 42.4415 41.372 42.4415 41.724V45H41.2295ZM54.348 45.108C53.708 45.108 53.156 44.988 52.692 44.748C52.236 44.5 51.88 44.152 51.624 43.704C51.376 43.248 51.252 42.708 51.252 42.084C51.252 41.476 51.376 40.944 51.624 40.488C51.872 40.032 52.212 39.676 52.644 39.42C53.076 39.164 53.568 39.036 54.12 39.036C54.664 39.036 55.128 39.156 55.512 39.396C55.904 39.628 56.204 39.96 56.412 40.392C56.62 40.824 56.724 41.34 56.724 41.94V42.348H52.212V41.604H55.908L55.704 41.772C55.704 41.172 55.572 40.708 55.308 40.38C55.044 40.052 54.664 39.888 54.168 39.888C53.792 39.888 53.472 39.976 53.208 40.152C52.952 40.328 52.756 40.572 52.62 40.884C52.484 41.196 52.416 41.56 52.416 41.976V42.048C52.416 42.512 52.488 42.904 52.632 43.224C52.784 43.536 53.004 43.772 53.292 43.932C53.58 44.092 53.936 44.172 54.36 44.172C54.696 44.172 55.024 44.12 55.344 44.016C55.672 43.904 55.98 43.732 56.268 43.5L56.628 44.34C56.364 44.58 56.024 44.768 55.608 44.904C55.192 45.04 54.772 45.108 54.348 45.108ZM58.0454 45V39.144H59.2214V40.392H59.0894C59.2654 39.944 59.5414 39.608 59.9174 39.384C60.2934 39.152 60.7254 39.036 61.2134 39.036C61.6774 39.036 62.0614 39.124 62.3654 39.3C62.6774 39.468 62.9094 39.728 63.0614 40.08C63.2134 40.424 63.2894 40.86 63.2894 41.388V45H62.0774V41.46C62.0774 41.124 62.0334 40.852 61.9454 40.644C61.8574 40.428 61.7254 40.268 61.5494 40.164C61.3734 40.06 61.1454 40.008 60.8654 40.008C60.5454 40.008 60.2614 40.076 60.0134 40.212C59.7734 40.348 59.5854 40.544 59.4494 40.8C59.3214 41.056 59.2574 41.352 59.2574 41.688V45H58.0454ZM67.5394 45.108C66.9394 45.108 66.4194 44.984 65.9794 44.736C65.5474 44.48 65.2114 44.124 64.9714 43.668C64.7314 43.204 64.6114 42.66 64.6114 42.036C64.6114 41.42 64.7314 40.888 64.9714 40.44C65.2114 39.992 65.5474 39.648 65.9794 39.408C66.4194 39.16 66.9394 39.036 67.5394 39.036C67.9074 39.036 68.2714 39.1 68.6314 39.228C68.9914 39.348 69.2874 39.524 69.5194 39.756L69.1354 40.608C68.9194 40.4 68.6754 40.248 68.4034 40.152C68.1314 40.048 67.8754 39.996 67.6354 39.996C67.0674 39.996 66.6274 40.176 66.3154 40.536C66.0114 40.888 65.8594 41.392 65.8594 42.048C65.8594 42.704 66.0114 43.22 66.3154 43.596C66.6274 43.964 67.0674 44.148 67.6354 44.148C67.8754 44.148 68.1314 44.1 68.4034 44.004C68.6754 43.9 68.9194 43.744 69.1354 43.536L69.5194 44.4C69.2874 44.616 68.9874 44.788 68.6194 44.916C68.2594 45.044 67.8994 45.108 67.5394 45.108ZM73.1918 45.108C72.5518 45.108 71.9998 44.988 71.5358 44.748C71.0798 44.5 70.7238 44.152 70.4678 43.704C70.2198 43.248 70.0958 42.708 70.0958 42.084C70.0958 41.476 70.2198 40.944 70.4678 40.488C70.7158 40.032 71.0558 39.676 71.4878 39.42C71.9198 39.164 72.4118 39.036 72.9638 39.036C73.5078 39.036 73.9718 39.156 74.3558 39.396C74.7478 39.628 75.0478 39.96 75.2558 40.392C75.4638 40.824 75.5678 41.34 75.5678 41.94V42.348H71.0558V41.604H74.7518L74.5478 41.772C74.5478 41.172 74.4158 40.708 74.1518 40.38C73.8878 40.052 73.5078 39.888 73.0118 39.888C72.6358 39.888 72.3158 39.976 72.0518 40.152C71.7958 40.328 71.5998 40.572 71.4638 40.884C71.3278 41.196 71.2598 41.56 71.2598 41.976V42.048C71.2598 42.512 71.3318 42.904 71.4758 43.224C71.6278 43.536 71.8478 43.772 72.1358 43.932C72.4238 44.092 72.7798 44.172 73.2038 44.172C73.5398 44.172 73.8678 44.12 74.1878 44.016C74.5158 43.904 74.8238 43.732 75.1118 43.5L75.4718 44.34C75.2078 44.58 74.8678 44.768 74.4518 44.904C74.0358 45.04 73.6158 45.108 73.1918 45.108ZM76.8891 45V39.144H78.0651V40.548H77.9451C78.0731 40.068 78.3011 39.704 78.6291 39.456C78.9651 39.208 79.4091 39.064 79.9611 39.024L80.3571 39L80.4411 40.032L79.7091 40.104C79.1891 40.152 78.7931 40.316 78.5211 40.596C78.2491 40.876 78.1131 41.26 78.1131 41.748V45H76.8891ZM22.4935 61.108C22.0855 61.108 21.7175 61.028 21.3895 60.868C21.0695 60.708 20.8175 60.492 20.6335 60.22C20.4495 59.948 20.3575 59.64 20.3575 59.296C20.3575 58.864 20.4655 58.524 20.6815 58.276C20.9055 58.02 21.2695 57.84 21.7735 57.736C22.2855 57.624 22.9735 57.568 23.8375 57.568H24.4015V58.312H23.8495C23.4175 58.312 23.0535 58.328 22.7575 58.36C22.4615 58.392 22.2255 58.444 22.0495 58.516C21.8735 58.58 21.7455 58.672 21.6655 58.792C21.5935 58.912 21.5575 59.056 21.5575 59.224C21.5575 59.528 21.6615 59.776 21.8695 59.968C22.0775 60.152 22.3655 60.244 22.7335 60.244C23.0295 60.244 23.2895 60.176 23.5135 60.04C23.7375 59.896 23.9135 59.704 24.0415 59.464C24.1775 59.224 24.2455 58.948 24.2455 58.636V57.256C24.2455 56.8 24.1495 56.472 23.9575 56.272C23.7655 56.072 23.4495 55.972 23.0095 55.972C22.6735 55.972 22.3375 56.024 22.0015 56.128C21.6655 56.224 21.3215 56.38 20.9695 56.596L20.5975 55.744C20.8055 55.6 21.0455 55.476 21.3175 55.372C21.5895 55.268 21.8735 55.188 22.1695 55.132C22.4735 55.068 22.7655 55.036 23.0455 55.036C23.5815 55.036 24.0215 55.12 24.3655 55.288C24.7175 55.456 24.9775 55.712 25.1455 56.056C25.3135 56.4 25.3975 56.844 25.3975 57.388V61H24.2575V59.692H24.3655C24.3015 59.988 24.1815 60.244 24.0055 60.46C23.8375 60.668 23.6255 60.828 23.3695 60.94C23.1135 61.052 22.8215 61.108 22.4935 61.108ZM22.6495 54.364L21.0175 51.94H22.2535L23.4895 54.364H22.6495ZM32.7992 61.108C32.1992 61.108 31.6792 60.984 31.2392 60.736C30.8072 60.48 30.4712 60.124 30.2312 59.668C29.9912 59.204 29.8712 58.66 29.8712 58.036C29.8712 57.42 29.9912 56.888 30.2312 56.44C30.4712 55.992 30.8072 55.648 31.2392 55.408C31.6792 55.16 32.1992 55.036 32.7992 55.036C33.1672 55.036 33.5312 55.1 33.8912 55.228C34.2512 55.348 34.5472 55.524 34.7792 55.756L34.3952 56.608C34.1792 56.4 33.9352 56.248 33.6632 56.152C33.3912 56.048 33.1352 55.996 32.8952 55.996C32.3272 55.996 31.8872 56.176 31.5752 56.536C31.2712 56.888 31.1192 57.392 31.1192 58.048C31.1192 58.704 31.2712 59.22 31.5752 59.596C31.8872 59.964 32.3272 60.148 32.8952 60.148C33.1352 60.148 33.3912 60.1 33.6632 60.004C33.9352 59.9 34.1792 59.744 34.3952 59.536L34.7792 60.4C34.5472 60.616 34.2472 60.788 33.8792 60.916C33.5192 61.044 33.1592 61.108 32.7992 61.108ZM38.2476 61.108C37.6556 61.108 37.1436 60.984 36.7116 60.736C36.2876 60.488 35.9556 60.136 35.7156 59.68C35.4756 59.224 35.3556 58.688 35.3556 58.072C35.3556 57.448 35.4756 56.912 35.7156 56.464C35.9556 56.008 36.2876 55.656 36.7116 55.408C37.1436 55.16 37.6556 55.036 38.2476 55.036C38.8316 55.036 39.3356 55.16 39.7596 55.408C40.1916 55.656 40.5276 56.008 40.7676 56.464C41.0076 56.92 41.1276 57.456 41.1276 58.072C41.1276 58.688 41.0076 59.224 40.7676 59.68C40.5276 60.136 40.1916 60.488 39.7596 60.736C39.3356 60.984 38.8316 61.108 38.2476 61.108ZM38.2356 60.172C38.7396 60.172 39.1436 59.992 39.4476 59.632C39.7516 59.272 39.9036 58.752 39.9036 58.072C39.9036 57.384 39.7516 56.864 39.4476 56.512C39.1436 56.16 38.7396 55.984 38.2356 55.984C37.7396 55.984 37.3396 56.16 37.0356 56.512C36.7316 56.864 36.5796 57.384 36.5796 58.072C36.5796 58.752 36.7316 59.272 37.0356 59.632C37.3396 59.992 37.7396 60.172 38.2356 60.172ZM42.4887 61V55.144H43.6647V56.392H43.5327C43.7087 55.944 43.9847 55.608 44.3607 55.384C44.7367 55.152 45.1687 55.036 45.6567 55.036C46.1207 55.036 46.5047 55.124 46.8087 55.3C47.1207 55.468 47.3527 55.728 47.5047 56.08C47.6567 56.424 47.7327 56.86 47.7327 57.388V61H46.5207V57.46C46.5207 57.124 46.4767 56.852 46.3887 56.644C46.3007 56.428 46.1687 56.268 45.9927 56.164C45.8167 56.06 45.5887 56.008 45.3087 56.008C44.9887 56.008 44.7047 56.076 44.4567 56.212C44.2167 56.348 44.0287 56.544 43.8927 56.8C43.7647 57.056 43.7007 57.352 43.7007 57.688V61H42.4887ZM51.6348 61.108C51.1228 61.108 50.6708 60.988 50.2788 60.748C49.8948 60.5 49.5948 60.148 49.3788 59.692C49.1628 59.228 49.0548 58.688 49.0548 58.072C49.0548 57.44 49.1628 56.9 49.3788 56.452C49.5948 56.004 49.8948 55.656 50.2788 55.408C50.6708 55.16 51.1228 55.036 51.6348 55.036C52.1468 55.036 52.5868 55.164 52.9548 55.42C53.3308 55.668 53.5828 56.004 53.7108 56.428H53.5788V52.54H54.7908V61H53.6028V59.68H53.7228C53.5948 60.112 53.3428 60.46 52.9668 60.724C52.5988 60.98 52.1548 61.108 51.6348 61.108ZM51.9468 60.172C52.4428 60.172 52.8428 59.992 53.1468 59.632C53.4508 59.272 53.6028 58.752 53.6028 58.072C53.6028 57.384 53.4508 56.864 53.1468 56.512C52.8428 56.16 52.4428 55.984 51.9468 55.984C51.4428 55.984 51.0388 56.16 50.7348 56.512C50.4308 56.864 50.2788 57.384 50.2788 58.072C50.2788 58.752 50.4308 59.272 50.7348 59.632C51.0388 59.992 51.4428 60.172 51.9468 60.172ZM58.5806 61.108C58.1086 61.108 57.7126 61.02 57.3926 60.844C57.0806 60.668 56.8446 60.408 56.6846 60.064C56.5326 59.712 56.4566 59.272 56.4566 58.744V55.144H57.6686V58.756C57.6686 59.068 57.7086 59.328 57.7886 59.536C57.8766 59.744 58.0086 59.896 58.1846 59.992C58.3686 60.088 58.5966 60.136 58.8686 60.136C59.1726 60.136 59.4406 60.068 59.6726 59.932C59.9046 59.796 60.0846 59.6 60.2126 59.344C60.3406 59.088 60.4046 58.792 60.4046 58.456V55.144H61.6166V61H60.4406V59.716H60.5966C60.4366 60.164 60.1806 60.508 59.8286 60.748C59.4766 60.988 59.0606 61.108 58.5806 61.108ZM63.2167 53.788V52.528H64.6327V53.788H63.2167ZM63.3247 61V55.144H64.5367V61H63.3247ZM66.2426 61V55.144H67.4186V56.548H67.2986C67.4266 56.068 67.6546 55.704 67.9826 55.456C68.3186 55.208 68.7626 55.064 69.3146 55.024L69.7106 55L69.7946 56.032L69.0626 56.104C68.5426 56.152 68.1466 56.316 67.8746 56.596C67.6026 56.876 67.4666 57.26 67.4666 57.748V61H66.2426ZM73.3852 61.108C72.7452 61.108 72.1932 60.988 71.7292 60.748C71.2732 60.5 70.9172 60.152 70.6612 59.704C70.4132 59.248 70.2892 58.708 70.2892 58.084C70.2892 57.476 70.4132 56.944 70.6612 56.488C70.9092 56.032 71.2492 55.676 71.6812 55.42C72.1132 55.164 72.6052 55.036 73.1572 55.036C73.7012 55.036 74.1652 55.156 74.5492 55.396C74.9412 55.628 75.2412 55.96 75.4492 56.392C75.6572 56.824 75.7612 57.34 75.7612 57.94V58.348H71.2492V57.604H74.9452L74.7412 57.772C74.7412 57.172 74.6092 56.708 74.3452 56.38C74.0812 56.052 73.7012 55.888 73.2052 55.888C72.8292 55.888 72.5092 55.976 72.2452 56.152C71.9892 56.328 71.7932 56.572 71.6572 56.884C71.5212 57.196 71.4532 57.56 71.4532 57.976V58.048C71.4532 58.512 71.5252 58.904 71.6692 59.224C71.8212 59.536 72.0412 59.772 72.3292 59.932C72.6172 60.092 72.9732 60.172 73.3972 60.172C73.7332 60.172 74.0612 60.12 74.3812 60.016C74.7092 59.904 75.0172 59.732 75.3052 59.5L75.6652 60.34C75.4012 60.58 75.0612 60.768 74.6452 60.904C74.2292 61.04 73.8092 61.108 73.3852 61.108Z" fill="black"/>
<path d="M25.6576 71.11C24.8802 71.11 24.2129 70.9487 23.6556 70.626C23.0982 70.296 22.6692 69.834 22.3686 69.24C22.0679 68.646 21.9176 67.9383 21.9176 67.117C21.9176 66.2957 22.0679 65.5917 22.3686 65.005C22.6692 64.411 23.0982 63.9527 23.6556 63.63C24.2129 63.3073 24.8802 63.146 25.6576 63.146C26.1856 63.146 26.6769 63.2267 27.1316 63.388C27.5936 63.5493 27.9786 63.7877 28.2866 64.103L27.8796 65.016C27.5422 64.7227 27.1976 64.51 26.8456 64.378C26.4936 64.246 26.1086 64.18 25.6906 64.18C24.8692 64.18 24.2386 64.433 23.7986 64.939C23.3586 65.445 23.1386 66.171 23.1386 67.117C23.1386 68.063 23.3586 68.7927 23.7986 69.306C24.2386 69.812 24.8692 70.065 25.6906 70.065C26.1086 70.065 26.4936 69.999 26.8456 69.867C27.1976 69.735 27.5422 69.5223 27.8796 69.229L28.2866 70.142C27.9786 70.45 27.5936 70.6883 27.1316 70.857C26.6769 71.0257 26.1856 71.11 25.6576 71.11ZM29.5801 71V63.245H30.7021V66.743H30.5921C30.7534 66.347 31.0064 66.0427 31.3511 65.83C31.6958 65.6173 32.0881 65.511 32.5281 65.511C32.9681 65.511 33.3274 65.5917 33.6061 65.753C33.8921 65.907 34.1048 66.1453 34.2441 66.468C34.3908 66.7907 34.4641 67.1977 34.4641 67.689V71H33.3311V67.755C33.3311 67.4543 33.2908 67.2087 33.2101 67.018C33.1368 66.82 33.0158 66.6733 32.8471 66.578C32.6858 66.4753 32.4768 66.424 32.2201 66.424C31.9194 66.424 31.6554 66.49 31.4281 66.622C31.2008 66.754 31.0248 66.9373 30.9001 67.172C30.7754 67.3993 30.7131 67.6633 30.7131 67.964V71H29.5801ZM37.8284 71.099C37.4471 71.099 37.1061 71.0257 36.8054 70.879C36.5047 70.7323 36.2664 70.5343 36.0904 70.285C35.9217 70.0283 35.8374 69.746 35.8374 69.438C35.8374 69.0347 35.9401 68.7193 36.1454 68.492C36.3581 68.2573 36.6991 68.0887 37.1684 67.986C37.6451 67.8833 38.2757 67.832 39.0604 67.832H39.6434V68.536H39.0824C38.6864 68.536 38.3527 68.5507 38.0814 68.58C37.8101 68.602 37.5901 68.646 37.4214 68.712C37.2601 68.7707 37.1427 68.855 37.0694 68.965C36.9961 69.075 36.9594 69.2107 36.9594 69.372C36.9594 69.6433 37.0547 69.8633 37.2454 70.032C37.4434 70.2007 37.7111 70.285 38.0484 70.285C38.3271 70.285 38.5727 70.219 38.7854 70.087C38.9981 69.955 39.1667 69.779 39.2914 69.559C39.4161 69.339 39.4784 69.086 39.4784 68.8V67.546C39.4784 67.1353 39.3831 66.842 39.1924 66.666C39.0091 66.4827 38.7084 66.391 38.2904 66.391C37.9824 66.391 37.6707 66.4387 37.3554 66.534C37.0474 66.622 36.7321 66.765 36.4094 66.963L36.0574 66.16C36.2627 66.028 36.4901 65.9143 36.7394 65.819C36.9961 65.7163 37.2637 65.6393 37.5424 65.588C37.8211 65.5367 38.0924 65.511 38.3564 65.511C38.8477 65.511 39.2547 65.588 39.5774 65.742C39.9074 65.896 40.1567 66.1307 40.3254 66.446C40.4941 66.7613 40.5784 67.1683 40.5784 67.667V71H39.5334V69.812H39.5994C39.5334 70.0687 39.4161 70.296 39.2474 70.494C39.0861 70.6847 38.8844 70.835 38.6424 70.945C38.4077 71.0477 38.1364 71.099 37.8284 71.099ZM42.17 72.98V65.61H43.259V66.809H43.182C43.3066 66.4057 43.5413 66.0903 43.886 65.863C44.2306 65.6283 44.6376 65.511 45.107 65.511C45.591 65.511 46.0126 65.6247 46.372 65.852C46.7313 66.0793 47.01 66.402 47.208 66.82C47.406 67.238 47.505 67.733 47.505 68.305C47.505 68.8697 47.406 69.3647 47.208 69.79C47.01 70.208 46.7313 70.5307 46.372 70.758C46.02 70.9853 45.5983 71.099 45.107 71.099C44.645 71.099 44.2453 70.9853 43.908 70.758C43.5706 70.5233 43.336 70.219 43.204 69.845H43.303V72.98H42.17ZM44.821 70.219C45.2903 70.219 45.6643 70.054 45.943 69.724C46.2216 69.3867 46.361 68.9137 46.361 68.305C46.361 67.6817 46.2216 67.2087 45.943 66.886C45.6643 66.5633 45.2903 66.402 44.821 66.402C44.3516 66.402 43.9776 66.5633 43.699 66.886C43.4276 67.2087 43.292 67.6817 43.292 68.305C43.292 68.9137 43.4313 69.3867 43.71 69.724C43.9886 70.054 44.359 70.219 44.821 70.219ZM48.7096 64.367V63.19H50.0296V64.367H48.7096ZM48.8086 71V65.61H49.9416V71H48.8086ZM53.9014 71.099C53.2194 71.099 52.7097 70.9267 52.3724 70.582C52.035 70.23 51.8664 69.724 51.8664 69.064V66.49H50.8214V65.61H51.8884V64.004H52.9994V65.61H54.7264V66.49H53.0104V68.987C53.0104 69.3683 53.091 69.658 53.2524 69.856C53.421 70.054 53.6924 70.153 54.0664 70.153C54.191 70.153 54.312 70.1383 54.4294 70.109C54.5467 70.0797 54.664 70.0467 54.7814 70.01L54.9574 70.868C54.8327 70.9413 54.6714 70.9963 54.4734 71.033C54.2754 71.077 54.0847 71.099 53.9014 71.099ZM55.7696 71V65.61H56.8586V66.897H56.7706C56.8952 66.4643 57.1116 66.1343 57.4196 65.907C57.7276 65.6797 58.1272 65.5477 58.6186 65.511L59.0256 65.478L59.1136 66.468L58.3876 66.534C57.9109 66.578 57.5442 66.732 57.2876 66.996C57.0382 67.2527 56.9136 67.601 56.9136 68.041V71H55.7696ZM62.533 71.099C61.939 71.099 61.4257 70.989 60.993 70.769C60.5604 70.5417 60.2267 70.219 59.992 69.801C59.7647 69.383 59.651 68.888 59.651 68.316C59.651 67.7587 59.761 67.271 59.981 66.853C60.2084 66.435 60.52 66.1087 60.916 65.874C61.3194 65.632 61.785 65.511 62.313 65.511C62.819 65.511 63.2517 65.621 63.611 65.841C63.9704 66.061 64.249 66.3727 64.447 66.776C64.645 67.172 64.744 67.6487 64.744 68.206V68.58H60.531V67.876H63.963L63.787 68.041C63.787 67.491 63.6624 67.0693 63.413 66.776C63.1637 66.4753 62.808 66.325 62.346 66.325C62.0014 66.325 61.708 66.402 61.466 66.556C61.2314 66.71 61.048 66.9263 60.916 67.205C60.7914 67.4837 60.729 67.8173 60.729 68.206V68.283C60.729 68.7083 60.7987 69.064 60.938 69.35C61.0774 69.636 61.2827 69.8523 61.554 69.999C61.8254 70.1383 62.159 70.208 62.555 70.208C62.8557 70.208 63.1564 70.164 63.457 70.076C63.7577 69.9807 64.04 69.8303 64.304 69.625L64.645 70.406C64.3884 70.626 64.0694 70.7983 63.688 70.923C63.3067 71.0403 62.9217 71.099 62.533 71.099ZM69.0817 71V70.142L71.6777 67.37C71.927 67.106 72.1214 66.864 72.2607 66.644C72.4074 66.424 72.5137 66.2113 72.5797 66.006C72.653 65.7933 72.6897 65.5843 72.6897 65.379C72.6897 64.9757 72.5614 64.6677 72.3047 64.455C72.0554 64.2423 71.6924 64.136 71.2157 64.136C70.849 64.136 70.497 64.2057 70.1597 64.345C69.8224 64.477 69.4997 64.686 69.1917 64.972L68.7847 64.092C69.0854 63.806 69.463 63.5787 69.9177 63.41C70.3724 63.234 70.8454 63.146 71.3367 63.146C71.872 63.146 72.323 63.2303 72.6897 63.399C73.0637 63.5603 73.346 63.8023 73.5367 64.125C73.7347 64.4403 73.8337 64.8253 73.8337 65.28C73.8337 65.5147 73.8044 65.742 73.7457 65.962C73.6944 66.182 73.61 66.402 73.4927 66.622C73.3827 66.842 73.2397 67.0693 73.0637 67.304C72.895 67.5313 72.6897 67.7697 72.4477 68.019L70.3027 70.285V70.032H74.1307V71H69.0817Z" fill="#667085"/>
<defs>
<filter id="filter0_d_8310_820" x="0" y="0" width="96" height="85.8462" filterUnits="userSpaceOnUse" color-interpolation-filters="sRGB">
<feFlood flood-opacity="0" result="BackgroundImageFix"/>
<feColorMatrix in="SourceAlpha" type="matrix" values="0 0 0 0 0 0 0 0 0 0 0 0 0 0 0 0 0 0 127 0" result="hardAlpha"/>
<feOffset dy="4"/>
<feGaussianBlur stdDeviation="2"/>
<feComposite in2="hardAlpha" operator="out"/>
<feColorMatrix type="matrix" values="0 0 0 0 0 0 0 0 0 0 0 0 0 0 0 0 0 0 0.25 0"/>
<feBlend mode="normal" in2="BackgroundImageFix" result="effect1_dropShadow_8310_820"/>
<feBlend mode="normal" in="SourceGraphic" in2="effect1_dropShadow_8310_820" result="shape"/>
</filter>
<clipPath id="clip0_8310_820">
<rect width="30" height="30" fill="white" transform="translate(33 2)"/>
</clipPath>
</defs>
</svg>
