<svg width="96" height="86" viewBox="0 0 96 86" fill="none" xmlns="http://www.w3.org/2000/svg">
<g filter="url(#filter0_d_8310_691)">
<path d="M5.37285 42.5185C4.62083 41.2089 4.24484 40.5536 4.09767 39.8574C3.96744 39.2412 3.96744 38.6048 4.09767 37.9886C4.24484 37.2924 4.62083 36.6371 5.37285 35.3274L23.5901 3.59555C24.3421 2.28569 24.7181 1.63076 25.2442 1.15444C25.7096 0.732998 26.2579 0.414612 26.8535 0.220002C27.5267 -2.00917e-07 28.2787 0 29.7827 0H66.2171C67.7214 0 68.4731 -2.00917e-07 69.1466 0.220002C69.7419 0.414612 70.2903 0.732998 70.756 1.15444C71.282 1.63076 71.6578 2.28569 72.41 3.59555L90.6271 35.3274C91.3792 36.6371 91.7551 37.2924 91.9021 37.9886C92.0326 38.6048 92.0326 39.2412 91.9021 39.8574C91.7551 40.5536 91.3792 41.2089 90.6271 42.5185L72.41 74.2506C71.6578 75.5603 71.282 76.2151 70.756 76.6915C70.2903 77.1131 69.7419 77.4313 69.1466 77.6259C68.4731 77.8462 67.7214 77.8462 66.2171 77.8462H29.7827C28.2787 77.8462 27.5267 77.8462 26.8535 77.6259C26.2579 77.4313 25.7096 77.1131 25.2442 76.6915C24.7181 76.2151 24.3421 75.5603 23.5901 74.2506L5.37285 42.5185Z" fill="white"/>
</g>
<path d="M52.2051 18.5H41.2051C40.1051 18.5 39.2051 19.4 39.2051 20.5V40.5C39.2051 41.6 40.1051 42.5 41.2051 42.5H55.2051C56.3051 42.5 57.2051 41.6 57.2051 40.5V23.5L52.2051 18.5Z" fill="#F2BB41" stroke="#F2BB41" stroke-width="2" stroke-miterlimit="10" stroke-linecap="round" stroke-linejoin="round"/>
<path d="M52.2051 18.5V23.5H57.2051L52.2051 18.5Z" fill="#E08838" stroke="#E08838" stroke-width="2" stroke-miterlimit="10" stroke-linecap="round" stroke-linejoin="round"/>
<path d="M29.0588 63.216C28.9148 62.656 28.7908 62.132 28.6868 61.644C28.5908 61.164 28.5188 60.728 28.4708 60.336C28.4228 59.952 28.3988 59.624 28.3988 59.352C28.3988 58.792 28.4908 58.324 28.6748 57.948C28.8668 57.572 29.1188 57.272 29.4308 57.048C29.7508 56.816 30.0988 56.652 30.4748 56.556C30.8508 56.452 31.2268 56.4 31.6028 56.4C31.9868 56.4 32.3388 56.432 32.6588 56.496C32.6748 56.248 32.6548 56.024 32.5988 55.824C32.5508 55.624 32.4748 55.452 32.3708 55.308C32.2748 55.164 32.1548 55.052 32.0108 54.972C31.8748 54.892 31.7268 54.852 31.5668 54.852C31.4148 54.852 31.2628 54.892 31.1108 54.972C30.9588 55.044 30.8148 55.152 30.6788 55.296C30.5508 55.44 30.4268 55.624 30.3068 55.848L28.9988 55.128C29.2148 54.64 29.4708 54.256 29.7668 53.976C30.0628 53.688 30.3708 53.484 30.6908 53.364C31.0188 53.236 31.3388 53.172 31.6508 53.172C32.1308 53.172 32.5428 53.276 32.8868 53.484C33.2388 53.684 33.5228 53.948 33.7388 54.276C33.9548 54.596 34.1148 54.94 34.2188 55.308C34.3228 55.676 34.3748 56.028 34.3748 56.364C34.3748 56.62 34.3468 56.876 34.2908 57.132C34.2428 57.38 34.1828 57.604 34.1108 57.804C34.0468 58.004 33.9828 58.16 33.9188 58.272C33.4788 58.152 33.0628 58.064 32.6708 58.008C32.2788 57.952 31.9228 57.936 31.6028 57.96C31.2908 57.976 31.0188 58.04 30.7868 58.152C30.5628 58.256 30.3868 58.412 30.2588 58.62C30.1388 58.828 30.0788 59.092 30.0788 59.412C30.0788 59.708 30.1028 60.044 30.1508 60.42C30.1988 60.804 30.2668 61.2 30.3548 61.608C30.4428 62.016 30.5428 62.42 30.6548 62.82L29.0588 63.216ZM38.597 58.56C37.853 58.56 37.277 58.484 36.869 58.332C36.469 58.18 36.189 57.944 36.029 57.624C35.869 57.296 35.777 56.884 35.753 56.388L35.501 49.716H37.181L37.433 55.584C37.449 55.952 37.489 56.228 37.553 56.412C37.617 56.596 37.737 56.72 37.913 56.784C38.097 56.848 38.365 56.88 38.717 56.88C39.021 56.88 39.237 56.96 39.365 57.12C39.501 57.272 39.569 57.464 39.569 57.696C39.569 57.944 39.485 58.152 39.317 58.32C39.149 58.48 38.909 58.56 38.597 58.56ZM38.6133 58.56L38.7333 56.88C39.0853 56.88 39.3613 56.856 39.5613 56.808C39.7693 56.76 39.9173 56.672 40.0053 56.544C40.0933 56.408 40.1373 56.216 40.1373 55.968C40.1373 55.744 40.1053 55.476 40.0413 55.164C39.9853 54.852 39.9093 54.528 39.8133 54.192C39.7173 53.856 39.6213 53.548 39.5253 53.268L41.1813 52.812C41.2773 53.084 41.3733 53.4 41.4693 53.76C41.5653 54.12 41.6453 54.492 41.7093 54.876C41.7813 55.252 41.8173 55.616 41.8173 55.968C41.8173 56.408 41.7613 56.78 41.6493 57.084C41.5373 57.38 41.3813 57.628 41.1813 57.828C40.9893 58.02 40.7573 58.172 40.4853 58.284C40.2213 58.388 39.9293 58.46 39.6093 58.5C39.2893 58.54 38.9573 58.56 38.6133 58.56ZM40.3413 51.816C40.0933 51.816 39.8813 51.732 39.7053 51.564C39.5373 51.396 39.4533 51.188 39.4533 50.94C39.4533 50.692 39.5373 50.48 39.7053 50.304C39.8813 50.128 40.0933 50.04 40.3413 50.04C40.5813 50.04 40.7853 50.128 40.9533 50.304C41.1293 50.48 41.2173 50.692 41.2173 50.94C41.2173 51.188 41.1293 51.396 40.9533 51.564C40.7853 51.732 40.5813 51.816 40.3413 51.816ZM50.6742 58.752L50.9862 57.072C51.5622 57.072 52.1142 57.044 52.6422 56.988C53.1782 56.932 53.6862 56.82 54.1662 56.652C54.6542 56.484 55.1102 56.236 55.5342 55.908C55.9582 55.58 56.3422 55.14 56.6862 54.588L58.0302 55.2C57.9822 55.352 57.9422 55.5 57.9102 55.644C57.8782 55.78 57.8622 55.892 57.8622 55.98C57.8622 56.164 57.9062 56.324 57.9942 56.46C58.0902 56.596 58.2502 56.7 58.4742 56.772C58.6982 56.844 59.0062 56.88 59.3982 56.88C59.7022 56.88 59.9182 56.96 60.0462 57.12C60.1742 57.272 60.2382 57.464 60.2382 57.696C60.2382 57.944 60.1542 58.152 59.9862 58.32C59.8262 58.48 59.5902 58.56 59.2782 58.56C58.7262 58.56 58.2462 58.484 57.8382 58.332C57.4382 58.18 57.1222 57.968 56.8902 57.696C56.6662 57.416 56.5342 57.096 56.4942 56.736L56.9742 56.784C56.6862 57.128 56.3262 57.424 55.8942 57.672C55.4702 57.92 54.9862 58.124 54.4422 58.284C53.9062 58.444 53.3182 58.56 52.6782 58.632C52.0462 58.712 51.3782 58.752 50.6742 58.752ZM50.6622 58.752C49.7982 58.752 49.0662 58.684 48.4662 58.548C47.8742 58.42 47.3902 58.236 47.0142 57.996C46.6462 57.748 46.3782 57.46 46.2102 57.132C46.0422 56.804 45.9582 56.444 45.9582 56.052C45.9582 55.796 45.9782 55.54 46.0182 55.284C46.0662 55.02 46.1222 54.764 46.1862 54.516C46.2582 54.268 46.3222 54.044 46.3782 53.844L47.8782 54.192C47.8462 54.336 47.8102 54.492 47.7702 54.66C47.7302 54.828 47.6982 54.992 47.6742 55.152C47.6502 55.304 47.6382 55.444 47.6382 55.572C47.6382 55.868 47.7422 56.132 47.9502 56.364C48.1662 56.588 48.5182 56.764 49.0062 56.892C49.4942 57.012 50.1502 57.072 50.9742 57.072L51.2142 58.368L50.6622 58.752ZM52.8942 53.268C52.6622 53.268 52.4622 53.188 52.2942 53.028C52.1342 52.86 52.0542 52.664 52.0542 52.44C52.0542 52.208 52.1342 52.008 52.2942 51.84C52.4622 51.672 52.6622 51.588 52.8942 51.588C53.1182 51.588 53.3102 51.672 53.4702 51.84C53.6302 52.008 53.7102 52.208 53.7102 52.44C53.7102 52.664 53.6302 52.86 53.4702 53.028C53.3102 53.188 53.1182 53.268 52.8942 53.268ZM50.8182 53.256C50.5862 53.256 50.3862 53.176 50.2182 53.016C50.0582 52.848 49.9782 52.652 49.9782 52.428C49.9782 52.196 50.0582 51.996 50.2182 51.828C50.3862 51.66 50.5862 51.576 50.8182 51.576C51.0422 51.576 51.2342 51.66 51.3942 51.828C51.5542 51.996 51.6342 52.196 51.6342 52.428C51.6342 52.652 51.5542 52.848 51.3942 53.016C51.2342 53.176 51.0422 53.256 50.8182 53.256ZM59.2734 58.56L59.3934 56.88C59.6974 56.88 59.9374 56.852 60.1134 56.796C60.2974 56.74 60.4414 56.628 60.5454 56.46C60.6574 56.284 60.7494 56.028 60.8214 55.692C60.9014 55.356 60.9814 54.908 61.0614 54.348L62.6334 54.612C62.6174 54.732 62.5934 54.872 62.5614 55.032C62.5374 55.192 62.5134 55.356 62.4894 55.524C62.4734 55.684 62.4654 55.836 62.4654 55.98C62.4654 56.172 62.5054 56.336 62.5854 56.472C62.6734 56.6 62.8254 56.7 63.0414 56.772C63.2654 56.844 63.5854 56.88 64.0014 56.88C64.3054 56.88 64.5214 56.96 64.6494 57.12C64.7774 57.272 64.8414 57.464 64.8414 57.696C64.8414 57.944 64.7574 58.152 64.5894 58.32C64.4294 58.48 64.1934 58.56 63.8814 58.56C63.3294 58.56 62.8814 58.508 62.5374 58.404C62.1934 58.3 61.9374 58.124 61.7694 57.876C61.6014 57.628 61.4934 57.288 61.4454 56.856H62.0214C61.8774 57.24 61.7094 57.548 61.5174 57.78C61.3254 58.004 61.1094 58.172 60.8694 58.284C60.6294 58.396 60.3734 58.468 60.1014 58.5C59.8374 58.54 59.5614 58.56 59.2734 58.56ZM61.4094 61.32C61.1774 61.32 60.9774 61.24 60.8094 61.08C60.6494 60.92 60.5694 60.724 60.5694 60.492C60.5694 60.26 60.6494 60.056 60.8094 59.88C60.9774 59.712 61.1774 59.628 61.4094 59.628C61.6414 59.628 61.8374 59.712 61.9974 59.88C62.1654 60.056 62.2494 60.26 62.2494 60.492C62.2494 60.724 62.1654 60.92 61.9974 61.08C61.8374 61.24 61.6414 61.32 61.4094 61.32ZM63.8789 58.56L63.9989 56.88C64.4789 56.88 64.8469 56.856 65.1029 56.808C65.3589 56.76 65.5349 56.672 65.6309 56.544C65.7349 56.408 65.7869 56.216 65.7869 55.968C65.7869 55.744 65.7549 55.476 65.6909 55.164C65.6349 54.852 65.5589 54.528 65.4629 54.192C65.3749 53.856 65.2789 53.548 65.1749 53.268L66.8309 52.812C66.9349 53.084 67.0349 53.4 67.1309 53.76C67.2269 54.12 67.3069 54.492 67.3709 54.876C67.4349 55.252 67.4669 55.616 67.4669 55.968C67.4669 56.512 67.3789 56.956 67.2029 57.3C67.0269 57.636 66.7789 57.896 66.4589 58.08C66.1469 58.264 65.7709 58.392 65.3309 58.464C64.8909 58.528 64.4069 58.56 63.8789 58.56ZM66.1709 50.232C65.9709 50.232 65.7949 50.156 65.6429 50.004C65.4989 49.852 65.4269 49.672 65.4269 49.464C65.4269 49.256 65.4989 49.08 65.6429 48.936C65.7949 48.792 65.9709 48.72 66.1709 48.72C66.3789 48.72 66.5549 48.792 66.6989 48.936C66.8429 49.08 66.9149 49.256 66.9149 49.464C66.9149 49.672 66.8429 49.852 66.6989 50.004C66.5549 50.156 66.3789 50.232 66.1709 50.232ZM65.2109 51.816C65.0109 51.816 64.8349 51.74 64.6829 51.588C64.5389 51.436 64.4669 51.256 64.4669 51.048C64.4669 50.84 64.5389 50.664 64.6829 50.52C64.8349 50.376 65.0109 50.304 65.2109 50.304C65.4189 50.304 65.5949 50.376 65.7389 50.52C65.8829 50.664 65.9549 50.84 65.9549 51.048C65.9549 51.256 65.8829 51.436 65.7389 51.588C65.5949 51.74 65.4189 51.816 65.2109 51.816ZM67.0709 51.816C66.8709 51.816 66.6949 51.74 66.5429 51.588C66.3989 51.436 66.3269 51.256 66.3269 51.048C66.3269 50.84 66.3989 50.664 66.5429 50.52C66.6949 50.376 66.8709 50.304 67.0709 50.304C67.2789 50.304 67.4549 50.376 67.5989 50.52C67.7429 50.664 67.8149 50.84 67.8149 51.048C67.8149 51.256 67.7429 51.436 67.5989 51.588C67.4549 51.74 67.2789 51.816 67.0709 51.816Z" fill="black"/>
<defs>
<filter id="filter0_d_8310_691" x="0" y="0" width="96" height="85.8462" filterUnits="userSpaceOnUse" color-interpolation-filters="sRGB">
<feFlood flood-opacity="0" result="BackgroundImageFix"/>
<feColorMatrix in="SourceAlpha" type="matrix" values="0 0 0 0 0 0 0 0 0 0 0 0 0 0 0 0 0 0 127 0" result="hardAlpha"/>
<feOffset dy="4"/>
<feGaussianBlur stdDeviation="2"/>
<feComposite in2="hardAlpha" operator="out"/>
<feColorMatrix type="matrix" values="0 0 0 0 0 0 0 0 0 0 0 0 0 0 0 0 0 0 0.25 0"/>
<feBlend mode="normal" in2="BackgroundImageFix" result="effect1_dropShadow_8310_691"/>
<feBlend mode="normal" in="SourceGraphic" in2="effect1_dropShadow_8310_691" result="shape"/>
</filter>
</defs>
</svg>
