<svg width="96" height="86" viewBox="0 0 96 86" fill="none" xmlns="http://www.w3.org/2000/svg">
<g filter="url(#filter0_d_8310_972)">
<path d="M5.37285 42.5185C4.62083 41.2089 4.24484 40.5536 4.09767 39.8574C3.96744 39.2412 3.96744 38.6048 4.09767 37.9886C4.24484 37.2924 4.62083 36.6371 5.37285 35.3274L23.5901 3.59555C24.3421 2.28569 24.7181 1.63076 25.2442 1.15444C25.7096 0.732998 26.2579 0.414612 26.8535 0.220002C27.5267 -2.00917e-07 28.2787 0 29.7827 0H66.2171C67.7214 0 68.4731 -2.00917e-07 69.1466 0.220002C69.7419 0.414612 70.2903 0.732998 70.756 1.15444C71.282 1.63076 71.6578 2.28569 72.41 3.59555L90.6271 35.3274C91.3792 36.6371 91.7551 37.2924 91.9021 37.9886C92.0326 38.6048 92.0326 39.2412 91.9021 39.8574C91.7551 40.5536 91.3792 41.2089 90.6271 42.5185L72.41 74.2506C71.6578 75.5603 71.282 76.2151 70.756 76.6915C70.2903 77.1131 69.7419 77.4313 69.1466 77.6259C68.4731 77.8462 67.7214 77.8462 66.2171 77.8462H29.7827C28.2787 77.8462 27.5267 77.8462 26.8535 77.6259C26.2579 77.4313 25.7096 77.1131 25.2442 76.6915C24.7181 76.2151 24.3421 75.5603 23.5901 74.2506L5.37285 42.5185Z" fill="white"/>
</g>
<path d="M58.2051 10.5H38.2051C36.8244 10.5 35.7051 11.6193 35.7051 13V33C35.7051 34.3807 36.8244 35.5 38.2051 35.5H58.2051C59.5858 35.5 60.7051 34.3807 60.7051 33V13C60.7051 11.6193 59.5858 10.5 58.2051 10.5Z" fill="#F2BB41"/>
<path d="M54.4551 24.2499H45.7051V21.0124L46.0676 21.3874C46.1838 21.5046 46.322 21.5976 46.4743 21.661C46.6267 21.7245 46.7901 21.7572 46.9551 21.7572C47.1201 21.7572 47.2835 21.7245 47.4358 21.661C47.5881 21.5976 47.7264 21.5046 47.8426 21.3874C47.9597 21.2712 48.0527 21.133 48.1162 20.9806C48.1796 20.8283 48.2123 20.6649 48.2123 20.4999C48.2123 20.3349 48.1796 20.1715 48.1162 20.0192C48.0527 19.8669 47.9597 19.7286 47.8426 19.6124L45.3426 17.1124C45.2264 16.9953 45.0881 16.9023 44.9358 16.8388C44.7835 16.7753 44.6201 16.7427 44.4551 16.7427C44.2901 16.7427 44.1267 16.7753 43.9743 16.8388C43.822 16.9023 43.6838 16.9953 43.5676 17.1124L41.0676 19.6124C40.951 19.729 40.8586 19.8673 40.7955 20.0196C40.7324 20.1719 40.7 20.3351 40.7 20.4999C40.7 20.8328 40.8322 21.152 41.0676 21.3874C41.3029 21.6228 41.6222 21.755 41.9551 21.755C42.2879 21.755 42.6072 21.6228 42.8426 21.3874L43.2051 21.0124V24.2499C43.2051 24.913 43.4685 25.5488 43.9373 26.0177C44.4061 26.4865 45.042 26.7499 45.7051 26.7499H54.4551C54.7866 26.7499 55.1045 26.6182 55.3389 26.3838C55.5734 26.1494 55.7051 25.8314 55.7051 25.4999C55.7051 25.1684 55.5734 24.8505 55.3389 24.616C55.1045 24.3816 54.7866 24.2499 54.4551 24.2499Z" fill="#E08838"/>
<path d="M18.9606 55.716C18.7766 55.06 18.6246 54.436 18.5046 53.844C18.3846 53.26 18.2966 52.728 18.2406 52.248C18.1846 51.776 18.1566 51.38 18.1566 51.06C18.1566 50.348 18.2686 49.716 18.4926 49.164C18.7246 48.604 19.0206 48.124 19.3806 47.724C19.7486 47.316 20.1406 46.98 20.5566 46.716C20.9806 46.452 21.3886 46.256 21.7806 46.128C22.1806 46 22.5206 45.936 22.8006 45.936C23.0886 45.936 23.3246 46.012 23.5086 46.164C23.7006 46.316 23.8686 46.536 24.0126 46.824C24.1646 47.104 24.3246 47.444 24.4926 47.844C24.6846 48.276 24.8526 48.604 24.9966 48.828C25.1486 49.044 25.3046 49.192 25.4646 49.272C25.6246 49.344 25.8046 49.38 26.0046 49.38C26.3086 49.38 26.5286 49.46 26.6646 49.62C26.8006 49.772 26.8686 49.964 26.8686 50.196C26.8686 50.444 26.7846 50.652 26.6166 50.82C26.4486 50.98 26.2046 51.06 25.8846 51.06C25.4926 51.06 25.1526 50.996 24.8646 50.868C24.5766 50.732 24.3166 50.54 24.0846 50.292L24.4206 49.92C24.3486 50.168 24.2486 50.392 24.1206 50.592C24.0006 50.784 23.8366 50.936 23.6286 51.048C23.4286 51.16 23.1766 51.216 22.8726 51.216C22.6006 51.216 22.3286 51.176 22.0566 51.096C21.7926 51.016 21.5326 50.896 21.2766 50.736C21.0286 50.576 20.7886 50.38 20.5566 50.148C20.3246 49.908 20.1046 49.632 19.8966 49.32L20.3406 49.236C20.1646 49.508 20.0366 49.812 19.9566 50.148C19.8766 50.484 19.8366 50.816 19.8366 51.144C19.8366 51.4 19.8566 51.696 19.8966 52.032C19.9446 52.376 20.0046 52.736 20.0766 53.112C20.1486 53.496 20.2286 53.872 20.3166 54.24C20.4126 54.616 20.5046 54.96 20.5926 55.272L18.9606 55.716ZM22.8486 49.524C23.0006 49.524 23.1206 49.504 23.2086 49.464C23.3046 49.416 23.3646 49.348 23.3886 49.26C23.4206 49.172 23.4126 49.068 23.3646 48.948C23.2846 48.732 23.2046 48.544 23.1246 48.384C23.0526 48.224 22.9806 48.088 22.9086 47.976C22.8446 47.864 22.7766 47.78 22.7046 47.724C22.6406 47.668 22.5726 47.64 22.5006 47.64C22.3966 47.64 22.2686 47.676 22.1166 47.748C21.9646 47.812 21.8126 47.892 21.6606 47.988C21.5086 48.084 21.3806 48.18 21.2766 48.276C21.1726 48.364 21.1126 48.432 21.0966 48.48L20.9526 48.084C21.0966 48.364 21.2686 48.616 21.4686 48.84C21.6766 49.056 21.9006 49.224 22.1406 49.344C22.3806 49.464 22.6166 49.524 22.8486 49.524ZM25.9102 51.06L26.0302 49.38C26.3182 49.38 26.5662 49.352 26.7742 49.296C26.9822 49.24 27.1582 49.128 27.3022 48.96C27.4462 48.784 27.5662 48.528 27.6622 48.192C27.7662 47.856 27.8582 47.408 27.9382 46.848L29.5102 47.112C29.4942 47.232 29.4702 47.372 29.4382 47.532C29.4142 47.692 29.3902 47.856 29.3662 48.024C29.3502 48.184 29.3422 48.336 29.3422 48.48C29.3422 48.624 29.3702 48.752 29.4262 48.864C29.4822 48.976 29.5702 49.072 29.6902 49.152C29.8182 49.224 29.9822 49.28 30.1822 49.32C30.3902 49.36 30.6422 49.38 30.9382 49.38C31.2422 49.38 31.4582 49.46 31.5862 49.62C31.7142 49.772 31.7782 49.964 31.7782 50.196C31.7782 50.444 31.6942 50.652 31.5262 50.82C31.3662 50.98 31.1302 51.06 30.8182 51.06C30.4582 51.06 30.1302 51.032 29.8342 50.976C29.5462 50.92 29.2942 50.828 29.0782 50.7C28.8702 50.564 28.6982 50.388 28.5622 50.172C28.4342 49.948 28.3542 49.676 28.3222 49.356H28.8982C28.7542 49.74 28.5702 50.048 28.3462 50.28C28.1302 50.504 27.8862 50.672 27.6142 50.784C27.3422 50.896 27.0582 50.968 26.7622 51C26.4742 51.04 26.1902 51.06 25.9102 51.06ZM29.2582 53.844C29.0262 53.844 28.8262 53.76 28.6582 53.592C28.4982 53.432 28.4182 53.24 28.4182 53.016C28.4182 52.784 28.4982 52.584 28.6582 52.416C28.8262 52.248 29.0262 52.164 29.2582 52.164C29.4822 52.164 29.6742 52.248 29.8342 52.416C29.9942 52.584 30.0742 52.784 30.0742 53.016C30.0742 53.24 29.9942 53.432 29.8342 53.592C29.6742 53.76 29.4822 53.844 29.2582 53.844ZM27.1822 53.844C26.9502 53.844 26.7502 53.76 26.5822 53.592C26.4222 53.432 26.3422 53.24 26.3422 53.016C26.3422 52.784 26.4222 52.584 26.5822 52.416C26.7502 52.248 26.9502 52.164 27.1822 52.164C27.4062 52.164 27.5982 52.248 27.7582 52.416C27.9182 52.584 27.9982 52.784 27.9982 53.016C27.9982 53.24 27.9182 53.432 27.7582 53.592C27.5982 53.76 27.4062 53.844 27.1822 53.844ZM38.6683 51.06C38.3003 51.06 37.9563 51.032 37.6363 50.976C37.3243 50.92 37.0363 50.824 36.7723 50.688C36.5083 50.544 36.2723 50.348 36.0643 50.1C35.8643 49.852 35.6963 49.54 35.5603 49.164L36.5083 48.408C36.6523 48.664 36.8283 48.864 37.0363 49.008C37.2443 49.144 37.4923 49.24 37.7803 49.296C38.0683 49.352 38.4043 49.38 38.7883 49.38C39.0923 49.38 39.3083 49.46 39.4363 49.62C39.5643 49.772 39.6283 49.964 39.6283 50.196C39.6283 50.444 39.5443 50.652 39.3763 50.82C39.2163 50.98 38.9803 51.06 38.6683 51.06ZM30.8203 51.06L30.9403 49.38C31.3723 49.38 31.8003 49.356 32.2243 49.308C32.6483 49.26 33.0603 49.188 33.4603 49.092C33.8603 48.996 34.2403 48.872 34.6003 48.72C34.9683 48.568 35.3123 48.384 35.6323 48.168C35.3923 48.024 35.1323 47.9 34.8523 47.796C34.5723 47.692 34.2723 47.616 33.9523 47.568C33.6403 47.512 33.3083 47.484 32.9563 47.484C32.8283 47.484 32.6923 47.488 32.5483 47.496C32.4123 47.504 32.2723 47.52 32.1283 47.544C31.9843 47.56 31.8403 47.584 31.6963 47.616L31.4563 45.972C31.6883 45.908 31.9323 45.864 32.1883 45.84C32.4523 45.808 32.6843 45.792 32.8843 45.792C33.3163 45.792 33.7123 45.84 34.0723 45.936C34.4403 46.032 34.7763 46.152 35.0803 46.296C35.3923 46.44 35.6803 46.584 35.9443 46.728C36.2163 46.872 36.4723 46.992 36.7123 47.088C36.9603 47.184 37.2003 47.232 37.4323 47.232H37.8763L38.0683 48.828C37.7243 48.844 37.4003 48.912 37.0963 49.032C36.8003 49.144 36.5043 49.288 36.2083 49.464C35.9203 49.632 35.6083 49.808 35.2723 49.992C34.9443 50.176 34.5723 50.348 34.1563 50.508C33.7403 50.668 33.2603 50.8 32.7163 50.904C32.1723 51.008 31.5403 51.06 30.8203 51.06ZM34.1683 54.996C33.9683 54.996 33.8003 54.928 33.6643 54.792C33.5363 54.656 33.4723 54.492 33.4723 54.3C33.4723 54.1 33.5363 53.928 33.6643 53.784C33.8003 53.64 33.9683 53.568 34.1683 53.568C34.3603 53.568 34.5243 53.64 34.6603 53.784C34.7963 53.928 34.8643 54.1 34.8643 54.3C34.8643 54.492 34.7963 54.656 34.6603 54.792C34.5243 54.928 34.3603 54.996 34.1683 54.996ZM35.0923 53.448C34.8923 53.448 34.7243 53.38 34.5883 53.244C34.4603 53.108 34.3963 52.944 34.3963 52.752C34.3963 52.552 34.4603 52.38 34.5883 52.236C34.7243 52.092 34.8923 52.02 35.0923 52.02C35.2843 52.02 35.4483 52.092 35.5843 52.236C35.7203 52.38 35.7883 52.552 35.7883 52.752C35.7883 52.944 35.7203 53.108 35.5843 53.244C35.4483 53.38 35.2843 53.448 35.0923 53.448ZM33.2923 53.448C33.0923 53.448 32.9243 53.38 32.7883 53.244C32.6523 53.108 32.5843 52.944 32.5843 52.752C32.5843 52.552 32.6523 52.38 32.7883 52.236C32.9243 52.092 33.0923 52.02 33.2923 52.02C33.4763 52.02 33.6363 52.092 33.7723 52.236C33.9163 52.38 33.9883 52.552 33.9883 52.752C33.9883 52.944 33.9163 53.108 33.7723 53.244C33.6363 53.38 33.4763 53.448 33.2923 53.448ZM38.6719 51.06L38.7919 49.38C39.0799 49.38 39.3279 49.352 39.5359 49.296C39.7439 49.24 39.9199 49.128 40.0639 48.96C40.2079 48.784 40.3279 48.528 40.4239 48.192C40.5279 47.856 40.6199 47.408 40.6999 46.848L42.2719 47.112C42.2559 47.232 42.2319 47.372 42.1999 47.532C42.1759 47.692 42.1519 47.856 42.1279 48.024C42.1119 48.184 42.1039 48.336 42.1039 48.48C42.1039 48.624 42.1319 48.752 42.1879 48.864C42.2439 48.976 42.3319 49.072 42.4519 49.152C42.5799 49.224 42.7439 49.28 42.9439 49.32C43.1519 49.36 43.4039 49.38 43.6999 49.38C44.0039 49.38 44.2199 49.46 44.3479 49.62C44.4759 49.772 44.5399 49.964 44.5399 50.196C44.5399 50.444 44.4559 50.652 44.2879 50.82C44.1279 50.98 43.8919 51.06 43.5799 51.06C43.2199 51.06 42.8919 51.032 42.5959 50.976C42.3079 50.92 42.0559 50.828 41.8399 50.7C41.6319 50.564 41.4599 50.388 41.3239 50.172C41.1959 49.948 41.1159 49.676 41.0839 49.356H41.6599C41.5159 49.74 41.3319 50.048 41.1079 50.28C40.8919 50.504 40.6479 50.672 40.3759 50.784C40.1039 50.896 39.8199 50.968 39.5239 51C39.2359 51.04 38.9519 51.06 38.6719 51.06ZM42.0199 53.844C41.7879 53.844 41.5879 53.76 41.4199 53.592C41.2599 53.432 41.1799 53.24 41.1799 53.016C41.1799 52.784 41.2599 52.584 41.4199 52.416C41.5879 52.248 41.7879 52.164 42.0199 52.164C42.2439 52.164 42.4359 52.248 42.5959 52.416C42.7559 52.584 42.8359 52.784 42.8359 53.016C42.8359 53.24 42.7559 53.432 42.5959 53.592C42.4359 53.76 42.2439 53.844 42.0199 53.844ZM39.9439 53.844C39.7119 53.844 39.5119 53.76 39.3439 53.592C39.1839 53.432 39.1039 53.24 39.1039 53.016C39.1039 52.784 39.1839 52.584 39.3439 52.416C39.5119 52.248 39.7119 52.164 39.9439 52.164C40.1679 52.164 40.3599 52.248 40.5199 52.416C40.6799 52.584 40.7599 52.784 40.7599 53.016C40.7599 53.24 40.6799 53.432 40.5199 53.592C40.3599 53.76 40.1679 53.844 39.9439 53.844ZM43.582 51.06L43.702 49.38C44.182 49.38 44.55 49.356 44.806 49.308C45.062 49.26 45.238 49.172 45.334 49.044C45.438 48.908 45.49 48.716 45.49 48.468C45.49 48.244 45.458 47.976 45.394 47.664C45.338 47.352 45.262 47.028 45.166 46.692C45.078 46.356 44.982 46.048 44.878 45.768L46.534 45.312C46.638 45.584 46.738 45.9 46.834 46.26C46.93 46.62 47.01 46.992 47.074 47.376C47.138 47.752 47.17 48.116 47.17 48.468C47.17 49.012 47.082 49.456 46.906 49.8C46.73 50.136 46.482 50.396 46.162 50.58C45.85 50.764 45.474 50.892 45.034 50.964C44.594 51.028 44.11 51.06 43.582 51.06ZM45.394 55.056C45.194 55.056 45.026 54.988 44.89 54.852C44.762 54.716 44.698 54.552 44.698 54.36C44.698 54.16 44.762 53.988 44.89 53.844C45.026 53.7 45.194 53.628 45.394 53.628C45.586 53.628 45.75 53.7 45.886 53.844C46.022 53.988 46.09 54.16 46.09 54.36C46.09 54.552 46.022 54.716 45.886 54.852C45.75 54.988 45.586 55.056 45.394 55.056ZM46.318 53.508C46.118 53.508 45.95 53.44 45.814 53.304C45.686 53.168 45.622 53.004 45.622 52.812C45.622 52.612 45.686 52.44 45.814 52.296C45.95 52.152 46.118 52.08 46.318 52.08C46.51 52.08 46.674 52.152 46.81 52.296C46.946 52.44 47.014 52.612 47.014 52.812C47.014 53.004 46.946 53.168 46.81 53.304C46.674 53.44 46.51 53.508 46.318 53.508ZM44.518 53.508C44.318 53.508 44.15 53.44 44.014 53.304C43.878 53.168 43.81 53.004 43.81 52.812C43.81 52.612 43.878 52.44 44.014 52.296C44.15 52.152 44.318 52.08 44.518 52.08C44.702 52.08 44.862 52.152 44.998 52.296C45.142 52.44 45.214 52.612 45.214 52.812C45.214 53.004 45.142 53.168 44.998 53.304C44.862 53.44 44.702 53.508 44.518 53.508ZM48.2065 50.664C48.2065 50.48 48.2225 50.264 48.2545 50.016C48.2865 49.768 48.3465 49.488 48.4345 49.176C48.5225 48.856 48.6545 48.5 48.8305 48.108L50.3065 48.624C50.2185 48.872 50.1425 49.1 50.0785 49.308C50.0145 49.508 49.9665 49.696 49.9345 49.872C49.9025 50.04 49.8865 50.208 49.8865 50.376C49.8865 50.64 49.9425 50.876 50.0545 51.084C50.1745 51.3 50.3465 51.48 50.5705 51.624C50.7945 51.776 51.0665 51.892 51.3865 51.972C51.7145 52.052 52.0905 52.092 52.5145 52.092C52.9545 52.092 53.3465 52.072 53.6905 52.032C54.0425 51.992 54.3385 51.932 54.5785 51.852C54.8265 51.772 55.0145 51.668 55.1425 51.54C55.2705 51.42 55.3345 51.28 55.3345 51.12C55.3345 51.048 55.3065 50.98 55.2505 50.916C55.2025 50.852 55.1185 50.784 54.9985 50.712C54.8865 50.64 54.7345 50.564 54.5425 50.484C54.3585 50.404 54.1345 50.316 53.8705 50.22L54.2665 48.528C54.6105 48.672 54.9345 48.8 55.2385 48.912C55.5505 49.016 55.8465 49.104 56.1265 49.176C56.4065 49.24 56.6705 49.292 56.9185 49.332C57.1665 49.364 57.3985 49.38 57.6145 49.38C57.9185 49.38 58.1345 49.46 58.2625 49.62C58.3905 49.772 58.4545 49.964 58.4545 50.196C58.4545 50.444 58.3705 50.652 58.2025 50.82C58.0345 50.98 57.7985 51.06 57.4945 51.06C57.4305 51.06 57.3665 51.06 57.3025 51.06C57.2465 51.06 57.1865 51.06 57.1225 51.06C57.0665 51.06 57.0065 51.06 56.9425 51.06C56.9585 51.14 56.9665 51.208 56.9665 51.264C56.9665 51.328 56.9665 51.388 56.9665 51.444C56.9665 51.708 56.8745 51.976 56.6905 52.248C56.5145 52.52 56.2385 52.772 55.8625 53.004C55.4865 53.236 55.0065 53.42 54.4225 53.556C53.8465 53.7 53.1585 53.772 52.3585 53.772C51.4945 53.772 50.7505 53.66 50.1265 53.436C49.5105 53.22 49.0345 52.88 48.6985 52.416C48.3705 51.96 48.2065 51.376 48.2065 50.664ZM57.4922 51.06L57.6122 49.38C57.7962 49.38 57.9522 49.336 58.0802 49.248C58.2162 49.152 58.3562 48.996 58.5002 48.78C58.6442 48.556 58.8122 48.256 59.0042 47.88C59.2442 47.4 59.4922 47.024 59.7482 46.752C60.0122 46.48 60.2802 46.288 60.5522 46.176C60.8322 46.056 61.1122 45.996 61.3922 45.996C61.7442 45.996 62.0722 46.072 62.3762 46.224C62.6802 46.376 62.9442 46.584 63.1682 46.848C63.3922 47.104 63.5642 47.4 63.6842 47.736C63.8122 48.064 63.8762 48.404 63.8762 48.756C63.8762 49.18 63.7842 49.564 63.6002 49.908C63.4242 50.244 63.1762 50.512 62.8562 50.712C62.5442 50.904 62.1842 51 61.7762 51C61.4322 51 61.0322 50.94 60.5762 50.82C60.1202 50.7 59.6402 50.448 59.1362 50.064L59.7482 48.612C60.1082 48.86 60.4442 49.04 60.7562 49.152C61.0762 49.264 61.3402 49.32 61.5482 49.32C61.7082 49.32 61.8402 49.304 61.9442 49.272C62.0482 49.24 62.1242 49.188 62.1722 49.116C62.2202 49.044 62.2442 48.948 62.2442 48.828C62.2442 48.66 62.2042 48.488 62.1242 48.312C62.0442 48.136 61.9362 47.988 61.8002 47.868C61.6722 47.74 61.5202 47.676 61.3442 47.676C61.1762 47.676 61.0322 47.74 60.9122 47.868C60.8002 47.988 60.6882 48.164 60.5762 48.396C60.4722 48.62 60.3442 48.884 60.1922 49.188C60.0082 49.556 59.8282 49.864 59.6522 50.112C59.4762 50.352 59.2882 50.544 59.0882 50.688C58.8962 50.824 58.6682 50.92 58.4042 50.976C58.1482 51.032 57.8442 51.06 57.4922 51.06ZM71.4329 51.06C70.6889 51.06 70.1129 50.984 69.7049 50.832C69.3049 50.68 69.0249 50.444 68.8649 50.124C68.7049 49.796 68.6129 49.384 68.5889 48.888L68.3369 42.216H70.0169L70.2689 48.084C70.2849 48.452 70.3249 48.728 70.3889 48.912C70.4529 49.096 70.5729 49.22 70.7489 49.284C70.9329 49.348 71.2009 49.38 71.5529 49.38C71.8569 49.38 72.0729 49.46 72.2009 49.62C72.3369 49.772 72.4049 49.964 72.4049 50.196C72.4049 50.444 72.3209 50.652 72.1529 50.82C71.9849 50.98 71.7449 51.06 71.4329 51.06ZM71.4492 51.06L71.5692 49.38C71.7532 49.38 71.9092 49.336 72.0372 49.248C72.1732 49.152 72.3132 48.996 72.4572 48.78C72.6012 48.556 72.7692 48.256 72.9612 47.88C73.2012 47.4 73.4492 47.024 73.7052 46.752C73.9692 46.48 74.2372 46.288 74.5092 46.176C74.7892 46.056 75.0692 45.996 75.3492 45.996C75.7012 45.996 76.0292 46.072 76.3332 46.224C76.6372 46.376 76.9012 46.584 77.1252 46.848C77.3492 47.104 77.5212 47.4 77.6412 47.736C77.7692 48.064 77.8332 48.404 77.8332 48.756C77.8332 49.18 77.7412 49.564 77.5572 49.908C77.3812 50.244 77.1332 50.512 76.8132 50.712C76.5012 50.904 76.1412 51 75.7332 51C75.3892 51 74.9892 50.94 74.5332 50.82C74.0772 50.7 73.5972 50.448 73.0932 50.064L73.7052 48.612C74.0652 48.86 74.4012 49.04 74.7132 49.152C75.0332 49.264 75.2972 49.32 75.5052 49.32C75.6652 49.32 75.7972 49.304 75.9012 49.272C76.0052 49.24 76.0812 49.188 76.1292 49.116C76.1772 49.044 76.2012 48.948 76.2012 48.828C76.2012 48.66 76.1612 48.488 76.0812 48.312C76.0012 48.136 75.8932 47.988 75.7572 47.868C75.6292 47.74 75.4772 47.676 75.3012 47.676C75.1332 47.676 74.9892 47.74 74.8692 47.868C74.7572 47.988 74.6452 48.164 74.5332 48.396C74.4292 48.62 74.3012 48.884 74.1492 49.188C73.9652 49.556 73.7852 49.864 73.6092 50.112C73.4332 50.352 73.2452 50.544 73.0452 50.688C72.8532 50.824 72.6252 50.92 72.3612 50.976C72.1052 51.032 71.8012 51.06 71.4492 51.06Z" fill="black"/>
<path d="M36.016 66V64.58H32.806V63.8L36.076 58.95H37.046V63.71H38.026V64.58H37.046V66H36.016ZM36.026 63.71V60.23H36.186L33.696 63.94L33.646 63.71H36.026ZM41.3362 65.72C41.3362 65.5667 41.3496 65.3867 41.3762 65.18C41.4029 64.9733 41.4529 64.74 41.5262 64.48C41.5996 64.2133 41.7096 63.9167 41.8562 63.59L43.0862 64.02C43.0129 64.2267 42.9496 64.4167 42.8962 64.59C42.8429 64.7567 42.8029 64.9133 42.7762 65.06C42.7496 65.2 42.7362 65.34 42.7362 65.48C42.7362 65.78 42.8096 66.04 42.9562 66.26C43.1096 66.4867 43.3162 66.66 43.5762 66.78C43.8429 66.9067 44.1496 66.97 44.4962 66.97C45.0629 66.97 45.4962 66.8767 45.7962 66.69C46.1029 66.51 46.3096 66.2233 46.4162 65.83C46.5296 65.43 46.5729 64.9133 46.5462 64.28L46.3462 58.68H47.7562L47.9062 63.41C47.9196 63.7433 47.9662 64 48.0462 64.18C48.1262 64.36 48.2496 64.4833 48.4162 64.55C48.5896 64.6167 48.8129 64.65 49.0862 64.65C49.3396 64.65 49.5196 64.7167 49.6262 64.85C49.7329 64.9767 49.7862 65.1367 49.7862 65.33C49.7862 65.5367 49.7162 65.71 49.5762 65.85C49.4362 65.9833 49.2396 66.05 48.9862 66.05C48.8396 66.05 48.6829 66.03 48.5162 65.99C48.3496 65.95 48.1896 65.8867 48.0362 65.8C47.8829 65.7133 47.7496 65.6 47.6362 65.46C47.5229 65.3133 47.4462 65.1333 47.4062 64.92L47.9462 64.65C47.9462 65.3233 47.8662 65.8933 47.7062 66.36C47.5529 66.8267 47.3262 67.2033 47.0262 67.49C46.7329 67.7767 46.3696 67.9833 45.9362 68.11C45.5096 68.2433 45.0162 68.31 44.4562 68.31C44.0296 68.31 43.6262 68.2567 43.2462 68.15C42.8729 68.0433 42.5429 67.8833 42.2562 67.67C41.9696 67.4567 41.7429 67.1867 41.5762 66.86C41.4162 66.54 41.3362 66.16 41.3362 65.72ZM59.0164 66.05C58.6764 66.05 58.3497 66.02 58.0364 65.96C57.723 65.8933 57.4397 65.8067 57.1864 65.7C56.9397 65.5933 56.7364 65.4733 56.5764 65.34L57.4764 64.37C57.7164 64.47 57.963 64.5433 58.2164 64.59C58.4697 64.63 58.7697 64.65 59.1164 64.65C59.3697 64.65 59.5497 64.7167 59.6564 64.85C59.7697 64.9767 59.8264 65.1367 59.8264 65.33C59.8264 65.5367 59.7564 65.71 59.6164 65.85C59.4764 65.9833 59.2764 66.05 59.0164 66.05ZM54.1664 66.18C53.5464 66.18 53.0297 66.1533 52.6164 66.1C52.2097 66.0467 51.8797 65.97 51.6264 65.87C51.373 65.77 51.173 65.65 51.0264 65.51C50.8797 65.37 50.7597 65.2167 50.6664 65.05L50.9464 64.97C50.7797 65.29 50.5897 65.5267 50.3764 65.68C50.163 65.8333 49.9397 65.9333 49.7064 65.98C49.473 66.0267 49.233 66.05 48.9864 66.05L49.0864 64.65C49.293 64.65 49.4564 64.6167 49.5764 64.55C49.6964 64.4833 49.793 64.3733 49.8664 64.22C49.9464 64.0667 50.0197 63.8633 50.0864 63.61C50.153 63.3567 50.233 63.0467 50.3264 62.68L51.5964 62.99C51.5497 63.17 51.5097 63.3267 51.4764 63.46C51.4497 63.5933 51.4264 63.71 51.4064 63.81C51.393 63.9033 51.3864 63.98 51.3864 64.04C51.3864 64.1667 51.4164 64.28 51.4764 64.38C51.5364 64.4733 51.653 64.55 51.8264 64.61C51.9997 64.6633 52.253 64.7067 52.5864 64.74C52.9264 64.7667 53.3697 64.78 53.9164 64.78C54.4964 64.78 54.9797 64.76 55.3664 64.72C55.753 64.6733 56.0597 64.61 56.2864 64.53C56.5197 64.4433 56.6864 64.34 56.7864 64.22C56.8864 64.0933 56.9364 63.95 56.9364 63.79C56.9364 63.6633 56.9064 63.5467 56.8464 63.44C56.793 63.3267 56.703 63.2333 56.5764 63.16C56.4497 63.0867 56.2864 63.05 56.0864 63.05C55.8464 63.05 55.603 63.11 55.3564 63.23C55.1164 63.3433 54.8797 63.4967 54.6464 63.69C54.413 63.8767 54.1897 64.0867 53.9764 64.32C53.7697 64.5533 53.583 64.7867 53.4164 65.02L51.9164 64.85C52.1764 64.43 52.4697 64.0267 52.7964 63.64C53.123 63.2533 53.473 62.9133 53.8464 62.62C54.2197 62.32 54.6064 62.0833 55.0064 61.91C55.4064 61.7367 55.813 61.65 56.2264 61.65C56.673 61.65 57.053 61.7367 57.3664 61.91C57.6797 62.0833 57.9197 62.3233 58.0864 62.63C58.253 62.9367 58.3364 63.29 58.3364 63.69C58.3364 64.1767 58.1964 64.6067 57.9164 64.98C57.643 65.3533 57.1997 65.6467 56.5864 65.86C55.9797 66.0733 55.173 66.18 54.1664 66.18ZM59.0254 66.05L59.1254 64.66C59.6788 64.66 60.1221 64.6567 60.4554 64.65C60.7954 64.6433 61.0588 64.63 61.2454 64.61C61.4388 64.5833 61.5821 64.5533 61.6754 64.52C61.7688 64.48 61.8488 64.4367 61.9154 64.39C61.9954 64.33 62.0621 64.25 62.1154 64.15C62.1754 64.0433 62.2221 63.9033 62.2554 63.73C62.2888 63.5567 62.3054 63.34 62.3054 63.08C62.3054 62.7533 62.2754 62.48 62.2154 62.26C62.1621 62.0333 62.0821 61.8633 61.9754 61.75C61.8754 61.6367 61.7521 61.58 61.6054 61.58C61.4988 61.58 61.3988 61.6167 61.3054 61.69C61.2121 61.7567 61.1354 61.85 61.0754 61.97C61.0154 62.09 60.9854 62.2267 60.9854 62.38C60.9854 62.4667 61.0088 62.5433 61.0554 62.61C61.1021 62.6767 61.1754 62.7267 61.2754 62.76C61.3754 62.7933 61.5021 62.81 61.6554 62.81C61.8021 62.81 61.9554 62.7933 62.1154 62.76C62.2821 62.72 62.4354 62.6667 62.5754 62.6L62.6154 63.79C62.5088 63.8633 62.3854 63.93 62.2454 63.99C62.1054 64.05 61.9554 64.0967 61.7954 64.13C61.6421 64.1567 61.4854 64.17 61.3254 64.17C60.9721 64.17 60.6654 64.1233 60.4054 64.03C60.1521 63.93 59.9554 63.77 59.8154 63.55C59.6754 63.33 59.6054 63.03 59.6054 62.65C59.6054 62.3567 59.6554 62.0667 59.7554 61.78C59.8554 61.4867 59.9988 61.2233 60.1854 60.99C60.3721 60.75 60.5921 60.56 60.8454 60.42C61.0988 60.2733 61.3788 60.2 61.6854 60.2C62.1388 60.2 62.5121 60.3333 62.8054 60.6C63.1054 60.86 63.3254 61.2133 63.4654 61.66C63.6121 62.1 63.6854 62.59 63.6854 63.13C63.6854 63.6033 63.6154 64.0167 63.4754 64.37C63.3354 64.7167 63.1688 64.99 62.9754 65.19C62.8154 65.3567 62.6321 65.4967 62.4254 65.61C62.2188 65.7233 61.9654 65.8133 61.6654 65.88C61.3721 65.94 61.0088 65.9833 60.5754 66.01C60.1488 66.0367 59.6321 66.05 59.0254 66.05ZM61.6654 59.27C61.4588 59.27 61.2821 59.2 61.1354 59.06C60.9954 58.92 60.9254 58.7467 60.9254 58.54C60.9254 58.3333 60.9954 58.1567 61.1354 58.01C61.2821 57.8633 61.4588 57.79 61.6654 57.79C61.8654 57.79 62.0354 57.8633 62.1754 58.01C62.3221 58.1567 62.3954 58.3333 62.3954 58.54C62.3954 58.7467 62.3221 58.92 62.1754 59.06C62.0354 59.2 61.8654 59.27 61.6654 59.27Z" fill="#667085"/>
<defs>
<filter id="filter0_d_8310_972" x="0" y="0" width="96" height="85.8462" filterUnits="userSpaceOnUse" color-interpolation-filters="sRGB">
<feFlood flood-opacity="0" result="BackgroundImageFix"/>
<feColorMatrix in="SourceAlpha" type="matrix" values="0 0 0 0 0 0 0 0 0 0 0 0 0 0 0 0 0 0 127 0" result="hardAlpha"/>
<feOffset dy="4"/>
<feGaussianBlur stdDeviation="2"/>
<feComposite in2="hardAlpha" operator="out"/>
<feColorMatrix type="matrix" values="0 0 0 0 0 0 0 0 0 0 0 0 0 0 0 0 0 0 0.25 0"/>
<feBlend mode="normal" in2="BackgroundImageFix" result="effect1_dropShadow_8310_972"/>
<feBlend mode="normal" in="SourceGraphic" in2="effect1_dropShadow_8310_972" result="shape"/>
</filter>
</defs>
</svg>
