<svg width="96" height="86" viewBox="0 0 96 86" fill="none" xmlns="http://www.w3.org/2000/svg">
<g filter="url(#filter0_d_8310_938)">
<path d="M5.37285 42.5185C4.62083 41.2089 4.24484 40.5536 4.09767 39.8574C3.96744 39.2412 3.96744 38.6048 4.09767 37.9886C4.24484 37.2924 4.62083 36.6371 5.37285 35.3274L23.5901 3.59555C24.3421 2.28569 24.7181 1.63076 25.2442 1.15444C25.7096 0.732998 26.2579 0.414612 26.8535 0.220002C27.5267 -2.00917e-07 28.2787 0 29.7827 0H66.2171C67.7214 0 68.4731 -2.00917e-07 69.1466 0.220002C69.7419 0.414612 70.2903 0.732998 70.756 1.15444C71.282 1.63076 71.6578 2.28569 72.41 3.59555L90.6271 35.3274C91.3792 36.6371 91.7551 37.2924 91.9021 37.9886C92.0326 38.6048 92.0326 39.2412 91.9021 39.8574C91.7551 40.5536 91.3792 41.2089 90.6271 42.5185L72.41 74.2506C71.6578 75.5603 71.282 76.2151 70.756 76.6915C70.2903 77.1131 69.7419 77.4313 69.1466 77.6259C68.4731 77.8462 67.7214 77.8462 66.2171 77.8462H29.7827C28.2787 77.8462 27.5267 77.8462 26.8535 77.6259C26.2579 77.4313 25.7096 77.1131 25.2442 76.6915C24.7181 76.2151 24.3421 75.5603 23.5901 74.2506L5.37285 42.5185Z" fill="white"/>
</g>
<path d="M46.5432 37.1574L36.0476 26.6618C35.1147 25.7288 35.1147 24.2711 36.0476 23.3382L46.5432 12.8425C47.4762 11.9096 48.9339 11.9096 49.8669 12.8425L60.3625 23.3382C61.2954 24.2711 61.2954 25.7288 60.3625 26.6618L49.8669 37.1574C48.9339 38.0903 47.4179 38.0903 46.5432 37.1574Z" fill="#F2BB41"/>
<path d="M46.7765 30.1021C46.7765 29.9272 46.8348 29.7523 46.8931 29.5773C46.9514 29.4024 47.068 29.2858 47.1847 29.1692C47.3013 29.0526 47.4762 28.9359 47.6511 28.8776C47.8261 28.8193 48.001 28.761 48.2342 28.761C48.4675 28.761 48.6424 28.8193 48.8173 28.8776C48.9922 28.9359 49.1672 29.0526 49.2838 29.1692C49.4004 29.2858 49.517 29.4024 49.5753 29.5773C49.6336 29.7523 49.6919 29.9272 49.6919 30.1021C49.6919 30.277 49.6336 30.452 49.5753 30.6269C49.517 30.8018 49.4004 30.9184 49.2838 31.0351C49.1672 31.1517 48.9922 31.2683 48.8173 31.3266C48.6424 31.3849 48.4675 31.4432 48.2342 31.4432C48.001 31.4432 47.8261 31.3849 47.6511 31.3266C47.4762 31.2683 47.3596 31.1517 47.1847 31.0351C47.068 30.9184 46.9514 30.8018 46.8931 30.6269C46.8348 30.452 46.7765 30.3353 46.7765 30.1021ZM49.2255 27.4199H47.1263L46.8348 18.6152H49.517L49.2255 27.4199Z" fill="#E08838"/>
<path d="M25.4888 53V52.076L28.3088 49.052C28.5728 48.764 28.7848 48.5 28.9448 48.26C29.1048 48.012 29.2208 47.776 29.2928 47.552C29.3728 47.32 29.4128 47.088 29.4128 46.856C29.4128 46.408 29.2768 46.068 29.0048 45.836C28.7328 45.604 28.3328 45.488 27.8048 45.488C27.3968 45.488 27.0088 45.564 26.6408 45.716C26.2808 45.868 25.9368 46.1 25.6088 46.412L25.1648 45.464C25.4848 45.152 25.8928 44.904 26.3888 44.72C26.8848 44.528 27.4008 44.432 27.9368 44.432C28.5208 44.432 29.0128 44.524 29.4128 44.708C29.8208 44.884 30.1288 45.144 30.3368 45.488C30.5448 45.832 30.6488 46.252 30.6488 46.748C30.6488 47.004 30.6168 47.256 30.5528 47.504C30.4968 47.744 30.4048 47.984 30.2768 48.224C30.1568 48.464 30.0008 48.712 29.8088 48.968C29.6248 49.224 29.4008 49.488 29.1368 49.76L26.7248 52.304V51.956H30.9848V53H25.4888ZM39.9164 53.252L40.2284 51.572C40.8044 51.572 41.3564 51.544 41.8844 51.488C42.4204 51.432 42.9284 51.32 43.4084 51.152C43.8964 50.984 44.3524 50.736 44.7764 50.408C45.2004 50.08 45.5844 49.64 45.9284 49.088L47.2724 49.7C47.2244 49.852 47.1844 50 47.1524 50.144C47.1204 50.28 47.1044 50.392 47.1044 50.48C47.1044 50.664 47.1484 50.824 47.2364 50.96C47.3324 51.096 47.4924 51.2 47.7164 51.272C47.9404 51.344 48.2484 51.38 48.6404 51.38C48.9444 51.38 49.1604 51.46 49.2884 51.62C49.4164 51.772 49.4804 51.964 49.4804 52.196C49.4804 52.444 49.3964 52.652 49.2284 52.82C49.0684 52.98 48.8324 53.06 48.5204 53.06C47.9684 53.06 47.4884 52.984 47.0804 52.832C46.6804 52.68 46.3644 52.468 46.1324 52.196C45.9084 51.916 45.7764 51.596 45.7364 51.236L46.2164 51.284C45.9284 51.628 45.5684 51.924 45.1364 52.172C44.7124 52.42 44.2284 52.624 43.6844 52.784C43.1484 52.944 42.5604 53.06 41.9204 53.132C41.2884 53.212 40.6204 53.252 39.9164 53.252ZM39.9044 53.252C39.0404 53.252 38.3084 53.184 37.7084 53.048C37.1164 52.92 36.6324 52.736 36.2564 52.496C35.8884 52.248 35.6204 51.96 35.4524 51.632C35.2844 51.304 35.2004 50.944 35.2004 50.552C35.2004 50.296 35.2204 50.04 35.2604 49.784C35.3084 49.52 35.3644 49.264 35.4284 49.016C35.5004 48.768 35.5644 48.544 35.6204 48.344L37.1204 48.692C37.0884 48.836 37.0524 48.992 37.0124 49.16C36.9724 49.328 36.9404 49.492 36.9164 49.652C36.8924 49.804 36.8804 49.944 36.8804 50.072C36.8804 50.368 36.9844 50.632 37.1924 50.864C37.4084 51.088 37.7604 51.264 38.2484 51.392C38.7364 51.512 39.3924 51.572 40.2164 51.572L40.4564 52.868L39.9044 53.252ZM42.1364 47.768C41.9044 47.768 41.7044 47.688 41.5364 47.528C41.3764 47.36 41.2964 47.164 41.2964 46.94C41.2964 46.708 41.3764 46.508 41.5364 46.34C41.7044 46.172 41.9044 46.088 42.1364 46.088C42.3604 46.088 42.5524 46.172 42.7124 46.34C42.8724 46.508 42.9524 46.708 42.9524 46.94C42.9524 47.164 42.8724 47.36 42.7124 47.528C42.5524 47.688 42.3604 47.768 42.1364 47.768ZM40.0604 47.756C39.8284 47.756 39.6284 47.676 39.4604 47.516C39.3004 47.348 39.2204 47.152 39.2204 46.928C39.2204 46.696 39.3004 46.496 39.4604 46.328C39.6284 46.16 39.8284 46.076 40.0604 46.076C40.2844 46.076 40.4764 46.16 40.6364 46.328C40.7964 46.496 40.8764 46.696 40.8764 46.928C40.8764 47.152 40.7964 47.348 40.6364 47.516C40.4764 47.676 40.2844 47.756 40.0604 47.756ZM48.5156 53.06L48.6356 51.38C49.1156 51.38 49.4836 51.356 49.7396 51.308C49.9956 51.26 50.1716 51.172 50.2676 51.044C50.3716 50.908 50.4236 50.716 50.4236 50.468C50.4236 50.244 50.3916 49.976 50.3276 49.664C50.2716 49.352 50.1956 49.028 50.0996 48.692C50.0116 48.356 49.9156 48.048 49.8116 47.768L51.4676 47.312C51.5716 47.584 51.6716 47.9 51.7676 48.26C51.8636 48.62 51.9436 48.992 52.0076 49.376C52.0716 49.752 52.1036 50.116 52.1036 50.468C52.1036 51.012 52.0156 51.456 51.8396 51.8C51.6636 52.136 51.4156 52.396 51.0956 52.58C50.7836 52.764 50.4076 52.892 49.9676 52.964C49.5276 53.028 49.0436 53.06 48.5156 53.06ZM51.4796 55.844C51.2476 55.844 51.0476 55.76 50.8796 55.592C50.7196 55.432 50.6396 55.24 50.6396 55.016C50.6396 54.784 50.7196 54.584 50.8796 54.416C51.0476 54.248 51.2476 54.164 51.4796 54.164C51.7036 54.164 51.8956 54.248 52.0556 54.416C52.2156 54.584 52.2956 54.784 52.2956 55.016C52.2956 55.24 52.2156 55.432 52.0556 55.592C51.8956 55.76 51.7036 55.844 51.4796 55.844ZM49.4036 55.844C49.1716 55.844 48.9716 55.76 48.8036 55.592C48.6436 55.432 48.5636 55.24 48.5636 55.016C48.5636 54.784 48.6436 54.584 48.8036 54.416C48.9716 54.248 49.1716 54.164 49.4036 54.164C49.6276 54.164 49.8196 54.248 49.9796 54.416C50.1396 54.584 50.2196 54.784 50.2196 55.016C50.2196 55.24 50.1396 55.432 49.9796 55.592C49.8196 55.76 49.6276 55.844 49.4036 55.844ZM53.5121 55.76L53.1641 54.08C53.7321 54.008 54.2281 53.92 54.6521 53.816C55.0761 53.72 55.4321 53.584 55.7201 53.408C56.0081 53.232 56.2241 52.992 56.3681 52.688C56.5121 52.376 56.5841 51.976 56.5841 51.488C56.5841 51.016 56.5121 50.64 56.3681 50.36C56.2241 50.08 56.0321 49.94 55.7921 49.94C55.6241 49.94 55.4841 50 55.3721 50.12C55.2601 50.232 55.1761 50.368 55.1201 50.528C55.0721 50.68 55.0481 50.816 55.0481 50.936C55.0481 51.008 55.0681 51.084 55.1081 51.164C55.1481 51.244 55.2361 51.312 55.3721 51.368C55.5081 51.424 55.7201 51.456 56.0081 51.464C56.3041 51.472 56.7041 51.444 57.2081 51.38H59.2241C59.5281 51.38 59.7441 51.46 59.8721 51.62C60.0081 51.772 60.0761 51.964 60.0761 52.196C60.0761 52.444 59.9921 52.652 59.8241 52.82C59.6561 52.98 59.4161 53.06 59.1041 53.06H55.8041C55.3001 53.06 54.8681 53 54.5081 52.88C54.1481 52.76 53.8721 52.568 53.6801 52.304C53.4881 52.032 53.3921 51.672 53.3921 51.224C53.3921 50.864 53.4521 50.504 53.5721 50.144C53.7001 49.784 53.8761 49.456 54.1001 49.16C54.3241 48.856 54.5841 48.616 54.8801 48.44C55.1841 48.256 55.5121 48.164 55.8641 48.164C56.3441 48.164 56.7641 48.312 57.1241 48.608C57.4841 48.904 57.7641 49.296 57.9641 49.784C58.1721 50.272 58.2761 50.804 58.2761 51.38C58.2761 52.284 58.0841 53.052 57.7001 53.684C57.3161 54.316 56.7681 54.804 56.0561 55.148C55.3441 55.5 54.4961 55.704 53.5121 55.76ZM59.1211 53.06L59.2411 51.38C59.6091 51.38 59.8731 51.344 60.0331 51.272C60.1931 51.192 60.2891 51.048 60.3211 50.84C60.3531 50.624 60.3611 50.312 60.3451 49.904L60.1291 44.216H61.8211L62.0611 50.024C62.0771 50.488 62.0571 50.908 62.0011 51.284C61.9531 51.652 61.8291 51.968 61.6291 52.232C61.4371 52.496 61.1371 52.7 60.7291 52.844C60.3291 52.988 59.7931 53.06 59.1211 53.06ZM63.3676 55.76L63.0196 54.08C63.5876 54.008 64.0836 53.92 64.5076 53.816C64.9316 53.72 65.2876 53.584 65.5756 53.408C65.8636 53.232 66.0796 52.992 66.2236 52.688C66.3676 52.376 66.4396 51.976 66.4396 51.488C66.4396 51.312 66.4236 51.136 66.3916 50.96C66.3596 50.776 66.3116 50.608 66.2476 50.456C66.1836 50.304 66.0996 50.18 65.9956 50.084C65.8996 49.988 65.7836 49.94 65.6476 49.94C65.5036 49.94 65.3756 49.992 65.2636 50.096C65.1516 50.192 65.0636 50.316 64.9996 50.468C64.9356 50.612 64.9036 50.76 64.9036 50.912C64.9036 51.024 64.9316 51.12 64.9876 51.2C65.0436 51.272 65.1276 51.328 65.2396 51.368C65.3516 51.4 65.4916 51.416 65.6596 51.416C65.8516 51.416 66.0476 51.396 66.2476 51.356C66.4556 51.308 66.6436 51.244 66.8116 51.164L66.8596 52.472C66.6676 52.624 66.4476 52.76 66.1996 52.88C65.9516 52.992 65.6516 53.048 65.2996 53.048C65.0116 53.048 64.7436 53.016 64.4956 52.952C64.2476 52.88 64.0276 52.772 63.8356 52.628C63.6516 52.484 63.5076 52.3 63.4036 52.076C63.2996 51.844 63.2476 51.568 63.2476 51.248C63.2476 50.856 63.3116 50.476 63.4396 50.108C63.5676 49.74 63.7436 49.412 63.9676 49.124C64.1996 48.828 64.4636 48.596 64.7596 48.428C65.0636 48.252 65.3836 48.164 65.7196 48.164C66.1196 48.164 66.4676 48.264 66.7636 48.464C67.0676 48.664 67.3196 48.928 67.5196 49.256C67.7196 49.576 67.8716 49.924 67.9756 50.3C68.0796 50.676 68.1316 51.036 68.1316 51.38C68.1316 52.284 67.9396 53.052 67.5556 53.684C67.1716 54.316 66.6236 54.804 65.9116 55.148C65.1996 55.5 64.3516 55.704 63.3676 55.76ZM69.6202 53L69.3682 44.216H71.0482L71.3002 53H69.6202Z" fill="black"/>
<path d="M35.586 68.09C35.0127 68.09 34.526 67.9533 34.126 67.68C33.726 67.4067 33.4193 67.0133 33.206 66.5C32.9993 65.98 32.896 65.3533 32.896 64.62C32.896 63.8133 33.0127 63.1333 33.246 62.58C33.4793 62.02 33.816 61.5933 34.256 61.3C34.696 61.0067 35.2227 60.86 35.836 60.86C36.0893 60.86 36.3393 60.8933 36.586 60.96C36.8327 61.02 37.0627 61.11 37.276 61.23C37.496 61.35 37.6927 61.5 37.866 61.68L37.496 62.48C37.2493 62.2333 36.9827 62.0533 36.696 61.94C36.416 61.8267 36.126 61.77 35.826 61.77C35.5127 61.77 35.236 61.8267 34.996 61.94C34.756 62.0533 34.5527 62.2233 34.386 62.45C34.226 62.67 34.1027 62.9467 34.016 63.28C33.9293 63.6133 33.886 64 33.886 64.44V65.13H33.836C33.896 64.7967 34.0127 64.51 34.186 64.27C34.3593 64.03 34.5793 63.8467 34.846 63.72C35.1193 63.5933 35.4193 63.53 35.746 63.53C36.1593 63.53 36.526 63.6267 36.846 63.82C37.166 64.0067 37.416 64.27 37.596 64.61C37.7827 64.9433 37.876 65.33 37.876 65.77C37.876 66.2167 37.776 66.6167 37.576 66.97C37.3827 67.3233 37.1127 67.6 36.766 67.8C36.426 67.9933 36.0327 68.09 35.586 68.09ZM35.526 67.22C35.7927 67.22 36.0293 67.1633 36.236 67.05C36.4427 66.93 36.6027 66.7633 36.716 66.55C36.8293 66.3367 36.886 66.0867 36.886 65.8C36.886 65.52 36.8293 65.2767 36.716 65.07C36.6027 64.8567 36.4427 64.6933 36.236 64.58C36.0293 64.46 35.7927 64.4 35.526 64.4C35.2527 64.4 35.0127 64.46 34.806 64.58C34.5993 64.6933 34.436 64.8567 34.316 65.07C34.2027 65.2833 34.146 65.5267 34.146 65.8C34.146 66.0867 34.2027 66.3367 34.316 66.55C34.436 66.7633 34.5993 66.93 34.806 67.05C35.0127 67.1633 35.2527 67.22 35.526 67.22ZM41.3362 67.72C41.3362 67.5667 41.3496 67.3867 41.3762 67.18C41.4029 66.9733 41.4529 66.74 41.5262 66.48C41.5996 66.2133 41.7096 65.9167 41.8562 65.59L43.0862 66.02C43.0129 66.2267 42.9496 66.4167 42.8962 66.59C42.8429 66.7567 42.8029 66.9133 42.7762 67.06C42.7496 67.2 42.7362 67.34 42.7362 67.48C42.7362 67.78 42.8096 68.04 42.9562 68.26C43.1096 68.4867 43.3162 68.66 43.5762 68.78C43.8429 68.9067 44.1496 68.97 44.4962 68.97C45.0629 68.97 45.4962 68.8767 45.7962 68.69C46.1029 68.51 46.3096 68.2233 46.4162 67.83C46.5296 67.43 46.5729 66.9133 46.5462 66.28L46.3462 60.68H47.7562L47.9062 65.41C47.9196 65.7433 47.9662 66 48.0462 66.18C48.1262 66.36 48.2496 66.4833 48.4162 66.55C48.5896 66.6167 48.8129 66.65 49.0862 66.65C49.3396 66.65 49.5196 66.7167 49.6262 66.85C49.7329 66.9767 49.7862 67.1367 49.7862 67.33C49.7862 67.5367 49.7162 67.71 49.5762 67.85C49.4362 67.9833 49.2396 68.05 48.9862 68.05C48.8396 68.05 48.6829 68.03 48.5162 67.99C48.3496 67.95 48.1896 67.8867 48.0362 67.8C47.8829 67.7133 47.7496 67.6 47.6362 67.46C47.5229 67.3133 47.4462 67.1333 47.4062 66.92L47.9462 66.65C47.9462 67.3233 47.8662 67.8933 47.7062 68.36C47.5529 68.8267 47.3262 69.2033 47.0262 69.49C46.7329 69.7767 46.3696 69.9833 45.9362 70.11C45.5096 70.2433 45.0162 70.31 44.4562 70.31C44.0296 70.31 43.6262 70.2567 43.2462 70.15C42.8729 70.0433 42.5429 69.8833 42.2562 69.67C41.9696 69.4567 41.7429 69.1867 41.5762 68.86C41.4162 68.54 41.3362 68.16 41.3362 67.72ZM59.0164 68.05C58.6764 68.05 58.3497 68.02 58.0364 67.96C57.723 67.8933 57.4397 67.8067 57.1864 67.7C56.9397 67.5933 56.7364 67.4733 56.5764 67.34L57.4764 66.37C57.7164 66.47 57.963 66.5433 58.2164 66.59C58.4697 66.63 58.7697 66.65 59.1164 66.65C59.3697 66.65 59.5497 66.7167 59.6564 66.85C59.7697 66.9767 59.8264 67.1367 59.8264 67.33C59.8264 67.5367 59.7564 67.71 59.6164 67.85C59.4764 67.9833 59.2764 68.05 59.0164 68.05ZM54.1664 68.18C53.5464 68.18 53.0297 68.1533 52.6164 68.1C52.2097 68.0467 51.8797 67.97 51.6264 67.87C51.373 67.77 51.173 67.65 51.0264 67.51C50.8797 67.37 50.7597 67.2167 50.6664 67.05L50.9464 66.97C50.7797 67.29 50.5897 67.5267 50.3764 67.68C50.163 67.8333 49.9397 67.9333 49.7064 67.98C49.473 68.0267 49.233 68.05 48.9864 68.05L49.0864 66.65C49.293 66.65 49.4564 66.6167 49.5764 66.55C49.6964 66.4833 49.793 66.3733 49.8664 66.22C49.9464 66.0667 50.0197 65.8633 50.0864 65.61C50.153 65.3567 50.233 65.0467 50.3264 64.68L51.5964 64.99C51.5497 65.17 51.5097 65.3267 51.4764 65.46C51.4497 65.5933 51.4264 65.71 51.4064 65.81C51.393 65.9033 51.3864 65.98 51.3864 66.04C51.3864 66.1667 51.4164 66.28 51.4764 66.38C51.5364 66.4733 51.653 66.55 51.8264 66.61C51.9997 66.6633 52.253 66.7067 52.5864 66.74C52.9264 66.7667 53.3697 66.78 53.9164 66.78C54.4964 66.78 54.9797 66.76 55.3664 66.72C55.753 66.6733 56.0597 66.61 56.2864 66.53C56.5197 66.4433 56.6864 66.34 56.7864 66.22C56.8864 66.0933 56.9364 65.95 56.9364 65.79C56.9364 65.6633 56.9064 65.5467 56.8464 65.44C56.793 65.3267 56.703 65.2333 56.5764 65.16C56.4497 65.0867 56.2864 65.05 56.0864 65.05C55.8464 65.05 55.603 65.11 55.3564 65.23C55.1164 65.3433 54.8797 65.4967 54.6464 65.69C54.413 65.8767 54.1897 66.0867 53.9764 66.32C53.7697 66.5533 53.583 66.7867 53.4164 67.02L51.9164 66.85C52.1764 66.43 52.4697 66.0267 52.7964 65.64C53.123 65.2533 53.473 64.9133 53.8464 64.62C54.2197 64.32 54.6064 64.0833 55.0064 63.91C55.4064 63.7367 55.813 63.65 56.2264 63.65C56.673 63.65 57.053 63.7367 57.3664 63.91C57.6797 64.0833 57.9197 64.3233 58.0864 64.63C58.253 64.9367 58.3364 65.29 58.3364 65.69C58.3364 66.1767 58.1964 66.6067 57.9164 66.98C57.643 67.3533 57.1997 67.6467 56.5864 67.86C55.9797 68.0733 55.173 68.18 54.1664 68.18ZM59.0254 68.05L59.1254 66.66C59.6788 66.66 60.1221 66.6567 60.4554 66.65C60.7954 66.6433 61.0588 66.63 61.2454 66.61C61.4388 66.5833 61.5821 66.5533 61.6754 66.52C61.7688 66.48 61.8488 66.4367 61.9154 66.39C61.9954 66.33 62.0621 66.25 62.1154 66.15C62.1754 66.0433 62.2221 65.9033 62.2554 65.73C62.2888 65.5567 62.3054 65.34 62.3054 65.08C62.3054 64.7533 62.2754 64.48 62.2154 64.26C62.1621 64.0333 62.0821 63.8633 61.9754 63.75C61.8754 63.6367 61.7521 63.58 61.6054 63.58C61.4988 63.58 61.3988 63.6167 61.3054 63.69C61.2121 63.7567 61.1354 63.85 61.0754 63.97C61.0154 64.09 60.9854 64.2267 60.9854 64.38C60.9854 64.4667 61.0088 64.5433 61.0554 64.61C61.1021 64.6767 61.1754 64.7267 61.2754 64.76C61.3754 64.7933 61.5021 64.81 61.6554 64.81C61.8021 64.81 61.9554 64.7933 62.1154 64.76C62.2821 64.72 62.4354 64.6667 62.5754 64.6L62.6154 65.79C62.5088 65.8633 62.3854 65.93 62.2454 65.99C62.1054 66.05 61.9554 66.0967 61.7954 66.13C61.6421 66.1567 61.4854 66.17 61.3254 66.17C60.9721 66.17 60.6654 66.1233 60.4054 66.03C60.1521 65.93 59.9554 65.77 59.8154 65.55C59.6754 65.33 59.6054 65.03 59.6054 64.65C59.6054 64.3567 59.6554 64.0667 59.7554 63.78C59.8554 63.4867 59.9988 63.2233 60.1854 62.99C60.3721 62.75 60.5921 62.56 60.8454 62.42C61.0988 62.2733 61.3788 62.2 61.6854 62.2C62.1388 62.2 62.5121 62.3333 62.8054 62.6C63.1054 62.86 63.3254 63.2133 63.4654 63.66C63.6121 64.1 63.6854 64.59 63.6854 65.13C63.6854 65.6033 63.6154 66.0167 63.4754 66.37C63.3354 66.7167 63.1688 66.99 62.9754 67.19C62.8154 67.3567 62.6321 67.4967 62.4254 67.61C62.2188 67.7233 61.9654 67.8133 61.6654 67.88C61.3721 67.94 61.0088 67.9833 60.5754 68.01C60.1488 68.0367 59.6321 68.05 59.0254 68.05ZM61.6654 61.27C61.4588 61.27 61.2821 61.2 61.1354 61.06C60.9954 60.92 60.9254 60.7467 60.9254 60.54C60.9254 60.3333 60.9954 60.1567 61.1354 60.01C61.2821 59.8633 61.4588 59.79 61.6654 59.79C61.8654 59.79 62.0354 59.8633 62.1754 60.01C62.3221 60.1567 62.3954 60.3333 62.3954 60.54C62.3954 60.7467 62.3221 60.92 62.1754 61.06C62.0354 61.2 61.8654 61.27 61.6654 61.27Z" fill="#667085"/>
<defs>
<filter id="filter0_d_8310_938" x="0" y="0" width="96" height="85.8462" filterUnits="userSpaceOnUse" color-interpolation-filters="sRGB">
<feFlood flood-opacity="0" result="BackgroundImageFix"/>
<feColorMatrix in="SourceAlpha" type="matrix" values="0 0 0 0 0 0 0 0 0 0 0 0 0 0 0 0 0 0 127 0" result="hardAlpha"/>
<feOffset dy="4"/>
<feGaussianBlur stdDeviation="2"/>
<feComposite in2="hardAlpha" operator="out"/>
<feColorMatrix type="matrix" values="0 0 0 0 0 0 0 0 0 0 0 0 0 0 0 0 0 0 0.25 0"/>
<feBlend mode="normal" in2="BackgroundImageFix" result="effect1_dropShadow_8310_938"/>
<feBlend mode="normal" in="SourceGraphic" in2="effect1_dropShadow_8310_938" result="shape"/>
</filter>
</defs>
</svg>
