<svg width="96" height="86" viewBox="0 0 96 86" fill="none" xmlns="http://www.w3.org/2000/svg">
<g filter="url(#filter0_d_8310_820)">
<path d="M5.37285 42.5185C4.62083 41.2089 4.24484 40.5536 4.09767 39.8574C3.96744 39.2412 3.96744 38.6048 4.09767 37.9886C4.24484 37.2924 4.62083 36.6371 5.37285 35.3274L23.5901 3.59555C24.3421 2.28569 24.7181 1.63076 25.2442 1.15444C25.7096 0.732998 26.2579 0.414612 26.8535 0.220002C27.5267 -2.00917e-07 28.2787 0 29.7827 0H66.2171C67.7214 0 68.4731 -2.00917e-07 69.1466 0.220002C69.7419 0.414612 70.2903 0.732998 70.756 1.15444C71.282 1.63076 71.6578 2.28569 72.41 3.59555L90.6271 35.3274C91.3792 36.6371 91.7551 37.2924 91.9021 37.9886C92.0326 38.6048 92.0326 39.2412 91.9021 39.8574C91.7551 40.5536 91.3792 41.2089 90.6271 42.5185L72.41 74.2506C71.6578 75.5603 71.282 76.2151 70.756 76.6915C70.2903 77.1131 69.7419 77.4313 69.1466 77.6259C68.4731 77.8462 67.7214 77.8462 66.2171 77.8462H29.7827C28.2787 77.8462 27.5267 77.8462 26.8535 77.6259C26.2579 77.4313 25.7096 77.1131 25.2442 76.6915C24.7181 76.2151 24.3421 75.5603 23.5901 74.2506L5.37285 42.5185Z" fill="white"/>
</g>
<g clip-path="url(#clip0_8310_820)">
<path d="M58.5005 28.0293C57.1402 27.6911 56.1248 26.4647 56.1248 24.9998C56.1248 23.2738 57.5239 22.5 59.25 22.5C59.4492 22.5 59.6571 22.5258 59.8464 22.5626C59.8552 22.7503 59.8748 22.935 59.8748 23.1248C59.8748 25.1214 59.3746 26.3762 58.5005 28.0293ZM41.0473 32.1062C42.165 30.5089 44.8598 29.3747 48 29.3747C51.1396 29.3747 53.8277 30.5147 54.9455 32.112C52.9898 33.5292 50.5945 34.3748 48 34.3748C45.4024 34.3748 43.0045 33.5265 41.0473 32.1062ZM36.1252 22.5C36.1252 22.3081 36.1448 22.1214 36.1536 21.9321C36.3429 21.8953 36.5504 21.8746 36.75 21.8746C38.4761 21.8746 39.8752 23.2738 39.8752 24.9998C39.8752 26.4646 38.8583 27.6889 37.4984 28.0272C36.6248 26.3746 36.1252 24.4955 36.1252 22.5ZM48 10.6246C53.4652 10.6246 58.0024 14.3405 59.3793 19.3965H36.6207C37.9976 14.3405 42.5348 10.6246 48 10.6246ZM48 7.5C39.7158 7.5 33 14.2154 33 22.5C33 30.7842 39.7158 37.5 48 37.5C56.2842 37.5 63 30.7842 63 22.5C63 14.2154 56.2842 7.5 48 7.5Z" fill="#F2BB41"/>
<path d="M52.6551 24.0516C52.6551 25.1942 50.5613 26.1206 47.9782 26.1206C45.3951 26.1206 43.3013 25.1942 43.3013 24.0516C43.3013 22.909 45.3951 21.9827 47.9782 21.9827C50.5613 21.9827 52.6551 22.909 52.6551 24.0516Z" fill="#E08838"/>
</g>
<path d="M12.8218 50.164C12.8218 49.98 12.8378 49.764 12.8698 49.516C12.9018 49.268 12.9618 48.988 13.0498 48.676C13.1378 48.356 13.2698 48 13.4458 47.608L14.9218 48.124C14.8338 48.372 14.7578 48.6 14.6938 48.808C14.6298 49.008 14.5818 49.196 14.5498 49.372C14.5178 49.54 14.5018 49.708 14.5018 49.876C14.5018 50.14 14.5578 50.376 14.6698 50.584C14.7898 50.8 14.9618 50.98 15.1858 51.124C15.4098 51.276 15.6818 51.392 16.0018 51.472C16.3298 51.552 16.7058 51.592 17.1298 51.592C17.5698 51.592 17.9618 51.572 18.3058 51.532C18.6578 51.492 18.9538 51.432 19.1938 51.352C19.4418 51.272 19.6298 51.168 19.7578 51.04C19.8858 50.92 19.9498 50.78 19.9498 50.62C19.9498 50.548 19.9218 50.48 19.8658 50.416C19.8178 50.352 19.7338 50.284 19.6138 50.212C19.5018 50.14 19.3498 50.064 19.1578 49.984C18.9738 49.904 18.7498 49.816 18.4858 49.72L18.8818 48.028C19.2258 48.172 19.5498 48.3 19.8538 48.412C20.1658 48.516 20.4618 48.604 20.7418 48.676C21.0218 48.74 21.2858 48.792 21.5338 48.832C21.7818 48.864 22.0138 48.88 22.2298 48.88C22.5338 48.88 22.7498 48.96 22.8778 49.12C23.0058 49.272 23.0698 49.464 23.0698 49.696C23.0698 49.944 22.9858 50.152 22.8178 50.32C22.6498 50.48 22.4138 50.56 22.1098 50.56C22.0458 50.56 21.9818 50.56 21.9178 50.56C21.8618 50.56 21.8018 50.56 21.7378 50.56C21.6818 50.56 21.6218 50.56 21.5578 50.56C21.5738 50.64 21.5818 50.708 21.5818 50.764C21.5818 50.828 21.5818 50.888 21.5818 50.944C21.5818 51.208 21.4898 51.476 21.3058 51.748C21.1298 52.02 20.8538 52.272 20.4778 52.504C20.1018 52.736 19.6218 52.92 19.0378 53.056C18.4618 53.2 17.7738 53.272 16.9738 53.272C16.1098 53.272 15.3658 53.16 14.7418 52.936C14.1258 52.72 13.6498 52.38 13.3138 51.916C12.9858 51.46 12.8218 50.876 12.8218 50.164ZM22.1434 43.48L21.5554 42.496C21.9474 42.264 22.3514 42.032 22.7674 41.8C23.1834 41.56 23.6474 41.304 24.1594 41.032C24.6794 40.752 25.2874 40.436 25.9834 40.084L26.5354 41.14C25.8234 41.484 25.2074 41.792 24.6874 42.064C24.1754 42.336 23.7154 42.588 23.3074 42.82C22.9074 43.044 22.5194 43.264 22.1434 43.48ZM22.1074 50.56L22.2274 48.88H23.9434C24.1114 48.88 24.2594 48.872 24.3874 48.856C24.5154 48.832 24.6194 48.796 24.6994 48.748C24.7874 48.7 24.8514 48.64 24.8914 48.568C24.9314 48.496 24.9514 48.412 24.9514 48.316C24.9514 48.22 24.8994 48.068 24.7954 47.86C24.6994 47.644 24.4874 47.384 24.1594 47.08C23.9834 46.92 23.7914 46.752 23.5834 46.576C23.3834 46.392 23.1914 46.22 23.0074 46.06C22.8234 45.892 22.6714 45.744 22.5514 45.616C22.4314 45.488 22.3714 45.396 22.3714 45.34C22.3714 45.22 22.3794 45.088 22.3954 44.944C22.4114 44.8 22.4354 44.668 22.4674 44.548C22.5074 44.428 22.5594 44.34 22.6234 44.284C22.7594 44.156 22.9594 44.008 23.2234 43.84C23.4954 43.664 23.8194 43.476 24.1954 43.276C24.5714 43.068 24.9914 42.852 25.4554 42.628C25.9274 42.396 26.4314 42.164 26.9674 41.932L27.6514 43.396C27.2114 43.588 26.7954 43.776 26.4034 43.96C26.0114 44.136 25.6434 44.312 25.2994 44.488C24.9634 44.656 24.6514 44.824 24.3634 44.992C24.0834 45.152 23.8354 45.312 23.6194 45.472L23.7754 44.584C24.4554 45.104 24.9954 45.572 25.3954 45.988C25.8034 46.404 26.1074 46.776 26.3074 47.104C26.5074 47.424 26.6394 47.712 26.7034 47.968C26.7674 48.216 26.7994 48.436 26.7994 48.628C26.7994 48.82 26.7514 49.028 26.6554 49.252C26.5674 49.468 26.4034 49.676 26.1634 49.876C25.9314 50.076 25.6034 50.24 25.1794 50.368C24.7554 50.496 24.2114 50.56 23.5474 50.56H22.1074ZM30.1726 48.88C30.5326 48.88 30.8086 48.848 31.0006 48.784C31.1926 48.72 31.3246 48.636 31.3966 48.532C31.4686 48.428 31.5046 48.316 31.5046 48.196C31.5046 48.004 31.4486 47.78 31.3366 47.524C31.2326 47.268 31.1006 47 30.9406 46.72C30.7806 46.44 30.6126 46.172 30.4366 45.916C30.2686 45.66 30.1166 45.436 29.9806 45.244L31.4086 44.296C31.7526 44.76 32.0486 45.22 32.2966 45.676C32.5446 46.124 32.7446 46.54 32.8966 46.924C33.0566 47.308 33.1686 47.636 33.2326 47.908C33.2966 48.164 33.3926 48.364 33.5206 48.508C33.6566 48.644 33.8126 48.74 33.9886 48.796C34.1646 48.852 34.3406 48.88 34.5166 48.88C34.8206 48.88 35.0366 48.96 35.1646 49.12C35.3006 49.272 35.3686 49.464 35.3686 49.696C35.3686 49.944 35.2846 50.152 35.1166 50.32C34.9566 50.48 34.7166 50.56 34.3966 50.56C34.0446 50.56 33.7366 50.512 33.4726 50.416C33.2086 50.32 32.9846 50.168 32.8006 49.96C32.6166 49.752 32.4606 49.488 32.3326 49.168L33.0646 49.324C33.0006 49.548 32.8526 49.756 32.6206 49.948C32.3966 50.132 32.0966 50.284 31.7206 50.404C31.3526 50.516 30.9166 50.572 30.4126 50.572C30.1726 50.572 29.9046 50.552 29.6086 50.512C29.3206 50.472 29.0326 50.412 28.7446 50.332C28.4646 50.252 28.2086 50.148 27.9766 50.02L28.5646 48.496C28.8606 48.624 29.1446 48.72 29.4166 48.784C29.6966 48.848 29.9486 48.88 30.1726 48.88ZM34.4121 50.56L34.5321 48.88C34.8361 48.88 35.0761 48.852 35.2521 48.796C35.4361 48.74 35.5801 48.628 35.6841 48.46C35.7961 48.284 35.8881 48.028 35.9601 47.692C36.0401 47.356 36.1201 46.908 36.2001 46.348L37.7721 46.612C37.7561 46.732 37.7321 46.872 37.7001 47.032C37.6761 47.192 37.6521 47.356 37.6281 47.524C37.6121 47.684 37.6041 47.836 37.6041 47.98C37.6041 48.172 37.6441 48.336 37.7241 48.472C37.8121 48.6 37.9641 48.7 38.1801 48.772C38.4041 48.844 38.7241 48.88 39.1401 48.88C39.4441 48.88 39.6601 48.96 39.7881 49.12C39.9161 49.272 39.9801 49.464 39.9801 49.696C39.9801 49.944 39.8961 50.152 39.7281 50.32C39.5681 50.48 39.3321 50.56 39.0201 50.56C38.4681 50.56 38.0201 50.508 37.6761 50.404C37.3321 50.3 37.0761 50.124 36.9081 49.876C36.7401 49.628 36.6321 49.288 36.5841 48.856H37.1601C37.0161 49.24 36.8481 49.548 36.6561 49.78C36.4641 50.004 36.2481 50.172 36.0081 50.284C35.7681 50.396 35.5121 50.468 35.2401 50.5C34.9761 50.54 34.7001 50.56 34.4121 50.56ZM36.8601 45.124C36.6121 45.124 36.4001 45.04 36.2241 44.872C36.0561 44.704 35.9721 44.496 35.9721 44.248C35.9721 44 36.0561 43.788 36.2241 43.612C36.4001 43.436 36.6121 43.348 36.8601 43.348C37.1001 43.348 37.3041 43.436 37.4721 43.612C37.6481 43.788 37.7361 44 37.7361 44.248C37.7361 44.496 37.6481 44.704 37.4721 44.872C37.3041 45.04 37.1001 45.124 36.8601 45.124ZM39.0176 50.56L39.1376 48.88C39.4896 48.88 39.7656 48.856 39.9656 48.808C40.1736 48.76 40.3216 48.672 40.4096 48.544C40.4976 48.408 40.5416 48.216 40.5416 47.968C40.5416 47.744 40.5096 47.476 40.4456 47.164C40.3896 46.852 40.3136 46.528 40.2176 46.192C40.1216 45.856 40.0256 45.548 39.9296 45.268L41.5856 44.812C41.6816 45.084 41.7776 45.4 41.8736 45.76C41.9696 46.12 42.0496 46.492 42.1136 46.876C42.1856 47.252 42.2216 47.616 42.2216 47.968C42.2216 48.408 42.1656 48.78 42.0536 49.084C41.9416 49.38 41.7856 49.628 41.5856 49.828C41.3936 50.02 41.1616 50.172 40.8896 50.284C40.6256 50.388 40.3336 50.46 40.0136 50.5C39.6936 50.54 39.3616 50.56 39.0176 50.56ZM40.7456 43.816C40.4976 43.816 40.2856 43.732 40.1096 43.564C39.9416 43.396 39.8576 43.188 39.8576 42.94C39.8576 42.692 39.9416 42.48 40.1096 42.304C40.2856 42.128 40.4976 42.04 40.7456 42.04C40.9856 42.04 41.1896 42.128 41.3576 42.304C41.5336 42.48 41.6216 42.692 41.6216 42.94C41.6216 43.188 41.5336 43.396 41.3576 43.564C41.1896 43.732 40.9856 43.816 40.7456 43.816ZM43.7862 50.5L43.5342 41.716H45.2142L45.4662 50.5H43.7862ZM45.9947 53.26L45.3827 51.724C46.0707 51.484 46.6267 51.22 47.0507 50.932C47.4827 50.644 47.7987 50.336 47.9987 50.008C48.2067 49.68 48.3107 49.34 48.3107 48.988C48.3107 48.764 48.2787 48.532 48.2147 48.292C48.1507 48.044 48.0587 47.784 47.9387 47.512C47.8267 47.24 47.6907 46.956 47.5307 46.66L49.1027 45.904C49.3827 46.44 49.5987 46.952 49.7507 47.44C49.9107 47.928 49.9907 48.384 49.9907 48.808C49.9907 49.2 49.9387 49.576 49.8347 49.936C49.7387 50.296 49.5867 50.632 49.3787 50.944C49.1787 51.264 48.9187 51.564 48.5987 51.844C48.2787 52.124 47.9027 52.38 47.4707 52.612C47.0387 52.852 46.5467 53.068 45.9947 53.26ZM58.3292 55.228C57.7932 55.228 57.2692 55.164 56.7572 55.036C56.2532 54.908 55.7972 54.704 55.3892 54.424C54.9812 54.152 54.6572 53.8 54.4172 53.368C54.1772 52.936 54.0572 52.416 54.0572 51.808C54.0572 51.152 54.1892 50.552 54.4532 50.008C54.7172 49.456 55.0892 48.968 55.5692 48.544C56.0492 48.12 56.6172 47.768 57.2732 47.488C57.9372 47.2 58.6612 46.996 59.4452 46.876L59.8412 48.46C59.1372 48.588 58.5252 48.756 58.0052 48.964C57.4932 49.172 57.0692 49.416 56.7332 49.696C56.3972 49.976 56.1452 50.276 55.9772 50.596C55.8172 50.924 55.7372 51.268 55.7372 51.628C55.7372 51.916 55.7892 52.168 55.8932 52.384C56.0052 52.6 56.1532 52.78 56.3372 52.924C56.5212 53.076 56.7252 53.196 56.9492 53.284C57.1732 53.38 57.4052 53.448 57.6452 53.488C57.8852 53.528 58.1132 53.548 58.3292 53.548C58.8812 53.548 59.3932 53.496 59.8652 53.392C60.3452 53.288 60.7652 53.16 61.1252 53.008L61.6052 54.556C61.4132 54.652 61.1412 54.752 60.7892 54.856C60.4452 54.96 60.0572 55.048 59.6252 55.12C59.2012 55.192 58.7692 55.228 58.3292 55.228ZM55.9412 48.58C55.6612 48.468 55.4012 48.308 55.1612 48.1C54.9292 47.892 54.7412 47.636 54.5972 47.332C54.4612 47.02 54.3932 46.664 54.3932 46.264C54.3932 45.76 54.5252 45.324 54.7892 44.956C55.0532 44.588 55.4052 44.304 55.8452 44.104C56.2852 43.904 56.7652 43.804 57.2852 43.804C57.5412 43.804 57.7772 43.82 57.9932 43.852C58.2172 43.884 58.4452 43.932 58.6772 43.996L58.4132 45.592C58.2452 45.552 58.0732 45.52 57.8972 45.496C57.7212 45.472 57.5652 45.46 57.4292 45.46C57.1492 45.46 56.9052 45.5 56.6972 45.58C56.4972 45.66 56.3412 45.776 56.2292 45.928C56.1252 46.072 56.0732 46.244 56.0732 46.444C56.0732 46.604 56.1212 46.756 56.2172 46.9C56.3212 47.044 56.4532 47.172 56.6132 47.284C56.7732 47.388 56.9492 47.476 57.1412 47.548C57.3332 47.612 57.5212 47.648 57.7052 47.656L55.9412 48.58ZM61.393 53.26L61.045 51.58C61.613 51.508 62.109 51.42 62.533 51.316C62.957 51.22 63.313 51.084 63.601 50.908C63.889 50.732 64.105 50.492 64.249 50.188C64.393 49.876 64.465 49.476 64.465 48.988C64.465 48.812 64.449 48.636 64.417 48.46C64.385 48.276 64.337 48.108 64.273 47.956C64.209 47.804 64.125 47.68 64.021 47.584C63.925 47.488 63.809 47.44 63.673 47.44C63.529 47.44 63.401 47.492 63.289 47.596C63.177 47.692 63.089 47.816 63.025 47.968C62.961 48.112 62.929 48.26 62.929 48.412C62.929 48.524 62.957 48.62 63.013 48.7C63.069 48.772 63.153 48.828 63.265 48.868C63.377 48.9 63.517 48.916 63.685 48.916C63.877 48.916 64.073 48.896 64.273 48.856C64.481 48.808 64.669 48.744 64.837 48.664L64.885 49.972C64.693 50.124 64.473 50.26 64.225 50.38C63.977 50.492 63.677 50.548 63.325 50.548C63.037 50.548 62.769 50.516 62.521 50.452C62.273 50.38 62.053 50.272 61.861 50.128C61.677 49.984 61.533 49.8 61.429 49.576C61.325 49.344 61.273 49.068 61.273 48.748C61.273 48.356 61.337 47.976 61.465 47.608C61.593 47.24 61.769 46.912 61.993 46.624C62.225 46.328 62.489 46.096 62.785 45.928C63.089 45.752 63.409 45.664 63.745 45.664C64.145 45.664 64.493 45.764 64.789 45.964C65.093 46.164 65.345 46.428 65.545 46.756C65.745 47.076 65.897 47.424 66.001 47.8C66.105 48.176 66.157 48.536 66.157 48.88C66.157 49.784 65.965 50.552 65.581 51.184C65.197 51.816 64.649 52.304 63.937 52.648C63.225 53 62.377 53.204 61.393 53.26ZM66.8775 53.272L66.2655 51.784C66.6895 51.64 67.0775 51.472 67.4295 51.28C67.7895 51.088 68.1015 50.876 68.3655 50.644C68.6295 50.412 68.8335 50.16 68.9775 49.888C69.1215 49.608 69.1935 49.308 69.1935 48.988C69.1935 48.652 69.1175 48.284 68.9655 47.884C68.8135 47.484 68.6295 47.076 68.4135 46.66L69.9855 45.904C70.1295 46.152 70.2535 46.42 70.3575 46.708C70.4695 46.988 70.5615 47.24 70.6335 47.464C70.7055 47.688 70.7535 47.84 70.7775 47.92C70.8895 48.304 71.0415 48.56 71.2335 48.688C71.4335 48.816 71.7535 48.88 72.1935 48.88C72.4975 48.88 72.7135 48.96 72.8415 49.12C72.9775 49.272 73.0455 49.464 73.0455 49.696C73.0455 49.944 72.9615 50.152 72.7935 50.32C72.6255 50.48 72.3855 50.56 72.0735 50.56C71.7455 50.56 71.4575 50.512 71.2095 50.416C70.9615 50.32 70.7615 50.18 70.6095 49.996C70.4655 49.812 70.3735 49.596 70.3335 49.348L70.7775 49.6C70.7295 50.024 70.5895 50.424 70.3575 50.8C70.1335 51.184 69.8415 51.536 69.4815 51.856C69.1215 52.176 68.7175 52.456 68.2695 52.696C67.8215 52.936 67.3575 53.128 66.8775 53.272ZM72.0879 50.56L72.2079 48.88C72.4719 48.88 72.6879 48.86 72.8559 48.82C73.0239 48.772 73.1599 48.672 73.2639 48.52C73.3759 48.36 73.4719 48.124 73.5519 47.812C73.6399 47.492 73.7359 47.06 73.8399 46.516L75.3999 46.804C75.3759 46.924 75.3479 47.064 75.3159 47.224C75.2839 47.384 75.2559 47.548 75.2319 47.716C75.2079 47.876 75.1959 48.02 75.1959 48.148C75.1959 48.372 75.2679 48.552 75.4119 48.688C75.5559 48.816 75.8279 48.88 76.2279 48.88C76.4279 48.88 76.5999 48.86 76.7439 48.82C76.8959 48.772 77.0239 48.672 77.1279 48.52C77.2399 48.36 77.3359 48.116 77.4159 47.788C77.5039 47.452 77.5879 47 77.6679 46.432L79.2519 46.684C79.2199 46.868 79.1879 47.064 79.1559 47.272C79.1239 47.48 79.0959 47.672 79.0719 47.848C79.0479 48.024 79.0359 48.168 79.0359 48.28C79.0359 48.384 79.0639 48.484 79.1199 48.58C79.1839 48.668 79.2959 48.74 79.4559 48.796C79.6239 48.852 79.8599 48.88 80.1639 48.88C80.3799 48.88 80.5639 48.852 80.7159 48.796C80.8759 48.74 80.9959 48.648 81.0759 48.52C81.1639 48.392 81.2079 48.224 81.2079 48.016C81.2079 47.72 81.1399 47.332 81.0039 46.852C80.8679 46.372 80.7079 45.868 80.5239 45.34L82.2159 44.836C82.3439 45.18 82.4559 45.548 82.5519 45.94C82.6559 46.324 82.7359 46.7 82.7919 47.068C82.8559 47.428 82.8879 47.744 82.8879 48.016C82.8879 48.424 82.8239 48.788 82.6959 49.108C82.5679 49.42 82.3879 49.684 82.1559 49.9C81.9239 50.116 81.6479 50.28 81.3279 50.392C81.0079 50.504 80.6559 50.56 80.2719 50.56C79.8079 50.56 79.4279 50.516 79.1319 50.428C78.8359 50.332 78.6079 50.176 78.4479 49.96C78.2959 49.736 78.1959 49.432 78.1479 49.048H78.5559C78.3879 49.52 78.1999 49.864 77.9919 50.08C77.7839 50.288 77.5359 50.42 77.2479 50.476C76.9679 50.532 76.6159 50.56 76.1919 50.56C75.9279 50.56 75.6559 50.532 75.3759 50.476C75.1039 50.412 74.8599 50.268 74.6439 50.044C74.4279 49.82 74.2679 49.472 74.1639 49L74.8119 48.976C74.6439 49.448 74.4239 49.796 74.1519 50.02C73.8879 50.244 73.5839 50.392 73.2399 50.464C72.8959 50.528 72.5119 50.56 72.0879 50.56ZM78.3639 43.132C78.1639 43.132 77.9879 43.056 77.8359 42.904C77.6919 42.752 77.6199 42.572 77.6199 42.364C77.6199 42.156 77.6919 41.98 77.8359 41.836C77.9879 41.692 78.1639 41.62 78.3639 41.62C78.5719 41.62 78.7479 41.692 78.8919 41.836C79.0359 41.98 79.1079 42.156 79.1079 42.364C79.1079 42.572 79.0359 42.752 78.8919 42.904C78.7479 43.056 78.5719 43.132 78.3639 43.132ZM77.4039 44.716C77.2039 44.716 77.0279 44.64 76.8759 44.488C76.7319 44.336 76.6599 44.156 76.6599 43.948C76.6599 43.74 76.7319 43.564 76.8759 43.42C77.0279 43.276 77.2039 43.204 77.4039 43.204C77.6119 43.204 77.7879 43.276 77.9319 43.42C78.0759 43.564 78.1479 43.74 78.1479 43.948C78.1479 44.156 78.0759 44.336 77.9319 44.488C77.7879 44.64 77.6119 44.716 77.4039 44.716ZM79.2639 44.716C79.0639 44.716 78.8879 44.64 78.7359 44.488C78.5919 44.336 78.5199 44.156 78.5199 43.948C78.5199 43.74 78.5919 43.564 78.7359 43.42C78.8879 43.276 79.0639 43.204 79.2639 43.204C79.4719 43.204 79.6479 43.276 79.7919 43.42C79.9359 43.564 80.0079 43.74 80.0079 43.948C80.0079 44.156 79.9359 44.336 79.7919 44.488C79.6479 44.64 79.4719 44.716 79.2639 44.716Z" fill="black"/>
<path d="M32.9509 65.5V64.72L35.3309 62.19C35.5575 61.95 35.7342 61.7333 35.8609 61.54C35.9942 61.34 36.0909 61.1467 36.1509 60.96C36.2109 60.7733 36.2409 60.5867 36.2409 60.4C36.2409 60.0333 36.1242 59.7533 35.8909 59.56C35.6642 59.3667 35.3375 59.27 34.9109 59.27C34.5842 59.27 34.2642 59.3333 33.9509 59.46C33.6375 59.58 33.3409 59.77 33.0609 60.03L32.6809 59.22C32.9675 58.9533 33.3175 58.7433 33.7309 58.59C34.1442 58.4367 34.5742 58.36 35.0209 58.36C35.5009 58.36 35.9109 58.4367 36.2509 58.59C36.5909 58.7433 36.8475 58.9667 37.0209 59.26C37.2009 59.5533 37.2909 59.9033 37.2909 60.31C37.2909 60.5233 37.2642 60.73 37.2109 60.93C37.1642 61.13 37.0909 61.33 36.9909 61.53C36.8909 61.7233 36.7609 61.9267 36.6009 62.14C36.4475 62.3467 36.2642 62.56 36.0509 62.78L34.1409 64.77V64.6H37.5709V65.5H32.9509ZM41.1311 65.22C41.1311 65.0667 41.1444 64.8867 41.1711 64.68C41.1978 64.4733 41.2478 64.24 41.3211 63.98C41.3944 63.7133 41.5044 63.4167 41.6511 63.09L42.8811 63.52C42.8078 63.7267 42.7444 63.9167 42.6911 64.09C42.6378 64.2567 42.5978 64.4133 42.5711 64.56C42.5444 64.7 42.5311 64.84 42.5311 64.98C42.5311 65.28 42.6044 65.54 42.7511 65.76C42.9044 65.9867 43.1111 66.16 43.3711 66.28C43.6378 66.4067 43.9444 66.47 44.2911 66.47C44.8578 66.47 45.2911 66.3767 45.5911 66.19C45.8978 66.01 46.1044 65.7233 46.2111 65.33C46.3244 64.93 46.3678 64.4133 46.3411 63.78L46.1411 58.18H47.5511L47.7011 62.91C47.7144 63.2433 47.7611 63.5 47.8411 63.68C47.9211 63.86 48.0444 63.9833 48.2111 64.05C48.3844 64.1167 48.6078 64.15 48.8811 64.15C49.1344 64.15 49.3144 64.2167 49.4211 64.35C49.5278 64.4767 49.5811 64.6367 49.5811 64.83C49.5811 65.0367 49.5111 65.21 49.3711 65.35C49.2311 65.4833 49.0344 65.55 48.7811 65.55C48.6344 65.55 48.4778 65.53 48.3111 65.49C48.1444 65.45 47.9844 65.3867 47.8311 65.3C47.6778 65.2133 47.5444 65.1 47.4311 64.96C47.3178 64.8133 47.2411 64.6333 47.2011 64.42L47.7411 64.15C47.7411 64.8233 47.6611 65.3933 47.5011 65.86C47.3478 66.3267 47.1211 66.7033 46.8211 66.99C46.5278 67.2767 46.1644 67.4833 45.7311 67.61C45.3044 67.7433 44.8111 67.81 44.2511 67.81C43.8244 67.81 43.4211 67.7567 43.0411 67.65C42.6678 67.5433 42.3378 67.3833 42.0511 67.17C41.7644 66.9567 41.5378 66.6867 41.3711 66.36C41.2111 66.04 41.1311 65.66 41.1311 65.22ZM58.8113 65.55C58.4713 65.55 58.1446 65.52 57.8313 65.46C57.5179 65.3933 57.2346 65.3067 56.9813 65.2C56.7346 65.0933 56.5313 64.9733 56.3713 64.84L57.2713 63.87C57.5113 63.97 57.7579 64.0433 58.0113 64.09C58.2646 64.13 58.5646 64.15 58.9113 64.15C59.1646 64.15 59.3446 64.2167 59.4513 64.35C59.5646 64.4767 59.6213 64.6367 59.6213 64.83C59.6213 65.0367 59.5513 65.21 59.4113 65.35C59.2713 65.4833 59.0713 65.55 58.8113 65.55ZM53.9613 65.68C53.3413 65.68 52.8246 65.6533 52.4113 65.6C52.0046 65.5467 51.6746 65.47 51.4212 65.37C51.1679 65.27 50.9679 65.15 50.8213 65.01C50.6746 64.87 50.5546 64.7167 50.4613 64.55L50.7413 64.47C50.5746 64.79 50.3846 65.0267 50.1713 65.18C49.9579 65.3333 49.7346 65.4333 49.5013 65.48C49.2679 65.5267 49.0279 65.55 48.7812 65.55L48.8813 64.15C49.0879 64.15 49.2513 64.1167 49.3713 64.05C49.4913 63.9833 49.5879 63.8733 49.6613 63.72C49.7413 63.5667 49.8146 63.3633 49.8813 63.11C49.9479 62.8567 50.0279 62.5467 50.1213 62.18L51.3913 62.49C51.3446 62.67 51.3046 62.8267 51.2713 62.96C51.2446 63.0933 51.2213 63.21 51.2013 63.31C51.1879 63.4033 51.1813 63.48 51.1813 63.54C51.1813 63.6667 51.2113 63.78 51.2713 63.88C51.3313 63.9733 51.4479 64.05 51.6213 64.11C51.7946 64.1633 52.0479 64.2067 52.3813 64.24C52.7213 64.2667 53.1646 64.28 53.7113 64.28C54.2913 64.28 54.7746 64.26 55.1613 64.22C55.5479 64.1733 55.8546 64.11 56.0813 64.03C56.3146 63.9433 56.4813 63.84 56.5813 63.72C56.6813 63.5933 56.7313 63.45 56.7313 63.29C56.7313 63.1633 56.7013 63.0467 56.6413 62.94C56.5879 62.8267 56.4979 62.7333 56.3713 62.66C56.2446 62.5867 56.0813 62.55 55.8813 62.55C55.6413 62.55 55.3979 62.61 55.1513 62.73C54.9113 62.8433 54.6746 62.9967 54.4413 63.19C54.2079 63.3767 53.9846 63.5867 53.7713 63.82C53.5646 64.0533 53.3779 64.2867 53.2113 64.52L51.7113 64.35C51.9713 63.93 52.2646 63.5267 52.5913 63.14C52.9179 62.7533 53.2679 62.4133 53.6413 62.12C54.0146 61.82 54.4013 61.5833 54.8013 61.41C55.2013 61.2367 55.6079 61.15 56.0213 61.15C56.4679 61.15 56.8479 61.2367 57.1613 61.41C57.4746 61.5833 57.7146 61.8233 57.8813 62.13C58.0479 62.4367 58.1313 62.79 58.1313 63.19C58.1313 63.6767 57.9913 64.1067 57.7113 64.48C57.4379 64.8533 56.9946 65.1467 56.3813 65.36C55.7746 65.5733 54.9679 65.68 53.9613 65.68ZM58.8203 65.55L58.9203 64.16C59.4736 64.16 59.917 64.1567 60.2503 64.15C60.5903 64.1433 60.8536 64.13 61.0403 64.11C61.2336 64.0833 61.377 64.0533 61.4703 64.02C61.5636 63.98 61.6436 63.9367 61.7103 63.89C61.7903 63.83 61.857 63.75 61.9103 63.65C61.9703 63.5433 62.017 63.4033 62.0503 63.23C62.0836 63.0567 62.1003 62.84 62.1003 62.58C62.1003 62.2533 62.0703 61.98 62.0103 61.76C61.957 61.5333 61.877 61.3633 61.7703 61.25C61.6703 61.1367 61.547 61.08 61.4003 61.08C61.2936 61.08 61.1936 61.1167 61.1003 61.19C61.007 61.2567 60.9303 61.35 60.8703 61.47C60.8103 61.59 60.7803 61.7267 60.7803 61.88C60.7803 61.9667 60.8036 62.0433 60.8503 62.11C60.897 62.1767 60.9703 62.2267 61.0703 62.26C61.1703 62.2933 61.297 62.31 61.4503 62.31C61.597 62.31 61.7503 62.2933 61.9103 62.26C62.077 62.22 62.2303 62.1667 62.3703 62.1L62.4103 63.29C62.3036 63.3633 62.1803 63.43 62.0403 63.49C61.9003 63.55 61.7503 63.5967 61.5903 63.63C61.437 63.6567 61.2803 63.67 61.1203 63.67C60.767 63.67 60.4603 63.6233 60.2003 63.53C59.947 63.43 59.7503 63.27 59.6103 63.05C59.4703 62.83 59.4003 62.53 59.4003 62.15C59.4003 61.8567 59.4503 61.5667 59.5503 61.28C59.6503 60.9867 59.7936 60.7233 59.9803 60.49C60.167 60.25 60.387 60.06 60.6403 59.92C60.8936 59.7733 61.1736 59.7 61.4803 59.7C61.9336 59.7 62.307 59.8333 62.6003 60.1C62.9003 60.36 63.1203 60.7133 63.2603 61.16C63.407 61.6 63.4803 62.09 63.4803 62.63C63.4803 63.1033 63.4103 63.5167 63.2703 63.87C63.1303 64.2167 62.9636 64.49 62.7703 64.69C62.6103 64.8567 62.427 64.9967 62.2203 65.11C62.0136 65.2233 61.7603 65.3133 61.4603 65.38C61.167 65.44 60.8036 65.4833 60.3703 65.51C59.9436 65.5367 59.427 65.55 58.8203 65.55ZM61.4603 58.77C61.2536 58.77 61.077 58.7 60.9303 58.56C60.7903 58.42 60.7203 58.2467 60.7203 58.04C60.7203 57.8333 60.7903 57.6567 60.9303 57.51C61.077 57.3633 61.2536 57.29 61.4603 57.29C61.6603 57.29 61.8303 57.3633 61.9703 57.51C62.117 57.6567 62.1903 57.8333 62.1903 58.04C62.1903 58.2467 62.117 58.42 61.9703 58.56C61.8303 58.7 61.6603 58.77 61.4603 58.77Z" fill="#667085"/>
<defs>
<filter id="filter0_d_8310_820" x="0" y="0" width="96" height="85.8462" filterUnits="userSpaceOnUse" color-interpolation-filters="sRGB">
<feFlood flood-opacity="0" result="BackgroundImageFix"/>
<feColorMatrix in="SourceAlpha" type="matrix" values="0 0 0 0 0 0 0 0 0 0 0 0 0 0 0 0 0 0 127 0" result="hardAlpha"/>
<feOffset dy="4"/>
<feGaussianBlur stdDeviation="2"/>
<feComposite in2="hardAlpha" operator="out"/>
<feColorMatrix type="matrix" values="0 0 0 0 0 0 0 0 0 0 0 0 0 0 0 0 0 0 0.25 0"/>
<feBlend mode="normal" in2="BackgroundImageFix" result="effect1_dropShadow_8310_820"/>
<feBlend mode="normal" in="SourceGraphic" in2="effect1_dropShadow_8310_820" result="shape"/>
</filter>
<clipPath id="clip0_8310_820">
<rect width="30" height="30" fill="white" transform="translate(33 7.5)"/>
</clipPath>
</defs>
</svg>
