<svg width="96" height="86" viewBox="0 0 96 86" fill="none" xmlns="http://www.w3.org/2000/svg">
<g filter="url(#filter0_d_8310_792)">
<path d="M5.37285 42.5185C4.62083 41.2089 4.24484 40.5536 4.09767 39.8574C3.96744 39.2412 3.96744 38.6048 4.09767 37.9886C4.24484 37.2924 4.62083 36.6371 5.37285 35.3274L23.5901 3.59555C24.3421 2.28569 24.7181 1.63076 25.2442 1.15444C25.7096 0.732998 26.2579 0.414612 26.8535 0.220002C27.5267 -2.00917e-07 28.2787 0 29.7827 0H66.2171C67.7214 0 68.4731 -2.00917e-07 69.1466 0.220002C69.7419 0.414612 70.2903 0.732998 70.756 1.15444C71.282 1.63076 71.6578 2.28569 72.41 3.59555L90.6271 35.3274C91.3792 36.6371 91.7551 37.2924 91.9021 37.9886C92.0326 38.6048 92.0326 39.2412 91.9021 39.8574C91.7551 40.5536 91.3792 41.2089 90.6271 42.5185L72.41 74.2506C71.6578 75.5603 71.282 76.2151 70.756 76.6915C70.2903 77.1131 69.7419 77.4313 69.1466 77.6259C68.4731 77.8462 67.7214 77.8462 66.2171 77.8462H29.7827C28.2787 77.8462 27.5267 77.8462 26.8535 77.6259C26.2579 77.4313 25.7096 77.1131 25.2442 76.6915C24.7181 76.2151 24.3421 75.5603 23.5901 74.2506L5.37285 42.5185Z" fill="white"/>
</g>
<g clip-path="url(#clip0_8310_792)">
<path d="M38 30H44.875V31.5625C44.875 32.4742 44.5128 33.3485 43.8682 33.9932C43.2235 34.6378 42.3492 35 41.4375 35C40.5258 35 39.6515 34.6378 39.0068 33.9932C38.3622 33.3485 38 32.4742 38 31.5625V30ZM43 15.15C45.5 15.15 46.75 18.75 46.75 21.25C46.75 22.5 46.125 23.75 45.5 25.625L44.875 27.5H38C38 26.25 37.375 24.375 37.375 21.25C37.375 18.125 39.8725 15.15 43 15.15ZM58.0675 25.1225L57.7962 26.6612C57.6379 27.5592 57.1294 28.3574 56.3826 28.8804C55.6357 29.4034 54.7117 29.6083 53.8137 29.45C52.9158 29.2917 52.1176 28.7832 51.5946 28.0363C51.0716 27.2894 50.8667 26.3654 51.025 25.4675L51.2975 23.93L58.0675 25.1225ZM55.7225 9.63123C58.8025 10.1737 60.745 13.5362 60.2025 16.6137C59.66 19.6925 58.7188 21.43 58.5025 22.6612L51.7312 21.4675L51.4412 19.5125C51.1512 17.5575 50.7537 16.2175 50.97 14.9875C51.4038 12.525 53.26 9.19748 55.7225 9.63123Z" fill="#F2BB41"/>
</g>
<path d="M21.0364 50.56C20.2924 50.56 19.7164 50.484 19.3084 50.332C18.9084 50.18 18.6284 49.944 18.4684 49.624C18.3084 49.296 18.2164 48.884 18.1924 48.388L17.9404 41.716H19.6204L19.8724 47.584C19.8884 47.952 19.9284 48.228 19.9924 48.412C20.0564 48.596 20.1764 48.72 20.3524 48.784C20.5364 48.848 20.8044 48.88 21.1564 48.88C21.4604 48.88 21.6764 48.96 21.8044 49.12C21.9404 49.272 22.0084 49.464 22.0084 49.696C22.0084 49.944 21.9244 50.152 21.7564 50.32C21.5884 50.48 21.3484 50.56 21.0364 50.56ZM25.9367 50.596C25.5767 50.596 25.2047 50.552 24.8207 50.464C24.4447 50.376 24.0807 50.244 23.7287 50.068C23.3767 49.892 23.0607 49.672 22.7807 49.408C22.5007 49.144 22.2767 48.84 22.1087 48.496C21.9487 48.144 21.8687 47.748 21.8687 47.308C21.8687 46.948 21.9447 46.616 22.0967 46.312C22.2487 46.008 22.4727 45.764 22.7687 45.58C23.0727 45.388 23.4407 45.292 23.8727 45.292C24.2807 45.292 24.6327 45.392 24.9287 45.592C25.2327 45.784 25.4687 46.036 25.6367 46.348C25.8047 46.652 25.8887 46.972 25.8887 47.308C25.8887 47.844 25.7567 48.316 25.4927 48.724C25.2287 49.124 24.8647 49.46 24.4007 49.732C23.9447 50.004 23.4287 50.212 22.8527 50.356C22.2767 50.492 21.6767 50.56 21.0527 50.56L21.1727 48.88C21.6287 48.88 22.0247 48.868 22.3607 48.844C22.7047 48.82 23.0007 48.768 23.2487 48.688C23.4967 48.608 23.7127 48.488 23.8967 48.328C24.0807 48.168 24.2207 47.992 24.3167 47.8C24.4207 47.6 24.4727 47.404 24.4727 47.212C24.4727 47.084 24.4527 46.964 24.4127 46.852C24.3807 46.74 24.3247 46.648 24.2447 46.576C24.1727 46.496 24.0767 46.456 23.9567 46.456C23.8287 46.456 23.7207 46.496 23.6327 46.576C23.5527 46.648 23.4887 46.744 23.4407 46.864C23.4007 46.984 23.3807 47.112 23.3807 47.248C23.3807 47.528 23.4527 47.78 23.5967 48.004C23.7487 48.228 23.9487 48.416 24.1967 48.568C24.4447 48.72 24.7167 48.836 25.0127 48.916C25.3167 48.996 25.6247 49.036 25.9367 49.036C26.1847 49.036 26.3607 48.996 26.4647 48.916C26.5687 48.836 26.6207 48.728 26.6207 48.592C26.6207 48.496 26.5967 48.396 26.5487 48.292C26.5087 48.18 26.4167 48.044 26.2727 47.884C26.1287 47.724 25.9087 47.528 25.6127 47.296C25.3167 47.056 24.9207 46.76 24.4247 46.408C23.9287 46.056 23.3047 45.628 22.5527 45.124L23.4767 43.816C24.3247 44.416 25.0327 44.94 25.6007 45.388C26.1767 45.836 26.6407 46.228 26.9927 46.564C27.3447 46.9 27.6127 47.196 27.7967 47.452C27.9887 47.7 28.1167 47.928 28.1807 48.136C28.2447 48.344 28.2767 48.552 28.2767 48.76C28.2767 49.144 28.1847 49.472 28.0007 49.744C27.8167 50.016 27.5487 50.228 27.1967 50.38C26.8527 50.524 26.4327 50.596 25.9367 50.596ZM29.5802 55.216C29.4362 54.656 29.3122 54.132 29.2082 53.644C29.1122 53.164 29.0402 52.728 28.9922 52.336C28.9442 51.952 28.9202 51.624 28.9202 51.352C28.9202 50.792 29.0122 50.324 29.1962 49.948C29.3882 49.572 29.6402 49.272 29.9522 49.048C30.2722 48.816 30.6202 48.652 30.9962 48.556C31.3722 48.452 31.7482 48.4 32.1242 48.4C32.5082 48.4 32.8602 48.432 33.1802 48.496C33.1962 48.248 33.1762 48.024 33.1202 47.824C33.0722 47.624 32.9962 47.452 32.8922 47.308C32.7962 47.164 32.6762 47.052 32.5322 46.972C32.3962 46.892 32.2482 46.852 32.0882 46.852C31.9362 46.852 31.7842 46.892 31.6322 46.972C31.4802 47.044 31.3362 47.152 31.2002 47.296C31.0722 47.44 30.9482 47.624 30.8282 47.848L29.5202 47.128C29.7362 46.64 29.9922 46.256 30.2882 45.976C30.5842 45.688 30.8922 45.484 31.2122 45.364C31.5402 45.236 31.8602 45.172 32.1722 45.172C32.6522 45.172 33.0642 45.276 33.4082 45.484C33.7602 45.684 34.0442 45.948 34.2602 46.276C34.4762 46.596 34.6362 46.94 34.7402 47.308C34.8442 47.676 34.8962 48.028 34.8962 48.364C34.8962 48.62 34.8682 48.876 34.8122 49.132C34.7642 49.38 34.7042 49.604 34.6322 49.804C34.5682 50.004 34.5042 50.16 34.4402 50.272C34.0002 50.152 33.5842 50.064 33.1922 50.008C32.8002 49.952 32.4442 49.936 32.1242 49.96C31.8122 49.976 31.5402 50.04 31.3082 50.152C31.0842 50.256 30.9082 50.412 30.7802 50.62C30.6602 50.828 30.6002 51.092 30.6002 51.412C30.6002 51.708 30.6242 52.044 30.6722 52.42C30.7202 52.804 30.7882 53.2 30.8762 53.608C30.9642 54.016 31.0642 54.42 31.1762 54.82L29.5802 55.216ZM37.9305 48.88C38.2905 48.88 38.5665 48.848 38.7585 48.784C38.9505 48.72 39.0825 48.636 39.1545 48.532C39.2265 48.428 39.2625 48.316 39.2625 48.196C39.2625 48.004 39.2065 47.78 39.0945 47.524C38.9905 47.268 38.8585 47 38.6985 46.72C38.5385 46.44 38.3705 46.172 38.1945 45.916C38.0265 45.66 37.8745 45.436 37.7385 45.244L39.1665 44.296C39.5105 44.76 39.8065 45.22 40.0545 45.676C40.3025 46.124 40.5025 46.54 40.6545 46.924C40.8145 47.308 40.9265 47.636 40.9905 47.908C41.0545 48.164 41.1505 48.364 41.2785 48.508C41.4145 48.644 41.5705 48.74 41.7465 48.796C41.9225 48.852 42.0985 48.88 42.2745 48.88C42.5785 48.88 42.7945 48.96 42.9225 49.12C43.0585 49.272 43.1265 49.464 43.1265 49.696C43.1265 49.944 43.0425 50.152 42.8745 50.32C42.7145 50.48 42.4745 50.56 42.1545 50.56C41.8025 50.56 41.4945 50.512 41.2305 50.416C40.9665 50.32 40.7425 50.168 40.5585 49.96C40.3745 49.752 40.2185 49.488 40.0905 49.168L40.8225 49.324C40.7585 49.548 40.6105 49.756 40.3785 49.948C40.1545 50.132 39.8545 50.284 39.4785 50.404C39.1105 50.516 38.6745 50.572 38.1705 50.572C37.9305 50.572 37.6625 50.552 37.3665 50.512C37.0785 50.472 36.7905 50.412 36.5025 50.332C36.2225 50.252 35.9665 50.148 35.7345 50.02L36.3225 48.496C36.6185 48.624 36.9025 48.72 37.1745 48.784C37.4545 48.848 37.7065 48.88 37.9305 48.88ZM42.1699 50.56L42.2899 48.892C42.9539 48.892 43.4859 48.888 43.8859 48.88C44.2939 48.872 44.6099 48.856 44.8339 48.832C45.0659 48.8 45.2379 48.764 45.3499 48.724C45.4619 48.676 45.5579 48.624 45.6379 48.568C45.7339 48.496 45.8139 48.4 45.8779 48.28C45.9499 48.152 46.0059 47.984 46.0459 47.776C46.0859 47.568 46.1059 47.308 46.1059 46.996C46.1059 46.604 46.0699 46.276 45.9979 46.012C45.9339 45.74 45.8379 45.536 45.7099 45.4C45.5899 45.264 45.4419 45.196 45.2659 45.196C45.1379 45.196 45.0179 45.24 44.9059 45.328C44.7939 45.408 44.7019 45.52 44.6299 45.664C44.5579 45.808 44.5219 45.972 44.5219 46.156C44.5219 46.26 44.5499 46.352 44.6059 46.432C44.6619 46.512 44.7499 46.572 44.8699 46.612C44.9899 46.652 45.1419 46.672 45.3259 46.672C45.5019 46.672 45.6859 46.652 45.8779 46.612C46.0779 46.564 46.2619 46.5 46.4299 46.42L46.4779 47.848C46.3499 47.936 46.2019 48.016 46.0339 48.088C45.8659 48.16 45.6859 48.216 45.4939 48.256C45.3099 48.288 45.1219 48.304 44.9299 48.304C44.5059 48.304 44.1379 48.248 43.8259 48.136C43.5219 48.016 43.2859 47.824 43.1179 47.56C42.9499 47.296 42.8659 46.936 42.8659 46.48C42.8659 46.128 42.9259 45.78 43.0459 45.436C43.1659 45.084 43.3379 44.768 43.5619 44.488C43.7859 44.2 44.0499 43.972 44.3539 43.804C44.6579 43.628 44.9939 43.54 45.3619 43.54C45.9059 43.54 46.3539 43.7 46.7059 44.02C47.0659 44.332 47.3299 44.756 47.4979 45.292C47.6739 45.82 47.7619 46.408 47.7619 47.056C47.7619 47.624 47.6779 48.12 47.5099 48.544C47.3419 48.96 47.1419 49.288 46.9099 49.528C46.7179 49.728 46.4979 49.896 46.2499 50.032C46.0019 50.168 45.6979 50.276 45.3379 50.356C44.9859 50.428 44.5499 50.48 44.0299 50.512C43.5179 50.544 42.8979 50.56 42.1699 50.56ZM46.3819 42.448C46.1499 42.448 45.9499 42.368 45.7819 42.208C45.6219 42.04 45.5419 41.844 45.5419 41.62C45.5419 41.388 45.6219 41.188 45.7819 41.02C45.9499 40.852 46.1499 40.768 46.3819 40.768C46.6059 40.768 46.7979 40.852 46.9579 41.02C47.1179 41.188 47.1979 41.388 47.1979 41.62C47.1979 41.844 47.1179 42.04 46.9579 42.208C46.7979 42.368 46.6059 42.448 46.3819 42.448ZM44.3059 42.436C44.0739 42.436 43.8739 42.356 43.7059 42.196C43.5459 42.028 43.4659 41.832 43.4659 41.608C43.4659 41.376 43.5459 41.176 43.7059 41.008C43.8739 40.84 44.0739 40.756 44.3059 40.756C44.5299 40.756 44.7219 40.84 44.8819 41.008C45.0419 41.176 45.1219 41.376 45.1219 41.608C45.1219 41.832 45.0419 42.028 44.8819 42.196C44.7219 42.356 44.5299 42.436 44.3059 42.436ZM51.6929 50.164C51.6929 49.884 51.7289 49.536 51.8009 49.12C51.8809 48.696 52.0529 48.192 52.3169 47.608L53.7929 48.124C53.6569 48.5 53.5529 48.824 53.4809 49.096C53.4089 49.36 53.3729 49.62 53.3729 49.876C53.3729 50.236 53.4529 50.544 53.6129 50.8C53.7809 51.056 54.0249 51.252 54.3449 51.388C54.6729 51.524 55.0729 51.592 55.5449 51.592C56.0249 51.592 56.4249 51.54 56.7449 51.436C57.0649 51.332 57.3169 51.184 57.5009 50.992C57.6849 50.808 57.8169 50.592 57.8969 50.344C57.9769 50.096 58.0169 49.828 58.0169 49.54C58.0169 49.316 57.9889 49.064 57.9329 48.784C57.8849 48.504 57.8129 48.2 57.7169 47.872C57.6209 47.536 57.5129 47.184 57.3929 46.816L59.0729 46.384C59.1529 46.688 59.2169 46.948 59.2649 47.164C59.3209 47.38 59.3689 47.56 59.4089 47.704C59.4489 47.84 59.4809 47.952 59.5049 48.04C59.5849 48.28 59.6929 48.46 59.8289 48.58C59.9649 48.7 60.1409 48.78 60.3569 48.82C60.5809 48.86 60.8489 48.88 61.1609 48.88C61.4649 48.88 61.6809 48.96 61.8089 49.12C61.9369 49.272 62.0009 49.464 62.0009 49.696C62.0009 49.944 61.9169 50.152 61.7489 50.32C61.5809 50.48 61.3449 50.56 61.0409 50.56C60.7689 50.56 60.4969 50.524 60.2249 50.452C59.9609 50.372 59.7329 50.244 59.5409 50.068C59.3489 49.892 59.2249 49.656 59.1689 49.36L59.6129 49.84C59.5969 50.384 59.4889 50.868 59.2889 51.292C59.0889 51.716 58.8089 52.076 58.4489 52.372C58.0969 52.668 57.6689 52.892 57.1649 53.044C56.6689 53.196 56.1129 53.272 55.4969 53.272C54.9609 53.272 54.4609 53.212 53.9969 53.092C53.5409 52.98 53.1369 52.796 52.7849 52.54C52.4409 52.292 52.1729 51.972 51.9809 51.58C51.7889 51.188 51.6929 50.716 51.6929 50.164ZM55.6049 45.604C55.3569 45.604 55.1449 45.52 54.9689 45.352C54.8009 45.184 54.7169 44.976 54.7169 44.728C54.7169 44.48 54.8009 44.268 54.9689 44.092C55.1449 43.916 55.3569 43.828 55.6049 43.828C55.8449 43.828 56.0489 43.916 56.2169 44.092C56.3929 44.268 56.4809 44.48 56.4809 44.728C56.4809 44.976 56.3929 45.184 56.2169 45.352C56.0489 45.52 55.8449 45.604 55.6049 45.604ZM61.0371 50.56L61.1571 48.88C61.4451 48.88 61.6931 48.852 61.9011 48.796C62.1091 48.74 62.2851 48.628 62.4291 48.46C62.5731 48.284 62.6931 48.028 62.7891 47.692C62.8931 47.356 62.9851 46.908 63.0651 46.348L64.6371 46.612C64.6211 46.732 64.5971 46.872 64.5651 47.032C64.5411 47.192 64.5171 47.356 64.4931 47.524C64.4771 47.684 64.4691 47.836 64.4691 47.98C64.4691 48.124 64.4971 48.252 64.5531 48.364C64.6091 48.476 64.6971 48.572 64.8171 48.652C64.9451 48.724 65.1091 48.78 65.3091 48.82C65.5171 48.86 65.7691 48.88 66.0651 48.88C66.3691 48.88 66.5851 48.96 66.7131 49.12C66.8411 49.272 66.9051 49.464 66.9051 49.696C66.9051 49.944 66.8211 50.152 66.6531 50.32C66.4931 50.48 66.2571 50.56 65.9451 50.56C65.5851 50.56 65.2571 50.532 64.9611 50.476C64.6731 50.42 64.4211 50.328 64.2051 50.2C63.9971 50.064 63.8251 49.888 63.6891 49.672C63.5611 49.448 63.4811 49.176 63.4491 48.856H64.0251C63.8811 49.24 63.6971 49.548 63.4731 49.78C63.2571 50.004 63.0131 50.172 62.7411 50.284C62.4691 50.396 62.1851 50.468 61.8891 50.5C61.6011 50.54 61.3171 50.56 61.0371 50.56ZM64.3851 53.344C64.1531 53.344 63.9531 53.26 63.7851 53.092C63.6251 52.932 63.5451 52.74 63.5451 52.516C63.5451 52.284 63.6251 52.084 63.7851 51.916C63.9531 51.748 64.1531 51.664 64.3851 51.664C64.6091 51.664 64.8011 51.748 64.9611 51.916C65.1211 52.084 65.2011 52.284 65.2011 52.516C65.2011 52.74 65.1211 52.932 64.9611 53.092C64.8011 53.26 64.6091 53.344 64.3851 53.344ZM62.3091 53.344C62.0771 53.344 61.8771 53.26 61.7091 53.092C61.5491 52.932 61.4691 52.74 61.4691 52.516C61.4691 52.284 61.5491 52.084 61.7091 51.916C61.8771 51.748 62.0771 51.664 62.3091 51.664C62.5331 51.664 62.7251 51.748 62.8851 51.916C63.0451 52.084 63.1251 52.284 63.1251 52.516C63.1251 52.74 63.0451 52.932 62.8851 53.092C62.7251 53.26 62.5331 53.344 62.3091 53.344ZM65.9473 50.56L66.0673 48.88C66.4353 48.88 66.6993 48.844 66.8593 48.772C67.0193 48.692 67.1153 48.548 67.1473 48.34C67.1793 48.124 67.1873 47.812 67.1713 47.404L66.9553 41.716H68.6473L68.8873 47.524C68.9033 47.988 68.8833 48.408 68.8273 48.784C68.7793 49.152 68.6553 49.468 68.4553 49.732C68.2633 49.996 67.9633 50.2 67.5553 50.344C67.1553 50.488 66.6193 50.56 65.9473 50.56ZM70.1938 53.26L69.8458 51.58C70.4138 51.508 70.9098 51.42 71.3338 51.316C71.7578 51.22 72.1138 51.084 72.4018 50.908C72.6898 50.732 72.9058 50.492 73.0498 50.188C73.1938 49.876 73.2658 49.476 73.2658 48.988C73.2658 48.812 73.2498 48.636 73.2178 48.46C73.1858 48.276 73.1378 48.108 73.0738 47.956C73.0098 47.804 72.9258 47.68 72.8218 47.584C72.7258 47.488 72.6098 47.44 72.4738 47.44C72.3298 47.44 72.2018 47.492 72.0898 47.596C71.9778 47.692 71.8898 47.816 71.8258 47.968C71.7618 48.112 71.7298 48.26 71.7298 48.412C71.7298 48.524 71.7578 48.62 71.8138 48.7C71.8698 48.772 71.9538 48.828 72.0658 48.868C72.1778 48.9 72.3178 48.916 72.4858 48.916C72.6778 48.916 72.8738 48.896 73.0738 48.856C73.2818 48.808 73.4698 48.744 73.6378 48.664L73.6858 49.972C73.4938 50.124 73.2738 50.26 73.0258 50.38C72.7778 50.492 72.4778 50.548 72.1258 50.548C71.8378 50.548 71.5698 50.516 71.3218 50.452C71.0738 50.38 70.8538 50.272 70.6618 50.128C70.4778 49.984 70.3338 49.8 70.2298 49.576C70.1258 49.344 70.0738 49.068 70.0738 48.748C70.0738 48.356 70.1378 47.976 70.2658 47.608C70.3938 47.24 70.5698 46.912 70.7938 46.624C71.0258 46.328 71.2898 46.096 71.5858 45.928C71.8898 45.752 72.2098 45.664 72.5458 45.664C72.9458 45.664 73.2938 45.764 73.5898 45.964C73.8938 46.164 74.1458 46.428 74.3458 46.756C74.5458 47.076 74.6978 47.424 74.8018 47.8C74.9058 48.176 74.9578 48.536 74.9578 48.88C74.9578 49.784 74.7658 50.552 74.3818 51.184C73.9978 51.816 73.4498 52.304 72.7378 52.648C72.0258 53 71.1778 53.204 70.1938 53.26ZM76.4463 50.5L76.1943 41.716H77.8743L78.1263 50.5H76.4463Z" fill="black"/>
<path d="M33.1709 65.5V64.6H34.9009V59.33L35.4409 59.36L33.5209 60.56L33.0809 59.76L35.1909 58.45H35.9609V64.6H37.5709V65.5H33.1709ZM41.1311 65.22C41.1311 65.0667 41.1444 64.8867 41.1711 64.68C41.1978 64.4733 41.2478 64.24 41.3211 63.98C41.3944 63.7133 41.5044 63.4167 41.6511 63.09L42.8811 63.52C42.8078 63.7267 42.7444 63.9167 42.6911 64.09C42.6378 64.2567 42.5978 64.4133 42.5711 64.56C42.5444 64.7 42.5311 64.84 42.5311 64.98C42.5311 65.28 42.6044 65.54 42.7511 65.76C42.9044 65.9867 43.1111 66.16 43.3711 66.28C43.6378 66.4067 43.9444 66.47 44.2911 66.47C44.8578 66.47 45.2911 66.3767 45.5911 66.19C45.8978 66.01 46.1044 65.7233 46.2111 65.33C46.3244 64.93 46.3678 64.4133 46.3411 63.78L46.1411 58.18H47.5511L47.7011 62.91C47.7144 63.2433 47.7611 63.5 47.8411 63.68C47.9211 63.86 48.0444 63.9833 48.2111 64.05C48.3844 64.1167 48.6078 64.15 48.8811 64.15C49.1344 64.15 49.3144 64.2167 49.4211 64.35C49.5278 64.4767 49.5811 64.6367 49.5811 64.83C49.5811 65.0367 49.5111 65.21 49.3711 65.35C49.2311 65.4833 49.0344 65.55 48.7811 65.55C48.6344 65.55 48.4778 65.53 48.3111 65.49C48.1444 65.45 47.9844 65.3867 47.8311 65.3C47.6778 65.2133 47.5444 65.1 47.4311 64.96C47.3178 64.8133 47.2411 64.6333 47.2011 64.42L47.7411 64.15C47.7411 64.8233 47.6611 65.3933 47.5011 65.86C47.3478 66.3267 47.1211 66.7033 46.8211 66.99C46.5278 67.2767 46.1644 67.4833 45.7311 67.61C45.3044 67.7433 44.8111 67.81 44.2511 67.81C43.8244 67.81 43.4211 67.7567 43.0411 67.65C42.6678 67.5433 42.3378 67.3833 42.0511 67.17C41.7644 66.9567 41.5378 66.6867 41.3711 66.36C41.2111 66.04 41.1311 65.66 41.1311 65.22ZM58.8113 65.55C58.4713 65.55 58.1446 65.52 57.8313 65.46C57.5179 65.3933 57.2346 65.3067 56.9813 65.2C56.7346 65.0933 56.5313 64.9733 56.3713 64.84L57.2713 63.87C57.5113 63.97 57.7579 64.0433 58.0113 64.09C58.2646 64.13 58.5646 64.15 58.9113 64.15C59.1646 64.15 59.3446 64.2167 59.4513 64.35C59.5646 64.4767 59.6213 64.6367 59.6213 64.83C59.6213 65.0367 59.5513 65.21 59.4113 65.35C59.2713 65.4833 59.0713 65.55 58.8113 65.55ZM53.9613 65.68C53.3413 65.68 52.8246 65.6533 52.4113 65.6C52.0046 65.5467 51.6746 65.47 51.4212 65.37C51.1679 65.27 50.9679 65.15 50.8213 65.01C50.6746 64.87 50.5546 64.7167 50.4613 64.55L50.7413 64.47C50.5746 64.79 50.3846 65.0267 50.1713 65.18C49.9579 65.3333 49.7346 65.4333 49.5013 65.48C49.2679 65.5267 49.0279 65.55 48.7812 65.55L48.8813 64.15C49.0879 64.15 49.2513 64.1167 49.3713 64.05C49.4913 63.9833 49.5879 63.8733 49.6613 63.72C49.7413 63.5667 49.8146 63.3633 49.8813 63.11C49.9479 62.8567 50.0279 62.5467 50.1213 62.18L51.3913 62.49C51.3446 62.67 51.3046 62.8267 51.2713 62.96C51.2446 63.0933 51.2213 63.21 51.2013 63.31C51.1879 63.4033 51.1813 63.48 51.1813 63.54C51.1813 63.6667 51.2113 63.78 51.2713 63.88C51.3313 63.9733 51.4479 64.05 51.6213 64.11C51.7946 64.1633 52.0479 64.2067 52.3813 64.24C52.7213 64.2667 53.1646 64.28 53.7113 64.28C54.2913 64.28 54.7746 64.26 55.1613 64.22C55.5479 64.1733 55.8546 64.11 56.0813 64.03C56.3146 63.9433 56.4813 63.84 56.5813 63.72C56.6813 63.5933 56.7313 63.45 56.7313 63.29C56.7313 63.1633 56.7013 63.0467 56.6413 62.94C56.5879 62.8267 56.4979 62.7333 56.3713 62.66C56.2446 62.5867 56.0813 62.55 55.8813 62.55C55.6413 62.55 55.3979 62.61 55.1513 62.73C54.9113 62.8433 54.6746 62.9967 54.4413 63.19C54.2079 63.3767 53.9846 63.5867 53.7713 63.82C53.5646 64.0533 53.3779 64.2867 53.2113 64.52L51.7113 64.35C51.9713 63.93 52.2646 63.5267 52.5913 63.14C52.9179 62.7533 53.2679 62.4133 53.6413 62.12C54.0146 61.82 54.4013 61.5833 54.8013 61.41C55.2013 61.2367 55.6079 61.15 56.0213 61.15C56.4679 61.15 56.8479 61.2367 57.1613 61.41C57.4746 61.5833 57.7146 61.8233 57.8813 62.13C58.0479 62.4367 58.1313 62.79 58.1313 63.19C58.1313 63.6767 57.9913 64.1067 57.7113 64.48C57.4379 64.8533 56.9946 65.1467 56.3813 65.36C55.7746 65.5733 54.9679 65.68 53.9613 65.68ZM58.8203 65.55L58.9203 64.16C59.4736 64.16 59.917 64.1567 60.2503 64.15C60.5903 64.1433 60.8536 64.13 61.0403 64.11C61.2336 64.0833 61.377 64.0533 61.4703 64.02C61.5636 63.98 61.6436 63.9367 61.7103 63.89C61.7903 63.83 61.857 63.75 61.9103 63.65C61.9703 63.5433 62.017 63.4033 62.0503 63.23C62.0836 63.0567 62.1003 62.84 62.1003 62.58C62.1003 62.2533 62.0703 61.98 62.0103 61.76C61.957 61.5333 61.877 61.3633 61.7703 61.25C61.6703 61.1367 61.547 61.08 61.4003 61.08C61.2936 61.08 61.1936 61.1167 61.1003 61.19C61.007 61.2567 60.9303 61.35 60.8703 61.47C60.8103 61.59 60.7803 61.7267 60.7803 61.88C60.7803 61.9667 60.8036 62.0433 60.8503 62.11C60.897 62.1767 60.9703 62.2267 61.0703 62.26C61.1703 62.2933 61.297 62.31 61.4503 62.31C61.597 62.31 61.7503 62.2933 61.9103 62.26C62.077 62.22 62.2303 62.1667 62.3703 62.1L62.4103 63.29C62.3036 63.3633 62.1803 63.43 62.0403 63.49C61.9003 63.55 61.7503 63.5967 61.5903 63.63C61.437 63.6567 61.2803 63.67 61.1203 63.67C60.767 63.67 60.4603 63.6233 60.2003 63.53C59.947 63.43 59.7503 63.27 59.6103 63.05C59.4703 62.83 59.4003 62.53 59.4003 62.15C59.4003 61.8567 59.4503 61.5667 59.5503 61.28C59.6503 60.9867 59.7936 60.7233 59.9803 60.49C60.167 60.25 60.387 60.06 60.6403 59.92C60.8936 59.7733 61.1736 59.7 61.4803 59.7C61.9336 59.7 62.307 59.8333 62.6003 60.1C62.9003 60.36 63.1203 60.7133 63.2603 61.16C63.407 61.6 63.4803 62.09 63.4803 62.63C63.4803 63.1033 63.4103 63.5167 63.2703 63.87C63.1303 64.2167 62.9636 64.49 62.7703 64.69C62.6103 64.8567 62.427 64.9967 62.2203 65.11C62.0136 65.2233 61.7603 65.3133 61.4603 65.38C61.167 65.44 60.8036 65.4833 60.3703 65.51C59.9436 65.5367 59.427 65.55 58.8203 65.55ZM61.4603 58.77C61.2536 58.77 61.077 58.7 60.9303 58.56C60.7903 58.42 60.7203 58.2467 60.7203 58.04C60.7203 57.8333 60.7903 57.6567 60.9303 57.51C61.077 57.3633 61.2536 57.29 61.4603 57.29C61.6603 57.29 61.8303 57.3633 61.9703 57.51C62.117 57.6567 62.1903 57.8333 62.1903 58.04C62.1903 58.2467 62.117 58.42 61.9703 58.56C61.8303 58.7 61.6603 58.77 61.4603 58.77Z" fill="#667085"/>
<defs>
<filter id="filter0_d_8310_792" x="0" y="0" width="96" height="85.8462" filterUnits="userSpaceOnUse" color-interpolation-filters="sRGB">
<feFlood flood-opacity="0" result="BackgroundImageFix"/>
<feColorMatrix in="SourceAlpha" type="matrix" values="0 0 0 0 0 0 0 0 0 0 0 0 0 0 0 0 0 0 127 0" result="hardAlpha"/>
<feOffset dy="4"/>
<feGaussianBlur stdDeviation="2"/>
<feComposite in2="hardAlpha" operator="out"/>
<feColorMatrix type="matrix" values="0 0 0 0 0 0 0 0 0 0 0 0 0 0 0 0 0 0 0.25 0"/>
<feBlend mode="normal" in2="BackgroundImageFix" result="effect1_dropShadow_8310_792"/>
<feBlend mode="normal" in="SourceGraphic" in2="effect1_dropShadow_8310_792" result="shape"/>
</filter>
<clipPath id="clip0_8310_792">
<rect width="30" height="30" fill="white" transform="translate(33 7.5)"/>
</clipPath>
</defs>
</svg>
