<svg width="101" height="87" viewBox="0 0 101 87" fill="none" xmlns="http://www.w3.org/2000/svg">
<g filter="url(#filter0_d_8310_1160)">
<path d="M5.93525 43.0953C5.14905 41.7856 4.75597 41.1303 4.60211 40.4341C4.46596 39.8178 4.46596 39.1814 4.60211 38.5652C4.75597 37.8689 5.14905 37.2136 5.93525 35.9039L24.9806 4.17043C25.7667 2.86051 26.1598 2.20555 26.7098 1.72921C27.1964 1.30774 27.7696 0.989339 28.3923 0.79472C29.0961 0.574707 29.8823 0.574707 31.4547 0.574707H69.5452C71.1178 0.574707 71.9037 0.574707 72.6078 0.79472C73.2302 0.989339 73.8035 1.30774 74.2903 1.72921C74.8402 2.20555 75.2332 2.86051 76.0195 4.17043L95.0647 35.9039C95.851 37.2136 96.244 37.8689 96.3977 38.5652C96.5341 39.1814 96.5341 39.8178 96.3977 40.4341C96.244 41.1303 95.851 41.7856 95.0647 43.0953L76.0195 74.829C75.2332 76.1387 74.8402 76.7936 74.2903 77.27C73.8035 77.6916 73.2302 78.0098 72.6078 78.2045C71.9037 78.4247 71.1178 78.4247 69.5452 78.4247H31.4547C29.8823 78.4247 29.0961 78.4247 28.3923 78.2045C27.7696 78.0098 27.1964 77.6916 26.7098 77.27C26.1598 76.7936 25.7667 76.1387 24.9806 74.829L5.93525 43.0953Z" fill="white"/>
</g>
<path d="M60.875 30.6997H42.125C42.125 30.6997 40.25 30.6372 40.25 25.6997H62.75C62.75 30.6372 60.875 30.6997 60.875 30.6997Z" fill="#E08838"/>
<path d="M61.5 4.44971H41.5V25.6997H61.5V4.44971Z" fill="#F2BB41"/>
<path d="M57.75 11.9497H47.75V13.1997H57.75V11.9497Z" fill="#E08838"/>
<path d="M57.75 14.4497H47.75V15.6997H57.75V14.4497Z" fill="#E08838"/>
<path d="M57.75 16.9497H47.75V18.1997H57.75V16.9497Z" fill="#E08838"/>
<path d="M57.75 19.4497H47.75V20.6997H57.75V19.4497Z" fill="#E08838"/>
<path d="M57.75 21.9497H47.75V23.1997H57.75V21.9497Z" fill="#E08838"/>
<path d="M46.5 11.9497H45.25V13.1997H46.5V11.9497Z" fill="#E08838"/>
<path d="M46.5 14.4497H45.25V15.6997H46.5V14.4497Z" fill="#E08838"/>
<path d="M46.5 16.9497H45.25V18.1997H46.5V16.9497Z" fill="#E08838"/>
<path d="M46.5 19.4497H45.25V20.6997H46.5V19.4497Z" fill="#E08838"/>
<path d="M46.5 21.9497H45.25V23.1997H46.5V21.9497Z" fill="#E08838"/>
<path d="M14.9418 42.252L15.2538 40.572C15.8298 40.572 16.3818 40.544 16.9098 40.488C17.4458 40.432 17.9538 40.32 18.4338 40.152C18.9218 39.984 19.3778 39.736 19.8018 39.408C20.2258 39.08 20.6098 38.64 20.9538 38.088L22.2978 38.7C22.2498 38.852 22.2098 39 22.1778 39.144C22.1458 39.28 22.1298 39.392 22.1298 39.48C22.1298 39.664 22.1738 39.824 22.2618 39.96C22.3578 40.096 22.5178 40.2 22.7418 40.272C22.9658 40.344 23.2738 40.38 23.6658 40.38C23.9698 40.38 24.1858 40.46 24.3138 40.62C24.4418 40.772 24.5058 40.964 24.5058 41.196C24.5058 41.444 24.4218 41.652 24.2538 41.82C24.0938 41.98 23.8578 42.06 23.5458 42.06C22.9938 42.06 22.5138 41.984 22.1058 41.832C21.7058 41.68 21.3898 41.468 21.1578 41.196C20.9338 40.916 20.8018 40.596 20.7618 40.236L21.2418 40.284C20.9538 40.628 20.5938 40.924 20.1618 41.172C19.7378 41.42 19.2538 41.624 18.7098 41.784C18.1738 41.944 17.5858 42.06 16.9458 42.132C16.3138 42.212 15.6458 42.252 14.9418 42.252ZM14.9298 42.252C14.0658 42.252 13.3338 42.184 12.7338 42.048C12.1418 41.92 11.6578 41.736 11.2818 41.496C10.9138 41.248 10.6458 40.96 10.4778 40.632C10.3098 40.304 10.2258 39.944 10.2258 39.552C10.2258 39.296 10.2458 39.04 10.2858 38.784C10.3338 38.52 10.3898 38.264 10.4538 38.016C10.5258 37.768 10.5898 37.544 10.6458 37.344L12.1458 37.692C12.1138 37.836 12.0778 37.992 12.0378 38.16C11.9978 38.328 11.9658 38.492 11.9418 38.652C11.9178 38.804 11.9058 38.944 11.9058 39.072C11.9058 39.368 12.0098 39.632 12.2178 39.864C12.4338 40.088 12.7858 40.264 13.2738 40.392C13.7618 40.512 14.4178 40.572 15.2418 40.572L15.4818 41.868L14.9298 42.252ZM17.1618 36.768C16.9298 36.768 16.7298 36.688 16.5618 36.528C16.4018 36.36 16.3218 36.164 16.3218 35.94C16.3218 35.708 16.4018 35.508 16.5618 35.34C16.7298 35.172 16.9298 35.088 17.1618 35.088C17.3858 35.088 17.5778 35.172 17.7378 35.34C17.8978 35.508 17.9778 35.708 17.9778 35.94C17.9778 36.164 17.8978 36.36 17.7378 36.528C17.5778 36.688 17.3858 36.768 17.1618 36.768ZM15.0858 36.756C14.8538 36.756 14.6538 36.676 14.4858 36.516C14.3258 36.348 14.2458 36.152 14.2458 35.928C14.2458 35.696 14.3258 35.496 14.4858 35.328C14.6538 35.16 14.8538 35.076 15.0858 35.076C15.3098 35.076 15.5018 35.16 15.6618 35.328C15.8218 35.496 15.9018 35.696 15.9018 35.928C15.9018 36.152 15.8218 36.348 15.6618 36.516C15.5018 36.676 15.3098 36.756 15.0858 36.756ZM23.541 42.06L23.661 40.38C24.141 40.38 24.509 40.356 24.765 40.308C25.021 40.26 25.197 40.172 25.293 40.044C25.397 39.908 25.449 39.716 25.449 39.468C25.449 39.244 25.417 38.976 25.353 38.664C25.297 38.352 25.221 38.028 25.125 37.692C25.037 37.356 24.941 37.048 24.837 36.768L26.493 36.312C26.597 36.584 26.697 36.9 26.793 37.26C26.889 37.62 26.969 37.992 27.033 38.376C27.097 38.752 27.129 39.116 27.129 39.468C27.129 40.012 27.041 40.456 26.865 40.8C26.689 41.136 26.441 41.396 26.121 41.58C25.809 41.764 25.433 41.892 24.993 41.964C24.553 42.028 24.069 42.06 23.541 42.06ZM26.505 44.844C26.273 44.844 26.073 44.76 25.905 44.592C25.745 44.432 25.665 44.24 25.665 44.016C25.665 43.784 25.745 43.584 25.905 43.416C26.073 43.248 26.273 43.164 26.505 43.164C26.729 43.164 26.921 43.248 27.081 43.416C27.241 43.584 27.321 43.784 27.321 44.016C27.321 44.24 27.241 44.432 27.081 44.592C26.921 44.76 26.729 44.844 26.505 44.844ZM24.429 44.844C24.197 44.844 23.997 44.76 23.829 44.592C23.669 44.432 23.589 44.24 23.589 44.016C23.589 43.784 23.669 43.584 23.829 43.416C23.997 43.248 24.197 43.164 24.429 43.164C24.653 43.164 24.845 43.248 25.005 43.416C25.165 43.584 25.245 43.784 25.245 44.016C25.245 44.24 25.165 44.432 25.005 44.592C24.845 44.76 24.653 44.844 24.429 44.844ZM31.6575 42.06C30.9135 42.06 30.3375 41.984 29.9295 41.832C29.5295 41.68 29.2495 41.444 29.0895 41.124C28.9295 40.796 28.8375 40.384 28.8135 39.888L28.5615 33.216H30.2415L30.4935 39.084C30.5095 39.452 30.5495 39.728 30.6135 39.912C30.6775 40.096 30.7975 40.22 30.9735 40.284C31.1575 40.348 31.4255 40.38 31.7775 40.38C32.0815 40.38 32.2975 40.46 32.4255 40.62C32.5615 40.772 32.6295 40.964 32.6295 41.196C32.6295 41.444 32.5455 41.652 32.3775 41.82C32.2095 41.98 31.9695 42.06 31.6575 42.06ZM31.6738 42.06L31.7938 40.38C32.1698 40.38 32.4578 40.376 32.6578 40.368C32.8658 40.36 33.0218 40.352 33.1258 40.344C33.2298 40.328 33.3178 40.316 33.3898 40.308C33.3098 40.228 33.2058 40.112 33.0778 39.96C32.9498 39.808 32.8338 39.612 32.7298 39.372C32.6338 39.132 32.5858 38.844 32.5858 38.508C32.5858 38.02 32.7098 37.592 32.9578 37.224C33.2138 36.856 33.5578 36.568 33.9898 36.36C34.4218 36.152 34.9058 36.048 35.4418 36.048C35.6978 36.048 35.9338 36.064 36.1498 36.096C36.3738 36.128 36.5978 36.176 36.8218 36.24L36.5578 37.836C36.3978 37.796 36.2298 37.764 36.0538 37.74C35.8778 37.716 35.7218 37.704 35.5858 37.704C35.3218 37.704 35.0898 37.748 34.8898 37.836C34.6978 37.916 34.5458 38.032 34.4338 38.184C34.3298 38.328 34.2778 38.504 34.2778 38.712C34.2778 38.848 34.3018 38.976 34.3498 39.096C34.4058 39.216 34.4738 39.324 34.5538 39.42C34.6338 39.516 34.7218 39.6 34.8178 39.672C34.9138 39.744 35.0058 39.804 35.0938 39.852C35.1898 39.892 35.2698 39.92 35.3338 39.936C35.5338 39.88 35.7058 39.832 35.8498 39.792C36.0018 39.744 36.1458 39.7 36.2818 39.66C36.4258 39.612 36.5818 39.552 36.7498 39.48C36.9178 39.408 37.1258 39.32 37.3738 39.216L37.9138 40.8C37.2418 41.128 36.5858 41.384 35.9458 41.568C35.3058 41.752 34.6418 41.88 33.9538 41.952C33.2658 42.024 32.5058 42.06 31.6738 42.06ZM38.2408 44.76L37.6288 43.224C38.3168 42.984 38.8728 42.72 39.2968 42.432C39.7288 42.144 40.0448 41.836 40.2448 41.508C40.4528 41.18 40.5568 40.84 40.5568 40.488C40.5568 40.264 40.5248 40.032 40.4608 39.792C40.3968 39.544 40.3048 39.284 40.1848 39.012C40.0728 38.74 39.9368 38.456 39.7768 38.16L41.3488 37.404C41.6288 37.94 41.8448 38.452 41.9968 38.94C42.1568 39.428 42.2368 39.884 42.2368 40.308C42.2368 40.7 42.1848 41.076 42.0808 41.436C41.9848 41.796 41.8328 42.132 41.6248 42.444C41.4248 42.764 41.1648 43.064 40.8448 43.344C40.5248 43.624 40.1488 43.88 39.7168 44.112C39.2848 44.352 38.7928 44.568 38.2408 44.76ZM47.0713 42L46.8193 33.216H48.4993L48.7513 42H47.0713ZM49.2799 44.76L48.6679 43.224C49.3559 42.984 49.9119 42.72 50.3359 42.432C50.7679 42.144 51.0839 41.836 51.2839 41.508C51.4919 41.18 51.5959 40.84 51.5959 40.488C51.5959 40.264 51.5639 40.032 51.4999 39.792C51.4359 39.544 51.3439 39.284 51.2239 39.012C51.1119 38.74 50.9759 38.456 50.8159 38.16L52.3879 37.404C52.6679 37.94 52.8839 38.452 53.0359 38.94C53.1959 39.428 53.2759 39.884 53.2759 40.308C53.2759 40.7 53.2239 41.076 53.1199 41.436C53.0239 41.796 52.8719 42.132 52.6639 42.444C52.4639 42.764 52.2039 43.064 51.8839 43.344C51.5639 43.624 51.1879 43.88 50.7559 44.112C50.3239 44.352 49.8319 44.568 49.2799 44.76ZM57.4624 41.664C57.4624 41.384 57.4984 41.036 57.5704 40.62C57.6504 40.196 57.8224 39.692 58.0864 39.108L59.5624 39.624C59.4264 40 59.3224 40.324 59.2504 40.596C59.1784 40.86 59.1424 41.12 59.1424 41.376C59.1424 41.736 59.2224 42.044 59.3824 42.3C59.5504 42.556 59.7944 42.752 60.1144 42.888C60.4424 43.024 60.8424 43.092 61.3144 43.092C61.7944 43.092 62.1944 43.04 62.5144 42.936C62.8344 42.832 63.0864 42.684 63.2704 42.492C63.4544 42.308 63.5864 42.092 63.6664 41.844C63.7464 41.596 63.7864 41.328 63.7864 41.04C63.7864 40.816 63.7584 40.564 63.7024 40.284C63.6544 40.004 63.5824 39.7 63.4864 39.372C63.3904 39.036 63.2824 38.684 63.1624 38.316L64.8424 37.884C64.9224 38.188 64.9864 38.448 65.0344 38.664C65.0904 38.88 65.1384 39.06 65.1784 39.204C65.2184 39.34 65.2504 39.452 65.2744 39.54C65.3544 39.78 65.4624 39.96 65.5984 40.08C65.7344 40.2 65.9104 40.28 66.1264 40.32C66.3504 40.36 66.6184 40.38 66.9304 40.38C67.2344 40.38 67.4504 40.46 67.5784 40.62C67.7064 40.772 67.7704 40.964 67.7704 41.196C67.7704 41.444 67.6864 41.652 67.5184 41.82C67.3504 41.98 67.1144 42.06 66.8104 42.06C66.5384 42.06 66.2664 42.024 65.9944 41.952C65.7304 41.872 65.5024 41.744 65.3104 41.568C65.1184 41.392 64.9944 41.156 64.9384 40.86L65.3824 41.34C65.3664 41.884 65.2584 42.368 65.0584 42.792C64.8584 43.216 64.5784 43.576 64.2184 43.872C63.8664 44.168 63.4384 44.392 62.9344 44.544C62.4384 44.696 61.8824 44.772 61.2664 44.772C60.7304 44.772 60.2304 44.712 59.7664 44.592C59.3104 44.48 58.9064 44.296 58.5544 44.04C58.2104 43.792 57.9424 43.472 57.7504 43.08C57.5584 42.688 57.4624 42.216 57.4624 41.664ZM61.3744 37.104C61.1264 37.104 60.9144 37.02 60.7384 36.852C60.5704 36.684 60.4864 36.476 60.4864 36.228C60.4864 35.98 60.5704 35.768 60.7384 35.592C60.9144 35.416 61.1264 35.328 61.3744 35.328C61.6144 35.328 61.8184 35.416 61.9864 35.592C62.1624 35.768 62.2504 35.98 62.2504 36.228C62.2504 36.476 62.1624 36.684 61.9864 36.852C61.8184 37.02 61.6144 37.104 61.3744 37.104ZM66.8066 42.06L66.9266 40.38C67.2146 40.38 67.4626 40.352 67.6706 40.296C67.8786 40.24 68.0546 40.128 68.1986 39.96C68.3426 39.784 68.4626 39.528 68.5586 39.192C68.6626 38.856 68.7546 38.408 68.8346 37.848L70.4066 38.112C70.3906 38.232 70.3666 38.372 70.3346 38.532C70.3106 38.692 70.2866 38.856 70.2626 39.024C70.2466 39.184 70.2386 39.336 70.2386 39.48C70.2386 39.624 70.2666 39.752 70.3226 39.864C70.3786 39.976 70.4666 40.072 70.5866 40.152C70.7146 40.224 70.8786 40.28 71.0786 40.32C71.2866 40.36 71.5386 40.38 71.8346 40.38C72.1386 40.38 72.3546 40.46 72.4826 40.62C72.6106 40.772 72.6746 40.964 72.6746 41.196C72.6746 41.444 72.5906 41.652 72.4226 41.82C72.2626 41.98 72.0266 42.06 71.7146 42.06C71.3546 42.06 71.0266 42.032 70.7306 41.976C70.4426 41.92 70.1906 41.828 69.9746 41.7C69.7666 41.564 69.5946 41.388 69.4586 41.172C69.3306 40.948 69.2506 40.676 69.2186 40.356H69.7946C69.6506 40.74 69.4666 41.048 69.2426 41.28C69.0266 41.504 68.7826 41.672 68.5106 41.784C68.2386 41.896 67.9546 41.968 67.6586 42C67.3706 42.04 67.0866 42.06 66.8066 42.06ZM70.1546 44.844C69.9226 44.844 69.7226 44.76 69.5546 44.592C69.3946 44.432 69.3146 44.24 69.3146 44.016C69.3146 43.784 69.3946 43.584 69.5546 43.416C69.7226 43.248 69.9226 43.164 70.1546 43.164C70.3786 43.164 70.5706 43.248 70.7306 43.416C70.8906 43.584 70.9706 43.784 70.9706 44.016C70.9706 44.24 70.8906 44.432 70.7306 44.592C70.5706 44.76 70.3786 44.844 70.1546 44.844ZM68.0786 44.844C67.8466 44.844 67.6466 44.76 67.4786 44.592C67.3186 44.432 67.2386 44.24 67.2386 44.016C67.2386 43.784 67.3186 43.584 67.4786 43.416C67.6466 43.248 67.8466 43.164 68.0786 43.164C68.3026 43.164 68.4946 43.248 68.6546 43.416C68.8146 43.584 68.8946 43.784 68.8946 44.016C68.8946 44.24 68.8146 44.432 68.6546 44.592C68.4946 44.76 68.3026 44.844 68.0786 44.844ZM71.7168 42.06L71.8368 40.38C72.1888 40.38 72.4648 40.356 72.6648 40.308C72.8728 40.26 73.0208 40.172 73.1088 40.044C73.1968 39.908 73.2408 39.716 73.2408 39.468C73.2408 39.244 73.2088 38.976 73.1448 38.664C73.0888 38.352 73.0128 38.028 72.9168 37.692C72.8208 37.356 72.7248 37.048 72.6288 36.768L74.2848 36.312C74.3808 36.584 74.4768 36.9 74.5728 37.26C74.6688 37.62 74.7488 37.992 74.8128 38.376C74.8848 38.752 74.9208 39.116 74.9208 39.468C74.9208 39.908 74.8648 40.28 74.7528 40.584C74.6408 40.88 74.4848 41.128 74.2848 41.328C74.0928 41.52 73.8608 41.672 73.5888 41.784C73.3248 41.888 73.0328 41.96 72.7128 42C72.3928 42.04 72.0608 42.06 71.7168 42.06ZM73.4448 35.316C73.1968 35.316 72.9848 35.232 72.8088 35.064C72.6408 34.896 72.5568 34.688 72.5568 34.44C72.5568 34.192 72.6408 33.98 72.8088 33.804C72.9848 33.628 73.1968 33.54 73.4448 33.54C73.6848 33.54 73.8888 33.628 74.0568 33.804C74.2328 33.98 74.3208 34.192 74.3208 34.44C74.3208 34.688 74.2328 34.896 74.0568 35.064C73.8888 35.232 73.6848 35.316 73.4448 35.316ZM76.4854 42L76.2334 33.216H77.9134L78.1654 42H76.4854ZM79.4906 44.76L79.1426 43.08C79.7106 43.008 80.2066 42.92 80.6306 42.816C81.0546 42.72 81.4106 42.584 81.6986 42.408C81.9866 42.232 82.2026 41.992 82.3466 41.688C82.4906 41.376 82.5626 40.976 82.5626 40.488C82.5626 40.016 82.4906 39.64 82.3466 39.36C82.2026 39.08 82.0106 38.94 81.7706 38.94C81.6026 38.94 81.4626 39 81.3506 39.12C81.2386 39.232 81.1546 39.368 81.0986 39.528C81.0506 39.68 81.0266 39.816 81.0266 39.936C81.0266 40.008 81.0466 40.084 81.0866 40.164C81.1266 40.244 81.2146 40.312 81.3506 40.368C81.4866 40.424 81.6986 40.456 81.9866 40.464C82.2826 40.472 82.6826 40.444 83.1866 40.38H85.2026C85.5066 40.38 85.7226 40.46 85.8506 40.62C85.9866 40.772 86.0546 40.964 86.0546 41.196C86.0546 41.444 85.9706 41.652 85.8026 41.82C85.6346 41.98 85.3946 42.06 85.0826 42.06H81.7826C81.2786 42.06 80.8466 42 80.4866 41.88C80.1266 41.76 79.8506 41.568 79.6586 41.304C79.4666 41.032 79.3706 40.672 79.3706 40.224C79.3706 39.864 79.4306 39.504 79.5506 39.144C79.6786 38.784 79.8546 38.456 80.0786 38.16C80.3026 37.856 80.5626 37.616 80.8586 37.44C81.1626 37.256 81.4906 37.164 81.8426 37.164C82.3226 37.164 82.7426 37.312 83.1026 37.608C83.4626 37.904 83.7426 38.296 83.9426 38.784C84.1506 39.272 84.2546 39.804 84.2546 40.38C84.2546 41.284 84.0626 42.052 83.6786 42.684C83.2946 43.316 82.7466 43.804 82.0346 44.148C81.3226 44.5 80.4746 44.704 79.4906 44.76ZM85.0996 42.06L85.2196 40.392C85.8836 40.392 86.4156 40.388 86.8156 40.38C87.2236 40.372 87.5396 40.356 87.7636 40.332C87.9956 40.3 88.1676 40.264 88.2796 40.224C88.3916 40.176 88.4876 40.124 88.5676 40.068C88.6636 39.996 88.7436 39.9 88.8076 39.78C88.8796 39.652 88.9356 39.484 88.9756 39.276C89.0156 39.068 89.0356 38.808 89.0356 38.496C89.0356 38.104 88.9996 37.776 88.9276 37.512C88.8636 37.24 88.7676 37.036 88.6396 36.9C88.5196 36.764 88.3716 36.696 88.1956 36.696C88.0676 36.696 87.9476 36.74 87.8356 36.828C87.7236 36.908 87.6316 37.02 87.5596 37.164C87.4876 37.308 87.4516 37.472 87.4516 37.656C87.4516 37.76 87.4796 37.852 87.5356 37.932C87.5916 38.012 87.6796 38.072 87.7996 38.112C87.9196 38.152 88.0716 38.172 88.2556 38.172C88.4316 38.172 88.6156 38.152 88.8076 38.112C89.0076 38.064 89.1916 38 89.3596 37.92L89.4076 39.348C89.2796 39.436 89.1316 39.516 88.9636 39.588C88.7956 39.66 88.6156 39.716 88.4236 39.756C88.2396 39.788 88.0516 39.804 87.8596 39.804C87.4356 39.804 87.0676 39.748 86.7556 39.636C86.4516 39.516 86.2156 39.324 86.0476 39.06C85.8796 38.796 85.7956 38.436 85.7956 37.98C85.7956 37.628 85.8556 37.28 85.9756 36.936C86.0956 36.584 86.2676 36.268 86.4916 35.988C86.7156 35.7 86.9796 35.472 87.2836 35.304C87.5876 35.128 87.9236 35.04 88.2916 35.04C88.8356 35.04 89.2836 35.2 89.6356 35.52C89.9956 35.832 90.2596 36.256 90.4276 36.792C90.6036 37.32 90.6916 37.908 90.6916 38.556C90.6916 39.124 90.6076 39.62 90.4396 40.044C90.2716 40.46 90.0716 40.788 89.8396 41.028C89.6476 41.228 89.4276 41.396 89.1796 41.532C88.9316 41.668 88.6276 41.776 88.2676 41.856C87.9156 41.928 87.4796 41.98 86.9596 42.012C86.4476 42.044 85.8276 42.06 85.0996 42.06ZM89.3116 33.948C89.0796 33.948 88.8796 33.868 88.7116 33.708C88.5516 33.54 88.4716 33.344 88.4716 33.12C88.4716 32.888 88.5516 32.688 88.7116 32.52C88.8796 32.352 89.0796 32.268 89.3116 32.268C89.5356 32.268 89.7276 32.352 89.8876 32.52C90.0476 32.688 90.1276 32.888 90.1276 33.12C90.1276 33.344 90.0476 33.54 89.8876 33.708C89.7276 33.868 89.5356 33.948 89.3116 33.948ZM87.2356 33.936C87.0036 33.936 86.8036 33.856 86.6356 33.696C86.4756 33.528 86.3956 33.332 86.3956 33.108C86.3956 32.876 86.4756 32.676 86.6356 32.508C86.8036 32.34 87.0036 32.256 87.2356 32.256C87.4596 32.256 87.6516 32.34 87.8116 32.508C87.9716 32.676 88.0516 32.876 88.0516 33.108C88.0516 33.332 87.9716 33.528 87.8116 33.696C87.6516 33.856 87.4596 33.936 87.2356 33.936ZM42.2058 56.38C42.5658 56.38 42.8418 56.348 43.0338 56.284C43.2258 56.22 43.3578 56.136 43.4298 56.032C43.5018 55.928 43.5378 55.816 43.5378 55.696C43.5378 55.504 43.4818 55.28 43.3698 55.024C43.2658 54.768 43.1338 54.5 42.9738 54.22C42.8138 53.94 42.6458 53.672 42.4698 53.416C42.3018 53.16 42.1498 52.936 42.0138 52.744L43.4418 51.796C43.7858 52.26 44.0818 52.72 44.3298 53.176C44.5778 53.624 44.7778 54.04 44.9298 54.424C45.0898 54.808 45.2018 55.136 45.2658 55.408C45.3298 55.664 45.4258 55.864 45.5538 56.008C45.6898 56.144 45.8458 56.24 46.0218 56.296C46.1978 56.352 46.3738 56.38 46.5498 56.38C46.8538 56.38 47.0698 56.46 47.1978 56.62C47.3338 56.772 47.4018 56.964 47.4018 57.196C47.4018 57.444 47.3178 57.652 47.1498 57.82C46.9898 57.98 46.7498 58.06 46.4298 58.06C46.0778 58.06 45.7698 58.012 45.5058 57.916C45.2418 57.82 45.0178 57.668 44.8338 57.46C44.6498 57.252 44.4938 56.988 44.3658 56.668L45.0978 56.824C45.0338 57.048 44.8858 57.256 44.6538 57.448C44.4298 57.632 44.1298 57.784 43.7538 57.904C43.3858 58.016 42.9498 58.072 42.4458 58.072C42.2058 58.072 41.9378 58.052 41.6418 58.012C41.3538 57.972 41.0658 57.912 40.7778 57.832C40.4978 57.752 40.2418 57.648 40.0098 57.52L40.5978 55.996C40.8938 56.124 41.1778 56.22 41.4498 56.284C41.7298 56.348 41.9818 56.38 42.2058 56.38ZM46.4453 58.06L46.5653 56.38C46.8533 56.38 47.1013 56.352 47.3093 56.296C47.5173 56.24 47.6933 56.128 47.8373 55.96C47.9813 55.784 48.1013 55.528 48.1973 55.192C48.3013 54.856 48.3933 54.408 48.4733 53.848L50.0453 54.112C50.0293 54.232 50.0053 54.372 49.9733 54.532C49.9493 54.692 49.9253 54.856 49.9013 55.024C49.8853 55.184 49.8773 55.336 49.8773 55.48C49.8773 55.624 49.9053 55.752 49.9613 55.864C50.0173 55.976 50.1053 56.072 50.2253 56.152C50.3533 56.224 50.5173 56.28 50.7173 56.32C50.9253 56.36 51.1773 56.38 51.4733 56.38C51.7773 56.38 51.9933 56.46 52.1213 56.62C52.2493 56.772 52.3133 56.964 52.3133 57.196C52.3133 57.444 52.2293 57.652 52.0613 57.82C51.9013 57.98 51.6653 58.06 51.3533 58.06C50.9933 58.06 50.6653 58.032 50.3693 57.976C50.0813 57.92 49.8293 57.828 49.6133 57.7C49.4053 57.564 49.2333 57.388 49.0973 57.172C48.9693 56.948 48.8893 56.676 48.8573 56.356H49.4333C49.2893 56.74 49.1053 57.048 48.8813 57.28C48.6653 57.504 48.4213 57.672 48.1493 57.784C47.8773 57.896 47.5933 57.968 47.2973 58C47.0093 58.04 46.7253 58.06 46.4453 58.06ZM49.7933 60.844C49.5613 60.844 49.3613 60.76 49.1933 60.592C49.0333 60.432 48.9533 60.24 48.9533 60.016C48.9533 59.784 49.0333 59.584 49.1933 59.416C49.3613 59.248 49.5613 59.164 49.7933 59.164C50.0173 59.164 50.2093 59.248 50.3693 59.416C50.5293 59.584 50.6093 59.784 50.6093 60.016C50.6093 60.24 50.5293 60.432 50.3693 60.592C50.2093 60.76 50.0173 60.844 49.7933 60.844ZM47.7173 60.844C47.4853 60.844 47.2853 60.76 47.1173 60.592C46.9573 60.432 46.8773 60.24 46.8773 60.016C46.8773 59.784 46.9573 59.584 47.1173 59.416C47.2853 59.248 47.4853 59.164 47.7173 59.164C47.9413 59.164 48.1333 59.248 48.2933 59.416C48.4533 59.584 48.5333 59.784 48.5333 60.016C48.5333 60.24 48.4533 60.432 48.2933 60.592C48.1333 60.76 47.9413 60.844 47.7173 60.844ZM51.3555 58.06L51.4755 56.38C51.7795 56.38 52.0195 56.352 52.1955 56.296C52.3795 56.24 52.5235 56.128 52.6275 55.96C52.7395 55.784 52.8315 55.528 52.9035 55.192C52.9835 54.856 53.0635 54.408 53.1435 53.848L54.7155 54.112C54.6995 54.232 54.6755 54.372 54.6435 54.532C54.6195 54.692 54.5955 54.856 54.5715 55.024C54.5555 55.184 54.5475 55.336 54.5475 55.48C54.5475 55.672 54.5875 55.836 54.6675 55.972C54.7555 56.1 54.9075 56.2 55.1235 56.272C55.3475 56.344 55.6675 56.38 56.0835 56.38C56.3875 56.38 56.6035 56.46 56.7315 56.62C56.8595 56.772 56.9235 56.964 56.9235 57.196C56.9235 57.444 56.8395 57.652 56.6715 57.82C56.5115 57.98 56.2755 58.06 55.9635 58.06C55.4115 58.06 54.9635 58.008 54.6195 57.904C54.2755 57.8 54.0195 57.624 53.8515 57.376C53.6835 57.128 53.5755 56.788 53.5275 56.356H54.1035C53.9595 56.74 53.7915 57.048 53.5995 57.28C53.4075 57.504 53.1915 57.672 52.9515 57.784C52.7115 57.896 52.4555 57.968 52.1835 58C51.9195 58.04 51.6435 58.06 51.3555 58.06ZM53.8035 52.624C53.5555 52.624 53.3435 52.54 53.1675 52.372C52.9995 52.204 52.9155 51.996 52.9155 51.748C52.9155 51.5 52.9995 51.288 53.1675 51.112C53.3435 50.936 53.5555 50.848 53.8035 50.848C54.0435 50.848 54.2475 50.936 54.4155 51.112C54.5915 51.288 54.6795 51.5 54.6795 51.748C54.6795 51.996 54.5915 52.204 54.4155 52.372C54.2475 52.54 54.0435 52.624 53.8035 52.624ZM55.9609 58.06L56.0809 56.38H57.7969C57.9649 56.38 58.1129 56.372 58.2409 56.356C58.3689 56.332 58.4729 56.296 58.5529 56.248C58.6409 56.2 58.7049 56.14 58.7449 56.068C58.7849 55.996 58.8049 55.912 58.8049 55.816C58.8049 55.72 58.7529 55.568 58.6489 55.36C58.5529 55.144 58.3409 54.884 58.0129 54.58C57.8369 54.42 57.6449 54.252 57.4369 54.076C57.2369 53.892 57.0449 53.72 56.8609 53.56C56.6769 53.392 56.5249 53.244 56.4049 53.116C56.2849 52.988 56.2249 52.896 56.2249 52.84C56.2249 52.72 56.2329 52.588 56.2489 52.444C56.2649 52.3 56.2889 52.168 56.3209 52.048C56.3609 51.928 56.4129 51.84 56.4769 51.784C56.6129 51.656 56.8129 51.508 57.0769 51.34C57.3489 51.164 57.6729 50.976 58.0489 50.776C58.4249 50.568 58.8449 50.352 59.3089 50.128C59.7809 49.896 60.2849 49.664 60.8209 49.432L61.5049 50.896C61.0649 51.088 60.6489 51.276 60.2569 51.46C59.8649 51.636 59.4969 51.812 59.1529 51.988C58.8169 52.156 58.5049 52.324 58.2169 52.492C57.9369 52.652 57.6889 52.812 57.4729 52.972L57.6289 52.084C58.3089 52.604 58.8489 53.072 59.2489 53.488C59.6569 53.904 59.9609 54.276 60.1609 54.604C60.3609 54.924 60.4929 55.212 60.5569 55.468C60.6209 55.716 60.6529 55.936 60.6529 56.128C60.6529 56.32 60.6049 56.528 60.5089 56.752C60.4209 56.968 60.2569 57.176 60.0169 57.376C59.7849 57.576 59.4569 57.74 59.0329 57.868C58.6089 57.996 58.0649 58.06 57.4009 58.06H55.9609Z" fill="black"/>
<path d="M36.6309 71.5747L40.0609 65.0047L40.0809 65.4447H36.2309V64.5247H41.0309V65.3247L37.7909 71.5747H36.6309ZM44.6311 71.2947C44.6311 71.1414 44.6444 70.9614 44.6711 70.7547C44.6978 70.548 44.7478 70.3147 44.8211 70.0547C44.8944 69.788 45.0044 69.4914 45.1511 69.1647L46.3811 69.5947C46.3078 69.8014 46.2444 69.9914 46.1911 70.1647C46.1378 70.3314 46.0978 70.488 46.0711 70.6347C46.0444 70.7747 46.0311 70.9147 46.0311 71.0547C46.0311 71.3547 46.1044 71.6147 46.2511 71.8347C46.4044 72.0614 46.6111 72.2347 46.8711 72.3547C47.1378 72.4814 47.4444 72.5447 47.7911 72.5447C48.3578 72.5447 48.7911 72.4514 49.0911 72.2647C49.3978 72.0847 49.6044 71.798 49.7111 71.4047C49.8244 71.0047 49.8678 70.488 49.8411 69.8547L49.6411 64.2547H51.0511L51.2011 68.9847C51.2144 69.318 51.2611 69.5747 51.3411 69.7547C51.4211 69.9347 51.5444 70.058 51.7111 70.1247C51.8844 70.1914 52.1078 70.2247 52.3811 70.2247C52.6344 70.2247 52.8144 70.2914 52.9211 70.4247C53.0278 70.5514 53.0811 70.7114 53.0811 70.9047C53.0811 71.1114 53.0111 71.2847 52.8711 71.4247C52.7311 71.558 52.5344 71.6247 52.2811 71.6247C52.1344 71.6247 51.9778 71.6047 51.8111 71.5647C51.6444 71.5247 51.4844 71.4614 51.3311 71.3747C51.1778 71.288 51.0444 71.1747 50.9311 71.0347C50.8178 70.888 50.7411 70.708 50.7011 70.4947L51.2411 70.2247C51.2411 70.898 51.1611 71.468 51.0011 71.9347C50.8478 72.4014 50.6211 72.778 50.3211 73.0647C50.0278 73.3514 49.6644 73.558 49.2311 73.6847C48.8044 73.818 48.3111 73.8847 47.7511 73.8847C47.3244 73.8847 46.9211 73.8314 46.5411 73.7247C46.1678 73.618 45.8378 73.458 45.5511 73.2447C45.2644 73.0314 45.0378 72.7614 44.8711 72.4347C44.7111 72.1147 44.6311 71.7347 44.6311 71.2947ZM62.3113 71.6247C61.9713 71.6247 61.6446 71.5947 61.3313 71.5347C61.0179 71.468 60.7346 71.3814 60.4813 71.2747C60.2346 71.168 60.0313 71.048 59.8713 70.9147L60.7713 69.9447C61.0113 70.0447 61.2579 70.118 61.5113 70.1647C61.7646 70.2047 62.0646 70.2247 62.4113 70.2247C62.6646 70.2247 62.8446 70.2914 62.9513 70.4247C63.0646 70.5514 63.1213 70.7114 63.1213 70.9047C63.1213 71.1114 63.0513 71.2847 62.9113 71.4247C62.7713 71.558 62.5713 71.6247 62.3113 71.6247ZM57.4613 71.7547C56.8413 71.7547 56.3246 71.728 55.9113 71.6747C55.5046 71.6214 55.1746 71.5447 54.9212 71.4447C54.6679 71.3447 54.4679 71.2247 54.3213 71.0847C54.1746 70.9447 54.0546 70.7914 53.9613 70.6247L54.2413 70.5447C54.0746 70.8647 53.8846 71.1014 53.6713 71.2547C53.4579 71.408 53.2346 71.508 53.0013 71.5547C52.7679 71.6014 52.5279 71.6247 52.2812 71.6247L52.3813 70.2247C52.5879 70.2247 52.7513 70.1914 52.8713 70.1247C52.9913 70.058 53.0879 69.948 53.1613 69.7947C53.2413 69.6414 53.3146 69.438 53.3813 69.1847C53.4479 68.9314 53.5279 68.6214 53.6213 68.2547L54.8913 68.5647C54.8446 68.7447 54.8046 68.9014 54.7713 69.0347C54.7446 69.168 54.7213 69.2847 54.7013 69.3847C54.6879 69.478 54.6813 69.5547 54.6813 69.6147C54.6813 69.7414 54.7113 69.8547 54.7713 69.9547C54.8313 70.048 54.9479 70.1247 55.1213 70.1847C55.2946 70.238 55.5479 70.2814 55.8813 70.3147C56.2213 70.3414 56.6646 70.3547 57.2113 70.3547C57.7913 70.3547 58.2746 70.3347 58.6613 70.2947C59.0479 70.248 59.3546 70.1847 59.5813 70.1047C59.8146 70.018 59.9813 69.9147 60.0813 69.7947C60.1813 69.668 60.2313 69.5247 60.2313 69.3647C60.2313 69.238 60.2013 69.1214 60.1413 69.0147C60.0879 68.9014 59.9979 68.808 59.8713 68.7347C59.7446 68.6614 59.5813 68.6247 59.3813 68.6247C59.1413 68.6247 58.8979 68.6847 58.6513 68.8047C58.4113 68.918 58.1746 69.0714 57.9413 69.2647C57.7079 69.4514 57.4846 69.6614 57.2713 69.8947C57.0646 70.128 56.8779 70.3614 56.7113 70.5947L55.2113 70.4247C55.4713 70.0047 55.7646 69.6014 56.0913 69.2147C56.4179 68.828 56.7679 68.488 57.1413 68.1947C57.5146 67.8947 57.9013 67.658 58.3013 67.4847C58.7013 67.3114 59.1079 67.2247 59.5213 67.2247C59.9679 67.2247 60.3479 67.3114 60.6613 67.4847C60.9746 67.658 61.2146 67.898 61.3813 68.2047C61.5479 68.5114 61.6313 68.8647 61.6313 69.2647C61.6313 69.7514 61.4913 70.1814 61.2113 70.5547C60.9379 70.928 60.4946 71.2214 59.8813 71.4347C59.2746 71.648 58.4679 71.7547 57.4613 71.7547ZM62.3203 71.6247L62.4203 70.2347C62.9736 70.2347 63.417 70.2314 63.7503 70.2247C64.0903 70.218 64.3536 70.2047 64.5403 70.1847C64.7336 70.158 64.877 70.128 64.9703 70.0947C65.0636 70.0547 65.1436 70.0114 65.2103 69.9647C65.2903 69.9047 65.357 69.8247 65.4103 69.7247C65.4703 69.618 65.517 69.478 65.5503 69.3047C65.5836 69.1314 65.6003 68.9147 65.6003 68.6547C65.6003 68.328 65.5703 68.0547 65.5103 67.8347C65.457 67.608 65.377 67.438 65.2703 67.3247C65.1703 67.2114 65.047 67.1547 64.9003 67.1547C64.7936 67.1547 64.6936 67.1914 64.6003 67.2647C64.507 67.3314 64.4303 67.4247 64.3703 67.5447C64.3103 67.6647 64.2803 67.8014 64.2803 67.9547C64.2803 68.0414 64.3036 68.118 64.3503 68.1847C64.397 68.2514 64.4703 68.3014 64.5703 68.3347C64.6703 68.368 64.797 68.3847 64.9503 68.3847C65.097 68.3847 65.2503 68.368 65.4103 68.3347C65.577 68.2947 65.7303 68.2414 65.8703 68.1747L65.9103 69.3647C65.8036 69.438 65.6803 69.5047 65.5403 69.5647C65.4003 69.6247 65.2503 69.6714 65.0903 69.7047C64.937 69.7314 64.7803 69.7447 64.6203 69.7447C64.267 69.7447 63.9603 69.698 63.7003 69.6047C63.447 69.5047 63.2503 69.3447 63.1103 69.1247C62.9703 68.9047 62.9003 68.6047 62.9003 68.2247C62.9003 67.9314 62.9503 67.6414 63.0503 67.3547C63.1503 67.0614 63.2936 66.798 63.4803 66.5647C63.667 66.3247 63.887 66.1347 64.1403 65.9947C64.3936 65.848 64.6736 65.7747 64.9803 65.7747C65.4336 65.7747 65.807 65.908 66.1003 66.1747C66.4003 66.4347 66.6203 66.788 66.7603 67.2347C66.907 67.6747 66.9803 68.1647 66.9803 68.7047C66.9803 69.178 66.9103 69.5914 66.7703 69.9447C66.6303 70.2914 66.4636 70.5647 66.2703 70.7647C66.1103 70.9314 65.927 71.0714 65.7203 71.1847C65.5136 71.298 65.2603 71.388 64.9603 71.4547C64.667 71.5147 64.3036 71.558 63.8703 71.5847C63.4436 71.6114 62.927 71.6247 62.3203 71.6247ZM64.9603 64.8447C64.7536 64.8447 64.577 64.7747 64.4303 64.6347C64.2903 64.4947 64.2203 64.3214 64.2203 64.1147C64.2203 63.908 64.2903 63.7314 64.4303 63.5847C64.577 63.438 64.7536 63.3647 64.9603 63.3647C65.1603 63.3647 65.3303 63.438 65.4703 63.5847C65.617 63.7314 65.6903 63.908 65.6903 64.1147C65.6903 64.3214 65.617 64.4947 65.4703 64.6347C65.3303 64.7747 65.1603 64.8447 64.9603 64.8447Z" fill="#667085"/>
<defs>
<filter id="filter0_d_8310_1160" x="0.5" y="0.574707" width="100" height="85.8501" filterUnits="userSpaceOnUse" color-interpolation-filters="sRGB">
<feFlood flood-opacity="0" result="BackgroundImageFix"/>
<feColorMatrix in="SourceAlpha" type="matrix" values="0 0 0 0 0 0 0 0 0 0 0 0 0 0 0 0 0 0 127 0" result="hardAlpha"/>
<feOffset dy="4"/>
<feGaussianBlur stdDeviation="2"/>
<feComposite in2="hardAlpha" operator="out"/>
<feColorMatrix type="matrix" values="0 0 0 0 0 0 0 0 0 0 0 0 0 0 0 0 0 0 0.25 0"/>
<feBlend mode="normal" in2="BackgroundImageFix" result="effect1_dropShadow_8310_1160"/>
<feBlend mode="normal" in="SourceGraphic" in2="effect1_dropShadow_8310_1160" result="shape"/>
</filter>
</defs>
</svg>
