<svg width="102" height="86" viewBox="0 0 102 86" fill="none" xmlns="http://www.w3.org/2000/svg">
<g filter="url(#filter0_d_8334_734)">
<path d="M5.45148 42.5206C4.65639 41.2109 4.25887 40.5556 4.10327 39.8593C3.96558 39.2431 3.96558 38.6067 4.10327 37.9905C4.25887 37.2942 4.65639 36.6389 5.45148 35.3292L24.7122 3.59573C25.5072 2.2858 25.9047 1.63084 26.4609 1.1545C26.953 0.733034 27.5327 0.414632 28.1625 0.220013C28.8742 -2.00927e-07 29.6693 0 31.2595 0H69.7806C71.3711 0 72.1659 -2.00927e-07 72.8779 0.220013C73.5073 0.414632 74.0871 0.733034 74.5794 1.1545C75.1356 1.63084 75.533 2.2858 76.3282 3.59573L95.5887 35.3292C96.3839 36.6389 96.7813 37.2942 96.9368 37.9905C97.0747 38.6067 97.0747 39.2431 96.9368 39.8593C96.7813 40.5556 96.3839 41.2109 95.5887 42.5206L76.3282 74.2543C75.533 75.564 75.1356 76.2189 74.5794 76.6953C74.0871 77.1169 73.5073 77.4351 72.8779 77.6298C72.1659 77.85 71.3711 77.85 69.7806 77.85H31.2595C29.6693 77.85 28.8742 77.85 28.1625 77.6298C27.5327 77.4351 26.953 77.1169 26.4609 76.6953C25.9047 76.2189 25.5072 75.564 24.7122 74.2543L5.45148 42.5206Z" fill="white"/>
</g>
<path d="M60.9148 10.8521H41.9502C41.7451 10.8527 41.5486 10.9345 41.4035 11.0796C41.2585 11.2246 41.1767 11.4211 41.176 11.6262V34.6924C41.1769 34.897 41.259 35.0928 41.4041 35.237C41.5492 35.3812 41.7456 35.4619 41.9502 35.4614H60.9148C61.0158 35.4616 61.1159 35.4418 61.2093 35.4032C61.3026 35.3646 61.3875 35.3079 61.4589 35.2365C61.5303 35.165 61.587 35.0802 61.6256 34.9868C61.6642 34.8935 61.684 34.7934 61.6838 34.6924V11.6262C61.6843 11.4216 61.6036 11.2252 61.4594 11.0801C61.3153 10.9349 61.1194 10.8529 60.9148 10.8521ZM50.4045 31.3803H45.2776C45.0736 31.3803 44.878 31.2993 44.7338 31.1551C44.5896 31.0109 44.5085 30.8153 44.5085 30.6113C44.5085 30.4073 44.5896 30.2117 44.7338 30.0675C44.878 29.9233 45.0736 29.8422 45.2776 29.8422H50.4045C51.4142 29.858 51.4168 31.3642 50.4045 31.3803ZM50.4045 25.7407H45.2776C45.0736 25.7407 44.878 25.6597 44.7338 25.5154C44.5896 25.3712 44.5085 25.1756 44.5085 24.9716C44.5085 24.7677 44.5896 24.5721 44.7338 24.4278C44.878 24.2836 45.0736 24.2026 45.2776 24.2026H50.4045C51.4142 24.2183 51.4168 25.7245 50.4045 25.7407ZM52.4758 19.5679C52.4608 20.5777 50.9534 20.5796 50.9377 19.5678V15.5842C50.9387 14.9417 51.1947 14.3259 51.6494 13.8719C52.104 13.4179 52.7203 13.1629 53.3628 13.1629C54.0053 13.1629 54.6215 13.4179 55.0762 13.8719C55.5309 14.3259 55.7868 14.9417 55.7878 15.5842V19.5679C55.7713 20.5784 54.2663 20.5795 54.2497 19.5678V18.486H52.4758V19.5679ZM58.1257 29.8935L55.6033 32.416C55.5328 32.4886 55.4483 32.546 55.3548 32.5848C55.2614 32.6236 55.161 32.6429 55.0598 32.6416C54.9588 32.6419 54.8587 32.6222 54.7654 32.5834C54.6721 32.5447 54.5874 32.4878 54.5164 32.416L53.4499 31.3496C52.7516 30.6261 53.8134 29.5545 54.5369 30.2626L55.0598 30.7855L57.0388 28.8066C57.77 28.108 58.8309 29.1719 58.1257 29.8935ZM58.1257 24.2539L55.6033 26.7763C55.5328 26.8489 55.4483 26.9063 55.3548 26.9451C55.2614 26.9839 55.161 27.0033 55.0598 27.0019C54.9588 27.0023 54.8587 26.9825 54.7654 26.9438C54.6721 26.9051 54.5874 26.8481 54.5164 26.7763L53.4499 25.7099C52.7516 24.9864 53.8134 23.9148 54.5369 24.623L55.0598 25.1459L57.0388 23.167C57.77 22.4683 58.8309 23.5322 58.1257 24.2539Z" fill="#F2BB41"/>
<path d="M54.2497 15.5841C54.2491 15.3493 54.1554 15.1243 53.9892 14.9584C53.8229 14.7926 53.5976 14.6995 53.3628 14.6995C53.1279 14.6995 52.9027 14.7926 52.7364 14.9584C52.5701 15.1243 52.4764 15.3493 52.4758 15.5841V16.9479H54.2497V15.5841Z" fill="#F2BB41"/>
<path d="M35.8719 53.9167L35.2599 52.3807C35.9479 52.1407 36.5039 51.8767 36.9279 51.5887C37.3599 51.3007 37.6759 50.9927 37.8759 50.6647C38.0839 50.3367 38.1879 49.9967 38.1879 49.6447C38.1879 49.4207 38.1559 49.1887 38.0919 48.9487C38.0279 48.7007 37.9359 48.4407 37.8159 48.1687C37.7039 47.8967 37.5679 47.6127 37.4079 47.3167L38.9799 46.5607C39.2599 47.0967 39.4759 47.6087 39.6279 48.0967C39.7879 48.5847 39.8679 49.0407 39.8679 49.4647C39.8679 49.8567 39.8159 50.2327 39.7119 50.5927C39.6159 50.9527 39.4639 51.2887 39.2559 51.6007C39.0559 51.9207 38.7959 52.2207 38.4759 52.5007C38.1559 52.7807 37.7799 53.0367 37.3479 53.2687C36.9159 53.5087 36.4239 53.7247 35.8719 53.9167ZM38.5239 45.3367C38.2759 45.3367 38.0639 45.2527 37.8879 45.0847C37.7199 44.9167 37.6359 44.7087 37.6359 44.4607C37.6359 44.2127 37.7199 44.0007 37.8879 43.8247C38.0639 43.6487 38.2759 43.5607 38.5239 43.5607C38.7639 43.5607 38.9679 43.6487 39.1359 43.8247C39.3119 44.0007 39.3999 44.2127 39.3999 44.4607C39.3999 44.7087 39.3119 44.9167 39.1359 45.0847C38.9679 45.2527 38.7639 45.3367 38.5239 45.3367ZM41.5501 51.1567L41.2981 42.3727H42.9781L43.2301 51.1567H41.5501ZM47.3357 50.8207C47.3357 50.6367 47.3517 50.4207 47.3837 50.1727C47.4157 49.9247 47.4757 49.6447 47.5637 49.3327C47.6517 49.0127 47.7837 48.6567 47.9597 48.2647L49.4357 48.7807C49.3477 49.0287 49.2717 49.2567 49.2077 49.4647C49.1437 49.6647 49.0957 49.8527 49.0637 50.0287C49.0317 50.1967 49.0157 50.3647 49.0157 50.5327C49.0157 50.8927 49.1037 51.2047 49.2797 51.4687C49.4637 51.7407 49.7117 51.9487 50.0237 52.0927C50.3437 52.2447 50.7117 52.3207 51.1277 52.3207C51.8077 52.3207 52.3277 52.2087 52.6877 51.9847C53.0557 51.7687 53.3037 51.4247 53.4317 50.9527C53.5677 50.4727 53.6197 49.8527 53.5877 49.0927L53.3477 42.3727H55.0397L55.2197 48.0487C55.2357 48.4487 55.2917 48.7567 55.3877 48.9727C55.4837 49.1887 55.6317 49.3367 55.8317 49.4167C56.0397 49.4967 56.3077 49.5367 56.6357 49.5367C56.9397 49.5367 57.1557 49.6167 57.2837 49.7767C57.4117 49.9287 57.4757 50.1207 57.4757 50.3527C57.4757 50.6007 57.3917 50.8087 57.2237 50.9767C57.0557 51.1367 56.8197 51.2167 56.5157 51.2167C56.3397 51.2167 56.1517 51.1927 55.9517 51.1447C55.7517 51.0967 55.5597 51.0207 55.3757 50.9167C55.1917 50.8127 55.0317 50.6767 54.8957 50.5087C54.7597 50.3327 54.6677 50.1167 54.6197 49.8607L55.2677 49.5367C55.2677 50.3447 55.1717 51.0287 54.9797 51.5887C54.7957 52.1487 54.5237 52.6007 54.1637 52.9447C53.8117 53.2887 53.3757 53.5367 52.8557 53.6887C52.3437 53.8487 51.7517 53.9287 51.0797 53.9287C50.5677 53.9287 50.0837 53.8647 49.6277 53.7367C49.1797 53.6087 48.7837 53.4167 48.4397 53.1607C48.0957 52.9047 47.8237 52.5807 47.6237 52.1887C47.4317 51.8047 47.3357 51.3487 47.3357 50.8207ZM56.5159 51.2167L56.6359 49.5367C56.9399 49.5367 57.1799 49.5087 57.3559 49.4527C57.5399 49.3967 57.6839 49.2847 57.7879 49.1167C57.8999 48.9407 57.9919 48.6847 58.0639 48.3487C58.1439 48.0127 58.2239 47.5647 58.3039 47.0047L59.8759 47.2687C59.8599 47.3887 59.8359 47.5287 59.8039 47.6887C59.7799 47.8487 59.7559 48.0127 59.7319 48.1807C59.7159 48.3407 59.7079 48.4927 59.7079 48.6367C59.7079 48.8287 59.7479 48.9927 59.8279 49.1287C59.9159 49.2567 60.0679 49.3567 60.2839 49.4287C60.5079 49.5007 60.8279 49.5367 61.2439 49.5367C61.5479 49.5367 61.7639 49.6167 61.8919 49.7767C62.0199 49.9287 62.0839 50.1207 62.0839 50.3527C62.0839 50.6007 61.9999 50.8087 61.8319 50.9767C61.6719 51.1367 61.4359 51.2167 61.1239 51.2167C60.5719 51.2167 60.1239 51.1647 59.7799 51.0607C59.4359 50.9567 59.1799 50.7807 59.0119 50.5327C58.8439 50.2847 58.7359 49.9447 58.6879 49.5127H59.2639C59.1199 49.8967 58.9519 50.2047 58.7599 50.4367C58.5679 50.6607 58.3519 50.8287 58.1119 50.9407C57.8719 51.0527 57.6159 51.1247 57.3439 51.1567C57.0799 51.1967 56.8039 51.2167 56.5159 51.2167ZM58.6519 53.9767C58.4199 53.9767 58.2199 53.8967 58.0519 53.7367C57.8919 53.5767 57.8119 53.3807 57.8119 53.1487C57.8119 52.9167 57.8919 52.7127 58.0519 52.5367C58.2199 52.3687 58.4199 52.2847 58.6519 52.2847C58.8839 52.2847 59.0799 52.3687 59.2399 52.5367C59.4079 52.7127 59.4919 52.9167 59.4919 53.1487C59.4919 53.3807 59.4079 53.5767 59.2399 53.7367C59.0799 53.8967 58.8839 53.9767 58.6519 53.9767ZM61.1213 51.2167L61.2413 49.5487C61.9053 49.5487 62.4373 49.5447 62.8373 49.5367C63.2453 49.5287 63.5613 49.5127 63.7853 49.4887C64.0173 49.4567 64.1893 49.4207 64.3013 49.3807C64.4133 49.3327 64.5093 49.2807 64.5893 49.2247C64.6853 49.1527 64.7653 49.0567 64.8293 48.9367C64.9013 48.8087 64.9573 48.6407 64.9973 48.4327C65.0373 48.2247 65.0573 47.9647 65.0573 47.6527C65.0573 47.2607 65.0213 46.9327 64.9493 46.6687C64.8853 46.3967 64.7893 46.1927 64.6613 46.0567C64.5413 45.9207 64.3933 45.8527 64.2173 45.8527C64.0893 45.8527 63.9693 45.8967 63.8573 45.9847C63.7453 46.0647 63.6533 46.1767 63.5813 46.3207C63.5093 46.4647 63.4733 46.6287 63.4733 46.8127C63.4733 46.9167 63.5013 47.0087 63.5573 47.0887C63.6133 47.1687 63.7013 47.2287 63.8213 47.2687C63.9413 47.3087 64.0933 47.3287 64.2773 47.3287C64.4533 47.3287 64.6373 47.3087 64.8293 47.2687C65.0293 47.2207 65.2133 47.1567 65.3813 47.0767L65.4293 48.5047C65.3013 48.5927 65.1533 48.6727 64.9853 48.7447C64.8173 48.8167 64.6373 48.8727 64.4453 48.9127C64.2613 48.9447 64.0733 48.9607 63.8813 48.9607C63.4573 48.9607 63.0893 48.9047 62.7773 48.7927C62.4733 48.6727 62.2373 48.4807 62.0693 48.2167C61.9013 47.9527 61.8173 47.5927 61.8173 47.1367C61.8173 46.7847 61.8773 46.4367 61.9973 46.0927C62.1173 45.7407 62.2893 45.4247 62.5133 45.1447C62.7373 44.8567 63.0013 44.6287 63.3053 44.4607C63.6093 44.2847 63.9453 44.1967 64.3133 44.1967C64.8573 44.1967 65.3053 44.3567 65.6573 44.6767C66.0173 44.9887 66.2813 45.4127 66.4493 45.9487C66.6253 46.4767 66.7133 47.0647 66.7133 47.7127C66.7133 48.2807 66.6293 48.7767 66.4613 49.2007C66.2933 49.6167 66.0933 49.9447 65.8613 50.1847C65.6693 50.3847 65.4493 50.5527 65.2013 50.6887C64.9533 50.8247 64.6493 50.9327 64.2893 51.0127C63.9373 51.0847 63.5013 51.1367 62.9813 51.1687C62.4693 51.2007 61.8493 51.2167 61.1213 51.2167ZM65.3333 43.1047C65.1013 43.1047 64.9013 43.0247 64.7333 42.8647C64.5733 42.6967 64.4933 42.5007 64.4933 42.2767C64.4933 42.0447 64.5733 41.8447 64.7333 41.6767C64.9013 41.5087 65.1013 41.4247 65.3333 41.4247C65.5573 41.4247 65.7493 41.5087 65.9093 41.6767C66.0693 41.8447 66.1493 42.0447 66.1493 42.2767C66.1493 42.5007 66.0693 42.6967 65.9093 42.8647C65.7493 43.0247 65.5573 43.1047 65.3333 43.1047ZM63.2573 43.0927C63.0253 43.0927 62.8253 43.0127 62.6573 42.8527C62.4973 42.6847 62.4173 42.4887 62.4173 42.2647C62.4173 42.0327 62.4973 41.8327 62.6573 41.6647C62.8253 41.4967 63.0253 41.4127 63.2573 41.4127C63.4813 41.4127 63.6733 41.4967 63.8333 41.6647C63.9933 41.8327 64.0733 42.0327 64.0733 42.2647C64.0733 42.4887 63.9933 42.6847 63.8333 42.8527C63.6733 43.0127 63.4813 43.0927 63.2573 43.0927ZM33.8708 66.8207C33.8708 66.6367 33.8868 66.4207 33.9188 66.1727C33.9508 65.9247 34.0108 65.6447 34.0988 65.3327C34.1868 65.0127 34.3188 64.6567 34.4948 64.2647L35.9708 64.7807C35.8828 65.0287 35.8068 65.2567 35.7428 65.4647C35.6788 65.6647 35.6308 65.8527 35.5988 66.0287C35.5668 66.1967 35.5508 66.3647 35.5508 66.5327C35.5508 66.9247 35.6388 67.2447 35.8148 67.4927C35.9988 67.7487 36.2548 67.9367 36.5828 68.0567C36.9108 68.1847 37.2908 68.2487 37.7228 68.2487C38.2188 68.2487 38.6268 68.1807 38.9468 68.0447C39.2668 67.9167 39.5148 67.7447 39.6908 67.5287C39.8668 67.3207 39.9908 67.0927 40.0628 66.8447C40.1348 66.5887 40.1708 66.3407 40.1708 66.1007C40.1708 65.7727 40.1148 65.3847 40.0028 64.9367C39.8908 64.4807 39.6908 63.9687 39.4028 63.4007L40.9508 62.7407C41.1108 63.0207 41.2588 63.3487 41.3948 63.7247C41.5308 64.0927 41.6388 64.4767 41.7188 64.8767C41.8068 65.2767 41.8508 65.6567 41.8508 66.0167C41.8508 66.3367 41.8108 66.6767 41.7308 67.0367C41.6508 67.3887 41.5148 67.7367 41.3228 68.0807C41.1388 68.4247 40.8868 68.7327 40.5668 69.0047C40.2468 69.2847 39.8508 69.5087 39.3788 69.6767C38.9068 69.8447 38.3428 69.9287 37.6868 69.9287C37.1588 69.9287 36.6628 69.8687 36.1988 69.7487C35.7428 69.6367 35.3388 69.4567 34.9868 69.2087C34.6428 68.9607 34.3708 68.6367 34.1708 68.2367C33.9708 67.8447 33.8708 67.3727 33.8708 66.8207ZM37.7828 62.2607C37.5348 62.2607 37.3228 62.1767 37.1468 62.0087C36.9788 61.8407 36.8948 61.6327 36.8948 61.3847C36.8948 61.1367 36.9788 60.9247 37.1468 60.7487C37.3228 60.5727 37.5348 60.4847 37.7828 60.4847C38.0228 60.4847 38.2268 60.5727 38.3948 60.7487C38.5708 60.9247 38.6588 61.1367 38.6588 61.3847C38.6588 61.6327 38.5708 61.8407 38.3948 62.0087C38.2268 62.1767 38.0228 62.2607 37.7828 62.2607ZM46.2574 67.2167C45.5134 67.2167 44.9374 67.1407 44.5294 66.9887C44.1294 66.8367 43.8494 66.6007 43.6894 66.2807C43.5294 65.9527 43.4374 65.5407 43.4134 65.0447L43.1614 58.3727H44.8414L45.0934 64.2407C45.1094 64.6087 45.1494 64.8847 45.2134 65.0687C45.2774 65.2527 45.3974 65.3767 45.5734 65.4407C45.7574 65.5047 46.0254 65.5367 46.3774 65.5367C46.6814 65.5367 46.8974 65.6167 47.0254 65.7767C47.1614 65.9287 47.2294 66.1207 47.2294 66.3527C47.2294 66.6007 47.1454 66.8087 46.9774 66.9767C46.8094 67.1367 46.5694 67.2167 46.2574 67.2167ZM54.1217 67.2167C53.7537 67.2167 53.4097 67.1887 53.0897 67.1327C52.7777 67.0767 52.4897 66.9807 52.2257 66.8447C51.9617 66.7007 51.7257 66.5047 51.5177 66.2567C51.3177 66.0087 51.1497 65.6967 51.0137 65.3207L51.9617 64.5647C52.1057 64.8207 52.2817 65.0207 52.4897 65.1647C52.6977 65.3007 52.9457 65.3967 53.2337 65.4527C53.5217 65.5087 53.8577 65.5367 54.2417 65.5367C54.5457 65.5367 54.7617 65.6167 54.8897 65.7767C55.0177 65.9287 55.0817 66.1207 55.0817 66.3527C55.0817 66.6007 54.9977 66.8087 54.8297 66.9767C54.6697 67.1367 54.4337 67.2167 54.1217 67.2167ZM46.2737 67.2167L46.3937 65.5367C46.8257 65.5367 47.2537 65.5127 47.6777 65.4647C48.1017 65.4167 48.5137 65.3447 48.9137 65.2487C49.3137 65.1527 49.6937 65.0287 50.0537 64.8767C50.4217 64.7247 50.7657 64.5407 51.0857 64.3247C50.8457 64.1807 50.5857 64.0567 50.3057 63.9527C50.0257 63.8487 49.7257 63.7727 49.4057 63.7247C49.0937 63.6687 48.7617 63.6407 48.4097 63.6407C48.2817 63.6407 48.1457 63.6447 48.0017 63.6527C47.8657 63.6607 47.7257 63.6767 47.5817 63.7007C47.4377 63.7167 47.2937 63.7407 47.1497 63.7727L46.9097 62.1287C47.1417 62.0647 47.3857 62.0207 47.6417 61.9967C47.9057 61.9647 48.1377 61.9487 48.3377 61.9487C48.7697 61.9487 49.1657 61.9967 49.5257 62.0927C49.8937 62.1887 50.2297 62.3087 50.5337 62.4527C50.8457 62.5967 51.1337 62.7407 51.3977 62.8847C51.6697 63.0287 51.9257 63.1487 52.1657 63.2447C52.4137 63.3407 52.6537 63.3887 52.8857 63.3887H53.3297L53.5217 64.9847C53.1777 65.0007 52.8537 65.0687 52.5497 65.1887C52.2537 65.3007 51.9577 65.4447 51.6617 65.6207C51.3737 65.7887 51.0617 65.9647 50.7257 66.1487C50.3977 66.3327 50.0257 66.5047 49.6097 66.6647C49.1937 66.8247 48.7137 66.9567 48.1697 67.0607C47.6257 67.1647 46.9937 67.2167 46.2737 67.2167ZM54.1252 67.2167L54.2452 65.5367C54.5332 65.5367 54.7812 65.5087 54.9892 65.4527C55.1972 65.3967 55.3732 65.2847 55.5172 65.1167C55.6612 64.9407 55.7812 64.6847 55.8772 64.3487C55.9812 64.0127 56.0732 63.5647 56.1532 63.0047L57.7252 63.2687C57.7092 63.3887 57.6852 63.5287 57.6532 63.6887C57.6292 63.8487 57.6052 64.0127 57.5812 64.1807C57.5652 64.3407 57.5572 64.4927 57.5572 64.6367C57.5572 64.7807 57.5852 64.9087 57.6412 65.0207C57.6972 65.1327 57.7852 65.2287 57.9052 65.3087C58.0332 65.3807 58.1972 65.4367 58.3972 65.4767C58.6052 65.5167 58.8572 65.5367 59.1532 65.5367C59.4572 65.5367 59.6732 65.6167 59.8012 65.7767C59.9292 65.9287 59.9932 66.1207 59.9932 66.3527C59.9932 66.6007 59.9092 66.8087 59.7412 66.9767C59.5812 67.1367 59.3452 67.2167 59.0332 67.2167C58.6732 67.2167 58.3452 67.1887 58.0492 67.1327C57.7612 67.0767 57.5092 66.9847 57.2932 66.8567C57.0852 66.7207 56.9132 66.5447 56.7772 66.3287C56.6492 66.1047 56.5692 65.8327 56.5372 65.5127H57.1132C56.9692 65.8967 56.7852 66.2047 56.5612 66.4367C56.3452 66.6607 56.1012 66.8287 55.8292 66.9407C55.5572 67.0527 55.2732 67.1247 54.9772 67.1567C54.6892 67.1967 54.4052 67.2167 54.1252 67.2167ZM57.9772 61.9247C57.7452 61.9247 57.5452 61.8447 57.3772 61.6847C57.2172 61.5167 57.1372 61.3207 57.1372 61.0967C57.1372 60.8647 57.2172 60.6647 57.3772 60.4967C57.5452 60.3287 57.7452 60.2447 57.9772 60.2447C58.2012 60.2447 58.3932 60.3287 58.5532 60.4967C58.7132 60.6647 58.7932 60.8647 58.7932 61.0967C58.7932 61.3207 58.7132 61.5167 58.5532 61.6847C58.3932 61.8447 58.2012 61.9247 57.9772 61.9247ZM55.9012 61.9127C55.6692 61.9127 55.4692 61.8327 55.3012 61.6727C55.1412 61.5047 55.0612 61.3087 55.0612 61.0847C55.0612 60.8527 55.1412 60.6527 55.3012 60.4847C55.4692 60.3167 55.6692 60.2327 55.9012 60.2327C56.1252 60.2327 56.3172 60.3167 56.4772 60.4847C56.6372 60.6527 56.7172 60.8527 56.7172 61.0847C56.7172 61.3087 56.6372 61.5047 56.4772 61.6727C56.3172 61.8327 56.1252 61.9127 55.9012 61.9127ZM59.0354 67.2167L59.1554 65.5367C59.3394 65.5367 59.4954 65.4927 59.6234 65.4047C59.7594 65.3087 59.8994 65.1527 60.0434 64.9367C60.1874 64.7127 60.3554 64.4127 60.5474 64.0367C60.7874 63.5567 61.0354 63.1807 61.2914 62.9087C61.5554 62.6367 61.8234 62.4447 62.0954 62.3327C62.3754 62.2127 62.6554 62.1527 62.9354 62.1527C63.2874 62.1527 63.6154 62.2287 63.9194 62.3807C64.2234 62.5327 64.4874 62.7407 64.7114 63.0047C64.9354 63.2607 65.1074 63.5567 65.2274 63.8927C65.3554 64.2207 65.4194 64.5607 65.4194 64.9127C65.4194 65.3367 65.3274 65.7207 65.1434 66.0647C64.9674 66.4007 64.7194 66.6687 64.3994 66.8687C64.0874 67.0607 63.7274 67.1567 63.3194 67.1567C62.9754 67.1567 62.5754 67.0967 62.1194 66.9767C61.6634 66.8567 61.1834 66.6047 60.6794 66.2207L61.2914 64.7687C61.6514 65.0167 61.9874 65.1967 62.2994 65.3087C62.6194 65.4207 62.8834 65.4767 63.0914 65.4767C63.2514 65.4767 63.3834 65.4607 63.4874 65.4287C63.5914 65.3967 63.6674 65.3447 63.7154 65.2727C63.7634 65.2007 63.7874 65.1047 63.7874 64.9847C63.7874 64.8167 63.7474 64.6447 63.6674 64.4687C63.5874 64.2927 63.4794 64.1447 63.3434 64.0247C63.2154 63.8967 63.0634 63.8327 62.8874 63.8327C62.7194 63.8327 62.5754 63.8967 62.4554 64.0247C62.3434 64.1447 62.2314 64.3207 62.1194 64.5527C62.0154 64.7767 61.8874 65.0407 61.7354 65.3447C61.5514 65.7127 61.3714 66.0207 61.1954 66.2687C61.0194 66.5087 60.8314 66.7007 60.6314 66.8447C60.4394 66.9807 60.2114 67.0767 59.9474 67.1327C59.6914 67.1887 59.3874 67.2167 59.0354 67.2167ZM66.9798 67.1567L66.7278 58.3727H68.4078L68.6598 67.1567H66.9798Z" fill="black"/>
<defs>
<filter id="filter0_d_8334_734" x="0" y="0" width="101.04" height="85.8501" filterUnits="userSpaceOnUse" color-interpolation-filters="sRGB">
<feFlood flood-opacity="0" result="BackgroundImageFix"/>
<feColorMatrix in="SourceAlpha" type="matrix" values="0 0 0 0 0 0 0 0 0 0 0 0 0 0 0 0 0 0 127 0" result="hardAlpha"/>
<feOffset dy="4"/>
<feGaussianBlur stdDeviation="2"/>
<feComposite in2="hardAlpha" operator="out"/>
<feColorMatrix type="matrix" values="0 0 0 0 0 0 0 0 0 0 0 0 0 0 0 0 0 0 0.25 0"/>
<feBlend mode="normal" in2="BackgroundImageFix" result="effect1_dropShadow_8334_734"/>
<feBlend mode="normal" in="SourceGraphic" in2="effect1_dropShadow_8334_734" result="shape"/>
</filter>
</defs>
</svg>
