<svg width="96" height="86" viewBox="0 0 96 86" fill="none" xmlns="http://www.w3.org/2000/svg">
<g filter="url(#filter0_d_8310_1103)">
<path d="M5.37285 42.5185C4.62083 41.2089 4.24484 40.5536 4.09767 39.8574C3.96744 39.2412 3.96744 38.6048 4.09767 37.9886C4.24484 37.2924 4.62083 36.6371 5.37285 35.3274L23.5901 3.59555C24.3421 2.28569 24.7181 1.63076 25.2442 1.15444C25.7096 0.732998 26.2579 0.414612 26.8535 0.220002C27.5267 -2.00917e-07 28.2787 0 29.7827 0H66.2171C67.7214 0 68.4731 -2.00917e-07 69.1466 0.220002C69.7419 0.414612 70.2903 0.732998 70.756 1.15444C71.282 1.63076 71.6578 2.28569 72.41 3.59555L90.6271 35.3274C91.3792 36.6371 91.7551 37.2924 91.9021 37.9886C92.0326 38.6048 92.0326 39.2412 91.9021 39.8574C91.7551 40.5536 91.3792 41.2089 90.6271 42.5185L72.41 74.2506C71.6578 75.5603 71.282 76.2151 70.756 76.6915C70.2903 77.1131 69.7419 77.4313 69.1466 77.6259C68.4731 77.8462 67.7214 77.8462 66.2171 77.8462H29.7827C28.2787 77.8462 27.5267 77.8462 26.8535 77.6259C26.2579 77.4313 25.7096 77.1131 25.2442 76.6915C24.7181 76.2151 24.3421 75.5603 23.5901 74.2506L5.37285 42.5185Z" fill="white"/>
</g>
<path d="M58.2051 3.5H38.2051C36.8244 3.5 35.7051 4.61929 35.7051 6V26C35.7051 27.3807 36.8244 28.5 38.2051 28.5H58.2051C59.5858 28.5 60.7051 27.3807 60.7051 26V6C60.7051 4.61929 59.5858 3.5 58.2051 3.5Z" fill="#F2BB41"/>
<path d="M54.4551 17.2499H45.7051V14.0124L46.0676 14.3874C46.1838 14.5046 46.322 14.5976 46.4743 14.661C46.6267 14.7245 46.7901 14.7572 46.9551 14.7572C47.1201 14.7572 47.2835 14.7245 47.4358 14.661C47.5881 14.5976 47.7264 14.5046 47.8426 14.3874C47.9597 14.2712 48.0527 14.133 48.1162 13.9806C48.1796 13.8283 48.2123 13.6649 48.2123 13.4999C48.2123 13.3349 48.1796 13.1715 48.1162 13.0192C48.0527 12.8669 47.9597 12.7286 47.8426 12.6124L45.3426 10.1124C45.2264 9.99526 45.0881 9.90227 44.9358 9.83881C44.7835 9.77535 44.6201 9.74268 44.4551 9.74268C44.2901 9.74268 44.1267 9.77535 43.9743 9.83881C43.822 9.90227 43.6838 9.99526 43.5676 10.1124L41.0676 12.6124C40.951 12.729 40.8586 12.8673 40.7955 13.0196C40.7324 13.1719 40.7 13.3351 40.7 13.4999C40.7 13.8328 40.8322 14.152 41.0676 14.3874C41.3029 14.6228 41.6222 14.755 41.9551 14.755C42.2879 14.755 42.6072 14.6228 42.8426 14.3874L43.2051 14.0124V17.2499C43.2051 17.913 43.4685 18.5488 43.9373 19.0177C44.4061 19.4865 45.042 19.7499 45.7051 19.7499H54.4551C54.7866 19.7499 55.1045 19.6182 55.3389 19.3838C55.5734 19.1494 55.7051 18.8314 55.7051 18.4999C55.7051 18.1684 55.5734 17.8505 55.3389 17.616C55.1045 17.3816 54.7866 17.2499 54.4551 17.2499Z" fill="#E08838"/>
<path d="M9.01903 43.664C9.01903 43.48 9.03503 43.264 9.06703 43.016C9.09903 42.768 9.15903 42.488 9.24703 42.176C9.33503 41.856 9.46703 41.5 9.64303 41.108L11.119 41.624C11.031 41.872 10.955 42.1 10.891 42.308C10.827 42.508 10.779 42.696 10.747 42.872C10.715 43.04 10.699 43.208 10.699 43.376C10.699 43.64 10.755 43.876 10.867 44.084C10.987 44.3 11.159 44.48 11.383 44.624C11.607 44.776 11.879 44.892 12.199 44.972C12.527 45.052 12.903 45.092 13.327 45.092C13.767 45.092 14.159 45.072 14.503 45.032C14.855 44.992 15.151 44.932 15.391 44.852C15.639 44.772 15.827 44.668 15.955 44.54C16.083 44.42 16.147 44.28 16.147 44.12C16.147 44.048 16.119 43.98 16.063 43.916C16.015 43.852 15.931 43.784 15.811 43.712C15.699 43.64 15.547 43.564 15.355 43.484C15.171 43.404 14.947 43.316 14.683 43.22L15.079 41.528C15.423 41.672 15.747 41.8 16.051 41.912C16.363 42.016 16.659 42.104 16.939 42.176C17.219 42.24 17.483 42.292 17.731 42.332C17.979 42.364 18.211 42.38 18.427 42.38C18.731 42.38 18.947 42.46 19.075 42.62C19.203 42.772 19.267 42.964 19.267 43.196C19.267 43.444 19.183 43.652 19.015 43.82C18.847 43.98 18.611 44.06 18.307 44.06C18.243 44.06 18.179 44.06 18.115 44.06C18.059 44.06 17.999 44.06 17.935 44.06C17.879 44.06 17.819 44.06 17.755 44.06C17.771 44.14 17.779 44.208 17.779 44.264C17.779 44.328 17.779 44.388 17.779 44.444C17.779 44.708 17.687 44.976 17.503 45.248C17.327 45.52 17.051 45.772 16.675 46.004C16.299 46.236 15.819 46.42 15.235 46.556C14.659 46.7 13.971 46.772 13.171 46.772C12.307 46.772 11.563 46.66 10.939 46.436C10.323 46.22 9.84703 45.88 9.51103 45.416C9.18303 44.96 9.01903 44.376 9.01903 43.664ZM18.3047 44.06L18.4247 42.38C18.6887 42.38 18.9047 42.36 19.0727 42.32C19.2407 42.272 19.3767 42.172 19.4807 42.02C19.5927 41.86 19.6887 41.624 19.7687 41.312C19.8567 40.992 19.9527 40.56 20.0567 40.016L21.6167 40.304C21.5927 40.424 21.5647 40.564 21.5327 40.724C21.5007 40.884 21.4727 41.048 21.4487 41.216C21.4247 41.376 21.4127 41.52 21.4127 41.648C21.4127 41.872 21.4847 42.052 21.6287 42.188C21.7727 42.316 22.0447 42.38 22.4447 42.38C22.6447 42.38 22.8167 42.36 22.9607 42.32C23.1127 42.272 23.2407 42.172 23.3447 42.02C23.4567 41.86 23.5527 41.616 23.6327 41.288C23.7207 40.952 23.8047 40.5 23.8847 39.932L25.4687 40.184C25.4367 40.368 25.4047 40.564 25.3727 40.772C25.3407 40.98 25.3127 41.172 25.2887 41.348C25.2647 41.524 25.2527 41.668 25.2527 41.78C25.2527 41.884 25.2807 41.984 25.3367 42.08C25.4007 42.168 25.5127 42.24 25.6727 42.296C25.8407 42.352 26.0767 42.38 26.3807 42.38C26.5967 42.38 26.7807 42.352 26.9327 42.296C27.0927 42.24 27.2127 42.148 27.2927 42.02C27.3807 41.892 27.4247 41.724 27.4247 41.516C27.4247 41.22 27.3567 40.832 27.2207 40.352C27.0847 39.872 26.9247 39.368 26.7407 38.84L28.4327 38.336C28.5607 38.68 28.6727 39.048 28.7687 39.44C28.8727 39.824 28.9527 40.2 29.0087 40.568C29.0727 40.928 29.1047 41.244 29.1047 41.516C29.1047 41.924 29.0407 42.288 28.9127 42.608C28.7847 42.92 28.6047 43.184 28.3727 43.4C28.1407 43.616 27.8647 43.78 27.5447 43.892C27.2247 44.004 26.8727 44.06 26.4887 44.06C26.0247 44.06 25.6447 44.016 25.3487 43.928C25.0527 43.832 24.8247 43.676 24.6647 43.46C24.5127 43.236 24.4127 42.932 24.3647 42.548H24.7727C24.6047 43.02 24.4167 43.364 24.2087 43.58C24.0007 43.788 23.7527 43.92 23.4647 43.976C23.1847 44.032 22.8327 44.06 22.4087 44.06C22.1447 44.06 21.8727 44.032 21.5927 43.976C21.3207 43.912 21.0767 43.768 20.8607 43.544C20.6447 43.32 20.4847 42.972 20.3807 42.5L21.0287 42.476C20.8607 42.948 20.6407 43.296 20.3687 43.52C20.1047 43.744 19.8007 43.892 19.4567 43.964C19.1127 44.028 18.7287 44.06 18.3047 44.06ZM33.511 44.06C32.767 44.06 32.191 43.984 31.783 43.832C31.383 43.68 31.103 43.444 30.943 43.124C30.783 42.796 30.691 42.384 30.667 41.888L30.415 35.216H32.095L32.347 41.084C32.363 41.452 32.403 41.728 32.467 41.912C32.531 42.096 32.651 42.22 32.827 42.284C33.011 42.348 33.279 42.38 33.631 42.38C33.935 42.38 34.151 42.46 34.279 42.62C34.415 42.772 34.483 42.964 34.483 43.196C34.483 43.444 34.399 43.652 34.231 43.82C34.063 43.98 33.823 44.06 33.511 44.06ZM33.5273 44.06L33.6473 42.38C33.9113 42.38 34.1273 42.36 34.2953 42.32C34.4633 42.272 34.5993 42.172 34.7033 42.02C34.8153 41.86 34.9113 41.624 34.9913 41.312C35.0793 40.992 35.1753 40.56 35.2793 40.016L36.8393 40.304C36.8153 40.424 36.7873 40.564 36.7553 40.724C36.7233 40.884 36.6953 41.048 36.6713 41.216C36.6473 41.376 36.6353 41.52 36.6353 41.648C36.6353 41.872 36.7073 42.052 36.8513 42.188C36.9953 42.316 37.2673 42.38 37.6673 42.38C37.8673 42.38 38.0393 42.36 38.1833 42.32C38.3353 42.272 38.4633 42.172 38.5673 42.02C38.6793 41.86 38.7753 41.616 38.8553 41.288C38.9433 40.952 39.0273 40.5 39.1073 39.932L40.6913 40.184C40.6593 40.368 40.6273 40.564 40.5953 40.772C40.5633 40.98 40.5353 41.172 40.5113 41.348C40.4873 41.524 40.4753 41.668 40.4753 41.78C40.4753 41.884 40.5033 41.984 40.5593 42.08C40.6233 42.168 40.7353 42.24 40.8953 42.296C41.0633 42.352 41.2993 42.38 41.6033 42.38C41.8193 42.38 42.0033 42.352 42.1553 42.296C42.3153 42.24 42.4353 42.148 42.5153 42.02C42.6033 41.892 42.6473 41.724 42.6473 41.516C42.6473 41.22 42.5793 40.832 42.4433 40.352C42.3073 39.872 42.1473 39.368 41.9633 38.84L43.6553 38.336C43.7833 38.68 43.8953 39.048 43.9913 39.44C44.0953 39.824 44.1753 40.2 44.2313 40.568C44.2953 40.928 44.3273 41.244 44.3273 41.516C44.3273 41.924 44.2633 42.288 44.1353 42.608C44.0073 42.92 43.8273 43.184 43.5953 43.4C43.3633 43.616 43.0873 43.78 42.7673 43.892C42.4473 44.004 42.0953 44.06 41.7113 44.06C41.2473 44.06 40.8673 44.016 40.5713 43.928C40.2753 43.832 40.0473 43.676 39.8873 43.46C39.7353 43.236 39.6353 42.932 39.5873 42.548H39.9953C39.8273 43.02 39.6393 43.364 39.4313 43.58C39.2233 43.788 38.9753 43.92 38.6873 43.976C38.4073 44.032 38.0553 44.06 37.6313 44.06C37.3673 44.06 37.0953 44.032 36.8153 43.976C36.5433 43.912 36.2993 43.768 36.0833 43.544C35.8673 43.32 35.7073 42.972 35.6033 42.5L36.2513 42.476C36.0833 42.948 35.8633 43.296 35.5913 43.52C35.3273 43.744 35.0233 43.892 34.6793 43.964C34.3353 44.028 33.9513 44.06 33.5273 44.06ZM45.8897 44L45.6377 35.216H47.3177L47.5697 44H45.8897ZM56.4513 44.252L56.7633 42.572C57.2593 42.572 57.7313 42.556 58.1793 42.524C58.6273 42.492 59.0393 42.452 59.4153 42.404C59.7993 42.356 60.1313 42.304 60.4113 42.248C60.6993 42.192 60.9193 42.14 61.0713 42.092C61.3433 42.004 61.5753 41.896 61.7673 41.768C61.9593 41.64 62.1073 41.496 62.2113 41.336C62.3153 41.176 62.3673 41.016 62.3673 40.856C62.3673 40.744 62.3473 40.632 62.3073 40.52C62.2673 40.408 62.2113 40.304 62.1393 40.208C62.0753 40.112 61.9953 40.036 61.8993 39.98C61.8113 39.916 61.7193 39.884 61.6233 39.884C61.4953 39.884 61.3673 39.932 61.2393 40.028C61.1193 40.124 61.0193 40.252 60.9393 40.412C60.8673 40.564 60.8313 40.736 60.8313 40.928C60.8313 41.064 60.8713 41.208 60.9513 41.36C61.0313 41.512 61.1433 41.66 61.2873 41.804C61.4393 41.94 61.6113 42.06 61.8033 42.164L60.2073 42.776C60.0313 42.608 59.8633 42.436 59.7033 42.26C59.5513 42.076 59.4233 41.872 59.3193 41.648C59.2233 41.424 59.1753 41.172 59.1753 40.892C59.1753 40.524 59.2473 40.184 59.3913 39.872C59.5433 39.552 59.7393 39.272 59.9793 39.032C60.2273 38.792 60.4953 38.608 60.7833 38.48C61.0793 38.344 61.3713 38.276 61.6593 38.276C62.1233 38.276 62.5313 38.4 62.8833 38.648C63.2353 38.888 63.5113 39.2 63.7113 39.584C63.9193 39.968 64.0233 40.372 64.0233 40.796C64.0233 41.172 63.9513 41.508 63.8073 41.804C63.6633 42.1 63.4673 42.36 63.2193 42.584C62.9793 42.8 62.7113 42.992 62.4153 43.16C62.1273 43.328 61.8353 43.472 61.5393 43.592C61.3313 43.68 61.0433 43.764 60.6753 43.844C60.3153 43.924 59.8993 43.992 59.4273 44.048C58.9633 44.112 58.4753 44.16 57.9633 44.192C57.4513 44.232 56.9473 44.252 56.4513 44.252ZM64.7313 44.06C64.2673 44.06 63.8113 44.036 63.3633 43.988C62.9153 43.94 62.4993 43.868 62.1153 43.772C61.7393 43.676 61.4113 43.56 61.1313 43.424L61.9593 42.128C62.1993 42.192 62.4793 42.244 62.7993 42.284C63.1273 42.316 63.4673 42.34 63.8193 42.356C64.1793 42.372 64.5233 42.38 64.8513 42.38C65.1553 42.38 65.3713 42.46 65.4993 42.62C65.6353 42.772 65.7033 42.964 65.7033 43.196C65.7033 43.444 65.6193 43.652 65.4513 43.82C65.2833 43.98 65.0433 44.06 64.7313 44.06ZM56.4513 44.252C55.5873 44.252 54.8553 44.184 54.2553 44.048C53.6633 43.92 53.1793 43.736 52.8033 43.496C52.4353 43.248 52.1673 42.96 51.9993 42.632C51.8313 42.304 51.7473 41.944 51.7473 41.552C51.7473 41.296 51.7673 41.04 51.8073 40.784C51.8553 40.52 51.9113 40.264 51.9753 40.016C52.0473 39.768 52.1113 39.544 52.1673 39.344L53.6673 39.692C53.6353 39.836 53.5993 39.992 53.5593 40.16C53.5193 40.328 53.4873 40.492 53.4633 40.652C53.4393 40.804 53.4273 40.944 53.4273 41.072C53.4273 41.368 53.5313 41.632 53.7393 41.864C53.9553 42.088 54.3073 42.264 54.7953 42.392C55.2833 42.512 55.9393 42.572 56.7633 42.572L57.0033 43.868L56.4513 44.252ZM61.6713 37.16C61.4233 37.16 61.2113 37.076 61.0353 36.908C60.8673 36.74 60.7833 36.532 60.7833 36.284C60.7833 36.036 60.8673 35.824 61.0353 35.648C61.2113 35.472 61.4233 35.384 61.6713 35.384C61.9113 35.384 62.1153 35.472 62.2833 35.648C62.4593 35.824 62.5473 36.036 62.5473 36.284C62.5473 36.532 62.4593 36.74 62.2833 36.908C62.1153 37.076 61.9113 37.16 61.6713 37.16ZM64.7461 44.06L64.8661 42.38C65.3461 42.38 65.7141 42.356 65.9701 42.308C66.2261 42.26 66.4021 42.172 66.4981 42.044C66.6021 41.908 66.6541 41.716 66.6541 41.468C66.6541 41.244 66.6221 40.976 66.5581 40.664C66.5021 40.352 66.4261 40.028 66.3301 39.692C66.2421 39.356 66.1461 39.048 66.0421 38.768L67.6981 38.312C67.8021 38.584 67.9021 38.9 67.9981 39.26C68.0941 39.62 68.1741 39.992 68.2381 40.376C68.3021 40.752 68.3341 41.116 68.3341 41.468C68.3341 42.012 68.2461 42.456 68.0701 42.8C67.8941 43.136 67.6461 43.396 67.3261 43.58C67.0141 43.764 66.6381 43.892 66.1981 43.964C65.7581 44.028 65.2741 44.06 64.7461 44.06ZM67.7101 46.844C67.4781 46.844 67.2781 46.76 67.1101 46.592C66.9501 46.432 66.8701 46.24 66.8701 46.016C66.8701 45.784 66.9501 45.584 67.1101 45.416C67.2781 45.248 67.4781 45.164 67.7101 45.164C67.9341 45.164 68.1261 45.248 68.2861 45.416C68.4461 45.584 68.5261 45.784 68.5261 46.016C68.5261 46.24 68.4461 46.432 68.2861 46.592C68.1261 46.76 67.9341 46.844 67.7101 46.844ZM65.6341 46.844C65.4021 46.844 65.2021 46.76 65.0341 46.592C64.8741 46.432 64.7941 46.24 64.7941 46.016C64.7941 45.784 64.8741 45.584 65.0341 45.416C65.2021 45.248 65.4021 45.164 65.6341 45.164C65.8581 45.164 66.0501 45.248 66.2101 45.416C66.3701 45.584 66.4501 45.784 66.4501 46.016C66.4501 46.24 66.3701 46.432 66.2101 46.592C66.0501 46.76 65.8581 46.844 65.6341 46.844ZM72.8626 44.06C72.1186 44.06 71.5426 43.984 71.1346 43.832C70.7346 43.68 70.4546 43.444 70.2946 43.124C70.1346 42.796 70.0426 42.384 70.0186 41.888L69.7666 35.216H71.4466L71.6986 41.084C71.7146 41.452 71.7546 41.728 71.8186 41.912C71.8826 42.096 72.0026 42.22 72.1786 42.284C72.3626 42.348 72.6306 42.38 72.9826 42.38C73.2866 42.38 73.5026 42.46 73.6306 42.62C73.7666 42.772 73.8346 42.964 73.8346 43.196C73.8346 43.444 73.7506 43.652 73.5826 43.82C73.4146 43.98 73.1746 44.06 72.8626 44.06ZM72.8789 44.06L72.9989 42.38H75.6869C76.4389 42.38 77.0629 42.352 77.5589 42.296C78.0629 42.24 78.4629 42.16 78.7589 42.056C79.0549 41.944 79.2629 41.816 79.3829 41.672C79.5109 41.528 79.5749 41.372 79.5749 41.204C79.5749 41.052 79.5389 40.908 79.4669 40.772C79.3949 40.628 79.2869 40.512 79.1429 40.424C78.9989 40.336 78.8109 40.292 78.5789 40.292C78.2829 40.292 77.9869 40.364 77.6909 40.508C77.3949 40.644 77.1069 40.832 76.8269 41.072C76.5469 41.304 76.2789 41.564 76.0229 41.852C75.7749 42.14 75.5469 42.432 75.3389 42.728L73.5269 42.476C73.8629 41.956 74.2269 41.464 74.6189 41C75.0189 40.528 75.4389 40.116 75.8789 39.764C76.3269 39.404 76.7869 39.124 77.2589 38.924C77.7389 38.716 78.2269 38.612 78.7229 38.612C79.2509 38.612 79.7029 38.72 80.0789 38.936C80.4549 39.152 80.7429 39.448 80.9429 39.824C81.1509 40.2 81.2549 40.636 81.2549 41.132C81.2549 41.652 81.1069 42.12 80.8109 42.536C80.5229 42.952 80.0309 43.296 79.3349 43.568C79.0389 43.68 78.7189 43.772 78.3749 43.844C78.0309 43.916 77.6269 43.968 77.1629 44C76.6989 44.04 76.1429 44.06 75.4949 44.06H72.8789ZM74.1269 42.836L73.8749 35.216H75.5549L75.7709 40.976L74.1269 42.836ZM78.3749 37.496C78.1269 37.496 77.9149 37.412 77.7389 37.244C77.5709 37.076 77.4869 36.868 77.4869 36.62C77.4869 36.372 77.5709 36.16 77.7389 35.984C77.9149 35.808 78.1269 35.72 78.3749 35.72C78.6149 35.72 78.8189 35.808 78.9869 35.984C79.1629 36.16 79.2509 36.372 79.2509 36.62C79.2509 36.868 79.1629 37.076 78.9869 37.244C78.8189 37.412 78.6149 37.496 78.3749 37.496ZM82.4106 46.76L82.0626 45.08C82.6306 45.008 83.1266 44.92 83.5506 44.816C83.9746 44.72 84.3306 44.584 84.6186 44.408C84.9066 44.232 85.1226 43.992 85.2666 43.688C85.4106 43.376 85.4826 42.976 85.4826 42.488C85.4826 42.312 85.4666 42.136 85.4346 41.96C85.4026 41.776 85.3546 41.608 85.2906 41.456C85.2266 41.304 85.1426 41.18 85.0386 41.084C84.9426 40.988 84.8266 40.94 84.6906 40.94C84.5466 40.94 84.4186 40.992 84.3066 41.096C84.1946 41.192 84.1066 41.316 84.0426 41.468C83.9786 41.612 83.9466 41.76 83.9466 41.912C83.9466 42.024 83.9746 42.12 84.0306 42.2C84.0866 42.272 84.1706 42.328 84.2826 42.368C84.3946 42.4 84.5346 42.416 84.7026 42.416C84.8946 42.416 85.0906 42.396 85.2906 42.356C85.4986 42.308 85.6866 42.244 85.8546 42.164L85.9026 43.472C85.7106 43.624 85.4906 43.76 85.2426 43.88C84.9946 43.992 84.6946 44.048 84.3426 44.048C84.0546 44.048 83.7866 44.016 83.5386 43.952C83.2906 43.88 83.0706 43.772 82.8786 43.628C82.6946 43.484 82.5506 43.3 82.4466 43.076C82.3426 42.844 82.2906 42.568 82.2906 42.248C82.2906 41.856 82.3546 41.476 82.4826 41.108C82.6106 40.74 82.7866 40.412 83.0106 40.124C83.2426 39.828 83.5066 39.596 83.8026 39.428C84.1066 39.252 84.4266 39.164 84.7626 39.164C85.1626 39.164 85.5106 39.264 85.8066 39.464C86.1106 39.664 86.3626 39.928 86.5626 40.256C86.7626 40.576 86.9146 40.924 87.0186 41.3C87.1226 41.676 87.1746 42.036 87.1746 42.38C87.1746 43.284 86.9826 44.052 86.5986 44.684C86.2146 45.316 85.6666 45.804 84.9546 46.148C84.2426 46.5 83.3946 46.704 82.4106 46.76ZM29.4155 59.664C29.4155 59.48 29.4315 59.264 29.4635 59.016C29.4955 58.768 29.5555 58.488 29.6435 58.176C29.7315 57.856 29.8635 57.5 30.0395 57.108L31.5155 57.624C31.4275 57.872 31.3515 58.1 31.2875 58.308C31.2235 58.508 31.1755 58.696 31.1435 58.872C31.1115 59.04 31.0955 59.208 31.0955 59.376C31.0955 59.64 31.1515 59.876 31.2635 60.084C31.3835 60.3 31.5555 60.48 31.7795 60.624C32.0035 60.776 32.2755 60.892 32.5955 60.972C32.9235 61.052 33.2995 61.092 33.7235 61.092C34.1635 61.092 34.5555 61.072 34.8995 61.032C35.2515 60.992 35.5475 60.932 35.7875 60.852C36.0355 60.772 36.2235 60.668 36.3515 60.54C36.4795 60.42 36.5435 60.28 36.5435 60.12C36.5435 60.048 36.5155 59.98 36.4595 59.916C36.4115 59.852 36.3275 59.784 36.2075 59.712C36.0955 59.64 35.9435 59.564 35.7515 59.484C35.5675 59.404 35.3435 59.316 35.0795 59.22L35.4755 57.528C35.8195 57.672 36.1435 57.8 36.4475 57.912C36.7595 58.016 37.0555 58.104 37.3355 58.176C37.6155 58.24 37.8795 58.292 38.1275 58.332C38.3755 58.364 38.6075 58.38 38.8235 58.38C39.1275 58.38 39.3435 58.46 39.4715 58.62C39.5995 58.772 39.6635 58.964 39.6635 59.196C39.6635 59.444 39.5795 59.652 39.4115 59.82C39.2435 59.98 39.0075 60.06 38.7035 60.06C38.6395 60.06 38.5755 60.06 38.5115 60.06C38.4555 60.06 38.3955 60.06 38.3315 60.06C38.2755 60.06 38.2155 60.06 38.1515 60.06C38.1675 60.14 38.1755 60.208 38.1755 60.264C38.1755 60.328 38.1755 60.388 38.1755 60.444C38.1755 60.708 38.0835 60.976 37.8995 61.248C37.7235 61.52 37.4475 61.772 37.0715 62.004C36.6955 62.236 36.2155 62.42 35.6315 62.556C35.0555 62.7 34.3675 62.772 33.5675 62.772C32.7035 62.772 31.9595 62.66 31.3355 62.436C30.7195 62.22 30.2435 61.88 29.9075 61.416C29.5795 60.96 29.4155 60.376 29.4155 59.664ZM38.7372 52.98L38.1492 51.996C38.5412 51.764 38.9452 51.532 39.3612 51.3C39.7772 51.06 40.2412 50.804 40.7532 50.532C41.2732 50.252 41.8812 49.936 42.5772 49.584L43.1292 50.64C42.4172 50.984 41.8012 51.292 41.2812 51.564C40.7692 51.836 40.3092 52.088 39.9012 52.32C39.5012 52.544 39.1132 52.764 38.7372 52.98ZM38.7012 60.06L38.8212 58.38H40.5372C40.7052 58.38 40.8532 58.372 40.9812 58.356C41.1092 58.332 41.2132 58.296 41.2932 58.248C41.3812 58.2 41.4452 58.14 41.4852 58.068C41.5252 57.996 41.5452 57.912 41.5452 57.816C41.5452 57.72 41.4932 57.568 41.3892 57.36C41.2932 57.144 41.0812 56.884 40.7532 56.58C40.5772 56.42 40.3852 56.252 40.1772 56.076C39.9772 55.892 39.7852 55.72 39.6012 55.56C39.4172 55.392 39.2652 55.244 39.1452 55.116C39.0252 54.988 38.9652 54.896 38.9652 54.84C38.9652 54.72 38.9732 54.588 38.9892 54.444C39.0052 54.3 39.0292 54.168 39.0612 54.048C39.1012 53.928 39.1532 53.84 39.2172 53.784C39.3532 53.656 39.5532 53.508 39.8172 53.34C40.0892 53.164 40.4132 52.976 40.7892 52.776C41.1652 52.568 41.5852 52.352 42.0492 52.128C42.5212 51.896 43.0252 51.664 43.5612 51.432L44.2452 52.896C43.8052 53.088 43.3892 53.276 42.9972 53.46C42.6052 53.636 42.2372 53.812 41.8932 53.988C41.5572 54.156 41.2452 54.324 40.9572 54.492C40.6772 54.652 40.4292 54.812 40.2132 54.972L40.3692 54.084C41.0492 54.604 41.5892 55.072 41.9892 55.488C42.3972 55.904 42.7012 56.276 42.9012 56.604C43.1012 56.924 43.2332 57.212 43.2972 57.468C43.3612 57.716 43.3932 57.936 43.3932 58.128C43.3932 58.32 43.3452 58.528 43.2492 58.752C43.1612 58.968 42.9972 59.176 42.7572 59.376C42.5252 59.576 42.1972 59.74 41.7732 59.868C41.3492 59.996 40.8052 60.06 40.1412 60.06H38.7012ZM46.7664 58.38C47.1264 58.38 47.4024 58.348 47.5944 58.284C47.7864 58.22 47.9184 58.136 47.9904 58.032C48.0624 57.928 48.0984 57.816 48.0984 57.696C48.0984 57.504 48.0424 57.28 47.9304 57.024C47.8264 56.768 47.6944 56.5 47.5344 56.22C47.3744 55.94 47.2064 55.672 47.0304 55.416C46.8624 55.16 46.7104 54.936 46.5744 54.744L48.0024 53.796C48.3464 54.26 48.6424 54.72 48.8904 55.176C49.1384 55.624 49.3384 56.04 49.4904 56.424C49.6504 56.808 49.7624 57.136 49.8264 57.408C49.8904 57.664 49.9864 57.864 50.1144 58.008C50.2504 58.144 50.4064 58.24 50.5824 58.296C50.7584 58.352 50.9344 58.38 51.1104 58.38C51.4144 58.38 51.6304 58.46 51.7584 58.62C51.8944 58.772 51.9624 58.964 51.9624 59.196C51.9624 59.444 51.8784 59.652 51.7104 59.82C51.5504 59.98 51.3104 60.06 50.9904 60.06C50.6384 60.06 50.3304 60.012 50.0664 59.916C49.8024 59.82 49.5784 59.668 49.3944 59.46C49.2104 59.252 49.0544 58.988 48.9264 58.668L49.6584 58.824C49.5944 59.048 49.4464 59.256 49.2144 59.448C48.9904 59.632 48.6904 59.784 48.3144 59.904C47.9464 60.016 47.5104 60.072 47.0064 60.072C46.7664 60.072 46.4984 60.052 46.2024 60.012C45.9144 59.972 45.6264 59.912 45.3384 59.832C45.0584 59.752 44.8024 59.648 44.5704 59.52L45.1584 57.996C45.4544 58.124 45.7384 58.22 46.0104 58.284C46.2904 58.348 46.5424 58.38 46.7664 58.38ZM51.0059 60.06L51.1259 58.38C51.4299 58.38 51.6699 58.352 51.8459 58.296C52.0299 58.24 52.1739 58.128 52.2779 57.96C52.3899 57.784 52.4819 57.528 52.5539 57.192C52.6339 56.856 52.7139 56.408 52.7939 55.848L54.3659 56.112C54.3499 56.232 54.3259 56.372 54.2939 56.532C54.2699 56.692 54.2459 56.856 54.2219 57.024C54.2059 57.184 54.1979 57.336 54.1979 57.48C54.1979 57.672 54.2379 57.836 54.3179 57.972C54.4059 58.1 54.5579 58.2 54.7739 58.272C54.9979 58.344 55.3179 58.38 55.7339 58.38C56.0379 58.38 56.2539 58.46 56.3819 58.62C56.5099 58.772 56.5739 58.964 56.5739 59.196C56.5739 59.444 56.4899 59.652 56.3219 59.82C56.1619 59.98 55.9259 60.06 55.6139 60.06C55.0619 60.06 54.6139 60.008 54.2699 59.904C53.9259 59.8 53.6699 59.624 53.5019 59.376C53.3339 59.128 53.2259 58.788 53.1779 58.356H53.7539C53.6099 58.74 53.4419 59.048 53.2499 59.28C53.0579 59.504 52.8419 59.672 52.6019 59.784C52.3619 59.896 52.1059 59.968 51.8339 60C51.5699 60.04 51.2939 60.06 51.0059 60.06ZM53.4539 54.624C53.2059 54.624 52.9939 54.54 52.8179 54.372C52.6499 54.204 52.5659 53.996 52.5659 53.748C52.5659 53.5 52.6499 53.288 52.8179 53.112C52.9939 52.936 53.2059 52.848 53.4539 52.848C53.6939 52.848 53.8979 52.936 54.0659 53.112C54.2419 53.288 54.3299 53.5 54.3299 53.748C54.3299 53.996 54.2419 54.204 54.0659 54.372C53.8979 54.54 53.6939 54.624 53.4539 54.624ZM55.6113 60.06L55.7313 58.38C56.0833 58.38 56.3593 58.356 56.5593 58.308C56.7673 58.26 56.9153 58.172 57.0033 58.044C57.0913 57.908 57.1353 57.716 57.1353 57.468C57.1353 57.244 57.1033 56.976 57.0393 56.664C56.9833 56.352 56.9073 56.028 56.8113 55.692C56.7153 55.356 56.6193 55.048 56.5233 54.768L58.1793 54.312C58.2753 54.584 58.3713 54.9 58.4673 55.26C58.5633 55.62 58.6433 55.992 58.7073 56.376C58.7793 56.752 58.8153 57.116 58.8153 57.468C58.8153 57.908 58.7593 58.28 58.6473 58.584C58.5353 58.88 58.3793 59.128 58.1793 59.328C57.9873 59.52 57.7553 59.672 57.4833 59.784C57.2193 59.888 56.9273 59.96 56.6073 60C56.2873 60.04 55.9553 60.06 55.6113 60.06ZM57.3393 53.316C57.0913 53.316 56.8793 53.232 56.7033 53.064C56.5353 52.896 56.4513 52.688 56.4513 52.44C56.4513 52.192 56.5353 51.98 56.7033 51.804C56.8793 51.628 57.0913 51.54 57.3393 51.54C57.5793 51.54 57.7833 51.628 57.9513 51.804C58.1273 51.98 58.2153 52.192 58.2153 52.44C58.2153 52.688 58.1273 52.896 57.9513 53.064C57.7833 53.232 57.5793 53.316 57.3393 53.316ZM60.3799 60L60.1279 51.216H61.8079L62.0599 60H60.3799ZM62.5885 62.76L61.9765 61.224C62.6645 60.984 63.2205 60.72 63.6445 60.432C64.0765 60.144 64.3925 59.836 64.5925 59.508C64.8005 59.18 64.9045 58.84 64.9045 58.488C64.9045 58.264 64.8725 58.032 64.8085 57.792C64.7445 57.544 64.6525 57.284 64.5325 57.012C64.4205 56.74 64.2845 56.456 64.1245 56.16L65.6965 55.404C65.9765 55.94 66.1925 56.452 66.3445 56.94C66.5045 57.428 66.5845 57.884 66.5845 58.308C66.5845 58.7 66.5325 59.076 66.4285 59.436C66.3325 59.796 66.1805 60.132 65.9725 60.444C65.7725 60.764 65.5125 61.064 65.1925 61.344C64.8725 61.624 64.4965 61.88 64.0645 62.112C63.6325 62.352 63.1405 62.568 62.5885 62.76Z" fill="black"/>
<path d="M34.846 75.09C34.5927 75.09 34.3427 75.06 34.096 75C33.8493 74.94 33.616 74.85 33.396 74.73C33.176 74.6033 32.9793 74.4533 32.806 74.28L33.176 73.48C33.4293 73.7267 33.696 73.9067 33.976 74.02C34.2627 74.1267 34.556 74.18 34.856 74.18C35.1693 74.18 35.4427 74.1233 35.676 74.01C35.916 73.8967 36.1193 73.73 36.286 73.51C36.4527 73.2833 36.576 73.0033 36.656 72.67C36.7427 72.33 36.786 71.9433 36.786 71.51V70.82H36.836C36.7827 71.1467 36.666 71.43 36.486 71.67C36.3127 71.91 36.0927 72.0933 35.826 72.22C35.5593 72.3467 35.2593 72.41 34.926 72.41C34.5193 72.41 34.156 72.3167 33.836 72.13C33.516 71.9367 33.2627 71.6733 33.076 71.34C32.8893 71 32.796 70.6133 32.796 70.18C32.796 69.7267 32.8927 69.3267 33.086 68.98C33.286 68.6333 33.5593 68.36 33.906 68.16C34.2527 67.96 34.646 67.86 35.086 67.86C35.666 67.86 36.156 67.9967 36.556 68.27C36.956 68.5367 37.2593 68.93 37.466 69.45C37.6727 69.97 37.776 70.5967 37.776 71.33C37.776 72.13 37.6593 72.81 37.426 73.37C37.1927 73.93 36.8593 74.3567 36.426 74.65C35.9927 74.9433 35.466 75.09 34.846 75.09ZM35.156 71.55C35.4293 71.55 35.6693 71.49 35.876 71.37C36.0827 71.25 36.2427 71.0867 36.356 70.88C36.4693 70.6667 36.526 70.42 36.526 70.14C36.526 69.8533 36.4693 69.6067 36.356 69.4C36.2427 69.1867 36.0827 69.02 35.876 68.9C35.6693 68.78 35.4293 68.72 35.156 68.72C34.8827 68.72 34.6427 68.78 34.436 68.9C34.236 69.02 34.0793 69.1867 33.966 69.4C33.8527 69.6133 33.796 69.86 33.796 70.14C33.796 70.42 33.8527 70.6667 33.966 70.88C34.0793 71.0933 34.2393 71.26 34.446 71.38C34.6527 71.4933 34.8893 71.55 35.156 71.55ZM41.3362 74.72C41.3362 74.5667 41.3496 74.3867 41.3762 74.18C41.4029 73.9733 41.4529 73.74 41.5262 73.48C41.5996 73.2133 41.7096 72.9167 41.8562 72.59L43.0862 73.02C43.0129 73.2267 42.9496 73.4167 42.8962 73.59C42.8429 73.7567 42.8029 73.9133 42.7762 74.06C42.7496 74.2 42.7362 74.34 42.7362 74.48C42.7362 74.78 42.8096 75.04 42.9562 75.26C43.1096 75.4867 43.3162 75.66 43.5762 75.78C43.8429 75.9067 44.1496 75.97 44.4962 75.97C45.0629 75.97 45.4962 75.8767 45.7962 75.69C46.1029 75.51 46.3096 75.2233 46.4162 74.83C46.5296 74.43 46.5729 73.9133 46.5462 73.28L46.3462 67.68H47.7562L47.9062 72.41C47.9196 72.7433 47.9662 73 48.0462 73.18C48.1262 73.36 48.2496 73.4833 48.4162 73.55C48.5896 73.6167 48.8129 73.65 49.0862 73.65C49.3396 73.65 49.5196 73.7167 49.6262 73.85C49.7329 73.9767 49.7862 74.1367 49.7862 74.33C49.7862 74.5367 49.7162 74.71 49.5762 74.85C49.4362 74.9833 49.2396 75.05 48.9862 75.05C48.8396 75.05 48.6829 75.03 48.5162 74.99C48.3496 74.95 48.1896 74.8867 48.0362 74.8C47.8829 74.7133 47.7496 74.6 47.6362 74.46C47.5229 74.3133 47.4462 74.1333 47.4062 73.92L47.9462 73.65C47.9462 74.3233 47.8662 74.8933 47.7062 75.36C47.5529 75.8267 47.3262 76.2033 47.0262 76.49C46.7329 76.7767 46.3696 76.9833 45.9362 77.11C45.5096 77.2433 45.0162 77.31 44.4562 77.31C44.0296 77.31 43.6262 77.2567 43.2462 77.15C42.8729 77.0433 42.5429 76.8833 42.2562 76.67C41.9696 76.4567 41.7429 76.1867 41.5762 75.86C41.4162 75.54 41.3362 75.16 41.3362 74.72ZM59.0164 75.05C58.6764 75.05 58.3497 75.02 58.0364 74.96C57.723 74.8933 57.4397 74.8067 57.1864 74.7C56.9397 74.5933 56.7364 74.4733 56.5764 74.34L57.4764 73.37C57.7164 73.47 57.963 73.5433 58.2164 73.59C58.4697 73.63 58.7697 73.65 59.1164 73.65C59.3697 73.65 59.5497 73.7167 59.6564 73.85C59.7697 73.9767 59.8264 74.1367 59.8264 74.33C59.8264 74.5367 59.7564 74.71 59.6164 74.85C59.4764 74.9833 59.2764 75.05 59.0164 75.05ZM54.1664 75.18C53.5464 75.18 53.0297 75.1533 52.6164 75.1C52.2097 75.0467 51.8797 74.97 51.6264 74.87C51.373 74.77 51.173 74.65 51.0264 74.51C50.8797 74.37 50.7597 74.2167 50.6664 74.05L50.9464 73.97C50.7797 74.29 50.5897 74.5267 50.3764 74.68C50.163 74.8333 49.9397 74.9333 49.7064 74.98C49.473 75.0267 49.233 75.05 48.9864 75.05L49.0864 73.65C49.293 73.65 49.4564 73.6167 49.5764 73.55C49.6964 73.4833 49.793 73.3733 49.8664 73.22C49.9464 73.0667 50.0197 72.8633 50.0864 72.61C50.153 72.3567 50.233 72.0467 50.3264 71.68L51.5964 71.99C51.5497 72.17 51.5097 72.3267 51.4764 72.46C51.4497 72.5933 51.4264 72.71 51.4064 72.81C51.393 72.9033 51.3864 72.98 51.3864 73.04C51.3864 73.1667 51.4164 73.28 51.4764 73.38C51.5364 73.4733 51.653 73.55 51.8264 73.61C51.9997 73.6633 52.253 73.7067 52.5864 73.74C52.9264 73.7667 53.3697 73.78 53.9164 73.78C54.4964 73.78 54.9797 73.76 55.3664 73.72C55.753 73.6733 56.0597 73.61 56.2864 73.53C56.5197 73.4433 56.6864 73.34 56.7864 73.22C56.8864 73.0933 56.9364 72.95 56.9364 72.79C56.9364 72.6633 56.9064 72.5467 56.8464 72.44C56.793 72.3267 56.703 72.2333 56.5764 72.16C56.4497 72.0867 56.2864 72.05 56.0864 72.05C55.8464 72.05 55.603 72.11 55.3564 72.23C55.1164 72.3433 54.8797 72.4967 54.6464 72.69C54.413 72.8767 54.1897 73.0867 53.9764 73.32C53.7697 73.5533 53.583 73.7867 53.4164 74.02L51.9164 73.85C52.1764 73.43 52.4697 73.0267 52.7964 72.64C53.123 72.2533 53.473 71.9133 53.8464 71.62C54.2197 71.32 54.6064 71.0833 55.0064 70.91C55.4064 70.7367 55.813 70.65 56.2264 70.65C56.673 70.65 57.053 70.7367 57.3664 70.91C57.6797 71.0833 57.9197 71.3233 58.0864 71.63C58.253 71.9367 58.3364 72.29 58.3364 72.69C58.3364 73.1767 58.1964 73.6067 57.9164 73.98C57.643 74.3533 57.1997 74.6467 56.5864 74.86C55.9797 75.0733 55.173 75.18 54.1664 75.18ZM59.0254 75.05L59.1254 73.66C59.6788 73.66 60.1221 73.6567 60.4554 73.65C60.7954 73.6433 61.0588 73.63 61.2454 73.61C61.4388 73.5833 61.5821 73.5533 61.6754 73.52C61.7688 73.48 61.8488 73.4367 61.9154 73.39C61.9954 73.33 62.0621 73.25 62.1154 73.15C62.1754 73.0433 62.2221 72.9033 62.2554 72.73C62.2888 72.5567 62.3054 72.34 62.3054 72.08C62.3054 71.7533 62.2754 71.48 62.2154 71.26C62.1621 71.0333 62.0821 70.8633 61.9754 70.75C61.8754 70.6367 61.7521 70.58 61.6054 70.58C61.4988 70.58 61.3988 70.6167 61.3054 70.69C61.2121 70.7567 61.1354 70.85 61.0754 70.97C61.0154 71.09 60.9854 71.2267 60.9854 71.38C60.9854 71.4667 61.0088 71.5433 61.0554 71.61C61.1021 71.6767 61.1754 71.7267 61.2754 71.76C61.3754 71.7933 61.5021 71.81 61.6554 71.81C61.8021 71.81 61.9554 71.7933 62.1154 71.76C62.2821 71.72 62.4354 71.6667 62.5754 71.6L62.6154 72.79C62.5088 72.8633 62.3854 72.93 62.2454 72.99C62.1054 73.05 61.9554 73.0967 61.7954 73.13C61.6421 73.1567 61.4854 73.17 61.3254 73.17C60.9721 73.17 60.6654 73.1233 60.4054 73.03C60.1521 72.93 59.9554 72.77 59.8154 72.55C59.6754 72.33 59.6054 72.03 59.6054 71.65C59.6054 71.3567 59.6554 71.0667 59.7554 70.78C59.8554 70.4867 59.9988 70.2233 60.1854 69.99C60.3721 69.75 60.5921 69.56 60.8454 69.42C61.0988 69.2733 61.3788 69.2 61.6854 69.2C62.1388 69.2 62.5121 69.3333 62.8054 69.6C63.1054 69.86 63.3254 70.2133 63.4654 70.66C63.6121 71.1 63.6854 71.59 63.6854 72.13C63.6854 72.6033 63.6154 73.0167 63.4754 73.37C63.3354 73.7167 63.1688 73.99 62.9754 74.19C62.8154 74.3567 62.6321 74.4967 62.4254 74.61C62.2188 74.7233 61.9654 74.8133 61.6654 74.88C61.3721 74.94 61.0088 74.9833 60.5754 75.01C60.1488 75.0367 59.6321 75.05 59.0254 75.05ZM61.6654 68.27C61.4588 68.27 61.2821 68.2 61.1354 68.06C60.9954 67.92 60.9254 67.7467 60.9254 67.54C60.9254 67.3333 60.9954 67.1567 61.1354 67.01C61.2821 66.8633 61.4588 66.79 61.6654 66.79C61.8654 66.79 62.0354 66.8633 62.1754 67.01C62.3221 67.1567 62.3954 67.3333 62.3954 67.54C62.3954 67.7467 62.3221 67.92 62.1754 68.06C62.0354 68.2 61.8654 68.27 61.6654 68.27Z" fill="#667085"/>
<defs>
<filter id="filter0_d_8310_1103" x="0" y="0" width="96" height="85.8462" filterUnits="userSpaceOnUse" color-interpolation-filters="sRGB">
<feFlood flood-opacity="0" result="BackgroundImageFix"/>
<feColorMatrix in="SourceAlpha" type="matrix" values="0 0 0 0 0 0 0 0 0 0 0 0 0 0 0 0 0 0 127 0" result="hardAlpha"/>
<feOffset dy="4"/>
<feGaussianBlur stdDeviation="2"/>
<feComposite in2="hardAlpha" operator="out"/>
<feColorMatrix type="matrix" values="0 0 0 0 0 0 0 0 0 0 0 0 0 0 0 0 0 0 0.25 0"/>
<feBlend mode="normal" in2="BackgroundImageFix" result="effect1_dropShadow_8310_1103"/>
<feBlend mode="normal" in="SourceGraphic" in2="effect1_dropShadow_8310_1103" result="shape"/>
</filter>
</defs>
</svg>
