<svg width="102" height="87" viewBox="0 0 102 87" fill="none" xmlns="http://www.w3.org/2000/svg">
<g filter="url(#filter0_d_8334_725)">
<path d="M5.45148 43.0956C4.65639 41.7858 4.25887 41.1305 4.10327 40.4343C3.96558 39.8181 3.96558 39.1816 4.10327 38.5654C4.25887 37.8692 4.65639 37.2139 5.45148 35.9041L24.7122 4.17068C25.5072 2.86076 25.9047 2.20579 26.4609 1.72945C26.953 1.30799 27.5327 0.989583 28.1625 0.794964C28.8742 0.574951 29.6693 0.574951 31.2595 0.574951H69.7806C71.3711 0.574951 72.1659 0.574951 72.8779 0.794964C73.5073 0.989583 74.0871 1.30799 74.5794 1.72945C75.1356 2.20579 75.533 2.86076 76.3282 4.17068L95.5887 35.9041C96.3839 37.2139 96.7813 37.8692 96.9368 38.5654C97.0747 39.1816 97.0747 39.8181 96.9368 40.4343C96.7813 41.1305 96.3839 41.7858 95.5887 43.0956L76.3282 74.8292C75.533 76.139 75.1356 76.7938 74.5794 77.2703C74.0871 77.6919 73.5073 78.0101 72.8779 78.2047C72.1659 78.4249 71.3711 78.4249 69.7806 78.4249H31.2595C29.6693 78.4249 28.8742 78.4249 28.1625 78.2047C27.5327 78.0101 26.953 77.6919 26.4609 77.2703C25.9047 76.7938 25.5072 76.139 24.7122 74.8292L5.45148 43.0956Z" fill="white"/>
</g>
<path d="M58.8718 12.9705L62.2121 19.6792C62.2711 19.7673 62.3002 19.8845 62.3293 19.9727C62.5346 20.5005 62.6808 21.2327 62.6808 21.7014V24.8945C62.6808 25.8911 62.0068 26.7114 61.0693 26.9458V28.8208C61.0693 29.7292 60.3371 30.4323 59.4577 30.4323C58.5493 30.4323 57.8461 29.7292 57.8461 28.8208V27.0039H45.0136V28.8208C45.0136 29.7292 44.3105 30.4323 43.4021 30.4323C42.5227 30.4323 41.7905 29.7292 41.7905 28.8208V26.9458C40.853 26.7114 40.179 25.8911 40.179 24.8945V21.7014C40.179 21.2327 40.3252 20.5005 40.5305 19.9727C40.5596 19.8845 40.5896 19.7673 40.6477 19.6792L43.988 12.9705C44.2515 12.4727 44.9546 12.0039 45.5405 12.0039H57.3183C57.9043 12.0039 58.6083 12.4727 58.8718 12.9705ZM45.3652 14.9917L43.5783 19.0642C43.4902 19.2105 43.4902 19.3867 43.4902 19.5039H59.3696C59.3696 19.3867 59.3696 19.2105 59.2815 19.0642L57.4946 14.9917C57.2602 14.4639 56.5571 13.9952 56.0002 13.9952H46.8596C46.3027 13.9952 45.5996 14.4639 45.3652 14.9917ZM44.5749 24.8936C45.5124 24.8936 46.2446 24.1314 46.2446 23.1648C46.2446 22.2273 45.5124 21.4952 44.5749 21.4952C43.6374 21.4952 42.8461 22.2273 42.8461 23.1648C42.8461 24.1314 43.6374 24.8936 44.5749 24.8936ZM58.2858 24.8936C59.2233 24.8936 60.0146 24.1314 60.0146 23.1648C60.0146 22.2273 59.2233 21.4952 58.2858 21.4952C57.3483 21.4952 56.6161 22.2273 56.6161 23.1648C56.6161 24.1314 57.3483 24.8936 58.2858 24.8936Z" fill="#F2BB41"/>
<path d="M24.5143 49.4837L24.8263 47.8037C25.4023 47.8037 25.9543 47.7757 26.4823 47.7197C27.0183 47.6637 27.5263 47.5517 28.0063 47.3837C28.4943 47.2157 28.9503 46.9677 29.3743 46.6397C29.7983 46.3117 30.1823 45.8717 30.5263 45.3197L31.8703 45.9317C31.8223 46.0837 31.7823 46.2317 31.7503 46.3757C31.7183 46.5117 31.7023 46.6237 31.7023 46.7117C31.7023 46.8957 31.7463 47.0557 31.8343 47.1917C31.9303 47.3277 32.0903 47.4317 32.3143 47.5037C32.5383 47.5757 32.8463 47.6117 33.2383 47.6117C33.5423 47.6117 33.7583 47.6917 33.8863 47.8517C34.0143 48.0037 34.0783 48.1957 34.0783 48.4277C34.0783 48.6757 33.9943 48.8837 33.8263 49.0517C33.6663 49.2117 33.4303 49.2917 33.1183 49.2917C32.5663 49.2917 32.0863 49.2157 31.6783 49.0637C31.2783 48.9117 30.9623 48.6997 30.7303 48.4277C30.5063 48.1477 30.3743 47.8277 30.3343 47.4677L30.8143 47.5157C30.5263 47.8597 30.1663 48.1557 29.7343 48.4037C29.3103 48.6517 28.8263 48.8557 28.2823 49.0157C27.7463 49.1757 27.1583 49.2917 26.5183 49.3637C25.8863 49.4437 25.2183 49.4837 24.5143 49.4837ZM24.5023 49.4837C23.6383 49.4837 22.9063 49.4157 22.3063 49.2797C21.7143 49.1517 21.2303 48.9677 20.8543 48.7277C20.4863 48.4797 20.2183 48.1917 20.0503 47.8637C19.8823 47.5357 19.7983 47.1757 19.7983 46.7837C19.7983 46.5277 19.8183 46.2717 19.8583 46.0157C19.9063 45.7517 19.9623 45.4957 20.0263 45.2477C20.0983 44.9997 20.1623 44.7757 20.2183 44.5757L21.7183 44.9237C21.6863 45.0677 21.6503 45.2237 21.6103 45.3917C21.5703 45.5597 21.5383 45.7237 21.5143 45.8837C21.4903 46.0357 21.4783 46.1757 21.4783 46.3037C21.4783 46.5997 21.5823 46.8637 21.7903 47.0957C22.0063 47.3197 22.3583 47.4957 22.8463 47.6237C23.3343 47.7437 23.9903 47.8037 24.8143 47.8037L25.0543 49.0997L24.5023 49.4837ZM26.7343 43.9997C26.5023 43.9997 26.3023 43.9197 26.1343 43.7597C25.9743 43.5917 25.8943 43.3957 25.8943 43.1717C25.8943 42.9397 25.9743 42.7397 26.1343 42.5717C26.3023 42.4037 26.5023 42.3197 26.7343 42.3197C26.9583 42.3197 27.1503 42.4037 27.3103 42.5717C27.4703 42.7397 27.5503 42.9397 27.5503 43.1717C27.5503 43.3957 27.4703 43.5917 27.3103 43.7597C27.1503 43.9197 26.9583 43.9997 26.7343 43.9997ZM24.6583 43.9877C24.4263 43.9877 24.2263 43.9077 24.0583 43.7477C23.8983 43.5797 23.8183 43.3837 23.8183 43.1597C23.8183 42.9277 23.8983 42.7277 24.0583 42.5597C24.2263 42.3917 24.4263 42.3077 24.6583 42.3077C24.8823 42.3077 25.0743 42.3917 25.2343 42.5597C25.3943 42.7277 25.4743 42.9277 25.4743 43.1597C25.4743 43.3837 25.3943 43.5797 25.2343 43.7477C25.0743 43.9077 24.8823 43.9877 24.6583 43.9877ZM33.1135 49.2917L33.2335 47.6117H34.9495C35.1175 47.6117 35.2655 47.6037 35.3935 47.5877C35.5215 47.5637 35.6255 47.5277 35.7055 47.4797C35.7935 47.4317 35.8575 47.3717 35.8975 47.2997C35.9375 47.2277 35.9575 47.1437 35.9575 47.0477C35.9575 46.9517 35.9055 46.7997 35.8015 46.5917C35.7055 46.3757 35.4935 46.1157 35.1655 45.8117C34.9895 45.6517 34.7975 45.4837 34.5895 45.3077C34.3895 45.1237 34.1975 44.9517 34.0135 44.7917C33.8295 44.6237 33.6775 44.4757 33.5575 44.3477C33.4375 44.2197 33.3775 44.1277 33.3775 44.0717C33.3775 43.9517 33.3855 43.8197 33.4015 43.6757C33.4175 43.5317 33.4415 43.3997 33.4735 43.2797C33.5135 43.1597 33.5655 43.0717 33.6295 43.0157C33.7655 42.8877 33.9655 42.7397 34.2295 42.5717C34.5015 42.3957 34.8255 42.2077 35.2015 42.0077C35.5775 41.7997 35.9975 41.5837 36.4615 41.3597C36.9335 41.1277 37.4375 40.8957 37.9735 40.6637L38.6575 42.1277C38.2175 42.3197 37.8015 42.5077 37.4095 42.6917C37.0175 42.8677 36.6495 43.0437 36.3055 43.2197C35.9695 43.3877 35.6575 43.5557 35.3695 43.7237C35.0895 43.8837 34.8415 44.0437 34.6255 44.2037L34.7815 43.3157C35.4615 43.8357 36.0015 44.3037 36.4015 44.7197C36.8095 45.1357 37.1135 45.5077 37.3135 45.8357C37.5135 46.1557 37.6455 46.4437 37.7095 46.6997C37.7735 46.9477 37.8055 47.1677 37.8055 47.3597C37.8055 47.5517 37.7575 47.7597 37.6615 47.9837C37.5735 48.1997 37.4095 48.4077 37.1695 48.6077C36.9375 48.8077 36.6095 48.9717 36.1855 49.0997C35.7615 49.2277 35.2175 49.2917 34.5535 49.2917H33.1135ZM38.2743 52.0037L37.6623 50.5157C38.0863 50.3717 38.4743 50.2037 38.8263 50.0117C39.1863 49.8197 39.4983 49.6077 39.7623 49.3757C40.0263 49.1437 40.2303 48.8917 40.3743 48.6197C40.5183 48.3397 40.5903 48.0397 40.5903 47.7197C40.5903 47.3837 40.5143 47.0157 40.3623 46.6157C40.2103 46.2157 40.0263 45.8077 39.8103 45.3917L41.3823 44.6357C41.5263 44.8837 41.6503 45.1517 41.7543 45.4397C41.8663 45.7197 41.9583 45.9717 42.0303 46.1957C42.1023 46.4197 42.1503 46.5717 42.1743 46.6517C42.2863 47.0357 42.4383 47.2917 42.6303 47.4197C42.8303 47.5477 43.1503 47.6117 43.5903 47.6117C43.8943 47.6117 44.1103 47.6917 44.2383 47.8517C44.3743 48.0037 44.4423 48.1957 44.4423 48.4277C44.4423 48.6757 44.3583 48.8837 44.1903 49.0517C44.0223 49.2117 43.7823 49.2917 43.4703 49.2917C43.1423 49.2917 42.8543 49.2437 42.6063 49.1477C42.3583 49.0517 42.1583 48.9117 42.0063 48.7277C41.8623 48.5437 41.7703 48.3277 41.7303 48.0797L42.1743 48.3317C42.1263 48.7557 41.9863 49.1557 41.7543 49.5317C41.5303 49.9157 41.2383 50.2677 40.8783 50.5877C40.5183 50.9077 40.1143 51.1877 39.6663 51.4277C39.2183 51.6677 38.7543 51.8597 38.2743 52.0037ZM43.4846 49.2917L43.6046 47.6117C44.0366 47.6117 44.4646 47.5877 44.8886 47.5397C45.3126 47.4917 45.7246 47.4197 46.1246 47.3237C46.5246 47.2277 46.9046 47.1037 47.2646 46.9517C47.6326 46.7997 47.9766 46.6157 48.2966 46.3997C48.0566 46.2557 47.7966 46.1317 47.5166 46.0277C47.2366 45.9237 46.9366 45.8477 46.6166 45.7997C46.3046 45.7437 45.9726 45.7157 45.6206 45.7157C45.4926 45.7157 45.3566 45.7197 45.2126 45.7277C45.0766 45.7357 44.9366 45.7517 44.7926 45.7757C44.6486 45.7917 44.5046 45.8157 44.3606 45.8477L44.1206 44.2037C44.3526 44.1397 44.5966 44.0957 44.8526 44.0717C45.1166 44.0397 45.3486 44.0237 45.5486 44.0237C45.9806 44.0237 46.3766 44.0717 46.7366 44.1677C47.1046 44.2637 47.4406 44.3837 47.7446 44.5277C48.0566 44.6717 48.3446 44.8157 48.6086 44.9597C48.8806 45.1037 49.1366 45.2237 49.3766 45.3197C49.6246 45.4157 49.8646 45.4637 50.0966 45.4637H50.5406L50.7326 47.0597C50.3886 47.0757 50.0646 47.1437 49.7606 47.2637C49.4646 47.3757 49.1686 47.5197 48.8726 47.6957C48.5846 47.8637 48.2726 48.0397 47.9366 48.2237C47.6086 48.4077 47.2366 48.5797 46.8206 48.7397C46.4046 48.8997 45.9246 49.0317 45.3806 49.1357C44.8366 49.2397 44.2046 49.2917 43.4846 49.2917ZM54.4958 48.8957C54.4958 48.7117 54.5118 48.4957 54.5438 48.2477C54.5758 47.9997 54.6358 47.7197 54.7238 47.4077C54.8118 47.0877 54.9438 46.7317 55.1198 46.3397L56.5958 46.8557C56.5078 47.1037 56.4318 47.3317 56.3678 47.5397C56.3038 47.7397 56.2558 47.9277 56.2238 48.1037C56.1918 48.2717 56.1758 48.4397 56.1758 48.6077C56.1758 49.0157 56.2638 49.3517 56.4398 49.6157C56.6238 49.8797 56.8798 50.0757 57.2078 50.2037C57.5358 50.3317 57.9158 50.3957 58.3478 50.3957C58.9238 50.3957 59.3798 50.2997 59.7158 50.1077C60.0518 49.9157 60.2958 49.6477 60.4478 49.3037C60.5998 48.9677 60.6918 48.5757 60.7238 48.1277C60.7638 47.6717 60.7758 47.1877 60.7598 46.6757L60.5318 40.4477H62.2238L62.4278 46.5677C62.4438 47.0877 62.4238 47.6077 62.3678 48.1277C62.3198 48.6477 62.2118 49.1397 62.0438 49.6037C61.8838 50.0677 61.6478 50.4797 61.3358 50.8397C61.0238 51.1997 60.6198 51.4837 60.1238 51.6917C59.6358 51.8997 59.0318 52.0037 58.3118 52.0037C57.7918 52.0037 57.2998 51.9437 56.8358 51.8237C56.3798 51.7037 55.9758 51.5157 55.6238 51.2597C55.2718 51.0117 54.9958 50.6917 54.7958 50.2997C54.5958 49.9077 54.4958 49.4397 54.4958 48.8957ZM63.2704 52.0037L62.6584 50.5157C63.0824 50.3717 63.4704 50.2037 63.8224 50.0117C64.1824 49.8197 64.4944 49.6077 64.7584 49.3757C65.0224 49.1437 65.2264 48.8917 65.3704 48.6197C65.5144 48.3397 65.5864 48.0397 65.5864 47.7197C65.5864 47.3837 65.5104 47.0157 65.3584 46.6157C65.2064 46.2157 65.0224 45.8077 64.8064 45.3917L66.3784 44.6357C66.5224 44.8837 66.6464 45.1517 66.7504 45.4397C66.8624 45.7197 66.9544 45.9717 67.0264 46.1957C67.0984 46.4197 67.1464 46.5717 67.1704 46.6517C67.2824 47.0357 67.4344 47.2917 67.6264 47.4197C67.8264 47.5477 68.1464 47.6117 68.5864 47.6117C68.8904 47.6117 69.1064 47.6917 69.2344 47.8517C69.3704 48.0037 69.4384 48.1957 69.4384 48.4277C69.4384 48.6757 69.3544 48.8837 69.1864 49.0517C69.0184 49.2117 68.7784 49.2917 68.4664 49.2917C68.1384 49.2917 67.8504 49.2437 67.6024 49.1477C67.3544 49.0517 67.1544 48.9117 67.0024 48.7277C66.8584 48.5437 66.7664 48.3277 66.7264 48.0797L67.1704 48.3317C67.1224 48.7557 66.9824 49.1557 66.7504 49.5317C66.5264 49.9157 66.2344 50.2677 65.8744 50.5877C65.5144 50.9077 65.1104 51.1877 64.6624 51.4277C64.2144 51.6677 63.7504 51.8597 63.2704 52.0037ZM68.4807 49.2917L68.6007 47.6117C68.8887 47.6117 69.1367 47.5837 69.3447 47.5277C69.5527 47.4717 69.7287 47.3597 69.8727 47.1917C70.0167 47.0157 70.1367 46.7597 70.2327 46.4237C70.3367 46.0877 70.4287 45.6397 70.5087 45.0797L72.0807 45.3437C72.0647 45.4637 72.0407 45.6037 72.0087 45.7637C71.9847 45.9237 71.9607 46.0877 71.9367 46.2557C71.9207 46.4157 71.9127 46.5677 71.9127 46.7117C71.9127 46.8557 71.9407 46.9837 71.9967 47.0957C72.0527 47.2077 72.1407 47.3037 72.2607 47.3837C72.3887 47.4557 72.5527 47.5117 72.7527 47.5517C72.9607 47.5917 73.2127 47.6117 73.5087 47.6117C73.8127 47.6117 74.0287 47.6917 74.1567 47.8517C74.2847 48.0037 74.3487 48.1957 74.3487 48.4277C74.3487 48.6757 74.2647 48.8837 74.0967 49.0517C73.9367 49.2117 73.7007 49.2917 73.3887 49.2917C73.0287 49.2917 72.7007 49.2637 72.4047 49.2077C72.1167 49.1517 71.8647 49.0597 71.6487 48.9317C71.4407 48.7957 71.2687 48.6197 71.1327 48.4037C71.0047 48.1797 70.9247 47.9077 70.8927 47.5877H71.4687C71.3247 47.9717 71.1407 48.2797 70.9167 48.5117C70.7007 48.7357 70.4567 48.9037 70.1847 49.0157C69.9127 49.1277 69.6287 49.1997 69.3327 49.2317C69.0447 49.2717 68.7607 49.2917 68.4807 49.2917ZM72.3327 43.9997C72.1007 43.9997 71.9007 43.9197 71.7327 43.7597C71.5727 43.5917 71.4927 43.3957 71.4927 43.1717C71.4927 42.9397 71.5727 42.7397 71.7327 42.5717C71.9007 42.4037 72.1007 42.3197 72.3327 42.3197C72.5567 42.3197 72.7487 42.4037 72.9087 42.5717C73.0687 42.7397 73.1487 42.9397 73.1487 43.1717C73.1487 43.3957 73.0687 43.5917 72.9087 43.7597C72.7487 43.9197 72.5567 43.9997 72.3327 43.9997ZM70.2567 43.9877C70.0247 43.9877 69.8247 43.9077 69.6567 43.7477C69.4967 43.5797 69.4167 43.3837 69.4167 43.1597C69.4167 42.9277 69.4967 42.7277 69.6567 42.5597C69.8247 42.3917 70.0247 42.3077 70.2567 42.3077C70.4807 42.3077 70.6727 42.3917 70.8327 42.5597C70.9927 42.7277 71.0727 42.9277 71.0727 43.1597C71.0727 43.3837 70.9927 43.5797 70.8327 43.7477C70.6727 43.9077 70.4807 43.9877 70.2567 43.9877ZM73.3909 49.2917L73.5109 47.6117C73.8149 47.6117 74.0549 47.5837 74.2309 47.5277C74.4149 47.4717 74.5589 47.3597 74.6629 47.1917C74.7749 47.0157 74.8669 46.7597 74.9389 46.4237C75.0189 46.0877 75.0989 45.6397 75.1789 45.0797L76.7509 45.3437C76.7349 45.4637 76.7109 45.6037 76.6789 45.7637C76.6549 45.9237 76.6309 46.0877 76.6069 46.2557C76.5909 46.4157 76.5829 46.5677 76.5829 46.7117C76.5829 46.9037 76.6229 47.0677 76.7029 47.2037C76.7909 47.3317 76.9429 47.4317 77.1589 47.5037C77.3829 47.5757 77.7029 47.6117 78.1189 47.6117C78.4229 47.6117 78.6389 47.6917 78.7669 47.8517C78.8949 48.0037 78.9589 48.1957 78.9589 48.4277C78.9589 48.6757 78.8749 48.8837 78.7069 49.0517C78.5469 49.2117 78.3109 49.2917 77.9989 49.2917C77.4469 49.2917 76.9989 49.2397 76.6549 49.1357C76.3109 49.0317 76.0549 48.8557 75.8869 48.6077C75.7189 48.3597 75.6109 48.0197 75.5629 47.5877H76.1389C75.9949 47.9717 75.8269 48.2797 75.6349 48.5117C75.4429 48.7357 75.2269 48.9037 74.9869 49.0157C74.7469 49.1277 74.4909 49.1997 74.2189 49.2317C73.9549 49.2717 73.6789 49.2917 73.3909 49.2917ZM75.8389 43.8557C75.5909 43.8557 75.3789 43.7717 75.2029 43.6037C75.0349 43.4357 74.9509 43.2277 74.9509 42.9797C74.9509 42.7317 75.0349 42.5197 75.2029 42.3437C75.3789 42.1677 75.5909 42.0797 75.8389 42.0797C76.0789 42.0797 76.2829 42.1677 76.4509 42.3437C76.6269 42.5197 76.7149 42.7317 76.7149 42.9797C76.7149 43.2277 76.6269 43.4357 76.4509 43.6037C76.2829 43.7717 76.0789 43.8557 75.8389 43.8557ZM77.9963 49.2917L78.1163 47.6117H79.8323C80.0003 47.6117 80.1483 47.6037 80.2763 47.5877C80.4043 47.5637 80.5083 47.5277 80.5883 47.4797C80.6763 47.4317 80.7403 47.3717 80.7803 47.2997C80.8203 47.2277 80.8403 47.1437 80.8403 47.0477C80.8403 46.9517 80.7883 46.7997 80.6843 46.5917C80.5883 46.3757 80.3763 46.1157 80.0483 45.8117C79.8723 45.6517 79.6803 45.4837 79.4723 45.3077C79.2723 45.1237 79.0803 44.9517 78.8963 44.7917C78.7123 44.6237 78.5603 44.4757 78.4403 44.3477C78.3203 44.2197 78.2603 44.1277 78.2603 44.0717C78.2603 43.9517 78.2683 43.8197 78.2843 43.6757C78.3003 43.5317 78.3243 43.3997 78.3563 43.2797C78.3963 43.1597 78.4483 43.0717 78.5123 43.0157C78.6483 42.8877 78.8483 42.7397 79.1123 42.5717C79.3843 42.3957 79.7083 42.2077 80.0843 42.0077C80.4603 41.7997 80.8803 41.5837 81.3443 41.3597C81.8163 41.1277 82.3203 40.8957 82.8563 40.6637L83.5403 42.1277C83.1003 42.3197 82.6843 42.5077 82.2923 42.6917C81.9003 42.8677 81.5323 43.0437 81.1883 43.2197C80.8523 43.3877 80.5403 43.5557 80.2523 43.7237C79.9723 43.8837 79.7243 44.0437 79.5083 44.2037L79.6643 43.3157C80.3443 43.8357 80.8843 44.3037 81.2843 44.7197C81.6923 45.1357 81.9963 45.5077 82.1963 45.8357C82.3963 46.1557 82.5283 46.4437 82.5923 46.6997C82.6563 46.9477 82.6883 47.1677 82.6883 47.3597C82.6883 47.5517 82.6403 47.7597 82.5443 47.9837C82.4563 48.1997 82.2923 48.4077 82.0523 48.6077C81.8203 48.8077 81.4923 48.9717 81.0683 49.0997C80.6443 49.2277 80.1003 49.2917 79.4363 49.2917H77.9963Z" fill="black"/>
<path d="M33.6027 64.2317V63.3317H35.3327V58.0617L35.8727 58.0917L33.9527 59.2917L33.5127 58.4917L35.6227 57.1817H36.3927V63.3317H38.0027V64.2317H33.6027ZM41.5588 64.3217C41.0121 64.3217 40.5488 64.185 40.1688 63.9117C39.7955 63.6317 39.5121 63.2217 39.3188 62.6817C39.1255 62.1417 39.0288 61.4817 39.0288 60.7017C39.0288 59.915 39.1255 59.255 39.3188 58.7217C39.5121 58.1817 39.7955 57.775 40.1688 57.5017C40.5488 57.2284 41.0121 57.0917 41.5588 57.0917C42.1121 57.0917 42.5755 57.2284 42.9488 57.5017C43.3288 57.775 43.6121 58.1784 43.7988 58.7117C43.9921 59.245 44.0888 59.905 44.0888 60.6917C44.0888 61.4717 43.9921 62.135 43.7988 62.6817C43.6055 63.2217 43.3221 63.6317 42.9488 63.9117C42.5755 64.185 42.1121 64.3217 41.5588 64.3217ZM41.5588 63.4317C42.0655 63.4317 42.4388 63.2117 42.6788 62.7717C42.9255 62.325 43.0488 61.6317 43.0488 60.6917C43.0488 59.7517 42.9255 59.065 42.6788 58.6317C42.4388 58.1984 42.0655 57.9817 41.5588 57.9817C41.0588 57.9817 40.6855 58.2017 40.4388 58.6417C40.1921 59.075 40.0688 59.7584 40.0688 60.6917C40.0688 61.6317 40.1888 62.325 40.4288 62.7717C40.6755 63.2117 41.0521 63.4317 41.5588 63.4317ZM47.559 63.9517C47.559 63.7984 47.5724 63.6184 47.599 63.4117C47.6257 63.205 47.6757 62.9717 47.749 62.7117C47.8224 62.445 47.9324 62.1484 48.079 61.8217L49.309 62.2517C49.2357 62.4584 49.1724 62.6484 49.119 62.8217C49.0657 62.9884 49.0257 63.145 48.999 63.2917C48.9724 63.4317 48.959 63.5717 48.959 63.7117C48.959 64.0117 49.0324 64.2717 49.179 64.4917C49.3324 64.7184 49.539 64.8917 49.799 65.0117C50.0657 65.1384 50.3724 65.2017 50.719 65.2017C51.2857 65.2017 51.719 65.1084 52.019 64.9217C52.3257 64.7417 52.5324 64.455 52.639 64.0617C52.7524 63.6617 52.7957 63.145 52.769 62.5117L52.569 56.9117H53.979L54.129 61.6417C54.1424 61.975 54.189 62.2317 54.269 62.4117C54.349 62.5917 54.4724 62.715 54.639 62.7817C54.8124 62.8484 55.0357 62.8817 55.309 62.8817C55.5624 62.8817 55.7424 62.9484 55.849 63.0817C55.9557 63.2084 56.009 63.3684 56.009 63.5617C56.009 63.7684 55.939 63.9417 55.799 64.0817C55.659 64.215 55.4624 64.2817 55.209 64.2817C55.0624 64.2817 54.9057 64.2617 54.739 64.2217C54.5724 64.1817 54.4124 64.1184 54.259 64.0317C54.1057 63.945 53.9724 63.8317 53.859 63.6917C53.7457 63.545 53.669 63.365 53.629 63.1517L54.169 62.8817C54.169 63.555 54.089 64.125 53.929 64.5917C53.7757 65.0584 53.549 65.435 53.249 65.7217C52.9557 66.0084 52.5924 66.215 52.159 66.3417C51.7324 66.475 51.239 66.5417 50.679 66.5417C50.2524 66.5417 49.849 66.4884 49.469 66.3817C49.0957 66.275 48.7657 66.115 48.479 65.9017C48.1924 65.6884 47.9657 65.4184 47.799 65.0917C47.639 64.7717 47.559 64.3917 47.559 63.9517ZM65.2392 64.2817C64.8992 64.2817 64.5725 64.2517 64.2592 64.1917C63.9459 64.125 63.6625 64.0384 63.4092 63.9317C63.1625 63.825 62.9592 63.705 62.7992 63.5717L63.6992 62.6017C63.9392 62.7017 64.1859 62.775 64.4392 62.8217C64.6925 62.8617 64.9925 62.8817 65.3392 62.8817C65.5925 62.8817 65.7725 62.9484 65.8792 63.0817C65.9925 63.2084 66.0492 63.3684 66.0492 63.5617C66.0492 63.7684 65.9792 63.9417 65.8392 64.0817C65.6992 64.215 65.4992 64.2817 65.2392 64.2817ZM60.3892 64.4117C59.7692 64.4117 59.2525 64.385 58.8392 64.3317C58.4325 64.2784 58.1025 64.2017 57.8492 64.1017C57.5959 64.0017 57.3959 63.8817 57.2492 63.7417C57.1025 63.6017 56.9825 63.4484 56.8892 63.2817L57.1692 63.2017C57.0025 63.5217 56.8125 63.7584 56.5992 63.9117C56.3859 64.065 56.1625 64.165 55.9292 64.2117C55.6959 64.2584 55.4559 64.2817 55.2092 64.2817L55.3092 62.8817C55.5159 62.8817 55.6792 62.8484 55.7992 62.7817C55.9192 62.715 56.0159 62.605 56.0892 62.4517C56.1692 62.2984 56.2425 62.095 56.3092 61.8417C56.3759 61.5884 56.4559 61.2784 56.5492 60.9117L57.8192 61.2217C57.7725 61.4017 57.7325 61.5584 57.6992 61.6917C57.6725 61.825 57.6492 61.9417 57.6292 62.0417C57.6159 62.135 57.6092 62.2117 57.6092 62.2717C57.6092 62.3984 57.6392 62.5117 57.6992 62.6117C57.7592 62.705 57.8759 62.7817 58.0492 62.8417C58.2225 62.895 58.4759 62.9384 58.8092 62.9717C59.1492 62.9984 59.5925 63.0117 60.1392 63.0117C60.7192 63.0117 61.2025 62.9917 61.5892 62.9517C61.9759 62.905 62.2825 62.8417 62.5092 62.7617C62.7425 62.675 62.9092 62.5717 63.0092 62.4517C63.1092 62.325 63.1592 62.1817 63.1592 62.0217C63.1592 61.895 63.1292 61.7784 63.0692 61.6717C63.0159 61.5584 62.9259 61.465 62.7992 61.3917C62.6725 61.3184 62.5092 61.2817 62.3092 61.2817C62.0692 61.2817 61.8259 61.3417 61.5792 61.4617C61.3392 61.575 61.1025 61.7284 60.8692 61.9217C60.6359 62.1084 60.4125 62.3184 60.1992 62.5517C59.9925 62.785 59.8059 63.0184 59.6392 63.2517L58.1392 63.0817C58.3992 62.6617 58.6925 62.2584 59.0192 61.8717C59.3459 61.485 59.6959 61.145 60.0692 60.8517C60.4425 60.5517 60.8292 60.315 61.2292 60.1417C61.6292 59.9684 62.0359 59.8817 62.4492 59.8817C62.8959 59.8817 63.2759 59.9684 63.5892 60.1417C63.9025 60.315 64.1425 60.555 64.3092 60.8617C64.4759 61.1684 64.5592 61.5217 64.5592 61.9217C64.5592 62.4084 64.4192 62.8384 64.1392 63.2117C63.8659 63.585 63.4225 63.8784 62.8092 64.0917C62.2025 64.305 61.3959 64.4117 60.3892 64.4117ZM65.2483 64.2817L65.3483 62.8917C65.9016 62.8917 66.3449 62.8884 66.6783 62.8817C67.0183 62.875 67.2816 62.8617 67.4683 62.8417C67.6616 62.815 67.8049 62.785 67.8983 62.7517C67.9916 62.7117 68.0716 62.6684 68.1383 62.6217C68.2183 62.5617 68.2849 62.4817 68.3383 62.3817C68.3983 62.275 68.4449 62.135 68.4783 61.9617C68.5116 61.7884 68.5283 61.5717 68.5283 61.3117C68.5283 60.985 68.4983 60.7117 68.4383 60.4917C68.3849 60.265 68.3049 60.095 68.1983 59.9817C68.0983 59.8684 67.9749 59.8117 67.8283 59.8117C67.7216 59.8117 67.6216 59.8484 67.5283 59.9217C67.4349 59.9884 67.3583 60.0817 67.2983 60.2017C67.2383 60.3217 67.2083 60.4584 67.2083 60.6117C67.2083 60.6984 67.2316 60.775 67.2783 60.8417C67.3249 60.9084 67.3983 60.9584 67.4983 60.9917C67.5983 61.025 67.7249 61.0417 67.8783 61.0417C68.0249 61.0417 68.1783 61.025 68.3383 60.9917C68.5049 60.9517 68.6583 60.8984 68.7983 60.8317L68.8383 62.0217C68.7316 62.095 68.6083 62.1617 68.4683 62.2217C68.3283 62.2817 68.1783 62.3284 68.0183 62.3617C67.8649 62.3884 67.7083 62.4017 67.5483 62.4017C67.1949 62.4017 66.8883 62.355 66.6283 62.2617C66.3749 62.1617 66.1783 62.0017 66.0383 61.7817C65.8983 61.5617 65.8283 61.2617 65.8283 60.8817C65.8283 60.5884 65.8783 60.2984 65.9783 60.0117C66.0783 59.7184 66.2216 59.455 66.4083 59.2217C66.5949 58.9817 66.8149 58.7917 67.0683 58.6517C67.3216 58.505 67.6016 58.4317 67.9083 58.4317C68.3616 58.4317 68.7349 58.565 69.0283 58.8317C69.3283 59.0917 69.5483 59.445 69.6883 59.8917C69.8349 60.3317 69.9083 60.8217 69.9083 61.3617C69.9083 61.835 69.8383 62.2484 69.6983 62.6017C69.5583 62.9484 69.3916 63.2217 69.1983 63.4217C69.0383 63.5884 68.8549 63.7284 68.6483 63.8417C68.4416 63.955 68.1883 64.045 67.8883 64.1117C67.5949 64.1717 67.2316 64.215 66.7983 64.2417C66.3716 64.2684 65.8549 64.2817 65.2483 64.2817ZM67.8883 57.5017C67.6816 57.5017 67.5049 57.4317 67.3583 57.2917C67.2183 57.1517 67.1483 56.9784 67.1483 56.7717C67.1483 56.565 67.2183 56.3884 67.3583 56.2417C67.5049 56.095 67.6816 56.0217 67.8883 56.0217C68.0883 56.0217 68.2583 56.095 68.3983 56.2417C68.5449 56.3884 68.6183 56.565 68.6183 56.7717C68.6183 56.9784 68.5449 57.1517 68.3983 57.2917C68.2583 57.4317 68.0883 57.5017 67.8883 57.5017Z" fill="#667085"/>
<defs>
<filter id="filter0_d_8334_725" x="0" y="0.574951" width="101.04" height="85.8501" filterUnits="userSpaceOnUse" color-interpolation-filters="sRGB">
<feFlood flood-opacity="0" result="BackgroundImageFix"/>
<feColorMatrix in="SourceAlpha" type="matrix" values="0 0 0 0 0 0 0 0 0 0 0 0 0 0 0 0 0 0 127 0" result="hardAlpha"/>
<feOffset dy="4"/>
<feGaussianBlur stdDeviation="2"/>
<feComposite in2="hardAlpha" operator="out"/>
<feColorMatrix type="matrix" values="0 0 0 0 0 0 0 0 0 0 0 0 0 0 0 0 0 0 0.25 0"/>
<feBlend mode="normal" in2="BackgroundImageFix" result="effect1_dropShadow_8334_725"/>
<feBlend mode="normal" in="SourceGraphic" in2="effect1_dropShadow_8334_725" result="shape"/>
</filter>
</defs>
</svg>
