<svg width="96" height="87" viewBox="0 0 96 87" fill="none" xmlns="http://www.w3.org/2000/svg">
<g filter="url(#filter0_d_8339_572)">
<path d="M5.37285 43.0185C4.62083 41.7089 4.24484 41.0536 4.09767 40.3574C3.96744 39.7412 3.96744 39.1048 4.09767 38.4886C4.24484 37.7924 4.62083 37.1371 5.37285 35.8274L23.5901 4.09555C24.3421 2.78569 24.7181 2.13076 25.2442 1.65444C25.7096 1.233 26.2579 0.914612 26.8535 0.720002C27.5267 0.5 28.2787 0.5 29.7827 0.5H66.2171C67.7214 0.5 68.4731 0.5 69.1466 0.720002C69.7419 0.914612 70.2903 1.233 70.756 1.65444C71.282 2.13076 71.6578 2.78569 72.41 4.09555L90.6271 35.8274C91.3792 37.1371 91.7551 37.7924 91.9021 38.4886C92.0326 39.1048 92.0326 39.7412 91.9021 40.3574C91.7551 41.0536 91.3792 41.7089 90.6271 43.0185L72.41 74.7506C71.6578 76.0603 71.282 76.7151 70.756 77.1915C70.2903 77.6131 69.7419 77.9313 69.1466 78.1259C68.4731 78.3462 67.7214 78.3462 66.2171 78.3462H29.7827C28.2787 78.3462 27.5267 78.3462 26.8535 78.1259C26.2579 77.9313 25.7096 77.6131 25.2442 77.1915C24.7181 76.7151 24.3421 76.0603 23.5901 74.7506L5.37285 43.0185Z" fill="white"/>
</g>
<g clip-path="url(#clip0_8339_572)">
<path d="M55.4134 11.2344C54.6686 7.87425 53.9238 4.51412 53.1786 1.15405C51.921 1.15405 50.6635 1.15405 49.4061 1.15405C49.5858 4.51419 49.7658 7.87433 49.9456 11.2344H55.4134Z" fill="#F2BB41"/>
<path d="M50.2325 16.5984C50.4691 21.0143 50.7054 25.4301 50.9416 29.846C53.8072 29.846 56.6728 29.846 59.5384 29.846C58.5594 25.4301 57.5809 21.0143 56.6024 16.5984H50.2325Z" fill="#F2BB41"/>
<path d="M47.0039 1.15405C45.7464 1.15405 44.4888 1.15405 43.2315 1.15405C42.4866 4.51412 41.7422 7.87425 40.9974 11.2344H46.4649C46.6444 7.87425 46.824 4.51412 47.0039 1.15405Z" fill="#F2BB41"/>
<path d="M36.8717 29.846C39.7375 29.846 42.6029 29.846 45.4685 29.846C45.7056 25.4301 45.9419 21.0143 46.1778 16.5984H39.8087C38.83 21.0143 37.8512 25.4302 36.8717 29.846Z" fill="#F2BB41"/>
<path d="M62.8569 12.6272H33.5532C33.3609 12.6272 33.2051 12.7831 33.2051 12.9753V14.8575C33.2051 15.0497 33.3609 15.2056 33.5532 15.2056H35.4374V18.0247C35.4374 18.217 35.5932 18.3729 35.7855 18.3729H37.6658C37.8251 18.3729 37.964 18.2648 38.0031 18.1106L38.7417 15.2058H57.6684L58.4068 18.1106C58.4459 18.2649 58.585 18.3729 58.7443 18.3729H60.6243C60.8168 18.3729 60.9725 18.217 60.9725 18.0247V15.2056H62.8568C63.0491 15.2056 63.205 15.0497 63.205 14.8575V12.9753C63.2051 12.7831 63.0491 12.6272 62.8569 12.6272Z" fill="#F2BB41"/>
</g>
<path d="M16.3342 43.536C15.8862 43.536 15.4822 43.46 15.1222 43.308C14.7702 43.148 14.4902 42.912 14.2822 42.6C14.0822 42.28 13.9822 41.884 13.9822 41.412C13.9822 40.94 14.1422 40.416 14.4622 39.84C14.7822 39.256 15.3182 38.672 16.0702 38.088L15.9502 39.192L14.8702 38.352L15.9982 36.972C16.6062 37.436 17.1262 37.888 17.5582 38.328C17.9982 38.76 18.3342 39.204 18.5662 39.66C18.7982 40.116 18.9142 40.6 18.9142 41.112C18.9142 41.36 18.8742 41.628 18.7942 41.916C18.7142 42.196 18.5782 42.46 18.3862 42.708C18.1942 42.948 17.9302 43.148 17.5942 43.308C17.2662 43.46 16.8462 43.536 16.3342 43.536ZM16.4662 41.88C16.6662 41.88 16.8262 41.84 16.9462 41.76C17.0742 41.68 17.1702 41.576 17.2342 41.448C17.2982 41.32 17.3302 41.184 17.3302 41.04C17.3302 40.896 17.2982 40.74 17.2342 40.572C17.1702 40.404 17.0462 40.216 16.8622 40.008C16.6782 39.8 16.4062 39.56 16.0462 39.288L16.9582 39.168C16.6302 39.392 16.3662 39.62 16.1662 39.852C15.9662 40.084 15.8222 40.308 15.7342 40.524C15.6542 40.732 15.6142 40.924 15.6142 41.1C15.6142 41.356 15.6982 41.552 15.8662 41.688C16.0342 41.816 16.2342 41.88 16.4662 41.88ZM19.7266 43.02L20.3146 41.496C20.6106 41.624 20.8946 41.72 21.1666 41.784C21.4386 41.848 21.7106 41.88 21.9826 41.88C22.2626 41.88 22.4946 41.856 22.6786 41.808C22.8706 41.752 23.0146 41.672 23.1106 41.568C23.2066 41.464 23.2546 41.34 23.2546 41.196C23.2546 41.06 23.2106 40.872 23.1226 40.632C23.0426 40.392 22.8946 40.08 22.6786 39.696C22.4626 39.304 22.1466 38.82 21.7306 38.244L23.1586 37.296C23.5426 37.84 23.8746 38.372 24.1546 38.892C24.4346 39.404 24.6506 39.884 24.8026 40.332C24.9626 40.772 25.0426 41.16 25.0426 41.496C25.0426 41.912 24.9306 42.276 24.7066 42.588C24.4906 42.892 24.1666 43.132 23.7346 43.308C23.3106 43.484 22.7866 43.572 22.1626 43.572C21.9306 43.572 21.6706 43.552 21.3826 43.512C21.0946 43.472 20.8026 43.412 20.5066 43.332C20.2186 43.252 19.9586 43.148 19.7266 43.02ZM29.3099 43.56C28.5659 43.56 27.9899 43.484 27.5819 43.332C27.1819 43.18 26.9019 42.944 26.7419 42.624C26.5819 42.296 26.4899 41.884 26.4659 41.388L26.2139 34.716H27.8939L28.1459 40.584C28.1619 40.952 28.2019 41.228 28.2659 41.412C28.3299 41.596 28.4499 41.72 28.6259 41.784C28.8099 41.848 29.0779 41.88 29.4299 41.88C29.7339 41.88 29.9499 41.96 30.0779 42.12C30.2139 42.272 30.2819 42.464 30.2819 42.696C30.2819 42.944 30.1979 43.152 30.0299 43.32C29.8619 43.48 29.6219 43.56 29.3099 43.56ZM29.3262 43.56L29.4462 41.88C29.8782 41.88 30.3062 41.856 30.7302 41.808C31.1542 41.76 31.5662 41.688 31.9662 41.592C32.3662 41.496 32.7462 41.372 33.1062 41.22C33.4742 41.068 33.8182 40.884 34.1382 40.668C33.8982 40.524 33.6382 40.4 33.3582 40.296C33.0782 40.192 32.7782 40.116 32.4582 40.068C32.1462 40.012 31.8142 39.984 31.4622 39.984C31.3342 39.984 31.1982 39.988 31.0542 39.996C30.9182 40.004 30.7782 40.02 30.6342 40.044C30.4902 40.06 30.3462 40.084 30.2022 40.116L29.9622 38.472C30.1942 38.408 30.4382 38.364 30.6942 38.34C30.9582 38.308 31.1902 38.292 31.3902 38.292C31.8222 38.292 32.2182 38.34 32.5782 38.436C32.9462 38.532 33.2822 38.652 33.5862 38.796C33.8982 38.94 34.1862 39.084 34.4502 39.228C34.7222 39.372 34.9782 39.492 35.2182 39.588C35.4662 39.684 35.7062 39.732 35.9382 39.732H36.3822L36.5742 41.328C36.2302 41.344 35.9062 41.412 35.6022 41.532C35.3062 41.644 35.0102 41.788 34.7142 41.964C34.4262 42.132 34.1142 42.308 33.7782 42.492C33.4502 42.676 33.0782 42.848 32.6622 43.008C32.2462 43.168 31.7662 43.3 31.2222 43.404C30.6782 43.508 30.0462 43.56 29.3262 43.56ZM32.9262 46.32C32.6942 46.32 32.4942 46.24 32.3262 46.08C32.1662 45.92 32.0862 45.724 32.0862 45.492C32.0862 45.26 32.1662 45.056 32.3262 44.88C32.4942 44.712 32.6942 44.628 32.9262 44.628C33.1582 44.628 33.3542 44.712 33.5142 44.88C33.6822 45.056 33.7662 45.26 33.7662 45.492C33.7662 45.724 33.6822 45.92 33.5142 46.08C33.3542 46.24 33.1582 46.32 32.9262 46.32ZM40.7094 46.26L40.3614 44.58C40.9294 44.508 41.4254 44.42 41.8494 44.316C42.2734 44.22 42.6294 44.084 42.9174 43.908C43.2054 43.732 43.4214 43.492 43.5654 43.188C43.7094 42.876 43.7814 42.476 43.7814 41.988C43.7814 41.812 43.7654 41.636 43.7334 41.46C43.7014 41.276 43.6534 41.108 43.5894 40.956C43.5254 40.804 43.4414 40.68 43.3374 40.584C43.2414 40.488 43.1254 40.44 42.9894 40.44C42.8454 40.44 42.7174 40.492 42.6054 40.596C42.4934 40.692 42.4054 40.816 42.3414 40.968C42.2774 41.112 42.2454 41.26 42.2454 41.412C42.2454 41.524 42.2734 41.62 42.3294 41.7C42.3854 41.772 42.4694 41.828 42.5814 41.868C42.6934 41.9 42.8334 41.916 43.0014 41.916C43.1934 41.916 43.3894 41.896 43.5894 41.856C43.7974 41.808 43.9854 41.744 44.1534 41.664L44.2014 42.972C44.0094 43.124 43.7894 43.26 43.5414 43.38C43.2934 43.492 42.9934 43.548 42.6414 43.548C42.3534 43.548 42.0854 43.516 41.8374 43.452C41.5894 43.38 41.3694 43.272 41.1774 43.128C40.9934 42.984 40.8494 42.8 40.7454 42.576C40.6414 42.344 40.5894 42.068 40.5894 41.748C40.5894 41.356 40.6534 40.976 40.7814 40.608C40.9094 40.24 41.0854 39.912 41.3094 39.624C41.5414 39.328 41.8054 39.096 42.1014 38.928C42.4054 38.752 42.7254 38.664 43.0614 38.664C43.4614 38.664 43.8094 38.764 44.1054 38.964C44.4094 39.164 44.6614 39.428 44.8614 39.756C45.0614 40.076 45.2134 40.424 45.3174 40.8C45.4214 41.176 45.4734 41.536 45.4734 41.88C45.4734 42.784 45.2814 43.552 44.8974 44.184C44.5134 44.816 43.9654 45.304 43.2534 45.648C42.5414 46 41.6934 46.204 40.7094 46.26ZM51.8303 43.536C51.3823 43.536 50.9783 43.46 50.6183 43.308C50.2663 43.148 49.9863 42.912 49.7783 42.6C49.5783 42.28 49.4783 41.884 49.4783 41.412C49.4783 40.94 49.6383 40.416 49.9583 39.84C50.2783 39.256 50.8143 38.672 51.5663 38.088L51.4463 39.192L50.3663 38.352L51.4943 36.972C52.1023 37.436 52.6223 37.888 53.0543 38.328C53.4943 38.76 53.8303 39.204 54.0623 39.66C54.2943 40.116 54.4103 40.6 54.4103 41.112C54.4103 41.36 54.3703 41.628 54.2903 41.916C54.2103 42.196 54.0743 42.46 53.8823 42.708C53.6903 42.948 53.4263 43.148 53.0903 43.308C52.7623 43.46 52.3423 43.536 51.8303 43.536ZM51.9623 41.88C52.1623 41.88 52.3223 41.84 52.4423 41.76C52.5703 41.68 52.6663 41.576 52.7303 41.448C52.7943 41.32 52.8263 41.184 52.8263 41.04C52.8263 40.896 52.7943 40.74 52.7303 40.572C52.6663 40.404 52.5423 40.216 52.3583 40.008C52.1743 39.8 51.9023 39.56 51.5423 39.288L52.4543 39.168C52.1263 39.392 51.8623 39.62 51.6623 39.852C51.4623 40.084 51.3183 40.308 51.2303 40.524C51.1503 40.732 51.1103 40.924 51.1103 41.1C51.1103 41.356 51.1943 41.552 51.3623 41.688C51.5303 41.816 51.7303 41.88 51.9623 41.88ZM55.7627 43.5L55.5107 34.716H57.1907L57.4427 43.5H55.7627ZM57.9713 46.272L57.3593 44.784C57.7833 44.64 58.1713 44.472 58.5233 44.28C58.8833 44.088 59.1953 43.876 59.4593 43.644C59.7233 43.412 59.9273 43.16 60.0713 42.888C60.2153 42.608 60.2873 42.308 60.2873 41.988C60.2873 41.652 60.2113 41.284 60.0593 40.884C59.9073 40.484 59.7233 40.076 59.5073 39.66L61.0793 38.904C61.2233 39.152 61.3473 39.42 61.4513 39.708C61.5633 39.988 61.6553 40.24 61.7273 40.464C61.7993 40.688 61.8473 40.84 61.8713 40.92C61.9833 41.304 62.1353 41.56 62.3273 41.688C62.5273 41.816 62.8473 41.88 63.2873 41.88C63.5913 41.88 63.8073 41.96 63.9353 42.12C64.0713 42.272 64.1393 42.464 64.1393 42.696C64.1393 42.944 64.0553 43.152 63.8873 43.32C63.7193 43.48 63.4793 43.56 63.1673 43.56C62.8393 43.56 62.5513 43.512 62.3033 43.416C62.0553 43.32 61.8553 43.18 61.7033 42.996C61.5593 42.812 61.4673 42.596 61.4273 42.348L61.8713 42.6C61.8233 43.024 61.6833 43.424 61.4513 43.8C61.2273 44.184 60.9353 44.536 60.5753 44.856C60.2153 45.176 59.8113 45.456 59.3633 45.696C58.9153 45.936 58.4513 46.128 57.9713 46.272ZM63.2176 36.48L62.6296 35.496C63.0216 35.264 63.4256 35.032 63.8416 34.8C64.2576 34.56 64.7216 34.304 65.2336 34.032C65.7536 33.752 66.3616 33.436 67.0576 33.084L67.6096 34.14C66.8976 34.484 66.2816 34.792 65.7616 35.064C65.2496 35.336 64.7896 35.588 64.3816 35.82C63.9816 36.044 63.5936 36.264 63.2176 36.48ZM63.1816 43.56L63.3016 41.88H65.0176C65.1856 41.88 65.3336 41.872 65.4616 41.856C65.5896 41.832 65.6936 41.796 65.7736 41.748C65.8616 41.7 65.9256 41.64 65.9656 41.568C66.0056 41.496 66.0256 41.412 66.0256 41.316C66.0256 41.22 65.9736 41.068 65.8696 40.86C65.7736 40.644 65.5616 40.384 65.2336 40.08C65.0576 39.92 64.8656 39.752 64.6576 39.576C64.4576 39.392 64.2656 39.22 64.0816 39.06C63.8976 38.892 63.7456 38.744 63.6256 38.616C63.5056 38.488 63.4456 38.396 63.4456 38.34C63.4456 38.22 63.4536 38.088 63.4696 37.944C63.4856 37.8 63.5096 37.668 63.5416 37.548C63.5816 37.428 63.6336 37.34 63.6976 37.284C63.8336 37.156 64.0336 37.008 64.2976 36.84C64.5696 36.664 64.8936 36.476 65.2696 36.276C65.6456 36.068 66.0656 35.852 66.5296 35.628C67.0016 35.396 67.5056 35.164 68.0416 34.932L68.7256 36.396C68.2856 36.588 67.8696 36.776 67.4776 36.96C67.0856 37.136 66.7176 37.312 66.3736 37.488C66.0376 37.656 65.7256 37.824 65.4376 37.992C65.1576 38.152 64.9096 38.312 64.6936 38.472L64.8496 37.584C65.5296 38.104 66.0696 38.572 66.4696 38.988C66.8776 39.404 67.1816 39.776 67.3816 40.104C67.5816 40.424 67.7136 40.712 67.7776 40.968C67.8416 41.216 67.8736 41.436 67.8736 41.628C67.8736 41.82 67.8256 42.028 67.7296 42.252C67.6416 42.468 67.4776 42.676 67.2376 42.876C67.0056 43.076 66.6776 43.24 66.2536 43.368C65.8296 43.496 65.2856 43.56 64.6216 43.56H63.1816ZM68.8229 46.26L68.2109 44.724C68.8989 44.484 69.4549 44.22 69.8789 43.932C70.3109 43.644 70.6269 43.336 70.8269 43.008C71.0349 42.68 71.1389 42.34 71.1389 41.988C71.1389 41.764 71.1069 41.532 71.0429 41.292C70.9789 41.044 70.8869 40.784 70.7669 40.512C70.6549 40.24 70.5189 39.956 70.3589 39.66L71.9309 38.904C72.2109 39.44 72.4269 39.952 72.5789 40.44C72.7389 40.928 72.8189 41.384 72.8189 41.808C72.8189 42.2 72.7669 42.576 72.6629 42.936C72.5669 43.296 72.4149 43.632 72.2069 43.944C72.0069 44.264 71.7469 44.564 71.4269 44.844C71.1069 45.124 70.7309 45.38 70.2989 45.612C69.8669 45.852 69.3749 46.068 68.8229 46.26ZM73.733 46.272L73.121 44.784C73.545 44.64 73.933 44.472 74.285 44.28C74.645 44.088 74.957 43.876 75.221 43.644C75.485 43.412 75.689 43.16 75.833 42.888C75.977 42.608 76.049 42.308 76.049 41.988C76.049 41.652 75.973 41.284 75.821 40.884C75.669 40.484 75.485 40.076 75.269 39.66L76.841 38.904C76.985 39.152 77.109 39.42 77.213 39.708C77.325 39.988 77.417 40.24 77.489 40.464C77.561 40.688 77.609 40.84 77.633 40.92C77.745 41.304 77.897 41.56 78.089 41.688C78.289 41.816 78.609 41.88 79.049 41.88C79.353 41.88 79.569 41.96 79.697 42.12C79.833 42.272 79.901 42.464 79.901 42.696C79.901 42.944 79.817 43.152 79.649 43.32C79.481 43.48 79.241 43.56 78.929 43.56C78.601 43.56 78.313 43.512 78.065 43.416C77.817 43.32 77.617 43.18 77.465 42.996C77.321 42.812 77.229 42.596 77.189 42.348L77.633 42.6C77.585 43.024 77.445 43.424 77.213 43.8C76.989 44.184 76.697 44.536 76.337 44.856C75.977 45.176 75.573 45.456 75.125 45.696C74.677 45.936 74.213 46.128 73.733 46.272ZM76.181 37.68C75.933 37.68 75.721 37.596 75.545 37.428C75.377 37.26 75.293 37.052 75.293 36.804C75.293 36.556 75.377 36.344 75.545 36.168C75.721 35.992 75.933 35.904 76.181 35.904C76.421 35.904 76.625 35.992 76.793 36.168C76.969 36.344 77.057 36.556 77.057 36.804C77.057 37.052 76.969 37.26 76.793 37.428C76.625 37.596 76.421 37.68 76.181 37.68ZM78.9434 43.56L79.0634 41.88C79.4154 41.88 79.6914 41.856 79.8914 41.808C80.0994 41.76 80.2474 41.672 80.3354 41.544C80.4234 41.408 80.4674 41.216 80.4674 40.968C80.4674 40.744 80.4354 40.476 80.3714 40.164C80.3154 39.852 80.2394 39.528 80.1434 39.192C80.0474 38.856 79.9514 38.548 79.8554 38.268L81.5114 37.812C81.6074 38.084 81.7034 38.4 81.7994 38.76C81.8954 39.12 81.9754 39.492 82.0394 39.876C82.1114 40.252 82.1474 40.616 82.1474 40.968C82.1474 41.408 82.0914 41.78 81.9794 42.084C81.8674 42.38 81.7114 42.628 81.5114 42.828C81.3194 43.02 81.0874 43.172 80.8154 43.284C80.5514 43.388 80.2594 43.46 79.9394 43.5C79.6194 43.54 79.2874 43.56 78.9434 43.56ZM80.4194 46.32C80.1874 46.32 79.9874 46.24 79.8194 46.08C79.6594 45.92 79.5794 45.724 79.5794 45.492C79.5794 45.26 79.6594 45.056 79.8194 44.88C79.9874 44.712 80.1874 44.628 80.4194 44.628C80.6514 44.628 80.8474 44.712 81.0074 44.88C81.1754 45.056 81.2594 45.26 81.2594 45.492C81.2594 45.724 81.1754 45.92 81.0074 46.08C80.8474 46.24 80.6514 46.32 80.4194 46.32ZM26.0522 59.164C26.0522 58.98 26.0682 58.764 26.1002 58.516C26.1322 58.268 26.1922 57.988 26.2802 57.676C26.3682 57.356 26.5002 57 26.6762 56.608L28.1522 57.124C28.0642 57.372 27.9882 57.6 27.9242 57.808C27.8602 58.008 27.8122 58.196 27.7802 58.372C27.7482 58.54 27.7322 58.708 27.7322 58.876C27.7322 59.14 27.7882 59.376 27.9002 59.584C28.0202 59.8 28.1922 59.98 28.4162 60.124C28.6402 60.276 28.9122 60.392 29.2322 60.472C29.5602 60.552 29.9362 60.592 30.3602 60.592C30.8002 60.592 31.1922 60.572 31.5362 60.532C31.8882 60.492 32.1842 60.432 32.4242 60.352C32.6722 60.272 32.8602 60.168 32.9882 60.04C33.1162 59.92 33.1802 59.78 33.1802 59.62C33.1802 59.548 33.1522 59.48 33.0962 59.416C33.0482 59.352 32.9642 59.284 32.8442 59.212C32.7322 59.14 32.5802 59.064 32.3882 58.984C32.2042 58.904 31.9802 58.816 31.7162 58.72L32.1122 57.028C32.4562 57.172 32.7802 57.3 33.0842 57.412C33.3962 57.516 33.6922 57.604 33.9722 57.676C34.2522 57.74 34.5162 57.792 34.7642 57.832C35.0122 57.864 35.2442 57.88 35.4602 57.88C35.7642 57.88 35.9802 57.96 36.1082 58.12C36.2362 58.272 36.3002 58.464 36.3002 58.696C36.3002 58.944 36.2162 59.152 36.0482 59.32C35.8802 59.48 35.6442 59.56 35.3402 59.56C35.2762 59.56 35.2122 59.56 35.1482 59.56C35.0922 59.56 35.0322 59.56 34.9682 59.56C34.9122 59.56 34.8522 59.56 34.7882 59.56C34.8042 59.64 34.8122 59.708 34.8122 59.764C34.8122 59.828 34.8122 59.888 34.8122 59.944C34.8122 60.208 34.7202 60.476 34.5362 60.748C34.3602 61.02 34.0842 61.272 33.7082 61.504C33.3322 61.736 32.8522 61.92 32.2682 62.056C31.6922 62.2 31.0042 62.272 30.2042 62.272C29.3402 62.272 28.5962 62.16 27.9722 61.936C27.3562 61.72 26.8802 61.38 26.5442 60.916C26.2162 60.46 26.0522 59.876 26.0522 59.164ZM35.3379 59.56L35.4579 57.88C35.9379 57.88 36.3059 57.856 36.5619 57.808C36.8179 57.76 36.9939 57.672 37.0899 57.544C37.1939 57.408 37.2459 57.216 37.2459 56.968C37.2459 56.744 37.2139 56.476 37.1499 56.164C37.0939 55.852 37.0179 55.528 36.9219 55.192C36.8339 54.856 36.7379 54.548 36.6339 54.268L38.2899 53.812C38.3939 54.084 38.4939 54.4 38.5899 54.76C38.6859 55.12 38.7659 55.492 38.8299 55.876C38.8939 56.252 38.9259 56.616 38.9259 56.968C38.9259 57.512 38.8379 57.956 38.6619 58.3C38.4859 58.636 38.2379 58.896 37.9179 59.08C37.6059 59.264 37.2299 59.392 36.7899 59.464C36.3499 59.528 35.8659 59.56 35.3379 59.56ZM38.3019 62.344C38.0699 62.344 37.8699 62.26 37.7019 62.092C37.5419 61.932 37.4619 61.74 37.4619 61.516C37.4619 61.284 37.5419 61.084 37.7019 60.916C37.8699 60.748 38.0699 60.664 38.3019 60.664C38.5259 60.664 38.7179 60.748 38.8779 60.916C39.0379 61.084 39.1179 61.284 39.1179 61.516C39.1179 61.74 39.0379 61.932 38.8779 62.092C38.7179 62.26 38.5259 62.344 38.3019 62.344ZM36.2259 62.344C35.9939 62.344 35.7939 62.26 35.6259 62.092C35.4659 61.932 35.3859 61.74 35.3859 61.516C35.3859 61.284 35.4659 61.084 35.6259 60.916C35.7939 60.748 35.9939 60.664 36.2259 60.664C36.4499 60.664 36.6419 60.748 36.8019 60.916C36.9619 61.084 37.0419 61.284 37.0419 61.516C37.0419 61.74 36.9619 61.932 36.8019 62.092C36.6419 62.26 36.4499 62.344 36.2259 62.344ZM43.4544 59.56C42.7104 59.56 42.1344 59.484 41.7264 59.332C41.3264 59.18 41.0464 58.944 40.8864 58.624C40.7264 58.296 40.6344 57.884 40.6104 57.388L40.3584 50.716H42.0384L42.2904 56.584C42.3064 56.952 42.3464 57.228 42.4104 57.412C42.4744 57.596 42.5944 57.72 42.7704 57.784C42.9544 57.848 43.2224 57.88 43.5744 57.88C43.8784 57.88 44.0944 57.96 44.2224 58.12C44.3584 58.272 44.4264 58.464 44.4264 58.696C44.4264 58.944 44.3424 59.152 44.1744 59.32C44.0064 59.48 43.7664 59.56 43.4544 59.56ZM43.4707 59.56L43.5907 57.88C43.8787 57.88 44.1267 57.852 44.3347 57.796C44.5427 57.74 44.7187 57.628 44.8627 57.46C45.0067 57.284 45.1267 57.028 45.2227 56.692C45.3267 56.356 45.4187 55.908 45.4987 55.348L47.0707 55.612C47.0547 55.732 47.0307 55.872 46.9987 56.032C46.9747 56.192 46.9507 56.356 46.9267 56.524C46.9107 56.684 46.9027 56.836 46.9027 56.98C46.9027 57.124 46.9307 57.252 46.9867 57.364C47.0427 57.476 47.1307 57.572 47.2507 57.652C47.3787 57.724 47.5427 57.78 47.7427 57.82C47.9507 57.86 48.2027 57.88 48.4987 57.88C48.8027 57.88 49.0187 57.96 49.1467 58.12C49.2747 58.272 49.3387 58.464 49.3387 58.696C49.3387 58.944 49.2547 59.152 49.0867 59.32C48.9267 59.48 48.6907 59.56 48.3787 59.56C48.0187 59.56 47.6907 59.532 47.3947 59.476C47.1067 59.42 46.8547 59.328 46.6387 59.2C46.4307 59.064 46.2587 58.888 46.1227 58.672C45.9947 58.448 45.9147 58.176 45.8827 57.856H46.4587C46.3147 58.24 46.1307 58.548 45.9067 58.78C45.6907 59.004 45.4467 59.172 45.1747 59.284C44.9027 59.396 44.6187 59.468 44.3227 59.5C44.0347 59.54 43.7507 59.56 43.4707 59.56ZM47.3227 54.268C47.0907 54.268 46.8907 54.188 46.7227 54.028C46.5627 53.86 46.4827 53.664 46.4827 53.44C46.4827 53.208 46.5627 53.008 46.7227 52.84C46.8907 52.672 47.0907 52.588 47.3227 52.588C47.5467 52.588 47.7387 52.672 47.8987 52.84C48.0587 53.008 48.1387 53.208 48.1387 53.44C48.1387 53.664 48.0587 53.86 47.8987 54.028C47.7387 54.188 47.5467 54.268 47.3227 54.268ZM45.2467 54.256C45.0147 54.256 44.8147 54.176 44.6467 54.016C44.4867 53.848 44.4067 53.652 44.4067 53.428C44.4067 53.196 44.4867 52.996 44.6467 52.828C44.8147 52.66 45.0147 52.576 45.2467 52.576C45.4707 52.576 45.6627 52.66 45.8227 52.828C45.9827 52.996 46.0627 53.196 46.0627 53.428C46.0627 53.652 45.9827 53.848 45.8227 54.016C45.6627 54.176 45.4707 54.256 45.2467 54.256ZM48.3809 59.56L48.5009 57.88C48.7649 57.88 48.9809 57.86 49.1489 57.82C49.3169 57.772 49.4529 57.672 49.5569 57.52C49.6689 57.36 49.7649 57.124 49.8449 56.812C49.9329 56.492 50.0289 56.06 50.1329 55.516L51.6929 55.804C51.6689 55.924 51.6409 56.064 51.6089 56.224C51.5769 56.384 51.5489 56.548 51.5249 56.716C51.5009 56.876 51.4889 57.02 51.4889 57.148C51.4889 57.372 51.5609 57.552 51.7049 57.688C51.8489 57.816 52.1209 57.88 52.5209 57.88C52.7209 57.88 52.8929 57.86 53.0369 57.82C53.1889 57.772 53.3169 57.672 53.4209 57.52C53.5329 57.36 53.6289 57.116 53.7089 56.788C53.7969 56.452 53.8809 56 53.9609 55.432L55.5449 55.684C55.5129 55.868 55.4809 56.064 55.4489 56.272C55.4169 56.48 55.3889 56.672 55.3649 56.848C55.3409 57.024 55.3289 57.168 55.3289 57.28C55.3289 57.384 55.3569 57.484 55.4129 57.58C55.4769 57.668 55.5889 57.74 55.7489 57.796C55.9169 57.852 56.1529 57.88 56.4569 57.88C56.6729 57.88 56.8569 57.852 57.0089 57.796C57.1689 57.74 57.2889 57.648 57.3689 57.52C57.4569 57.392 57.5009 57.224 57.5009 57.016C57.5009 56.72 57.4329 56.332 57.2969 55.852C57.1609 55.372 57.0009 54.868 56.8169 54.34L58.5089 53.836C58.6369 54.18 58.7489 54.548 58.8449 54.94C58.9489 55.324 59.0289 55.7 59.0849 56.068C59.1489 56.428 59.1809 56.744 59.1809 57.016C59.1809 57.424 59.1169 57.788 58.9889 58.108C58.8609 58.42 58.6809 58.684 58.4489 58.9C58.2169 59.116 57.9409 59.28 57.6209 59.392C57.3009 59.504 56.9489 59.56 56.5649 59.56C56.1009 59.56 55.7209 59.516 55.4249 59.428C55.1289 59.332 54.9009 59.176 54.7409 58.96C54.5889 58.736 54.4889 58.432 54.4409 58.048H54.8489C54.6809 58.52 54.4929 58.864 54.2849 59.08C54.0769 59.288 53.8289 59.42 53.5409 59.476C53.2609 59.532 52.9089 59.56 52.4849 59.56C52.2209 59.56 51.9489 59.532 51.6689 59.476C51.3969 59.412 51.1529 59.268 50.9369 59.044C50.7209 58.82 50.5609 58.472 50.4569 58L51.1049 57.976C50.9369 58.448 50.7169 58.796 50.4449 59.02C50.1809 59.244 49.8769 59.392 49.5329 59.464C49.1889 59.528 48.8049 59.56 48.3809 59.56ZM60.4672 62.26L60.1192 60.58C60.6872 60.508 61.1832 60.42 61.6072 60.316C62.0312 60.22 62.3872 60.084 62.6752 59.908C62.9632 59.732 63.1792 59.492 63.3232 59.188C63.4672 58.876 63.5392 58.476 63.5392 57.988C63.5392 57.812 63.5232 57.636 63.4912 57.46C63.4592 57.276 63.4112 57.108 63.3472 56.956C63.2832 56.804 63.1992 56.68 63.0952 56.584C62.9992 56.488 62.8832 56.44 62.7472 56.44C62.6032 56.44 62.4752 56.492 62.3632 56.596C62.2512 56.692 62.1632 56.816 62.0992 56.968C62.0352 57.112 62.0032 57.26 62.0032 57.412C62.0032 57.524 62.0312 57.62 62.0872 57.7C62.1432 57.772 62.2272 57.828 62.3392 57.868C62.4512 57.9 62.5912 57.916 62.7592 57.916C62.9512 57.916 63.1472 57.896 63.3472 57.856C63.5552 57.808 63.7432 57.744 63.9112 57.664L63.9592 58.972C63.7672 59.124 63.5472 59.26 63.2992 59.38C63.0512 59.492 62.7512 59.548 62.3992 59.548C62.1112 59.548 61.8432 59.516 61.5952 59.452C61.3472 59.38 61.1272 59.272 60.9352 59.128C60.7512 58.984 60.6072 58.8 60.5032 58.576C60.3992 58.344 60.3472 58.068 60.3472 57.748C60.3472 57.356 60.4112 56.976 60.5392 56.608C60.6672 56.24 60.8432 55.912 61.0672 55.624C61.2992 55.328 61.5632 55.096 61.8592 54.928C62.1632 54.752 62.4832 54.664 62.8192 54.664C63.2192 54.664 63.5672 54.764 63.8632 54.964C64.1672 55.164 64.4192 55.428 64.6192 55.756C64.8192 56.076 64.9712 56.424 65.0752 56.8C65.1792 57.176 65.2312 57.536 65.2312 57.88C65.2312 58.784 65.0392 59.552 64.6552 60.184C64.2712 60.816 63.7232 61.304 63.0112 61.648C62.2992 62 61.4512 62.204 60.4672 62.26ZM65.9518 62.26L65.3398 60.724C66.0278 60.484 66.5838 60.22 67.0078 59.932C67.4398 59.644 67.7558 59.336 67.9558 59.008C68.1638 58.68 68.2678 58.34 68.2678 57.988C68.2678 57.764 68.2358 57.532 68.1718 57.292C68.1078 57.044 68.0158 56.784 67.8958 56.512C67.7838 56.24 67.6478 55.956 67.4878 55.66L69.0598 54.904C69.3398 55.44 69.5558 55.952 69.7078 56.44C69.8678 56.928 69.9478 57.384 69.9478 57.808C69.9478 58.2 69.8958 58.576 69.7918 58.936C69.6958 59.296 69.5438 59.632 69.3358 59.944C69.1358 60.264 68.8758 60.564 68.5558 60.844C68.2358 61.124 67.8598 61.38 67.4278 61.612C66.9958 61.852 66.5038 62.068 65.9518 62.26Z" fill="black"/>
<path d="M35.336 74.59C34.5293 74.59 33.8993 74.4167 33.446 74.07C32.9927 73.7233 32.766 73.24 32.766 72.62C32.766 72.2933 32.8293 72.0067 32.956 71.76C33.0893 71.5133 33.2693 71.31 33.496 71.15C33.7293 70.99 33.9927 70.89 34.286 70.85V70.95C34.026 70.8833 33.7927 70.77 33.586 70.61C33.3793 70.45 33.2193 70.2533 33.106 70.02C32.9927 69.7867 32.936 69.53 32.936 69.25C32.936 68.6567 33.1527 68.1933 33.586 67.86C34.0193 67.5267 34.6027 67.36 35.336 67.36C36.0693 67.36 36.6527 67.5267 37.086 67.86C37.5193 68.1933 37.736 68.6567 37.736 69.25C37.736 69.53 37.6793 69.79 37.566 70.03C37.4527 70.2633 37.2927 70.46 37.086 70.62C36.886 70.7733 36.6527 70.88 36.386 70.94V70.85C36.686 70.89 36.9493 70.99 37.176 71.15C37.4027 71.31 37.5793 71.5167 37.706 71.77C37.8393 72.0167 37.906 72.3 37.906 72.62C37.906 73.24 37.6793 73.7233 37.226 74.07C36.7727 74.4167 36.1427 74.59 35.336 74.59ZM35.336 73.74C35.856 73.74 36.2493 73.64 36.516 73.44C36.7827 73.2333 36.916 72.9367 36.916 72.55C36.916 72.1567 36.7827 71.86 36.516 71.66C36.2493 71.46 35.856 71.36 35.336 71.36C34.8227 71.36 34.4293 71.46 34.156 71.66C33.8893 71.86 33.756 72.1567 33.756 72.55C33.756 72.9367 33.8893 73.2333 34.156 73.44C34.4293 73.64 34.8227 73.74 35.336 73.74ZM35.336 70.5C35.7827 70.5 36.1293 70.4 36.376 70.2C36.6227 69.9933 36.746 69.71 36.746 69.35C36.746 68.9967 36.6227 68.72 36.376 68.52C36.1293 68.3133 35.7827 68.21 35.336 68.21C34.896 68.21 34.5493 68.3133 34.296 68.52C34.0493 68.72 33.926 68.9967 33.926 69.35C33.926 69.71 34.0493 69.9933 34.296 70.2C34.5493 70.4 34.896 70.5 35.336 70.5ZM41.3362 74.22C41.3362 74.0667 41.3496 73.8867 41.3762 73.68C41.4029 73.4733 41.4529 73.24 41.5262 72.98C41.5996 72.7133 41.7096 72.4167 41.8562 72.09L43.0862 72.52C43.0129 72.7267 42.9496 72.9167 42.8962 73.09C42.8429 73.2567 42.8029 73.4133 42.7762 73.56C42.7496 73.7 42.7362 73.84 42.7362 73.98C42.7362 74.28 42.8096 74.54 42.9562 74.76C43.1096 74.9867 43.3162 75.16 43.5762 75.28C43.8429 75.4067 44.1496 75.47 44.4962 75.47C45.0629 75.47 45.4962 75.3767 45.7962 75.19C46.1029 75.01 46.3096 74.7233 46.4162 74.33C46.5296 73.93 46.5729 73.4133 46.5462 72.78L46.3462 67.18H47.7562L47.9062 71.91C47.9196 72.2433 47.9662 72.5 48.0462 72.68C48.1262 72.86 48.2496 72.9833 48.4162 73.05C48.5896 73.1167 48.8129 73.15 49.0862 73.15C49.3396 73.15 49.5196 73.2167 49.6262 73.35C49.7329 73.4767 49.7862 73.6367 49.7862 73.83C49.7862 74.0367 49.7162 74.21 49.5762 74.35C49.4362 74.4833 49.2396 74.55 48.9862 74.55C48.8396 74.55 48.6829 74.53 48.5162 74.49C48.3496 74.45 48.1896 74.3867 48.0362 74.3C47.8829 74.2133 47.7496 74.1 47.6362 73.96C47.5229 73.8133 47.4462 73.6333 47.4062 73.42L47.9462 73.15C47.9462 73.8233 47.8662 74.3933 47.7062 74.86C47.5529 75.3267 47.3262 75.7033 47.0262 75.99C46.7329 76.2767 46.3696 76.4833 45.9362 76.61C45.5096 76.7433 45.0162 76.81 44.4562 76.81C44.0296 76.81 43.6262 76.7567 43.2462 76.65C42.8729 76.5433 42.5429 76.3833 42.2562 76.17C41.9696 75.9567 41.7429 75.6867 41.5762 75.36C41.4162 75.04 41.3362 74.66 41.3362 74.22ZM59.0164 74.55C58.6764 74.55 58.3497 74.52 58.0364 74.46C57.723 74.3933 57.4397 74.3067 57.1864 74.2C56.9397 74.0933 56.7364 73.9733 56.5764 73.84L57.4764 72.87C57.7164 72.97 57.963 73.0433 58.2164 73.09C58.4697 73.13 58.7697 73.15 59.1164 73.15C59.3697 73.15 59.5497 73.2167 59.6564 73.35C59.7697 73.4767 59.8264 73.6367 59.8264 73.83C59.8264 74.0367 59.7564 74.21 59.6164 74.35C59.4764 74.4833 59.2764 74.55 59.0164 74.55ZM54.1664 74.68C53.5464 74.68 53.0297 74.6533 52.6164 74.6C52.2097 74.5467 51.8797 74.47 51.6264 74.37C51.373 74.27 51.173 74.15 51.0264 74.01C50.8797 73.87 50.7597 73.7167 50.6664 73.55L50.9464 73.47C50.7797 73.79 50.5897 74.0267 50.3764 74.18C50.163 74.3333 49.9397 74.4333 49.7064 74.48C49.473 74.5267 49.233 74.55 48.9864 74.55L49.0864 73.15C49.293 73.15 49.4564 73.1167 49.5764 73.05C49.6964 72.9833 49.793 72.8733 49.8664 72.72C49.9464 72.5667 50.0197 72.3633 50.0864 72.11C50.153 71.8567 50.233 71.5467 50.3264 71.18L51.5964 71.49C51.5497 71.67 51.5097 71.8267 51.4764 71.96C51.4497 72.0933 51.4264 72.21 51.4064 72.31C51.393 72.4033 51.3864 72.48 51.3864 72.54C51.3864 72.6667 51.4164 72.78 51.4764 72.88C51.5364 72.9733 51.653 73.05 51.8264 73.11C51.9997 73.1633 52.253 73.2067 52.5864 73.24C52.9264 73.2667 53.3697 73.28 53.9164 73.28C54.4964 73.28 54.9797 73.26 55.3664 73.22C55.753 73.1733 56.0597 73.11 56.2864 73.03C56.5197 72.9433 56.6864 72.84 56.7864 72.72C56.8864 72.5933 56.9364 72.45 56.9364 72.29C56.9364 72.1633 56.9064 72.0467 56.8464 71.94C56.793 71.8267 56.703 71.7333 56.5764 71.66C56.4497 71.5867 56.2864 71.55 56.0864 71.55C55.8464 71.55 55.603 71.61 55.3564 71.73C55.1164 71.8433 54.8797 71.9967 54.6464 72.19C54.413 72.3767 54.1897 72.5867 53.9764 72.82C53.7697 73.0533 53.583 73.2867 53.4164 73.52L51.9164 73.35C52.1764 72.93 52.4697 72.5267 52.7964 72.14C53.123 71.7533 53.473 71.4133 53.8464 71.12C54.2197 70.82 54.6064 70.5833 55.0064 70.41C55.4064 70.2367 55.813 70.15 56.2264 70.15C56.673 70.15 57.053 70.2367 57.3664 70.41C57.6797 70.5833 57.9197 70.8233 58.0864 71.13C58.253 71.4367 58.3364 71.79 58.3364 72.19C58.3364 72.6767 58.1964 73.1067 57.9164 73.48C57.643 73.8533 57.1997 74.1467 56.5864 74.36C55.9797 74.5733 55.173 74.68 54.1664 74.68ZM59.0254 74.55L59.1254 73.16C59.6788 73.16 60.1221 73.1567 60.4554 73.15C60.7954 73.1433 61.0588 73.13 61.2454 73.11C61.4388 73.0833 61.5821 73.0533 61.6754 73.02C61.7688 72.98 61.8488 72.9367 61.9154 72.89C61.9954 72.83 62.0621 72.75 62.1154 72.65C62.1754 72.5433 62.2221 72.4033 62.2554 72.23C62.2888 72.0567 62.3054 71.84 62.3054 71.58C62.3054 71.2533 62.2754 70.98 62.2154 70.76C62.1621 70.5333 62.0821 70.3633 61.9754 70.25C61.8754 70.1367 61.7521 70.08 61.6054 70.08C61.4988 70.08 61.3988 70.1167 61.3054 70.19C61.2121 70.2567 61.1354 70.35 61.0754 70.47C61.0154 70.59 60.9854 70.7267 60.9854 70.88C60.9854 70.9667 61.0088 71.0433 61.0554 71.11C61.1021 71.1767 61.1754 71.2267 61.2754 71.26C61.3754 71.2933 61.5021 71.31 61.6554 71.31C61.8021 71.31 61.9554 71.2933 62.1154 71.26C62.2821 71.22 62.4354 71.1667 62.5754 71.1L62.6154 72.29C62.5088 72.3633 62.3854 72.43 62.2454 72.49C62.1054 72.55 61.9554 72.5967 61.7954 72.63C61.6421 72.6567 61.4854 72.67 61.3254 72.67C60.9721 72.67 60.6654 72.6233 60.4054 72.53C60.1521 72.43 59.9554 72.27 59.8154 72.05C59.6754 71.83 59.6054 71.53 59.6054 71.15C59.6054 70.8567 59.6554 70.5667 59.7554 70.28C59.8554 69.9867 59.9988 69.7233 60.1854 69.49C60.3721 69.25 60.5921 69.06 60.8454 68.92C61.0988 68.7733 61.3788 68.7 61.6854 68.7C62.1388 68.7 62.5121 68.8333 62.8054 69.1C63.1054 69.36 63.3254 69.7133 63.4654 70.16C63.6121 70.6 63.6854 71.09 63.6854 71.63C63.6854 72.1033 63.6154 72.5167 63.4754 72.87C63.3354 73.2167 63.1688 73.49 62.9754 73.69C62.8154 73.8567 62.6321 73.9967 62.4254 74.11C62.2188 74.2233 61.9654 74.3133 61.6654 74.38C61.3721 74.44 61.0088 74.4833 60.5754 74.51C60.1488 74.5367 59.6321 74.55 59.0254 74.55ZM61.6654 67.77C61.4588 67.77 61.2821 67.7 61.1354 67.56C60.9954 67.42 60.9254 67.2467 60.9254 67.04C60.9254 66.8333 60.9954 66.6567 61.1354 66.51C61.2821 66.3633 61.4588 66.29 61.6654 66.29C61.8654 66.29 62.0354 66.3633 62.1754 66.51C62.3221 66.6567 62.3954 66.8333 62.3954 67.04C62.3954 67.2467 62.3221 67.42 62.1754 67.56C62.0354 67.7 61.8654 67.77 61.6654 67.77Z" fill="#667085"/>
<defs>
<filter id="filter0_d_8339_572" x="0" y="0.5" width="96" height="85.8462" filterUnits="userSpaceOnUse" color-interpolation-filters="sRGB">
<feFlood flood-opacity="0" result="BackgroundImageFix"/>
<feColorMatrix in="SourceAlpha" type="matrix" values="0 0 0 0 0 0 0 0 0 0 0 0 0 0 0 0 0 0 127 0" result="hardAlpha"/>
<feOffset dy="4"/>
<feGaussianBlur stdDeviation="2"/>
<feComposite in2="hardAlpha" operator="out"/>
<feColorMatrix type="matrix" values="0 0 0 0 0 0 0 0 0 0 0 0 0 0 0 0 0 0 0.25 0"/>
<feBlend mode="normal" in2="BackgroundImageFix" result="effect1_dropShadow_8339_572"/>
<feBlend mode="normal" in="SourceGraphic" in2="effect1_dropShadow_8339_572" result="shape"/>
</filter>
<clipPath id="clip0_8339_572">
<rect width="30" height="30" fill="white" transform="translate(33.2051 0.5)"/>
</clipPath>
</defs>
</svg>
