<svg width="96" height="86" viewBox="0 0 96 86" fill="none" xmlns="http://www.w3.org/2000/svg">
<g filter="url(#filter0_d_8310_982)">
<path d="M5.37285 42.5185C4.62083 41.2089 4.24484 40.5536 4.09767 39.8574C3.96744 39.2412 3.96744 38.6048 4.09767 37.9886C4.24484 37.2924 4.62083 36.6371 5.37285 35.3274L23.5901 3.59555C24.3421 2.28569 24.7181 1.63076 25.2442 1.15444C25.7096 0.732998 26.2579 0.414612 26.8535 0.220002C27.5267 -2.00917e-07 28.2787 0 29.7827 0H66.2171C67.7214 0 68.4731 -2.00917e-07 69.1466 0.220002C69.7419 0.414612 70.2903 0.732998 70.756 1.15444C71.282 1.63076 71.6578 2.28569 72.41 3.59555L90.6271 35.3274C91.3792 36.6371 91.7551 37.2924 91.9021 37.9886C92.0326 38.6048 92.0326 39.2412 91.9021 39.8574C91.7551 40.5536 91.3792 41.2089 90.6271 42.5185L72.41 74.2506C71.6578 75.5603 71.282 76.2151 70.756 76.6915C70.2903 77.1131 69.7419 77.4313 69.1466 77.6259C68.4731 77.8462 67.7214 77.8462 66.2171 77.8462H29.7827C28.2787 77.8462 27.5267 77.8462 26.8535 77.6259C26.2579 77.4313 25.7096 77.1131 25.2442 76.6915C24.7181 76.2151 24.3421 75.5603 23.5901 74.2506L5.37285 42.5185Z" fill="white"/>
</g>
<path d="M46.5432 36.1574L36.0476 25.6618C35.1147 24.7288 35.1147 23.2711 36.0476 22.3382L46.5432 11.8425C47.4762 10.9096 48.9339 10.9096 49.8669 11.8425L60.3625 22.3382C61.2954 23.2711 61.2954 24.7288 60.3625 25.6618L49.8669 36.1574C48.9339 37.0903 47.4179 37.0903 46.5432 36.1574Z" fill="#F2BB41"/>
<path d="M48.1754 25.1948C48.8195 25.1948 49.3416 24.6727 49.3416 24.0287C49.3416 23.3846 48.8195 22.8625 48.1754 22.8625C47.5314 22.8625 47.0093 23.3846 47.0093 24.0287C47.0093 24.6727 47.5314 25.1948 48.1754 25.1948Z" fill="#E08838"/>
<path d="M52.84 25.1948C53.484 25.1948 54.0061 24.6727 54.0061 24.0287C54.0061 23.3846 53.484 22.8625 52.84 22.8625C52.1959 22.8625 51.6738 23.3846 51.6738 24.0287C51.6738 24.6727 52.1959 25.1948 52.84 25.1948Z" fill="#E08838"/>
<path d="M43.5109 25.1948C44.1549 25.1948 44.677 24.6727 44.677 24.0287C44.677 23.3846 44.1549 22.8625 43.5109 22.8625C42.8668 22.8625 42.3447 23.3846 42.3447 24.0287C42.3447 24.6727 42.8668 25.1948 43.5109 25.1948Z" fill="#E08838"/>
<path d="M25.8728 52V50.956H27.7928V44.596H28.4168L26.2928 45.916L25.7888 44.992L28.1528 43.54H29.0288V50.956H30.8288V52H25.8728ZM39.9164 52.252L40.2284 50.572C40.8044 50.572 41.3564 50.544 41.8844 50.488C42.4204 50.432 42.9284 50.32 43.4084 50.152C43.8964 49.984 44.3524 49.736 44.7764 49.408C45.2004 49.08 45.5844 48.64 45.9284 48.088L47.2724 48.7C47.2244 48.852 47.1844 49 47.1524 49.144C47.1204 49.28 47.1044 49.392 47.1044 49.48C47.1044 49.664 47.1484 49.824 47.2364 49.96C47.3324 50.096 47.4924 50.2 47.7164 50.272C47.9404 50.344 48.2484 50.38 48.6404 50.38C48.9444 50.38 49.1604 50.46 49.2884 50.62C49.4164 50.772 49.4804 50.964 49.4804 51.196C49.4804 51.444 49.3964 51.652 49.2284 51.82C49.0684 51.98 48.8324 52.06 48.5204 52.06C47.9684 52.06 47.4884 51.984 47.0804 51.832C46.6804 51.68 46.3644 51.468 46.1324 51.196C45.9084 50.916 45.7764 50.596 45.7364 50.236L46.2164 50.284C45.9284 50.628 45.5684 50.924 45.1364 51.172C44.7124 51.42 44.2284 51.624 43.6844 51.784C43.1484 51.944 42.5604 52.06 41.9204 52.132C41.2884 52.212 40.6204 52.252 39.9164 52.252ZM39.9044 52.252C39.0404 52.252 38.3084 52.184 37.7084 52.048C37.1164 51.92 36.6324 51.736 36.2564 51.496C35.8884 51.248 35.6204 50.96 35.4524 50.632C35.2844 50.304 35.2004 49.944 35.2004 49.552C35.2004 49.296 35.2204 49.04 35.2604 48.784C35.3084 48.52 35.3644 48.264 35.4284 48.016C35.5004 47.768 35.5644 47.544 35.6204 47.344L37.1204 47.692C37.0884 47.836 37.0524 47.992 37.0124 48.16C36.9724 48.328 36.9404 48.492 36.9164 48.652C36.8924 48.804 36.8804 48.944 36.8804 49.072C36.8804 49.368 36.9844 49.632 37.1924 49.864C37.4084 50.088 37.7604 50.264 38.2484 50.392C38.7364 50.512 39.3924 50.572 40.2164 50.572L40.4564 51.868L39.9044 52.252ZM42.1364 46.768C41.9044 46.768 41.7044 46.688 41.5364 46.528C41.3764 46.36 41.2964 46.164 41.2964 45.94C41.2964 45.708 41.3764 45.508 41.5364 45.34C41.7044 45.172 41.9044 45.088 42.1364 45.088C42.3604 45.088 42.5524 45.172 42.7124 45.34C42.8724 45.508 42.9524 45.708 42.9524 45.94C42.9524 46.164 42.8724 46.36 42.7124 46.528C42.5524 46.688 42.3604 46.768 42.1364 46.768ZM40.0604 46.756C39.8284 46.756 39.6284 46.676 39.4604 46.516C39.3004 46.348 39.2204 46.152 39.2204 45.928C39.2204 45.696 39.3004 45.496 39.4604 45.328C39.6284 45.16 39.8284 45.076 40.0604 45.076C40.2844 45.076 40.4764 45.16 40.6364 45.328C40.7964 45.496 40.8764 45.696 40.8764 45.928C40.8764 46.152 40.7964 46.348 40.6364 46.516C40.4764 46.676 40.2844 46.756 40.0604 46.756ZM48.5156 52.06L48.6356 50.38C49.1156 50.38 49.4836 50.356 49.7396 50.308C49.9956 50.26 50.1716 50.172 50.2676 50.044C50.3716 49.908 50.4236 49.716 50.4236 49.468C50.4236 49.244 50.3916 48.976 50.3276 48.664C50.2716 48.352 50.1956 48.028 50.0996 47.692C50.0116 47.356 49.9156 47.048 49.8116 46.768L51.4676 46.312C51.5716 46.584 51.6716 46.9 51.7676 47.26C51.8636 47.62 51.9436 47.992 52.0076 48.376C52.0716 48.752 52.1036 49.116 52.1036 49.468C52.1036 50.012 52.0156 50.456 51.8396 50.8C51.6636 51.136 51.4156 51.396 51.0956 51.58C50.7836 51.764 50.4076 51.892 49.9676 51.964C49.5276 52.028 49.0436 52.06 48.5156 52.06ZM51.4796 54.844C51.2476 54.844 51.0476 54.76 50.8796 54.592C50.7196 54.432 50.6396 54.24 50.6396 54.016C50.6396 53.784 50.7196 53.584 50.8796 53.416C51.0476 53.248 51.2476 53.164 51.4796 53.164C51.7036 53.164 51.8956 53.248 52.0556 53.416C52.2156 53.584 52.2956 53.784 52.2956 54.016C52.2956 54.24 52.2156 54.432 52.0556 54.592C51.8956 54.76 51.7036 54.844 51.4796 54.844ZM49.4036 54.844C49.1716 54.844 48.9716 54.76 48.8036 54.592C48.6436 54.432 48.5636 54.24 48.5636 54.016C48.5636 53.784 48.6436 53.584 48.8036 53.416C48.9716 53.248 49.1716 53.164 49.4036 53.164C49.6276 53.164 49.8196 53.248 49.9796 53.416C50.1396 53.584 50.2196 53.784 50.2196 54.016C50.2196 54.24 50.1396 54.432 49.9796 54.592C49.8196 54.76 49.6276 54.844 49.4036 54.844ZM53.5121 54.76L53.1641 53.08C53.7321 53.008 54.2281 52.92 54.6521 52.816C55.0761 52.72 55.4321 52.584 55.7201 52.408C56.0081 52.232 56.2241 51.992 56.3681 51.688C56.5121 51.376 56.5841 50.976 56.5841 50.488C56.5841 50.016 56.5121 49.64 56.3681 49.36C56.2241 49.08 56.0321 48.94 55.7921 48.94C55.6241 48.94 55.4841 49 55.3721 49.12C55.2601 49.232 55.1761 49.368 55.1201 49.528C55.0721 49.68 55.0481 49.816 55.0481 49.936C55.0481 50.008 55.0681 50.084 55.1081 50.164C55.1481 50.244 55.2361 50.312 55.3721 50.368C55.5081 50.424 55.7201 50.456 56.0081 50.464C56.3041 50.472 56.7041 50.444 57.2081 50.38H59.2241C59.5281 50.38 59.7441 50.46 59.8721 50.62C60.0081 50.772 60.0761 50.964 60.0761 51.196C60.0761 51.444 59.9921 51.652 59.8241 51.82C59.6561 51.98 59.4161 52.06 59.1041 52.06H55.8041C55.3001 52.06 54.8681 52 54.5081 51.88C54.1481 51.76 53.8721 51.568 53.6801 51.304C53.4881 51.032 53.3921 50.672 53.3921 50.224C53.3921 49.864 53.4521 49.504 53.5721 49.144C53.7001 48.784 53.8761 48.456 54.1001 48.16C54.3241 47.856 54.5841 47.616 54.8801 47.44C55.1841 47.256 55.5121 47.164 55.8641 47.164C56.3441 47.164 56.7641 47.312 57.1241 47.608C57.4841 47.904 57.7641 48.296 57.9641 48.784C58.1721 49.272 58.2761 49.804 58.2761 50.38C58.2761 51.284 58.0841 52.052 57.7001 52.684C57.3161 53.316 56.7681 53.804 56.0561 54.148C55.3441 54.5 54.4961 54.704 53.5121 54.76ZM59.1211 52.06L59.2411 50.38C59.6091 50.38 59.8731 50.344 60.0331 50.272C60.1931 50.192 60.2891 50.048 60.3211 49.84C60.3531 49.624 60.3611 49.312 60.3451 48.904L60.1291 43.216H61.8211L62.0611 49.024C62.0771 49.488 62.0571 49.908 62.0011 50.284C61.9531 50.652 61.8291 50.968 61.6291 51.232C61.4371 51.496 61.1371 51.7 60.7291 51.844C60.3291 51.988 59.7931 52.06 59.1211 52.06ZM63.3676 54.76L63.0196 53.08C63.5876 53.008 64.0836 52.92 64.5076 52.816C64.9316 52.72 65.2876 52.584 65.5756 52.408C65.8636 52.232 66.0796 51.992 66.2236 51.688C66.3676 51.376 66.4396 50.976 66.4396 50.488C66.4396 50.312 66.4236 50.136 66.3916 49.96C66.3596 49.776 66.3116 49.608 66.2476 49.456C66.1836 49.304 66.0996 49.18 65.9956 49.084C65.8996 48.988 65.7836 48.94 65.6476 48.94C65.5036 48.94 65.3756 48.992 65.2636 49.096C65.1516 49.192 65.0636 49.316 64.9996 49.468C64.9356 49.612 64.9036 49.76 64.9036 49.912C64.9036 50.024 64.9316 50.12 64.9876 50.2C65.0436 50.272 65.1276 50.328 65.2396 50.368C65.3516 50.4 65.4916 50.416 65.6596 50.416C65.8516 50.416 66.0476 50.396 66.2476 50.356C66.4556 50.308 66.6436 50.244 66.8116 50.164L66.8596 51.472C66.6676 51.624 66.4476 51.76 66.1996 51.88C65.9516 51.992 65.6516 52.048 65.2996 52.048C65.0116 52.048 64.7436 52.016 64.4956 51.952C64.2476 51.88 64.0276 51.772 63.8356 51.628C63.6516 51.484 63.5076 51.3 63.4036 51.076C63.2996 50.844 63.2476 50.568 63.2476 50.248C63.2476 49.856 63.3116 49.476 63.4396 49.108C63.5676 48.74 63.7436 48.412 63.9676 48.124C64.1996 47.828 64.4636 47.596 64.7596 47.428C65.0636 47.252 65.3836 47.164 65.7196 47.164C66.1196 47.164 66.4676 47.264 66.7636 47.464C67.0676 47.664 67.3196 47.928 67.5196 48.256C67.7196 48.576 67.8716 48.924 67.9756 49.3C68.0796 49.676 68.1316 50.036 68.1316 50.38C68.1316 51.284 67.9396 52.052 67.5556 52.684C67.1716 53.316 66.6236 53.804 65.9116 54.148C65.1996 54.5 64.3516 54.704 63.3676 54.76ZM69.6202 52L69.3682 43.216H71.0482L71.3002 52H69.6202Z" fill="black"/>
<path d="M35.416 67.09C35.1093 67.09 34.8093 67.06 34.516 67C34.2293 66.9333 33.9593 66.8367 33.706 66.71C33.4593 66.5833 33.2393 66.4333 33.046 66.26L33.426 65.44C33.7327 65.6933 34.0493 65.88 34.376 66C34.7027 66.12 35.046 66.18 35.406 66.18C35.866 66.18 36.226 66.06 36.486 65.82C36.746 65.58 36.876 65.2533 36.876 64.84C36.876 64.4133 36.7527 64.0733 36.506 63.82C36.2593 63.5667 35.9193 63.44 35.486 63.44C35.186 63.44 34.916 63.5 34.676 63.62C34.4427 63.7333 34.226 63.92 34.026 64.18H33.256V59.95H37.506V60.85H34.256V63.33H34.086C34.2527 63.09 34.476 62.9 34.756 62.76C35.0427 62.62 35.3593 62.55 35.706 62.55C36.1527 62.55 36.5393 62.6467 36.866 62.84C37.1927 63.0267 37.446 63.2867 37.626 63.62C37.806 63.9533 37.896 64.3433 37.896 64.79C37.896 65.25 37.796 65.6533 37.596 66C37.396 66.3467 37.1093 66.6167 36.736 66.81C36.3627 66.9967 35.9227 67.09 35.416 67.09ZM41.3362 66.72C41.3362 66.5667 41.3496 66.3867 41.3762 66.18C41.4029 65.9733 41.4529 65.74 41.5262 65.48C41.5996 65.2133 41.7096 64.9167 41.8562 64.59L43.0862 65.02C43.0129 65.2267 42.9496 65.4167 42.8962 65.59C42.8429 65.7567 42.8029 65.9133 42.7762 66.06C42.7496 66.2 42.7362 66.34 42.7362 66.48C42.7362 66.78 42.8096 67.04 42.9562 67.26C43.1096 67.4867 43.3162 67.66 43.5762 67.78C43.8429 67.9067 44.1496 67.97 44.4962 67.97C45.0629 67.97 45.4962 67.8767 45.7962 67.69C46.1029 67.51 46.3096 67.2233 46.4162 66.83C46.5296 66.43 46.5729 65.9133 46.5462 65.28L46.3462 59.68H47.7562L47.9062 64.41C47.9196 64.7433 47.9662 65 48.0462 65.18C48.1262 65.36 48.2496 65.4833 48.4162 65.55C48.5896 65.6167 48.8129 65.65 49.0862 65.65C49.3396 65.65 49.5196 65.7167 49.6262 65.85C49.7329 65.9767 49.7862 66.1367 49.7862 66.33C49.7862 66.5367 49.7162 66.71 49.5762 66.85C49.4362 66.9833 49.2396 67.05 48.9862 67.05C48.8396 67.05 48.6829 67.03 48.5162 66.99C48.3496 66.95 48.1896 66.8867 48.0362 66.8C47.8829 66.7133 47.7496 66.6 47.6362 66.46C47.5229 66.3133 47.4462 66.1333 47.4062 65.92L47.9462 65.65C47.9462 66.3233 47.8662 66.8933 47.7062 67.36C47.5529 67.8267 47.3262 68.2033 47.0262 68.49C46.7329 68.7767 46.3696 68.9833 45.9362 69.11C45.5096 69.2433 45.0162 69.31 44.4562 69.31C44.0296 69.31 43.6262 69.2567 43.2462 69.15C42.8729 69.0433 42.5429 68.8833 42.2562 68.67C41.9696 68.4567 41.7429 68.1867 41.5762 67.86C41.4162 67.54 41.3362 67.16 41.3362 66.72ZM59.0164 67.05C58.6764 67.05 58.3497 67.02 58.0364 66.96C57.723 66.8933 57.4397 66.8067 57.1864 66.7C56.9397 66.5933 56.7364 66.4733 56.5764 66.34L57.4764 65.37C57.7164 65.47 57.963 65.5433 58.2164 65.59C58.4697 65.63 58.7697 65.65 59.1164 65.65C59.3697 65.65 59.5497 65.7167 59.6564 65.85C59.7697 65.9767 59.8264 66.1367 59.8264 66.33C59.8264 66.5367 59.7564 66.71 59.6164 66.85C59.4764 66.9833 59.2764 67.05 59.0164 67.05ZM54.1664 67.18C53.5464 67.18 53.0297 67.1533 52.6164 67.1C52.2097 67.0467 51.8797 66.97 51.6264 66.87C51.373 66.77 51.173 66.65 51.0264 66.51C50.8797 66.37 50.7597 66.2167 50.6664 66.05L50.9464 65.97C50.7797 66.29 50.5897 66.5267 50.3764 66.68C50.163 66.8333 49.9397 66.9333 49.7064 66.98C49.473 67.0267 49.233 67.05 48.9864 67.05L49.0864 65.65C49.293 65.65 49.4564 65.6167 49.5764 65.55C49.6964 65.4833 49.793 65.3733 49.8664 65.22C49.9464 65.0667 50.0197 64.8633 50.0864 64.61C50.153 64.3567 50.233 64.0467 50.3264 63.68L51.5964 63.99C51.5497 64.17 51.5097 64.3267 51.4764 64.46C51.4497 64.5933 51.4264 64.71 51.4064 64.81C51.393 64.9033 51.3864 64.98 51.3864 65.04C51.3864 65.1667 51.4164 65.28 51.4764 65.38C51.5364 65.4733 51.653 65.55 51.8264 65.61C51.9997 65.6633 52.253 65.7067 52.5864 65.74C52.9264 65.7667 53.3697 65.78 53.9164 65.78C54.4964 65.78 54.9797 65.76 55.3664 65.72C55.753 65.6733 56.0597 65.61 56.2864 65.53C56.5197 65.4433 56.6864 65.34 56.7864 65.22C56.8864 65.0933 56.9364 64.95 56.9364 64.79C56.9364 64.6633 56.9064 64.5467 56.8464 64.44C56.793 64.3267 56.703 64.2333 56.5764 64.16C56.4497 64.0867 56.2864 64.05 56.0864 64.05C55.8464 64.05 55.603 64.11 55.3564 64.23C55.1164 64.3433 54.8797 64.4967 54.6464 64.69C54.413 64.8767 54.1897 65.0867 53.9764 65.32C53.7697 65.5533 53.583 65.7867 53.4164 66.02L51.9164 65.85C52.1764 65.43 52.4697 65.0267 52.7964 64.64C53.123 64.2533 53.473 63.9133 53.8464 63.62C54.2197 63.32 54.6064 63.0833 55.0064 62.91C55.4064 62.7367 55.813 62.65 56.2264 62.65C56.673 62.65 57.053 62.7367 57.3664 62.91C57.6797 63.0833 57.9197 63.3233 58.0864 63.63C58.253 63.9367 58.3364 64.29 58.3364 64.69C58.3364 65.1767 58.1964 65.6067 57.9164 65.98C57.643 66.3533 57.1997 66.6467 56.5864 66.86C55.9797 67.0733 55.173 67.18 54.1664 67.18ZM59.0254 67.05L59.1254 65.66C59.6788 65.66 60.1221 65.6567 60.4554 65.65C60.7954 65.6433 61.0588 65.63 61.2454 65.61C61.4388 65.5833 61.5821 65.5533 61.6754 65.52C61.7688 65.48 61.8488 65.4367 61.9154 65.39C61.9954 65.33 62.0621 65.25 62.1154 65.15C62.1754 65.0433 62.2221 64.9033 62.2554 64.73C62.2888 64.5567 62.3054 64.34 62.3054 64.08C62.3054 63.7533 62.2754 63.48 62.2154 63.26C62.1621 63.0333 62.0821 62.8633 61.9754 62.75C61.8754 62.6367 61.7521 62.58 61.6054 62.58C61.4988 62.58 61.3988 62.6167 61.3054 62.69C61.2121 62.7567 61.1354 62.85 61.0754 62.97C61.0154 63.09 60.9854 63.2267 60.9854 63.38C60.9854 63.4667 61.0088 63.5433 61.0554 63.61C61.1021 63.6767 61.1754 63.7267 61.2754 63.76C61.3754 63.7933 61.5021 63.81 61.6554 63.81C61.8021 63.81 61.9554 63.7933 62.1154 63.76C62.2821 63.72 62.4354 63.6667 62.5754 63.6L62.6154 64.79C62.5088 64.8633 62.3854 64.93 62.2454 64.99C62.1054 65.05 61.9554 65.0967 61.7954 65.13C61.6421 65.1567 61.4854 65.17 61.3254 65.17C60.9721 65.17 60.6654 65.1233 60.4054 65.03C60.1521 64.93 59.9554 64.77 59.8154 64.55C59.6754 64.33 59.6054 64.03 59.6054 63.65C59.6054 63.3567 59.6554 63.0667 59.7554 62.78C59.8554 62.4867 59.9988 62.2233 60.1854 61.99C60.3721 61.75 60.5921 61.56 60.8454 61.42C61.0988 61.2733 61.3788 61.2 61.6854 61.2C62.1388 61.2 62.5121 61.3333 62.8054 61.6C63.1054 61.86 63.3254 62.2133 63.4654 62.66C63.6121 63.1 63.6854 63.59 63.6854 64.13C63.6854 64.6033 63.6154 65.0167 63.4754 65.37C63.3354 65.7167 63.1688 65.99 62.9754 66.19C62.8154 66.3567 62.6321 66.4967 62.4254 66.61C62.2188 66.7233 61.9654 66.8133 61.6654 66.88C61.3721 66.94 61.0088 66.9833 60.5754 67.01C60.1488 67.0367 59.6321 67.05 59.0254 67.05ZM61.6654 60.27C61.4588 60.27 61.2821 60.2 61.1354 60.06C60.9954 59.92 60.9254 59.7467 60.9254 59.54C60.9254 59.3333 60.9954 59.1567 61.1354 59.01C61.2821 58.8633 61.4588 58.79 61.6654 58.79C61.8654 58.79 62.0354 58.8633 62.1754 59.01C62.3221 59.1567 62.3954 59.3333 62.3954 59.54C62.3954 59.7467 62.3221 59.92 62.1754 60.06C62.0354 60.2 61.8654 60.27 61.6654 60.27Z" fill="#667085"/>
<defs>
<filter id="filter0_d_8310_982" x="0" y="0" width="96" height="85.8462" filterUnits="userSpaceOnUse" color-interpolation-filters="sRGB">
<feFlood flood-opacity="0" result="BackgroundImageFix"/>
<feColorMatrix in="SourceAlpha" type="matrix" values="0 0 0 0 0 0 0 0 0 0 0 0 0 0 0 0 0 0 127 0" result="hardAlpha"/>
<feOffset dy="4"/>
<feGaussianBlur stdDeviation="2"/>
<feComposite in2="hardAlpha" operator="out"/>
<feColorMatrix type="matrix" values="0 0 0 0 0 0 0 0 0 0 0 0 0 0 0 0 0 0 0.25 0"/>
<feBlend mode="normal" in2="BackgroundImageFix" result="effect1_dropShadow_8310_982"/>
<feBlend mode="normal" in="SourceGraphic" in2="effect1_dropShadow_8310_982" result="shape"/>
</filter>
</defs>
</svg>
