<svg width="102" height="92" viewBox="0 0 102 92" fill="none" xmlns="http://www.w3.org/2000/svg">
<g filter="url(#filter0_d_8310_900)">
<path d="M5.49766 45.8797C4.67727 44.4665 4.2671 43.7594 4.10655 43.0082C3.96448 42.3433 3.96448 41.6565 4.10655 40.9916C4.2671 40.2404 4.67727 39.5333 5.49766 38.1201L25.371 3.87978C26.1914 2.46638 26.6016 1.75968 27.1754 1.2457C27.6832 0.790942 28.2813 0.447387 28.9311 0.237394C29.6655 -2.168e-07 30.4859 0 32.1266 0H71.8732C73.5143 0 74.3343 -2.168e-07 75.069 0.237394C75.7185 0.447387 76.3167 0.790942 76.8247 1.2457C77.3985 1.75968 77.8085 2.46638 78.6291 3.87978L98.5023 38.1201C99.3228 39.5333 99.7328 40.2404 99.8932 40.9916C100.036 41.6565 100.036 42.3433 99.8932 43.0082C99.7328 43.7594 99.3228 44.4665 98.5023 45.8797L78.6291 80.1202C77.8085 81.5334 77.3985 82.24 76.8247 82.7541C76.3167 83.209 75.7185 83.5524 75.069 83.7624C74.3343 84 73.5143 84 71.8732 84H32.1266C30.4859 84 29.6655 84 28.9311 83.7624C28.2813 83.5524 27.6832 83.209 27.1754 82.7541C26.6016 82.24 26.1914 81.5334 25.371 80.1202L5.49766 45.8797Z" fill="white"/>
</g>
<g clip-path="url(#clip0_8310_900)">
<path d="M56.2525 23.2959L56.5876 22.6493C56.694 22.4416 56.7931 22.2375 56.8862 22.0293C57.0689 21.6147 57.2182 21.1937 57.3123 20.7777C57.5036 19.938 57.404 19.1678 56.8935 18.5975C56.3831 18.0157 55.5402 17.6253 54.669 17.3532C52.8142 16.8194 50.9176 16.2254 49.0825 15.5287C48.6218 15.3538 48.1634 15.1721 47.7067 14.9785C47.257 14.7895 46.7694 14.5685 46.3232 14.2694C45.8822 13.9712 45.4197 13.574 45.1809 12.9649C45.0626 12.6654 45.0315 12.3266 45.0713 12.0188C45.1115 11.7102 45.2119 11.4293 45.3366 11.1791C45.596 10.6663 45.9142 10.2965 46.2009 9.89969L47.0936 8.73537L48.8977 6.43135L51.9692 2.56715L49.6277 2.5C49.6277 2.5 44.2941 7.40482 41.9134 10.5001C39.8436 13.1904 40.9741 15.5675 44.7183 17.1664C47.8784 18.5166 50.8363 19.5617 50.8363 19.5617C51.3459 19.8256 51.7084 20.2882 51.8289 20.8279C51.9495 21.3681 51.8162 21.9302 51.4632 22.3689L43.3156 32.5H51.4445L54.9019 25.8866L56.2525 23.2959Z" fill="#F2BB41"/>
<path d="M64.0727 17.7944C62.938 15.8963 60.9957 14.5576 58.7455 14.1224L50.7737 12.4417C50.4413 12.3778 50.1619 12.1668 50.0208 11.8737C49.8797 11.581 49.8948 11.2417 50.0605 10.9609L55.3599 2.66403L52.7787 2.59009L49.5154 6.90681L47.7721 9.24821L46.9151 10.4249C46.6393 10.8208 46.3352 11.2121 46.1676 11.5783C45.9891 11.9568 45.9443 12.3175 46.0731 12.617C46.1973 12.9239 46.5009 13.2092 46.8671 13.4385C47.2379 13.6732 47.6457 13.8498 48.0977 14.027C48.5424 14.2028 48.9936 14.3695 49.4479 14.5293C51.2734 15.1708 53.1121 15.6986 55.0143 16.1968C55.9896 16.4872 57.022 16.8762 57.8443 17.7438C58.2452 18.178 58.5443 18.7483 58.6579 19.3386C58.7748 19.9295 58.7365 20.5112 58.6342 21.0491C58.5265 21.5865 58.358 22.0915 58.1603 22.5727C58.0603 22.812 57.9525 23.049 57.842 23.2773L57.5206 23.9361L56.2325 26.5611L53.3097 32.5001H61.5495L64.6662 24.0247C65.4238 21.9636 65.2073 19.6924 64.0727 17.7944Z" fill="#F2BB41"/>
</g>
<path d="M26.7135 48.26L26.1015 46.724C26.7895 46.484 27.3455 46.22 27.7695 45.932C28.2015 45.644 28.5175 45.336 28.7175 45.008C28.9255 44.68 29.0295 44.34 29.0295 43.988C29.0295 43.764 28.9975 43.532 28.9335 43.292C28.8695 43.044 28.7775 42.784 28.6575 42.512C28.5455 42.24 28.4095 41.956 28.2495 41.66L29.8215 40.904C30.1015 41.44 30.3175 41.952 30.4695 42.44C30.6295 42.928 30.7095 43.384 30.7095 43.808C30.7095 44.2 30.6575 44.576 30.5535 44.936C30.4575 45.296 30.3055 45.632 30.0975 45.944C29.8975 46.264 29.6375 46.564 29.3175 46.844C28.9975 47.124 28.6215 47.38 28.1895 47.612C27.7575 47.852 27.2655 48.068 26.7135 48.26ZM29.3655 39.68C29.1175 39.68 28.9055 39.596 28.7295 39.428C28.5615 39.26 28.4775 39.052 28.4775 38.804C28.4775 38.556 28.5615 38.344 28.7295 38.168C28.9055 37.992 29.1175 37.904 29.3655 37.904C29.6055 37.904 29.8095 37.992 29.9775 38.168C30.1535 38.344 30.2415 38.556 30.2415 38.804C30.2415 39.052 30.1535 39.26 29.9775 39.428C29.8095 39.596 29.6055 39.68 29.3655 39.68ZM32.3916 45.5L32.1396 36.716H33.8196L34.0716 45.5H32.3916ZM40.5412 45.536C40.0932 45.536 39.6892 45.46 39.3292 45.308C38.9772 45.148 38.6972 44.912 38.4892 44.6C38.2892 44.28 38.1892 43.884 38.1892 43.412C38.1892 42.94 38.3492 42.416 38.6692 41.84C38.9892 41.256 39.5252 40.672 40.2772 40.088L40.1572 41.192L39.0772 40.352L40.2052 38.972C40.8132 39.436 41.3332 39.888 41.7652 40.328C42.2052 40.76 42.5412 41.204 42.7732 41.66C43.0052 42.116 43.1212 42.6 43.1212 43.112C43.1212 43.36 43.0812 43.628 43.0012 43.916C42.9212 44.196 42.7852 44.46 42.5932 44.708C42.4012 44.948 42.1372 45.148 41.8012 45.308C41.4732 45.46 41.0532 45.536 40.5412 45.536ZM40.6732 43.88C40.8732 43.88 41.0332 43.84 41.1532 43.76C41.2812 43.68 41.3772 43.576 41.4412 43.448C41.5052 43.32 41.5372 43.184 41.5372 43.04C41.5372 42.896 41.5052 42.74 41.4412 42.572C41.3772 42.404 41.2532 42.216 41.0692 42.008C40.8852 41.8 40.6132 41.56 40.2532 41.288L41.1652 41.168C40.8372 41.392 40.5732 41.62 40.3732 41.852C40.1732 42.084 40.0292 42.308 39.9412 42.524C39.8612 42.732 39.8212 42.924 39.8212 43.1C39.8212 43.356 39.9052 43.552 40.0732 43.688C40.2412 43.816 40.4412 43.88 40.6732 43.88ZM43.9337 45.02L44.5217 43.496C44.8177 43.624 45.1017 43.72 45.3737 43.784C45.6457 43.848 45.9177 43.88 46.1897 43.88C46.4697 43.88 46.7017 43.856 46.8857 43.808C47.0777 43.752 47.2217 43.672 47.3177 43.568C47.4137 43.464 47.4617 43.34 47.4617 43.196C47.4617 43.06 47.4177 42.872 47.3297 42.632C47.2497 42.392 47.1017 42.08 46.8857 41.696C46.6697 41.304 46.3537 40.82 45.9377 40.244L47.3657 39.296C47.7497 39.84 48.0817 40.372 48.3617 40.892C48.6417 41.404 48.8577 41.884 49.0097 42.332C49.1697 42.772 49.2497 43.16 49.2497 43.496C49.2497 43.912 49.1377 44.276 48.9137 44.588C48.6977 44.892 48.3737 45.132 47.9417 45.308C47.5177 45.484 46.9937 45.572 46.3697 45.572C46.1377 45.572 45.8777 45.552 45.5897 45.512C45.3017 45.472 45.0097 45.412 44.7137 45.332C44.4257 45.252 44.1657 45.148 43.9337 45.02ZM53.5169 45.56C52.7729 45.56 52.1969 45.484 51.7889 45.332C51.3889 45.18 51.1089 44.944 50.9489 44.624C50.7889 44.296 50.6969 43.884 50.6729 43.388L50.4209 36.716H52.1009L52.3529 42.584C52.3689 42.952 52.4089 43.228 52.4729 43.412C52.5369 43.596 52.6569 43.72 52.8329 43.784C53.0169 43.848 53.2849 43.88 53.6369 43.88C53.9409 43.88 54.1569 43.96 54.2849 44.12C54.4209 44.272 54.4889 44.464 54.4889 44.696C54.4889 44.944 54.4049 45.152 54.2369 45.32C54.0689 45.48 53.8289 45.56 53.5169 45.56ZM53.5332 45.56L53.6532 43.892C53.9652 43.9 54.2532 43.896 54.5172 43.88C54.7812 43.864 55.0172 43.84 55.2252 43.808C55.4412 43.776 55.6292 43.74 55.7892 43.7C55.9572 43.66 56.0972 43.624 56.2092 43.592C56.4812 43.504 56.7132 43.4 56.9052 43.28C57.0972 43.152 57.2452 43.008 57.3492 42.848C57.4532 42.688 57.5052 42.516 57.5052 42.332C57.5052 42.188 57.4732 42.044 57.4092 41.9C57.3532 41.748 57.2692 41.624 57.1572 41.528C57.0452 41.432 56.9132 41.384 56.7612 41.384C56.6172 41.384 56.4852 41.428 56.3652 41.516C56.2452 41.604 56.1492 41.724 56.0772 41.876C56.0052 42.02 55.9692 42.188 55.9692 42.38C55.9692 42.548 56.0092 42.708 56.0892 42.86C56.1692 43.004 56.2812 43.144 56.4252 43.28C56.5692 43.416 56.7412 43.544 56.9412 43.664L55.3452 44.276C55.1692 44.108 55.0012 43.928 54.8412 43.736C54.6892 43.544 54.5612 43.328 54.4572 43.088C54.3612 42.84 54.3132 42.564 54.3132 42.26C54.3132 41.892 54.3852 41.556 54.5292 41.252C54.6732 40.948 54.8652 40.688 55.1052 40.472C55.3452 40.248 55.6132 40.076 55.9092 39.956C56.2052 39.836 56.5012 39.776 56.7972 39.776C57.2772 39.776 57.6932 39.888 58.0452 40.112C58.3972 40.336 58.6692 40.628 58.8612 40.988C59.0612 41.348 59.1612 41.74 59.1612 42.164C59.1612 42.556 59.0892 42.908 58.9452 43.22C58.8012 43.524 58.6052 43.796 58.3572 44.036C58.1172 44.268 57.8492 44.472 57.5532 44.648C57.2652 44.824 56.9732 44.972 56.6772 45.092C56.5332 45.156 56.3532 45.216 56.1372 45.272C55.9212 45.328 55.6772 45.38 55.4052 45.428C55.1332 45.468 54.8412 45.5 54.5292 45.524C54.2172 45.548 53.8852 45.56 53.5332 45.56ZM59.8692 45.56C59.4052 45.56 58.9492 45.536 58.5012 45.488C58.0532 45.44 57.6372 45.368 57.2532 45.272C56.8772 45.176 56.5492 45.06 56.2692 44.924L57.0972 43.628C57.3372 43.692 57.6172 43.744 57.9372 43.784C58.2652 43.816 58.6052 43.84 58.9572 43.856C59.3172 43.872 59.6612 43.88 59.9892 43.88C60.2932 43.88 60.5092 43.96 60.6372 44.12C60.7732 44.272 60.8412 44.464 60.8412 44.696C60.8412 44.944 60.7572 45.152 60.5892 45.32C60.4212 45.48 60.1812 45.56 59.8692 45.56ZM56.8092 38.66C56.5612 38.66 56.3492 38.576 56.1732 38.408C56.0052 38.24 55.9212 38.032 55.9212 37.784C55.9212 37.536 56.0052 37.324 56.1732 37.148C56.3492 36.972 56.5612 36.884 56.8092 36.884C57.0492 36.884 57.2532 36.972 57.4212 37.148C57.5972 37.324 57.6852 37.536 57.6852 37.784C57.6852 38.032 57.5972 38.24 57.4212 38.408C57.2532 38.576 57.0492 38.66 56.8092 38.66ZM59.8848 45.56L60.0048 43.88C60.2928 43.88 60.5408 43.852 60.7488 43.796C60.9568 43.74 61.1328 43.628 61.2768 43.46C61.4208 43.284 61.5408 43.028 61.6368 42.692C61.7408 42.356 61.8328 41.908 61.9128 41.348L63.4848 41.612C63.4688 41.732 63.4448 41.872 63.4128 42.032C63.3888 42.192 63.3648 42.356 63.3408 42.524C63.3248 42.684 63.3168 42.836 63.3168 42.98C63.3168 43.124 63.3448 43.252 63.4008 43.364C63.4568 43.476 63.5448 43.572 63.6648 43.652C63.7928 43.724 63.9568 43.78 64.1568 43.82C64.3648 43.86 64.6168 43.88 64.9128 43.88C65.2168 43.88 65.4328 43.96 65.5608 44.12C65.6888 44.272 65.7528 44.464 65.7528 44.696C65.7528 44.944 65.6688 45.152 65.5008 45.32C65.3408 45.48 65.1048 45.56 64.7928 45.56C64.4328 45.56 64.1048 45.532 63.8088 45.476C63.5208 45.42 63.2688 45.328 63.0528 45.2C62.8448 45.064 62.6728 44.888 62.5368 44.672C62.4088 44.448 62.3288 44.176 62.2968 43.856H62.8728C62.7288 44.24 62.5448 44.548 62.3208 44.78C62.1048 45.004 61.8608 45.172 61.5888 45.284C61.3168 45.396 61.0328 45.468 60.7368 45.5C60.4488 45.54 60.1648 45.56 59.8848 45.56ZM63.7368 40.268C63.5048 40.268 63.3048 40.188 63.1368 40.028C62.9768 39.86 62.8968 39.664 62.8968 39.44C62.8968 39.208 62.9768 39.008 63.1368 38.84C63.3048 38.672 63.5048 38.588 63.7368 38.588C63.9608 38.588 64.1528 38.672 64.3128 38.84C64.4728 39.008 64.5528 39.208 64.5528 39.44C64.5528 39.664 64.4728 39.86 64.3128 40.028C64.1528 40.188 63.9608 40.268 63.7368 40.268ZM61.6608 40.256C61.4288 40.256 61.2288 40.176 61.0608 40.016C60.9008 39.848 60.8208 39.652 60.8208 39.428C60.8208 39.196 60.9008 38.996 61.0608 38.828C61.2288 38.66 61.4288 38.576 61.6608 38.576C61.8848 38.576 62.0768 38.66 62.2368 38.828C62.3968 38.996 62.4768 39.196 62.4768 39.428C62.4768 39.652 62.3968 39.848 62.2368 40.016C62.0768 40.176 61.8848 40.256 61.6608 40.256ZM64.7949 45.56L64.9149 43.88C65.1789 43.88 65.3949 43.86 65.5629 43.82C65.7309 43.772 65.8669 43.672 65.9709 43.52C66.0829 43.36 66.1789 43.124 66.2589 42.812C66.3469 42.492 66.4429 42.06 66.5469 41.516L68.1069 41.804C68.0829 41.924 68.0549 42.064 68.0229 42.224C67.9909 42.384 67.9629 42.548 67.9389 42.716C67.9149 42.876 67.9029 43.02 67.9029 43.148C67.9029 43.372 67.9749 43.552 68.1189 43.688C68.2629 43.816 68.5349 43.88 68.9349 43.88C69.1349 43.88 69.3069 43.86 69.4509 43.82C69.6029 43.772 69.7309 43.672 69.8349 43.52C69.9469 43.36 70.0429 43.116 70.1229 42.788C70.2109 42.452 70.2949 42 70.3749 41.432L71.9589 41.684C71.9269 41.868 71.8949 42.064 71.8629 42.272C71.8309 42.48 71.8029 42.672 71.7789 42.848C71.7549 43.024 71.7429 43.168 71.7429 43.28C71.7429 43.384 71.7709 43.484 71.8269 43.58C71.8909 43.668 72.0029 43.74 72.1629 43.796C72.3309 43.852 72.5669 43.88 72.8709 43.88C73.0869 43.88 73.2709 43.852 73.4229 43.796C73.5829 43.74 73.7029 43.648 73.7829 43.52C73.8709 43.392 73.9149 43.224 73.9149 43.016C73.9149 42.72 73.8469 42.332 73.7109 41.852C73.5749 41.372 73.4149 40.868 73.2309 40.34L74.9229 39.836C75.0509 40.18 75.1629 40.548 75.2589 40.94C75.3629 41.324 75.4429 41.7 75.4989 42.068C75.5629 42.428 75.5949 42.744 75.5949 43.016C75.5949 43.424 75.5309 43.788 75.4029 44.108C75.2749 44.42 75.0949 44.684 74.8629 44.9C74.6309 45.116 74.3549 45.28 74.0349 45.392C73.7149 45.504 73.3629 45.56 72.9789 45.56C72.5149 45.56 72.1349 45.516 71.8389 45.428C71.5429 45.332 71.3149 45.176 71.1549 44.96C71.0029 44.736 70.9029 44.432 70.8549 44.048H71.2629C71.0949 44.52 70.9069 44.864 70.6989 45.08C70.4909 45.288 70.2429 45.42 69.9549 45.476C69.6749 45.532 69.3229 45.56 68.8989 45.56C68.6349 45.56 68.3629 45.532 68.0829 45.476C67.8109 45.412 67.5669 45.268 67.3509 45.044C67.1349 44.82 66.9749 44.472 66.8709 44L67.5189 43.976C67.3509 44.448 67.1309 44.796 66.8589 45.02C66.5949 45.244 66.2909 45.392 65.9469 45.464C65.6029 45.528 65.2189 45.56 64.7949 45.56ZM77.1573 45.5L76.9053 36.716H78.5853L78.8373 45.5H77.1573ZM36.9116 61.164C36.9116 60.98 36.9276 60.764 36.9596 60.516C36.9916 60.268 37.0516 59.988 37.1396 59.676C37.2276 59.356 37.3596 59 37.5356 58.608L39.0116 59.124C38.9236 59.372 38.8476 59.6 38.7836 59.808C38.7196 60.008 38.6716 60.196 38.6396 60.372C38.6076 60.54 38.5916 60.708 38.5916 60.876C38.5916 61.268 38.6796 61.588 38.8556 61.836C39.0396 62.092 39.2956 62.28 39.6236 62.4C39.9516 62.528 40.3316 62.592 40.7636 62.592C41.2596 62.592 41.6676 62.524 41.9876 62.388C42.3076 62.26 42.5556 62.088 42.7316 61.872C42.9076 61.664 43.0316 61.436 43.1036 61.188C43.1756 60.932 43.2116 60.684 43.2116 60.444C43.2116 60.116 43.1556 59.728 43.0436 59.28C42.9316 58.824 42.7316 58.312 42.4436 57.744L43.9916 57.084C44.1516 57.364 44.2996 57.692 44.4356 58.068C44.5716 58.436 44.6796 58.82 44.7596 59.22C44.8476 59.62 44.8916 60 44.8916 60.36C44.8916 60.68 44.8516 61.02 44.7716 61.38C44.6916 61.732 44.5556 62.08 44.3636 62.424C44.1796 62.768 43.9276 63.076 43.6076 63.348C43.2876 63.628 42.8916 63.852 42.4196 64.02C41.9476 64.188 41.3836 64.272 40.7276 64.272C40.1996 64.272 39.7036 64.212 39.2396 64.092C38.7836 63.98 38.3796 63.8 38.0276 63.552C37.6836 63.304 37.4116 62.98 37.2116 62.58C37.0116 62.188 36.9116 61.716 36.9116 61.164ZM40.8236 56.604C40.5756 56.604 40.3636 56.52 40.1876 56.352C40.0196 56.184 39.9356 55.976 39.9356 55.728C39.9356 55.48 40.0196 55.268 40.1876 55.092C40.3636 54.916 40.5756 54.828 40.8236 54.828C41.0636 54.828 41.2676 54.916 41.4356 55.092C41.6116 55.268 41.6996 55.48 41.6996 55.728C41.6996 55.976 41.6116 56.184 41.4356 56.352C41.2676 56.52 41.0636 56.604 40.8236 56.604ZM49.2981 61.56C48.5541 61.56 47.9781 61.484 47.5701 61.332C47.1701 61.18 46.8901 60.944 46.7301 60.624C46.5701 60.296 46.4781 59.884 46.4541 59.388L46.2021 52.716H47.8821L48.1341 58.584C48.1501 58.952 48.1901 59.228 48.2541 59.412C48.3181 59.596 48.4381 59.72 48.6141 59.784C48.7981 59.848 49.0661 59.88 49.4181 59.88C49.7221 59.88 49.9381 59.96 50.0661 60.12C50.2021 60.272 50.2701 60.464 50.2701 60.696C50.2701 60.944 50.1861 61.152 50.0181 61.32C49.8501 61.48 49.6101 61.56 49.2981 61.56ZM49.3145 61.56L49.4345 59.88C49.7865 59.88 50.0625 59.856 50.2625 59.808C50.4705 59.76 50.6185 59.672 50.7065 59.544C50.7945 59.408 50.8385 59.216 50.8385 58.968C50.8385 58.744 50.8065 58.476 50.7425 58.164C50.6865 57.852 50.6105 57.528 50.5145 57.192C50.4185 56.856 50.3225 56.548 50.2265 56.268L51.8825 55.812C51.9785 56.084 52.0745 56.4 52.1705 56.76C52.2665 57.12 52.3465 57.492 52.4105 57.876C52.4825 58.252 52.5185 58.616 52.5185 58.968C52.5185 59.408 52.4625 59.78 52.3505 60.084C52.2385 60.38 52.0825 60.628 51.8825 60.828C51.6905 61.02 51.4585 61.172 51.1865 61.284C50.9225 61.388 50.6305 61.46 50.3105 61.5C49.9905 61.54 49.6585 61.56 49.3145 61.56ZM50.7905 64.32C50.5585 64.32 50.3585 64.24 50.1905 64.08C50.0305 63.92 49.9505 63.724 49.9505 63.492C49.9505 63.26 50.0305 63.056 50.1905 62.88C50.3585 62.712 50.5585 62.628 50.7905 62.628C51.0225 62.628 51.2185 62.712 51.3785 62.88C51.5465 63.056 51.6305 63.26 51.6305 63.492C51.6305 63.724 51.5465 63.92 51.3785 64.08C51.2185 64.24 51.0225 64.32 50.7905 64.32ZM56.927 61.56C56.183 61.56 55.607 61.484 55.199 61.332C54.799 61.18 54.519 60.944 54.359 60.624C54.199 60.296 54.107 59.884 54.083 59.388L53.831 52.716H55.511L55.763 58.584C55.779 58.952 55.819 59.228 55.883 59.412C55.947 59.596 56.067 59.72 56.243 59.784C56.427 59.848 56.695 59.88 57.047 59.88C57.351 59.88 57.567 59.96 57.695 60.12C57.831 60.272 57.899 60.464 57.899 60.696C57.899 60.944 57.815 61.152 57.647 61.32C57.479 61.48 57.239 61.56 56.927 61.56ZM56.9434 61.56L57.0634 59.88C57.3514 59.88 57.5994 59.852 57.8074 59.796C58.0154 59.74 58.1914 59.628 58.3354 59.46C58.4794 59.284 58.5994 59.028 58.6954 58.692C58.7994 58.356 58.8914 57.908 58.9714 57.348L60.5434 57.612C60.5274 57.732 60.5034 57.872 60.4714 58.032C60.4474 58.192 60.4234 58.356 60.3994 58.524C60.3834 58.684 60.3754 58.836 60.3754 58.98C60.3754 59.124 60.4034 59.252 60.4594 59.364C60.5154 59.476 60.6034 59.572 60.7234 59.652C60.8514 59.724 61.0154 59.78 61.2154 59.82C61.4234 59.86 61.6754 59.88 61.9714 59.88C62.2754 59.88 62.4914 59.96 62.6194 60.12C62.7474 60.272 62.8114 60.464 62.8114 60.696C62.8114 60.944 62.7274 61.152 62.5594 61.32C62.3994 61.48 62.1634 61.56 61.8514 61.56C61.4914 61.56 61.1634 61.532 60.8674 61.476C60.5794 61.42 60.3274 61.328 60.1114 61.2C59.9034 61.064 59.7314 60.888 59.5954 60.672C59.4674 60.448 59.3874 60.176 59.3554 59.856H59.9314C59.7874 60.24 59.6034 60.548 59.3794 60.78C59.1634 61.004 58.9194 61.172 58.6474 61.284C58.3754 61.396 58.0914 61.468 57.7954 61.5C57.5074 61.54 57.2234 61.56 56.9434 61.56ZM60.2914 64.344C60.0594 64.344 59.8594 64.26 59.6914 64.092C59.5314 63.932 59.4514 63.74 59.4514 63.516C59.4514 63.284 59.5314 63.084 59.6914 62.916C59.8594 62.748 60.0594 62.664 60.2914 62.664C60.5154 62.664 60.7074 62.748 60.8674 62.916C61.0274 63.084 61.1074 63.284 61.1074 63.516C61.1074 63.74 61.0274 63.932 60.8674 64.092C60.7074 64.26 60.5154 64.344 60.2914 64.344ZM58.2154 64.344C57.9834 64.344 57.7834 64.26 57.6154 64.092C57.4554 63.932 57.3754 63.74 57.3754 63.516C57.3754 63.284 57.4554 63.084 57.6154 62.916C57.7834 62.748 57.9834 62.664 58.2154 62.664C58.4394 62.664 58.6314 62.748 58.7914 62.916C58.9514 63.084 59.0314 63.284 59.0314 63.516C59.0314 63.74 58.9514 63.932 58.7914 64.092C58.6314 64.26 58.4394 64.344 58.2154 64.344ZM61.8535 61.56L61.9735 59.88C62.4055 59.88 62.8335 59.856 63.2575 59.808C63.6815 59.76 64.0935 59.688 64.4935 59.592C64.8935 59.496 65.2735 59.372 65.6335 59.22C66.0015 59.068 66.3455 58.884 66.6655 58.668C66.4255 58.524 66.1655 58.4 65.8855 58.296C65.6055 58.192 65.3055 58.116 64.9855 58.068C64.6735 58.012 64.3415 57.984 63.9895 57.984C63.8615 57.984 63.7255 57.988 63.5815 57.996C63.4455 58.004 63.3055 58.02 63.1615 58.044C63.0175 58.06 62.8735 58.084 62.7295 58.116L62.4895 56.472C62.7215 56.408 62.9655 56.364 63.2215 56.34C63.4855 56.308 63.7175 56.292 63.9175 56.292C64.3495 56.292 64.7455 56.34 65.1055 56.436C65.4735 56.532 65.8095 56.652 66.1135 56.796C66.4255 56.94 66.7135 57.084 66.9775 57.228C67.2495 57.372 67.5055 57.492 67.7455 57.588C67.9935 57.684 68.2335 57.732 68.4655 57.732H68.9095L69.1015 59.328C68.7575 59.344 68.4335 59.412 68.1295 59.532C67.8335 59.644 67.5375 59.788 67.2415 59.964C66.9535 60.132 66.6415 60.308 66.3055 60.492C65.9775 60.676 65.6055 60.848 65.1895 61.008C64.7735 61.168 64.2935 61.3 63.7495 61.404C63.2055 61.508 62.5735 61.56 61.8535 61.56ZM63.9295 55.176C63.6815 55.176 63.4695 55.092 63.2935 54.924C63.1255 54.756 63.0415 54.548 63.0415 54.3C63.0415 54.052 63.1255 53.84 63.2935 53.664C63.4695 53.488 63.6815 53.4 63.9295 53.4C64.1695 53.4 64.3735 53.488 64.5415 53.664C64.7175 53.84 64.8055 54.052 64.8055 54.3C64.8055 54.548 64.7175 54.756 64.5415 54.924C64.3735 55.092 64.1695 55.176 63.9295 55.176Z" fill="black"/>
<path d="M40.0209 76.59C39.7075 76.59 39.4009 76.56 39.1009 76.5C38.8075 76.44 38.5309 76.35 38.2709 76.23C38.0175 76.1033 37.7909 75.95 37.5909 75.77L37.9609 74.95C38.2809 75.21 38.6075 75.3967 38.9409 75.51C39.2809 75.6233 39.6309 75.68 39.9909 75.68C40.2909 75.68 40.5509 75.64 40.7709 75.56C40.9909 75.4733 41.1609 75.3433 41.2809 75.17C41.4009 74.99 41.4609 74.77 41.4609 74.51C41.4609 74.1367 41.3342 73.8567 41.0809 73.67C40.8342 73.4767 40.4709 73.38 39.9909 73.38H38.8909V72.49H39.8709C40.1509 72.49 40.3942 72.4433 40.6009 72.35C40.8142 72.2567 40.9775 72.1233 41.0909 71.95C41.2109 71.77 41.2709 71.5533 41.2709 71.3C41.2709 70.96 41.1542 70.7033 40.9209 70.53C40.6942 70.3567 40.3809 70.27 39.9809 70.27C39.6275 70.27 39.2909 70.33 38.9709 70.45C38.6575 70.57 38.3609 70.7633 38.0809 71.03L37.7109 70.22C37.9909 69.94 38.3375 69.7267 38.7509 69.58C39.1709 69.4333 39.6042 69.36 40.0509 69.36C40.5175 69.36 40.9175 69.4333 41.2509 69.58C41.5909 69.72 41.8509 69.9267 42.0309 70.2C42.2109 70.4733 42.3009 70.8033 42.3009 71.19C42.3009 71.6033 42.1875 71.9633 41.9609 72.27C41.7342 72.57 41.4209 72.7767 41.0209 72.89V72.83C41.3209 72.89 41.5809 72.9967 41.8009 73.15C42.0209 73.3033 42.1909 73.5 42.3109 73.74C42.4309 73.98 42.4909 74.26 42.4909 74.58C42.4909 75 42.3875 75.36 42.1809 75.66C41.9809 75.96 41.6975 76.19 41.3309 76.35C40.9642 76.51 40.5275 76.59 40.0209 76.59ZM46.1311 76.22C46.1311 76.0667 46.1444 75.8867 46.1711 75.68C46.1978 75.4733 46.2478 75.24 46.3211 74.98C46.3944 74.7133 46.5044 74.4167 46.6511 74.09L47.8811 74.52C47.8078 74.7267 47.7444 74.9167 47.6911 75.09C47.6378 75.2567 47.5978 75.4133 47.5711 75.56C47.5444 75.7 47.5311 75.84 47.5311 75.98C47.5311 76.28 47.6044 76.54 47.7511 76.76C47.9044 76.9867 48.1111 77.16 48.3711 77.28C48.6378 77.4067 48.9444 77.47 49.2911 77.47C49.8578 77.47 50.2911 77.3767 50.5911 77.19C50.8978 77.01 51.1044 76.7233 51.2111 76.33C51.3244 75.93 51.3678 75.4133 51.3411 74.78L51.1411 69.18H52.5511L52.7011 73.91C52.7144 74.2433 52.7611 74.5 52.8411 74.68C52.9211 74.86 53.0444 74.9833 53.2111 75.05C53.3844 75.1167 53.6078 75.15 53.8811 75.15C54.1344 75.15 54.3144 75.2167 54.4211 75.35C54.5278 75.4767 54.5811 75.6367 54.5811 75.83C54.5811 76.0367 54.5111 76.21 54.3711 76.35C54.2311 76.4833 54.0344 76.55 53.7811 76.55C53.6344 76.55 53.4778 76.53 53.3111 76.49C53.1444 76.45 52.9844 76.3867 52.8311 76.3C52.6778 76.2133 52.5444 76.1 52.4311 75.96C52.3178 75.8133 52.2411 75.6333 52.2011 75.42L52.7411 75.15C52.7411 75.8233 52.6611 76.3933 52.5011 76.86C52.3478 77.3267 52.1211 77.7033 51.8211 77.99C51.5278 78.2767 51.1644 78.4833 50.7311 78.61C50.3044 78.7433 49.8111 78.81 49.2511 78.81C48.8244 78.81 48.4211 78.7567 48.0411 78.65C47.6678 78.5433 47.3378 78.3833 47.0511 78.17C46.7644 77.9567 46.5378 77.6867 46.3711 77.36C46.2111 77.04 46.1311 76.66 46.1311 76.22ZM63.8113 76.55C63.4713 76.55 63.1446 76.52 62.8313 76.46C62.5179 76.3933 62.2346 76.3067 61.9813 76.2C61.7346 76.0933 61.5313 75.9733 61.3713 75.84L62.2713 74.87C62.5113 74.97 62.7579 75.0433 63.0113 75.09C63.2646 75.13 63.5646 75.15 63.9113 75.15C64.1646 75.15 64.3446 75.2167 64.4513 75.35C64.5646 75.4767 64.6213 75.6367 64.6213 75.83C64.6213 76.0367 64.5513 76.21 64.4113 76.35C64.2713 76.4833 64.0713 76.55 63.8113 76.55ZM58.9613 76.68C58.3413 76.68 57.8246 76.6533 57.4113 76.6C57.0046 76.5467 56.6746 76.47 56.4212 76.37C56.1679 76.27 55.9679 76.15 55.8213 76.01C55.6746 75.87 55.5546 75.7167 55.4613 75.55L55.7413 75.47C55.5746 75.79 55.3846 76.0267 55.1713 76.18C54.9579 76.3333 54.7346 76.4333 54.5013 76.48C54.2679 76.5267 54.0279 76.55 53.7812 76.55L53.8813 75.15C54.0879 75.15 54.2513 75.1167 54.3713 75.05C54.4913 74.9833 54.5879 74.8733 54.6613 74.72C54.7413 74.5667 54.8146 74.3633 54.8813 74.11C54.9479 73.8567 55.0279 73.5467 55.1213 73.18L56.3913 73.49C56.3446 73.67 56.3046 73.8267 56.2713 73.96C56.2446 74.0933 56.2213 74.21 56.2013 74.31C56.1879 74.4033 56.1813 74.48 56.1813 74.54C56.1813 74.6667 56.2113 74.78 56.2713 74.88C56.3313 74.9733 56.4479 75.05 56.6213 75.11C56.7946 75.1633 57.0479 75.2067 57.3813 75.24C57.7213 75.2667 58.1646 75.28 58.7113 75.28C59.2913 75.28 59.7746 75.26 60.1613 75.22C60.5479 75.1733 60.8546 75.11 61.0813 75.03C61.3146 74.9433 61.4813 74.84 61.5813 74.72C61.6813 74.5933 61.7313 74.45 61.7313 74.29C61.7313 74.1633 61.7013 74.0467 61.6413 73.94C61.5879 73.8267 61.4979 73.7333 61.3713 73.66C61.2446 73.5867 61.0813 73.55 60.8813 73.55C60.6413 73.55 60.3979 73.61 60.1513 73.73C59.9113 73.8433 59.6746 73.9967 59.4413 74.19C59.2079 74.3767 58.9846 74.5867 58.7713 74.82C58.5646 75.0533 58.3779 75.2867 58.2113 75.52L56.7113 75.35C56.9713 74.93 57.2646 74.5267 57.5913 74.14C57.9179 73.7533 58.2679 73.4133 58.6413 73.12C59.0146 72.82 59.4013 72.5833 59.8013 72.41C60.2013 72.2367 60.6079 72.15 61.0213 72.15C61.4679 72.15 61.8479 72.2367 62.1613 72.41C62.4746 72.5833 62.7146 72.8233 62.8813 73.13C63.0479 73.4367 63.1313 73.79 63.1313 74.19C63.1313 74.6767 62.9913 75.1067 62.7113 75.48C62.4379 75.8533 61.9946 76.1467 61.3813 76.36C60.7746 76.5733 59.9679 76.68 58.9613 76.68ZM63.8203 76.55L63.9203 75.16C64.4736 75.16 64.917 75.1567 65.2503 75.15C65.5903 75.1433 65.8536 75.13 66.0403 75.11C66.2336 75.0833 66.377 75.0533 66.4703 75.02C66.5636 74.98 66.6436 74.9367 66.7103 74.89C66.7903 74.83 66.857 74.75 66.9103 74.65C66.9703 74.5433 67.017 74.4033 67.0503 74.23C67.0836 74.0567 67.1003 73.84 67.1003 73.58C67.1003 73.2533 67.0703 72.98 67.0103 72.76C66.957 72.5333 66.877 72.3633 66.7703 72.25C66.6703 72.1367 66.547 72.08 66.4003 72.08C66.2936 72.08 66.1936 72.1167 66.1003 72.19C66.007 72.2567 65.9303 72.35 65.8703 72.47C65.8103 72.59 65.7803 72.7267 65.7803 72.88C65.7803 72.9667 65.8036 73.0433 65.8503 73.11C65.897 73.1767 65.9703 73.2267 66.0703 73.26C66.1703 73.2933 66.297 73.31 66.4503 73.31C66.597 73.31 66.7503 73.2933 66.9103 73.26C67.077 73.22 67.2303 73.1667 67.3703 73.1L67.4103 74.29C67.3036 74.3633 67.1803 74.43 67.0403 74.49C66.9003 74.55 66.7503 74.5967 66.5903 74.63C66.437 74.6567 66.2803 74.67 66.1203 74.67C65.767 74.67 65.4603 74.6233 65.2003 74.53C64.947 74.43 64.7503 74.27 64.6103 74.05C64.4703 73.83 64.4003 73.53 64.4003 73.15C64.4003 72.8567 64.4503 72.5667 64.5503 72.28C64.6503 71.9867 64.7936 71.7233 64.9803 71.49C65.167 71.25 65.387 71.06 65.6403 70.92C65.8936 70.7733 66.1736 70.7 66.4803 70.7C66.9336 70.7 67.307 70.8333 67.6003 71.1C67.9003 71.36 68.1203 71.7133 68.2603 72.16C68.407 72.6 68.4803 73.09 68.4803 73.63C68.4803 74.1033 68.4103 74.5167 68.2703 74.87C68.1303 75.2167 67.9636 75.49 67.7703 75.69C67.6103 75.8567 67.427 75.9967 67.2203 76.11C67.0136 76.2233 66.7603 76.3133 66.4603 76.38C66.167 76.44 65.8036 76.4833 65.3703 76.51C64.9436 76.5367 64.427 76.55 63.8203 76.55ZM66.4603 69.77C66.2536 69.77 66.077 69.7 65.9303 69.56C65.7903 69.42 65.7203 69.2467 65.7203 69.04C65.7203 68.8333 65.7903 68.6567 65.9303 68.51C66.077 68.3633 66.2536 68.29 66.4603 68.29C66.6603 68.29 66.8303 68.3633 66.9703 68.51C67.117 68.6567 67.1903 68.8333 67.1903 69.04C67.1903 69.2467 67.117 69.42 66.9703 69.56C66.8303 69.7 66.6603 69.77 66.4603 69.77Z" fill="#667085"/>
<defs>
<filter id="filter0_d_8310_900" x="0" y="0" width="104" height="92" filterUnits="userSpaceOnUse" color-interpolation-filters="sRGB">
<feFlood flood-opacity="0" result="BackgroundImageFix"/>
<feColorMatrix in="SourceAlpha" type="matrix" values="0 0 0 0 0 0 0 0 0 0 0 0 0 0 0 0 0 0 127 0" result="hardAlpha"/>
<feOffset dy="4"/>
<feGaussianBlur stdDeviation="2"/>
<feComposite in2="hardAlpha" operator="out"/>
<feColorMatrix type="matrix" values="0 0 0 0 0 0 0 0 0 0 0 0 0 0 0 0 0 0 0.25 0"/>
<feBlend mode="normal" in2="BackgroundImageFix" result="effect1_dropShadow_8310_900"/>
<feBlend mode="normal" in="SourceGraphic" in2="effect1_dropShadow_8310_900" result="shape"/>
</filter>
<clipPath id="clip0_8310_900">
<rect width="30" height="30" fill="white" transform="translate(38 2.5)"/>
</clipPath>
</defs>
</svg>
