<svg width="102" height="89" viewBox="0 0 102 89" fill="none" xmlns="http://www.w3.org/2000/svg">
<g filter="url(#filter0_d_8334_725)">
<path d="M5.45148 44.8639C4.65639 43.5542 4.25887 42.8988 4.10327 42.2026C3.96558 41.5864 3.96558 40.9499 4.10327 40.3337C4.25887 39.6375 4.65639 38.9822 5.45148 37.6724L24.7122 5.93899C25.5072 4.62907 25.9047 3.9741 26.4609 3.49776C26.953 3.0763 27.5327 2.75789 28.1625 2.56328C28.8742 2.34326 29.6693 2.34326 31.2595 2.34326H69.7806C71.3711 2.34326 72.1659 2.34326 72.8779 2.56328C73.5073 2.75789 74.0871 3.0763 74.5794 3.49776C75.1356 3.9741 75.533 4.62907 76.3282 5.93899L95.5887 37.6724C96.3839 38.9822 96.7813 39.6375 96.9368 40.3337C97.0747 40.9499 97.0747 41.5864 96.9368 42.2026C96.7813 42.8988 96.3839 43.5542 95.5887 44.8639L76.3282 76.5975C75.533 77.9073 75.1356 78.5621 74.5794 79.0386C74.0871 79.4602 73.5073 79.7784 72.8779 79.973C72.1659 80.1933 71.3711 80.1933 69.7806 80.1933H31.2595C29.6693 80.1933 28.8742 80.1933 28.1625 79.973C27.5327 79.7784 26.953 79.4602 26.4609 79.0386C25.9047 78.5621 25.5072 77.9073 24.7122 76.5975L5.45148 44.8639Z" fill="white"/>
</g>
<path d="M58.8718 6.73878L62.2121 13.4475C62.2711 13.5357 62.3002 13.6528 62.3293 13.741C62.5346 14.2688 62.6808 15.001 62.6808 15.4697V18.6628C62.6808 19.6594 62.0068 20.4797 61.0693 20.7141V22.5891C61.0693 23.4975 60.3371 24.2007 59.4577 24.2007C58.5493 24.2007 57.8461 23.4975 57.8461 22.5891V20.7722H45.0136V22.5891C45.0136 23.4975 44.3105 24.2007 43.4021 24.2007C42.5227 24.2007 41.7905 23.4975 41.7905 22.5891V20.7141C40.853 20.4797 40.179 19.6594 40.179 18.6628V15.4697C40.179 15.001 40.3252 14.2688 40.5305 13.741C40.5596 13.6528 40.5896 13.5357 40.6477 13.4475L43.988 6.73878C44.2515 6.24097 44.9546 5.77222 45.5405 5.77222H57.3183C57.9043 5.77222 58.6083 6.24097 58.8718 6.73878ZM45.3652 8.76003L43.5783 12.8325C43.4902 12.9788 43.4902 13.155 43.4902 13.2722H59.3696C59.3696 13.155 59.3696 12.9788 59.2815 12.8325L57.4946 8.76003C57.2602 8.23222 56.5571 7.76347 56.0002 7.76347H46.8596C46.3027 7.76347 45.5996 8.23222 45.3652 8.76003ZM44.5749 18.6619C45.5124 18.6619 46.2446 17.8997 46.2446 16.9332C46.2446 15.9957 45.5124 15.2635 44.5749 15.2635C43.6374 15.2635 42.8461 15.9957 42.8461 16.9332C42.8461 17.8997 43.6374 18.6619 44.5749 18.6619ZM58.2858 18.6619C59.2233 18.6619 60.0146 17.8997 60.0146 16.9332C60.0146 15.9957 59.2233 15.2635 58.2858 15.2635C57.3483 15.2635 56.6161 15.9957 56.6161 16.9332C56.6161 17.8997 57.3483 18.6619 58.2858 18.6619Z" fill="#F2BB41"/>
<path d="M53.1126 43.06C52.7046 43.06 52.3126 43.024 51.9366 42.952C51.5606 42.872 51.2206 42.768 50.9166 42.64C50.6206 42.512 50.3766 42.368 50.1846 42.208L51.2646 41.044C51.5526 41.164 51.8486 41.252 52.1526 41.308C52.4566 41.356 52.8166 41.38 53.2326 41.38C53.5366 41.38 53.7526 41.46 53.8806 41.62C54.0166 41.772 54.0846 41.964 54.0846 42.196C54.0846 42.444 54.0006 42.652 53.8326 42.82C53.6646 42.98 53.4246 43.06 53.1126 43.06ZM39.9246 45.772C39.3886 45.772 38.8886 45.704 38.4246 45.568C37.9686 45.44 37.5686 45.244 37.2246 44.98C36.8806 44.724 36.6126 44.4 36.4206 44.008C36.2286 43.624 36.1326 43.176 36.1326 42.664C36.1326 42.48 36.1486 42.264 36.1806 42.016C36.2126 41.768 36.2726 41.488 36.3606 41.176C36.4486 40.856 36.5806 40.5 36.7566 40.108L38.2326 40.624C38.1446 40.872 38.0686 41.1 38.0046 41.308C37.9406 41.508 37.8926 41.696 37.8606 41.872C37.8286 42.04 37.8126 42.208 37.8126 42.376C37.8126 42.696 37.8966 42.984 38.0646 43.24C38.2406 43.504 38.4886 43.712 38.8086 43.864C39.1366 44.016 39.5246 44.092 39.9726 44.092C40.4046 44.092 40.7766 44.048 41.0886 43.96C41.4006 43.872 41.6566 43.74 41.8566 43.564C42.0646 43.396 42.2166 43.188 42.3126 42.94C42.4086 42.684 42.4566 42.392 42.4566 42.064C42.4566 41.72 42.3926 41.316 42.2646 40.852C42.1366 40.388 41.9926 39.876 41.8326 39.316L43.5126 38.884C43.5926 39.188 43.6566 39.452 43.7046 39.676C43.7606 39.892 43.8046 40.072 43.8366 40.216C43.8766 40.352 43.9126 40.46 43.9446 40.54C44.0086 40.708 44.1006 40.852 44.2206 40.972C44.3406 41.084 44.5166 41.18 44.7486 41.26C44.9886 41.332 45.3086 41.388 45.7086 41.428C46.1086 41.46 46.6246 41.476 47.2566 41.476C47.7846 41.476 48.2406 41.46 48.6246 41.428C49.0166 41.388 49.3446 41.336 49.6086 41.272C49.8806 41.2 50.0966 41.116 50.2566 41.02C50.4246 40.924 50.5446 40.816 50.6166 40.696C50.6966 40.568 50.7366 40.432 50.7366 40.288C50.7366 40.144 50.7006 40.004 50.6286 39.868C50.5646 39.732 50.4566 39.62 50.3046 39.532C50.1526 39.444 49.9566 39.4 49.7166 39.4C49.4046 39.4 49.0926 39.476 48.7806 39.628C48.4686 39.78 48.1646 39.98 47.8686 40.228C47.5806 40.468 47.3126 40.724 47.0646 40.996C46.8246 41.268 46.6126 41.524 46.4286 41.764L44.7126 41.56C44.9446 41.184 45.2046 40.812 45.4926 40.444C45.7886 40.068 46.1046 39.716 46.4406 39.388C46.7766 39.06 47.1286 38.772 47.4966 38.524C47.8726 38.276 48.2606 38.08 48.6606 37.936C49.0606 37.792 49.4646 37.72 49.8726 37.72C50.4086 37.72 50.8646 37.828 51.2406 38.044C51.6166 38.252 51.9046 38.54 52.1046 38.908C52.3126 39.276 52.4166 39.696 52.4166 40.168C52.4166 40.608 52.3246 41.012 52.1406 41.38C51.9646 41.74 51.6766 42.056 51.2766 42.328C50.8846 42.592 50.3686 42.796 49.7286 42.94C49.0886 43.084 48.3126 43.156 47.4006 43.156C46.9446 43.156 46.4966 43.128 46.0566 43.072C45.6246 43.024 45.2286 42.948 44.8686 42.844C44.5086 42.74 44.2046 42.612 43.9566 42.46C43.7086 42.3 43.5406 42.116 43.4526 41.908L44.1246 42.28C44.1006 42.824 43.9846 43.312 43.7766 43.744C43.5686 44.176 43.2806 44.54 42.9126 44.836C42.5526 45.14 42.1206 45.372 41.6166 45.532C41.1126 45.692 40.5486 45.772 39.9246 45.772ZM60.9772 43.06C60.6092 43.06 60.2652 43.032 59.9452 42.976C59.6332 42.92 59.3452 42.824 59.0812 42.688C58.8172 42.544 58.5812 42.348 58.3732 42.1C58.1732 41.852 58.0052 41.54 57.8692 41.164L58.8172 40.408C58.9612 40.664 59.1372 40.864 59.3452 41.008C59.5532 41.144 59.8012 41.24 60.0892 41.296C60.3772 41.352 60.7132 41.38 61.0972 41.38C61.4012 41.38 61.6172 41.46 61.7452 41.62C61.8732 41.772 61.9372 41.964 61.9372 42.196C61.9372 42.444 61.8532 42.652 61.6852 42.82C61.5252 42.98 61.2892 43.06 60.9772 43.06ZM53.1292 43.06L53.2492 41.38C53.6812 41.38 54.1092 41.356 54.5332 41.308C54.9572 41.26 55.3692 41.188 55.7692 41.092C56.1692 40.996 56.5492 40.872 56.9092 40.72C57.2772 40.568 57.6212 40.384 57.9412 40.168C57.7012 40.024 57.4412 39.9 57.1612 39.796C56.8812 39.692 56.5812 39.616 56.2612 39.568C55.9492 39.512 55.6172 39.484 55.2652 39.484C55.1372 39.484 55.0012 39.488 54.8572 39.496C54.7212 39.504 54.5812 39.52 54.4372 39.544C54.2932 39.56 54.1492 39.584 54.0052 39.616L53.7652 37.972C53.9972 37.908 54.2412 37.864 54.4972 37.84C54.7612 37.808 54.9932 37.792 55.1932 37.792C55.6252 37.792 56.0212 37.84 56.3812 37.936C56.7492 38.032 57.0852 38.152 57.3892 38.296C57.7012 38.44 57.9892 38.584 58.2532 38.728C58.5252 38.872 58.7812 38.992 59.0212 39.088C59.2692 39.184 59.5092 39.232 59.7412 39.232H60.1852L60.3772 40.828C60.0332 40.844 59.7092 40.912 59.4052 41.032C59.1092 41.144 58.8132 41.288 58.5172 41.464C58.2292 41.632 57.9172 41.808 57.5812 41.992C57.2532 42.176 56.8812 42.348 56.4652 42.508C56.0492 42.668 55.5692 42.8 55.0252 42.904C54.4812 43.008 53.8492 43.06 53.1292 43.06ZM60.9807 43.06L61.1007 41.392C61.7647 41.392 62.2967 41.388 62.6967 41.38C63.1047 41.372 63.4207 41.356 63.6447 41.332C63.8767 41.3 64.0487 41.264 64.1607 41.224C64.2727 41.176 64.3687 41.124 64.4487 41.068C64.5447 40.996 64.6247 40.9 64.6887 40.78C64.7607 40.652 64.8167 40.484 64.8567 40.276C64.8967 40.068 64.9167 39.808 64.9167 39.496C64.9167 39.104 64.8807 38.776 64.8087 38.512C64.7447 38.24 64.6487 38.036 64.5207 37.9C64.4007 37.764 64.2527 37.696 64.0767 37.696C63.9487 37.696 63.8287 37.74 63.7167 37.828C63.6047 37.908 63.5127 38.02 63.4407 38.164C63.3687 38.308 63.3327 38.472 63.3327 38.656C63.3327 38.76 63.3607 38.852 63.4167 38.932C63.4727 39.012 63.5607 39.072 63.6807 39.112C63.8007 39.152 63.9527 39.172 64.1367 39.172C64.3127 39.172 64.4967 39.152 64.6887 39.112C64.8887 39.064 65.0727 39 65.2407 38.92L65.2887 40.348C65.1607 40.436 65.0127 40.516 64.8447 40.588C64.6767 40.66 64.4967 40.716 64.3047 40.756C64.1207 40.788 63.9327 40.804 63.7407 40.804C63.3167 40.804 62.9487 40.748 62.6367 40.636C62.3327 40.516 62.0967 40.324 61.9287 40.06C61.7607 39.796 61.6767 39.436 61.6767 38.98C61.6767 38.628 61.7367 38.28 61.8567 37.936C61.9767 37.584 62.1487 37.268 62.3727 36.988C62.5967 36.7 62.8607 36.472 63.1647 36.304C63.4687 36.128 63.8047 36.04 64.1727 36.04C64.7167 36.04 65.1647 36.2 65.5167 36.52C65.8767 36.832 66.1407 37.256 66.3087 37.792C66.4847 38.32 66.5727 38.908 66.5727 39.556C66.5727 40.124 66.4887 40.62 66.3207 41.044C66.1527 41.46 65.9527 41.788 65.7207 42.028C65.5287 42.228 65.3087 42.396 65.0607 42.532C64.8127 42.668 64.5087 42.776 64.1487 42.856C63.7967 42.928 63.3607 42.98 62.8407 43.012C62.3287 43.044 61.7087 43.06 60.9807 43.06ZM64.1487 34.924C63.9007 34.924 63.6887 34.84 63.5127 34.672C63.3447 34.504 63.2607 34.296 63.2607 34.048C63.2607 33.8 63.3447 33.588 63.5127 33.412C63.6887 33.236 63.9007 33.148 64.1487 33.148C64.3887 33.148 64.5927 33.236 64.7607 33.412C64.9367 33.588 65.0247 33.8 65.0247 34.048C65.0247 34.296 64.9367 34.504 64.7607 34.672C64.5927 34.84 64.3887 34.924 64.1487 34.924ZM33.5805 59.036C33.1325 59.036 32.7285 58.96 32.3685 58.808C32.0165 58.648 31.7365 58.412 31.5285 58.1C31.3285 57.78 31.2285 57.384 31.2285 56.912C31.2285 56.44 31.3885 55.916 31.7085 55.34C32.0285 54.756 32.5645 54.172 33.3165 53.588L33.1965 54.692L32.1165 53.852L33.2445 52.472C33.8525 52.936 34.3725 53.388 34.8045 53.828C35.2445 54.26 35.5805 54.704 35.8125 55.16C36.0445 55.616 36.1605 56.1 36.1605 56.612C36.1605 56.86 36.1205 57.128 36.0405 57.416C35.9605 57.696 35.8245 57.96 35.6325 58.208C35.4405 58.448 35.1765 58.648 34.8405 58.808C34.5125 58.96 34.0925 59.036 33.5805 59.036ZM33.7125 57.38C33.9125 57.38 34.0725 57.34 34.1925 57.26C34.3205 57.18 34.4165 57.076 34.4805 56.948C34.5445 56.82 34.5765 56.684 34.5765 56.54C34.5765 56.396 34.5445 56.24 34.4805 56.072C34.4165 55.904 34.2925 55.716 34.1085 55.508C33.9245 55.3 33.6525 55.06 33.2925 54.788L34.2045 54.668C33.8765 54.892 33.6125 55.12 33.4125 55.352C33.2125 55.584 33.0685 55.808 32.9805 56.024C32.9005 56.232 32.8605 56.424 32.8605 56.6C32.8605 56.856 32.9445 57.052 33.1125 57.188C33.2805 57.316 33.4805 57.38 33.7125 57.38ZM34.6965 51.572C34.4645 51.572 34.2645 51.492 34.0965 51.332C33.9365 51.164 33.8565 50.968 33.8565 50.744C33.8565 50.512 33.9365 50.312 34.0965 50.144C34.2645 49.976 34.4645 49.892 34.6965 49.892C34.9205 49.892 35.1125 49.976 35.2725 50.144C35.4325 50.312 35.5125 50.512 35.5125 50.744C35.5125 50.968 35.4325 51.164 35.2725 51.332C35.1125 51.492 34.9205 51.572 34.6965 51.572ZM32.6205 51.56C32.3885 51.56 32.1885 51.48 32.0205 51.32C31.8605 51.152 31.7805 50.956 31.7805 50.732C31.7805 50.5 31.8605 50.3 32.0205 50.132C32.1885 49.964 32.3885 49.88 32.6205 49.88C32.8445 49.88 33.0365 49.964 33.1965 50.132C33.3565 50.3 33.4365 50.5 33.4365 50.732C33.4365 50.956 33.3565 51.152 33.1965 51.32C33.0365 51.48 32.8445 51.56 32.6205 51.56ZM36.2645 61.76L35.6525 60.224C36.3405 59.984 36.8965 59.72 37.3205 59.432C37.7525 59.144 38.0685 58.836 38.2685 58.508C38.4765 58.18 38.5805 57.84 38.5805 57.488C38.5805 57.264 38.5485 57.032 38.4845 56.792C38.4205 56.544 38.3285 56.284 38.2085 56.012C38.0965 55.74 37.9605 55.456 37.8005 55.16L39.3725 54.404C39.6525 54.94 39.8685 55.452 40.0205 55.94C40.1805 56.428 40.2605 56.884 40.2605 57.308C40.2605 57.7 40.2085 58.076 40.1045 58.436C40.0085 58.796 39.8565 59.132 39.6485 59.444C39.4485 59.764 39.1885 60.064 38.8685 60.344C38.5485 60.624 38.1725 60.88 37.7405 61.112C37.3085 61.352 36.8165 61.568 36.2645 61.76ZM41.4027 58.52L41.9907 56.996C42.2867 57.124 42.5707 57.22 42.8427 57.284C43.1147 57.348 43.3867 57.38 43.6587 57.38C43.9387 57.38 44.1707 57.356 44.3547 57.308C44.5467 57.252 44.6907 57.172 44.7867 57.068C44.8827 56.964 44.9307 56.84 44.9307 56.696C44.9307 56.56 44.8867 56.372 44.7987 56.132C44.7187 55.892 44.5707 55.58 44.3547 55.196C44.1387 54.804 43.8227 54.32 43.4067 53.744L44.8347 52.796C45.2187 53.34 45.5507 53.872 45.8307 54.392C46.1107 54.904 46.3267 55.384 46.4787 55.832C46.6387 56.272 46.7187 56.66 46.7187 56.996C46.7187 57.412 46.6067 57.776 46.3827 58.088C46.1667 58.392 45.8427 58.632 45.4107 58.808C44.9867 58.984 44.4627 59.072 43.8387 59.072C43.6067 59.072 43.3467 59.052 43.0587 59.012C42.7707 58.972 42.4787 58.912 42.1827 58.832C41.8947 58.752 41.6347 58.648 41.4027 58.52ZM50.9859 59.06C50.2419 59.06 49.6659 58.984 49.2579 58.832C48.8579 58.68 48.5779 58.444 48.4179 58.124C48.2579 57.796 48.1659 57.384 48.1419 56.888L47.8899 50.216H49.5699L49.8219 56.084C49.8379 56.452 49.8779 56.728 49.9419 56.912C50.0059 57.096 50.1259 57.22 50.3019 57.284C50.4859 57.348 50.7539 57.38 51.1059 57.38C51.4099 57.38 51.6259 57.46 51.7539 57.62C51.8899 57.772 51.9579 57.964 51.9579 58.196C51.9579 58.444 51.8739 58.652 51.7059 58.82C51.5379 58.98 51.2979 59.06 50.9859 59.06ZM50.9542 59.06L51.0742 57.38C51.6342 57.38 52.1382 57.344 52.5862 57.272C53.0342 57.192 53.4262 57.088 53.7622 56.96C54.1062 56.832 54.3902 56.684 54.6142 56.516C54.8462 56.348 55.0182 56.172 55.1302 55.988C55.2502 55.796 55.3102 55.608 55.3102 55.424C55.3102 55.32 55.2822 55.224 55.2262 55.136C55.1782 55.04 55.0942 54.964 54.9742 54.908C54.8542 54.844 54.6902 54.812 54.4822 54.812C54.3782 54.812 54.2542 54.824 54.1102 54.848C53.9662 54.872 53.8222 54.908 53.6782 54.956C53.5342 54.996 53.3982 55.052 53.2702 55.124C53.4382 55.252 53.6222 55.416 53.8222 55.616C54.0222 55.808 54.2222 56.012 54.4222 56.228C54.6222 56.436 54.7942 56.64 54.9382 56.84C55.1062 56.912 55.2902 56.984 55.4902 57.056C55.6982 57.12 55.9222 57.176 56.1622 57.224C56.4022 57.272 56.6542 57.312 56.9182 57.344C57.1822 57.368 57.4542 57.38 57.7342 57.38C58.0382 57.38 58.2542 57.46 58.3822 57.62C58.5182 57.772 58.5862 57.964 58.5862 58.196C58.5862 58.444 58.5022 58.652 58.3342 58.82C58.1662 58.98 57.9262 59.06 57.6142 59.06C56.9742 59.06 56.4062 59.012 55.9102 58.916C55.4142 58.812 54.9702 58.664 54.5782 58.472C54.1942 58.272 53.8342 58.032 53.4982 57.752C53.4022 57.584 53.2662 57.404 53.0902 57.212C52.9222 57.012 52.7422 56.82 52.5502 56.636C52.3662 56.452 52.1982 56.3 52.0462 56.18C52.0062 56.148 51.9582 56.064 51.9022 55.928C51.8542 55.784 51.8102 55.636 51.7702 55.484C51.7302 55.324 51.7102 55.212 51.7102 55.148C51.7102 54.964 51.7942 54.768 51.9622 54.56C52.1382 54.352 52.3702 54.16 52.6582 53.984C52.9542 53.8 53.2782 53.652 53.6302 53.54C53.9902 53.42 54.3542 53.36 54.7222 53.36C55.2182 53.36 55.6302 53.436 55.9582 53.588C56.2942 53.732 56.5462 53.936 56.7142 54.2C56.8822 54.456 56.9662 54.756 56.9662 55.1C56.9662 55.484 56.8822 55.868 56.7142 56.252C56.5462 56.628 56.2982 56.984 55.9702 57.32C55.6502 57.656 55.2462 57.956 54.7582 58.22C54.2782 58.476 53.7182 58.68 53.0782 58.832C52.4462 58.984 51.7382 59.06 50.9542 59.06ZM54.5902 52.244C54.3422 52.244 54.1302 52.16 53.9542 51.992C53.7862 51.824 53.7022 51.616 53.7022 51.368C53.7022 51.12 53.7862 50.908 53.9542 50.732C54.1302 50.556 54.3422 50.468 54.5902 50.468C54.8302 50.468 55.0342 50.556 55.2022 50.732C55.3782 50.908 55.4662 51.12 55.4662 51.368C55.4662 51.616 55.3782 51.824 55.2022 51.992C55.0342 52.16 54.8302 52.244 54.5902 52.244ZM57.6233 59.06L57.7433 57.38C57.9433 57.38 58.0953 57.34 58.1993 57.26C58.3033 57.18 58.4073 57.04 58.5113 56.84C58.6153 56.64 58.7593 56.368 58.9433 56.024C59.1433 55.64 59.3513 55.32 59.5673 55.064C59.7833 54.8 59.9993 54.592 60.2153 54.44C60.4393 54.28 60.6593 54.168 60.8753 54.104C61.0993 54.032 61.3193 53.996 61.5353 53.996C61.8313 53.996 62.1073 54.06 62.3633 54.188C62.6273 54.308 62.8793 54.52 63.1193 54.824C63.3593 55.12 63.5873 55.528 63.8033 56.048C63.9553 56.408 64.1073 56.684 64.2593 56.876C64.4113 57.068 64.5673 57.2 64.7273 57.272C64.8953 57.344 65.0633 57.38 65.2313 57.38C65.5353 57.38 65.7513 57.46 65.8793 57.62C66.0073 57.772 66.0713 57.964 66.0713 58.196C66.0713 58.444 65.9873 58.652 65.8193 58.82C65.6513 58.98 65.4153 59.06 65.1113 59.06C64.7193 59.06 64.3633 58.996 64.0433 58.868C63.7233 58.74 63.4713 58.548 63.2873 58.292L63.6353 58.028C63.5633 58.196 63.4553 58.372 63.3113 58.556C63.1753 58.74 62.9953 58.896 62.7713 59.024C62.5553 59.152 62.2953 59.216 61.9913 59.216C61.7913 59.216 61.5553 59.176 61.2833 59.096C61.0193 59.024 60.7433 58.9 60.4553 58.724C60.1753 58.54 59.9153 58.292 59.6753 57.98C59.5233 58.26 59.3553 58.48 59.1713 58.64C58.9873 58.792 58.7713 58.9 58.5233 58.964C58.2753 59.028 57.9753 59.06 57.6233 59.06ZM60.3713 56.564C60.4513 56.684 60.5473 56.804 60.6593 56.924C60.7713 57.044 60.8953 57.152 61.0313 57.248C61.1673 57.336 61.3113 57.408 61.4633 57.464C61.6233 57.52 61.7793 57.548 61.9313 57.548C62.0913 57.548 62.2233 57.488 62.3273 57.368C62.4313 57.24 62.4353 57.052 62.3393 56.804C62.2993 56.7 62.2433 56.584 62.1713 56.456C62.1073 56.32 62.0313 56.192 61.9433 56.072C61.8633 55.952 61.7713 55.852 61.6673 55.772C61.5713 55.692 61.4713 55.652 61.3673 55.652C61.2633 55.652 61.1553 55.684 61.0433 55.748C60.9313 55.812 60.8193 55.912 60.7073 56.048C60.5953 56.176 60.4833 56.348 60.3713 56.564ZM65.1116 59.06L65.2316 57.38C65.5996 57.38 65.8636 57.344 66.0236 57.272C66.1836 57.192 66.2796 57.048 66.3116 56.84C66.3436 56.624 66.3516 56.312 66.3356 55.904L66.1196 50.216H67.8116L68.0516 56.024C68.0676 56.488 68.0476 56.908 67.9916 57.284C67.9436 57.652 67.8196 57.968 67.6196 58.232C67.4276 58.496 67.1276 58.7 66.7196 58.844C66.3196 58.988 65.7836 59.06 65.1116 59.06ZM69.6341 59L69.3821 50.216H71.0621L71.3141 59H69.6341Z" fill="black"/>
<path d="M30.6291 74V73.1H32.3591V67.83L32.8991 67.86L30.9791 69.06L30.5391 68.26L32.6491 66.95H33.4191V73.1H35.0291V74H30.6291ZM38.5852 74.09C38.0385 74.09 37.5752 73.9533 37.1952 73.68C36.8218 73.4 36.5385 72.99 36.3452 72.45C36.1518 71.91 36.0552 71.25 36.0552 70.47C36.0552 69.6833 36.1518 69.0233 36.3452 68.49C36.5385 67.95 36.8218 67.5433 37.1952 67.27C37.5752 66.9967 38.0385 66.86 38.5852 66.86C39.1385 66.86 39.6018 66.9967 39.9752 67.27C40.3552 67.5433 40.6385 67.9467 40.8252 68.48C41.0185 69.0133 41.1152 69.6733 41.1152 70.46C41.1152 71.24 41.0185 71.9033 40.8252 72.45C40.6318 72.99 40.3485 73.4 39.9752 73.68C39.6018 73.9533 39.1385 74.09 38.5852 74.09ZM38.5852 73.2C39.0918 73.2 39.4652 72.98 39.7052 72.54C39.9518 72.0933 40.0752 71.4 40.0752 70.46C40.0752 69.52 39.9518 68.8333 39.7052 68.4C39.4652 67.9667 39.0918 67.75 38.5852 67.75C38.0852 67.75 37.7118 67.97 37.4652 68.41C37.2185 68.8433 37.0952 69.5267 37.0952 70.46C37.0952 71.4 37.2152 72.0933 37.4552 72.54C37.7018 72.98 38.0785 73.2 38.5852 73.2ZM44.5854 73.72C44.5854 73.5667 44.5987 73.3867 44.6254 73.18C44.6521 72.9733 44.7021 72.74 44.7754 72.48C44.8487 72.2133 44.9587 71.9167 45.1054 71.59L46.3354 72.02C46.2621 72.2267 46.1987 72.4167 46.1454 72.59C46.0921 72.7567 46.0521 72.9133 46.0254 73.06C45.9987 73.2 45.9854 73.34 45.9854 73.48C45.9854 73.78 46.0587 74.04 46.2054 74.26C46.3587 74.4867 46.5654 74.66 46.8254 74.78C47.0921 74.9067 47.3987 74.97 47.7454 74.97C48.3121 74.97 48.7454 74.8767 49.0454 74.69C49.3521 74.51 49.5587 74.2233 49.6654 73.83C49.7787 73.43 49.8221 72.9133 49.7954 72.28L49.5954 66.68H51.0054L51.1554 71.41C51.1687 71.7433 51.2154 72 51.2954 72.18C51.3754 72.36 51.4987 72.4833 51.6654 72.55C51.8387 72.6167 52.0621 72.65 52.3354 72.65C52.5887 72.65 52.7687 72.7167 52.8754 72.85C52.9821 72.9767 53.0354 73.1367 53.0354 73.33C53.0354 73.5367 52.9654 73.71 52.8254 73.85C52.6854 73.9833 52.4887 74.05 52.2354 74.05C52.0887 74.05 51.9321 74.03 51.7654 73.99C51.5987 73.95 51.4387 73.8867 51.2854 73.8C51.1321 73.7133 50.9987 73.6 50.8854 73.46C50.7721 73.3133 50.6954 73.1333 50.6554 72.92L51.1954 72.65C51.1954 73.3233 51.1154 73.8933 50.9554 74.36C50.8021 74.8267 50.5754 75.2033 50.2754 75.49C49.9821 75.7767 49.6187 75.9833 49.1854 76.11C48.7587 76.2433 48.2654 76.31 47.7054 76.31C47.2787 76.31 46.8754 76.2567 46.4954 76.15C46.1221 76.0433 45.7921 75.8833 45.5054 75.67C45.2187 75.4567 44.9921 75.1867 44.8254 74.86C44.6654 74.54 44.5854 74.16 44.5854 73.72ZM62.2656 74.05C61.9256 74.05 61.5989 74.02 61.2856 73.96C60.9722 73.8933 60.6889 73.8067 60.4356 73.7C60.1889 73.5933 59.9856 73.4733 59.8256 73.34L60.7256 72.37C60.9656 72.47 61.2122 72.5433 61.4656 72.59C61.7189 72.63 62.0189 72.65 62.3656 72.65C62.6189 72.65 62.7989 72.7167 62.9056 72.85C63.0189 72.9767 63.0756 73.1367 63.0756 73.33C63.0756 73.5367 63.0056 73.71 62.8656 73.85C62.7256 73.9833 62.5256 74.05 62.2656 74.05ZM57.4156 74.18C56.7956 74.18 56.2789 74.1533 55.8656 74.1C55.4589 74.0467 55.1289 73.97 54.8756 73.87C54.6222 73.77 54.4222 73.65 54.2756 73.51C54.1289 73.37 54.0089 73.2167 53.9156 73.05L54.1956 72.97C54.0289 73.29 53.8389 73.5267 53.6256 73.68C53.4122 73.8333 53.1889 73.9333 52.9556 73.98C52.7222 74.0267 52.4822 74.05 52.2356 74.05L52.3356 72.65C52.5422 72.65 52.7056 72.6167 52.8256 72.55C52.9456 72.4833 53.0422 72.3733 53.1156 72.22C53.1956 72.0667 53.2689 71.8633 53.3356 71.61C53.4022 71.3567 53.4822 71.0467 53.5756 70.68L54.8456 70.99C54.7989 71.17 54.7589 71.3267 54.7256 71.46C54.6989 71.5933 54.6756 71.71 54.6556 71.81C54.6422 71.9033 54.6356 71.98 54.6356 72.04C54.6356 72.1667 54.6656 72.28 54.7256 72.38C54.7856 72.4733 54.9022 72.55 55.0756 72.61C55.2489 72.6633 55.5022 72.7067 55.8356 72.74C56.1756 72.7667 56.6189 72.78 57.1656 72.78C57.7456 72.78 58.2289 72.76 58.6156 72.72C59.0022 72.6733 59.3089 72.61 59.5356 72.53C59.7689 72.4433 59.9356 72.34 60.0356 72.22C60.1356 72.0933 60.1856 71.95 60.1856 71.79C60.1856 71.6633 60.1556 71.5467 60.0956 71.44C60.0422 71.3267 59.9522 71.2333 59.8256 71.16C59.6989 71.0867 59.5356 71.05 59.3356 71.05C59.0956 71.05 58.8522 71.11 58.6056 71.23C58.3656 71.3433 58.1289 71.4967 57.8956 71.69C57.6622 71.8767 57.4389 72.0867 57.2256 72.32C57.0189 72.5533 56.8322 72.7867 56.6656 73.02L55.1656 72.85C55.4256 72.43 55.7189 72.0267 56.0456 71.64C56.3722 71.2533 56.7222 70.9133 57.0956 70.62C57.4689 70.32 57.8556 70.0833 58.2556 69.91C58.6556 69.7367 59.0622 69.65 59.4756 69.65C59.9222 69.65 60.3022 69.7367 60.6156 69.91C60.9289 70.0833 61.1689 70.3233 61.3356 70.63C61.5022 70.9367 61.5856 71.29 61.5856 71.69C61.5856 72.1767 61.4456 72.6067 61.1656 72.98C60.8922 73.3533 60.4489 73.6467 59.8356 73.86C59.2289 74.0733 58.4222 74.18 57.4156 74.18ZM62.2746 74.05L62.3746 72.66C62.6346 72.6667 62.8746 72.6633 63.0946 72.65C63.3146 72.6367 63.5113 72.6167 63.6846 72.59C63.8646 72.5633 64.0213 72.5333 64.1546 72.5C64.2946 72.4667 64.4113 72.4367 64.5046 72.41C64.7313 72.3367 64.9246 72.25 65.0846 72.15C65.2446 72.0433 65.368 71.9233 65.4546 71.79C65.5413 71.6567 65.5846 71.5133 65.5846 71.36C65.5846 71.24 65.558 71.12 65.5046 71C65.458 70.8733 65.388 70.77 65.2946 70.69C65.2013 70.61 65.0913 70.57 64.9646 70.57C64.8446 70.57 64.7346 70.6067 64.6346 70.68C64.5346 70.7533 64.4546 70.8533 64.3946 70.98C64.3346 71.1 64.3046 71.24 64.3046 71.4C64.3046 71.54 64.338 71.6733 64.4046 71.8C64.4713 71.92 64.5646 72.0367 64.6846 72.15C64.8046 72.2633 64.948 72.37 65.1146 72.47L63.7846 72.98C63.638 72.84 63.498 72.69 63.3646 72.53C63.238 72.37 63.1313 72.19 63.0446 71.99C62.9646 71.7833 62.9246 71.5533 62.9246 71.3C62.9246 70.9933 62.9846 70.7133 63.1046 70.46C63.2246 70.2067 63.3846 69.99 63.5846 69.81C63.7846 69.6233 64.008 69.48 64.2546 69.38C64.5013 69.28 64.748 69.23 64.9946 69.23C65.3946 69.23 65.7413 69.3233 66.0346 69.51C66.328 69.6967 66.5546 69.94 66.7146 70.24C66.8813 70.54 66.9646 70.8667 66.9646 71.22C66.9646 71.5467 66.9046 71.84 66.7846 72.1C66.6646 72.3533 66.5013 72.58 66.2946 72.78C66.0946 72.9733 65.8713 73.1433 65.6246 73.29C65.3846 73.4367 65.1413 73.56 64.8946 73.66C64.7746 73.7133 64.6246 73.7633 64.4446 73.81C64.2646 73.8567 64.0613 73.9 63.8346 73.94C63.608 73.9733 63.3646 74 63.1046 74.02C62.8446 74.04 62.568 74.05 62.2746 74.05ZM67.5546 74.05C67.168 74.05 66.788 74.03 66.4146 73.99C66.0413 73.95 65.6946 73.89 65.3746 73.81C65.0613 73.73 64.788 73.6333 64.5546 73.52L65.2446 72.44C65.4446 72.4933 65.678 72.5367 65.9446 72.57C66.218 72.5967 66.5013 72.6167 66.7946 72.63C67.0946 72.6433 67.3813 72.65 67.6546 72.65C67.908 72.65 68.088 72.7167 68.1946 72.85C68.308 72.9767 68.3646 73.1367 68.3646 73.33C68.3646 73.5367 68.2946 73.71 68.1546 73.85C68.0146 73.9833 67.8146 74.05 67.5546 74.05ZM65.0046 68.3C64.798 68.3 64.6213 68.23 64.4746 68.09C64.3346 67.95 64.2646 67.7767 64.2646 67.57C64.2646 67.3633 64.3346 67.1867 64.4746 67.04C64.6213 66.8933 64.798 66.82 65.0046 66.82C65.2046 66.82 65.3746 66.8933 65.5146 67.04C65.6613 67.1867 65.7346 67.3633 65.7346 67.57C65.7346 67.7767 65.6613 67.95 65.5146 68.09C65.3746 68.23 65.2046 68.3 65.0046 68.3ZM67.5676 74.05L67.6676 72.65C67.9743 72.65 68.1943 72.62 68.3276 72.56C68.4609 72.4933 68.5409 72.3733 68.5676 72.2C68.5943 72.02 68.6009 71.76 68.5876 71.42L68.4076 66.68H69.8176L70.0176 71.52C70.0309 71.9067 70.0143 72.2567 69.9676 72.57C69.9276 72.8767 69.8243 73.14 69.6576 73.36C69.4976 73.58 69.2476 73.75 68.9076 73.87C68.5743 73.99 68.1276 74.05 67.5676 74.05ZM71.3363 74L71.1263 66.68H72.5263L72.7363 74H71.3363Z" fill="#667085"/>
<defs>
<filter id="filter0_d_8334_725" x="0" y="2.34326" width="101.04" height="85.8501" filterUnits="userSpaceOnUse" color-interpolation-filters="sRGB">
<feFlood flood-opacity="0" result="BackgroundImageFix"/>
<feColorMatrix in="SourceAlpha" type="matrix" values="0 0 0 0 0 0 0 0 0 0 0 0 0 0 0 0 0 0 127 0" result="hardAlpha"/>
<feOffset dy="4"/>
<feGaussianBlur stdDeviation="2"/>
<feComposite in2="hardAlpha" operator="out"/>
<feColorMatrix type="matrix" values="0 0 0 0 0 0 0 0 0 0 0 0 0 0 0 0 0 0 0.25 0"/>
<feBlend mode="normal" in2="BackgroundImageFix" result="effect1_dropShadow_8334_725"/>
<feBlend mode="normal" in="SourceGraphic" in2="effect1_dropShadow_8334_725" result="shape"/>
</filter>
</defs>
</svg>
