<svg width="100" height="87" viewBox="0 0 100 87" fill="none" xmlns="http://www.w3.org/2000/svg">
<g filter="url(#filter0_d_8358_581)">
<path d="M5.43525 43.0956C4.64905 41.7858 4.25597 41.1305 4.10211 40.4343C3.96596 39.8181 3.96596 39.1816 4.10211 38.5654C4.25597 37.8692 4.64905 37.2139 5.43525 35.9041L24.4806 4.17068C25.2667 2.86076 25.6598 2.20579 26.2098 1.72945C26.6964 1.30799 27.2696 0.989583 27.8923 0.794964C28.5961 0.574951 29.3823 0.574951 30.9547 0.574951H69.0452C70.6178 0.574951 71.4037 0.574951 72.1078 0.794964C72.7302 0.989583 73.3035 1.30799 73.7903 1.72945C74.3402 2.20579 74.7332 2.86076 75.5195 4.17068L94.5647 35.9041C95.351 37.2139 95.744 37.8692 95.8977 38.5654C96.0341 39.1816 96.0341 39.8181 95.8977 40.4343C95.744 41.1305 95.351 41.7858 94.5647 43.0956L75.5195 74.8292C74.7332 76.139 74.3402 76.7938 73.7903 77.2703C73.3035 77.6919 72.7302 78.0101 72.1078 78.2047C71.4037 78.4249 70.6178 78.4249 69.0452 78.4249H30.9547C29.3823 78.4249 28.5961 78.4249 27.8923 78.2047C27.2696 78.0101 26.6964 77.6919 26.2098 77.2703C25.6598 76.7938 25.2667 76.139 24.4806 74.8292L5.43525 43.0956Z" fill="white"/>
</g>
<path d="M60.375 33.7H41.625C41.625 33.7 39.75 33.6375 39.75 28.7H62.25C62.25 33.6375 60.375 33.7 60.375 33.7Z" fill="#E08838"/>
<path d="M61 7.44995H41V28.7H61V7.44995Z" fill="#F2BB41"/>
<path d="M57.25 14.95H47.25V16.2H57.25V14.95Z" fill="#E08838"/>
<path d="M57.25 17.45H47.25V18.7H57.25V17.45Z" fill="#E08838"/>
<path d="M57.25 19.95H47.25V21.2H57.25V19.95Z" fill="#E08838"/>
<path d="M57.25 22.45H47.25V23.7H57.25V22.45Z" fill="#E08838"/>
<path d="M57.25 24.95H47.25V26.2H57.25V24.95Z" fill="#E08838"/>
<path d="M46 14.95H44.75V16.2H46V14.95Z" fill="#E08838"/>
<path d="M46 17.45H44.75V18.7H46V17.45Z" fill="#E08838"/>
<path d="M46 19.95H44.75V21.2H46V19.95Z" fill="#E08838"/>
<path d="M46 22.45H44.75V23.7H46V22.45Z" fill="#E08838"/>
<path d="M46 24.95H44.75V26.2H46V24.95Z" fill="#E08838"/>
<path d="M24.866 46.955C25.226 46.955 25.502 46.923 25.694 46.859C25.886 46.795 26.018 46.711 26.09 46.607C26.162 46.503 26.198 46.391 26.198 46.271C26.198 46.079 26.142 45.855 26.03 45.599C25.926 45.343 25.794 45.075 25.634 44.795C25.474 44.515 25.306 44.247 25.13 43.991C24.962 43.735 24.81 43.511 24.674 43.319L26.102 42.371C26.446 42.835 26.742 43.295 26.99 43.751C27.238 44.199 27.438 44.615 27.59 44.999C27.75 45.383 27.862 45.711 27.926 45.983C27.99 46.239 28.086 46.439 28.214 46.583C28.35 46.719 28.506 46.815 28.682 46.871C28.858 46.927 29.034 46.955 29.21 46.955C29.514 46.955 29.73 47.035 29.858 47.195C29.994 47.347 30.062 47.539 30.062 47.771C30.062 48.019 29.978 48.227 29.81 48.395C29.65 48.555 29.41 48.635 29.09 48.635C28.738 48.635 28.43 48.587 28.166 48.491C27.902 48.395 27.678 48.243 27.494 48.035C27.31 47.827 27.154 47.563 27.026 47.243L27.758 47.399C27.694 47.623 27.546 47.831 27.314 48.023C27.09 48.207 26.79 48.359 26.414 48.479C26.046 48.591 25.61 48.647 25.106 48.647C24.866 48.647 24.598 48.627 24.302 48.587C24.014 48.547 23.726 48.487 23.438 48.407C23.158 48.327 22.902 48.223 22.67 48.095L23.258 46.571C23.554 46.699 23.838 46.795 24.11 46.859C24.39 46.923 24.642 46.955 24.866 46.955ZM29.1055 48.635L29.2255 46.955C29.6015 46.955 29.8895 46.951 30.0895 46.943C30.2975 46.935 30.4535 46.927 30.5575 46.919C30.6615 46.903 30.7495 46.891 30.8215 46.883C30.7415 46.803 30.6375 46.687 30.5095 46.535C30.3815 46.383 30.2655 46.187 30.1615 45.947C30.0655 45.707 30.0175 45.419 30.0175 45.083C30.0175 44.595 30.1415 44.167 30.3895 43.799C30.6455 43.431 30.9895 43.143 31.4215 42.935C31.8535 42.727 32.3375 42.623 32.8735 42.623C33.1295 42.623 33.3655 42.639 33.5815 42.671C33.8055 42.703 34.0295 42.751 34.2535 42.815L33.9895 44.411C33.8295 44.371 33.6615 44.339 33.4855 44.315C33.3095 44.291 33.1535 44.279 33.0175 44.279C32.7535 44.279 32.5215 44.323 32.3215 44.411C32.1295 44.491 31.9775 44.607 31.8655 44.759C31.7615 44.903 31.7095 45.079 31.7095 45.287C31.7095 45.423 31.7335 45.551 31.7815 45.671C31.8375 45.791 31.9055 45.899 31.9855 45.995C32.0655 46.091 32.1535 46.175 32.2495 46.247C32.3455 46.319 32.4375 46.379 32.5255 46.427C32.6215 46.467 32.7015 46.495 32.7655 46.511C32.9655 46.455 33.1375 46.407 33.2815 46.367C33.4335 46.319 33.5775 46.275 33.7135 46.235C33.8575 46.187 34.0135 46.127 34.1815 46.055C34.3495 45.983 34.5575 45.895 34.8055 45.791L35.3455 47.375C34.6735 47.703 34.0175 47.959 33.3775 48.143C32.7375 48.327 32.0735 48.455 31.3855 48.527C30.6975 48.599 29.9375 48.635 29.1055 48.635ZM36.7452 48.575L36.4932 39.791H38.1732L38.4252 48.575H36.7452ZM39.7504 51.335L39.4024 49.655C39.9704 49.583 40.4664 49.495 40.8904 49.391C41.3144 49.295 41.6704 49.159 41.9584 48.983C42.2464 48.807 42.4624 48.567 42.6064 48.263C42.7504 47.951 42.8224 47.551 42.8224 47.063C42.8224 46.591 42.7504 46.215 42.6064 45.935C42.4624 45.655 42.2704 45.515 42.0304 45.515C41.8624 45.515 41.7224 45.575 41.6104 45.695C41.4984 45.807 41.4144 45.943 41.3584 46.103C41.3104 46.255 41.2864 46.391 41.2864 46.511C41.2864 46.583 41.3064 46.659 41.3464 46.739C41.3864 46.819 41.4744 46.887 41.6104 46.943C41.7464 46.999 41.9584 47.031 42.2464 47.039C42.5424 47.047 42.9424 47.019 43.4464 46.955H45.4624C45.7664 46.955 45.9824 47.035 46.1104 47.195C46.2464 47.347 46.3144 47.539 46.3144 47.771C46.3144 48.019 46.2304 48.227 46.0624 48.395C45.8944 48.555 45.6544 48.635 45.3424 48.635H42.0424C41.5384 48.635 41.1064 48.575 40.7464 48.455C40.3864 48.335 40.1104 48.143 39.9184 47.879C39.7264 47.607 39.6304 47.247 39.6304 46.799C39.6304 46.439 39.6904 46.079 39.8104 45.719C39.9384 45.359 40.1144 45.031 40.3384 44.735C40.5624 44.431 40.8224 44.191 41.1184 44.015C41.4224 43.831 41.7504 43.739 42.1024 43.739C42.5824 43.739 43.0024 43.887 43.3624 44.183C43.7224 44.479 44.0024 44.871 44.2024 45.359C44.4104 45.847 44.5144 46.379 44.5144 46.955C44.5144 47.859 44.3224 48.627 43.9384 49.259C43.5544 49.891 43.0064 50.379 42.2944 50.723C41.5824 51.075 40.7344 51.279 39.7504 51.335ZM45.3594 48.635L45.4794 46.967C45.7914 46.975 46.0794 46.971 46.3434 46.955C46.6074 46.939 46.8434 46.915 47.0514 46.883C47.2674 46.851 47.4554 46.815 47.6154 46.775C47.7834 46.735 47.9234 46.699 48.0354 46.667C48.3074 46.579 48.5394 46.475 48.7314 46.355C48.9234 46.227 49.0714 46.083 49.1754 45.923C49.2794 45.763 49.3314 45.591 49.3314 45.407C49.3314 45.263 49.2994 45.119 49.2354 44.975C49.1794 44.823 49.0954 44.699 48.9834 44.603C48.8714 44.507 48.7394 44.459 48.5874 44.459C48.4434 44.459 48.3114 44.503 48.1914 44.591C48.0714 44.679 47.9754 44.799 47.9034 44.951C47.8314 45.095 47.7954 45.263 47.7954 45.455C47.7954 45.623 47.8354 45.783 47.9154 45.935C47.9954 46.079 48.1074 46.219 48.2514 46.355C48.3954 46.491 48.5674 46.619 48.7674 46.739L47.1714 47.351C46.9954 47.183 46.8274 47.003 46.6674 46.811C46.5154 46.619 46.3874 46.403 46.2834 46.163C46.1874 45.915 46.1394 45.639 46.1394 45.335C46.1394 44.967 46.2114 44.631 46.3554 44.327C46.4994 44.023 46.6914 43.763 46.9314 43.547C47.1714 43.323 47.4394 43.151 47.7354 43.031C48.0314 42.911 48.3274 42.851 48.6234 42.851C49.1034 42.851 49.5194 42.963 49.8714 43.187C50.2234 43.411 50.4954 43.703 50.6874 44.063C50.8874 44.423 50.9874 44.815 50.9874 45.239C50.9874 45.631 50.9154 45.983 50.7714 46.295C50.6274 46.599 50.4314 46.871 50.1834 47.111C49.9434 47.343 49.6754 47.547 49.3794 47.723C49.0914 47.899 48.7994 48.047 48.5034 48.167C48.3594 48.231 48.1794 48.291 47.9634 48.347C47.7474 48.403 47.5034 48.455 47.2314 48.503C46.9594 48.543 46.6674 48.575 46.3554 48.599C46.0434 48.623 45.7114 48.635 45.3594 48.635ZM51.6954 48.635C51.2314 48.635 50.7754 48.611 50.3274 48.563C49.8794 48.515 49.4634 48.443 49.0794 48.347C48.7034 48.251 48.3754 48.135 48.0954 47.999L48.9234 46.703C49.1634 46.767 49.4434 46.819 49.7634 46.859C50.0914 46.891 50.4314 46.915 50.7834 46.931C51.1434 46.947 51.4874 46.955 51.8154 46.955C52.1194 46.955 52.3354 47.035 52.4634 47.195C52.5994 47.347 52.6674 47.539 52.6674 47.771C52.6674 48.019 52.5834 48.227 52.4154 48.395C52.2474 48.555 52.0074 48.635 51.6954 48.635ZM49.6794 41.759C49.4474 41.759 49.2474 41.679 49.0794 41.519C48.9194 41.351 48.8394 41.155 48.8394 40.931C48.8394 40.699 48.9194 40.499 49.0794 40.331C49.2474 40.163 49.4474 40.079 49.6794 40.079C49.9034 40.079 50.0954 40.163 50.2554 40.331C50.4154 40.499 50.4954 40.699 50.4954 40.931C50.4954 41.155 50.4154 41.351 50.2554 41.519C50.0954 41.679 49.9034 41.759 49.6794 41.759ZM47.6034 41.747C47.3714 41.747 47.1714 41.667 47.0034 41.507C46.8434 41.339 46.7634 41.143 46.7634 40.919C46.7634 40.687 46.8434 40.487 47.0034 40.319C47.1714 40.151 47.3714 40.067 47.6034 40.067C47.8274 40.067 48.0194 40.151 48.1794 40.319C48.3394 40.487 48.4194 40.687 48.4194 40.919C48.4194 41.143 48.3394 41.339 48.1794 41.507C48.0194 41.667 47.8274 41.747 47.6034 41.747ZM51.7109 48.635L51.8309 46.955C52.1989 46.955 52.4629 46.919 52.6229 46.847C52.7829 46.767 52.8789 46.623 52.9109 46.415C52.9429 46.199 52.9509 45.887 52.9349 45.479L52.7189 39.791H54.4109L54.6509 45.599C54.6669 46.063 54.6469 46.483 54.5909 46.859C54.5429 47.227 54.4189 47.543 54.2189 47.807C54.0269 48.071 53.7269 48.275 53.3189 48.419C52.9189 48.563 52.3829 48.635 51.7109 48.635ZM56.2334 48.575L55.9814 39.791H57.6614L57.9134 48.575H56.2334ZM65.619 53.303C65.091 53.303 64.595 53.247 64.131 53.135C63.667 53.023 63.259 52.851 62.907 52.619C62.563 52.387 62.291 52.087 62.091 51.719C61.899 51.351 61.803 50.915 61.803 50.411C61.803 49.891 61.911 49.431 62.127 49.031C62.343 48.639 62.619 48.295 62.955 47.999C63.291 47.695 63.647 47.423 64.023 47.183C64.407 46.935 64.767 46.699 65.103 46.475C65.439 46.251 65.715 46.023 65.931 45.791C66.147 45.551 66.255 45.287 66.255 44.999C66.255 44.895 66.227 44.799 66.171 44.711C66.123 44.615 66.039 44.539 65.919 44.483C65.807 44.419 65.647 44.387 65.439 44.387C65.303 44.387 65.163 44.403 65.019 44.435C64.875 44.459 64.735 44.495 64.599 44.543C64.463 44.583 64.335 44.635 64.215 44.699C64.423 44.867 64.627 45.055 64.827 45.263C65.035 45.463 65.223 45.659 65.391 45.851C65.567 46.035 65.703 46.195 65.799 46.331C65.983 46.427 66.183 46.515 66.399 46.595C66.615 46.667 66.843 46.731 67.083 46.787C67.331 46.843 67.587 46.887 67.851 46.919C68.115 46.943 68.387 46.955 68.667 46.955C68.971 46.955 69.187 47.035 69.315 47.195C69.443 47.347 69.507 47.539 69.507 47.771C69.507 48.019 69.423 48.227 69.255 48.395C69.087 48.555 68.851 48.635 68.547 48.635C67.883 48.635 67.315 48.587 66.843 48.491C66.379 48.395 65.959 48.251 65.583 48.059C65.215 47.859 64.835 47.615 64.443 47.327C64.347 47.159 64.207 46.975 64.023 46.775C63.839 46.567 63.651 46.371 63.459 46.187C63.275 46.003 63.119 45.859 62.991 45.755C62.967 45.731 62.927 45.651 62.871 45.515C62.815 45.371 62.763 45.219 62.715 45.059C62.675 44.899 62.655 44.787 62.655 44.723C62.655 44.563 62.731 44.383 62.883 44.183C63.035 43.975 63.247 43.779 63.519 43.595C63.799 43.403 64.123 43.247 64.491 43.127C64.859 42.999 65.259 42.935 65.691 42.935C66.475 42.935 67.039 43.103 67.383 43.439C67.735 43.767 67.911 44.191 67.911 44.711C67.911 45.191 67.803 45.619 67.587 45.995C67.379 46.371 67.107 46.715 66.771 47.027C66.435 47.339 66.079 47.627 65.703 47.891C65.335 48.155 64.983 48.411 64.647 48.659C64.311 48.915 64.035 49.171 63.819 49.427C63.611 49.691 63.507 49.975 63.507 50.279C63.507 50.535 63.571 50.747 63.699 50.915C63.835 51.091 64.007 51.231 64.215 51.335C64.423 51.439 64.651 51.511 64.899 51.551C65.155 51.599 65.403 51.623 65.643 51.623C65.891 51.623 66.147 51.603 66.411 51.563C66.683 51.523 66.963 51.459 67.251 51.371C67.547 51.291 67.851 51.187 68.163 51.059L68.667 52.499C68.363 52.659 68.039 52.799 67.695 52.919C67.351 53.047 67.003 53.143 66.651 53.207C66.299 53.271 65.955 53.303 65.619 53.303ZM68.5508 48.635L68.6708 46.955C68.9748 46.955 69.2148 46.927 69.3908 46.871C69.5748 46.815 69.7188 46.703 69.8228 46.535C69.9348 46.359 70.0268 46.103 70.0988 45.767C70.1788 45.431 70.2588 44.983 70.3388 44.423L71.9108 44.687C71.8948 44.807 71.8708 44.947 71.8388 45.107C71.8148 45.267 71.7908 45.431 71.7668 45.599C71.7508 45.759 71.7428 45.911 71.7428 46.055C71.7428 46.247 71.7828 46.411 71.8628 46.547C71.9508 46.675 72.1028 46.775 72.3188 46.847C72.5428 46.919 72.8628 46.955 73.2788 46.955C73.5828 46.955 73.7988 47.035 73.9268 47.195C74.0548 47.347 74.1188 47.539 74.1188 47.771C74.1188 48.019 74.0348 48.227 73.8668 48.395C73.7068 48.555 73.4708 48.635 73.1588 48.635C72.6068 48.635 72.1588 48.583 71.8148 48.479C71.4708 48.375 71.2148 48.199 71.0468 47.951C70.8788 47.703 70.7708 47.363 70.7228 46.931H71.2988C71.1548 47.315 70.9868 47.623 70.7948 47.855C70.6028 48.079 70.3868 48.247 70.1468 48.359C69.9068 48.471 69.6508 48.543 69.3788 48.575C69.1148 48.615 68.8388 48.635 68.5508 48.635ZM70.6868 51.395C70.4548 51.395 70.2548 51.315 70.0868 51.155C69.9268 50.995 69.8468 50.799 69.8468 50.567C69.8468 50.335 69.9268 50.131 70.0868 49.955C70.2548 49.787 70.4548 49.703 70.6868 49.703C70.9188 49.703 71.1148 49.787 71.2748 49.955C71.4428 50.131 71.5268 50.335 71.5268 50.567C71.5268 50.799 71.4428 50.995 71.2748 51.155C71.1148 51.315 70.9188 51.395 70.6868 51.395ZM73.1562 48.635L73.2763 46.955C73.7563 46.955 74.1243 46.931 74.3803 46.883C74.6363 46.835 74.8123 46.747 74.9083 46.619C75.0123 46.483 75.0643 46.291 75.0643 46.043C75.0643 45.819 75.0323 45.551 74.9683 45.239C74.9123 44.927 74.8363 44.603 74.7402 44.267C74.6523 43.931 74.5563 43.623 74.4523 43.343L76.1083 42.887C76.2123 43.159 76.3123 43.475 76.4083 43.835C76.5043 44.195 76.5843 44.567 76.6483 44.951C76.7123 45.327 76.7443 45.691 76.7443 46.043C76.7443 46.587 76.6563 47.031 76.4803 47.375C76.3043 47.711 76.0563 47.971 75.7363 48.155C75.4243 48.339 75.0483 48.467 74.6083 48.539C74.1683 48.603 73.6842 48.635 73.1562 48.635ZM76.4083 41.915C76.1763 41.915 75.9763 41.835 75.8083 41.675C75.6483 41.507 75.5683 41.311 75.5683 41.087C75.5683 40.855 75.6483 40.655 75.8083 40.487C75.9763 40.319 76.1763 40.235 76.4083 40.235C76.6323 40.235 76.8243 40.319 76.9843 40.487C77.1443 40.655 77.2243 40.855 77.2243 41.087C77.2243 41.311 77.1443 41.507 76.9843 41.675C76.8243 41.835 76.6323 41.915 76.4083 41.915ZM74.3323 41.903C74.1003 41.903 73.9003 41.823 73.7323 41.663C73.5723 41.495 73.4923 41.299 73.4923 41.075C73.4923 40.843 73.5723 40.643 73.7323 40.475C73.9003 40.307 74.1003 40.223 74.3323 40.223C74.5563 40.223 74.7483 40.307 74.9083 40.475C75.0683 40.643 75.1483 40.843 75.1483 41.075C75.1483 41.299 75.0683 41.495 74.9083 41.663C74.7483 41.823 74.5563 41.903 74.3323 41.903ZM78.4288 48.575L78.1768 39.791H79.8568L80.1088 48.575H78.4288Z" fill="black"/>
<path d="M33.1572 64.575L36.5872 58.005L36.6072 58.445H32.7572V57.525H37.5572V58.325L34.3172 64.575H33.1572ZM41.1575 64.295C41.1575 64.1416 41.1708 63.9616 41.1975 63.755C41.2241 63.5483 41.2741 63.315 41.3475 63.055C41.4208 62.7883 41.5308 62.4916 41.6775 62.165L42.9075 62.595C42.8341 62.8016 42.7708 62.9916 42.7175 63.165C42.6641 63.3316 42.6241 63.4883 42.5975 63.635C42.5708 63.775 42.5575 63.915 42.5575 64.055C42.5575 64.355 42.6308 64.615 42.7775 64.835C42.9308 65.0616 43.1375 65.235 43.3975 65.355C43.6641 65.4816 43.9708 65.545 44.3175 65.545C44.8841 65.545 45.3175 65.4516 45.6175 65.265C45.9241 65.085 46.1308 64.7983 46.2375 64.405C46.3508 64.005 46.3941 63.4883 46.3675 62.855L46.1675 57.255H47.5775L47.7275 61.985C47.7408 62.3183 47.7875 62.575 47.8675 62.755C47.9475 62.935 48.0708 63.0583 48.2375 63.125C48.4108 63.1916 48.6341 63.225 48.9075 63.225C49.1608 63.225 49.3408 63.2916 49.4475 63.425C49.5541 63.5516 49.6075 63.7116 49.6075 63.905C49.6075 64.1116 49.5375 64.285 49.3975 64.425C49.2575 64.5583 49.0608 64.625 48.8075 64.625C48.6608 64.625 48.5041 64.605 48.3375 64.565C48.1708 64.525 48.0108 64.4616 47.8575 64.375C47.7041 64.2883 47.5708 64.175 47.4575 64.035C47.3441 63.8883 47.2675 63.7083 47.2275 63.495L47.7675 63.225C47.7675 63.8983 47.6875 64.4683 47.5275 64.935C47.3741 65.4016 47.1475 65.7783 46.8475 66.065C46.5541 66.3516 46.1908 66.5583 45.7575 66.685C45.3308 66.8183 44.8375 66.885 44.2775 66.885C43.8508 66.885 43.4475 66.8316 43.0675 66.725C42.6941 66.6183 42.3641 66.4583 42.0775 66.245C41.7908 66.0316 41.5641 65.7616 41.3975 65.435C41.2375 65.115 41.1575 64.735 41.1575 64.295ZM58.8376 64.625C58.4976 64.625 58.171 64.595 57.8576 64.535C57.5443 64.4683 57.261 64.3816 57.0076 64.275C56.761 64.1683 56.5576 64.0483 56.3976 63.915L57.2976 62.945C57.5376 63.045 57.7843 63.1183 58.0376 63.165C58.291 63.205 58.591 63.225 58.9376 63.225C59.191 63.225 59.371 63.2916 59.4776 63.425C59.591 63.5516 59.6476 63.7116 59.6476 63.905C59.6476 64.1116 59.5776 64.285 59.4376 64.425C59.2976 64.5583 59.0976 64.625 58.8376 64.625ZM53.9876 64.755C53.3676 64.755 52.851 64.7283 52.4376 64.675C52.031 64.6216 51.701 64.545 51.4476 64.445C51.1943 64.345 50.9943 64.225 50.8476 64.085C50.701 63.945 50.581 63.7916 50.4876 63.625L50.7676 63.545C50.601 63.865 50.411 64.1016 50.1976 64.255C49.9843 64.4083 49.761 64.5083 49.5276 64.555C49.2943 64.6016 49.0543 64.625 48.8076 64.625L48.9076 63.225C49.1143 63.225 49.2776 63.1916 49.3976 63.125C49.5176 63.0583 49.6143 62.9483 49.6876 62.795C49.7676 62.6416 49.841 62.4383 49.9076 62.185C49.9743 61.9316 50.0543 61.6216 50.1476 61.255L51.4176 61.565C51.371 61.745 51.331 61.9016 51.2976 62.035C51.271 62.1683 51.2476 62.285 51.2276 62.385C51.2143 62.4783 51.2076 62.555 51.2076 62.615C51.2076 62.7416 51.2376 62.855 51.2976 62.955C51.3576 63.0483 51.4743 63.125 51.6476 63.185C51.821 63.2383 52.0743 63.2816 52.4076 63.315C52.7476 63.3416 53.191 63.355 53.7376 63.355C54.3176 63.355 54.801 63.335 55.1876 63.295C55.5743 63.2483 55.881 63.185 56.1076 63.105C56.341 63.0183 56.5076 62.915 56.6076 62.795C56.7076 62.6683 56.7576 62.525 56.7576 62.365C56.7576 62.2383 56.7276 62.1216 56.6676 62.015C56.6143 61.9016 56.5243 61.8083 56.3976 61.735C56.271 61.6616 56.1076 61.625 55.9076 61.625C55.6676 61.625 55.4243 61.685 55.1776 61.805C54.9376 61.9183 54.701 62.0716 54.4676 62.265C54.2343 62.4516 54.011 62.6616 53.7976 62.895C53.591 63.1283 53.4043 63.3616 53.2376 63.595L51.7376 63.425C51.9976 63.005 52.291 62.6016 52.6176 62.215C52.9443 61.8283 53.2943 61.4883 53.6676 61.195C54.041 60.895 54.4276 60.6583 54.8276 60.485C55.2276 60.3116 55.6343 60.225 56.0476 60.225C56.4943 60.225 56.8743 60.3116 57.1876 60.485C57.501 60.6583 57.741 60.8983 57.9076 61.205C58.0743 61.5116 58.1576 61.865 58.1576 62.265C58.1576 62.7516 58.0176 63.1816 57.7376 63.555C57.4643 63.9283 57.021 64.2216 56.4076 64.435C55.801 64.6483 54.9943 64.755 53.9876 64.755ZM58.8467 64.625L58.9467 63.235C59.2067 63.2416 59.4467 63.2383 59.6667 63.225C59.8867 63.2116 60.0833 63.1916 60.2567 63.165C60.4367 63.1383 60.5933 63.1083 60.7267 63.075C60.8667 63.0416 60.9833 63.0116 61.0767 62.985C61.3033 62.9116 61.4967 62.825 61.6567 62.725C61.8167 62.6183 61.94 62.4983 62.0267 62.365C62.1133 62.2316 62.1567 62.0883 62.1567 61.935C62.1567 61.815 62.13 61.695 62.0767 61.575C62.03 61.4483 61.96 61.345 61.8667 61.265C61.7733 61.185 61.6633 61.145 61.5367 61.145C61.4167 61.145 61.3067 61.1816 61.2067 61.255C61.1067 61.3283 61.0267 61.4283 60.9667 61.555C60.9067 61.675 60.8767 61.815 60.8767 61.975C60.8767 62.115 60.91 62.2483 60.9767 62.375C61.0433 62.495 61.1367 62.6116 61.2567 62.725C61.3767 62.8383 61.52 62.945 61.6867 63.045L60.3567 63.555C60.21 63.415 60.07 63.265 59.9367 63.105C59.81 62.945 59.7033 62.765 59.6167 62.565C59.5367 62.3583 59.4967 62.1283 59.4967 61.875C59.4967 61.5683 59.5567 61.2883 59.6767 61.035C59.7967 60.7816 59.9567 60.565 60.1567 60.385C60.3567 60.1983 60.58 60.055 60.8267 59.955C61.0733 59.855 61.32 59.805 61.5667 59.805C61.9667 59.805 62.3133 59.8983 62.6067 60.085C62.9 60.2716 63.1267 60.515 63.2867 60.815C63.4533 61.115 63.5367 61.4416 63.5367 61.795C63.5367 62.1216 63.4767 62.415 63.3567 62.675C63.2367 62.9283 63.0733 63.155 62.8667 63.355C62.6667 63.5483 62.4433 63.7183 62.1967 63.865C61.9567 64.0116 61.7133 64.135 61.4667 64.235C61.3467 64.2883 61.1967 64.3383 61.0167 64.385C60.8367 64.4316 60.6333 64.475 60.4067 64.515C60.18 64.5483 59.9367 64.575 59.6767 64.595C59.4167 64.615 59.14 64.625 58.8467 64.625ZM64.1267 64.625C63.74 64.625 63.36 64.605 62.9867 64.565C62.6133 64.525 62.2667 64.465 61.9467 64.385C61.6333 64.305 61.36 64.2083 61.1267 64.095L61.8167 63.015C62.0167 63.0683 62.25 63.1116 62.5167 63.145C62.79 63.1716 63.0733 63.1916 63.3667 63.205C63.6667 63.2183 63.9533 63.225 64.2267 63.225C64.48 63.225 64.66 63.2916 64.7667 63.425C64.88 63.5516 64.9367 63.7116 64.9367 63.905C64.9367 64.1116 64.8667 64.285 64.7267 64.425C64.5867 64.5583 64.3867 64.625 64.1267 64.625ZM61.5767 58.875C61.37 58.875 61.1933 58.805 61.0467 58.665C60.9067 58.525 60.8367 58.3516 60.8367 58.145C60.8367 57.9383 60.9067 57.7616 61.0467 57.615C61.1933 57.4683 61.37 57.395 61.5767 57.395C61.7767 57.395 61.9467 57.4683 62.0867 57.615C62.2333 57.7616 62.3067 57.9383 62.3067 58.145C62.3067 58.3516 62.2333 58.525 62.0867 58.665C61.9467 58.805 61.7767 58.875 61.5767 58.875ZM64.1396 64.625L64.2396 63.225C64.5463 63.225 64.7663 63.195 64.8996 63.135C65.033 63.0683 65.113 62.9483 65.1396 62.775C65.1663 62.595 65.173 62.335 65.1596 61.995L64.9796 57.255H66.3896L66.5896 62.095C66.603 62.4816 66.5863 62.8316 66.5396 63.145C66.4996 63.4516 66.3963 63.715 66.2296 63.935C66.0696 64.155 65.8196 64.325 65.4796 64.445C65.1463 64.565 64.6996 64.625 64.1396 64.625ZM67.9084 64.575L67.6984 57.255H69.0984L69.3084 64.575H67.9084Z" fill="#667085"/>
<defs>
<filter id="filter0_d_8358_581" x="0" y="0.574951" width="100" height="85.8501" filterUnits="userSpaceOnUse" color-interpolation-filters="sRGB">
<feFlood flood-opacity="0" result="BackgroundImageFix"/>
<feColorMatrix in="SourceAlpha" type="matrix" values="0 0 0 0 0 0 0 0 0 0 0 0 0 0 0 0 0 0 127 0" result="hardAlpha"/>
<feOffset dy="4"/>
<feGaussianBlur stdDeviation="2"/>
<feComposite in2="hardAlpha" operator="out"/>
<feColorMatrix type="matrix" values="0 0 0 0 0 0 0 0 0 0 0 0 0 0 0 0 0 0 0.25 0"/>
<feBlend mode="normal" in2="BackgroundImageFix" result="effect1_dropShadow_8358_581"/>
<feBlend mode="normal" in="SourceGraphic" in2="effect1_dropShadow_8358_581" result="shape"/>
</filter>
</defs>
</svg>
