<svg width="96" height="86" viewBox="0 0 96 86" fill="none" xmlns="http://www.w3.org/2000/svg">
<g filter="url(#filter0_d_8339_572)">
<path d="M5.37285 42.6152C4.62083 41.3055 4.24484 40.6502 4.09767 39.9541C3.96744 39.3379 3.96744 38.7015 4.09767 38.0853C4.24484 37.3891 4.62083 36.7338 5.37285 35.4241L23.5901 3.69223C24.3421 2.38237 24.7181 1.72744 25.2442 1.25112C25.7096 0.829677 26.2579 0.511291 26.8535 0.316682C27.5267 0.0966795 28.2787 0.0966797 29.7827 0.0966797H66.2171C67.7214 0.0966797 68.4731 0.0966795 69.1466 0.316682C69.7419 0.511291 70.2903 0.829677 70.756 1.25112C71.282 1.72744 71.6578 2.38237 72.41 3.69223L90.6271 35.4241C91.3792 36.7338 91.7551 37.3891 91.9021 38.0853C92.0326 38.7015 92.0326 39.3379 91.9021 39.9541C91.7551 40.6502 91.3792 41.3055 90.6271 42.6152L72.41 74.3473C71.6578 75.657 71.282 76.3118 70.756 76.7882C70.2903 77.2098 69.7419 77.528 69.1466 77.7226C68.4731 77.9428 67.7214 77.9428 66.2171 77.9428H29.7827C28.2787 77.9428 27.5267 77.9428 26.8535 77.7226C26.2579 77.528 25.7096 77.2098 25.2442 76.7882C24.7181 76.3118 24.3421 75.657 23.5901 74.3473L5.37285 42.6152Z" fill="white"/>
</g>
<g clip-path="url(#clip0_8339_572)">
<path d="M55.4134 10.8311C54.6686 7.47093 53.9238 4.1108 53.1786 0.750732C51.921 0.750732 50.6635 0.750732 49.4061 0.750732C49.5858 4.11087 49.7658 7.47101 49.9456 10.8311H55.4134Z" fill="#F2BB41"/>
<path d="M50.2325 16.1951C50.4691 20.611 50.7054 25.0268 50.9416 29.4427C53.8072 29.4427 56.6728 29.4427 59.5384 29.4427C58.5594 25.0268 57.5809 20.611 56.6024 16.1951H50.2325Z" fill="#F2BB41"/>
<path d="M47.0039 0.750732C45.7464 0.750732 44.4888 0.750732 43.2315 0.750732C42.4866 4.1108 41.7422 7.47093 40.9974 10.8311H46.4649C46.6444 7.47093 46.824 4.1108 47.0039 0.750732Z" fill="#F2BB41"/>
<path d="M36.8717 29.4427C39.7375 29.4427 42.6029 29.4427 45.4685 29.4427C45.7056 25.0268 45.9419 20.611 46.1778 16.1951H39.8087C38.83 20.611 37.8512 25.0269 36.8717 29.4427Z" fill="#F2BB41"/>
<path d="M62.8569 12.2239H33.5532C33.3609 12.2239 33.2051 12.3797 33.2051 12.572V14.4541C33.2051 14.6464 33.3609 14.8023 33.5532 14.8023H35.4374V17.6214C35.4374 17.8137 35.5932 17.9696 35.7855 17.9696H37.6658C37.8251 17.9696 37.964 17.8614 38.0031 17.7072L38.7417 14.8024H57.6684L58.4068 17.7072C58.4459 17.8616 58.585 17.9696 58.7443 17.9696H60.6243C60.8168 17.9696 60.9725 17.8137 60.9725 17.6214V14.8023H62.8568C63.0491 14.8023 63.205 14.6464 63.205 14.4541V12.572C63.2051 12.3797 63.0491 12.2239 62.8569 12.2239Z" fill="#F2BB41"/>
</g>
<path d="M34.4107 46.3607C33.8747 46.3607 33.3707 46.3007 32.8987 46.1807C32.4347 46.0687 32.0227 45.8887 31.6627 45.6407C31.3107 45.4007 31.0347 45.0847 30.8347 44.6927C30.6347 44.3087 30.5347 43.8447 30.5347 43.3007C30.5347 43.1167 30.5467 42.9087 30.5707 42.6767C30.6027 42.4447 30.6667 42.1687 30.7627 41.8487C30.8587 41.5207 31.0067 41.1407 31.2067 40.7087L32.6707 41.2727C32.5587 41.5607 32.4667 41.8047 32.3947 42.0047C32.3307 42.1967 32.2827 42.3727 32.2507 42.5327C32.2267 42.6847 32.2147 42.8447 32.2147 43.0127C32.2147 43.3647 32.3147 43.6647 32.5147 43.9127C32.7147 44.1687 32.9987 44.3607 33.3667 44.4887C33.7427 44.6167 34.1867 44.6807 34.6987 44.6807C35.0507 44.6807 35.3747 44.6527 35.6707 44.5967C35.9747 44.5487 36.2467 44.4767 36.4867 44.3807C36.7267 44.2847 36.9387 44.1727 37.1227 44.0447C37.3067 43.9247 37.4587 43.7887 37.5787 43.6367C37.7067 43.4927 37.7987 43.3447 37.8547 43.1927C37.9267 42.9847 37.9787 42.7527 38.0107 42.4967C38.0427 42.2407 38.0587 41.9727 38.0587 41.6927C38.0587 41.3407 38.0267 41.0447 37.9627 40.8047C37.8987 40.5647 37.8067 40.3847 37.6867 40.2647C37.5667 40.1367 37.4227 40.0727 37.2547 40.0727C37.1427 40.0727 37.0387 40.1007 36.9427 40.1567C36.8547 40.2127 36.7747 40.2847 36.7027 40.3727C36.6387 40.4607 36.5867 40.5567 36.5467 40.6607C36.5147 40.7567 36.4987 40.8527 36.4987 40.9487C36.4987 41.0527 36.5227 41.1487 36.5707 41.2367C36.6187 41.3167 36.7107 41.3847 36.8467 41.4407C36.9907 41.4887 37.2067 41.5207 37.4947 41.5367C37.7827 41.5447 38.1667 41.5247 38.6467 41.4767L40.6027 41.4647C40.9067 41.4647 41.1227 41.5447 41.2507 41.7047C41.3787 41.8567 41.4427 42.0487 41.4427 42.2807C41.4427 42.5367 41.3587 42.7487 41.1907 42.9167C41.0227 43.0767 40.7867 43.1567 40.4827 43.1567H37.5547C37.0987 43.1567 36.7027 43.1167 36.3667 43.0367C36.0307 42.9567 35.7507 42.8367 35.5267 42.6767C35.3107 42.5087 35.1467 42.3047 35.0347 42.0647C34.9227 41.8247 34.8667 41.5487 34.8667 41.2367C34.8667 40.8767 34.9307 40.5287 35.0587 40.1927C35.1947 39.8487 35.3787 39.5447 35.6107 39.2807C35.8427 39.0167 36.1027 38.8087 36.3907 38.6567C36.6867 38.4967 36.9907 38.4167 37.3027 38.4167C37.8067 38.4167 38.2387 38.5567 38.5987 38.8367C38.9667 39.1167 39.2467 39.5167 39.4387 40.0367C39.6387 40.5487 39.7387 41.1687 39.7387 41.8967C39.7387 42.2647 39.6827 42.6487 39.5707 43.0487C39.4587 43.4487 39.3187 43.8087 39.1507 44.1287C38.9507 44.4967 38.6987 44.8207 38.3947 45.1007C38.0907 45.3807 37.7387 45.6127 37.3387 45.7967C36.9387 45.9887 36.4947 46.1287 36.0067 46.2167C35.5187 46.3127 34.9867 46.3607 34.4107 46.3607ZM38.3347 37.3247C38.1027 37.3247 37.9027 37.2447 37.7347 37.0847C37.5747 36.9167 37.4947 36.7207 37.4947 36.4967C37.4947 36.2647 37.5747 36.0647 37.7347 35.8967C37.9027 35.7287 38.1027 35.6447 38.3347 35.6447C38.5587 35.6447 38.7507 35.7287 38.9107 35.8967C39.0707 36.0647 39.1507 36.2647 39.1507 36.4967C39.1507 36.7207 39.0707 36.9167 38.9107 37.0847C38.7507 37.2447 38.5587 37.3247 38.3347 37.3247ZM36.2587 37.3127C36.0267 37.3127 35.8267 37.2327 35.6587 37.0727C35.4987 36.9047 35.4187 36.7087 35.4187 36.4847C35.4187 36.2527 35.4987 36.0527 35.6587 35.8847C35.8267 35.7167 36.0267 35.6327 36.2587 35.6327C36.4827 35.6327 36.6747 35.7167 36.8347 35.8847C36.9947 36.0527 37.0747 36.2527 37.0747 36.4847C37.0747 36.7087 36.9947 36.9047 36.8347 37.0727C36.6747 37.2327 36.4827 37.3127 36.2587 37.3127ZM40.4883 43.1567L40.6083 41.4767C41.0883 41.4767 41.4563 41.4527 41.7123 41.4047C41.9683 41.3567 42.1443 41.2687 42.2403 41.1407C42.3443 41.0047 42.3963 40.8127 42.3963 40.5647C42.3963 40.3407 42.3643 40.0727 42.3003 39.7607C42.2443 39.4487 42.1683 39.1247 42.0723 38.7887C41.9843 38.4527 41.8883 38.1447 41.7843 37.8647L43.4403 37.4087C43.5443 37.6807 43.6443 37.9967 43.7403 38.3567C43.8363 38.7167 43.9163 39.0887 43.9803 39.4727C44.0443 39.8487 44.0763 40.2127 44.0763 40.5647C44.0763 41.1087 43.9883 41.5527 43.8123 41.8967C43.6363 42.2327 43.3883 42.4927 43.0683 42.6767C42.7563 42.8607 42.3803 42.9887 41.9403 43.0607C41.5003 43.1247 41.0163 43.1567 40.4883 43.1567ZM43.4523 45.9407C43.2203 45.9407 43.0203 45.8567 42.8523 45.6887C42.6923 45.5287 42.6123 45.3367 42.6123 45.1127C42.6123 44.8807 42.6923 44.6807 42.8523 44.5127C43.0203 44.3447 43.2203 44.2607 43.4523 44.2607C43.6763 44.2607 43.8683 44.3447 44.0283 44.5127C44.1883 44.6807 44.2683 44.8807 44.2683 45.1127C44.2683 45.3367 44.1883 45.5287 44.0283 45.6887C43.8683 45.8567 43.6763 45.9407 43.4523 45.9407ZM41.3763 45.9407C41.1443 45.9407 40.9443 45.8567 40.7763 45.6887C40.6163 45.5287 40.5363 45.3367 40.5363 45.1127C40.5363 44.8807 40.6163 44.6807 40.7763 44.5127C40.9443 44.3447 41.1443 44.2607 41.3763 44.2607C41.6003 44.2607 41.7923 44.3447 41.9523 44.5127C42.1123 44.6807 42.1923 44.8807 42.1923 45.1127C42.1923 45.3367 42.1123 45.5287 41.9523 45.6887C41.7923 45.8567 41.6003 45.9407 41.3763 45.9407ZM44.9928 45.8687L44.3808 44.3807C44.8048 44.2367 45.1928 44.0687 45.5448 43.8767C45.9048 43.6847 46.2168 43.4727 46.4808 43.2407C46.7448 43.0087 46.9488 42.7567 47.0928 42.4847C47.2368 42.2047 47.3088 41.9047 47.3088 41.5847C47.3088 41.2487 47.2328 40.8807 47.0808 40.4807C46.9288 40.0807 46.7448 39.6727 46.5288 39.2567L48.1008 38.5007C48.2448 38.7487 48.3688 39.0167 48.4728 39.3047C48.5848 39.5847 48.6768 39.8367 48.7488 40.0607C48.8208 40.2847 48.8688 40.4367 48.8928 40.5167C49.0048 40.9007 49.1568 41.1567 49.3488 41.2847C49.5488 41.4127 49.8688 41.4767 50.3088 41.4767C50.6128 41.4767 50.8288 41.5567 50.9568 41.7167C51.0928 41.8687 51.1608 42.0607 51.1608 42.2927C51.1608 42.5407 51.0768 42.7487 50.9088 42.9167C50.7408 43.0767 50.5008 43.1567 50.1888 43.1567C49.8608 43.1567 49.5728 43.1087 49.3248 43.0127C49.0768 42.9167 48.8768 42.7767 48.7248 42.5927C48.5808 42.4087 48.4888 42.1927 48.4488 41.9447L48.8928 42.1967C48.8448 42.6207 48.7048 43.0207 48.4728 43.3967C48.2488 43.7807 47.9568 44.1327 47.5968 44.4527C47.2368 44.7727 46.8328 45.0527 46.3848 45.2927C45.9368 45.5327 45.4728 45.7247 44.9928 45.8687ZM59.3351 43.1567C58.9271 43.1567 58.5351 43.1207 58.1591 43.0487C57.7831 42.9687 57.4431 42.8647 57.1391 42.7367C56.8431 42.6087 56.5991 42.4647 56.4071 42.3047L57.4871 41.1407C57.7751 41.2607 58.0711 41.3487 58.3751 41.4047C58.6791 41.4527 59.0391 41.4767 59.4551 41.4767C59.7591 41.4767 59.9751 41.5567 60.1031 41.7167C60.2391 41.8687 60.3071 42.0607 60.3071 42.2927C60.3071 42.5407 60.2231 42.7487 60.0551 42.9167C59.8871 43.0767 59.6471 43.1567 59.3351 43.1567ZM50.2031 43.1567L50.3231 41.4767H53.0111C53.7631 41.4767 54.3871 41.4487 54.8831 41.3927C55.3871 41.3367 55.7871 41.2567 56.0831 41.1527C56.3791 41.0407 56.5871 40.9127 56.7071 40.7687C56.8351 40.6247 56.8991 40.4687 56.8991 40.3007C56.8991 40.1487 56.8631 40.0047 56.7911 39.8687C56.7191 39.7247 56.6111 39.6087 56.4671 39.5207C56.3231 39.4327 56.1351 39.3887 55.9031 39.3887C55.6071 39.3887 55.3111 39.4607 55.0151 39.6047C54.7191 39.7407 54.4311 39.9287 54.1511 40.1687C53.8711 40.4007 53.6031 40.6607 53.3471 40.9487C53.0991 41.2367 52.8711 41.5287 52.6631 41.8247L50.8511 41.5727C51.1871 41.0527 51.5511 40.5607 51.9431 40.0967C52.3431 39.6247 52.7631 39.2127 53.2031 38.8607C53.6511 38.5007 54.1111 38.2207 54.5831 38.0207C55.0631 37.8127 55.5511 37.7087 56.0471 37.7087C56.5751 37.7087 57.0271 37.8167 57.4031 38.0327C57.7791 38.2487 58.0671 38.5447 58.2671 38.9207C58.4751 39.2967 58.5791 39.7327 58.5791 40.2287C58.5791 40.7487 58.4311 41.2167 58.1351 41.6327C57.8471 42.0487 57.3551 42.3927 56.6591 42.6647C56.3631 42.7767 56.0431 42.8687 55.6991 42.9407C55.3551 43.0127 54.9511 43.0647 54.4871 43.0967C54.0231 43.1367 53.4671 43.1567 52.8191 43.1567H50.2031ZM51.4511 41.9327L51.1991 34.3127H52.8791L53.0951 40.0727L51.4511 41.9327ZM59.3438 43.1567L59.4638 41.4767C59.8318 41.4767 60.0958 41.4407 60.2558 41.3687C60.4158 41.2887 60.5118 41.1447 60.5438 40.9367C60.5758 40.7207 60.5838 40.4087 60.5678 40.0007L60.3518 34.3127H62.0438L62.2838 40.1207C62.2998 40.5847 62.2798 41.0047 62.2238 41.3807C62.1758 41.7487 62.0518 42.0647 61.8518 42.3287C61.6598 42.5927 61.3598 42.7967 60.9518 42.9407C60.5518 43.0847 60.0158 43.1567 59.3438 43.1567ZM63.8663 43.0967L63.6143 34.3127H65.2943L65.5463 43.0967H63.8663ZM34.3046 63.8247C33.7766 63.8247 33.2806 63.7687 32.8166 63.6567C32.3526 63.5447 31.9446 63.3727 31.5926 63.1407C31.2486 62.9087 30.9766 62.6087 30.7766 62.2407C30.5846 61.8727 30.4886 61.4367 30.4886 60.9327C30.4886 60.4127 30.5966 59.9527 30.8126 59.5527C31.0286 59.1607 31.3046 58.8167 31.6406 58.5207C31.9766 58.2167 32.3326 57.9447 32.7086 57.7047C33.0926 57.4567 33.4526 57.2207 33.7886 56.9967C34.1246 56.7727 34.4006 56.5447 34.6166 56.3127C34.8326 56.0727 34.9406 55.8087 34.9406 55.5207C34.9406 55.4167 34.9126 55.3207 34.8566 55.2327C34.8086 55.1367 34.7246 55.0607 34.6046 55.0047C34.4926 54.9407 34.3326 54.9087 34.1246 54.9087C33.9886 54.9087 33.8486 54.9247 33.7046 54.9567C33.5606 54.9807 33.4206 55.0167 33.2846 55.0647C33.1486 55.1047 33.0206 55.1567 32.9006 55.2207C33.1086 55.3887 33.3126 55.5767 33.5126 55.7847C33.7206 55.9847 33.9086 56.1807 34.0766 56.3727C34.2526 56.5567 34.3886 56.7167 34.4846 56.8527C34.6686 56.9487 34.8686 57.0367 35.0846 57.1167C35.3006 57.1887 35.5286 57.2527 35.7686 57.3087C36.0166 57.3647 36.2726 57.4087 36.5366 57.4407C36.8006 57.4647 37.0726 57.4767 37.3526 57.4767C37.6566 57.4767 37.8726 57.5567 38.0006 57.7167C38.1286 57.8687 38.1926 58.0607 38.1926 58.2927C38.1926 58.5407 38.1086 58.7487 37.9406 58.9167C37.7726 59.0767 37.5366 59.1567 37.2326 59.1567C36.5686 59.1567 36.0006 59.1087 35.5286 59.0127C35.0646 58.9167 34.6446 58.7727 34.2686 58.5807C33.9006 58.3807 33.5206 58.1367 33.1286 57.8487C33.0326 57.6807 32.8926 57.4967 32.7086 57.2967C32.5246 57.0887 32.3366 56.8927 32.1446 56.7087C31.9606 56.5247 31.8046 56.3807 31.6766 56.2767C31.6526 56.2527 31.6126 56.1727 31.5566 56.0367C31.5006 55.8927 31.4486 55.7407 31.4006 55.5807C31.3606 55.4207 31.3406 55.3087 31.3406 55.2447C31.3406 55.0847 31.4166 54.9047 31.5686 54.7047C31.7206 54.4967 31.9326 54.3007 32.2046 54.1167C32.4846 53.9247 32.8086 53.7687 33.1766 53.6487C33.5446 53.5207 33.9446 53.4567 34.3766 53.4567C35.1606 53.4567 35.7246 53.6247 36.0686 53.9607C36.4206 54.2887 36.5966 54.7127 36.5966 55.2327C36.5966 55.7127 36.4886 56.1407 36.2726 56.5167C36.0646 56.8927 35.7926 57.2367 35.4566 57.5487C35.1206 57.8607 34.7646 58.1487 34.3886 58.4127C34.0206 58.6767 33.6686 58.9327 33.3326 59.1807C32.9966 59.4367 32.7206 59.6927 32.5046 59.9487C32.2966 60.2127 32.1926 60.4967 32.1926 60.8007C32.1926 61.0567 32.2566 61.2687 32.3846 61.4367C32.5206 61.6127 32.6926 61.7527 32.9006 61.8567C33.1086 61.9607 33.3366 62.0327 33.5846 62.0727C33.8406 62.1207 34.0886 62.1447 34.3286 62.1447C34.5766 62.1447 34.8326 62.1247 35.0966 62.0847C35.3686 62.0447 35.6486 61.9807 35.9366 61.8927C36.2326 61.8127 36.5366 61.7087 36.8486 61.5807L37.3526 63.0207C37.0486 63.1807 36.7246 63.3207 36.3806 63.4407C36.0366 63.5687 35.6886 63.6647 35.3366 63.7287C34.9846 63.7927 34.6406 63.8247 34.3046 63.8247ZM37.2363 59.1567L37.3563 57.4767C37.8363 57.4767 38.2043 57.4527 38.4603 57.4047C38.7163 57.3567 38.8923 57.2687 38.9883 57.1407C39.0923 57.0047 39.1443 56.8127 39.1443 56.5647C39.1443 56.3407 39.1123 56.0727 39.0483 55.7607C38.9923 55.4487 38.9163 55.1247 38.8203 54.7887C38.7323 54.4527 38.6363 54.1447 38.5323 53.8647L40.1883 53.4087C40.2923 53.6807 40.3923 53.9967 40.4883 54.3567C40.5843 54.7167 40.6643 55.0887 40.7283 55.4727C40.7923 55.8487 40.8243 56.2127 40.8243 56.5647C40.8243 57.1087 40.7363 57.5527 40.5603 57.8967C40.3843 58.2327 40.1363 58.4927 39.8163 58.6767C39.5043 58.8607 39.1283 58.9887 38.6883 59.0607C38.2483 59.1247 37.7643 59.1567 37.2363 59.1567ZM40.2003 61.9407C39.9683 61.9407 39.7683 61.8567 39.6003 61.6887C39.4403 61.5287 39.3603 61.3367 39.3603 61.1127C39.3603 60.8807 39.4403 60.6807 39.6003 60.5127C39.7683 60.3447 39.9683 60.2607 40.2003 60.2607C40.4243 60.2607 40.6163 60.3447 40.7763 60.5127C40.9363 60.6807 41.0163 60.8807 41.0163 61.1127C41.0163 61.3367 40.9363 61.5287 40.7763 61.6887C40.6163 61.8567 40.4243 61.9407 40.2003 61.9407ZM38.1243 61.9407C37.8923 61.9407 37.6923 61.8567 37.5243 61.6887C37.3643 61.5287 37.2843 61.3367 37.2843 61.1127C37.2843 60.8807 37.3643 60.6807 37.5243 60.5127C37.6923 60.3447 37.8923 60.2607 38.1243 60.2607C38.3483 60.2607 38.5403 60.3447 38.7003 60.5127C38.8603 60.6807 38.9403 60.8807 38.9403 61.1127C38.9403 61.3367 38.8603 61.5287 38.7003 61.6887C38.5403 61.8567 38.3483 61.9407 38.1243 61.9407ZM41.7408 61.8687L41.1288 60.3807C41.5528 60.2367 41.9408 60.0687 42.2928 59.8767C42.6528 59.6847 42.9648 59.4727 43.2288 59.2407C43.4928 59.0087 43.6968 58.7567 43.8408 58.4847C43.9848 58.2047 44.0568 57.9047 44.0568 57.5847C44.0568 57.2487 43.9808 56.8807 43.8288 56.4807C43.6768 56.0807 43.4928 55.6727 43.2768 55.2567L44.8488 54.5007C44.9928 54.7487 45.1168 55.0167 45.2208 55.3047C45.3328 55.5847 45.4248 55.8367 45.4968 56.0607C45.5688 56.2847 45.6168 56.4367 45.6408 56.5167C45.7528 56.9007 45.9048 57.1567 46.0968 57.2847C46.2968 57.4127 46.6168 57.4767 47.0568 57.4767C47.3608 57.4767 47.5768 57.5567 47.7048 57.7167C47.8408 57.8687 47.9088 58.0607 47.9088 58.2927C47.9088 58.5407 47.8248 58.7487 47.6568 58.9167C47.4888 59.0767 47.2488 59.1567 46.9368 59.1567C46.6088 59.1567 46.3208 59.1087 46.0728 59.0127C45.8248 58.9167 45.6248 58.7767 45.4728 58.5927C45.3288 58.4087 45.2368 58.1927 45.1968 57.9447L45.6408 58.1967C45.5928 58.6207 45.4528 59.0207 45.2208 59.3967C44.9968 59.7807 44.7048 60.1327 44.3448 60.4527C43.9848 60.7727 43.5808 61.0527 43.1328 61.2927C42.6848 61.5327 42.2208 61.7247 41.7408 61.8687ZM46.9512 59.1567L47.0712 57.4767C47.3352 57.4767 47.5512 57.4567 47.7192 57.4167C47.8872 57.3687 48.0232 57.2687 48.1272 57.1167C48.2392 56.9567 48.3352 56.7207 48.4152 56.4087C48.5032 56.0887 48.5992 55.6567 48.7032 55.1127L50.2632 55.4007C50.2312 55.5767 50.1872 55.7967 50.1312 56.0607C50.0832 56.3247 50.0592 56.5527 50.0592 56.7447C50.0592 56.8967 50.0872 57.0287 50.1432 57.1407C50.2072 57.2447 50.3112 57.3287 50.4552 57.3927C50.6072 57.4487 50.8152 57.4767 51.0792 57.4767C51.2872 57.4767 51.4632 57.4567 51.6072 57.4167C51.7592 57.3687 51.8872 57.2687 51.9912 57.1167C52.1032 56.9567 52.1992 56.7127 52.2792 56.3847C52.3672 56.0487 52.4512 55.5967 52.5312 55.0287L54.1152 55.2807C54.0832 55.4647 54.0512 55.6607 54.0192 55.8687C53.9872 56.0767 53.9592 56.2687 53.9352 56.4447C53.9112 56.6207 53.8992 56.7647 53.8992 56.8767C53.8992 56.9807 53.9272 57.0807 53.9832 57.1767C54.0472 57.2647 54.1592 57.3367 54.3192 57.3927C54.4872 57.4487 54.7192 57.4767 55.0152 57.4767C55.3752 57.4767 55.6392 57.4007 55.8072 57.2487C55.9832 57.0887 56.0712 56.8487 56.0712 56.5287C56.0712 56.3447 56.0672 56.1487 56.0592 55.9407C56.0512 55.7247 56.0352 55.4847 56.0112 55.2207C55.9952 54.9487 55.9632 54.6407 55.9152 54.2967L57.4632 54.1767C57.5192 54.8647 57.5832 55.4247 57.6552 55.8567C57.7272 56.2887 57.8232 56.6247 57.9432 56.8647C58.0712 57.0967 58.2392 57.2567 58.4472 57.3447C58.6632 57.4327 58.9432 57.4767 59.2872 57.4767C59.5912 57.4767 59.8072 57.5567 59.9352 57.7167C60.0712 57.8687 60.1392 58.0607 60.1392 58.2927C60.1392 58.5407 60.0552 58.7487 59.8872 58.9167C59.7272 59.0767 59.4872 59.1567 59.1672 59.1567C58.9512 59.1567 58.7272 59.1367 58.4952 59.0967C58.2632 59.0647 58.0392 58.9967 57.8232 58.8927C57.6072 58.7807 57.4152 58.6207 57.2472 58.4127C57.0792 58.2047 56.9472 57.9287 56.8512 57.5847L57.0672 57.6567C56.9552 58.0567 56.8032 58.3647 56.6112 58.5807C56.4192 58.7967 56.1832 58.9487 55.9032 59.0367C55.6232 59.1167 55.2872 59.1567 54.8952 59.1567C54.5352 59.1567 54.2152 59.1087 53.9352 59.0127C53.6552 58.9167 53.4312 58.7607 53.2632 58.5447C53.1032 58.3207 53.0192 58.0207 53.0112 57.6447H53.4192C53.2592 58.0927 53.0752 58.4247 52.8672 58.6407C52.6592 58.8567 52.4072 58.9967 52.1112 59.0607C51.8152 59.1247 51.4432 59.1567 50.9952 59.1567C50.7232 59.1567 50.4552 59.1287 50.1912 59.0727C49.9272 59.0087 49.6912 58.8687 49.4832 58.6527C49.2752 58.4287 49.1232 58.0767 49.0272 57.5967L49.6752 57.5727C49.5072 58.0447 49.2872 58.3927 49.0152 58.6167C48.7512 58.8407 48.4472 58.9887 48.1032 59.0607C47.7592 59.1247 47.3752 59.1567 46.9512 59.1567ZM59.1738 59.1567L59.2938 57.4767C59.6618 57.4767 59.9258 57.4407 60.0858 57.3687C60.2458 57.2887 60.3418 57.1447 60.3738 56.9367C60.4058 56.7207 60.4138 56.4087 60.3978 56.0007L60.1818 50.3127H61.8738L62.1138 56.1207C62.1298 56.5847 62.1098 57.0047 62.0538 57.3807C62.0058 57.7487 61.8818 58.0647 61.6818 58.3287C61.4898 58.5927 61.1898 58.7967 60.7818 58.9407C60.3818 59.0847 59.8458 59.1567 59.1738 59.1567ZM63.6963 59.0967L63.4443 50.3127H65.1243L65.3763 59.0967H63.6963Z" fill="black"/>
<path d="M32.3624 74.1867C31.5557 74.1867 30.9257 74.0133 30.4724 73.6667C30.019 73.32 29.7924 72.8367 29.7924 72.2167C29.7924 71.89 29.8557 71.6033 29.9824 71.3567C30.1157 71.11 30.2957 70.9067 30.5224 70.7467C30.7557 70.5867 31.019 70.4867 31.3124 70.4467V70.5467C31.0524 70.48 30.819 70.3667 30.6124 70.2067C30.4057 70.0467 30.2457 69.85 30.1324 69.6167C30.019 69.3833 29.9624 69.1267 29.9624 68.8467C29.9624 68.2533 30.179 67.79 30.6124 67.4567C31.0457 67.1233 31.629 66.9567 32.3624 66.9567C33.0957 66.9567 33.679 67.1233 34.1124 67.4567C34.5457 67.79 34.7624 68.2533 34.7624 68.8467C34.7624 69.1267 34.7057 69.3867 34.5924 69.6267C34.479 69.86 34.319 70.0567 34.1124 70.2167C33.9124 70.37 33.679 70.4767 33.4124 70.5367V70.4467C33.7124 70.4867 33.9757 70.5867 34.2024 70.7467C34.429 70.9067 34.6057 71.1133 34.7324 71.3667C34.8657 71.6133 34.9324 71.8967 34.9324 72.2167C34.9324 72.8367 34.7057 73.32 34.2524 73.6667C33.799 74.0133 33.169 74.1867 32.3624 74.1867ZM32.3624 73.3367C32.8824 73.3367 33.2757 73.2367 33.5424 73.0367C33.809 72.83 33.9424 72.5333 33.9424 72.1467C33.9424 71.7533 33.809 71.4567 33.5424 71.2567C33.2757 71.0567 32.8824 70.9567 32.3624 70.9567C31.849 70.9567 31.4557 71.0567 31.1824 71.2567C30.9157 71.4567 30.7824 71.7533 30.7824 72.1467C30.7824 72.5333 30.9157 72.83 31.1824 73.0367C31.4557 73.2367 31.849 73.3367 32.3624 73.3367ZM32.3624 70.0967C32.809 70.0967 33.1557 69.9967 33.4024 69.7967C33.649 69.59 33.7724 69.3067 33.7724 68.9467C33.7724 68.5933 33.649 68.3167 33.4024 68.1167C33.1557 67.91 32.809 67.8067 32.3624 67.8067C31.9224 67.8067 31.5757 67.91 31.3224 68.1167C31.0757 68.3167 30.9524 68.5933 30.9524 68.9467C30.9524 69.3067 31.0757 69.59 31.3224 69.7967C31.5757 69.9967 31.9224 70.0967 32.3624 70.0967ZM38.3626 73.8167C38.3626 73.6633 38.3759 73.4833 38.4026 73.2767C38.4293 73.07 38.4793 72.8367 38.5526 72.5767C38.6259 72.31 38.7359 72.0133 38.8826 71.6867L40.1126 72.1167C40.0393 72.3233 39.9759 72.5133 39.9226 72.6867C39.8693 72.8533 39.8293 73.01 39.8026 73.1567C39.7759 73.2967 39.7626 73.4367 39.7626 73.5767C39.7626 73.8767 39.8359 74.1367 39.9826 74.3567C40.1359 74.5833 40.3426 74.7567 40.6026 74.8767C40.8693 75.0033 41.1759 75.0667 41.5226 75.0667C42.0893 75.0667 42.5226 74.9733 42.8226 74.7867C43.1293 74.6067 43.3359 74.32 43.4426 73.9267C43.5559 73.5267 43.5993 73.01 43.5726 72.3767L43.3726 66.7767H44.7826L44.9326 71.5067C44.9459 71.84 44.9926 72.0967 45.0726 72.2767C45.1526 72.4567 45.2759 72.58 45.4426 72.6467C45.6159 72.7133 45.8393 72.7467 46.1126 72.7467C46.3659 72.7467 46.5459 72.8133 46.6526 72.9467C46.7593 73.0733 46.8126 73.2333 46.8126 73.4267C46.8126 73.6333 46.7426 73.8067 46.6026 73.9467C46.4626 74.08 46.2659 74.1467 46.0126 74.1467C45.8659 74.1467 45.7093 74.1267 45.5426 74.0867C45.3759 74.0467 45.2159 73.9833 45.0626 73.8967C44.9093 73.81 44.7759 73.6967 44.6626 73.5567C44.5493 73.41 44.4726 73.23 44.4326 73.0167L44.9726 72.7467C44.9726 73.42 44.8926 73.99 44.7326 74.4567C44.5793 74.9233 44.3526 75.3 44.0526 75.5867C43.7593 75.8733 43.3959 76.08 42.9626 76.2067C42.5359 76.34 42.0426 76.4067 41.4826 76.4067C41.0559 76.4067 40.6526 76.3533 40.2726 76.2467C39.8993 76.14 39.5693 75.98 39.2826 75.7667C38.9959 75.5533 38.7693 75.2833 38.6026 74.9567C38.4426 74.6367 38.3626 74.2567 38.3626 73.8167ZM56.0427 74.1467C55.7027 74.1467 55.3761 74.1167 55.0627 74.0567C54.7494 73.99 54.4661 73.9033 54.2127 73.7967C53.9661 73.69 53.7627 73.57 53.6027 73.4367L54.5027 72.4667C54.7427 72.5667 54.9894 72.64 55.2427 72.6867C55.4961 72.7267 55.7961 72.7467 56.1427 72.7467C56.3961 72.7467 56.5761 72.8133 56.6827 72.9467C56.7961 73.0733 56.8527 73.2333 56.8527 73.4267C56.8527 73.6333 56.7827 73.8067 56.6427 73.9467C56.5027 74.08 56.3027 74.1467 56.0427 74.1467ZM51.1927 74.2767C50.5727 74.2767 50.0561 74.25 49.6427 74.1967C49.2361 74.1433 48.9061 74.0667 48.6527 73.9667C48.3994 73.8667 48.1994 73.7467 48.0527 73.6067C47.9061 73.4667 47.7861 73.3133 47.6927 73.1467L47.9727 73.0667C47.8061 73.3867 47.6161 73.6233 47.4027 73.7767C47.1894 73.93 46.9661 74.03 46.7327 74.0767C46.4994 74.1233 46.2594 74.1467 46.0127 74.1467L46.1127 72.7467C46.3194 72.7467 46.4827 72.7133 46.6027 72.6467C46.7227 72.58 46.8194 72.47 46.8927 72.3167C46.9727 72.1633 47.0461 71.96 47.1127 71.7067C47.1794 71.4533 47.2594 71.1433 47.3527 70.7767L48.6227 71.0867C48.5761 71.2667 48.5361 71.4233 48.5027 71.5567C48.4761 71.69 48.4527 71.8067 48.4327 71.9067C48.4194 72 48.4127 72.0767 48.4127 72.1367C48.4127 72.2633 48.4427 72.3767 48.5027 72.4767C48.5627 72.57 48.6794 72.6467 48.8527 72.7067C49.0261 72.76 49.2794 72.8033 49.6127 72.8367C49.9527 72.8633 50.3961 72.8767 50.9427 72.8767C51.5227 72.8767 52.0061 72.8567 52.3927 72.8167C52.7794 72.77 53.0861 72.7067 53.3127 72.6267C53.5461 72.54 53.7127 72.4367 53.8127 72.3167C53.9127 72.19 53.9627 72.0467 53.9627 71.8867C53.9627 71.76 53.9327 71.6433 53.8727 71.5367C53.8194 71.4233 53.7294 71.33 53.6027 71.2567C53.4761 71.1833 53.3127 71.1467 53.1127 71.1467C52.8727 71.1467 52.6294 71.2067 52.3827 71.3267C52.1427 71.44 51.9061 71.5933 51.6727 71.7867C51.4394 71.9733 51.2161 72.1833 51.0027 72.4167C50.7961 72.65 50.6094 72.8833 50.4427 73.1167L48.9427 72.9467C49.2027 72.5267 49.4961 72.1233 49.8227 71.7367C50.1494 71.35 50.4994 71.01 50.8727 70.7167C51.2461 70.4167 51.6327 70.18 52.0327 70.0067C52.4327 69.8333 52.8394 69.7467 53.2527 69.7467C53.6994 69.7467 54.0794 69.8333 54.3927 70.0067C54.7061 70.18 54.9461 70.42 55.1127 70.7267C55.2794 71.0333 55.3627 71.3867 55.3627 71.7867C55.3627 72.2733 55.2227 72.7033 54.9427 73.0767C54.6694 73.45 54.2261 73.7433 53.6127 73.9567C53.0061 74.17 52.1994 74.2767 51.1927 74.2767ZM56.0518 74.1467L56.1518 72.7567C56.4118 72.7633 56.6518 72.76 56.8718 72.7467C57.0918 72.7333 57.2885 72.7133 57.4618 72.6867C57.6418 72.66 57.7985 72.63 57.9318 72.5967C58.0718 72.5633 58.1885 72.5333 58.2818 72.5067C58.5085 72.4333 58.7018 72.3467 58.8618 72.2467C59.0218 72.14 59.1451 72.02 59.2318 71.8867C59.3185 71.7533 59.3618 71.61 59.3618 71.4567C59.3618 71.3367 59.3351 71.2167 59.2818 71.0967C59.2351 70.97 59.1651 70.8667 59.0718 70.7867C58.9785 70.7067 58.8685 70.6667 58.7418 70.6667C58.6218 70.6667 58.5118 70.7033 58.4118 70.7767C58.3118 70.85 58.2318 70.95 58.1718 71.0767C58.1118 71.1967 58.0818 71.3367 58.0818 71.4967C58.0818 71.6367 58.1151 71.77 58.1818 71.8967C58.2485 72.0167 58.3418 72.1333 58.4618 72.2467C58.5818 72.36 58.7251 72.4667 58.8918 72.5667L57.5618 73.0767C57.4151 72.9367 57.2751 72.7867 57.1418 72.6267C57.0151 72.4667 56.9085 72.2867 56.8218 72.0867C56.7418 71.88 56.7018 71.65 56.7018 71.3967C56.7018 71.09 56.7618 70.81 56.8818 70.5567C57.0018 70.3033 57.1618 70.0867 57.3618 69.9067C57.5618 69.72 57.7851 69.5767 58.0318 69.4767C58.2785 69.3767 58.5251 69.3267 58.7718 69.3267C59.1718 69.3267 59.5185 69.42 59.8118 69.6067C60.1051 69.7933 60.3318 70.0367 60.4918 70.3367C60.6585 70.6367 60.7418 70.9633 60.7418 71.3167C60.7418 71.6433 60.6818 71.9367 60.5618 72.1967C60.4418 72.45 60.2785 72.6767 60.0718 72.8767C59.8718 73.07 59.6485 73.24 59.4018 73.3867C59.1618 73.5333 58.9185 73.6567 58.6718 73.7567C58.5518 73.81 58.4018 73.86 58.2218 73.9067C58.0418 73.9533 57.8385 73.9967 57.6118 74.0367C57.3851 74.07 57.1418 74.0967 56.8818 74.1167C56.6218 74.1367 56.3451 74.1467 56.0518 74.1467ZM61.3318 74.1467C60.9451 74.1467 60.5651 74.1267 60.1918 74.0867C59.8185 74.0467 59.4718 73.9867 59.1518 73.9067C58.8385 73.8267 58.5651 73.73 58.3318 73.6167L59.0218 72.5367C59.2218 72.59 59.4551 72.6333 59.7218 72.6667C59.9951 72.6933 60.2785 72.7133 60.5718 72.7267C60.8718 72.74 61.1585 72.7467 61.4318 72.7467C61.6851 72.7467 61.8651 72.8133 61.9718 72.9467C62.0851 73.0733 62.1418 73.2333 62.1418 73.4267C62.1418 73.6333 62.0718 73.8067 61.9318 73.9467C61.7918 74.08 61.5918 74.1467 61.3318 74.1467ZM58.7818 68.3967C58.5751 68.3967 58.3985 68.3267 58.2518 68.1867C58.1118 68.0467 58.0418 67.8733 58.0418 67.6667C58.0418 67.46 58.1118 67.2833 58.2518 67.1367C58.3985 66.99 58.5751 66.9167 58.7818 66.9167C58.9818 66.9167 59.1518 66.99 59.2918 67.1367C59.4385 67.2833 59.5118 67.46 59.5118 67.6667C59.5118 67.8733 59.4385 68.0467 59.2918 68.1867C59.1518 68.3267 58.9818 68.3967 58.7818 68.3967ZM61.3448 74.1467L61.4448 72.7467C61.7514 72.7467 61.9714 72.7167 62.1048 72.6567C62.2381 72.59 62.3181 72.47 62.3448 72.2967C62.3714 72.1167 62.3781 71.8567 62.3648 71.5167L62.1848 66.7767H63.5948L63.7948 71.6167C63.8081 72.0033 63.7914 72.3533 63.7448 72.6667C63.7048 72.9733 63.6014 73.2367 63.4348 73.4567C63.2748 73.6767 63.0248 73.8467 62.6848 73.9667C62.3514 74.0867 61.9048 74.1467 61.3448 74.1467ZM65.1135 74.0967L64.9035 66.7767H66.3035L66.5135 74.0967H65.1135Z" fill="#667085"/>
<defs>
<filter id="filter0_d_8339_572" x="0" y="0.0966797" width="96" height="85.8462" filterUnits="userSpaceOnUse" color-interpolation-filters="sRGB">
<feFlood flood-opacity="0" result="BackgroundImageFix"/>
<feColorMatrix in="SourceAlpha" type="matrix" values="0 0 0 0 0 0 0 0 0 0 0 0 0 0 0 0 0 0 127 0" result="hardAlpha"/>
<feOffset dy="4"/>
<feGaussianBlur stdDeviation="2"/>
<feComposite in2="hardAlpha" operator="out"/>
<feColorMatrix type="matrix" values="0 0 0 0 0 0 0 0 0 0 0 0 0 0 0 0 0 0 0.25 0"/>
<feBlend mode="normal" in2="BackgroundImageFix" result="effect1_dropShadow_8339_572"/>
<feBlend mode="normal" in="SourceGraphic" in2="effect1_dropShadow_8339_572" result="shape"/>
</filter>
<clipPath id="clip0_8339_572">
<rect width="30" height="30" fill="white" transform="translate(33.2051 0.0966797)"/>
</clipPath>
</defs>
</svg>
