<svg width="96" height="87" viewBox="0 0 96 87" fill="none" xmlns="http://www.w3.org/2000/svg">
<g filter="url(#filter0_d_8310_792)">
<path d="M5.37285 43.0185C4.62083 41.7089 4.24484 41.0536 4.09767 40.3574C3.96744 39.7412 3.96744 39.1048 4.09767 38.4886C4.24484 37.7924 4.62083 37.1371 5.37285 35.8274L23.5901 4.09555C24.3421 2.78569 24.7181 2.13076 25.2442 1.65444C25.7096 1.233 26.2579 0.914612 26.8535 0.720002C27.5267 0.5 28.2787 0.5 29.7827 0.5H66.2171C67.7214 0.5 68.4731 0.5 69.1466 0.720002C69.7419 0.914612 70.2903 1.233 70.756 1.65444C71.282 2.13076 71.6578 2.78569 72.41 4.09555L90.6271 35.8274C91.3792 37.1371 91.7551 37.7924 91.9021 38.4886C92.0326 39.1048 92.0326 39.7412 91.9021 40.3574C91.7551 41.0536 91.3792 41.7089 90.6271 43.0185L72.41 74.7506C71.6578 76.0603 71.282 76.7151 70.756 77.1915C70.2903 77.6131 69.7419 77.9313 69.1466 78.1259C68.4731 78.3462 67.7214 78.3462 66.2171 78.3462H29.7827C28.2787 78.3462 27.5267 78.3462 26.8535 78.1259C26.2579 77.9313 25.7096 77.6131 25.2442 77.1915C24.7181 76.7151 24.3421 76.0603 23.5901 74.7506L5.37285 43.0185Z" fill="white"/>
</g>
<g clip-path="url(#clip0_8310_792)">
<path d="M38 22.5H44.875V24.0625C44.875 24.9742 44.5128 25.8485 43.8682 26.4932C43.2235 27.1378 42.3492 27.5 41.4375 27.5C40.5258 27.5 39.6515 27.1378 39.0068 26.4932C38.3622 25.8485 38 24.9742 38 24.0625V22.5ZM43 7.64998C45.5 7.64998 46.75 11.25 46.75 13.75C46.75 15 46.125 16.25 45.5 18.125L44.875 20H38C38 18.75 37.375 16.875 37.375 13.75C37.375 10.625 39.8725 7.64998 43 7.64998ZM58.0675 17.6225L57.7962 19.1612C57.6379 20.0592 57.1294 20.8574 56.3826 21.3804C55.6357 21.9034 54.7117 22.1083 53.8137 21.95C52.9158 21.7917 52.1176 21.2832 51.5946 20.5363C51.0716 19.7894 50.8667 18.8654 51.025 17.9675L51.2975 16.43L58.0675 17.6225ZM55.7225 2.13123C58.8025 2.67373 60.745 6.03623 60.2025 9.11373C59.66 12.1925 58.7188 13.93 58.5025 15.1612L51.7312 13.9675L51.4412 12.0125C51.1512 10.0575 50.7537 8.71748 50.97 7.48748C51.4038 5.02498 53.26 1.69748 55.7225 2.13123Z" fill="#F2BB41"/>
</g>
<path d="M30.2484 43.252L30.5604 41.572C31.3364 41.572 32.0124 41.552 32.5884 41.512C33.1644 41.464 33.6404 41.396 34.0164 41.308C34.4004 41.212 34.6844 41.088 34.8684 40.936C35.0604 40.784 35.1564 40.6 35.1564 40.384C35.1564 40.096 35.1084 39.752 35.0124 39.352C34.9164 38.944 34.7924 38.532 34.6404 38.116L36.2124 37.66C36.3164 37.932 36.4164 38.232 36.5124 38.56C36.6084 38.88 36.6844 39.204 36.7404 39.532C36.8044 39.852 36.8364 40.152 36.8364 40.432C36.8364 40.928 36.7284 41.356 36.5124 41.716C36.2964 42.068 35.9364 42.36 35.4324 42.592C34.9364 42.816 34.2644 42.98 33.4164 43.084C32.5684 43.196 31.5124 43.252 30.2484 43.252ZM30.2364 43.252C29.3724 43.252 28.6404 43.184 28.0404 43.048C27.4484 42.92 26.9644 42.736 26.5884 42.496C26.2204 42.248 25.9524 41.96 25.7844 41.632C25.6164 41.304 25.5324 40.944 25.5324 40.552C25.5324 40.296 25.5524 40.04 25.5924 39.784C25.6404 39.52 25.6964 39.264 25.7604 39.016C25.8324 38.768 25.8964 38.544 25.9524 38.344L27.4524 38.692C27.4204 38.836 27.3844 38.992 27.3444 39.16C27.3044 39.328 27.2724 39.492 27.2484 39.652C27.2244 39.804 27.2124 39.944 27.2124 40.072C27.2124 40.368 27.3164 40.632 27.5244 40.864C27.7404 41.088 28.0924 41.264 28.5804 41.392C29.0684 41.512 29.7244 41.572 30.5484 41.572L30.7884 42.868L30.2364 43.252ZM32.2164 37.768C31.9844 37.768 31.7844 37.688 31.6164 37.528C31.4564 37.36 31.3764 37.164 31.3764 36.94C31.3764 36.708 31.4564 36.508 31.6164 36.34C31.7844 36.172 31.9844 36.088 32.2164 36.088C32.4404 36.088 32.6324 36.172 32.7924 36.34C32.9524 36.508 33.0324 36.708 33.0324 36.94C33.0324 37.164 32.9524 37.36 32.7924 37.528C32.6324 37.688 32.4404 37.768 32.2164 37.768ZM30.1404 37.756C29.9084 37.756 29.7084 37.676 29.5404 37.516C29.3804 37.348 29.3004 37.152 29.3004 36.928C29.3004 36.696 29.3804 36.496 29.5404 36.328C29.7084 36.16 29.9084 36.076 30.1404 36.076C30.3644 36.076 30.5564 36.16 30.7164 36.328C30.8764 36.496 30.9564 36.696 30.9564 36.928C30.9564 37.152 30.8764 37.348 30.7164 37.516C30.5564 37.676 30.3644 37.756 30.1404 37.756ZM38.4014 43L38.1494 34.216H39.8294L40.0814 43H38.4014ZM41.4067 45.76L41.0587 44.08C41.6267 44.008 42.1227 43.92 42.5467 43.816C42.9707 43.72 43.3267 43.584 43.6147 43.408C43.9027 43.232 44.1187 42.992 44.2627 42.688C44.4067 42.376 44.4787 41.976 44.4787 41.488C44.4787 41.016 44.4067 40.64 44.2627 40.36C44.1187 40.08 43.9267 39.94 43.6867 39.94C43.5187 39.94 43.3787 40 43.2667 40.12C43.1547 40.232 43.0707 40.368 43.0147 40.528C42.9667 40.68 42.9427 40.816 42.9427 40.936C42.9427 41.008 42.9627 41.084 43.0027 41.164C43.0427 41.244 43.1307 41.312 43.2667 41.368C43.4027 41.424 43.6147 41.456 43.9027 41.464C44.1987 41.472 44.5987 41.444 45.1027 41.38H47.1187C47.4227 41.38 47.6387 41.46 47.7667 41.62C47.9027 41.772 47.9707 41.964 47.9707 42.196C47.9707 42.444 47.8867 42.652 47.7187 42.82C47.5507 42.98 47.3107 43.06 46.9987 43.06H43.6987C43.1947 43.06 42.7627 43 42.4027 42.88C42.0427 42.76 41.7667 42.568 41.5747 42.304C41.3827 42.032 41.2867 41.672 41.2867 41.224C41.2867 40.864 41.3467 40.504 41.4667 40.144C41.5947 39.784 41.7707 39.456 41.9947 39.16C42.2187 38.856 42.4787 38.616 42.7747 38.44C43.0787 38.256 43.4067 38.164 43.7587 38.164C44.2387 38.164 44.6587 38.312 45.0187 38.608C45.3787 38.904 45.6587 39.296 45.8587 39.784C46.0667 40.272 46.1707 40.804 46.1707 41.38C46.1707 42.284 45.9787 43.052 45.5947 43.684C45.2107 44.316 44.6627 44.804 43.9507 45.148C43.2387 45.5 42.3907 45.704 41.4067 45.76ZM56.1476 43.06C55.7396 43.06 55.3476 43.024 54.9716 42.952C54.5956 42.872 54.2556 42.768 53.9516 42.64C53.6556 42.512 53.4116 42.368 53.2196 42.208L54.2996 41.044C54.5876 41.164 54.8836 41.252 55.1876 41.308C55.4916 41.356 55.8516 41.38 56.2676 41.38C56.5716 41.38 56.7876 41.46 56.9156 41.62C57.0516 41.772 57.1196 41.964 57.1196 42.196C57.1196 42.444 57.0356 42.652 56.8676 42.82C56.6996 42.98 56.4596 43.06 56.1476 43.06ZM47.0156 43.06L47.1356 41.38H49.8236C50.5756 41.38 51.1996 41.352 51.6956 41.296C52.1996 41.24 52.5996 41.16 52.8956 41.056C53.1916 40.944 53.3996 40.816 53.5196 40.672C53.6476 40.528 53.7116 40.372 53.7116 40.204C53.7116 40.052 53.6756 39.908 53.6036 39.772C53.5316 39.628 53.4236 39.512 53.2796 39.424C53.1356 39.336 52.9476 39.292 52.7156 39.292C52.4196 39.292 52.1236 39.364 51.8276 39.508C51.5316 39.644 51.2436 39.832 50.9636 40.072C50.6836 40.304 50.4156 40.564 50.1596 40.852C49.9116 41.14 49.6836 41.432 49.4756 41.728L47.6636 41.476C47.9996 40.956 48.3636 40.464 48.7556 40C49.1556 39.528 49.5756 39.116 50.0156 38.764C50.4636 38.404 50.9236 38.124 51.3956 37.924C51.8756 37.716 52.3636 37.612 52.8596 37.612C53.3876 37.612 53.8396 37.72 54.2156 37.936C54.5916 38.152 54.8796 38.448 55.0796 38.824C55.2876 39.2 55.3916 39.636 55.3916 40.132C55.3916 40.652 55.2436 41.12 54.9476 41.536C54.6596 41.952 54.1676 42.296 53.4716 42.568C53.1756 42.68 52.8556 42.772 52.5116 42.844C52.1676 42.916 51.7636 42.968 51.2996 43C50.8356 43.04 50.2796 43.06 49.6316 43.06H47.0156ZM48.2636 41.836L48.0116 34.216H49.6916L49.9076 39.976L48.2636 41.836ZM64.0043 43.06C63.6363 43.06 63.2923 43.032 62.9723 42.976C62.6603 42.92 62.3723 42.824 62.1083 42.688C61.8443 42.544 61.6083 42.348 61.4003 42.1C61.2003 41.852 61.0323 41.54 60.8963 41.164L61.8443 40.408C61.9883 40.664 62.1643 40.864 62.3723 41.008C62.5803 41.144 62.8283 41.24 63.1163 41.296C63.4043 41.352 63.7403 41.38 64.1243 41.38C64.4283 41.38 64.6443 41.46 64.7723 41.62C64.9003 41.772 64.9643 41.964 64.9643 42.196C64.9643 42.444 64.8803 42.652 64.7123 42.82C64.5523 42.98 64.3163 43.06 64.0043 43.06ZM56.1562 43.06L56.2763 41.38C56.7083 41.38 57.1363 41.356 57.5603 41.308C57.9843 41.26 58.3963 41.188 58.7963 41.092C59.1963 40.996 59.5763 40.872 59.9363 40.72C60.3043 40.568 60.6483 40.384 60.9683 40.168C60.7283 40.024 60.4683 39.9 60.1883 39.796C59.9083 39.692 59.6083 39.616 59.2883 39.568C58.9763 39.512 58.6443 39.484 58.2923 39.484C58.1643 39.484 58.0283 39.488 57.8843 39.496C57.7483 39.504 57.6083 39.52 57.4643 39.544C57.3203 39.56 57.1763 39.584 57.0323 39.616L56.7923 37.972C57.0243 37.908 57.2683 37.864 57.5243 37.84C57.7883 37.808 58.0203 37.792 58.2203 37.792C58.6523 37.792 59.0483 37.84 59.4083 37.936C59.7763 38.032 60.1123 38.152 60.4163 38.296C60.7283 38.44 61.0163 38.584 61.2803 38.728C61.5523 38.872 61.8083 38.992 62.0483 39.088C62.2963 39.184 62.5363 39.232 62.7682 39.232H63.2122L63.4043 40.828C63.0603 40.844 62.7363 40.912 62.4323 41.032C62.1363 41.144 61.8403 41.288 61.5443 41.464C61.2563 41.632 60.9443 41.808 60.6083 41.992C60.2803 42.176 59.9083 42.348 59.4923 42.508C59.0763 42.668 58.5963 42.8 58.0523 42.904C57.5083 43.008 56.8763 43.06 56.1562 43.06ZM58.2203 36.556C57.9723 36.556 57.7603 36.472 57.5843 36.304C57.4163 36.136 57.3323 35.928 57.3323 35.68C57.3323 35.432 57.4163 35.22 57.5843 35.044C57.7603 34.868 57.9723 34.78 58.2203 34.78C58.4603 34.78 58.6643 34.868 58.8323 35.044C59.0083 35.22 59.0963 35.432 59.0963 35.68C59.0963 35.928 59.0083 36.136 58.8323 36.304C58.6643 36.472 58.4603 36.556 58.2203 36.556ZM64.0078 43.06L64.1278 41.38C64.4958 41.38 64.7598 41.344 64.9198 41.272C65.0798 41.192 65.1758 41.048 65.2078 40.84C65.2398 40.624 65.2478 40.312 65.2318 39.904L65.0158 34.216H66.7078L66.9478 40.024C66.9638 40.488 66.9438 40.908 66.8878 41.284C66.8398 41.652 66.7158 41.968 66.5158 42.232C66.3238 42.496 66.0238 42.7 65.6158 42.844C65.2158 42.988 64.6798 43.06 64.0078 43.06ZM68.5303 43L68.2783 34.216H69.9583L70.2103 43H68.5303ZM42.4184 59.06L42.5384 57.38C42.9064 57.38 43.1704 57.344 43.3304 57.272C43.4904 57.192 43.5864 57.048 43.6184 56.84C43.6504 56.624 43.6584 56.312 43.6424 55.904L43.4264 50.216H45.1184L45.3584 56.024C45.3744 56.488 45.3544 56.908 45.2984 57.284C45.2504 57.652 45.1264 57.968 44.9264 58.232C44.7344 58.496 44.4344 58.7 44.0264 58.844C43.6264 58.988 43.0904 59.06 42.4184 59.06ZM33.1304 58.664C33.1304 58.48 33.1464 58.264 33.1784 58.016C33.2104 57.768 33.2704 57.488 33.3584 57.176C33.4464 56.856 33.5784 56.5 33.7544 56.108L35.2304 56.624C35.1424 56.872 35.0664 57.1 35.0024 57.308C34.9384 57.508 34.8904 57.696 34.8584 57.872C34.8264 58.04 34.8104 58.208 34.8104 58.376C34.8104 58.64 34.8664 58.876 34.9784 59.084C35.0984 59.3 35.2704 59.48 35.4944 59.624C35.7184 59.776 35.9904 59.892 36.3104 59.972C36.6384 60.052 37.0144 60.092 37.4384 60.092C37.8784 60.092 38.2704 60.072 38.6144 60.032C38.9664 59.992 39.2624 59.932 39.5024 59.852C39.7504 59.772 39.9384 59.668 40.0664 59.54C40.1944 59.42 40.2584 59.28 40.2584 59.12C40.2584 59.048 40.2304 58.98 40.1744 58.916C40.1264 58.852 40.0424 58.784 39.9224 58.712C39.8104 58.64 39.6584 58.564 39.4664 58.484C39.2824 58.404 39.0584 58.316 38.7944 58.22L39.1904 56.528C39.5344 56.672 39.8584 56.8 40.1624 56.912C40.4744 57.016 40.7704 57.104 41.0504 57.176C41.3304 57.24 41.5944 57.292 41.8424 57.332C42.0904 57.364 42.3224 57.38 42.5384 57.38C42.8424 57.38 43.0584 57.46 43.1864 57.62C43.3144 57.772 43.3784 57.964 43.3784 58.196C43.3784 58.444 43.2944 58.652 43.1264 58.82C42.9584 58.98 42.7224 59.06 42.4184 59.06C42.3544 59.06 42.2904 59.06 42.2264 59.06C42.1704 59.06 42.1104 59.06 42.0464 59.06C41.9904 59.06 41.9304 59.06 41.8664 59.06C41.8824 59.14 41.8904 59.208 41.8904 59.264C41.8904 59.328 41.8904 59.388 41.8904 59.444C41.8904 59.708 41.7984 59.976 41.6144 60.248C41.4384 60.52 41.1624 60.772 40.7864 61.004C40.4104 61.236 39.9304 61.42 39.3464 61.556C38.7704 61.7 38.0824 61.772 37.2824 61.772C36.4184 61.772 35.6744 61.66 35.0504 61.436C34.4344 61.22 33.9584 60.88 33.6224 60.416C33.2944 59.96 33.1304 59.376 33.1304 58.664ZM46.6625 61.76L46.3145 60.08C46.8825 60.008 47.3785 59.92 47.8025 59.816C48.2265 59.72 48.5825 59.584 48.8705 59.408C49.1585 59.232 49.3745 58.992 49.5185 58.688C49.6625 58.376 49.7345 57.976 49.7345 57.488C49.7345 57.312 49.7185 57.136 49.6865 56.96C49.6545 56.776 49.6065 56.608 49.5425 56.456C49.4785 56.304 49.3945 56.18 49.2905 56.084C49.1945 55.988 49.0785 55.94 48.9425 55.94C48.7985 55.94 48.6705 55.992 48.5585 56.096C48.4465 56.192 48.3585 56.316 48.2945 56.468C48.2305 56.612 48.1985 56.76 48.1985 56.912C48.1985 57.024 48.2265 57.12 48.2825 57.2C48.3385 57.272 48.4225 57.328 48.5345 57.368C48.6465 57.4 48.7865 57.416 48.9545 57.416C49.1465 57.416 49.3425 57.396 49.5425 57.356C49.7505 57.308 49.9385 57.244 50.1065 57.164L50.1545 58.472C49.9625 58.624 49.7425 58.76 49.4945 58.88C49.2465 58.992 48.9465 59.048 48.5945 59.048C48.3065 59.048 48.0385 59.016 47.7905 58.952C47.5425 58.88 47.3225 58.772 47.1305 58.628C46.9465 58.484 46.8025 58.3 46.6985 58.076C46.5945 57.844 46.5425 57.568 46.5425 57.248C46.5425 56.856 46.6065 56.476 46.7345 56.108C46.8625 55.74 47.0385 55.412 47.2625 55.124C47.4945 54.828 47.7585 54.596 48.0545 54.428C48.3585 54.252 48.6785 54.164 49.0145 54.164C49.4145 54.164 49.7625 54.264 50.0585 54.464C50.3625 54.664 50.6145 54.928 50.8145 55.256C51.0145 55.576 51.1665 55.924 51.2705 56.3C51.3745 56.676 51.4265 57.036 51.4265 57.38C51.4265 58.284 51.2345 59.052 50.8505 59.684C50.4665 60.316 49.9185 60.804 49.2065 61.148C48.4945 61.5 47.6465 61.704 46.6625 61.76ZM56.6831 52.568C56.6831 52.304 56.6671 52.04 56.6351 51.776C56.6111 51.512 56.5791 51.264 56.5391 51.032C56.4991 50.792 56.4631 50.584 56.4311 50.408L58.1111 50.168C58.1431 50.328 58.1751 50.54 58.2071 50.804C58.2391 51.068 58.2671 51.348 58.2911 51.644C58.3151 51.932 58.3271 52.208 58.3271 52.472C58.3271 52.888 58.2911 53.28 58.2191 53.648C58.1471 54.016 58.0391 54.364 57.8951 54.692C57.7511 55.012 57.5711 55.32 57.3551 55.616L57.1391 55.904C56.9311 56.16 56.6871 56.412 56.4071 56.66C56.1351 56.908 55.8351 57.148 55.5071 57.38H56.2871C56.5591 57.38 56.7671 57.364 56.9111 57.332C57.0551 57.3 57.1511 57.256 57.1991 57.2C57.2551 57.136 57.2831 57.064 57.2831 56.984C57.2831 56.84 57.1591 56.628 56.9111 56.348C56.6631 56.06 56.3191 55.732 55.8791 55.364C55.4391 54.988 54.9231 54.592 54.3311 54.176C53.7471 53.752 53.1151 53.328 52.4351 52.904L53.3111 51.62C54.2551 52.204 55.0511 52.74 55.6991 53.228C56.3551 53.716 56.8911 54.16 57.3071 54.56C57.7311 54.96 58.0591 55.324 58.2911 55.652C58.5231 55.98 58.6831 56.276 58.7711 56.54C58.8591 56.796 58.9031 57.028 58.9031 57.236C58.9031 57.468 58.8671 57.692 58.7951 57.908C58.7231 58.116 58.6071 58.304 58.4471 58.472C58.2871 58.632 58.0791 58.76 57.8231 58.856C57.5671 58.952 57.2511 59 56.8751 59H53.3471V57.392C54.1711 56.8 54.8231 56.24 55.3031 55.712C55.7911 55.184 56.1431 54.664 56.3591 54.152C56.5751 53.64 56.6831 53.112 56.6831 52.568ZM52.3271 51.44L52.1231 50.6C52.4031 50.552 52.6111 50.512 52.7471 50.48C52.8911 50.448 53.0431 50.412 53.2031 50.372L53.0831 50.672C52.8751 50.6 52.6751 50.46 52.4831 50.252C52.2991 50.036 52.2071 49.792 52.2071 49.52C52.2071 49.232 52.2711 49 52.3991 48.824C52.5271 48.648 52.6911 48.52 52.8911 48.44C53.0911 48.36 53.2991 48.32 53.5151 48.32C53.6351 48.32 53.7471 48.328 53.8511 48.344C53.9631 48.36 54.0631 48.384 54.1511 48.416L54.0551 49.28C53.9751 49.264 53.8951 49.248 53.8151 49.232C53.7351 49.216 53.6471 49.208 53.5511 49.208C53.4471 49.208 53.3511 49.244 53.2631 49.316C53.1831 49.38 53.1431 49.46 53.1431 49.556C53.1431 49.692 53.1911 49.812 53.2871 49.916C53.3831 50.02 53.4951 50.104 53.6231 50.168C53.7591 50.224 53.8711 50.256 53.9591 50.264L53.2991 50.336C53.5151 50.28 53.7191 50.224 53.9111 50.168C54.1031 50.104 54.2831 50.04 54.4511 49.976L54.6911 50.78C54.4911 50.852 54.2551 50.932 53.9831 51.02C53.7191 51.1 53.4431 51.176 53.1551 51.248C52.8751 51.32 52.5991 51.384 52.3271 51.44ZM60.8604 59L60.6084 50.216H62.2884L62.5404 59H60.8604Z" fill="black"/>
<path d="M30.1972 74V73.1H31.9272V67.83L32.4672 67.86L30.5472 69.06L30.1072 68.26L32.2172 66.95H32.9872V73.1H34.5972V74H30.1972ZM38.1575 73.72C38.1575 73.5667 38.1708 73.3867 38.1975 73.18C38.2241 72.9733 38.2741 72.74 38.3475 72.48C38.4208 72.2133 38.5308 71.9167 38.6775 71.59L39.9075 72.02C39.8341 72.2267 39.7708 72.4167 39.7175 72.59C39.6641 72.7567 39.6241 72.9133 39.5975 73.06C39.5708 73.2 39.5575 73.34 39.5575 73.48C39.5575 73.78 39.6308 74.04 39.7775 74.26C39.9308 74.4867 40.1375 74.66 40.3975 74.78C40.6641 74.9067 40.9708 74.97 41.3175 74.97C41.8841 74.97 42.3175 74.8767 42.6175 74.69C42.9241 74.51 43.1308 74.2233 43.2375 73.83C43.3508 73.43 43.3941 72.9133 43.3675 72.28L43.1675 66.68H44.5775L44.7275 71.41C44.7408 71.7433 44.7875 72 44.8675 72.18C44.9475 72.36 45.0708 72.4833 45.2375 72.55C45.4108 72.6167 45.6341 72.65 45.9075 72.65C46.1608 72.65 46.3408 72.7167 46.4475 72.85C46.5541 72.9767 46.6075 73.1367 46.6075 73.33C46.6075 73.5367 46.5375 73.71 46.3975 73.85C46.2575 73.9833 46.0608 74.05 45.8075 74.05C45.6608 74.05 45.5041 74.03 45.3375 73.99C45.1708 73.95 45.0108 73.8867 44.8575 73.8C44.7041 73.7133 44.5708 73.6 44.4575 73.46C44.3441 73.3133 44.2675 73.1333 44.2275 72.92L44.7675 72.65C44.7675 73.3233 44.6875 73.8933 44.5275 74.36C44.3741 74.8267 44.1475 75.2033 43.8475 75.49C43.5541 75.7767 43.1908 75.9833 42.7575 76.11C42.3308 76.2433 41.8375 76.31 41.2775 76.31C40.8508 76.31 40.4475 76.2567 40.0675 76.15C39.6941 76.0433 39.3641 75.8833 39.0775 75.67C38.7908 75.4567 38.5641 75.1867 38.3975 74.86C38.2375 74.54 38.1575 74.16 38.1575 73.72ZM55.8376 74.05C55.4976 74.05 55.171 74.02 54.8576 73.96C54.5443 73.8933 54.261 73.8067 54.0076 73.7C53.761 73.5933 53.5576 73.4733 53.3976 73.34L54.2976 72.37C54.5376 72.47 54.7843 72.5433 55.0376 72.59C55.291 72.63 55.591 72.65 55.9376 72.65C56.191 72.65 56.371 72.7167 56.4776 72.85C56.591 72.9767 56.6476 73.1367 56.6476 73.33C56.6476 73.5367 56.5776 73.71 56.4376 73.85C56.2976 73.9833 56.0976 74.05 55.8376 74.05ZM50.9876 74.18C50.3676 74.18 49.851 74.1533 49.4376 74.1C49.031 74.0467 48.701 73.97 48.4476 73.87C48.1943 73.77 47.9943 73.65 47.8476 73.51C47.701 73.37 47.581 73.2167 47.4876 73.05L47.7676 72.97C47.601 73.29 47.411 73.5267 47.1976 73.68C46.9843 73.8333 46.761 73.9333 46.5276 73.98C46.2943 74.0267 46.0543 74.05 45.8076 74.05L45.9076 72.65C46.1143 72.65 46.2776 72.6167 46.3976 72.55C46.5176 72.4833 46.6143 72.3733 46.6876 72.22C46.7676 72.0667 46.841 71.8633 46.9076 71.61C46.9743 71.3567 47.0543 71.0467 47.1476 70.68L48.4176 70.99C48.371 71.17 48.331 71.3267 48.2976 71.46C48.271 71.5933 48.2476 71.71 48.2276 71.81C48.2143 71.9033 48.2076 71.98 48.2076 72.04C48.2076 72.1667 48.2376 72.28 48.2976 72.38C48.3576 72.4733 48.4743 72.55 48.6476 72.61C48.821 72.6633 49.0743 72.7067 49.4076 72.74C49.7476 72.7667 50.191 72.78 50.7376 72.78C51.3176 72.78 51.801 72.76 52.1876 72.72C52.5743 72.6733 52.881 72.61 53.1076 72.53C53.341 72.4433 53.5076 72.34 53.6076 72.22C53.7076 72.0933 53.7576 71.95 53.7576 71.79C53.7576 71.6633 53.7276 71.5467 53.6676 71.44C53.6143 71.3267 53.5243 71.2333 53.3976 71.16C53.271 71.0867 53.1076 71.05 52.9076 71.05C52.6676 71.05 52.4243 71.11 52.1776 71.23C51.9376 71.3433 51.701 71.4967 51.4676 71.69C51.2343 71.8767 51.011 72.0867 50.7976 72.32C50.591 72.5533 50.4043 72.7867 50.2376 73.02L48.7376 72.85C48.9976 72.43 49.291 72.0267 49.6176 71.64C49.9443 71.2533 50.2943 70.9133 50.6676 70.62C51.041 70.32 51.4276 70.0833 51.8276 69.91C52.2276 69.7367 52.6343 69.65 53.0476 69.65C53.4943 69.65 53.8743 69.7367 54.1876 69.91C54.501 70.0833 54.741 70.3233 54.9076 70.63C55.0743 70.9367 55.1576 71.29 55.1576 71.69C55.1576 72.1767 55.0176 72.6067 54.7376 72.98C54.4643 73.3533 54.021 73.6467 53.4076 73.86C52.801 74.0733 51.9943 74.18 50.9876 74.18ZM55.8467 74.05L55.9467 72.66C56.2067 72.6667 56.4467 72.6633 56.6667 72.65C56.8867 72.6367 57.0833 72.6167 57.2567 72.59C57.4367 72.5633 57.5933 72.5333 57.7267 72.5C57.8667 72.4667 57.9833 72.4367 58.0767 72.41C58.3033 72.3367 58.4967 72.25 58.6567 72.15C58.8167 72.0433 58.94 71.9233 59.0267 71.79C59.1133 71.6567 59.1567 71.5133 59.1567 71.36C59.1567 71.24 59.13 71.12 59.0767 71C59.03 70.8733 58.96 70.77 58.8667 70.69C58.7733 70.61 58.6633 70.57 58.5367 70.57C58.4167 70.57 58.3067 70.6067 58.2067 70.68C58.1067 70.7533 58.0267 70.8533 57.9667 70.98C57.9067 71.1 57.8767 71.24 57.8767 71.4C57.8767 71.54 57.91 71.6733 57.9767 71.8C58.0433 71.92 58.1367 72.0367 58.2567 72.15C58.3767 72.2633 58.52 72.37 58.6867 72.47L57.3567 72.98C57.21 72.84 57.07 72.69 56.9367 72.53C56.81 72.37 56.7033 72.19 56.6167 71.99C56.5367 71.7833 56.4967 71.5533 56.4967 71.3C56.4967 70.9933 56.5567 70.7133 56.6767 70.46C56.7967 70.2067 56.9567 69.99 57.1567 69.81C57.3567 69.6233 57.58 69.48 57.8267 69.38C58.0733 69.28 58.32 69.23 58.5667 69.23C58.9667 69.23 59.3133 69.3233 59.6067 69.51C59.9 69.6967 60.1267 69.94 60.2867 70.24C60.4533 70.54 60.5367 70.8667 60.5367 71.22C60.5367 71.5467 60.4767 71.84 60.3567 72.1C60.2367 72.3533 60.0733 72.58 59.8667 72.78C59.6667 72.9733 59.4433 73.1433 59.1967 73.29C58.9567 73.4367 58.7133 73.56 58.4667 73.66C58.3467 73.7133 58.1967 73.7633 58.0167 73.81C57.8367 73.8567 57.6333 73.9 57.4067 73.94C57.18 73.9733 56.9367 74 56.6767 74.02C56.4167 74.04 56.14 74.05 55.8467 74.05ZM61.1267 74.05C60.74 74.05 60.36 74.03 59.9867 73.99C59.6133 73.95 59.2667 73.89 58.9467 73.81C58.6333 73.73 58.36 73.6333 58.1267 73.52L58.8167 72.44C59.0167 72.4933 59.25 72.5367 59.5167 72.57C59.79 72.5967 60.0733 72.6167 60.3667 72.63C60.6667 72.6433 60.9533 72.65 61.2267 72.65C61.48 72.65 61.66 72.7167 61.7667 72.85C61.88 72.9767 61.9367 73.1367 61.9367 73.33C61.9367 73.5367 61.8667 73.71 61.7267 73.85C61.5867 73.9833 61.3867 74.05 61.1267 74.05ZM58.5767 68.3C58.37 68.3 58.1933 68.23 58.0467 68.09C57.9067 67.95 57.8367 67.7767 57.8367 67.57C57.8367 67.3633 57.9067 67.1867 58.0467 67.04C58.1933 66.8933 58.37 66.82 58.5767 66.82C58.7767 66.82 58.9467 66.8933 59.0867 67.04C59.2333 67.1867 59.3067 67.3633 59.3067 67.57C59.3067 67.7767 59.2333 67.95 59.0867 68.09C58.9467 68.23 58.7767 68.3 58.5767 68.3ZM61.1396 74.05L61.2396 72.65C61.5463 72.65 61.7663 72.62 61.8996 72.56C62.033 72.4933 62.113 72.3733 62.1396 72.2C62.1663 72.02 62.173 71.76 62.1596 71.42L61.9796 66.68H63.3896L63.5896 71.52C63.603 71.9067 63.5863 72.2567 63.5396 72.57C63.4996 72.8767 63.3963 73.14 63.2296 73.36C63.0696 73.58 62.8196 73.75 62.4796 73.87C62.1463 73.99 61.6996 74.05 61.1396 74.05ZM64.9084 74L64.6984 66.68H66.0984L66.3084 74H64.9084Z" fill="#667085"/>
<defs>
<filter id="filter0_d_8310_792" x="0" y="0.5" width="96" height="85.8462" filterUnits="userSpaceOnUse" color-interpolation-filters="sRGB">
<feFlood flood-opacity="0" result="BackgroundImageFix"/>
<feColorMatrix in="SourceAlpha" type="matrix" values="0 0 0 0 0 0 0 0 0 0 0 0 0 0 0 0 0 0 127 0" result="hardAlpha"/>
<feOffset dy="4"/>
<feGaussianBlur stdDeviation="2"/>
<feComposite in2="hardAlpha" operator="out"/>
<feColorMatrix type="matrix" values="0 0 0 0 0 0 0 0 0 0 0 0 0 0 0 0 0 0 0.25 0"/>
<feBlend mode="normal" in2="BackgroundImageFix" result="effect1_dropShadow_8310_792"/>
<feBlend mode="normal" in="SourceGraphic" in2="effect1_dropShadow_8310_792" result="shape"/>
</filter>
<clipPath id="clip0_8310_792">
<rect width="30" height="30" fill="white" transform="translate(33)"/>
</clipPath>
</defs>
</svg>
