<svg width="102" height="86" viewBox="0 0 102 86" fill="none" xmlns="http://www.w3.org/2000/svg">
<g filter="url(#filter0_d_8334_734)">
<path d="M5.45148 42.5206C4.65639 41.2109 4.25887 40.5556 4.10327 39.8593C3.96558 39.2431 3.96558 38.6067 4.10327 37.9905C4.25887 37.2942 4.65639 36.6389 5.45148 35.3292L24.7122 3.59573C25.5072 2.2858 25.9047 1.63084 26.4609 1.1545C26.953 0.733034 27.5327 0.414632 28.1625 0.220013C28.8742 -2.00927e-07 29.6693 0 31.2595 0H69.7806C71.3711 0 72.1659 -2.00927e-07 72.8779 0.220013C73.5073 0.414632 74.0871 0.733034 74.5794 1.1545C75.1356 1.63084 75.533 2.2858 76.3282 3.59573L95.5887 35.3292C96.3839 36.6389 96.7813 37.2942 96.9368 37.9905C97.0747 38.6067 97.0747 39.2431 96.9368 39.8593C96.7813 40.5556 96.3839 41.2109 95.5887 42.5206L76.3282 74.2543C75.533 75.564 75.1356 76.2189 74.5794 76.6953C74.0871 77.1169 73.5073 77.4351 72.8779 77.6298C72.1659 77.85 71.3711 77.85 69.7806 77.85H31.2595C29.6693 77.85 28.8742 77.85 28.1625 77.6298C27.5327 77.4351 26.953 77.1169 26.4609 76.6953C25.9047 76.2189 25.5072 75.564 24.7122 74.2543L5.45148 42.5206Z" fill="white"/>
</g>
<path d="M60.9148 10.8521H41.9502C41.7451 10.8527 41.5486 10.9345 41.4035 11.0796C41.2585 11.2246 41.1767 11.4211 41.176 11.6262V34.6924C41.1769 34.897 41.259 35.0928 41.4041 35.237C41.5492 35.3812 41.7456 35.4619 41.9502 35.4614H60.9148C61.0158 35.4616 61.1159 35.4418 61.2093 35.4032C61.3026 35.3646 61.3875 35.3079 61.4589 35.2365C61.5303 35.165 61.587 35.0802 61.6256 34.9868C61.6642 34.8935 61.684 34.7934 61.6838 34.6924V11.6262C61.6843 11.4216 61.6036 11.2252 61.4594 11.0801C61.3153 10.9349 61.1194 10.8529 60.9148 10.8521ZM50.4045 31.3803H45.2776C45.0736 31.3803 44.878 31.2993 44.7338 31.1551C44.5896 31.0109 44.5085 30.8153 44.5085 30.6113C44.5085 30.4073 44.5896 30.2117 44.7338 30.0675C44.878 29.9233 45.0736 29.8422 45.2776 29.8422H50.4045C51.4142 29.858 51.4168 31.3642 50.4045 31.3803ZM50.4045 25.7407H45.2776C45.0736 25.7407 44.878 25.6597 44.7338 25.5154C44.5896 25.3712 44.5085 25.1756 44.5085 24.9716C44.5085 24.7677 44.5896 24.5721 44.7338 24.4278C44.878 24.2836 45.0736 24.2026 45.2776 24.2026H50.4045C51.4142 24.2183 51.4168 25.7245 50.4045 25.7407ZM52.4758 19.5679C52.4608 20.5777 50.9534 20.5796 50.9377 19.5678V15.5842C50.9387 14.9417 51.1947 14.3259 51.6494 13.8719C52.104 13.4179 52.7203 13.1629 53.3628 13.1629C54.0053 13.1629 54.6215 13.4179 55.0762 13.8719C55.5309 14.3259 55.7868 14.9417 55.7878 15.5842V19.5679C55.7713 20.5784 54.2663 20.5795 54.2497 19.5678V18.486H52.4758V19.5679ZM58.1257 29.8935L55.6033 32.416C55.5328 32.4886 55.4483 32.546 55.3548 32.5848C55.2614 32.6236 55.161 32.6429 55.0598 32.6416C54.9588 32.6419 54.8587 32.6222 54.7654 32.5834C54.6721 32.5447 54.5874 32.4878 54.5164 32.416L53.4499 31.3496C52.7516 30.6261 53.8134 29.5545 54.5369 30.2626L55.0598 30.7855L57.0388 28.8066C57.77 28.108 58.8309 29.1719 58.1257 29.8935ZM58.1257 24.2539L55.6033 26.7763C55.5328 26.8489 55.4483 26.9063 55.3548 26.9451C55.2614 26.9839 55.161 27.0033 55.0598 27.0019C54.9588 27.0023 54.8587 26.9825 54.7654 26.9438C54.6721 26.9051 54.5874 26.8481 54.5164 26.7763L53.4499 25.7099C52.7516 24.9864 53.8134 23.9148 54.5369 24.623L55.0598 25.1459L57.0388 23.167C57.77 22.4683 58.8309 23.5322 58.1257 24.2539Z" fill="#F2BB41"/>
<path d="M54.2497 15.5841C54.2491 15.3493 54.1554 15.1243 53.9892 14.9584C53.8229 14.7926 53.5976 14.6995 53.3628 14.6995C53.1279 14.6995 52.9027 14.7926 52.7364 14.9584C52.5701 15.1243 52.4764 15.3493 52.4758 15.5841V16.9479H54.2497V15.5841Z" fill="#F2BB41"/>
<path d="M41.6638 50.8207C41.6638 50.6367 41.6798 50.4207 41.7118 50.1727C41.7438 49.9247 41.8038 49.6447 41.8918 49.3327C41.9798 49.0127 42.1118 48.6567 42.2878 48.2647L43.7638 48.7807C43.6758 49.0287 43.5998 49.2567 43.5358 49.4647C43.4718 49.6647 43.4238 49.8527 43.3918 50.0287C43.3598 50.1967 43.3438 50.3647 43.3438 50.5327C43.3438 50.8927 43.4318 51.2047 43.6078 51.4687C43.7918 51.7407 44.0398 51.9487 44.3518 52.0927C44.6718 52.2447 45.0398 52.3207 45.4558 52.3207C46.1358 52.3207 46.6558 52.2087 47.0158 51.9847C47.3838 51.7687 47.6318 51.4247 47.7598 50.9527C47.8958 50.4727 47.9478 49.8527 47.9158 49.0927L47.6758 42.3727H49.3678L49.5478 48.0487C49.5638 48.4487 49.6198 48.7567 49.7158 48.9727C49.8118 49.1887 49.9598 49.3367 50.1598 49.4167C50.3678 49.4967 50.6358 49.5367 50.9638 49.5367C51.2678 49.5367 51.4838 49.6167 51.6118 49.7767C51.7398 49.9287 51.8038 50.1207 51.8038 50.3527C51.8038 50.6007 51.7198 50.8087 51.5518 50.9767C51.3838 51.1367 51.1478 51.2167 50.8438 51.2167C50.6678 51.2167 50.4798 51.1927 50.2798 51.1447C50.0798 51.0967 49.8878 51.0207 49.7038 50.9167C49.5198 50.8127 49.3598 50.6767 49.2238 50.5087C49.0878 50.3327 48.9958 50.1167 48.9478 49.8607L49.5958 49.5367C49.5958 50.3447 49.4998 51.0287 49.3078 51.5887C49.1238 52.1487 48.8518 52.6007 48.4918 52.9447C48.1398 53.2887 47.7038 53.5367 47.1838 53.6887C46.6718 53.8487 46.0798 53.9287 45.4078 53.9287C44.8958 53.9287 44.4118 53.8647 43.9558 53.7367C43.5078 53.6087 43.1118 53.4167 42.7678 53.1607C42.4238 52.9047 42.1518 52.5807 41.9518 52.1887C41.7598 51.8047 41.6638 51.3487 41.6638 50.8207ZM50.844 51.2167L50.964 49.5367C51.268 49.5367 51.508 49.5087 51.684 49.4527C51.868 49.3967 52.012 49.2847 52.116 49.1167C52.228 48.9407 52.32 48.6847 52.392 48.3487C52.472 48.0127 52.552 47.5647 52.632 47.0047L54.204 47.2687C54.188 47.3887 54.164 47.5287 54.132 47.6887C54.108 47.8487 54.084 48.0127 54.06 48.1807C54.044 48.3407 54.036 48.4927 54.036 48.6367C54.036 48.8287 54.076 48.9927 54.156 49.1287C54.244 49.2567 54.396 49.3567 54.612 49.4287C54.836 49.5007 55.156 49.5367 55.572 49.5367C55.876 49.5367 56.092 49.6167 56.22 49.7767C56.348 49.9287 56.412 50.1207 56.412 50.3527C56.412 50.6007 56.328 50.8087 56.16 50.9767C56 51.1367 55.764 51.2167 55.452 51.2167C54.9 51.2167 54.452 51.1647 54.108 51.0607C53.764 50.9567 53.508 50.7807 53.34 50.5327C53.172 50.2847 53.064 49.9447 53.016 49.5127H53.592C53.448 49.8967 53.28 50.2047 53.088 50.4367C52.896 50.6607 52.68 50.8287 52.44 50.9407C52.2 51.0527 51.944 51.1247 51.672 51.1567C51.408 51.1967 51.132 51.2167 50.844 51.2167ZM52.98 53.9767C52.748 53.9767 52.548 53.8967 52.38 53.7367C52.22 53.5767 52.14 53.3807 52.14 53.1487C52.14 52.9167 52.22 52.7127 52.38 52.5367C52.548 52.3687 52.748 52.2847 52.98 52.2847C53.212 52.2847 53.408 52.3687 53.568 52.5367C53.736 52.7127 53.82 52.9167 53.82 53.1487C53.82 53.3807 53.736 53.5767 53.568 53.7367C53.408 53.8967 53.212 53.9767 52.98 53.9767ZM55.4495 51.2167L55.5695 49.5487C56.2335 49.5487 56.7655 49.5447 57.1655 49.5367C57.5735 49.5287 57.8895 49.5127 58.1135 49.4887C58.3455 49.4567 58.5175 49.4207 58.6295 49.3807C58.7415 49.3327 58.8375 49.2807 58.9175 49.2247C59.0135 49.1527 59.0935 49.0567 59.1575 48.9367C59.2295 48.8087 59.2855 48.6407 59.3255 48.4327C59.3655 48.2247 59.3855 47.9647 59.3855 47.6527C59.3855 47.2607 59.3495 46.9327 59.2775 46.6687C59.2135 46.3967 59.1175 46.1927 58.9895 46.0567C58.8695 45.9207 58.7215 45.8527 58.5455 45.8527C58.4175 45.8527 58.2975 45.8967 58.1855 45.9847C58.0735 46.0647 57.9815 46.1767 57.9095 46.3207C57.8375 46.4647 57.8015 46.6287 57.8015 46.8127C57.8015 46.9167 57.8295 47.0087 57.8855 47.0887C57.9415 47.1687 58.0295 47.2287 58.1495 47.2687C58.2695 47.3087 58.4215 47.3287 58.6055 47.3287C58.7815 47.3287 58.9655 47.3087 59.1575 47.2687C59.3575 47.2207 59.5415 47.1567 59.7095 47.0767L59.7575 48.5047C59.6295 48.5927 59.4815 48.6727 59.3135 48.7447C59.1455 48.8167 58.9655 48.8727 58.7735 48.9127C58.5895 48.9447 58.4015 48.9607 58.2095 48.9607C57.7855 48.9607 57.4175 48.9047 57.1055 48.7927C56.8015 48.6727 56.5655 48.4807 56.3975 48.2167C56.2295 47.9527 56.1455 47.5927 56.1455 47.1367C56.1455 46.7847 56.2055 46.4367 56.3255 46.0927C56.4455 45.7407 56.6175 45.4247 56.8415 45.1447C57.0655 44.8567 57.3295 44.6287 57.6335 44.4607C57.9375 44.2847 58.2735 44.1967 58.6415 44.1967C59.1855 44.1967 59.6335 44.3567 59.9855 44.6767C60.3455 44.9887 60.6095 45.4127 60.7775 45.9487C60.9535 46.4767 61.0415 47.0647 61.0415 47.7127C61.0415 48.2807 60.9575 48.7767 60.7895 49.2007C60.6215 49.6167 60.4215 49.9447 60.1895 50.1847C59.9975 50.3847 59.7775 50.5527 59.5295 50.6887C59.2815 50.8247 58.9775 50.9327 58.6175 51.0127C58.2655 51.0847 57.8295 51.1367 57.3095 51.1687C56.7975 51.2007 56.1775 51.2167 55.4495 51.2167ZM59.6615 43.1047C59.4295 43.1047 59.2295 43.0247 59.0615 42.8647C58.9015 42.6967 58.8215 42.5007 58.8215 42.2767C58.8215 42.0447 58.9015 41.8447 59.0615 41.6767C59.2295 41.5087 59.4295 41.4247 59.6615 41.4247C59.8855 41.4247 60.0775 41.5087 60.2375 41.6767C60.3975 41.8447 60.4775 42.0447 60.4775 42.2767C60.4775 42.5007 60.3975 42.6967 60.2375 42.8647C60.0775 43.0247 59.8855 43.1047 59.6615 43.1047ZM57.5855 43.0927C57.3535 43.0927 57.1535 43.0127 56.9855 42.8527C56.8255 42.6847 56.7455 42.4887 56.7455 42.2647C56.7455 42.0327 56.8255 41.8327 56.9855 41.6647C57.1535 41.4967 57.3535 41.4127 57.5855 41.4127C57.8095 41.4127 58.0015 41.4967 58.1615 41.6647C58.3215 41.8327 58.4015 42.0327 58.4015 42.2647C58.4015 42.4887 58.3215 42.6847 58.1615 42.8527C58.0015 43.0127 57.8095 43.0927 57.5855 43.0927ZM30.0798 66.8207C30.0798 66.6367 30.0958 66.4207 30.1278 66.1727C30.1598 65.9247 30.2198 65.6447 30.3078 65.3327C30.3958 65.0127 30.5278 64.6567 30.7038 64.2647L32.1798 64.7807C32.0918 65.0287 32.0158 65.2567 31.9518 65.4647C31.8878 65.6647 31.8398 65.8527 31.8078 66.0287C31.7758 66.1967 31.7598 66.3647 31.7598 66.5327C31.7598 66.9247 31.8478 67.2447 32.0238 67.4927C32.2078 67.7487 32.4638 67.9367 32.7918 68.0567C33.1198 68.1847 33.4998 68.2487 33.9318 68.2487C34.4278 68.2487 34.8358 68.1807 35.1558 68.0447C35.4758 67.9167 35.7238 67.7447 35.8998 67.5287C36.0758 67.3207 36.1998 67.0927 36.2718 66.8447C36.3438 66.5887 36.3798 66.3407 36.3798 66.1007C36.3798 65.7727 36.3238 65.3847 36.2118 64.9367C36.0998 64.4807 35.8998 63.9687 35.6118 63.4007L37.1598 62.7407C37.3198 63.0207 37.4678 63.3487 37.6038 63.7247C37.7398 64.0927 37.8478 64.4767 37.9278 64.8767C38.0158 65.2767 38.0598 65.6567 38.0598 66.0167C38.0598 66.3367 38.0198 66.6767 37.9398 67.0367C37.8598 67.3887 37.7238 67.7367 37.5318 68.0807C37.3478 68.4247 37.0958 68.7327 36.7758 69.0047C36.4558 69.2847 36.0598 69.5087 35.5878 69.6767C35.1158 69.8447 34.5518 69.9287 33.8958 69.9287C33.3678 69.9287 32.8718 69.8687 32.4078 69.7487C31.9518 69.6367 31.5478 69.4567 31.1958 69.2087C30.8518 68.9607 30.5798 68.6367 30.3798 68.2367C30.1798 67.8447 30.0798 67.3727 30.0798 66.8207ZM33.9918 62.2607C33.7438 62.2607 33.5318 62.1767 33.3558 62.0087C33.1878 61.8407 33.1038 61.6327 33.1038 61.3847C33.1038 61.1367 33.1878 60.9247 33.3558 60.7487C33.5318 60.5727 33.7438 60.4847 33.9918 60.4847C34.2318 60.4847 34.4358 60.5727 34.6038 60.7487C34.7798 60.9247 34.8678 61.1367 34.8678 61.3847C34.8678 61.6327 34.7798 61.8407 34.6038 62.0087C34.4358 62.1767 34.2318 62.2607 33.9918 62.2607ZM42.4664 67.2167C41.7224 67.2167 41.1464 67.1407 40.7384 66.9887C40.3384 66.8367 40.0584 66.6007 39.8984 66.2807C39.7384 65.9527 39.6464 65.5407 39.6224 65.0447L39.3704 58.3727H41.0504L41.3024 64.2407C41.3184 64.6087 41.3584 64.8847 41.4224 65.0687C41.4864 65.2527 41.6064 65.3767 41.7824 65.4407C41.9664 65.5047 42.2344 65.5367 42.5864 65.5367C42.8904 65.5367 43.1064 65.6167 43.2344 65.7767C43.3704 65.9287 43.4384 66.1207 43.4384 66.3527C43.4384 66.6007 43.3544 66.8087 43.1864 66.9767C43.0184 67.1367 42.7784 67.2167 42.4664 67.2167ZM50.3307 67.2167C49.9627 67.2167 49.6187 67.1887 49.2987 67.1327C48.9867 67.0767 48.6987 66.9807 48.4347 66.8447C48.1707 66.7007 47.9347 66.5047 47.7267 66.2567C47.5267 66.0087 47.3587 65.6967 47.2227 65.3207L48.1707 64.5647C48.3147 64.8207 48.4907 65.0207 48.6987 65.1647C48.9067 65.3007 49.1547 65.3967 49.4427 65.4527C49.7307 65.5087 50.0667 65.5367 50.4507 65.5367C50.7547 65.5367 50.9707 65.6167 51.0987 65.7767C51.2267 65.9287 51.2907 66.1207 51.2907 66.3527C51.2907 66.6007 51.2067 66.8087 51.0387 66.9767C50.8787 67.1367 50.6427 67.2167 50.3307 67.2167ZM42.4827 67.2167L42.6027 65.5367C43.0347 65.5367 43.4627 65.5127 43.8867 65.4647C44.3107 65.4167 44.7227 65.3447 45.1227 65.2487C45.5227 65.1527 45.9027 65.0287 46.2627 64.8767C46.6307 64.7247 46.9747 64.5407 47.2947 64.3247C47.0547 64.1807 46.7947 64.0567 46.5147 63.9527C46.2347 63.8487 45.9347 63.7727 45.6147 63.7247C45.3027 63.6687 44.9707 63.6407 44.6187 63.6407C44.4907 63.6407 44.3547 63.6447 44.2107 63.6527C44.0747 63.6607 43.9347 63.6767 43.7907 63.7007C43.6467 63.7167 43.5027 63.7407 43.3587 63.7727L43.1187 62.1287C43.3507 62.0647 43.5947 62.0207 43.8507 61.9967C44.1147 61.9647 44.3467 61.9487 44.5467 61.9487C44.9787 61.9487 45.3747 61.9967 45.7347 62.0927C46.1027 62.1887 46.4387 62.3087 46.7427 62.4527C47.0547 62.5967 47.3427 62.7407 47.6067 62.8847C47.8787 63.0287 48.1347 63.1487 48.3747 63.2447C48.6227 63.3407 48.8627 63.3887 49.0947 63.3887H49.5387L49.7307 64.9847C49.3867 65.0007 49.0627 65.0687 48.7587 65.1887C48.4627 65.3007 48.1667 65.4447 47.8707 65.6207C47.5827 65.7887 47.2707 65.9647 46.9347 66.1487C46.6067 66.3327 46.2347 66.5047 45.8187 66.6647C45.4027 66.8247 44.9227 66.9567 44.3787 67.0607C43.8347 67.1647 43.2027 67.2167 42.4827 67.2167ZM50.3342 67.2167L50.4542 65.5367C50.7422 65.5367 50.9902 65.5087 51.1982 65.4527C51.4062 65.3967 51.5822 65.2847 51.7262 65.1167C51.8702 64.9407 51.9902 64.6847 52.0862 64.3487C52.1902 64.0127 52.2822 63.5647 52.3622 63.0047L53.9342 63.2687C53.9182 63.3887 53.8942 63.5287 53.8622 63.6887C53.8382 63.8487 53.8142 64.0127 53.7902 64.1807C53.7742 64.3407 53.7662 64.4927 53.7662 64.6367C53.7662 64.7807 53.7942 64.9087 53.8502 65.0207C53.9062 65.1327 53.9942 65.2287 54.1142 65.3087C54.2422 65.3807 54.4062 65.4367 54.6062 65.4767C54.8142 65.5167 55.0662 65.5367 55.3622 65.5367C55.6662 65.5367 55.8822 65.6167 56.0102 65.7767C56.1382 65.9287 56.2022 66.1207 56.2022 66.3527C56.2022 66.6007 56.1182 66.8087 55.9502 66.9767C55.7902 67.1367 55.5542 67.2167 55.2422 67.2167C54.8822 67.2167 54.5542 67.1887 54.2582 67.1327C53.9702 67.0767 53.7182 66.9847 53.5022 66.8567C53.2942 66.7207 53.1222 66.5447 52.9862 66.3287C52.8582 66.1047 52.7782 65.8327 52.7462 65.5127H53.3222C53.1782 65.8967 52.9942 66.2047 52.7702 66.4367C52.5542 66.6607 52.3102 66.8287 52.0382 66.9407C51.7662 67.0527 51.4822 67.1247 51.1862 67.1567C50.8982 67.1967 50.6142 67.2167 50.3342 67.2167ZM54.1862 61.9247C53.9542 61.9247 53.7542 61.8447 53.5862 61.6847C53.4262 61.5167 53.3462 61.3207 53.3462 61.0967C53.3462 60.8647 53.4262 60.6647 53.5862 60.4967C53.7542 60.3287 53.9542 60.2447 54.1862 60.2447C54.4102 60.2447 54.6022 60.3287 54.7622 60.4967C54.9222 60.6647 55.0022 60.8647 55.0022 61.0967C55.0022 61.3207 54.9222 61.5167 54.7622 61.6847C54.6022 61.8447 54.4102 61.9247 54.1862 61.9247ZM52.1102 61.9127C51.8782 61.9127 51.6782 61.8327 51.5102 61.6727C51.3502 61.5047 51.2702 61.3087 51.2702 61.0847C51.2702 60.8527 51.3502 60.6527 51.5102 60.4847C51.6782 60.3167 51.8782 60.2327 52.1102 60.2327C52.3342 60.2327 52.5262 60.3167 52.6862 60.4847C52.8462 60.6527 52.9262 60.8527 52.9262 61.0847C52.9262 61.3087 52.8462 61.5047 52.6862 61.6727C52.5262 61.8327 52.3342 61.9127 52.1102 61.9127ZM55.2444 67.2167L55.3644 65.5367C55.5484 65.5367 55.7044 65.4927 55.8324 65.4047C55.9684 65.3087 56.1084 65.1527 56.2524 64.9367C56.3964 64.7127 56.5644 64.4127 56.7564 64.0367C56.9964 63.5567 57.2444 63.1807 57.5004 62.9087C57.7644 62.6367 58.0324 62.4447 58.3044 62.3327C58.5844 62.2127 58.8644 62.1527 59.1444 62.1527C59.4964 62.1527 59.8244 62.2287 60.1284 62.3807C60.4324 62.5327 60.6964 62.7407 60.9204 63.0047C61.1444 63.2607 61.3164 63.5567 61.4364 63.8927C61.5644 64.2207 61.6284 64.5607 61.6284 64.9127C61.6284 65.3367 61.5364 65.7207 61.3524 66.0647C61.1764 66.4007 60.9284 66.6687 60.6084 66.8687C60.2964 67.0607 59.9364 67.1567 59.5284 67.1567C59.1844 67.1567 58.7844 67.0967 58.3284 66.9767C57.8724 66.8567 57.3924 66.6047 56.8884 66.2207L57.5004 64.7687C57.8604 65.0167 58.1964 65.1967 58.5084 65.3087C58.8284 65.4207 59.0924 65.4767 59.3004 65.4767C59.4604 65.4767 59.5924 65.4607 59.6964 65.4287C59.8004 65.3967 59.8764 65.3447 59.9244 65.2727C59.9724 65.2007 59.9964 65.1047 59.9964 64.9847C59.9964 64.8167 59.9564 64.6447 59.8764 64.4687C59.7964 64.2927 59.6884 64.1447 59.5524 64.0247C59.4244 63.8967 59.2724 63.8327 59.0964 63.8327C58.9284 63.8327 58.7844 63.8967 58.6644 64.0247C58.5524 64.1447 58.4404 64.3207 58.3284 64.5527C58.2244 64.7767 58.0964 65.0407 57.9444 65.3447C57.7604 65.7127 57.5804 66.0207 57.4044 66.2687C57.2284 66.5087 57.0404 66.7007 56.8404 66.8447C56.6484 66.9807 56.4204 67.0767 56.1564 67.1327C55.9004 67.1887 55.5964 67.2167 55.2444 67.2167ZM66.9568 60.7247C66.9568 60.4607 66.9408 60.1967 66.9088 59.9327C66.8848 59.6687 66.8528 59.4207 66.8128 59.1887C66.7728 58.9487 66.7368 58.7407 66.7048 58.5647L68.3848 58.3247C68.4168 58.4847 68.4488 58.6967 68.4808 58.9607C68.5128 59.2247 68.5408 59.5047 68.5648 59.8007C68.5888 60.0887 68.6008 60.3647 68.6008 60.6287C68.6008 61.0447 68.5648 61.4367 68.4928 61.8047C68.4208 62.1727 68.3128 62.5207 68.1688 62.8487C68.0248 63.1687 67.8448 63.4767 67.6288 63.7727L67.4128 64.0607C67.2048 64.3167 66.9608 64.5687 66.6808 64.8167C66.4088 65.0647 66.1088 65.3047 65.7808 65.5367H66.5608C66.8328 65.5367 67.0408 65.5207 67.1848 65.4887C67.3288 65.4567 67.4248 65.4127 67.4728 65.3567C67.5288 65.2927 67.5568 65.2207 67.5568 65.1407C67.5568 64.9967 67.4328 64.7847 67.1848 64.5047C66.9368 64.2167 66.5928 63.8887 66.1528 63.5207C65.7128 63.1447 65.1968 62.7487 64.6048 62.3327C64.0208 61.9087 63.3888 61.4847 62.7088 61.0607L63.5848 59.7767C64.5288 60.3607 65.3248 60.8967 65.9728 61.3847C66.6288 61.8727 67.1648 62.3167 67.5808 62.7167C68.0048 63.1167 68.3328 63.4807 68.5648 63.8087C68.7968 64.1367 68.9568 64.4327 69.0448 64.6967C69.1328 64.9527 69.1768 65.1847 69.1768 65.3927C69.1768 65.6247 69.1408 65.8487 69.0688 66.0647C68.9968 66.2727 68.8808 66.4607 68.7208 66.6287C68.5608 66.7887 68.3528 66.9167 68.0968 67.0127C67.8408 67.1087 67.5248 67.1567 67.1488 67.1567H63.6208V65.5487C64.4448 64.9567 65.0968 64.3967 65.5768 63.8687C66.0648 63.3407 66.4168 62.8207 66.6328 62.3087C66.8488 61.7967 66.9568 61.2687 66.9568 60.7247ZM70.7708 67.1567L70.5188 58.3727H72.1988L72.4508 67.1567H70.7708Z" fill="black"/>
<defs>
<filter id="filter0_d_8334_734" x="0" y="0" width="101.04" height="85.8501" filterUnits="userSpaceOnUse" color-interpolation-filters="sRGB">
<feFlood flood-opacity="0" result="BackgroundImageFix"/>
<feColorMatrix in="SourceAlpha" type="matrix" values="0 0 0 0 0 0 0 0 0 0 0 0 0 0 0 0 0 0 127 0" result="hardAlpha"/>
<feOffset dy="4"/>
<feGaussianBlur stdDeviation="2"/>
<feComposite in2="hardAlpha" operator="out"/>
<feColorMatrix type="matrix" values="0 0 0 0 0 0 0 0 0 0 0 0 0 0 0 0 0 0 0.25 0"/>
<feBlend mode="normal" in2="BackgroundImageFix" result="effect1_dropShadow_8334_734"/>
<feBlend mode="normal" in="SourceGraphic" in2="effect1_dropShadow_8334_734" result="shape"/>
</filter>
</defs>
</svg>
