<svg width="96" height="87" viewBox="0 0 96 87" fill="none" xmlns="http://www.w3.org/2000/svg">
<g filter="url(#filter0_d_8310_820)">
<path d="M5.37285 42.7685C4.62083 41.4589 4.24484 40.8036 4.09767 40.1074C3.96744 39.4912 3.96744 38.8548 4.09767 38.2386C4.24484 37.5424 4.62083 36.8871 5.37285 35.5774L23.5901 3.84555C24.3421 2.53569 24.7181 1.88076 25.2442 1.40444C25.7096 0.982998 26.2579 0.664612 26.8535 0.470002C27.5267 0.25 28.2787 0.25 29.7827 0.25H66.2171C67.7214 0.25 68.4731 0.25 69.1466 0.470002C69.7419 0.664612 70.2903 0.982998 70.756 1.40444C71.282 1.88076 71.6578 2.53569 72.41 3.84555L90.6271 35.5774C91.3792 36.8871 91.7551 37.5424 91.9021 38.2386C92.0326 38.8548 92.0326 39.4912 91.9021 40.1074C91.7551 40.8036 91.3792 41.4589 90.6271 42.7685L72.41 74.5006C71.6578 75.8103 71.282 76.4651 70.756 76.9415C70.2903 77.3631 69.7419 77.6813 69.1466 77.8759C68.4731 78.0962 67.7214 78.0962 66.2171 78.0962H29.7827C28.2787 78.0962 27.5267 78.0962 26.8535 77.8759C26.2579 77.6813 25.7096 77.3631 25.2442 76.9415C24.7181 76.4651 24.3421 75.8103 23.5901 74.5006L5.37285 42.7685Z" fill="white"/>
</g>
<g clip-path="url(#clip0_8310_820)">
<path d="M58.5005 28.2793C57.1402 27.9411 56.1248 26.7147 56.1248 25.2498C56.1248 23.5238 57.5239 22.75 59.25 22.75C59.4492 22.75 59.6571 22.7758 59.8464 22.8126C59.8552 23.0003 59.8748 23.185 59.8748 23.3748C59.8748 25.3714 59.3746 26.6262 58.5005 28.2793ZM41.0473 32.3562C42.165 30.7589 44.8598 29.6247 48 29.6247C51.1396 29.6247 53.8277 30.7647 54.9455 32.362C52.9898 33.7792 50.5945 34.6248 48 34.6248C45.4024 34.6248 43.0045 33.7765 41.0473 32.3562ZM36.1252 22.75C36.1252 22.5581 36.1448 22.3714 36.1536 22.1821C36.3429 22.1453 36.5504 22.1246 36.75 22.1246C38.4761 22.1246 39.8752 23.5238 39.8752 25.2498C39.8752 26.7146 38.8583 27.9389 37.4984 28.2772C36.6248 26.6246 36.1252 24.7455 36.1252 22.75ZM48 10.8746C53.4652 10.8746 58.0024 14.5905 59.3793 19.6465H36.6207C37.9976 14.5905 42.5348 10.8746 48 10.8746ZM48 7.75C39.7158 7.75 33 14.4654 33 22.75C33 31.0342 39.7158 37.75 48 37.75C56.2842 37.75 63 31.0342 63 22.75C63 14.4654 56.2842 7.75 48 7.75Z" fill="#F2BB41"/>
<path d="M52.6551 24.3016C52.6551 25.4442 50.5613 26.3706 47.9782 26.3706C45.3951 26.3706 43.3013 25.4442 43.3013 24.3016C43.3013 23.159 45.3951 22.2327 47.9782 22.2327C50.5613 22.2327 52.6551 23.159 52.6551 24.3016Z" fill="#E08838"/>
</g>
<path d="M23.6115 50.786C23.1635 50.786 22.7595 50.71 22.3995 50.558C22.0475 50.398 21.7675 50.162 21.5595 49.85C21.3595 49.53 21.2595 49.134 21.2595 48.662C21.2595 48.19 21.4195 47.666 21.7395 47.09C22.0595 46.506 22.5955 45.922 23.3475 45.338L23.2275 46.442L22.1475 45.602L23.2755 44.222C23.8835 44.686 24.4035 45.138 24.8355 45.578C25.2755 46.01 25.6115 46.454 25.8435 46.91C26.0755 47.366 26.1915 47.85 26.1915 48.362C26.1915 48.61 26.1515 48.878 26.0715 49.166C25.9915 49.446 25.8555 49.71 25.6635 49.958C25.4715 50.198 25.2075 50.398 24.8715 50.558C24.5435 50.71 24.1235 50.786 23.6115 50.786ZM23.7435 49.13C23.9435 49.13 24.1035 49.09 24.2235 49.01C24.3515 48.93 24.4475 48.826 24.5115 48.698C24.5755 48.57 24.6075 48.434 24.6075 48.29C24.6075 48.146 24.5755 47.99 24.5115 47.822C24.4475 47.654 24.3235 47.466 24.1395 47.258C23.9555 47.05 23.6835 46.81 23.3235 46.538L24.2355 46.418C23.9075 46.642 23.6435 46.87 23.4435 47.102C23.2435 47.334 23.0995 47.558 23.0115 47.774C22.9315 47.982 22.8915 48.174 22.8915 48.35C22.8915 48.606 22.9755 48.802 23.1435 48.938C23.3115 49.066 23.5115 49.13 23.7435 49.13ZM24.7275 43.322C24.4955 43.322 24.2955 43.242 24.1275 43.082C23.9675 42.914 23.8875 42.718 23.8875 42.494C23.8875 42.262 23.9675 42.062 24.1275 41.894C24.2955 41.726 24.4955 41.642 24.7275 41.642C24.9515 41.642 25.1435 41.726 25.3035 41.894C25.4635 42.062 25.5435 42.262 25.5435 42.494C25.5435 42.718 25.4635 42.914 25.3035 43.082C25.1435 43.242 24.9515 43.322 24.7275 43.322ZM22.6515 43.31C22.4195 43.31 22.2195 43.23 22.0515 43.07C21.8915 42.902 21.8115 42.706 21.8115 42.482C21.8115 42.25 21.8915 42.05 22.0515 41.882C22.2195 41.714 22.4195 41.63 22.6515 41.63C22.8755 41.63 23.0675 41.714 23.2275 41.882C23.3875 42.05 23.4675 42.25 23.4675 42.482C23.4675 42.706 23.3875 42.902 23.2275 43.07C23.0675 43.23 22.8755 43.31 22.6515 43.31ZM27.004 50.27L27.592 48.746C27.888 48.874 28.172 48.97 28.444 49.034C28.716 49.098 28.988 49.13 29.26 49.13C29.54 49.13 29.772 49.106 29.956 49.058C30.148 49.002 30.292 48.922 30.388 48.818C30.484 48.714 30.532 48.59 30.532 48.446C30.532 48.31 30.488 48.122 30.4 47.882C30.32 47.642 30.172 47.33 29.956 46.946C29.74 46.554 29.424 46.07 29.008 45.494L30.436 44.546C30.82 45.09 31.152 45.622 31.432 46.142C31.712 46.654 31.928 47.134 32.08 47.582C32.24 48.022 32.32 48.41 32.32 48.746C32.32 49.162 32.208 49.526 31.984 49.838C31.768 50.142 31.444 50.382 31.012 50.558C30.588 50.734 30.064 50.822 29.44 50.822C29.208 50.822 28.948 50.802 28.66 50.762C28.372 50.722 28.08 50.662 27.784 50.582C27.496 50.502 27.236 50.398 27.004 50.27ZM36.5872 50.81C35.8432 50.81 35.2672 50.734 34.8592 50.582C34.4592 50.43 34.1792 50.194 34.0192 49.874C33.8592 49.546 33.7672 49.134 33.7432 48.638L33.4912 41.966H35.1712L35.4232 47.834C35.4392 48.202 35.4792 48.478 35.5432 48.662C35.6072 48.846 35.7272 48.97 35.9032 49.034C36.0872 49.098 36.3552 49.13 36.7072 49.13C37.0112 49.13 37.2272 49.21 37.3552 49.37C37.4912 49.522 37.5592 49.714 37.5592 49.946C37.5592 50.194 37.4752 50.402 37.3072 50.57C37.1392 50.73 36.8992 50.81 36.5872 50.81ZM36.6035 50.81L36.7235 49.13C37.0115 49.13 37.2595 49.102 37.4675 49.046C37.6755 48.99 37.8515 48.878 37.9955 48.71C38.1395 48.534 38.2595 48.278 38.3555 47.942C38.4595 47.606 38.5515 47.158 38.6315 46.598L40.2035 46.862C40.1875 46.982 40.1635 47.122 40.1315 47.282C40.1075 47.442 40.0835 47.606 40.0595 47.774C40.0435 47.934 40.0355 48.086 40.0355 48.23C40.0355 48.374 40.0635 48.502 40.1195 48.614C40.1755 48.726 40.2635 48.822 40.3835 48.902C40.5115 48.974 40.6755 49.03 40.8755 49.07C41.0835 49.11 41.3355 49.13 41.6315 49.13C41.9355 49.13 42.1515 49.21 42.2795 49.37C42.4075 49.522 42.4715 49.714 42.4715 49.946C42.4715 50.194 42.3875 50.402 42.2195 50.57C42.0595 50.73 41.8235 50.81 41.5115 50.81C41.1515 50.81 40.8235 50.782 40.5275 50.726C40.2395 50.67 39.9875 50.578 39.7715 50.45C39.5635 50.314 39.3915 50.138 39.2555 49.922C39.1275 49.698 39.0475 49.426 39.0155 49.106H39.5915C39.4475 49.49 39.2635 49.798 39.0395 50.03C38.8235 50.254 38.5795 50.422 38.3075 50.534C38.0355 50.646 37.7515 50.718 37.4555 50.75C37.1675 50.79 36.8835 50.81 36.6035 50.81ZM39.9515 53.594C39.7195 53.594 39.5195 53.51 39.3515 53.342C39.1915 53.182 39.1115 52.99 39.1115 52.766C39.1115 52.534 39.1915 52.334 39.3515 52.166C39.5195 51.998 39.7195 51.914 39.9515 51.914C40.1755 51.914 40.3675 51.998 40.5275 52.166C40.6875 52.334 40.7675 52.534 40.7675 52.766C40.7675 52.99 40.6875 53.182 40.5275 53.342C40.3675 53.51 40.1755 53.594 39.9515 53.594ZM37.8755 53.594C37.6435 53.594 37.4435 53.51 37.2755 53.342C37.1155 53.182 37.0355 52.99 37.0355 52.766C37.0355 52.534 37.1155 52.334 37.2755 52.166C37.4435 51.998 37.6435 51.914 37.8755 51.914C38.0995 51.914 38.2915 51.998 38.4515 52.166C38.6115 52.334 38.6915 52.534 38.6915 52.766C38.6915 52.99 38.6115 53.182 38.4515 53.342C38.2915 53.51 38.0995 53.594 37.8755 53.594ZM41.5137 50.81L41.6337 49.142C41.9457 49.15 42.2337 49.146 42.4977 49.13C42.7617 49.114 42.9977 49.09 43.2057 49.058C43.4217 49.026 43.6097 48.99 43.7697 48.95C43.9377 48.91 44.0777 48.874 44.1897 48.842C44.4617 48.754 44.6937 48.65 44.8857 48.53C45.0777 48.402 45.2257 48.258 45.3297 48.098C45.4337 47.938 45.4857 47.766 45.4857 47.582C45.4857 47.438 45.4537 47.294 45.3897 47.15C45.3337 46.998 45.2497 46.874 45.1377 46.778C45.0257 46.682 44.8937 46.634 44.7417 46.634C44.5977 46.634 44.4657 46.678 44.3457 46.766C44.2257 46.854 44.1297 46.974 44.0577 47.126C43.9857 47.27 43.9497 47.438 43.9497 47.63C43.9497 47.798 43.9897 47.958 44.0697 48.11C44.1497 48.254 44.2617 48.394 44.4057 48.53C44.5497 48.666 44.7217 48.794 44.9217 48.914L43.3257 49.526C43.1497 49.358 42.9817 49.178 42.8217 48.986C42.6697 48.794 42.5417 48.578 42.4377 48.338C42.3417 48.09 42.2937 47.814 42.2937 47.51C42.2937 47.142 42.3657 46.806 42.5097 46.502C42.6537 46.198 42.8457 45.938 43.0857 45.722C43.3257 45.498 43.5937 45.326 43.8897 45.206C44.1857 45.086 44.4817 45.026 44.7777 45.026C45.2577 45.026 45.6737 45.138 46.0257 45.362C46.3777 45.586 46.6497 45.878 46.8417 46.238C47.0417 46.598 47.1417 46.99 47.1417 47.414C47.1417 47.806 47.0697 48.158 46.9257 48.47C46.7817 48.774 46.5857 49.046 46.3377 49.286C46.0977 49.518 45.8297 49.722 45.5337 49.898C45.2457 50.074 44.9537 50.222 44.6577 50.342C44.5137 50.406 44.3337 50.466 44.1177 50.522C43.9017 50.578 43.6577 50.63 43.3857 50.678C43.1137 50.718 42.8217 50.75 42.5097 50.774C42.1977 50.798 41.8657 50.81 41.5137 50.81ZM47.8497 50.81C47.3857 50.81 46.9297 50.786 46.4817 50.738C46.0337 50.69 45.6177 50.618 45.2337 50.522C44.8577 50.426 44.5297 50.31 44.2497 50.174L45.0777 48.878C45.3177 48.942 45.5977 48.994 45.9177 49.034C46.2457 49.066 46.5857 49.09 46.9377 49.106C47.2977 49.122 47.6417 49.13 47.9697 49.13C48.2737 49.13 48.4897 49.21 48.6177 49.37C48.7537 49.522 48.8217 49.714 48.8217 49.946C48.8217 50.194 48.7377 50.402 48.5697 50.57C48.4017 50.73 48.1617 50.81 47.8497 50.81ZM45.8337 43.934C45.6017 43.934 45.4017 43.854 45.2337 43.694C45.0737 43.526 44.9937 43.33 44.9937 43.106C44.9937 42.874 45.0737 42.674 45.2337 42.506C45.4017 42.338 45.6017 42.254 45.8337 42.254C46.0577 42.254 46.2497 42.338 46.4097 42.506C46.5697 42.674 46.6497 42.874 46.6497 43.106C46.6497 43.33 46.5697 43.526 46.4097 43.694C46.2497 43.854 46.0577 43.934 45.8337 43.934ZM43.7577 43.922C43.5257 43.922 43.3257 43.842 43.1577 43.682C42.9977 43.514 42.9177 43.318 42.9177 43.094C42.9177 42.862 42.9977 42.662 43.1577 42.494C43.3257 42.326 43.5257 42.242 43.7577 42.242C43.9817 42.242 44.1737 42.326 44.3337 42.494C44.4937 42.662 44.5737 42.862 44.5737 43.094C44.5737 43.318 44.4937 43.514 44.3337 43.682C44.1737 43.842 43.9817 43.922 43.7577 43.922ZM47.8652 50.81L47.9852 49.13C48.3532 49.13 48.6172 49.094 48.7772 49.022C48.9372 48.942 49.0332 48.798 49.0652 48.59C49.0972 48.374 49.1052 48.062 49.0892 47.654L48.8732 41.966H50.5652L50.8052 47.774C50.8212 48.238 50.8012 48.658 50.7452 49.034C50.6972 49.402 50.5732 49.718 50.3732 49.982C50.1812 50.246 49.8812 50.45 49.4732 50.594C49.0732 50.738 48.5372 50.81 47.8652 50.81ZM52.3877 50.75L52.1357 41.966H53.8157L54.0677 50.75H52.3877ZM58.7973 50.75L58.5693 42.806H60.2493L60.4773 50.75H58.7973ZM58.1373 42.038L57.9333 41.198C58.2133 41.15 58.4213 41.11 58.5573 41.078C58.7013 41.046 58.8533 41.01 59.0133 40.97L58.8933 41.27C58.6853 41.198 58.4853 41.058 58.2933 40.85C58.1093 40.634 58.0173 40.39 58.0173 40.118C58.0173 39.83 58.0813 39.598 58.2093 39.422C58.3373 39.246 58.5013 39.118 58.7013 39.038C58.9013 38.958 59.1093 38.918 59.3253 38.918C59.4453 38.918 59.5573 38.926 59.6613 38.942C59.7733 38.958 59.8733 38.982 59.9613 39.014L59.8653 39.878C59.7853 39.862 59.7053 39.846 59.6253 39.83C59.5453 39.814 59.4573 39.806 59.3613 39.806C59.2573 39.806 59.1613 39.842 59.0733 39.914C58.9933 39.978 58.9533 40.058 58.9533 40.154C58.9533 40.29 59.0013 40.41 59.0973 40.514C59.1933 40.618 59.3053 40.702 59.4333 40.766C59.5693 40.822 59.6813 40.854 59.7693 40.862L59.1093 40.934C59.3253 40.878 59.5293 40.822 59.7213 40.766C59.9133 40.702 60.0933 40.638 60.2613 40.574L60.5013 41.378C60.3013 41.45 60.0653 41.53 59.7933 41.618C59.5293 41.698 59.2533 41.774 58.9653 41.846C58.6853 41.918 58.4093 41.982 58.1373 42.038ZM63.7351 49.13C64.0951 49.13 64.3711 49.098 64.5631 49.034C64.7551 48.97 64.8871 48.886 64.9591 48.782C65.0311 48.678 65.0671 48.566 65.0671 48.446C65.0671 48.254 65.0111 48.03 64.8991 47.774C64.7951 47.518 64.6631 47.25 64.5031 46.97C64.3431 46.69 64.1751 46.422 63.9991 46.166C63.8311 45.91 63.6791 45.686 63.5431 45.494L64.9711 44.546C65.3151 45.01 65.6111 45.47 65.8591 45.926C66.1071 46.374 66.3071 46.79 66.4591 47.174C66.6191 47.558 66.7311 47.886 66.7951 48.158C66.8591 48.414 66.9551 48.614 67.0831 48.758C67.2191 48.894 67.3751 48.99 67.5511 49.046C67.7271 49.102 67.9031 49.13 68.0791 49.13C68.3831 49.13 68.5991 49.21 68.7271 49.37C68.8631 49.522 68.9311 49.714 68.9311 49.946C68.9311 50.194 68.8471 50.402 68.6791 50.57C68.5191 50.73 68.2791 50.81 67.9591 50.81C67.6071 50.81 67.2991 50.762 67.0351 50.666C66.7711 50.57 66.5471 50.418 66.3631 50.21C66.1791 50.002 66.0231 49.738 65.8951 49.418L66.6271 49.574C66.5631 49.798 66.4151 50.006 66.1831 50.198C65.9591 50.382 65.6591 50.534 65.2831 50.654C64.9151 50.766 64.4791 50.822 63.9751 50.822C63.7351 50.822 63.4671 50.802 63.1711 50.762C62.8831 50.722 62.5951 50.662 62.3071 50.582C62.0271 50.502 61.7711 50.398 61.5391 50.27L62.1271 48.746C62.4231 48.874 62.7071 48.97 62.9791 49.034C63.2591 49.098 63.5111 49.13 63.7351 49.13ZM67.9746 50.81L68.0946 49.13C68.4466 49.13 68.7226 49.106 68.9226 49.058C69.1306 49.01 69.2786 48.922 69.3666 48.794C69.4546 48.658 69.4986 48.466 69.4986 48.218C69.4986 47.994 69.4666 47.726 69.4026 47.414C69.3466 47.102 69.2706 46.778 69.1746 46.442C69.0786 46.106 68.9826 45.798 68.8866 45.518L70.5426 45.062C70.6386 45.334 70.7346 45.65 70.8306 46.01C70.9266 46.37 71.0066 46.742 71.0706 47.126C71.1426 47.502 71.1786 47.866 71.1786 48.218C71.1786 48.658 71.1226 49.03 71.0106 49.334C70.8986 49.63 70.7426 49.878 70.5426 50.078C70.3506 50.27 70.1186 50.422 69.8466 50.534C69.5826 50.638 69.2906 50.71 68.9706 50.75C68.6506 50.79 68.3186 50.81 67.9746 50.81ZM69.4506 53.57C69.2186 53.57 69.0186 53.49 68.8506 53.33C68.6906 53.17 68.6106 52.974 68.6106 52.742C68.6106 52.51 68.6906 52.306 68.8506 52.13C69.0186 51.962 69.2186 51.878 69.4506 51.878C69.6826 51.878 69.8786 51.962 70.0386 52.13C70.2066 52.306 70.2906 52.51 70.2906 52.742C70.2906 52.974 70.2066 53.17 70.0386 53.33C69.8786 53.49 69.6826 53.57 69.4506 53.57ZM72.7432 50.75L72.4912 41.966H74.1712L74.4232 50.75H72.7432Z" fill="black"/>
<path d="M29.9772 65.75V64.97L32.3572 62.44C32.5839 62.2 32.7606 61.9833 32.8872 61.79C33.0206 61.59 33.1172 61.3967 33.1772 61.21C33.2372 61.0233 33.2672 60.8367 33.2672 60.65C33.2672 60.2833 33.1506 60.0033 32.9172 59.81C32.6906 59.6167 32.3639 59.52 31.9372 59.52C31.6106 59.52 31.2906 59.5833 30.9772 59.71C30.6639 59.83 30.3672 60.02 30.0872 60.28L29.7072 59.47C29.9939 59.2033 30.3439 58.9933 30.7572 58.84C31.1706 58.6867 31.6006 58.61 32.0472 58.61C32.5272 58.61 32.9372 58.6867 33.2772 58.84C33.6172 58.9933 33.8739 59.2167 34.0472 59.51C34.2272 59.8033 34.3172 60.1533 34.3172 60.56C34.3172 60.7733 34.2906 60.98 34.2372 61.18C34.1906 61.38 34.1172 61.58 34.0172 61.78C33.9172 61.9733 33.7872 62.1767 33.6272 62.39C33.4739 62.5967 33.2906 62.81 33.0772 63.03L31.1672 65.02V64.85H34.5972V65.75H29.9772ZM38.1575 65.47C38.1575 65.3167 38.1708 65.1367 38.1975 64.93C38.2241 64.7233 38.2741 64.49 38.3475 64.23C38.4208 63.9633 38.5308 63.6667 38.6775 63.34L39.9075 63.77C39.8341 63.9767 39.7708 64.1667 39.7175 64.34C39.6641 64.5067 39.6241 64.6633 39.5975 64.81C39.5708 64.95 39.5575 65.09 39.5575 65.23C39.5575 65.53 39.6308 65.79 39.7775 66.01C39.9308 66.2367 40.1375 66.41 40.3975 66.53C40.6641 66.6567 40.9708 66.72 41.3175 66.72C41.8841 66.72 42.3175 66.6267 42.6175 66.44C42.9241 66.26 43.1308 65.9733 43.2375 65.58C43.3508 65.18 43.3941 64.6633 43.3675 64.03L43.1675 58.43H44.5775L44.7275 63.16C44.7408 63.4933 44.7875 63.75 44.8675 63.93C44.9475 64.11 45.0708 64.2333 45.2375 64.3C45.4108 64.3667 45.6341 64.4 45.9075 64.4C46.1608 64.4 46.3408 64.4667 46.4475 64.6C46.5541 64.7267 46.6075 64.8867 46.6075 65.08C46.6075 65.2867 46.5375 65.46 46.3975 65.6C46.2575 65.7333 46.0608 65.8 45.8075 65.8C45.6608 65.8 45.5041 65.78 45.3375 65.74C45.1708 65.7 45.0108 65.6367 44.8575 65.55C44.7041 65.4633 44.5708 65.35 44.4575 65.21C44.3441 65.0633 44.2675 64.8833 44.2275 64.67L44.7675 64.4C44.7675 65.0733 44.6875 65.6433 44.5275 66.11C44.3741 66.5767 44.1475 66.9533 43.8475 67.24C43.5541 67.5267 43.1908 67.7333 42.7575 67.86C42.3308 67.9933 41.8375 68.06 41.2775 68.06C40.8508 68.06 40.4475 68.0067 40.0675 67.9C39.6941 67.7933 39.3641 67.6333 39.0775 67.42C38.7908 67.2067 38.5641 66.9367 38.3975 66.61C38.2375 66.29 38.1575 65.91 38.1575 65.47ZM55.8376 65.8C55.4976 65.8 55.171 65.77 54.8576 65.71C54.5443 65.6433 54.261 65.5567 54.0076 65.45C53.761 65.3433 53.5576 65.2233 53.3976 65.09L54.2976 64.12C54.5376 64.22 54.7843 64.2933 55.0376 64.34C55.291 64.38 55.591 64.4 55.9376 64.4C56.191 64.4 56.371 64.4667 56.4776 64.6C56.591 64.7267 56.6476 64.8867 56.6476 65.08C56.6476 65.2867 56.5776 65.46 56.4376 65.6C56.2976 65.7333 56.0976 65.8 55.8376 65.8ZM50.9876 65.93C50.3676 65.93 49.851 65.9033 49.4376 65.85C49.031 65.7967 48.701 65.72 48.4476 65.62C48.1943 65.52 47.9943 65.4 47.8476 65.26C47.701 65.12 47.581 64.9667 47.4876 64.8L47.7676 64.72C47.601 65.04 47.411 65.2767 47.1976 65.43C46.9843 65.5833 46.761 65.6833 46.5276 65.73C46.2943 65.7767 46.0543 65.8 45.8076 65.8L45.9076 64.4C46.1143 64.4 46.2776 64.3667 46.3976 64.3C46.5176 64.2333 46.6143 64.1233 46.6876 63.97C46.7676 63.8167 46.841 63.6133 46.9076 63.36C46.9743 63.1067 47.0543 62.7967 47.1476 62.43L48.4176 62.74C48.371 62.92 48.331 63.0767 48.2976 63.21C48.271 63.3433 48.2476 63.46 48.2276 63.56C48.2143 63.6533 48.2076 63.73 48.2076 63.79C48.2076 63.9167 48.2376 64.03 48.2976 64.13C48.3576 64.2233 48.4743 64.3 48.6476 64.36C48.821 64.4133 49.0743 64.4567 49.4076 64.49C49.7476 64.5167 50.191 64.53 50.7376 64.53C51.3176 64.53 51.801 64.51 52.1876 64.47C52.5743 64.4233 52.881 64.36 53.1076 64.28C53.341 64.1933 53.5076 64.09 53.6076 63.97C53.7076 63.8433 53.7576 63.7 53.7576 63.54C53.7576 63.4133 53.7276 63.2967 53.6676 63.19C53.6143 63.0767 53.5243 62.9833 53.3976 62.91C53.271 62.8367 53.1076 62.8 52.9076 62.8C52.6676 62.8 52.4243 62.86 52.1776 62.98C51.9376 63.0933 51.701 63.2467 51.4676 63.44C51.2343 63.6267 51.011 63.8367 50.7976 64.07C50.591 64.3033 50.4043 64.5367 50.2376 64.77L48.7376 64.6C48.9976 64.18 49.291 63.7767 49.6176 63.39C49.9443 63.0033 50.2943 62.6633 50.6676 62.37C51.041 62.07 51.4276 61.8333 51.8276 61.66C52.2276 61.4867 52.6343 61.4 53.0476 61.4C53.4943 61.4 53.8743 61.4867 54.1876 61.66C54.501 61.8333 54.741 62.0733 54.9076 62.38C55.0743 62.6867 55.1576 63.04 55.1576 63.44C55.1576 63.9267 55.0176 64.3567 54.7376 64.73C54.4643 65.1033 54.021 65.3967 53.4076 65.61C52.801 65.8233 51.9943 65.93 50.9876 65.93ZM55.8467 65.8L55.9467 64.41C56.2067 64.4167 56.4467 64.4133 56.6667 64.4C56.8867 64.3867 57.0833 64.3667 57.2567 64.34C57.4367 64.3133 57.5933 64.2833 57.7267 64.25C57.8667 64.2167 57.9833 64.1867 58.0767 64.16C58.3033 64.0867 58.4967 64 58.6567 63.9C58.8167 63.7933 58.94 63.6733 59.0267 63.54C59.1133 63.4067 59.1567 63.2633 59.1567 63.11C59.1567 62.99 59.13 62.87 59.0767 62.75C59.03 62.6233 58.96 62.52 58.8667 62.44C58.7733 62.36 58.6633 62.32 58.5367 62.32C58.4167 62.32 58.3067 62.3567 58.2067 62.43C58.1067 62.5033 58.0267 62.6033 57.9667 62.73C57.9067 62.85 57.8767 62.99 57.8767 63.15C57.8767 63.29 57.91 63.4233 57.9767 63.55C58.0433 63.67 58.1367 63.7867 58.2567 63.9C58.3767 64.0133 58.52 64.12 58.6867 64.22L57.3567 64.73C57.21 64.59 57.07 64.44 56.9367 64.28C56.81 64.12 56.7033 63.94 56.6167 63.74C56.5367 63.5333 56.4967 63.3033 56.4967 63.05C56.4967 62.7433 56.5567 62.4633 56.6767 62.21C56.7967 61.9567 56.9567 61.74 57.1567 61.56C57.3567 61.3733 57.58 61.23 57.8267 61.13C58.0733 61.03 58.32 60.98 58.5667 60.98C58.9667 60.98 59.3133 61.0733 59.6067 61.26C59.9 61.4467 60.1267 61.69 60.2867 61.99C60.4533 62.29 60.5367 62.6167 60.5367 62.97C60.5367 63.2967 60.4767 63.59 60.3567 63.85C60.2367 64.1033 60.0733 64.33 59.8667 64.53C59.6667 64.7233 59.4433 64.8933 59.1967 65.04C58.9567 65.1867 58.7133 65.31 58.4667 65.41C58.3467 65.4633 58.1967 65.5133 58.0167 65.56C57.8367 65.6067 57.6333 65.65 57.4067 65.69C57.18 65.7233 56.9367 65.75 56.6767 65.77C56.4167 65.79 56.14 65.8 55.8467 65.8ZM61.1267 65.8C60.74 65.8 60.36 65.78 59.9867 65.74C59.6133 65.7 59.2667 65.64 58.9467 65.56C58.6333 65.48 58.36 65.3833 58.1267 65.27L58.8167 64.19C59.0167 64.2433 59.25 64.2867 59.5167 64.32C59.79 64.3467 60.0733 64.3667 60.3667 64.38C60.6667 64.3933 60.9533 64.4 61.2267 64.4C61.48 64.4 61.66 64.4667 61.7667 64.6C61.88 64.7267 61.9367 64.8867 61.9367 65.08C61.9367 65.2867 61.8667 65.46 61.7267 65.6C61.5867 65.7333 61.3867 65.8 61.1267 65.8ZM58.5767 60.05C58.37 60.05 58.1933 59.98 58.0467 59.84C57.9067 59.7 57.8367 59.5267 57.8367 59.32C57.8367 59.1133 57.9067 58.9367 58.0467 58.79C58.1933 58.6433 58.37 58.57 58.5767 58.57C58.7767 58.57 58.9467 58.6433 59.0867 58.79C59.2333 58.9367 59.3067 59.1133 59.3067 59.32C59.3067 59.5267 59.2333 59.7 59.0867 59.84C58.9467 59.98 58.7767 60.05 58.5767 60.05ZM61.1396 65.8L61.2396 64.4C61.5463 64.4 61.7663 64.37 61.8996 64.31C62.033 64.2433 62.113 64.1233 62.1396 63.95C62.1663 63.77 62.173 63.51 62.1596 63.17L61.9796 58.43H63.3896L63.5896 63.27C63.603 63.6567 63.5863 64.0067 63.5396 64.32C63.4996 64.6267 63.3963 64.89 63.2296 65.11C63.0696 65.33 62.8196 65.5 62.4796 65.62C62.1463 65.74 61.6996 65.8 61.1396 65.8ZM64.9084 65.75L64.6984 58.43H66.0984L66.3084 65.75H64.9084Z" fill="#667085"/>
<defs>
<filter id="filter0_d_8310_820" x="0" y="0.25" width="96" height="85.8462" filterUnits="userSpaceOnUse" color-interpolation-filters="sRGB">
<feFlood flood-opacity="0" result="BackgroundImageFix"/>
<feColorMatrix in="SourceAlpha" type="matrix" values="0 0 0 0 0 0 0 0 0 0 0 0 0 0 0 0 0 0 127 0" result="hardAlpha"/>
<feOffset dy="4"/>
<feGaussianBlur stdDeviation="2"/>
<feComposite in2="hardAlpha" operator="out"/>
<feColorMatrix type="matrix" values="0 0 0 0 0 0 0 0 0 0 0 0 0 0 0 0 0 0 0.25 0"/>
<feBlend mode="normal" in2="BackgroundImageFix" result="effect1_dropShadow_8310_820"/>
<feBlend mode="normal" in="SourceGraphic" in2="effect1_dropShadow_8310_820" result="shape"/>
</filter>
<clipPath id="clip0_8310_820">
<rect width="30" height="30" fill="white" transform="translate(33 7.75)"/>
</clipPath>
</defs>
</svg>
