<svg width="96" height="87" viewBox="0 0 96 87" fill="none" xmlns="http://www.w3.org/2000/svg">
<g filter="url(#filter0_d_8310_691)">
<path d="M5.37285 42.7685C4.62083 41.4589 4.24484 40.8036 4.09767 40.1074C3.96744 39.4912 3.96744 38.8548 4.09767 38.2386C4.24484 37.5424 4.62083 36.8871 5.37285 35.5774L23.5901 3.84555C24.3421 2.53569 24.7181 1.88076 25.2442 1.40444C25.7096 0.982998 26.2579 0.664612 26.8535 0.470002C27.5267 0.25 28.2787 0.25 29.7827 0.25H66.2171C67.7214 0.25 68.4731 0.25 69.1466 0.470002C69.7419 0.664612 70.2903 0.982998 70.756 1.40444C71.282 1.88076 71.6578 2.53569 72.41 3.84555L90.6271 35.5774C91.3792 36.8871 91.7551 37.5424 91.9021 38.2386C92.0326 38.8548 92.0326 39.4912 91.9021 40.1074C91.7551 40.8036 91.3792 41.4589 90.6271 42.7685L72.41 74.5006C71.6578 75.8103 71.282 76.4651 70.756 76.9415C70.2903 77.3631 69.7419 77.6813 69.1466 77.8759C68.4731 78.0962 67.7214 78.0962 66.2171 78.0962H29.7827C28.2787 78.0962 27.5267 78.0962 26.8535 77.8759C26.2579 77.6813 25.7096 77.3631 25.2442 76.9415C24.7181 76.4651 24.3421 75.8103 23.5901 74.5006L5.37285 42.7685Z" fill="white"/>
</g>
<path d="M52.2051 18.75H41.2051C40.1051 18.75 39.2051 19.65 39.2051 20.75V40.75C39.2051 41.85 40.1051 42.75 41.2051 42.75H55.2051C56.3051 42.75 57.2051 41.85 57.2051 40.75V23.75L52.2051 18.75Z" fill="#F2BB41" stroke="#F2BB41" stroke-width="2" stroke-miterlimit="10" stroke-linecap="round" stroke-linejoin="round"/>
<path d="M52.2051 18.75V23.75H57.2051L52.2051 18.75Z" fill="#E08838" stroke="#E08838" stroke-width="2" stroke-miterlimit="10" stroke-linecap="round" stroke-linejoin="round"/>
<path d="M25.4019 58.414C25.4019 58.23 25.4179 58.014 25.4499 57.766C25.4819 57.518 25.5419 57.238 25.6299 56.926C25.7179 56.606 25.8499 56.25 26.0259 55.858L27.5019 56.374C27.4139 56.622 27.3379 56.85 27.2739 57.058C27.2099 57.258 27.1619 57.446 27.1299 57.622C27.0979 57.79 27.0819 57.958 27.0819 58.126C27.0819 58.486 27.1699 58.798 27.3459 59.062C27.5299 59.334 27.7779 59.542 28.0899 59.686C28.4099 59.838 28.7779 59.914 29.1939 59.914C29.8739 59.914 30.3939 59.802 30.7539 59.578C31.1219 59.362 31.3699 59.018 31.4979 58.546C31.6339 58.066 31.6859 57.446 31.6539 56.686L31.4139 49.966H33.1059L33.2859 55.642C33.3019 56.042 33.3579 56.35 33.4539 56.566C33.5499 56.782 33.6979 56.93 33.8979 57.01C34.1059 57.09 34.3739 57.13 34.7019 57.13C35.0059 57.13 35.2219 57.21 35.3499 57.37C35.4779 57.522 35.5419 57.714 35.5419 57.946C35.5419 58.194 35.4579 58.402 35.2899 58.57C35.1219 58.73 34.8859 58.81 34.5819 58.81C34.4059 58.81 34.2179 58.786 34.0179 58.738C33.8179 58.69 33.6259 58.614 33.4419 58.51C33.2579 58.406 33.0979 58.27 32.9619 58.102C32.8259 57.926 32.7339 57.71 32.6859 57.454L33.3339 57.13C33.3339 57.938 33.2379 58.622 33.0459 59.182C32.8619 59.742 32.5899 60.194 32.2299 60.538C31.8779 60.882 31.4419 61.13 30.9219 61.282C30.4099 61.442 29.8179 61.522 29.1459 61.522C28.6339 61.522 28.1499 61.458 27.6939 61.33C27.2459 61.202 26.8499 61.01 26.5059 60.754C26.1619 60.498 25.8899 60.174 25.6899 59.782C25.4979 59.398 25.4019 58.942 25.4019 58.414ZM34.5821 58.81L34.7021 57.13C34.9901 57.13 35.2381 57.102 35.4461 57.046C35.6541 56.99 35.8301 56.878 35.9741 56.71C36.1181 56.534 36.2381 56.278 36.3341 55.942C36.4381 55.606 36.5301 55.158 36.6101 54.598L38.1821 54.862C38.1661 54.982 38.1421 55.122 38.1101 55.282C38.0861 55.442 38.0621 55.606 38.0381 55.774C38.0221 55.934 38.0141 56.086 38.0141 56.23C38.0141 56.374 38.0421 56.502 38.0981 56.614C38.1541 56.726 38.2421 56.822 38.3621 56.902C38.4901 56.974 38.6541 57.03 38.8541 57.07C39.0621 57.11 39.3141 57.13 39.6101 57.13C39.9141 57.13 40.1301 57.21 40.2581 57.37C40.3861 57.522 40.4501 57.714 40.4501 57.946C40.4501 58.194 40.3661 58.402 40.1981 58.57C40.0381 58.73 39.8021 58.81 39.4901 58.81C39.1301 58.81 38.8021 58.782 38.5061 58.726C38.2181 58.67 37.9661 58.578 37.7501 58.45C37.5421 58.314 37.3701 58.138 37.2341 57.922C37.1061 57.698 37.0261 57.426 36.9941 57.106H37.5701C37.4261 57.49 37.2421 57.798 37.0181 58.03C36.8021 58.254 36.5581 58.422 36.2861 58.534C36.0141 58.646 35.7301 58.718 35.4341 58.75C35.1461 58.79 34.8621 58.81 34.5821 58.81ZM37.9301 61.594C37.6981 61.594 37.4981 61.51 37.3301 61.342C37.1701 61.182 37.0901 60.99 37.0901 60.766C37.0901 60.534 37.1701 60.334 37.3301 60.166C37.4981 59.998 37.6981 59.914 37.9301 59.914C38.1541 59.914 38.3461 59.998 38.5061 60.166C38.6661 60.334 38.7461 60.534 38.7461 60.766C38.7461 60.99 38.6661 61.182 38.5061 61.342C38.3461 61.51 38.1541 61.594 37.9301 61.594ZM35.8541 61.594C35.6221 61.594 35.4221 61.51 35.2541 61.342C35.0941 61.182 35.0141 60.99 35.0141 60.766C35.0141 60.534 35.0941 60.334 35.2541 60.166C35.4221 59.998 35.6221 59.914 35.8541 59.914C36.0781 59.914 36.2701 59.998 36.4301 60.166C36.5901 60.334 36.6701 60.534 36.6701 60.766C36.6701 60.99 36.5901 61.182 36.4301 61.342C36.2701 61.51 36.0781 61.594 35.8541 61.594ZM47.3402 58.81C46.9722 58.81 46.6282 58.782 46.3082 58.726C45.9962 58.67 45.7082 58.574 45.4442 58.438C45.1802 58.294 44.9442 58.098 44.7362 57.85C44.5362 57.602 44.3682 57.29 44.2322 56.914L45.1802 56.158C45.3242 56.414 45.5002 56.614 45.7082 56.758C45.9162 56.894 46.1642 56.99 46.4522 57.046C46.7402 57.102 47.0762 57.13 47.4602 57.13C47.7642 57.13 47.9802 57.21 48.1082 57.37C48.2362 57.522 48.3002 57.714 48.3002 57.946C48.3002 58.194 48.2162 58.402 48.0482 58.57C47.8882 58.73 47.6522 58.81 47.3402 58.81ZM39.4922 58.81L39.6122 57.13C40.0442 57.13 40.4722 57.106 40.8962 57.058C41.3202 57.01 41.7322 56.938 42.1322 56.842C42.5322 56.746 42.9122 56.622 43.2722 56.47C43.6402 56.318 43.9842 56.134 44.3042 55.918C44.0642 55.774 43.8042 55.65 43.5242 55.546C43.2442 55.442 42.9442 55.366 42.6242 55.318C42.3122 55.262 41.9802 55.234 41.6282 55.234C41.5002 55.234 41.3642 55.238 41.2202 55.246C41.0842 55.254 40.9442 55.27 40.8002 55.294C40.6562 55.31 40.5122 55.334 40.3682 55.366L40.1282 53.722C40.3602 53.658 40.6042 53.614 40.8602 53.59C41.1242 53.558 41.3562 53.542 41.5562 53.542C41.9882 53.542 42.3842 53.59 42.7442 53.686C43.1122 53.782 43.4482 53.902 43.7522 54.046C44.0642 54.19 44.3522 54.334 44.6162 54.478C44.8882 54.622 45.1442 54.742 45.3842 54.838C45.6322 54.934 45.8722 54.982 46.1042 54.982H46.5482L46.7402 56.578C46.3962 56.594 46.0722 56.662 45.7682 56.782C45.4722 56.894 45.1762 57.038 44.8802 57.214C44.5922 57.382 44.2802 57.558 43.9442 57.742C43.6162 57.926 43.2442 58.098 42.8282 58.258C42.4122 58.418 41.9322 58.55 41.3882 58.654C40.8442 58.758 40.2122 58.81 39.4922 58.81ZM42.8882 61.51C42.6562 61.51 42.4562 61.43 42.2882 61.27C42.1282 61.11 42.0482 60.914 42.0482 60.682C42.0482 60.45 42.1282 60.246 42.2882 60.07C42.4562 59.902 42.6562 59.818 42.8882 59.818C43.1202 59.818 43.3162 59.902 43.4762 60.07C43.6442 60.246 43.7282 60.45 43.7282 60.682C43.7282 60.914 43.6442 61.11 43.4762 61.27C43.3162 61.43 43.1202 61.51 42.8882 61.51ZM47.3438 58.81L47.4638 57.13C47.7278 57.13 47.9438 57.11 48.1118 57.07C48.2798 57.022 48.4158 56.922 48.5198 56.77C48.6318 56.61 48.7278 56.374 48.8078 56.062C48.8958 55.742 48.9918 55.31 49.0958 54.766L50.6558 55.054C50.6238 55.23 50.5798 55.45 50.5238 55.714C50.4758 55.978 50.4518 56.206 50.4518 56.398C50.4518 56.55 50.4798 56.682 50.5358 56.794C50.5998 56.898 50.7038 56.982 50.8478 57.046C50.9998 57.102 51.2078 57.13 51.4718 57.13C51.6798 57.13 51.8558 57.11 51.9998 57.07C52.1518 57.022 52.2798 56.922 52.3838 56.77C52.4958 56.61 52.5918 56.366 52.6718 56.038C52.7598 55.702 52.8438 55.25 52.9238 54.682L54.5078 54.934C54.4758 55.118 54.4438 55.314 54.4118 55.522C54.3798 55.73 54.3518 55.922 54.3278 56.098C54.3038 56.274 54.2918 56.418 54.2918 56.53C54.2918 56.634 54.3198 56.734 54.3758 56.83C54.4398 56.918 54.5518 56.99 54.7118 57.046C54.8798 57.102 55.1118 57.13 55.4078 57.13C55.7678 57.13 56.0318 57.054 56.1998 56.902C56.3758 56.742 56.4638 56.502 56.4638 56.182C56.4638 55.998 56.4598 55.802 56.4518 55.594C56.4438 55.378 56.4278 55.138 56.4038 54.874C56.3878 54.602 56.3558 54.294 56.3078 53.95L57.8558 53.83C57.9118 54.518 57.9758 55.078 58.0478 55.51C58.1198 55.942 58.2158 56.278 58.3358 56.518C58.4638 56.75 58.6318 56.91 58.8398 56.998C59.0558 57.086 59.3358 57.13 59.6798 57.13C59.9838 57.13 60.1998 57.21 60.3278 57.37C60.4638 57.522 60.5318 57.714 60.5318 57.946C60.5318 58.194 60.4478 58.402 60.2798 58.57C60.1198 58.73 59.8798 58.81 59.5598 58.81C59.3438 58.81 59.1198 58.79 58.8878 58.75C58.6558 58.718 58.4318 58.65 58.2158 58.546C57.9998 58.434 57.8078 58.274 57.6398 58.066C57.4718 57.858 57.3398 57.582 57.2438 57.238L57.4598 57.31C57.3478 57.71 57.1958 58.018 57.0038 58.234C56.8118 58.45 56.5758 58.602 56.2958 58.69C56.0158 58.77 55.6798 58.81 55.2878 58.81C54.9278 58.81 54.6078 58.762 54.3278 58.666C54.0478 58.57 53.8238 58.414 53.6558 58.198C53.4958 57.974 53.4118 57.674 53.4038 57.298H53.8118C53.6518 57.746 53.4678 58.078 53.2598 58.294C53.0518 58.51 52.7998 58.65 52.5038 58.714C52.2078 58.778 51.8358 58.81 51.3878 58.81C51.1158 58.81 50.8478 58.782 50.5838 58.726C50.3198 58.662 50.0838 58.522 49.8758 58.306C49.6678 58.082 49.5158 57.73 49.4198 57.25L50.0678 57.226C49.8998 57.698 49.6798 58.046 49.4078 58.27C49.1438 58.494 48.8398 58.642 48.4958 58.714C48.1518 58.778 47.7678 58.81 47.3438 58.81ZM59.5665 58.81L59.6865 57.13C59.9745 57.13 60.2225 57.102 60.4305 57.046C60.6385 56.99 60.8145 56.878 60.9585 56.71C61.1025 56.534 61.2225 56.278 61.3185 55.942C61.4225 55.606 61.5145 55.158 61.5945 54.598L63.1665 54.862C63.1505 54.982 63.1265 55.122 63.0945 55.282C63.0705 55.442 63.0465 55.606 63.0225 55.774C63.0065 55.934 62.9985 56.086 62.9985 56.23C62.9985 56.374 63.0265 56.502 63.0825 56.614C63.1385 56.726 63.2265 56.822 63.3465 56.902C63.4745 56.974 63.6385 57.03 63.8385 57.07C64.0465 57.11 64.2985 57.13 64.5945 57.13C64.8985 57.13 65.1145 57.21 65.2425 57.37C65.3705 57.522 65.4345 57.714 65.4345 57.946C65.4345 58.194 65.3505 58.402 65.1825 58.57C65.0225 58.73 64.7865 58.81 64.4745 58.81C64.1145 58.81 63.7865 58.782 63.4905 58.726C63.2025 58.67 62.9505 58.578 62.7345 58.45C62.5265 58.314 62.3545 58.138 62.2185 57.922C62.0905 57.698 62.0105 57.426 61.9785 57.106H62.5545C62.4105 57.49 62.2265 57.798 62.0025 58.03C61.7865 58.254 61.5425 58.422 61.2705 58.534C60.9985 58.646 60.7145 58.718 60.4185 58.75C60.1305 58.79 59.8465 58.81 59.5665 58.81ZM63.4185 53.518C63.1865 53.518 62.9865 53.438 62.8185 53.278C62.6585 53.11 62.5785 52.914 62.5785 52.69C62.5785 52.458 62.6585 52.258 62.8185 52.09C62.9865 51.922 63.1865 51.838 63.4185 51.838C63.6425 51.838 63.8345 51.922 63.9945 52.09C64.1545 52.258 64.2345 52.458 64.2345 52.69C64.2345 52.914 64.1545 53.11 63.9945 53.278C63.8345 53.438 63.6425 53.518 63.4185 53.518ZM61.3425 53.506C61.1105 53.506 60.9105 53.426 60.7425 53.266C60.5825 53.098 60.5025 52.902 60.5025 52.678C60.5025 52.446 60.5825 52.246 60.7425 52.078C60.9105 51.91 61.1105 51.826 61.3425 51.826C61.5665 51.826 61.7585 51.91 61.9185 52.078C62.0785 52.246 62.1585 52.446 62.1585 52.678C62.1585 52.902 62.0785 53.098 61.9185 53.266C61.7585 53.426 61.5665 53.506 61.3425 53.506ZM64.4766 58.81L64.5966 57.13C64.9646 57.13 65.2286 57.094 65.3886 57.022C65.5486 56.942 65.6446 56.798 65.6766 56.59C65.7086 56.374 65.7166 56.062 65.7006 55.654L65.4846 49.966H67.1766L67.4166 55.774C67.4326 56.238 67.4126 56.658 67.3566 57.034C67.3086 57.402 67.1846 57.718 66.9846 57.982C66.7926 58.246 66.4926 58.45 66.0846 58.594C65.6846 58.738 65.1486 58.81 64.4766 58.81ZM68.9991 58.75L68.7471 49.966H70.4271L70.6791 58.75H68.9991Z" fill="black"/>
<defs>
<filter id="filter0_d_8310_691" x="0" y="0.25" width="96" height="85.8462" filterUnits="userSpaceOnUse" color-interpolation-filters="sRGB">
<feFlood flood-opacity="0" result="BackgroundImageFix"/>
<feColorMatrix in="SourceAlpha" type="matrix" values="0 0 0 0 0 0 0 0 0 0 0 0 0 0 0 0 0 0 127 0" result="hardAlpha"/>
<feOffset dy="4"/>
<feGaussianBlur stdDeviation="2"/>
<feComposite in2="hardAlpha" operator="out"/>
<feColorMatrix type="matrix" values="0 0 0 0 0 0 0 0 0 0 0 0 0 0 0 0 0 0 0.25 0"/>
<feBlend mode="normal" in2="BackgroundImageFix" result="effect1_dropShadow_8310_691"/>
<feBlend mode="normal" in="SourceGraphic" in2="effect1_dropShadow_8310_691" result="shape"/>
</filter>
</defs>
</svg>
