<svg width="96" height="86" viewBox="0 0 96 86" fill="none" xmlns="http://www.w3.org/2000/svg">
<g filter="url(#filter0_d_8310_982)">
<path d="M5.37285 42.5185C4.62083 41.2089 4.24484 40.5536 4.09767 39.8574C3.96744 39.2412 3.96744 38.6048 4.09767 37.9886C4.24484 37.2924 4.62083 36.6371 5.37285 35.3274L23.5901 3.59555C24.3421 2.28569 24.7181 1.63076 25.2442 1.15444C25.7096 0.732998 26.2579 0.414612 26.8535 0.220002C27.5267 -2.00917e-07 28.2787 0 29.7827 0H66.2171C67.7214 0 68.4731 -2.00917e-07 69.1466 0.220002C69.7419 0.414612 70.2903 0.732998 70.756 1.15444C71.282 1.63076 71.6578 2.28569 72.41 3.59555L90.6271 35.3274C91.3792 36.6371 91.7551 37.2924 91.9021 37.9886C92.0326 38.6048 92.0326 39.2412 91.9021 39.8574C91.7551 40.5536 91.3792 41.2089 90.6271 42.5185L72.41 74.2506C71.6578 75.5603 71.282 76.2151 70.756 76.6915C70.2903 77.1131 69.7419 77.4313 69.1466 77.6259C68.4731 77.8462 67.7214 77.8462 66.2171 77.8462H29.7827C28.2787 77.8462 27.5267 77.8462 26.8535 77.6259C26.2579 77.4313 25.7096 77.1131 25.2442 76.6915C24.7181 76.2151 24.3421 75.5603 23.5901 74.2506L5.37285 42.5185Z" fill="white"/>
</g>
<path d="M46.5432 36.1574L36.0476 25.6618C35.1147 24.7288 35.1147 23.2711 36.0476 22.3382L46.5432 11.8425C47.4762 10.9096 48.9339 10.9096 49.8669 11.8425L60.3625 22.3382C61.2954 23.2711 61.2954 24.7288 60.3625 25.6618L49.8669 36.1574C48.9339 37.0903 47.4179 37.0903 46.5432 36.1574Z" fill="#F2BB41"/>
<path d="M48.1754 25.1948C48.8195 25.1948 49.3416 24.6727 49.3416 24.0287C49.3416 23.3846 48.8195 22.8625 48.1754 22.8625C47.5314 22.8625 47.0093 23.3846 47.0093 24.0287C47.0093 24.6727 47.5314 25.1948 48.1754 25.1948Z" fill="#E08838"/>
<path d="M52.84 25.1948C53.484 25.1948 54.0061 24.6727 54.0061 24.0287C54.0061 23.3846 53.484 22.8625 52.84 22.8625C52.1959 22.8625 51.6738 23.3846 51.6738 24.0287C51.6738 24.6727 52.1959 25.1948 52.84 25.1948Z" fill="#E08838"/>
<path d="M43.5109 25.1948C44.1549 25.1948 44.677 24.6727 44.677 24.0287C44.677 23.3846 44.1549 22.8625 43.5109 22.8625C42.8668 22.8625 42.3447 23.3846 42.3447 24.0287C42.3447 24.6727 42.8668 25.1948 43.5109 25.1948Z" fill="#E08838"/>
<path d="M25.4158 52V50.956H27.3358V44.596H27.9598L25.8358 45.916L25.3318 44.992L27.6958 43.54H28.5718V50.956H30.3718V52H25.4158ZM41.0314 52.06C40.4634 52.06 39.9714 51.988 39.5554 51.844C39.1474 51.692 38.8314 51.452 38.6074 51.124C38.3834 50.788 38.2554 50.34 38.2234 49.78L38.0074 44.944H39.6994L39.9034 49.192C39.9194 49.52 39.9714 49.772 40.0594 49.948C40.1554 50.116 40.2914 50.232 40.4674 50.296C40.6434 50.352 40.8714 50.38 41.1514 50.38C41.4554 50.38 41.6714 50.46 41.7994 50.62C41.9274 50.772 41.9914 50.964 41.9914 51.196C41.9914 51.444 41.9074 51.652 41.7394 51.82C41.5794 51.98 41.3434 52.06 41.0314 52.06ZM38.8354 50.944C38.2994 51.064 37.7834 51.12 37.2874 51.112C36.7914 51.096 36.3474 51.008 35.9554 50.848C35.5634 50.68 35.2514 50.44 35.0194 50.128C34.7954 49.816 34.6834 49.42 34.6834 48.94C34.6834 48.516 34.7754 48.132 34.9594 47.788C35.1514 47.436 35.4154 47.128 35.7514 46.864C36.0954 46.6 36.4954 46.376 36.9514 46.192C37.4074 46.008 37.9034 45.868 38.4394 45.772L38.6074 47.476C38.2634 47.492 37.9514 47.54 37.6714 47.62C37.3994 47.692 37.1634 47.788 36.9634 47.908C36.7714 48.028 36.6234 48.164 36.5194 48.316C36.4154 48.46 36.3634 48.616 36.3634 48.784C36.3634 48.92 36.4114 49.032 36.5074 49.12C36.6034 49.208 36.7314 49.28 36.8914 49.336C37.0514 49.384 37.2354 49.412 37.4434 49.42C37.6514 49.428 37.8634 49.416 38.0794 49.384C38.3034 49.352 38.5234 49.3 38.7394 49.228L38.8354 50.944ZM38.8714 43.708C38.6394 43.708 38.4394 43.628 38.2714 43.468C38.1114 43.3 38.0314 43.104 38.0314 42.88C38.0314 42.648 38.1114 42.448 38.2714 42.28C38.4394 42.112 38.6394 42.028 38.8714 42.028C39.0954 42.028 39.2874 42.112 39.4474 42.28C39.6074 42.448 39.6874 42.648 39.6874 42.88C39.6874 43.104 39.6074 43.3 39.4474 43.468C39.2874 43.628 39.0954 43.708 38.8714 43.708ZM36.7954 43.696C36.5634 43.696 36.3634 43.616 36.1954 43.456C36.0354 43.288 35.9554 43.092 35.9554 42.868C35.9554 42.636 36.0354 42.436 36.1954 42.268C36.3634 42.1 36.5634 42.016 36.7954 42.016C37.0194 42.016 37.2114 42.1 37.3714 42.268C37.5314 42.436 37.6114 42.636 37.6114 42.868C37.6114 43.092 37.5314 43.288 37.3714 43.456C37.2114 43.616 37.0194 43.696 36.7954 43.696ZM41.0274 52.06L41.1474 50.38C41.6274 50.38 41.9954 50.356 42.2514 50.308C42.5074 50.26 42.6834 50.172 42.7794 50.044C42.8834 49.908 42.9354 49.716 42.9354 49.468C42.9354 49.244 42.9034 48.976 42.8394 48.664C42.7834 48.352 42.7074 48.028 42.6114 47.692C42.5234 47.356 42.4274 47.048 42.3234 46.768L43.9794 46.312C44.0834 46.584 44.1834 46.9 44.2794 47.26C44.3754 47.62 44.4554 47.992 44.5194 48.376C44.5834 48.752 44.6154 49.116 44.6154 49.468C44.6154 50.012 44.5274 50.456 44.3514 50.8C44.1754 51.136 43.9274 51.396 43.6074 51.58C43.2954 51.764 42.9194 51.892 42.4794 51.964C42.0394 52.028 41.5554 52.06 41.0274 52.06ZM43.9914 54.844C43.7594 54.844 43.5594 54.76 43.3914 54.592C43.2314 54.432 43.1514 54.24 43.1514 54.016C43.1514 53.784 43.2314 53.584 43.3914 53.416C43.5594 53.248 43.7594 53.164 43.9914 53.164C44.2154 53.164 44.4074 53.248 44.5674 53.416C44.7274 53.584 44.8074 53.784 44.8074 54.016C44.8074 54.24 44.7274 54.432 44.5674 54.592C44.4074 54.76 44.2154 54.844 43.9914 54.844ZM41.9154 54.844C41.6834 54.844 41.4834 54.76 41.3154 54.592C41.1554 54.432 41.0754 54.24 41.0754 54.016C41.0754 53.784 41.1554 53.584 41.3154 53.416C41.4834 53.248 41.6834 53.164 41.9154 53.164C42.1394 53.164 42.3314 53.248 42.4914 53.416C42.6514 53.584 42.7314 53.784 42.7314 54.016C42.7314 54.24 42.6514 54.432 42.4914 54.592C42.3314 54.76 42.1394 54.844 41.9154 54.844ZM46.0239 54.76L45.6759 53.08C46.2439 53.008 46.7399 52.92 47.1639 52.816C47.5879 52.72 47.9439 52.584 48.2319 52.408C48.5199 52.232 48.7359 51.992 48.8799 51.688C49.0239 51.376 49.0959 50.976 49.0959 50.488C49.0959 50.016 49.0239 49.64 48.8799 49.36C48.7359 49.08 48.5439 48.94 48.3039 48.94C48.1359 48.94 47.9959 49 47.8839 49.12C47.7719 49.232 47.6879 49.368 47.6319 49.528C47.5839 49.68 47.5599 49.816 47.5599 49.936C47.5599 50.008 47.5799 50.084 47.6199 50.164C47.6599 50.244 47.7479 50.312 47.8839 50.368C48.0199 50.424 48.2319 50.456 48.5199 50.464C48.8159 50.472 49.2159 50.444 49.7199 50.38H51.7359C52.0399 50.38 52.2559 50.46 52.3839 50.62C52.5199 50.772 52.5879 50.964 52.5879 51.196C52.5879 51.444 52.5039 51.652 52.3359 51.82C52.1679 51.98 51.9279 52.06 51.6159 52.06H48.3159C47.8119 52.06 47.3799 52 47.0199 51.88C46.6599 51.76 46.3839 51.568 46.1919 51.304C45.9999 51.032 45.9039 50.672 45.9039 50.224C45.9039 49.864 45.9639 49.504 46.0839 49.144C46.2119 48.784 46.3879 48.456 46.6119 48.16C46.8359 47.856 47.0959 47.616 47.3919 47.44C47.6959 47.256 48.0239 47.164 48.3759 47.164C48.8559 47.164 49.2759 47.312 49.6359 47.608C49.9959 47.904 50.2759 48.296 50.4759 48.784C50.6839 49.272 50.7879 49.804 50.7879 50.38C50.7879 51.284 50.5959 52.052 50.2119 52.684C49.8279 53.316 49.2799 53.804 48.5679 54.148C47.8559 54.5 47.0079 54.704 46.0239 54.76ZM51.6329 52.06L51.7529 50.38C52.1209 50.38 52.3849 50.344 52.5449 50.272C52.7049 50.192 52.8009 50.048 52.8329 49.84C52.8649 49.624 52.8729 49.312 52.8569 48.904L52.6409 43.216H54.3329L54.5729 49.024C54.5889 49.488 54.5689 49.908 54.5129 50.284C54.4649 50.652 54.3409 50.968 54.1409 51.232C53.9489 51.496 53.6489 51.7 53.2409 51.844C52.8409 51.988 52.3049 52.06 51.6329 52.06ZM55.8794 54.76L55.5314 53.08C56.0994 53.008 56.5954 52.92 57.0194 52.816C57.4434 52.72 57.7994 52.584 58.0874 52.408C58.3754 52.232 58.5914 51.992 58.7354 51.688C58.8794 51.376 58.9514 50.976 58.9514 50.488C58.9514 50.312 58.9354 50.136 58.9034 49.96C58.8714 49.776 58.8234 49.608 58.7594 49.456C58.6954 49.304 58.6114 49.18 58.5074 49.084C58.4114 48.988 58.2954 48.94 58.1594 48.94C58.0154 48.94 57.8874 48.992 57.7754 49.096C57.6634 49.192 57.5754 49.316 57.5114 49.468C57.4474 49.612 57.4154 49.76 57.4154 49.912C57.4154 50.024 57.4434 50.12 57.4994 50.2C57.5554 50.272 57.6394 50.328 57.7514 50.368C57.8634 50.4 58.0034 50.416 58.1714 50.416C58.3634 50.416 58.5594 50.396 58.7594 50.356C58.9674 50.308 59.1554 50.244 59.3234 50.164L59.3714 51.472C59.1794 51.624 58.9594 51.76 58.7114 51.88C58.4634 51.992 58.1634 52.048 57.8114 52.048C57.5234 52.048 57.2554 52.016 57.0074 51.952C56.7594 51.88 56.5394 51.772 56.3474 51.628C56.1634 51.484 56.0194 51.3 55.9154 51.076C55.8114 50.844 55.7594 50.568 55.7594 50.248C55.7594 49.856 55.8234 49.476 55.9514 49.108C56.0794 48.74 56.2554 48.412 56.4794 48.124C56.7114 47.828 56.9754 47.596 57.2714 47.428C57.5754 47.252 57.8954 47.164 58.2314 47.164C58.6314 47.164 58.9794 47.264 59.2754 47.464C59.5794 47.664 59.8314 47.928 60.0314 48.256C60.2314 48.576 60.3834 48.924 60.4874 49.3C60.5914 49.676 60.6434 50.036 60.6434 50.38C60.6434 51.284 60.4514 52.052 60.0674 52.684C59.6834 53.316 59.1354 53.804 58.4234 54.148C57.7114 54.5 56.8634 54.704 55.8794 54.76ZM65.8999 45.568C65.8999 45.304 65.8839 45.04 65.8519 44.776C65.8279 44.512 65.7959 44.264 65.7559 44.032C65.7159 43.792 65.6799 43.584 65.6479 43.408L67.3279 43.168C67.3599 43.328 67.3919 43.54 67.4239 43.804C67.4559 44.068 67.4839 44.348 67.5079 44.644C67.5319 44.932 67.5439 45.208 67.5439 45.472C67.5439 45.888 67.5079 46.28 67.4359 46.648C67.3639 47.016 67.2559 47.364 67.1119 47.692C66.9679 48.012 66.7879 48.32 66.5719 48.616L66.3559 48.904C66.1479 49.16 65.9039 49.412 65.6239 49.66C65.3519 49.908 65.0519 50.148 64.7239 50.38H65.5039C65.7759 50.38 65.9839 50.364 66.1279 50.332C66.2719 50.3 66.3679 50.256 66.4159 50.2C66.4719 50.136 66.4999 50.064 66.4999 49.984C66.4999 49.84 66.3759 49.628 66.1279 49.348C65.8799 49.06 65.5359 48.732 65.0959 48.364C64.6559 47.988 64.1399 47.592 63.5479 47.176C62.9639 46.752 62.3319 46.328 61.6519 45.904L62.5279 44.62C63.4719 45.204 64.2679 45.74 64.9159 46.228C65.5719 46.716 66.1079 47.16 66.5239 47.56C66.9479 47.96 67.2759 48.324 67.5079 48.652C67.7399 48.98 67.8999 49.276 67.9879 49.54C68.0759 49.796 68.1199 50.028 68.1199 50.236C68.1199 50.468 68.0839 50.692 68.0119 50.908C67.9399 51.116 67.8239 51.304 67.6639 51.472C67.5039 51.632 67.2959 51.76 67.0399 51.856C66.7839 51.952 66.4679 52 66.0919 52H62.5639V50.392C63.3879 49.8 64.0399 49.24 64.5199 48.712C65.0079 48.184 65.3599 47.664 65.5759 47.152C65.7919 46.64 65.8999 46.112 65.8999 45.568ZM61.5439 44.44L61.3399 43.6C61.6199 43.552 61.8279 43.512 61.9639 43.48C62.1079 43.448 62.2599 43.412 62.4199 43.372L62.2999 43.672C62.0919 43.6 61.8919 43.46 61.6999 43.252C61.5159 43.036 61.4239 42.792 61.4239 42.52C61.4239 42.232 61.4879 42 61.6159 41.824C61.7439 41.648 61.9079 41.52 62.1079 41.44C62.3079 41.36 62.5159 41.32 62.7319 41.32C62.8519 41.32 62.9639 41.328 63.0679 41.344C63.1799 41.36 63.2799 41.384 63.3679 41.416L63.2719 42.28C63.1919 42.264 63.1119 42.248 63.0319 42.232C62.9519 42.216 62.8639 42.208 62.7679 42.208C62.6639 42.208 62.5679 42.244 62.4799 42.316C62.3999 42.38 62.3599 42.46 62.3599 42.556C62.3599 42.692 62.4079 42.812 62.5039 42.916C62.5999 43.02 62.7119 43.104 62.8399 43.168C62.9759 43.224 63.0879 43.256 63.1759 43.264L62.5159 43.336C62.7319 43.28 62.9359 43.224 63.1279 43.168C63.3199 43.104 63.4999 43.04 63.6679 42.976L63.9079 43.78C63.7079 43.852 63.4719 43.932 63.1999 44.02C62.9359 44.1 62.6599 44.176 62.3719 44.248C62.0919 44.32 61.8159 44.384 61.5439 44.44ZM70.0772 52L69.8252 43.216H71.5052L71.7572 52H70.0772Z" fill="black"/>
<path d="M32.4424 67.09C32.1357 67.09 31.8357 67.06 31.5424 67C31.2557 66.9333 30.9857 66.8367 30.7324 66.71C30.4857 66.5833 30.2657 66.4333 30.0724 66.26L30.4524 65.44C30.759 65.6933 31.0757 65.88 31.4024 66C31.729 66.12 32.0724 66.18 32.4324 66.18C32.8924 66.18 33.2524 66.06 33.5124 65.82C33.7724 65.58 33.9024 65.2533 33.9024 64.84C33.9024 64.4133 33.779 64.0733 33.5324 63.82C33.2857 63.5667 32.9457 63.44 32.5124 63.44C32.2124 63.44 31.9424 63.5 31.7024 63.62C31.469 63.7333 31.2524 63.92 31.0524 64.18H30.2824V59.95H34.5324V60.85H31.2824V63.33H31.1124C31.279 63.09 31.5024 62.9 31.7824 62.76C32.069 62.62 32.3857 62.55 32.7324 62.55C33.179 62.55 33.5657 62.6467 33.8924 62.84C34.219 63.0267 34.4724 63.2867 34.6524 63.62C34.8324 63.9533 34.9224 64.3433 34.9224 64.79C34.9224 65.25 34.8224 65.6533 34.6224 66C34.4224 66.3467 34.1357 66.6167 33.7624 66.81C33.389 66.9967 32.949 67.09 32.4424 67.09ZM38.3626 66.72C38.3626 66.5667 38.3759 66.3867 38.4026 66.18C38.4293 65.9733 38.4793 65.74 38.5526 65.48C38.6259 65.2133 38.7359 64.9167 38.8826 64.59L40.1126 65.02C40.0393 65.2267 39.9759 65.4167 39.9226 65.59C39.8693 65.7567 39.8293 65.9133 39.8026 66.06C39.7759 66.2 39.7626 66.34 39.7626 66.48C39.7626 66.78 39.8359 67.04 39.9826 67.26C40.1359 67.4867 40.3426 67.66 40.6026 67.78C40.8693 67.9067 41.1759 67.97 41.5226 67.97C42.0893 67.97 42.5226 67.8767 42.8226 67.69C43.1293 67.51 43.3359 67.2233 43.4426 66.83C43.5559 66.43 43.5993 65.9133 43.5726 65.28L43.3726 59.68H44.7826L44.9326 64.41C44.9459 64.7433 44.9926 65 45.0726 65.18C45.1526 65.36 45.2759 65.4833 45.4426 65.55C45.6159 65.6167 45.8393 65.65 46.1126 65.65C46.3659 65.65 46.5459 65.7167 46.6526 65.85C46.7593 65.9767 46.8126 66.1367 46.8126 66.33C46.8126 66.5367 46.7426 66.71 46.6026 66.85C46.4626 66.9833 46.2659 67.05 46.0126 67.05C45.8659 67.05 45.7093 67.03 45.5426 66.99C45.3759 66.95 45.2159 66.8867 45.0626 66.8C44.9093 66.7133 44.7759 66.6 44.6626 66.46C44.5493 66.3133 44.4726 66.1333 44.4326 65.92L44.9726 65.65C44.9726 66.3233 44.8926 66.8933 44.7326 67.36C44.5793 67.8267 44.3526 68.2033 44.0526 68.49C43.7593 68.7767 43.3959 68.9833 42.9626 69.11C42.5359 69.2433 42.0426 69.31 41.4826 69.31C41.0559 69.31 40.6526 69.2567 40.2726 69.15C39.8993 69.0433 39.5693 68.8833 39.2826 68.67C38.9959 68.4567 38.7693 68.1867 38.6026 67.86C38.4426 67.54 38.3626 67.16 38.3626 66.72ZM56.0427 67.05C55.7027 67.05 55.3761 67.02 55.0627 66.96C54.7494 66.8933 54.4661 66.8067 54.2127 66.7C53.9661 66.5933 53.7627 66.4733 53.6027 66.34L54.5027 65.37C54.7427 65.47 54.9894 65.5433 55.2427 65.59C55.4961 65.63 55.7961 65.65 56.1427 65.65C56.3961 65.65 56.5761 65.7167 56.6827 65.85C56.7961 65.9767 56.8527 66.1367 56.8527 66.33C56.8527 66.5367 56.7827 66.71 56.6427 66.85C56.5027 66.9833 56.3027 67.05 56.0427 67.05ZM51.1927 67.18C50.5727 67.18 50.0561 67.1533 49.6427 67.1C49.2361 67.0467 48.9061 66.97 48.6527 66.87C48.3994 66.77 48.1994 66.65 48.0527 66.51C47.9061 66.37 47.7861 66.2167 47.6927 66.05L47.9727 65.97C47.8061 66.29 47.6161 66.5267 47.4027 66.68C47.1894 66.8333 46.9661 66.9333 46.7327 66.98C46.4994 67.0267 46.2594 67.05 46.0127 67.05L46.1127 65.65C46.3194 65.65 46.4827 65.6167 46.6027 65.55C46.7227 65.4833 46.8194 65.3733 46.8927 65.22C46.9727 65.0667 47.0461 64.8633 47.1127 64.61C47.1794 64.3567 47.2594 64.0467 47.3527 63.68L48.6227 63.99C48.5761 64.17 48.5361 64.3267 48.5027 64.46C48.4761 64.5933 48.4527 64.71 48.4327 64.81C48.4194 64.9033 48.4127 64.98 48.4127 65.04C48.4127 65.1667 48.4427 65.28 48.5027 65.38C48.5627 65.4733 48.6794 65.55 48.8527 65.61C49.0261 65.6633 49.2794 65.7067 49.6127 65.74C49.9527 65.7667 50.3961 65.78 50.9427 65.78C51.5227 65.78 52.0061 65.76 52.3927 65.72C52.7794 65.6733 53.0861 65.61 53.3127 65.53C53.5461 65.4433 53.7127 65.34 53.8127 65.22C53.9127 65.0933 53.9627 64.95 53.9627 64.79C53.9627 64.6633 53.9327 64.5467 53.8727 64.44C53.8194 64.3267 53.7294 64.2333 53.6027 64.16C53.4761 64.0867 53.3127 64.05 53.1127 64.05C52.8727 64.05 52.6294 64.11 52.3827 64.23C52.1427 64.3433 51.9061 64.4967 51.6727 64.69C51.4394 64.8767 51.2161 65.0867 51.0027 65.32C50.7961 65.5533 50.6094 65.7867 50.4427 66.02L48.9427 65.85C49.2027 65.43 49.4961 65.0267 49.8227 64.64C50.1494 64.2533 50.4994 63.9133 50.8727 63.62C51.2461 63.32 51.6327 63.0833 52.0327 62.91C52.4327 62.7367 52.8394 62.65 53.2527 62.65C53.6994 62.65 54.0794 62.7367 54.3927 62.91C54.7061 63.0833 54.9461 63.3233 55.1127 63.63C55.2794 63.9367 55.3627 64.29 55.3627 64.69C55.3627 65.1767 55.2227 65.6067 54.9427 65.98C54.6694 66.3533 54.2261 66.6467 53.6127 66.86C53.0061 67.0733 52.1994 67.18 51.1927 67.18ZM56.0518 67.05L56.1518 65.66C56.4118 65.6667 56.6518 65.6633 56.8718 65.65C57.0918 65.6367 57.2885 65.6167 57.4618 65.59C57.6418 65.5633 57.7985 65.5333 57.9318 65.5C58.0718 65.4667 58.1885 65.4367 58.2818 65.41C58.5085 65.3367 58.7018 65.25 58.8618 65.15C59.0218 65.0433 59.1451 64.9233 59.2318 64.79C59.3185 64.6567 59.3618 64.5133 59.3618 64.36C59.3618 64.24 59.3351 64.12 59.2818 64C59.2351 63.8733 59.1651 63.77 59.0718 63.69C58.9785 63.61 58.8685 63.57 58.7418 63.57C58.6218 63.57 58.5118 63.6067 58.4118 63.68C58.3118 63.7533 58.2318 63.8533 58.1718 63.98C58.1118 64.1 58.0818 64.24 58.0818 64.4C58.0818 64.54 58.1151 64.6733 58.1818 64.8C58.2485 64.92 58.3418 65.0367 58.4618 65.15C58.5818 65.2633 58.7251 65.37 58.8918 65.47L57.5618 65.98C57.4151 65.84 57.2751 65.69 57.1418 65.53C57.0151 65.37 56.9085 65.19 56.8218 64.99C56.7418 64.7833 56.7018 64.5533 56.7018 64.3C56.7018 63.9933 56.7618 63.7133 56.8818 63.46C57.0018 63.2067 57.1618 62.99 57.3618 62.81C57.5618 62.6233 57.7851 62.48 58.0318 62.38C58.2785 62.28 58.5251 62.23 58.7718 62.23C59.1718 62.23 59.5185 62.3233 59.8118 62.51C60.1051 62.6967 60.3318 62.94 60.4918 63.24C60.6585 63.54 60.7418 63.8667 60.7418 64.22C60.7418 64.5467 60.6818 64.84 60.5618 65.1C60.4418 65.3533 60.2785 65.58 60.0718 65.78C59.8718 65.9733 59.6485 66.1433 59.4018 66.29C59.1618 66.4367 58.9185 66.56 58.6718 66.66C58.5518 66.7133 58.4018 66.7633 58.2218 66.81C58.0418 66.8567 57.8385 66.9 57.6118 66.94C57.3851 66.9733 57.1418 67 56.8818 67.02C56.6218 67.04 56.3451 67.05 56.0518 67.05ZM61.3318 67.05C60.9451 67.05 60.5651 67.03 60.1918 66.99C59.8185 66.95 59.4718 66.89 59.1518 66.81C58.8385 66.73 58.5651 66.6333 58.3318 66.52L59.0218 65.44C59.2218 65.4933 59.4551 65.5367 59.7218 65.57C59.9951 65.5967 60.2785 65.6167 60.5718 65.63C60.8718 65.6433 61.1585 65.65 61.4318 65.65C61.6851 65.65 61.8651 65.7167 61.9718 65.85C62.0851 65.9767 62.1418 66.1367 62.1418 66.33C62.1418 66.5367 62.0718 66.71 61.9318 66.85C61.7918 66.9833 61.5918 67.05 61.3318 67.05ZM58.7818 61.3C58.5751 61.3 58.3985 61.23 58.2518 61.09C58.1118 60.95 58.0418 60.7767 58.0418 60.57C58.0418 60.3633 58.1118 60.1867 58.2518 60.04C58.3985 59.8933 58.5751 59.82 58.7818 59.82C58.9818 59.82 59.1518 59.8933 59.2918 60.04C59.4385 60.1867 59.5118 60.3633 59.5118 60.57C59.5118 60.7767 59.4385 60.95 59.2918 61.09C59.1518 61.23 58.9818 61.3 58.7818 61.3ZM61.3448 67.05L61.4448 65.65C61.7514 65.65 61.9714 65.62 62.1048 65.56C62.2381 65.4933 62.3181 65.3733 62.3448 65.2C62.3714 65.02 62.3781 64.76 62.3648 64.42L62.1848 59.68H63.5948L63.7948 64.52C63.8081 64.9067 63.7914 65.2567 63.7448 65.57C63.7048 65.8767 63.6014 66.14 63.4348 66.36C63.2748 66.58 63.0248 66.75 62.6848 66.87C62.3514 66.99 61.9048 67.05 61.3448 67.05ZM65.1135 67L64.9035 59.68H66.3035L66.5135 67H65.1135Z" fill="#667085"/>
<defs>
<filter id="filter0_d_8310_982" x="0" y="0" width="96" height="85.8462" filterUnits="userSpaceOnUse" color-interpolation-filters="sRGB">
<feFlood flood-opacity="0" result="BackgroundImageFix"/>
<feColorMatrix in="SourceAlpha" type="matrix" values="0 0 0 0 0 0 0 0 0 0 0 0 0 0 0 0 0 0 127 0" result="hardAlpha"/>
<feOffset dy="4"/>
<feGaussianBlur stdDeviation="2"/>
<feComposite in2="hardAlpha" operator="out"/>
<feColorMatrix type="matrix" values="0 0 0 0 0 0 0 0 0 0 0 0 0 0 0 0 0 0 0.25 0"/>
<feBlend mode="normal" in2="BackgroundImageFix" result="effect1_dropShadow_8310_982"/>
<feBlend mode="normal" in="SourceGraphic" in2="effect1_dropShadow_8310_982" result="shape"/>
</filter>
</defs>
</svg>
