<svg width="102" height="92" viewBox="0 0 102 92" fill="none" xmlns="http://www.w3.org/2000/svg">
<g filter="url(#filter0_d_8310_900)">
<path d="M5.49766 45.8797C4.67727 44.4665 4.2671 43.7594 4.10655 43.0082C3.96448 42.3433 3.96448 41.6565 4.10655 40.9916C4.2671 40.2404 4.67727 39.5333 5.49766 38.1201L25.371 3.87978C26.1914 2.46638 26.6016 1.75968 27.1754 1.2457C27.6832 0.790942 28.2813 0.447387 28.9311 0.237394C29.6655 -2.168e-07 30.4859 0 32.1266 0H71.8732C73.5143 0 74.3343 -2.168e-07 75.069 0.237394C75.7185 0.447387 76.3167 0.790942 76.8247 1.2457C77.3985 1.75968 77.8085 2.46638 78.6291 3.87978L98.5023 38.1201C99.3228 39.5333 99.7328 40.2404 99.8932 40.9916C100.036 41.6565 100.036 42.3433 99.8932 43.0082C99.7328 43.7594 99.3228 44.4665 98.5023 45.8797L78.6291 80.1202C77.8085 81.5334 77.3985 82.24 76.8247 82.7541C76.3167 83.209 75.7185 83.5524 75.069 83.7624C74.3343 84 73.5143 84 71.8732 84H32.1266C30.4859 84 29.6655 84 28.9311 83.7624C28.2813 83.5524 27.6832 83.209 27.1754 82.7541C26.6016 82.24 26.1914 81.5334 25.371 80.1202L5.49766 45.8797Z" fill="white"/>
</g>
<g clip-path="url(#clip0_8310_900)">
<path d="M56.2525 23.2959L56.5876 22.6493C56.694 22.4416 56.7931 22.2375 56.8862 22.0293C57.0689 21.6147 57.2182 21.1937 57.3123 20.7777C57.5036 19.938 57.404 19.1678 56.8935 18.5975C56.3831 18.0157 55.5402 17.6253 54.669 17.3532C52.8142 16.8194 50.9176 16.2254 49.0825 15.5287C48.6218 15.3538 48.1634 15.1721 47.7067 14.9785C47.257 14.7895 46.7694 14.5685 46.3232 14.2694C45.8822 13.9712 45.4197 13.574 45.1809 12.9649C45.0626 12.6654 45.0315 12.3266 45.0713 12.0188C45.1115 11.7102 45.2119 11.4293 45.3366 11.1791C45.596 10.6663 45.9142 10.2965 46.2009 9.89969L47.0936 8.73537L48.8977 6.43135L51.9692 2.56715L49.6277 2.5C49.6277 2.5 44.2941 7.40482 41.9134 10.5001C39.8436 13.1904 40.9741 15.5675 44.7183 17.1664C47.8784 18.5166 50.8363 19.5617 50.8363 19.5617C51.3459 19.8256 51.7084 20.2882 51.8289 20.8279C51.9495 21.3681 51.8162 21.9302 51.4632 22.3689L43.3156 32.5H51.4445L54.9019 25.8866L56.2525 23.2959Z" fill="#F2BB41"/>
<path d="M64.0727 17.7944C62.938 15.8963 60.9957 14.5576 58.7455 14.1224L50.7737 12.4417C50.4413 12.3778 50.1619 12.1668 50.0208 11.8737C49.8797 11.581 49.8948 11.2417 50.0605 10.9609L55.3599 2.66403L52.7787 2.59009L49.5154 6.90681L47.7721 9.24821L46.9151 10.4249C46.6393 10.8208 46.3352 11.2121 46.1676 11.5783C45.9891 11.9568 45.9443 12.3175 46.0731 12.617C46.1973 12.9239 46.5009 13.2092 46.8671 13.4385C47.2379 13.6732 47.6457 13.8498 48.0977 14.027C48.5424 14.2028 48.9936 14.3695 49.4479 14.5293C51.2734 15.1708 53.1121 15.6986 55.0143 16.1968C55.9896 16.4872 57.022 16.8762 57.8443 17.7438C58.2452 18.178 58.5443 18.7483 58.6579 19.3386C58.7748 19.9295 58.7365 20.5112 58.6342 21.0491C58.5265 21.5865 58.358 22.0915 58.1603 22.5727C58.0603 22.812 57.9525 23.049 57.842 23.2773L57.5206 23.9361L56.2325 26.5611L53.3097 32.5001H61.5495L64.6662 24.0247C65.4238 21.9636 65.2073 19.6924 64.0727 17.7944Z" fill="#F2BB41"/>
</g>
<path d="M32.7287 50.216C32.5847 49.656 32.4607 49.132 32.3567 48.644C32.2607 48.164 32.1887 47.728 32.1407 47.336C32.0927 46.952 32.0687 46.624 32.0687 46.352C32.0687 45.792 32.1607 45.324 32.3447 44.948C32.5367 44.572 32.7887 44.272 33.1007 44.048C33.4207 43.816 33.7687 43.652 34.1447 43.556C34.5207 43.452 34.8967 43.4 35.2727 43.4C35.6567 43.4 36.0087 43.432 36.3287 43.496C36.3447 43.248 36.3247 43.024 36.2687 42.824C36.2207 42.624 36.1447 42.452 36.0407 42.308C35.9447 42.164 35.8247 42.052 35.6807 41.972C35.5447 41.892 35.3967 41.852 35.2367 41.852C35.0847 41.852 34.9327 41.892 34.7807 41.972C34.6287 42.044 34.4847 42.152 34.3487 42.296C34.2207 42.44 34.0967 42.624 33.9767 42.848L32.6687 42.128C32.8847 41.64 33.1407 41.256 33.4367 40.976C33.7327 40.688 34.0407 40.484 34.3607 40.364C34.6887 40.236 35.0087 40.172 35.3207 40.172C35.8007 40.172 36.2127 40.276 36.5567 40.484C36.9087 40.684 37.1927 40.948 37.4087 41.276C37.6247 41.596 37.7847 41.94 37.8887 42.308C37.9927 42.676 38.0447 43.028 38.0447 43.364C38.0447 43.62 38.0167 43.876 37.9607 44.132C37.9127 44.38 37.8527 44.604 37.7807 44.804C37.7167 45.004 37.6527 45.16 37.5887 45.272C37.1487 45.152 36.7327 45.064 36.3407 45.008C35.9487 44.952 35.5927 44.936 35.2727 44.96C34.9607 44.976 34.6887 45.04 34.4567 45.152C34.2327 45.256 34.0567 45.412 33.9287 45.62C33.8087 45.828 33.7487 46.092 33.7487 46.412C33.7487 46.708 33.7727 47.044 33.8207 47.42C33.8687 47.804 33.9367 48.2 34.0247 48.608C34.1127 49.016 34.2127 49.42 34.3247 49.82L32.7287 50.216ZM41.0789 43.88C41.4389 43.88 41.7149 43.848 41.9069 43.784C42.0989 43.72 42.2309 43.636 42.3029 43.532C42.3749 43.428 42.4109 43.316 42.4109 43.196C42.4109 43.004 42.3549 42.78 42.2429 42.524C42.1389 42.268 42.0069 42 41.8469 41.72C41.6869 41.44 41.5189 41.172 41.3429 40.916C41.1749 40.66 41.0229 40.436 40.8869 40.244L42.3149 39.296C42.6589 39.76 42.9549 40.22 43.2029 40.676C43.4509 41.124 43.6509 41.54 43.8029 41.924C43.9629 42.308 44.0749 42.636 44.1389 42.908C44.2029 43.164 44.2989 43.364 44.4269 43.508C44.5629 43.644 44.7189 43.74 44.8949 43.796C45.0709 43.852 45.2469 43.88 45.4229 43.88C45.7269 43.88 45.9429 43.96 46.0709 44.12C46.2069 44.272 46.2749 44.464 46.2749 44.696C46.2749 44.944 46.1909 45.152 46.0229 45.32C45.8629 45.48 45.6229 45.56 45.3029 45.56C44.9509 45.56 44.6429 45.512 44.3789 45.416C44.1149 45.32 43.8909 45.168 43.7069 44.96C43.5229 44.752 43.3669 44.488 43.2389 44.168L43.9709 44.324C43.9069 44.548 43.7589 44.756 43.5269 44.948C43.3029 45.132 43.0029 45.284 42.6269 45.404C42.2589 45.516 41.8229 45.572 41.3189 45.572C41.0789 45.572 40.8109 45.552 40.5149 45.512C40.2269 45.472 39.9389 45.412 39.6509 45.332C39.3709 45.252 39.1149 45.148 38.8829 45.02L39.4709 43.496C39.7669 43.624 40.0509 43.72 40.3229 43.784C40.6029 43.848 40.8549 43.88 41.0789 43.88ZM53.1664 45.56C52.7984 45.56 52.4544 45.532 52.1344 45.476C51.8224 45.42 51.5344 45.324 51.2704 45.188C51.0064 45.044 50.7704 44.848 50.5624 44.6C50.3624 44.352 50.1944 44.04 50.0584 43.664L51.0064 42.908C51.1504 43.164 51.3264 43.364 51.5344 43.508C51.7424 43.644 51.9904 43.74 52.2784 43.796C52.5664 43.852 52.9024 43.88 53.2864 43.88C53.5904 43.88 53.8064 43.96 53.9344 44.12C54.0624 44.272 54.1264 44.464 54.1264 44.696C54.1264 44.944 54.0424 45.152 53.8744 45.32C53.7144 45.48 53.4784 45.56 53.1664 45.56ZM45.3184 45.56L45.4384 43.88C45.8704 43.88 46.2984 43.856 46.7224 43.808C47.1464 43.76 47.5584 43.688 47.9584 43.592C48.3584 43.496 48.7384 43.372 49.0984 43.22C49.4664 43.068 49.8104 42.884 50.1304 42.668C49.8904 42.524 49.6304 42.4 49.3504 42.296C49.0704 42.192 48.7704 42.116 48.4504 42.068C48.1384 42.012 47.8064 41.984 47.4544 41.984C47.3264 41.984 47.1904 41.988 47.0464 41.996C46.9104 42.004 46.7704 42.02 46.6264 42.044C46.4824 42.06 46.3384 42.084 46.1944 42.116L45.9544 40.472C46.1864 40.408 46.4304 40.364 46.6864 40.34C46.9504 40.308 47.1824 40.292 47.3824 40.292C47.8144 40.292 48.2104 40.34 48.5704 40.436C48.9384 40.532 49.2744 40.652 49.5784 40.796C49.8904 40.94 50.1784 41.084 50.4424 41.228C50.7144 41.372 50.9704 41.492 51.2104 41.588C51.4584 41.684 51.6984 41.732 51.9304 41.732H52.3744L52.5664 43.328C52.2224 43.344 51.8984 43.412 51.5944 43.532C51.2984 43.644 51.0024 43.788 50.7064 43.964C50.4184 44.132 50.1064 44.308 49.7704 44.492C49.4424 44.676 49.0704 44.848 48.6544 45.008C48.2384 45.168 47.7584 45.3 47.2144 45.404C46.6704 45.508 46.0384 45.56 45.3184 45.56ZM47.3824 39.056C47.1344 39.056 46.9224 38.972 46.7464 38.804C46.5784 38.636 46.4944 38.428 46.4944 38.18C46.4944 37.932 46.5784 37.72 46.7464 37.544C46.9224 37.368 47.1344 37.28 47.3824 37.28C47.6224 37.28 47.8264 37.368 47.9944 37.544C48.1704 37.72 48.2584 37.932 48.2584 38.18C48.2584 38.428 48.1704 38.636 47.9944 38.804C47.8264 38.972 47.6224 39.056 47.3824 39.056ZM53.1699 45.56L53.2899 43.88C53.5779 43.88 53.8259 43.852 54.0339 43.796C54.2419 43.74 54.4179 43.628 54.5619 43.46C54.7059 43.284 54.8259 43.028 54.9219 42.692C55.0259 42.356 55.1179 41.908 55.1979 41.348L56.7699 41.612C56.7539 41.732 56.7299 41.872 56.6979 42.032C56.6739 42.192 56.6499 42.356 56.6259 42.524C56.6099 42.684 56.6019 42.836 56.6019 42.98C56.6019 43.124 56.6299 43.252 56.6859 43.364C56.7419 43.476 56.8299 43.572 56.9499 43.652C57.0779 43.724 57.2419 43.78 57.4419 43.82C57.6499 43.86 57.9019 43.88 58.1979 43.88C58.5019 43.88 58.7179 43.96 58.8459 44.12C58.9739 44.272 59.0379 44.464 59.0379 44.696C59.0379 44.944 58.9539 45.152 58.7859 45.32C58.6259 45.48 58.3899 45.56 58.0779 45.56C57.7179 45.56 57.3899 45.532 57.0939 45.476C56.8059 45.42 56.5539 45.328 56.3379 45.2C56.1299 45.064 55.9579 44.888 55.8219 44.672C55.6939 44.448 55.6139 44.176 55.5819 43.856H56.1579C56.0139 44.24 55.8299 44.548 55.6059 44.78C55.3899 45.004 55.1459 45.172 54.8739 45.284C54.6019 45.396 54.3179 45.468 54.0219 45.5C53.7339 45.54 53.4499 45.56 53.1699 45.56ZM57.0219 40.268C56.7899 40.268 56.5899 40.188 56.4219 40.028C56.2619 39.86 56.1819 39.664 56.1819 39.44C56.1819 39.208 56.2619 39.008 56.4219 38.84C56.5899 38.672 56.7899 38.588 57.0219 38.588C57.2459 38.588 57.4379 38.672 57.5979 38.84C57.7579 39.008 57.8379 39.208 57.8379 39.44C57.8379 39.664 57.7579 39.86 57.5979 40.028C57.4379 40.188 57.2459 40.268 57.0219 40.268ZM54.9459 40.256C54.7139 40.256 54.5139 40.176 54.3459 40.016C54.1859 39.848 54.1059 39.652 54.1059 39.428C54.1059 39.196 54.1859 38.996 54.3459 38.828C54.5139 38.66 54.7139 38.576 54.9459 38.576C55.1699 38.576 55.3619 38.66 55.5219 38.828C55.6819 38.996 55.7619 39.196 55.7619 39.428C55.7619 39.652 55.6819 39.848 55.5219 40.016C55.3619 40.176 55.1699 40.256 54.9459 40.256ZM58.0801 45.56L58.2001 43.88C58.4641 43.88 58.6801 43.86 58.8481 43.82C59.0161 43.772 59.1521 43.672 59.2561 43.52C59.3681 43.36 59.4641 43.124 59.5441 42.812C59.6321 42.492 59.7281 42.06 59.8321 41.516L61.3921 41.804C61.3601 41.98 61.3161 42.2 61.2601 42.464C61.2121 42.728 61.1881 42.956 61.1881 43.148C61.1881 43.3 61.2161 43.432 61.2721 43.544C61.3361 43.648 61.4401 43.732 61.5841 43.796C61.7361 43.852 61.9441 43.88 62.2081 43.88C62.4161 43.88 62.5921 43.86 62.7361 43.82C62.8881 43.772 63.0161 43.672 63.1201 43.52C63.2321 43.36 63.3281 43.116 63.4081 42.788C63.4961 42.452 63.5801 42 63.6601 41.432L65.2441 41.684C65.2121 41.868 65.1801 42.064 65.1481 42.272C65.1161 42.48 65.0881 42.672 65.0641 42.848C65.0401 43.024 65.0281 43.168 65.0281 43.28C65.0281 43.384 65.0561 43.484 65.1121 43.58C65.1761 43.668 65.2881 43.74 65.4481 43.796C65.6161 43.852 65.8481 43.88 66.1441 43.88C66.5041 43.88 66.7681 43.804 66.9361 43.652C67.1121 43.492 67.2001 43.252 67.2001 42.932C67.2001 42.748 67.1961 42.552 67.1881 42.344C67.1801 42.128 67.1641 41.888 67.1401 41.624C67.1241 41.352 67.0921 41.044 67.0441 40.7L68.5921 40.58C68.6481 41.268 68.7121 41.828 68.7841 42.26C68.8561 42.692 68.9521 43.028 69.0721 43.268C69.2001 43.5 69.3681 43.66 69.5761 43.748C69.7921 43.836 70.0721 43.88 70.4161 43.88C70.7201 43.88 70.9361 43.96 71.0641 44.12C71.2001 44.272 71.2681 44.464 71.2681 44.696C71.2681 44.944 71.1841 45.152 71.0161 45.32C70.8561 45.48 70.6161 45.56 70.2961 45.56C70.0801 45.56 69.8561 45.54 69.6241 45.5C69.3921 45.468 69.1681 45.4 68.9521 45.296C68.7361 45.184 68.5441 45.024 68.3761 44.816C68.2081 44.608 68.0761 44.332 67.9801 43.988L68.1961 44.06C68.0841 44.46 67.9321 44.768 67.7401 44.984C67.5481 45.2 67.3121 45.352 67.0321 45.44C66.7521 45.52 66.4161 45.56 66.0241 45.56C65.6641 45.56 65.3441 45.512 65.0641 45.416C64.7841 45.32 64.5601 45.164 64.3921 44.948C64.2321 44.724 64.1481 44.424 64.1401 44.048H64.5481C64.3881 44.496 64.2041 44.828 63.9961 45.044C63.7881 45.26 63.5361 45.4 63.2401 45.464C62.9441 45.528 62.5721 45.56 62.1241 45.56C61.8521 45.56 61.5841 45.532 61.3201 45.476C61.0561 45.412 60.8201 45.272 60.6121 45.056C60.4041 44.832 60.2521 44.48 60.1561 44L60.8041 43.976C60.6361 44.448 60.4161 44.796 60.1441 45.02C59.8801 45.244 59.5761 45.392 59.2321 45.464C58.8881 45.528 58.5041 45.56 58.0801 45.56ZM70.3027 45.56L70.4227 43.88C70.7747 43.88 71.0507 43.856 71.2507 43.808C71.4587 43.76 71.6067 43.672 71.6947 43.544C71.7827 43.408 71.8267 43.216 71.8267 42.968C71.8267 42.744 71.7947 42.476 71.7307 42.164C71.6747 41.852 71.5987 41.528 71.5027 41.192C71.4067 40.856 71.3107 40.548 71.2147 40.268L72.8707 39.812C72.9667 40.084 73.0627 40.4 73.1587 40.76C73.2547 41.12 73.3347 41.492 73.3987 41.876C73.4707 42.252 73.5067 42.616 73.5067 42.968C73.5067 43.408 73.4507 43.78 73.3387 44.084C73.2267 44.38 73.0707 44.628 72.8707 44.828C72.6787 45.02 72.4467 45.172 72.1747 45.284C71.9107 45.388 71.6187 45.46 71.2987 45.5C70.9787 45.54 70.6467 45.56 70.3027 45.56ZM72.0307 38.816C71.7827 38.816 71.5707 38.732 71.3947 38.564C71.2267 38.396 71.1427 38.188 71.1427 37.94C71.1427 37.692 71.2267 37.48 71.3947 37.304C71.5707 37.128 71.7827 37.04 72.0307 37.04C72.2707 37.04 72.4747 37.128 72.6427 37.304C72.8187 37.48 72.9067 37.692 72.9067 37.94C72.9067 38.188 72.8187 38.396 72.6427 38.564C72.4747 38.732 72.2707 38.816 72.0307 38.816ZM39.0656 66.228C38.5296 66.228 38.0056 66.164 37.4936 66.036C36.9896 65.908 36.5336 65.704 36.1256 65.424C35.7176 65.152 35.3936 64.8 35.1536 64.368C34.9136 63.936 34.7936 63.416 34.7936 62.808C34.7936 62.152 34.9256 61.552 35.1896 61.008C35.4536 60.456 35.8256 59.968 36.3056 59.544C36.7856 59.12 37.3536 58.768 38.0096 58.488C38.6736 58.2 39.3976 57.996 40.1816 57.876L40.5776 59.46C39.8736 59.588 39.2616 59.756 38.7416 59.964C38.2296 60.172 37.8056 60.416 37.4696 60.696C37.1336 60.976 36.8816 61.276 36.7136 61.596C36.5536 61.924 36.4736 62.268 36.4736 62.628C36.4736 62.916 36.5256 63.168 36.6296 63.384C36.7416 63.6 36.8896 63.78 37.0736 63.924C37.2576 64.076 37.4616 64.196 37.6856 64.284C37.9096 64.38 38.1416 64.448 38.3816 64.488C38.6216 64.528 38.8496 64.548 39.0656 64.548C39.6176 64.548 40.1296 64.496 40.6016 64.392C41.0816 64.288 41.5016 64.16 41.8616 64.008L42.3416 65.556C42.1496 65.652 41.8776 65.752 41.5256 65.856C41.1816 65.96 40.7936 66.048 40.3616 66.12C39.9376 66.192 39.5056 66.228 39.0656 66.228ZM36.6776 59.58C36.3976 59.468 36.1376 59.308 35.8976 59.1C35.6656 58.892 35.4776 58.636 35.3336 58.332C35.1976 58.02 35.1296 57.664 35.1296 57.264C35.1296 56.76 35.2616 56.324 35.5256 55.956C35.7896 55.588 36.1416 55.304 36.5816 55.104C37.0216 54.904 37.5016 54.804 38.0216 54.804C38.2776 54.804 38.5136 54.82 38.7296 54.852C38.9536 54.884 39.1816 54.932 39.4136 54.996L39.1496 56.592C38.9816 56.552 38.8096 56.52 38.6336 56.496C38.4576 56.472 38.3016 56.46 38.1656 56.46C37.8856 56.46 37.6416 56.5 37.4336 56.58C37.2336 56.66 37.0776 56.776 36.9656 56.928C36.8616 57.072 36.8096 57.244 36.8096 57.444C36.8096 57.604 36.8576 57.756 36.9536 57.9C37.0576 58.044 37.1896 58.172 37.3496 58.284C37.5096 58.388 37.6856 58.476 37.8776 58.548C38.0696 58.612 38.2576 58.648 38.4416 58.656L36.6776 59.58ZM43.7936 64.26L43.1816 62.724C43.8696 62.484 44.4256 62.22 44.8496 61.932C45.2816 61.644 45.5976 61.336 45.7976 61.008C46.0056 60.68 46.1096 60.34 46.1096 59.988C46.1096 59.764 46.0776 59.532 46.0136 59.292C45.9496 59.044 45.8576 58.784 45.7376 58.512C45.6256 58.24 45.4896 57.956 45.3296 57.66L46.9016 56.904C47.1816 57.44 47.3976 57.952 47.5496 58.44C47.7096 58.928 47.7896 59.384 47.7896 59.808C47.7896 60.2 47.7376 60.576 47.6336 60.936C47.5376 61.296 47.3856 61.632 47.1776 61.944C46.9776 62.264 46.7176 62.564 46.3976 62.844C46.0776 63.124 45.7016 63.38 45.2696 63.612C44.8376 63.852 44.3456 64.068 43.7936 64.26ZM52.3157 61.56C51.5717 61.56 50.9957 61.484 50.5877 61.332C50.1877 61.18 49.9077 60.944 49.7477 60.624C49.5877 60.296 49.4957 59.884 49.4717 59.388L49.2197 52.716H50.8997L51.1517 58.584C51.1677 58.952 51.2077 59.228 51.2717 59.412C51.3357 59.596 51.4557 59.72 51.6317 59.784C51.8157 59.848 52.0837 59.88 52.4357 59.88C52.7397 59.88 52.9557 59.96 53.0837 60.12C53.2197 60.272 53.2877 60.464 53.2877 60.696C53.2877 60.944 53.2037 61.152 53.0357 61.32C52.8677 61.48 52.6277 61.56 52.3157 61.56ZM52.332 61.56L52.452 59.88C52.716 59.88 52.932 59.86 53.1 59.82C53.268 59.772 53.404 59.672 53.508 59.52C53.62 59.36 53.716 59.124 53.796 58.812C53.884 58.492 53.98 58.06 54.084 57.516L55.644 57.804C55.612 57.98 55.568 58.2 55.512 58.464C55.464 58.728 55.44 58.956 55.44 59.148C55.44 59.3 55.468 59.432 55.524 59.544C55.588 59.648 55.692 59.732 55.836 59.796C55.988 59.852 56.196 59.88 56.46 59.88C56.668 59.88 56.844 59.86 56.988 59.82C57.14 59.772 57.268 59.672 57.372 59.52C57.484 59.36 57.58 59.116 57.66 58.788C57.748 58.452 57.832 58 57.912 57.432L59.496 57.684C59.464 57.868 59.432 58.064 59.4 58.272C59.368 58.48 59.34 58.672 59.316 58.848C59.292 59.024 59.28 59.168 59.28 59.28C59.28 59.384 59.308 59.484 59.364 59.58C59.428 59.668 59.54 59.74 59.7 59.796C59.868 59.852 60.1 59.88 60.396 59.88C60.756 59.88 61.02 59.804 61.188 59.652C61.364 59.492 61.452 59.252 61.452 58.932C61.452 58.748 61.448 58.552 61.44 58.344C61.432 58.128 61.416 57.888 61.392 57.624C61.376 57.352 61.344 57.044 61.296 56.7L62.844 56.58C62.9 57.268 62.964 57.828 63.036 58.26C63.108 58.692 63.204 59.028 63.324 59.268C63.452 59.5 63.62 59.66 63.828 59.748C64.044 59.836 64.324 59.88 64.668 59.88C64.972 59.88 65.188 59.96 65.316 60.12C65.452 60.272 65.52 60.464 65.52 60.696C65.52 60.944 65.436 61.152 65.268 61.32C65.108 61.48 64.868 61.56 64.548 61.56C64.332 61.56 64.108 61.54 63.876 61.5C63.644 61.468 63.42 61.4 63.204 61.296C62.988 61.184 62.796 61.024 62.628 60.816C62.46 60.608 62.328 60.332 62.232 59.988L62.448 60.06C62.336 60.46 62.184 60.768 61.992 60.984C61.8 61.2 61.564 61.352 61.284 61.44C61.004 61.52 60.668 61.56 60.276 61.56C59.916 61.56 59.596 61.512 59.316 61.416C59.036 61.32 58.812 61.164 58.644 60.948C58.484 60.724 58.4 60.424 58.392 60.048H58.8C58.64 60.496 58.456 60.828 58.248 61.044C58.04 61.26 57.788 61.4 57.492 61.464C57.196 61.528 56.824 61.56 56.376 61.56C56.104 61.56 55.836 61.532 55.572 61.476C55.308 61.412 55.072 61.272 54.864 61.056C54.656 60.832 54.504 60.48 54.408 60L55.056 59.976C54.888 60.448 54.668 60.796 54.396 61.02C54.132 61.244 53.828 61.392 53.484 61.464C53.14 61.528 52.756 61.56 52.332 61.56ZM58.488 54.132C58.288 54.132 58.112 54.056 57.96 53.904C57.816 53.752 57.744 53.572 57.744 53.364C57.744 53.156 57.816 52.98 57.96 52.836C58.112 52.692 58.288 52.62 58.488 52.62C58.696 52.62 58.872 52.692 59.016 52.836C59.16 52.98 59.232 53.156 59.232 53.364C59.232 53.572 59.16 53.752 59.016 53.904C58.872 54.056 58.696 54.132 58.488 54.132ZM57.528 55.716C57.328 55.716 57.152 55.64 57 55.488C56.856 55.336 56.784 55.156 56.784 54.948C56.784 54.74 56.856 54.564 57 54.42C57.152 54.276 57.328 54.204 57.528 54.204C57.736 54.204 57.912 54.276 58.056 54.42C58.2 54.564 58.272 54.74 58.272 54.948C58.272 55.156 58.2 55.336 58.056 55.488C57.912 55.64 57.736 55.716 57.528 55.716ZM59.388 55.716C59.188 55.716 59.012 55.64 58.86 55.488C58.716 55.336 58.644 55.156 58.644 54.948C58.644 54.74 58.716 54.564 58.86 54.42C59.012 54.276 59.188 54.204 59.388 54.204C59.596 54.204 59.772 54.276 59.916 54.42C60.06 54.564 60.132 54.74 60.132 54.948C60.132 55.156 60.06 55.336 59.916 55.488C59.772 55.64 59.596 55.716 59.388 55.716ZM64.5547 61.56L64.6747 59.88C65.0427 59.88 65.3067 59.844 65.4667 59.772C65.6267 59.692 65.7227 59.548 65.7547 59.34C65.7867 59.124 65.7947 58.812 65.7787 58.404L65.5627 52.716H67.2547L67.4947 58.524C67.5107 58.988 67.4907 59.408 67.4347 59.784C67.3867 60.152 67.2627 60.468 67.0627 60.732C66.8707 60.996 66.5707 61.2 66.1627 61.344C65.7627 61.488 65.2267 61.56 64.5547 61.56ZM69.0772 61.5L68.8252 52.716H70.5052L70.7572 61.5H69.0772Z" fill="black"/>
<path d="M37.0472 76.59C36.7339 76.59 36.4272 76.56 36.1272 76.5C35.8339 76.44 35.5572 76.35 35.2972 76.23C35.0439 76.1033 34.8172 75.95 34.6172 75.77L34.9872 74.95C35.3072 75.21 35.6339 75.3967 35.9672 75.51C36.3072 75.6233 36.6572 75.68 37.0172 75.68C37.3172 75.68 37.5772 75.64 37.7972 75.56C38.0172 75.4733 38.1872 75.3433 38.3072 75.17C38.4272 74.99 38.4872 74.77 38.4872 74.51C38.4872 74.1367 38.3606 73.8567 38.1072 73.67C37.8606 73.4767 37.4972 73.38 37.0172 73.38H35.9172V72.49H36.8972C37.1772 72.49 37.4206 72.4433 37.6272 72.35C37.8406 72.2567 38.0039 72.1233 38.1172 71.95C38.2372 71.77 38.2972 71.5533 38.2972 71.3C38.2972 70.96 38.1806 70.7033 37.9472 70.53C37.7206 70.3567 37.4072 70.27 37.0072 70.27C36.6539 70.27 36.3172 70.33 35.9972 70.45C35.6839 70.57 35.3872 70.7633 35.1072 71.03L34.7372 70.22C35.0172 69.94 35.3639 69.7267 35.7772 69.58C36.1972 69.4333 36.6306 69.36 37.0772 69.36C37.5439 69.36 37.9439 69.4333 38.2772 69.58C38.6172 69.72 38.8772 69.9267 39.0572 70.2C39.2372 70.4733 39.3272 70.8033 39.3272 71.19C39.3272 71.6033 39.2139 71.9633 38.9872 72.27C38.7606 72.57 38.4472 72.7767 38.0472 72.89V72.83C38.3472 72.89 38.6072 72.9967 38.8272 73.15C39.0472 73.3033 39.2172 73.5 39.3372 73.74C39.4572 73.98 39.5172 74.26 39.5172 74.58C39.5172 75 39.4139 75.36 39.2072 75.66C39.0072 75.96 38.7239 76.19 38.3572 76.35C37.9906 76.51 37.5539 76.59 37.0472 76.59ZM43.1575 76.22C43.1575 76.0667 43.1708 75.8867 43.1975 75.68C43.2241 75.4733 43.2741 75.24 43.3475 74.98C43.4208 74.7133 43.5308 74.4167 43.6775 74.09L44.9075 74.52C44.8341 74.7267 44.7708 74.9167 44.7175 75.09C44.6641 75.2567 44.6241 75.4133 44.5975 75.56C44.5708 75.7 44.5575 75.84 44.5575 75.98C44.5575 76.28 44.6308 76.54 44.7775 76.76C44.9308 76.9867 45.1375 77.16 45.3975 77.28C45.6641 77.4067 45.9708 77.47 46.3175 77.47C46.8841 77.47 47.3175 77.3767 47.6175 77.19C47.9241 77.01 48.1308 76.7233 48.2375 76.33C48.3508 75.93 48.3941 75.4133 48.3675 74.78L48.1675 69.18H49.5775L49.7275 73.91C49.7408 74.2433 49.7875 74.5 49.8675 74.68C49.9475 74.86 50.0708 74.9833 50.2375 75.05C50.4108 75.1167 50.6341 75.15 50.9075 75.15C51.1608 75.15 51.3408 75.2167 51.4475 75.35C51.5541 75.4767 51.6075 75.6367 51.6075 75.83C51.6075 76.0367 51.5375 76.21 51.3975 76.35C51.2575 76.4833 51.0608 76.55 50.8075 76.55C50.6608 76.55 50.5041 76.53 50.3375 76.49C50.1708 76.45 50.0108 76.3867 49.8575 76.3C49.7041 76.2133 49.5708 76.1 49.4575 75.96C49.3441 75.8133 49.2675 75.6333 49.2275 75.42L49.7675 75.15C49.7675 75.8233 49.6875 76.3933 49.5275 76.86C49.3741 77.3267 49.1475 77.7033 48.8475 77.99C48.5541 78.2767 48.1908 78.4833 47.7575 78.61C47.3308 78.7433 46.8375 78.81 46.2775 78.81C45.8508 78.81 45.4475 78.7567 45.0675 78.65C44.6941 78.5433 44.3641 78.3833 44.0775 78.17C43.7908 77.9567 43.5641 77.6867 43.3975 77.36C43.2375 77.04 43.1575 76.66 43.1575 76.22ZM60.8376 76.55C60.4976 76.55 60.171 76.52 59.8576 76.46C59.5443 76.3933 59.261 76.3067 59.0076 76.2C58.761 76.0933 58.5576 75.9733 58.3976 75.84L59.2976 74.87C59.5376 74.97 59.7843 75.0433 60.0376 75.09C60.291 75.13 60.591 75.15 60.9376 75.15C61.191 75.15 61.371 75.2167 61.4776 75.35C61.591 75.4767 61.6476 75.6367 61.6476 75.83C61.6476 76.0367 61.5776 76.21 61.4376 76.35C61.2976 76.4833 61.0976 76.55 60.8376 76.55ZM55.9876 76.68C55.3676 76.68 54.851 76.6533 54.4376 76.6C54.031 76.5467 53.701 76.47 53.4476 76.37C53.1943 76.27 52.9943 76.15 52.8476 76.01C52.701 75.87 52.581 75.7167 52.4876 75.55L52.7676 75.47C52.601 75.79 52.411 76.0267 52.1976 76.18C51.9843 76.3333 51.761 76.4333 51.5276 76.48C51.2943 76.5267 51.0543 76.55 50.8076 76.55L50.9076 75.15C51.1143 75.15 51.2776 75.1167 51.3976 75.05C51.5176 74.9833 51.6143 74.8733 51.6876 74.72C51.7676 74.5667 51.841 74.3633 51.9076 74.11C51.9743 73.8567 52.0543 73.5467 52.1476 73.18L53.4176 73.49C53.371 73.67 53.331 73.8267 53.2976 73.96C53.271 74.0933 53.2476 74.21 53.2276 74.31C53.2143 74.4033 53.2076 74.48 53.2076 74.54C53.2076 74.6667 53.2376 74.78 53.2976 74.88C53.3576 74.9733 53.4743 75.05 53.6476 75.11C53.821 75.1633 54.0743 75.2067 54.4076 75.24C54.7476 75.2667 55.191 75.28 55.7376 75.28C56.3176 75.28 56.801 75.26 57.1876 75.22C57.5743 75.1733 57.881 75.11 58.1076 75.03C58.341 74.9433 58.5076 74.84 58.6076 74.72C58.7076 74.5933 58.7576 74.45 58.7576 74.29C58.7576 74.1633 58.7276 74.0467 58.6676 73.94C58.6143 73.8267 58.5243 73.7333 58.3976 73.66C58.271 73.5867 58.1076 73.55 57.9076 73.55C57.6676 73.55 57.4243 73.61 57.1776 73.73C56.9376 73.8433 56.701 73.9967 56.4676 74.19C56.2343 74.3767 56.011 74.5867 55.7976 74.82C55.591 75.0533 55.4043 75.2867 55.2376 75.52L53.7376 75.35C53.9976 74.93 54.291 74.5267 54.6176 74.14C54.9443 73.7533 55.2943 73.4133 55.6676 73.12C56.041 72.82 56.4276 72.5833 56.8276 72.41C57.2276 72.2367 57.6343 72.15 58.0476 72.15C58.4943 72.15 58.8743 72.2367 59.1876 72.41C59.501 72.5833 59.741 72.8233 59.9076 73.13C60.0743 73.4367 60.1576 73.79 60.1576 74.19C60.1576 74.6767 60.0176 75.1067 59.7376 75.48C59.4643 75.8533 59.021 76.1467 58.4076 76.36C57.801 76.5733 56.9943 76.68 55.9876 76.68ZM60.8467 76.55L60.9467 75.16C61.2067 75.1667 61.4467 75.1633 61.6667 75.15C61.8867 75.1367 62.0833 75.1167 62.2567 75.09C62.4367 75.0633 62.5933 75.0333 62.7267 75C62.8667 74.9667 62.9833 74.9367 63.0767 74.91C63.3033 74.8367 63.4967 74.75 63.6567 74.65C63.8167 74.5433 63.94 74.4233 64.0267 74.29C64.1133 74.1567 64.1567 74.0133 64.1567 73.86C64.1567 73.74 64.13 73.62 64.0767 73.5C64.03 73.3733 63.96 73.27 63.8667 73.19C63.7733 73.11 63.6633 73.07 63.5367 73.07C63.4167 73.07 63.3067 73.1067 63.2067 73.18C63.1067 73.2533 63.0267 73.3533 62.9667 73.48C62.9067 73.6 62.8767 73.74 62.8767 73.9C62.8767 74.04 62.91 74.1733 62.9767 74.3C63.0433 74.42 63.1367 74.5367 63.2567 74.65C63.3767 74.7633 63.52 74.87 63.6867 74.97L62.3567 75.48C62.21 75.34 62.07 75.19 61.9367 75.03C61.81 74.87 61.7033 74.69 61.6167 74.49C61.5367 74.2833 61.4967 74.0533 61.4967 73.8C61.4967 73.4933 61.5567 73.2133 61.6767 72.96C61.7967 72.7067 61.9567 72.49 62.1567 72.31C62.3567 72.1233 62.58 71.98 62.8267 71.88C63.0733 71.78 63.32 71.73 63.5667 71.73C63.9667 71.73 64.3133 71.8233 64.6067 72.01C64.9 72.1967 65.1267 72.44 65.2867 72.74C65.4533 73.04 65.5367 73.3667 65.5367 73.72C65.5367 74.0467 65.4767 74.34 65.3567 74.6C65.2367 74.8533 65.0733 75.08 64.8667 75.28C64.6667 75.4733 64.4433 75.6433 64.1967 75.79C63.9567 75.9367 63.7133 76.06 63.4667 76.16C63.3467 76.2133 63.1967 76.2633 63.0167 76.31C62.8367 76.3567 62.6333 76.4 62.4067 76.44C62.18 76.4733 61.9367 76.5 61.6767 76.52C61.4167 76.54 61.14 76.55 60.8467 76.55ZM66.1267 76.55C65.74 76.55 65.36 76.53 64.9867 76.49C64.6133 76.45 64.2667 76.39 63.9467 76.31C63.6333 76.23 63.36 76.1333 63.1267 76.02L63.8167 74.94C64.0167 74.9933 64.25 75.0367 64.5167 75.07C64.79 75.0967 65.0733 75.1167 65.3667 75.13C65.6667 75.1433 65.9533 75.15 66.2267 75.15C66.48 75.15 66.66 75.2167 66.7667 75.35C66.88 75.4767 66.9367 75.6367 66.9367 75.83C66.9367 76.0367 66.8667 76.21 66.7267 76.35C66.5867 76.4833 66.3867 76.55 66.1267 76.55ZM63.5767 70.8C63.37 70.8 63.1933 70.73 63.0467 70.59C62.9067 70.45 62.8367 70.2767 62.8367 70.07C62.8367 69.8633 62.9067 69.6867 63.0467 69.54C63.1933 69.3933 63.37 69.32 63.5767 69.32C63.7767 69.32 63.9467 69.3933 64.0867 69.54C64.2333 69.6867 64.3067 69.8633 64.3067 70.07C64.3067 70.2767 64.2333 70.45 64.0867 70.59C63.9467 70.73 63.7767 70.8 63.5767 70.8ZM66.1396 76.55L66.2396 75.15C66.5463 75.15 66.7663 75.12 66.8996 75.06C67.033 74.9933 67.113 74.8733 67.1396 74.7C67.1663 74.52 67.173 74.26 67.1596 73.92L66.9796 69.18H68.3896L68.5896 74.02C68.603 74.4067 68.5863 74.7567 68.5396 75.07C68.4996 75.3767 68.3963 75.64 68.2296 75.86C68.0696 76.08 67.8196 76.25 67.4796 76.37C67.1463 76.49 66.6996 76.55 66.1396 76.55ZM69.9084 76.5L69.6984 69.18H71.0984L71.3084 76.5H69.9084Z" fill="#667085"/>
<defs>
<filter id="filter0_d_8310_900" x="0" y="0" width="104" height="92" filterUnits="userSpaceOnUse" color-interpolation-filters="sRGB">
<feFlood flood-opacity="0" result="BackgroundImageFix"/>
<feColorMatrix in="SourceAlpha" type="matrix" values="0 0 0 0 0 0 0 0 0 0 0 0 0 0 0 0 0 0 127 0" result="hardAlpha"/>
<feOffset dy="4"/>
<feGaussianBlur stdDeviation="2"/>
<feComposite in2="hardAlpha" operator="out"/>
<feColorMatrix type="matrix" values="0 0 0 0 0 0 0 0 0 0 0 0 0 0 0 0 0 0 0.25 0"/>
<feBlend mode="normal" in2="BackgroundImageFix" result="effect1_dropShadow_8310_900"/>
<feBlend mode="normal" in="SourceGraphic" in2="effect1_dropShadow_8310_900" result="shape"/>
</filter>
<clipPath id="clip0_8310_900">
<rect width="30" height="30" fill="white" transform="translate(38 2.5)"/>
</clipPath>
</defs>
</svg>
