<svg width="96" height="87" viewBox="0 0 96 87" fill="none" xmlns="http://www.w3.org/2000/svg">
<g filter="url(#filter0_d_8310_1103)">
<path d="M5.37285 43.1152C4.62083 41.8055 4.24484 41.1502 4.09767 40.4541C3.96744 39.8379 3.96744 39.2015 4.09767 38.5853C4.24484 37.8891 4.62083 37.2338 5.37285 35.9241L23.5901 4.19223C24.3421 2.88237 24.7181 2.22744 25.2442 1.75112C25.7096 1.32968 26.2579 1.01129 26.8535 0.816682C27.5267 0.596679 28.2787 0.59668 29.7827 0.59668H66.2171C67.7214 0.59668 68.4731 0.596679 69.1466 0.816682C69.7419 1.01129 70.2903 1.32968 70.756 1.75112C71.282 2.22744 71.6578 2.88237 72.41 4.19223L90.6271 35.9241C91.3792 37.2338 91.7551 37.8891 91.9021 38.5853C92.0326 39.2015 92.0326 39.8379 91.9021 40.4541C91.7551 41.1502 91.3792 41.8055 90.6271 43.1152L72.41 74.8473C71.6578 76.157 71.282 76.8118 70.756 77.2882C70.2903 77.7098 69.7419 78.028 69.1466 78.2226C68.4731 78.4428 67.7214 78.4428 66.2171 78.4428H29.7827C28.2787 78.4428 27.5267 78.4428 26.8535 78.2226C26.2579 78.028 25.7096 77.7098 25.2442 77.2882C24.7181 76.8118 24.3421 76.157 23.5901 74.8473L5.37285 43.1152Z" fill="white"/>
</g>
<path d="M58.2051 4.09668H38.2051C36.8244 4.09668 35.7051 5.21597 35.7051 6.59668V26.5967C35.7051 27.9774 36.8244 29.0967 38.2051 29.0967H58.2051C59.5858 29.0967 60.7051 27.9774 60.7051 26.5967V6.59668C60.7051 5.21597 59.5858 4.09668 58.2051 4.09668Z" fill="#F2BB41"/>
<path d="M54.4551 17.8466H45.7051V14.6091L46.0676 14.9841C46.1838 15.1013 46.322 15.1943 46.4743 15.2577C46.6267 15.3212 46.7901 15.3539 46.9551 15.3539C47.1201 15.3539 47.2835 15.3212 47.4358 15.2577C47.5881 15.1943 47.7264 15.1013 47.8426 14.9841C47.9597 14.8679 48.0527 14.7296 48.1162 14.5773C48.1796 14.425 48.2123 14.2616 48.2123 14.0966C48.2123 13.9316 48.1796 13.7682 48.1162 13.6159C48.0527 13.4636 47.9597 13.3253 47.8426 13.2091L45.3426 10.7091C45.2264 10.5919 45.0881 10.499 44.9358 10.4355C44.7835 10.372 44.6201 10.3394 44.4551 10.3394C44.2901 10.3394 44.1267 10.372 43.9743 10.4355C43.822 10.499 43.6838 10.5919 43.5676 10.7091L41.0676 13.2091C40.951 13.3257 40.8586 13.464 40.7955 13.6163C40.7324 13.7686 40.7 13.9318 40.7 14.0966C40.7 14.4295 40.8322 14.7487 41.0676 14.9841C41.3029 15.2195 41.6222 15.3517 41.9551 15.3517C42.2879 15.3517 42.6072 15.2195 42.8426 14.9841L43.2051 14.6091V17.8466C43.2051 18.5096 43.4685 19.1455 43.9373 19.6144C44.4061 20.0832 45.042 20.3466 45.7051 20.3466H54.4551C54.7866 20.3466 55.1045 20.2149 55.3389 19.9805C55.5734 19.7461 55.7051 19.4281 55.7051 19.0966C55.7051 18.7651 55.5734 18.4471 55.3389 18.2127C55.1045 17.9783 54.7866 17.8466 54.4551 17.8466Z" fill="#E08838"/>
<path d="M20.301 44.6327C19.853 44.6327 19.449 44.5567 19.089 44.4047C18.737 44.2447 18.457 44.0087 18.249 43.6967C18.049 43.3767 17.949 42.9807 17.949 42.5087C17.949 42.0367 18.109 41.5127 18.429 40.9367C18.749 40.3527 19.285 39.7687 20.037 39.1847L19.917 40.2887L18.837 39.4487L19.965 38.0687C20.573 38.5327 21.093 38.9847 21.525 39.4247C21.965 39.8567 22.301 40.3007 22.533 40.7567C22.765 41.2127 22.881 41.6967 22.881 42.2087C22.881 42.4567 22.841 42.7247 22.761 43.0127C22.681 43.2927 22.545 43.5567 22.353 43.8047C22.161 44.0447 21.897 44.2447 21.561 44.4047C21.233 44.5567 20.813 44.6327 20.301 44.6327ZM20.433 42.9767C20.633 42.9767 20.793 42.9367 20.913 42.8567C21.041 42.7767 21.137 42.6727 21.201 42.5447C21.265 42.4167 21.297 42.2807 21.297 42.1367C21.297 41.9927 21.265 41.8367 21.201 41.6687C21.137 41.5007 21.013 41.3127 20.829 41.1047C20.645 40.8967 20.373 40.6567 20.013 40.3847L20.925 40.2647C20.597 40.4887 20.333 40.7167 20.133 40.9487C19.933 41.1807 19.789 41.4047 19.701 41.6207C19.621 41.8287 19.581 42.0207 19.581 42.1967C19.581 42.4527 19.665 42.6487 19.833 42.7847C20.001 42.9127 20.201 42.9767 20.433 42.9767ZM21.417 37.1687C21.185 37.1687 20.985 37.0887 20.817 36.9287C20.657 36.7607 20.577 36.5647 20.577 36.3407C20.577 36.1087 20.657 35.9087 20.817 35.7407C20.985 35.5727 21.185 35.4887 21.417 35.4887C21.641 35.4887 21.833 35.5727 21.993 35.7407C22.153 35.9087 22.233 36.1087 22.233 36.3407C22.233 36.5647 22.153 36.7607 21.993 36.9287C21.833 37.0887 21.641 37.1687 21.417 37.1687ZM19.341 37.1567C19.109 37.1567 18.909 37.0767 18.741 36.9167C18.581 36.7487 18.501 36.5527 18.501 36.3287C18.501 36.0967 18.581 35.8967 18.741 35.7287C18.909 35.5607 19.109 35.4767 19.341 35.4767C19.565 35.4767 19.757 35.5607 19.917 35.7287C20.077 35.8967 20.157 36.0967 20.157 36.3287C20.157 36.5527 20.077 36.7487 19.917 36.9167C19.757 37.0767 19.565 37.1567 19.341 37.1567ZM23.6934 44.1167L24.2814 42.5927C24.5774 42.7207 24.8614 42.8167 25.1334 42.8807C25.4054 42.9447 25.6774 42.9767 25.9494 42.9767C26.2294 42.9767 26.4614 42.9527 26.6454 42.9047C26.8374 42.8487 26.9814 42.7687 27.0774 42.6647C27.1734 42.5607 27.2214 42.4367 27.2214 42.2927C27.2214 42.1567 27.1774 41.9687 27.0894 41.7287C27.0094 41.4887 26.8614 41.1767 26.6454 40.7927C26.4294 40.4007 26.1134 39.9167 25.6974 39.3407L27.1254 38.3927C27.5094 38.9367 27.8414 39.4687 28.1214 39.9887C28.4014 40.5007 28.6174 40.9807 28.7694 41.4287C28.9294 41.8687 29.0094 42.2567 29.0094 42.5927C29.0094 43.0087 28.8974 43.3727 28.6734 43.6847C28.4574 43.9887 28.1334 44.2287 27.7014 44.4047C27.2774 44.5807 26.7534 44.6687 26.1294 44.6687C25.8974 44.6687 25.6374 44.6487 25.3494 44.6087C25.0614 44.5687 24.7694 44.5087 24.4734 44.4287C24.1854 44.3487 23.9254 44.2447 23.6934 44.1167ZM33.2767 44.6567C32.5327 44.6567 31.9567 44.5807 31.5487 44.4287C31.1487 44.2767 30.8687 44.0407 30.7087 43.7207C30.5487 43.3927 30.4567 42.9807 30.4327 42.4847L30.1807 35.8127H31.8607L32.1127 41.6807C32.1287 42.0487 32.1687 42.3247 32.2327 42.5087C32.2967 42.6927 32.4167 42.8167 32.5927 42.8807C32.7767 42.9447 33.0447 42.9767 33.3967 42.9767C33.7007 42.9767 33.9167 43.0567 34.0447 43.2167C34.1807 43.3687 34.2487 43.5607 34.2487 43.7927C34.2487 44.0407 34.1647 44.2487 33.9967 44.4167C33.8287 44.5767 33.5887 44.6567 33.2767 44.6567ZM33.293 44.6567L33.413 42.9767C33.701 42.9767 33.949 42.9487 34.157 42.8927C34.365 42.8367 34.541 42.7247 34.685 42.5567C34.829 42.3807 34.949 42.1247 35.045 41.7887C35.149 41.4527 35.241 41.0047 35.321 40.4447L36.893 40.7087C36.877 40.8287 36.853 40.9687 36.821 41.1287C36.797 41.2887 36.773 41.4527 36.749 41.6207C36.733 41.7807 36.725 41.9327 36.725 42.0767C36.725 42.2207 36.753 42.3487 36.809 42.4607C36.865 42.5727 36.953 42.6687 37.073 42.7487C37.201 42.8207 37.365 42.8767 37.565 42.9167C37.773 42.9567 38.025 42.9767 38.321 42.9767C38.625 42.9767 38.841 43.0567 38.969 43.2167C39.097 43.3687 39.161 43.5607 39.161 43.7927C39.161 44.0407 39.077 44.2487 38.909 44.4167C38.749 44.5767 38.513 44.6567 38.201 44.6567C37.841 44.6567 37.513 44.6287 37.217 44.5727C36.929 44.5167 36.677 44.4247 36.461 44.2967C36.253 44.1607 36.081 43.9847 35.945 43.7687C35.817 43.5447 35.737 43.2727 35.705 42.9527H36.281C36.137 43.3367 35.953 43.6447 35.729 43.8767C35.513 44.1007 35.269 44.2687 34.997 44.3807C34.725 44.4927 34.441 44.5647 34.145 44.5967C33.857 44.6367 33.573 44.6567 33.293 44.6567ZM36.641 47.4407C36.409 47.4407 36.209 47.3567 36.041 47.1887C35.881 47.0287 35.801 46.8367 35.801 46.6127C35.801 46.3807 35.881 46.1807 36.041 46.0127C36.209 45.8447 36.409 45.7607 36.641 45.7607C36.865 45.7607 37.057 45.8447 37.217 46.0127C37.377 46.1807 37.457 46.3807 37.457 46.6127C37.457 46.8367 37.377 47.0287 37.217 47.1887C37.057 47.3567 36.865 47.4407 36.641 47.4407ZM34.565 47.4407C34.333 47.4407 34.133 47.3567 33.965 47.1887C33.805 47.0287 33.725 46.8367 33.725 46.6127C33.725 46.3807 33.805 46.1807 33.965 46.0127C34.133 45.8447 34.333 45.7607 34.565 45.7607C34.789 45.7607 34.981 45.8447 35.141 46.0127C35.301 46.1807 35.381 46.3807 35.381 46.6127C35.381 46.8367 35.301 47.0287 35.141 47.1887C34.981 47.3567 34.789 47.4407 34.565 47.4407ZM38.2031 44.6567L38.3231 42.9887C38.6351 42.9967 38.9231 42.9927 39.1871 42.9767C39.4511 42.9607 39.6871 42.9367 39.8951 42.9047C40.1111 42.8727 40.2991 42.8367 40.4591 42.7967C40.6271 42.7567 40.7671 42.7207 40.8791 42.6887C41.1511 42.6007 41.3831 42.4967 41.5751 42.3767C41.7671 42.2487 41.9151 42.1047 42.0191 41.9447C42.1231 41.7847 42.1751 41.6127 42.1751 41.4287C42.1751 41.2847 42.1431 41.1407 42.0791 40.9967C42.0231 40.8447 41.9391 40.7207 41.8271 40.6247C41.7151 40.5287 41.5831 40.4807 41.4311 40.4807C41.2871 40.4807 41.1551 40.5247 41.0351 40.6127C40.9151 40.7007 40.8191 40.8207 40.7471 40.9727C40.6751 41.1167 40.6391 41.2847 40.6391 41.4767C40.6391 41.6447 40.6791 41.8047 40.7591 41.9567C40.8391 42.1007 40.9511 42.2407 41.0951 42.3767C41.2391 42.5127 41.4111 42.6407 41.6111 42.7607L40.0151 43.3727C39.8391 43.2047 39.6711 43.0247 39.5111 42.8327C39.3591 42.6407 39.2311 42.4247 39.1271 42.1847C39.0311 41.9367 38.9831 41.6607 38.9831 41.3567C38.9831 40.9887 39.0551 40.6527 39.1991 40.3487C39.3431 40.0447 39.5351 39.7847 39.7751 39.5687C40.0151 39.3447 40.2831 39.1727 40.5791 39.0527C40.8751 38.9327 41.1711 38.8727 41.4671 38.8727C41.9471 38.8727 42.3631 38.9847 42.7151 39.2087C43.0671 39.4327 43.3391 39.7247 43.5311 40.0847C43.7311 40.4447 43.8311 40.8367 43.8311 41.2607C43.8311 41.6527 43.7591 42.0047 43.6151 42.3167C43.4711 42.6207 43.2751 42.8927 43.0271 43.1327C42.7871 43.3647 42.5191 43.5687 42.2231 43.7447C41.9351 43.9207 41.6431 44.0687 41.3471 44.1887C41.2031 44.2527 41.0231 44.3127 40.8071 44.3687C40.5911 44.4247 40.3471 44.4767 40.0751 44.5247C39.8031 44.5647 39.5111 44.5967 39.1991 44.6207C38.8871 44.6447 38.5551 44.6567 38.2031 44.6567ZM44.5391 44.6567C44.0751 44.6567 43.6191 44.6327 43.1711 44.5847C42.7231 44.5367 42.3071 44.4647 41.9231 44.3687C41.5471 44.2727 41.2191 44.1567 40.9391 44.0207L41.7671 42.7247C42.0071 42.7887 42.2871 42.8407 42.6071 42.8807C42.9351 42.9127 43.2751 42.9367 43.6271 42.9527C43.9871 42.9687 44.3311 42.9767 44.6591 42.9767C44.9631 42.9767 45.1791 43.0567 45.3071 43.2167C45.4431 43.3687 45.5111 43.5607 45.5111 43.7927C45.5111 44.0407 45.4271 44.2487 45.2591 44.4167C45.0911 44.5767 44.8511 44.6567 44.5391 44.6567ZM42.5231 37.7807C42.2911 37.7807 42.0911 37.7007 41.9231 37.5407C41.7631 37.3727 41.6831 37.1767 41.6831 36.9527C41.6831 36.7207 41.7631 36.5207 41.9231 36.3527C42.0911 36.1847 42.2911 36.1007 42.5231 36.1007C42.7471 36.1007 42.9391 36.1847 43.0991 36.3527C43.2591 36.5207 43.3391 36.7207 43.3391 36.9527C43.3391 37.1767 43.2591 37.3727 43.0991 37.5407C42.9391 37.7007 42.7471 37.7807 42.5231 37.7807ZM40.4471 37.7687C40.2151 37.7687 40.0151 37.6887 39.8471 37.5287C39.6871 37.3607 39.6071 37.1647 39.6071 36.9407C39.6071 36.7087 39.6871 36.5087 39.8471 36.3407C40.0151 36.1727 40.2151 36.0887 40.4471 36.0887C40.6711 36.0887 40.8631 36.1727 41.0231 36.3407C41.1831 36.5087 41.2631 36.7087 41.2631 36.9407C41.2631 37.1647 41.1831 37.3607 41.0231 37.5287C40.8631 37.6887 40.6711 37.7687 40.4471 37.7687ZM44.5547 44.6567L44.6747 42.9767C45.0427 42.9767 45.3067 42.9407 45.4667 42.8687C45.6267 42.7887 45.7227 42.6447 45.7547 42.4367C45.7867 42.2207 45.7947 41.9087 45.7787 41.5007L45.5627 35.8127H47.2547L47.4947 41.6207C47.5107 42.0847 47.4907 42.5047 47.4347 42.8807C47.3867 43.2487 47.2627 43.5647 47.0627 43.8287C46.8707 44.0927 46.5707 44.2967 46.1627 44.4407C45.7627 44.5847 45.2267 44.6567 44.5547 44.6567ZM49.0772 44.5967L48.8252 35.8127H50.5052L50.7572 44.5967H49.0772ZM55.3908 49.3127C55.2468 48.7527 55.1228 48.2287 55.0188 47.7407C54.9228 47.2607 54.8508 46.8247 54.8028 46.4327C54.7548 46.0487 54.7308 45.7207 54.7308 45.4487C54.7308 44.8887 54.8228 44.4207 55.0068 44.0447C55.1988 43.6687 55.4508 43.3687 55.7628 43.1447C56.0828 42.9127 56.4308 42.7487 56.8068 42.6527C57.1828 42.5487 57.5588 42.4967 57.9348 42.4967C58.3188 42.4967 58.6708 42.5287 58.9908 42.5927C59.0068 42.3447 58.9868 42.1207 58.9308 41.9207C58.8828 41.7207 58.8068 41.5487 58.7028 41.4047C58.6068 41.2607 58.4868 41.1487 58.3428 41.0687C58.2068 40.9887 58.0588 40.9487 57.8988 40.9487C57.7468 40.9487 57.5948 40.9887 57.4428 41.0687C57.2908 41.1407 57.1468 41.2487 57.0108 41.3927C56.8828 41.5367 56.7588 41.7207 56.6388 41.9447L55.3308 41.2247C55.5468 40.7367 55.8028 40.3527 56.0988 40.0727C56.3948 39.7847 56.7028 39.5807 57.0228 39.4607C57.3508 39.3327 57.6708 39.2687 57.9828 39.2687C58.4628 39.2687 58.8748 39.3727 59.2188 39.5807C59.5708 39.7807 59.8548 40.0447 60.0708 40.3727C60.2868 40.6927 60.4468 41.0367 60.5508 41.4047C60.6548 41.7727 60.7068 42.1247 60.7068 42.4607C60.7068 42.7167 60.6788 42.9727 60.6228 43.2287C60.5748 43.4767 60.5148 43.7007 60.4428 43.9007C60.3788 44.1007 60.3148 44.2567 60.2508 44.3687C59.8108 44.2487 59.3948 44.1607 59.0028 44.1047C58.6108 44.0487 58.2548 44.0327 57.9348 44.0567C57.6228 44.0727 57.3508 44.1367 57.1188 44.2487C56.8948 44.3527 56.7188 44.5087 56.5908 44.7167C56.4708 44.9247 56.4108 45.1887 56.4108 45.5087C56.4108 45.8047 56.4348 46.1407 56.4828 46.5167C56.5308 46.9007 56.5988 47.2967 56.6868 47.7047C56.7748 48.1127 56.8748 48.5167 56.9868 48.9167L55.3908 49.3127ZM64.929 44.6567C64.185 44.6567 63.609 44.5807 63.201 44.4287C62.801 44.2767 62.521 44.0407 62.361 43.7207C62.201 43.3927 62.109 42.9807 62.085 42.4847L61.833 35.8127H63.513L63.765 41.6807C63.781 42.0487 63.821 42.3247 63.885 42.5087C63.949 42.6927 64.069 42.8167 64.245 42.8807C64.429 42.9447 64.697 42.9767 65.049 42.9767C65.353 42.9767 65.569 43.0567 65.697 43.2167C65.833 43.3687 65.901 43.5607 65.901 43.7927C65.901 44.0407 65.817 44.2487 65.649 44.4167C65.481 44.5767 65.241 44.6567 64.929 44.6567ZM68.9773 47.2367C68.4093 47.2367 67.8853 47.1127 67.4053 46.8647C66.9253 46.6247 66.5413 46.2447 66.2533 45.7247C65.9653 45.2127 65.8213 44.5527 65.8213 43.7447C65.8213 43.0327 65.9053 42.3807 66.0733 41.7887C66.2413 41.1887 66.4693 40.6727 66.7573 40.2407C67.0533 39.8007 67.3853 39.4607 67.7533 39.2207C68.1213 38.9807 68.5093 38.8607 68.9173 38.8607C69.2213 38.8607 69.5093 38.9487 69.7813 39.1247C70.0533 39.2927 70.2773 39.5407 70.4533 39.8687C70.6293 40.1967 70.7173 40.5967 70.7173 41.0687C70.7173 41.3247 70.6653 41.6127 70.5613 41.9327C70.4573 42.2527 70.2733 42.5567 70.0093 42.8447C69.7533 43.1247 69.3933 43.3487 68.9293 43.5167L69.2173 42.5687C69.4733 42.6647 69.7493 42.7447 70.0453 42.8087C70.3413 42.8647 70.6493 42.9087 70.9693 42.9407C71.2893 42.9647 71.6013 42.9767 71.9053 42.9767C72.2093 42.9767 72.4253 43.0567 72.5533 43.2167C72.6893 43.3687 72.7573 43.5607 72.7573 43.7927C72.7573 44.0407 72.6733 44.2487 72.5053 44.4167C72.3373 44.5767 72.0973 44.6567 71.7853 44.6567C71.5613 44.6567 71.3053 44.6447 71.0173 44.6207C70.7373 44.5967 70.4613 44.5647 70.1893 44.5247C69.9253 44.4847 69.7013 44.4407 69.5173 44.3927L70.8253 44.0927C71.0093 44.3167 71.1333 44.5647 71.1973 44.8367C71.2693 45.1167 71.2773 45.3967 71.2213 45.6767C71.1733 45.9567 71.0573 46.2127 70.8733 46.4447C70.6973 46.6847 70.4493 46.8767 70.1293 47.0207C69.8173 47.1647 69.4333 47.2367 68.9773 47.2367ZM64.9453 44.6567L65.0653 42.9767C65.2013 42.9767 65.3813 42.9767 65.6053 42.9767C65.8373 42.9767 66.0413 42.9767 66.2173 42.9767L66.3493 44.5007C66.1173 44.5487 65.8653 44.5847 65.5933 44.6087C65.3293 44.6407 65.1133 44.6567 64.9453 44.6567ZM68.9293 45.5807C69.0893 45.5807 69.2213 45.5527 69.3253 45.4967C69.4293 45.4487 69.5053 45.3767 69.5533 45.2807C69.6093 45.1927 69.6373 45.0927 69.6373 44.9807C69.6373 44.8847 69.6053 44.7767 69.5413 44.6567C69.4773 44.5367 69.3573 44.4327 69.1813 44.3447C69.0053 44.2487 68.7533 44.2007 68.4253 44.2007C68.3053 44.2007 68.1733 44.2087 68.0293 44.2247C67.8933 44.2407 67.7453 44.2647 67.5853 44.2967C67.4253 44.3207 67.2613 44.3527 67.0933 44.3927L67.1533 42.9527C67.4573 42.9287 67.7293 42.8807 67.9693 42.8087C68.2093 42.7287 68.4093 42.6247 68.5693 42.4967C68.7373 42.3607 68.8653 42.1967 68.9533 42.0047C69.0413 41.8127 69.0853 41.5887 69.0853 41.3327C69.0853 41.2047 69.0733 41.0807 69.0493 40.9607C69.0253 40.8327 68.9893 40.7287 68.9413 40.6487C68.8933 40.5607 68.8333 40.5167 68.7613 40.5167C68.6333 40.5167 68.4973 40.5887 68.3533 40.7327C68.2093 40.8767 68.0733 41.0847 67.9453 41.3567C67.8173 41.6207 67.7093 41.9407 67.6213 42.3167C67.5413 42.6847 67.5013 43.0967 67.5013 43.5527C67.5013 43.9367 67.5413 44.2607 67.6213 44.5247C67.7013 44.7807 67.8093 44.9847 67.9453 45.1367C68.0813 45.2967 68.2333 45.4087 68.4013 45.4727C68.5773 45.5447 68.7533 45.5807 68.9293 45.5807ZM71.8008 44.6567L71.9208 42.9767C72.1048 42.9767 72.2608 42.9327 72.3888 42.8447C72.5248 42.7487 72.6648 42.5927 72.8088 42.3767C72.9528 42.1527 73.1208 41.8527 73.3128 41.4767C73.5528 40.9967 73.8008 40.6207 74.0568 40.3487C74.3208 40.0767 74.5888 39.8847 74.8608 39.7727C75.1408 39.6527 75.4208 39.5927 75.7008 39.5927C76.0528 39.5927 76.3808 39.6687 76.6848 39.8207C76.9888 39.9727 77.2528 40.1807 77.4768 40.4447C77.7008 40.7007 77.8728 40.9967 77.9928 41.3327C78.1208 41.6607 78.1848 42.0007 78.1848 42.3527C78.1848 42.7767 78.0928 43.1607 77.9088 43.5047C77.7328 43.8407 77.4848 44.1087 77.1648 44.3087C76.8528 44.5007 76.4928 44.5967 76.0848 44.5967C75.7408 44.5967 75.3408 44.5367 74.8848 44.4167C74.4288 44.2967 73.9488 44.0447 73.4448 43.6607L74.0568 42.2087C74.4168 42.4567 74.7528 42.6367 75.0648 42.7487C75.3848 42.8607 75.6488 42.9167 75.8568 42.9167C76.0168 42.9167 76.1488 42.9007 76.2528 42.8687C76.3568 42.8367 76.4328 42.7847 76.4808 42.7127C76.5288 42.6407 76.5528 42.5447 76.5528 42.4247C76.5528 42.2567 76.5128 42.0847 76.4328 41.9087C76.3528 41.7327 76.2448 41.5847 76.1088 41.4647C75.9808 41.3367 75.8288 41.2727 75.6528 41.2727C75.4848 41.2727 75.3408 41.3367 75.2208 41.4647C75.1088 41.5847 74.9968 41.7607 74.8848 41.9927C74.7808 42.2167 74.6528 42.4807 74.5008 42.7847C74.3168 43.1527 74.1368 43.4607 73.9608 43.7087C73.7848 43.9487 73.5968 44.1407 73.3968 44.2847C73.2048 44.4207 72.9768 44.5167 72.7128 44.5727C72.4568 44.6287 72.1528 44.6567 71.8008 44.6567ZM30.1622 60.6567C29.5942 60.6567 29.1022 60.5847 28.6862 60.4407C28.2782 60.2887 27.9622 60.0487 27.7382 59.7207C27.5142 59.3847 27.3862 58.9367 27.3542 58.3767L27.1382 53.5407H28.8302L29.0342 57.7887C29.0502 58.1167 29.1022 58.3687 29.1902 58.5447C29.2862 58.7127 29.4222 58.8287 29.5982 58.8927C29.7742 58.9487 30.0022 58.9767 30.2822 58.9767C30.5862 58.9767 30.8022 59.0567 30.9302 59.2167C31.0582 59.3687 31.1222 59.5607 31.1222 59.7927C31.1222 60.0407 31.0382 60.2487 30.8702 60.4167C30.7102 60.5767 30.4742 60.6567 30.1622 60.6567ZM27.9662 59.5407C27.4302 59.6607 26.9142 59.7167 26.4182 59.7087C25.9222 59.6927 25.4782 59.6047 25.0862 59.4447C24.6942 59.2767 24.3822 59.0367 24.1502 58.7247C23.9262 58.4127 23.8142 58.0167 23.8142 57.5367C23.8142 57.1127 23.9062 56.7287 24.0902 56.3847C24.2822 56.0327 24.5462 55.7247 24.8822 55.4607C25.2262 55.1967 25.6262 54.9727 26.0822 54.7887C26.5382 54.6047 27.0342 54.4647 27.5702 54.3687L27.7382 56.0727C27.3942 56.0887 27.0822 56.1367 26.8022 56.2167C26.5302 56.2887 26.2942 56.3847 26.0942 56.5047C25.9022 56.6247 25.7542 56.7607 25.6502 56.9127C25.5462 57.0567 25.4942 57.2127 25.4942 57.3807C25.4942 57.5167 25.5422 57.6287 25.6382 57.7167C25.7342 57.8047 25.8622 57.8767 26.0222 57.9327C26.1822 57.9807 26.3662 58.0087 26.5742 58.0167C26.7822 58.0247 26.9942 58.0127 27.2102 57.9807C27.4342 57.9487 27.6542 57.8967 27.8702 57.8247L27.9662 59.5407ZM28.0022 52.3047C27.7702 52.3047 27.5702 52.2247 27.4022 52.0647C27.2422 51.8967 27.1622 51.7007 27.1622 51.4767C27.1622 51.2447 27.2422 51.0447 27.4022 50.8767C27.5702 50.7087 27.7702 50.6247 28.0022 50.6247C28.2262 50.6247 28.4182 50.7087 28.5782 50.8767C28.7382 51.0447 28.8182 51.2447 28.8182 51.4767C28.8182 51.7007 28.7382 51.8967 28.5782 52.0647C28.4182 52.2247 28.2262 52.3047 28.0022 52.3047ZM25.9262 52.2927C25.6942 52.2927 25.4942 52.2127 25.3262 52.0527C25.1662 51.8847 25.0862 51.6887 25.0862 51.4647C25.0862 51.2327 25.1662 51.0327 25.3262 50.8647C25.4942 50.6967 25.6942 50.6127 25.9262 50.6127C26.1502 50.6127 26.3422 50.6967 26.5022 50.8647C26.6622 51.0327 26.7422 51.2327 26.7422 51.4647C26.7422 51.6887 26.6622 51.8847 26.5022 52.0527C26.3422 52.2127 26.1502 52.2927 25.9262 52.2927ZM30.1582 60.6567L30.2782 58.9767C30.5662 58.9767 30.8142 58.9487 31.0222 58.8927C31.2302 58.8367 31.4062 58.7247 31.5502 58.5567C31.6942 58.3807 31.8142 58.1247 31.9102 57.7887C32.0142 57.4527 32.1062 57.0047 32.1862 56.4447L33.7582 56.7087C33.7422 56.8287 33.7182 56.9687 33.6862 57.1287C33.6622 57.2887 33.6382 57.4527 33.6142 57.6207C33.5982 57.7807 33.5902 57.9327 33.5902 58.0767C33.5902 58.2207 33.6182 58.3487 33.6742 58.4607C33.7302 58.5727 33.8182 58.6687 33.9382 58.7487C34.0662 58.8207 34.2302 58.8767 34.4302 58.9167C34.6382 58.9567 34.8902 58.9767 35.1862 58.9767C35.4902 58.9767 35.7062 59.0567 35.8342 59.2167C35.9622 59.3687 36.0262 59.5607 36.0262 59.7927C36.0262 60.0407 35.9422 60.2487 35.7742 60.4167C35.6142 60.5767 35.3782 60.6567 35.0662 60.6567C34.7062 60.6567 34.3782 60.6287 34.0822 60.5727C33.7942 60.5167 33.5422 60.4247 33.3262 60.2967C33.1182 60.1607 32.9462 59.9847 32.8102 59.7687C32.6822 59.5447 32.6022 59.2727 32.5702 58.9527H33.1462C33.0022 59.3367 32.8182 59.6447 32.5942 59.8767C32.3782 60.1007 32.1342 60.2687 31.8622 60.3807C31.5902 60.4927 31.3062 60.5647 31.0102 60.5967C30.7222 60.6367 30.4382 60.6567 30.1582 60.6567ZM33.5062 63.4407C33.2742 63.4407 33.0742 63.3567 32.9062 63.1887C32.7462 63.0287 32.6662 62.8367 32.6662 62.6127C32.6662 62.3807 32.7462 62.1807 32.9062 62.0127C33.0742 61.8447 33.2742 61.7607 33.5062 61.7607C33.7302 61.7607 33.9222 61.8447 34.0822 62.0127C34.2422 62.1807 34.3222 62.3807 34.3222 62.6127C34.3222 62.8367 34.2422 63.0287 34.0822 63.1887C33.9222 63.3567 33.7302 63.4407 33.5062 63.4407ZM31.4302 63.4407C31.1982 63.4407 30.9982 63.3567 30.8302 63.1887C30.6702 63.0287 30.5902 62.8367 30.5902 62.6127C30.5902 62.3807 30.6702 62.1807 30.8302 62.0127C30.9982 61.8447 31.1982 61.7607 31.4302 61.7607C31.6542 61.7607 31.8462 61.8447 32.0062 62.0127C32.1662 62.1807 32.2462 62.3807 32.2462 62.6127C32.2462 62.8367 32.1662 63.0287 32.0062 63.1887C31.8462 63.3567 31.6542 63.4407 31.4302 63.4407ZM35.0684 60.6567L35.1884 58.9767C35.4524 58.9767 35.6684 58.9567 35.8364 58.9167C36.0044 58.8687 36.1404 58.7687 36.2444 58.6167C36.3564 58.4567 36.4524 58.2207 36.5324 57.9087C36.6204 57.5887 36.7164 57.1567 36.8204 56.6127L38.3804 56.9007C38.3564 57.0207 38.3284 57.1607 38.2964 57.3207C38.2644 57.4807 38.2364 57.6447 38.2124 57.8127C38.1884 57.9727 38.1764 58.1167 38.1764 58.2447C38.1764 58.4687 38.2484 58.6487 38.3924 58.7847C38.5364 58.9127 38.8084 58.9767 39.2084 58.9767C39.4084 58.9767 39.5804 58.9567 39.7244 58.9167C39.8764 58.8687 40.0044 58.7687 40.1084 58.6167C40.2204 58.4567 40.3164 58.2127 40.3964 57.8847C40.4844 57.5487 40.5684 57.0967 40.6484 56.5287L42.2324 56.7807C42.2004 56.9647 42.1684 57.1607 42.1364 57.3687C42.1044 57.5767 42.0764 57.7687 42.0524 57.9447C42.0284 58.1207 42.0164 58.2647 42.0164 58.3767C42.0164 58.4807 42.0444 58.5807 42.1004 58.6767C42.1644 58.7647 42.2764 58.8367 42.4364 58.8927C42.6044 58.9487 42.8404 58.9767 43.1444 58.9767C43.3604 58.9767 43.5444 58.9487 43.6964 58.8927C43.8564 58.8367 43.9764 58.7447 44.0564 58.6167C44.1444 58.4887 44.1884 58.3207 44.1884 58.1127C44.1884 57.8167 44.1204 57.4287 43.9844 56.9487C43.8484 56.4687 43.6884 55.9647 43.5044 55.4367L45.1964 54.9327C45.3244 55.2767 45.4364 55.6447 45.5324 56.0367C45.6364 56.4207 45.7164 56.7967 45.7724 57.1647C45.8364 57.5247 45.8684 57.8407 45.8684 58.1127C45.8684 58.5207 45.8044 58.8847 45.6764 59.2047C45.5484 59.5167 45.3684 59.7807 45.1364 59.9967C44.9044 60.2127 44.6284 60.3767 44.3084 60.4887C43.9884 60.6007 43.6364 60.6567 43.2524 60.6567C42.7884 60.6567 42.4084 60.6127 42.1124 60.5247C41.8164 60.4287 41.5884 60.2727 41.4284 60.0567C41.2764 59.8327 41.1764 59.5287 41.1284 59.1447H41.5364C41.3684 59.6167 41.1804 59.9607 40.9724 60.1767C40.7644 60.3847 40.5164 60.5167 40.2284 60.5727C39.9484 60.6287 39.5964 60.6567 39.1724 60.6567C38.9084 60.6567 38.6364 60.6287 38.3564 60.5727C38.0844 60.5087 37.8404 60.3647 37.6244 60.1407C37.4084 59.9167 37.2484 59.5687 37.1444 59.0967L37.7924 59.0727C37.6244 59.5447 37.4044 59.8927 37.1324 60.1167C36.8684 60.3407 36.5644 60.4887 36.2204 60.5607C35.8764 60.6247 35.4924 60.6567 35.0684 60.6567ZM50.2747 60.6567C49.5307 60.6567 48.9547 60.5807 48.5467 60.4287C48.1467 60.2767 47.8667 60.0407 47.7067 59.7207C47.5467 59.3927 47.4547 58.9807 47.4307 58.4847L47.1787 51.8127H48.8587L49.1107 57.6807C49.1267 58.0487 49.1667 58.3247 49.2307 58.5087C49.2947 58.6927 49.4147 58.8167 49.5907 58.8807C49.7747 58.9447 50.0427 58.9767 50.3947 58.9767C50.6987 58.9767 50.9147 59.0567 51.0427 59.2167C51.1787 59.3687 51.2467 59.5607 51.2467 59.7927C51.2467 60.0407 51.1627 60.2487 50.9947 60.4167C50.8267 60.5767 50.5867 60.6567 50.2747 60.6567ZM50.291 60.6567L50.411 58.9767C50.675 58.9767 50.891 58.9567 51.059 58.9167C51.227 58.8687 51.363 58.7687 51.467 58.6167C51.579 58.4567 51.675 58.2207 51.755 57.9087C51.843 57.5887 51.939 57.1567 52.043 56.6127L53.603 56.9007C53.579 57.0207 53.551 57.1607 53.519 57.3207C53.487 57.4807 53.459 57.6447 53.435 57.8127C53.411 57.9727 53.399 58.1167 53.399 58.2447C53.399 58.4687 53.471 58.6487 53.615 58.7847C53.759 58.9127 54.031 58.9767 54.431 58.9767C54.631 58.9767 54.803 58.9567 54.947 58.9167C55.099 58.8687 55.227 58.7687 55.331 58.6167C55.443 58.4567 55.539 58.2127 55.619 57.8847C55.707 57.5487 55.791 57.0967 55.871 56.5287L57.455 56.7807C57.423 56.9647 57.391 57.1607 57.359 57.3687C57.327 57.5767 57.299 57.7687 57.275 57.9447C57.251 58.1207 57.239 58.2647 57.239 58.3767C57.239 58.4807 57.267 58.5807 57.323 58.6767C57.387 58.7647 57.499 58.8367 57.659 58.8927C57.827 58.9487 58.063 58.9767 58.367 58.9767C58.583 58.9767 58.767 58.9487 58.919 58.8927C59.079 58.8367 59.199 58.7447 59.279 58.6167C59.367 58.4887 59.411 58.3207 59.411 58.1127C59.411 57.8167 59.343 57.4287 59.207 56.9487C59.071 56.4687 58.911 55.9647 58.727 55.4367L60.419 54.9327C60.547 55.2767 60.659 55.6447 60.755 56.0367C60.859 56.4207 60.939 56.7967 60.995 57.1647C61.059 57.5247 61.091 57.8407 61.091 58.1127C61.091 58.5207 61.027 58.8847 60.899 59.2047C60.771 59.5167 60.591 59.7807 60.359 59.9967C60.127 60.2127 59.851 60.3767 59.531 60.4887C59.211 60.6007 58.859 60.6567 58.475 60.6567C58.011 60.6567 57.631 60.6127 57.335 60.5247C57.039 60.4287 56.811 60.2727 56.651 60.0567C56.499 59.8327 56.399 59.5287 56.351 59.1447H56.759C56.591 59.6167 56.403 59.9607 56.195 60.1767C55.987 60.3847 55.739 60.5167 55.451 60.5727C55.171 60.6287 54.819 60.6567 54.395 60.6567C54.131 60.6567 53.859 60.6287 53.579 60.5727C53.307 60.5087 53.063 60.3647 52.847 60.1407C52.631 59.9167 52.471 59.5687 52.367 59.0967L53.015 59.0727C52.847 59.5447 52.627 59.8927 52.355 60.1167C52.091 60.3407 51.787 60.4887 51.443 60.5607C51.099 60.6247 50.715 60.6567 50.291 60.6567ZM66.4214 54.1647C66.4214 53.9007 66.4054 53.6367 66.3734 53.3727C66.3494 53.1087 66.3174 52.8607 66.2774 52.6287C66.2374 52.3887 66.2014 52.1807 66.1694 52.0047L67.8494 51.7647C67.8814 51.9247 67.9134 52.1367 67.9454 52.4007C67.9774 52.6647 68.0054 52.9447 68.0294 53.2407C68.0534 53.5287 68.0654 53.8047 68.0654 54.0687C68.0654 54.4847 68.0294 54.8767 67.9574 55.2447C67.8854 55.6127 67.7774 55.9607 67.6334 56.2887C67.4894 56.6087 67.3094 56.9167 67.0934 57.2127L66.8774 57.5007C66.6694 57.7567 66.4254 58.0087 66.1454 58.2567C65.8734 58.5047 65.5734 58.7447 65.2454 58.9767H66.0254C66.2974 58.9767 66.5054 58.9607 66.6494 58.9287C66.7934 58.8967 66.8894 58.8527 66.9374 58.7967C66.9934 58.7327 67.0214 58.6607 67.0214 58.5807C67.0214 58.4367 66.8974 58.2247 66.6494 57.9447C66.4014 57.6567 66.0574 57.3287 65.6174 56.9607C65.1774 56.5847 64.6614 56.1887 64.0694 55.7727C63.4854 55.3487 62.8534 54.9247 62.1734 54.5007L63.0494 53.2167C63.9934 53.8007 64.7894 54.3367 65.4374 54.8247C66.0934 55.3127 66.6294 55.7567 67.0454 56.1567C67.4694 56.5567 67.7974 56.9207 68.0294 57.2487C68.2614 57.5767 68.4214 57.8727 68.5094 58.1367C68.5974 58.3927 68.6414 58.6247 68.6414 58.8327C68.6414 59.0647 68.6054 59.2887 68.5334 59.5047C68.4614 59.7127 68.3454 59.9007 68.1854 60.0687C68.0254 60.2287 67.8174 60.3567 67.5614 60.4527C67.3054 60.5487 66.9894 60.5967 66.6134 60.5967H63.0854V58.9887C63.9094 58.3967 64.5614 57.8367 65.0414 57.3087C65.5294 56.7807 65.8814 56.2607 66.0974 55.7487C66.3134 55.2367 66.4214 54.7087 66.4214 54.1647ZM62.0654 53.0367L61.8614 52.1967C62.1414 52.1487 62.3494 52.1087 62.4854 52.0767C62.6294 52.0447 62.7814 52.0087 62.9414 51.9687L62.8214 52.2687C62.6134 52.1967 62.4134 52.0567 62.2214 51.8487C62.0374 51.6327 61.9454 51.3887 61.9454 51.1167C61.9454 50.8287 62.0094 50.5967 62.1374 50.4207C62.2654 50.2447 62.4294 50.1167 62.6294 50.0367C62.8294 49.9567 63.0374 49.9167 63.2534 49.9167C63.3734 49.9167 63.4854 49.9247 63.5894 49.9407C63.7014 49.9567 63.8014 49.9807 63.8894 50.0127L63.7934 50.8767C63.7134 50.8607 63.6334 50.8447 63.5534 50.8287C63.4734 50.8127 63.3854 50.8047 63.2894 50.8047C63.1854 50.8047 63.0894 50.8407 63.0014 50.9127C62.9214 50.9767 62.8814 51.0567 62.8814 51.1527C62.8814 51.2887 62.9294 51.4087 63.0254 51.5127C63.1214 51.6167 63.2334 51.7007 63.3614 51.7647C63.4974 51.8207 63.6094 51.8527 63.6974 51.8607L63.0374 51.9327C63.2534 51.8767 63.4574 51.8207 63.6494 51.7647C63.8414 51.7007 64.0214 51.6367 64.1894 51.5727L64.4294 52.3767C64.2294 52.4487 63.9934 52.5287 63.7214 52.6167C63.4574 52.6967 63.1814 52.7727 62.8934 52.8447C62.6134 52.9167 62.3374 52.9807 62.0654 53.0367ZM70.5987 60.5967L70.3467 51.8127H72.0267L72.2787 60.5967H70.5987Z" fill="black"/>
<path d="M31.8724 75.6867C31.619 75.6867 31.369 75.6567 31.1224 75.5967C30.8757 75.5367 30.6424 75.4467 30.4224 75.3267C30.2024 75.2 30.0057 75.05 29.8324 74.8767L30.2024 74.0767C30.4557 74.3233 30.7224 74.5033 31.0024 74.6167C31.289 74.7233 31.5824 74.7767 31.8824 74.7767C32.1957 74.7767 32.469 74.72 32.7024 74.6067C32.9424 74.4933 33.1457 74.3267 33.3124 74.1067C33.479 73.88 33.6024 73.6 33.6824 73.2667C33.769 72.9267 33.8124 72.54 33.8124 72.1067V71.4167H33.8624C33.809 71.7433 33.6924 72.0267 33.5124 72.2667C33.339 72.5067 33.119 72.69 32.8524 72.8167C32.5857 72.9433 32.2857 73.0067 31.9524 73.0067C31.5457 73.0067 31.1824 72.9133 30.8624 72.7267C30.5424 72.5333 30.289 72.27 30.1024 71.9367C29.9157 71.5967 29.8224 71.21 29.8224 70.7767C29.8224 70.3233 29.919 69.9233 30.1124 69.5767C30.3124 69.23 30.5857 68.9567 30.9324 68.7567C31.279 68.5567 31.6724 68.4567 32.1124 68.4567C32.6924 68.4567 33.1824 68.5933 33.5824 68.8667C33.9824 69.1333 34.2857 69.5267 34.4924 70.0467C34.699 70.5667 34.8024 71.1933 34.8024 71.9267C34.8024 72.7267 34.6857 73.4067 34.4524 73.9667C34.219 74.5267 33.8857 74.9533 33.4524 75.2467C33.019 75.54 32.4924 75.6867 31.8724 75.6867ZM32.1824 72.1467C32.4557 72.1467 32.6957 72.0867 32.9024 71.9667C33.109 71.8467 33.269 71.6833 33.3824 71.4767C33.4957 71.2633 33.5524 71.0167 33.5524 70.7367C33.5524 70.45 33.4957 70.2033 33.3824 69.9967C33.269 69.7833 33.109 69.6167 32.9024 69.4967C32.6957 69.3767 32.4557 69.3167 32.1824 69.3167C31.909 69.3167 31.669 69.3767 31.4624 69.4967C31.2624 69.6167 31.1057 69.7833 30.9924 69.9967C30.879 70.21 30.8224 70.4567 30.8224 70.7367C30.8224 71.0167 30.879 71.2633 30.9924 71.4767C31.1057 71.69 31.2657 71.8567 31.4724 71.9767C31.679 72.09 31.9157 72.1467 32.1824 72.1467ZM38.3626 75.3167C38.3626 75.1633 38.3759 74.9833 38.4026 74.7767C38.4293 74.57 38.4793 74.3367 38.5526 74.0767C38.6259 73.81 38.7359 73.5133 38.8826 73.1867L40.1126 73.6167C40.0393 73.8233 39.9759 74.0133 39.9226 74.1867C39.8693 74.3533 39.8293 74.51 39.8026 74.6567C39.7759 74.7967 39.7626 74.9367 39.7626 75.0767C39.7626 75.3767 39.8359 75.6367 39.9826 75.8567C40.1359 76.0833 40.3426 76.2567 40.6026 76.3767C40.8693 76.5033 41.1759 76.5667 41.5226 76.5667C42.0893 76.5667 42.5226 76.4733 42.8226 76.2867C43.1293 76.1067 43.3359 75.82 43.4426 75.4267C43.5559 75.0267 43.5993 74.51 43.5726 73.8767L43.3726 68.2767H44.7826L44.9326 73.0067C44.9459 73.34 44.9926 73.5967 45.0726 73.7767C45.1526 73.9567 45.2759 74.08 45.4426 74.1467C45.6159 74.2133 45.8393 74.2467 46.1126 74.2467C46.3659 74.2467 46.5459 74.3133 46.6526 74.4467C46.7593 74.5733 46.8126 74.7333 46.8126 74.9267C46.8126 75.1333 46.7426 75.3067 46.6026 75.4467C46.4626 75.58 46.2659 75.6467 46.0126 75.6467C45.8659 75.6467 45.7093 75.6267 45.5426 75.5867C45.3759 75.5467 45.2159 75.4833 45.0626 75.3967C44.9093 75.31 44.7759 75.1967 44.6626 75.0567C44.5493 74.91 44.4726 74.73 44.4326 74.5167L44.9726 74.2467C44.9726 74.92 44.8926 75.49 44.7326 75.9567C44.5793 76.4233 44.3526 76.8 44.0526 77.0867C43.7593 77.3733 43.3959 77.58 42.9626 77.7067C42.5359 77.84 42.0426 77.9067 41.4826 77.9067C41.0559 77.9067 40.6526 77.8533 40.2726 77.7467C39.8993 77.64 39.5693 77.48 39.2826 77.2667C38.9959 77.0533 38.7693 76.7833 38.6026 76.4567C38.4426 76.1367 38.3626 75.7567 38.3626 75.3167ZM56.0427 75.6467C55.7027 75.6467 55.3761 75.6167 55.0627 75.5567C54.7494 75.49 54.4661 75.4033 54.2127 75.2967C53.9661 75.19 53.7627 75.07 53.6027 74.9367L54.5027 73.9667C54.7427 74.0667 54.9894 74.14 55.2427 74.1867C55.4961 74.2267 55.7961 74.2467 56.1427 74.2467C56.3961 74.2467 56.5761 74.3133 56.6827 74.4467C56.7961 74.5733 56.8527 74.7333 56.8527 74.9267C56.8527 75.1333 56.7827 75.3067 56.6427 75.4467C56.5027 75.58 56.3027 75.6467 56.0427 75.6467ZM51.1927 75.7767C50.5727 75.7767 50.0561 75.75 49.6427 75.6967C49.2361 75.6433 48.9061 75.5667 48.6527 75.4667C48.3994 75.3667 48.1994 75.2467 48.0527 75.1067C47.9061 74.9667 47.7861 74.8133 47.6927 74.6467L47.9727 74.5667C47.8061 74.8867 47.6161 75.1233 47.4027 75.2767C47.1894 75.43 46.9661 75.53 46.7327 75.5767C46.4994 75.6233 46.2594 75.6467 46.0127 75.6467L46.1127 74.2467C46.3194 74.2467 46.4827 74.2133 46.6027 74.1467C46.7227 74.08 46.8194 73.97 46.8927 73.8167C46.9727 73.6633 47.0461 73.46 47.1127 73.2067C47.1794 72.9533 47.2594 72.6433 47.3527 72.2767L48.6227 72.5867C48.5761 72.7667 48.5361 72.9233 48.5027 73.0567C48.4761 73.19 48.4527 73.3067 48.4327 73.4067C48.4194 73.5 48.4127 73.5767 48.4127 73.6367C48.4127 73.7633 48.4427 73.8767 48.5027 73.9767C48.5627 74.07 48.6794 74.1467 48.8527 74.2067C49.0261 74.26 49.2794 74.3033 49.6127 74.3367C49.9527 74.3633 50.3961 74.3767 50.9427 74.3767C51.5227 74.3767 52.0061 74.3567 52.3927 74.3167C52.7794 74.27 53.0861 74.2067 53.3127 74.1267C53.5461 74.04 53.7127 73.9367 53.8127 73.8167C53.9127 73.69 53.9627 73.5467 53.9627 73.3867C53.9627 73.26 53.9327 73.1433 53.8727 73.0367C53.8194 72.9233 53.7294 72.83 53.6027 72.7567C53.4761 72.6833 53.3127 72.6467 53.1127 72.6467C52.8727 72.6467 52.6294 72.7067 52.3827 72.8267C52.1427 72.94 51.9061 73.0933 51.6727 73.2867C51.4394 73.4733 51.2161 73.6833 51.0027 73.9167C50.7961 74.15 50.6094 74.3833 50.4427 74.6167L48.9427 74.4467C49.2027 74.0267 49.4961 73.6233 49.8227 73.2367C50.1494 72.85 50.4994 72.51 50.8727 72.2167C51.2461 71.9167 51.6327 71.68 52.0327 71.5067C52.4327 71.3333 52.8394 71.2467 53.2527 71.2467C53.6994 71.2467 54.0794 71.3333 54.3927 71.5067C54.7061 71.68 54.9461 71.92 55.1127 72.2267C55.2794 72.5333 55.3627 72.8867 55.3627 73.2867C55.3627 73.7733 55.2227 74.2033 54.9427 74.5767C54.6694 74.95 54.2261 75.2433 53.6127 75.4567C53.0061 75.67 52.1994 75.7767 51.1927 75.7767ZM56.0518 75.6467L56.1518 74.2567C56.4118 74.2633 56.6518 74.26 56.8718 74.2467C57.0918 74.2333 57.2885 74.2133 57.4618 74.1867C57.6418 74.16 57.7985 74.13 57.9318 74.0967C58.0718 74.0633 58.1885 74.0333 58.2818 74.0067C58.5085 73.9333 58.7018 73.8467 58.8618 73.7467C59.0218 73.64 59.1451 73.52 59.2318 73.3867C59.3185 73.2533 59.3618 73.11 59.3618 72.9567C59.3618 72.8367 59.3351 72.7167 59.2818 72.5967C59.2351 72.47 59.1651 72.3667 59.0718 72.2867C58.9785 72.2067 58.8685 72.1667 58.7418 72.1667C58.6218 72.1667 58.5118 72.2033 58.4118 72.2767C58.3118 72.35 58.2318 72.45 58.1718 72.5767C58.1118 72.6967 58.0818 72.8367 58.0818 72.9967C58.0818 73.1367 58.1151 73.27 58.1818 73.3967C58.2485 73.5167 58.3418 73.6333 58.4618 73.7467C58.5818 73.86 58.7251 73.9667 58.8918 74.0667L57.5618 74.5767C57.4151 74.4367 57.2751 74.2867 57.1418 74.1267C57.0151 73.9667 56.9085 73.7867 56.8218 73.5867C56.7418 73.38 56.7018 73.15 56.7018 72.8967C56.7018 72.59 56.7618 72.31 56.8818 72.0567C57.0018 71.8033 57.1618 71.5867 57.3618 71.4067C57.5618 71.22 57.7851 71.0767 58.0318 70.9767C58.2785 70.8767 58.5251 70.8267 58.7718 70.8267C59.1718 70.8267 59.5185 70.92 59.8118 71.1067C60.1051 71.2933 60.3318 71.5367 60.4918 71.8367C60.6585 72.1367 60.7418 72.4633 60.7418 72.8167C60.7418 73.1433 60.6818 73.4367 60.5618 73.6967C60.4418 73.95 60.2785 74.1767 60.0718 74.3767C59.8718 74.57 59.6485 74.74 59.4018 74.8867C59.1618 75.0333 58.9185 75.1567 58.6718 75.2567C58.5518 75.31 58.4018 75.36 58.2218 75.4067C58.0418 75.4533 57.8385 75.4967 57.6118 75.5367C57.3851 75.57 57.1418 75.5967 56.8818 75.6167C56.6218 75.6367 56.3451 75.6467 56.0518 75.6467ZM61.3318 75.6467C60.9451 75.6467 60.5651 75.6267 60.1918 75.5867C59.8185 75.5467 59.4718 75.4867 59.1518 75.4067C58.8385 75.3267 58.5651 75.23 58.3318 75.1167L59.0218 74.0367C59.2218 74.09 59.4551 74.1333 59.7218 74.1667C59.9951 74.1933 60.2785 74.2133 60.5718 74.2267C60.8718 74.24 61.1585 74.2467 61.4318 74.2467C61.6851 74.2467 61.8651 74.3133 61.9718 74.4467C62.0851 74.5733 62.1418 74.7333 62.1418 74.9267C62.1418 75.1333 62.0718 75.3067 61.9318 75.4467C61.7918 75.58 61.5918 75.6467 61.3318 75.6467ZM58.7818 69.8967C58.5751 69.8967 58.3985 69.8267 58.2518 69.6867C58.1118 69.5467 58.0418 69.3733 58.0418 69.1667C58.0418 68.96 58.1118 68.7833 58.2518 68.6367C58.3985 68.49 58.5751 68.4167 58.7818 68.4167C58.9818 68.4167 59.1518 68.49 59.2918 68.6367C59.4385 68.7833 59.5118 68.96 59.5118 69.1667C59.5118 69.3733 59.4385 69.5467 59.2918 69.6867C59.1518 69.8267 58.9818 69.8967 58.7818 69.8967ZM61.3448 75.6467L61.4448 74.2467C61.7514 74.2467 61.9714 74.2167 62.1048 74.1567C62.2381 74.09 62.3181 73.97 62.3448 73.7967C62.3714 73.6167 62.3781 73.3567 62.3648 73.0167L62.1848 68.2767H63.5948L63.7948 73.1167C63.8081 73.5033 63.7914 73.8533 63.7448 74.1667C63.7048 74.4733 63.6014 74.7367 63.4348 74.9567C63.2748 75.1767 63.0248 75.3467 62.6848 75.4667C62.3514 75.5867 61.9048 75.6467 61.3448 75.6467ZM65.1135 75.5967L64.9035 68.2767H66.3035L66.5135 75.5967H65.1135Z" fill="#667085"/>
<defs>
<filter id="filter0_d_8310_1103" x="0" y="0.59668" width="96" height="85.8462" filterUnits="userSpaceOnUse" color-interpolation-filters="sRGB">
<feFlood flood-opacity="0" result="BackgroundImageFix"/>
<feColorMatrix in="SourceAlpha" type="matrix" values="0 0 0 0 0 0 0 0 0 0 0 0 0 0 0 0 0 0 127 0" result="hardAlpha"/>
<feOffset dy="4"/>
<feGaussianBlur stdDeviation="2"/>
<feComposite in2="hardAlpha" operator="out"/>
<feColorMatrix type="matrix" values="0 0 0 0 0 0 0 0 0 0 0 0 0 0 0 0 0 0 0.25 0"/>
<feBlend mode="normal" in2="BackgroundImageFix" result="effect1_dropShadow_8310_1103"/>
<feBlend mode="normal" in="SourceGraphic" in2="effect1_dropShadow_8310_1103" result="shape"/>
</filter>
</defs>
</svg>
