<svg width="96" height="86" viewBox="0 0 96 86" fill="none" xmlns="http://www.w3.org/2000/svg">
<g filter="url(#filter0_d_8310_972)">
<path d="M5.37285 42.5185C4.62083 41.2089 4.24484 40.5536 4.09767 39.8574C3.96744 39.2412 3.96744 38.6048 4.09767 37.9886C4.24484 37.2924 4.62083 36.6371 5.37285 35.3274L23.5901 3.59555C24.3421 2.28569 24.7181 1.63076 25.2442 1.15444C25.7096 0.732998 26.2579 0.414612 26.8535 0.220002C27.5267 -2.00917e-07 28.2787 0 29.7827 0H66.2171C67.7214 0 68.4731 -2.00917e-07 69.1466 0.220002C69.7419 0.414612 70.2903 0.732998 70.756 1.15444C71.282 1.63076 71.6578 2.28569 72.41 3.59555L90.6271 35.3274C91.3792 36.6371 91.7551 37.2924 91.9021 37.9886C92.0326 38.6048 92.0326 39.2412 91.9021 39.8574C91.7551 40.5536 91.3792 41.2089 90.6271 42.5185L72.41 74.2506C71.6578 75.5603 71.282 76.2151 70.756 76.6915C70.2903 77.1131 69.7419 77.4313 69.1466 77.6259C68.4731 77.8462 67.7214 77.8462 66.2171 77.8462H29.7827C28.2787 77.8462 27.5267 77.8462 26.8535 77.6259C26.2579 77.4313 25.7096 77.1131 25.2442 76.6915C24.7181 76.2151 24.3421 75.5603 23.5901 74.2506L5.37285 42.5185Z" fill="white"/>
</g>
<path d="M58.2051 12.5H38.2051C36.8244 12.5 35.7051 13.6193 35.7051 15V35C35.7051 36.3807 36.8244 37.5 38.2051 37.5H58.2051C59.5858 37.5 60.7051 36.3807 60.7051 35V15C60.7051 13.6193 59.5858 12.5 58.2051 12.5Z" fill="#F2BB41"/>
<path d="M54.4551 26.2499H45.7051V23.0124L46.0676 23.3874C46.1838 23.5046 46.322 23.5976 46.4743 23.661C46.6267 23.7245 46.7901 23.7572 46.9551 23.7572C47.1201 23.7572 47.2835 23.7245 47.4358 23.661C47.5881 23.5976 47.7264 23.5046 47.8426 23.3874C47.9597 23.2712 48.0527 23.133 48.1162 22.9806C48.1796 22.8283 48.2123 22.6649 48.2123 22.4999C48.2123 22.3349 48.1796 22.1715 48.1162 22.0192C48.0527 21.8669 47.9597 21.7286 47.8426 21.6124L45.3426 19.1124C45.2264 18.9953 45.0881 18.9023 44.9358 18.8388C44.7835 18.7753 44.6201 18.7427 44.4551 18.7427C44.2901 18.7427 44.1267 18.7753 43.9743 18.8388C43.822 18.9023 43.6838 18.9953 43.5676 19.1124L41.0676 21.6124C40.951 21.729 40.8586 21.8673 40.7955 22.0196C40.7324 22.1719 40.7 22.3351 40.7 22.4999C40.7 22.8328 40.8322 23.152 41.0676 23.3874C41.3029 23.6228 41.6222 23.755 41.9551 23.755C42.2879 23.755 42.6072 23.6228 42.8426 23.3874L43.2051 23.0124V26.2499C43.2051 26.913 43.4685 27.5488 43.9373 28.0177C44.4061 28.4865 45.042 28.7499 45.7051 28.7499H54.4551C54.7866 28.7499 55.1045 28.6182 55.3389 28.3838C55.5734 28.1494 55.7051 27.8314 55.7051 27.4999C55.7051 27.1684 55.5734 26.8505 55.3389 26.616C55.1045 26.3816 54.7866 26.2499 54.4551 26.2499Z" fill="#E08838"/>
<path d="M34.5138 53.252L34.8258 51.572C35.3218 51.572 35.7938 51.556 36.2418 51.524C36.6898 51.492 37.1018 51.452 37.4778 51.404C37.8618 51.356 38.1938 51.304 38.4738 51.248C38.7618 51.192 38.9818 51.14 39.1338 51.092C39.4058 51.004 39.6378 50.896 39.8298 50.768C40.0218 50.64 40.1698 50.496 40.2738 50.336C40.3778 50.176 40.4298 50.016 40.4298 49.856C40.4298 49.744 40.4098 49.632 40.3698 49.52C40.3298 49.408 40.2738 49.304 40.2018 49.208C40.1378 49.112 40.0578 49.036 39.9618 48.98C39.8738 48.916 39.7818 48.884 39.6858 48.884C39.5578 48.884 39.4298 48.932 39.3018 49.028C39.1818 49.124 39.0818 49.252 39.0018 49.412C38.9298 49.564 38.8938 49.736 38.8938 49.928C38.8938 50.064 38.9338 50.208 39.0138 50.36C39.0938 50.512 39.2058 50.66 39.3498 50.804C39.5018 50.94 39.6738 51.06 39.8658 51.164L38.2698 51.776C38.0938 51.608 37.9258 51.436 37.7658 51.26C37.6138 51.076 37.4858 50.872 37.3818 50.648C37.2858 50.424 37.2378 50.172 37.2378 49.892C37.2378 49.524 37.3098 49.184 37.4538 48.872C37.6058 48.552 37.8018 48.272 38.0418 48.032C38.2898 47.792 38.5578 47.608 38.8458 47.48C39.1418 47.344 39.4338 47.276 39.7218 47.276C40.1858 47.276 40.5938 47.4 40.9458 47.648C41.2978 47.888 41.5738 48.2 41.7738 48.584C41.9818 48.968 42.0858 49.372 42.0858 49.796C42.0858 50.172 42.0138 50.508 41.8698 50.804C41.7258 51.1 41.5298 51.36 41.2818 51.584C41.0418 51.8 40.7738 51.992 40.4778 52.16C40.1898 52.328 39.8978 52.472 39.6018 52.592C39.3938 52.68 39.1058 52.764 38.7378 52.844C38.3778 52.924 37.9618 52.992 37.4898 53.048C37.0258 53.112 36.5378 53.16 36.0258 53.192C35.5138 53.232 35.0098 53.252 34.5138 53.252ZM42.7938 53.06C42.3298 53.06 41.8738 53.036 41.4258 52.988C40.9778 52.94 40.5618 52.868 40.1778 52.772C39.8018 52.676 39.4738 52.56 39.1938 52.424L40.0218 51.128C40.2618 51.192 40.5418 51.244 40.8618 51.284C41.1898 51.316 41.5298 51.34 41.8818 51.356C42.2418 51.372 42.5858 51.38 42.9138 51.38C43.2178 51.38 43.4338 51.46 43.5618 51.62C43.6978 51.772 43.7658 51.964 43.7658 52.196C43.7658 52.444 43.6818 52.652 43.5138 52.82C43.3458 52.98 43.1058 53.06 42.7938 53.06ZM34.5138 53.252C33.6498 53.252 32.9178 53.184 32.3178 53.048C31.7258 52.92 31.2418 52.736 30.8658 52.496C30.4978 52.248 30.2298 51.96 30.0618 51.632C29.8938 51.304 29.8098 50.944 29.8098 50.552C29.8098 50.296 29.8298 50.04 29.8698 49.784C29.9178 49.52 29.9738 49.264 30.0378 49.016C30.1098 48.768 30.1738 48.544 30.2298 48.344L31.7298 48.692C31.6978 48.836 31.6618 48.992 31.6218 49.16C31.5818 49.328 31.5498 49.492 31.5258 49.652C31.5018 49.804 31.4898 49.944 31.4898 50.072C31.4898 50.368 31.5938 50.632 31.8018 50.864C32.0178 51.088 32.3698 51.264 32.8578 51.392C33.3458 51.512 34.0018 51.572 34.8258 51.572L35.0658 52.868L34.5138 53.252ZM39.7338 46.16C39.4858 46.16 39.2738 46.076 39.0978 45.908C38.9298 45.74 38.8458 45.532 38.8458 45.284C38.8458 45.036 38.9298 44.824 39.0978 44.648C39.2738 44.472 39.4858 44.384 39.7338 44.384C39.9738 44.384 40.1778 44.472 40.3458 44.648C40.5218 44.824 40.6098 45.036 40.6098 45.284C40.6098 45.532 40.5218 45.74 40.3458 45.908C40.1778 46.076 39.9738 46.16 39.7338 46.16ZM51.9406 53.06C51.5326 53.06 51.1406 53.024 50.7646 52.952C50.3886 52.872 50.0486 52.768 49.7446 52.64C49.4486 52.512 49.2046 52.368 49.0126 52.208L50.0926 51.044C50.3806 51.164 50.6766 51.252 50.9806 51.308C51.2846 51.356 51.6446 51.38 52.0606 51.38C52.3646 51.38 52.5806 51.46 52.7086 51.62C52.8446 51.772 52.9126 51.964 52.9126 52.196C52.9126 52.444 52.8286 52.652 52.6606 52.82C52.4926 52.98 52.2526 53.06 51.9406 53.06ZM42.8086 53.06L42.9286 51.38H45.6166C46.3686 51.38 46.9926 51.352 47.4886 51.296C47.9926 51.24 48.3926 51.16 48.6886 51.056C48.9846 50.944 49.1926 50.816 49.3126 50.672C49.4406 50.528 49.5046 50.372 49.5046 50.204C49.5046 50.052 49.4686 49.908 49.3966 49.772C49.3246 49.628 49.2166 49.512 49.0726 49.424C48.9286 49.336 48.7406 49.292 48.5086 49.292C48.2126 49.292 47.9166 49.364 47.6206 49.508C47.3246 49.644 47.0366 49.832 46.7566 50.072C46.4766 50.304 46.2086 50.564 45.9526 50.852C45.7046 51.14 45.4766 51.432 45.2686 51.728L43.4566 51.476C43.7926 50.956 44.1566 50.464 44.5486 50C44.9486 49.528 45.3686 49.116 45.8086 48.764C46.2566 48.404 46.7166 48.124 47.1886 47.924C47.6686 47.716 48.1566 47.612 48.6526 47.612C49.1806 47.612 49.6326 47.72 50.0086 47.936C50.3846 48.152 50.6726 48.448 50.8726 48.824C51.0806 49.2 51.1846 49.636 51.1846 50.132C51.1846 50.652 51.0366 51.12 50.7406 51.536C50.4526 51.952 49.9606 52.296 49.2646 52.568C48.9686 52.68 48.6486 52.772 48.3046 52.844C47.9606 52.916 47.5566 52.968 47.0926 53C46.6286 53.04 46.0726 53.06 45.4246 53.06H42.8086ZM44.0566 51.836L43.8046 44.216H45.4846L45.7006 49.976L44.0566 51.836ZM51.9012 53.06L52.0212 51.38C52.5812 51.38 53.0852 51.344 53.5332 51.272C53.9812 51.192 54.3732 51.088 54.7092 50.96C55.0532 50.832 55.3372 50.684 55.5612 50.516C55.7932 50.348 55.9652 50.172 56.0772 49.988C56.1972 49.796 56.2572 49.608 56.2572 49.424C56.2572 49.32 56.2292 49.224 56.1732 49.136C56.1252 49.04 56.0412 48.964 55.9212 48.908C55.8012 48.844 55.6372 48.812 55.4292 48.812C55.3252 48.812 55.2012 48.824 55.0572 48.848C54.9132 48.872 54.7692 48.908 54.6252 48.956C54.4812 48.996 54.3452 49.052 54.2172 49.124C54.3852 49.252 54.5692 49.416 54.7692 49.616C54.9692 49.808 55.1692 50.012 55.3692 50.228C55.5692 50.436 55.7412 50.64 55.8852 50.84C56.0532 50.912 56.2372 50.984 56.4372 51.056C56.6452 51.12 56.8692 51.176 57.1092 51.224C57.3492 51.272 57.6012 51.312 57.8652 51.344C58.1292 51.368 58.4012 51.38 58.6812 51.38C58.9852 51.38 59.2012 51.46 59.3292 51.62C59.4652 51.772 59.5332 51.964 59.5332 52.196C59.5332 52.444 59.4492 52.652 59.2812 52.82C59.1132 52.98 58.8732 53.06 58.5612 53.06C57.9212 53.06 57.3532 53.012 56.8572 52.916C56.3612 52.812 55.9172 52.664 55.5252 52.472C55.1412 52.272 54.7812 52.032 54.4452 51.752C54.3492 51.584 54.2132 51.404 54.0372 51.212C53.8692 51.012 53.6892 50.82 53.4972 50.636C53.3132 50.452 53.1452 50.3 52.9932 50.18C52.9532 50.148 52.9052 50.064 52.8492 49.928C52.8012 49.784 52.7572 49.636 52.7172 49.484C52.6772 49.324 52.6572 49.212 52.6572 49.148C52.6572 48.964 52.7412 48.768 52.9092 48.56C53.0852 48.352 53.3172 48.16 53.6052 47.984C53.9012 47.8 54.2252 47.652 54.5772 47.54C54.9372 47.42 55.3012 47.36 55.6692 47.36C56.1652 47.36 56.5772 47.436 56.9052 47.588C57.2412 47.732 57.4932 47.936 57.6612 48.2C57.8292 48.456 57.9132 48.756 57.9132 49.1C57.9132 49.484 57.8292 49.868 57.6612 50.252C57.4932 50.628 57.2452 50.984 56.9172 51.32C56.5972 51.656 56.1932 51.956 55.7052 52.22C55.2252 52.476 54.6652 52.68 54.0252 52.832C53.3932 52.984 52.6852 53.06 51.9012 53.06ZM58.5703 53.06L58.6903 51.38C58.9943 51.38 59.2343 51.352 59.4103 51.296C59.5943 51.24 59.7383 51.128 59.8423 50.96C59.9543 50.784 60.0463 50.528 60.1183 50.192C60.1983 49.856 60.2783 49.408 60.3583 48.848L61.9303 49.112C61.9143 49.232 61.8903 49.372 61.8583 49.532C61.8343 49.692 61.8103 49.856 61.7863 50.024C61.7703 50.184 61.7623 50.336 61.7623 50.48C61.7623 50.672 61.8023 50.836 61.8823 50.972C61.9703 51.1 62.1223 51.2 62.3383 51.272C62.5623 51.344 62.8823 51.38 63.2983 51.38C63.6023 51.38 63.8183 51.46 63.9463 51.62C64.0743 51.772 64.1383 51.964 64.1383 52.196C64.1383 52.444 64.0543 52.652 63.8863 52.82C63.7263 52.98 63.4903 53.06 63.1783 53.06C62.6263 53.06 62.1783 53.008 61.8343 52.904C61.4903 52.8 61.2343 52.624 61.0663 52.376C60.8983 52.128 60.7903 51.788 60.7423 51.356H61.3183C61.1743 51.74 61.0063 52.048 60.8143 52.28C60.6223 52.504 60.4063 52.672 60.1663 52.784C59.9263 52.896 59.6703 52.968 59.3983 53C59.1343 53.04 58.8583 53.06 58.5703 53.06ZM61.0183 47.624C60.7703 47.624 60.5583 47.54 60.3823 47.372C60.2143 47.204 60.1303 46.996 60.1303 46.748C60.1303 46.5 60.2143 46.288 60.3823 46.112C60.5583 45.936 60.7703 45.848 61.0183 45.848C61.2583 45.848 61.4623 45.936 61.6303 46.112C61.8063 46.288 61.8943 46.5 61.8943 46.748C61.8943 46.996 61.8063 47.204 61.6303 47.372C61.4623 47.54 61.2583 47.624 61.0183 47.624ZM63.1758 53.06L63.2958 51.38C63.6478 51.38 63.9238 51.356 64.1238 51.308C64.3318 51.26 64.4798 51.172 64.5678 51.044C64.6558 50.908 64.6998 50.716 64.6998 50.468C64.6998 50.244 64.6678 49.976 64.6038 49.664C64.5478 49.352 64.4718 49.028 64.3758 48.692C64.2798 48.356 64.1838 48.048 64.0878 47.768L65.7438 47.312C65.8398 47.584 65.9358 47.9 66.0318 48.26C66.1278 48.62 66.2078 48.992 66.2718 49.376C66.3438 49.752 66.3798 50.116 66.3798 50.468C66.3798 50.908 66.3238 51.28 66.2118 51.584C66.0998 51.88 65.9438 52.128 65.7438 52.328C65.5518 52.52 65.3198 52.672 65.0478 52.784C64.7838 52.888 64.4918 52.96 64.1718 53C63.8518 53.04 63.5198 53.06 63.1758 53.06ZM64.9038 46.316C64.6558 46.316 64.4438 46.232 64.2678 46.064C64.0998 45.896 64.0158 45.688 64.0158 45.44C64.0158 45.192 64.0998 44.98 64.2678 44.804C64.4438 44.628 64.6558 44.54 64.9038 44.54C65.1438 44.54 65.3478 44.628 65.5158 44.804C65.6918 44.98 65.7798 45.192 65.7798 45.44C65.7798 45.688 65.6918 45.896 65.5158 46.064C65.3478 46.232 65.1438 46.316 64.9038 46.316Z" fill="black"/>
<path d="M33.0424 68V66.58H29.8324V65.8L33.1024 60.95H34.0724V65.71H35.0524V66.58H34.0724V68H33.0424ZM33.0524 65.71V62.23H33.2124L30.7224 65.94L30.6724 65.71H33.0524ZM38.3626 67.72C38.3626 67.5667 38.3759 67.3867 38.4026 67.18C38.4293 66.9733 38.4793 66.74 38.5526 66.48C38.6259 66.2133 38.7359 65.9167 38.8826 65.59L40.1126 66.02C40.0393 66.2267 39.9759 66.4167 39.9226 66.59C39.8693 66.7567 39.8293 66.9133 39.8026 67.06C39.7759 67.2 39.7626 67.34 39.7626 67.48C39.7626 67.78 39.8359 68.04 39.9826 68.26C40.1359 68.4867 40.3426 68.66 40.6026 68.78C40.8693 68.9067 41.1759 68.97 41.5226 68.97C42.0893 68.97 42.5226 68.8767 42.8226 68.69C43.1293 68.51 43.3359 68.2233 43.4426 67.83C43.5559 67.43 43.5993 66.9133 43.5726 66.28L43.3726 60.68H44.7826L44.9326 65.41C44.9459 65.7433 44.9926 66 45.0726 66.18C45.1526 66.36 45.2759 66.4833 45.4426 66.55C45.6159 66.6167 45.8393 66.65 46.1126 66.65C46.3659 66.65 46.5459 66.7167 46.6526 66.85C46.7593 66.9767 46.8126 67.1367 46.8126 67.33C46.8126 67.5367 46.7426 67.71 46.6026 67.85C46.4626 67.9833 46.2659 68.05 46.0126 68.05C45.8659 68.05 45.7093 68.03 45.5426 67.99C45.3759 67.95 45.2159 67.8867 45.0626 67.8C44.9093 67.7133 44.7759 67.6 44.6626 67.46C44.5493 67.3133 44.4726 67.1333 44.4326 66.92L44.9726 66.65C44.9726 67.3233 44.8926 67.8933 44.7326 68.36C44.5793 68.8267 44.3526 69.2033 44.0526 69.49C43.7593 69.7767 43.3959 69.9833 42.9626 70.11C42.5359 70.2433 42.0426 70.31 41.4826 70.31C41.0559 70.31 40.6526 70.2567 40.2726 70.15C39.8993 70.0433 39.5693 69.8833 39.2826 69.67C38.9959 69.4567 38.7693 69.1867 38.6026 68.86C38.4426 68.54 38.3626 68.16 38.3626 67.72ZM56.0427 68.05C55.7027 68.05 55.3761 68.02 55.0627 67.96C54.7494 67.8933 54.4661 67.8067 54.2127 67.7C53.9661 67.5933 53.7627 67.4733 53.6027 67.34L54.5027 66.37C54.7427 66.47 54.9894 66.5433 55.2427 66.59C55.4961 66.63 55.7961 66.65 56.1427 66.65C56.3961 66.65 56.5761 66.7167 56.6827 66.85C56.7961 66.9767 56.8527 67.1367 56.8527 67.33C56.8527 67.5367 56.7827 67.71 56.6427 67.85C56.5027 67.9833 56.3027 68.05 56.0427 68.05ZM51.1927 68.18C50.5727 68.18 50.0561 68.1533 49.6427 68.1C49.2361 68.0467 48.9061 67.97 48.6527 67.87C48.3994 67.77 48.1994 67.65 48.0527 67.51C47.9061 67.37 47.7861 67.2167 47.6927 67.05L47.9727 66.97C47.8061 67.29 47.6161 67.5267 47.4027 67.68C47.1894 67.8333 46.9661 67.9333 46.7327 67.98C46.4994 68.0267 46.2594 68.05 46.0127 68.05L46.1127 66.65C46.3194 66.65 46.4827 66.6167 46.6027 66.55C46.7227 66.4833 46.8194 66.3733 46.8927 66.22C46.9727 66.0667 47.0461 65.8633 47.1127 65.61C47.1794 65.3567 47.2594 65.0467 47.3527 64.68L48.6227 64.99C48.5761 65.17 48.5361 65.3267 48.5027 65.46C48.4761 65.5933 48.4527 65.71 48.4327 65.81C48.4194 65.9033 48.4127 65.98 48.4127 66.04C48.4127 66.1667 48.4427 66.28 48.5027 66.38C48.5627 66.4733 48.6794 66.55 48.8527 66.61C49.0261 66.6633 49.2794 66.7067 49.6127 66.74C49.9527 66.7667 50.3961 66.78 50.9427 66.78C51.5227 66.78 52.0061 66.76 52.3927 66.72C52.7794 66.6733 53.0861 66.61 53.3127 66.53C53.5461 66.4433 53.7127 66.34 53.8127 66.22C53.9127 66.0933 53.9627 65.95 53.9627 65.79C53.9627 65.6633 53.9327 65.5467 53.8727 65.44C53.8194 65.3267 53.7294 65.2333 53.6027 65.16C53.4761 65.0867 53.3127 65.05 53.1127 65.05C52.8727 65.05 52.6294 65.11 52.3827 65.23C52.1427 65.3433 51.9061 65.4967 51.6727 65.69C51.4394 65.8767 51.2161 66.0867 51.0027 66.32C50.7961 66.5533 50.6094 66.7867 50.4427 67.02L48.9427 66.85C49.2027 66.43 49.4961 66.0267 49.8227 65.64C50.1494 65.2533 50.4994 64.9133 50.8727 64.62C51.2461 64.32 51.6327 64.0833 52.0327 63.91C52.4327 63.7367 52.8394 63.65 53.2527 63.65C53.6994 63.65 54.0794 63.7367 54.3927 63.91C54.7061 64.0833 54.9461 64.3233 55.1127 64.63C55.2794 64.9367 55.3627 65.29 55.3627 65.69C55.3627 66.1767 55.2227 66.6067 54.9427 66.98C54.6694 67.3533 54.2261 67.6467 53.6127 67.86C53.0061 68.0733 52.1994 68.18 51.1927 68.18ZM56.0518 68.05L56.1518 66.66C56.4118 66.6667 56.6518 66.6633 56.8718 66.65C57.0918 66.6367 57.2885 66.6167 57.4618 66.59C57.6418 66.5633 57.7985 66.5333 57.9318 66.5C58.0718 66.4667 58.1885 66.4367 58.2818 66.41C58.5085 66.3367 58.7018 66.25 58.8618 66.15C59.0218 66.0433 59.1451 65.9233 59.2318 65.79C59.3185 65.6567 59.3618 65.5133 59.3618 65.36C59.3618 65.24 59.3351 65.12 59.2818 65C59.2351 64.8733 59.1651 64.77 59.0718 64.69C58.9785 64.61 58.8685 64.57 58.7418 64.57C58.6218 64.57 58.5118 64.6067 58.4118 64.68C58.3118 64.7533 58.2318 64.8533 58.1718 64.98C58.1118 65.1 58.0818 65.24 58.0818 65.4C58.0818 65.54 58.1151 65.6733 58.1818 65.8C58.2485 65.92 58.3418 66.0367 58.4618 66.15C58.5818 66.2633 58.7251 66.37 58.8918 66.47L57.5618 66.98C57.4151 66.84 57.2751 66.69 57.1418 66.53C57.0151 66.37 56.9085 66.19 56.8218 65.99C56.7418 65.7833 56.7018 65.5533 56.7018 65.3C56.7018 64.9933 56.7618 64.7133 56.8818 64.46C57.0018 64.2067 57.1618 63.99 57.3618 63.81C57.5618 63.6233 57.7851 63.48 58.0318 63.38C58.2785 63.28 58.5251 63.23 58.7718 63.23C59.1718 63.23 59.5185 63.3233 59.8118 63.51C60.1051 63.6967 60.3318 63.94 60.4918 64.24C60.6585 64.54 60.7418 64.8667 60.7418 65.22C60.7418 65.5467 60.6818 65.84 60.5618 66.1C60.4418 66.3533 60.2785 66.58 60.0718 66.78C59.8718 66.9733 59.6485 67.1433 59.4018 67.29C59.1618 67.4367 58.9185 67.56 58.6718 67.66C58.5518 67.7133 58.4018 67.7633 58.2218 67.81C58.0418 67.8567 57.8385 67.9 57.6118 67.94C57.3851 67.9733 57.1418 68 56.8818 68.02C56.6218 68.04 56.3451 68.05 56.0518 68.05ZM61.3318 68.05C60.9451 68.05 60.5651 68.03 60.1918 67.99C59.8185 67.95 59.4718 67.89 59.1518 67.81C58.8385 67.73 58.5651 67.6333 58.3318 67.52L59.0218 66.44C59.2218 66.4933 59.4551 66.5367 59.7218 66.57C59.9951 66.5967 60.2785 66.6167 60.5718 66.63C60.8718 66.6433 61.1585 66.65 61.4318 66.65C61.6851 66.65 61.8651 66.7167 61.9718 66.85C62.0851 66.9767 62.1418 67.1367 62.1418 67.33C62.1418 67.5367 62.0718 67.71 61.9318 67.85C61.7918 67.9833 61.5918 68.05 61.3318 68.05ZM58.7818 62.3C58.5751 62.3 58.3985 62.23 58.2518 62.09C58.1118 61.95 58.0418 61.7767 58.0418 61.57C58.0418 61.3633 58.1118 61.1867 58.2518 61.04C58.3985 60.8933 58.5751 60.82 58.7818 60.82C58.9818 60.82 59.1518 60.8933 59.2918 61.04C59.4385 61.1867 59.5118 61.3633 59.5118 61.57C59.5118 61.7767 59.4385 61.95 59.2918 62.09C59.1518 62.23 58.9818 62.3 58.7818 62.3ZM61.3448 68.05L61.4448 66.65C61.7514 66.65 61.9714 66.62 62.1048 66.56C62.2381 66.4933 62.3181 66.3733 62.3448 66.2C62.3714 66.02 62.3781 65.76 62.3648 65.42L62.1848 60.68H63.5948L63.7948 65.52C63.8081 65.9067 63.7914 66.2567 63.7448 66.57C63.7048 66.8767 63.6014 67.14 63.4348 67.36C63.2748 67.58 63.0248 67.75 62.6848 67.87C62.3514 67.99 61.9048 68.05 61.3448 68.05ZM65.1135 68L64.9035 60.68H66.3035L66.5135 68H65.1135Z" fill="#667085"/>
<defs>
<filter id="filter0_d_8310_972" x="0" y="0" width="96" height="85.8462" filterUnits="userSpaceOnUse" color-interpolation-filters="sRGB">
<feFlood flood-opacity="0" result="BackgroundImageFix"/>
<feColorMatrix in="SourceAlpha" type="matrix" values="0 0 0 0 0 0 0 0 0 0 0 0 0 0 0 0 0 0 127 0" result="hardAlpha"/>
<feOffset dy="4"/>
<feGaussianBlur stdDeviation="2"/>
<feComposite in2="hardAlpha" operator="out"/>
<feColorMatrix type="matrix" values="0 0 0 0 0 0 0 0 0 0 0 0 0 0 0 0 0 0 0.25 0"/>
<feBlend mode="normal" in2="BackgroundImageFix" result="effect1_dropShadow_8310_972"/>
<feBlend mode="normal" in="SourceGraphic" in2="effect1_dropShadow_8310_972" result="shape"/>
</filter>
</defs>
</svg>
