<svg width="96" height="86" viewBox="0 0 96 86" fill="none" xmlns="http://www.w3.org/2000/svg">
<g filter="url(#filter0_d_8310_938)">
<path d="M5.37285 42.5185C4.62083 41.2089 4.24484 40.5536 4.09767 39.8574C3.96744 39.2412 3.96744 38.6048 4.09767 37.9886C4.24484 37.2924 4.62083 36.6371 5.37285 35.3274L23.5901 3.59555C24.3421 2.28569 24.7181 1.63076 25.2442 1.15444C25.7096 0.732998 26.2579 0.414612 26.8535 0.220002C27.5267 -2.00917e-07 28.2787 0 29.7827 0H66.2171C67.7214 0 68.4731 -2.00917e-07 69.1466 0.220002C69.7419 0.414612 70.2903 0.732998 70.756 1.15444C71.282 1.63076 71.6578 2.28569 72.41 3.59555L90.6271 35.3274C91.3792 36.6371 91.7551 37.2924 91.9021 37.9886C92.0326 38.6048 92.0326 39.2412 91.9021 39.8574C91.7551 40.5536 91.3792 41.2089 90.6271 42.5185L72.41 74.2506C71.6578 75.5603 71.282 76.2151 70.756 76.6915C70.2903 77.1131 69.7419 77.4313 69.1466 77.6259C68.4731 77.8462 67.7214 77.8462 66.2171 77.8462H29.7827C28.2787 77.8462 27.5267 77.8462 26.8535 77.6259C26.2579 77.4313 25.7096 77.1131 25.2442 76.6915C24.7181 76.2151 24.3421 75.5603 23.5901 74.2506L5.37285 42.5185Z" fill="white"/>
</g>
<path d="M46.5432 37.1574L36.0476 26.6618C35.1147 25.7288 35.1147 24.2711 36.0476 23.3382L46.5432 12.8425C47.4762 11.9096 48.9339 11.9096 49.8669 12.8425L60.3625 23.3382C61.2954 24.2711 61.2954 25.7288 60.3625 26.6618L49.8669 37.1574C48.9339 38.0903 47.4179 38.0903 46.5432 37.1574Z" fill="#F2BB41"/>
<path d="M46.7765 30.1021C46.7765 29.9272 46.8348 29.7523 46.8931 29.5773C46.9514 29.4024 47.068 29.2858 47.1847 29.1692C47.3013 29.0526 47.4762 28.9359 47.6511 28.8776C47.8261 28.8193 48.001 28.761 48.2342 28.761C48.4675 28.761 48.6424 28.8193 48.8173 28.8776C48.9922 28.9359 49.1672 29.0526 49.2838 29.1692C49.4004 29.2858 49.517 29.4024 49.5753 29.5773C49.6336 29.7523 49.6919 29.9272 49.6919 30.1021C49.6919 30.277 49.6336 30.452 49.5753 30.6269C49.517 30.8018 49.4004 30.9184 49.2838 31.0351C49.1672 31.1517 48.9922 31.2683 48.8173 31.3266C48.6424 31.3849 48.4675 31.4432 48.2342 31.4432C48.001 31.4432 47.8261 31.3849 47.6511 31.3266C47.4762 31.2683 47.3596 31.1517 47.1847 31.0351C47.068 30.9184 46.9514 30.8018 46.8931 30.6269C46.8348 30.452 46.7765 30.3353 46.7765 30.1021ZM49.2255 27.4199H47.1263L46.8348 18.6152H49.517L49.2255 27.4199Z" fill="#E08838"/>
<path d="M25.0318 53V52.076L27.8518 49.052C28.1158 48.764 28.3278 48.5 28.4878 48.26C28.6478 48.012 28.7638 47.776 28.8358 47.552C28.9158 47.32 28.9558 47.088 28.9558 46.856C28.9558 46.408 28.8198 46.068 28.5478 45.836C28.2758 45.604 27.8758 45.488 27.3478 45.488C26.9398 45.488 26.5518 45.564 26.1838 45.716C25.8238 45.868 25.4798 46.1 25.1518 46.412L24.7078 45.464C25.0278 45.152 25.4358 44.904 25.9318 44.72C26.4278 44.528 26.9438 44.432 27.4798 44.432C28.0638 44.432 28.5558 44.524 28.9558 44.708C29.3638 44.884 29.6718 45.144 29.8798 45.488C30.0878 45.832 30.1918 46.252 30.1918 46.748C30.1918 47.004 30.1598 47.256 30.0958 47.504C30.0398 47.744 29.9478 47.984 29.8198 48.224C29.6998 48.464 29.5438 48.712 29.3518 48.968C29.1678 49.224 28.9438 49.488 28.6798 49.76L26.2678 52.304V51.956H30.5278V53H25.0318ZM41.0314 53.06C40.4634 53.06 39.9714 52.988 39.5554 52.844C39.1474 52.692 38.8314 52.452 38.6074 52.124C38.3834 51.788 38.2554 51.34 38.2234 50.78L38.0074 45.944H39.6994L39.9034 50.192C39.9194 50.52 39.9714 50.772 40.0594 50.948C40.1554 51.116 40.2914 51.232 40.4674 51.296C40.6434 51.352 40.8714 51.38 41.1514 51.38C41.4554 51.38 41.6714 51.46 41.7994 51.62C41.9274 51.772 41.9914 51.964 41.9914 52.196C41.9914 52.444 41.9074 52.652 41.7394 52.82C41.5794 52.98 41.3434 53.06 41.0314 53.06ZM38.8354 51.944C38.2994 52.064 37.7834 52.12 37.2874 52.112C36.7914 52.096 36.3474 52.008 35.9554 51.848C35.5634 51.68 35.2514 51.44 35.0194 51.128C34.7954 50.816 34.6834 50.42 34.6834 49.94C34.6834 49.516 34.7754 49.132 34.9594 48.788C35.1514 48.436 35.4154 48.128 35.7514 47.864C36.0954 47.6 36.4954 47.376 36.9514 47.192C37.4074 47.008 37.9034 46.868 38.4394 46.772L38.6074 48.476C38.2634 48.492 37.9514 48.54 37.6714 48.62C37.3994 48.692 37.1634 48.788 36.9634 48.908C36.7714 49.028 36.6234 49.164 36.5194 49.316C36.4154 49.46 36.3634 49.616 36.3634 49.784C36.3634 49.92 36.4114 50.032 36.5074 50.12C36.6034 50.208 36.7314 50.28 36.8914 50.336C37.0514 50.384 37.2354 50.412 37.4434 50.42C37.6514 50.428 37.8634 50.416 38.0794 50.384C38.3034 50.352 38.5234 50.3 38.7394 50.228L38.8354 51.944ZM38.8714 44.708C38.6394 44.708 38.4394 44.628 38.2714 44.468C38.1114 44.3 38.0314 44.104 38.0314 43.88C38.0314 43.648 38.1114 43.448 38.2714 43.28C38.4394 43.112 38.6394 43.028 38.8714 43.028C39.0954 43.028 39.2874 43.112 39.4474 43.28C39.6074 43.448 39.6874 43.648 39.6874 43.88C39.6874 44.104 39.6074 44.3 39.4474 44.468C39.2874 44.628 39.0954 44.708 38.8714 44.708ZM36.7954 44.696C36.5634 44.696 36.3634 44.616 36.1954 44.456C36.0354 44.288 35.9554 44.092 35.9554 43.868C35.9554 43.636 36.0354 43.436 36.1954 43.268C36.3634 43.1 36.5634 43.016 36.7954 43.016C37.0194 43.016 37.2114 43.1 37.3714 43.268C37.5314 43.436 37.6114 43.636 37.6114 43.868C37.6114 44.092 37.5314 44.288 37.3714 44.456C37.2114 44.616 37.0194 44.696 36.7954 44.696ZM41.0274 53.06L41.1474 51.38C41.6274 51.38 41.9954 51.356 42.2514 51.308C42.5074 51.26 42.6834 51.172 42.7794 51.044C42.8834 50.908 42.9354 50.716 42.9354 50.468C42.9354 50.244 42.9034 49.976 42.8394 49.664C42.7834 49.352 42.7074 49.028 42.6114 48.692C42.5234 48.356 42.4274 48.048 42.3234 47.768L43.9794 47.312C44.0834 47.584 44.1834 47.9 44.2794 48.26C44.3754 48.62 44.4554 48.992 44.5194 49.376C44.5834 49.752 44.6154 50.116 44.6154 50.468C44.6154 51.012 44.5274 51.456 44.3514 51.8C44.1754 52.136 43.9274 52.396 43.6074 52.58C43.2954 52.764 42.9194 52.892 42.4794 52.964C42.0394 53.028 41.5554 53.06 41.0274 53.06ZM43.9914 55.844C43.7594 55.844 43.5594 55.76 43.3914 55.592C43.2314 55.432 43.1514 55.24 43.1514 55.016C43.1514 54.784 43.2314 54.584 43.3914 54.416C43.5594 54.248 43.7594 54.164 43.9914 54.164C44.2154 54.164 44.4074 54.248 44.5674 54.416C44.7274 54.584 44.8074 54.784 44.8074 55.016C44.8074 55.24 44.7274 55.432 44.5674 55.592C44.4074 55.76 44.2154 55.844 43.9914 55.844ZM41.9154 55.844C41.6834 55.844 41.4834 55.76 41.3154 55.592C41.1554 55.432 41.0754 55.24 41.0754 55.016C41.0754 54.784 41.1554 54.584 41.3154 54.416C41.4834 54.248 41.6834 54.164 41.9154 54.164C42.1394 54.164 42.3314 54.248 42.4914 54.416C42.6514 54.584 42.7314 54.784 42.7314 55.016C42.7314 55.24 42.6514 55.432 42.4914 55.592C42.3314 55.76 42.1394 55.844 41.9154 55.844ZM46.0239 55.76L45.6759 54.08C46.2439 54.008 46.7399 53.92 47.1639 53.816C47.5879 53.72 47.9439 53.584 48.2319 53.408C48.5199 53.232 48.7359 52.992 48.8799 52.688C49.0239 52.376 49.0959 51.976 49.0959 51.488C49.0959 51.016 49.0239 50.64 48.8799 50.36C48.7359 50.08 48.5439 49.94 48.3039 49.94C48.1359 49.94 47.9959 50 47.8839 50.12C47.7719 50.232 47.6879 50.368 47.6319 50.528C47.5839 50.68 47.5599 50.816 47.5599 50.936C47.5599 51.008 47.5799 51.084 47.6199 51.164C47.6599 51.244 47.7479 51.312 47.8839 51.368C48.0199 51.424 48.2319 51.456 48.5199 51.464C48.8159 51.472 49.2159 51.444 49.7199 51.38H51.7359C52.0399 51.38 52.2559 51.46 52.3839 51.62C52.5199 51.772 52.5879 51.964 52.5879 52.196C52.5879 52.444 52.5039 52.652 52.3359 52.82C52.1679 52.98 51.9279 53.06 51.6159 53.06H48.3159C47.8119 53.06 47.3799 53 47.0199 52.88C46.6599 52.76 46.3839 52.568 46.1919 52.304C45.9999 52.032 45.9039 51.672 45.9039 51.224C45.9039 50.864 45.9639 50.504 46.0839 50.144C46.2119 49.784 46.3879 49.456 46.6119 49.16C46.8359 48.856 47.0959 48.616 47.3919 48.44C47.6959 48.256 48.0239 48.164 48.3759 48.164C48.8559 48.164 49.2759 48.312 49.6359 48.608C49.9959 48.904 50.2759 49.296 50.4759 49.784C50.6839 50.272 50.7879 50.804 50.7879 51.38C50.7879 52.284 50.5959 53.052 50.2119 53.684C49.8279 54.316 49.2799 54.804 48.5679 55.148C47.8559 55.5 47.0079 55.704 46.0239 55.76ZM51.6329 53.06L51.7529 51.38C52.1209 51.38 52.3849 51.344 52.5449 51.272C52.7049 51.192 52.8009 51.048 52.8329 50.84C52.8649 50.624 52.8729 50.312 52.8569 49.904L52.6409 44.216H54.3329L54.5729 50.024C54.5889 50.488 54.5689 50.908 54.5129 51.284C54.4649 51.652 54.3409 51.968 54.1409 52.232C53.9489 52.496 53.6489 52.7 53.2409 52.844C52.8409 52.988 52.3049 53.06 51.6329 53.06ZM55.8794 55.76L55.5314 54.08C56.0994 54.008 56.5954 53.92 57.0194 53.816C57.4434 53.72 57.7994 53.584 58.0874 53.408C58.3754 53.232 58.5914 52.992 58.7354 52.688C58.8794 52.376 58.9514 51.976 58.9514 51.488C58.9514 51.312 58.9354 51.136 58.9034 50.96C58.8714 50.776 58.8234 50.608 58.7594 50.456C58.6954 50.304 58.6114 50.18 58.5074 50.084C58.4114 49.988 58.2954 49.94 58.1594 49.94C58.0154 49.94 57.8874 49.992 57.7754 50.096C57.6634 50.192 57.5754 50.316 57.5114 50.468C57.4474 50.612 57.4154 50.76 57.4154 50.912C57.4154 51.024 57.4434 51.12 57.4994 51.2C57.5554 51.272 57.6394 51.328 57.7514 51.368C57.8634 51.4 58.0034 51.416 58.1714 51.416C58.3634 51.416 58.5594 51.396 58.7594 51.356C58.9674 51.308 59.1554 51.244 59.3234 51.164L59.3714 52.472C59.1794 52.624 58.9594 52.76 58.7114 52.88C58.4634 52.992 58.1634 53.048 57.8114 53.048C57.5234 53.048 57.2554 53.016 57.0074 52.952C56.7594 52.88 56.5394 52.772 56.3474 52.628C56.1634 52.484 56.0194 52.3 55.9154 52.076C55.8114 51.844 55.7594 51.568 55.7594 51.248C55.7594 50.856 55.8234 50.476 55.9514 50.108C56.0794 49.74 56.2554 49.412 56.4794 49.124C56.7114 48.828 56.9754 48.596 57.2714 48.428C57.5754 48.252 57.8954 48.164 58.2314 48.164C58.6314 48.164 58.9794 48.264 59.2754 48.464C59.5794 48.664 59.8314 48.928 60.0314 49.256C60.2314 49.576 60.3834 49.924 60.4874 50.3C60.5914 50.676 60.6434 51.036 60.6434 51.38C60.6434 52.284 60.4514 53.052 60.0674 53.684C59.6834 54.316 59.1354 54.804 58.4234 55.148C57.7114 55.5 56.8634 55.704 55.8794 55.76ZM65.8999 46.568C65.8999 46.304 65.8839 46.04 65.8519 45.776C65.8279 45.512 65.7959 45.264 65.7559 45.032C65.7159 44.792 65.6799 44.584 65.6479 44.408L67.3279 44.168C67.3599 44.328 67.3919 44.54 67.4239 44.804C67.4559 45.068 67.4839 45.348 67.5079 45.644C67.5319 45.932 67.5439 46.208 67.5439 46.472C67.5439 46.888 67.5079 47.28 67.4359 47.648C67.3639 48.016 67.2559 48.364 67.1119 48.692C66.9679 49.012 66.7879 49.32 66.5719 49.616L66.3559 49.904C66.1479 50.16 65.9039 50.412 65.6239 50.66C65.3519 50.908 65.0519 51.148 64.7239 51.38H65.5039C65.7759 51.38 65.9839 51.364 66.1279 51.332C66.2719 51.3 66.3679 51.256 66.4159 51.2C66.4719 51.136 66.4999 51.064 66.4999 50.984C66.4999 50.84 66.3759 50.628 66.1279 50.348C65.8799 50.06 65.5359 49.732 65.0959 49.364C64.6559 48.988 64.1399 48.592 63.5479 48.176C62.9639 47.752 62.3319 47.328 61.6519 46.904L62.5279 45.62C63.4719 46.204 64.2679 46.74 64.9159 47.228C65.5719 47.716 66.1079 48.16 66.5239 48.56C66.9479 48.96 67.2759 49.324 67.5079 49.652C67.7399 49.98 67.8999 50.276 67.9879 50.54C68.0759 50.796 68.1199 51.028 68.1199 51.236C68.1199 51.468 68.0839 51.692 68.0119 51.908C67.9399 52.116 67.8239 52.304 67.6639 52.472C67.5039 52.632 67.2959 52.76 67.0399 52.856C66.7839 52.952 66.4679 53 66.0919 53H62.5639V51.392C63.3879 50.8 64.0399 50.24 64.5199 49.712C65.0079 49.184 65.3599 48.664 65.5759 48.152C65.7919 47.64 65.8999 47.112 65.8999 46.568ZM61.5439 45.44L61.3399 44.6C61.6199 44.552 61.8279 44.512 61.9639 44.48C62.1079 44.448 62.2599 44.412 62.4199 44.372L62.2999 44.672C62.0919 44.6 61.8919 44.46 61.6999 44.252C61.5159 44.036 61.4239 43.792 61.4239 43.52C61.4239 43.232 61.4879 43 61.6159 42.824C61.7439 42.648 61.9079 42.52 62.1079 42.44C62.3079 42.36 62.5159 42.32 62.7319 42.32C62.8519 42.32 62.9639 42.328 63.0679 42.344C63.1799 42.36 63.2799 42.384 63.3679 42.416L63.2719 43.28C63.1919 43.264 63.1119 43.248 63.0319 43.232C62.9519 43.216 62.8639 43.208 62.7679 43.208C62.6639 43.208 62.5679 43.244 62.4799 43.316C62.3999 43.38 62.3599 43.46 62.3599 43.556C62.3599 43.692 62.4079 43.812 62.5039 43.916C62.5999 44.02 62.7119 44.104 62.8399 44.168C62.9759 44.224 63.0879 44.256 63.1759 44.264L62.5159 44.336C62.7319 44.28 62.9359 44.224 63.1279 44.168C63.3199 44.104 63.4999 44.04 63.6679 43.976L63.9079 44.78C63.7079 44.852 63.4719 44.932 63.1999 45.02C62.9359 45.1 62.6599 45.176 62.3719 45.248C62.0919 45.32 61.8159 45.384 61.5439 45.44ZM70.0772 53L69.8252 44.216H71.5052L71.7572 53H70.0772Z" fill="black"/>
<path d="M32.6124 68.09C32.039 68.09 31.5524 67.9533 31.1524 67.68C30.7524 67.4067 30.4457 67.0133 30.2324 66.5C30.0257 65.98 29.9224 65.3533 29.9224 64.62C29.9224 63.8133 30.039 63.1333 30.2724 62.58C30.5057 62.02 30.8424 61.5933 31.2824 61.3C31.7224 61.0067 32.249 60.86 32.8624 60.86C33.1157 60.86 33.3657 60.8933 33.6124 60.96C33.859 61.02 34.089 61.11 34.3024 61.23C34.5224 61.35 34.719 61.5 34.8924 61.68L34.5224 62.48C34.2757 62.2333 34.009 62.0533 33.7224 61.94C33.4424 61.8267 33.1524 61.77 32.8524 61.77C32.539 61.77 32.2624 61.8267 32.0224 61.94C31.7824 62.0533 31.579 62.2233 31.4124 62.45C31.2524 62.67 31.129 62.9467 31.0424 63.28C30.9557 63.6133 30.9124 64 30.9124 64.44V65.13H30.8624C30.9224 64.7967 31.039 64.51 31.2124 64.27C31.3857 64.03 31.6057 63.8467 31.8724 63.72C32.1457 63.5933 32.4457 63.53 32.7724 63.53C33.1857 63.53 33.5524 63.6267 33.8724 63.82C34.1924 64.0067 34.4424 64.27 34.6224 64.61C34.809 64.9433 34.9024 65.33 34.9024 65.77C34.9024 66.2167 34.8024 66.6167 34.6024 66.97C34.409 67.3233 34.139 67.6 33.7924 67.8C33.4524 67.9933 33.059 68.09 32.6124 68.09ZM32.5524 67.22C32.819 67.22 33.0557 67.1633 33.2624 67.05C33.469 66.93 33.629 66.7633 33.7424 66.55C33.8557 66.3367 33.9124 66.0867 33.9124 65.8C33.9124 65.52 33.8557 65.2767 33.7424 65.07C33.629 64.8567 33.469 64.6933 33.2624 64.58C33.0557 64.46 32.819 64.4 32.5524 64.4C32.279 64.4 32.039 64.46 31.8324 64.58C31.6257 64.6933 31.4624 64.8567 31.3424 65.07C31.229 65.2833 31.1724 65.5267 31.1724 65.8C31.1724 66.0867 31.229 66.3367 31.3424 66.55C31.4624 66.7633 31.6257 66.93 31.8324 67.05C32.039 67.1633 32.279 67.22 32.5524 67.22ZM38.3626 67.72C38.3626 67.5667 38.3759 67.3867 38.4026 67.18C38.4293 66.9733 38.4793 66.74 38.5526 66.48C38.6259 66.2133 38.7359 65.9167 38.8826 65.59L40.1126 66.02C40.0393 66.2267 39.9759 66.4167 39.9226 66.59C39.8693 66.7567 39.8293 66.9133 39.8026 67.06C39.7759 67.2 39.7626 67.34 39.7626 67.48C39.7626 67.78 39.8359 68.04 39.9826 68.26C40.1359 68.4867 40.3426 68.66 40.6026 68.78C40.8693 68.9067 41.1759 68.97 41.5226 68.97C42.0893 68.97 42.5226 68.8767 42.8226 68.69C43.1293 68.51 43.3359 68.2233 43.4426 67.83C43.5559 67.43 43.5993 66.9133 43.5726 66.28L43.3726 60.68H44.7826L44.9326 65.41C44.9459 65.7433 44.9926 66 45.0726 66.18C45.1526 66.36 45.2759 66.4833 45.4426 66.55C45.6159 66.6167 45.8393 66.65 46.1126 66.65C46.3659 66.65 46.5459 66.7167 46.6526 66.85C46.7593 66.9767 46.8126 67.1367 46.8126 67.33C46.8126 67.5367 46.7426 67.71 46.6026 67.85C46.4626 67.9833 46.2659 68.05 46.0126 68.05C45.8659 68.05 45.7093 68.03 45.5426 67.99C45.3759 67.95 45.2159 67.8867 45.0626 67.8C44.9093 67.7133 44.7759 67.6 44.6626 67.46C44.5493 67.3133 44.4726 67.1333 44.4326 66.92L44.9726 66.65C44.9726 67.3233 44.8926 67.8933 44.7326 68.36C44.5793 68.8267 44.3526 69.2033 44.0526 69.49C43.7593 69.7767 43.3959 69.9833 42.9626 70.11C42.5359 70.2433 42.0426 70.31 41.4826 70.31C41.0559 70.31 40.6526 70.2567 40.2726 70.15C39.8993 70.0433 39.5693 69.8833 39.2826 69.67C38.9959 69.4567 38.7693 69.1867 38.6026 68.86C38.4426 68.54 38.3626 68.16 38.3626 67.72ZM56.0427 68.05C55.7027 68.05 55.3761 68.02 55.0627 67.96C54.7494 67.8933 54.4661 67.8067 54.2127 67.7C53.9661 67.5933 53.7627 67.4733 53.6027 67.34L54.5027 66.37C54.7427 66.47 54.9894 66.5433 55.2427 66.59C55.4961 66.63 55.7961 66.65 56.1427 66.65C56.3961 66.65 56.5761 66.7167 56.6827 66.85C56.7961 66.9767 56.8527 67.1367 56.8527 67.33C56.8527 67.5367 56.7827 67.71 56.6427 67.85C56.5027 67.9833 56.3027 68.05 56.0427 68.05ZM51.1927 68.18C50.5727 68.18 50.0561 68.1533 49.6427 68.1C49.2361 68.0467 48.9061 67.97 48.6527 67.87C48.3994 67.77 48.1994 67.65 48.0527 67.51C47.9061 67.37 47.7861 67.2167 47.6927 67.05L47.9727 66.97C47.8061 67.29 47.6161 67.5267 47.4027 67.68C47.1894 67.8333 46.9661 67.9333 46.7327 67.98C46.4994 68.0267 46.2594 68.05 46.0127 68.05L46.1127 66.65C46.3194 66.65 46.4827 66.6167 46.6027 66.55C46.7227 66.4833 46.8194 66.3733 46.8927 66.22C46.9727 66.0667 47.0461 65.8633 47.1127 65.61C47.1794 65.3567 47.2594 65.0467 47.3527 64.68L48.6227 64.99C48.5761 65.17 48.5361 65.3267 48.5027 65.46C48.4761 65.5933 48.4527 65.71 48.4327 65.81C48.4194 65.9033 48.4127 65.98 48.4127 66.04C48.4127 66.1667 48.4427 66.28 48.5027 66.38C48.5627 66.4733 48.6794 66.55 48.8527 66.61C49.0261 66.6633 49.2794 66.7067 49.6127 66.74C49.9527 66.7667 50.3961 66.78 50.9427 66.78C51.5227 66.78 52.0061 66.76 52.3927 66.72C52.7794 66.6733 53.0861 66.61 53.3127 66.53C53.5461 66.4433 53.7127 66.34 53.8127 66.22C53.9127 66.0933 53.9627 65.95 53.9627 65.79C53.9627 65.6633 53.9327 65.5467 53.8727 65.44C53.8194 65.3267 53.7294 65.2333 53.6027 65.16C53.4761 65.0867 53.3127 65.05 53.1127 65.05C52.8727 65.05 52.6294 65.11 52.3827 65.23C52.1427 65.3433 51.9061 65.4967 51.6727 65.69C51.4394 65.8767 51.2161 66.0867 51.0027 66.32C50.7961 66.5533 50.6094 66.7867 50.4427 67.02L48.9427 66.85C49.2027 66.43 49.4961 66.0267 49.8227 65.64C50.1494 65.2533 50.4994 64.9133 50.8727 64.62C51.2461 64.32 51.6327 64.0833 52.0327 63.91C52.4327 63.7367 52.8394 63.65 53.2527 63.65C53.6994 63.65 54.0794 63.7367 54.3927 63.91C54.7061 64.0833 54.9461 64.3233 55.1127 64.63C55.2794 64.9367 55.3627 65.29 55.3627 65.69C55.3627 66.1767 55.2227 66.6067 54.9427 66.98C54.6694 67.3533 54.2261 67.6467 53.6127 67.86C53.0061 68.0733 52.1994 68.18 51.1927 68.18ZM56.0518 68.05L56.1518 66.66C56.4118 66.6667 56.6518 66.6633 56.8718 66.65C57.0918 66.6367 57.2885 66.6167 57.4618 66.59C57.6418 66.5633 57.7985 66.5333 57.9318 66.5C58.0718 66.4667 58.1885 66.4367 58.2818 66.41C58.5085 66.3367 58.7018 66.25 58.8618 66.15C59.0218 66.0433 59.1451 65.9233 59.2318 65.79C59.3185 65.6567 59.3618 65.5133 59.3618 65.36C59.3618 65.24 59.3351 65.12 59.2818 65C59.2351 64.8733 59.1651 64.77 59.0718 64.69C58.9785 64.61 58.8685 64.57 58.7418 64.57C58.6218 64.57 58.5118 64.6067 58.4118 64.68C58.3118 64.7533 58.2318 64.8533 58.1718 64.98C58.1118 65.1 58.0818 65.24 58.0818 65.4C58.0818 65.54 58.1151 65.6733 58.1818 65.8C58.2485 65.92 58.3418 66.0367 58.4618 66.15C58.5818 66.2633 58.7251 66.37 58.8918 66.47L57.5618 66.98C57.4151 66.84 57.2751 66.69 57.1418 66.53C57.0151 66.37 56.9085 66.19 56.8218 65.99C56.7418 65.7833 56.7018 65.5533 56.7018 65.3C56.7018 64.9933 56.7618 64.7133 56.8818 64.46C57.0018 64.2067 57.1618 63.99 57.3618 63.81C57.5618 63.6233 57.7851 63.48 58.0318 63.38C58.2785 63.28 58.5251 63.23 58.7718 63.23C59.1718 63.23 59.5185 63.3233 59.8118 63.51C60.1051 63.6967 60.3318 63.94 60.4918 64.24C60.6585 64.54 60.7418 64.8667 60.7418 65.22C60.7418 65.5467 60.6818 65.84 60.5618 66.1C60.4418 66.3533 60.2785 66.58 60.0718 66.78C59.8718 66.9733 59.6485 67.1433 59.4018 67.29C59.1618 67.4367 58.9185 67.56 58.6718 67.66C58.5518 67.7133 58.4018 67.7633 58.2218 67.81C58.0418 67.8567 57.8385 67.9 57.6118 67.94C57.3851 67.9733 57.1418 68 56.8818 68.02C56.6218 68.04 56.3451 68.05 56.0518 68.05ZM61.3318 68.05C60.9451 68.05 60.5651 68.03 60.1918 67.99C59.8185 67.95 59.4718 67.89 59.1518 67.81C58.8385 67.73 58.5651 67.6333 58.3318 67.52L59.0218 66.44C59.2218 66.4933 59.4551 66.5367 59.7218 66.57C59.9951 66.5967 60.2785 66.6167 60.5718 66.63C60.8718 66.6433 61.1585 66.65 61.4318 66.65C61.6851 66.65 61.8651 66.7167 61.9718 66.85C62.0851 66.9767 62.1418 67.1367 62.1418 67.33C62.1418 67.5367 62.0718 67.71 61.9318 67.85C61.7918 67.9833 61.5918 68.05 61.3318 68.05ZM58.7818 62.3C58.5751 62.3 58.3985 62.23 58.2518 62.09C58.1118 61.95 58.0418 61.7767 58.0418 61.57C58.0418 61.3633 58.1118 61.1867 58.2518 61.04C58.3985 60.8933 58.5751 60.82 58.7818 60.82C58.9818 60.82 59.1518 60.8933 59.2918 61.04C59.4385 61.1867 59.5118 61.3633 59.5118 61.57C59.5118 61.7767 59.4385 61.95 59.2918 62.09C59.1518 62.23 58.9818 62.3 58.7818 62.3ZM61.3448 68.05L61.4448 66.65C61.7514 66.65 61.9714 66.62 62.1048 66.56C62.2381 66.4933 62.3181 66.3733 62.3448 66.2C62.3714 66.02 62.3781 65.76 62.3648 65.42L62.1848 60.68H63.5948L63.7948 65.52C63.8081 65.9067 63.7914 66.2567 63.7448 66.57C63.7048 66.8767 63.6014 67.14 63.4348 67.36C63.2748 67.58 63.0248 67.75 62.6848 67.87C62.3514 67.99 61.9048 68.05 61.3448 68.05ZM65.1135 68L64.9035 60.68H66.3035L66.5135 68H65.1135Z" fill="#667085"/>
<defs>
<filter id="filter0_d_8310_938" x="0" y="0" width="96" height="85.8462" filterUnits="userSpaceOnUse" color-interpolation-filters="sRGB">
<feFlood flood-opacity="0" result="BackgroundImageFix"/>
<feColorMatrix in="SourceAlpha" type="matrix" values="0 0 0 0 0 0 0 0 0 0 0 0 0 0 0 0 0 0 127 0" result="hardAlpha"/>
<feOffset dy="4"/>
<feGaussianBlur stdDeviation="2"/>
<feComposite in2="hardAlpha" operator="out"/>
<feColorMatrix type="matrix" values="0 0 0 0 0 0 0 0 0 0 0 0 0 0 0 0 0 0 0.25 0"/>
<feBlend mode="normal" in2="BackgroundImageFix" result="effect1_dropShadow_8310_938"/>
<feBlend mode="normal" in="SourceGraphic" in2="effect1_dropShadow_8310_938" result="shape"/>
</filter>
</defs>
</svg>
