<svg width="96" height="86" viewBox="0 0 96 86" fill="none" xmlns="http://www.w3.org/2000/svg">
<g filter="url(#filter0_d_8339_572)">
<path d="M5.37285 42.5205C4.62083 41.2108 4.24484 40.5555 4.09767 39.8593C3.96744 39.2431 3.96744 38.6067 4.09767 37.9905C4.24484 37.2944 4.62083 36.6391 5.37285 35.3294L23.5901 3.5975C24.3421 2.28764 24.7181 1.63271 25.2442 1.15639C25.7096 0.734951 26.2579 0.416565 26.8535 0.221956C27.5267 0.00195292 28.2787 0.00195312 29.7827 0.00195312H66.2171C67.7214 0.00195312 68.4731 0.00195292 69.1466 0.221956C69.7419 0.416565 70.2903 0.734951 70.756 1.15639C71.282 1.63271 71.6578 2.28764 72.41 3.5975L90.6271 35.3294C91.3792 36.6391 91.7551 37.2944 91.9021 37.9905C92.0326 38.6067 92.0326 39.2431 91.9021 39.8593C91.7551 40.5555 91.3792 41.2108 90.6271 42.5205L72.41 74.2526C71.6578 75.5622 71.282 76.2171 70.756 76.6935C70.2903 77.1151 69.7419 77.4333 69.1466 77.6279C68.4731 77.8481 67.7214 77.8481 66.2171 77.8481H29.7827C28.2787 77.8481 27.5267 77.8481 26.8535 77.6279C26.2579 77.4333 25.7096 77.1151 25.2442 76.6935C24.7181 76.2171 24.3421 75.5622 23.5901 74.2526L5.37285 42.5205Z" fill="white"/>
</g>
<g clip-path="url(#clip0_8339_572)">
<path d="M55.4134 12.7363C54.6686 9.37621 53.9238 6.01607 53.1786 2.65601C51.921 2.65601 50.6635 2.65601 49.4061 2.65601C49.5858 6.01614 49.7658 9.37628 49.9456 12.7363H55.4134Z" fill="#F2BB41"/>
<path d="M50.2325 18.1003C50.4691 22.5163 50.7054 26.932 50.9416 31.3479C53.8072 31.3479 56.6728 31.3479 59.5384 31.3479C58.5594 26.9321 57.5809 22.5163 56.6024 18.1003H50.2325Z" fill="#F2BB41"/>
<path d="M47.0039 2.65601C45.7464 2.65601 44.4888 2.65601 43.2315 2.65601C42.4866 6.01607 41.7422 9.37621 40.9974 12.7363H46.4649C46.6444 9.37621 46.824 6.01607 47.0039 2.65601Z" fill="#F2BB41"/>
<path d="M36.8717 31.3479C39.7375 31.3479 42.6029 31.3479 45.4685 31.3479C45.7056 26.9321 45.9419 22.5163 46.1778 18.1003H39.8087C38.83 22.5163 37.8512 26.9322 36.8717 31.3479Z" fill="#F2BB41"/>
<path d="M62.8569 14.1292H33.5532C33.3609 14.1292 33.2051 14.285 33.2051 14.4773V16.3594C33.2051 16.5517 33.3609 16.7076 33.5532 16.7076H35.4374V19.5267C35.4374 19.7189 35.5932 19.8749 35.7855 19.8749H37.6658C37.8251 19.8749 37.964 19.7667 38.0031 19.6125L38.7417 16.7077H57.6684L58.4068 19.6125C58.4459 19.7669 58.585 19.8749 58.7443 19.8749H60.6243C60.8168 19.8749 60.9725 19.7189 60.9725 19.5267V16.7076H62.8568C63.0491 16.7076 63.205 16.5517 63.205 16.3594V14.4773C63.2051 14.285 63.0491 14.1292 62.8569 14.1292Z" fill="#F2BB41"/>
</g>
<path d="M11.0609 43.002L14.2009 35.952H15.1109L18.2509 43.002H17.1509L16.3009 41.012L16.7809 41.322H12.5209L13.0009 41.012L12.1509 43.002H11.0609ZM14.6309 37.132L13.1309 40.692L12.8809 40.442H16.4209L16.1709 40.692L14.6609 37.132H14.6309ZM20.9999 43.092C20.5933 43.092 20.2533 43.0186 19.9799 42.872C19.7133 42.7253 19.5099 42.5053 19.3699 42.212C19.2366 41.912 19.1699 41.5386 19.1699 41.092V38.082H20.2199V41.072C20.2199 41.3186 20.2533 41.532 20.3199 41.712C20.3933 41.8853 20.5066 42.0153 20.6599 42.102C20.8199 42.1886 21.0166 42.232 21.2499 42.232C21.5099 42.232 21.7366 42.172 21.9299 42.052C22.1299 41.932 22.2866 41.7686 22.3999 41.562C22.5199 41.3486 22.5799 41.1086 22.5799 40.842V38.082H23.6299V43.002H22.6299V41.932H22.6999C22.5466 42.3053 22.3233 42.592 22.0299 42.792C21.7433 42.992 21.3999 43.092 20.9999 43.092ZM27.3165 43.092C26.6898 43.092 26.2198 42.932 25.9065 42.612C25.5998 42.292 25.4465 41.8286 25.4465 41.222V38.912H24.4865V38.082H25.4765V36.622H26.5065V38.082H28.1265V38.912H26.5065V41.152C26.5065 41.5053 26.5832 41.772 26.7365 41.952C26.8965 42.1253 27.1432 42.212 27.4765 42.212C27.5965 42.212 27.7132 42.1986 27.8265 42.172C27.9398 42.1453 28.0532 42.112 28.1665 42.072L28.3265 42.872C28.2065 42.9453 28.0532 42.9986 27.8665 43.032C27.6798 43.072 27.4965 43.092 27.3165 43.092ZM31.282 43.092C30.782 43.092 30.3454 42.9886 29.972 42.782C29.6054 42.5686 29.322 42.272 29.122 41.892C28.922 41.5053 28.822 41.0553 28.822 40.542C28.822 40.022 28.922 39.572 29.122 39.192C29.322 38.812 29.6054 38.5186 29.972 38.312C30.3454 38.0986 30.782 37.992 31.282 37.992C31.7887 37.992 32.2254 38.0986 32.592 38.312C32.9587 38.5186 33.242 38.812 33.442 39.192C33.642 39.572 33.742 40.022 33.742 40.542C33.742 41.0553 33.642 41.5053 33.442 41.892C33.242 42.272 32.9587 42.5686 32.592 42.782C32.2254 42.9886 31.7887 43.092 31.282 43.092ZM31.282 42.252C31.7154 42.252 32.0587 42.102 32.312 41.802C32.5654 41.502 32.692 41.0786 32.692 40.532C32.692 39.9853 32.5654 39.5653 32.312 39.272C32.0587 38.9786 31.7154 38.832 31.282 38.832C30.8487 38.832 30.5054 38.9786 30.252 39.272C29.9987 39.5653 29.872 39.9853 29.872 40.532C29.872 41.0786 29.9987 41.502 30.252 41.802C30.5054 42.102 30.8487 42.252 31.282 42.252ZM36.8005 43.092C36.5271 43.092 36.2605 43.0686 36.0005 43.022C35.7405 42.9753 35.5005 42.9086 35.2805 42.822C35.0671 42.7353 34.8838 42.6286 34.7305 42.502L35.0305 41.782C35.1971 41.8953 35.3771 41.992 35.5705 42.072C35.7705 42.152 35.9738 42.212 36.1805 42.252C36.3938 42.2853 36.5971 42.302 36.7905 42.302C37.1638 42.302 37.4471 42.2453 37.6405 42.132C37.8338 42.012 37.9305 41.8486 37.9305 41.642C37.9305 41.4686 37.8705 41.3353 37.7505 41.242C37.6371 41.1486 37.4505 41.0786 37.1905 41.032L36.1805 40.842C35.7405 40.762 35.4105 40.6086 35.1905 40.382C34.9705 40.1486 34.8605 39.8553 34.8605 39.502C34.8605 39.1953 34.9438 38.932 35.1105 38.712C35.2771 38.4853 35.5138 38.3086 35.8205 38.182C36.1338 38.0553 36.5005 37.992 36.9205 37.992C37.1538 37.992 37.3838 38.0153 37.6105 38.062C37.8438 38.102 38.0605 38.1653 38.2605 38.252C38.4671 38.3386 38.6371 38.4486 38.7705 38.582L38.4605 39.302C38.3271 39.1886 38.1738 39.0953 38.0005 39.022C37.8271 38.942 37.6471 38.882 37.4605 38.842C37.2805 38.802 37.1005 38.782 36.9205 38.782C36.5605 38.782 36.2871 38.842 36.1005 38.962C35.9138 39.082 35.8205 39.2486 35.8205 39.462C35.8205 39.6286 35.8738 39.762 35.9805 39.862C36.0938 39.962 36.2671 40.0353 36.5005 40.082L37.4905 40.262C37.9638 40.3486 38.3138 40.502 38.5405 40.722C38.7738 40.9353 38.8905 41.2253 38.8905 41.592C38.8905 41.9053 38.8038 42.1753 38.6305 42.402C38.4571 42.622 38.2138 42.792 37.9005 42.912C37.5871 43.032 37.2205 43.092 36.8005 43.092ZM42.2188 43.092C41.5922 43.092 41.1222 42.932 40.8088 42.612C40.5022 42.292 40.3488 41.8286 40.3488 41.222V38.912H39.3888V38.082H40.3788V36.622H41.4088V38.082H43.0288V38.912H41.4088V41.152C41.4088 41.5053 41.4855 41.772 41.6388 41.952C41.7988 42.1253 42.0455 42.212 42.3788 42.212C42.4988 42.212 42.6155 42.1986 42.7288 42.172C42.8422 42.1453 42.9555 42.112 43.0688 42.072L43.2288 42.872C43.1088 42.9453 42.9555 42.9986 42.7688 43.032C42.5822 43.072 42.3988 43.092 42.2188 43.092ZM44.0532 43.002V38.082H45.0432V39.252H44.9932C45.1065 38.872 45.3032 38.5753 45.5832 38.362C45.8699 38.1486 46.2365 38.0253 46.6832 37.992L47.0932 37.972L47.1732 38.892L46.4732 38.962C46.0399 39.002 45.7065 39.142 45.4732 39.382C45.2399 39.622 45.1232 39.9386 45.1232 40.332V43.002H44.0532ZM49.6676 43.092C49.3209 43.092 49.0076 43.0253 48.7276 42.892C48.4476 42.7586 48.2276 42.5786 48.0676 42.352C47.9142 42.1186 47.8376 41.8586 47.8376 41.572C47.8376 41.2053 47.9342 40.9153 48.1276 40.702C48.3276 40.4886 48.6442 40.3353 49.0776 40.242C49.5109 40.142 50.0842 40.092 50.7976 40.092H51.3776V40.752H50.8276C50.4676 40.752 50.1642 40.7653 49.9176 40.792C49.6709 40.812 49.4709 40.852 49.3176 40.912C49.1642 40.972 49.0509 41.052 48.9776 41.152C48.9109 41.2453 48.8776 41.3653 48.8776 41.512C48.8776 41.7653 48.9676 41.9653 49.1476 42.112C49.3342 42.252 49.5776 42.322 49.8776 42.322C50.1376 42.322 50.3676 42.2653 50.5676 42.152C50.7676 42.032 50.9276 41.872 51.0476 41.672C51.1676 41.4653 51.2276 41.2353 51.2276 40.982V39.852C51.2276 39.4786 51.1342 39.212 50.9476 39.052C50.7676 38.892 50.4842 38.812 50.0976 38.812C49.8109 38.812 49.5242 38.852 49.2376 38.932C48.9576 39.012 48.6642 39.142 48.3576 39.322L48.0376 38.582C48.2309 38.4553 48.4442 38.3486 48.6776 38.262C48.9176 38.1753 49.1642 38.1086 49.4176 38.062C49.6776 38.0153 49.9309 37.992 50.1776 37.992C50.6242 37.992 51.0009 38.062 51.3076 38.202C51.6142 38.342 51.8476 38.5553 52.0076 38.842C52.1676 39.1286 52.2476 39.502 52.2476 39.962V43.002H51.2976V41.932H51.3376C51.2642 42.1586 51.1509 42.362 50.9976 42.542C50.8442 42.7153 50.6542 42.852 50.4276 42.952C50.2076 43.0453 49.9542 43.092 49.6676 43.092ZM55.7 43.092C55.2533 43.092 54.8633 42.9886 54.53 42.782C54.2033 42.5686 53.9467 42.272 53.76 41.892C53.58 41.5053 53.49 41.0553 53.49 40.542C53.49 40.022 53.58 39.572 53.76 39.192C53.94 38.812 54.1967 38.5186 54.53 38.312C54.8633 38.0986 55.25 37.992 55.69 37.992C56.11 37.992 56.47 38.092 56.77 38.292C57.0767 38.492 57.29 38.762 57.41 39.102H57.36V35.952H58.41V43.002H57.42V41.922H57.46C57.3333 42.2886 57.1133 42.5753 56.8 42.782C56.4933 42.9886 56.1267 43.092 55.7 43.092ZM55.96 42.272C56.3933 42.272 56.7367 42.122 56.99 41.822C57.2433 41.5153 57.37 41.0886 57.37 40.542C57.37 39.9886 57.2433 39.5653 56.99 39.272C56.7367 38.972 56.3933 38.822 55.96 38.822C55.5267 38.822 55.18 38.972 54.92 39.272C54.6667 39.5653 54.54 39.9886 54.54 40.542C54.54 41.0886 54.6667 41.5153 54.92 41.822C55.18 42.122 55.5267 42.272 55.96 42.272ZM61.5816 43.092C61.235 43.092 60.9216 43.0253 60.6416 42.892C60.3616 42.7586 60.1416 42.5786 59.9816 42.352C59.8283 42.1186 59.7516 41.8586 59.7516 41.572C59.7516 41.2053 59.8483 40.9153 60.0416 40.702C60.2416 40.4886 60.5583 40.3353 60.9916 40.242C61.425 40.142 61.9983 40.092 62.7116 40.092H63.2916V40.752H62.7416C62.3816 40.752 62.0783 40.7653 61.8316 40.792C61.585 40.812 61.385 40.852 61.2316 40.912C61.0783 40.972 60.965 41.052 60.8916 41.152C60.825 41.2453 60.7916 41.3653 60.7916 41.512C60.7916 41.7653 60.8816 41.9653 61.0616 42.112C61.2483 42.252 61.4916 42.322 61.7916 42.322C62.0516 42.322 62.2816 42.2653 62.4816 42.152C62.6816 42.032 62.8416 41.872 62.9616 41.672C63.0816 41.4653 63.1416 41.2353 63.1416 40.982V39.852C63.1416 39.4786 63.0483 39.212 62.8616 39.052C62.6816 38.892 62.3983 38.812 62.0116 38.812C61.725 38.812 61.4383 38.852 61.1516 38.932C60.8716 39.012 60.5783 39.142 60.2716 39.322L59.9516 38.582C60.145 38.4553 60.3583 38.3486 60.5916 38.262C60.8316 38.1753 61.0783 38.1086 61.3316 38.062C61.5916 38.0153 61.845 37.992 62.0916 37.992C62.5383 37.992 62.915 38.062 63.2216 38.202C63.5283 38.342 63.7616 38.5553 63.9216 38.842C64.0816 39.1286 64.1616 39.502 64.1616 39.962V43.002H63.2116V41.932H63.2516C63.1783 42.1586 63.065 42.362 62.9116 42.542C62.7583 42.7153 62.5683 42.852 62.3416 42.952C62.1216 43.0453 61.8683 43.092 61.5816 43.092ZM70.3582 43.092C69.9115 43.092 69.5215 42.9886 69.1882 42.782C68.8615 42.5686 68.6049 42.272 68.4182 41.892C68.2382 41.5053 68.1482 41.0553 68.1482 40.542C68.1482 40.022 68.2382 39.572 68.4182 39.192C68.5982 38.812 68.8549 38.5186 69.1882 38.312C69.5215 38.0986 69.9082 37.992 70.3482 37.992C70.7682 37.992 71.1282 38.092 71.4282 38.292C71.7349 38.492 71.9482 38.762 72.0682 39.102H72.0182V35.952H73.0682V43.002H72.0782V41.922H72.1182C71.9915 42.2886 71.7715 42.5753 71.4582 42.782C71.1515 42.9886 70.7849 43.092 70.3582 43.092ZM70.6182 42.272C71.0515 42.272 71.3949 42.122 71.6482 41.822C71.9015 41.5153 72.0282 41.0886 72.0282 40.542C72.0282 39.9886 71.9015 39.5653 71.6482 39.272C71.3949 38.972 71.0515 38.822 70.6182 38.822C70.1849 38.822 69.8382 38.972 69.5782 39.272C69.3249 39.5653 69.1982 39.9886 69.1982 40.542C69.1982 41.0886 69.3249 41.5153 69.5782 41.822C69.8382 42.122 70.1849 42.272 70.6182 42.272ZM74.6098 43.002V35.952H75.6398V39.102H75.5798C75.7265 38.7486 75.9565 38.4753 76.2698 38.282C76.5832 38.0886 76.9398 37.992 77.3398 37.992C77.7398 37.992 78.0698 38.0653 78.3298 38.212C78.5965 38.3586 78.7965 38.582 78.9298 38.882C79.0632 39.1753 79.1298 39.5453 79.1298 39.992V43.002H78.0698V40.052C78.0698 39.7853 78.0332 39.5653 77.9598 39.392C77.8932 39.212 77.7832 39.0786 77.6298 38.992C77.4832 38.8986 77.2898 38.852 77.0498 38.852C76.7765 38.852 76.5365 38.912 76.3298 39.032C76.1232 39.152 75.9598 39.3186 75.8398 39.532C75.7265 39.7386 75.6698 39.9786 75.6698 40.252V43.002H74.6098ZM83.035 43.092C82.4817 43.092 82.005 42.992 81.605 42.792C81.205 42.5853 80.8983 42.292 80.685 41.912C80.4717 41.5253 80.365 41.0686 80.365 40.542C80.365 40.042 80.465 39.602 80.665 39.222C80.8717 38.8353 81.1583 38.5353 81.525 38.322C81.8983 38.102 82.3283 37.992 82.815 37.992C83.2883 37.992 83.6917 38.092 84.025 38.292C84.3583 38.492 84.615 38.7786 84.795 39.152C84.975 39.5186 85.065 39.9586 85.065 40.472V40.812H81.185V40.142H84.345L84.175 40.312C84.175 39.8053 84.0583 39.4186 83.825 39.152C83.5983 38.8853 83.2717 38.752 82.845 38.752C82.5383 38.752 82.275 38.822 82.055 38.962C81.835 39.0953 81.665 39.2886 81.545 39.542C81.425 39.7886 81.365 40.0853 81.365 40.432V40.522C81.365 40.9086 81.4283 41.232 81.555 41.492C81.6883 41.752 81.8817 41.9453 82.135 42.072C82.3883 42.1986 82.695 42.262 83.055 42.262C83.3283 42.262 83.6017 42.2253 83.875 42.152C84.155 42.072 84.4117 41.9353 84.645 41.742L84.975 42.472C84.7283 42.672 84.4283 42.8253 84.075 42.932C83.7283 43.0386 83.3817 43.092 83.035 43.092ZM21.8508 57.002V56.312L24.8008 52.622L24.8208 52.912H21.8808V52.082H25.7908V52.762L22.8108 56.482L22.8008 56.172H25.9008V57.002H21.8508ZM29.1141 57.092C28.6141 57.092 28.1774 56.9886 27.8041 56.782C27.4374 56.5686 27.1541 56.272 26.9541 55.892C26.7541 55.5053 26.6541 55.0553 26.6541 54.542C26.6541 54.022 26.7541 53.572 26.9541 53.192C27.1541 52.812 27.4374 52.5186 27.8041 52.312C28.1774 52.0986 28.6141 51.992 29.1141 51.992C29.6207 51.992 30.0574 52.0986 30.4241 52.312C30.7907 52.5186 31.0741 52.812 31.2741 53.192C31.4741 53.572 31.5741 54.022 31.5741 54.542C31.5741 55.0553 31.4741 55.5053 31.2741 55.892C31.0741 56.272 30.7907 56.5686 30.4241 56.782C30.0574 56.9886 29.6207 57.092 29.1141 57.092ZM29.1141 56.252C29.5474 56.252 29.8907 56.102 30.1441 55.802C30.3974 55.502 30.5241 55.0786 30.5241 54.532C30.5241 53.9853 30.3974 53.5653 30.1441 53.272C29.8907 52.9786 29.5474 52.832 29.1141 52.832C28.6807 52.832 28.3374 52.9786 28.0841 53.272C27.8307 53.5653 27.7041 53.9853 27.7041 54.532C27.7041 55.0786 27.8307 55.502 28.0841 55.802C28.3374 56.102 28.6807 56.252 29.1141 56.252ZM32.8325 57.002V52.082H33.8325V53.122H33.7825C33.9358 52.7553 34.1692 52.4753 34.4825 52.282C34.8025 52.0886 35.1625 51.992 35.5625 51.992C35.9625 51.992 36.2925 52.0653 36.5525 52.212C36.8192 52.352 37.0192 52.572 37.1525 52.872C37.2858 53.172 37.3525 53.5453 37.3525 53.992V57.002H36.2925V54.052C36.2925 53.7853 36.2558 53.5653 36.1825 53.392C36.1158 53.212 36.0058 53.0786 35.8525 52.992C35.7058 52.8986 35.5125 52.852 35.2725 52.852C34.9992 52.852 34.7558 52.912 34.5425 53.032C34.3358 53.152 34.1758 53.3186 34.0625 53.532C33.9492 53.7386 33.8925 53.9786 33.8925 54.252V57.002H32.8325ZM40.4977 57.092C40.151 57.092 39.8377 57.0253 39.5577 56.892C39.2777 56.7586 39.0577 56.5786 38.8977 56.352C38.7443 56.1186 38.6677 55.8586 38.6677 55.572C38.6677 55.2053 38.7643 54.9153 38.9577 54.702C39.1577 54.4886 39.4743 54.3353 39.9077 54.242C40.341 54.142 40.9143 54.092 41.6277 54.092H42.2077V54.752H41.6577C41.2977 54.752 40.9943 54.7653 40.7477 54.792C40.501 54.812 40.301 54.852 40.1477 54.912C39.9943 54.972 39.881 55.052 39.8077 55.152C39.741 55.2453 39.7077 55.3653 39.7077 55.512C39.7077 55.7653 39.7977 55.9653 39.9777 56.112C40.1643 56.252 40.4077 56.322 40.7077 56.322C40.9677 56.322 41.1977 56.2653 41.3977 56.152C41.5977 56.032 41.7577 55.872 41.8777 55.672C41.9977 55.4653 42.0577 55.2353 42.0577 54.982V53.852C42.0577 53.4786 41.9643 53.212 41.7777 53.052C41.5977 52.892 41.3143 52.812 40.9277 52.812C40.641 52.812 40.3543 52.852 40.0677 52.932C39.7877 53.012 39.4943 53.142 39.1877 53.322L38.8677 52.582C39.061 52.4553 39.2743 52.3486 39.5077 52.262C39.7477 52.1753 39.9943 52.1086 40.2477 52.062C40.5077 52.0153 40.761 51.992 41.0077 51.992C41.4543 51.992 41.831 52.062 42.1377 52.202C42.4443 52.342 42.6777 52.5553 42.8377 52.842C42.9977 53.1286 43.0777 53.502 43.0777 53.962V57.002H42.1277V55.932H42.1677C42.0943 56.1586 41.981 56.362 41.8277 56.542C41.6743 56.7153 41.4843 56.852 41.2577 56.952C41.0377 57.0453 40.7843 57.092 40.4977 57.092ZM47.3442 57.002V52.082H48.3342V53.252H48.2842C48.3976 52.872 48.5942 52.5753 48.8742 52.362C49.1609 52.1486 49.5276 52.0253 49.9742 51.992L50.3842 51.972L50.4642 52.892L49.7642 52.962C49.3309 53.002 48.9976 53.142 48.7642 53.382C48.5309 53.622 48.4142 53.9386 48.4142 54.332V57.002H47.3442ZM53.1874 57.092C52.7808 57.092 52.4408 57.0186 52.1674 56.872C51.9008 56.7253 51.6974 56.5053 51.5574 56.212C51.4241 55.912 51.3574 55.5386 51.3574 55.092V52.082H52.4074V55.072C52.4074 55.3186 52.4408 55.532 52.5074 55.712C52.5808 55.8853 52.6941 56.0153 52.8474 56.102C53.0074 56.1886 53.2041 56.232 53.4374 56.232C53.6974 56.232 53.9241 56.172 54.1174 56.052C54.3174 55.932 54.4741 55.7686 54.5874 55.562C54.7074 55.3486 54.7674 55.1086 54.7674 54.842V52.082H55.8174V57.002H54.8174V55.932H54.8874C54.7341 56.3053 54.5108 56.592 54.2174 56.792C53.9308 56.992 53.5874 57.092 53.1874 57.092ZM57.354 57.002V52.082H58.344V53.252H58.294C58.4073 52.872 58.604 52.5753 58.884 52.362C59.1707 52.1486 59.5373 52.0253 59.984 51.992L60.394 51.972L60.474 52.892L59.774 52.962C59.3407 53.002 59.0073 53.142 58.774 53.382C58.5407 53.622 58.424 53.9386 58.424 54.332V57.002H57.354ZM62.9684 57.092C62.6217 57.092 62.3084 57.0253 62.0284 56.892C61.7484 56.7586 61.5284 56.5786 61.3684 56.352C61.215 56.1186 61.1384 55.8586 61.1384 55.572C61.1384 55.2053 61.235 54.9153 61.4284 54.702C61.6284 54.4886 61.945 54.3353 62.3784 54.242C62.8117 54.142 63.385 54.092 64.0984 54.092H64.6784V54.752H64.1284C63.7684 54.752 63.465 54.7653 63.2184 54.792C62.9717 54.812 62.7717 54.852 62.6184 54.912C62.465 54.972 62.3517 55.052 62.2784 55.152C62.2117 55.2453 62.1784 55.3653 62.1784 55.512C62.1784 55.7653 62.2684 55.9653 62.4484 56.112C62.635 56.252 62.8784 56.322 63.1784 56.322C63.4384 56.322 63.6684 56.2653 63.8684 56.152C64.0684 56.032 64.2284 55.872 64.3484 55.672C64.4684 55.4653 64.5284 55.2353 64.5284 54.982V53.852C64.5284 53.4786 64.435 53.212 64.2484 53.052C64.0684 52.892 63.785 52.812 63.3984 52.812C63.1117 52.812 62.825 52.852 62.5384 52.932C62.2584 53.012 61.965 53.142 61.6584 53.322L61.3384 52.582C61.5317 52.4553 61.745 52.3486 61.9784 52.262C62.2184 52.1753 62.465 52.1086 62.7184 52.062C62.9784 52.0153 63.2317 51.992 63.4784 51.992C63.925 51.992 64.3017 52.062 64.6084 52.202C64.915 52.342 65.1484 52.5553 65.3084 52.842C65.4684 53.1286 65.5484 53.502 65.5484 53.962V57.002H64.5984V55.932H64.6384C64.565 56.1586 64.4517 56.362 64.2984 56.542C64.145 56.7153 63.955 56.852 63.7284 56.952C63.5084 57.0453 63.255 57.092 62.9684 57.092ZM68.6708 57.092C68.1441 57.092 67.7441 56.9453 67.4708 56.652C67.2041 56.352 67.0708 55.9253 67.0708 55.372V49.952H68.1308V55.292C68.1308 55.492 68.1574 55.6653 68.2108 55.812C68.2708 55.952 68.3574 56.0586 68.4708 56.132C68.5841 56.1986 68.7241 56.232 68.8908 56.232C68.9774 56.232 69.0608 56.2286 69.1408 56.222C69.2208 56.2086 69.3041 56.192 69.3908 56.172L69.4008 56.992C69.2808 57.0253 69.1608 57.0486 69.0408 57.062C68.9274 57.082 68.8041 57.092 68.6708 57.092ZM72.6151 57.092C72.0617 57.092 71.5851 56.992 71.1851 56.792C70.7851 56.5853 70.4784 56.292 70.2651 55.912C70.0517 55.5253 69.9451 55.0686 69.9451 54.542C69.9451 54.042 70.0451 53.602 70.2451 53.222C70.4517 52.8353 70.7384 52.5353 71.1051 52.322C71.4784 52.102 71.9084 51.992 72.3951 51.992C72.8684 51.992 73.2717 52.092 73.6051 52.292C73.9384 52.492 74.1951 52.7786 74.3751 53.152C74.5551 53.5186 74.6451 53.9586 74.6451 54.472V54.812H70.7651V54.142H73.9251L73.7551 54.312C73.7551 53.8053 73.6384 53.4186 73.4051 53.152C73.1784 52.8853 72.8517 52.752 72.4251 52.752C72.1184 52.752 71.8551 52.822 71.6351 52.962C71.4151 53.0953 71.2451 53.2886 71.1251 53.542C71.0051 53.7886 70.9451 54.0853 70.9451 54.432V54.522C70.9451 54.9086 71.0084 55.232 71.1351 55.492C71.2684 55.752 71.4617 55.9453 71.7151 56.072C71.9684 56.1986 72.2751 56.262 72.6351 56.262C72.9084 56.262 73.1817 56.2253 73.4551 56.152C73.7351 56.072 73.9917 55.9353 74.2251 55.742L74.5551 56.472C74.3084 56.672 74.0084 56.8253 73.6551 56.932C73.3084 57.0386 72.9617 57.092 72.6151 57.092Z" fill="black"/>
<path d="M24.6815 72.002V64.952H25.7415V68.102H25.7815L29.0115 64.952H30.3415L26.5215 68.642L26.5615 68.102L30.5515 72.002H29.1815L25.7815 68.712H25.7415V72.002H24.6815ZM32.8219 72.092C32.4753 72.092 32.1619 72.0253 31.8819 71.892C31.6019 71.7586 31.3819 71.5786 31.2219 71.352C31.0686 71.1186 30.9919 70.8586 30.9919 70.572C30.9919 70.2053 31.0886 69.9153 31.2819 69.702C31.4819 69.4886 31.7986 69.3353 32.2319 69.242C32.6653 69.142 33.2386 69.092 33.9519 69.092H34.5319V69.752H33.9819C33.6219 69.752 33.3186 69.7653 33.0719 69.792C32.8253 69.812 32.6253 69.852 32.4719 69.912C32.3186 69.972 32.2053 70.052 32.1319 70.152C32.0653 70.2453 32.0319 70.3653 32.0319 70.512C32.0319 70.7653 32.1219 70.9653 32.3019 71.112C32.4886 71.252 32.7319 71.322 33.0319 71.322C33.2919 71.322 33.5219 71.2653 33.7219 71.152C33.9219 71.032 34.0819 70.872 34.2019 70.672C34.3219 70.4653 34.3819 70.2353 34.3819 69.982V68.852C34.3819 68.4786 34.2886 68.212 34.1019 68.052C33.9219 67.892 33.6386 67.812 33.2519 67.812C32.9653 67.812 32.6786 67.852 32.3919 67.932C32.1119 68.012 31.8186 68.142 31.5119 68.322L31.1919 67.582C31.3853 67.4553 31.5986 67.3486 31.8319 67.262C32.0719 67.1753 32.3186 67.1086 32.5719 67.062C32.8319 67.0153 33.0853 66.992 33.3319 66.992C33.7786 66.992 34.1553 67.062 34.4619 67.202C34.7686 67.342 35.0019 67.5553 35.1619 67.842C35.3219 68.1286 35.4019 68.502 35.4019 68.962V72.002H34.4519V70.932H34.4919C34.4186 71.1586 34.3053 71.362 34.1519 71.542C33.9986 71.7153 33.8086 71.852 33.5819 71.952C33.3619 72.0453 33.1086 72.092 32.8219 72.092ZM36.9243 73.802V67.082H37.9243V68.152H37.8743C38.001 67.792 38.221 67.5086 38.5343 67.302C38.8477 67.0953 39.2177 66.992 39.6443 66.992C40.0843 66.992 40.471 67.0986 40.8043 67.312C41.1377 67.5186 41.3943 67.812 41.5743 68.192C41.7543 68.572 41.8443 69.022 41.8443 69.542C41.8443 70.0486 41.7543 70.4953 41.5743 70.882C41.3943 71.2686 41.141 71.5686 40.8143 71.782C40.4877 71.9886 40.0977 72.092 39.6443 72.092C39.2243 72.092 38.861 71.992 38.5543 71.792C38.2543 71.5853 38.0443 71.3153 37.9243 70.982H37.9843V73.802H36.9243ZM39.3743 71.272C39.8077 71.272 40.151 71.122 40.4043 70.822C40.6643 70.5153 40.7943 70.0853 40.7943 69.532C40.7943 68.9853 40.6677 68.5653 40.4143 68.272C40.161 67.972 39.8143 67.822 39.3743 67.822C38.941 67.822 38.5977 67.972 38.3443 68.272C38.091 68.5653 37.9643 68.9853 37.9643 69.532C37.9643 70.0853 38.091 70.5153 38.3443 70.822C38.6043 71.122 38.9477 71.272 39.3743 71.272ZM43.016 65.962V64.862H44.246V65.962H43.016ZM43.106 72.002V67.082H44.166V72.002H43.106ZM47.8536 72.092C47.227 72.092 46.757 71.932 46.4436 71.612C46.137 71.292 45.9836 70.8286 45.9836 70.222V67.912H45.0236V67.082H46.0136V65.622H47.0436V67.082H48.6636V67.912H47.0436V70.152C47.0436 70.5053 47.1203 70.772 47.2736 70.952C47.4336 71.1253 47.6803 71.212 48.0136 71.212C48.1336 71.212 48.2503 71.1986 48.3636 71.172C48.477 71.1453 48.5903 71.112 48.7036 71.072L48.8636 71.872C48.7436 71.9453 48.5903 71.9986 48.4036 72.032C48.217 72.072 48.0336 72.092 47.8536 72.092ZM51.498 72.092C51.0914 72.092 50.7514 72.0186 50.478 71.872C50.2114 71.7253 50.008 71.5053 49.868 71.212C49.7347 70.912 49.668 70.5386 49.668 70.092V67.082H50.718V70.072C50.718 70.3186 50.7514 70.532 50.818 70.712C50.8914 70.8853 51.0047 71.0153 51.158 71.102C51.318 71.1886 51.5147 71.232 51.748 71.232C52.008 71.232 52.2347 71.172 52.428 71.052C52.628 70.932 52.7847 70.7686 52.898 70.562C53.018 70.3486 53.078 70.1086 53.078 69.842V67.082H54.128V72.002H53.128V70.932H53.198C53.0447 71.3053 52.8214 71.592 52.528 71.792C52.2414 71.992 51.898 72.092 51.498 72.092ZM57.2646 72.092C56.7379 72.092 56.3379 71.9453 56.0646 71.652C55.7979 71.352 55.6646 70.9253 55.6646 70.372V64.952H56.7246V70.292C56.7246 70.492 56.7512 70.6653 56.8046 70.812C56.8646 70.952 56.9512 71.0586 57.0646 71.132C57.1779 71.1986 57.3179 71.232 57.4846 71.232C57.5712 71.232 57.6546 71.2286 57.7346 71.222C57.8146 71.2086 57.8979 71.192 57.9846 71.172L57.9946 71.992C57.8746 72.0253 57.7546 72.0486 57.6346 72.062C57.5212 72.082 57.3979 72.092 57.2646 72.092ZM60.4677 72.092C59.941 72.092 59.541 71.9453 59.2677 71.652C59.001 71.352 58.8677 70.9253 58.8677 70.372V64.952H59.9277V70.292C59.9277 70.492 59.9544 70.6653 60.0077 70.812C60.0677 70.952 60.1544 71.0586 60.2677 71.132C60.381 71.1986 60.521 71.232 60.6877 71.232C60.7744 71.232 60.8577 71.2286 60.9377 71.222C61.0177 71.2086 61.101 71.192 61.1877 71.172L61.1977 71.992C61.0777 72.0253 60.9577 72.0486 60.8377 72.062C60.7244 72.082 60.601 72.092 60.4677 72.092ZM61.9808 65.962V64.862H63.2108V65.962H61.9808ZM62.0708 72.002V67.082H63.1308V72.002H62.0708ZM69.6426 72.092C68.836 72.092 68.206 71.9186 67.7526 71.572C67.2993 71.2253 67.0726 70.742 67.0726 70.122C67.0726 69.7953 67.136 69.5086 67.2626 69.262C67.396 69.0153 67.576 68.812 67.8026 68.652C68.036 68.492 68.2993 68.392 68.5926 68.352V68.452C68.3326 68.3853 68.0993 68.272 67.8926 68.112C67.686 67.952 67.526 67.7553 67.4126 67.522C67.2993 67.2886 67.2426 67.032 67.2426 66.752C67.2426 66.1586 67.4593 65.6953 67.8926 65.362C68.326 65.0286 68.9093 64.862 69.6426 64.862C70.376 64.862 70.9593 65.0286 71.3926 65.362C71.826 65.6953 72.0426 66.1586 72.0426 66.752C72.0426 67.032 71.986 67.292 71.8726 67.532C71.7593 67.7653 71.5993 67.962 71.3926 68.122C71.1926 68.2753 70.9593 68.382 70.6926 68.442V68.352C70.9926 68.392 71.256 68.492 71.4826 68.652C71.7093 68.812 71.886 69.0186 72.0126 69.272C72.146 69.5186 72.2126 69.802 72.2126 70.122C72.2126 70.742 71.986 71.2253 71.5326 71.572C71.0793 71.9186 70.4493 72.092 69.6426 72.092ZM69.6426 71.242C70.1626 71.242 70.556 71.142 70.8226 70.942C71.0893 70.7353 71.2226 70.4386 71.2226 70.052C71.2226 69.6586 71.0893 69.362 70.8226 69.162C70.556 68.962 70.1626 68.862 69.6426 68.862C69.1293 68.862 68.736 68.962 68.4626 69.162C68.196 69.362 68.0626 69.6586 68.0626 70.052C68.0626 70.4386 68.196 70.7353 68.4626 70.942C68.736 71.142 69.1293 71.242 69.6426 71.242ZM69.6426 68.002C70.0893 68.002 70.436 67.902 70.6826 67.702C70.9293 67.4953 71.0526 67.212 71.0526 66.852C71.0526 66.4986 70.9293 66.222 70.6826 66.022C70.436 65.8153 70.0893 65.712 69.6426 65.712C69.2026 65.712 68.856 65.8153 68.6026 66.022C68.356 66.222 68.2326 66.4986 68.2326 66.852C68.2326 67.212 68.356 67.4953 68.6026 67.702C68.856 67.902 69.2026 68.002 69.6426 68.002Z" fill="#667085"/>
<defs>
<filter id="filter0_d_8339_572" x="0" y="0.00195312" width="96" height="85.8462" filterUnits="userSpaceOnUse" color-interpolation-filters="sRGB">
<feFlood flood-opacity="0" result="BackgroundImageFix"/>
<feColorMatrix in="SourceAlpha" type="matrix" values="0 0 0 0 0 0 0 0 0 0 0 0 0 0 0 0 0 0 127 0" result="hardAlpha"/>
<feOffset dy="4"/>
<feGaussianBlur stdDeviation="2"/>
<feComposite in2="hardAlpha" operator="out"/>
<feColorMatrix type="matrix" values="0 0 0 0 0 0 0 0 0 0 0 0 0 0 0 0 0 0 0.25 0"/>
<feBlend mode="normal" in2="BackgroundImageFix" result="effect1_dropShadow_8339_572"/>
<feBlend mode="normal" in="SourceGraphic" in2="effect1_dropShadow_8339_572" result="shape"/>
</filter>
<clipPath id="clip0_8339_572">
<rect width="30" height="30" fill="white" transform="translate(33.2051 2.00195)"/>
</clipPath>
</defs>
</svg>
