<svg width="102" height="92" viewBox="0 0 102 92" fill="none" xmlns="http://www.w3.org/2000/svg">
<g filter="url(#filter0_d_8310_900)">
<path d="M5.49766 45.8797C4.67727 44.4665 4.2671 43.7594 4.10655 43.0082C3.96448 42.3433 3.96448 41.6565 4.10655 40.9916C4.2671 40.2404 4.67727 39.5333 5.49766 38.1201L25.371 3.87978C26.1914 2.46638 26.6016 1.75968 27.1754 1.2457C27.6832 0.790942 28.2813 0.447387 28.9311 0.237394C29.6655 -2.168e-07 30.4859 0 32.1266 0H71.8732C73.5143 0 74.3343 -2.168e-07 75.069 0.237394C75.7185 0.447387 76.3167 0.790942 76.8247 1.2457C77.3985 1.75968 77.8085 2.46638 78.6291 3.87978L98.5023 38.1201C99.3228 39.5333 99.7328 40.2404 99.8932 40.9916C100.036 41.6565 100.036 42.3433 99.8932 43.0082C99.7328 43.7594 99.3228 44.4665 98.5023 45.8797L78.6291 80.1202C77.8085 81.5334 77.3985 82.24 76.8247 82.7541C76.3167 83.209 75.7185 83.5524 75.069 83.7624C74.3343 84 73.5143 84 71.8732 84H32.1266C30.4859 84 29.6655 84 28.9311 83.7624C28.2813 83.5524 27.6832 83.209 27.1754 82.7541C26.6016 82.24 26.1914 81.5334 25.371 80.1202L5.49766 45.8797Z" fill="white"/>
</g>
<g clip-path="url(#clip0_8310_900)">
<path d="M56.2525 25.2959L56.5876 24.6493C56.694 24.4416 56.7931 24.2375 56.8862 24.0293C57.0689 23.6147 57.2182 23.1937 57.3123 22.7777C57.5036 21.938 57.404 21.1678 56.8935 20.5975C56.3831 20.0157 55.5402 19.6253 54.669 19.3532C52.8142 18.8194 50.9176 18.2254 49.0825 17.5287C48.6218 17.3538 48.1634 17.1721 47.7067 16.9785C47.257 16.7895 46.7694 16.5685 46.3232 16.2694C45.8822 15.9712 45.4197 15.574 45.1809 14.9649C45.0626 14.6654 45.0315 14.3266 45.0713 14.0188C45.1115 13.7102 45.2119 13.4293 45.3366 13.1791C45.596 12.6663 45.9142 12.2965 46.2009 11.8997L47.0936 10.7354L48.8977 8.43135L51.9692 4.56715L49.6277 4.5C49.6277 4.5 44.2941 9.40482 41.9134 12.5001C39.8436 15.1904 40.9741 17.5675 44.7183 19.1664C47.8784 20.5166 50.8363 21.5617 50.8363 21.5617C51.3459 21.8256 51.7084 22.2882 51.8289 22.8279C51.9495 23.3681 51.8162 23.9302 51.4632 24.3689L43.3156 34.5H51.4445L54.9019 27.8866L56.2525 25.2959Z" fill="#F2BB41"/>
<path d="M64.0727 19.7944C62.938 17.8963 60.9957 16.5576 58.7455 16.1224L50.7737 14.4417C50.4413 14.3778 50.1619 14.1668 50.0208 13.8737C49.8797 13.581 49.8948 13.2417 50.0605 12.9609L55.3599 4.66403L52.7787 4.59009L49.5154 8.90681L47.7721 11.2482L46.9151 12.4249C46.6393 12.8208 46.3352 13.2121 46.1676 13.5783C45.9891 13.9568 45.9443 14.3175 46.0731 14.617C46.1973 14.9239 46.5009 15.2092 46.8671 15.4385C47.2379 15.6732 47.6457 15.8498 48.0977 16.027C48.5424 16.2028 48.9936 16.3695 49.4479 16.5293C51.2734 17.1708 53.1121 17.6986 55.0143 18.1968C55.9896 18.4872 57.022 18.8762 57.8443 19.7438C58.2452 20.178 58.5443 20.7483 58.6579 21.3386C58.7748 21.9295 58.7365 22.5112 58.6342 23.0491C58.5265 23.5865 58.358 24.0915 58.1603 24.5727C58.0603 24.812 57.9525 25.049 57.842 25.2773L57.5206 25.9361L56.2325 28.5611L53.3097 34.5001H61.5495L64.6662 26.0247C65.4238 23.9636 65.2073 21.6924 64.0727 19.7944Z" fill="#F2BB41"/>
</g>
<path d="M28.0262 45.5V38.45H30.9962C31.5029 38.45 31.9362 38.5367 32.2962 38.71C32.6562 38.8767 32.9295 39.12 33.1162 39.44C33.3029 39.76 33.3962 40.15 33.3962 40.61C33.3962 41.0567 33.2995 41.4433 33.1062 41.77C32.9195 42.0967 32.6462 42.35 32.2862 42.53C31.9329 42.7033 31.5029 42.79 30.9962 42.79H29.0862V45.5H28.0262ZM29.0862 41.91H30.8362C31.3295 41.91 31.7029 41.8033 31.9562 41.59C32.2162 41.37 32.3462 41.0433 32.3462 40.61C32.3462 40.1833 32.2195 39.8633 31.9662 39.65C31.7129 39.43 31.3362 39.32 30.8362 39.32H29.0862V41.91ZM36.7215 45.59C36.1682 45.59 35.6915 45.49 35.2915 45.29C34.8915 45.0833 34.5849 44.79 34.3715 44.41C34.1582 44.0233 34.0515 43.5667 34.0515 43.04C34.0515 42.54 34.1515 42.1 34.3515 41.72C34.5582 41.3333 34.8449 41.0333 35.2115 40.82C35.5849 40.6 36.0149 40.49 36.5015 40.49C36.9749 40.49 37.3782 40.59 37.7115 40.79C38.0449 40.99 38.3015 41.2767 38.4815 41.65C38.6615 42.0167 38.7515 42.4567 38.7515 42.97V43.31H34.8715V42.64H38.0315L37.8615 42.81C37.8615 42.3033 37.7449 41.9167 37.5115 41.65C37.2849 41.3833 36.9582 41.25 36.5315 41.25C36.2249 41.25 35.9615 41.32 35.7415 41.46C35.5215 41.5933 35.3515 41.7867 35.2315 42.04C35.1115 42.2867 35.0515 42.5833 35.0515 42.93V43.02C35.0515 43.4067 35.1149 43.73 35.2415 43.99C35.3749 44.25 35.5682 44.4433 35.8215 44.57C36.0749 44.6967 36.3815 44.76 36.7415 44.76C37.0149 44.76 37.2882 44.7233 37.5615 44.65C37.8415 44.57 38.0982 44.4333 38.3315 44.24L38.6615 44.97C38.4149 45.17 38.1149 45.3233 37.7615 45.43C37.4149 45.5367 37.0682 45.59 36.7215 45.59ZM36.9415 39.46V38.4H38.0015V39.46H36.9415ZM35.0215 39.46V38.4H36.0815V39.46H35.0215ZM39.9858 45.5V40.58H40.9758V41.75H40.9258C41.0392 41.37 41.2358 41.0733 41.5158 40.86C41.8025 40.6467 42.1692 40.5233 42.6158 40.49L43.0258 40.47L43.1058 41.39L42.4058 41.46C41.9725 41.5 41.6392 41.64 41.4058 41.88C41.1725 42.12 41.0558 42.4367 41.0558 42.83V45.5H39.9858ZM45.8807 45.59C45.434 45.59 45.044 45.4867 44.7107 45.28C44.384 45.0667 44.1273 44.77 43.9407 44.39C43.7607 44.0033 43.6707 43.5533 43.6707 43.04C43.6707 42.52 43.7607 42.07 43.9407 41.69C44.1207 41.31 44.3773 41.0167 44.7107 40.81C45.044 40.5967 45.4307 40.49 45.8707 40.49C46.2907 40.49 46.6507 40.59 46.9507 40.79C47.2573 40.99 47.4707 41.26 47.5907 41.6H47.5407V38.45H48.5907V45.5H47.6007V44.42H47.6407C47.514 44.7867 47.294 45.0733 46.9807 45.28C46.674 45.4867 46.3073 45.59 45.8807 45.59ZM46.1407 44.77C46.574 44.77 46.9173 44.62 47.1707 44.32C47.424 44.0133 47.5507 43.5867 47.5507 43.04C47.5507 42.4867 47.424 42.0633 47.1707 41.77C46.9173 41.47 46.574 41.32 46.1407 41.32C45.7073 41.32 45.3607 41.47 45.1007 41.77C44.8473 42.0633 44.7207 42.4867 44.7207 43.04C44.7207 43.5867 44.8473 44.0133 45.1007 44.32C45.3607 44.62 45.7073 44.77 46.1407 44.77ZM52.3123 45.59C51.8123 45.59 51.3756 45.4867 51.0023 45.28C50.6356 45.0667 50.3523 44.77 50.1523 44.39C49.9523 44.0033 49.8523 43.5533 49.8523 43.04C49.8523 42.52 49.9523 42.07 50.1523 41.69C50.3523 41.31 50.6356 41.0167 51.0023 40.81C51.3756 40.5967 51.8123 40.49 52.3123 40.49C52.819 40.49 53.2556 40.5967 53.6223 40.81C53.989 41.0167 54.2723 41.31 54.4723 41.69C54.6723 42.07 54.7723 42.52 54.7723 43.04C54.7723 43.5533 54.6723 44.0033 54.4723 44.39C54.2723 44.77 53.989 45.0667 53.6223 45.28C53.2556 45.4867 52.819 45.59 52.3123 45.59ZM52.3123 44.75C52.7456 44.75 53.089 44.6 53.3423 44.3C53.5956 44 53.7223 43.5767 53.7223 43.03C53.7223 42.4833 53.5956 42.0633 53.3423 41.77C53.089 41.4767 52.7456 41.33 52.3123 41.33C51.879 41.33 51.5356 41.4767 51.2823 41.77C51.029 42.0633 50.9023 42.4833 50.9023 43.03C50.9023 43.5767 51.029 44 51.2823 44.3C51.5356 44.6 51.879 44.75 52.3123 44.75ZM56.0307 45.5V40.58H57.0207V41.75H56.9707C57.0841 41.37 57.2807 41.0733 57.5607 40.86C57.8474 40.6467 58.2141 40.5233 58.6607 40.49L59.0707 40.47L59.1507 41.39L58.4507 41.46C58.0174 41.5 57.6841 41.64 57.4507 41.88C57.2174 42.12 57.1007 42.4367 57.1007 42.83V45.5H56.0307ZM59.9739 39.46V38.36H61.2039V39.46H59.9739ZM60.0639 45.5V40.58H61.1239V45.5H60.0639ZM62.6816 45.5V40.58H63.6716V41.63H63.6216C63.7083 41.3967 63.8283 41.1967 63.9816 41.03C64.1416 40.8567 64.3316 40.7233 64.5516 40.63C64.7716 40.5367 65.0149 40.49 65.2816 40.49C65.6949 40.49 66.0349 40.59 66.3016 40.79C66.5683 40.99 66.7449 41.2733 66.8316 41.64H66.7516C66.8783 41.3 67.0916 41.0233 67.3916 40.81C67.6916 40.5967 68.0549 40.49 68.4816 40.49C68.8549 40.49 69.1649 40.5633 69.4116 40.71C69.6649 40.8567 69.8549 41.0767 69.9816 41.37C70.1083 41.6633 70.1716 42.0367 70.1716 42.49V45.5H69.1216V42.54C69.1216 42.14 69.0516 41.8433 68.9116 41.65C68.7716 41.45 68.5283 41.35 68.1816 41.35C67.9283 41.35 67.7083 41.41 67.5216 41.53C67.3349 41.6433 67.1916 41.8067 67.0916 42.02C66.9916 42.2333 66.9416 42.48 66.9416 42.76V45.5H65.9016V42.54C65.9016 42.14 65.8249 41.8433 65.6716 41.65C65.5249 41.45 65.2916 41.35 64.9716 41.35C64.7116 41.35 64.4883 41.4133 64.3016 41.54C64.1216 41.66 63.9816 41.8267 63.8816 42.04C63.7816 42.2467 63.7316 42.4833 63.7316 42.75V45.5H62.6816ZM71.6243 39.46V38.36H72.8543V39.46H71.6243ZM71.7143 45.5V40.58H72.7743V45.5H71.7143ZM76.9661 39.46V38.36H78.1961V39.46H76.9661ZM77.0561 45.5V40.58H78.1161V45.5H77.0561ZM38.2622 59.5V54.58H39.2522V55.75H39.2022C39.3155 55.37 39.5122 55.0733 39.7922 54.86C40.0789 54.6467 40.4455 54.5233 40.8922 54.49L41.3022 54.47L41.3822 55.39L40.6822 55.46C40.2489 55.5 39.9155 55.64 39.6822 55.88C39.4489 56.12 39.3322 56.4367 39.3322 56.83V59.5H38.2622ZM42.2954 59.5V54.58H43.2854V55.75H43.2354C43.3487 55.37 43.5454 55.0733 43.8254 54.86C44.1121 54.6467 44.4787 54.5233 44.9254 54.49L45.3354 54.47L45.4154 55.39L44.7154 55.46C44.2821 55.5 43.9487 55.64 43.7154 55.88C43.4821 56.12 43.3654 56.4367 43.3654 56.83V59.5H42.2954ZM48.1386 59.59C47.7319 59.59 47.3919 59.5167 47.1186 59.37C46.8519 59.2233 46.6486 59.0033 46.5086 58.71C46.3753 58.41 46.3086 58.0367 46.3086 57.59V54.58H47.3586V57.57C47.3586 57.8167 47.3919 58.03 47.4586 58.21C47.5319 58.3833 47.6453 58.5133 47.7986 58.6C47.9586 58.6867 48.1553 58.73 48.3886 58.73C48.6486 58.73 48.8753 58.67 49.0686 58.55C49.2686 58.43 49.4253 58.2667 49.5386 58.06C49.6586 57.8467 49.7186 57.6067 49.7186 57.34V54.58H50.7686V59.5H49.7686V58.43H49.8386C49.6853 58.8033 49.4619 59.09 49.1686 59.29C48.8819 59.49 48.5386 59.59 48.1386 59.59ZM54.5152 61.39C54.0952 61.39 53.6918 61.3367 53.3052 61.23C52.9185 61.1233 52.5818 60.9667 52.2952 60.76L52.6152 59.98C52.8018 60.1 52.9952 60.2033 53.1952 60.29C53.4018 60.3767 53.6118 60.44 53.8252 60.48C54.0385 60.5267 54.2518 60.55 54.4652 60.55C54.9518 60.55 55.3218 60.43 55.5752 60.19C55.8285 59.95 55.9552 59.6 55.9552 59.14V58.22H55.9952C55.8818 58.56 55.6685 58.8367 55.3552 59.05C55.0418 59.2567 54.6785 59.36 54.2652 59.36C53.8118 59.36 53.4152 59.26 53.0752 59.06C52.7418 58.8533 52.4818 58.5667 52.2952 58.2C52.1152 57.8333 52.0252 57.4067 52.0252 56.92C52.0252 56.4333 52.1152 56.01 52.2952 55.65C52.4818 55.2833 52.7418 55 53.0752 54.8C53.4152 54.5933 53.8118 54.49 54.2652 54.49C54.6852 54.49 55.0518 54.5967 55.3652 54.81C55.6785 55.0167 55.8885 55.2967 55.9952 55.65H55.9552V54.58H56.9652V59.03C56.9652 59.5367 56.8685 59.9667 56.6752 60.32C56.4885 60.6733 56.2118 60.94 55.8452 61.12C55.4785 61.3 55.0352 61.39 54.5152 61.39ZM54.5052 58.53C54.9452 58.53 55.2918 58.3867 55.5452 58.1C55.8052 57.8067 55.9352 57.4133 55.9352 56.92C55.9352 56.4267 55.8052 56.0367 55.5452 55.75C55.2918 55.4633 54.9452 55.32 54.5052 55.32C54.0652 55.32 53.7152 55.4633 53.4552 55.75C53.2018 56.0367 53.0752 56.4267 53.0752 56.92C53.0752 57.4133 53.2018 57.8067 53.4552 58.1C53.7152 58.3867 54.0652 58.53 54.5052 58.53ZM60.8963 59.59C60.343 59.59 59.8663 59.49 59.4663 59.29C59.0663 59.0833 58.7597 58.79 58.5463 58.41C58.333 58.0233 58.2263 57.5667 58.2263 57.04C58.2263 56.54 58.3263 56.1 58.5263 55.72C58.733 55.3333 59.0197 55.0333 59.3863 54.82C59.7597 54.6 60.1897 54.49 60.6763 54.49C61.1497 54.49 61.553 54.59 61.8863 54.79C62.2197 54.99 62.4763 55.2767 62.6563 55.65C62.8363 56.0167 62.9263 56.4567 62.9263 56.97V57.31H59.0463V56.64H62.2063L62.0363 56.81C62.0363 56.3033 61.9197 55.9167 61.6863 55.65C61.4597 55.3833 61.133 55.25 60.7063 55.25C60.3997 55.25 60.1363 55.32 59.9163 55.46C59.6963 55.5933 59.5263 55.7867 59.4063 56.04C59.2863 56.2867 59.2263 56.5833 59.2263 56.93V57.02C59.2263 57.4067 59.2897 57.73 59.4163 57.99C59.5497 58.25 59.743 58.4433 59.9963 58.57C60.2497 58.6967 60.5563 58.76 60.9163 58.76C61.1897 58.76 61.463 58.7233 61.7363 58.65C62.0163 58.57 62.273 58.4333 62.5063 58.24L62.8363 58.97C62.5897 59.17 62.2897 59.3233 61.9363 59.43C61.5897 59.5367 61.243 59.59 60.8963 59.59ZM61.1163 53.46V52.4H62.1763V53.46H61.1163ZM59.1963 53.46V52.4H60.2563V53.46H59.1963ZM65.9606 59.59C65.6873 59.59 65.4206 59.5667 65.1606 59.52C64.9006 59.4733 64.6606 59.4067 64.4406 59.32C64.2273 59.2333 64.044 59.1267 63.8906 59L64.1906 58.28C64.3573 58.3933 64.5373 58.49 64.7306 58.57C64.9306 58.65 65.134 58.71 65.3406 58.75C65.554 58.7833 65.7573 58.8 65.9506 58.8C66.324 58.8 66.6073 58.7433 66.8006 58.63C66.994 58.51 67.0906 58.3467 67.0906 58.14C67.0906 57.9667 67.0306 57.8333 66.9106 57.74C66.7973 57.6467 66.6106 57.5767 66.3506 57.53L65.3406 57.34C64.9006 57.26 64.5706 57.1067 64.3506 56.88C64.1306 56.6467 64.0206 56.3533 64.0206 56C64.0206 55.6933 64.104 55.43 64.2706 55.21C64.4373 54.9833 64.674 54.8067 64.9806 54.68C65.294 54.5533 65.6606 54.49 66.0806 54.49C66.314 54.49 66.544 54.5133 66.7706 54.56C67.004 54.6 67.2206 54.6633 67.4206 54.75C67.6273 54.8367 67.7973 54.9467 67.9306 55.08L67.6206 55.8C67.4873 55.6867 67.334 55.5933 67.1606 55.52C66.9873 55.44 66.8073 55.38 66.6206 55.34C66.4406 55.3 66.2606 55.28 66.0806 55.28C65.7206 55.28 65.4473 55.34 65.2606 55.46C65.074 55.58 64.9806 55.7467 64.9806 55.96C64.9806 56.1267 65.034 56.26 65.1406 56.36C65.254 56.46 65.4273 56.5333 65.6606 56.58L66.6506 56.76C67.124 56.8467 67.474 57 67.7006 57.22C67.934 57.4333 68.0506 57.7233 68.0506 58.09C68.0506 58.4033 67.964 58.6733 67.7906 58.9C67.6173 59.12 67.374 59.29 67.0606 59.41C66.7473 59.53 66.3806 59.59 65.9606 59.59Z" fill="black"/>
<path d="M29.4764 74.5V67.45H30.5364V70.6H30.5764L33.8064 67.45H35.1364L31.3164 71.14L31.3564 70.6L35.3464 74.5H33.9764L30.5764 71.21H30.5364V74.5H29.4764ZM37.6168 74.59C37.2701 74.59 36.9568 74.5233 36.6768 74.39C36.3968 74.2567 36.1768 74.0767 36.0168 73.85C35.8635 73.6167 35.7868 73.3567 35.7868 73.07C35.7868 72.7033 35.8835 72.4133 36.0768 72.2C36.2768 71.9867 36.5935 71.8333 37.0268 71.74C37.4601 71.64 38.0335 71.59 38.7468 71.59H39.3268V72.25H38.7768C38.4168 72.25 38.1135 72.2633 37.8668 72.29C37.6201 72.31 37.4201 72.35 37.2668 72.41C37.1135 72.47 37.0001 72.55 36.9268 72.65C36.8601 72.7433 36.8268 72.8633 36.8268 73.01C36.8268 73.2633 36.9168 73.4633 37.0968 73.61C37.2835 73.75 37.5268 73.82 37.8268 73.82C38.0868 73.82 38.3168 73.7633 38.5168 73.65C38.7168 73.53 38.8768 73.37 38.9968 73.17C39.1168 72.9633 39.1768 72.7333 39.1768 72.48V71.35C39.1768 70.9767 39.0835 70.71 38.8968 70.55C38.7168 70.39 38.4335 70.31 38.0468 70.31C37.7601 70.31 37.4735 70.35 37.1868 70.43C36.9068 70.51 36.6135 70.64 36.3068 70.82L35.9868 70.08C36.1801 69.9533 36.3935 69.8467 36.6268 69.76C36.8668 69.6733 37.1135 69.6067 37.3668 69.56C37.6268 69.5133 37.8801 69.49 38.1268 69.49C38.5735 69.49 38.9501 69.56 39.2568 69.7C39.5635 69.84 39.7968 70.0533 39.9568 70.34C40.1168 70.6267 40.1968 71 40.1968 71.46V74.5H39.2468V73.43H39.2868C39.2135 73.6567 39.1001 73.86 38.9468 74.04C38.7935 74.2133 38.6035 74.35 38.3768 74.45C38.1568 74.5433 37.9035 74.59 37.6168 74.59ZM41.7192 76.3V69.58H42.7192V70.65H42.6692C42.7959 70.29 43.0159 70.0067 43.3292 69.8C43.6426 69.5933 44.0126 69.49 44.4392 69.49C44.8792 69.49 45.2659 69.5967 45.5992 69.81C45.9326 70.0167 46.1892 70.31 46.3692 70.69C46.5492 71.07 46.6392 71.52 46.6392 72.04C46.6392 72.5467 46.5492 72.9933 46.3692 73.38C46.1892 73.7667 45.9359 74.0667 45.6092 74.28C45.2826 74.4867 44.8926 74.59 44.4392 74.59C44.0192 74.59 43.6559 74.49 43.3492 74.29C43.0492 74.0833 42.8392 73.8133 42.7192 73.48H42.7792V76.3H41.7192ZM44.1692 73.77C44.6026 73.77 44.9459 73.62 45.1992 73.32C45.4592 73.0133 45.5892 72.5833 45.5892 72.03C45.5892 71.4833 45.4626 71.0633 45.2092 70.77C44.9559 70.47 44.6092 70.32 44.1692 70.32C43.7359 70.32 43.3926 70.47 43.1392 70.77C42.8859 71.0633 42.7592 71.4833 42.7592 72.03C42.7592 72.5833 42.8859 73.0133 43.1392 73.32C43.3992 73.62 43.7426 73.77 44.1692 73.77ZM47.8109 68.46V67.36H49.0409V68.46H47.8109ZM47.9009 74.5V69.58H48.9609V74.5H47.9009ZM52.6485 74.59C52.0218 74.59 51.5518 74.43 51.2385 74.11C50.9318 73.79 50.7785 73.3267 50.7785 72.72V70.41H49.8185V69.58H50.8085V68.12H51.8385V69.58H53.4585V70.41H51.8385V72.65C51.8385 73.0033 51.9152 73.27 52.0685 73.45C52.2285 73.6233 52.4752 73.71 52.8085 73.71C52.9285 73.71 53.0452 73.6967 53.1585 73.67C53.2718 73.6433 53.3852 73.61 53.4985 73.57L53.6585 74.37C53.5385 74.4433 53.3852 74.4967 53.1985 74.53C53.0118 74.57 52.8285 74.59 52.6485 74.59ZM56.2929 74.59C55.8862 74.59 55.5462 74.5167 55.2729 74.37C55.0062 74.2233 54.8029 74.0033 54.6629 73.71C54.5296 73.41 54.4629 73.0367 54.4629 72.59V69.58H55.5129V72.57C55.5129 72.8167 55.5462 73.03 55.6129 73.21C55.6862 73.3833 55.7996 73.5133 55.9529 73.6C56.1129 73.6867 56.3096 73.73 56.5429 73.73C56.8029 73.73 57.0296 73.67 57.2229 73.55C57.4229 73.43 57.5796 73.2667 57.6929 73.06C57.8129 72.8467 57.8729 72.6067 57.8729 72.34V69.58H58.9229V74.5H57.9229V73.43H57.9929C57.8396 73.8033 57.6162 74.09 57.3229 74.29C57.0362 74.49 56.6929 74.59 56.2929 74.59ZM62.0595 74.59C61.5328 74.59 61.1328 74.4433 60.8595 74.15C60.5928 73.85 60.4595 73.4233 60.4595 72.87V67.45H61.5195V72.79C61.5195 72.99 61.5461 73.1633 61.5995 73.31C61.6595 73.45 61.7461 73.5567 61.8595 73.63C61.9728 73.6967 62.1128 73.73 62.2795 73.73C62.3661 73.73 62.4495 73.7267 62.5295 73.72C62.6095 73.7067 62.6928 73.69 62.7795 73.67L62.7895 74.49C62.6695 74.5233 62.5495 74.5467 62.4295 74.56C62.3161 74.58 62.1928 74.59 62.0595 74.59ZM65.2626 74.59C64.7359 74.59 64.3359 74.4433 64.0626 74.15C63.7959 73.85 63.6626 73.4233 63.6626 72.87V67.45H64.7226V72.79C64.7226 72.99 64.7492 73.1633 64.8026 73.31C64.8626 73.45 64.9492 73.5567 65.0626 73.63C65.1759 73.6967 65.3159 73.73 65.4826 73.73C65.5692 73.73 65.6526 73.7267 65.7326 73.72C65.8126 73.7067 65.8959 73.69 65.9826 73.67L65.9926 74.49C65.8726 74.5233 65.7526 74.5467 65.6326 74.56C65.5192 74.58 65.3959 74.59 65.2626 74.59ZM66.7757 68.46V67.36H68.0057V68.46H66.7757ZM66.8657 74.5V69.58H67.9257V74.5H66.8657ZM74.3275 74.59C74.0142 74.59 73.7075 74.56 73.4075 74.5C73.1142 74.44 72.8375 74.35 72.5775 74.23C72.3242 74.1033 72.0975 73.95 71.8975 73.77L72.2675 72.95C72.5875 73.21 72.9142 73.3967 73.2475 73.51C73.5875 73.6233 73.9375 73.68 74.2975 73.68C74.5975 73.68 74.8575 73.64 75.0775 73.56C75.2975 73.4733 75.4675 73.3433 75.5875 73.17C75.7075 72.99 75.7675 72.77 75.7675 72.51C75.7675 72.1367 75.6408 71.8567 75.3875 71.67C75.1408 71.4767 74.7775 71.38 74.2975 71.38H73.1975V70.49H74.1775C74.4575 70.49 74.7008 70.4433 74.9075 70.35C75.1208 70.2567 75.2842 70.1233 75.3975 69.95C75.5175 69.77 75.5775 69.5533 75.5775 69.3C75.5775 68.96 75.4608 68.7033 75.2275 68.53C75.0008 68.3567 74.6875 68.27 74.2875 68.27C73.9342 68.27 73.5975 68.33 73.2775 68.45C72.9642 68.57 72.6675 68.7633 72.3875 69.03L72.0175 68.22C72.2975 67.94 72.6442 67.7267 73.0575 67.58C73.4775 67.4333 73.9108 67.36 74.3575 67.36C74.8242 67.36 75.2242 67.4333 75.5575 67.58C75.8975 67.72 76.1575 67.9267 76.3375 68.2C76.5175 68.4733 76.6075 68.8033 76.6075 69.19C76.6075 69.6033 76.4942 69.9633 76.2675 70.27C76.0408 70.57 75.7275 70.7767 75.3275 70.89V70.83C75.6275 70.89 75.8875 70.9967 76.1075 71.15C76.3275 71.3033 76.4975 71.5 76.6175 71.74C76.7375 71.98 76.7975 72.26 76.7975 72.58C76.7975 73 76.6942 73.36 76.4875 73.66C76.2875 73.96 76.0042 74.19 75.6375 74.35C75.2708 74.51 74.8342 74.59 74.3275 74.59Z" fill="#667085"/>
<defs>
<filter id="filter0_d_8310_900" x="0" y="0" width="104" height="92" filterUnits="userSpaceOnUse" color-interpolation-filters="sRGB">
<feFlood flood-opacity="0" result="BackgroundImageFix"/>
<feColorMatrix in="SourceAlpha" type="matrix" values="0 0 0 0 0 0 0 0 0 0 0 0 0 0 0 0 0 0 127 0" result="hardAlpha"/>
<feOffset dy="4"/>
<feGaussianBlur stdDeviation="2"/>
<feComposite in2="hardAlpha" operator="out"/>
<feColorMatrix type="matrix" values="0 0 0 0 0 0 0 0 0 0 0 0 0 0 0 0 0 0 0.25 0"/>
<feBlend mode="normal" in2="BackgroundImageFix" result="effect1_dropShadow_8310_900"/>
<feBlend mode="normal" in="SourceGraphic" in2="effect1_dropShadow_8310_900" result="shape"/>
</filter>
<clipPath id="clip0_8310_900">
<rect width="30" height="30" fill="white" transform="translate(38 4.5)"/>
</clipPath>
</defs>
</svg>
