<svg width="96" height="86" viewBox="0 0 96 86" fill="none" xmlns="http://www.w3.org/2000/svg">
<g filter="url(#filter0_d_8310_691)">
<path d="M5.37285 42.5185C4.62083 41.2089 4.24484 40.5536 4.09767 39.8574C3.96744 39.2412 3.96744 38.6048 4.09767 37.9886C4.24484 37.2924 4.62083 36.6371 5.37285 35.3274L23.5901 3.59555C24.3421 2.28569 24.7181 1.63076 25.2442 1.15444C25.7096 0.732998 26.2579 0.414612 26.8535 0.220002C27.5267 -2.00917e-07 28.2787 0 29.7827 0H66.2171C67.7214 0 68.4731 -2.00917e-07 69.1466 0.220002C69.7419 0.414612 70.2903 0.732998 70.756 1.15444C71.282 1.63076 71.6578 2.28569 72.41 3.59555L90.6271 35.3274C91.3792 36.6371 91.7551 37.2924 91.9021 37.9886C92.0326 38.6048 92.0326 39.2412 91.9021 39.8574C91.7551 40.5536 91.3792 41.2089 90.6271 42.5185L72.41 74.2506C71.6578 75.5603 71.282 76.2151 70.756 76.6915C70.2903 77.1131 69.7419 77.4313 69.1466 77.6259C68.4731 77.8462 67.7214 77.8462 66.2171 77.8462H29.7827C28.2787 77.8462 27.5267 77.8462 26.8535 77.6259C26.2579 77.4313 25.7096 77.1131 25.2442 76.6915C24.7181 76.2151 24.3421 75.5603 23.5901 74.2506L5.37285 42.5185Z" fill="white"/>
</g>
<path d="M52.2051 19.5H41.2051C40.1051 19.5 39.2051 20.4 39.2051 21.5V41.5C39.2051 42.6 40.1051 43.5 41.2051 43.5H55.2051C56.3051 43.5 57.2051 42.6 57.2051 41.5V24.5L52.2051 19.5Z" fill="#F2BB41" stroke="#F2BB41" stroke-width="2" stroke-miterlimit="10" stroke-linecap="round" stroke-linejoin="round"/>
<path d="M52.2051 19.5V24.5H57.2051L52.2051 19.5Z" fill="#E08838" stroke="#E08838" stroke-width="2" stroke-miterlimit="10" stroke-linecap="round" stroke-linejoin="round"/>
<path d="M23.5097 57.5V50.45H26.4697C27.243 50.45 27.8363 50.63 28.2497 50.99C28.6697 51.3433 28.8797 51.8533 28.8797 52.52C28.8797 52.92 28.793 53.2667 28.6197 53.56C28.453 53.8467 28.213 54.0733 27.8997 54.24C27.5863 54.4 27.213 54.49 26.7797 54.51L26.8397 54.44L27.0297 54.45C27.2497 54.4633 27.4397 54.5333 27.5997 54.66C27.7663 54.78 27.923 54.97 28.0697 55.23L29.2797 57.5H28.1097L26.9197 55.28C26.8263 55.1067 26.723 54.9733 26.6097 54.88C26.503 54.7867 26.3763 54.7233 26.2297 54.69C26.0897 54.65 25.923 54.63 25.7297 54.63H24.5697V57.5H23.5097ZM24.5697 53.79H26.3397C26.8397 53.79 27.2097 53.6867 27.4497 53.48C27.6963 53.2733 27.8197 52.9633 27.8197 52.55C27.8197 52.1367 27.6963 51.83 27.4497 51.63C27.203 51.4233 26.8263 51.32 26.3197 51.32H24.5697V53.79ZM32.6444 57.59C32.0911 57.59 31.6144 57.49 31.2144 57.29C30.8144 57.0833 30.5078 56.79 30.2944 56.41C30.0811 56.0233 29.9744 55.5667 29.9744 55.04C29.9744 54.54 30.0744 54.1 30.2744 53.72C30.4811 53.3333 30.7678 53.0333 31.1344 52.82C31.5078 52.6 31.9378 52.49 32.4244 52.49C32.8978 52.49 33.3011 52.59 33.6344 52.79C33.9678 52.99 34.2244 53.2767 34.4044 53.65C34.5844 54.0167 34.6744 54.4567 34.6744 54.97V55.31H30.7944V54.64H33.9544L33.7844 54.81C33.7844 54.3033 33.6678 53.9167 33.4344 53.65C33.2078 53.3833 32.8811 53.25 32.4544 53.25C32.1478 53.25 31.8844 53.32 31.6644 53.46C31.4444 53.5933 31.2744 53.7867 31.1544 54.04C31.0344 54.2867 30.9744 54.5833 30.9744 54.93V55.02C30.9744 55.4067 31.0378 55.73 31.1644 55.99C31.2978 56.25 31.4911 56.4433 31.7444 56.57C31.9978 56.6967 32.3044 56.76 32.6644 56.76C32.9378 56.76 33.2111 56.7233 33.4844 56.65C33.7644 56.57 34.0211 56.4333 34.2544 56.24L34.5844 56.97C34.3378 57.17 34.0378 57.3233 33.6844 57.43C33.3378 57.5367 32.9911 57.59 32.6444 57.59ZM38.1187 59.39C37.6987 59.39 37.2954 59.3367 36.9087 59.23C36.5221 59.1233 36.1854 58.9667 35.8987 58.76L36.2187 57.98C36.4054 58.1 36.5987 58.2033 36.7987 58.29C37.0054 58.3767 37.2154 58.44 37.4287 58.48C37.6421 58.5267 37.8554 58.55 38.0687 58.55C38.5554 58.55 38.9254 58.43 39.1787 58.19C39.4321 57.95 39.5587 57.6 39.5587 57.14V56.22H39.5987C39.4854 56.56 39.2721 56.8367 38.9587 57.05C38.6454 57.2567 38.2821 57.36 37.8687 57.36C37.4154 57.36 37.0187 57.26 36.6787 57.06C36.3454 56.8533 36.0854 56.5667 35.8987 56.2C35.7187 55.8333 35.6287 55.4067 35.6287 54.92C35.6287 54.4333 35.7187 54.01 35.8987 53.65C36.0854 53.2833 36.3454 53 36.6787 52.8C37.0187 52.5933 37.4154 52.49 37.8687 52.49C38.2887 52.49 38.6554 52.5967 38.9687 52.81C39.2821 53.0167 39.4921 53.2967 39.5987 53.65H39.5587V52.58H40.5687V57.03C40.5687 57.5367 40.4721 57.9667 40.2787 58.32C40.0921 58.6733 39.8154 58.94 39.4487 59.12C39.0821 59.3 38.6387 59.39 38.1187 59.39ZM38.1087 56.53C38.5487 56.53 38.8954 56.3867 39.1487 56.1C39.4087 55.8067 39.5387 55.4133 39.5387 54.92C39.5387 54.4267 39.4087 54.0367 39.1487 53.75C38.8954 53.4633 38.5487 53.32 38.1087 53.32C37.6687 53.32 37.3187 53.4633 37.0587 53.75C36.8054 54.0367 36.6787 54.4267 36.6787 54.92C36.6787 55.4133 36.8054 55.8067 37.0587 56.1C37.3187 56.3867 37.6687 56.53 38.1087 56.53ZM42.0099 51.46V50.36H43.2399V51.46H42.0099ZM40.8599 59.43L40.7799 58.61L41.2399 58.56C41.5199 58.5267 41.7332 58.4333 41.8799 58.28C42.0266 58.1267 42.0999 57.89 42.0999 57.57V52.58H43.1499V57.48C43.1499 57.7867 43.1166 58.0533 43.0499 58.28C42.9832 58.5067 42.8766 58.6967 42.7299 58.85C42.5832 59.0033 42.3932 59.1233 42.1599 59.21C41.9332 59.3033 41.6566 59.3633 41.3299 59.39L40.8599 59.43ZM44.559 51.46V50.36H45.789V51.46H44.559ZM44.649 57.5V52.58H45.709V57.5H44.649ZM49.0466 57.59C48.7733 57.59 48.5066 57.5667 48.2466 57.52C47.9866 57.4733 47.7466 57.4067 47.5266 57.32C47.3133 57.2333 47.1299 57.1267 46.9766 57L47.2766 56.28C47.4433 56.3933 47.6233 56.49 47.8166 56.57C48.0166 56.65 48.2199 56.71 48.4266 56.75C48.6399 56.7833 48.8433 56.8 49.0366 56.8C49.4099 56.8 49.6933 56.7433 49.8866 56.63C50.0799 56.51 50.1766 56.3467 50.1766 56.14C50.1766 55.9667 50.1166 55.8333 49.9966 55.74C49.8833 55.6467 49.6966 55.5767 49.4366 55.53L48.4266 55.34C47.9866 55.26 47.6566 55.1067 47.4366 54.88C47.2166 54.6467 47.1066 54.3533 47.1066 54C47.1066 53.6933 47.1899 53.43 47.3566 53.21C47.5233 52.9833 47.7599 52.8067 48.0666 52.68C48.3799 52.5533 48.7466 52.49 49.1666 52.49C49.3999 52.49 49.6299 52.5133 49.8566 52.56C50.0899 52.6 50.3066 52.6633 50.5066 52.75C50.7133 52.8367 50.8833 52.9467 51.0166 53.08L50.7066 53.8C50.5733 53.6867 50.4199 53.5933 50.2466 53.52C50.0733 53.44 49.8933 53.38 49.7066 53.34C49.5266 53.3 49.3466 53.28 49.1666 53.28C48.8066 53.28 48.5333 53.34 48.3466 53.46C48.1599 53.58 48.0666 53.7467 48.0666 53.96C48.0666 54.1267 48.1199 54.26 48.2266 54.36C48.3399 54.46 48.5133 54.5333 48.7466 54.58L49.7366 54.76C50.2099 54.8467 50.5599 55 50.7866 55.22C51.0199 55.4333 51.1366 55.7233 51.1366 56.09C51.1366 56.4033 51.0499 56.6733 50.8766 56.9C50.7033 57.12 50.4599 57.29 50.1466 57.41C49.8333 57.53 49.4666 57.59 49.0466 57.59ZM54.465 57.59C53.8383 57.59 53.3683 57.43 53.055 57.11C52.7483 56.79 52.595 56.3267 52.595 55.72V53.41H51.635V52.58H52.625V51.12H53.655V52.58H55.275V53.41H53.655V55.65C53.655 56.0033 53.7316 56.27 53.885 56.45C54.045 56.6233 54.2916 56.71 54.625 56.71C54.745 56.71 54.8616 56.6967 54.975 56.67C55.0883 56.6433 55.2016 56.61 55.315 56.57L55.475 57.37C55.355 57.4433 55.2016 57.4967 55.015 57.53C54.8283 57.57 54.645 57.59 54.465 57.59ZM56.2993 57.5V52.58H57.2893V53.75H57.2393C57.3527 53.37 57.5493 53.0733 57.8293 52.86C58.116 52.6467 58.4827 52.5233 58.9293 52.49L59.3393 52.47L59.4193 53.39L58.7193 53.46C58.286 53.5 57.9527 53.64 57.7193 53.88C57.486 54.12 57.3693 54.4367 57.3693 54.83V57.5H56.2993ZM60.2425 51.46V50.36H61.4725V51.46H60.2425ZM60.3325 57.5V52.58H61.3925V57.5H60.3325ZM62.9502 57.5V52.58H63.9402V53.63H63.8902C63.9769 53.3967 64.0969 53.1967 64.2502 53.03C64.4102 52.8567 64.6002 52.7233 64.8202 52.63C65.0402 52.5367 65.2835 52.49 65.5502 52.49C65.9635 52.49 66.3035 52.59 66.5702 52.79C66.8369 52.99 67.0135 53.2733 67.1002 53.64H67.0202C67.1469 53.3 67.3602 53.0233 67.6602 52.81C67.9602 52.5967 68.3235 52.49 68.7502 52.49C69.1235 52.49 69.4335 52.5633 69.6802 52.71C69.9335 52.8567 70.1235 53.0767 70.2502 53.37C70.3769 53.6633 70.4402 54.0367 70.4402 54.49V57.5H69.3902V54.54C69.3902 54.14 69.3202 53.8433 69.1802 53.65C69.0402 53.45 68.7969 53.35 68.4502 53.35C68.1969 53.35 67.9769 53.41 67.7902 53.53C67.6035 53.6433 67.4602 53.8067 67.3602 54.02C67.2602 54.2333 67.2102 54.48 67.2102 54.76V57.5H66.1702V54.54C66.1702 54.14 66.0935 53.8433 65.9402 53.65C65.7935 53.45 65.5602 53.35 65.2402 53.35C64.9802 53.35 64.7569 53.4133 64.5702 53.54C64.3902 53.66 64.2502 53.8267 64.1502 54.04C64.0502 54.2467 64.0002 54.4833 64.0002 54.75V57.5H62.9502ZM71.8929 51.46V50.36H73.1229V51.46H71.8929ZM71.9829 57.5V52.58H73.0429V57.5H71.9829Z" fill="black"/>
<defs>
<filter id="filter0_d_8310_691" x="0" y="0" width="96" height="85.8462" filterUnits="userSpaceOnUse" color-interpolation-filters="sRGB">
<feFlood flood-opacity="0" result="BackgroundImageFix"/>
<feColorMatrix in="SourceAlpha" type="matrix" values="0 0 0 0 0 0 0 0 0 0 0 0 0 0 0 0 0 0 127 0" result="hardAlpha"/>
<feOffset dy="4"/>
<feGaussianBlur stdDeviation="2"/>
<feComposite in2="hardAlpha" operator="out"/>
<feColorMatrix type="matrix" values="0 0 0 0 0 0 0 0 0 0 0 0 0 0 0 0 0 0 0.25 0"/>
<feBlend mode="normal" in2="BackgroundImageFix" result="effect1_dropShadow_8310_691"/>
<feBlend mode="normal" in="SourceGraphic" in2="effect1_dropShadow_8310_691" result="shape"/>
</filter>
</defs>
</svg>
