<svg width="96" height="86" viewBox="0 0 96 86" fill="none" xmlns="http://www.w3.org/2000/svg">
<g filter="url(#filter0_d_8310_982)">
<path d="M5.37285 42.5185C4.62083 41.2089 4.24484 40.5536 4.09767 39.8574C3.96744 39.2412 3.96744 38.6048 4.09767 37.9886C4.24484 37.2924 4.62083 36.6371 5.37285 35.3274L23.5901 3.59555C24.3421 2.28569 24.7181 1.63076 25.2442 1.15444C25.7096 0.732998 26.2579 0.414612 26.8535 0.220002C27.5267 -2.00917e-07 28.2787 0 29.7827 0H66.2171C67.7214 0 68.4731 -2.00917e-07 69.1466 0.220002C69.7419 0.414612 70.2903 0.732998 70.756 1.15444C71.282 1.63076 71.6578 2.28569 72.41 3.59555L90.6271 35.3274C91.3792 36.6371 91.7551 37.2924 91.9021 37.9886C92.0326 38.6048 92.0326 39.2412 91.9021 39.8574C91.7551 40.5536 91.3792 41.2089 90.6271 42.5185L72.41 74.2506C71.6578 75.5603 71.282 76.2151 70.756 76.6915C70.2903 77.1131 69.7419 77.4313 69.1466 77.6259C68.4731 77.8462 67.7214 77.8462 66.2171 77.8462H29.7827C28.2787 77.8462 27.5267 77.8462 26.8535 77.6259C26.2579 77.4313 25.7096 77.1131 25.2442 76.6915C24.7181 76.2151 24.3421 75.5603 23.5901 74.2506L5.37285 42.5185Z" fill="white"/>
</g>
<path d="M46.5432 36.1574L36.0476 25.6618C35.1147 24.7288 35.1147 23.2711 36.0476 22.3382L46.5432 11.8425C47.4762 10.9096 48.9339 10.9096 49.8669 11.8425L60.3625 22.3382C61.2954 23.2711 61.2954 24.7288 60.3625 25.6618L49.8669 36.1574C48.9339 37.0903 47.4179 37.0903 46.5432 36.1574Z" fill="#F2BB41"/>
<path d="M48.1754 25.1948C48.8195 25.1948 49.3416 24.6727 49.3416 24.0287C49.3416 23.3846 48.8195 22.8625 48.1754 22.8625C47.5314 22.8625 47.0093 23.3846 47.0093 24.0287C47.0093 24.6727 47.5314 25.1948 48.1754 25.1948Z" fill="#E08838"/>
<path d="M52.84 25.1948C53.484 25.1948 54.0061 24.6727 54.0061 24.0287C54.0061 23.3846 53.484 22.8625 52.84 22.8625C52.1959 22.8625 51.6738 23.3846 51.6738 24.0287C51.6738 24.6727 52.1959 25.1948 52.84 25.1948Z" fill="#E08838"/>
<path d="M43.5109 25.1948C44.1549 25.1948 44.677 24.6727 44.677 24.0287C44.677 23.3846 44.1549 22.8625 43.5109 22.8625C42.8668 22.8625 42.3447 23.3846 42.3447 24.0287C42.3447 24.6727 42.8668 25.1948 43.5109 25.1948Z" fill="#E08838"/>
<path d="M22.0546 50V42.95H25.0246C25.5312 42.95 25.9646 43.0367 26.3246 43.21C26.6846 43.3767 26.9579 43.62 27.1446 43.94C27.3312 44.26 27.4246 44.65 27.4246 45.11C27.4246 45.5567 27.3279 45.9433 27.1346 46.27C26.9479 46.5967 26.6746 46.85 26.3146 47.03C25.9612 47.2033 25.5312 47.29 25.0246 47.29H23.1146V50H22.0546ZM23.1146 46.41H24.8646C25.3579 46.41 25.7312 46.3033 25.9846 46.09C26.2446 45.87 26.3746 45.5433 26.3746 45.11C26.3746 44.6833 26.2479 44.3633 25.9946 44.15C25.7412 43.93 25.3646 43.82 24.8646 43.82H23.1146V46.41ZM30.7499 50.09C30.1966 50.09 29.7199 49.99 29.3199 49.79C28.9199 49.5833 28.6132 49.29 28.3999 48.91C28.1866 48.5233 28.0799 48.0667 28.0799 47.54C28.0799 47.04 28.1799 46.6 28.3799 46.22C28.5866 45.8333 28.8732 45.5333 29.2399 45.32C29.6132 45.1 30.0432 44.99 30.5299 44.99C31.0032 44.99 31.4066 45.09 31.7399 45.29C32.0732 45.49 32.3299 45.7767 32.5099 46.15C32.6899 46.5167 32.7799 46.9567 32.7799 47.47V47.81H28.8999V47.14H32.0599L31.8899 47.31C31.8899 46.8033 31.7732 46.4167 31.5399 46.15C31.3132 45.8833 30.9866 45.75 30.5599 45.75C30.2532 45.75 29.9899 45.82 29.7699 45.96C29.5499 46.0933 29.3799 46.2867 29.2599 46.54C29.1399 46.7867 29.0799 47.0833 29.0799 47.43V47.52C29.0799 47.9067 29.1432 48.23 29.2699 48.49C29.4032 48.75 29.5966 48.9433 29.8499 49.07C30.1032 49.1967 30.4099 49.26 30.7699 49.26C31.0432 49.26 31.3166 49.2233 31.5899 49.15C31.8699 49.07 32.1266 48.9333 32.3599 48.74L32.6899 49.47C32.4432 49.67 32.1432 49.8233 31.7899 49.93C31.4432 50.0367 31.0966 50.09 30.7499 50.09ZM30.9699 43.96V42.9H32.0299V43.96H30.9699ZM29.0499 43.96V42.9H30.1099V43.96H29.0499ZM34.0142 50V45.08H35.0042V46.25H34.9542C35.0675 45.87 35.2642 45.5733 35.5442 45.36C35.8309 45.1467 36.1975 45.0233 36.6442 44.99L37.0542 44.97L37.1342 45.89L36.4342 45.96C36.0009 46 35.6675 46.14 35.4342 46.38C35.2009 46.62 35.0842 46.9367 35.0842 47.33V50H34.0142ZM38.0474 51.8V45.08H39.0474V46.15H38.9974C39.1241 45.79 39.3441 45.5067 39.6574 45.3C39.9707 45.0933 40.3407 44.99 40.7674 44.99C41.2074 44.99 41.5941 45.0967 41.9274 45.31C42.2607 45.5167 42.5174 45.81 42.6974 46.19C42.8774 46.57 42.9674 47.02 42.9674 47.54C42.9674 48.0467 42.8774 48.4933 42.6974 48.88C42.5174 49.2667 42.2641 49.5667 41.9374 49.78C41.6107 49.9867 41.2207 50.09 40.7674 50.09C40.3474 50.09 39.9841 49.99 39.6774 49.79C39.3774 49.5833 39.1674 49.3133 39.0474 48.98H39.1074V51.8H38.0474ZM40.4974 49.27C40.9307 49.27 41.2741 49.12 41.5274 48.82C41.7874 48.5133 41.9174 48.0833 41.9174 47.53C41.9174 46.9833 41.7907 46.5633 41.5374 46.27C41.2841 45.97 40.9374 45.82 40.4974 45.82C40.0641 45.82 39.7207 45.97 39.4674 46.27C39.2141 46.5633 39.0874 46.9833 39.0874 47.53C39.0874 48.0833 39.2141 48.5133 39.4674 48.82C39.7274 49.12 40.0707 49.27 40.4974 49.27ZM45.859 50.09C45.5124 50.09 45.199 50.0233 44.919 49.89C44.639 49.7567 44.419 49.5767 44.259 49.35C44.1057 49.1167 44.029 48.8567 44.029 48.57C44.029 48.2033 44.1257 47.9133 44.319 47.7C44.519 47.4867 44.8357 47.3333 45.269 47.24C45.7024 47.14 46.2757 47.09 46.989 47.09H47.569V47.75H47.019C46.659 47.75 46.3557 47.7633 46.109 47.79C45.8624 47.81 45.6624 47.85 45.509 47.91C45.3557 47.97 45.2424 48.05 45.169 48.15C45.1024 48.2433 45.069 48.3633 45.069 48.51C45.069 48.7633 45.159 48.9633 45.339 49.11C45.5257 49.25 45.769 49.32 46.069 49.32C46.329 49.32 46.559 49.2633 46.759 49.15C46.959 49.03 47.119 48.87 47.239 48.67C47.359 48.4633 47.419 48.2333 47.419 47.98V46.85C47.419 46.4767 47.3257 46.21 47.139 46.05C46.959 45.89 46.6757 45.81 46.289 45.81C46.0024 45.81 45.7157 45.85 45.429 45.93C45.149 46.01 44.8557 46.14 44.549 46.32L44.229 45.58C44.4224 45.4533 44.6357 45.3467 44.869 45.26C45.109 45.1733 45.3557 45.1067 45.609 45.06C45.869 45.0133 46.1224 44.99 46.369 44.99C46.8157 44.99 47.1924 45.06 47.499 45.2C47.8057 45.34 48.039 45.5533 48.199 45.84C48.359 46.1267 48.439 46.5 48.439 46.96V50H47.489V48.93H47.529C47.4557 49.1567 47.3424 49.36 47.189 49.54C47.0357 49.7133 46.8457 49.85 46.619 49.95C46.399 50.0433 46.1457 50.09 45.859 50.09ZM49.9615 50V45.08H50.9515V46.25H50.9015C51.0148 45.87 51.2115 45.5733 51.4915 45.36C51.7781 45.1467 52.1448 45.0233 52.5915 44.99L53.0015 44.97L53.0815 45.89L52.3815 45.96C51.9481 46 51.6148 46.14 51.3815 46.38C51.1481 46.62 51.0315 46.9367 51.0315 47.33V50H49.9615ZM56.3163 50.09C55.763 50.09 55.2863 49.99 54.8863 49.79C54.4863 49.5833 54.1796 49.29 53.9663 48.91C53.753 48.5233 53.6463 48.0667 53.6463 47.54C53.6463 47.04 53.7463 46.6 53.9463 46.22C54.153 45.8333 54.4396 45.5333 54.8063 45.32C55.1796 45.1 55.6096 44.99 56.0963 44.99C56.5696 44.99 56.973 45.09 57.3063 45.29C57.6396 45.49 57.8963 45.7767 58.0763 46.15C58.2563 46.5167 58.3463 46.9567 58.3463 47.47V47.81H54.4663V47.14H57.6263L57.4563 47.31C57.4563 46.8033 57.3396 46.4167 57.1063 46.15C56.8796 45.8833 56.553 45.75 56.1263 45.75C55.8196 45.75 55.5563 45.82 55.3363 45.96C55.1163 46.0933 54.9463 46.2867 54.8263 46.54C54.7063 46.7867 54.6463 47.0833 54.6463 47.43V47.52C54.6463 47.9067 54.7096 48.23 54.8363 48.49C54.9696 48.75 55.163 48.9433 55.4163 49.07C55.6696 49.1967 55.9763 49.26 56.3363 49.26C56.6096 49.26 56.883 49.2233 57.1563 49.15C57.4363 49.07 57.693 48.9333 57.9263 48.74L58.2563 49.47C58.0096 49.67 57.7096 49.8233 57.3563 49.93C57.0096 50.0367 56.663 50.09 56.3163 50.09ZM56.5363 43.96V42.9H57.5963V43.96H56.5363ZM54.6163 43.96V42.9H55.6763V43.96H54.6163ZM61.3806 50.09C61.1073 50.09 60.8406 50.0667 60.5806 50.02C60.3206 49.9733 60.0806 49.9067 59.8606 49.82C59.6473 49.7333 59.4639 49.6267 59.3106 49.5L59.6106 48.78C59.7773 48.8933 59.9573 48.99 60.1506 49.07C60.3506 49.15 60.5539 49.21 60.7606 49.25C60.9739 49.2833 61.1773 49.3 61.3706 49.3C61.7439 49.3 62.0273 49.2433 62.2206 49.13C62.4139 49.01 62.5106 48.8467 62.5106 48.64C62.5106 48.4667 62.4506 48.3333 62.3306 48.24C62.2173 48.1467 62.0306 48.0767 61.7706 48.03L60.7606 47.84C60.3206 47.76 59.9906 47.6067 59.7706 47.38C59.5506 47.1467 59.4406 46.8533 59.4406 46.5C59.4406 46.1933 59.5239 45.93 59.6906 45.71C59.8573 45.4833 60.0939 45.3067 60.4006 45.18C60.7139 45.0533 61.0806 44.99 61.5006 44.99C61.7339 44.99 61.9639 45.0133 62.1906 45.06C62.4239 45.1 62.6406 45.1633 62.8406 45.25C63.0473 45.3367 63.2173 45.4467 63.3506 45.58L63.0406 46.3C62.9073 46.1867 62.7539 46.0933 62.5806 46.02C62.4073 45.94 62.2273 45.88 62.0406 45.84C61.8606 45.8 61.6806 45.78 61.5006 45.78C61.1406 45.78 60.8673 45.84 60.6806 45.96C60.4939 46.08 60.4006 46.2467 60.4006 46.46C60.4006 46.6267 60.4539 46.76 60.5606 46.86C60.6739 46.96 60.8473 47.0333 61.0806 47.08L62.0706 47.26C62.5439 47.3467 62.8939 47.5 63.1206 47.72C63.3539 47.9333 63.4706 48.2233 63.4706 48.59C63.4706 48.9033 63.3839 49.1733 63.2106 49.4C63.0373 49.62 62.7939 49.79 62.4806 49.91C62.1673 50.03 61.8006 50.09 61.3806 50.09ZM64.6078 43.96V42.86H65.8378V43.96H64.6078ZM64.6978 50V45.08H65.7578V50H64.6978ZM70.3096 50V49.1H72.0396V43.83L72.5796 43.86L70.6596 45.06L70.2196 44.26L72.3296 42.95H73.0996V49.1H74.7096V50H70.3096Z" fill="black"/>
<path d="M24.6815 65V57.95H25.7415V61.1H25.7815L29.0115 57.95H30.3415L26.5215 61.64L26.5615 61.1L30.5515 65H29.1815L25.7815 61.71H25.7415V65H24.6815ZM32.8219 65.09C32.4753 65.09 32.1619 65.0233 31.8819 64.89C31.6019 64.7567 31.3819 64.5767 31.2219 64.35C31.0686 64.1167 30.9919 63.8567 30.9919 63.57C30.9919 63.2033 31.0886 62.9133 31.2819 62.7C31.4819 62.4867 31.7986 62.3333 32.2319 62.24C32.6653 62.14 33.2386 62.09 33.9519 62.09H34.5319V62.75H33.9819C33.6219 62.75 33.3186 62.7633 33.0719 62.79C32.8253 62.81 32.6253 62.85 32.4719 62.91C32.3186 62.97 32.2053 63.05 32.1319 63.15C32.0653 63.2433 32.0319 63.3633 32.0319 63.51C32.0319 63.7633 32.1219 63.9633 32.3019 64.11C32.4886 64.25 32.7319 64.32 33.0319 64.32C33.2919 64.32 33.5219 64.2633 33.7219 64.15C33.9219 64.03 34.0819 63.87 34.2019 63.67C34.3219 63.4633 34.3819 63.2333 34.3819 62.98V61.85C34.3819 61.4767 34.2886 61.21 34.1019 61.05C33.9219 60.89 33.6386 60.81 33.2519 60.81C32.9653 60.81 32.6786 60.85 32.3919 60.93C32.1119 61.01 31.8186 61.14 31.5119 61.32L31.1919 60.58C31.3853 60.4533 31.5986 60.3467 31.8319 60.26C32.0719 60.1733 32.3186 60.1067 32.5719 60.06C32.8319 60.0133 33.0853 59.99 33.3319 59.99C33.7786 59.99 34.1553 60.06 34.4619 60.2C34.7686 60.34 35.0019 60.5533 35.1619 60.84C35.3219 61.1267 35.4019 61.5 35.4019 61.96V65H34.4519V63.93H34.4919C34.4186 64.1567 34.3053 64.36 34.1519 64.54C33.9986 64.7133 33.8086 64.85 33.5819 64.95C33.3619 65.0433 33.1086 65.09 32.8219 65.09ZM36.9243 66.8V60.08H37.9243V61.15H37.8743C38.001 60.79 38.221 60.5067 38.5343 60.3C38.8477 60.0933 39.2177 59.99 39.6443 59.99C40.0843 59.99 40.471 60.0967 40.8043 60.31C41.1377 60.5167 41.3943 60.81 41.5743 61.19C41.7543 61.57 41.8443 62.02 41.8443 62.54C41.8443 63.0467 41.7543 63.4933 41.5743 63.88C41.3943 64.2667 41.141 64.5667 40.8143 64.78C40.4877 64.9867 40.0977 65.09 39.6443 65.09C39.2243 65.09 38.861 64.99 38.5543 64.79C38.2543 64.5833 38.0443 64.3133 37.9243 63.98H37.9843V66.8H36.9243ZM39.3743 64.27C39.8077 64.27 40.151 64.12 40.4043 63.82C40.6643 63.5133 40.7943 63.0833 40.7943 62.53C40.7943 61.9833 40.6677 61.5633 40.4143 61.27C40.161 60.97 39.8143 60.82 39.3743 60.82C38.941 60.82 38.5977 60.97 38.3443 61.27C38.091 61.5633 37.9643 61.9833 37.9643 62.53C37.9643 63.0833 38.091 63.5133 38.3443 63.82C38.6043 64.12 38.9477 64.27 39.3743 64.27ZM43.016 58.96V57.86H44.246V58.96H43.016ZM43.106 65V60.08H44.166V65H43.106ZM47.8536 65.09C47.227 65.09 46.757 64.93 46.4436 64.61C46.137 64.29 45.9836 63.8267 45.9836 63.22V60.91H45.0236V60.08H46.0136V58.62H47.0436V60.08H48.6636V60.91H47.0436V63.15C47.0436 63.5033 47.1203 63.77 47.2736 63.95C47.4336 64.1233 47.6803 64.21 48.0136 64.21C48.1336 64.21 48.2503 64.1967 48.3636 64.17C48.477 64.1433 48.5903 64.11 48.7036 64.07L48.8636 64.87C48.7436 64.9433 48.5903 64.9967 48.4036 65.03C48.217 65.07 48.0336 65.09 47.8536 65.09ZM51.498 65.09C51.0914 65.09 50.7514 65.0167 50.478 64.87C50.2114 64.7233 50.008 64.5033 49.868 64.21C49.7347 63.91 49.668 63.5367 49.668 63.09V60.08H50.718V63.07C50.718 63.3167 50.7514 63.53 50.818 63.71C50.8914 63.8833 51.0047 64.0133 51.158 64.1C51.318 64.1867 51.5147 64.23 51.748 64.23C52.008 64.23 52.2347 64.17 52.428 64.05C52.628 63.93 52.7847 63.7667 52.898 63.56C53.018 63.3467 53.078 63.1067 53.078 62.84V60.08H54.128V65H53.128V63.93H53.198C53.0447 64.3033 52.8214 64.59 52.528 64.79C52.2414 64.99 51.898 65.09 51.498 65.09ZM57.2646 65.09C56.7379 65.09 56.3379 64.9433 56.0646 64.65C55.7979 64.35 55.6646 63.9233 55.6646 63.37V57.95H56.7246V63.29C56.7246 63.49 56.7512 63.6633 56.8046 63.81C56.8646 63.95 56.9512 64.0567 57.0646 64.13C57.1779 64.1967 57.3179 64.23 57.4846 64.23C57.5712 64.23 57.6546 64.2267 57.7346 64.22C57.8146 64.2067 57.8979 64.19 57.9846 64.17L57.9946 64.99C57.8746 65.0233 57.7546 65.0467 57.6346 65.06C57.5212 65.08 57.3979 65.09 57.2646 65.09ZM60.4677 65.09C59.941 65.09 59.541 64.9433 59.2677 64.65C59.001 64.35 58.8677 63.9233 58.8677 63.37V57.95H59.9277V63.29C59.9277 63.49 59.9544 63.6633 60.0077 63.81C60.0677 63.95 60.1544 64.0567 60.2677 64.13C60.381 64.1967 60.521 64.23 60.6877 64.23C60.7744 64.23 60.8577 64.2267 60.9377 64.22C61.0177 64.2067 61.101 64.19 61.1877 64.17L61.1977 64.99C61.0777 65.0233 60.9577 65.0467 60.8377 65.06C60.7244 65.08 60.601 65.09 60.4677 65.09ZM61.9808 58.96V57.86H63.2108V58.96H61.9808ZM62.0708 65V60.08H63.1308V65H62.0708ZM69.7226 65.09C69.416 65.09 69.116 65.06 68.8226 65C68.536 64.9333 68.266 64.8367 68.0126 64.71C67.766 64.5833 67.546 64.4333 67.3526 64.26L67.7326 63.44C68.0393 63.6933 68.356 63.88 68.6826 64C69.0093 64.12 69.3526 64.18 69.7126 64.18C70.1726 64.18 70.5326 64.06 70.7926 63.82C71.0526 63.58 71.1826 63.2533 71.1826 62.84C71.1826 62.4133 71.0593 62.0733 70.8126 61.82C70.566 61.5667 70.226 61.44 69.7926 61.44C69.4926 61.44 69.2226 61.5 68.9826 61.62C68.7493 61.7333 68.5326 61.92 68.3326 62.18H67.5626V57.95H71.8126V58.85H68.5626V61.33H68.3926C68.5593 61.09 68.7826 60.9 69.0626 60.76C69.3493 60.62 69.666 60.55 70.0126 60.55C70.4593 60.55 70.846 60.6467 71.1726 60.84C71.4993 61.0267 71.7526 61.2867 71.9326 61.62C72.1126 61.9533 72.2026 62.3433 72.2026 62.79C72.2026 63.25 72.1026 63.6533 71.9026 64C71.7026 64.3467 71.416 64.6167 71.0426 64.81C70.6693 64.9967 70.2293 65.09 69.7226 65.09Z" fill="#667085"/>
<defs>
<filter id="filter0_d_8310_982" x="0" y="0" width="96" height="85.8462" filterUnits="userSpaceOnUse" color-interpolation-filters="sRGB">
<feFlood flood-opacity="0" result="BackgroundImageFix"/>
<feColorMatrix in="SourceAlpha" type="matrix" values="0 0 0 0 0 0 0 0 0 0 0 0 0 0 0 0 0 0 127 0" result="hardAlpha"/>
<feOffset dy="4"/>
<feGaussianBlur stdDeviation="2"/>
<feComposite in2="hardAlpha" operator="out"/>
<feColorMatrix type="matrix" values="0 0 0 0 0 0 0 0 0 0 0 0 0 0 0 0 0 0 0.25 0"/>
<feBlend mode="normal" in2="BackgroundImageFix" result="effect1_dropShadow_8310_982"/>
<feBlend mode="normal" in="SourceGraphic" in2="effect1_dropShadow_8310_982" result="shape"/>
</filter>
</defs>
</svg>
