<svg width="102" height="86" viewBox="0 0 102 86" fill="none" xmlns="http://www.w3.org/2000/svg">
<g filter="url(#filter0_d_8334_734)">
<path d="M5.45148 42.5206C4.65639 41.2109 4.25887 40.5556 4.10327 39.8593C3.96558 39.2431 3.96558 38.6067 4.10327 37.9905C4.25887 37.2942 4.65639 36.6389 5.45148 35.3292L24.7122 3.59573C25.5072 2.2858 25.9047 1.63084 26.4609 1.1545C26.953 0.733034 27.5327 0.414632 28.1625 0.220013C28.8742 -2.00927e-07 29.6693 0 31.2595 0H69.7806C71.3711 0 72.1659 -2.00927e-07 72.8779 0.220013C73.5073 0.414632 74.0871 0.733034 74.5794 1.1545C75.1356 1.63084 75.533 2.2858 76.3282 3.59573L95.5887 35.3292C96.3839 36.6389 96.7813 37.2942 96.9368 37.9905C97.0747 38.6067 97.0747 39.2431 96.9368 39.8593C96.7813 40.5556 96.3839 41.2109 95.5887 42.5206L76.3282 74.2543C75.533 75.564 75.1356 76.2189 74.5794 76.6953C74.0871 77.1169 73.5073 77.4351 72.8779 77.6298C72.1659 77.85 71.3711 77.85 69.7806 77.85H31.2595C29.6693 77.85 28.8742 77.85 28.1625 77.6298C27.5327 77.4351 26.953 77.1169 26.4609 76.6953C25.9047 76.2189 25.5072 75.564 24.7122 74.2543L5.45148 42.5206Z" fill="white"/>
</g>
<path d="M60.9148 19.8521H41.9502C41.7451 19.8527 41.5486 19.9345 41.4035 20.0796C41.2585 20.2246 41.1767 20.4211 41.176 20.6262V43.6924C41.1769 43.897 41.259 44.0928 41.4041 44.237C41.5492 44.3812 41.7456 44.4619 41.9502 44.4614H60.9148C61.0158 44.4616 61.1159 44.4418 61.2093 44.4032C61.3026 44.3646 61.3875 44.3079 61.4589 44.2365C61.5303 44.165 61.587 44.0802 61.6256 43.9868C61.6642 43.8935 61.684 43.7934 61.6838 43.6924V20.6262C61.6843 20.4216 61.6036 20.2252 61.4594 20.0801C61.3153 19.9349 61.1194 19.8529 60.9148 19.8521ZM50.4045 40.3803H45.2776C45.0736 40.3803 44.878 40.2993 44.7338 40.1551C44.5896 40.0109 44.5085 39.8153 44.5085 39.6113C44.5085 39.4073 44.5896 39.2117 44.7338 39.0675C44.878 38.9233 45.0736 38.8422 45.2776 38.8422H50.4045C51.4142 38.858 51.4168 40.3642 50.4045 40.3803ZM50.4045 34.7407H45.2776C45.0736 34.7407 44.878 34.6597 44.7338 34.5154C44.5896 34.3712 44.5085 34.1756 44.5085 33.9716C44.5085 33.7677 44.5896 33.5721 44.7338 33.4278C44.878 33.2836 45.0736 33.2026 45.2776 33.2026H50.4045C51.4142 33.2183 51.4168 34.7245 50.4045 34.7407ZM52.4758 28.5679C52.4608 29.5777 50.9534 29.5796 50.9377 28.5678V24.5842C50.9387 23.9417 51.1947 23.3259 51.6494 22.8719C52.104 22.4179 52.7203 22.1629 53.3628 22.1629C54.0053 22.1629 54.6215 22.4179 55.0762 22.8719C55.5309 23.3259 55.7868 23.9417 55.7878 24.5842V28.5679C55.7713 29.5784 54.2663 29.5795 54.2497 28.5678V27.486H52.4758V28.5679ZM58.1257 38.8935L55.6033 41.416C55.5328 41.4886 55.4483 41.546 55.3548 41.5848C55.2614 41.6236 55.161 41.6429 55.0598 41.6416C54.9588 41.6419 54.8587 41.6222 54.7654 41.5834C54.6721 41.5447 54.5874 41.4878 54.5164 41.416L53.4499 40.3496C52.7516 39.6261 53.8134 38.5545 54.5369 39.2626L55.0598 39.7855L57.0388 37.8066C57.77 37.108 58.8309 38.1719 58.1257 38.8935ZM58.1257 33.2539L55.6033 35.7763C55.5328 35.8489 55.4483 35.9063 55.3548 35.9451C55.2614 35.9839 55.161 36.0033 55.0598 36.0019C54.9588 36.0023 54.8587 35.9825 54.7654 35.9438C54.6721 35.9051 54.5874 35.8481 54.5164 35.7763L53.4499 34.7099C52.7516 33.9864 53.8134 32.9148 54.5369 33.623L55.0598 34.1459L57.0388 32.167C57.77 31.4683 58.8309 32.5322 58.1257 33.2539Z" fill="#F2BB41"/>
<path d="M54.2497 24.5841C54.2491 24.3493 54.1554 24.1243 53.9892 23.9584C53.8229 23.7926 53.5976 23.6995 53.3628 23.6995C53.1279 23.6995 52.9027 23.7926 52.7364 23.9584C52.5701 24.1243 52.4764 24.3493 52.4758 24.5841V25.9479H54.2497V24.5841Z" fill="#F2BB41"/>
<path d="M20.255 58.1567V51.1067H23.225C23.7316 51.1067 24.165 51.1934 24.525 51.3667C24.885 51.5334 25.1583 51.7767 25.345 52.0967C25.5316 52.4167 25.625 52.8067 25.625 53.2667C25.625 53.7134 25.5283 54.1001 25.335 54.4267C25.1483 54.7534 24.875 55.0067 24.515 55.1867C24.1616 55.3601 23.7316 55.4467 23.225 55.4467H21.315V58.1567H20.255ZM21.315 54.5667H23.065C23.5583 54.5667 23.9316 54.4601 24.185 54.2467C24.445 54.0267 24.575 53.7001 24.575 53.2667C24.575 52.8401 24.4483 52.5201 24.195 52.3067C23.9416 52.0867 23.565 51.9767 23.065 51.9767H21.315V54.5667ZM28.1805 58.2467C27.8339 58.2467 27.5205 58.1801 27.2405 58.0467C26.9605 57.9134 26.7405 57.7334 26.5805 57.5067C26.4272 57.2734 26.3505 57.0134 26.3505 56.7267C26.3505 56.3601 26.4472 56.0701 26.6405 55.8567C26.8405 55.6434 27.1572 55.4901 27.5905 55.3967C28.0239 55.2967 28.5972 55.2467 29.3105 55.2467H29.8905V55.9067H29.3405C28.9805 55.9067 28.6772 55.9201 28.4305 55.9467C28.1839 55.9667 27.9839 56.0067 27.8305 56.0667C27.6772 56.1267 27.5639 56.2067 27.4905 56.3067C27.4239 56.4001 27.3905 56.5201 27.3905 56.6667C27.3905 56.9201 27.4805 57.1201 27.6605 57.2667C27.8472 57.4067 28.0905 57.4767 28.3905 57.4767C28.6505 57.4767 28.8805 57.4201 29.0805 57.3067C29.2805 57.1867 29.4405 57.0267 29.5605 56.8267C29.6805 56.6201 29.7405 56.3901 29.7405 56.1367V55.0067C29.7405 54.6334 29.6472 54.3667 29.4605 54.2067C29.2805 54.0467 28.9972 53.9667 28.6105 53.9667C28.3239 53.9667 28.0372 54.0067 27.7505 54.0867C27.4705 54.1667 27.1772 54.2967 26.8705 54.4767L26.5505 53.7367C26.7439 53.6101 26.9572 53.5034 27.1905 53.4167C27.4305 53.3301 27.6772 53.2634 27.9305 53.2167C28.1905 53.1701 28.4439 53.1467 28.6905 53.1467C29.1372 53.1467 29.5139 53.2167 29.8205 53.3567C30.1272 53.4967 30.3605 53.7101 30.5205 53.9967C30.6805 54.2834 30.7605 54.6567 30.7605 55.1167V58.1567H29.8105V57.0867H29.8505C29.7772 57.3134 29.6639 57.5167 29.5105 57.6967C29.3572 57.8701 29.1672 58.0067 28.9405 58.1067C28.7205 58.2001 28.4672 58.2467 28.1805 58.2467ZM32.2829 58.1567V53.2367H33.2729V54.4067H33.2229C33.3363 54.0267 33.5329 53.7301 33.8129 53.5167C34.0996 53.3034 34.4663 53.1801 34.9129 53.1467L35.3229 53.1267L35.4029 54.0467L34.7029 54.1167C34.2696 54.1567 33.9363 54.2967 33.7029 54.5367C33.4696 54.7767 33.3529 55.0934 33.3529 55.4867V58.1567H32.2829ZM37.8973 58.2467C37.5506 58.2467 37.2373 58.1801 36.9573 58.0467C36.6773 57.9134 36.4573 57.7334 36.2973 57.5067C36.144 57.2734 36.0673 57.0134 36.0673 56.7267C36.0673 56.3601 36.164 56.0701 36.3573 55.8567C36.5573 55.6434 36.874 55.4901 37.3073 55.3967C37.7406 55.2967 38.314 55.2467 39.0273 55.2467H39.6073V55.9067H39.0573C38.6973 55.9067 38.394 55.9201 38.1473 55.9467C37.9006 55.9667 37.7006 56.0067 37.5473 56.0667C37.394 56.1267 37.2806 56.2067 37.2073 56.3067C37.1406 56.4001 37.1073 56.5201 37.1073 56.6667C37.1073 56.9201 37.1973 57.1201 37.3773 57.2667C37.564 57.4067 37.8073 57.4767 38.1073 57.4767C38.3673 57.4767 38.5973 57.4201 38.7973 57.3067C38.9973 57.1867 39.1573 57.0267 39.2773 56.8267C39.3973 56.6201 39.4573 56.3901 39.4573 56.1367V55.0067C39.4573 54.6334 39.364 54.3667 39.1773 54.2067C38.9973 54.0467 38.714 53.9667 38.3273 53.9667C38.0406 53.9667 37.754 54.0067 37.4673 54.0867C37.1873 54.1667 36.894 54.2967 36.5873 54.4767L36.2673 53.7367C36.4606 53.6101 36.674 53.5034 36.9073 53.4167C37.1473 53.3301 37.394 53.2634 37.6473 53.2167C37.9073 53.1701 38.1606 53.1467 38.4073 53.1467C38.854 53.1467 39.2306 53.2167 39.5373 53.3567C39.844 53.4967 40.0773 53.7101 40.2373 53.9967C40.3973 54.2834 40.4773 54.6567 40.4773 55.1167V58.1567H39.5273V57.0867H39.5673C39.494 57.3134 39.3806 57.5167 39.2273 57.6967C39.074 57.8701 38.884 58.0067 38.6573 58.1067C38.4373 58.2001 38.184 58.2467 37.8973 58.2467ZM44.7439 59.9567V53.2367H45.7439V54.3067H45.6939C45.8205 53.9467 46.0405 53.6634 46.3539 53.4567C46.6672 53.2501 47.0372 53.1467 47.4639 53.1467C47.9039 53.1467 48.2905 53.2534 48.6239 53.4667C48.9572 53.6734 49.2139 53.9667 49.3939 54.3467C49.5739 54.7267 49.6639 55.1767 49.6639 55.6967C49.6639 56.2034 49.5739 56.6501 49.3939 57.0367C49.2139 57.4234 48.9605 57.7234 48.6339 57.9367C48.3072 58.1434 47.9172 58.2467 47.4639 58.2467C47.0439 58.2467 46.6805 58.1467 46.3739 57.9467C46.0739 57.7401 45.8639 57.4701 45.7439 57.1367H45.8039V59.9567H44.7439ZM47.1939 57.4267C47.6272 57.4267 47.9705 57.2767 48.2239 56.9767C48.4839 56.6701 48.6139 56.2401 48.6139 55.6867C48.6139 55.1401 48.4872 54.7201 48.2339 54.4267C47.9805 54.1267 47.6339 53.9767 47.1939 53.9767C46.7605 53.9767 46.4172 54.1267 46.1639 54.4267C45.9105 54.7201 45.7839 55.1401 45.7839 55.6867C45.7839 56.2401 45.9105 56.6701 46.1639 56.9767C46.4239 57.2767 46.7672 57.4267 47.1939 57.4267ZM50.9255 58.1567V53.2367H51.9155V54.4067H51.8655C51.9789 54.0267 52.1755 53.7301 52.4555 53.5167C52.7422 53.3034 53.1089 53.1801 53.5555 53.1467L53.9655 53.1267L54.0455 54.0467L53.3455 54.1167C52.9122 54.1567 52.5789 54.2967 52.3455 54.5367C52.1122 54.7767 51.9955 55.0934 51.9955 55.4867V58.1567H50.9255ZM57.0704 58.2467C56.5704 58.2467 56.1337 58.1434 55.7604 57.9367C55.3937 57.7234 55.1104 57.4267 54.9104 57.0467C54.7104 56.6601 54.6104 56.2101 54.6104 55.6967C54.6104 55.1767 54.7104 54.7267 54.9104 54.3467C55.1104 53.9667 55.3937 53.6734 55.7604 53.4667C56.1337 53.2534 56.5704 53.1467 57.0704 53.1467C57.577 53.1467 58.0137 53.2534 58.3804 53.4667C58.747 53.6734 59.0304 53.9667 59.2304 54.3467C59.4304 54.7267 59.5304 55.1767 59.5304 55.6967C59.5304 56.2101 59.4304 56.6601 59.2304 57.0467C59.0304 57.4267 58.747 57.7234 58.3804 57.9367C58.0137 58.1434 57.577 58.2467 57.0704 58.2467ZM57.0704 57.4067C57.5037 57.4067 57.847 57.2567 58.1004 56.9567C58.3537 56.6567 58.4804 56.2334 58.4804 55.6867C58.4804 55.1401 58.3537 54.7201 58.1004 54.4267C57.847 54.1334 57.5037 53.9867 57.0704 53.9867C56.637 53.9867 56.2937 54.1334 56.0404 54.4267C55.787 54.7201 55.6604 55.1401 55.6604 55.6867C55.6604 56.2334 55.787 56.6567 56.0404 56.9567C56.2937 57.2567 56.637 57.4067 57.0704 57.4067ZM62.1109 58.1567L60.0209 53.2367H61.1409L62.7109 57.2067H62.5409L64.1309 53.2367H65.2109L63.1009 58.1567H62.1109ZM65.9625 52.1167V51.0167H67.1925V52.1167H65.9625ZM66.0525 58.1567V53.2367H67.1125V58.1567H66.0525ZM68.6701 58.1567V53.2367H69.6601V54.2867H69.6101C69.6968 54.0534 69.8168 53.8534 69.9701 53.6867C70.1301 53.5134 70.3201 53.3801 70.5401 53.2867C70.7601 53.1934 71.0035 53.1467 71.2701 53.1467C71.6835 53.1467 72.0235 53.2467 72.2901 53.4467C72.5568 53.6467 72.7335 53.9301 72.8201 54.2967H72.7401C72.8668 53.9567 73.0801 53.6801 73.3801 53.4667C73.6801 53.2534 74.0435 53.1467 74.4701 53.1467C74.8435 53.1467 75.1535 53.2201 75.4001 53.3667C75.6535 53.5134 75.8435 53.7334 75.9701 54.0267C76.0968 54.3201 76.1601 54.6934 76.1601 55.1467V58.1567H75.1101V55.1967C75.1101 54.7967 75.0401 54.5001 74.9001 54.3067C74.7601 54.1067 74.5168 54.0067 74.1701 54.0067C73.9168 54.0067 73.6968 54.0667 73.5101 54.1867C73.3235 54.3001 73.1801 54.4634 73.0801 54.6767C72.9801 54.8901 72.9301 55.1367 72.9301 55.4167V58.1567H71.8901V55.1967C71.8901 54.7967 71.8135 54.5001 71.6601 54.3067C71.5135 54.1067 71.2801 54.0067 70.9601 54.0067C70.7001 54.0067 70.4768 54.0701 70.2901 54.1967C70.1101 54.3167 69.9701 54.4834 69.8701 54.6967C69.7701 54.9034 69.7201 55.1401 69.7201 55.4067V58.1567H68.6701ZM77.6129 52.1167V51.0167H78.8429V52.1167H77.6129ZM77.7029 58.1567V53.2367H78.7629V58.1567H77.7029ZM82.4505 58.2467C81.8239 58.2467 81.3539 58.0867 81.0405 57.7667C80.7339 57.4467 80.5805 56.9834 80.5805 56.3767V54.0667H79.6205V53.2367H80.6105V51.7767H81.6405V53.2367H83.2605V54.0667H81.6405V56.3067C81.6405 56.6601 81.7172 56.9267 81.8705 57.1067C82.0305 57.2801 82.2772 57.3667 82.6105 57.3667C82.7305 57.3667 82.8472 57.3534 82.9605 57.3267C83.0739 57.3001 83.1872 57.2667 83.3005 57.2267L83.4605 58.0267C83.3405 58.1001 83.1872 58.1534 83.0005 58.1867C82.8139 58.2267 82.6305 58.2467 82.4505 58.2467Z" fill="black"/>
<defs>
<filter id="filter0_d_8334_734" x="0" y="0" width="101.04" height="85.8501" filterUnits="userSpaceOnUse" color-interpolation-filters="sRGB">
<feFlood flood-opacity="0" result="BackgroundImageFix"/>
<feColorMatrix in="SourceAlpha" type="matrix" values="0 0 0 0 0 0 0 0 0 0 0 0 0 0 0 0 0 0 127 0" result="hardAlpha"/>
<feOffset dy="4"/>
<feGaussianBlur stdDeviation="2"/>
<feComposite in2="hardAlpha" operator="out"/>
<feColorMatrix type="matrix" values="0 0 0 0 0 0 0 0 0 0 0 0 0 0 0 0 0 0 0.25 0"/>
<feBlend mode="normal" in2="BackgroundImageFix" result="effect1_dropShadow_8334_734"/>
<feBlend mode="normal" in="SourceGraphic" in2="effect1_dropShadow_8334_734" result="shape"/>
</filter>
</defs>
</svg>
