<svg width="102" height="86" viewBox="0 0 102 86" fill="none" xmlns="http://www.w3.org/2000/svg">
<g filter="url(#filter0_d_8334_725)">
<path d="M5.45148 42.5206C4.65639 41.2109 4.25887 40.5556 4.10327 39.8593C3.96558 39.2431 3.96558 38.6067 4.10327 37.9905C4.25887 37.2942 4.65639 36.6389 5.45148 35.3292L24.7122 3.59573C25.5072 2.2858 25.9047 1.63084 26.4609 1.1545C26.953 0.733034 27.5327 0.414632 28.1625 0.220013C28.8742 -2.00927e-07 29.6693 0 31.2595 0H69.7806C71.3711 0 72.1659 -2.00927e-07 72.8779 0.220013C73.5073 0.414632 74.0871 0.733034 74.5794 1.1545C75.1356 1.63084 75.533 2.2858 76.3282 3.59573L95.5887 35.3292C96.3839 36.6389 96.7813 37.2942 96.9368 37.9905C97.0747 38.6067 97.0747 39.2431 96.9368 39.8593C96.7813 40.5556 96.3839 41.2109 95.5887 42.5206L76.3282 74.2543C75.533 75.564 75.1356 76.2189 74.5794 76.6953C74.0871 77.1169 73.5073 77.4351 72.8779 77.6298C72.1659 77.85 71.3711 77.85 69.7806 77.85H31.2595C29.6693 77.85 28.8742 77.85 28.1625 77.6298C27.5327 77.4351 26.953 77.1169 26.4609 76.6953C25.9047 76.2189 25.5072 75.564 24.7122 74.2543L5.45148 42.5206Z" fill="white"/>
</g>
<path d="M58.8718 7.39552L62.2121 14.1043C62.2711 14.1924 62.3002 14.3096 62.3293 14.3977C62.5346 14.9255 62.6808 15.6577 62.6808 16.1265V19.3196C62.6808 20.3161 62.0068 21.1365 61.0693 21.3708V23.2458C61.0693 24.1543 60.3371 24.8574 59.4577 24.8574C58.5493 24.8574 57.8461 24.1543 57.8461 23.2458V21.429H45.0136V23.2458C45.0136 24.1543 44.3105 24.8574 43.4021 24.8574C42.5227 24.8574 41.7905 24.1543 41.7905 23.2458V21.3708C40.853 21.1365 40.179 20.3161 40.179 19.3196V16.1265C40.179 15.6577 40.3252 14.9255 40.5305 14.3977C40.5596 14.3096 40.5896 14.1924 40.6477 14.1043L43.988 7.39552C44.2515 6.89771 44.9546 6.42896 45.5405 6.42896H57.3183C57.9043 6.42896 58.6083 6.89771 58.8718 7.39552ZM45.3652 9.41677L43.5783 13.4893C43.4902 13.6355 43.4902 13.8118 43.4902 13.929H59.3696C59.3696 13.8118 59.3696 13.6355 59.2815 13.4893L57.4946 9.41677C57.2602 8.88895 56.5571 8.4202 56.0002 8.4202H46.8596C46.3027 8.4202 45.5996 8.88895 45.3652 9.41677ZM44.5749 19.3186C45.5124 19.3186 46.2446 18.5565 46.2446 17.5899C46.2446 16.6524 45.5124 15.9202 44.5749 15.9202C43.6374 15.9202 42.8461 16.6524 42.8461 17.5899C42.8461 18.5565 43.6374 19.3186 44.5749 19.3186ZM58.2858 19.3186C59.2233 19.3186 60.0146 18.5565 60.0146 17.5899C60.0146 16.6524 59.2233 15.9202 58.2858 15.9202C57.3483 15.9202 56.6161 16.6524 56.6161 17.5899C56.6161 18.5565 57.3483 19.3186 58.2858 19.3186Z" fill="#F2BB41"/>
<path d="M29.0099 41.6567V34.6067H30.0699V37.7567H30.1099L33.3399 34.6067H34.6699L30.8499 38.2967L30.8899 37.7567L34.8799 41.6567H33.5099L30.1099 38.3667H30.0699V41.6567H29.0099ZM37.5831 41.7467C37.0831 41.7467 36.6464 41.6434 36.2731 41.4367C35.9064 41.2234 35.6231 40.9267 35.4231 40.5467C35.2231 40.1601 35.1231 39.7101 35.1231 39.1967C35.1231 38.6767 35.2231 38.2267 35.4231 37.8467C35.6231 37.4667 35.9064 37.1734 36.2731 36.9667C36.6464 36.7534 37.0831 36.6467 37.5831 36.6467C38.0897 36.6467 38.5264 36.7534 38.8931 36.9667C39.2597 37.1734 39.5431 37.4667 39.7431 37.8467C39.9431 38.2267 40.0431 38.6767 40.0431 39.1967C40.0431 39.7101 39.9431 40.1601 39.7431 40.5467C39.5431 40.9267 39.2597 41.2234 38.8931 41.4367C38.5264 41.6434 38.0897 41.7467 37.5831 41.7467ZM37.5831 40.9067C38.0164 40.9067 38.3597 40.7567 38.6131 40.4567C38.8664 40.1567 38.9931 39.7334 38.9931 39.1867C38.9931 38.6401 38.8664 38.2201 38.6131 37.9267C38.3597 37.6334 38.0164 37.4867 37.5831 37.4867C37.1497 37.4867 36.8064 37.6334 36.5531 37.9267C36.2997 38.2201 36.1731 38.6401 36.1731 39.1867C36.1731 39.7334 36.2997 40.1567 36.5531 40.4567C36.8064 40.7567 37.1497 40.9067 37.5831 40.9067ZM41.3015 41.6567V36.7367H42.3015V37.7767H42.2515C42.4048 37.4101 42.6382 37.1301 42.9515 36.9367C43.2715 36.7434 43.6315 36.6467 44.0315 36.6467C44.4315 36.6467 44.7615 36.7201 45.0215 36.8667C45.2882 37.0067 45.4882 37.2267 45.6215 37.5267C45.7548 37.8267 45.8215 38.2001 45.8215 38.6467V41.6567H44.7615V38.7067C44.7615 38.4401 44.7248 38.2201 44.6515 38.0467C44.5848 37.8667 44.4748 37.7334 44.3215 37.6467C44.1748 37.5534 43.9815 37.5067 43.7415 37.5067C43.4682 37.5067 43.2248 37.5667 43.0115 37.6867C42.8048 37.8067 42.6448 37.9734 42.5315 38.1867C42.4182 38.3934 42.3615 38.6334 42.3615 38.9067V41.6567H41.3015ZM49.4867 41.7467C48.86 41.7467 48.39 41.5867 48.0767 41.2667C47.77 40.9467 47.6167 40.4834 47.6167 39.8767V37.5667H46.6567V36.7367H47.6467V35.2767H48.6767V36.7367H50.2967V37.5667H48.6767V39.8067C48.6767 40.1601 48.7533 40.4267 48.9067 40.6067C49.0667 40.7801 49.3133 40.8667 49.6467 40.8667C49.7667 40.8667 49.8833 40.8534 49.9967 40.8267C50.11 40.8001 50.2233 40.7667 50.3367 40.7267L50.4967 41.5267C50.3767 41.6001 50.2233 41.6534 50.0367 41.6867C49.85 41.7267 49.6667 41.7467 49.4867 41.7467ZM51.321 41.6567V36.7367H52.311V37.9067H52.261C52.3744 37.5267 52.571 37.2301 52.851 37.0167C53.1377 36.8034 53.5044 36.6801 53.951 36.6467L54.361 36.6267L54.441 37.5467L53.741 37.6167C53.3077 37.6567 52.9744 37.7967 52.741 38.0367C52.5077 38.2767 52.391 38.5934 52.391 38.9867V41.6567H51.321ZM57.4659 41.7467C56.9659 41.7467 56.5292 41.6434 56.1559 41.4367C55.7892 41.2234 55.5059 40.9267 55.3059 40.5467C55.1059 40.1601 55.0059 39.7101 55.0059 39.1967C55.0059 38.6767 55.1059 38.2267 55.3059 37.8467C55.5059 37.4667 55.7892 37.1734 56.1559 36.9667C56.5292 36.7534 56.9659 36.6467 57.4659 36.6467C57.9725 36.6467 58.4092 36.7534 58.7759 36.9667C59.1425 37.1734 59.4259 37.4667 59.6259 37.8467C59.8259 38.2267 59.9259 38.6767 59.9259 39.1967C59.9259 39.7101 59.8259 40.1601 59.6259 40.5467C59.4259 40.9267 59.1425 41.2234 58.7759 41.4367C58.4092 41.6434 57.9725 41.7467 57.4659 41.7467ZM57.4659 40.9067C57.8992 40.9067 58.2425 40.7567 58.4959 40.4567C58.7492 40.1567 58.8759 39.7334 58.8759 39.1867C58.8759 38.6401 58.7492 38.2201 58.4959 37.9267C58.2425 37.6334 57.8992 37.4867 57.4659 37.4867C57.0325 37.4867 56.6892 37.6334 56.4359 37.9267C56.1825 38.2201 56.0559 38.6401 56.0559 39.1867C56.0559 39.7334 56.1825 40.1567 56.4359 40.4567C56.6892 40.7567 57.0325 40.9067 57.4659 40.9067ZM62.7843 41.7467C62.2576 41.7467 61.8576 41.6001 61.5843 41.3067C61.3176 41.0067 61.1843 40.5801 61.1843 40.0267V34.6067H62.2443V39.9467C62.2443 40.1467 62.271 40.3201 62.3243 40.4667C62.3843 40.6067 62.471 40.7134 62.5843 40.7867C62.6976 40.8534 62.8376 40.8867 63.0043 40.8867C63.091 40.8867 63.1743 40.8834 63.2543 40.8767C63.3343 40.8634 63.4176 40.8467 63.5043 40.8267L63.5143 41.6467C63.3943 41.6801 63.2743 41.7034 63.1543 41.7167C63.041 41.7367 62.9176 41.7467 62.7843 41.7467ZM65.9874 41.7467C65.4608 41.7467 65.0608 41.6001 64.7874 41.3067C64.5208 41.0067 64.3874 40.5801 64.3874 40.0267V34.6067H65.4474V39.9467C65.4474 40.1467 65.4741 40.3201 65.5274 40.4667C65.5874 40.6067 65.6741 40.7134 65.7874 40.7867C65.9008 40.8534 66.0408 40.8867 66.2074 40.8867C66.2941 40.8867 66.3774 40.8834 66.4574 40.8767C66.5374 40.8634 66.6208 40.8467 66.7074 40.8267L66.7174 41.6467C66.5974 41.6801 66.4774 41.7034 66.3574 41.7167C66.2441 41.7367 66.1208 41.7467 65.9874 41.7467ZM67.5006 35.6167V34.5167H68.7306V35.6167H67.5006ZM67.5906 41.6567V36.7367H68.6506V41.6567H67.5906ZM72.8424 35.6167V34.5167H74.0724V35.6167H72.8424ZM72.9324 41.6567V36.7367H73.9924V41.6567H72.9324ZM38.6697 55.6567V50.7367H39.6697V51.7767H39.6197C39.773 51.4101 40.0063 51.1301 40.3197 50.9367C40.6397 50.7434 40.9997 50.6467 41.3997 50.6467C41.7997 50.6467 42.1297 50.7201 42.3897 50.8667C42.6563 51.0067 42.8563 51.2267 42.9897 51.5267C43.123 51.8267 43.1897 52.2001 43.1897 52.6467V55.6567H42.1297V52.7067C42.1297 52.4401 42.093 52.2201 42.0197 52.0467C41.953 51.8667 41.843 51.7334 41.6897 51.6467C41.543 51.5534 41.3497 51.5067 41.1097 51.5067C40.8363 51.5067 40.593 51.5667 40.3797 51.6867C40.173 51.8067 40.013 51.9734 39.8997 52.1867C39.7863 52.3934 39.7297 52.6334 39.7297 52.9067V55.6567H38.6697ZM44.6148 49.6167V48.5167H45.8448V49.6167H44.6148ZM44.7048 55.6567V50.7367H45.7648V55.6567H44.7048ZM49.1025 55.7467C48.8291 55.7467 48.5625 55.7234 48.3025 55.6767C48.0425 55.6301 47.8025 55.5634 47.5825 55.4767C47.3691 55.3901 47.1858 55.2834 47.0325 55.1567L47.3325 54.4367C47.4991 54.5501 47.6791 54.6467 47.8725 54.7267C48.0725 54.8067 48.2758 54.8667 48.4825 54.9067C48.6958 54.9401 48.8991 54.9567 49.0925 54.9567C49.4658 54.9567 49.7491 54.9001 49.9425 54.7867C50.1358 54.6667 50.2325 54.5034 50.2325 54.2967C50.2325 54.1234 50.1725 53.9901 50.0525 53.8967C49.9391 53.8034 49.7525 53.7334 49.4925 53.6867L48.4825 53.4967C48.0425 53.4167 47.7125 53.2634 47.4925 53.0367C47.2725 52.8034 47.1625 52.5101 47.1625 52.1567C47.1625 51.8501 47.2458 51.5867 47.4125 51.3667C47.5791 51.1401 47.8158 50.9634 48.1225 50.8367C48.4358 50.7101 48.8025 50.6467 49.2225 50.6467C49.4558 50.6467 49.6858 50.6701 49.9125 50.7167C50.1458 50.7567 50.3625 50.8201 50.5625 50.9067C50.7691 50.9934 50.9391 51.1034 51.0725 51.2367L50.7625 51.9567C50.6291 51.8434 50.4758 51.7501 50.3025 51.6767C50.1291 51.5967 49.9491 51.5367 49.7625 51.4967C49.5825 51.4567 49.4025 51.4367 49.2225 51.4367C48.8625 51.4367 48.5891 51.4967 48.4025 51.6167C48.2158 51.7367 48.1225 51.9034 48.1225 52.1167C48.1225 52.2834 48.1758 52.4167 48.2825 52.5167C48.3958 52.6167 48.5691 52.6901 48.8025 52.7367L49.7925 52.9167C50.2658 53.0034 50.6158 53.1567 50.8425 53.3767C51.0758 53.5901 51.1925 53.8801 51.1925 54.2467C51.1925 54.5601 51.1058 54.8301 50.9325 55.0567C50.7591 55.2767 50.5158 55.4467 50.2025 55.5667C49.8891 55.6867 49.5225 55.7467 49.1025 55.7467ZM52.3197 49.6167V48.5167H53.5497V49.6167H52.3197ZM51.1697 57.5867L51.0897 56.7667L51.5497 56.7167C51.8297 56.6834 52.043 56.5901 52.1897 56.4367C52.3363 56.2834 52.4097 56.0467 52.4097 55.7267V50.7367H53.4597V55.6367C53.4597 55.9434 53.4263 56.2101 53.3597 56.4367C53.293 56.6634 53.1863 56.8534 53.0397 57.0067C52.893 57.1601 52.703 57.2801 52.4697 57.3667C52.243 57.4601 51.9663 57.5201 51.6397 57.5467L51.1697 57.5867ZM57.3487 55.7467C56.7954 55.7467 56.3187 55.6467 55.9187 55.4467C55.5187 55.2401 55.2121 54.9467 54.9987 54.5667C54.7854 54.1801 54.6787 53.7234 54.6787 53.1967C54.6787 52.6967 54.7787 52.2567 54.9787 51.8767C55.1854 51.4901 55.4721 51.1901 55.8387 50.9767C56.2121 50.7567 56.6421 50.6467 57.1287 50.6467C57.6021 50.6467 58.0054 50.7467 58.3387 50.9467C58.6721 51.1467 58.9287 51.4334 59.1087 51.8067C59.2887 52.1734 59.3787 52.6134 59.3787 53.1267V53.4667H55.4987V52.7967H58.6587L58.4887 52.9667C58.4887 52.4601 58.3721 52.0734 58.1387 51.8067C57.9121 51.5401 57.5854 51.4067 57.1587 51.4067C56.8521 51.4067 56.5887 51.4767 56.3687 51.6167C56.1487 51.7501 55.9787 51.9434 55.8587 52.1967C55.7387 52.4434 55.6787 52.7401 55.6787 53.0867V53.1767C55.6787 53.5634 55.7421 53.8867 55.8687 54.1467C56.0021 54.4067 56.1954 54.6001 56.4487 54.7267C56.7021 54.8534 57.0087 54.9167 57.3687 54.9167C57.6421 54.9167 57.9154 54.8801 58.1887 54.8067C58.4687 54.7267 58.7254 54.5901 58.9587 54.3967L59.2887 55.1267C59.0421 55.3267 58.7421 55.4801 58.3887 55.5867C58.0421 55.6934 57.6954 55.7467 57.3487 55.7467ZM62.413 55.7467C62.1397 55.7467 61.873 55.7234 61.613 55.6767C61.353 55.6301 61.113 55.5634 60.893 55.4767C60.6797 55.3901 60.4964 55.2834 60.343 55.1567L60.643 54.4367C60.8097 54.5501 60.9897 54.6467 61.183 54.7267C61.383 54.8067 61.5864 54.8667 61.793 54.9067C62.0064 54.9401 62.2097 54.9567 62.403 54.9567C62.7764 54.9567 63.0597 54.9001 63.253 54.7867C63.4464 54.6667 63.543 54.5034 63.543 54.2967C63.543 54.1234 63.483 53.9901 63.363 53.8967C63.2497 53.8034 63.063 53.7334 62.803 53.6867L61.793 53.4967C61.353 53.4167 61.023 53.2634 60.803 53.0367C60.583 52.8034 60.473 52.5101 60.473 52.1567C60.473 51.8501 60.5564 51.5867 60.723 51.3667C60.8897 51.1401 61.1264 50.9634 61.433 50.8367C61.7464 50.7101 62.113 50.6467 62.533 50.6467C62.7664 50.6467 62.9964 50.6701 63.223 50.7167C63.4564 50.7567 63.673 50.8201 63.873 50.9067C64.0797 50.9934 64.2497 51.1034 64.383 51.2367L64.073 51.9567C63.9397 51.8434 63.7864 51.7501 63.613 51.6767C63.4397 51.5967 63.2597 51.5367 63.073 51.4967C62.893 51.4567 62.713 51.4367 62.533 51.4367C62.173 51.4367 61.8997 51.4967 61.713 51.6167C61.5264 51.7367 61.433 51.9034 61.433 52.1167C61.433 52.2834 61.4864 52.4167 61.593 52.5167C61.7064 52.6167 61.8797 52.6901 62.113 52.7367L63.103 52.9167C63.5764 53.0034 63.9264 53.1567 64.153 53.3767C64.3864 53.5901 64.503 53.8801 64.503 54.2467C64.503 54.5601 64.4164 54.8301 64.243 55.0567C64.0697 55.2767 63.8264 55.4467 63.513 55.5667C63.1997 55.6867 62.833 55.7467 62.413 55.7467Z" fill="black"/>
<path d="M24.9083 70.6567V63.6067H25.9683V66.7567H26.0083L29.2383 63.6067H30.5683L26.7483 67.2967L26.7883 66.7567L30.7783 70.6567H29.4083L26.0083 67.3667H25.9683V70.6567H24.9083ZM33.0487 70.7467C32.702 70.7467 32.3887 70.6801 32.1087 70.5467C31.8287 70.4134 31.6087 70.2334 31.4487 70.0067C31.2953 69.7734 31.2187 69.5134 31.2187 69.2267C31.2187 68.8601 31.3153 68.5701 31.5087 68.3567C31.7087 68.1434 32.0253 67.9901 32.4587 67.8967C32.892 67.7967 33.4653 67.7467 34.1787 67.7467H34.7587V68.4067H34.2087C33.8487 68.4067 33.5453 68.4201 33.2987 68.4467C33.052 68.4667 32.852 68.5067 32.6987 68.5667C32.5453 68.6267 32.432 68.7067 32.3587 68.8067C32.292 68.9001 32.2587 69.0201 32.2587 69.1667C32.2587 69.4201 32.3487 69.6201 32.5287 69.7667C32.7153 69.9067 32.9587 69.9767 33.2587 69.9767C33.5187 69.9767 33.7487 69.9201 33.9487 69.8067C34.1487 69.6867 34.3087 69.5267 34.4287 69.3267C34.5487 69.1201 34.6087 68.8901 34.6087 68.6367V67.5067C34.6087 67.1334 34.5153 66.8667 34.3287 66.7067C34.1487 66.5467 33.8653 66.4667 33.4787 66.4667C33.192 66.4667 32.9053 66.5067 32.6187 66.5867C32.3387 66.6667 32.0453 66.7967 31.7387 66.9767L31.4187 66.2367C31.612 66.1101 31.8253 66.0034 32.0587 65.9167C32.2987 65.8301 32.5453 65.7634 32.7987 65.7167C33.0587 65.6701 33.312 65.6467 33.5587 65.6467C34.0053 65.6467 34.382 65.7167 34.6887 65.8567C34.9953 65.9967 35.2287 66.2101 35.3887 66.4967C35.5487 66.7834 35.6287 67.1567 35.6287 67.6167V70.6567H34.6787V69.5867H34.7187C34.6453 69.8134 34.532 70.0167 34.3787 70.1967C34.2253 70.3701 34.0353 70.5067 33.8087 70.6067C33.5887 70.7001 33.3353 70.7467 33.0487 70.7467ZM37.1511 72.4567V65.7367H38.1511V66.8067H38.1011C38.2277 66.4467 38.4477 66.1634 38.7611 65.9567C39.0744 65.7501 39.4444 65.6467 39.8711 65.6467C40.3111 65.6467 40.6977 65.7534 41.0311 65.9667C41.3644 66.1734 41.6211 66.4667 41.8011 66.8467C41.9811 67.2267 42.0711 67.6767 42.0711 68.1967C42.0711 68.7034 41.9811 69.1501 41.8011 69.5367C41.6211 69.9234 41.3677 70.2234 41.0411 70.4367C40.7144 70.6434 40.3244 70.7467 39.8711 70.7467C39.4511 70.7467 39.0877 70.6467 38.7811 70.4467C38.4811 70.2401 38.2711 69.9701 38.1511 69.6367H38.2111V72.4567H37.1511ZM39.6011 69.9267C40.0344 69.9267 40.3777 69.7767 40.6311 69.4767C40.8911 69.1701 41.0211 68.7401 41.0211 68.1867C41.0211 67.6401 40.8944 67.2201 40.6411 66.9267C40.3877 66.6267 40.0411 66.4767 39.6011 66.4767C39.1677 66.4767 38.8244 66.6267 38.5711 66.9267C38.3177 67.2201 38.1911 67.6401 38.1911 68.1867C38.1911 68.7401 38.3177 69.1701 38.5711 69.4767C38.8311 69.7767 39.1744 69.9267 39.6011 69.9267ZM43.2427 64.6167V63.5167H44.4727V64.6167H43.2427ZM43.3327 70.6567V65.7367H44.3927V70.6567H43.3327ZM48.0804 70.7467C47.4537 70.7467 46.9837 70.5867 46.6704 70.2667C46.3637 69.9467 46.2104 69.4834 46.2104 68.8767V66.5667H45.2504V65.7367H46.2404V64.2767H47.2704V65.7367H48.8904V66.5667H47.2704V68.8067C47.2704 69.1601 47.347 69.4267 47.5004 69.6067C47.6604 69.7801 47.907 69.8667 48.2404 69.8667C48.3604 69.8667 48.477 69.8534 48.5904 69.8267C48.7037 69.8001 48.817 69.7667 48.9304 69.7267L49.0904 70.5267C48.9704 70.6001 48.817 70.6534 48.6304 70.6867C48.4437 70.7267 48.2604 70.7467 48.0804 70.7467ZM51.7247 70.7467C51.3181 70.7467 50.9781 70.6734 50.7047 70.5267C50.4381 70.3801 50.2347 70.1601 50.0947 69.8667C49.9614 69.5667 49.8947 69.1934 49.8947 68.7467V65.7367H50.9447V68.7267C50.9447 68.9734 50.9781 69.1867 51.0447 69.3667C51.1181 69.5401 51.2314 69.6701 51.3847 69.7567C51.5447 69.8434 51.7414 69.8867 51.9747 69.8867C52.2347 69.8867 52.4614 69.8267 52.6547 69.7067C52.8547 69.5867 53.0114 69.4234 53.1247 69.2167C53.2447 69.0034 53.3047 68.7634 53.3047 68.4967V65.7367H54.3547V70.6567H53.3547V69.5867H53.4247C53.2714 69.9601 53.0481 70.2467 52.7547 70.4467C52.4681 70.6467 52.1247 70.7467 51.7247 70.7467ZM57.4913 70.7467C56.9646 70.7467 56.5646 70.6001 56.2913 70.3067C56.0246 70.0067 55.8913 69.5801 55.8913 69.0267V63.6067H56.9513V68.9467C56.9513 69.1467 56.978 69.3201 57.0313 69.4667C57.0913 69.6067 57.178 69.7134 57.2913 69.7867C57.4046 69.8534 57.5446 69.8867 57.7113 69.8867C57.798 69.8867 57.8813 69.8834 57.9613 69.8767C58.0413 69.8634 58.1246 69.8467 58.2113 69.8267L58.2213 70.6467C58.1013 70.6801 57.9813 70.7034 57.8613 70.7167C57.748 70.7367 57.6246 70.7467 57.4913 70.7467ZM60.6944 70.7467C60.1678 70.7467 59.7678 70.6001 59.4944 70.3067C59.2278 70.0067 59.0944 69.5801 59.0944 69.0267V63.6067H60.1544V68.9467C60.1544 69.1467 60.1811 69.3201 60.2344 69.4667C60.2944 69.6067 60.3811 69.7134 60.4944 69.7867C60.6078 69.8534 60.7478 69.8867 60.9144 69.8867C61.0011 69.8867 61.0844 69.8834 61.1644 69.8767C61.2444 69.8634 61.3278 69.8467 61.4144 69.8267L61.4244 70.6467C61.3044 70.6801 61.1844 70.7034 61.0644 70.7167C60.9511 70.7367 60.8278 70.7467 60.6944 70.7467ZM62.2076 64.6167V63.5167H63.4376V64.6167H62.2076ZM62.2976 70.6567V65.7367H63.3576V70.6567H62.2976ZM67.9094 70.6567V69.7567H69.6394V64.4867L70.1794 64.5167L68.2594 65.7167L67.8194 64.9167L69.9294 63.6067H70.6994V69.7567H72.3094V70.6567H67.9094ZM75.8654 70.7467C75.3188 70.7467 74.8554 70.6101 74.4754 70.3367C74.1021 70.0567 73.8188 69.6467 73.6254 69.1067C73.4321 68.5667 73.3354 67.9067 73.3354 67.1267C73.3354 66.3401 73.4321 65.6801 73.6254 65.1467C73.8188 64.6067 74.1021 64.2001 74.4754 63.9267C74.8554 63.6534 75.3188 63.5167 75.8654 63.5167C76.4188 63.5167 76.8821 63.6534 77.2554 63.9267C77.6354 64.2001 77.9188 64.6034 78.1054 65.1367C78.2988 65.6701 78.3954 66.3301 78.3954 67.1167C78.3954 67.8967 78.2988 68.5601 78.1054 69.1067C77.9121 69.6467 77.6288 70.0567 77.2554 70.3367C76.8821 70.6101 76.4188 70.7467 75.8654 70.7467ZM75.8654 69.8567C76.3721 69.8567 76.7454 69.6367 76.9854 69.1967C77.2321 68.7501 77.3554 68.0567 77.3554 67.1167C77.3554 66.1767 77.2321 65.4901 76.9854 65.0567C76.7454 64.6234 76.3721 64.4067 75.8654 64.4067C75.3654 64.4067 74.9921 64.6267 74.7454 65.0667C74.4988 65.5001 74.3754 66.1834 74.3754 67.1167C74.3754 68.0567 74.4954 68.7501 74.7354 69.1967C74.9821 69.6367 75.3588 69.8567 75.8654 69.8567Z" fill="#667085"/>
<defs>
<filter id="filter0_d_8334_725" x="0" y="0" width="101.04" height="85.8501" filterUnits="userSpaceOnUse" color-interpolation-filters="sRGB">
<feFlood flood-opacity="0" result="BackgroundImageFix"/>
<feColorMatrix in="SourceAlpha" type="matrix" values="0 0 0 0 0 0 0 0 0 0 0 0 0 0 0 0 0 0 127 0" result="hardAlpha"/>
<feOffset dy="4"/>
<feGaussianBlur stdDeviation="2"/>
<feComposite in2="hardAlpha" operator="out"/>
<feColorMatrix type="matrix" values="0 0 0 0 0 0 0 0 0 0 0 0 0 0 0 0 0 0 0.25 0"/>
<feBlend mode="normal" in2="BackgroundImageFix" result="effect1_dropShadow_8334_725"/>
<feBlend mode="normal" in="SourceGraphic" in2="effect1_dropShadow_8334_725" result="shape"/>
</filter>
</defs>
</svg>
