<svg width="96" height="86" viewBox="0 0 96 86" fill="none" xmlns="http://www.w3.org/2000/svg">
<g filter="url(#filter0_d_8310_820)">
<path d="M5.37285 42.5185C4.62083 41.2089 4.24484 40.5536 4.09767 39.8574C3.96744 39.2412 3.96744 38.6048 4.09767 37.9886C4.24484 37.2924 4.62083 36.6371 5.37285 35.3274L23.5901 3.59555C24.3421 2.28569 24.7181 1.63076 25.2442 1.15444C25.7096 0.732998 26.2579 0.414612 26.8535 0.220002C27.5267 -2.00917e-07 28.2787 0 29.7827 0H66.2171C67.7214 0 68.4731 -2.00917e-07 69.1466 0.220002C69.7419 0.414612 70.2903 0.732998 70.756 1.15444C71.282 1.63076 71.6578 2.28569 72.41 3.59555L90.6271 35.3274C91.3792 36.6371 91.7551 37.2924 91.9021 37.9886C92.0326 38.6048 92.0326 39.2412 91.9021 39.8574C91.7551 40.5536 91.3792 41.2089 90.6271 42.5185L72.41 74.2506C71.6578 75.5603 71.282 76.2151 70.756 76.6915C70.2903 77.1131 69.7419 77.4313 69.1466 77.6259C68.4731 77.8462 67.7214 77.8462 66.2171 77.8462H29.7827C28.2787 77.8462 27.5267 77.8462 26.8535 77.6259C26.2579 77.4313 25.7096 77.1131 25.2442 76.6915C24.7181 76.2151 24.3421 75.5603 23.5901 74.2506L5.37285 42.5185Z" fill="white"/>
</g>
<g clip-path="url(#clip0_8310_820)">
<path d="M58.5005 29.0293C57.1402 28.6911 56.1248 27.4647 56.1248 25.9998C56.1248 24.2738 57.5239 23.5 59.25 23.5C59.4492 23.5 59.6571 23.5258 59.8464 23.5626C59.8552 23.7503 59.8748 23.935 59.8748 24.1248C59.8748 26.1214 59.3746 27.3762 58.5005 29.0293ZM41.0473 33.1062C42.165 31.5089 44.8598 30.3747 48 30.3747C51.1396 30.3747 53.8277 31.5147 54.9455 33.112C52.9898 34.5292 50.5945 35.3748 48 35.3748C45.4024 35.3748 43.0045 34.5265 41.0473 33.1062ZM36.1252 23.5C36.1252 23.3081 36.1448 23.1214 36.1536 22.9321C36.3429 22.8953 36.5504 22.8746 36.75 22.8746C38.4761 22.8746 39.8752 24.2738 39.8752 25.9998C39.8752 27.4646 38.8583 28.6889 37.4984 29.0272C36.6248 27.3746 36.1252 25.4955 36.1252 23.5ZM48 11.6246C53.4652 11.6246 58.0024 15.3405 59.3793 20.3965H36.6207C37.9976 15.3405 42.5348 11.6246 48 11.6246ZM48 8.5C39.7158 8.5 33 15.2154 33 23.5C33 31.7842 39.7158 38.5 48 38.5C56.2842 38.5 63 31.7842 63 23.5C63 15.2154 56.2842 8.5 48 8.5Z" fill="#F2BB41"/>
<path d="M52.6551 25.0516C52.6551 26.1942 50.5613 27.1206 47.9782 27.1206C45.3951 27.1206 43.3013 26.1942 43.3013 25.0516C43.3013 23.909 45.3951 22.9827 47.9782 22.9827C50.5613 22.9827 52.6551 23.909 52.6551 25.0516Z" fill="#E08838"/>
</g>
<path d="M14.2274 49.5V42.45H18.7974V43.34H15.2874V45.53H18.5974V46.41H15.2874V49.5H14.2274ZM19.8177 43.46V42.36H21.0477V43.46H19.8177ZM19.9077 49.5V44.58H20.9677V49.5H19.9077ZM24.1054 49.59C23.5787 49.59 23.1787 49.4433 22.9054 49.15C22.6387 48.85 22.5054 48.4233 22.5054 47.87V42.45H23.5654V47.79C23.5654 47.99 23.592 48.1633 23.6454 48.31C23.7054 48.45 23.792 48.5567 23.9054 48.63C24.0187 48.6967 24.1587 48.73 24.3254 48.73C24.412 48.73 24.4954 48.7267 24.5754 48.72C24.6554 48.7067 24.7387 48.69 24.8254 48.67L24.8354 49.49C24.7154 49.5233 24.5954 49.5467 24.4754 49.56C24.362 49.58 24.2387 49.59 24.1054 49.59ZM27.3085 49.59C26.7818 49.59 26.3818 49.4433 26.1085 49.15C25.8418 48.85 25.7085 48.4233 25.7085 47.87V42.45H26.7685V47.79C26.7685 47.99 26.7951 48.1633 26.8485 48.31C26.9085 48.45 26.9951 48.5567 27.1085 48.63C27.2218 48.6967 27.3618 48.73 27.5285 48.73C27.6151 48.73 27.6985 48.7267 27.7785 48.72C27.8585 48.7067 27.9418 48.69 28.0285 48.67L28.0385 49.49C27.9185 49.5233 27.7985 49.5467 27.6785 49.56C27.5651 49.58 27.4418 49.59 27.3085 49.59ZM31.0428 49.59C30.5428 49.59 30.1061 49.4867 29.7328 49.28C29.3661 49.0667 29.0828 48.77 28.8828 48.39C28.6828 48.0033 28.5828 47.5533 28.5828 47.04C28.5828 46.52 28.6828 46.07 28.8828 45.69C29.0828 45.31 29.3661 45.0167 29.7328 44.81C30.1061 44.5967 30.5428 44.49 31.0428 44.49C31.5494 44.49 31.9861 44.5967 32.3528 44.81C32.7194 45.0167 33.0028 45.31 33.2028 45.69C33.4028 46.07 33.5028 46.52 33.5028 47.04C33.5028 47.5533 33.4028 48.0033 33.2028 48.39C33.0028 48.77 32.7194 49.0667 32.3528 49.28C31.9861 49.4867 31.5494 49.59 31.0428 49.59ZM31.0428 48.75C31.4761 48.75 31.8194 48.6 32.0728 48.3C32.3261 48 32.4528 47.5767 32.4528 47.03C32.4528 46.4833 32.3261 46.0633 32.0728 45.77C31.8194 45.4767 31.4761 45.33 31.0428 45.33C30.6094 45.33 30.2661 45.4767 30.0128 45.77C29.7594 46.0633 29.6328 46.4833 29.6328 47.03C29.6328 47.5767 29.7594 48 30.0128 48.3C30.2661 48.6 30.6094 48.75 31.0428 48.75ZM34.7612 49.5V44.58H35.7612V45.62H35.7112C35.8645 45.2533 36.0979 44.9733 36.4112 44.78C36.7312 44.5867 37.0912 44.49 37.4912 44.49C37.8912 44.49 38.2212 44.5633 38.4812 44.71C38.7479 44.85 38.9479 45.07 39.0812 45.37C39.2145 45.67 39.2812 46.0433 39.2812 46.49V49.5H38.2212V46.55C38.2212 46.2833 38.1845 46.0633 38.1112 45.89C38.0445 45.71 37.9345 45.5767 37.7812 45.49C37.6345 45.3967 37.4412 45.35 37.2012 45.35C36.9279 45.35 36.6845 45.41 36.4712 45.53C36.2645 45.65 36.1045 45.8167 35.9912 46.03C35.8779 46.2367 35.8212 46.4767 35.8212 46.75V49.5H34.7612ZM40.7064 43.46V42.36H41.9364V43.46H40.7064ZM40.7964 49.5V44.58H41.8564V49.5H40.7964ZM46.1382 49.5V44.58H47.1382V45.62H47.0882C47.2415 45.2533 47.4748 44.9733 47.7882 44.78C48.1082 44.5867 48.4682 44.49 48.8682 44.49C49.2682 44.49 49.5982 44.5633 49.8582 44.71C50.1248 44.85 50.3248 45.07 50.4582 45.37C50.5915 45.67 50.6582 46.0433 50.6582 46.49V49.5H49.5982V46.55C49.5982 46.2833 49.5615 46.0633 49.4882 45.89C49.4215 45.71 49.3115 45.5767 49.1582 45.49C49.0115 45.3967 48.8182 45.35 48.5782 45.35C48.3048 45.35 48.0615 45.41 47.8482 45.53C47.6415 45.65 47.4815 45.8167 47.3682 46.03C47.2548 46.2367 47.1982 46.4767 47.1982 46.75V49.5H46.1382ZM54.3833 51.39C53.9633 51.39 53.56 51.3367 53.1733 51.23C52.7867 51.1233 52.45 50.9667 52.1633 50.76L52.4833 49.98C52.67 50.1 52.8633 50.2033 53.0633 50.29C53.27 50.3767 53.48 50.44 53.6933 50.48C53.9067 50.5267 54.12 50.55 54.3333 50.55C54.82 50.55 55.19 50.43 55.4433 50.19C55.6967 49.95 55.8233 49.6 55.8233 49.14V48.22H55.8633C55.75 48.56 55.5367 48.8367 55.2233 49.05C54.91 49.2567 54.5467 49.36 54.1333 49.36C53.68 49.36 53.2833 49.26 52.9433 49.06C52.61 48.8533 52.35 48.5667 52.1633 48.2C51.9833 47.8333 51.8933 47.4067 51.8933 46.92C51.8933 46.4333 51.9833 46.01 52.1633 45.65C52.35 45.2833 52.61 45 52.9433 44.8C53.2833 44.5933 53.68 44.49 54.1333 44.49C54.5533 44.49 54.92 44.5967 55.2333 44.81C55.5467 45.0167 55.7567 45.2967 55.8633 45.65H55.8233V44.58H56.8333V49.03C56.8333 49.5367 56.7367 49.9667 56.5433 50.32C56.3567 50.6733 56.08 50.94 55.7133 51.12C55.3467 51.3 54.9033 51.39 54.3833 51.39ZM54.3733 48.53C54.8133 48.53 55.16 48.3867 55.4133 48.1C55.6733 47.8067 55.8033 47.4133 55.8033 46.92C55.8033 46.4267 55.6733 46.0367 55.4133 45.75C55.16 45.4633 54.8133 45.32 54.3733 45.32C53.9333 45.32 53.5833 45.4633 53.3233 45.75C53.07 46.0367 52.9433 46.4267 52.9433 46.92C52.9433 47.4133 53.07 47.8067 53.3233 48.1C53.5833 48.3867 53.9333 48.53 54.3733 48.53ZM60.0045 49.59C59.6578 49.59 59.3445 49.5233 59.0645 49.39C58.7845 49.2567 58.5645 49.0767 58.4045 48.85C58.2512 48.6167 58.1745 48.3567 58.1745 48.07C58.1745 47.7033 58.2712 47.4133 58.4645 47.2C58.6645 46.9867 58.9812 46.8333 59.4145 46.74C59.8478 46.64 60.4212 46.59 61.1345 46.59H61.7145V47.25H61.1645C60.8045 47.25 60.5012 47.2633 60.2545 47.29C60.0078 47.31 59.8078 47.35 59.6545 47.41C59.5012 47.47 59.3878 47.55 59.3145 47.65C59.2478 47.7433 59.2145 47.8633 59.2145 48.01C59.2145 48.2633 59.3045 48.4633 59.4845 48.61C59.6712 48.75 59.9145 48.82 60.2145 48.82C60.4745 48.82 60.7045 48.7633 60.9045 48.65C61.1045 48.53 61.2645 48.37 61.3845 48.17C61.5045 47.9633 61.5645 47.7333 61.5645 47.48V46.35C61.5645 45.9767 61.4712 45.71 61.2845 45.55C61.1045 45.39 60.8212 45.31 60.4345 45.31C60.1478 45.31 59.8612 45.35 59.5745 45.43C59.2945 45.51 59.0012 45.64 58.6945 45.82L58.3745 45.08C58.5678 44.9533 58.7812 44.8467 59.0145 44.76C59.2545 44.6733 59.5012 44.6067 59.7545 44.56C60.0145 44.5133 60.2678 44.49 60.5145 44.49C60.9612 44.49 61.3378 44.56 61.6445 44.7C61.9512 44.84 62.1845 45.0533 62.3445 45.34C62.5045 45.6267 62.5845 46 62.5845 46.46V49.5H61.6345V48.43H61.6745C61.6012 48.6567 61.4878 48.86 61.3345 49.04C61.1812 49.2133 60.9912 49.35 60.7645 49.45C60.5445 49.5433 60.2912 49.59 60.0045 49.59ZM65.9069 49.59C65.6336 49.59 65.3669 49.5667 65.1069 49.52C64.8469 49.4733 64.6069 49.4067 64.3869 49.32C64.1736 49.2333 63.9902 49.1267 63.8369 49L64.1369 48.28C64.3036 48.3933 64.4836 48.49 64.6769 48.57C64.8769 48.65 65.0802 48.71 65.2869 48.75C65.5002 48.7833 65.7036 48.8 65.8969 48.8C66.2702 48.8 66.5536 48.7433 66.7469 48.63C66.9402 48.51 67.0369 48.3467 67.0369 48.14C67.0369 47.9667 66.9769 47.8333 66.8569 47.74C66.7436 47.6467 66.5569 47.5767 66.2969 47.53L65.2869 47.34C64.8469 47.26 64.5169 47.1067 64.2969 46.88C64.0769 46.6467 63.9669 46.3533 63.9669 46C63.9669 45.6933 64.0502 45.43 64.2169 45.21C64.3836 44.9833 64.6202 44.8067 64.9269 44.68C65.2402 44.5533 65.6069 44.49 66.0269 44.49C66.2602 44.49 66.4902 44.5133 66.7169 44.56C66.9502 44.6 67.1669 44.6633 67.3669 44.75C67.5736 44.8367 67.7436 44.9467 67.8769 45.08L67.5669 45.8C67.4336 45.6867 67.2802 45.5933 67.1069 45.52C66.9336 45.44 66.7536 45.38 66.5669 45.34C66.3869 45.3 66.2069 45.28 66.0269 45.28C65.6669 45.28 65.3936 45.34 65.2069 45.46C65.0202 45.58 64.9269 45.7467 64.9269 45.96C64.9269 46.1267 64.9802 46.26 65.0869 46.36C65.2002 46.46 65.3736 46.5333 65.6069 46.58L66.5969 46.76C67.0702 46.8467 67.4202 47 67.6469 47.22C67.8802 47.4333 67.9969 47.7233 67.9969 48.09C67.9969 48.4033 67.9102 48.6733 67.7369 48.9C67.5636 49.12 67.3202 49.29 67.0069 49.41C66.6936 49.53 66.3269 49.59 65.9069 49.59ZM69.1241 43.46V42.36H70.3541V43.46H69.1241ZM67.9741 51.43L67.8941 50.61L68.3541 50.56C68.6341 50.5267 68.8474 50.4333 68.9941 50.28C69.1408 50.1267 69.2141 49.89 69.2141 49.57V44.58H70.2641V49.48C70.2641 49.7867 70.2308 50.0533 70.1641 50.28C70.0974 50.5067 69.9908 50.6967 69.8441 50.85C69.6974 51.0033 69.5074 51.1233 69.2741 51.21C69.0474 51.3033 68.7708 51.3633 68.4441 51.39L67.9741 51.43ZM74.1532 49.59C73.5998 49.59 73.1232 49.49 72.7232 49.29C72.3232 49.0833 72.0165 48.79 71.8032 48.41C71.5898 48.0233 71.4832 47.5667 71.4832 47.04C71.4832 46.54 71.5832 46.1 71.7832 45.72C71.9898 45.3333 72.2765 45.0333 72.6432 44.82C73.0165 44.6 73.4465 44.49 73.9332 44.49C74.4065 44.49 74.8098 44.59 75.1432 44.79C75.4765 44.99 75.7332 45.2767 75.9132 45.65C76.0932 46.0167 76.1832 46.4567 76.1832 46.97V47.31H72.3032V46.64H75.4632L75.2932 46.81C75.2932 46.3033 75.1765 45.9167 74.9432 45.65C74.7165 45.3833 74.3898 45.25 73.9632 45.25C73.6565 45.25 73.3932 45.32 73.1732 45.46C72.9532 45.5933 72.7832 45.7867 72.6632 46.04C72.5432 46.2867 72.4832 46.5833 72.4832 46.93V47.02C72.4832 47.4067 72.5465 47.73 72.6732 47.99C72.8065 48.25 72.9998 48.4433 73.2532 48.57C73.5065 48.6967 73.8132 48.76 74.1732 48.76C74.4465 48.76 74.7198 48.7233 74.9932 48.65C75.2732 48.57 75.5298 48.4333 75.7632 48.24L76.0932 48.97C75.8465 49.17 75.5465 49.3233 75.1932 49.43C74.8465 49.5367 74.4998 49.59 74.1532 49.59ZM77.4175 49.5V44.58H78.4175V45.62H78.3675C78.5208 45.2533 78.7541 44.9733 79.0675 44.78C79.3875 44.5867 79.7475 44.49 80.1475 44.49C80.5475 44.49 80.8775 44.5633 81.1375 44.71C81.4041 44.85 81.6041 45.07 81.7375 45.37C81.8708 45.67 81.9375 46.0433 81.9375 46.49V49.5H80.8775V46.55C80.8775 46.2833 80.8408 46.0633 80.7675 45.89C80.7008 45.71 80.5908 45.5767 80.4375 45.49C80.2908 45.3967 80.0975 45.35 79.8575 45.35C79.5841 45.35 79.3408 45.41 79.1275 45.53C78.9208 45.65 78.7608 45.8167 78.6475 46.03C78.5341 46.2367 78.4775 46.4767 78.4775 46.75V49.5H77.4175Z" fill="black"/>
<path d="M24.4764 64.5V57.45H25.5364V60.6H25.5764L28.8064 57.45H30.1364L26.3164 61.14L26.3564 60.6L30.3464 64.5H28.9764L25.5764 61.21H25.5364V64.5H24.4764ZM32.6168 64.59C32.2701 64.59 31.9568 64.5233 31.6768 64.39C31.3968 64.2567 31.1768 64.0767 31.0168 63.85C30.8635 63.6167 30.7868 63.3567 30.7868 63.07C30.7868 62.7033 30.8835 62.4133 31.0768 62.2C31.2768 61.9867 31.5935 61.8333 32.0268 61.74C32.4601 61.64 33.0335 61.59 33.7468 61.59H34.3268V62.25H33.7768C33.4168 62.25 33.1135 62.2633 32.8668 62.29C32.6201 62.31 32.4201 62.35 32.2668 62.41C32.1135 62.47 32.0001 62.55 31.9268 62.65C31.8601 62.7433 31.8268 62.8633 31.8268 63.01C31.8268 63.2633 31.9168 63.4633 32.0968 63.61C32.2835 63.75 32.5268 63.82 32.8268 63.82C33.0868 63.82 33.3168 63.7633 33.5168 63.65C33.7168 63.53 33.8768 63.37 33.9968 63.17C34.1168 62.9633 34.1768 62.7333 34.1768 62.48V61.35C34.1768 60.9767 34.0835 60.71 33.8968 60.55C33.7168 60.39 33.4335 60.31 33.0468 60.31C32.7601 60.31 32.4735 60.35 32.1868 60.43C31.9068 60.51 31.6135 60.64 31.3068 60.82L30.9868 60.08C31.1801 59.9533 31.3935 59.8467 31.6268 59.76C31.8668 59.6733 32.1135 59.6067 32.3668 59.56C32.6268 59.5133 32.8801 59.49 33.1268 59.49C33.5735 59.49 33.9501 59.56 34.2568 59.7C34.5635 59.84 34.7968 60.0533 34.9568 60.34C35.1168 60.6267 35.1968 61 35.1968 61.46V64.5H34.2468V63.43H34.2868C34.2135 63.6567 34.1001 63.86 33.9468 64.04C33.7935 64.2133 33.6035 64.35 33.3768 64.45C33.1568 64.5433 32.9035 64.59 32.6168 64.59ZM36.7192 66.3V59.58H37.7192V60.65H37.6692C37.7959 60.29 38.0159 60.0067 38.3292 59.8C38.6426 59.5933 39.0126 59.49 39.4392 59.49C39.8792 59.49 40.2659 59.5967 40.5992 59.81C40.9326 60.0167 41.1892 60.31 41.3692 60.69C41.5492 61.07 41.6392 61.52 41.6392 62.04C41.6392 62.5467 41.5492 62.9933 41.3692 63.38C41.1892 63.7667 40.9359 64.0667 40.6092 64.28C40.2826 64.4867 39.8926 64.59 39.4392 64.59C39.0192 64.59 38.6559 64.49 38.3492 64.29C38.0492 64.0833 37.8392 63.8133 37.7192 63.48H37.7792V66.3H36.7192ZM39.1692 63.77C39.6026 63.77 39.9459 63.62 40.1992 63.32C40.4592 63.0133 40.5892 62.5833 40.5892 62.03C40.5892 61.4833 40.4626 61.0633 40.2092 60.77C39.9559 60.47 39.6092 60.32 39.1692 60.32C38.7359 60.32 38.3926 60.47 38.1392 60.77C37.8859 61.0633 37.7592 61.4833 37.7592 62.03C37.7592 62.5833 37.8859 63.0133 38.1392 63.32C38.3992 63.62 38.7426 63.77 39.1692 63.77ZM42.8109 58.46V57.36H44.0409V58.46H42.8109ZM42.9009 64.5V59.58H43.9609V64.5H42.9009ZM47.6485 64.59C47.0218 64.59 46.5518 64.43 46.2385 64.11C45.9318 63.79 45.7785 63.3267 45.7785 62.72V60.41H44.8185V59.58H45.8085V58.12H46.8385V59.58H48.4585V60.41H46.8385V62.65C46.8385 63.0033 46.9152 63.27 47.0685 63.45C47.2285 63.6233 47.4752 63.71 47.8085 63.71C47.9285 63.71 48.0452 63.6967 48.1585 63.67C48.2718 63.6433 48.3852 63.61 48.4985 63.57L48.6585 64.37C48.5385 64.4433 48.3852 64.4967 48.1985 64.53C48.0118 64.57 47.8285 64.59 47.6485 64.59ZM51.2929 64.59C50.8862 64.59 50.5462 64.5167 50.2729 64.37C50.0062 64.2233 49.8029 64.0033 49.6629 63.71C49.5296 63.41 49.4629 63.0367 49.4629 62.59V59.58H50.5129V62.57C50.5129 62.8167 50.5462 63.03 50.6129 63.21C50.6862 63.3833 50.7996 63.5133 50.9529 63.6C51.1129 63.6867 51.3096 63.73 51.5429 63.73C51.8029 63.73 52.0296 63.67 52.2229 63.55C52.4229 63.43 52.5796 63.2667 52.6929 63.06C52.8129 62.8467 52.8729 62.6067 52.8729 62.34V59.58H53.9229V64.5H52.9229V63.43H52.9929C52.8396 63.8033 52.6162 64.09 52.3229 64.29C52.0362 64.49 51.6929 64.59 51.2929 64.59ZM57.0595 64.59C56.5328 64.59 56.1328 64.4433 55.8595 64.15C55.5928 63.85 55.4595 63.4233 55.4595 62.87V57.45H56.5195V62.79C56.5195 62.99 56.5461 63.1633 56.5995 63.31C56.6595 63.45 56.7461 63.5567 56.8595 63.63C56.9728 63.6967 57.1128 63.73 57.2795 63.73C57.3661 63.73 57.4495 63.7267 57.5295 63.72C57.6095 63.7067 57.6928 63.69 57.7795 63.67L57.7895 64.49C57.6695 64.5233 57.5495 64.5467 57.4295 64.56C57.3161 64.58 57.1928 64.59 57.0595 64.59ZM60.2626 64.59C59.7359 64.59 59.3359 64.4433 59.0626 64.15C58.7959 63.85 58.6626 63.4233 58.6626 62.87V57.45H59.7226V62.79C59.7226 62.99 59.7492 63.1633 59.8026 63.31C59.8626 63.45 59.9492 63.5567 60.0626 63.63C60.1759 63.6967 60.3159 63.73 60.4826 63.73C60.5692 63.73 60.6526 63.7267 60.7326 63.72C60.8126 63.7067 60.8959 63.69 60.9826 63.67L60.9926 64.49C60.8726 64.5233 60.7526 64.5467 60.6326 64.56C60.5192 64.58 60.3959 64.59 60.2626 64.59ZM61.7757 58.46V57.36H63.0057V58.46H61.7757ZM61.8657 64.5V59.58H62.9257V64.5H61.8657ZM67.2575 64.5V63.72L69.6375 61.19C69.8642 60.95 70.0408 60.7333 70.1675 60.54C70.3008 60.34 70.3975 60.1467 70.4575 59.96C70.5175 59.7733 70.5475 59.5867 70.5475 59.4C70.5475 59.0333 70.4308 58.7533 70.1975 58.56C69.9708 58.3667 69.6442 58.27 69.2175 58.27C68.8908 58.27 68.5708 58.3333 68.2575 58.46C67.9442 58.58 67.6475 58.77 67.3675 59.03L66.9875 58.22C67.2742 57.9533 67.6242 57.7433 68.0375 57.59C68.4508 57.4367 68.8808 57.36 69.3275 57.36C69.8075 57.36 70.2175 57.4367 70.5575 57.59C70.8975 57.7433 71.1542 57.9667 71.3275 58.26C71.5075 58.5533 71.5975 58.9033 71.5975 59.31C71.5975 59.5233 71.5708 59.73 71.5175 59.93C71.4708 60.13 71.3975 60.33 71.2975 60.53C71.1975 60.7233 71.0675 60.9267 70.9075 61.14C70.7542 61.3467 70.5708 61.56 70.3575 61.78L68.4475 63.77V63.6H71.8775V64.5H67.2575Z" fill="#667085"/>
<defs>
<filter id="filter0_d_8310_820" x="0" y="0" width="96" height="85.8462" filterUnits="userSpaceOnUse" color-interpolation-filters="sRGB">
<feFlood flood-opacity="0" result="BackgroundImageFix"/>
<feColorMatrix in="SourceAlpha" type="matrix" values="0 0 0 0 0 0 0 0 0 0 0 0 0 0 0 0 0 0 127 0" result="hardAlpha"/>
<feOffset dy="4"/>
<feGaussianBlur stdDeviation="2"/>
<feComposite in2="hardAlpha" operator="out"/>
<feColorMatrix type="matrix" values="0 0 0 0 0 0 0 0 0 0 0 0 0 0 0 0 0 0 0.25 0"/>
<feBlend mode="normal" in2="BackgroundImageFix" result="effect1_dropShadow_8310_820"/>
<feBlend mode="normal" in="SourceGraphic" in2="effect1_dropShadow_8310_820" result="shape"/>
</filter>
<clipPath id="clip0_8310_820">
<rect width="30" height="30" fill="white" transform="translate(33 8.5)"/>
</clipPath>
</defs>
</svg>
