<svg width="100" height="86" viewBox="0 0 100 86" fill="none" xmlns="http://www.w3.org/2000/svg">
<g filter="url(#filter0_d_8358_581)">
<path d="M5.43525 42.5206C4.64905 41.2109 4.25597 40.5556 4.10211 39.8593C3.96596 39.2431 3.96596 38.6067 4.10211 37.9905C4.25597 37.2942 4.64905 36.6389 5.43525 35.3292L24.4806 3.59573C25.2667 2.2858 25.6598 1.63084 26.2098 1.1545C26.6964 0.733034 27.2696 0.414632 27.8923 0.220013C28.5961 -1.93715e-07 29.3823 0 30.9547 0H69.0452C70.6178 0 71.4037 -1.93715e-07 72.1078 0.220013C72.7302 0.414632 73.3035 0.733034 73.7903 1.1545C74.3402 1.63084 74.7332 2.2858 75.5195 3.59573L94.5647 35.3292C95.351 36.6389 95.744 37.2942 95.8977 37.9905C96.0341 38.6067 96.0341 39.2431 95.8977 39.8593C95.744 40.5556 95.351 41.2109 94.5647 42.5206L75.5195 74.2543C74.7332 75.564 74.3402 76.2189 73.7903 76.6953C73.3035 77.1169 72.7302 77.4351 72.1078 77.6298C71.4037 77.85 70.6178 77.85 69.0452 77.85H30.9547C29.3823 77.85 28.5961 77.85 27.8923 77.6298C27.2696 77.4351 26.6964 77.1169 26.2098 76.6953C25.6598 76.2189 25.2667 75.564 24.4806 74.2543L5.43525 42.5206Z" fill="white"/>
</g>
<path d="M60.375 33.125H41.625C41.625 33.125 39.75 33.0625 39.75 28.125H62.25C62.25 33.0625 60.375 33.125 60.375 33.125Z" fill="#E08838"/>
<path d="M61 6.875H41V28.125H61V6.875Z" fill="#F2BB41"/>
<path d="M57.25 14.375H47.25V15.625H57.25V14.375Z" fill="#E08838"/>
<path d="M57.25 16.875H47.25V18.125H57.25V16.875Z" fill="#E08838"/>
<path d="M57.25 19.375H47.25V20.625H57.25V19.375Z" fill="#E08838"/>
<path d="M57.25 21.875H47.25V23.125H57.25V21.875Z" fill="#E08838"/>
<path d="M57.25 24.375H47.25V25.625H57.25V24.375Z" fill="#E08838"/>
<path d="M46 14.375H44.75V15.625H46V14.375Z" fill="#E08838"/>
<path d="M46 16.875H44.75V18.125H46V16.875Z" fill="#E08838"/>
<path d="M46 19.375H44.75V20.625H46V19.375Z" fill="#E08838"/>
<path d="M46 21.875H44.75V23.125H46V21.875Z" fill="#E08838"/>
<path d="M46 24.375H44.75V25.625H46V24.375Z" fill="#E08838"/>
<path d="M23.951 46V38.95H26.911C27.6843 38.95 28.2777 39.13 28.691 39.49C29.111 39.8433 29.321 40.3533 29.321 41.02C29.321 41.42 29.2343 41.7667 29.061 42.06C28.8943 42.3467 28.6543 42.5733 28.341 42.74C28.0277 42.9 27.6543 42.99 27.221 43.01L27.281 42.94L27.471 42.95C27.691 42.9633 27.881 43.0333 28.041 43.16C28.2077 43.28 28.3643 43.47 28.511 43.73L29.721 46H28.551L27.361 43.78C27.2677 43.6067 27.1643 43.4733 27.051 43.38C26.9443 43.2867 26.8177 43.2233 26.671 43.19C26.531 43.15 26.3643 43.13 26.171 43.13H25.011V46H23.951ZM25.011 42.29H26.781C27.281 42.29 27.651 42.1867 27.891 41.98C28.1377 41.7733 28.261 41.4633 28.261 41.05C28.261 40.6367 28.1377 40.33 27.891 40.13C27.6443 39.9233 27.2677 39.82 26.761 39.82H25.011V42.29ZM33.0858 46.09C32.5324 46.09 32.0558 45.99 31.6558 45.79C31.2558 45.5833 30.9491 45.29 30.7358 44.91C30.5224 44.5233 30.4158 44.0667 30.4158 43.54C30.4158 43.04 30.5158 42.6 30.7158 42.22C30.9224 41.8333 31.2091 41.5333 31.5758 41.32C31.9491 41.1 32.3791 40.99 32.8658 40.99C33.3391 40.99 33.7424 41.09 34.0758 41.29C34.4091 41.49 34.6658 41.7767 34.8458 42.15C35.0258 42.5167 35.1158 42.9567 35.1158 43.47V43.81H31.2358V43.14H34.3958L34.2258 43.31C34.2258 42.8033 34.1091 42.4167 33.8758 42.15C33.6491 41.8833 33.3224 41.75 32.8958 41.75C32.5891 41.75 32.3258 41.82 32.1058 41.96C31.8858 42.0933 31.7158 42.2867 31.5958 42.54C31.4758 42.7867 31.4158 43.0833 31.4158 43.43V43.52C31.4158 43.9067 31.4791 44.23 31.6058 44.49C31.7391 44.75 31.9324 44.9433 32.1858 45.07C32.4391 45.1967 32.7458 45.26 33.1058 45.26C33.3791 45.26 33.6524 45.2233 33.9258 45.15C34.2058 45.07 34.4624 44.9333 34.6958 44.74L35.0258 45.47C34.7791 45.67 34.4791 45.8233 34.1258 45.93C33.7791 46.0367 33.4324 46.09 33.0858 46.09ZM38.1501 46.09C37.8767 46.09 37.6101 46.0667 37.3501 46.02C37.0901 45.9733 36.8501 45.9067 36.6301 45.82C36.4167 45.7333 36.2334 45.6267 36.0801 45.5L36.3801 44.78C36.5467 44.8933 36.7267 44.99 36.9201 45.07C37.1201 45.15 37.3234 45.21 37.5301 45.25C37.7434 45.2833 37.9467 45.3 38.1401 45.3C38.5134 45.3 38.7967 45.2433 38.9901 45.13C39.1834 45.01 39.2801 44.8467 39.2801 44.64C39.2801 44.4667 39.2201 44.3333 39.1001 44.24C38.9867 44.1467 38.8001 44.0767 38.5401 44.03L37.5301 43.84C37.0901 43.76 36.7601 43.6067 36.5401 43.38C36.3201 43.1467 36.2101 42.8533 36.2101 42.5C36.2101 42.1933 36.2934 41.93 36.4601 41.71C36.6267 41.4833 36.8634 41.3067 37.1701 41.18C37.4834 41.0533 37.8501 40.99 38.2701 40.99C38.5034 40.99 38.7334 41.0133 38.9601 41.06C39.1934 41.1 39.4101 41.1633 39.6101 41.25C39.8167 41.3367 39.9867 41.4467 40.1201 41.58L39.8101 42.3C39.6767 42.1867 39.5234 42.0933 39.3501 42.02C39.1767 41.94 38.9967 41.88 38.8101 41.84C38.6301 41.8 38.4501 41.78 38.2701 41.78C37.9101 41.78 37.6367 41.84 37.4501 41.96C37.2634 42.08 37.1701 42.2467 37.1701 42.46C37.1701 42.6267 37.2234 42.76 37.3301 42.86C37.4434 42.96 37.6167 43.0333 37.8501 43.08L38.8401 43.26C39.3134 43.3467 39.6634 43.5 39.8901 43.72C40.1234 43.9333 40.2401 44.2233 40.2401 44.59C40.2401 44.9033 40.1534 45.1733 39.9801 45.4C39.8067 45.62 39.5634 45.79 39.2501 45.91C38.9367 46.03 38.5701 46.09 38.1501 46.09ZM41.4673 47.8V41.08H42.4673V42.15H42.4173C42.5439 41.79 42.7639 41.5067 43.0773 41.3C43.3906 41.0933 43.7606 40.99 44.1873 40.99C44.6273 40.99 45.0139 41.0967 45.3473 41.31C45.6806 41.5167 45.9373 41.81 46.1173 42.19C46.2973 42.57 46.3873 43.02 46.3873 43.54C46.3873 44.0467 46.2973 44.4933 46.1173 44.88C45.9373 45.2667 45.6839 45.5667 45.3573 45.78C45.0306 45.9867 44.6406 46.09 44.1873 46.09C43.7673 46.09 43.4039 45.99 43.0973 45.79C42.7973 45.5833 42.5873 45.3133 42.4673 44.98H42.5273V47.8H41.4673ZM43.9173 45.27C44.3506 45.27 44.6939 45.12 44.9473 44.82C45.2073 44.5133 45.3373 44.0833 45.3373 43.53C45.3373 42.9833 45.2106 42.5633 44.9573 42.27C44.7039 41.97 44.3573 41.82 43.9173 41.82C43.4839 41.82 43.1406 41.97 42.8873 42.27C42.6339 42.5633 42.5073 42.9833 42.5073 43.53C42.5073 44.0833 42.6339 44.5133 42.8873 44.82C43.1473 45.12 43.4906 45.27 43.9173 45.27ZM50.0389 46.09C49.4856 46.09 49.0089 45.99 48.6089 45.79C48.2089 45.5833 47.9022 45.29 47.6889 44.91C47.4756 44.5233 47.3689 44.0667 47.3689 43.54C47.3689 43.04 47.4689 42.6 47.6689 42.22C47.8756 41.8333 48.1622 41.5333 48.5289 41.32C48.9022 41.1 49.3322 40.99 49.8189 40.99C50.2922 40.99 50.6956 41.09 51.0289 41.29C51.3622 41.49 51.6189 41.7767 51.7989 42.15C51.9789 42.5167 52.0689 42.9567 52.0689 43.47V43.81H48.1889V43.14H51.3489L51.1789 43.31C51.1789 42.8033 51.0622 42.4167 50.8289 42.15C50.6022 41.8833 50.2756 41.75 49.8489 41.75C49.5422 41.75 49.2789 41.82 49.0589 41.96C48.8389 42.0933 48.6689 42.2867 48.5489 42.54C48.4289 42.7867 48.3689 43.0833 48.3689 43.43V43.52C48.3689 43.9067 48.4322 44.23 48.5589 44.49C48.6922 44.75 48.8856 44.9433 49.1389 45.07C49.3922 45.1967 49.6989 45.26 50.0589 45.26C50.3322 45.26 50.6056 45.2233 50.8789 45.15C51.1589 45.07 51.4156 44.9333 51.6489 44.74L51.9789 45.47C51.7322 45.67 51.4322 45.8233 51.0789 45.93C50.7322 46.0367 50.3856 46.09 50.0389 46.09ZM53.3032 46V38.95H54.3632V43.23H54.3932L56.4832 41.08H57.7732L55.2132 43.68L55.2232 43.23L57.9732 46H56.6632L54.3932 43.76H54.3632V46H53.3032ZM60.668 46.09C60.0414 46.09 59.5714 45.93 59.258 45.61C58.9514 45.29 58.798 44.8267 58.798 44.22V41.91H57.838V41.08H58.828V39.62H59.858V41.08H61.478V41.91H59.858V44.15C59.858 44.5033 59.9347 44.77 60.088 44.95C60.248 45.1233 60.4947 45.21 60.828 45.21C60.948 45.21 61.0647 45.1967 61.178 45.17C61.2914 45.1433 61.4047 45.11 61.518 45.07L61.678 45.87C61.558 45.9433 61.4047 45.9967 61.218 46.03C61.0314 46.07 60.848 46.09 60.668 46.09ZM64.6336 46.09C64.1336 46.09 63.6969 45.9867 63.3236 45.78C62.9569 45.5667 62.6736 45.27 62.4736 44.89C62.2736 44.5033 62.1736 44.0533 62.1736 43.54C62.1736 43.02 62.2736 42.57 62.4736 42.19C62.6736 41.81 62.9569 41.5167 63.3236 41.31C63.6969 41.0967 64.1336 40.99 64.6336 40.99C65.1403 40.99 65.5769 41.0967 65.9436 41.31C66.3103 41.5167 66.5936 41.81 66.7936 42.19C66.9936 42.57 67.0936 43.02 67.0936 43.54C67.0936 44.0533 66.9936 44.5033 66.7936 44.89C66.5936 45.27 66.3103 45.5667 65.9436 45.78C65.5769 45.9867 65.1403 46.09 64.6336 46.09ZM64.6336 45.25C65.0669 45.25 65.4103 45.1 65.6636 44.8C65.9169 44.5 66.0436 44.0767 66.0436 43.53C66.0436 42.9833 65.9169 42.5633 65.6636 42.27C65.4103 41.9767 65.0669 41.83 64.6336 41.83C64.2003 41.83 63.8569 41.9767 63.6036 42.27C63.3503 42.5633 63.2236 42.9833 63.2236 43.53C63.2236 44.0767 63.3503 44.5 63.6036 44.8C63.8569 45.1 64.2003 45.25 64.6336 45.25ZM68.352 46V41.08H69.352V42.12H69.302C69.4554 41.7533 69.6887 41.4733 70.002 41.28C70.322 41.0867 70.682 40.99 71.082 40.99C71.482 40.99 71.812 41.0633 72.072 41.21C72.3387 41.35 72.5387 41.57 72.672 41.87C72.8054 42.17 72.872 42.5433 72.872 42.99V46H71.812V43.05C71.812 42.7833 71.7754 42.5633 71.702 42.39C71.6354 42.21 71.5254 42.0767 71.372 41.99C71.2254 41.8967 71.032 41.85 70.792 41.85C70.5187 41.85 70.2754 41.91 70.062 42.03C69.8554 42.15 69.6954 42.3167 69.582 42.53C69.4687 42.7367 69.412 42.9767 69.412 43.25V46H68.352ZM74.2972 39.96V38.86H75.5272V39.96H74.2972ZM74.3872 46V41.08H75.4472V46H74.3872ZM30.7934 60V55.08H31.7834V56.25H31.7334C31.8468 55.87 32.0434 55.5733 32.3234 55.36C32.6101 55.1467 32.9768 55.0233 33.4234 54.99L33.8334 54.97L33.9134 55.89L33.2134 55.96C32.7801 56 32.4468 56.14 32.2134 56.38C31.9801 56.62 31.8634 56.9367 31.8634 57.33V60H30.7934ZM34.8266 60V55.08H35.8166V56.25H35.7666C35.88 55.87 36.0766 55.5733 36.3566 55.36C36.6433 55.1467 37.01 55.0233 37.4566 54.99L37.8666 54.97L37.9466 55.89L37.2466 55.96C36.8133 56 36.48 56.14 36.2466 56.38C36.0133 56.62 35.8966 56.9367 35.8966 57.33V60H34.8266ZM41.1815 60.09C40.6282 60.09 40.1515 59.99 39.7515 59.79C39.3515 59.5833 39.0448 59.29 38.8315 58.91C38.6182 58.5233 38.5115 58.0667 38.5115 57.54C38.5115 57.04 38.6115 56.6 38.8115 56.22C39.0182 55.8333 39.3048 55.5333 39.6715 55.32C40.0448 55.1 40.4748 54.99 40.9615 54.99C41.4348 54.99 41.8382 55.09 42.1715 55.29C42.5048 55.49 42.7615 55.7767 42.9415 56.15C43.1215 56.5167 43.2115 56.9567 43.2115 57.47V57.81H39.3315V57.14H42.4915L42.3215 57.31C42.3215 56.8033 42.2048 56.4167 41.9715 56.15C41.7448 55.8833 41.4182 55.75 40.9915 55.75C40.6848 55.75 40.4215 55.82 40.2015 55.96C39.9815 56.0933 39.8115 56.2867 39.6915 56.54C39.5715 56.7867 39.5115 57.0833 39.5115 57.43V57.52C39.5115 57.9067 39.5748 58.23 39.7015 58.49C39.8348 58.75 40.0282 58.9433 40.2815 59.07C40.5348 59.1967 40.8415 59.26 41.2015 59.26C41.4748 59.26 41.7482 59.2233 42.0215 59.15C42.3015 59.07 42.5582 58.9333 42.7915 58.74L43.1215 59.47C42.8748 59.67 42.5748 59.8233 42.2215 59.93C41.8748 60.0367 41.5282 60.09 41.1815 60.09ZM46.6558 61.89C46.2358 61.89 45.8324 61.8367 45.4458 61.73C45.0591 61.6233 44.7224 61.4667 44.4358 61.26L44.7558 60.48C44.9424 60.6 45.1358 60.7033 45.3358 60.79C45.5424 60.8767 45.7524 60.94 45.9658 60.98C46.1791 61.0267 46.3924 61.05 46.6058 61.05C47.0924 61.05 47.4624 60.93 47.7158 60.69C47.9691 60.45 48.0958 60.1 48.0958 59.64V58.72H48.1358C48.0224 59.06 47.8091 59.3367 47.4958 59.55C47.1824 59.7567 46.8191 59.86 46.4058 59.86C45.9524 59.86 45.5558 59.76 45.2158 59.56C44.8824 59.3533 44.6224 59.0667 44.4358 58.7C44.2558 58.3333 44.1658 57.9067 44.1658 57.42C44.1658 56.9333 44.2558 56.51 44.4358 56.15C44.6224 55.7833 44.8824 55.5 45.2158 55.3C45.5558 55.0933 45.9524 54.99 46.4058 54.99C46.8258 54.99 47.1924 55.0967 47.5058 55.31C47.8191 55.5167 48.0291 55.7967 48.1358 56.15H48.0958V55.08H49.1058V59.53C49.1058 60.0367 49.0091 60.4667 48.8158 60.82C48.6291 61.1733 48.3524 61.44 47.9858 61.62C47.6191 61.8 47.1758 61.89 46.6558 61.89ZM46.6458 59.03C47.0858 59.03 47.4324 58.8867 47.6858 58.6C47.9458 58.3067 48.0758 57.9133 48.0758 57.42C48.0758 56.9267 47.9458 56.5367 47.6858 56.25C47.4324 55.9633 47.0858 55.82 46.6458 55.82C46.2058 55.82 45.8558 55.9633 45.5958 56.25C45.3424 56.5367 45.2158 56.9267 45.2158 57.42C45.2158 57.9133 45.3424 58.3067 45.5958 58.6C45.8558 58.8867 46.2058 59.03 46.6458 59.03ZM52.457 60.09C52.0503 60.09 51.7103 60.0167 51.437 59.87C51.1703 59.7233 50.967 59.5033 50.827 59.21C50.6936 58.91 50.627 58.5367 50.627 58.09V55.08H51.677V58.07C51.677 58.3167 51.7103 58.53 51.777 58.71C51.8503 58.8833 51.9636 59.0133 52.117 59.1C52.277 59.1867 52.4736 59.23 52.707 59.23C52.967 59.23 53.1936 59.17 53.387 59.05C53.587 58.93 53.7436 58.7667 53.857 58.56C53.977 58.3467 54.037 58.1067 54.037 57.84V55.08H55.087V60H54.087V58.93H54.157C54.0036 59.3033 53.7803 59.59 53.487 59.79C53.2003 59.99 52.857 60.09 52.457 60.09ZM58.2235 60.09C57.6968 60.09 57.2968 59.9433 57.0235 59.65C56.7568 59.35 56.6235 58.9233 56.6235 58.37V52.95H57.6835V58.29C57.6835 58.49 57.7102 58.6633 57.7635 58.81C57.8235 58.95 57.9102 59.0567 58.0235 59.13C58.1368 59.1967 58.2768 59.23 58.4435 59.23C58.5302 59.23 58.6135 59.2267 58.6935 59.22C58.7735 59.2067 58.8568 59.19 58.9435 59.17L58.9535 59.99C58.8335 60.0233 58.7135 60.0467 58.5935 60.06C58.4802 60.08 58.3568 60.09 58.2235 60.09ZM61.4266 60.09C60.9 60.09 60.5 59.9433 60.2266 59.65C59.96 59.35 59.8266 58.9233 59.8266 58.37V52.95H60.8866V58.29C60.8866 58.49 60.9133 58.6633 60.9666 58.81C61.0266 58.95 61.1133 59.0567 61.2266 59.13C61.34 59.1967 61.48 59.23 61.6466 59.23C61.7333 59.23 61.8166 59.2267 61.8966 59.22C61.9766 59.2067 62.06 59.19 62.1466 59.17L62.1566 59.99C62.0366 60.0233 61.9166 60.0467 61.7966 60.06C61.6833 60.08 61.56 60.09 61.4266 60.09ZM64.6598 60.09C64.3131 60.09 63.9998 60.0233 63.7198 59.89C63.4398 59.7567 63.2198 59.5767 63.0598 59.35C62.9064 59.1167 62.8298 58.8567 62.8298 58.57C62.8298 58.2033 62.9264 57.9133 63.1198 57.7C63.3198 57.4867 63.6364 57.3333 64.0698 57.24C64.5031 57.14 65.0764 57.09 65.7898 57.09H66.3698V57.75H65.8198C65.4598 57.75 65.1564 57.7633 64.9098 57.79C64.6631 57.81 64.4631 57.85 64.3098 57.91C64.1564 57.97 64.0431 58.05 63.9698 58.15C63.9031 58.2433 63.8698 58.3633 63.8698 58.51C63.8698 58.7633 63.9598 58.9633 64.1398 59.11C64.3264 59.25 64.5698 59.32 64.8698 59.32C65.1298 59.32 65.3598 59.2633 65.5598 59.15C65.7598 59.03 65.9198 58.87 66.0398 58.67C66.1598 58.4633 66.2198 58.2333 66.2198 57.98V56.85C66.2198 56.4767 66.1264 56.21 65.9398 56.05C65.7598 55.89 65.4764 55.81 65.0898 55.81C64.8031 55.81 64.5164 55.85 64.2298 55.93C63.9498 56.01 63.6564 56.14 63.3498 56.32L63.0298 55.58C63.2231 55.4533 63.4364 55.3467 63.6698 55.26C63.9098 55.1733 64.1564 55.1067 64.4098 55.06C64.6698 55.0133 64.9231 54.99 65.1698 54.99C65.6164 54.99 65.9931 55.06 66.2998 55.2C66.6064 55.34 66.8398 55.5533 66.9998 55.84C67.1598 56.1267 67.2398 56.5 67.2398 56.96V60H66.2898V58.93H66.3298C66.2564 59.1567 66.1431 59.36 65.9898 59.54C65.8364 59.7133 65.6464 59.85 65.4198 59.95C65.1998 60.0433 64.9464 60.09 64.6598 60.09ZM70.9122 60.09C70.2855 60.09 69.8155 59.93 69.5022 59.61C69.1955 59.29 69.0422 58.8267 69.0422 58.22V55.91H68.0822V55.08H69.0722V53.62H70.1022V55.08H71.7222V55.91H70.1022V58.15C70.1022 58.5033 70.1789 58.77 70.3322 58.95C70.4922 59.1233 70.7389 59.21 71.0722 59.21C71.1922 59.21 71.3089 59.1967 71.4222 59.17C71.5355 59.1433 71.6489 59.11 71.7622 59.07L71.9222 59.87C71.8022 59.9433 71.6489 59.9967 71.4622 60.03C71.2755 60.07 71.0922 60.09 70.9122 60.09Z" fill="black"/>
<path d="M27.4764 73V65.95H28.5364V69.1H28.5764L31.8064 65.95H33.1364L29.3164 69.64L29.3564 69.1L33.3464 73H31.9764L28.5764 69.71H28.5364V73H27.4764ZM35.6168 73.09C35.2701 73.09 34.9568 73.0233 34.6768 72.89C34.3968 72.7567 34.1768 72.5767 34.0168 72.35C33.8635 72.1167 33.7868 71.8567 33.7868 71.57C33.7868 71.2033 33.8835 70.9133 34.0768 70.7C34.2768 70.4867 34.5935 70.3333 35.0268 70.24C35.4601 70.14 36.0335 70.09 36.7468 70.09H37.3268V70.75H36.7768C36.4168 70.75 36.1135 70.7633 35.8668 70.79C35.6201 70.81 35.4201 70.85 35.2668 70.91C35.1135 70.97 35.0001 71.05 34.9268 71.15C34.8601 71.2433 34.8268 71.3633 34.8268 71.51C34.8268 71.7633 34.9168 71.9633 35.0968 72.11C35.2835 72.25 35.5268 72.32 35.8268 72.32C36.0868 72.32 36.3168 72.2633 36.5168 72.15C36.7168 72.03 36.8768 71.87 36.9968 71.67C37.1168 71.4633 37.1768 71.2333 37.1768 70.98V69.85C37.1768 69.4767 37.0835 69.21 36.8968 69.05C36.7168 68.89 36.4335 68.81 36.0468 68.81C35.7601 68.81 35.4735 68.85 35.1868 68.93C34.9068 69.01 34.6135 69.14 34.3068 69.32L33.9868 68.58C34.1801 68.4533 34.3935 68.3467 34.6268 68.26C34.8668 68.1733 35.1135 68.1067 35.3668 68.06C35.6268 68.0133 35.8801 67.99 36.1268 67.99C36.5735 67.99 36.9501 68.06 37.2568 68.2C37.5635 68.34 37.7968 68.5533 37.9568 68.84C38.1168 69.1267 38.1968 69.5 38.1968 69.96V73H37.2468V71.93H37.2868C37.2135 72.1567 37.1001 72.36 36.9468 72.54C36.7935 72.7133 36.6035 72.85 36.3768 72.95C36.1568 73.0433 35.9035 73.09 35.6168 73.09ZM39.7192 74.8V68.08H40.7192V69.15H40.6692C40.7959 68.79 41.0159 68.5067 41.3292 68.3C41.6426 68.0933 42.0126 67.99 42.4392 67.99C42.8792 67.99 43.2659 68.0967 43.5992 68.31C43.9326 68.5167 44.1892 68.81 44.3692 69.19C44.5492 69.57 44.6392 70.02 44.6392 70.54C44.6392 71.0467 44.5492 71.4933 44.3692 71.88C44.1892 72.2667 43.9359 72.5667 43.6092 72.78C43.2826 72.9867 42.8926 73.09 42.4392 73.09C42.0192 73.09 41.6559 72.99 41.3492 72.79C41.0492 72.5833 40.8392 72.3133 40.7192 71.98H40.7792V74.8H39.7192ZM42.1692 72.27C42.6026 72.27 42.9459 72.12 43.1992 71.82C43.4592 71.5133 43.5892 71.0833 43.5892 70.53C43.5892 69.9833 43.4626 69.5633 43.2092 69.27C42.9559 68.97 42.6092 68.82 42.1692 68.82C41.7359 68.82 41.3926 68.97 41.1392 69.27C40.8859 69.5633 40.7592 69.9833 40.7592 70.53C40.7592 71.0833 40.8859 71.5133 41.1392 71.82C41.3992 72.12 41.7426 72.27 42.1692 72.27ZM45.8109 66.96V65.86H47.0409V66.96H45.8109ZM45.9009 73V68.08H46.9609V73H45.9009ZM50.6485 73.09C50.0218 73.09 49.5518 72.93 49.2385 72.61C48.9318 72.29 48.7785 71.8267 48.7785 71.22V68.91H47.8185V68.08H48.8085V66.62H49.8385V68.08H51.4585V68.91H49.8385V71.15C49.8385 71.5033 49.9152 71.77 50.0685 71.95C50.2285 72.1233 50.4752 72.21 50.8085 72.21C50.9285 72.21 51.0452 72.1967 51.1585 72.17C51.2718 72.1433 51.3852 72.11 51.4985 72.07L51.6585 72.87C51.5385 72.9433 51.3852 72.9967 51.1985 73.03C51.0118 73.07 50.8285 73.09 50.6485 73.09ZM54.2929 73.09C53.8862 73.09 53.5462 73.0167 53.2729 72.87C53.0062 72.7233 52.8029 72.5033 52.6629 72.21C52.5296 71.91 52.4629 71.5367 52.4629 71.09V68.08H53.5129V71.07C53.5129 71.3167 53.5462 71.53 53.6129 71.71C53.6862 71.8833 53.7996 72.0133 53.9529 72.1C54.1129 72.1867 54.3096 72.23 54.5429 72.23C54.8029 72.23 55.0296 72.17 55.2229 72.05C55.4229 71.93 55.5796 71.7667 55.6929 71.56C55.8129 71.3467 55.8729 71.1067 55.8729 70.84V68.08H56.9229V73H55.9229V71.93H55.9929C55.8396 72.3033 55.6162 72.59 55.3229 72.79C55.0362 72.99 54.6929 73.09 54.2929 73.09ZM60.0595 73.09C59.5328 73.09 59.1328 72.9433 58.8595 72.65C58.5928 72.35 58.4595 71.9233 58.4595 71.37V65.95H59.5195V71.29C59.5195 71.49 59.5461 71.6633 59.5995 71.81C59.6595 71.95 59.7461 72.0567 59.8595 72.13C59.9728 72.1967 60.1128 72.23 60.2795 72.23C60.3661 72.23 60.4495 72.2267 60.5295 72.22C60.6095 72.2067 60.6928 72.19 60.7795 72.17L60.7895 72.99C60.6695 73.0233 60.5495 73.0467 60.4295 73.06C60.3161 73.08 60.1928 73.09 60.0595 73.09ZM63.2626 73.09C62.7359 73.09 62.3359 72.9433 62.0626 72.65C61.7959 72.35 61.6626 71.9233 61.6626 71.37V65.95H62.7226V71.29C62.7226 71.49 62.7492 71.6633 62.8026 71.81C62.8626 71.95 62.9492 72.0567 63.0626 72.13C63.1759 72.1967 63.3159 72.23 63.4826 72.23C63.5692 72.23 63.6526 72.2267 63.7326 72.22C63.8126 72.2067 63.8959 72.19 63.9826 72.17L63.9926 72.99C63.8726 73.0233 63.7526 73.0467 63.6326 73.06C63.5192 73.08 63.3959 73.09 63.2626 73.09ZM64.7757 66.96V65.86H66.0057V66.96H64.7757ZM64.8657 73V68.08H65.9257V73H64.8657ZM70.4375 73L73.8675 66.43L73.8875 66.87H70.0375V65.95H74.8375V66.75L71.5975 73H70.4375Z" fill="#667085"/>
<defs>
<filter id="filter0_d_8358_581" x="0" y="0" width="100" height="85.8501" filterUnits="userSpaceOnUse" color-interpolation-filters="sRGB">
<feFlood flood-opacity="0" result="BackgroundImageFix"/>
<feColorMatrix in="SourceAlpha" type="matrix" values="0 0 0 0 0 0 0 0 0 0 0 0 0 0 0 0 0 0 127 0" result="hardAlpha"/>
<feOffset dy="4"/>
<feGaussianBlur stdDeviation="2"/>
<feComposite in2="hardAlpha" operator="out"/>
<feColorMatrix type="matrix" values="0 0 0 0 0 0 0 0 0 0 0 0 0 0 0 0 0 0 0.25 0"/>
<feBlend mode="normal" in2="BackgroundImageFix" result="effect1_dropShadow_8358_581"/>
<feBlend mode="normal" in="SourceGraphic" in2="effect1_dropShadow_8358_581" result="shape"/>
</filter>
</defs>
</svg>
