<svg width="96" height="86" viewBox="0 0 96 86" fill="none" xmlns="http://www.w3.org/2000/svg">
<g filter="url(#filter0_d_8310_792)">
<path d="M5.37285 42.5185C4.62083 41.2089 4.24484 40.5536 4.09767 39.8574C3.96744 39.2412 3.96744 38.6048 4.09767 37.9886C4.24484 37.2924 4.62083 36.6371 5.37285 35.3274L23.5901 3.59555C24.3421 2.28569 24.7181 1.63076 25.2442 1.15444C25.7096 0.732998 26.2579 0.414612 26.8535 0.220002C27.5267 -2.00917e-07 28.2787 0 29.7827 0H66.2171C67.7214 0 68.4731 -2.00917e-07 69.1466 0.220002C69.7419 0.414612 70.2903 0.732998 70.756 1.15444C71.282 1.63076 71.6578 2.28569 72.41 3.59555L90.6271 35.3274C91.3792 36.6371 91.7551 37.2924 91.9021 37.9886C92.0326 38.6048 92.0326 39.2412 91.9021 39.8574C91.7551 40.5536 91.3792 41.2089 90.6271 42.5185L72.41 74.2506C71.6578 75.5603 71.282 76.2151 70.756 76.6915C70.2903 77.1131 69.7419 77.4313 69.1466 77.6259C68.4731 77.8462 67.7214 77.8462 66.2171 77.8462H29.7827C28.2787 77.8462 27.5267 77.8462 26.8535 77.6259C26.2579 77.4313 25.7096 77.1131 25.2442 76.6915C24.7181 76.2151 24.3421 75.5603 23.5901 74.2506L5.37285 42.5185Z" fill="white"/>
</g>
<g clip-path="url(#clip0_8310_792)">
<path d="M38 31H44.875V32.5625C44.875 33.4742 44.5128 34.3485 43.8682 34.9932C43.2235 35.6378 42.3492 36 41.4375 36C40.5258 36 39.6515 35.6378 39.0068 34.9932C38.3622 34.3485 38 33.4742 38 32.5625V31ZM43 16.15C45.5 16.15 46.75 19.75 46.75 22.25C46.75 23.5 46.125 24.75 45.5 26.625L44.875 28.5H38C38 27.25 37.375 25.375 37.375 22.25C37.375 19.125 39.8725 16.15 43 16.15ZM58.0675 26.1225L57.7962 27.6612C57.6379 28.5592 57.1294 29.3574 56.3826 29.8804C55.6357 30.4034 54.7117 30.6083 53.8137 30.45C52.9158 30.2917 52.1176 29.7832 51.5946 29.0363C51.0716 28.2894 50.8667 27.3654 51.025 26.4675L51.2975 24.93L58.0675 26.1225ZM55.7225 10.6312C58.8025 11.1737 60.745 14.5362 60.2025 17.6137C59.66 20.6925 58.7188 22.43 58.5025 23.6612L51.7312 22.4675L51.4412 20.5125C51.1512 18.5575 50.7537 17.2175 50.97 15.9875C51.4038 13.525 53.26 10.1975 55.7225 10.6312Z" fill="#F2BB41"/>
</g>
<path d="M17.8309 49.5V42.45H18.8909V45.47H22.8009V42.45H23.8709V49.5H22.8009V46.38H18.8909V49.5H17.8309ZM27.1725 49.59C26.8258 49.59 26.5125 49.5233 26.2325 49.39C25.9525 49.2567 25.7325 49.0767 25.5725 48.85C25.4191 48.6167 25.3425 48.3567 25.3425 48.07C25.3425 47.7033 25.4391 47.4133 25.6325 47.2C25.8325 46.9867 26.1491 46.8333 26.5825 46.74C27.0158 46.64 27.5891 46.59 28.3025 46.59H28.8825V47.25H28.3325C27.9725 47.25 27.6691 47.2633 27.4225 47.29C27.1758 47.31 26.9758 47.35 26.8225 47.41C26.6691 47.47 26.5558 47.55 26.4825 47.65C26.4158 47.7433 26.3825 47.8633 26.3825 48.01C26.3825 48.2633 26.4725 48.4633 26.6525 48.61C26.8391 48.75 27.0825 48.82 27.3825 48.82C27.6425 48.82 27.8725 48.7633 28.0725 48.65C28.2725 48.53 28.4325 48.37 28.5525 48.17C28.6725 47.9633 28.7325 47.7333 28.7325 47.48V46.35C28.7325 45.9767 28.6391 45.71 28.4525 45.55C28.2725 45.39 27.9891 45.31 27.6025 45.31C27.3158 45.31 27.0291 45.35 26.7425 45.43C26.4625 45.51 26.1691 45.64 25.8625 45.82L25.5425 45.08C25.7358 44.9533 25.9491 44.8467 26.1825 44.76C26.4225 44.6733 26.6691 44.6067 26.9225 44.56C27.1825 44.5133 27.4358 44.49 27.6825 44.49C28.1291 44.49 28.5058 44.56 28.8125 44.7C29.1191 44.84 29.3525 45.0533 29.5125 45.34C29.6725 45.6267 29.7525 46 29.7525 46.46V49.5H28.8025V48.43H28.8425C28.7691 48.6567 28.6558 48.86 28.5025 49.04C28.3491 49.2133 28.1591 49.35 27.9325 49.45C27.7125 49.5433 27.4591 49.59 27.1725 49.59ZM31.2749 51.3V44.58H32.2749V45.65H32.2249C32.3515 45.29 32.5715 45.0067 32.8849 44.8C33.1982 44.5933 33.5682 44.49 33.9949 44.49C34.4349 44.49 34.8215 44.5967 35.1549 44.81C35.4882 45.0167 35.7449 45.31 35.9249 45.69C36.1049 46.07 36.1949 46.52 36.1949 47.04C36.1949 47.5467 36.1049 47.9933 35.9249 48.38C35.7449 48.7667 35.4915 49.0667 35.1649 49.28C34.8382 49.4867 34.4482 49.59 33.9949 49.59C33.5749 49.59 33.2115 49.49 32.9049 49.29C32.6049 49.0833 32.3949 48.8133 32.2749 48.48H32.3349V51.3H31.2749ZM33.7249 48.77C34.1582 48.77 34.5015 48.62 34.7549 48.32C35.0149 48.0133 35.1449 47.5833 35.1449 47.03C35.1449 46.4833 35.0182 46.0633 34.7649 45.77C34.5115 45.47 34.1649 45.32 33.7249 45.32C33.2915 45.32 32.9482 45.47 32.6949 45.77C32.4415 46.0633 32.3149 46.4833 32.3149 47.03C32.3149 47.5833 32.4415 48.0133 32.6949 48.32C32.9549 48.62 33.2982 48.77 33.7249 48.77ZM39.0865 49.59C38.7399 49.59 38.4265 49.5233 38.1465 49.39C37.8665 49.2567 37.6465 49.0767 37.4865 48.85C37.3332 48.6167 37.2565 48.3567 37.2565 48.07C37.2565 47.7033 37.3532 47.4133 37.5465 47.2C37.7465 46.9867 38.0632 46.8333 38.4965 46.74C38.9299 46.64 39.5032 46.59 40.2165 46.59H40.7965V47.25H40.2465C39.8865 47.25 39.5832 47.2633 39.3365 47.29C39.0899 47.31 38.8899 47.35 38.7365 47.41C38.5832 47.47 38.4699 47.55 38.3965 47.65C38.3299 47.7433 38.2965 47.8633 38.2965 48.01C38.2965 48.2633 38.3865 48.4633 38.5665 48.61C38.7532 48.75 38.9965 48.82 39.2965 48.82C39.5565 48.82 39.7865 48.7633 39.9865 48.65C40.1865 48.53 40.3465 48.37 40.4665 48.17C40.5865 47.9633 40.6465 47.7333 40.6465 47.48V46.35C40.6465 45.9767 40.5532 45.71 40.3665 45.55C40.1865 45.39 39.9032 45.31 39.5165 45.31C39.2299 45.31 38.9432 45.35 38.6565 45.43C38.3765 45.51 38.0832 45.64 37.7765 45.82L37.4565 45.08C37.6499 44.9533 37.8632 44.8467 38.0965 44.76C38.3365 44.6733 38.5832 44.6067 38.8365 44.56C39.0965 44.5133 39.3499 44.49 39.5965 44.49C40.0432 44.49 40.4199 44.56 40.7265 44.7C41.0332 44.84 41.2665 45.0533 41.4265 45.34C41.5865 45.6267 41.6665 46 41.6665 46.46V49.5H40.7165V48.43H40.7565C40.6832 48.6567 40.5699 48.86 40.4165 49.04C40.2632 49.2133 40.0732 49.35 39.8465 49.45C39.6265 49.5433 39.3732 49.59 39.0865 49.59ZM45.3389 49.59C44.7123 49.59 44.2423 49.43 43.9289 49.11C43.6223 48.79 43.4689 48.3267 43.4689 47.72V45.41H42.5089V44.58H43.4989V43.12H44.5289V44.58H46.1489V45.41H44.5289V47.65C44.5289 48.0033 44.6056 48.27 44.7589 48.45C44.9189 48.6233 45.1656 48.71 45.4989 48.71C45.6189 48.71 45.7356 48.6967 45.8489 48.67C45.9623 48.6433 46.0756 48.61 46.1889 48.57L46.3489 49.37C46.2289 49.4433 46.0756 49.4967 45.8889 49.53C45.7023 49.57 45.5189 49.59 45.3389 49.59ZM52.3075 49.59C51.7541 49.59 51.2775 49.49 50.8775 49.29C50.4775 49.0833 50.1708 48.79 49.9575 48.41C49.7441 48.0233 49.6375 47.5667 49.6375 47.04C49.6375 46.54 49.7375 46.1 49.9375 45.72C50.1441 45.3333 50.4308 45.0333 50.7975 44.82C51.1708 44.6 51.6008 44.49 52.0875 44.49C52.5608 44.49 52.9641 44.59 53.2975 44.79C53.6308 44.99 53.8875 45.2767 54.0675 45.65C54.2475 46.0167 54.3375 46.4567 54.3375 46.97V47.31H50.4575V46.64H53.6175L53.4475 46.81C53.4475 46.3033 53.3308 45.9167 53.0975 45.65C52.8708 45.3833 52.5441 45.25 52.1175 45.25C51.8108 45.25 51.5475 45.32 51.3275 45.46C51.1075 45.5933 50.9375 45.7867 50.8175 46.04C50.6975 46.2867 50.6375 46.5833 50.6375 46.93V47.02C50.6375 47.4067 50.7008 47.73 50.8275 47.99C50.9608 48.25 51.1541 48.4433 51.4075 48.57C51.6608 48.6967 51.9675 48.76 52.3275 48.76C52.6008 48.76 52.8741 48.7233 53.1475 48.65C53.4275 48.57 53.6841 48.4333 53.9175 48.24L54.2475 48.97C54.0008 49.17 53.7008 49.3233 53.3475 49.43C53.0008 49.5367 52.6541 49.59 52.3075 49.59ZM58.3159 51.3V44.58H59.3159V45.65H59.2659C59.3926 45.29 59.6126 45.0067 59.9259 44.8C60.2392 44.5933 60.6092 44.49 61.0359 44.49C61.4759 44.49 61.8626 44.5967 62.1959 44.81C62.5292 45.0167 62.7859 45.31 62.9659 45.69C63.1459 46.07 63.2359 46.52 63.2359 47.04C63.2359 47.5467 63.1459 47.9933 62.9659 48.38C62.7859 48.7667 62.5326 49.0667 62.2059 49.28C61.8792 49.4867 61.4892 49.59 61.0359 49.59C60.6159 49.59 60.2526 49.49 59.9459 49.29C59.6459 49.0833 59.4359 48.8133 59.3159 48.48H59.3759V51.3H58.3159ZM60.7659 48.77C61.1992 48.77 61.5426 48.62 61.7959 48.32C62.0559 48.0133 62.1859 47.5833 62.1859 47.03C62.1859 46.4833 62.0592 46.0633 61.8059 45.77C61.5526 45.47 61.2059 45.32 60.7659 45.32C60.3326 45.32 59.9892 45.47 59.7359 45.77C59.4826 46.0633 59.3559 46.4833 59.3559 47.03C59.3559 47.5833 59.4826 48.0133 59.7359 48.32C59.9959 48.62 60.3392 48.77 60.7659 48.77ZM66.1275 49.59C65.7809 49.59 65.4675 49.5233 65.1875 49.39C64.9075 49.2567 64.6875 49.0767 64.5275 48.85C64.3742 48.6167 64.2975 48.3567 64.2975 48.07C64.2975 47.7033 64.3942 47.4133 64.5875 47.2C64.7875 46.9867 65.1042 46.8333 65.5375 46.74C65.9709 46.64 66.5442 46.59 67.2575 46.59H67.8375V47.25H67.2875C66.9275 47.25 66.6242 47.2633 66.3775 47.29C66.1309 47.31 65.9309 47.35 65.7775 47.41C65.6242 47.47 65.5109 47.55 65.4375 47.65C65.3709 47.7433 65.3375 47.8633 65.3375 48.01C65.3375 48.2633 65.4275 48.4633 65.6075 48.61C65.7942 48.75 66.0375 48.82 66.3375 48.82C66.5975 48.82 66.8275 48.7633 67.0275 48.65C67.2275 48.53 67.3875 48.37 67.5075 48.17C67.6275 47.9633 67.6875 47.7333 67.6875 47.48V46.35C67.6875 45.9767 67.5942 45.71 67.4075 45.55C67.2275 45.39 66.9442 45.31 66.5575 45.31C66.2709 45.31 65.9842 45.35 65.6975 45.43C65.4175 45.51 65.1242 45.64 64.8175 45.82L64.4975 45.08C64.6909 44.9533 64.9042 44.8467 65.1375 44.76C65.3775 44.6733 65.6242 44.6067 65.8775 44.56C66.1375 44.5133 66.3909 44.49 66.6375 44.49C67.0842 44.49 67.4609 44.56 67.7675 44.7C68.0742 44.84 68.3075 45.0533 68.4675 45.34C68.6275 45.6267 68.7075 46 68.7075 46.46V49.5H67.7575V48.43H67.7975C67.7242 48.6567 67.6109 48.86 67.4575 49.04C67.3042 49.2133 67.1142 49.35 66.8875 49.45C66.6675 49.5433 66.4142 49.59 66.1275 49.59ZM70.23 49.5V44.58H71.22V45.75H71.17C71.2833 45.37 71.48 45.0733 71.76 44.86C72.0466 44.6467 72.4133 44.5233 72.86 44.49L73.27 44.47L73.35 45.39L72.65 45.46C72.2166 45.5 71.8833 45.64 71.65 45.88C71.4166 46.12 71.3 46.4367 71.3 46.83V49.5H70.23ZM76.5848 49.59C76.0315 49.59 75.5548 49.49 75.1548 49.29C74.7548 49.0833 74.4481 48.79 74.2348 48.41C74.0215 48.0233 73.9148 47.5667 73.9148 47.04C73.9148 46.54 74.0148 46.1 74.2148 45.72C74.4215 45.3333 74.7081 45.0333 75.0748 44.82C75.4481 44.6 75.8781 44.49 76.3648 44.49C76.8381 44.49 77.2415 44.59 77.5748 44.79C77.9081 44.99 78.1648 45.2767 78.3448 45.65C78.5248 46.0167 78.6148 46.4567 78.6148 46.97V47.31H74.7348V46.64H77.8948L77.7248 46.81C77.7248 46.3033 77.6081 45.9167 77.3748 45.65C77.1481 45.3833 76.8215 45.25 76.3948 45.25C76.0881 45.25 75.8248 45.32 75.6048 45.46C75.3848 45.5933 75.2148 45.7867 75.0948 46.04C74.9748 46.2867 74.9148 46.5833 74.9148 46.93V47.02C74.9148 47.4067 74.9781 47.73 75.1048 47.99C75.2381 48.25 75.4315 48.4433 75.6848 48.57C75.9381 48.6967 76.2448 48.76 76.6048 48.76C76.8781 48.76 77.1515 48.7233 77.4248 48.65C77.7048 48.57 77.9615 48.4333 78.1948 48.24L78.5248 48.97C78.2781 49.17 77.9781 49.3233 77.6248 49.43C77.2781 49.5367 76.9315 49.59 76.5848 49.59ZM76.8048 43.46V42.4H77.8648V43.46H76.8048ZM74.8848 43.46V42.4H75.9448V43.46H74.8848Z" fill="black"/>
<path d="M24.4764 64.5V57.45H25.5364V60.6H25.5764L28.8064 57.45H30.1364L26.3164 61.14L26.3564 60.6L30.3464 64.5H28.9764L25.5764 61.21H25.5364V64.5H24.4764ZM32.6168 64.59C32.2701 64.59 31.9568 64.5233 31.6768 64.39C31.3968 64.2567 31.1768 64.0767 31.0168 63.85C30.8635 63.6167 30.7868 63.3567 30.7868 63.07C30.7868 62.7033 30.8835 62.4133 31.0768 62.2C31.2768 61.9867 31.5935 61.8333 32.0268 61.74C32.4601 61.64 33.0335 61.59 33.7468 61.59H34.3268V62.25H33.7768C33.4168 62.25 33.1135 62.2633 32.8668 62.29C32.6201 62.31 32.4201 62.35 32.2668 62.41C32.1135 62.47 32.0001 62.55 31.9268 62.65C31.8601 62.7433 31.8268 62.8633 31.8268 63.01C31.8268 63.2633 31.9168 63.4633 32.0968 63.61C32.2835 63.75 32.5268 63.82 32.8268 63.82C33.0868 63.82 33.3168 63.7633 33.5168 63.65C33.7168 63.53 33.8768 63.37 33.9968 63.17C34.1168 62.9633 34.1768 62.7333 34.1768 62.48V61.35C34.1768 60.9767 34.0835 60.71 33.8968 60.55C33.7168 60.39 33.4335 60.31 33.0468 60.31C32.7601 60.31 32.4735 60.35 32.1868 60.43C31.9068 60.51 31.6135 60.64 31.3068 60.82L30.9868 60.08C31.1801 59.9533 31.3935 59.8467 31.6268 59.76C31.8668 59.6733 32.1135 59.6067 32.3668 59.56C32.6268 59.5133 32.8801 59.49 33.1268 59.49C33.5735 59.49 33.9501 59.56 34.2568 59.7C34.5635 59.84 34.7968 60.0533 34.9568 60.34C35.1168 60.6267 35.1968 61 35.1968 61.46V64.5H34.2468V63.43H34.2868C34.2135 63.6567 34.1001 63.86 33.9468 64.04C33.7935 64.2133 33.6035 64.35 33.3768 64.45C33.1568 64.5433 32.9035 64.59 32.6168 64.59ZM36.7192 66.3V59.58H37.7192V60.65H37.6692C37.7959 60.29 38.0159 60.0067 38.3292 59.8C38.6426 59.5933 39.0126 59.49 39.4392 59.49C39.8792 59.49 40.2659 59.5967 40.5992 59.81C40.9326 60.0167 41.1892 60.31 41.3692 60.69C41.5492 61.07 41.6392 61.52 41.6392 62.04C41.6392 62.5467 41.5492 62.9933 41.3692 63.38C41.1892 63.7667 40.9359 64.0667 40.6092 64.28C40.2826 64.4867 39.8926 64.59 39.4392 64.59C39.0192 64.59 38.6559 64.49 38.3492 64.29C38.0492 64.0833 37.8392 63.8133 37.7192 63.48H37.7792V66.3H36.7192ZM39.1692 63.77C39.6026 63.77 39.9459 63.62 40.1992 63.32C40.4592 63.0133 40.5892 62.5833 40.5892 62.03C40.5892 61.4833 40.4626 61.0633 40.2092 60.77C39.9559 60.47 39.6092 60.32 39.1692 60.32C38.7359 60.32 38.3926 60.47 38.1392 60.77C37.8859 61.0633 37.7592 61.4833 37.7592 62.03C37.7592 62.5833 37.8859 63.0133 38.1392 63.32C38.3992 63.62 38.7426 63.77 39.1692 63.77ZM42.8109 58.46V57.36H44.0409V58.46H42.8109ZM42.9009 64.5V59.58H43.9609V64.5H42.9009ZM47.6485 64.59C47.0218 64.59 46.5518 64.43 46.2385 64.11C45.9318 63.79 45.7785 63.3267 45.7785 62.72V60.41H44.8185V59.58H45.8085V58.12H46.8385V59.58H48.4585V60.41H46.8385V62.65C46.8385 63.0033 46.9152 63.27 47.0685 63.45C47.2285 63.6233 47.4752 63.71 47.8085 63.71C47.9285 63.71 48.0452 63.6967 48.1585 63.67C48.2718 63.6433 48.3852 63.61 48.4985 63.57L48.6585 64.37C48.5385 64.4433 48.3852 64.4967 48.1985 64.53C48.0118 64.57 47.8285 64.59 47.6485 64.59ZM51.2929 64.59C50.8862 64.59 50.5462 64.5167 50.2729 64.37C50.0062 64.2233 49.8029 64.0033 49.6629 63.71C49.5296 63.41 49.4629 63.0367 49.4629 62.59V59.58H50.5129V62.57C50.5129 62.8167 50.5462 63.03 50.6129 63.21C50.6862 63.3833 50.7996 63.5133 50.9529 63.6C51.1129 63.6867 51.3096 63.73 51.5429 63.73C51.8029 63.73 52.0296 63.67 52.2229 63.55C52.4229 63.43 52.5796 63.2667 52.6929 63.06C52.8129 62.8467 52.8729 62.6067 52.8729 62.34V59.58H53.9229V64.5H52.9229V63.43H52.9929C52.8396 63.8033 52.6162 64.09 52.3229 64.29C52.0362 64.49 51.6929 64.59 51.2929 64.59ZM57.0595 64.59C56.5328 64.59 56.1328 64.4433 55.8595 64.15C55.5928 63.85 55.4595 63.4233 55.4595 62.87V57.45H56.5195V62.79C56.5195 62.99 56.5461 63.1633 56.5995 63.31C56.6595 63.45 56.7461 63.5567 56.8595 63.63C56.9728 63.6967 57.1128 63.73 57.2795 63.73C57.3661 63.73 57.4495 63.7267 57.5295 63.72C57.6095 63.7067 57.6928 63.69 57.7795 63.67L57.7895 64.49C57.6695 64.5233 57.5495 64.5467 57.4295 64.56C57.3161 64.58 57.1928 64.59 57.0595 64.59ZM60.2626 64.59C59.7359 64.59 59.3359 64.4433 59.0626 64.15C58.7959 63.85 58.6626 63.4233 58.6626 62.87V57.45H59.7226V62.79C59.7226 62.99 59.7492 63.1633 59.8026 63.31C59.8626 63.45 59.9492 63.5567 60.0626 63.63C60.1759 63.6967 60.3159 63.73 60.4826 63.73C60.5692 63.73 60.6526 63.7267 60.7326 63.72C60.8126 63.7067 60.8959 63.69 60.9826 63.67L60.9926 64.49C60.8726 64.5233 60.7526 64.5467 60.6326 64.56C60.5192 64.58 60.3959 64.59 60.2626 64.59ZM61.7757 58.46V57.36H63.0057V58.46H61.7757ZM61.8657 64.5V59.58H62.9257V64.5H61.8657ZM67.4775 64.5V63.6H69.2075V58.33L69.7475 58.36L67.8275 59.56L67.3875 58.76L69.4975 57.45H70.2675V63.6H71.8775V64.5H67.4775Z" fill="#667085"/>
<defs>
<filter id="filter0_d_8310_792" x="0" y="0" width="96" height="85.8462" filterUnits="userSpaceOnUse" color-interpolation-filters="sRGB">
<feFlood flood-opacity="0" result="BackgroundImageFix"/>
<feColorMatrix in="SourceAlpha" type="matrix" values="0 0 0 0 0 0 0 0 0 0 0 0 0 0 0 0 0 0 127 0" result="hardAlpha"/>
<feOffset dy="4"/>
<feGaussianBlur stdDeviation="2"/>
<feComposite in2="hardAlpha" operator="out"/>
<feColorMatrix type="matrix" values="0 0 0 0 0 0 0 0 0 0 0 0 0 0 0 0 0 0 0.25 0"/>
<feBlend mode="normal" in2="BackgroundImageFix" result="effect1_dropShadow_8310_792"/>
<feBlend mode="normal" in="SourceGraphic" in2="effect1_dropShadow_8310_792" result="shape"/>
</filter>
<clipPath id="clip0_8310_792">
<rect width="30" height="30" fill="white" transform="translate(33 8.5)"/>
</clipPath>
</defs>
</svg>
