<svg width="96" height="86" viewBox="0 0 96 86" fill="none" xmlns="http://www.w3.org/2000/svg">
<g filter="url(#filter0_d_8310_938)">
<path d="M5.37285 42.5185C4.62083 41.2089 4.24484 40.5536 4.09767 39.8574C3.96744 39.2412 3.96744 38.6048 4.09767 37.9886C4.24484 37.2924 4.62083 36.6371 5.37285 35.3274L23.5901 3.59555C24.3421 2.28569 24.7181 1.63076 25.2442 1.15444C25.7096 0.732998 26.2579 0.414612 26.8535 0.220002C27.5267 -2.00917e-07 28.2787 0 29.7827 0H66.2171C67.7214 0 68.4731 -2.00917e-07 69.1466 0.220002C69.7419 0.414612 70.2903 0.732998 70.756 1.15444C71.282 1.63076 71.6578 2.28569 72.41 3.59555L90.6271 35.3274C91.3792 36.6371 91.7551 37.2924 91.9021 37.9886C92.0326 38.6048 92.0326 39.2412 91.9021 39.8574C91.7551 40.5536 91.3792 41.2089 90.6271 42.5185L72.41 74.2506C71.6578 75.5603 71.282 76.2151 70.756 76.6915C70.2903 77.1131 69.7419 77.4313 69.1466 77.6259C68.4731 77.8462 67.7214 77.8462 66.2171 77.8462H29.7827C28.2787 77.8462 27.5267 77.8462 26.8535 77.6259C26.2579 77.4313 25.7096 77.1131 25.2442 76.6915C24.7181 76.2151 24.3421 75.5603 23.5901 74.2506L5.37285 42.5185Z" fill="white"/>
</g>
<path d="M46.5432 37.1574L36.0476 26.6618C35.1147 25.7288 35.1147 24.2711 36.0476 23.3382L46.5432 12.8425C47.4762 11.9096 48.9339 11.9096 49.8669 12.8425L60.3625 23.3382C61.2954 24.2711 61.2954 25.7288 60.3625 26.6618L49.8669 37.1574C48.9339 38.0903 47.4179 38.0903 46.5432 37.1574Z" fill="#F2BB41"/>
<path d="M46.7765 30.1021C46.7765 29.9272 46.8348 29.7523 46.8931 29.5773C46.9514 29.4024 47.068 29.2858 47.1847 29.1692C47.3013 29.0526 47.4762 28.9359 47.6511 28.8776C47.8261 28.8193 48.001 28.761 48.2342 28.761C48.4675 28.761 48.6424 28.8193 48.8173 28.8776C48.9922 28.9359 49.1672 29.0526 49.2838 29.1692C49.4004 29.2858 49.517 29.4024 49.5753 29.5773C49.6336 29.7523 49.6919 29.9272 49.6919 30.1021C49.6919 30.277 49.6336 30.452 49.5753 30.6269C49.517 30.8018 49.4004 30.9184 49.2838 31.0351C49.1672 31.1517 48.9922 31.2683 48.8173 31.3266C48.6424 31.3849 48.4675 31.4432 48.2342 31.4432C48.001 31.4432 47.8261 31.3849 47.6511 31.3266C47.4762 31.2683 47.3596 31.1517 47.1847 31.0351C47.068 30.9184 46.9514 30.8018 46.8931 30.6269C46.8348 30.452 46.7765 30.3353 46.7765 30.1021ZM49.2255 27.4199H47.1263L46.8348 18.6152H49.517L49.2255 27.4199Z" fill="#E08838"/>
<path d="M22.0546 51V43.95H25.0246C25.5312 43.95 25.9646 44.0367 26.3246 44.21C26.6846 44.3767 26.9579 44.62 27.1446 44.94C27.3312 45.26 27.4246 45.65 27.4246 46.11C27.4246 46.5567 27.3279 46.9433 27.1346 47.27C26.9479 47.5967 26.6746 47.85 26.3146 48.03C25.9612 48.2033 25.5312 48.29 25.0246 48.29H23.1146V51H22.0546ZM23.1146 47.41H24.8646C25.3579 47.41 25.7312 47.3033 25.9846 47.09C26.2446 46.87 26.3746 46.5433 26.3746 46.11C26.3746 45.6833 26.2479 45.3633 25.9946 45.15C25.7412 44.93 25.3646 44.82 24.8646 44.82H23.1146V47.41ZM30.7499 51.09C30.1966 51.09 29.7199 50.99 29.3199 50.79C28.9199 50.5833 28.6132 50.29 28.3999 49.91C28.1866 49.5233 28.0799 49.0667 28.0799 48.54C28.0799 48.04 28.1799 47.6 28.3799 47.22C28.5866 46.8333 28.8732 46.5333 29.2399 46.32C29.6132 46.1 30.0432 45.99 30.5299 45.99C31.0032 45.99 31.4066 46.09 31.7399 46.29C32.0732 46.49 32.3299 46.7767 32.5099 47.15C32.6899 47.5167 32.7799 47.9567 32.7799 48.47V48.81H28.8999V48.14H32.0599L31.8899 48.31C31.8899 47.8033 31.7732 47.4167 31.5399 47.15C31.3132 46.8833 30.9866 46.75 30.5599 46.75C30.2532 46.75 29.9899 46.82 29.7699 46.96C29.5499 47.0933 29.3799 47.2867 29.2599 47.54C29.1399 47.7867 29.0799 48.0833 29.0799 48.43V48.52C29.0799 48.9067 29.1432 49.23 29.2699 49.49C29.4032 49.75 29.5966 49.9433 29.8499 50.07C30.1032 50.1967 30.4099 50.26 30.7699 50.26C31.0432 50.26 31.3166 50.2233 31.5899 50.15C31.8699 50.07 32.1266 49.9333 32.3599 49.74L32.6899 50.47C32.4432 50.67 32.1432 50.8233 31.7899 50.93C31.4432 51.0367 31.0966 51.09 30.7499 51.09ZM30.9699 44.96V43.9H32.0299V44.96H30.9699ZM29.0499 44.96V43.9H30.1099V44.96H29.0499ZM34.0142 51V46.08H35.0042V47.25H34.9542C35.0675 46.87 35.2642 46.5733 35.5442 46.36C35.8309 46.1467 36.1975 46.0233 36.6442 45.99L37.0542 45.97L37.1342 46.89L36.4342 46.96C36.0009 47 35.6675 47.14 35.4342 47.38C35.2009 47.62 35.0842 47.9367 35.0842 48.33V51H34.0142ZM38.0474 52.8V46.08H39.0474V47.15H38.9974C39.1241 46.79 39.3441 46.5067 39.6574 46.3C39.9707 46.0933 40.3407 45.99 40.7674 45.99C41.2074 45.99 41.5941 46.0967 41.9274 46.31C42.2607 46.5167 42.5174 46.81 42.6974 47.19C42.8774 47.57 42.9674 48.02 42.9674 48.54C42.9674 49.0467 42.8774 49.4933 42.6974 49.88C42.5174 50.2667 42.2641 50.5667 41.9374 50.78C41.6107 50.9867 41.2207 51.09 40.7674 51.09C40.3474 51.09 39.9841 50.99 39.6774 50.79C39.3774 50.5833 39.1674 50.3133 39.0474 49.98H39.1074V52.8H38.0474ZM40.4974 50.27C40.9307 50.27 41.2741 50.12 41.5274 49.82C41.7874 49.5133 41.9174 49.0833 41.9174 48.53C41.9174 47.9833 41.7907 47.5633 41.5374 47.27C41.2841 46.97 40.9374 46.82 40.4974 46.82C40.0641 46.82 39.7207 46.97 39.4674 47.27C39.2141 47.5633 39.0874 47.9833 39.0874 48.53C39.0874 49.0833 39.2141 49.5133 39.4674 49.82C39.7274 50.12 40.0707 50.27 40.4974 50.27ZM45.859 51.09C45.5124 51.09 45.199 51.0233 44.919 50.89C44.639 50.7567 44.419 50.5767 44.259 50.35C44.1057 50.1167 44.029 49.8567 44.029 49.57C44.029 49.2033 44.1257 48.9133 44.319 48.7C44.519 48.4867 44.8357 48.3333 45.269 48.24C45.7024 48.14 46.2757 48.09 46.989 48.09H47.569V48.75H47.019C46.659 48.75 46.3557 48.7633 46.109 48.79C45.8624 48.81 45.6624 48.85 45.509 48.91C45.3557 48.97 45.2424 49.05 45.169 49.15C45.1024 49.2433 45.069 49.3633 45.069 49.51C45.069 49.7633 45.159 49.9633 45.339 50.11C45.5257 50.25 45.769 50.32 46.069 50.32C46.329 50.32 46.559 50.2633 46.759 50.15C46.959 50.03 47.119 49.87 47.239 49.67C47.359 49.4633 47.419 49.2333 47.419 48.98V47.85C47.419 47.4767 47.3257 47.21 47.139 47.05C46.959 46.89 46.6757 46.81 46.289 46.81C46.0024 46.81 45.7157 46.85 45.429 46.93C45.149 47.01 44.8557 47.14 44.549 47.32L44.229 46.58C44.4224 46.4533 44.6357 46.3467 44.869 46.26C45.109 46.1733 45.3557 46.1067 45.609 46.06C45.869 46.0133 46.1224 45.99 46.369 45.99C46.8157 45.99 47.1924 46.06 47.499 46.2C47.8057 46.34 48.039 46.5533 48.199 46.84C48.359 47.1267 48.439 47.5 48.439 47.96V51H47.489V49.93H47.529C47.4557 50.1567 47.3424 50.36 47.189 50.54C47.0357 50.7133 46.8457 50.85 46.619 50.95C46.399 51.0433 46.1457 51.09 45.859 51.09ZM49.9615 51V46.08H50.9515V47.25H50.9015C51.0148 46.87 51.2115 46.5733 51.4915 46.36C51.7781 46.1467 52.1448 46.0233 52.5915 45.99L53.0015 45.97L53.0815 46.89L52.3815 46.96C51.9481 47 51.6148 47.14 51.3815 47.38C51.1481 47.62 51.0315 47.9367 51.0315 48.33V51H49.9615ZM56.3163 51.09C55.763 51.09 55.2863 50.99 54.8863 50.79C54.4863 50.5833 54.1796 50.29 53.9663 49.91C53.753 49.5233 53.6463 49.0667 53.6463 48.54C53.6463 48.04 53.7463 47.6 53.9463 47.22C54.153 46.8333 54.4396 46.5333 54.8063 46.32C55.1796 46.1 55.6096 45.99 56.0963 45.99C56.5696 45.99 56.973 46.09 57.3063 46.29C57.6396 46.49 57.8963 46.7767 58.0763 47.15C58.2563 47.5167 58.3463 47.9567 58.3463 48.47V48.81H54.4663V48.14H57.6263L57.4563 48.31C57.4563 47.8033 57.3396 47.4167 57.1063 47.15C56.8796 46.8833 56.553 46.75 56.1263 46.75C55.8196 46.75 55.5563 46.82 55.3363 46.96C55.1163 47.0933 54.9463 47.2867 54.8263 47.54C54.7063 47.7867 54.6463 48.0833 54.6463 48.43V48.52C54.6463 48.9067 54.7096 49.23 54.8363 49.49C54.9696 49.75 55.163 49.9433 55.4163 50.07C55.6696 50.1967 55.9763 50.26 56.3363 50.26C56.6096 50.26 56.883 50.2233 57.1563 50.15C57.4363 50.07 57.693 49.9333 57.9263 49.74L58.2563 50.47C58.0096 50.67 57.7096 50.8233 57.3563 50.93C57.0096 51.0367 56.663 51.09 56.3163 51.09ZM56.5363 44.96V43.9H57.5963V44.96H56.5363ZM54.6163 44.96V43.9H55.6763V44.96H54.6163ZM61.3806 51.09C61.1073 51.09 60.8406 51.0667 60.5806 51.02C60.3206 50.9733 60.0806 50.9067 59.8606 50.82C59.6473 50.7333 59.4639 50.6267 59.3106 50.5L59.6106 49.78C59.7773 49.8933 59.9573 49.99 60.1506 50.07C60.3506 50.15 60.5539 50.21 60.7606 50.25C60.9739 50.2833 61.1773 50.3 61.3706 50.3C61.7439 50.3 62.0273 50.2433 62.2206 50.13C62.4139 50.01 62.5106 49.8467 62.5106 49.64C62.5106 49.4667 62.4506 49.3333 62.3306 49.24C62.2173 49.1467 62.0306 49.0767 61.7706 49.03L60.7606 48.84C60.3206 48.76 59.9906 48.6067 59.7706 48.38C59.5506 48.1467 59.4406 47.8533 59.4406 47.5C59.4406 47.1933 59.5239 46.93 59.6906 46.71C59.8573 46.4833 60.0939 46.3067 60.4006 46.18C60.7139 46.0533 61.0806 45.99 61.5006 45.99C61.7339 45.99 61.9639 46.0133 62.1906 46.06C62.4239 46.1 62.6406 46.1633 62.8406 46.25C63.0473 46.3367 63.2173 46.4467 63.3506 46.58L63.0406 47.3C62.9073 47.1867 62.7539 47.0933 62.5806 47.02C62.4073 46.94 62.2273 46.88 62.0406 46.84C61.8606 46.8 61.6806 46.78 61.5006 46.78C61.1406 46.78 60.8673 46.84 60.6806 46.96C60.4939 47.08 60.4006 47.2467 60.4006 47.46C60.4006 47.6267 60.4539 47.76 60.5606 47.86C60.6739 47.96 60.8473 48.0333 61.0806 48.08L62.0706 48.26C62.5439 48.3467 62.8939 48.5 63.1206 48.72C63.3539 48.9333 63.4706 49.2233 63.4706 49.59C63.4706 49.9033 63.3839 50.1733 63.2106 50.4C63.0373 50.62 62.7939 50.79 62.4806 50.91C62.1673 51.03 61.8006 51.09 61.3806 51.09ZM64.6078 44.96V43.86H65.8378V44.96H64.6078ZM64.6978 51V46.08H65.7578V51H64.6978ZM70.0896 51V50.22L72.4696 47.69C72.6962 47.45 72.8729 47.2333 72.9996 47.04C73.1329 46.84 73.2296 46.6467 73.2896 46.46C73.3496 46.2733 73.3796 46.0867 73.3796 45.9C73.3796 45.5333 73.2629 45.2533 73.0296 45.06C72.8029 44.8667 72.4762 44.77 72.0496 44.77C71.7229 44.77 71.4029 44.8333 71.0896 44.96C70.7762 45.08 70.4796 45.27 70.1996 45.53L69.8196 44.72C70.1062 44.4533 70.4562 44.2433 70.8696 44.09C71.2829 43.9367 71.7129 43.86 72.1596 43.86C72.6396 43.86 73.0496 43.9367 73.3896 44.09C73.7296 44.2433 73.9862 44.4667 74.1596 44.76C74.3396 45.0533 74.4296 45.4033 74.4296 45.81C74.4296 46.0233 74.4029 46.23 74.3496 46.43C74.3029 46.63 74.2296 46.83 74.1296 47.03C74.0296 47.2233 73.8996 47.4267 73.7396 47.64C73.5862 47.8467 73.4029 48.06 73.1896 48.28L71.2796 50.27V50.1H74.7096V51H70.0896Z" fill="black"/>
<path d="M24.6815 66V58.95H25.7415V62.1H25.7815L29.0115 58.95H30.3415L26.5215 62.64L26.5615 62.1L30.5515 66H29.1815L25.7815 62.71H25.7415V66H24.6815ZM32.8219 66.09C32.4753 66.09 32.1619 66.0233 31.8819 65.89C31.6019 65.7567 31.3819 65.5767 31.2219 65.35C31.0686 65.1167 30.9919 64.8567 30.9919 64.57C30.9919 64.2033 31.0886 63.9133 31.2819 63.7C31.4819 63.4867 31.7986 63.3333 32.2319 63.24C32.6653 63.14 33.2386 63.09 33.9519 63.09H34.5319V63.75H33.9819C33.6219 63.75 33.3186 63.7633 33.0719 63.79C32.8253 63.81 32.6253 63.85 32.4719 63.91C32.3186 63.97 32.2053 64.05 32.1319 64.15C32.0653 64.2433 32.0319 64.3633 32.0319 64.51C32.0319 64.7633 32.1219 64.9633 32.3019 65.11C32.4886 65.25 32.7319 65.32 33.0319 65.32C33.2919 65.32 33.5219 65.2633 33.7219 65.15C33.9219 65.03 34.0819 64.87 34.2019 64.67C34.3219 64.4633 34.3819 64.2333 34.3819 63.98V62.85C34.3819 62.4767 34.2886 62.21 34.1019 62.05C33.9219 61.89 33.6386 61.81 33.2519 61.81C32.9653 61.81 32.6786 61.85 32.3919 61.93C32.1119 62.01 31.8186 62.14 31.5119 62.32L31.1919 61.58C31.3853 61.4533 31.5986 61.3467 31.8319 61.26C32.0719 61.1733 32.3186 61.1067 32.5719 61.06C32.8319 61.0133 33.0853 60.99 33.3319 60.99C33.7786 60.99 34.1553 61.06 34.4619 61.2C34.7686 61.34 35.0019 61.5533 35.1619 61.84C35.3219 62.1267 35.4019 62.5 35.4019 62.96V66H34.4519V64.93H34.4919C34.4186 65.1567 34.3053 65.36 34.1519 65.54C33.9986 65.7133 33.8086 65.85 33.5819 65.95C33.3619 66.0433 33.1086 66.09 32.8219 66.09ZM36.9243 67.8V61.08H37.9243V62.15H37.8743C38.001 61.79 38.221 61.5067 38.5343 61.3C38.8477 61.0933 39.2177 60.99 39.6443 60.99C40.0843 60.99 40.471 61.0967 40.8043 61.31C41.1377 61.5167 41.3943 61.81 41.5743 62.19C41.7543 62.57 41.8443 63.02 41.8443 63.54C41.8443 64.0467 41.7543 64.4933 41.5743 64.88C41.3943 65.2667 41.141 65.5667 40.8143 65.78C40.4877 65.9867 40.0977 66.09 39.6443 66.09C39.2243 66.09 38.861 65.99 38.5543 65.79C38.2543 65.5833 38.0443 65.3133 37.9243 64.98H37.9843V67.8H36.9243ZM39.3743 65.27C39.8077 65.27 40.151 65.12 40.4043 64.82C40.6643 64.5133 40.7943 64.0833 40.7943 63.53C40.7943 62.9833 40.6677 62.5633 40.4143 62.27C40.161 61.97 39.8143 61.82 39.3743 61.82C38.941 61.82 38.5977 61.97 38.3443 62.27C38.091 62.5633 37.9643 62.9833 37.9643 63.53C37.9643 64.0833 38.091 64.5133 38.3443 64.82C38.6043 65.12 38.9477 65.27 39.3743 65.27ZM43.016 59.96V58.86H44.246V59.96H43.016ZM43.106 66V61.08H44.166V66H43.106ZM47.8536 66.09C47.227 66.09 46.757 65.93 46.4436 65.61C46.137 65.29 45.9836 64.8267 45.9836 64.22V61.91H45.0236V61.08H46.0136V59.62H47.0436V61.08H48.6636V61.91H47.0436V64.15C47.0436 64.5033 47.1203 64.77 47.2736 64.95C47.4336 65.1233 47.6803 65.21 48.0136 65.21C48.1336 65.21 48.2503 65.1967 48.3636 65.17C48.477 65.1433 48.5903 65.11 48.7036 65.07L48.8636 65.87C48.7436 65.9433 48.5903 65.9967 48.4036 66.03C48.217 66.07 48.0336 66.09 47.8536 66.09ZM51.498 66.09C51.0914 66.09 50.7514 66.0167 50.478 65.87C50.2114 65.7233 50.008 65.5033 49.868 65.21C49.7347 64.91 49.668 64.5367 49.668 64.09V61.08H50.718V64.07C50.718 64.3167 50.7514 64.53 50.818 64.71C50.8914 64.8833 51.0047 65.0133 51.158 65.1C51.318 65.1867 51.5147 65.23 51.748 65.23C52.008 65.23 52.2347 65.17 52.428 65.05C52.628 64.93 52.7847 64.7667 52.898 64.56C53.018 64.3467 53.078 64.1067 53.078 63.84V61.08H54.128V66H53.128V64.93H53.198C53.0447 65.3033 52.8214 65.59 52.528 65.79C52.2414 65.99 51.898 66.09 51.498 66.09ZM57.2646 66.09C56.7379 66.09 56.3379 65.9433 56.0646 65.65C55.7979 65.35 55.6646 64.9233 55.6646 64.37V58.95H56.7246V64.29C56.7246 64.49 56.7512 64.6633 56.8046 64.81C56.8646 64.95 56.9512 65.0567 57.0646 65.13C57.1779 65.1967 57.3179 65.23 57.4846 65.23C57.5712 65.23 57.6546 65.2267 57.7346 65.22C57.8146 65.2067 57.8979 65.19 57.9846 65.17L57.9946 65.99C57.8746 66.0233 57.7546 66.0467 57.6346 66.06C57.5212 66.08 57.3979 66.09 57.2646 66.09ZM60.4677 66.09C59.941 66.09 59.541 65.9433 59.2677 65.65C59.001 65.35 58.8677 64.9233 58.8677 64.37V58.95H59.9277V64.29C59.9277 64.49 59.9544 64.6633 60.0077 64.81C60.0677 64.95 60.1544 65.0567 60.2677 65.13C60.381 65.1967 60.521 65.23 60.6877 65.23C60.7744 65.23 60.8577 65.2267 60.9377 65.22C61.0177 65.2067 61.101 65.19 61.1877 65.17L61.1977 65.99C61.0777 66.0233 60.9577 66.0467 60.8377 66.06C60.7244 66.08 60.601 66.09 60.4677 66.09ZM61.9808 59.96V58.86H63.2108V59.96H61.9808ZM62.0708 66V61.08H63.1308V66H62.0708ZM69.8926 66.09C69.3193 66.09 68.8326 65.9533 68.4326 65.68C68.0326 65.4067 67.726 65.0133 67.5126 64.5C67.306 63.98 67.2026 63.3533 67.2026 62.62C67.2026 61.8133 67.3193 61.1333 67.5526 60.58C67.786 60.02 68.1226 59.5933 68.5626 59.3C69.0026 59.0067 69.5293 58.86 70.1426 58.86C70.396 58.86 70.646 58.8933 70.8926 58.96C71.1393 59.02 71.3693 59.11 71.5826 59.23C71.8026 59.35 71.9993 59.5 72.1726 59.68L71.8026 60.48C71.556 60.2333 71.2893 60.0533 71.0026 59.94C70.7226 59.8267 70.4326 59.77 70.1326 59.77C69.8193 59.77 69.5426 59.8267 69.3026 59.94C69.0626 60.0533 68.8593 60.2233 68.6926 60.45C68.5326 60.67 68.4093 60.9467 68.3226 61.28C68.236 61.6133 68.1926 62 68.1926 62.44V63.13H68.1426C68.2026 62.7967 68.3193 62.51 68.4926 62.27C68.666 62.03 68.886 61.8467 69.1526 61.72C69.426 61.5933 69.726 61.53 70.0526 61.53C70.466 61.53 70.8326 61.6267 71.1526 61.82C71.4726 62.0067 71.7226 62.27 71.9026 62.61C72.0893 62.9433 72.1826 63.33 72.1826 63.77C72.1826 64.2167 72.0826 64.6167 71.8826 64.97C71.6893 65.3233 71.4193 65.6 71.0726 65.8C70.7326 65.9933 70.3393 66.09 69.8926 66.09ZM69.8326 65.22C70.0993 65.22 70.336 65.1633 70.5426 65.05C70.7493 64.93 70.9093 64.7633 71.0226 64.55C71.136 64.3367 71.1926 64.0867 71.1926 63.8C71.1926 63.52 71.136 63.2767 71.0226 63.07C70.9093 62.8567 70.7493 62.6933 70.5426 62.58C70.336 62.46 70.0993 62.4 69.8326 62.4C69.5593 62.4 69.3193 62.46 69.1126 62.58C68.906 62.6933 68.7426 62.8567 68.6226 63.07C68.5093 63.2833 68.4526 63.5267 68.4526 63.8C68.4526 64.0867 68.5093 64.3367 68.6226 64.55C68.7426 64.7633 68.906 64.93 69.1126 65.05C69.3193 65.1633 69.5593 65.22 69.8326 65.22Z" fill="#667085"/>
<defs>
<filter id="filter0_d_8310_938" x="0" y="0" width="96" height="85.8462" filterUnits="userSpaceOnUse" color-interpolation-filters="sRGB">
<feFlood flood-opacity="0" result="BackgroundImageFix"/>
<feColorMatrix in="SourceAlpha" type="matrix" values="0 0 0 0 0 0 0 0 0 0 0 0 0 0 0 0 0 0 127 0" result="hardAlpha"/>
<feOffset dy="4"/>
<feGaussianBlur stdDeviation="2"/>
<feComposite in2="hardAlpha" operator="out"/>
<feColorMatrix type="matrix" values="0 0 0 0 0 0 0 0 0 0 0 0 0 0 0 0 0 0 0.25 0"/>
<feBlend mode="normal" in2="BackgroundImageFix" result="effect1_dropShadow_8310_938"/>
<feBlend mode="normal" in="SourceGraphic" in2="effect1_dropShadow_8310_938" result="shape"/>
</filter>
</defs>
</svg>
