<svg width="96" height="86" viewBox="0 0 96 86" fill="none" xmlns="http://www.w3.org/2000/svg">
<g filter="url(#filter0_d_8310_972)">
<path d="M5.37285 42.5185C4.62083 41.2089 4.24484 40.5536 4.09767 39.8574C3.96744 39.2412 3.96744 38.6048 4.09767 37.9886C4.24484 37.2924 4.62083 36.6371 5.37285 35.3274L23.5901 3.59555C24.3421 2.28569 24.7181 1.63076 25.2442 1.15444C25.7096 0.732998 26.2579 0.414612 26.8535 0.220002C27.5267 -2.00917e-07 28.2787 0 29.7827 0H66.2171C67.7214 0 68.4731 -2.00917e-07 69.1466 0.220002C69.7419 0.414612 70.2903 0.732998 70.756 1.15444C71.282 1.63076 71.6578 2.28569 72.41 3.59555L90.6271 35.3274C91.3792 36.6371 91.7551 37.2924 91.9021 37.9886C92.0326 38.6048 92.0326 39.2412 91.9021 39.8574C91.7551 40.5536 91.3792 41.2089 90.6271 42.5185L72.41 74.2506C71.6578 75.5603 71.282 76.2151 70.756 76.6915C70.2903 77.1131 69.7419 77.4313 69.1466 77.6259C68.4731 77.8462 67.7214 77.8462 66.2171 77.8462H29.7827C28.2787 77.8462 27.5267 77.8462 26.8535 77.6259C26.2579 77.4313 25.7096 77.1131 25.2442 76.6915C24.7181 76.2151 24.3421 75.5603 23.5901 74.2506L5.37285 42.5185Z" fill="white"/>
</g>
<path d="M58.2051 15.5H38.2051C36.8244 15.5 35.7051 16.6193 35.7051 18V38C35.7051 39.3807 36.8244 40.5 38.2051 40.5H58.2051C59.5858 40.5 60.7051 39.3807 60.7051 38V18C60.7051 16.6193 59.5858 15.5 58.2051 15.5Z" fill="#F2BB41"/>
<path d="M54.4551 29.2499H45.7051V26.0124L46.0676 26.3874C46.1838 26.5046 46.322 26.5976 46.4743 26.661C46.6267 26.7245 46.7901 26.7572 46.9551 26.7572C47.1201 26.7572 47.2835 26.7245 47.4358 26.661C47.5881 26.5976 47.7264 26.5046 47.8426 26.3874C47.9597 26.2712 48.0527 26.133 48.1162 25.9806C48.1796 25.8283 48.2123 25.6649 48.2123 25.4999C48.2123 25.3349 48.1796 25.1715 48.1162 25.0192C48.0527 24.8669 47.9597 24.7286 47.8426 24.6124L45.3426 22.1124C45.2264 21.9953 45.0881 21.9023 44.9358 21.8388C44.7835 21.7753 44.6201 21.7427 44.4551 21.7427C44.2901 21.7427 44.1267 21.7753 43.9743 21.8388C43.822 21.9023 43.6838 21.9953 43.5676 22.1124L41.0676 24.6124C40.951 24.729 40.8586 24.8673 40.7955 25.0196C40.7324 25.1719 40.7 25.3351 40.7 25.4999C40.7 25.8328 40.8322 26.152 41.0676 26.3874C41.3029 26.6228 41.6222 26.755 41.9551 26.755C42.2879 26.755 42.6072 26.6228 42.8426 26.3874L43.2051 26.0124V29.2499C43.2051 29.913 43.4685 30.5488 43.9373 31.0177C44.4061 31.4865 45.042 31.7499 45.7051 31.7499H54.4551C54.7866 31.7499 55.1045 31.6182 55.3389 31.3838C55.5734 31.1494 55.7051 30.8314 55.7051 30.4999C55.7051 30.1684 55.5734 29.8505 55.3389 29.616C55.1045 29.3816 54.7866 29.2499 54.4551 29.2499Z" fill="#E08838"/>
<path d="M18.9344 54V46.95H19.7944L23.9944 52.49H23.8444V46.95H24.8544V54H23.9744L19.7944 48.47H19.9344V54H18.9344ZM28.9188 54.09C28.3655 54.09 27.8888 53.99 27.4888 53.79C27.0888 53.5833 26.7821 53.29 26.5688 52.91C26.3555 52.5233 26.2488 52.0667 26.2488 51.54C26.2488 51.04 26.3488 50.6 26.5488 50.22C26.7555 49.8333 27.0421 49.5333 27.4088 49.32C27.7821 49.1 28.2121 48.99 28.6988 48.99C29.1721 48.99 29.5755 49.09 29.9088 49.29C30.2421 49.49 30.4988 49.7767 30.6788 50.15C30.8588 50.5167 30.9488 50.9567 30.9488 51.47V51.81H27.0688V51.14H30.2288L30.0588 51.31C30.0588 50.8033 29.9421 50.4167 29.7088 50.15C29.4821 49.8833 29.1555 49.75 28.7288 49.75C28.4221 49.75 28.1588 49.82 27.9388 49.96C27.7188 50.0933 27.5488 50.2867 27.4288 50.54C27.3088 50.7867 27.2488 51.0833 27.2488 51.43V51.52C27.2488 51.9067 27.3121 52.23 27.4388 52.49C27.5721 52.75 27.7655 52.9433 28.0188 53.07C28.2721 53.1967 28.5788 53.26 28.9388 53.26C29.2121 53.26 29.4855 53.2233 29.7588 53.15C30.0388 53.07 30.2955 52.9333 30.5288 52.74L30.8588 53.47C30.6121 53.67 30.3121 53.8233 29.9588 53.93C29.6121 54.0367 29.2655 54.09 28.9188 54.09ZM34.9272 54V46.95H35.9872V51.23H36.0172L38.1072 49.08H39.3972L36.8372 51.68L36.8472 51.23L39.5972 54H38.2872L36.0172 51.76H35.9872V54H34.9272ZM42.2921 54.09C41.6654 54.09 41.1954 53.93 40.8821 53.61C40.5754 53.29 40.4221 52.8267 40.4221 52.22V49.91H39.4621V49.08H40.4521V47.62H41.4821V49.08H43.1021V49.91H41.4821V52.15C41.4821 52.5033 41.5587 52.77 41.7121 52.95C41.8721 53.1233 42.1187 53.21 42.4521 53.21C42.5721 53.21 42.6887 53.1967 42.8021 53.17C42.9154 53.1433 43.0287 53.11 43.1421 53.07L43.3021 53.87C43.1821 53.9433 43.0287 53.9967 42.8421 54.03C42.6554 54.07 42.4721 54.09 42.2921 54.09ZM44.1264 54V46.95H45.1564V50.1H45.0964C45.2431 49.7467 45.4731 49.4733 45.7864 49.28C46.0998 49.0867 46.4564 48.99 46.8564 48.99C47.2564 48.99 47.5864 49.0633 47.8464 49.21C48.1131 49.3567 48.3131 49.58 48.4464 49.88C48.5798 50.1733 48.6464 50.5433 48.6464 50.99V54H47.5864V51.05C47.5864 50.7833 47.5498 50.5633 47.4764 50.39C47.4098 50.21 47.2998 50.0767 47.1464 49.99C46.9998 49.8967 46.8064 49.85 46.5664 49.85C46.2931 49.85 46.0531 49.91 45.8464 50.03C45.6398 50.15 45.4764 50.3167 45.3564 50.53C45.2431 50.7367 45.1864 50.9767 45.1864 51.25V54H44.1264ZM52.5516 54.09C51.9983 54.09 51.5216 53.99 51.1216 53.79C50.7216 53.5833 50.4149 53.29 50.2016 52.91C49.9883 52.5233 49.8816 52.0667 49.8816 51.54C49.8816 51.04 49.9816 50.6 50.1816 50.22C50.3883 49.8333 50.6749 49.5333 51.0416 49.32C51.4149 49.1 51.8449 48.99 52.3316 48.99C52.8049 48.99 53.2083 49.09 53.5416 49.29C53.8749 49.49 54.1316 49.7767 54.3116 50.15C54.4916 50.5167 54.5816 50.9567 54.5816 51.47V51.81H50.7016V51.14H53.8616L53.6916 51.31C53.6916 50.8033 53.5749 50.4167 53.3416 50.15C53.1149 49.8833 52.7883 49.75 52.3616 49.75C52.0549 49.75 51.7916 49.82 51.5716 49.96C51.3516 50.0933 51.1816 50.2867 51.0616 50.54C50.9416 50.7867 50.8816 51.0833 50.8816 51.43V51.52C50.8816 51.9067 50.9449 52.23 51.0716 52.49C51.2049 52.75 51.3983 52.9433 51.6516 53.07C51.9049 53.1967 52.2116 53.26 52.5716 53.26C52.8449 53.26 53.1183 53.2233 53.3916 53.15C53.6716 53.07 53.9283 52.9333 54.1616 52.74L54.4916 53.47C54.2449 53.67 53.9449 53.8233 53.5916 53.93C53.2449 54.0367 52.8983 54.09 52.5516 54.09ZM55.8159 54V46.95H56.8459V50.1H56.7859C56.9326 49.7467 57.1626 49.4733 57.4759 49.28C57.7892 49.0867 58.1459 48.99 58.5459 48.99C58.9459 48.99 59.2759 49.0633 59.5359 49.21C59.8026 49.3567 60.0026 49.58 60.1359 49.88C60.2692 50.1733 60.3359 50.5433 60.3359 50.99V54H59.2759V51.05C59.2759 50.7833 59.2392 50.5633 59.1659 50.39C59.0992 50.21 58.9892 50.0767 58.8359 49.99C58.6892 49.8967 58.4959 49.85 58.2559 49.85C57.9826 49.85 57.7426 49.91 57.5359 50.03C57.3292 50.15 57.1659 50.3167 57.0459 50.53C56.9326 50.7367 56.8759 50.9767 56.8759 51.25V54H55.8159ZM64.2411 54.09C63.6877 54.09 63.2111 53.99 62.8111 53.79C62.4111 53.5833 62.1044 53.29 61.8911 52.91C61.6777 52.5233 61.5711 52.0667 61.5711 51.54C61.5711 51.04 61.6711 50.6 61.8711 50.22C62.0777 49.8333 62.3644 49.5333 62.7311 49.32C63.1044 49.1 63.5344 48.99 64.0211 48.99C64.4944 48.99 64.8977 49.09 65.2311 49.29C65.5644 49.49 65.8211 49.7767 66.0011 50.15C66.1811 50.5167 66.2711 50.9567 66.2711 51.47V51.81H62.3911V51.14H65.5511L65.3811 51.31C65.3811 50.8033 65.2644 50.4167 65.0311 50.15C64.8044 49.8833 64.4777 49.75 64.0511 49.75C63.7444 49.75 63.4811 49.82 63.2611 49.96C63.0411 50.0933 62.8711 50.2867 62.7511 50.54C62.6311 50.7867 62.5711 51.0833 62.5711 51.43V51.52C62.5711 51.9067 62.6344 52.23 62.7611 52.49C62.8944 52.75 63.0877 52.9433 63.3411 53.07C63.5944 53.1967 63.9011 53.26 64.2611 53.26C64.5344 53.26 64.8077 53.2233 65.0811 53.15C65.3611 53.07 65.6177 52.9333 65.8511 52.74L66.1811 53.47C65.9344 53.67 65.6344 53.8233 65.2811 53.93C64.9344 54.0367 64.5877 54.09 64.2411 54.09ZM67.5254 54V49.08H68.5154V50.13H68.4654C68.552 49.8967 68.672 49.6967 68.8254 49.53C68.9854 49.3567 69.1754 49.2233 69.3954 49.13C69.6154 49.0367 69.8587 48.99 70.1254 48.99C70.5387 48.99 70.8787 49.09 71.1454 49.29C71.412 49.49 71.5887 49.7733 71.6754 50.14H71.5954C71.722 49.8 71.9354 49.5233 72.2354 49.31C72.5354 49.0967 72.8987 48.99 73.3254 48.99C73.6987 48.99 74.0087 49.0633 74.2554 49.21C74.5087 49.3567 74.6987 49.5767 74.8254 49.87C74.952 50.1633 75.0154 50.5367 75.0154 50.99V54H73.9654V51.04C73.9654 50.64 73.8954 50.3433 73.7554 50.15C73.6154 49.95 73.372 49.85 73.0254 49.85C72.772 49.85 72.552 49.91 72.3654 50.03C72.1787 50.1433 72.0354 50.3067 71.9354 50.52C71.8354 50.7333 71.7854 50.98 71.7854 51.26V54H70.7454V51.04C70.7454 50.64 70.6687 50.3433 70.5154 50.15C70.3687 49.95 70.1354 49.85 69.8154 49.85C69.5554 49.85 69.332 49.9133 69.1454 50.04C68.9654 50.16 68.8254 50.3267 68.7254 50.54C68.6254 50.7467 68.5754 50.9833 68.5754 51.25V54H67.5254ZM76.4681 47.96V46.86H77.6981V47.96H76.4681ZM76.5581 54V49.08H77.6181V54H76.5581Z" fill="black"/>
<path d="M24.6815 69V61.95H25.7415V65.1H25.7815L29.0115 61.95H30.3415L26.5215 65.64L26.5615 65.1L30.5515 69H29.1815L25.7815 65.71H25.7415V69H24.6815ZM32.8219 69.09C32.4753 69.09 32.1619 69.0233 31.8819 68.89C31.6019 68.7567 31.3819 68.5767 31.2219 68.35C31.0686 68.1167 30.9919 67.8567 30.9919 67.57C30.9919 67.2033 31.0886 66.9133 31.2819 66.7C31.4819 66.4867 31.7986 66.3333 32.2319 66.24C32.6653 66.14 33.2386 66.09 33.9519 66.09H34.5319V66.75H33.9819C33.6219 66.75 33.3186 66.7633 33.0719 66.79C32.8253 66.81 32.6253 66.85 32.4719 66.91C32.3186 66.97 32.2053 67.05 32.1319 67.15C32.0653 67.2433 32.0319 67.3633 32.0319 67.51C32.0319 67.7633 32.1219 67.9633 32.3019 68.11C32.4886 68.25 32.7319 68.32 33.0319 68.32C33.2919 68.32 33.5219 68.2633 33.7219 68.15C33.9219 68.03 34.0819 67.87 34.2019 67.67C34.3219 67.4633 34.3819 67.2333 34.3819 66.98V65.85C34.3819 65.4767 34.2886 65.21 34.1019 65.05C33.9219 64.89 33.6386 64.81 33.2519 64.81C32.9653 64.81 32.6786 64.85 32.3919 64.93C32.1119 65.01 31.8186 65.14 31.5119 65.32L31.1919 64.58C31.3853 64.4533 31.5986 64.3467 31.8319 64.26C32.0719 64.1733 32.3186 64.1067 32.5719 64.06C32.8319 64.0133 33.0853 63.99 33.3319 63.99C33.7786 63.99 34.1553 64.06 34.4619 64.2C34.7686 64.34 35.0019 64.5533 35.1619 64.84C35.3219 65.1267 35.4019 65.5 35.4019 65.96V69H34.4519V67.93H34.4919C34.4186 68.1567 34.3053 68.36 34.1519 68.54C33.9986 68.7133 33.8086 68.85 33.5819 68.95C33.3619 69.0433 33.1086 69.09 32.8219 69.09ZM36.9243 70.8V64.08H37.9243V65.15H37.8743C38.001 64.79 38.221 64.5067 38.5343 64.3C38.8477 64.0933 39.2177 63.99 39.6443 63.99C40.0843 63.99 40.471 64.0967 40.8043 64.31C41.1377 64.5167 41.3943 64.81 41.5743 65.19C41.7543 65.57 41.8443 66.02 41.8443 66.54C41.8443 67.0467 41.7543 67.4933 41.5743 67.88C41.3943 68.2667 41.141 68.5667 40.8143 68.78C40.4877 68.9867 40.0977 69.09 39.6443 69.09C39.2243 69.09 38.861 68.99 38.5543 68.79C38.2543 68.5833 38.0443 68.3133 37.9243 67.98H37.9843V70.8H36.9243ZM39.3743 68.27C39.8077 68.27 40.151 68.12 40.4043 67.82C40.6643 67.5133 40.7943 67.0833 40.7943 66.53C40.7943 65.9833 40.6677 65.5633 40.4143 65.27C40.161 64.97 39.8143 64.82 39.3743 64.82C38.941 64.82 38.5977 64.97 38.3443 65.27C38.091 65.5633 37.9643 65.9833 37.9643 66.53C37.9643 67.0833 38.091 67.5133 38.3443 67.82C38.6043 68.12 38.9477 68.27 39.3743 68.27ZM43.016 62.96V61.86H44.246V62.96H43.016ZM43.106 69V64.08H44.166V69H43.106ZM47.8536 69.09C47.227 69.09 46.757 68.93 46.4436 68.61C46.137 68.29 45.9836 67.8267 45.9836 67.22V64.91H45.0236V64.08H46.0136V62.62H47.0436V64.08H48.6636V64.91H47.0436V67.15C47.0436 67.5033 47.1203 67.77 47.2736 67.95C47.4336 68.1233 47.6803 68.21 48.0136 68.21C48.1336 68.21 48.2503 68.1967 48.3636 68.17C48.477 68.1433 48.5903 68.11 48.7036 68.07L48.8636 68.87C48.7436 68.9433 48.5903 68.9967 48.4036 69.03C48.217 69.07 48.0336 69.09 47.8536 69.09ZM51.498 69.09C51.0914 69.09 50.7514 69.0167 50.478 68.87C50.2114 68.7233 50.008 68.5033 49.868 68.21C49.7347 67.91 49.668 67.5367 49.668 67.09V64.08H50.718V67.07C50.718 67.3167 50.7514 67.53 50.818 67.71C50.8914 67.8833 51.0047 68.0133 51.158 68.1C51.318 68.1867 51.5147 68.23 51.748 68.23C52.008 68.23 52.2347 68.17 52.428 68.05C52.628 67.93 52.7847 67.7667 52.898 67.56C53.018 67.3467 53.078 67.1067 53.078 66.84V64.08H54.128V69H53.128V67.93H53.198C53.0447 68.3033 52.8214 68.59 52.528 68.79C52.2414 68.99 51.898 69.09 51.498 69.09ZM57.2646 69.09C56.7379 69.09 56.3379 68.9433 56.0646 68.65C55.7979 68.35 55.6646 67.9233 55.6646 67.37V61.95H56.7246V67.29C56.7246 67.49 56.7512 67.6633 56.8046 67.81C56.8646 67.95 56.9512 68.0567 57.0646 68.13C57.1779 68.1967 57.3179 68.23 57.4846 68.23C57.5712 68.23 57.6546 68.2267 57.7346 68.22C57.8146 68.2067 57.8979 68.19 57.9846 68.17L57.9946 68.99C57.8746 69.0233 57.7546 69.0467 57.6346 69.06C57.5212 69.08 57.3979 69.09 57.2646 69.09ZM60.4677 69.09C59.941 69.09 59.541 68.9433 59.2677 68.65C59.001 68.35 58.8677 67.9233 58.8677 67.37V61.95H59.9277V67.29C59.9277 67.49 59.9544 67.6633 60.0077 67.81C60.0677 67.95 60.1544 68.0567 60.2677 68.13C60.381 68.1967 60.521 68.23 60.6877 68.23C60.7744 68.23 60.8577 68.2267 60.9377 68.22C61.0177 68.2067 61.101 68.19 61.1877 68.17L61.1977 68.99C61.0777 69.0233 60.9577 69.0467 60.8377 69.06C60.7244 69.08 60.601 69.09 60.4677 69.09ZM61.9808 62.96V61.86H63.2108V62.96H61.9808ZM62.0708 69V64.08H63.1308V69H62.0708ZM70.3226 69V67.58H67.1126V66.8L70.3826 61.95H71.3526V66.71H72.3326V67.58H71.3526V69H70.3226ZM70.3326 66.71V63.23H70.4926L68.0026 66.94L67.9526 66.71H70.3326Z" fill="#667085"/>
<defs>
<filter id="filter0_d_8310_972" x="0" y="0" width="96" height="85.8462" filterUnits="userSpaceOnUse" color-interpolation-filters="sRGB">
<feFlood flood-opacity="0" result="BackgroundImageFix"/>
<feColorMatrix in="SourceAlpha" type="matrix" values="0 0 0 0 0 0 0 0 0 0 0 0 0 0 0 0 0 0 127 0" result="hardAlpha"/>
<feOffset dy="4"/>
<feGaussianBlur stdDeviation="2"/>
<feComposite in2="hardAlpha" operator="out"/>
<feColorMatrix type="matrix" values="0 0 0 0 0 0 0 0 0 0 0 0 0 0 0 0 0 0 0.25 0"/>
<feBlend mode="normal" in2="BackgroundImageFix" result="effect1_dropShadow_8310_972"/>
<feBlend mode="normal" in="SourceGraphic" in2="effect1_dropShadow_8310_972" result="shape"/>
</filter>
</defs>
</svg>
