<svg width="96" height="86" viewBox="0 0 96 86" fill="none" xmlns="http://www.w3.org/2000/svg">
<g filter="url(#filter0_d_8310_1103)">
<path d="M5.37285 42.5205C4.62083 41.2108 4.24484 40.5555 4.09767 39.8593C3.96744 39.2431 3.96744 38.6067 4.09767 37.9905C4.24484 37.2944 4.62083 36.6391 5.37285 35.3294L23.5901 3.5975C24.3421 2.28764 24.7181 1.63271 25.2442 1.15639C25.7096 0.734951 26.2579 0.416565 26.8535 0.221956C27.5267 0.00195292 28.2787 0.00195312 29.7827 0.00195312H66.2171C67.7214 0.00195312 68.4731 0.00195292 69.1466 0.221956C69.7419 0.416565 70.2903 0.734951 70.756 1.15639C71.282 1.63271 71.6578 2.28764 72.41 3.5975L90.6271 35.3294C91.3792 36.6391 91.7551 37.2944 91.9021 37.9905C92.0326 38.6067 92.0326 39.2431 91.9021 39.8593C91.7551 40.5555 91.3792 41.2108 90.6271 42.5205L72.41 74.2526C71.6578 75.5622 71.282 76.2171 70.756 76.6935C70.2903 77.1151 69.7419 77.4333 69.1466 77.6279C68.4731 77.8481 67.7214 77.8481 66.2171 77.8481H29.7827C28.2787 77.8481 27.5267 77.8481 26.8535 77.6279C26.2579 77.4333 25.7096 77.1151 25.2442 76.6935C24.7181 76.2171 24.3421 75.5622 23.5901 74.2526L5.37285 42.5205Z" fill="white"/>
</g>
<path d="M58.2051 5.50195H38.2051C36.8244 5.50195 35.7051 6.62124 35.7051 8.00195V28.002C35.7051 29.3827 36.8244 30.502 38.2051 30.502H58.2051C59.5858 30.502 60.7051 29.3827 60.7051 28.002V8.00195C60.7051 6.62124 59.5858 5.50195 58.2051 5.50195Z" fill="#F2BB41"/>
<path d="M54.4551 19.2519H45.7051V16.0144L46.0676 16.3894C46.1838 16.5065 46.322 16.5995 46.4743 16.663C46.6267 16.7265 46.7901 16.7591 46.9551 16.7591C47.1201 16.7591 47.2835 16.7265 47.4358 16.663C47.5881 16.5995 47.7264 16.5065 47.8426 16.3894C47.9597 16.2732 48.0527 16.1349 48.1162 15.9826C48.1796 15.8303 48.2123 15.6669 48.2123 15.5019C48.2123 15.3369 48.1796 15.1735 48.1162 15.0212C48.0527 14.8688 47.9597 14.7306 47.8426 14.6144L45.3426 12.1144C45.2264 11.9972 45.0881 11.9042 44.9358 11.8408C44.7835 11.7773 44.6201 11.7446 44.4551 11.7446C44.2901 11.7446 44.1267 11.7773 43.9743 11.8408C43.822 11.9042 43.6838 11.9972 43.5676 12.1144L41.0676 14.6144C40.951 14.7309 40.8586 14.8693 40.7955 15.0216C40.7324 15.1738 40.7 15.3371 40.7 15.5019C40.7 15.8348 40.8322 16.154 41.0676 16.3894C41.3029 16.6248 41.6222 16.757 41.9551 16.757C42.2879 16.757 42.6072 16.6248 42.8426 16.3894L43.2051 16.0144V19.2519C43.2051 19.9149 43.4685 20.5508 43.9373 21.0196C44.4061 21.4885 45.042 21.7519 45.7051 21.7519H54.4551C54.7866 21.7519 55.1045 21.6202 55.3389 21.3858C55.5734 21.1513 55.7051 20.8334 55.7051 20.5019C55.7051 20.1704 55.5734 19.8524 55.3389 19.618C55.1045 19.3836 54.7866 19.2519 54.4551 19.2519Z" fill="#E08838"/>
<path d="M12.1375 44.002V36.952H14.6775C15.4442 36.952 16.0942 37.0886 16.6275 37.362C17.1675 37.6353 17.5775 38.0353 17.8575 38.562C18.1442 39.082 18.2875 39.7186 18.2875 40.472C18.2875 41.2253 18.1442 41.8653 17.8575 42.392C17.5775 42.9186 17.1675 43.3186 16.6275 43.592C16.0942 43.8653 15.4442 44.002 14.6775 44.002H12.1375ZM13.1975 43.092H14.6075C15.4542 43.092 16.0909 42.8753 16.5175 42.442C16.9509 42.0086 17.1675 41.352 17.1675 40.472C17.1675 39.592 16.9509 38.9386 16.5175 38.512C16.0909 38.0786 15.4542 37.862 14.6075 37.862H13.1975V43.092ZM22.0829 44.092C21.5295 44.092 21.0529 43.992 20.6529 43.792C20.2529 43.5853 19.9462 43.292 19.7329 42.912C19.5195 42.5253 19.4129 42.0686 19.4129 41.542C19.4129 41.042 19.5129 40.602 19.7129 40.222C19.9195 39.8353 20.2062 39.5353 20.5729 39.322C20.9462 39.102 21.3762 38.992 21.8629 38.992C22.3362 38.992 22.7395 39.092 23.0729 39.292C23.4062 39.492 23.6629 39.7786 23.8429 40.152C24.0229 40.5186 24.1129 40.9586 24.1129 41.472V41.812H20.2329V41.142H23.3929L23.2229 41.312C23.2229 40.8053 23.1062 40.4186 22.8729 40.152C22.6462 39.8853 22.3195 39.752 21.8929 39.752C21.5862 39.752 21.3229 39.822 21.1029 39.962C20.8829 40.0953 20.7129 40.2886 20.5929 40.542C20.4729 40.7886 20.4129 41.0853 20.4129 41.432V41.522C20.4129 41.9086 20.4762 42.232 20.6029 42.492C20.7362 42.752 20.9295 42.9453 21.1829 43.072C21.4362 43.1986 21.7429 43.262 22.1029 43.262C22.3762 43.262 22.6495 43.2253 22.9229 43.152C23.2029 43.072 23.4595 42.9353 23.6929 42.742L24.0229 43.472C23.7762 43.672 23.4762 43.8253 23.1229 43.932C22.7762 44.0386 22.4295 44.092 22.0829 44.092ZM27.4874 44.092C26.8607 44.092 26.3907 43.932 26.0774 43.612C25.7707 43.292 25.6174 42.8286 25.6174 42.222V39.912H24.6574V39.082H25.6474V37.622H26.6774V39.082H28.2974V39.912H26.6774V42.152C26.6774 42.5053 26.754 42.772 26.9074 42.952C27.0674 43.1253 27.314 43.212 27.6474 43.212C27.7674 43.212 27.884 43.1986 27.9974 43.172C28.1107 43.1453 28.224 43.112 28.3374 43.072L28.4974 43.872C28.3774 43.9453 28.224 43.9986 28.0374 44.032C27.8507 44.072 27.6674 44.092 27.4874 44.092ZM29.9301 45.802L30.9001 43.632V44.232L28.7001 39.082H29.8301L31.4001 43.052H31.2301L32.8201 39.082H33.9001L31.0201 45.802H29.9301ZM34.7417 44.002V39.082H35.7317V40.252H35.6817C35.795 39.872 35.9917 39.5753 36.2717 39.362C36.5583 39.1486 36.925 39.0253 37.3717 38.992L37.7817 38.972L37.8617 39.892L37.1617 39.962C36.7283 40.002 36.395 40.142 36.1617 40.382C35.9283 40.622 35.8117 40.9386 35.8117 41.332V44.002H34.7417ZM40.3561 44.092C40.0094 44.092 39.6961 44.0253 39.4161 43.892C39.1361 43.7586 38.9161 43.5786 38.7561 43.352C38.6027 43.1186 38.5261 42.8586 38.5261 42.572C38.5261 42.2053 38.6227 41.9153 38.8161 41.702C39.0161 41.4886 39.3327 41.3353 39.7661 41.242C40.1994 41.142 40.7727 41.092 41.4861 41.092H42.0661V41.752H41.5161C41.1561 41.752 40.8527 41.7653 40.6061 41.792C40.3594 41.812 40.1594 41.852 40.0061 41.912C39.8527 41.972 39.7394 42.052 39.6661 42.152C39.5994 42.2453 39.5661 42.3653 39.5661 42.512C39.5661 42.7653 39.6561 42.9653 39.8361 43.112C40.0227 43.252 40.2661 43.322 40.5661 43.322C40.8261 43.322 41.0561 43.2653 41.2561 43.152C41.4561 43.032 41.6161 42.872 41.7361 42.672C41.8561 42.4653 41.9161 42.2353 41.9161 41.982V40.852C41.9161 40.4786 41.8227 40.212 41.6361 40.052C41.4561 39.892 41.1727 39.812 40.7861 39.812C40.4994 39.812 40.2127 39.852 39.9261 39.932C39.6461 40.012 39.3527 40.142 39.0461 40.322L38.7261 39.582C38.9194 39.4553 39.1327 39.3486 39.3661 39.262C39.6061 39.1753 39.8527 39.1086 40.1061 39.062C40.3661 39.0153 40.6194 38.992 40.8661 38.992C41.3127 38.992 41.6894 39.062 41.9961 39.202C42.3027 39.342 42.5361 39.5553 42.6961 39.842C42.8561 40.1286 42.9361 40.502 42.9361 40.962V44.002H41.9861V42.932H42.0261C41.9527 43.1586 41.8394 43.362 41.6861 43.542C41.5327 43.7153 41.3427 43.852 41.1161 43.952C40.8961 44.0453 40.6427 44.092 40.3561 44.092ZM46.6085 44.092C45.9818 44.092 45.5118 43.932 45.1985 43.612C44.8918 43.292 44.7385 42.8286 44.7385 42.222V39.912H43.7785V39.082H44.7685V37.622H45.7985V39.082H47.4185V39.912H45.7985V42.152C45.7985 42.5053 45.8751 42.772 46.0285 42.952C46.1885 43.1253 46.4351 43.212 46.7685 43.212C46.8885 43.212 47.0051 43.1986 47.1185 43.172C47.2318 43.1453 47.3451 43.112 47.4585 43.072L47.6185 43.872C47.4985 43.9453 47.3451 43.9986 47.1585 44.032C46.9718 44.072 46.7885 44.092 46.6085 44.092ZM53.897 44.092C53.4703 44.092 53.1003 43.9886 52.787 43.782C52.4803 43.5753 52.2637 43.2886 52.137 42.922H52.187V44.002H51.187V36.952H52.247V40.102H52.187C52.307 39.762 52.517 39.492 52.817 39.292C53.1237 39.092 53.487 38.992 53.907 38.992C54.3537 38.992 54.7403 39.0986 55.067 39.312C55.4003 39.5186 55.657 39.812 55.837 40.192C56.017 40.572 56.107 41.022 56.107 41.542C56.107 42.0553 56.017 42.5053 55.837 42.892C55.657 43.272 55.4003 43.5686 55.067 43.782C54.7337 43.9886 54.3437 44.092 53.897 44.092ZM53.637 43.272C54.077 43.272 54.4237 43.122 54.677 42.822C54.9303 42.5153 55.057 42.0886 55.057 41.542C55.057 40.9886 54.927 40.5653 54.667 40.272C54.4137 39.972 54.0703 39.822 53.637 39.822C53.2037 39.822 52.8603 39.972 52.607 40.272C52.3537 40.5653 52.227 40.9886 52.227 41.542C52.227 42.0886 52.3537 42.5153 52.607 42.822C52.867 43.122 53.2103 43.272 53.637 43.272ZM58.9986 44.092C58.652 44.092 58.3386 44.0253 58.0586 43.892C57.7786 43.7586 57.5586 43.5786 57.3986 43.352C57.2453 43.1186 57.1686 42.8586 57.1686 42.572C57.1686 42.2053 57.2653 41.9153 57.4586 41.702C57.6586 41.4886 57.9753 41.3353 58.4086 41.242C58.842 41.142 59.4153 41.092 60.1286 41.092H60.7086V41.752H60.1586C59.7986 41.752 59.4953 41.7653 59.2486 41.792C59.002 41.812 58.802 41.852 58.6486 41.912C58.4953 41.972 58.382 42.052 58.3086 42.152C58.242 42.2453 58.2086 42.3653 58.2086 42.512C58.2086 42.7653 58.2986 42.9653 58.4786 43.112C58.6653 43.252 58.9086 43.322 59.2086 43.322C59.4686 43.322 59.6986 43.2653 59.8986 43.152C60.0986 43.032 60.2586 42.872 60.3786 42.672C60.4986 42.4653 60.5586 42.2353 60.5586 41.982V40.852C60.5586 40.4786 60.4653 40.212 60.2786 40.052C60.0986 39.892 59.8153 39.812 59.4286 39.812C59.142 39.812 58.8553 39.852 58.5686 39.932C58.2886 40.012 57.9953 40.142 57.6886 40.322L57.3686 39.582C57.562 39.4553 57.7753 39.3486 58.0086 39.262C58.2486 39.1753 58.4953 39.1086 58.7486 39.062C59.0086 39.0153 59.262 38.992 59.5086 38.992C59.9553 38.992 60.332 39.062 60.6386 39.202C60.9453 39.342 61.1786 39.5553 61.3386 39.842C61.4986 40.1286 61.5786 40.502 61.5786 40.962V44.002H60.6286V42.932H60.6686C60.5953 43.1586 60.482 43.362 60.3286 43.542C60.1753 43.7153 59.9853 43.852 59.7586 43.952C59.5386 44.0453 59.2853 44.092 58.9986 44.092ZM62.8811 44.002V43.312L65.8311 39.622L65.8511 39.912H62.9111V39.082H66.8211V39.762L63.8411 43.482L63.8311 43.172H66.9311V44.002H62.8811ZM70.3543 44.092C69.801 44.092 69.3243 43.992 68.9243 43.792C68.5243 43.5853 68.2177 43.292 68.0043 42.912C67.791 42.5253 67.6843 42.0686 67.6843 41.542C67.6843 41.042 67.7843 40.602 67.9843 40.222C68.191 39.8353 68.4777 39.5353 68.8443 39.322C69.2177 39.102 69.6477 38.992 70.1343 38.992C70.6077 38.992 71.011 39.092 71.3443 39.292C71.6777 39.492 71.9343 39.7786 72.1143 40.152C72.2943 40.5186 72.3843 40.9586 72.3843 41.472V41.812H68.5043V41.142H71.6643L71.4943 41.312C71.4943 40.8053 71.3777 40.4186 71.1443 40.152C70.9177 39.8853 70.591 39.752 70.1643 39.752C69.8577 39.752 69.5943 39.822 69.3743 39.962C69.1543 40.0953 68.9843 40.2886 68.8643 40.542C68.7443 40.7886 68.6843 41.0853 68.6843 41.432V41.522C68.6843 41.9086 68.7477 42.232 68.8743 42.492C69.0077 42.752 69.201 42.9453 69.4543 43.072C69.7077 43.1986 70.0143 43.262 70.3743 43.262C70.6477 43.262 70.921 43.2253 71.1943 43.152C71.4743 43.072 71.731 42.9353 71.9643 42.742L72.2943 43.472C72.0477 43.672 71.7477 43.8253 71.3943 43.932C71.0477 44.0386 70.701 44.092 70.3543 44.092ZM70.5743 37.962V36.902H71.6343V37.962H70.5743ZM68.6543 37.962V36.902H69.7143V37.962H68.6543ZM78.5128 44.092C77.8861 44.092 77.4161 43.932 77.1028 43.612C76.7961 43.292 76.6428 42.8286 76.6428 42.222V39.912H75.6828V39.082H76.6728V37.622H77.7028V39.082H79.3228V39.912H77.7028V42.152C77.7028 42.5053 77.7794 42.772 77.9328 42.952C78.0928 43.1253 78.3394 43.212 78.6728 43.212C78.7928 43.212 78.9094 43.1986 79.0228 43.172C79.1361 43.1453 79.2494 43.112 79.3628 43.072L79.5228 43.872C79.4028 43.9453 79.2494 43.9986 79.0628 44.032C78.8761 44.072 78.6928 44.092 78.5128 44.092ZM82.6883 44.092C82.135 44.092 81.6583 43.992 81.2583 43.792C80.8583 43.5853 80.5517 43.292 80.3383 42.912C80.125 42.5253 80.0183 42.0686 80.0183 41.542C80.0183 41.042 80.1183 40.602 80.3183 40.222C80.525 39.8353 80.8117 39.5353 81.1783 39.322C81.5517 39.102 81.9817 38.992 82.4683 38.992C82.9417 38.992 83.345 39.092 83.6783 39.292C84.0117 39.492 84.2683 39.7786 84.4483 40.152C84.6283 40.5186 84.7183 40.9586 84.7183 41.472V41.812H80.8383V41.142H83.9983L83.8283 41.312C83.8283 40.8053 83.7117 40.4186 83.4783 40.152C83.2517 39.8853 82.925 39.752 82.4983 39.752C82.1917 39.752 81.9283 39.822 81.7083 39.962C81.4883 40.0953 81.3183 40.2886 81.1983 40.542C81.0783 40.7886 81.0183 41.0853 81.0183 41.432V41.522C81.0183 41.9086 81.0817 42.232 81.2083 42.492C81.3417 42.752 81.535 42.9453 81.7883 43.072C82.0417 43.1986 82.3483 43.262 82.7083 43.262C82.9817 43.262 83.255 43.2253 83.5283 43.152C83.8083 43.072 84.065 42.9353 84.2983 42.742L84.6283 43.472C84.3817 43.672 84.0817 43.8253 83.7283 43.932C83.3817 44.0386 83.035 44.092 82.6883 44.092ZM82.9083 37.962V36.902H83.9683V37.962H82.9083ZM80.9883 37.962V36.902H82.0483V37.962H80.9883ZM30.6268 58.092C30.1801 58.092 29.7901 57.9886 29.4568 57.782C29.1301 57.5686 28.8734 57.272 28.6868 56.892C28.5068 56.5053 28.4168 56.0553 28.4168 55.542C28.4168 55.022 28.5068 54.572 28.6868 54.192C28.8668 53.812 29.1234 53.5186 29.4568 53.312C29.7901 53.0986 30.1768 52.992 30.6168 52.992C31.0368 52.992 31.3968 53.092 31.6968 53.292C32.0034 53.492 32.2168 53.762 32.3368 54.102H32.2868V50.952H33.3368V58.002H32.3468V56.922H32.3868C32.2601 57.2886 32.0401 57.5753 31.7268 57.782C31.4201 57.9886 31.0534 58.092 30.6268 58.092ZM30.8868 57.272C31.3201 57.272 31.6634 57.122 31.9168 56.822C32.1701 56.5153 32.2968 56.0886 32.2968 55.542C32.2968 54.9886 32.1701 54.5653 31.9168 54.272C31.6634 53.972 31.3201 53.822 30.8868 53.822C30.4534 53.822 30.1068 53.972 29.8468 54.272C29.5934 54.5653 29.4668 54.9886 29.4668 55.542C29.4668 56.0886 29.5934 56.5153 29.8468 56.822C30.1068 57.122 30.4534 57.272 30.8868 57.272ZM34.8784 58.002V53.082H35.8684V54.252H35.8184C35.9317 53.872 36.1284 53.5753 36.4084 53.362C36.6951 53.1486 37.0617 53.0253 37.5084 52.992L37.9184 52.972L37.9984 53.892L37.2984 53.962C36.8651 54.002 36.5317 54.142 36.2984 54.382C36.0651 54.622 35.9484 54.9386 35.9484 55.332V58.002H34.8784ZM41.2332 58.092C40.6799 58.092 40.2032 57.992 39.8032 57.792C39.4032 57.5853 39.0966 57.292 38.8832 56.912C38.6699 56.5253 38.5632 56.0686 38.5632 55.542C38.5632 55.042 38.6632 54.602 38.8632 54.222C39.0699 53.8353 39.3566 53.5353 39.7232 53.322C40.0966 53.102 40.5266 52.992 41.0132 52.992C41.4866 52.992 41.8899 53.092 42.2232 53.292C42.5566 53.492 42.8132 53.7786 42.9932 54.152C43.1732 54.5186 43.2632 54.9586 43.2632 55.472V55.812H39.3832V55.142H42.5432L42.3732 55.312C42.3732 54.8053 42.2566 54.4186 42.0232 54.152C41.7966 53.8853 41.4699 53.752 41.0432 53.752C40.7366 53.752 40.4732 53.822 40.2532 53.962C40.0332 54.0953 39.8632 54.2886 39.7432 54.542C39.6232 54.7886 39.5632 55.0853 39.5632 55.432V55.522C39.5632 55.9086 39.6266 56.232 39.7532 56.492C39.8866 56.752 40.0799 56.9453 40.3332 57.072C40.5866 57.1986 40.8932 57.262 41.2532 57.262C41.5266 57.262 41.7999 57.2253 42.0732 57.152C42.3532 57.072 42.6099 56.9353 42.8432 56.742L43.1732 57.472C42.9266 57.672 42.6266 57.8253 42.2732 57.932C41.9266 58.0386 41.5799 58.092 41.2332 58.092ZM44.3975 51.962V50.862H45.6275V51.962H44.3975ZM43.2475 59.932L43.1675 59.112L43.6275 59.062C43.9075 59.0286 44.1209 58.9353 44.2675 58.782C44.4142 58.6286 44.4875 58.392 44.4875 58.072V53.082H45.5375V57.982C45.5375 58.2886 45.5042 58.5553 45.4375 58.782C45.3709 59.0086 45.2642 59.1986 45.1175 59.352C44.9709 59.5053 44.7809 59.6253 44.5475 59.712C44.3209 59.8053 44.0442 59.8653 43.7175 59.892L43.2475 59.932ZM49.1866 58.092C48.5599 58.092 48.0899 57.932 47.7766 57.612C47.4699 57.292 47.3166 56.8286 47.3166 56.222V53.912H46.3566V53.082H47.3466V51.622H48.3766V53.082H49.9966V53.912H48.3766V56.152C48.3766 56.5053 48.4533 56.772 48.6066 56.952C48.7666 57.1253 49.0133 57.212 49.3466 57.212C49.4666 57.212 49.5833 57.1986 49.6966 57.172C49.8099 57.1453 49.9233 57.112 50.0366 57.072L50.1966 57.872C50.0766 57.9453 49.9233 57.9986 49.7366 58.032C49.5499 58.072 49.3666 58.092 49.1866 58.092ZM50.931 51.962V50.862H52.161V51.962H50.931ZM51.021 58.002V53.082H52.081V58.002H51.021ZM53.6386 58.002V53.082H54.6286V54.132H54.5786C54.6653 53.8986 54.7853 53.6986 54.9386 53.532C55.0986 53.3586 55.2886 53.2253 55.5086 53.132C55.7286 53.0386 55.972 52.992 56.2386 52.992C56.652 52.992 56.992 53.092 57.2586 53.292C57.5253 53.492 57.702 53.7753 57.7886 54.142H57.7086C57.8353 53.802 58.0486 53.5253 58.3486 53.312C58.6486 53.0986 59.012 52.992 59.4386 52.992C59.812 52.992 60.122 53.0653 60.3686 53.212C60.622 53.3586 60.812 53.5786 60.9386 53.872C61.0653 54.1653 61.1286 54.5386 61.1286 54.992V58.002H60.0786V55.042C60.0786 54.642 60.0086 54.3453 59.8686 54.152C59.7286 53.952 59.4853 53.852 59.1386 53.852C58.8853 53.852 58.6653 53.912 58.4786 54.032C58.292 54.1453 58.1486 54.3086 58.0486 54.522C57.9486 54.7353 57.8986 54.982 57.8986 55.262V58.002H56.8586V55.042C56.8586 54.642 56.782 54.3453 56.6286 54.152C56.482 53.952 56.2486 53.852 55.9286 53.852C55.6686 53.852 55.4453 53.9153 55.2586 54.042C55.0786 54.162 54.9386 54.3286 54.8386 54.542C54.7386 54.7486 54.6886 54.9853 54.6886 55.252V58.002H53.6386ZM62.5814 51.962V50.862H63.8114V51.962H62.5814ZM62.6714 58.002V53.082H63.7314V58.002H62.6714ZM67.419 58.092C66.7924 58.092 66.3224 57.932 66.009 57.612C65.7024 57.292 65.549 56.8286 65.549 56.222V53.912H64.589V53.082H65.579V51.622H66.609V53.082H68.229V53.912H66.609V56.152C66.609 56.5053 66.6857 56.772 66.839 56.952C66.999 57.1253 67.2457 57.212 67.579 57.212C67.699 57.212 67.8157 57.1986 67.929 57.172C68.0424 57.1453 68.1557 57.112 68.269 57.072L68.429 57.872C68.309 57.9453 68.1557 57.9986 67.969 58.032C67.7824 58.072 67.599 58.092 67.419 58.092Z" fill="black"/>
<path d="M24.6815 73.002V65.952H25.7415V69.102H25.7815L29.0115 65.952H30.3415L26.5215 69.642L26.5615 69.102L30.5515 73.002H29.1815L25.7815 69.712H25.7415V73.002H24.6815ZM32.8219 73.092C32.4753 73.092 32.1619 73.0253 31.8819 72.892C31.6019 72.7586 31.3819 72.5786 31.2219 72.352C31.0686 72.1186 30.9919 71.8586 30.9919 71.572C30.9919 71.2053 31.0886 70.9153 31.2819 70.702C31.4819 70.4886 31.7986 70.3353 32.2319 70.242C32.6653 70.142 33.2386 70.092 33.9519 70.092H34.5319V70.752H33.9819C33.6219 70.752 33.3186 70.7653 33.0719 70.792C32.8253 70.812 32.6253 70.852 32.4719 70.912C32.3186 70.972 32.2053 71.052 32.1319 71.152C32.0653 71.2453 32.0319 71.3653 32.0319 71.512C32.0319 71.7653 32.1219 71.9653 32.3019 72.112C32.4886 72.252 32.7319 72.322 33.0319 72.322C33.2919 72.322 33.5219 72.2653 33.7219 72.152C33.9219 72.032 34.0819 71.872 34.2019 71.672C34.3219 71.4653 34.3819 71.2353 34.3819 70.982V69.852C34.3819 69.4786 34.2886 69.212 34.1019 69.052C33.9219 68.892 33.6386 68.812 33.2519 68.812C32.9653 68.812 32.6786 68.852 32.3919 68.932C32.1119 69.012 31.8186 69.142 31.5119 69.322L31.1919 68.582C31.3853 68.4553 31.5986 68.3486 31.8319 68.262C32.0719 68.1753 32.3186 68.1086 32.5719 68.062C32.8319 68.0153 33.0853 67.992 33.3319 67.992C33.7786 67.992 34.1553 68.062 34.4619 68.202C34.7686 68.342 35.0019 68.5553 35.1619 68.842C35.3219 69.1286 35.4019 69.502 35.4019 69.962V73.002H34.4519V71.932H34.4919C34.4186 72.1586 34.3053 72.362 34.1519 72.542C33.9986 72.7153 33.8086 72.852 33.5819 72.952C33.3619 73.0453 33.1086 73.092 32.8219 73.092ZM36.9243 74.802V68.082H37.9243V69.152H37.8743C38.001 68.792 38.221 68.5086 38.5343 68.302C38.8477 68.0953 39.2177 67.992 39.6443 67.992C40.0843 67.992 40.471 68.0986 40.8043 68.312C41.1377 68.5186 41.3943 68.812 41.5743 69.192C41.7543 69.572 41.8443 70.022 41.8443 70.542C41.8443 71.0486 41.7543 71.4953 41.5743 71.882C41.3943 72.2686 41.141 72.5686 40.8143 72.782C40.4877 72.9886 40.0977 73.092 39.6443 73.092C39.2243 73.092 38.861 72.992 38.5543 72.792C38.2543 72.5853 38.0443 72.3153 37.9243 71.982H37.9843V74.802H36.9243ZM39.3743 72.272C39.8077 72.272 40.151 72.122 40.4043 71.822C40.6643 71.5153 40.7943 71.0853 40.7943 70.532C40.7943 69.9853 40.6677 69.5653 40.4143 69.272C40.161 68.972 39.8143 68.822 39.3743 68.822C38.941 68.822 38.5977 68.972 38.3443 69.272C38.091 69.5653 37.9643 69.9853 37.9643 70.532C37.9643 71.0853 38.091 71.5153 38.3443 71.822C38.6043 72.122 38.9477 72.272 39.3743 72.272ZM43.016 66.962V65.862H44.246V66.962H43.016ZM43.106 73.002V68.082H44.166V73.002H43.106ZM47.8536 73.092C47.227 73.092 46.757 72.932 46.4436 72.612C46.137 72.292 45.9836 71.8286 45.9836 71.222V68.912H45.0236V68.082H46.0136V66.622H47.0436V68.082H48.6636V68.912H47.0436V71.152C47.0436 71.5053 47.1203 71.772 47.2736 71.952C47.4336 72.1253 47.6803 72.212 48.0136 72.212C48.1336 72.212 48.2503 72.1986 48.3636 72.172C48.477 72.1453 48.5903 72.112 48.7036 72.072L48.8636 72.872C48.7436 72.9453 48.5903 72.9986 48.4036 73.032C48.217 73.072 48.0336 73.092 47.8536 73.092ZM51.498 73.092C51.0914 73.092 50.7514 73.0186 50.478 72.872C50.2114 72.7253 50.008 72.5053 49.868 72.212C49.7347 71.912 49.668 71.5386 49.668 71.092V68.082H50.718V71.072C50.718 71.3186 50.7514 71.532 50.818 71.712C50.8914 71.8853 51.0047 72.0153 51.158 72.102C51.318 72.1886 51.5147 72.232 51.748 72.232C52.008 72.232 52.2347 72.172 52.428 72.052C52.628 71.932 52.7847 71.7686 52.898 71.562C53.018 71.3486 53.078 71.1086 53.078 70.842V68.082H54.128V73.002H53.128V71.932H53.198C53.0447 72.3053 52.8214 72.592 52.528 72.792C52.2414 72.992 51.898 73.092 51.498 73.092ZM57.2646 73.092C56.7379 73.092 56.3379 72.9453 56.0646 72.652C55.7979 72.352 55.6646 71.9253 55.6646 71.372V65.952H56.7246V71.292C56.7246 71.492 56.7512 71.6653 56.8046 71.812C56.8646 71.952 56.9512 72.0586 57.0646 72.132C57.1779 72.1986 57.3179 72.232 57.4846 72.232C57.5712 72.232 57.6546 72.2286 57.7346 72.222C57.8146 72.2086 57.8979 72.192 57.9846 72.172L57.9946 72.992C57.8746 73.0253 57.7546 73.0486 57.6346 73.062C57.5212 73.082 57.3979 73.092 57.2646 73.092ZM60.4677 73.092C59.941 73.092 59.541 72.9453 59.2677 72.652C59.001 72.352 58.8677 71.9253 58.8677 71.372V65.952H59.9277V71.292C59.9277 71.492 59.9544 71.6653 60.0077 71.812C60.0677 71.952 60.1544 72.0586 60.2677 72.132C60.381 72.1986 60.521 72.232 60.6877 72.232C60.7744 72.232 60.8577 72.2286 60.9377 72.222C61.0177 72.2086 61.101 72.192 61.1877 72.172L61.1977 72.992C61.0777 73.0253 60.9577 73.0486 60.8377 73.062C60.7244 73.082 60.601 73.092 60.4677 73.092ZM61.9808 66.962V65.862H63.2108V66.962H61.9808ZM62.0708 73.002V68.082H63.1308V73.002H62.0708ZM69.1526 73.092C68.8993 73.092 68.6493 73.062 68.4026 73.002C68.156 72.942 67.9226 72.852 67.7026 72.732C67.4826 72.6053 67.286 72.4553 67.1126 72.282L67.4826 71.482C67.736 71.7286 68.0026 71.9086 68.2826 72.022C68.5693 72.1286 68.8626 72.182 69.1626 72.182C69.476 72.182 69.7493 72.1253 69.9826 72.012C70.2226 71.8986 70.426 71.732 70.5926 71.512C70.7593 71.2853 70.8826 71.0053 70.9626 70.672C71.0493 70.332 71.0926 69.9453 71.0926 69.512V68.822H71.1426C71.0893 69.1486 70.9726 69.432 70.7926 69.672C70.6193 69.912 70.3993 70.0953 70.1326 70.222C69.866 70.3486 69.566 70.412 69.2326 70.412C68.826 70.412 68.4626 70.3186 68.1426 70.132C67.8226 69.9386 67.5693 69.6753 67.3826 69.342C67.196 69.002 67.1026 68.6153 67.1026 68.182C67.1026 67.7286 67.1993 67.3286 67.3926 66.982C67.5926 66.6353 67.866 66.362 68.2126 66.162C68.5593 65.962 68.9526 65.862 69.3926 65.862C69.9726 65.862 70.4626 65.9986 70.8626 66.272C71.2626 66.5386 71.566 66.932 71.7726 67.452C71.9793 67.972 72.0826 68.5986 72.0826 69.332C72.0826 70.132 71.966 70.812 71.7326 71.372C71.4993 71.932 71.166 72.3586 70.7326 72.652C70.2993 72.9453 69.7726 73.092 69.1526 73.092ZM69.4626 69.552C69.736 69.552 69.976 69.492 70.1826 69.372C70.3893 69.252 70.5493 69.0886 70.6626 68.882C70.776 68.6686 70.8326 68.422 70.8326 68.142C70.8326 67.8553 70.776 67.6086 70.6626 67.402C70.5493 67.1886 70.3893 67.022 70.1826 66.902C69.976 66.782 69.736 66.722 69.4626 66.722C69.1893 66.722 68.9493 66.782 68.7426 66.902C68.5426 67.022 68.386 67.1886 68.2726 67.402C68.1593 67.6153 68.1026 67.862 68.1026 68.142C68.1026 68.422 68.1593 68.6686 68.2726 68.882C68.386 69.0953 68.546 69.262 68.7526 69.382C68.9593 69.4953 69.196 69.552 69.4626 69.552Z" fill="#667085"/>
<defs>
<filter id="filter0_d_8310_1103" x="0" y="0.00195312" width="96" height="85.8462" filterUnits="userSpaceOnUse" color-interpolation-filters="sRGB">
<feFlood flood-opacity="0" result="BackgroundImageFix"/>
<feColorMatrix in="SourceAlpha" type="matrix" values="0 0 0 0 0 0 0 0 0 0 0 0 0 0 0 0 0 0 127 0" result="hardAlpha"/>
<feOffset dy="4"/>
<feGaussianBlur stdDeviation="2"/>
<feComposite in2="hardAlpha" operator="out"/>
<feColorMatrix type="matrix" values="0 0 0 0 0 0 0 0 0 0 0 0 0 0 0 0 0 0 0.25 0"/>
<feBlend mode="normal" in2="BackgroundImageFix" result="effect1_dropShadow_8310_1103"/>
<feBlend mode="normal" in="SourceGraphic" in2="effect1_dropShadow_8310_1103" result="shape"/>
</filter>
</defs>
</svg>
