<svg width="96" height="86" viewBox="0 0 96 86" fill="none" xmlns="http://www.w3.org/2000/svg">
<g filter="url(#filter0_d_8310_938)">
<path d="M5.37285 42.5185C4.62083 41.2089 4.24484 40.5536 4.09767 39.8574C3.96744 39.2412 3.96744 38.6048 4.09767 37.9886C4.24484 37.2924 4.62083 36.6371 5.37285 35.3274L23.5901 3.59555C24.3421 2.28569 24.7181 1.63076 25.2442 1.15444C25.7096 0.732998 26.2579 0.414612 26.8535 0.220002C27.5267 -2.00917e-07 28.2787 0 29.7827 0H66.2171C67.7214 0 68.4731 -2.00917e-07 69.1466 0.220002C69.7419 0.414612 70.2903 0.732998 70.756 1.15444C71.282 1.63076 71.6578 2.28569 72.41 3.59555L90.6271 35.3274C91.3792 36.6371 91.7551 37.2924 91.9021 37.9886C92.0326 38.6048 92.0326 39.2412 91.9021 39.8574C91.7551 40.5536 91.3792 41.2089 90.6271 42.5185L72.41 74.2506C71.6578 75.5603 71.282 76.2151 70.756 76.6915C70.2903 77.1131 69.7419 77.4313 69.1466 77.6259C68.4731 77.8462 67.7214 77.8462 66.2171 77.8462H29.7827C28.2787 77.8462 27.5267 77.8462 26.8535 77.6259C26.2579 77.4313 25.7096 77.1131 25.2442 76.6915C24.7181 76.2151 24.3421 75.5603 23.5901 74.2506L5.37285 42.5185Z" fill="white"/>
</g>
<path d="M46.5432 37.1574L36.0476 26.6618C35.1147 25.7288 35.1147 24.2711 36.0476 23.3382L46.5432 12.8425C47.4762 11.9096 48.9339 11.9096 49.8669 12.8425L60.3625 23.3382C61.2954 24.2711 61.2954 25.7288 60.3625 26.6618L49.8669 37.1574C48.9339 38.0903 47.4179 38.0903 46.5432 37.1574Z" fill="#F2BB41"/>
<path d="M46.7765 30.1021C46.7765 29.9272 46.8348 29.7523 46.8931 29.5773C46.9514 29.4024 47.068 29.2858 47.1847 29.1692C47.3013 29.0526 47.4762 28.9359 47.6511 28.8776C47.8261 28.8193 48.001 28.761 48.2342 28.761C48.4675 28.761 48.6424 28.8193 48.8173 28.8776C48.9922 28.9359 49.1672 29.0526 49.2838 29.1692C49.4004 29.2858 49.517 29.4024 49.5753 29.5773C49.6336 29.7523 49.6919 29.9272 49.6919 30.1021C49.6919 30.277 49.6336 30.452 49.5753 30.6269C49.517 30.8018 49.4004 30.9184 49.2838 31.0351C49.1672 31.1517 48.9922 31.2683 48.8173 31.3266C48.6424 31.3849 48.4675 31.4432 48.2342 31.4432C48.001 31.4432 47.8261 31.3849 47.6511 31.3266C47.4762 31.2683 47.3596 31.1517 47.1847 31.0351C47.068 30.9184 46.9514 30.8018 46.8931 30.6269C46.8348 30.452 46.7765 30.3353 46.7765 30.1021ZM49.2255 27.4199H47.1263L46.8348 18.6152H49.517L49.2255 27.4199Z" fill="#E08838"/>
<path d="M12.902 53V44.54H20.054V53H18.818V45.584H14.15V53H12.902ZM21.9709 55.16V47.144H23.1589V48.464H23.0269C23.1549 48.032 23.4069 47.688 23.7829 47.432C24.1589 47.168 24.6029 47.036 25.1149 47.036C25.6349 47.036 26.0869 47.16 26.4709 47.408C26.8629 47.656 27.1629 48.004 27.3709 48.452C27.5869 48.9 27.6949 49.44 27.6949 50.072C27.6949 50.688 27.5869 51.228 27.3709 51.692C27.1629 52.148 26.8669 52.5 26.4829 52.748C26.0989 52.988 25.6429 53.108 25.1149 53.108C24.6109 53.108 24.1709 52.98 23.7949 52.724C23.4189 52.468 23.1669 52.128 23.0389 51.704H23.1829V55.16H21.9709ZM24.8149 52.172C25.3189 52.172 25.7189 51.992 26.0149 51.632C26.3189 51.272 26.4709 50.752 26.4709 50.072C26.4709 49.384 26.3189 48.864 26.0149 48.512C25.7189 48.16 25.3189 47.984 24.8149 47.984C24.3189 47.984 23.9189 48.16 23.6149 48.512C23.3109 48.864 23.1589 49.384 23.1589 50.072C23.1589 50.752 23.3109 51.272 23.6149 51.632C23.9189 51.992 24.3189 52.172 24.8149 52.172ZM29.1776 53V47.144H30.2816V51.8H29.9696L33.4496 47.144H34.4696V53H33.3656V48.344H33.6896L30.1976 53H29.1776ZM38.8469 53.108C38.2549 53.108 37.7429 52.984 37.3109 52.736C36.8869 52.488 36.5549 52.136 36.3149 51.68C36.0749 51.224 35.9549 50.688 35.9549 50.072C35.9549 49.448 36.0749 48.912 36.3149 48.464C36.5549 48.008 36.8869 47.656 37.3109 47.408C37.7429 47.16 38.2549 47.036 38.8469 47.036C39.4309 47.036 39.9349 47.16 40.3589 47.408C40.7909 47.656 41.1269 48.008 41.3669 48.464C41.6069 48.92 41.7269 49.456 41.7269 50.072C41.7269 50.688 41.6069 51.224 41.3669 51.68C41.1269 52.136 40.7909 52.488 40.3589 52.736C39.9349 52.984 39.4309 53.108 38.8469 53.108ZM38.8349 52.172C39.3389 52.172 39.7429 51.992 40.0469 51.632C40.3509 51.272 40.5029 50.752 40.5029 50.072C40.5029 49.384 40.3509 48.864 40.0469 48.512C39.7429 48.16 39.3389 47.984 38.8349 47.984C38.3389 47.984 37.9389 48.16 37.6349 48.512C37.3309 48.864 37.1789 49.384 37.1789 50.072C37.1789 50.752 37.3309 51.272 37.6349 51.632C37.9389 51.992 38.3389 52.172 38.8349 52.172ZM43.2287 55.16V47.144H44.4167V48.464H44.2847C44.4127 48.032 44.6647 47.688 45.0407 47.432C45.4167 47.168 45.8607 47.036 46.3727 47.036C46.8927 47.036 47.3447 47.16 47.7287 47.408C48.1207 47.656 48.4207 48.004 48.6287 48.452C48.8447 48.9 48.9527 49.44 48.9527 50.072C48.9527 50.688 48.8447 51.228 48.6287 51.692C48.4207 52.148 48.1247 52.5 47.7407 52.748C47.3567 52.988 46.9007 53.108 46.3727 53.108C45.8687 53.108 45.4287 52.98 45.0527 52.724C44.6767 52.468 44.4247 52.128 44.2967 51.704H44.4407V55.16H43.2287ZM46.0727 52.172C46.5767 52.172 46.9767 51.992 47.2727 51.632C47.5767 51.272 47.7287 50.752 47.7287 50.072C47.7287 49.384 47.5767 48.864 47.2727 48.512C46.9767 48.16 46.5767 47.984 46.0727 47.984C45.5767 47.984 45.1767 48.16 44.8727 48.512C44.5687 48.864 44.4167 49.384 44.4167 50.072C44.4167 50.752 44.5687 51.272 44.8727 51.632C45.1767 51.992 45.5767 52.172 46.0727 52.172ZM50.4354 53V47.144H51.5394V51.8H51.2274L54.7074 47.144H55.7274V53H54.6234V48.344H54.9474L51.4554 53H50.4354ZM58.7727 53V48.116H56.7087V47.144H62.0607V48.116H59.9847V53H58.7727ZM65.7579 53.108C65.1179 53.108 64.5659 52.988 64.1019 52.748C63.6459 52.5 63.2899 52.152 63.0339 51.704C62.7859 51.248 62.6619 50.708 62.6619 50.084C62.6619 49.476 62.7859 48.944 63.0339 48.488C63.2819 48.032 63.6219 47.676 64.0539 47.42C64.4859 47.164 64.9779 47.036 65.5299 47.036C66.0739 47.036 66.5379 47.156 66.9219 47.396C67.3139 47.628 67.6139 47.96 67.8219 48.392C68.0299 48.824 68.1339 49.34 68.1339 49.94V50.348H63.6219V49.604H67.3179L67.1139 49.772C67.1139 49.172 66.9819 48.708 66.7179 48.38C66.4539 48.052 66.0739 47.888 65.5779 47.888C65.2019 47.888 64.8819 47.976 64.6179 48.152C64.3619 48.328 64.1659 48.572 64.0299 48.884C63.8939 49.196 63.8259 49.56 63.8259 49.976V50.048C63.8259 50.512 63.8979 50.904 64.0419 51.224C64.1939 51.536 64.4139 51.772 64.7019 51.932C64.9899 52.092 65.3459 52.172 65.7699 52.172C66.1059 52.172 66.4339 52.12 66.7539 52.016C67.0819 51.904 67.3899 51.732 67.6779 51.5L68.0379 52.34C67.7739 52.58 67.4339 52.768 67.0179 52.904C66.6019 53.04 66.1819 53.108 65.7579 53.108ZM70.7962 53V48.116H68.7322V47.144H74.0842V48.116H72.0082V53H70.7962ZM78.3169 53V52.076L81.1369 49.052C81.4009 48.764 81.6129 48.5 81.7729 48.26C81.9329 48.012 82.0489 47.776 82.1209 47.552C82.2009 47.32 82.2409 47.088 82.2409 46.856C82.2409 46.408 82.1049 46.068 81.8329 45.836C81.5609 45.604 81.1609 45.488 80.6329 45.488C80.2249 45.488 79.8369 45.564 79.4689 45.716C79.1089 45.868 78.7649 46.1 78.4369 46.412L77.9929 45.464C78.3129 45.152 78.7209 44.904 79.2169 44.72C79.7129 44.528 80.2289 44.432 80.7649 44.432C81.3489 44.432 81.8409 44.524 82.2409 44.708C82.6489 44.884 82.9569 45.144 83.1649 45.488C83.3729 45.832 83.4769 46.252 83.4769 46.748C83.4769 47.004 83.4449 47.256 83.3809 47.504C83.3249 47.744 83.2329 47.984 83.1049 48.224C82.9849 48.464 82.8289 48.712 82.6369 48.968C82.4529 49.224 82.2289 49.488 81.9649 49.76L79.5529 52.304V51.956H83.8129V53H78.3169Z" fill="black"/>
<path d="M30.746 68V60.95H35.326V61.86H31.806V68H30.746ZM34.7426 68.13L34.3926 67.3C34.626 67.2133 34.8193 67.1 34.9726 66.96C35.126 66.8133 35.246 66.63 35.3326 66.41C35.4193 66.19 35.4826 65.9233 35.5226 65.61C35.5626 65.29 35.5826 64.91 35.5826 64.47V63.08H39.4226V68H38.3626V63.93H36.5526V64.5C36.5526 65.04 36.5193 65.5133 36.4526 65.92C36.3926 66.3267 36.2926 66.6767 36.1526 66.97C36.0126 67.2633 35.826 67.5067 35.5926 67.7C35.3593 67.8867 35.076 68.03 34.7426 68.13ZM42.7061 68.09C42.3595 68.09 42.0461 68.0233 41.7661 67.89C41.4861 67.7567 41.2661 67.5767 41.1061 67.35C40.9528 67.1167 40.8761 66.8567 40.8761 66.57C40.8761 66.2033 40.9728 65.9133 41.1661 65.7C41.3661 65.4867 41.6828 65.3333 42.1161 65.24C42.5495 65.14 43.1228 65.09 43.8361 65.09H44.4161V65.75H43.8661C43.5061 65.75 43.2028 65.7633 42.9561 65.79C42.7095 65.81 42.5095 65.85 42.3561 65.91C42.2028 65.97 42.0895 66.05 42.0161 66.15C41.9495 66.2433 41.9161 66.3633 41.9161 66.51C41.9161 66.7633 42.0061 66.9633 42.1861 67.11C42.3728 67.25 42.6161 67.32 42.9161 67.32C43.1761 67.32 43.4061 67.2633 43.6061 67.15C43.8061 67.03 43.9661 66.87 44.0861 66.67C44.2061 66.4633 44.2661 66.2333 44.2661 65.98V64.85C44.2661 64.4767 44.1728 64.21 43.9861 64.05C43.8061 63.89 43.5228 63.81 43.1361 63.81C42.8495 63.81 42.5628 63.85 42.2761 63.93C41.9961 64.01 41.7028 64.14 41.3961 64.32L41.0761 63.58C41.2695 63.4533 41.4828 63.3467 41.7161 63.26C41.9561 63.1733 42.2028 63.1067 42.4561 63.06C42.7161 63.0133 42.9695 62.99 43.2161 62.99C43.6628 62.99 44.0395 63.06 44.3461 63.2C44.6528 63.34 44.8861 63.5533 45.0461 63.84C45.2061 64.1267 45.2861 64.5 45.2861 64.96V68H44.3361V66.93H44.3761C44.3028 67.1567 44.1895 67.36 44.0361 67.54C43.8828 67.7133 43.6928 67.85 43.4661 67.95C43.2461 68.0433 42.9928 68.09 42.7061 68.09ZM46.9258 68V63.08H49.5358C49.9491 63.08 50.2858 63.13 50.5458 63.23C50.8124 63.33 51.0058 63.4767 51.1258 63.67C51.2524 63.8567 51.3158 64.09 51.3158 64.37C51.3158 64.6567 51.2224 64.9033 51.0358 65.11C50.8558 65.31 50.6091 65.44 50.2958 65.5V65.43C50.5558 65.4567 50.7724 65.5233 50.9458 65.63C51.1258 65.7367 51.2591 65.8767 51.3458 66.05C51.4391 66.2167 51.4858 66.41 51.4858 66.63C51.4858 67.05 51.3224 67.3833 50.9958 67.63C50.6758 67.8767 50.2158 68 49.6158 68H46.9258ZM47.9158 67.32H49.5258C49.8391 67.32 50.0791 67.26 50.2458 67.14C50.4124 67.0133 50.4958 66.8267 50.4958 66.58C50.4958 66.3333 50.4124 66.15 50.2458 66.03C50.0791 65.9033 49.8391 65.84 49.5258 65.84H47.9158V67.32ZM47.9158 65.16H49.4458C49.7191 65.16 49.9324 65.1 50.0858 64.98C50.2458 64.8533 50.3258 64.6767 50.3258 64.45C50.3258 64.2233 50.2458 64.0533 50.0858 63.94C49.9324 63.82 49.7191 63.76 49.4458 63.76H47.9158V65.16ZM54.4444 68.09C54.0978 68.09 53.7844 68.0233 53.5044 67.89C53.2244 67.7567 53.0044 67.5767 52.8444 67.35C52.6911 67.1167 52.6144 66.8567 52.6144 66.57C52.6144 66.2033 52.7111 65.9133 52.9044 65.7C53.1044 65.4867 53.4211 65.3333 53.8544 65.24C54.2878 65.14 54.8611 65.09 55.5744 65.09H56.1544V65.75H55.6044C55.2444 65.75 54.9411 65.7633 54.6944 65.79C54.4478 65.81 54.2478 65.85 54.0944 65.91C53.9411 65.97 53.8278 66.05 53.7544 66.15C53.6878 66.2433 53.6544 66.3633 53.6544 66.51C53.6544 66.7633 53.7444 66.9633 53.9244 67.11C54.1111 67.25 54.3544 67.32 54.6544 67.32C54.9144 67.32 55.1444 67.2633 55.3444 67.15C55.5444 67.03 55.7044 66.87 55.8244 66.67C55.9444 66.4633 56.0044 66.2333 56.0044 65.98V64.85C56.0044 64.4767 55.9111 64.21 55.7244 64.05C55.5444 63.89 55.2611 63.81 54.8744 63.81C54.5878 63.81 54.3011 63.85 54.0144 63.93C53.7344 64.01 53.4411 64.14 53.1344 64.32L52.8144 63.58C53.0078 63.4533 53.2211 63.3467 53.4544 63.26C53.6944 63.1733 53.9411 63.1067 54.1944 63.06C54.4544 63.0133 54.7078 62.99 54.9544 62.99C55.4011 62.99 55.7778 63.06 56.0844 63.2C56.3911 63.34 56.6244 63.5533 56.7844 63.84C56.9444 64.1267 57.0244 64.5 57.0244 64.96V68H56.0744V66.93H56.1144C56.0411 67.1567 55.9278 67.36 55.7744 67.54C55.6211 67.7133 55.4311 67.85 55.2044 67.95C54.9844 68.0433 54.7311 68.09 54.4444 68.09ZM63.8282 68.09C63.2548 68.09 62.7682 67.9533 62.3682 67.68C61.9682 67.4067 61.6615 67.0133 61.4482 66.5C61.2415 65.98 61.1382 65.3533 61.1382 64.62C61.1382 63.8133 61.2548 63.1333 61.4882 62.58C61.7215 62.02 62.0582 61.5933 62.4982 61.3C62.9382 61.0067 63.4648 60.86 64.0782 60.86C64.3315 60.86 64.5815 60.8933 64.8282 60.96C65.0748 61.02 65.3048 61.11 65.5182 61.23C65.7382 61.35 65.9348 61.5 66.1082 61.68L65.7382 62.48C65.4915 62.2333 65.2248 62.0533 64.9382 61.94C64.6582 61.8267 64.3682 61.77 64.0682 61.77C63.7548 61.77 63.4782 61.8267 63.2382 61.94C62.9982 62.0533 62.7948 62.2233 62.6282 62.45C62.4682 62.67 62.3448 62.9467 62.2582 63.28C62.1715 63.6133 62.1282 64 62.1282 64.44V65.13H62.0782C62.1382 64.7967 62.2548 64.51 62.4282 64.27C62.6015 64.03 62.8215 63.8467 63.0882 63.72C63.3615 63.5933 63.6615 63.53 63.9882 63.53C64.4015 63.53 64.7682 63.6267 65.0882 63.82C65.4082 64.0067 65.6582 64.27 65.8382 64.61C66.0248 64.9433 66.1182 65.33 66.1182 65.77C66.1182 66.2167 66.0182 66.6167 65.8182 66.97C65.6248 67.3233 65.3548 67.6 65.0082 67.8C64.6682 67.9933 64.2748 68.09 63.8282 68.09ZM63.7682 67.22C64.0348 67.22 64.2715 67.1633 64.4782 67.05C64.6848 66.93 64.8448 66.7633 64.9582 66.55C65.0715 66.3367 65.1282 66.0867 65.1282 65.8C65.1282 65.52 65.0715 65.2767 64.9582 65.07C64.8448 64.8567 64.6848 64.6933 64.4782 64.58C64.2715 64.46 64.0348 64.4 63.7682 64.4C63.4948 64.4 63.2548 64.46 63.0482 64.58C62.8415 64.6933 62.6782 64.8567 62.5582 65.07C62.4448 65.2833 62.3882 65.5267 62.3882 65.8C62.3882 66.0867 62.4448 66.3367 62.5582 66.55C62.6782 66.7633 62.8415 66.93 63.0482 67.05C63.2548 67.1633 63.4948 67.22 63.7682 67.22Z" fill="#667085"/>
<defs>
<filter id="filter0_d_8310_938" x="0" y="0" width="96" height="85.8462" filterUnits="userSpaceOnUse" color-interpolation-filters="sRGB">
<feFlood flood-opacity="0" result="BackgroundImageFix"/>
<feColorMatrix in="SourceAlpha" type="matrix" values="0 0 0 0 0 0 0 0 0 0 0 0 0 0 0 0 0 0 127 0" result="hardAlpha"/>
<feOffset dy="4"/>
<feGaussianBlur stdDeviation="2"/>
<feComposite in2="hardAlpha" operator="out"/>
<feColorMatrix type="matrix" values="0 0 0 0 0 0 0 0 0 0 0 0 0 0 0 0 0 0 0.25 0"/>
<feBlend mode="normal" in2="BackgroundImageFix" result="effect1_dropShadow_8310_938"/>
<feBlend mode="normal" in="SourceGraphic" in2="effect1_dropShadow_8310_938" result="shape"/>
</filter>
</defs>
</svg>
