<svg width="96" height="87" viewBox="0 0 96 87" fill="none" xmlns="http://www.w3.org/2000/svg">
<g filter="url(#filter0_d_8310_691)">
<path d="M5.37285 42.7685C4.62083 41.4589 4.24484 40.8036 4.09767 40.1074C3.96744 39.4912 3.96744 38.8548 4.09767 38.2386C4.24484 37.5424 4.62083 36.8871 5.37285 35.5774L23.5901 3.84555C24.3421 2.53569 24.7181 1.88076 25.2442 1.40444C25.7096 0.982998 26.2579 0.664612 26.8535 0.470002C27.5267 0.25 28.2787 0.25 29.7827 0.25H66.2171C67.7214 0.25 68.4731 0.25 69.1466 0.470002C69.7419 0.664612 70.2903 0.982998 70.756 1.40444C71.282 1.88076 71.6578 2.53569 72.41 3.84555L90.6271 35.5774C91.3792 36.8871 91.7551 37.5424 91.9021 38.2386C92.0326 38.8548 92.0326 39.4912 91.9021 40.1074C91.7551 40.8036 91.3792 41.4589 90.6271 42.7685L72.41 74.5006C71.6578 75.8103 71.282 76.4651 70.756 76.9415C70.2903 77.3631 69.7419 77.6813 69.1466 77.8759C68.4731 78.0962 67.7214 78.0962 66.2171 78.0962H29.7827C28.2787 78.0962 27.5267 78.0962 26.8535 77.8759C26.2579 77.6813 25.7096 77.3631 25.2442 76.9415C24.7181 76.4651 24.3421 75.8103 23.5901 74.5006L5.37285 42.7685Z" fill="white"/>
</g>
<path d="M52.2051 13.75H41.2051C40.1051 13.75 39.2051 14.65 39.2051 15.75V35.75C39.2051 36.85 40.1051 37.75 41.2051 37.75H55.2051C56.3051 37.75 57.2051 36.85 57.2051 35.75V18.75L52.2051 13.75Z" fill="#F2BB41" stroke="#F2BB41" stroke-width="2" stroke-miterlimit="10" stroke-linecap="round" stroke-linejoin="round"/>
<path d="M52.2051 13.75V18.75H57.2051L52.2051 13.75Z" fill="#E08838" stroke="#E08838" stroke-width="2" stroke-miterlimit="10" stroke-linecap="round" stroke-linejoin="round"/>
<path d="M12.902 53.75V45.29H16.406C17.022 45.29 17.542 45.394 17.966 45.602C18.39 45.802 18.71 46.094 18.926 46.478C19.15 46.862 19.262 47.326 19.262 47.87C19.262 48.414 19.15 48.882 18.926 49.274C18.71 49.658 18.39 49.954 17.966 50.162C17.542 50.362 17.022 50.462 16.406 50.462H14.15V53.75H12.902ZM14.15 49.466H16.226C16.826 49.466 17.278 49.334 17.582 49.07C17.894 48.798 18.05 48.398 18.05 47.87C18.05 47.35 17.894 46.958 17.582 46.694C17.278 46.422 16.826 46.286 16.226 46.286H14.15V49.466ZM23.09 53.858C22.45 53.858 21.898 53.738 21.434 53.498C20.978 53.25 20.622 52.902 20.366 52.454C20.118 51.998 19.994 51.458 19.994 50.834C19.994 50.226 20.118 49.694 20.366 49.238C20.614 48.782 20.954 48.426 21.386 48.17C21.818 47.914 22.31 47.786 22.862 47.786C23.406 47.786 23.87 47.906 24.254 48.146C24.646 48.378 24.946 48.71 25.154 49.142C25.362 49.574 25.466 50.09 25.466 50.69V51.098H20.954V50.354H24.65L24.446 50.522C24.446 49.922 24.314 49.458 24.05 49.13C23.786 48.802 23.406 48.638 22.91 48.638C22.534 48.638 22.214 48.726 21.95 48.902C21.694 49.078 21.498 49.322 21.362 49.634C21.226 49.946 21.158 50.31 21.158 50.726V50.798C21.158 51.262 21.23 51.654 21.374 51.974C21.526 52.286 21.746 52.522 22.034 52.682C22.322 52.842 22.678 52.922 23.102 52.922C23.438 52.922 23.766 52.87 24.086 52.766C24.414 52.654 24.722 52.482 25.01 52.25L25.37 53.09C25.106 53.33 24.766 53.518 24.35 53.654C23.934 53.79 23.514 53.858 23.09 53.858ZM26.9042 53.75V47.894H31.1522V48.866H28.1162V53.75H26.9042ZM32.2479 53.75V47.894H33.3519V52.55H33.0399L36.5199 47.894H37.5399V53.75H36.4359V49.094H36.7599L33.2679 53.75H32.2479ZM41.9532 53.858C41.3532 53.858 40.8332 53.734 40.3932 53.486C39.9612 53.23 39.6252 52.874 39.3852 52.418C39.1452 51.954 39.0252 51.41 39.0252 50.786C39.0252 50.17 39.1452 49.638 39.3852 49.19C39.6252 48.742 39.9612 48.398 40.3932 48.158C40.8332 47.91 41.3532 47.786 41.9532 47.786C42.3212 47.786 42.6852 47.85 43.0452 47.978C43.4052 48.098 43.7012 48.274 43.9332 48.506L43.5492 49.358C43.3332 49.15 43.0892 48.998 42.8172 48.902C42.5452 48.798 42.2892 48.746 42.0492 48.746C41.4812 48.746 41.0412 48.926 40.7292 49.286C40.4252 49.638 40.2732 50.142 40.2732 50.798C40.2732 51.454 40.4252 51.97 40.7292 52.346C41.0412 52.714 41.4812 52.898 42.0492 52.898C42.2892 52.898 42.5452 52.85 42.8172 52.754C43.0892 52.65 43.3332 52.494 43.5492 52.286L43.9332 53.15C43.7012 53.366 43.4012 53.538 43.0332 53.666C42.6732 53.794 42.3132 53.858 41.9532 53.858ZM46.3274 53.75V48.866H44.2634V47.894H49.6154V48.866H47.5394V53.75H46.3274ZM50.5998 55.91V47.894H51.7878V49.214H51.6558C51.7838 48.782 52.0358 48.438 52.4118 48.182C52.7878 47.918 53.2318 47.786 53.7438 47.786C54.2638 47.786 54.7158 47.91 55.0998 48.158C55.4918 48.406 55.7918 48.754 55.9998 49.202C56.2158 49.65 56.3238 50.19 56.3238 50.822C56.3238 51.438 56.2158 51.978 55.9998 52.442C55.7918 52.898 55.4958 53.25 55.1118 53.498C54.7278 53.738 54.2718 53.858 53.7438 53.858C53.2398 53.858 52.7998 53.73 52.4238 53.474C52.0478 53.218 51.7958 52.878 51.6678 52.454H51.8118V55.91H50.5998ZM53.4438 52.922C53.9478 52.922 54.3478 52.742 54.6438 52.382C54.9478 52.022 55.0998 51.502 55.0998 50.822C55.0998 50.134 54.9478 49.614 54.6438 49.262C54.3478 48.91 53.9478 48.734 53.4438 48.734C52.9478 48.734 52.5478 48.91 52.2438 49.262C51.9398 49.614 51.7878 50.134 51.7878 50.822C51.7878 51.502 51.9398 52.022 52.2438 52.382C52.5478 52.742 52.9478 52.922 53.4438 52.922ZM59.6905 53.858C59.2825 53.858 58.9145 53.778 58.5865 53.618C58.2665 53.458 58.0145 53.242 57.8305 52.97C57.6465 52.698 57.5545 52.39 57.5545 52.046C57.5545 51.614 57.6625 51.274 57.8785 51.026C58.1025 50.77 58.4665 50.59 58.9705 50.486C59.4825 50.374 60.1705 50.318 61.0345 50.318H61.5985V51.062H61.0465C60.6145 51.062 60.2505 51.078 59.9545 51.11C59.6585 51.142 59.4225 51.194 59.2465 51.266C59.0705 51.33 58.9425 51.422 58.8625 51.542C58.7905 51.662 58.7545 51.806 58.7545 51.974C58.7545 52.278 58.8585 52.526 59.0665 52.718C59.2745 52.902 59.5625 52.994 59.9305 52.994C60.2265 52.994 60.4865 52.926 60.7105 52.79C60.9345 52.646 61.1105 52.454 61.2385 52.214C61.3745 51.974 61.4425 51.698 61.4425 51.386V50.006C61.4425 49.55 61.3465 49.222 61.1545 49.022C60.9625 48.822 60.6465 48.722 60.2065 48.722C59.8705 48.722 59.5345 48.774 59.1985 48.878C58.8625 48.974 58.5185 49.13 58.1665 49.346L57.7945 48.494C58.0025 48.35 58.2425 48.226 58.5145 48.122C58.7865 48.018 59.0705 47.938 59.3665 47.882C59.6705 47.818 59.9625 47.786 60.2425 47.786C60.7785 47.786 61.2185 47.87 61.5625 48.038C61.9145 48.206 62.1745 48.462 62.3425 48.806C62.5105 49.15 62.5945 49.594 62.5945 50.138V53.75H61.4545V52.442H61.5625C61.4985 52.738 61.3785 52.994 61.2025 53.21C61.0345 53.418 60.8225 53.578 60.5665 53.69C60.3105 53.802 60.0185 53.858 59.6905 53.858ZM69.4565 55.31V53.75H64.3925V47.894H65.6045V52.79H68.3405V47.894H69.5525V52.79H70.4885V55.31H69.4565ZM71.705 53.75V47.894H72.809V52.55H72.497L75.977 47.894H76.997V53.75H75.893V49.094H76.217L72.725 53.75H71.705ZM78.3263 53.75L79.2143 52.214C79.3663 51.942 79.5583 51.726 79.7903 51.566C80.0223 51.398 80.2583 51.314 80.4983 51.314H80.6903V51.434C80.2503 51.434 79.8703 51.366 79.5503 51.23C79.2383 51.094 78.9983 50.894 78.8303 50.63C78.6703 50.366 78.5903 50.05 78.5903 49.682C78.5903 49.138 78.7743 48.706 79.1423 48.386C79.5103 48.058 80.0583 47.894 80.7863 47.894H83.5823V53.75H82.4543V51.614H81.6983C81.4183 51.614 81.1783 51.686 80.9783 51.83C80.7783 51.974 80.6143 52.158 80.4863 52.382L79.7063 53.75H78.3263ZM81.0383 50.786H82.4543V48.722H81.0383C80.5983 48.722 80.2743 48.814 80.0663 48.998C79.8583 49.174 79.7543 49.422 79.7543 49.742C79.7543 50.07 79.8583 50.326 80.0663 50.51C80.2743 50.694 80.5983 50.786 81.0383 50.786Z" fill="black"/>
<defs>
<filter id="filter0_d_8310_691" x="0" y="0.25" width="96" height="85.8462" filterUnits="userSpaceOnUse" color-interpolation-filters="sRGB">
<feFlood flood-opacity="0" result="BackgroundImageFix"/>
<feColorMatrix in="SourceAlpha" type="matrix" values="0 0 0 0 0 0 0 0 0 0 0 0 0 0 0 0 0 0 127 0" result="hardAlpha"/>
<feOffset dy="4"/>
<feGaussianBlur stdDeviation="2"/>
<feComposite in2="hardAlpha" operator="out"/>
<feColorMatrix type="matrix" values="0 0 0 0 0 0 0 0 0 0 0 0 0 0 0 0 0 0 0.25 0"/>
<feBlend mode="normal" in2="BackgroundImageFix" result="effect1_dropShadow_8310_691"/>
<feBlend mode="normal" in="SourceGraphic" in2="effect1_dropShadow_8310_691" result="shape"/>
</filter>
</defs>
</svg>
