<svg width="102" height="86" viewBox="0 0 102 86" fill="none" xmlns="http://www.w3.org/2000/svg">
<g filter="url(#filter0_d_8334_734)">
<path d="M5.45148 42.5206C4.65639 41.2109 4.25887 40.5556 4.10327 39.8593C3.96558 39.2431 3.96558 38.6067 4.10327 37.9905C4.25887 37.2942 4.65639 36.6389 5.45148 35.3292L24.7122 3.59573C25.5072 2.2858 25.9047 1.63084 26.4609 1.1545C26.953 0.733034 27.5327 0.414632 28.1625 0.220013C28.8742 -2.00927e-07 29.6693 0 31.2595 0H69.7806C71.3711 0 72.1659 -2.00927e-07 72.8779 0.220013C73.5073 0.414632 74.0871 0.733034 74.5794 1.1545C75.1356 1.63084 75.533 2.2858 76.3282 3.59573L95.5887 35.3292C96.3839 36.6389 96.7813 37.2942 96.9368 37.9905C97.0747 38.6067 97.0747 39.2431 96.9368 39.8593C96.7813 40.5556 96.3839 41.2109 95.5887 42.5206L76.3282 74.2543C75.533 75.564 75.1356 76.2189 74.5794 76.6953C74.0871 77.1169 73.5073 77.4351 72.8779 77.6298C72.1659 77.85 71.3711 77.85 69.7806 77.85H31.2595C29.6693 77.85 28.8742 77.85 28.1625 77.6298C27.5327 77.4351 26.953 77.1169 26.4609 76.6953C25.9047 76.2189 25.5072 75.564 24.7122 74.2543L5.45148 42.5206Z" fill="white"/>
</g>
<path d="M60.9148 10.8521H41.9502C41.7451 10.8527 41.5486 10.9345 41.4035 11.0796C41.2585 11.2246 41.1767 11.4211 41.176 11.6262V34.6924C41.1769 34.897 41.259 35.0928 41.4041 35.237C41.5492 35.3812 41.7456 35.4619 41.9502 35.4614H60.9148C61.0158 35.4616 61.1159 35.4418 61.2093 35.4032C61.3026 35.3646 61.3875 35.3079 61.4589 35.2365C61.5303 35.165 61.587 35.0802 61.6256 34.9868C61.6642 34.8935 61.684 34.7934 61.6838 34.6924V11.6262C61.6843 11.4216 61.6036 11.2252 61.4594 11.0801C61.3153 10.9349 61.1194 10.8529 60.9148 10.8521ZM50.4045 31.3803H45.2776C45.0736 31.3803 44.878 31.2993 44.7338 31.1551C44.5896 31.0109 44.5085 30.8153 44.5085 30.6113C44.5085 30.4073 44.5896 30.2117 44.7338 30.0675C44.878 29.9233 45.0736 29.8422 45.2776 29.8422H50.4045C51.4142 29.858 51.4168 31.3642 50.4045 31.3803ZM50.4045 25.7407H45.2776C45.0736 25.7407 44.878 25.6597 44.7338 25.5154C44.5896 25.3712 44.5085 25.1756 44.5085 24.9716C44.5085 24.7677 44.5896 24.5721 44.7338 24.4278C44.878 24.2836 45.0736 24.2026 45.2776 24.2026H50.4045C51.4142 24.2183 51.4168 25.7245 50.4045 25.7407ZM52.4758 19.5679C52.4608 20.5777 50.9534 20.5796 50.9377 19.5678V15.5842C50.9387 14.9417 51.1947 14.3259 51.6494 13.8719C52.104 13.4179 52.7203 13.1629 53.3628 13.1629C54.0053 13.1629 54.6215 13.4179 55.0762 13.8719C55.5309 14.3259 55.7868 14.9417 55.7878 15.5842V19.5679C55.7713 20.5784 54.2663 20.5795 54.2497 19.5678V18.486H52.4758V19.5679ZM58.1257 29.8935L55.6033 32.416C55.5328 32.4886 55.4483 32.546 55.3548 32.5848C55.2614 32.6236 55.161 32.6429 55.0598 32.6416C54.9588 32.6419 54.8587 32.6222 54.7654 32.5834C54.6721 32.5447 54.5874 32.4878 54.5164 32.416L53.4499 31.3496C52.7516 30.6261 53.8134 29.5545 54.5369 30.2626L55.0598 30.7855L57.0388 28.8066C57.77 28.108 58.8309 29.1719 58.1257 29.8935ZM58.1257 24.2539L55.6033 26.7763C55.5328 26.8489 55.4483 26.9063 55.3548 26.9451C55.2614 26.9839 55.161 27.0033 55.0598 27.0019C54.9588 27.0023 54.8587 26.9825 54.7654 26.9438C54.6721 26.9051 54.5874 26.8481 54.5164 26.7763L53.4499 25.7099C52.7516 24.9864 53.8134 23.9148 54.5369 24.623L55.0598 25.1459L57.0388 23.167C57.77 22.4683 58.8309 23.5322 58.1257 24.2539Z" fill="#F2BB41"/>
<path d="M54.2497 15.5841C54.2491 15.3493 54.1554 15.1243 53.9892 14.9584C53.8229 14.7926 53.5976 14.6995 53.3628 14.6995C53.1279 14.6995 52.9027 14.7926 52.7364 14.9584C52.5701 15.1243 52.4764 15.3493 52.4758 15.5841V16.9479H54.2497V15.5841Z" fill="#F2BB41"/>
<path d="M31.5428 46.0927L31.2428 42.6967H32.6588L32.3588 46.0927H31.5428ZM33.7748 46.0927L33.4748 42.6967H34.8908L34.5908 46.0927H33.7748ZM36.5467 51.1567V42.6967H43.6987V51.1567H42.4627V43.7407H37.7947V51.1567H36.5467ZM48.3637 51.2647C47.7237 51.2647 47.1717 51.1447 46.7077 50.9047C46.2517 50.6567 45.8957 50.3087 45.6397 49.8607C45.3917 49.4047 45.2677 48.8647 45.2677 48.2407C45.2677 47.6327 45.3917 47.1007 45.6397 46.6447C45.8877 46.1887 46.2277 45.8327 46.6597 45.5767C47.0917 45.3207 47.5837 45.1927 48.1357 45.1927C48.6797 45.1927 49.1437 45.3127 49.5277 45.5527C49.9197 45.7847 50.2197 46.1167 50.4277 46.5487C50.6357 46.9807 50.7397 47.4967 50.7397 48.0967V48.5047H46.2277V47.7607H49.9237L49.7197 47.9287C49.7197 47.3287 49.5877 46.8647 49.3237 46.5367C49.0597 46.2087 48.6797 46.0447 48.1837 46.0447C47.8077 46.0447 47.4877 46.1327 47.2237 46.3087C46.9677 46.4847 46.7717 46.7287 46.6357 47.0407C46.4997 47.3527 46.4317 47.7167 46.4317 48.1327V48.2047C46.4317 48.6687 46.5037 49.0607 46.6477 49.3807C46.7997 49.6927 47.0197 49.9287 47.3077 50.0887C47.5957 50.2487 47.9517 50.3287 48.3757 50.3287C48.7117 50.3287 49.0397 50.2767 49.3597 50.1727C49.6877 50.0607 49.9957 49.8887 50.2837 49.6567L50.6437 50.4967C50.3797 50.7367 50.0397 50.9247 49.6237 51.0607C49.2077 51.1967 48.7877 51.2647 48.3637 51.2647ZM52.1899 53.3167V45.3007H53.3779V46.6207H53.2459C53.3739 46.1887 53.6259 45.8447 54.0019 45.5887C54.3779 45.3247 54.8219 45.1927 55.3339 45.1927C55.8539 45.1927 56.3059 45.3167 56.6899 45.5647C57.0819 45.8127 57.3819 46.1607 57.5899 46.6087C57.8059 47.0567 57.9139 47.5967 57.9139 48.2287C57.9139 48.8447 57.8059 49.3847 57.5899 49.8487C57.3819 50.3047 57.0859 50.6567 56.7019 50.9047C56.3179 51.1447 55.8619 51.2647 55.3339 51.2647C54.8299 51.2647 54.3899 51.1367 54.0139 50.8807C53.6379 50.6247 53.3859 50.2847 53.2579 49.8607H53.4019V53.3167H52.1899ZM55.0339 50.3287C55.5379 50.3287 55.9379 50.1487 56.2339 49.7887C56.5379 49.4287 56.6899 48.9087 56.6899 48.2287C56.6899 47.5407 56.5379 47.0207 56.2339 46.6687C55.9379 46.3167 55.5379 46.1407 55.0339 46.1407C54.5379 46.1407 54.1379 46.3167 53.8339 46.6687C53.5299 47.0207 53.3779 47.5407 53.3779 48.2287C53.3779 48.9087 53.5299 49.4287 53.8339 49.7887C54.1379 50.1487 54.5379 50.3287 55.0339 50.3287ZM62.1566 51.2647C61.5166 51.2647 60.9646 51.1447 60.5006 50.9047C60.0446 50.6567 59.6886 50.3087 59.4326 49.8607C59.1846 49.4047 59.0606 48.8647 59.0606 48.2407C59.0606 47.6327 59.1846 47.1007 59.4326 46.6447C59.6806 46.1887 60.0206 45.8327 60.4526 45.5767C60.8846 45.3207 61.3766 45.1927 61.9286 45.1927C62.4726 45.1927 62.9366 45.3127 63.3206 45.5527C63.7126 45.7847 64.0126 46.1167 64.2206 46.5487C64.4286 46.9807 64.5326 47.4967 64.5326 48.0967V48.5047H60.0206V47.7607H63.7166L63.5126 47.9287C63.5126 47.3287 63.3806 46.8647 63.1166 46.5367C62.8526 46.2087 62.4726 46.0447 61.9766 46.0447C61.6006 46.0447 61.2806 46.1327 61.0166 46.3087C60.7606 46.4847 60.5646 46.7287 60.4286 47.0407C60.2926 47.3527 60.2246 47.7167 60.2246 48.1327V48.2047C60.2246 48.6687 60.2966 49.0607 60.4406 49.3807C60.5926 49.6927 60.8126 49.9287 61.1006 50.0887C61.3886 50.2487 61.7446 50.3287 62.1686 50.3287C62.5046 50.3287 62.8326 50.2767 63.1526 50.1727C63.4806 50.0607 63.7886 49.8887 64.0766 49.6567L64.4366 50.4967C64.1726 50.7367 63.8326 50.9247 63.4166 51.0607C63.0006 51.1967 62.5806 51.2647 62.1566 51.2647ZM65.3708 52.7167V50.1967H66.0188C66.1948 49.9327 66.3348 49.6487 66.4388 49.3447C66.5428 49.0407 66.6188 48.6967 66.6668 48.3127C66.7148 47.9287 66.7388 47.4927 66.7388 47.0047V45.3007H71.0708V50.1967H72.0068V52.7167H70.9748V51.1567H66.4148V52.7167H65.3708ZM67.1468 50.1967H69.9188V46.2487H67.7948V47.2567C67.7948 47.8087 67.7388 48.3447 67.6268 48.8647C67.5148 49.3847 67.3548 49.8287 67.1468 50.1967ZM22.9229 67.2647C22.6509 67.2647 22.3749 67.2367 22.0949 67.1807C21.8229 67.1247 21.5669 67.0407 21.3269 66.9287C21.0949 66.8167 20.9069 66.6847 20.7629 66.5327L21.1349 65.7287C21.3669 65.9367 21.6349 66.0967 21.9389 66.2087C22.2509 66.3207 22.5549 66.3767 22.8509 66.3767C23.2349 66.3767 23.5629 66.3007 23.8349 66.1487C24.1149 65.9887 24.3349 65.7607 24.4949 65.4647C24.6549 65.1607 24.7429 64.8007 24.7589 64.3847L24.8789 64.6367H21.8789V63.7487H24.8789L24.7589 63.9407C24.7269 63.5887 24.6389 63.2727 24.4949 62.9927C24.3509 62.7127 24.1429 62.4927 23.8709 62.3327C23.6069 62.1727 23.2669 62.0927 22.8509 62.0927C22.5629 62.0927 22.2629 62.1447 21.9509 62.2487C21.6389 62.3527 21.3669 62.5127 21.1349 62.7287L20.7629 61.9247C21.0109 61.6927 21.3349 61.5127 21.7349 61.3847C22.1349 61.2567 22.5349 61.1927 22.9349 61.1927C23.5429 61.1927 24.0669 61.3167 24.5069 61.5647C24.9549 61.8047 25.2989 62.1487 25.5389 62.5967C25.7789 63.0447 25.8989 63.5767 25.8989 64.1927C25.8989 64.8247 25.7789 65.3687 25.5389 65.8247C25.2989 66.2807 24.9549 66.6367 24.5069 66.8927C24.0669 67.1407 23.5389 67.2647 22.9229 67.2647ZM27.3869 67.1567V61.3007H28.5989V63.6767H29.5829L31.3949 61.3007H32.7149L30.5429 64.1927L30.2429 63.8087C30.4669 63.8327 30.6629 63.8887 30.8309 63.9767C30.9989 64.0647 31.1549 64.1967 31.2989 64.3727C31.4509 64.5487 31.6109 64.7807 31.7789 65.0687L32.9909 67.1567H31.6949L30.6749 65.4047C30.5549 65.1967 30.4349 65.0367 30.3149 64.9247C30.2029 64.8127 30.0789 64.7367 29.9429 64.6967C29.8069 64.6487 29.6349 64.6247 29.4269 64.6247H28.5989V67.1567H27.3869ZM35.919 67.2647C35.407 67.2647 34.923 67.2007 34.467 67.0727C34.011 66.9447 33.639 66.7647 33.351 66.5327L33.699 65.7167C33.979 65.9327 34.311 66.0967 34.695 66.2087C35.087 66.3127 35.487 66.3647 35.895 66.3647C36.431 66.3647 36.819 66.2927 37.059 66.1487C37.299 66.0047 37.419 65.7847 37.419 65.4887C37.419 65.2167 37.323 65.0087 37.131 64.8647C36.947 64.7127 36.675 64.6367 36.315 64.6367H34.851V63.7487H36.183C36.503 63.7487 36.755 63.6807 36.939 63.5447C37.123 63.4007 37.215 63.2007 37.215 62.9447C37.215 62.6807 37.107 62.4727 36.891 62.3207C36.683 62.1687 36.335 62.0927 35.847 62.0927C35.447 62.0927 35.079 62.1447 34.743 62.2487C34.407 62.3447 34.087 62.4927 33.783 62.6927L33.435 61.8887C33.763 61.6567 34.147 61.4847 34.587 61.3727C35.027 61.2527 35.507 61.1927 36.027 61.1927C36.787 61.1927 37.359 61.3407 37.743 61.6367C38.135 61.9247 38.331 62.3247 38.331 62.8367C38.331 63.2127 38.203 63.5287 37.947 63.7847C37.699 64.0327 37.367 64.1807 36.951 64.2287V64.0727C37.279 64.0807 37.559 64.1487 37.791 64.2767C38.031 64.3967 38.215 64.5647 38.343 64.7807C38.479 64.9967 38.547 65.2447 38.547 65.5247C38.547 66.0527 38.323 66.4767 37.875 66.7967C37.427 67.1087 36.775 67.2647 35.919 67.2647ZM41.8451 67.2647C41.4371 67.2647 41.0691 67.1847 40.7411 67.0247C40.4211 66.8647 40.1691 66.6487 39.9851 66.3767C39.8011 66.1047 39.7091 65.7967 39.7091 65.4527C39.7091 65.0207 39.8171 64.6807 40.0331 64.4327C40.2571 64.1767 40.6211 63.9967 41.1251 63.8927C41.6371 63.7807 42.3251 63.7247 43.1891 63.7247H43.7531V64.4687H43.2011C42.7691 64.4687 42.4051 64.4847 42.1091 64.5167C41.8131 64.5487 41.5771 64.6007 41.4011 64.6727C41.2251 64.7367 41.0971 64.8287 41.0171 64.9487C40.9451 65.0687 40.9091 65.2127 40.9091 65.3807C40.9091 65.6847 41.0131 65.9327 41.2211 66.1247C41.4291 66.3087 41.7171 66.4007 42.0851 66.4007C42.3811 66.4007 42.6411 66.3327 42.8651 66.1967C43.0891 66.0527 43.2651 65.8607 43.3931 65.6207C43.5291 65.3807 43.5971 65.1047 43.5971 64.7927V63.4127C43.5971 62.9567 43.5011 62.6287 43.3091 62.4287C43.1171 62.2287 42.8011 62.1287 42.3611 62.1287C42.0251 62.1287 41.6891 62.1807 41.3531 62.2847C41.0171 62.3807 40.6731 62.5367 40.3211 62.7527L39.9491 61.9007C40.1571 61.7567 40.3971 61.6327 40.6691 61.5287C40.9411 61.4247 41.2251 61.3447 41.5211 61.2887C41.8251 61.2247 42.1171 61.1927 42.3971 61.1927C42.9331 61.1927 43.3731 61.2767 43.7171 61.4447C44.0691 61.6127 44.3291 61.8687 44.4971 62.2127C44.6651 62.5567 44.7491 63.0007 44.7491 63.5447V67.1567H43.6091V65.8487H43.7171C43.6531 66.1447 43.5331 66.4007 43.3571 66.6167C43.1891 66.8247 42.9771 66.9847 42.7211 67.0967C42.4651 67.2087 42.1731 67.2647 41.8451 67.2647ZM46.547 67.1567V61.3007H47.543L49.667 65.0087L51.779 61.3007H52.775V67.1567H51.707V62.7047H51.983L49.955 66.2087H49.367L47.339 62.7047H47.615V67.1567H46.547ZM57.3578 67.2647C56.7178 67.2647 56.1658 67.1447 55.7018 66.9047C55.2458 66.6567 54.8898 66.3087 54.6338 65.8607C54.3858 65.4047 54.2618 64.8647 54.2618 64.2407C54.2618 63.6327 54.3858 63.1007 54.6338 62.6447C54.8818 62.1887 55.2218 61.8327 55.6538 61.5767C56.0858 61.3207 56.5778 61.1927 57.1298 61.1927C57.6738 61.1927 58.1378 61.3127 58.5218 61.5527C58.9138 61.7847 59.2138 62.1167 59.4218 62.5487C59.6298 62.9807 59.7338 63.4967 59.7338 64.0967V64.5047H55.2218V63.7607H58.9178L58.7138 63.9287C58.7138 63.3287 58.5818 62.8647 58.3178 62.5367C58.0538 62.2087 57.6738 62.0447 57.1778 62.0447C56.8018 62.0447 56.4818 62.1327 56.2178 62.3087C55.9618 62.4847 55.7658 62.7287 55.6298 63.0407C55.4938 63.3527 55.4258 63.7167 55.4258 64.1327V64.2047C55.4258 64.6687 55.4978 65.0607 55.6418 65.3807C55.7938 65.6927 56.0138 65.9287 56.3018 66.0887C56.5898 66.2487 56.9458 66.3287 57.3698 66.3287C57.7058 66.3287 58.0338 66.2767 58.3538 66.1727C58.6818 66.0607 58.9898 65.8887 59.2778 65.6567L59.6378 66.4967C59.3738 66.7367 59.0338 66.9247 58.6178 67.0607C58.2018 67.1967 57.7818 67.2647 57.3578 67.2647ZM61.172 67.1567V61.3007H62.384V63.6647H65.3V61.3007H66.512V67.1567H65.3V64.6247H62.384V67.1567H61.172ZM70.8764 67.2647C70.2844 67.2647 69.7724 67.1407 69.3404 66.8927C68.9164 66.6447 68.5844 66.2927 68.3444 65.8367C68.1044 65.3807 67.9844 64.8447 67.9844 64.2287C67.9844 63.6047 68.1044 63.0687 68.3444 62.6207C68.5844 62.1647 68.9164 61.8127 69.3404 61.5647C69.7724 61.3167 70.2844 61.1927 70.8764 61.1927C71.4604 61.1927 71.9644 61.3167 72.3884 61.5647C72.8204 61.8127 73.1564 62.1647 73.3964 62.6207C73.6364 63.0767 73.7564 63.6127 73.7564 64.2287C73.7564 64.8447 73.6364 65.3807 73.3964 65.8367C73.1564 66.2927 72.8204 66.6447 72.3884 66.8927C71.9644 67.1407 71.4604 67.2647 70.8764 67.2647ZM70.8644 66.3287C71.3684 66.3287 71.7724 66.1487 72.0764 65.7887C72.3804 65.4287 72.5324 64.9087 72.5324 64.2287C72.5324 63.5407 72.3804 63.0207 72.0764 62.6687C71.7724 62.3167 71.3684 62.1407 70.8644 62.1407C70.3684 62.1407 69.9684 62.3167 69.6644 62.6687C69.3604 63.0207 69.2084 63.5407 69.2084 64.2287C69.2084 64.9087 69.3604 65.4287 69.6644 65.7887C69.9684 66.1487 70.3684 66.3287 70.8644 66.3287ZM75.2462 67.1567V61.3007H76.2422L78.3662 65.0087L80.4782 61.3007H81.4742V67.1567H80.4062V62.7047H80.6822L78.6542 66.2087H78.0662L76.0382 62.7047H76.3142V67.1567H75.2462Z" fill="black"/>
<defs>
<filter id="filter0_d_8334_734" x="0" y="0" width="101.04" height="85.8501" filterUnits="userSpaceOnUse" color-interpolation-filters="sRGB">
<feFlood flood-opacity="0" result="BackgroundImageFix"/>
<feColorMatrix in="SourceAlpha" type="matrix" values="0 0 0 0 0 0 0 0 0 0 0 0 0 0 0 0 0 0 127 0" result="hardAlpha"/>
<feOffset dy="4"/>
<feGaussianBlur stdDeviation="2"/>
<feComposite in2="hardAlpha" operator="out"/>
<feColorMatrix type="matrix" values="0 0 0 0 0 0 0 0 0 0 0 0 0 0 0 0 0 0 0.25 0"/>
<feBlend mode="normal" in2="BackgroundImageFix" result="effect1_dropShadow_8334_734"/>
<feBlend mode="normal" in="SourceGraphic" in2="effect1_dropShadow_8334_734" result="shape"/>
</filter>
</defs>
</svg>
