<svg width="96" height="87" viewBox="0 0 96 87" fill="none" xmlns="http://www.w3.org/2000/svg">
<g filter="url(#filter0_d_8339_572)">
<path d="M5.37285 42.6921C4.62083 41.3824 4.24484 40.7272 4.09767 40.031C3.96744 39.4148 3.96744 38.7784 4.09767 38.1622C4.24484 37.466 4.62083 36.8107 5.37285 35.501L23.5901 3.76913C24.3421 2.45928 24.7181 1.80435 25.2442 1.32802C25.7096 0.906582 26.2579 0.588196 26.8535 0.393586C27.5267 0.173584 28.2787 0.173584 29.7827 0.173584H66.2171C67.7214 0.173584 68.4731 0.173584 69.1466 0.393586C69.7419 0.588196 70.2903 0.906582 70.756 1.32802C71.282 1.80435 71.6578 2.45928 72.41 3.76913L90.6271 35.501C91.3792 36.8107 91.7551 37.466 91.9021 38.1622C92.0326 38.7784 92.0326 39.4148 91.9021 40.031C91.7551 40.7272 91.3792 41.3824 90.6271 42.6921L72.41 74.4242C71.6578 75.7339 71.282 76.3887 70.756 76.8651C70.2903 77.2867 69.7419 77.6049 69.1466 77.7995C68.4731 78.0197 67.7214 78.0197 66.2171 78.0197H29.7827C28.2787 78.0197 27.5267 78.0197 26.8535 77.7995C26.2579 77.6049 25.7096 77.2867 25.2442 76.8651C24.7181 76.3887 24.3421 75.7339 23.5901 74.4242L5.37285 42.6921Z" fill="white"/>
</g>
<g clip-path="url(#clip0_8339_572)">
<path d="M55.4134 18.908C54.6686 15.5478 53.9238 12.1877 53.1786 8.82764C51.921 8.82764 50.6635 8.82764 49.4061 8.82764C49.5858 12.1878 49.7658 15.5479 49.9456 18.908H55.4134Z" fill="#F2BB41"/>
<path d="M50.2325 24.272C50.4691 28.6879 50.7054 33.1037 50.9416 37.5196C53.8072 37.5196 56.6728 37.5196 59.5384 37.5196C58.5594 33.1037 57.5809 28.6879 56.6024 24.272H50.2325Z" fill="#F2BB41"/>
<path d="M47.0039 8.82764C45.7464 8.82764 44.4888 8.82764 43.2315 8.82764C42.4866 12.1877 41.7422 15.5478 40.9974 18.908H46.4649C46.6444 15.5478 46.824 12.1877 47.0039 8.82764Z" fill="#F2BB41"/>
<path d="M36.8717 37.5196C39.7375 37.5196 42.6029 37.5196 45.4685 37.5196C45.7056 33.1037 45.9419 28.6879 46.1778 24.272H39.8087C38.83 28.6879 37.8512 33.1038 36.8717 37.5196Z" fill="#F2BB41"/>
<path d="M62.8569 20.3008H33.5532C33.3609 20.3008 33.2051 20.4566 33.2051 20.6489V22.531C33.2051 22.7233 33.3609 22.8792 33.5532 22.8792H35.4374V25.6983C35.4374 25.8906 35.5932 26.0465 35.7855 26.0465H37.6658C37.8251 26.0465 37.964 25.9383 38.0031 25.7841L38.7417 22.8793H57.6684L58.4068 25.7841C58.4459 25.9385 58.585 26.0465 58.7443 26.0465H60.6243C60.8168 26.0465 60.9725 25.8906 60.9725 25.6983V22.8792H62.8568C63.0491 22.8792 63.205 22.7233 63.205 22.531V20.6489C63.2051 20.4566 63.0491 20.3008 62.8569 20.3008Z" fill="#F2BB41"/>
</g>
<path d="M30.3336 51.1736V42.7136H31.5576V50.1296H35.1096V42.7136H36.3216V50.1296H39.8736V42.7136H41.0856V51.1736H30.3336ZM45.5442 51.2816C44.9522 51.2816 44.4402 51.1576 44.0082 50.9096C43.5842 50.6616 43.2522 50.3096 43.0122 49.8536C42.7722 49.3976 42.6522 48.8616 42.6522 48.2456C42.6522 47.6216 42.7722 47.0856 43.0122 46.6376C43.2522 46.1816 43.5842 45.8296 44.0082 45.5816C44.4402 45.3336 44.9522 45.2096 45.5442 45.2096C46.1282 45.2096 46.6322 45.3336 47.0562 45.5816C47.4882 45.8296 47.8242 46.1816 48.0642 46.6376C48.3042 47.0936 48.4242 47.6296 48.4242 48.2456C48.4242 48.8616 48.3042 49.3976 48.0642 49.8536C47.8242 50.3096 47.4882 50.6616 47.0562 50.9096C46.6322 51.1576 46.1282 51.2816 45.5442 51.2816ZM45.5322 50.3456C46.0362 50.3456 46.4402 50.1656 46.7442 49.8056C47.0482 49.4456 47.2002 48.9256 47.2002 48.2456C47.2002 47.5576 47.0482 47.0376 46.7442 46.6856C46.4402 46.3336 46.0362 46.1576 45.5322 46.1576C45.0362 46.1576 44.6362 46.3336 44.3322 46.6856C44.0282 47.0376 43.8762 47.5576 43.8762 48.2456C43.8762 48.9256 44.0282 49.4456 44.3322 49.8056C44.6362 50.1656 45.0362 50.3456 45.5322 50.3456ZM52.506 51.2816C51.906 51.2816 51.386 51.1576 50.946 50.9096C50.514 50.6536 50.178 50.2976 49.938 49.8416C49.698 49.3776 49.578 48.8336 49.578 48.2096C49.578 47.5936 49.698 47.0616 49.938 46.6136C50.178 46.1656 50.514 45.8216 50.946 45.5816C51.386 45.3336 51.906 45.2096 52.506 45.2096C52.874 45.2096 53.238 45.2736 53.598 45.4016C53.958 45.5216 54.254 45.6976 54.486 45.9296L54.102 46.7816C53.886 46.5736 53.642 46.4216 53.37 46.3256C53.098 46.2216 52.842 46.1696 52.602 46.1696C52.034 46.1696 51.594 46.3496 51.282 46.7096C50.978 47.0616 50.826 47.5656 50.826 48.2216C50.826 48.8776 50.978 49.3936 51.282 49.7696C51.594 50.1376 52.034 50.3216 52.602 50.3216C52.842 50.3216 53.098 50.2736 53.37 50.1776C53.642 50.0736 53.886 49.9176 54.102 49.7096L54.486 50.5736C54.254 50.7896 53.954 50.9616 53.586 51.0896C53.226 51.2176 52.866 51.2816 52.506 51.2816ZM58.2481 51.2816C57.6481 51.2816 57.1281 51.1576 56.6881 50.9096C56.2561 50.6536 55.9201 50.2976 55.6801 49.8416C55.4401 49.3776 55.3201 48.8336 55.3201 48.2096C55.3201 47.5936 55.4401 47.0616 55.6801 46.6136C55.9201 46.1656 56.2561 45.8216 56.6881 45.5816C57.1281 45.3336 57.6481 45.2096 58.2481 45.2096C58.6161 45.2096 58.9801 45.2736 59.3401 45.4016C59.7001 45.5216 59.9961 45.6976 60.2281 45.9296L59.8441 46.7816C59.6281 46.5736 59.3841 46.4216 59.1121 46.3256C58.8401 46.2216 58.5841 46.1696 58.3441 46.1696C57.7761 46.1696 57.3361 46.3496 57.0241 46.7096C56.7201 47.0616 56.5681 47.5656 56.5681 48.2216C56.5681 48.8776 56.7201 49.3936 57.0241 49.7696C57.3361 50.1376 57.7761 50.3216 58.3441 50.3216C58.5841 50.3216 58.8401 50.2736 59.1121 50.1776C59.3841 50.0736 59.6281 49.9176 59.8441 49.7096L60.2281 50.5736C59.9961 50.7896 59.6961 50.9616 59.3281 51.0896C58.9681 51.2176 58.6081 51.2816 58.2481 51.2816ZM64.1583 51.2816C63.5183 51.2816 62.9663 51.1616 62.5023 50.9216C62.0463 50.6736 61.6903 50.3256 61.4343 49.8776C61.1863 49.4216 61.0623 48.8816 61.0623 48.2576C61.0623 47.6496 61.1863 47.1176 61.4343 46.6616C61.6823 46.2056 62.0223 45.8496 62.4543 45.5936C62.8863 45.3376 63.3783 45.2096 63.9303 45.2096C64.4743 45.2096 64.9383 45.3296 65.3223 45.5696C65.7143 45.8016 66.0143 46.1336 66.2223 46.5656C66.4303 46.9976 66.5343 47.5136 66.5343 48.1136V48.5216H62.0223V47.7776H65.7183L65.5143 47.9456C65.5143 47.3456 65.3823 46.8816 65.1183 46.5536C64.8543 46.2256 64.4743 46.0616 63.9783 46.0616C63.6023 46.0616 63.2823 46.1496 63.0183 46.3256C62.7623 46.5016 62.5663 46.7456 62.4303 47.0576C62.2943 47.3696 62.2263 47.7336 62.2263 48.1496V48.2216C62.2263 48.6856 62.2983 49.0776 62.4423 49.3976C62.5943 49.7096 62.8143 49.9456 63.1023 50.1056C63.3903 50.2656 63.7463 50.3456 64.1703 50.3456C64.5063 50.3456 64.8343 50.2936 65.1543 50.1896C65.4823 50.0776 65.7903 49.9056 66.0783 49.6736L66.4383 50.5136C66.1743 50.7536 65.8343 50.9416 65.4183 51.0776C65.0023 51.2136 64.5823 51.2816 64.1583 51.2816Z" fill="black"/>
<path d="M30.746 66.1736V59.1236H35.326V60.0336H31.806V66.1736H30.746ZM34.7426 66.3036L34.3926 65.4736C34.626 65.3869 34.8193 65.2736 34.9726 65.1336C35.126 64.9869 35.246 64.8036 35.3326 64.5836C35.4193 64.3636 35.4826 64.0969 35.5226 63.7836C35.5626 63.4636 35.5826 63.0836 35.5826 62.6436V61.2536H39.4226V66.1736H38.3626V62.1036H36.5526V62.6736C36.5526 63.2136 36.5193 63.6869 36.4526 64.0936C36.3926 64.5003 36.2926 64.8503 36.1526 65.1436C36.0126 65.4369 35.826 65.6803 35.5926 65.8736C35.3593 66.0603 35.076 66.2036 34.7426 66.3036ZM42.7061 66.2636C42.3595 66.2636 42.0461 66.1969 41.7661 66.0636C41.4861 65.9303 41.2661 65.7503 41.1061 65.5236C40.9528 65.2903 40.8761 65.0303 40.8761 64.7436C40.8761 64.3769 40.9728 64.0869 41.1661 63.8736C41.3661 63.6603 41.6828 63.5069 42.1161 63.4136C42.5495 63.3136 43.1228 63.2636 43.8361 63.2636H44.4161V63.9236H43.8661C43.5061 63.9236 43.2028 63.9369 42.9561 63.9636C42.7095 63.9836 42.5095 64.0236 42.3561 64.0836C42.2028 64.1436 42.0895 64.2236 42.0161 64.3236C41.9495 64.4169 41.9161 64.5369 41.9161 64.6836C41.9161 64.9369 42.0061 65.1369 42.1861 65.2836C42.3728 65.4236 42.6161 65.4936 42.9161 65.4936C43.1761 65.4936 43.4061 65.4369 43.6061 65.3236C43.8061 65.2036 43.9661 65.0436 44.0861 64.8436C44.2061 64.6369 44.2661 64.4069 44.2661 64.1536V63.0236C44.2661 62.6503 44.1728 62.3836 43.9861 62.2236C43.8061 62.0636 43.5228 61.9836 43.1361 61.9836C42.8495 61.9836 42.5628 62.0236 42.2761 62.1036C41.9961 62.1836 41.7028 62.3136 41.3961 62.4936L41.0761 61.7536C41.2695 61.6269 41.4828 61.5203 41.7161 61.4336C41.9561 61.3469 42.2028 61.2803 42.4561 61.2336C42.7161 61.1869 42.9695 61.1636 43.2161 61.1636C43.6628 61.1636 44.0395 61.2336 44.3461 61.3736C44.6528 61.5136 44.8861 61.7269 45.0461 62.0136C45.2061 62.3003 45.2861 62.6736 45.2861 63.1336V66.1736H44.3361V65.1036H44.3761C44.3028 65.3303 44.1895 65.5336 44.0361 65.7136C43.8828 65.8869 43.6928 66.0236 43.4661 66.1236C43.2461 66.2169 42.9928 66.2636 42.7061 66.2636ZM46.9258 66.1736V61.2536H49.5358C49.9491 61.2536 50.2858 61.3036 50.5458 61.4036C50.8124 61.5036 51.0058 61.6503 51.1258 61.8436C51.2524 62.0303 51.3158 62.2636 51.3158 62.5436C51.3158 62.8303 51.2224 63.0769 51.0358 63.2836C50.8558 63.4836 50.6091 63.6136 50.2958 63.6736V63.6036C50.5558 63.6303 50.7724 63.6969 50.9458 63.8036C51.1258 63.9103 51.2591 64.0503 51.3458 64.2236C51.4391 64.3903 51.4858 64.5836 51.4858 64.8036C51.4858 65.2236 51.3224 65.5569 50.9958 65.8036C50.6758 66.0503 50.2158 66.1736 49.6158 66.1736H46.9258ZM47.9158 65.4936H49.5258C49.8391 65.4936 50.0791 65.4336 50.2458 65.3136C50.4124 65.1869 50.4958 65.0003 50.4958 64.7536C50.4958 64.5069 50.4124 64.3236 50.2458 64.2036C50.0791 64.0769 49.8391 64.0136 49.5258 64.0136H47.9158V65.4936ZM47.9158 63.3336H49.4458C49.7191 63.3336 49.9324 63.2736 50.0858 63.1536C50.2458 63.0269 50.3258 62.8503 50.3258 62.6236C50.3258 62.3969 50.2458 62.2269 50.0858 62.1136C49.9324 61.9936 49.7191 61.9336 49.4458 61.9336H47.9158V63.3336ZM54.4444 66.2636C54.0978 66.2636 53.7844 66.1969 53.5044 66.0636C53.2244 65.9303 53.0044 65.7503 52.8444 65.5236C52.6911 65.2903 52.6144 65.0303 52.6144 64.7436C52.6144 64.3769 52.7111 64.0869 52.9044 63.8736C53.1044 63.6603 53.4211 63.5069 53.8544 63.4136C54.2878 63.3136 54.8611 63.2636 55.5744 63.2636H56.1544V63.9236H55.6044C55.2444 63.9236 54.9411 63.9369 54.6944 63.9636C54.4478 63.9836 54.2478 64.0236 54.0944 64.0836C53.9411 64.1436 53.8278 64.2236 53.7544 64.3236C53.6878 64.4169 53.6544 64.5369 53.6544 64.6836C53.6544 64.9369 53.7444 65.1369 53.9244 65.2836C54.1111 65.4236 54.3544 65.4936 54.6544 65.4936C54.9144 65.4936 55.1444 65.4369 55.3444 65.3236C55.5444 65.2036 55.7044 65.0436 55.8244 64.8436C55.9444 64.6369 56.0044 64.4069 56.0044 64.1536V63.0236C56.0044 62.6503 55.9111 62.3836 55.7244 62.2236C55.5444 62.0636 55.2611 61.9836 54.8744 61.9836C54.5878 61.9836 54.3011 62.0236 54.0144 62.1036C53.7344 62.1836 53.4411 62.3136 53.1344 62.4936L52.8144 61.7536C53.0078 61.6269 53.2211 61.5203 53.4544 61.4336C53.6944 61.3469 53.9411 61.2803 54.1944 61.2336C54.4544 61.1869 54.7078 61.1636 54.9544 61.1636C55.4011 61.1636 55.7778 61.2336 56.0844 61.3736C56.3911 61.5136 56.6244 61.7269 56.7844 62.0136C56.9444 62.3003 57.0244 62.6736 57.0244 63.1336V66.1736H56.0744V65.1036H56.1144C56.0411 65.3303 55.9278 65.5336 55.7744 65.7136C55.6211 65.8869 55.4311 66.0236 55.2044 66.1236C54.9844 66.2169 54.7311 66.2636 54.4444 66.2636ZM63.5782 66.2636C62.7715 66.2636 62.1415 66.0903 61.6882 65.7436C61.2348 65.3969 61.0082 64.9136 61.0082 64.2936C61.0082 63.9669 61.0715 63.6803 61.1982 63.4336C61.3315 63.1869 61.5115 62.9836 61.7382 62.8236C61.9715 62.6636 62.2348 62.5636 62.5282 62.5236V62.6236C62.2682 62.5569 62.0348 62.4436 61.8282 62.2836C61.6215 62.1236 61.4615 61.9269 61.3482 61.6936C61.2348 61.4603 61.1782 61.2036 61.1782 60.9236C61.1782 60.3303 61.3948 59.8669 61.8282 59.5336C62.2615 59.2003 62.8448 59.0336 63.5782 59.0336C64.3115 59.0336 64.8948 59.2003 65.3282 59.5336C65.7615 59.8669 65.9782 60.3303 65.9782 60.9236C65.9782 61.2036 65.9215 61.4636 65.8082 61.7036C65.6948 61.9369 65.5348 62.1336 65.3282 62.2936C65.1282 62.4469 64.8948 62.5536 64.6282 62.6136V62.5236C64.9282 62.5636 65.1915 62.6636 65.4182 62.8236C65.6448 62.9836 65.8215 63.1903 65.9482 63.4436C66.0815 63.6903 66.1482 63.9736 66.1482 64.2936C66.1482 64.9136 65.9215 65.3969 65.4682 65.7436C65.0148 66.0903 64.3848 66.2636 63.5782 66.2636ZM63.5782 65.4136C64.0982 65.4136 64.4915 65.3136 64.7582 65.1136C65.0248 64.9069 65.1582 64.6103 65.1582 64.2236C65.1582 63.8303 65.0248 63.5336 64.7582 63.3336C64.4915 63.1336 64.0982 63.0336 63.5782 63.0336C63.0648 63.0336 62.6715 63.1336 62.3982 63.3336C62.1315 63.5336 61.9982 63.8303 61.9982 64.2236C61.9982 64.6103 62.1315 64.9069 62.3982 65.1136C62.6715 65.3136 63.0648 65.4136 63.5782 65.4136ZM63.5782 62.1736C64.0248 62.1736 64.3715 62.0736 64.6182 61.8736C64.8648 61.6669 64.9882 61.3836 64.9882 61.0236C64.9882 60.6703 64.8648 60.3936 64.6182 60.1936C64.3715 59.9869 64.0248 59.8836 63.5782 59.8836C63.1382 59.8836 62.7915 59.9869 62.5382 60.1936C62.2915 60.3936 62.1682 60.6703 62.1682 61.0236C62.1682 61.3836 62.2915 61.6669 62.5382 61.8736C62.7915 62.0736 63.1382 62.1736 63.5782 62.1736Z" fill="#667085"/>
<defs>
<filter id="filter0_d_8339_572" x="0" y="0.173584" width="96" height="85.8462" filterUnits="userSpaceOnUse" color-interpolation-filters="sRGB">
<feFlood flood-opacity="0" result="BackgroundImageFix"/>
<feColorMatrix in="SourceAlpha" type="matrix" values="0 0 0 0 0 0 0 0 0 0 0 0 0 0 0 0 0 0 127 0" result="hardAlpha"/>
<feOffset dy="4"/>
<feGaussianBlur stdDeviation="2"/>
<feComposite in2="hardAlpha" operator="out"/>
<feColorMatrix type="matrix" values="0 0 0 0 0 0 0 0 0 0 0 0 0 0 0 0 0 0 0.25 0"/>
<feBlend mode="normal" in2="BackgroundImageFix" result="effect1_dropShadow_8339_572"/>
<feBlend mode="normal" in="SourceGraphic" in2="effect1_dropShadow_8339_572" result="shape"/>
</filter>
<clipPath id="clip0_8339_572">
<rect width="30" height="30" fill="white" transform="translate(33.2051 8.17358)"/>
</clipPath>
</defs>
</svg>
