<svg width="96" height="86" viewBox="0 0 96 86" fill="none" xmlns="http://www.w3.org/2000/svg">
<g filter="url(#filter0_d_8310_982)">
<path d="M5.37285 42.5185C4.62083 41.2089 4.24484 40.5536 4.09767 39.8574C3.96744 39.2412 3.96744 38.6048 4.09767 37.9886C4.24484 37.2924 4.62083 36.6371 5.37285 35.3274L23.5901 3.59555C24.3421 2.28569 24.7181 1.63076 25.2442 1.15444C25.7096 0.732998 26.2579 0.414612 26.8535 0.220002C27.5267 -2.00917e-07 28.2787 0 29.7827 0H66.2171C67.7214 0 68.4731 -2.00917e-07 69.1466 0.220002C69.7419 0.414612 70.2903 0.732998 70.756 1.15444C71.282 1.63076 71.6578 2.28569 72.41 3.59555L90.6271 35.3274C91.3792 36.6371 91.7551 37.2924 91.9021 37.9886C92.0326 38.6048 92.0326 39.2412 91.9021 39.8574C91.7551 40.5536 91.3792 41.2089 90.6271 42.5185L72.41 74.2506C71.6578 75.5603 71.282 76.2151 70.756 76.6915C70.2903 77.1131 69.7419 77.4313 69.1466 77.6259C68.4731 77.8462 67.7214 77.8462 66.2171 77.8462H29.7827C28.2787 77.8462 27.5267 77.8462 26.8535 77.6259C26.2579 77.4313 25.7096 77.1131 25.2442 76.6915C24.7181 76.2151 24.3421 75.5603 23.5901 74.2506L5.37285 42.5185Z" fill="white"/>
</g>
<path d="M46.5432 36.1574L36.0476 25.6618C35.1147 24.7288 35.1147 23.2711 36.0476 22.3382L46.5432 11.8425C47.4762 10.9096 48.9339 10.9096 49.8669 11.8425L60.3625 22.3382C61.2954 23.2711 61.2954 24.7288 60.3625 25.6618L49.8669 36.1574C48.9339 37.0903 47.4179 37.0903 46.5432 36.1574Z" fill="#F2BB41"/>
<path d="M48.1754 25.1948C48.8195 25.1948 49.3416 24.6727 49.3416 24.0287C49.3416 23.3846 48.8195 22.8625 48.1754 22.8625C47.5314 22.8625 47.0093 23.3846 47.0093 24.0287C47.0093 24.6727 47.5314 25.1948 48.1754 25.1948Z" fill="#E08838"/>
<path d="M52.84 25.1948C53.484 25.1948 54.0061 24.6727 54.0061 24.0287C54.0061 23.3846 53.484 22.8625 52.84 22.8625C52.1959 22.8625 51.6738 23.3846 51.6738 24.0287C51.6738 24.6727 52.1959 25.1948 52.84 25.1948Z" fill="#E08838"/>
<path d="M43.5109 25.1948C44.1549 25.1948 44.677 24.6727 44.677 24.0287C44.677 23.3846 44.1549 22.8625 43.5109 22.8625C42.8668 22.8625 42.3447 23.3846 42.3447 24.0287C42.3447 24.6727 42.8668 25.1948 43.5109 25.1948Z" fill="#E08838"/>
<path d="M12.902 52V43.54H20.054V52H18.818V44.584H14.15V52H12.902ZM21.9709 54.16V46.144H23.1589V47.464H23.0269C23.1549 47.032 23.4069 46.688 23.7829 46.432C24.1589 46.168 24.6029 46.036 25.1149 46.036C25.6349 46.036 26.0869 46.16 26.4709 46.408C26.8629 46.656 27.1629 47.004 27.3709 47.452C27.5869 47.9 27.6949 48.44 27.6949 49.072C27.6949 49.688 27.5869 50.228 27.3709 50.692C27.1629 51.148 26.8669 51.5 26.4829 51.748C26.0989 51.988 25.6429 52.108 25.1149 52.108C24.6109 52.108 24.1709 51.98 23.7949 51.724C23.4189 51.468 23.1669 51.128 23.0389 50.704H23.1829V54.16H21.9709ZM24.8149 51.172C25.3189 51.172 25.7189 50.992 26.0149 50.632C26.3189 50.272 26.4709 49.752 26.4709 49.072C26.4709 48.384 26.3189 47.864 26.0149 47.512C25.7189 47.16 25.3189 46.984 24.8149 46.984C24.3189 46.984 23.9189 47.16 23.6149 47.512C23.3109 47.864 23.1589 48.384 23.1589 49.072C23.1589 49.752 23.3109 50.272 23.6149 50.632C23.9189 50.992 24.3189 51.172 24.8149 51.172ZM29.1776 52V46.144H30.2816V50.8H29.9696L33.4496 46.144H34.4696V52H33.3656V47.344H33.6896L30.1976 52H29.1776ZM38.8469 52.108C38.2549 52.108 37.7429 51.984 37.3109 51.736C36.8869 51.488 36.5549 51.136 36.3149 50.68C36.0749 50.224 35.9549 49.688 35.9549 49.072C35.9549 48.448 36.0749 47.912 36.3149 47.464C36.5549 47.008 36.8869 46.656 37.3109 46.408C37.7429 46.16 38.2549 46.036 38.8469 46.036C39.4309 46.036 39.9349 46.16 40.3589 46.408C40.7909 46.656 41.1269 47.008 41.3669 47.464C41.6069 47.92 41.7269 48.456 41.7269 49.072C41.7269 49.688 41.6069 50.224 41.3669 50.68C41.1269 51.136 40.7909 51.488 40.3589 51.736C39.9349 51.984 39.4309 52.108 38.8469 52.108ZM38.8349 51.172C39.3389 51.172 39.7429 50.992 40.0469 50.632C40.3509 50.272 40.5029 49.752 40.5029 49.072C40.5029 48.384 40.3509 47.864 40.0469 47.512C39.7429 47.16 39.3389 46.984 38.8349 46.984C38.3389 46.984 37.9389 47.16 37.6349 47.512C37.3309 47.864 37.1789 48.384 37.1789 49.072C37.1789 49.752 37.3309 50.272 37.6349 50.632C37.9389 50.992 38.3389 51.172 38.8349 51.172ZM43.2287 54.16V46.144H44.4167V47.464H44.2847C44.4127 47.032 44.6647 46.688 45.0407 46.432C45.4167 46.168 45.8607 46.036 46.3727 46.036C46.8927 46.036 47.3447 46.16 47.7287 46.408C48.1207 46.656 48.4207 47.004 48.6287 47.452C48.8447 47.9 48.9527 48.44 48.9527 49.072C48.9527 49.688 48.8447 50.228 48.6287 50.692C48.4207 51.148 48.1247 51.5 47.7407 51.748C47.3567 51.988 46.9007 52.108 46.3727 52.108C45.8687 52.108 45.4287 51.98 45.0527 51.724C44.6767 51.468 44.4247 51.128 44.2967 50.704H44.4407V54.16H43.2287ZM46.0727 51.172C46.5767 51.172 46.9767 50.992 47.2727 50.632C47.5767 50.272 47.7287 49.752 47.7287 49.072C47.7287 48.384 47.5767 47.864 47.2727 47.512C46.9767 47.16 46.5767 46.984 46.0727 46.984C45.5767 46.984 45.1767 47.16 44.8727 47.512C44.5687 47.864 44.4167 48.384 44.4167 49.072C44.4167 49.752 44.5687 50.272 44.8727 50.632C45.1767 50.992 45.5767 51.172 46.0727 51.172ZM50.4354 52V46.144H51.5394V50.8H51.2274L54.7074 46.144H55.7274V52H54.6234V47.344H54.9474L51.4554 52H50.4354ZM58.7727 52V47.116H56.7087V46.144H62.0607V47.116H59.9847V52H58.7727ZM65.7579 52.108C65.1179 52.108 64.5659 51.988 64.1019 51.748C63.6459 51.5 63.2899 51.152 63.0339 50.704C62.7859 50.248 62.6619 49.708 62.6619 49.084C62.6619 48.476 62.7859 47.944 63.0339 47.488C63.2819 47.032 63.6219 46.676 64.0539 46.42C64.4859 46.164 64.9779 46.036 65.5299 46.036C66.0739 46.036 66.5379 46.156 66.9219 46.396C67.3139 46.628 67.6139 46.96 67.8219 47.392C68.0299 47.824 68.1339 48.34 68.1339 48.94V49.348H63.6219V48.604H67.3179L67.1139 48.772C67.1139 48.172 66.9819 47.708 66.7179 47.38C66.4539 47.052 66.0739 46.888 65.5779 46.888C65.2019 46.888 64.8819 46.976 64.6179 47.152C64.3619 47.328 64.1659 47.572 64.0299 47.884C63.8939 48.196 63.8259 48.56 63.8259 48.976V49.048C63.8259 49.512 63.8979 49.904 64.0419 50.224C64.1939 50.536 64.4139 50.772 64.7019 50.932C64.9899 51.092 65.3459 51.172 65.7699 51.172C66.1059 51.172 66.4339 51.12 66.7539 51.016C67.0819 50.904 67.3899 50.732 67.6779 50.5L68.0379 51.34C67.7739 51.58 67.4339 51.768 67.0179 51.904C66.6019 52.04 66.1819 52.108 65.7579 52.108ZM70.7962 52V47.116H68.7322V46.144H74.0842V47.116H72.0082V52H70.7962ZM78.7009 52V50.956H80.6209V44.596H81.2449L79.1209 45.916L78.6169 44.992L80.9809 43.54H81.8569V50.956H83.6569V52H78.7009Z" fill="black"/>
<path d="M30.746 67V59.95H35.326V60.86H31.806V67H30.746ZM34.7426 67.13L34.3926 66.3C34.626 66.2133 34.8193 66.1 34.9726 65.96C35.126 65.8133 35.246 65.63 35.3326 65.41C35.4193 65.19 35.4826 64.9233 35.5226 64.61C35.5626 64.29 35.5826 63.91 35.5826 63.47V62.08H39.4226V67H38.3626V62.93H36.5526V63.5C36.5526 64.04 36.5193 64.5133 36.4526 64.92C36.3926 65.3267 36.2926 65.6767 36.1526 65.97C36.0126 66.2633 35.826 66.5067 35.5926 66.7C35.3593 66.8867 35.076 67.03 34.7426 67.13ZM42.7061 67.09C42.3595 67.09 42.0461 67.0233 41.7661 66.89C41.4861 66.7567 41.2661 66.5767 41.1061 66.35C40.9528 66.1167 40.8761 65.8567 40.8761 65.57C40.8761 65.2033 40.9728 64.9133 41.1661 64.7C41.3661 64.4867 41.6828 64.3333 42.1161 64.24C42.5495 64.14 43.1228 64.09 43.8361 64.09H44.4161V64.75H43.8661C43.5061 64.75 43.2028 64.7633 42.9561 64.79C42.7095 64.81 42.5095 64.85 42.3561 64.91C42.2028 64.97 42.0895 65.05 42.0161 65.15C41.9495 65.2433 41.9161 65.3633 41.9161 65.51C41.9161 65.7633 42.0061 65.9633 42.1861 66.11C42.3728 66.25 42.6161 66.32 42.9161 66.32C43.1761 66.32 43.4061 66.2633 43.6061 66.15C43.8061 66.03 43.9661 65.87 44.0861 65.67C44.2061 65.4633 44.2661 65.2333 44.2661 64.98V63.85C44.2661 63.4767 44.1728 63.21 43.9861 63.05C43.8061 62.89 43.5228 62.81 43.1361 62.81C42.8495 62.81 42.5628 62.85 42.2761 62.93C41.9961 63.01 41.7028 63.14 41.3961 63.32L41.0761 62.58C41.2695 62.4533 41.4828 62.3467 41.7161 62.26C41.9561 62.1733 42.2028 62.1067 42.4561 62.06C42.7161 62.0133 42.9695 61.99 43.2161 61.99C43.6628 61.99 44.0395 62.06 44.3461 62.2C44.6528 62.34 44.8861 62.5533 45.0461 62.84C45.2061 63.1267 45.2861 63.5 45.2861 63.96V67H44.3361V65.93H44.3761C44.3028 66.1567 44.1895 66.36 44.0361 66.54C43.8828 66.7133 43.6928 66.85 43.4661 66.95C43.2461 67.0433 42.9928 67.09 42.7061 67.09ZM46.9258 67V62.08H49.5358C49.9491 62.08 50.2858 62.13 50.5458 62.23C50.8124 62.33 51.0058 62.4767 51.1258 62.67C51.2524 62.8567 51.3158 63.09 51.3158 63.37C51.3158 63.6567 51.2224 63.9033 51.0358 64.11C50.8558 64.31 50.6091 64.44 50.2958 64.5V64.43C50.5558 64.4567 50.7724 64.5233 50.9458 64.63C51.1258 64.7367 51.2591 64.8767 51.3458 65.05C51.4391 65.2167 51.4858 65.41 51.4858 65.63C51.4858 66.05 51.3224 66.3833 50.9958 66.63C50.6758 66.8767 50.2158 67 49.6158 67H46.9258ZM47.9158 66.32H49.5258C49.8391 66.32 50.0791 66.26 50.2458 66.14C50.4124 66.0133 50.4958 65.8267 50.4958 65.58C50.4958 65.3333 50.4124 65.15 50.2458 65.03C50.0791 64.9033 49.8391 64.84 49.5258 64.84H47.9158V66.32ZM47.9158 64.16H49.4458C49.7191 64.16 49.9324 64.1 50.0858 63.98C50.2458 63.8533 50.3258 63.6767 50.3258 63.45C50.3258 63.2233 50.2458 63.0533 50.0858 62.94C49.9324 62.82 49.7191 62.76 49.4458 62.76H47.9158V64.16ZM54.4444 67.09C54.0978 67.09 53.7844 67.0233 53.5044 66.89C53.2244 66.7567 53.0044 66.5767 52.8444 66.35C52.6911 66.1167 52.6144 65.8567 52.6144 65.57C52.6144 65.2033 52.7111 64.9133 52.9044 64.7C53.1044 64.4867 53.4211 64.3333 53.8544 64.24C54.2878 64.14 54.8611 64.09 55.5744 64.09H56.1544V64.75H55.6044C55.2444 64.75 54.9411 64.7633 54.6944 64.79C54.4478 64.81 54.2478 64.85 54.0944 64.91C53.9411 64.97 53.8278 65.05 53.7544 65.15C53.6878 65.2433 53.6544 65.3633 53.6544 65.51C53.6544 65.7633 53.7444 65.9633 53.9244 66.11C54.1111 66.25 54.3544 66.32 54.6544 66.32C54.9144 66.32 55.1444 66.2633 55.3444 66.15C55.5444 66.03 55.7044 65.87 55.8244 65.67C55.9444 65.4633 56.0044 65.2333 56.0044 64.98V63.85C56.0044 63.4767 55.9111 63.21 55.7244 63.05C55.5444 62.89 55.2611 62.81 54.8744 62.81C54.5878 62.81 54.3011 62.85 54.0144 62.93C53.7344 63.01 53.4411 63.14 53.1344 63.32L52.8144 62.58C53.0078 62.4533 53.2211 62.3467 53.4544 62.26C53.6944 62.1733 53.9411 62.1067 54.1944 62.06C54.4544 62.0133 54.7078 61.99 54.9544 61.99C55.4011 61.99 55.7778 62.06 56.0844 62.2C56.3911 62.34 56.6244 62.5533 56.7844 62.84C56.9444 63.1267 57.0244 63.5 57.0244 63.96V67H56.0744V65.93H56.1144C56.0411 66.1567 55.9278 66.36 55.7744 66.54C55.6211 66.7133 55.4311 66.85 55.2044 66.95C54.9844 67.0433 54.7311 67.09 54.4444 67.09ZM63.6582 67.09C63.3515 67.09 63.0515 67.06 62.7582 67C62.4715 66.9333 62.2015 66.8367 61.9482 66.71C61.7015 66.5833 61.4815 66.4333 61.2882 66.26L61.6682 65.44C61.9748 65.6933 62.2915 65.88 62.6182 66C62.9448 66.12 63.2882 66.18 63.6482 66.18C64.1082 66.18 64.4682 66.06 64.7282 65.82C64.9882 65.58 65.1182 65.2533 65.1182 64.84C65.1182 64.4133 64.9948 64.0733 64.7482 63.82C64.5015 63.5667 64.1615 63.44 63.7282 63.44C63.4282 63.44 63.1582 63.5 62.9182 63.62C62.6848 63.7333 62.4682 63.92 62.2682 64.18H61.4982V59.95H65.7482V60.85H62.4982V63.33H62.3282C62.4948 63.09 62.7182 62.9 62.9982 62.76C63.2848 62.62 63.6015 62.55 63.9482 62.55C64.3948 62.55 64.7815 62.6467 65.1082 62.84C65.4348 63.0267 65.6882 63.2867 65.8682 63.62C66.0482 63.9533 66.1382 64.3433 66.1382 64.79C66.1382 65.25 66.0382 65.6533 65.8382 66C65.6382 66.3467 65.3515 66.6167 64.9782 66.81C64.6048 66.9967 64.1648 67.09 63.6582 67.09Z" fill="#667085"/>
<defs>
<filter id="filter0_d_8310_982" x="0" y="0" width="96" height="85.8462" filterUnits="userSpaceOnUse" color-interpolation-filters="sRGB">
<feFlood flood-opacity="0" result="BackgroundImageFix"/>
<feColorMatrix in="SourceAlpha" type="matrix" values="0 0 0 0 0 0 0 0 0 0 0 0 0 0 0 0 0 0 127 0" result="hardAlpha"/>
<feOffset dy="4"/>
<feGaussianBlur stdDeviation="2"/>
<feComposite in2="hardAlpha" operator="out"/>
<feColorMatrix type="matrix" values="0 0 0 0 0 0 0 0 0 0 0 0 0 0 0 0 0 0 0.25 0"/>
<feBlend mode="normal" in2="BackgroundImageFix" result="effect1_dropShadow_8310_982"/>
<feBlend mode="normal" in="SourceGraphic" in2="effect1_dropShadow_8310_982" result="shape"/>
</filter>
</defs>
</svg>
