<svg width="96" height="86" viewBox="0 0 96 86" fill="none" xmlns="http://www.w3.org/2000/svg">
<g filter="url(#filter0_d_8310_972)">
<path d="M5.37285 42.5185C4.62083 41.2089 4.24484 40.5536 4.09767 39.8574C3.96744 39.2412 3.96744 38.6048 4.09767 37.9886C4.24484 37.2924 4.62083 36.6371 5.37285 35.3274L23.5901 3.59555C24.3421 2.28569 24.7181 1.63076 25.2442 1.15444C25.7096 0.732998 26.2579 0.414612 26.8535 0.220002C27.5267 -2.00917e-07 28.2787 0 29.7827 0H66.2171C67.7214 0 68.4731 -2.00917e-07 69.1466 0.220002C69.7419 0.414612 70.2903 0.732998 70.756 1.15444C71.282 1.63076 71.6578 2.28569 72.41 3.59555L90.6271 35.3274C91.3792 36.6371 91.7551 37.2924 91.9021 37.9886C92.0326 38.6048 92.0326 39.2412 91.9021 39.8574C91.7551 40.5536 91.3792 41.2089 90.6271 42.5185L72.41 74.2506C71.6578 75.5603 71.282 76.2151 70.756 76.6915C70.2903 77.1131 69.7419 77.4313 69.1466 77.6259C68.4731 77.8462 67.7214 77.8462 66.2171 77.8462H29.7827C28.2787 77.8462 27.5267 77.8462 26.8535 77.6259C26.2579 77.4313 25.7096 77.1131 25.2442 76.6915C24.7181 76.2151 24.3421 75.5603 23.5901 74.2506L5.37285 42.5185Z" fill="white"/>
</g>
<path d="M58.2051 5.5H38.2051C36.8244 5.5 35.7051 6.61929 35.7051 8V28C35.7051 29.3807 36.8244 30.5 38.2051 30.5H58.2051C59.5858 30.5 60.7051 29.3807 60.7051 28V8C60.7051 6.61929 59.5858 5.5 58.2051 5.5Z" fill="#F2BB41"/>
<path d="M54.4551 19.2499H45.7051V16.0124L46.0676 16.3874C46.1838 16.5046 46.322 16.5976 46.4743 16.661C46.6267 16.7245 46.7901 16.7572 46.9551 16.7572C47.1201 16.7572 47.2835 16.7245 47.4358 16.661C47.5881 16.5976 47.7264 16.5046 47.8426 16.3874C47.9597 16.2712 48.0527 16.133 48.1162 15.9806C48.1796 15.8283 48.2123 15.6649 48.2123 15.4999C48.2123 15.3349 48.1796 15.1715 48.1162 15.0192C48.0527 14.8669 47.9597 14.7286 47.8426 14.6124L45.3426 12.1124C45.2264 11.9953 45.0881 11.9023 44.9358 11.8388C44.7835 11.7753 44.6201 11.7427 44.4551 11.7427C44.2901 11.7427 44.1267 11.7753 43.9743 11.8388C43.822 11.9023 43.6838 11.9953 43.5676 12.1124L41.0676 14.6124C40.951 14.729 40.8586 14.8673 40.7955 15.0196C40.7324 15.1719 40.7 15.3351 40.7 15.4999C40.7 15.8328 40.8322 16.152 41.0676 16.3874C41.3029 16.6228 41.6222 16.755 41.9551 16.755C42.2879 16.755 42.6072 16.6228 42.8426 16.3874L43.2051 16.0124V19.2499C43.2051 19.913 43.4685 20.5488 43.9373 21.0177C44.4061 21.4865 45.042 21.7499 45.7051 21.7499H54.4551C54.7866 21.7499 55.1045 21.6182 55.3389 21.3838C55.5734 21.1494 55.7051 20.8314 55.7051 20.4999C55.7051 20.1684 55.5734 19.8505 55.3389 19.616C55.1045 19.3816 54.7866 19.2499 54.4551 19.2499Z" fill="#E08838"/>
<path d="M7.90392 46V37.54H15.0559V46H13.8199V38.584H9.15192V46H7.90392ZM19.5168 46.108C18.9248 46.108 18.4128 45.984 17.9808 45.736C17.5568 45.488 17.2248 45.136 16.9848 44.68C16.7448 44.224 16.6248 43.688 16.6248 43.072C16.6248 42.448 16.7448 41.912 16.9848 41.464C17.2248 41.008 17.5568 40.656 17.9808 40.408C18.4128 40.16 18.9248 40.036 19.5168 40.036C20.1008 40.036 20.6048 40.16 21.0288 40.408C21.4608 40.656 21.7968 41.008 22.0368 41.464C22.2768 41.92 22.3968 42.456 22.3968 43.072C22.3968 43.688 22.2768 44.224 22.0368 44.68C21.7968 45.136 21.4608 45.488 21.0288 45.736C20.6048 45.984 20.1008 46.108 19.5168 46.108ZM19.5048 45.172C20.0088 45.172 20.4128 44.992 20.7168 44.632C21.0208 44.272 21.1728 43.752 21.1728 43.072C21.1728 42.384 21.0208 41.864 20.7168 41.512C20.4128 41.16 20.0088 40.984 19.5048 40.984C19.0088 40.984 18.6088 41.16 18.3048 41.512C18.0008 41.864 17.8488 42.384 17.8488 43.072C17.8488 43.752 18.0008 44.272 18.3048 44.632C18.6088 44.992 19.0088 45.172 19.5048 45.172ZM23.8866 46V40.144H26.8746C27.3546 40.144 27.7466 40.204 28.0506 40.324C28.3626 40.444 28.5906 40.62 28.7346 40.852C28.8786 41.076 28.9506 41.352 28.9506 41.68C28.9506 42.056 28.8226 42.372 28.5666 42.628C28.3106 42.876 27.9746 43.024 27.5586 43.072V42.916C27.8946 42.924 28.1786 42.992 28.4106 43.12C28.6506 43.248 28.8306 43.42 28.9506 43.636C29.0786 43.844 29.1426 44.088 29.1426 44.368C29.1426 44.872 28.9546 45.272 28.5786 45.568C28.2026 45.856 27.6666 46 26.9706 46H23.8866ZM25.0266 45.22H26.8986C27.2586 45.22 27.5346 45.144 27.7266 44.992C27.9266 44.832 28.0266 44.604 28.0266 44.308C28.0266 44.012 27.9266 43.788 27.7266 43.636C27.5346 43.484 27.2586 43.408 26.8986 43.408H25.0266V45.22ZM25.0266 42.628H26.7906C27.1186 42.628 27.3706 42.552 27.5466 42.4C27.7306 42.248 27.8226 42.04 27.8226 41.776C27.8226 41.504 27.7306 41.296 27.5466 41.152C27.3706 41.008 27.1186 40.936 26.7906 40.936H25.0266V42.628ZM33.1106 46.108C32.5186 46.108 32.0066 45.984 31.5746 45.736C31.1506 45.488 30.8186 45.136 30.5786 44.68C30.3386 44.224 30.2186 43.688 30.2186 43.072C30.2186 42.448 30.3386 41.912 30.5786 41.464C30.8186 41.008 31.1506 40.656 31.5746 40.408C32.0066 40.16 32.5186 40.036 33.1106 40.036C33.6946 40.036 34.1986 40.16 34.6226 40.408C35.0546 40.656 35.3906 41.008 35.6306 41.464C35.8706 41.92 35.9906 42.456 35.9906 43.072C35.9906 43.688 35.8706 44.224 35.6306 44.68C35.3906 45.136 35.0546 45.488 34.6226 45.736C34.1986 45.984 33.6946 46.108 33.1106 46.108ZM33.0986 45.172C33.6026 45.172 34.0066 44.992 34.3106 44.632C34.6146 44.272 34.7666 43.752 34.7666 43.072C34.7666 42.384 34.6146 41.864 34.3106 41.512C34.0066 41.16 33.6026 40.984 33.0986 40.984C32.6026 40.984 32.2026 41.16 31.8986 41.512C31.5946 41.864 31.4426 42.384 31.4426 43.072C31.4426 43.752 31.5946 44.272 31.8986 44.632C32.2026 44.992 32.6026 45.172 33.0986 45.172ZM37.4924 48.16V40.144H38.6804V41.464H38.5484C38.6764 41.032 38.9284 40.688 39.3044 40.432C39.6804 40.168 40.1244 40.036 40.6364 40.036C41.1564 40.036 41.6084 40.16 41.9924 40.408C42.3844 40.656 42.6844 41.004 42.8924 41.452C43.1084 41.9 43.2164 42.44 43.2164 43.072C43.2164 43.688 43.1084 44.228 42.8924 44.692C42.6844 45.148 42.3884 45.5 42.0044 45.748C41.6204 45.988 41.1644 46.108 40.6364 46.108C40.1324 46.108 39.6924 45.98 39.3164 45.724C38.9404 45.468 38.6884 45.128 38.5604 44.704H38.7044V48.16H37.4924ZM40.3364 45.172C40.8404 45.172 41.2404 44.992 41.5364 44.632C41.8404 44.272 41.9924 43.752 41.9924 43.072C41.9924 42.384 41.8404 41.864 41.5364 41.512C41.2404 41.16 40.8404 40.984 40.3364 40.984C39.8404 40.984 39.4404 41.16 39.1364 41.512C38.8324 41.864 38.6804 42.384 38.6804 43.072C38.6804 43.752 38.8324 44.272 39.1364 44.632C39.4404 44.992 39.8404 45.172 40.3364 45.172ZM46.5831 46.108C46.1751 46.108 45.8071 46.028 45.4791 45.868C45.1591 45.708 44.9071 45.492 44.7231 45.22C44.5391 44.948 44.4471 44.64 44.4471 44.296C44.4471 43.864 44.5551 43.524 44.7711 43.276C44.9951 43.02 45.3591 42.84 45.8631 42.736C46.3751 42.624 47.0631 42.568 47.9271 42.568H48.4911V43.312H47.9391C47.5071 43.312 47.1431 43.328 46.8471 43.36C46.5511 43.392 46.3151 43.444 46.1391 43.516C45.9631 43.58 45.8351 43.672 45.7551 43.792C45.6831 43.912 45.6471 44.056 45.6471 44.224C45.6471 44.528 45.7511 44.776 45.9591 44.968C46.1671 45.152 46.4551 45.244 46.8231 45.244C47.1191 45.244 47.3791 45.176 47.6031 45.04C47.8271 44.896 48.0031 44.704 48.1311 44.464C48.2671 44.224 48.3351 43.948 48.3351 43.636V42.256C48.3351 41.8 48.2391 41.472 48.0471 41.272C47.8551 41.072 47.5391 40.972 47.0991 40.972C46.7631 40.972 46.4271 41.024 46.0911 41.128C45.7551 41.224 45.4111 41.38 45.0591 41.596L44.6871 40.744C44.8951 40.6 45.1351 40.476 45.4071 40.372C45.6791 40.268 45.9631 40.188 46.2591 40.132C46.5631 40.068 46.8551 40.036 47.1351 40.036C47.6711 40.036 48.1111 40.12 48.4551 40.288C48.8071 40.456 49.0671 40.712 49.2351 41.056C49.4031 41.4 49.4871 41.844 49.4871 42.388V46H48.3471V44.692H48.4551C48.3911 44.988 48.2711 45.244 48.0951 45.46C47.9271 45.668 47.7151 45.828 47.4591 45.94C47.2031 46.052 46.9111 46.108 46.5831 46.108ZM55.005 46V43.744C54.789 43.864 54.557 43.956 54.309 44.02C54.069 44.084 53.813 44.116 53.541 44.116C52.981 44.116 52.513 44.024 52.137 43.84C51.769 43.656 51.493 43.384 51.309 43.024C51.133 42.656 51.045 42.196 51.045 41.644V40.144H52.257V41.548C52.257 41.908 52.305 42.208 52.401 42.448C52.505 42.68 52.665 42.852 52.881 42.964C53.097 43.068 53.381 43.12 53.733 43.12C53.989 43.12 54.217 43.092 54.417 43.036C54.617 42.972 54.809 42.876 54.993 42.748V40.144H56.205V46H55.005ZM58.0233 46V40.144H59.1273V44.8H58.8153L62.2953 40.144H63.3153V46H62.2113V41.344H62.5353L59.0433 46H58.0233ZM65.1366 46V40.144H68.1246C68.6046 40.144 68.9966 40.204 69.3006 40.324C69.6126 40.444 69.8406 40.62 69.9846 40.852C70.1286 41.076 70.2006 41.352 70.2006 41.68C70.2006 42.056 70.0726 42.372 69.8166 42.628C69.5606 42.876 69.2246 43.024 68.8086 43.072V42.916C69.1446 42.924 69.4286 42.992 69.6606 43.12C69.9006 43.248 70.0806 43.42 70.2006 43.636C70.3286 43.844 70.3926 44.088 70.3926 44.368C70.3926 44.872 70.2046 45.272 69.8286 45.568C69.4526 45.856 68.9166 46 68.2206 46H65.1366ZM66.2766 45.22H68.1486C68.5086 45.22 68.7846 45.144 68.9766 44.992C69.1766 44.832 69.2766 44.604 69.2766 44.308C69.2766 44.012 69.1766 43.788 68.9766 43.636C68.7846 43.484 68.5086 43.408 68.1486 43.408H66.2766V45.22ZM66.2766 42.628H68.0406C68.3686 42.628 68.6206 42.552 68.7966 42.4C68.9806 42.248 69.0726 42.04 69.0726 41.776C69.0726 41.504 68.9806 41.296 68.7966 41.152C68.6206 41.008 68.3686 40.936 68.0406 40.936H66.2766V42.628ZM73.6886 46.108C73.2806 46.108 72.9126 46.028 72.5846 45.868C72.2646 45.708 72.0126 45.492 71.8286 45.22C71.6446 44.948 71.5526 44.64 71.5526 44.296C71.5526 43.864 71.6606 43.524 71.8766 43.276C72.1006 43.02 72.4646 42.84 72.9686 42.736C73.4806 42.624 74.1686 42.568 75.0326 42.568H75.5966V43.312H75.0446C74.6126 43.312 74.2486 43.328 73.9526 43.36C73.6566 43.392 73.4206 43.444 73.2446 43.516C73.0686 43.58 72.9406 43.672 72.8606 43.792C72.7886 43.912 72.7526 44.056 72.7526 44.224C72.7526 44.528 72.8566 44.776 73.0646 44.968C73.2726 45.152 73.5606 45.244 73.9286 45.244C74.2246 45.244 74.4846 45.176 74.7086 45.04C74.9326 44.896 75.1086 44.704 75.2366 44.464C75.3726 44.224 75.4406 43.948 75.4406 43.636V42.256C75.4406 41.8 75.3446 41.472 75.1526 41.272C74.9606 41.072 74.6446 40.972 74.2046 40.972C73.8686 40.972 73.5326 41.024 73.1966 41.128C72.8606 41.224 72.5166 41.38 72.1646 41.596L71.7926 40.744C72.0006 40.6 72.2406 40.476 72.5126 40.372C72.7846 40.268 73.0686 40.188 73.3646 40.132C73.6686 40.068 73.9606 40.036 74.2406 40.036C74.7766 40.036 75.2166 40.12 75.5606 40.288C75.9126 40.456 76.1726 40.712 76.3406 41.056C76.5086 41.4 76.5926 41.844 76.5926 42.388V46H75.4526V44.692H75.5606C75.4966 44.988 75.3766 45.244 75.2006 45.46C75.0326 45.668 74.8206 45.828 74.5646 45.94C74.3086 46.052 74.0166 46.108 73.6886 46.108ZM79.6145 46V41.116H77.5505V40.144H82.9025V41.116H80.8265V46H79.6145ZM83.8749 46V40.144H85.0869V42.172H86.7549C87.5069 42.172 88.0789 42.336 88.4709 42.664C88.8629 42.984 89.0589 43.452 89.0589 44.068C89.0589 44.46 88.9669 44.804 88.7829 45.1C88.5989 45.388 88.3349 45.612 87.9909 45.772C87.6469 45.924 87.2349 46 86.7549 46H83.8749ZM85.0869 45.172H86.5989C87.0149 45.172 87.3389 45.084 87.5709 44.908C87.8029 44.724 87.9189 44.444 87.9189 44.068C87.9189 43.7 87.8029 43.432 87.5709 43.264C87.3389 43.088 87.0149 43 86.5989 43H85.0869V45.172Z" fill="black"/>
<path d="M30.746 61V53.95H35.326V54.86H31.806V61H30.746ZM34.7426 61.13L34.3926 60.3C34.626 60.2133 34.8193 60.1 34.9726 59.96C35.126 59.8133 35.246 59.63 35.3326 59.41C35.4193 59.19 35.4826 58.9233 35.5226 58.61C35.5626 58.29 35.5826 57.91 35.5826 57.47V56.08H39.4226V61H38.3626V56.93H36.5526V57.5C36.5526 58.04 36.5193 58.5133 36.4526 58.92C36.3926 59.3267 36.2926 59.6767 36.1526 59.97C36.0126 60.2633 35.826 60.5067 35.5926 60.7C35.3593 60.8867 35.076 61.03 34.7426 61.13ZM42.7061 61.09C42.3595 61.09 42.0461 61.0233 41.7661 60.89C41.4861 60.7567 41.2661 60.5767 41.1061 60.35C40.9528 60.1167 40.8761 59.8567 40.8761 59.57C40.8761 59.2033 40.9728 58.9133 41.1661 58.7C41.3661 58.4867 41.6828 58.3333 42.1161 58.24C42.5495 58.14 43.1228 58.09 43.8361 58.09H44.4161V58.75H43.8661C43.5061 58.75 43.2028 58.7633 42.9561 58.79C42.7095 58.81 42.5095 58.85 42.3561 58.91C42.2028 58.97 42.0895 59.05 42.0161 59.15C41.9495 59.2433 41.9161 59.3633 41.9161 59.51C41.9161 59.7633 42.0061 59.9633 42.1861 60.11C42.3728 60.25 42.6161 60.32 42.9161 60.32C43.1761 60.32 43.4061 60.2633 43.6061 60.15C43.8061 60.03 43.9661 59.87 44.0861 59.67C44.2061 59.4633 44.2661 59.2333 44.2661 58.98V57.85C44.2661 57.4767 44.1728 57.21 43.9861 57.05C43.8061 56.89 43.5228 56.81 43.1361 56.81C42.8495 56.81 42.5628 56.85 42.2761 56.93C41.9961 57.01 41.7028 57.14 41.3961 57.32L41.0761 56.58C41.2695 56.4533 41.4828 56.3467 41.7161 56.26C41.9561 56.1733 42.2028 56.1067 42.4561 56.06C42.7161 56.0133 42.9695 55.99 43.2161 55.99C43.6628 55.99 44.0395 56.06 44.3461 56.2C44.6528 56.34 44.8861 56.5533 45.0461 56.84C45.2061 57.1267 45.2861 57.5 45.2861 57.96V61H44.3361V59.93H44.3761C44.3028 60.1567 44.1895 60.36 44.0361 60.54C43.8828 60.7133 43.6928 60.85 43.4661 60.95C43.2461 61.0433 42.9928 61.09 42.7061 61.09ZM46.9258 61V56.08H49.5358C49.9491 56.08 50.2858 56.13 50.5458 56.23C50.8124 56.33 51.0058 56.4767 51.1258 56.67C51.2524 56.8567 51.3158 57.09 51.3158 57.37C51.3158 57.6567 51.2224 57.9033 51.0358 58.11C50.8558 58.31 50.6091 58.44 50.2958 58.5V58.43C50.5558 58.4567 50.7724 58.5233 50.9458 58.63C51.1258 58.7367 51.2591 58.8767 51.3458 59.05C51.4391 59.2167 51.4858 59.41 51.4858 59.63C51.4858 60.05 51.3224 60.3833 50.9958 60.63C50.6758 60.8767 50.2158 61 49.6158 61H46.9258ZM47.9158 60.32H49.5258C49.8391 60.32 50.0791 60.26 50.2458 60.14C50.4124 60.0133 50.4958 59.8267 50.4958 59.58C50.4958 59.3333 50.4124 59.15 50.2458 59.03C50.0791 58.9033 49.8391 58.84 49.5258 58.84H47.9158V60.32ZM47.9158 58.16H49.4458C49.7191 58.16 49.9324 58.1 50.0858 57.98C50.2458 57.8533 50.3258 57.6767 50.3258 57.45C50.3258 57.2233 50.2458 57.0533 50.0858 56.94C49.9324 56.82 49.7191 56.76 49.4458 56.76H47.9158V58.16ZM54.4444 61.09C54.0978 61.09 53.7844 61.0233 53.5044 60.89C53.2244 60.7567 53.0044 60.5767 52.8444 60.35C52.6911 60.1167 52.6144 59.8567 52.6144 59.57C52.6144 59.2033 52.7111 58.9133 52.9044 58.7C53.1044 58.4867 53.4211 58.3333 53.8544 58.24C54.2878 58.14 54.8611 58.09 55.5744 58.09H56.1544V58.75H55.6044C55.2444 58.75 54.9411 58.7633 54.6944 58.79C54.4478 58.81 54.2478 58.85 54.0944 58.91C53.9411 58.97 53.8278 59.05 53.7544 59.15C53.6878 59.2433 53.6544 59.3633 53.6544 59.51C53.6544 59.7633 53.7444 59.9633 53.9244 60.11C54.1111 60.25 54.3544 60.32 54.6544 60.32C54.9144 60.32 55.1444 60.2633 55.3444 60.15C55.5444 60.03 55.7044 59.87 55.8244 59.67C55.9444 59.4633 56.0044 59.2333 56.0044 58.98V57.85C56.0044 57.4767 55.9111 57.21 55.7244 57.05C55.5444 56.89 55.2611 56.81 54.8744 56.81C54.5878 56.81 54.3011 56.85 54.0144 56.93C53.7344 57.01 53.4411 57.14 53.1344 57.32L52.8144 56.58C53.0078 56.4533 53.2211 56.3467 53.4544 56.26C53.6944 56.1733 53.9411 56.1067 54.1944 56.06C54.4544 56.0133 54.7078 55.99 54.9544 55.99C55.4011 55.99 55.7778 56.06 56.0844 56.2C56.3911 56.34 56.6244 56.5533 56.7844 56.84C56.9444 57.1267 57.0244 57.5 57.0244 57.96V61H56.0744V59.93H56.1144C56.0411 60.1567 55.9278 60.36 55.7744 60.54C55.6211 60.7133 55.4311 60.85 55.2044 60.95C54.9844 61.0433 54.7311 61.09 54.4444 61.09ZM64.2582 61V59.58H61.0482V58.8L64.3182 53.95H65.2882V58.71H66.2682V59.58H65.2882V61H64.2582ZM64.2682 58.71V55.23H64.4282L61.9382 58.94L61.8882 58.71H64.2682Z" fill="#667085"/>
<defs>
<filter id="filter0_d_8310_972" x="0" y="0" width="96" height="85.8462" filterUnits="userSpaceOnUse" color-interpolation-filters="sRGB">
<feFlood flood-opacity="0" result="BackgroundImageFix"/>
<feColorMatrix in="SourceAlpha" type="matrix" values="0 0 0 0 0 0 0 0 0 0 0 0 0 0 0 0 0 0 127 0" result="hardAlpha"/>
<feOffset dy="4"/>
<feGaussianBlur stdDeviation="2"/>
<feComposite in2="hardAlpha" operator="out"/>
<feColorMatrix type="matrix" values="0 0 0 0 0 0 0 0 0 0 0 0 0 0 0 0 0 0 0.25 0"/>
<feBlend mode="normal" in2="BackgroundImageFix" result="effect1_dropShadow_8310_972"/>
<feBlend mode="normal" in="SourceGraphic" in2="effect1_dropShadow_8310_972" result="shape"/>
</filter>
</defs>
</svg>
