<svg width="96" height="87" viewBox="0 0 96 87" fill="none" xmlns="http://www.w3.org/2000/svg">
<g filter="url(#filter0_d_8310_820)">
<path d="M5.37285 43.0185C4.62083 41.7089 4.24484 41.0536 4.09767 40.3574C3.96744 39.7412 3.96744 39.1048 4.09767 38.4886C4.24484 37.7924 4.62083 37.1371 5.37285 35.8274L23.5901 4.09555C24.3421 2.78569 24.7181 2.13076 25.2442 1.65444C25.7096 1.233 26.2579 0.914612 26.8535 0.720002C27.5267 0.5 28.2787 0.5 29.7827 0.5H66.2171C67.7214 0.5 68.4731 0.5 69.1466 0.720002C69.7419 0.914612 70.2903 1.233 70.756 1.65444C71.282 2.13076 71.6578 2.78569 72.41 4.09555L90.6271 35.8274C91.3792 37.1371 91.7551 37.7924 91.9021 38.4886C92.0326 39.1048 92.0326 39.7412 91.9021 40.3574C91.7551 41.0536 91.3792 41.7089 90.6271 43.0185L72.41 74.7506C71.6578 76.0603 71.282 76.7151 70.756 77.1915C70.2903 77.6131 69.7419 77.9313 69.1466 78.1259C68.4731 78.3462 67.7214 78.3462 66.2171 78.3462H29.7827C28.2787 78.3462 27.5267 78.3462 26.8535 78.1259C26.2579 77.9313 25.7096 77.6131 25.2442 77.1915C24.7181 76.7151 24.3421 76.0603 23.5901 74.7506L5.37285 43.0185Z" fill="white"/>
</g>
<g clip-path="url(#clip0_8310_820)">
<path d="M58.5005 20.5293C57.1402 20.1911 56.1248 18.9647 56.1248 17.4998C56.1248 15.7738 57.5239 15 59.25 15C59.4492 15 59.6571 15.0258 59.8464 15.0626C59.8552 15.2503 59.8748 15.435 59.8748 15.6248C59.8748 17.6214 59.3746 18.8762 58.5005 20.5293ZM41.0473 24.6062C42.165 23.0089 44.8598 21.8747 48 21.8747C51.1396 21.8747 53.8277 23.0147 54.9455 24.612C52.9898 26.0292 50.5945 26.8748 48 26.8748C45.4024 26.8748 43.0045 26.0265 41.0473 24.6062ZM36.1252 15C36.1252 14.8081 36.1448 14.6214 36.1536 14.4321C36.3429 14.3953 36.5504 14.3746 36.75 14.3746C38.4761 14.3746 39.8752 15.7738 39.8752 17.4998C39.8752 18.9646 38.8583 20.1889 37.4984 20.5272C36.6248 18.8746 36.1252 16.9955 36.1252 15ZM48 3.12463C53.4652 3.12463 58.0024 6.84047 59.3793 11.8965H36.6207C37.9976 6.84053 42.5348 3.12463 48 3.12463ZM48 0C39.7158 0 33 6.71537 33 15C33 23.2842 39.7158 30 48 30C56.2842 30 63 23.2842 63 15C63 6.71537 56.2842 0 48 0Z" fill="#F2BB41"/>
<path d="M52.6551 16.5516C52.6551 17.6942 50.5613 18.6206 47.9782 18.6206C45.3951 18.6206 43.3013 17.6942 43.3013 16.5516C43.3013 15.409 45.3951 14.4827 47.9782 14.4827C50.5613 14.4827 52.6551 15.409 52.6551 16.5516Z" fill="#E08838"/>
</g>
<path d="M28.4235 43V34.54H29.6715V38.188H34.4115V34.54H35.6475V43H34.4115V39.232H29.6715V43H28.4235ZM39.4347 43.108C39.0267 43.108 38.6587 43.028 38.3307 42.868C38.0107 42.708 37.7587 42.492 37.5747 42.22C37.3907 41.948 37.2987 41.64 37.2987 41.296C37.2987 40.864 37.4067 40.524 37.6227 40.276C37.8467 40.02 38.2107 39.84 38.7147 39.736C39.2267 39.624 39.9147 39.568 40.7787 39.568H41.3427V40.312H40.7907C40.3587 40.312 39.9947 40.328 39.6987 40.36C39.4027 40.392 39.1667 40.444 38.9907 40.516C38.8147 40.58 38.6867 40.672 38.6067 40.792C38.5347 40.912 38.4987 41.056 38.4987 41.224C38.4987 41.528 38.6027 41.776 38.8107 41.968C39.0187 42.152 39.3067 42.244 39.6747 42.244C39.9707 42.244 40.2307 42.176 40.4547 42.04C40.6787 41.896 40.8547 41.704 40.9827 41.464C41.1187 41.224 41.1867 40.948 41.1867 40.636V39.256C41.1867 38.8 41.0907 38.472 40.8987 38.272C40.7067 38.072 40.3907 37.972 39.9507 37.972C39.6147 37.972 39.2787 38.024 38.9427 38.128C38.6067 38.224 38.2627 38.38 37.9107 38.596L37.5387 37.744C37.7467 37.6 37.9867 37.476 38.2587 37.372C38.5307 37.268 38.8147 37.188 39.1107 37.132C39.4147 37.068 39.7067 37.036 39.9867 37.036C40.5227 37.036 40.9627 37.12 41.3067 37.288C41.6587 37.456 41.9187 37.712 42.0867 38.056C42.2547 38.4 42.3387 38.844 42.3387 39.388V43H41.1987V41.692H41.3067C41.2427 41.988 41.1227 42.244 40.9467 42.46C40.7787 42.668 40.5667 42.828 40.3107 42.94C40.0547 43.052 39.7627 43.108 39.4347 43.108ZM47.8566 43V40.744C47.6406 40.864 47.4086 40.956 47.1606 41.02C46.9206 41.084 46.6646 41.116 46.3926 41.116C45.8326 41.116 45.3646 41.024 44.9886 40.84C44.6206 40.656 44.3446 40.384 44.1606 40.024C43.9846 39.656 43.8966 39.196 43.8966 38.644V37.144H45.1086V38.548C45.1086 38.908 45.1566 39.208 45.2526 39.448C45.3566 39.68 45.5166 39.852 45.7326 39.964C45.9486 40.068 46.2326 40.12 46.5846 40.12C46.8406 40.12 47.0686 40.092 47.2686 40.036C47.4686 39.972 47.6606 39.876 47.8446 39.748V37.144H49.0566V43H47.8566ZM52.7589 43.108C52.3509 43.108 51.9829 43.028 51.6549 42.868C51.3349 42.708 51.0829 42.492 50.8989 42.22C50.7149 41.948 50.6229 41.64 50.6229 41.296C50.6229 40.864 50.7309 40.524 50.9469 40.276C51.1709 40.02 51.5349 39.84 52.0389 39.736C52.5509 39.624 53.2389 39.568 54.1029 39.568H54.6669V40.312H54.1149C53.6829 40.312 53.3189 40.328 53.0229 40.36C52.7269 40.392 52.4909 40.444 52.3149 40.516C52.1389 40.58 52.0109 40.672 51.9309 40.792C51.8589 40.912 51.8229 41.056 51.8229 41.224C51.8229 41.528 51.9269 41.776 52.1349 41.968C52.3429 42.152 52.6309 42.244 52.9989 42.244C53.2949 42.244 53.5549 42.176 53.7789 42.04C54.0029 41.896 54.1789 41.704 54.3069 41.464C54.4429 41.224 54.5109 40.948 54.5109 40.636V39.256C54.5109 38.8 54.4149 38.472 54.2229 38.272C54.0309 38.072 53.7149 37.972 53.2749 37.972C52.9389 37.972 52.6029 38.024 52.2669 38.128C51.9309 38.224 51.5869 38.38 51.2349 38.596L50.8629 37.744C51.0709 37.6 51.3109 37.476 51.5829 37.372C51.8549 37.268 52.1389 37.188 52.4349 37.132C52.7389 37.068 53.0309 37.036 53.3109 37.036C53.8469 37.036 54.2869 37.12 54.6309 37.288C54.9829 37.456 55.2429 37.712 55.4109 38.056C55.5789 38.4 55.6629 38.844 55.6629 39.388V43H54.5229V41.692H54.6309C54.5669 41.988 54.4469 42.244 54.2709 42.46C54.1029 42.668 53.8909 42.828 53.6349 42.94C53.3789 43.052 53.0869 43.108 52.7589 43.108ZM58.6848 43V38.116H56.6208V37.144H61.9728V38.116H59.8968V43H58.6848ZM62.9452 43V37.144H64.1572V39.172H65.8252C66.5772 39.172 67.1492 39.336 67.5412 39.664C67.9332 39.984 68.1292 40.452 68.1292 41.068C68.1292 41.46 68.0372 41.804 67.8532 42.1C67.6692 42.388 67.4052 42.612 67.0612 42.772C66.7172 42.924 66.3052 43 65.8252 43H62.9452ZM64.1572 42.172H65.6692C66.0852 42.172 66.4092 42.084 66.6412 41.908C66.8732 41.724 66.9892 41.444 66.9892 41.068C66.9892 40.7 66.8732 40.432 66.6412 40.264C66.4092 40.088 66.0852 40 65.6692 40H64.1572V42.172ZM19.9725 59V53.144H22.9605C23.4405 53.144 23.8325 53.204 24.1365 53.324C24.4485 53.444 24.6765 53.62 24.8205 53.852C24.9645 54.076 25.0365 54.352 25.0365 54.68C25.0365 55.056 24.9085 55.372 24.6525 55.628C24.3965 55.876 24.0605 56.024 23.6445 56.072V55.916C23.9805 55.924 24.2645 55.992 24.4965 56.12C24.7365 56.248 24.9165 56.42 25.0365 56.636C25.1645 56.844 25.2285 57.088 25.2285 57.368C25.2285 57.872 25.0405 58.272 24.6645 58.568C24.2885 58.856 23.7525 59 23.0565 59H19.9725ZM21.1125 58.22H22.9845C23.3445 58.22 23.6205 58.144 23.8125 57.992C24.0125 57.832 24.1125 57.604 24.1125 57.308C24.1125 57.012 24.0125 56.788 23.8125 56.636C23.6205 56.484 23.3445 56.408 22.9845 56.408H21.1125V58.22ZM21.1125 55.628H22.8765C23.2045 55.628 23.4565 55.552 23.6325 55.4C23.8165 55.248 23.9085 55.04 23.9085 54.776C23.9085 54.504 23.8165 54.296 23.6325 54.152C23.4565 54.008 23.2045 53.936 22.8765 53.936H21.1125V55.628ZM29.1965 59.108C28.6045 59.108 28.0925 58.984 27.6605 58.736C27.2365 58.488 26.9045 58.136 26.6645 57.68C26.4245 57.224 26.3045 56.688 26.3045 56.072C26.3045 55.448 26.4245 54.912 26.6645 54.464C26.9045 54.008 27.2365 53.656 27.6605 53.408C28.0925 53.16 28.6045 53.036 29.1965 53.036C29.7805 53.036 30.2845 53.16 30.7085 53.408C31.1405 53.656 31.4765 54.008 31.7165 54.464C31.9565 54.92 32.0765 55.456 32.0765 56.072C32.0765 56.688 31.9565 57.224 31.7165 57.68C31.4765 58.136 31.1405 58.488 30.7085 58.736C30.2845 58.984 29.7805 59.108 29.1965 59.108ZM29.1845 58.172C29.6885 58.172 30.0925 57.992 30.3965 57.632C30.7005 57.272 30.8525 56.752 30.8525 56.072C30.8525 55.384 30.7005 54.864 30.3965 54.512C30.0925 54.16 29.6885 53.984 29.1845 53.984C28.6885 53.984 28.2885 54.16 27.9845 54.512C27.6805 54.864 27.5285 55.384 27.5285 56.072C27.5285 56.752 27.6805 57.272 27.9845 57.632C28.2885 57.992 28.6885 58.172 29.1845 58.172ZM32.6303 59L33.8423 56.912C34.0103 56.624 34.1663 56.392 34.3103 56.216C34.4623 56.04 34.6223 55.908 34.7903 55.82C34.9663 55.732 35.1623 55.676 35.3783 55.652L35.1143 56.036L32.9063 53.144H34.2263L36.0383 55.52H36.8783V53.144H38.0903V55.52H38.9183L40.7303 53.144H42.0383L39.8423 56.036L39.5783 55.652C39.7943 55.676 39.9863 55.732 40.1543 55.82C40.3223 55.908 40.4823 56.04 40.6343 56.216C40.7943 56.392 40.9543 56.624 41.1143 56.912L42.3263 59H41.0303L40.0103 57.248C39.8903 57.04 39.7703 56.88 39.6503 56.768C39.5383 56.656 39.4143 56.58 39.2783 56.54C39.1423 56.492 38.9743 56.468 38.7743 56.468H38.0903V59H36.8783V56.468H36.1943C35.9863 56.468 35.8143 56.492 35.6783 56.54C35.5423 56.58 35.4183 56.656 35.3063 56.768C35.1943 56.88 35.0743 57.04 34.9463 57.248L33.9263 59H32.6303ZM42.5991 60.56V58.04H43.2471C43.4231 57.776 43.5631 57.492 43.6671 57.188C43.7711 56.884 43.8471 56.54 43.8951 56.156C43.9431 55.772 43.9671 55.336 43.9671 54.848V53.144H48.2991V58.04H49.2351V60.56H48.2031V59H43.6431V60.56H42.5991ZM44.3751 58.04H47.1471V54.092H45.0231V55.1C45.0231 55.652 44.9671 56.188 44.8551 56.708C44.7431 57.228 44.5831 57.672 44.3751 58.04ZM53.2013 59.108C52.5613 59.108 52.0093 58.988 51.5453 58.748C51.0893 58.5 50.7333 58.152 50.4773 57.704C50.2293 57.248 50.1053 56.708 50.1053 56.084C50.1053 55.476 50.2293 54.944 50.4773 54.488C50.7253 54.032 51.0653 53.676 51.4973 53.42C51.9293 53.164 52.4213 53.036 52.9733 53.036C53.5173 53.036 53.9813 53.156 54.3653 53.396C54.7573 53.628 55.0573 53.96 55.2653 54.392C55.4733 54.824 55.5773 55.34 55.5773 55.94V56.348H51.0653V55.604H54.7613L54.5573 55.772C54.5573 55.172 54.4253 54.708 54.1613 54.38C53.8973 54.052 53.5173 53.888 53.0213 53.888C52.6453 53.888 52.3253 53.976 52.0613 54.152C51.8053 54.328 51.6093 54.572 51.4733 54.884C51.3373 55.196 51.2693 55.56 51.2693 55.976V56.048C51.2693 56.512 51.3413 56.904 51.4853 57.224C51.6373 57.536 51.8573 57.772 52.1453 57.932C52.4333 58.092 52.7893 58.172 53.2133 58.172C53.5493 58.172 53.8773 58.12 54.1973 58.016C54.5253 57.904 54.8333 57.732 55.1213 57.5L55.4813 58.34C55.2173 58.58 54.8773 58.768 54.4613 58.904C54.0453 59.04 53.6253 59.108 53.2013 59.108ZM57.0155 59V53.144H58.2275V55.508H61.1435V53.144H62.3555V59H61.1435V56.468H58.2275V59H57.0155ZM64.164 59V53.144H65.268V57.8H64.956L68.436 53.144H69.456V59H68.352V54.344H68.676L65.184 59H64.164ZM74.0372 59.108C73.3972 59.108 72.8452 58.988 72.3812 58.748C71.9252 58.5 71.5692 58.152 71.3132 57.704C71.0652 57.248 70.9412 56.708 70.9412 56.084C70.9412 55.476 71.0652 54.944 71.3132 54.488C71.5612 54.032 71.9012 53.676 72.3332 53.42C72.7652 53.164 73.2572 53.036 73.8092 53.036C74.3532 53.036 74.8172 53.156 75.2012 53.396C75.5932 53.628 75.8932 53.96 76.1012 54.392C76.3092 54.824 76.4132 55.34 76.4132 55.94V56.348H71.9012V55.604H75.5972L75.3932 55.772C75.3932 55.172 75.2612 54.708 74.9972 54.38C74.7332 54.052 74.3532 53.888 73.8572 53.888C73.4812 53.888 73.1612 53.976 72.8972 54.152C72.6412 54.328 72.4452 54.572 72.3092 54.884C72.1732 55.196 72.1052 55.56 72.1052 55.976V56.048C72.1052 56.512 72.1772 56.904 72.3212 57.224C72.4732 57.536 72.6932 57.772 72.9812 57.932C73.2692 58.092 73.6252 58.172 74.0492 58.172C74.3852 58.172 74.7132 58.12 75.0332 58.016C75.3612 57.904 75.6692 57.732 75.9572 57.5L76.3172 58.34C76.0532 58.58 75.7132 58.768 75.2972 58.904C74.8812 59.04 74.4612 59.108 74.0372 59.108Z" fill="black"/>
<path d="M30.5409 74V66.95H35.1209V67.86H31.6009V74H30.5409ZM34.5375 74.13L34.1875 73.3C34.4208 73.2133 34.6142 73.1 34.7675 72.96C34.9208 72.8133 35.0408 72.63 35.1275 72.41C35.2142 72.19 35.2775 71.9233 35.3175 71.61C35.3575 71.29 35.3775 70.91 35.3775 70.47V69.08H39.2175V74H38.1575V69.93H36.3475V70.5C36.3475 71.04 36.3142 71.5133 36.2475 71.92C36.1875 72.3267 36.0875 72.6767 35.9475 72.97C35.8075 73.2633 35.6208 73.5067 35.3875 73.7C35.1542 73.8867 34.8708 74.03 34.5375 74.13ZM42.501 74.09C42.1543 74.09 41.841 74.0233 41.561 73.89C41.281 73.7567 41.061 73.5767 40.901 73.35C40.7477 73.1167 40.671 72.8567 40.671 72.57C40.671 72.2033 40.7677 71.9133 40.961 71.7C41.161 71.4867 41.4777 71.3333 41.911 71.24C42.3443 71.14 42.9177 71.09 43.631 71.09H44.211V71.75H43.661C43.301 71.75 42.9977 71.7633 42.751 71.79C42.5043 71.81 42.3043 71.85 42.151 71.91C41.9977 71.97 41.8843 72.05 41.811 72.15C41.7443 72.2433 41.711 72.3633 41.711 72.51C41.711 72.7633 41.801 72.9633 41.981 73.11C42.1677 73.25 42.411 73.32 42.711 73.32C42.971 73.32 43.201 73.2633 43.401 73.15C43.601 73.03 43.761 72.87 43.881 72.67C44.001 72.4633 44.061 72.2333 44.061 71.98V70.85C44.061 70.4767 43.9677 70.21 43.781 70.05C43.601 69.89 43.3177 69.81 42.931 69.81C42.6443 69.81 42.3577 69.85 42.071 69.93C41.791 70.01 41.4977 70.14 41.191 70.32L40.871 69.58C41.0643 69.4533 41.2777 69.3467 41.511 69.26C41.751 69.1733 41.9977 69.1067 42.251 69.06C42.511 69.0133 42.7643 68.99 43.011 68.99C43.4577 68.99 43.8343 69.06 44.141 69.2C44.4477 69.34 44.681 69.5533 44.841 69.84C45.001 70.1267 45.081 70.5 45.081 70.96V74H44.131V72.93H44.171C44.0977 73.1567 43.9843 73.36 43.831 73.54C43.6777 73.7133 43.4877 73.85 43.261 73.95C43.041 74.0433 42.7877 74.09 42.501 74.09ZM46.7206 74V69.08H49.3306C49.744 69.08 50.0806 69.13 50.3406 69.23C50.6073 69.33 50.8006 69.4767 50.9206 69.67C51.0473 69.8567 51.1106 70.09 51.1106 70.37C51.1106 70.6567 51.0173 70.9033 50.8306 71.11C50.6506 71.31 50.404 71.44 50.0906 71.5V71.43C50.3506 71.4567 50.5673 71.5233 50.7406 71.63C50.9206 71.7367 51.054 71.8767 51.1406 72.05C51.234 72.2167 51.2806 72.41 51.2806 72.63C51.2806 73.05 51.1173 73.3833 50.7906 73.63C50.4706 73.8767 50.0106 74 49.4106 74H46.7206ZM47.7106 73.32H49.3206C49.634 73.32 49.874 73.26 50.0406 73.14C50.2073 73.0133 50.2906 72.8267 50.2906 72.58C50.2906 72.3333 50.2073 72.15 50.0406 72.03C49.874 71.9033 49.634 71.84 49.3206 71.84H47.7106V73.32ZM47.7106 71.16H49.2406C49.514 71.16 49.7273 71.1 49.8806 70.98C50.0406 70.8533 50.1206 70.6767 50.1206 70.45C50.1206 70.2233 50.0406 70.0533 49.8806 69.94C49.7273 69.82 49.514 69.76 49.2406 69.76H47.7106V71.16ZM54.2393 74.09C53.8926 74.09 53.5793 74.0233 53.2993 73.89C53.0193 73.7567 52.7993 73.5767 52.6393 73.35C52.486 73.1167 52.4093 72.8567 52.4093 72.57C52.4093 72.2033 52.506 71.9133 52.6993 71.7C52.8993 71.4867 53.216 71.3333 53.6493 71.24C54.0826 71.14 54.656 71.09 55.3693 71.09H55.9493V71.75H55.3993C55.0393 71.75 54.736 71.7633 54.4893 71.79C54.2426 71.81 54.0426 71.85 53.8893 71.91C53.736 71.97 53.6226 72.05 53.5493 72.15C53.4826 72.2433 53.4493 72.3633 53.4493 72.51C53.4493 72.7633 53.5393 72.9633 53.7193 73.11C53.906 73.25 54.1493 73.32 54.4493 73.32C54.7093 73.32 54.9393 73.2633 55.1393 73.15C55.3393 73.03 55.4993 72.87 55.6193 72.67C55.7393 72.4633 55.7993 72.2333 55.7993 71.98V70.85C55.7993 70.4767 55.706 70.21 55.5193 70.05C55.3393 69.89 55.056 69.81 54.6693 69.81C54.3826 69.81 54.096 69.85 53.8093 69.93C53.5293 70.01 53.236 70.14 52.9293 70.32L52.6093 69.58C52.8026 69.4533 53.016 69.3467 53.2493 69.26C53.4893 69.1733 53.736 69.1067 53.9893 69.06C54.2493 69.0133 54.5026 68.99 54.7493 68.99C55.196 68.99 55.5726 69.06 55.8793 69.2C56.186 69.34 56.4193 69.5533 56.5793 69.84C56.7393 70.1267 56.8193 70.5 56.8193 70.96V74H55.8693V72.93H55.9093C55.836 73.1567 55.7226 73.36 55.5693 73.54C55.416 73.7133 55.226 73.85 54.9993 73.95C54.7793 74.0433 54.526 74.09 54.2393 74.09ZM61.193 74V73.22L63.573 70.69C63.7997 70.45 63.9764 70.2333 64.103 70.04C64.2364 69.84 64.333 69.6467 64.393 69.46C64.453 69.2733 64.483 69.0867 64.483 68.9C64.483 68.5333 64.3664 68.2533 64.133 68.06C63.9064 67.8667 63.5797 67.77 63.153 67.77C62.8264 67.77 62.5064 67.8333 62.193 67.96C61.8797 68.08 61.583 68.27 61.303 68.53L60.923 67.72C61.2097 67.4533 61.5597 67.2433 61.973 67.09C62.3864 66.9367 62.8164 66.86 63.263 66.86C63.743 66.86 64.153 66.9367 64.493 67.09C64.833 67.2433 65.0897 67.4667 65.263 67.76C65.443 68.0533 65.533 68.4033 65.533 68.81C65.533 69.0233 65.5064 69.23 65.453 69.43C65.4064 69.63 65.333 69.83 65.233 70.03C65.133 70.2233 65.003 70.4267 64.843 70.64C64.6897 70.8467 64.5064 71.06 64.293 71.28L62.383 73.27V73.1H65.813V74H61.193Z" fill="#667085"/>
<defs>
<filter id="filter0_d_8310_820" x="0" y="0.5" width="96" height="85.8462" filterUnits="userSpaceOnUse" color-interpolation-filters="sRGB">
<feFlood flood-opacity="0" result="BackgroundImageFix"/>
<feColorMatrix in="SourceAlpha" type="matrix" values="0 0 0 0 0 0 0 0 0 0 0 0 0 0 0 0 0 0 127 0" result="hardAlpha"/>
<feOffset dy="4"/>
<feGaussianBlur stdDeviation="2"/>
<feComposite in2="hardAlpha" operator="out"/>
<feColorMatrix type="matrix" values="0 0 0 0 0 0 0 0 0 0 0 0 0 0 0 0 0 0 0.25 0"/>
<feBlend mode="normal" in2="BackgroundImageFix" result="effect1_dropShadow_8310_820"/>
<feBlend mode="normal" in="SourceGraphic" in2="effect1_dropShadow_8310_820" result="shape"/>
</filter>
<clipPath id="clip0_8310_820">
<rect width="30" height="30" fill="white" transform="translate(33)"/>
</clipPath>
</defs>
</svg>
