<svg width="96" height="87" viewBox="0 0 96 87" fill="none" xmlns="http://www.w3.org/2000/svg">
<g filter="url(#filter0_d_8310_1103)">
<path d="M5.37285 43.1152C4.62083 41.8055 4.24484 41.1502 4.09767 40.4541C3.96744 39.8379 3.96744 39.2015 4.09767 38.5853C4.24484 37.8891 4.62083 37.2338 5.37285 35.9241L23.5901 4.19223C24.3421 2.88237 24.7181 2.22744 25.2442 1.75112C25.7096 1.32968 26.2579 1.01129 26.8535 0.816682C27.5267 0.596679 28.2787 0.59668 29.7827 0.59668H66.2171C67.7214 0.59668 68.4731 0.596679 69.1466 0.816682C69.7419 1.01129 70.2903 1.32968 70.756 1.75112C71.282 2.22744 71.6578 2.88237 72.41 4.19223L90.6271 35.9241C91.3792 37.2338 91.7551 37.8891 91.9021 38.5853C92.0326 39.2015 92.0326 39.8379 91.9021 40.4541C91.7551 41.1502 91.3792 41.8055 90.6271 43.1152L72.41 74.8473C71.6578 76.157 71.282 76.8118 70.756 77.2882C70.2903 77.7098 69.7419 78.028 69.1466 78.2226C68.4731 78.4428 67.7214 78.4428 66.2171 78.4428H29.7827C28.2787 78.4428 27.5267 78.4428 26.8535 78.2226C26.2579 78.028 25.7096 77.7098 25.2442 77.2882C24.7181 76.8118 24.3421 76.157 23.5901 74.8473L5.37285 43.1152Z" fill="white"/>
</g>
<path d="M58.2051 4.09668H38.2051C36.8244 4.09668 35.7051 5.21597 35.7051 6.59668V26.5967C35.7051 27.9774 36.8244 29.0967 38.2051 29.0967H58.2051C59.5858 29.0967 60.7051 27.9774 60.7051 26.5967V6.59668C60.7051 5.21597 59.5858 4.09668 58.2051 4.09668Z" fill="#F2BB41"/>
<path d="M54.4551 17.8466H45.7051V14.6091L46.0676 14.9841C46.1838 15.1013 46.322 15.1943 46.4743 15.2577C46.6267 15.3212 46.7901 15.3539 46.9551 15.3539C47.1201 15.3539 47.2835 15.3212 47.4358 15.2577C47.5881 15.1943 47.7264 15.1013 47.8426 14.9841C47.9597 14.8679 48.0527 14.7296 48.1162 14.5773C48.1796 14.425 48.2123 14.2616 48.2123 14.0966C48.2123 13.9316 48.1796 13.7682 48.1162 13.6159C48.0527 13.4636 47.9597 13.3253 47.8426 13.2091L45.3426 10.7091C45.2264 10.5919 45.0881 10.499 44.9358 10.4355C44.7835 10.372 44.6201 10.3394 44.4551 10.3394C44.2901 10.3394 44.1267 10.372 43.9743 10.4355C43.822 10.499 43.6838 10.5919 43.5676 10.7091L41.0676 13.2091C40.951 13.3257 40.8586 13.464 40.7955 13.6163C40.7324 13.7686 40.7 13.9318 40.7 14.0966C40.7 14.4295 40.8322 14.7487 41.0676 14.9841C41.3029 15.2195 41.6222 15.3517 41.9551 15.3517C42.2879 15.3517 42.6072 15.2195 42.8426 14.9841L43.2051 14.6091V17.8466C43.2051 18.5096 43.4685 19.1455 43.9373 19.6144C44.4061 20.0832 45.042 20.3466 45.7051 20.3466H54.4551C54.7866 20.3466 55.1045 20.2149 55.3389 19.9805C55.5734 19.7461 55.7051 19.4281 55.7051 19.0966C55.7051 18.7651 55.5734 18.4471 55.3389 18.2127C55.1045 17.9783 54.7866 17.8466 54.4551 17.8466Z" fill="#E08838"/>
<path d="M30.948 44.7047C30.476 44.7047 30.036 44.6647 29.628 44.5847C29.228 44.5047 28.864 44.3847 28.536 44.2247C28.208 44.0567 27.92 43.8647 27.672 43.6487L28.092 42.7007C28.46 43.0127 28.868 43.2487 29.316 43.4087C29.764 43.5607 30.28 43.6367 30.864 43.6367C31.592 43.6367 32.124 43.5167 32.46 43.2767C32.804 43.0287 32.976 42.6607 32.976 42.1727C32.976 41.7087 32.832 41.3647 32.544 41.1407C32.256 40.9167 31.812 40.8047 31.212 40.8047H29.148V39.8087H31.02C31.604 39.8087 32.04 39.6967 32.328 39.4727C32.624 39.2487 32.772 38.9167 32.772 38.4767C32.772 38.0447 32.616 37.7047 32.304 37.4567C31.992 37.2087 31.516 37.0847 30.876 37.0847C30.388 37.0847 29.92 37.1607 29.472 37.3127C29.032 37.4647 28.632 37.6927 28.272 37.9967L27.864 37.0487C28.112 36.8247 28.4 36.6367 28.728 36.4847C29.064 36.3327 29.424 36.2207 29.808 36.1487C30.192 36.0687 30.588 36.0287 30.996 36.0287C31.668 36.0287 32.224 36.1247 32.664 36.3167C33.112 36.5087 33.448 36.7807 33.672 37.1327C33.896 37.4767 34.008 37.8807 34.008 38.3447C34.008 38.8567 33.856 39.2887 33.552 39.6407C33.248 39.9927 32.836 40.2287 32.316 40.3487V40.1687C32.908 40.2487 33.372 40.4727 33.708 40.8407C34.044 41.2007 34.212 41.6727 34.212 42.2567C34.212 42.7527 34.092 43.1887 33.852 43.5647C33.62 43.9327 33.264 44.2167 32.784 44.4167C32.304 44.6087 31.692 44.7047 30.948 44.7047ZM37.6886 44.7047C37.2806 44.7047 36.9126 44.6247 36.5846 44.4647C36.2646 44.3047 36.0126 44.0887 35.8286 43.8167C35.6446 43.5447 35.5526 43.2367 35.5526 42.8927C35.5526 42.4607 35.6606 42.1207 35.8766 41.8727C36.1006 41.6167 36.4646 41.4367 36.9686 41.3327C37.4806 41.2207 38.1686 41.1647 39.0326 41.1647H39.5966V41.9087H39.0446C38.6126 41.9087 38.2486 41.9247 37.9526 41.9567C37.6566 41.9887 37.4206 42.0407 37.2446 42.1127C37.0686 42.1767 36.9406 42.2687 36.8606 42.3887C36.7886 42.5087 36.7526 42.6527 36.7526 42.8207C36.7526 43.1247 36.8566 43.3727 37.0646 43.5647C37.2726 43.7487 37.5606 43.8407 37.9286 43.8407C38.2246 43.8407 38.4846 43.7727 38.7086 43.6367C38.9326 43.4927 39.1086 43.3007 39.2366 43.0607C39.3726 42.8207 39.4406 42.5447 39.4406 42.2327V40.8527C39.4406 40.3967 39.3446 40.0687 39.1526 39.8687C38.9606 39.6687 38.6446 39.5687 38.2046 39.5687C37.8686 39.5687 37.5326 39.6207 37.1966 39.7247C36.8606 39.8207 36.5166 39.9767 36.1646 40.1927L35.7926 39.3407C36.0006 39.1967 36.2406 39.0727 36.5126 38.9687C36.7846 38.8647 37.0686 38.7847 37.3646 38.7287C37.6686 38.6647 37.9606 38.6327 38.2406 38.6327C38.7766 38.6327 39.2166 38.7167 39.5606 38.8847C39.9126 39.0527 40.1726 39.3087 40.3406 39.6527C40.5086 39.9967 40.5926 40.4407 40.5926 40.9847V44.5967H39.4526V43.2887H39.5606C39.4966 43.5847 39.3766 43.8407 39.2006 44.0567C39.0326 44.2647 38.8206 44.4247 38.5646 44.5367C38.3086 44.6487 38.0166 44.7047 37.6886 44.7047ZM41.7905 46.1567V43.6367H42.4385C42.6145 43.3727 42.7545 43.0887 42.8585 42.7847C42.9625 42.4807 43.0385 42.1367 43.0865 41.7527C43.1345 41.3687 43.1585 40.9327 43.1585 40.4447V38.7407H47.4905V43.6367H48.4265V46.1567H47.3945V44.5967H42.8345V46.1567H41.7905ZM43.5665 43.6367H46.3385V39.6887H44.2145V40.6967C44.2145 41.2487 44.1585 41.7847 44.0465 42.3047C43.9345 42.8247 43.7745 43.2687 43.5665 43.6367ZM51.5167 44.7047C51.1087 44.7047 50.7407 44.6247 50.4127 44.4647C50.0927 44.3047 49.8407 44.0887 49.6567 43.8167C49.4727 43.5447 49.3807 43.2367 49.3807 42.8927C49.3807 42.4607 49.4887 42.1207 49.7047 41.8727C49.9287 41.6167 50.2927 41.4367 50.7967 41.3327C51.3087 41.2207 51.9967 41.1647 52.8607 41.1647H53.4247V41.9087H52.8727C52.4407 41.9087 52.0767 41.9247 51.7807 41.9567C51.4847 41.9887 51.2487 42.0407 51.0727 42.1127C50.8967 42.1767 50.7687 42.2687 50.6887 42.3887C50.6167 42.5087 50.5807 42.6527 50.5807 42.8207C50.5807 43.1247 50.6847 43.3727 50.8927 43.5647C51.1007 43.7487 51.3887 43.8407 51.7567 43.8407C52.0527 43.8407 52.3127 43.7727 52.5367 43.6367C52.7607 43.4927 52.9367 43.3007 53.0647 43.0607C53.2007 42.8207 53.2687 42.5447 53.2687 42.2327V40.8527C53.2687 40.3967 53.1727 40.0687 52.9807 39.8687C52.7887 39.6687 52.4727 39.5687 52.0327 39.5687C51.6967 39.5687 51.3607 39.6207 51.0247 39.7247C50.6887 39.8207 50.3447 39.9767 49.9927 40.1927L49.6207 39.3407C49.8287 39.1967 50.0687 39.0727 50.3407 38.9687C50.6127 38.8647 50.8967 38.7847 51.1927 38.7287C51.4967 38.6647 51.7887 38.6327 52.0687 38.6327C52.6047 38.6327 53.0447 38.7167 53.3887 38.8847C53.7407 39.0527 54.0007 39.3087 54.1687 39.6527C54.3367 39.9967 54.4207 40.4407 54.4207 40.9847V44.5967H53.2807V43.2887H53.3887C53.3247 43.5847 53.2047 43.8407 53.0287 44.0567C52.8607 44.2647 52.6487 44.4247 52.3927 44.5367C52.1367 44.6487 51.8447 44.7047 51.5167 44.7047ZM59.9386 44.5967V42.3407C59.7226 42.4607 59.4906 42.5527 59.2426 42.6167C59.0026 42.6807 58.7466 42.7127 58.4746 42.7127C57.9146 42.7127 57.4466 42.6207 57.0706 42.4367C56.7026 42.2527 56.4266 41.9807 56.2426 41.6207C56.0666 41.2527 55.9786 40.7927 55.9786 40.2407V38.7407H57.1906V40.1447C57.1906 40.5047 57.2386 40.8047 57.3346 41.0447C57.4386 41.2767 57.5986 41.4487 57.8146 41.5607C58.0306 41.6647 58.3146 41.7167 58.6666 41.7167C58.9226 41.7167 59.1506 41.6887 59.3506 41.6327C59.5506 41.5687 59.7426 41.4727 59.9266 41.3447V38.7407H61.1386V44.5967H59.9386ZM62.9569 44.5967V38.7407H64.0609V43.3967H63.7489L67.2289 38.7407H68.2489V44.5967H67.1449V39.9407H67.4689L63.9769 44.5967H62.9569ZM20.1718 60.5967V54.7407H23.1598C23.6398 54.7407 24.0318 54.8007 24.3358 54.9207C24.6478 55.0407 24.8758 55.2167 25.0198 55.4487C25.1638 55.6727 25.2358 55.9487 25.2358 56.2767C25.2358 56.6527 25.1078 56.9687 24.8518 57.2247C24.5958 57.4727 24.2598 57.6207 23.8438 57.6687V57.5127C24.1798 57.5207 24.4638 57.5887 24.6958 57.7167C24.9358 57.8447 25.1158 58.0167 25.2358 58.2327C25.3638 58.4407 25.4278 58.6847 25.4278 58.9647C25.4278 59.4687 25.2398 59.8687 24.8638 60.1647C24.4878 60.4527 23.9518 60.5967 23.2558 60.5967H20.1718ZM21.3118 59.8167H23.1838C23.5438 59.8167 23.8198 59.7407 24.0118 59.5887C24.2118 59.4287 24.3118 59.2007 24.3118 58.9047C24.3118 58.6087 24.2118 58.3847 24.0118 58.2327C23.8198 58.0807 23.5438 58.0047 23.1838 58.0047H21.3118V59.8167ZM21.3118 57.2247H23.0758C23.4038 57.2247 23.6558 57.1487 23.8318 56.9967C24.0158 56.8447 24.1078 56.6367 24.1078 56.3727C24.1078 56.1007 24.0158 55.8927 23.8318 55.7487C23.6558 55.6047 23.4038 55.5327 23.0758 55.5327H21.3118V57.2247ZM29.3957 60.7047C28.8037 60.7047 28.2917 60.5807 27.8597 60.3327C27.4357 60.0847 27.1037 59.7327 26.8637 59.2767C26.6237 58.8207 26.5037 58.2847 26.5037 57.6687C26.5037 57.0447 26.6237 56.5087 26.8637 56.0607C27.1037 55.6047 27.4357 55.2527 27.8597 55.0047C28.2917 54.7567 28.8037 54.6327 29.3957 54.6327C29.9797 54.6327 30.4837 54.7567 30.9077 55.0047C31.3397 55.2527 31.6757 55.6047 31.9157 56.0607C32.1557 56.5167 32.2757 57.0527 32.2757 57.6687C32.2757 58.2847 32.1557 58.8207 31.9157 59.2767C31.6757 59.7327 31.3397 60.0847 30.9077 60.3327C30.4837 60.5807 29.9797 60.7047 29.3957 60.7047ZM29.3837 59.7687C29.8877 59.7687 30.2917 59.5887 30.5957 59.2287C30.8997 58.8687 31.0517 58.3487 31.0517 57.6687C31.0517 56.9807 30.8997 56.4607 30.5957 56.1087C30.2917 55.7567 29.8877 55.5807 29.3837 55.5807C28.8877 55.5807 28.4877 55.7567 28.1837 56.1087C27.8797 56.4607 27.7277 56.9807 27.7277 57.6687C27.7277 58.3487 27.8797 58.8687 28.1837 59.2287C28.4877 59.5887 28.8877 59.7687 29.3837 59.7687ZM32.8295 60.5967L34.0415 58.5087C34.2095 58.2207 34.3655 57.9887 34.5095 57.8127C34.6615 57.6367 34.8215 57.5047 34.9895 57.4167C35.1655 57.3287 35.3615 57.2727 35.5775 57.2487L35.3135 57.6327L33.1055 54.7407H34.4255L36.2375 57.1167H37.0775V54.7407H38.2895V57.1167H39.1175L40.9295 54.7407H42.2375L40.0415 57.6327L39.7775 57.2487C39.9935 57.2727 40.1855 57.3287 40.3535 57.4167C40.5215 57.5047 40.6815 57.6367 40.8335 57.8127C40.9935 57.9887 41.1535 58.2207 41.3135 58.5087L42.5255 60.5967H41.2295L40.2095 58.8447C40.0895 58.6367 39.9695 58.4767 39.8495 58.3647C39.7375 58.2527 39.6135 58.1767 39.4775 58.1367C39.3415 58.0887 39.1735 58.0647 38.9735 58.0647H38.2895V60.5967H37.0775V58.0647H36.3935C36.1855 58.0647 36.0135 58.0887 35.8775 58.1367C35.7415 58.1767 35.6175 58.2527 35.5055 58.3647C35.3935 58.4767 35.2735 58.6367 35.1455 58.8447L34.1255 60.5967H32.8295ZM42.7983 62.1567V59.6367H43.4463C43.6223 59.3727 43.7623 59.0887 43.8663 58.7847C43.9703 58.4807 44.0463 58.1367 44.0943 57.7527C44.1423 57.3687 44.1663 56.9327 44.1663 56.4447V54.7407H48.4983V59.6367H49.4343V62.1567H48.4023V60.5967H43.8423V62.1567H42.7983ZM44.5743 59.6367H47.3463V55.6887H45.2223V56.6967C45.2223 57.2487 45.1663 57.7847 45.0543 58.3047C44.9423 58.8247 44.7823 59.2687 44.5743 59.6367ZM53.4005 60.7047C52.7605 60.7047 52.2085 60.5847 51.7445 60.3447C51.2885 60.0967 50.9325 59.7487 50.6765 59.3007C50.4285 58.8447 50.3045 58.3047 50.3045 57.6807C50.3045 57.0727 50.4285 56.5407 50.6765 56.0847C50.9245 55.6287 51.2645 55.2727 51.6965 55.0167C52.1285 54.7607 52.6205 54.6327 53.1725 54.6327C53.7165 54.6327 54.1805 54.7527 54.5645 54.9927C54.9565 55.2247 55.2565 55.5567 55.4645 55.9887C55.6725 56.4207 55.7765 56.9367 55.7765 57.5367V57.9447H51.2645V57.2007H54.9605L54.7565 57.3687C54.7565 56.7687 54.6245 56.3047 54.3605 55.9767C54.0965 55.6487 53.7165 55.4847 53.2205 55.4847C52.8445 55.4847 52.5245 55.5727 52.2605 55.7487C52.0045 55.9247 51.8085 56.1687 51.6725 56.4807C51.5365 56.7927 51.4685 57.1567 51.4685 57.5727V57.6447C51.4685 58.1087 51.5405 58.5007 51.6845 58.8207C51.8365 59.1327 52.0565 59.3687 52.3445 59.5287C52.6325 59.6887 52.9885 59.7687 53.4125 59.7687C53.7485 59.7687 54.0765 59.7167 54.3965 59.6127C54.7245 59.5007 55.0325 59.3287 55.3205 59.0967L55.6805 59.9367C55.4165 60.1767 55.0765 60.3647 54.6605 60.5007C54.2445 60.6367 53.8245 60.7047 53.4005 60.7047ZM57.2147 60.5967V54.7407H58.4267V57.1047H61.3427V54.7407H62.5547V60.5967H61.3427V58.0647H58.4267V60.5967H57.2147ZM64.3632 60.5967V54.7407H65.4672V59.3967H65.1552L68.6352 54.7407H69.6552V60.5967H68.5512V55.9407H68.8752L65.3832 60.5967H64.3632ZM70.9845 60.5967L71.8725 59.0607C72.0245 58.7887 72.2165 58.5727 72.4485 58.4127C72.6805 58.2447 72.9165 58.1607 73.1565 58.1607H73.3485V58.2807C72.9085 58.2807 72.5285 58.2127 72.2085 58.0767C71.8965 57.9407 71.6565 57.7407 71.4885 57.4767C71.3285 57.2127 71.2485 56.8967 71.2485 56.5287C71.2485 55.9847 71.4325 55.5527 71.8005 55.2327C72.1685 54.9047 72.7165 54.7407 73.4445 54.7407H76.2405V60.5967H75.1125V58.4607H74.3565C74.0765 58.4607 73.8365 58.5327 73.6365 58.6767C73.4365 58.8207 73.2725 59.0047 73.1445 59.2287L72.3645 60.5967H70.9845ZM73.6965 57.6327H75.1125V55.5687H73.6965C73.2565 55.5687 72.9325 55.6607 72.7245 55.8447C72.5165 56.0207 72.4125 56.2687 72.4125 56.5887C72.4125 56.9167 72.5165 57.1727 72.7245 57.3567C72.9325 57.5407 73.2565 57.6327 73.6965 57.6327Z" fill="black"/>
<path d="M30.746 75.5967V68.5467H35.326V69.4567H31.806V75.5967H30.746ZM34.7426 75.7267L34.3926 74.8967C34.626 74.81 34.8193 74.6967 34.9726 74.5567C35.126 74.41 35.246 74.2267 35.3326 74.0067C35.4193 73.7867 35.4826 73.52 35.5226 73.2067C35.5626 72.8867 35.5826 72.5067 35.5826 72.0667V70.6767H39.4226V75.5967H38.3626V71.5267H36.5526V72.0967C36.5526 72.6367 36.5193 73.11 36.4526 73.5167C36.3926 73.9233 36.2926 74.2733 36.1526 74.5667C36.0126 74.86 35.826 75.1033 35.5926 75.2967C35.3593 75.4833 35.076 75.6267 34.7426 75.7267ZM42.7061 75.6867C42.3595 75.6867 42.0461 75.62 41.7661 75.4867C41.4861 75.3533 41.2661 75.1733 41.1061 74.9467C40.9528 74.7133 40.8761 74.4533 40.8761 74.1667C40.8761 73.8 40.9728 73.51 41.1661 73.2967C41.3661 73.0833 41.6828 72.93 42.1161 72.8367C42.5495 72.7367 43.1228 72.6867 43.8361 72.6867H44.4161V73.3467H43.8661C43.5061 73.3467 43.2028 73.36 42.9561 73.3867C42.7095 73.4067 42.5095 73.4467 42.3561 73.5067C42.2028 73.5667 42.0895 73.6467 42.0161 73.7467C41.9495 73.84 41.9161 73.96 41.9161 74.1067C41.9161 74.36 42.0061 74.56 42.1861 74.7067C42.3728 74.8467 42.6161 74.9167 42.9161 74.9167C43.1761 74.9167 43.4061 74.86 43.6061 74.7467C43.8061 74.6267 43.9661 74.4667 44.0861 74.2667C44.2061 74.06 44.2661 73.83 44.2661 73.5767V72.4467C44.2661 72.0733 44.1728 71.8067 43.9861 71.6467C43.8061 71.4867 43.5228 71.4067 43.1361 71.4067C42.8495 71.4067 42.5628 71.4467 42.2761 71.5267C41.9961 71.6067 41.7028 71.7367 41.3961 71.9167L41.0761 71.1767C41.2695 71.05 41.4828 70.9433 41.7161 70.8567C41.9561 70.77 42.2028 70.7033 42.4561 70.6567C42.7161 70.61 42.9695 70.5867 43.2161 70.5867C43.6628 70.5867 44.0395 70.6567 44.3461 70.7967C44.6528 70.9367 44.8861 71.15 45.0461 71.4367C45.2061 71.7233 45.2861 72.0967 45.2861 72.5567V75.5967H44.3361V74.5267H44.3761C44.3028 74.7533 44.1895 74.9567 44.0361 75.1367C43.8828 75.31 43.6928 75.4467 43.4661 75.5467C43.2461 75.64 42.9928 75.6867 42.7061 75.6867ZM46.9258 75.5967V70.6767H49.5358C49.9491 70.6767 50.2858 70.7267 50.5458 70.8267C50.8124 70.9267 51.0058 71.0733 51.1258 71.2667C51.2524 71.4533 51.3158 71.6867 51.3158 71.9667C51.3158 72.2533 51.2224 72.5 51.0358 72.7067C50.8558 72.9067 50.6091 73.0367 50.2958 73.0967V73.0267C50.5558 73.0533 50.7724 73.12 50.9458 73.2267C51.1258 73.3333 51.2591 73.4733 51.3458 73.6467C51.4391 73.8133 51.4858 74.0067 51.4858 74.2267C51.4858 74.6467 51.3224 74.98 50.9958 75.2267C50.6758 75.4733 50.2158 75.5967 49.6158 75.5967H46.9258ZM47.9158 74.9167H49.5258C49.8391 74.9167 50.0791 74.8567 50.2458 74.7367C50.4124 74.61 50.4958 74.4233 50.4958 74.1767C50.4958 73.93 50.4124 73.7467 50.2458 73.6267C50.0791 73.5 49.8391 73.4367 49.5258 73.4367H47.9158V74.9167ZM47.9158 72.7567H49.4458C49.7191 72.7567 49.9324 72.6967 50.0858 72.5767C50.2458 72.45 50.3258 72.2733 50.3258 72.0467C50.3258 71.82 50.2458 71.65 50.0858 71.5367C49.9324 71.4167 49.7191 71.3567 49.4458 71.3567H47.9158V72.7567ZM54.4444 75.6867C54.0978 75.6867 53.7844 75.62 53.5044 75.4867C53.2244 75.3533 53.0044 75.1733 52.8444 74.9467C52.6911 74.7133 52.6144 74.4533 52.6144 74.1667C52.6144 73.8 52.7111 73.51 52.9044 73.2967C53.1044 73.0833 53.4211 72.93 53.8544 72.8367C54.2878 72.7367 54.8611 72.6867 55.5744 72.6867H56.1544V73.3467H55.6044C55.2444 73.3467 54.9411 73.36 54.6944 73.3867C54.4478 73.4067 54.2478 73.4467 54.0944 73.5067C53.9411 73.5667 53.8278 73.6467 53.7544 73.7467C53.6878 73.84 53.6544 73.96 53.6544 74.1067C53.6544 74.36 53.7444 74.56 53.9244 74.7067C54.1111 74.8467 54.3544 74.9167 54.6544 74.9167C54.9144 74.9167 55.1444 74.86 55.3444 74.7467C55.5444 74.6267 55.7044 74.4667 55.8244 74.2667C55.9444 74.06 56.0044 73.83 56.0044 73.5767V72.4467C56.0044 72.0733 55.9111 71.8067 55.7244 71.6467C55.5444 71.4867 55.2611 71.4067 54.8744 71.4067C54.5878 71.4067 54.3011 71.4467 54.0144 71.5267C53.7344 71.6067 53.4411 71.7367 53.1344 71.9167L52.8144 71.1767C53.0078 71.05 53.2211 70.9433 53.4544 70.8567C53.6944 70.77 53.9411 70.7033 54.1944 70.6567C54.4544 70.61 54.7078 70.5867 54.9544 70.5867C55.4011 70.5867 55.7778 70.6567 56.0844 70.7967C56.3911 70.9367 56.6244 71.15 56.7844 71.4367C56.9444 71.7233 57.0244 72.0967 57.0244 72.5567V75.5967H56.0744V74.5267H56.1144C56.0411 74.7533 55.9278 74.9567 55.7744 75.1367C55.6211 75.31 55.4311 75.4467 55.2044 75.5467C54.9844 75.64 54.7311 75.6867 54.4444 75.6867ZM63.0882 75.6867C62.8348 75.6867 62.5848 75.6567 62.3382 75.5967C62.0915 75.5367 61.8582 75.4467 61.6382 75.3267C61.4182 75.2 61.2215 75.05 61.0482 74.8767L61.4182 74.0767C61.6715 74.3233 61.9382 74.5033 62.2182 74.6167C62.5048 74.7233 62.7982 74.7767 63.0982 74.7767C63.4115 74.7767 63.6848 74.72 63.9182 74.6067C64.1582 74.4933 64.3615 74.3267 64.5282 74.1067C64.6948 73.88 64.8182 73.6 64.8982 73.2667C64.9848 72.9267 65.0282 72.54 65.0282 72.1067V71.4167H65.0782C65.0248 71.7433 64.9082 72.0267 64.7282 72.2667C64.5548 72.5067 64.3348 72.69 64.0682 72.8167C63.8015 72.9433 63.5015 73.0067 63.1682 73.0067C62.7615 73.0067 62.3982 72.9133 62.0782 72.7267C61.7582 72.5333 61.5048 72.27 61.3182 71.9367C61.1315 71.5967 61.0382 71.21 61.0382 70.7767C61.0382 70.3233 61.1348 69.9233 61.3282 69.5767C61.5282 69.23 61.8015 68.9567 62.1482 68.7567C62.4948 68.5567 62.8882 68.4567 63.3282 68.4567C63.9082 68.4567 64.3982 68.5933 64.7982 68.8667C65.1982 69.1333 65.5015 69.5267 65.7082 70.0467C65.9148 70.5667 66.0182 71.1933 66.0182 71.9267C66.0182 72.7267 65.9015 73.4067 65.6682 73.9667C65.4348 74.5267 65.1015 74.9533 64.6682 75.2467C64.2348 75.54 63.7082 75.6867 63.0882 75.6867ZM63.3982 72.1467C63.6715 72.1467 63.9115 72.0867 64.1182 71.9667C64.3248 71.8467 64.4848 71.6833 64.5982 71.4767C64.7115 71.2633 64.7682 71.0167 64.7682 70.7367C64.7682 70.45 64.7115 70.2033 64.5982 69.9967C64.4848 69.7833 64.3248 69.6167 64.1182 69.4967C63.9115 69.3767 63.6715 69.3167 63.3982 69.3167C63.1248 69.3167 62.8848 69.3767 62.6782 69.4967C62.4782 69.6167 62.3215 69.7833 62.2082 69.9967C62.0948 70.21 62.0382 70.4567 62.0382 70.7367C62.0382 71.0167 62.0948 71.2633 62.2082 71.4767C62.3215 71.69 62.4815 71.8567 62.6882 71.9767C62.8948 72.09 63.1315 72.1467 63.3982 72.1467Z" fill="#667085"/>
<defs>
<filter id="filter0_d_8310_1103" x="0" y="0.59668" width="96" height="85.8462" filterUnits="userSpaceOnUse" color-interpolation-filters="sRGB">
<feFlood flood-opacity="0" result="BackgroundImageFix"/>
<feColorMatrix in="SourceAlpha" type="matrix" values="0 0 0 0 0 0 0 0 0 0 0 0 0 0 0 0 0 0 127 0" result="hardAlpha"/>
<feOffset dy="4"/>
<feGaussianBlur stdDeviation="2"/>
<feComposite in2="hardAlpha" operator="out"/>
<feColorMatrix type="matrix" values="0 0 0 0 0 0 0 0 0 0 0 0 0 0 0 0 0 0 0.25 0"/>
<feBlend mode="normal" in2="BackgroundImageFix" result="effect1_dropShadow_8310_1103"/>
<feBlend mode="normal" in="SourceGraphic" in2="effect1_dropShadow_8310_1103" result="shape"/>
</filter>
</defs>
</svg>
