<svg width="96" height="87" viewBox="0 0 96 87" fill="none" xmlns="http://www.w3.org/2000/svg">
<g filter="url(#filter0_d_8310_792)">
<path d="M5.37285 43.0185C4.62083 41.7089 4.24484 41.0536 4.09767 40.3574C3.96744 39.7412 3.96744 39.1048 4.09767 38.4886C4.24484 37.7924 4.62083 37.1371 5.37285 35.8274L23.5901 4.09555C24.3421 2.78569 24.7181 2.13076 25.2442 1.65444C25.7096 1.233 26.2579 0.914612 26.8535 0.720002C27.5267 0.5 28.2787 0.5 29.7827 0.5H66.2171C67.7214 0.5 68.4731 0.5 69.1466 0.720002C69.7419 0.914612 70.2903 1.233 70.756 1.65444C71.282 2.13076 71.6578 2.78569 72.41 4.09555L90.6271 35.8274C91.3792 37.1371 91.7551 37.7924 91.9021 38.4886C92.0326 39.1048 92.0326 39.7412 91.9021 40.3574C91.7551 41.0536 91.3792 41.7089 90.6271 43.0185L72.41 74.7506C71.6578 76.0603 71.282 76.7151 70.756 77.1915C70.2903 77.6131 69.7419 77.9313 69.1466 78.1259C68.4731 78.3462 67.7214 78.3462 66.2171 78.3462H29.7827C28.2787 78.3462 27.5267 78.3462 26.8535 78.1259C26.2579 77.9313 25.7096 77.6131 25.2442 77.1915C24.7181 76.7151 24.3421 76.0603 23.5901 74.7506L5.37285 43.0185Z" fill="white"/>
</g>
<g clip-path="url(#clip0_8310_792)">
<path d="M38 22.5H44.875V24.0625C44.875 24.9742 44.5128 25.8485 43.8682 26.4932C43.2235 27.1378 42.3492 27.5 41.4375 27.5C40.5258 27.5 39.6515 27.1378 39.0068 26.4932C38.3622 25.8485 38 24.9742 38 24.0625V22.5ZM43 7.64998C45.5 7.64998 46.75 11.25 46.75 13.75C46.75 15 46.125 16.25 45.5 18.125L44.875 20H38C38 18.75 37.375 16.875 37.375 13.75C37.375 10.625 39.8725 7.64998 43 7.64998ZM58.0675 17.6225L57.7962 19.1612C57.6379 20.0592 57.1294 20.8574 56.3826 21.3804C55.6357 21.9034 54.7117 22.1083 53.8137 21.95C52.9158 21.7917 52.1176 21.2832 51.5946 20.5363C51.0716 19.7894 50.8667 18.8654 51.025 17.9675L51.2975 16.43L58.0675 17.6225ZM55.7225 2.13123C58.8025 2.67373 60.745 6.03623 60.2025 9.11373C59.66 12.1925 58.7188 13.93 58.5025 15.1612L51.7312 13.9675L51.4412 12.0125C51.1512 10.0575 50.7537 8.71748 50.97 7.48748C51.4038 5.02498 53.26 1.69748 55.7225 2.13123Z" fill="#F2BB41"/>
</g>
<path d="M26.3961 43V34.54H33.5481V43H32.3121V35.584H27.6441V43H26.3961ZM38.213 43.108C37.573 43.108 37.021 42.988 36.557 42.748C36.101 42.5 35.745 42.152 35.489 41.704C35.241 41.248 35.117 40.708 35.117 40.084C35.117 39.476 35.241 38.944 35.489 38.488C35.737 38.032 36.077 37.676 36.509 37.42C36.941 37.164 37.433 37.036 37.985 37.036C38.529 37.036 38.993 37.156 39.377 37.396C39.769 37.628 40.069 37.96 40.277 38.392C40.485 38.824 40.589 39.34 40.589 39.94V40.348H36.077V39.604H39.773L39.569 39.772C39.569 39.172 39.437 38.708 39.173 38.38C38.909 38.052 38.529 37.888 38.033 37.888C37.657 37.888 37.337 37.976 37.073 38.152C36.817 38.328 36.621 38.572 36.485 38.884C36.349 39.196 36.281 39.56 36.281 39.976V40.048C36.281 40.512 36.353 40.904 36.497 41.224C36.649 41.536 36.869 41.772 37.157 41.932C37.445 42.092 37.801 42.172 38.225 42.172C38.561 42.172 38.889 42.12 39.209 42.016C39.537 41.904 39.845 41.732 40.133 41.5L40.493 42.34C40.229 42.58 39.889 42.768 39.473 42.904C39.057 43.04 38.637 43.108 38.213 43.108ZM42.0392 45.16V37.144H43.2272V38.464H43.0952C43.2232 38.032 43.4752 37.688 43.8512 37.432C44.2272 37.168 44.6712 37.036 45.1832 37.036C45.7032 37.036 46.1552 37.16 46.5392 37.408C46.9312 37.656 47.2312 38.004 47.4392 38.452C47.6552 38.9 47.7632 39.44 47.7632 40.072C47.7632 40.688 47.6552 41.228 47.4392 41.692C47.2312 42.148 46.9352 42.5 46.5512 42.748C46.1672 42.988 45.7112 43.108 45.1832 43.108C44.6792 43.108 44.2392 42.98 43.8632 42.724C43.4872 42.468 43.2352 42.128 43.1072 41.704H43.2512V45.16H42.0392ZM44.8832 42.172C45.3872 42.172 45.7872 41.992 46.0832 41.632C46.3872 41.272 46.5392 40.752 46.5392 40.072C46.5392 39.384 46.3872 38.864 46.0832 38.512C45.7872 38.16 45.3872 37.984 44.8832 37.984C44.3872 37.984 43.9872 38.16 43.6832 38.512C43.3792 38.864 43.2272 39.384 43.2272 40.072C43.2272 40.752 43.3792 41.272 43.6832 41.632C43.9872 41.992 44.3872 42.172 44.8832 42.172ZM49.246 43V37.144H52.234C52.714 37.144 53.106 37.204 53.41 37.324C53.722 37.444 53.95 37.62 54.094 37.852C54.238 38.076 54.31 38.352 54.31 38.68C54.31 39.056 54.182 39.372 53.926 39.628C53.67 39.876 53.334 40.024 52.918 40.072V39.916C53.254 39.924 53.538 39.992 53.77 40.12C54.01 40.248 54.19 40.42 54.31 40.636C54.438 40.844 54.502 41.088 54.502 41.368C54.502 41.872 54.314 42.272 53.938 42.568C53.562 42.856 53.026 43 52.33 43H49.246ZM50.386 42.22H52.258C52.618 42.22 52.894 42.144 53.086 41.992C53.286 41.832 53.386 41.604 53.386 41.308C53.386 41.012 53.286 40.788 53.086 40.636C52.894 40.484 52.618 40.408 52.258 40.408H50.386V42.22ZM50.386 39.628H52.15C52.478 39.628 52.73 39.552 52.906 39.4C53.09 39.248 53.182 39.04 53.182 38.776C53.182 38.504 53.09 38.296 52.906 38.152C52.73 38.008 52.478 37.936 52.15 37.936H50.386V39.628ZM55.914 43V37.144H57.126V39.172H58.794C59.546 39.172 60.118 39.336 60.51 39.664C60.902 39.984 61.098 40.452 61.098 41.068C61.098 41.46 61.006 41.804 60.822 42.1C60.638 42.388 60.374 42.612 60.03 42.772C59.686 42.924 59.274 43 58.794 43H55.914ZM57.126 42.172H58.638C59.054 42.172 59.378 42.084 59.61 41.908C59.842 41.724 59.958 41.444 59.958 41.068C59.958 40.7 59.842 40.432 59.61 40.264C59.378 40.088 59.054 40 58.638 40H57.126V42.172ZM61.89 43V37.144H63.102V43H61.89ZM67.6857 43.108C67.0457 43.108 66.4937 42.988 66.0297 42.748C65.5737 42.5 65.2177 42.152 64.9617 41.704C64.7137 41.248 64.5897 40.708 64.5897 40.084C64.5897 39.476 64.7137 38.944 64.9617 38.488C65.2097 38.032 65.5497 37.676 65.9817 37.42C66.4137 37.164 66.9057 37.036 67.4577 37.036C68.0017 37.036 68.4657 37.156 68.8497 37.396C69.2417 37.628 69.5417 37.96 69.7497 38.392C69.9577 38.824 70.0617 39.34 70.0617 39.94V40.348H65.5497V39.604H69.2457L69.0417 39.772C69.0417 39.172 68.9097 38.708 68.6457 38.38C68.3817 38.052 68.0017 37.888 67.5057 37.888C67.1297 37.888 66.8097 37.976 66.5457 38.152C66.2897 38.328 66.0937 38.572 65.9577 38.884C65.8217 39.196 65.7537 39.56 65.7537 39.976V40.048C65.7537 40.512 65.8257 40.904 65.9697 41.224C66.1217 41.536 66.3417 41.772 66.6297 41.932C66.9177 42.092 67.2737 42.172 67.6977 42.172C68.0337 42.172 68.3617 42.12 68.6817 42.016C69.0097 41.904 69.3177 41.732 69.6057 41.5L69.9657 42.34C69.7017 42.58 69.3617 42.768 68.9457 42.904C68.5297 43.04 68.1097 43.108 67.6857 43.108ZM34.5038 59V53.144H35.6558V58.04H37.8998V53.144H39.0518V58.04H41.2958V53.144H42.4478V59H34.5038ZM46.1612 59.108C45.7532 59.108 45.3852 59.028 45.0572 58.868C44.7372 58.708 44.4852 58.492 44.3012 58.22C44.1172 57.948 44.0252 57.64 44.0252 57.296C44.0252 56.864 44.1332 56.524 44.3492 56.276C44.5732 56.02 44.9372 55.84 45.4412 55.736C45.9532 55.624 46.6412 55.568 47.5052 55.568H48.0692V56.312H47.5172C47.0852 56.312 46.7212 56.328 46.4252 56.36C46.1292 56.392 45.8932 56.444 45.7172 56.516C45.5412 56.58 45.4132 56.672 45.3332 56.792C45.2612 56.912 45.2252 57.056 45.2252 57.224C45.2252 57.528 45.3292 57.776 45.5372 57.968C45.7452 58.152 46.0332 58.244 46.4012 58.244C46.6972 58.244 46.9572 58.176 47.1812 58.04C47.4052 57.896 47.5812 57.704 47.7092 57.464C47.8452 57.224 47.9132 56.948 47.9132 56.636V55.256C47.9132 54.8 47.8172 54.472 47.6252 54.272C47.4332 54.072 47.1172 53.972 46.6772 53.972C46.3412 53.972 46.0052 54.024 45.6692 54.128C45.3332 54.224 44.9892 54.38 44.6372 54.596L44.2652 53.744C44.4732 53.6 44.7132 53.476 44.9852 53.372C45.2572 53.268 45.5412 53.188 45.8372 53.132C46.1412 53.068 46.4332 53.036 46.7132 53.036C47.2492 53.036 47.6892 53.12 48.0332 53.288C48.3852 53.456 48.6452 53.712 48.8132 54.056C48.9812 54.4 49.0652 54.844 49.0652 55.388V59H47.9252V57.692H48.0332C47.9692 57.988 47.8492 58.244 47.6732 58.46C47.5052 58.668 47.2932 58.828 47.0372 58.94C46.7812 59.052 46.4892 59.108 46.1612 59.108ZM50.8632 59V53.144H55.1112V54.116H52.0752V59H50.8632ZM56.2069 59V53.144H57.3109V57.8H56.9989L60.4789 53.144H61.4989V59H60.3949V54.344H60.7189L57.2269 59H56.2069Z" fill="black"/>
<path d="M30.5409 74V66.95H35.1209V67.86H31.6009V74H30.5409ZM34.5375 74.13L34.1875 73.3C34.4208 73.2133 34.6142 73.1 34.7675 72.96C34.9208 72.8133 35.0408 72.63 35.1275 72.41C35.2142 72.19 35.2775 71.9233 35.3175 71.61C35.3575 71.29 35.3775 70.91 35.3775 70.47V69.08H39.2175V74H38.1575V69.93H36.3475V70.5C36.3475 71.04 36.3142 71.5133 36.2475 71.92C36.1875 72.3267 36.0875 72.6767 35.9475 72.97C35.8075 73.2633 35.6208 73.5067 35.3875 73.7C35.1542 73.8867 34.8708 74.03 34.5375 74.13ZM42.501 74.09C42.1543 74.09 41.841 74.0233 41.561 73.89C41.281 73.7567 41.061 73.5767 40.901 73.35C40.7477 73.1167 40.671 72.8567 40.671 72.57C40.671 72.2033 40.7677 71.9133 40.961 71.7C41.161 71.4867 41.4777 71.3333 41.911 71.24C42.3443 71.14 42.9177 71.09 43.631 71.09H44.211V71.75H43.661C43.301 71.75 42.9977 71.7633 42.751 71.79C42.5043 71.81 42.3043 71.85 42.151 71.91C41.9977 71.97 41.8843 72.05 41.811 72.15C41.7443 72.2433 41.711 72.3633 41.711 72.51C41.711 72.7633 41.801 72.9633 41.981 73.11C42.1677 73.25 42.411 73.32 42.711 73.32C42.971 73.32 43.201 73.2633 43.401 73.15C43.601 73.03 43.761 72.87 43.881 72.67C44.001 72.4633 44.061 72.2333 44.061 71.98V70.85C44.061 70.4767 43.9677 70.21 43.781 70.05C43.601 69.89 43.3177 69.81 42.931 69.81C42.6443 69.81 42.3577 69.85 42.071 69.93C41.791 70.01 41.4977 70.14 41.191 70.32L40.871 69.58C41.0643 69.4533 41.2777 69.3467 41.511 69.26C41.751 69.1733 41.9977 69.1067 42.251 69.06C42.511 69.0133 42.7643 68.99 43.011 68.99C43.4577 68.99 43.8343 69.06 44.141 69.2C44.4477 69.34 44.681 69.5533 44.841 69.84C45.001 70.1267 45.081 70.5 45.081 70.96V74H44.131V72.93H44.171C44.0977 73.1567 43.9843 73.36 43.831 73.54C43.6777 73.7133 43.4877 73.85 43.261 73.95C43.041 74.0433 42.7877 74.09 42.501 74.09ZM46.7206 74V69.08H49.3306C49.744 69.08 50.0806 69.13 50.3406 69.23C50.6073 69.33 50.8006 69.4767 50.9206 69.67C51.0473 69.8567 51.1106 70.09 51.1106 70.37C51.1106 70.6567 51.0173 70.9033 50.8306 71.11C50.6506 71.31 50.404 71.44 50.0906 71.5V71.43C50.3506 71.4567 50.5673 71.5233 50.7406 71.63C50.9206 71.7367 51.054 71.8767 51.1406 72.05C51.234 72.2167 51.2806 72.41 51.2806 72.63C51.2806 73.05 51.1173 73.3833 50.7906 73.63C50.4706 73.8767 50.0106 74 49.4106 74H46.7206ZM47.7106 73.32H49.3206C49.634 73.32 49.874 73.26 50.0406 73.14C50.2073 73.0133 50.2906 72.8267 50.2906 72.58C50.2906 72.3333 50.2073 72.15 50.0406 72.03C49.874 71.9033 49.634 71.84 49.3206 71.84H47.7106V73.32ZM47.7106 71.16H49.2406C49.514 71.16 49.7273 71.1 49.8806 70.98C50.0406 70.8533 50.1206 70.6767 50.1206 70.45C50.1206 70.2233 50.0406 70.0533 49.8806 69.94C49.7273 69.82 49.514 69.76 49.2406 69.76H47.7106V71.16ZM54.2393 74.09C53.8926 74.09 53.5793 74.0233 53.2993 73.89C53.0193 73.7567 52.7993 73.5767 52.6393 73.35C52.486 73.1167 52.4093 72.8567 52.4093 72.57C52.4093 72.2033 52.506 71.9133 52.6993 71.7C52.8993 71.4867 53.216 71.3333 53.6493 71.24C54.0826 71.14 54.656 71.09 55.3693 71.09H55.9493V71.75H55.3993C55.0393 71.75 54.736 71.7633 54.4893 71.79C54.2426 71.81 54.0426 71.85 53.8893 71.91C53.736 71.97 53.6226 72.05 53.5493 72.15C53.4826 72.2433 53.4493 72.3633 53.4493 72.51C53.4493 72.7633 53.5393 72.9633 53.7193 73.11C53.906 73.25 54.1493 73.32 54.4493 73.32C54.7093 73.32 54.9393 73.2633 55.1393 73.15C55.3393 73.03 55.4993 72.87 55.6193 72.67C55.7393 72.4633 55.7993 72.2333 55.7993 71.98V70.85C55.7993 70.4767 55.706 70.21 55.5193 70.05C55.3393 69.89 55.056 69.81 54.6693 69.81C54.3826 69.81 54.096 69.85 53.8093 69.93C53.5293 70.01 53.236 70.14 52.9293 70.32L52.6093 69.58C52.8026 69.4533 53.016 69.3467 53.2493 69.26C53.4893 69.1733 53.736 69.1067 53.9893 69.06C54.2493 69.0133 54.5026 68.99 54.7493 68.99C55.196 68.99 55.5726 69.06 55.8793 69.2C56.186 69.34 56.4193 69.5533 56.5793 69.84C56.7393 70.1267 56.8193 70.5 56.8193 70.96V74H55.8693V72.93H55.9093C55.836 73.1567 55.7226 73.36 55.5693 73.54C55.416 73.7133 55.226 73.85 54.9993 73.95C54.7793 74.0433 54.526 74.09 54.2393 74.09ZM61.413 74V73.1H63.143V67.83L63.683 67.86L61.763 69.06L61.323 68.26L63.433 66.95H64.203V73.1H65.813V74H61.413Z" fill="#667085"/>
<defs>
<filter id="filter0_d_8310_792" x="0" y="0.5" width="96" height="85.8462" filterUnits="userSpaceOnUse" color-interpolation-filters="sRGB">
<feFlood flood-opacity="0" result="BackgroundImageFix"/>
<feColorMatrix in="SourceAlpha" type="matrix" values="0 0 0 0 0 0 0 0 0 0 0 0 0 0 0 0 0 0 127 0" result="hardAlpha"/>
<feOffset dy="4"/>
<feGaussianBlur stdDeviation="2"/>
<feComposite in2="hardAlpha" operator="out"/>
<feColorMatrix type="matrix" values="0 0 0 0 0 0 0 0 0 0 0 0 0 0 0 0 0 0 0.25 0"/>
<feBlend mode="normal" in2="BackgroundImageFix" result="effect1_dropShadow_8310_792"/>
<feBlend mode="normal" in="SourceGraphic" in2="effect1_dropShadow_8310_792" result="shape"/>
</filter>
<clipPath id="clip0_8310_792">
<rect width="30" height="30" fill="white" transform="translate(33)"/>
</clipPath>
</defs>
</svg>
