<svg width="101" height="87" viewBox="0 0 101 87" fill="none" xmlns="http://www.w3.org/2000/svg">
<g filter="url(#filter0_d_8310_1160)">
<path d="M5.93525 43.0953C5.14905 41.7856 4.75597 41.1303 4.60211 40.4341C4.46596 39.8178 4.46596 39.1814 4.60211 38.5652C4.75597 37.8689 5.14905 37.2136 5.93525 35.9039L24.9806 4.17043C25.7667 2.86051 26.1598 2.20555 26.7098 1.72921C27.1964 1.30774 27.7696 0.989339 28.3923 0.79472C29.0961 0.574707 29.8823 0.574707 31.4547 0.574707H69.5452C71.1178 0.574707 71.9037 0.574707 72.6078 0.79472C73.2302 0.989339 73.8035 1.30774 74.2903 1.72921C74.8402 2.20555 75.2332 2.86051 76.0195 4.17043L95.0647 35.9039C95.851 37.2136 96.244 37.8689 96.3977 38.5652C96.5341 39.1814 96.5341 39.8178 96.3977 40.4341C96.244 41.1303 95.851 41.7856 95.0647 43.0953L76.0195 74.829C75.2332 76.1387 74.8402 76.7936 74.2903 77.27C73.8035 77.6916 73.2302 78.0098 72.6078 78.2045C71.9037 78.4247 71.1178 78.4247 69.5452 78.4247H31.4547C29.8823 78.4247 29.0961 78.4247 28.3923 78.2045C27.7696 78.0098 27.1964 77.6916 26.7098 77.27C26.1598 76.7936 25.7667 76.1387 24.9806 74.829L5.93525 43.0953Z" fill="white"/>
</g>
<path d="M60.875 30.6997H42.125C42.125 30.6997 40.25 30.6372 40.25 25.6997H62.75C62.75 30.6372 60.875 30.6997 60.875 30.6997Z" fill="#E08838"/>
<path d="M61.5 4.44971H41.5V25.6997H61.5V4.44971Z" fill="#F2BB41"/>
<path d="M57.75 11.9497H47.75V13.1997H57.75V11.9497Z" fill="#E08838"/>
<path d="M57.75 14.4497H47.75V15.6997H57.75V14.4497Z" fill="#E08838"/>
<path d="M57.75 16.9497H47.75V18.1997H57.75V16.9497Z" fill="#E08838"/>
<path d="M57.75 19.4497H47.75V20.6997H57.75V19.4497Z" fill="#E08838"/>
<path d="M57.75 21.9497H47.75V23.1997H57.75V21.9497Z" fill="#E08838"/>
<path d="M46.5 11.9497H45.25V13.1997H46.5V11.9497Z" fill="#E08838"/>
<path d="M46.5 14.4497H45.25V15.6997H46.5V14.4497Z" fill="#E08838"/>
<path d="M46.5 16.9497H45.25V18.1997H46.5V16.9497Z" fill="#E08838"/>
<path d="M46.5 19.4497H45.25V20.6997H46.5V19.4497Z" fill="#E08838"/>
<path d="M46.5 21.9497H45.25V23.1997H46.5V21.9497Z" fill="#E08838"/>
<path d="M28.0475 42.108C27.1915 42.108 26.4595 41.932 25.8515 41.58C25.2435 41.228 24.7755 40.728 24.4475 40.08C24.1275 39.424 23.9675 38.652 23.9675 37.764C23.9675 36.876 24.1275 36.108 24.4475 35.46C24.7755 34.812 25.2435 34.312 25.8515 33.96C26.4595 33.608 27.1915 33.432 28.0475 33.432C28.6235 33.432 29.1595 33.524 29.6555 33.708C30.1595 33.884 30.5795 34.14 30.9155 34.476L30.4835 35.472C30.1155 35.144 29.7355 34.908 29.3435 34.764C28.9595 34.612 28.5395 34.536 28.0835 34.536C27.1715 34.536 26.4755 34.816 25.9955 35.376C25.5155 35.936 25.2755 36.732 25.2755 37.764C25.2755 38.796 25.5155 39.596 25.9955 40.164C26.4755 40.724 27.1715 41.004 28.0835 41.004C28.5395 41.004 28.9595 40.932 29.3435 40.788C29.7355 40.636 30.1155 40.396 30.4835 40.068L30.9155 41.064C30.5795 41.4 30.1595 41.66 29.6555 41.844C29.1595 42.02 28.6235 42.108 28.0475 42.108ZM32.0409 42.156L31.6329 41.196C31.8969 41.092 32.1169 40.956 32.2929 40.788C32.4769 40.62 32.6209 40.408 32.7249 40.152C32.8289 39.888 32.9049 39.564 32.9529 39.18C33.0009 38.796 33.0249 38.332 33.0249 37.788V36.144H37.4889V42H36.2769V37.116H34.1529V37.824C34.1529 38.488 34.1129 39.068 34.0329 39.564C33.9529 40.052 33.8289 40.468 33.6609 40.812C33.4929 41.156 33.2729 41.436 33.0009 41.652C32.7369 41.868 32.4169 42.036 32.0409 42.156ZM42.0724 42.108C41.4324 42.108 40.8804 41.988 40.4164 41.748C39.9604 41.5 39.6044 41.152 39.3484 40.704C39.1004 40.248 38.9764 39.708 38.9764 39.084C38.9764 38.476 39.1004 37.944 39.3484 37.488C39.5964 37.032 39.9364 36.676 40.3684 36.42C40.8004 36.164 41.2924 36.036 41.8444 36.036C42.3884 36.036 42.8524 36.156 43.2364 36.396C43.6284 36.628 43.9284 36.96 44.1364 37.392C44.3444 37.824 44.4484 38.34 44.4484 38.94V39.348H39.9364V38.604H43.6324L43.4284 38.772C43.4284 38.172 43.2964 37.708 43.0324 37.38C42.7684 37.052 42.3884 36.888 41.8924 36.888C41.5164 36.888 41.1964 36.976 40.9324 37.152C40.6764 37.328 40.4804 37.572 40.3444 37.884C40.2084 38.196 40.1404 38.56 40.1404 38.976V39.048C40.1404 39.512 40.2124 39.904 40.3564 40.224C40.5084 40.536 40.7284 40.772 41.0164 40.932C41.3044 41.092 41.6604 41.172 42.0844 41.172C42.4204 41.172 42.7484 41.12 43.0684 41.016C43.3964 40.904 43.7044 40.732 43.9924 40.5L44.3524 41.34C44.0884 41.58 43.7484 41.768 43.3324 41.904C42.9164 42.04 42.4964 42.108 42.0724 42.108ZM45.2866 43.56V41.04H45.9346C46.1106 40.776 46.2506 40.492 46.3546 40.188C46.4586 39.884 46.5346 39.54 46.5826 39.156C46.6306 38.772 46.6546 38.336 46.6546 37.848V36.144H50.9866V41.04H51.9226V43.56H50.8906V42H46.3306V43.56H45.2866ZM47.0626 41.04H49.8346V37.092H47.7106V38.1C47.7106 38.652 47.6546 39.188 47.5426 39.708C47.4306 40.228 47.2706 40.672 47.0626 41.04ZM53.7408 44.16L54.8928 41.592V42.108L52.3368 36.144H53.6328L55.6008 41.004H55.2648L57.2568 36.144H58.5048L55.0128 44.16H53.7408ZM59.5038 42V36.144H60.6078V40.8H60.2958L63.7758 36.144H64.7958V42H63.6918V37.344H64.0158L60.5238 42H59.5038ZM62.1438 35.4C61.7918 35.4 61.4758 35.34 61.1958 35.22C60.9158 35.092 60.6758 34.908 60.4758 34.668C60.2758 34.42 60.1278 34.124 60.0318 33.78L60.6918 33.552C60.8358 33.944 61.0238 34.232 61.2558 34.416C61.4958 34.6 61.7958 34.692 62.1558 34.692C62.5238 34.692 62.8238 34.604 63.0558 34.428C63.2878 34.244 63.4878 33.956 63.6558 33.564L64.2918 33.78C64.1638 34.156 63.9918 34.464 63.7758 34.704C63.5678 34.944 63.3278 35.12 63.0558 35.232C62.7838 35.344 62.4798 35.4 62.1438 35.4ZM67.8411 42V37.116H65.7771V36.144H71.1291V37.116H69.0531V42H67.8411ZM74.8263 42.108C74.1863 42.108 73.6343 41.988 73.1703 41.748C72.7143 41.5 72.3583 41.152 72.1023 40.704C71.8543 40.248 71.7303 39.708 71.7303 39.084C71.7303 38.476 71.8543 37.944 72.1023 37.488C72.3503 37.032 72.6903 36.676 73.1223 36.42C73.5543 36.164 74.0463 36.036 74.5983 36.036C75.1423 36.036 75.6063 36.156 75.9903 36.396C76.3823 36.628 76.6823 36.96 76.8903 37.392C77.0983 37.824 77.2023 38.34 77.2023 38.94V39.348H72.6903V38.604H76.3863L76.1823 38.772C76.1823 38.172 76.0503 37.708 75.7863 37.38C75.5223 37.052 75.1423 36.888 74.6463 36.888C74.2703 36.888 73.9503 36.976 73.6863 37.152C73.4303 37.328 73.2343 37.572 73.0983 37.884C72.9623 38.196 72.8943 38.56 72.8943 38.976V39.048C72.8943 39.512 72.9663 39.904 73.1103 40.224C73.2623 40.536 73.4823 40.772 73.7703 40.932C74.0583 41.092 74.4143 41.172 74.8383 41.172C75.1743 41.172 75.5023 41.12 75.8223 41.016C76.1503 40.904 76.4583 40.732 76.7463 40.5L77.1063 41.34C76.8423 41.58 76.5023 41.768 76.0863 41.904C75.6703 42.04 75.2503 42.108 74.8263 42.108ZM23.2343 58V52.144H28.5383V58H27.3263V53.116H24.4463V58H23.2343ZM30.3595 60.16V52.144H31.5475V53.464H31.4155C31.5435 53.032 31.7955 52.688 32.1715 52.432C32.5475 52.168 32.9915 52.036 33.5035 52.036C34.0235 52.036 34.4755 52.16 34.8595 52.408C35.2515 52.656 35.5515 53.004 35.7595 53.452C35.9755 53.9 36.0835 54.44 36.0835 55.072C36.0835 55.688 35.9755 56.228 35.7595 56.692C35.5515 57.148 35.2555 57.5 34.8715 57.748C34.4875 57.988 34.0315 58.108 33.5035 58.108C32.9995 58.108 32.5595 57.98 32.1835 57.724C31.8075 57.468 31.5555 57.128 31.4275 56.704H31.5715V60.16H30.3595ZM33.2035 57.172C33.7075 57.172 34.1075 56.992 34.4035 56.632C34.7075 56.272 34.8595 55.752 34.8595 55.072C34.8595 54.384 34.7075 53.864 34.4035 53.512C34.1075 53.16 33.7075 52.984 33.2035 52.984C32.7075 52.984 32.3075 53.16 32.0035 53.512C31.6995 53.864 31.5475 54.384 31.5475 55.072C31.5475 55.752 31.6995 56.272 32.0035 56.632C32.3075 56.992 32.7075 57.172 33.2035 57.172ZM39.4503 58.108C39.0423 58.108 38.6743 58.028 38.3463 57.868C38.0263 57.708 37.7743 57.492 37.5903 57.22C37.4063 56.948 37.3143 56.64 37.3143 56.296C37.3143 55.864 37.4223 55.524 37.6383 55.276C37.8623 55.02 38.2263 54.84 38.7303 54.736C39.2423 54.624 39.9303 54.568 40.7943 54.568H41.3583V55.312H40.8063C40.3743 55.312 40.0103 55.328 39.7143 55.36C39.4183 55.392 39.1823 55.444 39.0063 55.516C38.8303 55.58 38.7023 55.672 38.6223 55.792C38.5503 55.912 38.5143 56.056 38.5143 56.224C38.5143 56.528 38.6183 56.776 38.8263 56.968C39.0343 57.152 39.3223 57.244 39.6903 57.244C39.9863 57.244 40.2463 57.176 40.4703 57.04C40.6943 56.896 40.8703 56.704 40.9983 56.464C41.1343 56.224 41.2023 55.948 41.2023 55.636V54.256C41.2023 53.8 41.1063 53.472 40.9143 53.272C40.7223 53.072 40.4063 52.972 39.9663 52.972C39.6303 52.972 39.2943 53.024 38.9583 53.128C38.6223 53.224 38.2783 53.38 37.9263 53.596L37.5543 52.744C37.7623 52.6 38.0023 52.476 38.2743 52.372C38.5463 52.268 38.8303 52.188 39.1263 52.132C39.4303 52.068 39.7223 52.036 40.0023 52.036C40.5383 52.036 40.9783 52.12 41.3223 52.288C41.6743 52.456 41.9343 52.712 42.1023 53.056C42.2703 53.4 42.3543 53.844 42.3543 54.388V58H41.2143V56.692H41.3223C41.2583 56.988 41.1383 57.244 40.9623 57.46C40.7943 57.668 40.5823 57.828 40.3263 57.94C40.0703 58.052 39.7783 58.108 39.4503 58.108ZM44.1522 58V52.144H47.1402C47.6202 52.144 48.0122 52.204 48.3162 52.324C48.6282 52.444 48.8562 52.62 49.0002 52.852C49.1442 53.076 49.2162 53.352 49.2162 53.68C49.2162 54.056 49.0882 54.372 48.8322 54.628C48.5762 54.876 48.2402 55.024 47.8242 55.072V54.916C48.1602 54.924 48.4442 54.992 48.6762 55.12C48.9162 55.248 49.0962 55.42 49.2162 55.636C49.3442 55.844 49.4082 56.088 49.4082 56.368C49.4082 56.872 49.2202 57.272 48.8442 57.568C48.4682 57.856 47.9322 58 47.2362 58H44.1522ZM45.2922 57.22H47.1642C47.5242 57.22 47.8002 57.144 47.9922 56.992C48.1922 56.832 48.2922 56.604 48.2922 56.308C48.2922 56.012 48.1922 55.788 47.9922 55.636C47.8002 55.484 47.5242 55.408 47.1642 55.408H45.2922V57.22ZM45.2922 54.628H47.0562C47.3842 54.628 47.6362 54.552 47.8122 54.4C47.9962 54.248 48.0882 54.04 48.0882 53.776C48.0882 53.504 47.9962 53.296 47.8122 53.152C47.6362 53.008 47.3842 52.936 47.0562 52.936H45.2922V54.628ZM50.8202 58V52.144H51.9242V56.8H51.6122L55.0922 52.144H56.1122V58H55.0082V53.344H55.3322L51.8402 58H50.8202ZM57.6815 58.156L57.2735 57.196C57.5375 57.092 57.7575 56.956 57.9335 56.788C58.1175 56.62 58.2615 56.408 58.3655 56.152C58.4695 55.888 58.5455 55.564 58.5935 55.18C58.6415 54.796 58.6655 54.332 58.6655 53.788V52.144H63.1295V58H61.9175V53.116H59.7935V53.824C59.7935 54.488 59.7535 55.068 59.6735 55.564C59.5935 56.052 59.4695 56.468 59.3015 56.812C59.1335 57.156 58.9135 57.436 58.6415 57.652C58.3775 57.868 58.0575 58.036 57.6815 58.156ZM66.837 58.108C66.429 58.108 66.061 58.028 65.733 57.868C65.413 57.708 65.161 57.492 64.977 57.22C64.793 56.948 64.701 56.64 64.701 56.296C64.701 55.864 64.809 55.524 65.025 55.276C65.249 55.02 65.613 54.84 66.117 54.736C66.629 54.624 67.317 54.568 68.181 54.568H68.745V55.312H68.193C67.761 55.312 67.397 55.328 67.101 55.36C66.805 55.392 66.569 55.444 66.393 55.516C66.217 55.58 66.089 55.672 66.009 55.792C65.937 55.912 65.901 56.056 65.901 56.224C65.901 56.528 66.005 56.776 66.213 56.968C66.421 57.152 66.709 57.244 67.077 57.244C67.373 57.244 67.633 57.176 67.857 57.04C68.081 56.896 68.257 56.704 68.385 56.464C68.521 56.224 68.589 55.948 68.589 55.636V54.256C68.589 53.8 68.493 53.472 68.301 53.272C68.109 53.072 67.793 52.972 67.353 52.972C67.017 52.972 66.681 53.024 66.345 53.128C66.009 53.224 65.665 53.38 65.313 53.596L64.941 52.744C65.149 52.6 65.389 52.476 65.661 52.372C65.933 52.268 66.217 52.188 66.513 52.132C66.817 52.068 67.109 52.036 67.389 52.036C67.925 52.036 68.365 52.12 68.709 52.288C69.061 52.456 69.321 52.712 69.489 53.056C69.657 53.4 69.741 53.844 69.741 54.388V58H68.601V56.692H68.709C68.645 56.988 68.525 57.244 68.349 57.46C68.181 57.668 67.969 57.828 67.713 57.94C67.457 58.052 67.165 58.108 66.837 58.108ZM71.539 58V52.144H72.535L74.659 55.852L76.771 52.144H77.767V58H76.699V53.548H76.975L74.947 57.052H74.359L72.331 53.548H72.607V58H71.539Z" fill="black"/>
<path d="M34.0409 71.5747V64.5247H38.6209V65.4347H35.1009V71.5747H34.0409ZM38.0375 71.7047L37.6875 70.8747C37.9208 70.788 38.1142 70.6747 38.2675 70.5347C38.4208 70.388 38.5408 70.2047 38.6275 69.9847C38.7142 69.7647 38.7775 69.498 38.8175 69.1847C38.8575 68.8647 38.8775 68.4847 38.8775 68.0447V66.6547H42.7175V71.5747H41.6575V67.5047H39.8475V68.0747C39.8475 68.6147 39.8142 69.088 39.7475 69.4947C39.6875 69.9014 39.5875 70.2514 39.4475 70.5447C39.3075 70.838 39.1208 71.0814 38.8875 71.2747C38.6542 71.4614 38.3708 71.6047 38.0375 71.7047ZM46.001 71.6647C45.6543 71.6647 45.341 71.598 45.061 71.4647C44.781 71.3314 44.561 71.1514 44.401 70.9247C44.2477 70.6914 44.171 70.4314 44.171 70.1447C44.171 69.778 44.2677 69.488 44.461 69.2747C44.661 69.0614 44.9777 68.908 45.411 68.8147C45.8443 68.7147 46.4177 68.6647 47.131 68.6647H47.711V69.3247H47.161C46.801 69.3247 46.4977 69.338 46.251 69.3647C46.0043 69.3847 45.8043 69.4247 45.651 69.4847C45.4977 69.5447 45.3843 69.6247 45.311 69.7247C45.2443 69.818 45.211 69.938 45.211 70.0847C45.211 70.338 45.301 70.538 45.481 70.6847C45.6677 70.8247 45.911 70.8947 46.211 70.8947C46.471 70.8947 46.701 70.838 46.901 70.7247C47.101 70.6047 47.261 70.4447 47.381 70.2447C47.501 70.038 47.561 69.808 47.561 69.5547V68.4247C47.561 68.0514 47.4677 67.7847 47.281 67.6247C47.101 67.4647 46.8177 67.3847 46.431 67.3847C46.1443 67.3847 45.8577 67.4247 45.571 67.5047C45.291 67.5847 44.9977 67.7147 44.691 67.8947L44.371 67.1547C44.5643 67.028 44.7777 66.9214 45.011 66.8347C45.251 66.748 45.4977 66.6814 45.751 66.6347C46.011 66.588 46.2643 66.5647 46.511 66.5647C46.9577 66.5647 47.3343 66.6347 47.641 66.7747C47.9477 66.9147 48.181 67.128 48.341 67.4147C48.501 67.7014 48.581 68.0747 48.581 68.5347V71.5747H47.631V70.5047H47.671C47.5977 70.7314 47.4843 70.9347 47.331 71.1147C47.1777 71.288 46.9877 71.4247 46.761 71.5247C46.541 71.618 46.2877 71.6647 46.001 71.6647ZM50.2206 71.5747V66.6547H52.8306C53.244 66.6547 53.5806 66.7047 53.8406 66.8047C54.1073 66.9047 54.3006 67.0514 54.4206 67.2447C54.5473 67.4314 54.6106 67.6647 54.6106 67.9447C54.6106 68.2314 54.5173 68.478 54.3306 68.6847C54.1506 68.8847 53.904 69.0147 53.5906 69.0747V69.0047C53.8506 69.0314 54.0673 69.098 54.2406 69.2047C54.4206 69.3114 54.554 69.4514 54.6406 69.6247C54.734 69.7914 54.7806 69.9847 54.7806 70.2047C54.7806 70.6247 54.6173 70.958 54.2906 71.2047C53.9706 71.4514 53.5106 71.5747 52.9106 71.5747H50.2206ZM51.2106 70.8947H52.8206C53.134 70.8947 53.374 70.8347 53.5406 70.7147C53.7073 70.588 53.7906 70.4014 53.7906 70.1547C53.7906 69.908 53.7073 69.7247 53.5406 69.6047C53.374 69.478 53.134 69.4147 52.8206 69.4147H51.2106V70.8947ZM51.2106 68.7347H52.7406C53.014 68.7347 53.2273 68.6747 53.3806 68.5547C53.5406 68.428 53.6206 68.2514 53.6206 68.0247C53.6206 67.798 53.5406 67.628 53.3806 67.5147C53.2273 67.3947 53.014 67.3347 52.7406 67.3347H51.2106V68.7347ZM57.7393 71.6647C57.3926 71.6647 57.0793 71.598 56.7993 71.4647C56.5193 71.3314 56.2993 71.1514 56.1393 70.9247C55.986 70.6914 55.9093 70.4314 55.9093 70.1447C55.9093 69.778 56.006 69.488 56.1993 69.2747C56.3993 69.0614 56.716 68.908 57.1493 68.8147C57.5826 68.7147 58.156 68.6647 58.8693 68.6647H59.4493V69.3247H58.8993C58.5393 69.3247 58.236 69.338 57.9893 69.3647C57.7426 69.3847 57.5426 69.4247 57.3893 69.4847C57.236 69.5447 57.1226 69.6247 57.0493 69.7247C56.9826 69.818 56.9493 69.938 56.9493 70.0847C56.9493 70.338 57.0393 70.538 57.2193 70.6847C57.406 70.8247 57.6493 70.8947 57.9493 70.8947C58.2093 70.8947 58.4393 70.838 58.6393 70.7247C58.8393 70.6047 58.9993 70.4447 59.1193 70.2447C59.2393 70.038 59.2993 69.808 59.2993 69.5547V68.4247C59.2993 68.0514 59.206 67.7847 59.0193 67.6247C58.8393 67.4647 58.556 67.3847 58.1693 67.3847C57.8826 67.3847 57.596 67.4247 57.3093 67.5047C57.0293 67.5847 56.736 67.7147 56.4293 67.8947L56.1093 67.1547C56.3026 67.028 56.516 66.9214 56.7493 66.8347C56.9893 66.748 57.236 66.6814 57.4893 66.6347C57.7493 66.588 58.0026 66.5647 58.2493 66.5647C58.696 66.5647 59.0726 66.6347 59.3793 66.7747C59.686 66.9147 59.9193 67.128 60.0793 67.4147C60.2393 67.7014 60.3193 68.0747 60.3193 68.5347V71.5747H59.3693V70.5047H59.4093C59.336 70.7314 59.2226 70.9347 59.0693 71.1147C58.916 71.288 58.726 71.4247 58.4993 71.5247C58.2793 71.618 58.026 71.6647 57.7393 71.6647ZM64.873 71.5747L68.303 65.0047L68.323 65.4447H64.473V64.5247H69.273V65.3247L66.033 71.5747H64.873Z" fill="#667085"/>
<defs>
<filter id="filter0_d_8310_1160" x="0.5" y="0.574707" width="100" height="85.8501" filterUnits="userSpaceOnUse" color-interpolation-filters="sRGB">
<feFlood flood-opacity="0" result="BackgroundImageFix"/>
<feColorMatrix in="SourceAlpha" type="matrix" values="0 0 0 0 0 0 0 0 0 0 0 0 0 0 0 0 0 0 127 0" result="hardAlpha"/>
<feOffset dy="4"/>
<feGaussianBlur stdDeviation="2"/>
<feComposite in2="hardAlpha" operator="out"/>
<feColorMatrix type="matrix" values="0 0 0 0 0 0 0 0 0 0 0 0 0 0 0 0 0 0 0.25 0"/>
<feBlend mode="normal" in2="BackgroundImageFix" result="effect1_dropShadow_8310_1160"/>
<feBlend mode="normal" in="SourceGraphic" in2="effect1_dropShadow_8310_1160" result="shape"/>
</filter>
</defs>
</svg>
