<svg width="102" height="92" viewBox="0 0 102 92" fill="none" xmlns="http://www.w3.org/2000/svg">
<g filter="url(#filter0_d_8310_900)">
<path d="M5.49766 45.8797C4.67727 44.4665 4.2671 43.7594 4.10655 43.0082C3.96448 42.3433 3.96448 41.6565 4.10655 40.9916C4.2671 40.2404 4.67727 39.5333 5.49766 38.1201L25.371 3.87978C26.1914 2.46638 26.6016 1.75968 27.1754 1.2457C27.6832 0.790942 28.2813 0.447387 28.9311 0.237394C29.6655 -2.168e-07 30.4859 0 32.1266 0H71.8732C73.5143 0 74.3343 -2.168e-07 75.069 0.237394C75.7185 0.447387 76.3167 0.790942 76.8247 1.2457C77.3985 1.75968 77.8085 2.46638 78.6291 3.87978L98.5023 38.1201C99.3228 39.5333 99.7328 40.2404 99.8932 40.9916C100.036 41.6565 100.036 42.3433 99.8932 43.0082C99.7328 43.7594 99.3228 44.4665 98.5023 45.8797L78.6291 80.1202C77.8085 81.5334 77.3985 82.24 76.8247 82.7541C76.3167 83.209 75.7185 83.5524 75.069 83.7624C74.3343 84 73.5143 84 71.8732 84H32.1266C30.4859 84 29.6655 84 28.9311 83.7624C28.2813 83.5524 27.6832 83.209 27.1754 82.7541C26.6016 82.24 26.1914 81.5334 25.371 80.1202L5.49766 45.8797Z" fill="white"/>
</g>
<g clip-path="url(#clip0_8310_900)">
<path d="M56.2525 23.2959L56.5876 22.6493C56.694 22.4416 56.7931 22.2375 56.8862 22.0293C57.0689 21.6147 57.2182 21.1937 57.3123 20.7777C57.5036 19.938 57.404 19.1678 56.8935 18.5975C56.3831 18.0157 55.5402 17.6253 54.669 17.3532C52.8142 16.8194 50.9176 16.2254 49.0825 15.5287C48.6218 15.3538 48.1634 15.1721 47.7067 14.9785C47.257 14.7895 46.7694 14.5685 46.3232 14.2694C45.8822 13.9712 45.4197 13.574 45.1809 12.9649C45.0626 12.6654 45.0315 12.3266 45.0713 12.0188C45.1115 11.7102 45.2119 11.4293 45.3366 11.1791C45.596 10.6663 45.9142 10.2965 46.2009 9.89969L47.0936 8.73537L48.8977 6.43135L51.9692 2.56715L49.6277 2.5C49.6277 2.5 44.2941 7.40482 41.9134 10.5001C39.8436 13.1904 40.9741 15.5675 44.7183 17.1664C47.8784 18.5166 50.8363 19.5617 50.8363 19.5617C51.3459 19.8256 51.7084 20.2882 51.8289 20.8279C51.9495 21.3681 51.8162 21.9302 51.4632 22.3689L43.3156 32.5H51.4445L54.9019 25.8866L56.2525 23.2959Z" fill="#F2BB41"/>
<path d="M64.0727 17.7944C62.938 15.8963 60.9957 14.5576 58.7455 14.1224L50.7737 12.4417C50.4413 12.3778 50.1619 12.1668 50.0208 11.8737C49.8797 11.581 49.8948 11.2417 50.0605 10.9609L55.3599 2.66403L52.7787 2.59009L49.5154 6.90681L47.7721 9.24821L46.9151 10.4249C46.6393 10.8208 46.3352 11.2121 46.1676 11.5783C45.9891 11.9568 45.9443 12.3175 46.0731 12.617C46.1973 12.9239 46.5009 13.2092 46.8671 13.4385C47.2379 13.6732 47.6457 13.8498 48.0977 14.027C48.5424 14.2028 48.9936 14.3695 49.4479 14.5293C51.2734 15.1708 53.1121 15.6986 55.0143 16.1968C55.9896 16.4872 57.022 16.8762 57.8443 17.7438C58.2452 18.178 58.5443 18.7483 58.6579 19.3386C58.7748 19.9295 58.7365 20.5112 58.6342 21.0491C58.5265 21.5865 58.358 22.0915 58.1603 22.5727C58.0603 22.812 57.9525 23.049 57.842 23.2773L57.5206 23.9361L56.2325 26.5611L53.3097 32.5001H61.5495L64.6662 24.0247C65.4238 21.9636 65.2073 19.6924 64.0727 17.7944Z" fill="#F2BB41"/>
</g>
<path d="M17.0641 45.5V37.04H18.2161V43.832H17.9521L23.0761 37.04H24.0121V45.5H22.8601V38.708H23.1121L18.0001 45.5H17.0641ZM28.502 45.608C27.902 45.608 27.382 45.484 26.942 45.236C26.51 44.98 26.174 44.624 25.934 44.168C25.694 43.704 25.574 43.16 25.574 42.536C25.574 41.92 25.694 41.388 25.934 40.94C26.174 40.492 26.51 40.148 26.942 39.908C27.382 39.66 27.902 39.536 28.502 39.536C28.87 39.536 29.234 39.6 29.594 39.728C29.954 39.848 30.25 40.024 30.482 40.256L30.098 41.108C29.882 40.9 29.638 40.748 29.366 40.652C29.094 40.548 28.838 40.496 28.598 40.496C28.03 40.496 27.59 40.676 27.278 41.036C26.974 41.388 26.822 41.892 26.822 42.548C26.822 43.204 26.974 43.72 27.278 44.096C27.59 44.464 28.03 44.648 28.598 44.648C28.838 44.648 29.094 44.6 29.366 44.504C29.638 44.4 29.882 44.244 30.098 44.036L30.482 44.9C30.25 45.116 29.95 45.288 29.582 45.416C29.222 45.544 28.862 45.608 28.502 45.608ZM31.6522 45.5V39.644H36.9562V45.5H35.7442V40.616H32.8642V45.5H31.6522ZM41.3215 45.608C40.7295 45.608 40.2175 45.484 39.7855 45.236C39.3615 44.988 39.0295 44.636 38.7895 44.18C38.5495 43.724 38.4295 43.188 38.4295 42.572C38.4295 41.948 38.5495 41.412 38.7895 40.964C39.0295 40.508 39.3615 40.156 39.7855 39.908C40.2175 39.66 40.7295 39.536 41.3215 39.536C41.9055 39.536 42.4095 39.66 42.8335 39.908C43.2655 40.156 43.6015 40.508 43.8415 40.964C44.0815 41.42 44.2015 41.956 44.2015 42.572C44.2015 43.188 44.0815 43.724 43.8415 44.18C43.6015 44.636 43.2655 44.988 42.8335 45.236C42.4095 45.484 41.9055 45.608 41.3215 45.608ZM41.3095 44.672C41.8135 44.672 42.2175 44.492 42.5215 44.132C42.8255 43.772 42.9775 43.252 42.9775 42.572C42.9775 41.884 42.8255 41.364 42.5215 41.012C42.2175 40.66 41.8135 40.484 41.3095 40.484C40.8135 40.484 40.4135 40.66 40.1095 41.012C39.8055 41.364 39.6535 41.884 39.6535 42.572C39.6535 43.252 39.8055 43.772 40.1095 44.132C40.4135 44.492 40.8135 44.672 41.3095 44.672ZM45.3221 45.656L44.9141 44.696C45.1781 44.592 45.3981 44.456 45.5741 44.288C45.7581 44.12 45.9021 43.908 46.0061 43.652C46.1101 43.388 46.1861 43.064 46.2341 42.68C46.2821 42.296 46.3061 41.832 46.3061 41.288V39.644H50.7701V45.5H49.5581V40.616H47.4341V41.324C47.4341 41.988 47.3941 42.568 47.3141 43.064C47.2341 43.552 47.1101 43.968 46.9421 44.312C46.7741 44.656 46.5541 44.936 46.2821 45.152C46.0181 45.368 45.6981 45.536 45.3221 45.656ZM52.5936 45.5V39.644H53.8056V41.672H55.4736C56.2256 41.672 56.7976 41.836 57.1896 42.164C57.5816 42.484 57.7776 42.952 57.7776 43.568C57.7776 43.96 57.6856 44.304 57.5016 44.6C57.3176 44.888 57.0536 45.112 56.7096 45.272C56.3656 45.424 55.9536 45.5 55.4736 45.5H52.5936ZM53.8056 44.672H55.3176C55.7336 44.672 56.0576 44.584 56.2896 44.408C56.5216 44.224 56.6376 43.944 56.6376 43.568C56.6376 43.2 56.5216 42.932 56.2896 42.764C56.0576 42.588 55.7336 42.5 55.3176 42.5H53.8056V44.672ZM61.2782 45.608C60.7662 45.608 60.2822 45.544 59.8262 45.416C59.3702 45.288 58.9982 45.108 58.7102 44.876L59.0582 44.06C59.3382 44.276 59.6702 44.44 60.0542 44.552C60.4462 44.656 60.8462 44.708 61.2542 44.708C61.7902 44.708 62.1782 44.636 62.4182 44.492C62.6582 44.348 62.7782 44.128 62.7782 43.832C62.7782 43.56 62.6822 43.352 62.4902 43.208C62.3062 43.056 62.0342 42.98 61.6742 42.98H60.2102V42.092H61.5422C61.8622 42.092 62.1142 42.024 62.2982 41.888C62.4822 41.744 62.5742 41.544 62.5742 41.288C62.5742 41.024 62.4662 40.816 62.2502 40.664C62.0422 40.512 61.6942 40.436 61.2062 40.436C60.8062 40.436 60.4382 40.488 60.1022 40.592C59.7662 40.688 59.4462 40.836 59.1422 41.036L58.7942 40.232C59.1222 40 59.5062 39.828 59.9462 39.716C60.3862 39.596 60.8662 39.536 61.3862 39.536C62.1462 39.536 62.7182 39.684 63.1022 39.98C63.4942 40.268 63.6902 40.668 63.6902 41.18C63.6902 41.556 63.5622 41.872 63.3062 42.128C63.0582 42.376 62.7262 42.524 62.3102 42.572V42.416C62.6382 42.424 62.9182 42.492 63.1502 42.62C63.3902 42.74 63.5742 42.908 63.7022 43.124C63.8382 43.34 63.9062 43.588 63.9062 43.868C63.9062 44.396 63.6822 44.82 63.2342 45.14C62.7862 45.452 62.1342 45.608 61.2782 45.608ZM65.9322 47.66L67.0842 45.092V45.608L64.5282 39.644H65.8242L67.7922 44.504H67.4562L69.4482 39.644H70.6962L67.2042 47.66H65.9322ZM71.6952 45.5V39.644H72.7992V44.3H72.4872L75.9672 39.644H76.9872V45.5H75.8832V40.844H76.2072L72.7152 45.5H71.6952ZM74.3352 38.9C73.9832 38.9 73.6672 38.84 73.3872 38.72C73.1072 38.592 72.8672 38.408 72.6672 38.168C72.4672 37.92 72.3192 37.624 72.2232 37.28L72.8832 37.052C73.0272 37.444 73.2152 37.732 73.4472 37.916C73.6872 38.1 73.9872 38.192 74.3472 38.192C74.7152 38.192 75.0152 38.104 75.2472 37.928C75.4792 37.744 75.6792 37.456 75.8472 37.064L76.4832 37.28C76.3552 37.656 76.1832 37.964 75.9672 38.204C75.7592 38.444 75.5192 38.62 75.2472 38.732C74.9752 38.844 74.6712 38.9 74.3352 38.9ZM80.0325 45.5V40.616H77.9685V39.644H83.3205V40.616H81.2445V45.5H80.0325ZM87.0177 45.608C86.3777 45.608 85.8257 45.488 85.3617 45.248C84.9057 45 84.5497 44.652 84.2937 44.204C84.0457 43.748 83.9217 43.208 83.9217 42.584C83.9217 41.976 84.0457 41.444 84.2937 40.988C84.5417 40.532 84.8817 40.176 85.3137 39.92C85.7457 39.664 86.2377 39.536 86.7897 39.536C87.3337 39.536 87.7977 39.656 88.1817 39.896C88.5737 40.128 88.8737 40.46 89.0817 40.892C89.2897 41.324 89.3937 41.84 89.3937 42.44V42.848H84.8817V42.104H88.5777L88.3737 42.272C88.3737 41.672 88.2417 41.208 87.9777 40.88C87.7137 40.552 87.3337 40.388 86.8377 40.388C86.4617 40.388 86.1417 40.476 85.8777 40.652C85.6217 40.828 85.4257 41.072 85.2897 41.384C85.1537 41.696 85.0857 42.06 85.0857 42.476V42.548C85.0857 43.012 85.1577 43.404 85.3017 43.724C85.4537 44.036 85.6737 44.272 85.9617 44.432C86.2497 44.592 86.6057 44.672 87.0297 44.672C87.3657 44.672 87.6937 44.62 88.0137 44.516C88.3417 44.404 88.6497 44.232 88.9377 44L89.2977 44.84C89.0337 45.08 88.6937 45.268 88.2777 45.404C87.8617 45.54 87.4417 45.608 87.0177 45.608ZM37.608 63.66L38.76 61.092V61.608L36.204 55.644H37.5L39.468 60.504H39.132L41.124 55.644H42.372L38.88 63.66H37.608ZM42.7557 61.656L42.3477 60.696C42.6117 60.592 42.8317 60.456 43.0077 60.288C43.1917 60.12 43.3357 59.908 43.4397 59.652C43.5437 59.388 43.6197 59.064 43.6677 58.68C43.7157 58.296 43.7397 57.832 43.7397 57.288V55.644H48.2037V61.5H46.9917V56.616H44.8677V57.324C44.8677 57.988 44.8277 58.568 44.7477 59.064C44.6677 59.552 44.5437 59.968 44.3757 60.312C44.2077 60.656 43.9877 60.936 43.7157 61.152C43.4517 61.368 43.1317 61.536 42.7557 61.656ZM50.0272 61.5V55.644H51.1312V60.3H50.8192L54.2992 55.644H55.3192V61.5H54.2152V56.844H54.5392L51.0472 61.5H50.0272ZM62.2045 63.06V61.5H57.1405V55.644H58.3525V60.54H61.0885V55.644H62.3005V60.54H63.2365V63.06H62.2045ZM65.065 63.66L66.217 61.092V61.608L63.661 55.644H64.957L66.925 60.504H66.589L68.581 55.644H69.829L66.337 63.66H65.065Z" fill="black"/>
<path d="M35.5409 76.5V69.45H40.1209V70.36H36.6009V76.5H35.5409ZM39.5375 76.63L39.1875 75.8C39.4208 75.7133 39.6142 75.6 39.7675 75.46C39.9208 75.3133 40.0408 75.13 40.1275 74.91C40.2142 74.69 40.2775 74.4233 40.3175 74.11C40.3575 73.79 40.3775 73.41 40.3775 72.97V71.58H44.2175V76.5H43.1575V72.43H41.3475V73C41.3475 73.54 41.3142 74.0133 41.2475 74.42C41.1875 74.8267 41.0875 75.1767 40.9475 75.47C40.8075 75.7633 40.6208 76.0067 40.3875 76.2C40.1542 76.3867 39.8708 76.53 39.5375 76.63ZM47.501 76.59C47.1543 76.59 46.841 76.5233 46.561 76.39C46.281 76.2567 46.061 76.0767 45.901 75.85C45.7477 75.6167 45.671 75.3567 45.671 75.07C45.671 74.7033 45.7677 74.4133 45.961 74.2C46.161 73.9867 46.4777 73.8333 46.911 73.74C47.3443 73.64 47.9177 73.59 48.631 73.59H49.211V74.25H48.661C48.301 74.25 47.9977 74.2633 47.751 74.29C47.5043 74.31 47.3043 74.35 47.151 74.41C46.9977 74.47 46.8843 74.55 46.811 74.65C46.7443 74.7433 46.711 74.8633 46.711 75.01C46.711 75.2633 46.801 75.4633 46.981 75.61C47.1677 75.75 47.411 75.82 47.711 75.82C47.971 75.82 48.201 75.7633 48.401 75.65C48.601 75.53 48.761 75.37 48.881 75.17C49.001 74.9633 49.061 74.7333 49.061 74.48V73.35C49.061 72.9767 48.9677 72.71 48.781 72.55C48.601 72.39 48.3177 72.31 47.931 72.31C47.6443 72.31 47.3577 72.35 47.071 72.43C46.791 72.51 46.4977 72.64 46.191 72.82L45.871 72.08C46.0643 71.9533 46.2777 71.8467 46.511 71.76C46.751 71.6733 46.9977 71.6067 47.251 71.56C47.511 71.5133 47.7643 71.49 48.011 71.49C48.4577 71.49 48.8343 71.56 49.141 71.7C49.4477 71.84 49.681 72.0533 49.841 72.34C50.001 72.6267 50.081 73 50.081 73.46V76.5H49.131V75.43H49.171C49.0977 75.6567 48.9843 75.86 48.831 76.04C48.6777 76.2133 48.4877 76.35 48.261 76.45C48.041 76.5433 47.7877 76.59 47.501 76.59ZM51.7206 76.5V71.58H54.3306C54.744 71.58 55.0806 71.63 55.3406 71.73C55.6073 71.83 55.8006 71.9767 55.9206 72.17C56.0473 72.3567 56.1106 72.59 56.1106 72.87C56.1106 73.1567 56.0173 73.4033 55.8306 73.61C55.6506 73.81 55.404 73.94 55.0906 74V73.93C55.3506 73.9567 55.5673 74.0233 55.7406 74.13C55.9206 74.2367 56.054 74.3767 56.1406 74.55C56.234 74.7167 56.2806 74.91 56.2806 75.13C56.2806 75.55 56.1173 75.8833 55.7906 76.13C55.4706 76.3767 55.0106 76.5 54.4106 76.5H51.7206ZM52.7106 75.82H54.3206C54.634 75.82 54.874 75.76 55.0406 75.64C55.2073 75.5133 55.2906 75.3267 55.2906 75.08C55.2906 74.8333 55.2073 74.65 55.0406 74.53C54.874 74.4033 54.634 74.34 54.3206 74.34H52.7106V75.82ZM52.7106 73.66H54.2406C54.514 73.66 54.7273 73.6 54.8806 73.48C55.0406 73.3533 55.1206 73.1767 55.1206 72.95C55.1206 72.7233 55.0406 72.5533 54.8806 72.44C54.7273 72.32 54.514 72.26 54.2406 72.26H52.7106V73.66ZM59.2393 76.59C58.8926 76.59 58.5793 76.5233 58.2993 76.39C58.0193 76.2567 57.7993 76.0767 57.6393 75.85C57.486 75.6167 57.4093 75.3567 57.4093 75.07C57.4093 74.7033 57.506 74.4133 57.6993 74.2C57.8993 73.9867 58.216 73.8333 58.6493 73.74C59.0826 73.64 59.656 73.59 60.3693 73.59H60.9493V74.25H60.3993C60.0393 74.25 59.736 74.2633 59.4893 74.29C59.2426 74.31 59.0426 74.35 58.8893 74.41C58.736 74.47 58.6226 74.55 58.5493 74.65C58.4826 74.7433 58.4493 74.8633 58.4493 75.01C58.4493 75.2633 58.5393 75.4633 58.7193 75.61C58.906 75.75 59.1493 75.82 59.4493 75.82C59.7093 75.82 59.9393 75.7633 60.1393 75.65C60.3393 75.53 60.4993 75.37 60.6193 75.17C60.7393 74.9633 60.7993 74.7333 60.7993 74.48V73.35C60.7993 72.9767 60.706 72.71 60.5193 72.55C60.3393 72.39 60.056 72.31 59.6693 72.31C59.3826 72.31 59.096 72.35 58.8093 72.43C58.5293 72.51 58.236 72.64 57.9293 72.82L57.6093 72.08C57.8026 71.9533 58.016 71.8467 58.2493 71.76C58.4893 71.6733 58.736 71.6067 58.9893 71.56C59.2493 71.5133 59.5026 71.49 59.7493 71.49C60.196 71.49 60.5726 71.56 60.8793 71.7C61.186 71.84 61.4193 72.0533 61.5793 72.34C61.7393 72.6267 61.8193 73 61.8193 73.46V76.5H60.8693V75.43H60.9093C60.836 75.6567 60.7226 75.86 60.5693 76.04C60.416 76.2133 60.226 76.35 59.9993 76.45C59.7793 76.5433 59.526 76.59 59.2393 76.59ZM68.263 76.59C67.9497 76.59 67.643 76.56 67.343 76.5C67.0497 76.44 66.773 76.35 66.513 76.23C66.2597 76.1033 66.033 75.95 65.833 75.77L66.203 74.95C66.523 75.21 66.8497 75.3967 67.183 75.51C67.523 75.6233 67.873 75.68 68.233 75.68C68.533 75.68 68.793 75.64 69.013 75.56C69.233 75.4733 69.403 75.3433 69.523 75.17C69.643 74.99 69.703 74.77 69.703 74.51C69.703 74.1367 69.5764 73.8567 69.323 73.67C69.0764 73.4767 68.713 73.38 68.233 73.38H67.133V72.49H68.113C68.393 72.49 68.6364 72.4433 68.843 72.35C69.0564 72.2567 69.2197 72.1233 69.333 71.95C69.453 71.77 69.513 71.5533 69.513 71.3C69.513 70.96 69.3964 70.7033 69.163 70.53C68.9364 70.3567 68.623 70.27 68.223 70.27C67.8697 70.27 67.533 70.33 67.213 70.45C66.8997 70.57 66.603 70.7633 66.323 71.03L65.953 70.22C66.233 69.94 66.5797 69.7267 66.993 69.58C67.413 69.4333 67.8464 69.36 68.293 69.36C68.7597 69.36 69.1597 69.4333 69.493 69.58C69.833 69.72 70.093 69.9267 70.273 70.2C70.453 70.4733 70.543 70.8033 70.543 71.19C70.543 71.6033 70.4297 71.9633 70.203 72.27C69.9764 72.57 69.663 72.7767 69.263 72.89V72.83C69.563 72.89 69.823 72.9967 70.043 73.15C70.263 73.3033 70.433 73.5 70.553 73.74C70.673 73.98 70.733 74.26 70.733 74.58C70.733 75 70.6297 75.36 70.423 75.66C70.223 75.96 69.9397 76.19 69.573 76.35C69.2064 76.51 68.7697 76.59 68.263 76.59Z" fill="#667085"/>
<defs>
<filter id="filter0_d_8310_900" x="0" y="0" width="104" height="92" filterUnits="userSpaceOnUse" color-interpolation-filters="sRGB">
<feFlood flood-opacity="0" result="BackgroundImageFix"/>
<feColorMatrix in="SourceAlpha" type="matrix" values="0 0 0 0 0 0 0 0 0 0 0 0 0 0 0 0 0 0 127 0" result="hardAlpha"/>
<feOffset dy="4"/>
<feGaussianBlur stdDeviation="2"/>
<feComposite in2="hardAlpha" operator="out"/>
<feColorMatrix type="matrix" values="0 0 0 0 0 0 0 0 0 0 0 0 0 0 0 0 0 0 0.25 0"/>
<feBlend mode="normal" in2="BackgroundImageFix" result="effect1_dropShadow_8310_900"/>
<feBlend mode="normal" in="SourceGraphic" in2="effect1_dropShadow_8310_900" result="shape"/>
</filter>
<clipPath id="clip0_8310_900">
<rect width="30" height="30" fill="white" transform="translate(38 2.5)"/>
</clipPath>
</defs>
</svg>
