<svg width="102" height="89" viewBox="0 0 102 89" fill="none" xmlns="http://www.w3.org/2000/svg">
<g filter="url(#filter0_d_8334_725)">
<path d="M5.45148 44.8639C4.65639 43.5542 4.25887 42.8988 4.10327 42.2026C3.96558 41.5864 3.96558 40.9499 4.10327 40.3337C4.25887 39.6375 4.65639 38.9822 5.45148 37.6724L24.7122 5.93899C25.5072 4.62907 25.9047 3.9741 26.4609 3.49776C26.953 3.0763 27.5327 2.75789 28.1625 2.56328C28.8742 2.34326 29.6693 2.34326 31.2595 2.34326H69.7806C71.3711 2.34326 72.1659 2.34326 72.8779 2.56328C73.5073 2.75789 74.0871 3.0763 74.5794 3.49776C75.1356 3.9741 75.533 4.62907 76.3282 5.93899L95.5887 37.6724C96.3839 38.9822 96.7813 39.6375 96.9368 40.3337C97.0747 40.9499 97.0747 41.5864 96.9368 42.2026C96.7813 42.8988 96.3839 43.5542 95.5887 44.8639L76.3282 76.5975C75.533 77.9073 75.1356 78.5621 74.5794 79.0386C74.0871 79.4602 73.5073 79.7784 72.8779 79.973C72.1659 80.1933 71.3711 80.1933 69.7806 80.1933H31.2595C29.6693 80.1933 28.8742 80.1933 28.1625 79.973C27.5327 79.7784 26.953 79.4602 26.4609 79.0386C25.9047 78.5621 25.5072 77.9073 24.7122 76.5975L5.45148 44.8639Z" fill="white"/>
</g>
<path d="M58.8718 10.7388L62.2121 17.4475C62.2711 17.5357 62.3002 17.6528 62.3293 17.741C62.5346 18.2688 62.6808 19.001 62.6808 19.4697V22.6628C62.6808 23.6594 62.0068 24.4797 61.0693 24.7141V26.5891C61.0693 27.4975 60.3371 28.2007 59.4577 28.2007C58.5493 28.2007 57.8461 27.4975 57.8461 26.5891V24.7722H45.0136V26.5891C45.0136 27.4975 44.3105 28.2007 43.4021 28.2007C42.5227 28.2007 41.7905 27.4975 41.7905 26.5891V24.7141C40.853 24.4797 40.179 23.6594 40.179 22.6628V19.4697C40.179 19.001 40.3252 18.2688 40.5305 17.741C40.5596 17.6528 40.5896 17.5357 40.6477 17.4475L43.988 10.7388C44.2515 10.241 44.9546 9.77222 45.5405 9.77222H57.3183C57.9043 9.77222 58.6083 10.241 58.8718 10.7388ZM45.3652 12.76L43.5783 16.8325C43.4902 16.9788 43.4902 17.155 43.4902 17.2722H59.3696C59.3696 17.155 59.3696 16.9788 59.2815 16.8325L57.4946 12.76C57.2602 12.2322 56.5571 11.7635 56.0002 11.7635H46.8596C46.3027 11.7635 45.5996 12.2322 45.3652 12.76ZM44.5749 22.6619C45.5124 22.6619 46.2446 21.8997 46.2446 20.9332C46.2446 19.9957 45.5124 19.2635 44.5749 19.2635C43.6374 19.2635 42.8461 19.9957 42.8461 20.9332C42.8461 21.8997 43.6374 22.6619 44.5749 22.6619ZM58.2858 22.6619C59.2233 22.6619 60.0146 21.8997 60.0146 20.9332C60.0146 19.9957 59.2233 19.2635 58.2858 19.2635C57.3483 19.2635 56.6161 19.9957 56.6161 20.9332C56.6161 21.8997 57.3483 22.6619 58.2858 22.6619Z" fill="#F2BB41"/>
<path d="M24.951 43V34.54H26.199V38.224H27.711L27.423 38.428L29.931 34.54H31.311L28.587 38.644L28.119 38.272C28.447 38.312 28.743 38.408 29.007 38.56C29.279 38.704 29.519 38.9 29.727 39.148C29.943 39.388 30.135 39.68 30.303 40.024L31.755 43H30.411L29.259 40.54C29.043 40.084 28.791 39.76 28.503 39.568C28.215 39.368 27.859 39.268 27.435 39.268H26.199V43H24.951ZM35.228 43.108C34.636 43.108 34.124 42.984 33.692 42.736C33.268 42.488 32.936 42.136 32.696 41.68C32.456 41.224 32.336 40.688 32.336 40.072C32.336 39.448 32.456 38.912 32.696 38.464C32.936 38.008 33.268 37.656 33.692 37.408C34.124 37.16 34.636 37.036 35.228 37.036C35.812 37.036 36.316 37.16 36.74 37.408C37.172 37.656 37.508 38.008 37.748 38.464C37.988 38.92 38.108 39.456 38.108 40.072C38.108 40.688 37.988 41.224 37.748 41.68C37.508 42.136 37.172 42.488 36.74 42.736C36.316 42.984 35.812 43.108 35.228 43.108ZM35.216 42.172C35.72 42.172 36.124 41.992 36.428 41.632C36.732 41.272 36.884 40.752 36.884 40.072C36.884 39.384 36.732 38.864 36.428 38.512C36.124 38.16 35.72 37.984 35.216 37.984C34.72 37.984 34.32 38.16 34.016 38.512C33.712 38.864 33.56 39.384 33.56 40.072C33.56 40.752 33.712 41.272 34.016 41.632C34.32 41.992 34.72 42.172 35.216 42.172ZM39.5978 43V37.144H40.8098V39.508H43.7258V37.144H44.9378V43H43.7258V40.468H40.8098V43H39.5978ZM47.9702 43V38.116H45.9062V37.144H51.2582V38.116H49.1822V43H47.9702ZM52.2426 45.16V37.144H53.4306V38.464H53.2986C53.4266 38.032 53.6786 37.688 54.0546 37.432C54.4306 37.168 54.8746 37.036 55.3866 37.036C55.9066 37.036 56.3586 37.16 56.7426 37.408C57.1346 37.656 57.4346 38.004 57.6426 38.452C57.8586 38.9 57.9666 39.44 57.9666 40.072C57.9666 40.688 57.8586 41.228 57.6426 41.692C57.4346 42.148 57.1386 42.5 56.7546 42.748C56.3706 42.988 55.9146 43.108 55.3866 43.108C54.8826 43.108 54.4426 42.98 54.0666 42.724C53.6906 42.468 53.4386 42.128 53.3106 41.704H53.4546V45.16H52.2426ZM55.0866 42.172C55.5906 42.172 55.9906 41.992 56.2866 41.632C56.5906 41.272 56.7426 40.752 56.7426 40.072C56.7426 39.384 56.5906 38.864 56.2866 38.512C55.9906 38.16 55.5906 37.984 55.0866 37.984C54.5906 37.984 54.1906 38.16 53.8866 38.512C53.5826 38.864 53.4306 39.384 53.4306 40.072C53.4306 40.752 53.5826 41.272 53.8866 41.632C54.1906 41.992 54.5906 42.172 55.0866 42.172ZM62.0054 43.108C61.4134 43.108 60.9014 42.984 60.4694 42.736C60.0454 42.488 59.7134 42.136 59.4734 41.68C59.2334 41.224 59.1134 40.688 59.1134 40.072C59.1134 39.448 59.2334 38.912 59.4734 38.464C59.7134 38.008 60.0454 37.656 60.4694 37.408C60.9014 37.16 61.4134 37.036 62.0054 37.036C62.5894 37.036 63.0934 37.16 63.5174 37.408C63.9494 37.656 64.2854 38.008 64.5254 38.464C64.7654 38.92 64.8854 39.456 64.8854 40.072C64.8854 40.688 64.7654 41.224 64.5254 41.68C64.2854 42.136 63.9494 42.488 63.5174 42.736C63.0934 42.984 62.5894 43.108 62.0054 43.108ZM61.9934 42.172C62.4974 42.172 62.9014 41.992 63.2054 41.632C63.5094 41.272 63.6614 40.752 63.6614 40.072C63.6614 39.384 63.5094 38.864 63.2054 38.512C62.9014 38.16 62.4974 37.984 61.9934 37.984C61.4974 37.984 61.0974 38.16 60.7934 38.512C60.4894 38.864 60.3374 39.384 60.3374 40.072C60.3374 40.752 60.4894 41.272 60.7934 41.632C61.0974 41.992 61.4974 42.172 61.9934 42.172ZM66.0059 43.156L65.5979 42.196C65.8619 42.092 66.0819 41.956 66.2579 41.788C66.4419 41.62 66.5859 41.408 66.6899 41.152C66.7939 40.888 66.8699 40.564 66.9179 40.18C66.9659 39.796 66.9899 39.332 66.9899 38.788V37.144H71.4539V43H70.2419V38.116H68.1179V38.824C68.1179 39.488 68.0779 40.068 67.9979 40.564C67.9179 41.052 67.7939 41.468 67.6259 41.812C67.4579 42.156 67.2379 42.436 66.9659 42.652C66.7019 42.868 66.3819 43.036 66.0059 43.156ZM73.2775 43V37.144H74.4895V39.172H76.1575C76.9095 39.172 77.4815 39.336 77.8735 39.664C78.2655 39.984 78.4615 40.452 78.4615 41.068C78.4615 41.46 78.3695 41.804 78.1855 42.1C78.0015 42.388 77.7375 42.612 77.3935 42.772C77.0495 42.924 76.6375 43 76.1575 43H73.2775ZM74.4895 42.172H76.0015C76.4175 42.172 76.7415 42.084 76.9735 41.908C77.2055 41.724 77.3215 41.444 77.3215 41.068C77.3215 40.7 77.2055 40.432 76.9735 40.264C76.7415 40.088 76.4175 40 76.0015 40H74.4895V42.172ZM17.6792 59.108C17.0872 59.108 16.5752 58.984 16.1432 58.736C15.7192 58.488 15.3872 58.136 15.1472 57.68C14.9072 57.224 14.7872 56.688 14.7872 56.072C14.7872 55.448 14.9072 54.912 15.1472 54.464C15.3872 54.008 15.7192 53.656 16.1432 53.408C16.5752 53.16 17.0872 53.036 17.6792 53.036C18.2632 53.036 18.7672 53.16 19.1912 53.408C19.6232 53.656 19.9592 54.008 20.1992 54.464C20.4392 54.92 20.5592 55.456 20.5592 56.072C20.5592 56.688 20.4392 57.224 20.1992 57.68C19.9592 58.136 19.6232 58.488 19.1912 58.736C18.7672 58.984 18.2632 59.108 17.6792 59.108ZM17.6672 58.172C18.1712 58.172 18.5752 57.992 18.8792 57.632C19.1832 57.272 19.3352 56.752 19.3352 56.072C19.3352 55.384 19.1832 54.864 18.8792 54.512C18.5752 54.16 18.1712 53.984 17.6672 53.984C17.1712 53.984 16.7712 54.16 16.4672 54.512C16.1632 54.864 16.0112 55.384 16.0112 56.072C16.0112 56.752 16.1632 57.272 16.4672 57.632C16.7712 57.992 17.1712 58.172 17.6672 58.172ZM23.273 59V54.116H21.209V53.144H26.561V54.116H24.485V59H23.273ZM27.5333 59V53.144H32.8373V59H31.6253V54.116H28.7453V59H27.5333ZM34.6586 61.16V53.144H35.8466V54.464H35.7146C35.8426 54.032 36.0946 53.688 36.4706 53.432C36.8466 53.168 37.2906 53.036 37.8026 53.036C38.3226 53.036 38.7746 53.16 39.1586 53.408C39.5506 53.656 39.8506 54.004 40.0586 54.452C40.2746 54.9 40.3826 55.44 40.3826 56.072C40.3826 56.688 40.2746 57.228 40.0586 57.692C39.8506 58.148 39.5546 58.5 39.1706 58.748C38.7866 58.988 38.3306 59.108 37.8026 59.108C37.2986 59.108 36.8586 58.98 36.4826 58.724C36.1066 58.468 35.8546 58.128 35.7266 57.704H35.8706V61.16H34.6586ZM37.5026 58.172C38.0066 58.172 38.4066 57.992 38.7026 57.632C39.0066 57.272 39.1586 56.752 39.1586 56.072C39.1586 55.384 39.0066 54.864 38.7026 54.512C38.4066 54.16 38.0066 53.984 37.5026 53.984C37.0066 53.984 36.6066 54.16 36.3026 54.512C35.9986 54.864 35.8466 55.384 35.8466 56.072C35.8466 56.752 35.9986 57.272 36.3026 57.632C36.6066 57.992 37.0066 58.172 37.5026 58.172ZM43.7494 59.108C43.3414 59.108 42.9734 59.028 42.6454 58.868C42.3254 58.708 42.0734 58.492 41.8894 58.22C41.7054 57.948 41.6134 57.64 41.6134 57.296C41.6134 56.864 41.7214 56.524 41.9374 56.276C42.1614 56.02 42.5254 55.84 43.0294 55.736C43.5414 55.624 44.2294 55.568 45.0934 55.568H45.6574V56.312H45.1054C44.6734 56.312 44.3094 56.328 44.0134 56.36C43.7174 56.392 43.4814 56.444 43.3054 56.516C43.1294 56.58 43.0014 56.672 42.9214 56.792C42.8494 56.912 42.8134 57.056 42.8134 57.224C42.8134 57.528 42.9174 57.776 43.1254 57.968C43.3334 58.152 43.6214 58.244 43.9894 58.244C44.2854 58.244 44.5454 58.176 44.7694 58.04C44.9934 57.896 45.1694 57.704 45.2974 57.464C45.4334 57.224 45.5014 56.948 45.5014 56.636V55.256C45.5014 54.8 45.4054 54.472 45.2134 54.272C45.0214 54.072 44.7054 53.972 44.2654 53.972C43.9294 53.972 43.5934 54.024 43.2574 54.128C42.9214 54.224 42.5774 54.38 42.2254 54.596L41.8534 53.744C42.0614 53.6 42.3014 53.476 42.5734 53.372C42.8454 53.268 43.1294 53.188 43.4254 53.132C43.7294 53.068 44.0214 53.036 44.3014 53.036C44.8374 53.036 45.2774 53.12 45.6214 53.288C45.9734 53.456 46.2334 53.712 46.4014 54.056C46.5694 54.4 46.6534 54.844 46.6534 55.388V59H45.5134V57.692H45.6214C45.5574 57.988 45.4374 58.244 45.2614 58.46C45.0934 58.668 44.8814 58.828 44.6254 58.94C44.3694 59.052 44.0774 59.108 43.7494 59.108ZM48.4513 59V53.144H51.4393C51.9193 53.144 52.3113 53.204 52.6153 53.324C52.9273 53.444 53.1553 53.62 53.2993 53.852C53.4433 54.076 53.5153 54.352 53.5153 54.68C53.5153 55.056 53.3873 55.372 53.1313 55.628C52.8753 55.876 52.5393 56.024 52.1233 56.072V55.916C52.4593 55.924 52.7433 55.992 52.9753 56.12C53.2153 56.248 53.3953 56.42 53.5153 56.636C53.6433 56.844 53.7073 57.088 53.7073 57.368C53.7073 57.872 53.5193 58.272 53.1433 58.568C52.7673 58.856 52.2313 59 51.5353 59H48.4513ZM49.5913 58.22H51.4633C51.8233 58.22 52.0993 58.144 52.2913 57.992C52.4913 57.832 52.5913 57.604 52.5913 57.308C52.5913 57.012 52.4913 56.788 52.2913 56.636C52.0993 56.484 51.8233 56.408 51.4633 56.408H49.5913V58.22ZM49.5913 55.628H51.3553C51.6833 55.628 51.9353 55.552 52.1113 55.4C52.2953 55.248 52.3873 55.04 52.3873 54.776C52.3873 54.504 52.2953 54.296 52.1113 54.152C51.9353 54.008 51.6833 53.936 51.3553 53.936H49.5913V55.628ZM54.8673 59.156L54.4593 58.196C54.7233 58.092 54.9433 57.956 55.1193 57.788C55.3033 57.62 55.4473 57.408 55.5513 57.152C55.6553 56.888 55.7313 56.564 55.7793 56.18C55.8273 55.796 55.8513 55.332 55.8513 54.788V53.144H60.3153V59H59.1033V54.116H56.9793V54.824C56.9793 55.488 56.9393 56.068 56.8593 56.564C56.7793 57.052 56.6553 57.468 56.4873 57.812C56.3193 58.156 56.0993 58.436 55.8273 58.652C55.5633 58.868 55.2433 59.036 54.8673 59.156ZM64.8988 59.108C64.2588 59.108 63.7068 58.988 63.2428 58.748C62.7868 58.5 62.4308 58.152 62.1748 57.704C61.9268 57.248 61.8028 56.708 61.8028 56.084C61.8028 55.476 61.9268 54.944 62.1748 54.488C62.4228 54.032 62.7628 53.676 63.1948 53.42C63.6268 53.164 64.1188 53.036 64.6708 53.036C65.2148 53.036 65.6788 53.156 66.0628 53.396C66.4548 53.628 66.7548 53.96 66.9628 54.392C67.1708 54.824 67.2748 55.34 67.2748 55.94V56.348H62.7628V55.604H66.4588L66.2548 55.772C66.2548 55.172 66.1228 54.708 65.8588 54.38C65.5948 54.052 65.2148 53.888 64.7188 53.888C64.3428 53.888 64.0228 53.976 63.7588 54.152C63.5028 54.328 63.3068 54.572 63.1708 54.884C63.0348 55.196 62.9668 55.56 62.9668 55.976V56.048C62.9668 56.512 63.0388 56.904 63.1828 57.224C63.3348 57.536 63.5548 57.772 63.8428 57.932C64.1308 58.092 64.4868 58.172 64.9108 58.172C65.2468 58.172 65.5748 58.12 65.8948 58.016C66.2228 57.904 66.5308 57.732 66.8188 57.5L67.1788 58.34C66.9148 58.58 66.5748 58.768 66.1588 58.904C65.7428 59.04 65.3228 59.108 64.8988 59.108ZM68.713 59V53.144H69.925V55.508H72.841V53.144H74.053V59H72.841V56.468H69.925V59H68.713ZM75.8615 59V53.144H76.9655V57.8H76.6535L80.1335 53.144H81.1535V59H80.0495V54.344H80.3735L76.8815 59H75.8615ZM82.4827 59L83.3707 57.464C83.5227 57.192 83.7147 56.976 83.9467 56.816C84.1787 56.648 84.4147 56.564 84.6547 56.564H84.8467V56.684C84.4067 56.684 84.0267 56.616 83.7067 56.48C83.3947 56.344 83.1547 56.144 82.9867 55.88C82.8267 55.616 82.7467 55.3 82.7467 54.932C82.7467 54.388 82.9307 53.956 83.2987 53.636C83.6667 53.308 84.2147 53.144 84.9427 53.144H87.7387V59H86.6107V56.864H85.8547C85.5747 56.864 85.3347 56.936 85.1347 57.08C84.9347 57.224 84.7707 57.408 84.6427 57.632L83.8627 59H82.4827ZM85.1947 56.036H86.6107V53.972H85.1947C84.7547 53.972 84.4307 54.064 84.2227 54.248C84.0147 54.424 83.9107 54.672 83.9107 54.992C83.9107 55.32 84.0147 55.576 84.2227 55.76C84.4307 55.944 84.7547 56.036 85.1947 56.036Z" fill="black"/>
<path d="M30.9727 74V66.95H35.5527V67.86H32.0327V74H30.9727ZM34.9694 74.13L34.6194 73.3C34.8527 73.2133 35.046 73.1 35.1994 72.96C35.3527 72.8133 35.4727 72.63 35.5594 72.41C35.646 72.19 35.7094 71.9233 35.7494 71.61C35.7894 71.29 35.8094 70.91 35.8094 70.47V69.08H39.6494V74H38.5894V69.93H36.7794V70.5C36.7794 71.04 36.746 71.5133 36.6794 71.92C36.6194 72.3267 36.5194 72.6767 36.3794 72.97C36.2394 73.2633 36.0527 73.5067 35.8194 73.7C35.586 73.8867 35.3027 74.03 34.9694 74.13ZM42.9329 74.09C42.5862 74.09 42.2729 74.0233 41.9929 73.89C41.7129 73.7567 41.4929 73.5767 41.3329 73.35C41.1795 73.1167 41.1029 72.8567 41.1029 72.57C41.1029 72.2033 41.1995 71.9133 41.3929 71.7C41.5929 71.4867 41.9095 71.3333 42.3429 71.24C42.7762 71.14 43.3495 71.09 44.0629 71.09H44.6429V71.75H44.0929C43.7329 71.75 43.4295 71.7633 43.1829 71.79C42.9362 71.81 42.7362 71.85 42.5829 71.91C42.4295 71.97 42.3162 72.05 42.2429 72.15C42.1762 72.2433 42.1429 72.3633 42.1429 72.51C42.1429 72.7633 42.2329 72.9633 42.4129 73.11C42.5995 73.25 42.8429 73.32 43.1429 73.32C43.4029 73.32 43.6329 73.2633 43.8329 73.15C44.0329 73.03 44.1929 72.87 44.3129 72.67C44.4329 72.4633 44.4929 72.2333 44.4929 71.98V70.85C44.4929 70.4767 44.3995 70.21 44.2129 70.05C44.0329 69.89 43.7495 69.81 43.3629 69.81C43.0762 69.81 42.7895 69.85 42.5029 69.93C42.2229 70.01 41.9295 70.14 41.6229 70.32L41.3029 69.58C41.4962 69.4533 41.7095 69.3467 41.9429 69.26C42.1829 69.1733 42.4295 69.1067 42.6829 69.06C42.9429 69.0133 43.1962 68.99 43.4429 68.99C43.8895 68.99 44.2662 69.06 44.5729 69.2C44.8795 69.34 45.1129 69.5533 45.2729 69.84C45.4329 70.1267 45.5129 70.5 45.5129 70.96V74H44.5629V72.93H44.6029C44.5295 73.1567 44.4162 73.36 44.2629 73.54C44.1095 73.7133 43.9195 73.85 43.6929 73.95C43.4729 74.0433 43.2195 74.09 42.9329 74.09ZM47.1525 74V69.08H49.7625C50.1758 69.08 50.5125 69.13 50.7725 69.23C51.0391 69.33 51.2325 69.4767 51.3525 69.67C51.4791 69.8567 51.5425 70.09 51.5425 70.37C51.5425 70.6567 51.4491 70.9033 51.2625 71.11C51.0825 71.31 50.8358 71.44 50.5225 71.5V71.43C50.7825 71.4567 50.9991 71.5233 51.1725 71.63C51.3525 71.7367 51.4858 71.8767 51.5725 72.05C51.6658 72.2167 51.7125 72.41 51.7125 72.63C51.7125 73.05 51.5491 73.3833 51.2225 73.63C50.9025 73.8767 50.4425 74 49.8425 74H47.1525ZM48.1425 73.32H49.7525C50.0658 73.32 50.3058 73.26 50.4725 73.14C50.6391 73.0133 50.7225 72.8267 50.7225 72.58C50.7225 72.3333 50.6391 72.15 50.4725 72.03C50.3058 71.9033 50.0658 71.84 49.7525 71.84H48.1425V73.32ZM48.1425 71.16H49.6725C49.9458 71.16 50.1591 71.1 50.3125 70.98C50.4725 70.8533 50.5525 70.6767 50.5525 70.45C50.5525 70.2233 50.4725 70.0533 50.3125 69.94C50.1591 69.82 49.9458 69.76 49.6725 69.76H48.1425V71.16ZM54.6712 74.09C54.3245 74.09 54.0112 74.0233 53.7312 73.89C53.4512 73.7567 53.2312 73.5767 53.0712 73.35C52.9178 73.1167 52.8412 72.8567 52.8412 72.57C52.8412 72.2033 52.9378 71.9133 53.1312 71.7C53.3312 71.4867 53.6478 71.3333 54.0812 71.24C54.5145 71.14 55.0878 71.09 55.8012 71.09H56.3812V71.75H55.8312C55.4712 71.75 55.1678 71.7633 54.9212 71.79C54.6745 71.81 54.4745 71.85 54.3212 71.91C54.1678 71.97 54.0545 72.05 53.9812 72.15C53.9145 72.2433 53.8812 72.3633 53.8812 72.51C53.8812 72.7633 53.9712 72.9633 54.1512 73.11C54.3378 73.25 54.5812 73.32 54.8812 73.32C55.1412 73.32 55.3712 73.2633 55.5712 73.15C55.7712 73.03 55.9312 72.87 56.0512 72.67C56.1712 72.4633 56.2312 72.2333 56.2312 71.98V70.85C56.2312 70.4767 56.1378 70.21 55.9512 70.05C55.7712 69.89 55.4878 69.81 55.1012 69.81C54.8145 69.81 54.5278 69.85 54.2412 69.93C53.9612 70.01 53.6678 70.14 53.3612 70.32L53.0412 69.58C53.2345 69.4533 53.4478 69.3467 53.6812 69.26C53.9212 69.1733 54.1678 69.1067 54.4212 69.06C54.6812 69.0133 54.9345 68.99 55.1812 68.99C55.6278 68.99 56.0045 69.06 56.3112 69.2C56.6178 69.34 56.8512 69.5533 57.0112 69.84C57.1712 70.1267 57.2512 70.5 57.2512 70.96V74H56.3012V72.93H56.3412C56.2678 73.1567 56.1545 73.36 56.0012 73.54C55.8478 73.7133 55.6578 73.85 55.4312 73.95C55.2112 74.0433 54.9578 74.09 54.6712 74.09ZM61.8449 74V73.1H63.5749V67.83L64.1149 67.86L62.1949 69.06L61.7549 68.26L63.8649 66.95H64.6349V73.1H66.2449V74H61.8449ZM69.801 74.09C69.2543 74.09 68.791 73.9533 68.411 73.68C68.0377 73.4 67.7543 72.99 67.561 72.45C67.3677 71.91 67.271 71.25 67.271 70.47C67.271 69.6833 67.3677 69.0233 67.561 68.49C67.7543 67.95 68.0377 67.5433 68.411 67.27C68.791 66.9967 69.2543 66.86 69.801 66.86C70.3543 66.86 70.8177 66.9967 71.191 67.27C71.571 67.5433 71.8543 67.9467 72.041 68.48C72.2343 69.0133 72.331 69.6733 72.331 70.46C72.331 71.24 72.2343 71.9033 72.041 72.45C71.8477 72.99 71.5643 73.4 71.191 73.68C70.8177 73.9533 70.3543 74.09 69.801 74.09ZM69.801 73.2C70.3077 73.2 70.681 72.98 70.921 72.54C71.1677 72.0933 71.291 71.4 71.291 70.46C71.291 69.52 71.1677 68.8333 70.921 68.4C70.681 67.9667 70.3077 67.75 69.801 67.75C69.301 67.75 68.9277 67.97 68.681 68.41C68.4343 68.8433 68.311 69.5267 68.311 70.46C68.311 71.4 68.431 72.0933 68.671 72.54C68.9177 72.98 69.2943 73.2 69.801 73.2Z" fill="#667085"/>
<defs>
<filter id="filter0_d_8334_725" x="0" y="2.34326" width="101.04" height="85.8501" filterUnits="userSpaceOnUse" color-interpolation-filters="sRGB">
<feFlood flood-opacity="0" result="BackgroundImageFix"/>
<feColorMatrix in="SourceAlpha" type="matrix" values="0 0 0 0 0 0 0 0 0 0 0 0 0 0 0 0 0 0 127 0" result="hardAlpha"/>
<feOffset dy="4"/>
<feGaussianBlur stdDeviation="2"/>
<feComposite in2="hardAlpha" operator="out"/>
<feColorMatrix type="matrix" values="0 0 0 0 0 0 0 0 0 0 0 0 0 0 0 0 0 0 0.25 0"/>
<feBlend mode="normal" in2="BackgroundImageFix" result="effect1_dropShadow_8334_725"/>
<feBlend mode="normal" in="SourceGraphic" in2="effect1_dropShadow_8334_725" result="shape"/>
</filter>
</defs>
</svg>
