<svg width="101" height="87" viewBox="0 0 101 87" fill="none" xmlns="http://www.w3.org/2000/svg">
<g filter="url(#filter0_d_8358_581)">
<path d="M5.93525 43.0953C5.14905 41.7856 4.75597 41.1303 4.60211 40.4341C4.46596 39.8178 4.46596 39.1814 4.60211 38.5652C4.75597 37.8689 5.14905 37.2136 5.93525 35.9039L24.9806 4.17043C25.7667 2.86051 26.1598 2.20555 26.7098 1.72921C27.1964 1.30774 27.7696 0.989339 28.3923 0.79472C29.0961 0.574707 29.8823 0.574707 31.4547 0.574707H69.5452C71.1178 0.574707 71.9037 0.574707 72.6078 0.79472C73.2302 0.989339 73.8035 1.30774 74.2903 1.72921C74.8402 2.20555 75.2332 2.86051 76.0195 4.17043L95.0647 35.9039C95.851 37.2136 96.244 37.8689 96.3977 38.5652C96.5341 39.1814 96.5341 39.8178 96.3977 40.4341C96.244 41.1303 95.851 41.7856 95.0647 43.0953L76.0195 74.829C75.2332 76.1387 74.8402 76.7936 74.2903 77.27C73.8035 77.6916 73.2302 78.0098 72.6078 78.2045C71.9037 78.4247 71.1178 78.4247 69.5452 78.4247H31.4547C29.8823 78.4247 29.0961 78.4247 28.3923 78.2045C27.7696 78.0098 27.1964 77.6916 26.7098 77.27C26.1598 76.7936 25.7667 76.1387 24.9806 74.829L5.93525 43.0953Z" fill="white"/>
</g>
<path d="M60.875 29.6997H42.125C42.125 29.6997 40.25 29.6372 40.25 24.6997H62.75C62.75 29.6372 60.875 29.6997 60.875 29.6997Z" fill="#E08838"/>
<path d="M61.5 3.44971H41.5V24.6997H61.5V3.44971Z" fill="#F2BB41"/>
<path d="M57.75 10.9497H47.75V12.1997H57.75V10.9497Z" fill="#E08838"/>
<path d="M57.75 13.4497H47.75V14.6997H57.75V13.4497Z" fill="#E08838"/>
<path d="M57.75 15.9497H47.75V17.1997H57.75V15.9497Z" fill="#E08838"/>
<path d="M57.75 18.4497H47.75V19.6997H57.75V18.4497Z" fill="#E08838"/>
<path d="M57.75 20.9497H47.75V22.1997H57.75V20.9497Z" fill="#E08838"/>
<path d="M46.5 10.9497H45.25V12.1997H46.5V10.9497Z" fill="#E08838"/>
<path d="M46.5 13.4497H45.25V14.6997H46.5V13.4497Z" fill="#E08838"/>
<path d="M46.5 15.9497H45.25V17.1997H46.5V15.9497Z" fill="#E08838"/>
<path d="M46.5 18.4497H45.25V19.6997H46.5V18.4497Z" fill="#E08838"/>
<path d="M46.5 20.9497H45.25V22.1997H46.5V20.9497Z" fill="#E08838"/>
<path d="M12.566 41V32.54H13.814V36.344H13.838L17.762 32.54H19.298L14.702 36.944L14.726 36.332L19.538 41H17.978L13.838 37.052H13.814V41H12.566ZM22.1158 41.108C21.6438 41.108 21.2478 41.02 20.9278 40.844C20.6158 40.668 20.3798 40.408 20.2198 40.064C20.0678 39.712 19.9918 39.272 19.9918 38.744V35.144H21.2038V38.756C21.2038 39.068 21.2438 39.328 21.3238 39.536C21.4118 39.744 21.5438 39.896 21.7198 39.992C21.9038 40.088 22.1318 40.136 22.4038 40.136C22.7078 40.136 22.9758 40.068 23.2078 39.932C23.4398 39.796 23.6198 39.6 23.7478 39.344C23.8758 39.088 23.9398 38.792 23.9398 38.456V35.144H25.1518V41H23.9758V39.716H24.1318C23.9718 40.164 23.7158 40.508 23.3638 40.748C23.0118 40.988 22.5958 41.108 22.1158 41.108ZM26.8598 41V35.144H28.0358V36.548H27.9158C28.0438 36.068 28.2718 35.704 28.5998 35.456C28.9358 35.208 29.3798 35.064 29.9318 35.024L30.3278 35L30.4118 36.032L29.6798 36.104C29.1598 36.152 28.7638 36.316 28.4918 36.596C28.2198 36.876 28.0838 37.26 28.0838 37.748V41H26.8598ZM33.1498 41.108C32.7418 41.108 32.3738 41.028 32.0458 40.868C31.7258 40.708 31.4738 40.492 31.2898 40.22C31.1058 39.948 31.0138 39.64 31.0138 39.296C31.0138 38.864 31.1218 38.524 31.3378 38.276C31.5618 38.02 31.9258 37.84 32.4298 37.736C32.9418 37.624 33.6298 37.568 34.4938 37.568H35.0578V38.312H34.5058C34.0738 38.312 33.7098 38.328 33.4138 38.36C33.1178 38.392 32.8818 38.444 32.7058 38.516C32.5298 38.58 32.4018 38.672 32.3218 38.792C32.2498 38.912 32.2138 39.056 32.2138 39.224C32.2138 39.528 32.3178 39.776 32.5258 39.968C32.7338 40.152 33.0218 40.244 33.3898 40.244C33.6858 40.244 33.9458 40.176 34.1698 40.04C34.3938 39.896 34.5698 39.704 34.6978 39.464C34.8338 39.224 34.9018 38.948 34.9018 38.636V37.256C34.9018 36.8 34.8058 36.472 34.6138 36.272C34.4218 36.072 34.1058 35.972 33.6658 35.972C33.3298 35.972 32.9938 36.024 32.6578 36.128C32.3218 36.224 31.9778 36.38 31.6258 36.596L31.2538 35.744C31.4618 35.6 31.7018 35.476 31.9738 35.372C32.2458 35.268 32.5298 35.188 32.8258 35.132C33.1298 35.068 33.4218 35.036 33.7018 35.036C34.2378 35.036 34.6778 35.12 35.0218 35.288C35.3738 35.456 35.6338 35.712 35.8018 36.056C35.9698 36.4 36.0538 36.844 36.0538 37.388V41H34.9138V39.692H35.0218C34.9578 39.988 34.8378 40.244 34.6618 40.46C34.4938 40.668 34.2818 40.828 34.0258 40.94C33.7698 41.052 33.4778 41.108 33.1498 41.108ZM39.6311 41.108C38.9911 41.108 38.5111 40.928 38.1911 40.568C37.8791 40.2 37.7231 39.672 37.7231 38.984V32.54H38.9351V38.912C38.9351 39.168 38.9711 39.388 39.0431 39.572C39.1151 39.748 39.2231 39.88 39.3671 39.968C39.5111 40.056 39.6911 40.1 39.9071 40.1C40.0031 40.1 40.0951 40.096 40.1831 40.088C40.2711 40.08 40.3551 40.064 40.4351 40.04L40.4111 41.012C40.2751 41.044 40.1431 41.068 40.0151 41.084C39.8871 41.1 39.7591 41.108 39.6311 41.108ZM43.2991 41.108C42.6591 41.108 42.1791 40.928 41.8591 40.568C41.5471 40.2 41.3911 39.672 41.3911 38.984V32.54H42.6031V38.912C42.6031 39.168 42.6391 39.388 42.7111 39.572C42.7831 39.748 42.8911 39.88 43.0351 39.968C43.1791 40.056 43.3591 40.1 43.5751 40.1C43.6711 40.1 43.7631 40.096 43.8511 40.088C43.9391 40.08 44.0231 40.064 44.1031 40.04L44.0791 41.012C43.9431 41.044 43.8111 41.068 43.6831 41.084C43.5551 41.1 43.4271 41.108 43.2991 41.108ZM46.931 41.108C46.523 41.108 46.155 41.028 45.827 40.868C45.507 40.708 45.255 40.492 45.071 40.22C44.887 39.948 44.795 39.64 44.795 39.296C44.795 38.864 44.903 38.524 45.119 38.276C45.343 38.02 45.707 37.84 46.211 37.736C46.723 37.624 47.411 37.568 48.275 37.568H48.839V38.312H48.287C47.855 38.312 47.491 38.328 47.195 38.36C46.899 38.392 46.663 38.444 46.487 38.516C46.311 38.58 46.183 38.672 46.103 38.792C46.031 38.912 45.995 39.056 45.995 39.224C45.995 39.528 46.099 39.776 46.307 39.968C46.515 40.152 46.803 40.244 47.171 40.244C47.467 40.244 47.727 40.176 47.951 40.04C48.175 39.896 48.351 39.704 48.479 39.464C48.615 39.224 48.683 38.948 48.683 38.636V37.256C48.683 36.8 48.587 36.472 48.395 36.272C48.203 36.072 47.887 35.972 47.447 35.972C47.111 35.972 46.775 36.024 46.439 36.128C46.103 36.224 45.759 36.38 45.407 36.596L45.035 35.744C45.243 35.6 45.483 35.476 45.755 35.372C46.027 35.268 46.311 35.188 46.607 35.132C46.911 35.068 47.203 35.036 47.483 35.036C48.019 35.036 48.459 35.12 48.803 35.288C49.155 35.456 49.415 35.712 49.583 36.056C49.751 36.4 49.835 36.844 49.835 37.388V41H48.695V39.692H48.803C48.739 39.988 48.619 40.244 48.443 40.46C48.275 40.668 48.063 40.828 47.807 40.94C47.551 41.052 47.259 41.108 46.931 41.108ZM51.5043 41V35.144H52.6803V36.548H52.5603C52.6883 36.068 52.9163 35.704 53.2443 35.456C53.5803 35.208 54.0243 35.064 54.5763 35.024L54.9723 35L55.0563 36.032L54.3243 36.104C53.8043 36.152 53.4083 36.316 53.1363 36.596C52.8643 36.876 52.7283 37.26 52.7283 37.748V41H51.5043ZM57.7943 41.108C57.3863 41.108 57.0183 41.028 56.6903 40.868C56.3703 40.708 56.1183 40.492 55.9343 40.22C55.7503 39.948 55.6583 39.64 55.6583 39.296C55.6583 38.864 55.7663 38.524 55.9823 38.276C56.2063 38.02 56.5703 37.84 57.0743 37.736C57.5863 37.624 58.2743 37.568 59.1383 37.568H59.7023V38.312H59.1503C58.7183 38.312 58.3543 38.328 58.0583 38.36C57.7623 38.392 57.5263 38.444 57.3503 38.516C57.1743 38.58 57.0463 38.672 56.9663 38.792C56.8943 38.912 56.8583 39.056 56.8583 39.224C56.8583 39.528 56.9623 39.776 57.1703 39.968C57.3783 40.152 57.6663 40.244 58.0343 40.244C58.3303 40.244 58.5903 40.176 58.8143 40.04C59.0383 39.896 59.2143 39.704 59.3423 39.464C59.4783 39.224 59.5463 38.948 59.5463 38.636V37.256C59.5463 36.8 59.4503 36.472 59.2583 36.272C59.0663 36.072 58.7503 35.972 58.3103 35.972C57.9743 35.972 57.6383 36.024 57.3023 36.128C56.9663 36.224 56.6223 36.38 56.2703 36.596L55.8983 35.744C56.1063 35.6 56.3463 35.476 56.6183 35.372C56.8903 35.268 57.1743 35.188 57.4703 35.132C57.7743 35.068 58.0663 35.036 58.3463 35.036C58.8823 35.036 59.3223 35.12 59.6663 35.288C60.0183 35.456 60.2783 35.712 60.4463 36.056C60.6143 36.4 60.6983 36.844 60.6983 37.388V41H59.5583V39.692H59.6663C59.6023 39.988 59.4823 40.244 59.3063 40.46C59.1383 40.668 58.9263 40.828 58.6703 40.94C58.4143 41.052 58.1223 41.108 57.7943 41.108ZM68.172 43.268C67.644 43.268 67.152 43.204 66.696 43.076C66.24 42.948 65.836 42.756 65.484 42.5L65.856 41.636C66.088 41.788 66.324 41.916 66.564 42.02C66.812 42.132 67.06 42.212 67.308 42.26C67.564 42.308 67.824 42.332 68.088 42.332C68.648 42.332 69.068 42.188 69.348 41.9C69.628 41.62 69.768 41.204 69.768 40.652V39.428H69.876C69.756 39.868 69.504 40.216 69.12 40.472C68.736 40.728 68.292 40.856 67.788 40.856C67.26 40.856 66.8 40.736 66.408 40.496C66.016 40.248 65.712 39.908 65.496 39.476C65.28 39.036 65.172 38.524 65.172 37.94C65.172 37.356 65.28 36.848 65.496 36.416C65.712 35.984 66.016 35.648 66.408 35.408C66.8 35.16 67.26 35.036 67.788 35.036C68.3 35.036 68.744 35.164 69.12 35.42C69.504 35.676 69.752 36.024 69.864 36.464H69.768V35.144H70.944V40.508C70.944 41.116 70.84 41.624 70.632 42.032C70.424 42.448 70.112 42.756 69.696 42.956C69.288 43.164 68.78 43.268 68.172 43.268ZM68.076 39.908C68.596 39.908 69.004 39.732 69.3 39.38C69.604 39.028 69.756 38.548 69.756 37.94C69.756 37.34 69.604 36.864 69.3 36.512C69.004 36.16 68.596 35.984 68.076 35.984C67.564 35.984 67.156 36.16 66.852 36.512C66.548 36.864 66.396 37.34 66.396 37.94C66.396 38.548 66.548 39.028 66.852 39.38C67.156 39.732 67.564 39.908 68.076 39.908ZM75.189 41.108C74.597 41.108 74.085 40.984 73.653 40.736C73.229 40.488 72.897 40.136 72.657 39.68C72.417 39.224 72.297 38.688 72.297 38.072C72.297 37.448 72.417 36.912 72.657 36.464C72.897 36.008 73.229 35.656 73.653 35.408C74.085 35.16 74.597 35.036 75.189 35.036C75.773 35.036 76.277 35.16 76.701 35.408C77.133 35.656 77.469 36.008 77.709 36.464C77.949 36.92 78.069 37.456 78.069 38.072C78.069 38.688 77.949 39.224 77.709 39.68C77.469 40.136 77.133 40.488 76.701 40.736C76.277 40.984 75.773 41.108 75.189 41.108ZM75.177 40.172C75.681 40.172 76.085 39.992 76.389 39.632C76.693 39.272 76.845 38.752 76.845 38.072C76.845 37.384 76.693 36.864 76.389 36.512C76.085 36.16 75.681 35.984 75.177 35.984C74.681 35.984 74.281 36.16 73.977 36.512C73.673 36.864 73.521 37.384 73.521 38.072C73.521 38.752 73.673 39.272 73.977 39.632C74.281 39.992 74.681 40.172 75.177 40.172ZM75.669 33.752V32.564H76.869V33.752H75.669ZM73.509 33.752V32.564H74.709V33.752H73.509ZM79.4301 41V35.144H80.6061V36.548H80.4861C80.6141 36.068 80.8421 35.704 81.1701 35.456C81.5061 35.208 81.9501 35.064 82.5021 35.024L82.8981 35L82.9821 36.032L82.2501 36.104C81.7301 36.152 81.3341 36.316 81.0621 36.596C80.7901 36.876 80.6541 37.26 80.6541 37.748V41H79.4301ZM86.5727 41.108C85.9327 41.108 85.3807 40.988 84.9167 40.748C84.4607 40.5 84.1047 40.152 83.8487 39.704C83.6007 39.248 83.4767 38.708 83.4767 38.084C83.4767 37.476 83.6007 36.944 83.8487 36.488C84.0967 36.032 84.4367 35.676 84.8687 35.42C85.3007 35.164 85.7927 35.036 86.3447 35.036C86.8887 35.036 87.3527 35.156 87.7367 35.396C88.1287 35.628 88.4287 35.96 88.6367 36.392C88.8447 36.824 88.9487 37.34 88.9487 37.94V38.348H84.4367V37.604H88.1327L87.9287 37.772C87.9287 37.172 87.7967 36.708 87.5327 36.38C87.2687 36.052 86.8887 35.888 86.3927 35.888C86.0167 35.888 85.6967 35.976 85.4327 36.152C85.1767 36.328 84.9807 36.572 84.8447 36.884C84.7087 37.196 84.6407 37.56 84.6407 37.976V38.048C84.6407 38.512 84.7127 38.904 84.8567 39.224C85.0087 39.536 85.2287 39.772 85.5167 39.932C85.8047 40.092 86.1607 40.172 86.5847 40.172C86.9207 40.172 87.2487 40.12 87.5687 40.016C87.8967 39.904 88.2047 39.732 88.4927 39.5L88.8527 40.34C88.5887 40.58 88.2487 40.768 87.8327 40.904C87.4167 41.04 86.9967 41.108 86.5727 41.108ZM38.5212 57.108C38.2092 57.108 37.9052 57.08 37.6092 57.024C37.3132 56.968 37.0412 56.888 36.7932 56.784C36.5452 56.68 36.3252 56.552 36.1332 56.4L36.4812 55.584C36.6812 55.72 36.8932 55.84 37.1172 55.944C37.3412 56.04 37.5732 56.112 37.8132 56.16C38.0612 56.208 38.3012 56.232 38.5332 56.232C38.9572 56.232 39.2772 56.156 39.4932 56.004C39.7092 55.852 39.8172 55.648 39.8172 55.392C39.8172 55.184 39.7452 55.024 39.6012 54.912C39.4572 54.792 39.2412 54.7 38.9532 54.636L37.8132 54.408C37.3172 54.304 36.9412 54.12 36.6852 53.856C36.4292 53.592 36.3012 53.256 36.3012 52.848C36.3012 52.48 36.4012 52.16 36.6012 51.888C36.8012 51.616 37.0812 51.408 37.4412 51.264C37.8012 51.112 38.2172 51.036 38.6892 51.036C38.9612 51.036 39.2252 51.064 39.4812 51.12C39.7372 51.176 39.9772 51.256 40.2012 51.36C40.4332 51.464 40.6292 51.596 40.7892 51.756L40.4412 52.572C40.2892 52.436 40.1132 52.32 39.9132 52.224C39.7212 52.128 39.5212 52.056 39.3132 52.008C39.1052 51.952 38.8972 51.924 38.6892 51.924C38.2652 51.924 37.9452 52.004 37.7292 52.164C37.5212 52.316 37.4172 52.524 37.4172 52.788C37.4172 52.988 37.4812 53.152 37.6092 53.28C37.7372 53.408 37.9372 53.5 38.2092 53.556L39.3492 53.784C39.8692 53.888 40.2612 54.064 40.5252 54.312C40.7972 54.56 40.9332 54.896 40.9332 55.32C40.9332 55.688 40.8332 56.008 40.6332 56.28C40.4332 56.552 40.1492 56.76 39.7812 56.904C39.4212 57.04 39.0012 57.108 38.5212 57.108ZM44.3697 57.108C43.8977 57.108 43.5017 57.02 43.1817 56.844C42.8697 56.668 42.6337 56.408 42.4737 56.064C42.3217 55.712 42.2457 55.272 42.2457 54.744V51.144H43.4577V54.756C43.4577 55.068 43.4977 55.328 43.5777 55.536C43.6657 55.744 43.7977 55.896 43.9737 55.992C44.1577 56.088 44.3857 56.136 44.6577 56.136C44.9617 56.136 45.2297 56.068 45.4617 55.932C45.6937 55.796 45.8737 55.6 46.0017 55.344C46.1297 55.088 46.1937 54.792 46.1937 54.456V51.144H47.4057V57H46.2297V55.716H46.3857C46.2257 56.164 45.9697 56.508 45.6177 56.748C45.2657 56.988 44.8497 57.108 44.3697 57.108ZM45.3177 49.74V48.552H46.5177V49.74H45.3177ZM43.1577 49.74V48.552H44.3577V49.74H43.1577ZM49.1137 57V51.144H50.2897V52.548H50.1697C50.2977 52.068 50.5257 51.704 50.8537 51.456C51.1897 51.208 51.6337 51.064 52.1857 51.024L52.5817 51L52.6657 52.032L51.9337 52.104C51.4137 52.152 51.0177 52.316 50.7457 52.596C50.4737 52.876 50.3377 53.26 50.3377 53.748V57H49.1137ZM55.6783 57.108C55.2063 57.108 54.8103 57.02 54.4903 56.844C54.1783 56.668 53.9423 56.408 53.7823 56.064C53.6303 55.712 53.5543 55.272 53.5543 54.744V51.144H54.7663V54.756C54.7663 55.068 54.8063 55.328 54.8863 55.536C54.9743 55.744 55.1063 55.896 55.2823 55.992C55.4663 56.088 55.6943 56.136 55.9663 56.136C56.2703 56.136 56.5383 56.068 56.7703 55.932C57.0023 55.796 57.1823 55.6 57.3103 55.344C57.4383 55.088 57.5023 54.792 57.5023 54.456V51.144H58.7143V57H57.5383V55.716H57.6943C57.5343 56.164 57.2783 56.508 56.9263 56.748C56.5743 56.988 56.1583 57.108 55.6783 57.108ZM56.6263 49.74V48.552H57.8263V49.74H56.6263ZM54.4663 49.74V48.552H55.6663V49.74H54.4663ZM62.4743 57.108C62.1623 57.108 61.8583 57.08 61.5623 57.024C61.2663 56.968 60.9943 56.888 60.7463 56.784C60.4983 56.68 60.2783 56.552 60.0863 56.4L60.4343 55.584C60.6343 55.72 60.8463 55.84 61.0703 55.944C61.2943 56.04 61.5263 56.112 61.7663 56.16C62.0143 56.208 62.2543 56.232 62.4863 56.232C62.9103 56.232 63.2303 56.156 63.4463 56.004C63.6623 55.852 63.7703 55.648 63.7703 55.392C63.7703 55.184 63.6983 55.024 63.5543 54.912C63.4103 54.792 63.1943 54.7 62.9063 54.636L61.7663 54.408C61.2703 54.304 60.8943 54.12 60.6383 53.856C60.3823 53.592 60.2543 53.256 60.2543 52.848C60.2543 52.48 60.3543 52.16 60.5543 51.888C60.7543 51.616 61.0343 51.408 61.3943 51.264C61.7543 51.112 62.1703 51.036 62.6423 51.036C62.9143 51.036 63.1783 51.064 63.4343 51.12C63.6903 51.176 63.9303 51.256 64.1543 51.36C64.3863 51.464 64.5823 51.596 64.7423 51.756L64.3943 52.572C64.2423 52.436 64.0663 52.32 63.8663 52.224C63.6743 52.128 63.4743 52.056 63.2663 52.008C63.0583 51.952 62.8503 51.924 62.6423 51.924C62.2183 51.924 61.8983 52.004 61.6823 52.164C61.4743 52.316 61.3703 52.524 61.3703 52.788C61.3703 52.988 61.4343 53.152 61.5623 53.28C61.6903 53.408 61.8903 53.5 62.1623 53.556L63.3023 53.784C63.8223 53.888 64.2143 54.064 64.4783 54.312C64.7503 54.56 64.8863 54.896 64.8863 55.32C64.8863 55.688 64.7863 56.008 64.5863 56.28C64.3863 56.552 64.1023 56.76 63.7343 56.904C63.3743 57.04 62.9543 57.108 62.4743 57.108ZM62.4983 59.328C62.2823 59.328 62.0743 59.304 61.8743 59.256C61.6743 59.216 61.5023 59.156 61.3583 59.076L61.5383 58.488C61.6903 58.552 61.8303 58.6 61.9583 58.632C62.0943 58.664 62.2503 58.68 62.4263 58.68C62.6343 58.68 62.7983 58.644 62.9183 58.572C63.0463 58.508 63.1103 58.412 63.1103 58.284C63.1103 58.188 63.0743 58.112 63.0023 58.056C62.9303 58 62.8143 57.972 62.6543 57.972C62.5743 57.972 62.4943 57.976 62.4143 57.984C62.3343 58 62.2383 58.024 62.1263 58.056L61.9103 57.864L62.0783 56.76H62.7743L62.6183 57.672L62.2823 57.564C62.3783 57.54 62.4743 57.52 62.5703 57.504C62.6663 57.488 62.7543 57.48 62.8343 57.48C63.0423 57.48 63.2223 57.512 63.3743 57.576C63.5343 57.64 63.6583 57.732 63.7463 57.852C63.8343 57.98 63.8783 58.136 63.8783 58.32C63.8783 58.52 63.8183 58.696 63.6983 58.848C63.5863 59 63.4263 59.116 63.2183 59.196C63.0103 59.284 62.7703 59.328 62.4983 59.328Z" fill="black"/>
<path d="M28.1727 73.5747L32.3007 65.6907V66.1587H27.7167V65.1147H33.4407V66.0387L29.5407 73.5747H28.1727ZM34.876 73.5747V72.1467H36.304V73.5747H34.876ZM41.152 73.5747V65.1147H44.68C45.56 65.1147 46.24 65.3107 46.72 65.7027C47.208 66.0867 47.452 66.6267 47.452 67.3227C47.452 67.8347 47.3 68.2667 46.996 68.6187C46.692 68.9707 46.28 69.2067 45.76 69.3267V69.1467C46.152 69.2027 46.488 69.3227 46.768 69.5067C47.056 69.6827 47.276 69.9187 47.428 70.2147C47.58 70.5027 47.656 70.8427 47.656 71.2347C47.656 71.7307 47.544 72.1547 47.32 72.5067C47.096 72.8587 46.772 73.1267 46.348 73.3107C45.924 73.4867 45.416 73.5747 44.824 73.5747H41.152ZM42.352 72.6147H44.68C44.92 72.6147 45.132 72.5987 45.316 72.5667C45.508 72.5267 45.672 72.4707 45.808 72.3987C45.952 72.3187 46.072 72.2227 46.168 72.1107C46.264 71.9907 46.332 71.8547 46.372 71.7027C46.42 71.5507 46.444 71.3787 46.444 71.1867C46.444 70.9947 46.42 70.8227 46.372 70.6707C46.332 70.5187 46.264 70.3867 46.168 70.2747C46.072 70.1627 45.952 70.0707 45.808 69.9987C45.672 69.9187 45.508 69.8627 45.316 69.8307C45.132 69.7907 44.92 69.7707 44.68 69.7707H42.352V72.6147ZM42.352 68.8107H44.488C45.064 68.8107 45.5 68.6947 45.796 68.4627C46.092 68.2307 46.24 67.8907 46.24 67.4427C46.24 66.9947 46.092 66.6547 45.796 66.4227C45.5 66.1907 45.064 66.0747 44.488 66.0747H42.352V68.8107ZM51.7437 73.6827C51.1517 73.6827 50.6397 73.5587 50.2077 73.3107C49.7837 73.0627 49.4517 72.7107 49.2117 72.2547C48.9717 71.7987 48.8517 71.2627 48.8517 70.6467C48.8517 70.0227 48.9717 69.4867 49.2117 69.0387C49.4517 68.5827 49.7837 68.2307 50.2077 67.9827C50.6397 67.7347 51.1517 67.6107 51.7437 67.6107C52.3277 67.6107 52.8317 67.7347 53.2557 67.9827C53.6877 68.2307 54.0237 68.5827 54.2637 69.0387C54.5037 69.4947 54.6237 70.0307 54.6237 70.6467C54.6237 71.2627 54.5037 71.7987 54.2637 72.2547C54.0237 72.7107 53.6877 73.0627 53.2557 73.3107C52.8317 73.5587 52.3277 73.6827 51.7437 73.6827ZM51.7317 72.7467C52.2357 72.7467 52.6397 72.5667 52.9437 72.2067C53.2477 71.8467 53.3997 71.3267 53.3997 70.6467C53.3997 69.9587 53.2477 69.4387 52.9437 69.0867C52.6397 68.7347 52.2357 68.5587 51.7317 68.5587C51.2357 68.5587 50.8357 68.7347 50.5317 69.0867C50.2277 69.4387 50.0757 69.9587 50.0757 70.6467C50.0757 71.3267 50.2277 71.8467 50.5317 72.2067C50.8357 72.5667 51.2357 72.7467 51.7317 72.7467ZM52.2237 66.3267V65.1387H53.4237V66.3267H52.2237ZM50.0637 66.3267V65.1387H51.2637V66.3267H50.0637ZM57.8928 73.6827C57.2528 73.6827 56.7728 73.5027 56.4528 73.1427C56.1408 72.7747 55.9848 72.2467 55.9848 71.5587V65.1147H57.1968V71.4867C57.1968 71.7427 57.2328 71.9627 57.3048 72.1467C57.3768 72.3227 57.4848 72.4547 57.6288 72.5427C57.7728 72.6307 57.9528 72.6747 58.1688 72.6747C58.2648 72.6747 58.3568 72.6707 58.4448 72.6627C58.5328 72.6547 58.6168 72.6387 58.6968 72.6147L58.6728 73.5867C58.5368 73.6187 58.4048 73.6427 58.2768 73.6587C58.1488 73.6747 58.0208 73.6827 57.8928 73.6827ZM61.7408 73.6827C61.2688 73.6827 60.8728 73.5947 60.5528 73.4187C60.2408 73.2427 60.0048 72.9827 59.8448 72.6387C59.6928 72.2867 59.6168 71.8467 59.6168 71.3187V67.7187H60.8288V71.3307C60.8288 71.6427 60.8688 71.9027 60.9488 72.1107C61.0368 72.3187 61.1688 72.4707 61.3448 72.5667C61.5288 72.6627 61.7568 72.7107 62.0288 72.7107C62.3328 72.7107 62.6008 72.6427 62.8328 72.5067C63.0648 72.3707 63.2448 72.1747 63.3728 71.9187C63.5008 71.6627 63.5648 71.3667 63.5648 71.0307V67.7187H64.7768V73.5747H63.6008V72.2907H63.7568C63.5968 72.7387 63.3408 73.0827 62.9888 73.3227C62.6368 73.5627 62.2208 73.6827 61.7408 73.6827ZM62.6888 66.3147V65.1267H63.8888V66.3147H62.6888ZM60.5288 66.3147V65.1267H61.7288V66.3147H60.5288ZM66.5088 73.5747V67.7187H67.6848V68.9667H67.5528C67.6568 68.6787 67.8008 68.4347 67.9848 68.2347C68.1688 68.0347 68.3888 67.8827 68.6448 67.7787C68.9088 67.6667 69.1968 67.6107 69.5088 67.6107C69.9968 67.6107 70.3928 67.7267 70.6968 67.9587C71.0008 68.1907 71.2088 68.5467 71.3208 69.0267H71.1528C71.3048 68.5867 71.5648 68.2427 71.9328 67.9947C72.3008 67.7387 72.7288 67.6107 73.2168 67.6107C73.6648 67.6107 74.0328 67.6987 74.3208 67.8747C74.6088 68.0427 74.8248 68.3027 74.9688 68.6547C75.1128 68.9987 75.1848 69.4347 75.1848 69.9627V73.5747H73.9728V70.0227C73.9728 69.5267 73.8848 69.1627 73.7088 68.9307C73.5408 68.6987 73.2608 68.5827 72.8688 68.5827C72.5808 68.5827 72.3288 68.6507 72.1128 68.7867C71.8968 68.9227 71.7288 69.1227 71.6088 69.3867C71.4968 69.6427 71.4408 69.9467 71.4408 70.2987V73.5747H70.2288V70.0227C70.2288 69.5267 70.1448 69.1627 69.9768 68.9307C69.8088 68.6987 69.5288 68.5827 69.1368 68.5827C68.8408 68.5827 68.5848 68.6507 68.3688 68.7867C68.1608 68.9227 68.0008 69.1227 67.8888 69.3867C67.7768 69.6427 67.7208 69.9467 67.7208 70.2987V73.5747H66.5088Z" fill="#667085"/>
<defs>
<filter id="filter0_d_8358_581" x="0.5" y="0.574707" width="100" height="85.8501" filterUnits="userSpaceOnUse" color-interpolation-filters="sRGB">
<feFlood flood-opacity="0" result="BackgroundImageFix"/>
<feColorMatrix in="SourceAlpha" type="matrix" values="0 0 0 0 0 0 0 0 0 0 0 0 0 0 0 0 0 0 127 0" result="hardAlpha"/>
<feOffset dy="4"/>
<feGaussianBlur stdDeviation="2"/>
<feComposite in2="hardAlpha" operator="out"/>
<feColorMatrix type="matrix" values="0 0 0 0 0 0 0 0 0 0 0 0 0 0 0 0 0 0 0.25 0"/>
<feBlend mode="normal" in2="BackgroundImageFix" result="effect1_dropShadow_8358_581"/>
<feBlend mode="normal" in="SourceGraphic" in2="effect1_dropShadow_8358_581" result="shape"/>
</filter>
</defs>
</svg>
