<svg width="96" height="86" viewBox="0 0 96 86" fill="none" xmlns="http://www.w3.org/2000/svg">
<g filter="url(#filter0_d_8310_792)">
<path d="M5.37285 42.5954C4.62083 41.2858 4.24484 40.6305 4.09767 39.9343C3.96744 39.3181 3.96744 38.6817 4.09767 38.0655C4.24484 37.3693 4.62083 36.714 5.37285 35.4043L23.5901 3.67245C24.3421 2.3626 24.7181 1.70767 25.2442 1.23135C25.7096 0.809902 26.2579 0.491516 26.8535 0.296907C27.5267 0.0769041 28.2787 0.0769043 29.7827 0.0769043H66.2171C67.7214 0.0769043 68.4731 0.0769041 69.1466 0.296907C69.7419 0.491516 70.2903 0.809902 70.756 1.23135C71.282 1.70767 71.6578 2.3626 72.41 3.67245L90.6271 35.4043C91.3792 36.714 91.7551 37.3693 91.9021 38.0655C92.0326 38.6817 92.0326 39.3181 91.9021 39.9343C91.7551 40.6305 91.3792 41.2858 90.6271 42.5954L72.41 74.3275C71.6578 75.6372 71.282 76.292 70.756 76.7684C70.2903 77.19 69.7419 77.5082 69.1466 77.7028C68.4731 77.9231 67.7214 77.9231 66.2171 77.9231H29.7827C28.2787 77.9231 27.5267 77.9231 26.8535 77.7028C26.2579 77.5082 25.7096 77.19 25.2442 76.7684C24.7181 76.292 24.3421 75.6372 23.5901 74.3275L5.37285 42.5954Z" fill="white"/>
</g>
<g clip-path="url(#clip0_8310_792)">
<path d="M38 29.0769H44.875V30.6394C44.875 31.5511 44.5128 32.4254 43.8682 33.0701C43.2235 33.7147 42.3492 34.0769 41.4375 34.0769C40.5258 34.0769 39.6515 33.7147 39.0068 33.0701C38.3622 32.4254 38 31.5511 38 30.6394V29.0769ZM43 14.2269C45.5 14.2269 46.75 17.8269 46.75 20.3269C46.75 21.5769 46.125 22.8269 45.5 24.7019L44.875 26.5769H38C38 25.3269 37.375 23.4519 37.375 20.3269C37.375 17.2019 39.8725 14.2269 43 14.2269ZM58.0675 24.1994L57.7962 25.7381C57.6379 26.6361 57.1294 27.4343 56.3826 27.9573C55.6357 28.4803 54.7117 28.6852 53.8137 28.5269C52.9158 28.3686 52.1176 27.8601 51.5946 27.1132C51.0716 26.3663 50.8667 25.4423 51.025 24.5444L51.2975 23.0069L58.0675 24.1994ZM55.7225 8.70813C58.8025 9.25063 60.745 12.6131 60.2025 15.6906C59.66 18.7694 58.7188 20.5069 58.5025 21.7381L51.7312 20.5444L51.4412 18.5894C51.1512 16.6344 50.7537 15.2944 50.97 14.0644C51.4038 11.6019 53.26 8.27438 55.7225 8.70813Z" fill="#F2BB41"/>
</g>
<path d="M20.1617 49.5769V41.1169H21.4097V49.5769H20.1617ZM20.1617 39.9649V38.7529H21.4097V39.9649H20.1617ZM25.137 49.6849C24.497 49.6849 24.017 49.5049 23.697 49.1449C23.385 48.7769 23.229 48.2489 23.229 47.5609V41.1169H24.441V47.4889C24.441 47.7449 24.477 47.9649 24.549 48.1489C24.621 48.3249 24.729 48.4569 24.873 48.5449C25.017 48.6329 25.197 48.6769 25.413 48.6769C25.509 48.6769 25.601 48.6729 25.689 48.6649C25.777 48.6569 25.861 48.6409 25.941 48.6169L25.917 49.5889C25.781 49.6209 25.649 49.6449 25.521 49.6609C25.393 49.6769 25.265 49.6849 25.137 49.6849ZM26.8969 49.5769V41.1169H28.1089V46.2769H28.1329L30.6769 43.7209H32.1769L29.0929 46.8169V46.2529L32.3929 49.5769H30.8809L28.1329 46.9009H28.1089V49.5769H26.8969ZM38.1088 49.6849C37.7008 49.6849 37.3328 49.6049 37.0048 49.4449C36.6848 49.2849 36.4328 49.0689 36.2488 48.7969C36.0648 48.5249 35.9728 48.2169 35.9728 47.8729C35.9728 47.4409 36.0808 47.1009 36.2968 46.8529C36.5208 46.5969 36.8848 46.4169 37.3888 46.3129C37.9008 46.2009 38.5888 46.1449 39.4528 46.1449H40.0168V46.8889H39.4648C39.0328 46.8889 38.6688 46.9049 38.3728 46.9369C38.0768 46.9689 37.8408 47.0209 37.6648 47.0929C37.4888 47.1569 37.3608 47.2489 37.2808 47.3689C37.2088 47.4889 37.1728 47.6329 37.1728 47.8009C37.1728 48.1049 37.2768 48.3529 37.4848 48.5449C37.6928 48.7289 37.9808 48.8209 38.3488 48.8209C38.6448 48.8209 38.9048 48.7529 39.1288 48.6169C39.3528 48.4729 39.5288 48.2809 39.6568 48.0409C39.7928 47.8009 39.8608 47.5249 39.8608 47.2129V45.8329C39.8608 45.3769 39.7648 45.0489 39.5728 44.8489C39.3808 44.6489 39.0648 44.5489 38.6248 44.5489C38.2888 44.5489 37.9528 44.6009 37.6168 44.7049C37.2808 44.8009 36.9368 44.9569 36.5848 45.1729L36.2128 44.3209C36.4208 44.1769 36.6608 44.0529 36.9328 43.9489C37.2048 43.8449 37.4888 43.7649 37.7848 43.7089C38.0888 43.6449 38.3808 43.6129 38.6608 43.6129C39.1968 43.6129 39.6368 43.6969 39.9808 43.8649C40.3328 44.0329 40.5928 44.2889 40.7608 44.6329C40.9288 44.9769 41.0128 45.4209 41.0128 45.9649V49.5769H39.8728V48.2689H39.9808C39.9168 48.5649 39.7968 48.8209 39.6208 49.0369C39.4528 49.2449 39.2408 49.4049 38.9848 49.5169C38.7288 49.6289 38.4368 49.6849 38.1088 49.6849ZM44.9141 49.6849C44.4021 49.6849 43.9501 49.5649 43.5581 49.3249C43.1741 49.0769 42.8741 48.7249 42.6581 48.2689C42.4421 47.8049 42.3341 47.2649 42.3341 46.6489C42.3341 46.0169 42.4421 45.4769 42.6581 45.0289C42.8741 44.5809 43.1741 44.2329 43.5581 43.9849C43.9501 43.7369 44.4021 43.6129 44.9141 43.6129C45.4261 43.6129 45.8661 43.7409 46.2341 43.9969C46.6101 44.2449 46.8621 44.5809 46.9901 45.0049H46.8581V41.1169H48.0701V49.5769H46.8821V48.2569H47.0021C46.8741 48.6889 46.6221 49.0369 46.2461 49.3009C45.8781 49.5569 45.4341 49.6849 44.9141 49.6849ZM45.2261 48.7489C45.7221 48.7489 46.1221 48.5689 46.4261 48.2089C46.7301 47.8489 46.8821 47.3289 46.8821 46.6489C46.8821 45.9609 46.7301 45.4409 46.4261 45.0889C46.1221 44.7369 45.7221 44.5609 45.2261 44.5609C44.7221 44.5609 44.3181 44.7369 44.0141 45.0889C43.7101 45.4409 43.5581 45.9609 43.5581 46.6489C43.5581 47.3289 43.7101 47.8489 44.0141 48.2089C44.3181 48.5689 44.7221 48.7489 45.2261 48.7489ZM49.7719 49.5769V43.7209H50.9839V49.5769H49.7719ZM52.7139 49.5769V43.7209H53.8899V44.9689H53.7579C53.8619 44.6809 54.0059 44.4369 54.1899 44.2369C54.3739 44.0369 54.5939 43.8849 54.8499 43.7809C55.1139 43.6689 55.4019 43.6129 55.7139 43.6129C56.2019 43.6129 56.5979 43.7289 56.9019 43.9609C57.2059 44.1929 57.4139 44.5489 57.5259 45.0289H57.3579C57.5099 44.5889 57.7699 44.2449 58.1379 43.9969C58.5059 43.7409 58.9339 43.6129 59.4219 43.6129C59.8699 43.6129 60.2379 43.7009 60.5259 43.8769C60.8139 44.0449 61.0299 44.3049 61.1739 44.6569C61.3179 45.0009 61.3899 45.4369 61.3899 45.9649V49.5769H60.1779V46.0249C60.1779 45.5289 60.0899 45.1649 59.9139 44.9329C59.7459 44.7009 59.4659 44.5849 59.0739 44.5849C58.7859 44.5849 58.5339 44.6529 58.3179 44.7889C58.1019 44.9249 57.9339 45.1249 57.8139 45.3889C57.7019 45.6449 57.6459 45.9489 57.6459 46.3009V49.5769H56.4339V46.0249C56.4339 45.5289 56.3499 45.1649 56.1819 44.9329C56.0139 44.7009 55.7339 44.5849 55.3419 44.5849C55.0459 44.5849 54.7899 44.6529 54.5739 44.7889C54.3659 44.9249 54.2059 45.1249 54.0939 45.3889C53.9819 45.6449 53.9259 45.9489 53.9259 46.3009V49.5769H52.7139ZM64.9924 49.6849C64.3524 49.6849 63.8724 49.5049 63.5524 49.1449C63.2404 48.7769 63.0844 48.2489 63.0844 47.5609V41.1169H64.2964V47.4889C64.2964 47.7449 64.3324 47.9649 64.4044 48.1489C64.4764 48.3249 64.5844 48.4569 64.7284 48.5449C64.8724 48.6329 65.0524 48.6769 65.2684 48.6769C65.3644 48.6769 65.4564 48.6729 65.5444 48.6649C65.6324 48.6569 65.7164 48.6409 65.7964 48.6169L65.7724 49.5889C65.6364 49.6209 65.5044 49.6449 65.3764 49.6609C65.2484 49.6769 65.1204 49.6849 64.9924 49.6849ZM68.6244 49.6849C68.2164 49.6849 67.8484 49.6049 67.5204 49.4449C67.2004 49.2849 66.9484 49.0689 66.7644 48.7969C66.5804 48.5249 66.4884 48.2169 66.4884 47.8729C66.4884 47.4409 66.5964 47.1009 66.8124 46.8529C67.0364 46.5969 67.4004 46.4169 67.9044 46.3129C68.4164 46.2009 69.1044 46.1449 69.9684 46.1449H70.5324V46.8889H69.9804C69.5484 46.8889 69.1844 46.9049 68.8884 46.9369C68.5924 46.9689 68.3564 47.0209 68.1804 47.0929C68.0044 47.1569 67.8764 47.2489 67.7964 47.3689C67.7244 47.4889 67.6884 47.6329 67.6884 47.8009C67.6884 48.1049 67.7924 48.3529 68.0004 48.5449C68.2084 48.7289 68.4964 48.8209 68.8644 48.8209C69.1604 48.8209 69.4204 48.7529 69.6444 48.6169C69.8684 48.4729 70.0444 48.2809 70.1724 48.0409C70.3084 47.8009 70.3764 47.5249 70.3764 47.2129V45.8329C70.3764 45.3769 70.2804 45.0489 70.0884 44.8489C69.8964 44.6489 69.5804 44.5489 69.1404 44.5489C68.8044 44.5489 68.4684 44.6009 68.1324 44.7049C67.7964 44.8009 67.4524 44.9569 67.1004 45.1729L66.7284 44.3209C66.9364 44.1769 67.1764 44.0529 67.4484 43.9489C67.7204 43.8449 68.0044 43.7649 68.3004 43.7089C68.6044 43.6449 68.8964 43.6129 69.1764 43.6129C69.7124 43.6129 70.1524 43.6969 70.4964 43.8649C70.8484 44.0329 71.1084 44.2889 71.2764 44.6329C71.4444 44.9769 71.5284 45.4209 71.5284 45.9649V49.5769H70.3884V48.2689H70.4964C70.4324 48.5649 70.3124 48.8209 70.1364 49.0369C69.9684 49.2449 69.7564 49.4049 69.5004 49.5169C69.2444 49.6289 68.9524 49.6849 68.6244 49.6849ZM73.1977 49.5769V43.7209H74.3737V45.1249H74.2537C74.3817 44.6449 74.6097 44.2809 74.9377 44.0329C75.2737 43.7849 75.7177 43.6409 76.2697 43.6009L76.6657 43.5769L76.7497 44.6089L76.0177 44.6809C75.4977 44.7289 75.1017 44.8929 74.8297 45.1729C74.5577 45.4529 74.4217 45.8369 74.4217 46.3249V49.5769H73.1977Z" fill="black"/>
<path d="M24.8767 66.5769V65.5329H26.7967V59.1729H27.4207L25.2967 60.4929L24.7927 59.5689L27.1567 58.1169H28.0327V65.5329H29.8327V66.5769H24.8767ZM31.376 66.5769V65.1489H32.804V66.5769H31.376ZM37.652 66.5769V58.1169H41.18C42.06 58.1169 42.74 58.3129 43.22 58.7049C43.708 59.0889 43.952 59.6289 43.952 60.3249C43.952 60.8369 43.8 61.2689 43.496 61.6209C43.192 61.9729 42.78 62.2089 42.26 62.3289V62.1489C42.652 62.2049 42.988 62.3249 43.268 62.5089C43.556 62.6849 43.776 62.9209 43.928 63.2169C44.08 63.5049 44.156 63.8449 44.156 64.2369C44.156 64.7329 44.044 65.1569 43.82 65.5089C43.596 65.8609 43.272 66.1289 42.848 66.3129C42.424 66.4889 41.916 66.5769 41.324 66.5769H37.652ZM38.852 65.6169H41.18C41.42 65.6169 41.632 65.6009 41.816 65.5689C42.008 65.5289 42.172 65.4729 42.308 65.4009C42.452 65.3209 42.572 65.2249 42.668 65.1129C42.764 64.9929 42.832 64.8569 42.872 64.7049C42.92 64.5529 42.944 64.3809 42.944 64.1889C42.944 63.9969 42.92 63.8249 42.872 63.6729C42.832 63.5209 42.764 63.3889 42.668 63.2769C42.572 63.1649 42.452 63.0729 42.308 63.0009C42.172 62.9209 42.008 62.8649 41.816 62.8329C41.632 62.7929 41.42 62.7729 41.18 62.7729H38.852V65.6169ZM38.852 61.8129H40.988C41.564 61.8129 42 61.6969 42.296 61.4649C42.592 61.2329 42.74 60.8929 42.74 60.4449C42.74 59.9969 42.592 59.6569 42.296 59.4249C42 59.1929 41.564 59.0769 40.988 59.0769H38.852V61.8129ZM48.2437 66.6849C47.6517 66.6849 47.1397 66.5609 46.7077 66.3129C46.2837 66.0649 45.9517 65.7129 45.7117 65.2569C45.4717 64.8009 45.3517 64.2649 45.3517 63.6489C45.3517 63.0249 45.4717 62.4889 45.7117 62.0409C45.9517 61.5849 46.2837 61.2329 46.7077 60.9849C47.1397 60.7369 47.6517 60.6129 48.2437 60.6129C48.8277 60.6129 49.3317 60.7369 49.7557 60.9849C50.1877 61.2329 50.5237 61.5849 50.7637 62.0409C51.0037 62.4969 51.1237 63.0329 51.1237 63.6489C51.1237 64.2649 51.0037 64.8009 50.7637 65.2569C50.5237 65.7129 50.1877 66.0649 49.7557 66.3129C49.3317 66.5609 48.8277 66.6849 48.2437 66.6849ZM48.2317 65.7489C48.7357 65.7489 49.1397 65.5689 49.4437 65.2089C49.7477 64.8489 49.8997 64.3289 49.8997 63.6489C49.8997 62.9609 49.7477 62.4409 49.4437 62.0889C49.1397 61.7369 48.7357 61.5609 48.2317 61.5609C47.7357 61.5609 47.3357 61.7369 47.0317 62.0889C46.7277 62.4409 46.5757 62.9609 46.5757 63.6489C46.5757 64.3289 46.7277 64.8489 47.0317 65.2089C47.3357 65.5689 47.7357 65.7489 48.2317 65.7489ZM48.7237 59.3289V58.1409H49.9237V59.3289H48.7237ZM46.5637 59.3289V58.1409H47.7637V59.3289H46.5637ZM54.3928 66.6849C53.7528 66.6849 53.2728 66.5049 52.9528 66.1449C52.6408 65.7769 52.4848 65.2489 52.4848 64.5609V58.1169H53.6968V64.4889C53.6968 64.7449 53.7328 64.9649 53.8048 65.1489C53.8768 65.3249 53.9848 65.4569 54.1288 65.5449C54.2728 65.6329 54.4528 65.6769 54.6688 65.6769C54.7648 65.6769 54.8568 65.6729 54.9448 65.6649C55.0328 65.6569 55.1168 65.6409 55.1968 65.6169L55.1728 66.5889C55.0368 66.6209 54.9048 66.6449 54.7768 66.6609C54.6488 66.6769 54.5208 66.6849 54.3928 66.6849ZM58.2408 66.6849C57.7688 66.6849 57.3728 66.5969 57.0528 66.4209C56.7408 66.2449 56.5048 65.9849 56.3448 65.6409C56.1928 65.2889 56.1168 64.8489 56.1168 64.3209V60.7209H57.3288V64.3329C57.3288 64.6449 57.3688 64.9049 57.4488 65.1129C57.5368 65.3209 57.6688 65.4729 57.8448 65.5689C58.0288 65.6649 58.2568 65.7129 58.5288 65.7129C58.8328 65.7129 59.1008 65.6449 59.3328 65.5089C59.5648 65.3729 59.7448 65.1769 59.8728 64.9209C60.0008 64.6649 60.0648 64.3689 60.0648 64.0329V60.7209H61.2768V66.5769H60.1008V65.2929H60.2568C60.0968 65.7409 59.8408 66.0849 59.4888 66.3249C59.1368 66.5649 58.7208 66.6849 58.2408 66.6849ZM59.1888 59.3169V58.1289H60.3888V59.3169H59.1888ZM57.0288 59.3169V58.1289H58.2288V59.3169H57.0288ZM63.0088 66.5769V60.7209H64.1848V61.9689H64.0528C64.1568 61.6809 64.3008 61.4369 64.4848 61.2369C64.6688 61.0369 64.8888 60.8849 65.1448 60.7809C65.4088 60.6689 65.6968 60.6129 66.0088 60.6129C66.4968 60.6129 66.8928 60.7289 67.1968 60.9609C67.5008 61.1929 67.7088 61.5489 67.8208 62.0289H67.6528C67.8048 61.5889 68.0648 61.2449 68.4328 60.9969C68.8008 60.7409 69.2288 60.6129 69.7168 60.6129C70.1648 60.6129 70.5328 60.7009 70.8208 60.8769C71.1088 61.0449 71.3248 61.3049 71.4688 61.6569C71.6128 62.0009 71.6848 62.4369 71.6848 62.9649V66.5769H70.4728V63.0249C70.4728 62.5289 70.3848 62.1649 70.2088 61.9329C70.0408 61.7009 69.7608 61.5849 69.3688 61.5849C69.0808 61.5849 68.8288 61.6529 68.6128 61.7889C68.3968 61.9249 68.2288 62.1249 68.1088 62.3889C67.9968 62.6449 67.9408 62.9489 67.9408 63.3009V66.5769H66.7288V63.0249C66.7288 62.5289 66.6448 62.1649 66.4768 61.9329C66.3088 61.7009 66.0288 61.5849 65.6368 61.5849C65.3408 61.5849 65.0848 61.6529 64.8688 61.7889C64.6608 61.9249 64.5008 62.1249 64.3888 62.3889C64.2768 62.6449 64.2208 62.9489 64.2208 63.3009V66.5769H63.0088Z" fill="#667085"/>
<defs>
<filter id="filter0_d_8310_792" x="0" y="0.0769043" width="96" height="85.8462" filterUnits="userSpaceOnUse" color-interpolation-filters="sRGB">
<feFlood flood-opacity="0" result="BackgroundImageFix"/>
<feColorMatrix in="SourceAlpha" type="matrix" values="0 0 0 0 0 0 0 0 0 0 0 0 0 0 0 0 0 0 127 0" result="hardAlpha"/>
<feOffset dy="4"/>
<feGaussianBlur stdDeviation="2"/>
<feComposite in2="hardAlpha" operator="out"/>
<feColorMatrix type="matrix" values="0 0 0 0 0 0 0 0 0 0 0 0 0 0 0 0 0 0 0.25 0"/>
<feBlend mode="normal" in2="BackgroundImageFix" result="effect1_dropShadow_8310_792"/>
<feBlend mode="normal" in="SourceGraphic" in2="effect1_dropShadow_8310_792" result="shape"/>
</filter>
<clipPath id="clip0_8310_792">
<rect width="30" height="30" fill="white" transform="translate(33 6.5769)"/>
</clipPath>
</defs>
</svg>
