<svg width="96" height="88" viewBox="0 0 96 88" fill="none" xmlns="http://www.w3.org/2000/svg">
<g filter="url(#filter0_d_8339_572)">
<path d="M5.37285 44.6152C4.62083 43.3055 4.24484 42.6502 4.09767 41.9541C3.96744 41.3379 3.96744 40.7015 4.09767 40.0853C4.24484 39.3891 4.62083 38.7338 5.37285 37.4241L23.5901 5.69223C24.3421 4.38237 24.7181 3.72744 25.2442 3.25112C25.7096 2.82968 26.2579 2.51129 26.8535 2.31668C27.5267 2.09668 28.2787 2.09668 29.7827 2.09668H66.2171C67.7214 2.09668 68.4731 2.09668 69.1466 2.31668C69.7419 2.51129 70.2903 2.82968 70.756 3.25112C71.282 3.72744 71.6578 4.38237 72.41 5.69223L90.6271 37.4241C91.3792 38.7338 91.7551 39.3891 91.9021 40.0853C92.0326 40.7015 92.0326 41.3379 91.9021 41.9541C91.7551 42.6502 91.3792 43.3055 90.6271 44.6152L72.41 76.3473C71.6578 77.657 71.282 78.3118 70.756 78.7882C70.2903 79.2098 69.7419 79.528 69.1466 79.7226C68.4731 79.9428 67.7214 79.9428 66.2171 79.9428H29.7827C28.2787 79.9428 27.5267 79.9428 26.8535 79.7226C26.2579 79.528 25.7096 79.2098 25.2442 78.7882C24.7181 78.3118 24.3421 77.657 23.5901 76.3473L5.37285 44.6152Z" fill="white"/>
</g>
<g clip-path="url(#clip0_8339_572)">
<path d="M55.4134 14.8311C54.6686 11.4709 53.9238 8.1108 53.1786 4.75073C51.921 4.75073 50.6635 4.75073 49.4061 4.75073C49.5858 8.11087 49.7658 11.471 49.9456 14.8311H55.4134Z" fill="#F2BB41"/>
<path d="M50.2325 20.1951C50.4691 24.611 50.7054 29.0268 50.9416 33.4427C53.8072 33.4427 56.6728 33.4427 59.5384 33.4427C58.5594 29.0268 57.5809 24.611 56.6024 20.1951H50.2325Z" fill="#F2BB41"/>
<path d="M47.0039 4.75073C45.7464 4.75073 44.4888 4.75073 43.2315 4.75073C42.4866 8.1108 41.7422 11.4709 40.9974 14.8311H46.4649C46.6444 11.4709 46.824 8.1108 47.0039 4.75073Z" fill="#F2BB41"/>
<path d="M36.8717 33.4427C39.7375 33.4427 42.6029 33.4427 45.4685 33.4427C45.7056 29.0268 45.9419 24.611 46.1778 20.1951H39.8087C38.83 24.611 37.8512 29.0269 36.8717 33.4427Z" fill="#F2BB41"/>
<path d="M62.8569 16.2239H33.5532C33.3609 16.2239 33.2051 16.3797 33.2051 16.572V18.4541C33.2051 18.6464 33.3609 18.8023 33.5532 18.8023H35.4374V21.6214C35.4374 21.8137 35.5932 21.9696 35.7855 21.9696H37.6658C37.8251 21.9696 37.964 21.8614 38.0031 21.7072L38.7417 18.8024H57.6684L58.4068 21.7072C58.4459 21.8616 58.585 21.9696 58.7443 21.9696H60.6243C60.8168 21.9696 60.9725 21.8137 60.9725 21.6214V18.8023H62.8568C63.0491 18.8023 63.205 18.6464 63.205 18.4541V16.572C63.2051 16.3797 63.0491 16.2239 62.8569 16.2239Z" fill="#F2BB41"/>
</g>
<path d="M34.4158 43.2047C33.8158 43.2047 33.2718 43.1047 32.7838 42.9047C32.2958 42.7047 31.8758 42.4127 31.5238 42.0287C31.1798 41.6447 30.9158 41.1887 30.7318 40.6607C30.5478 40.1247 30.4558 39.5247 30.4558 38.8607C30.4558 38.1967 30.5478 37.6007 30.7318 37.0727C30.9158 36.5367 31.1798 36.0807 31.5238 35.7047C31.8678 35.3207 32.2838 35.0287 32.7718 34.8287C33.2598 34.6287 33.8078 34.5287 34.4158 34.5287C35.0158 34.5287 35.5598 34.6287 36.0478 34.8287C36.5358 35.0287 36.9518 35.3167 37.2958 35.6927C37.6478 36.0687 37.9158 36.5247 38.0998 37.0607C38.2838 37.5887 38.3758 38.1847 38.3758 38.8487C38.3758 39.5127 38.2838 40.1127 38.0998 40.6487C37.9158 41.1847 37.6478 41.6447 37.2958 42.0287C36.9518 42.4127 36.5358 42.7047 36.0478 42.9047C35.5598 43.1047 35.0158 43.2047 34.4158 43.2047ZM34.4158 42.1247C34.9758 42.1247 35.4518 41.9967 35.8438 41.7407C36.2438 41.4847 36.5478 41.1127 36.7558 40.6247C36.9718 40.1367 37.0798 39.5487 37.0798 38.8607C37.0798 38.1727 36.9758 37.5847 36.7678 37.0967C36.5598 36.6087 36.2558 36.2407 35.8558 35.9927C35.4638 35.7367 34.9838 35.6087 34.4158 35.6087C33.8558 35.6087 33.3758 35.7367 32.9758 35.9927C32.5838 36.2407 32.2798 36.6087 32.0638 37.0967C31.8558 37.5847 31.7518 38.1727 31.7518 38.8607C31.7518 39.5407 31.8558 40.1287 32.0638 40.6247C32.2798 41.1127 32.5838 41.4847 32.9758 41.7407C33.3758 41.9967 33.8558 42.1247 34.4158 42.1247ZM42.4125 43.2047C41.6845 43.2047 41.1365 43.0167 40.7685 42.6407C40.4085 42.2647 40.2285 41.7207 40.2285 41.0087V38.1767H39.0885V37.2407H40.2285V35.4767H41.4405V37.2407H43.2525V38.1767H41.4405V40.9127C41.4405 41.3367 41.5285 41.6567 41.7045 41.8727C41.8885 42.0887 42.1845 42.1967 42.5925 42.1967C42.7125 42.1967 42.8325 42.1807 42.9525 42.1487C43.0805 42.1167 43.2045 42.0847 43.3245 42.0527L43.5165 42.9647C43.3965 43.0367 43.2285 43.0927 43.0125 43.1327C42.8045 43.1807 42.6045 43.2047 42.4125 43.2047ZM46.7847 43.2047C46.1927 43.2047 45.6807 43.0807 45.2487 42.8327C44.8247 42.5847 44.4927 42.2327 44.2527 41.7767C44.0127 41.3207 43.8927 40.7847 43.8927 40.1687C43.8927 39.5447 44.0127 39.0087 44.2527 38.5607C44.4927 38.1047 44.8247 37.7527 45.2487 37.5047C45.6807 37.2567 46.1927 37.1327 46.7847 37.1327C47.3687 37.1327 47.8727 37.2567 48.2967 37.5047C48.7287 37.7527 49.0647 38.1047 49.3047 38.5607C49.5447 39.0167 49.6647 39.5527 49.6647 40.1687C49.6647 40.7847 49.5447 41.3207 49.3047 41.7767C49.0647 42.2327 48.7287 42.5847 48.2967 42.8327C47.8727 43.0807 47.3687 43.2047 46.7847 43.2047ZM46.7727 42.2687C47.2767 42.2687 47.6807 42.0887 47.9847 41.7287C48.2887 41.3687 48.4407 40.8487 48.4407 40.1687C48.4407 39.4807 48.2887 38.9607 47.9847 38.6087C47.6807 38.2567 47.2767 38.0807 46.7727 38.0807C46.2767 38.0807 45.8767 38.2567 45.5727 38.6087C45.2687 38.9607 45.1167 39.4807 45.1167 40.1687C45.1167 40.8487 45.2687 41.3687 45.5727 41.7287C45.8767 42.0887 46.2767 42.2687 46.7727 42.2687ZM51.5204 45.2567L52.6724 42.6887V43.2047L50.1164 37.2407H51.4124L53.3804 42.1007H53.0444L55.0364 37.2407H56.2844L52.7924 45.2567H51.5204ZM59.5933 43.2047C59.0013 43.2047 58.4893 43.0807 58.0573 42.8327C57.6333 42.5847 57.3013 42.2327 57.0613 41.7767C56.8213 41.3207 56.7013 40.7847 56.7013 40.1687C56.7013 39.5447 56.8213 39.0087 57.0613 38.5607C57.3013 38.1047 57.6333 37.7527 58.0573 37.5047C58.4893 37.2567 59.0013 37.1327 59.5933 37.1327C60.1773 37.1327 60.6813 37.2567 61.1053 37.5047C61.5373 37.7527 61.8733 38.1047 62.1133 38.5607C62.3533 39.0167 62.4733 39.5527 62.4733 40.1687C62.4733 40.7847 62.3533 41.3207 62.1133 41.7767C61.8733 42.2327 61.5373 42.5847 61.1053 42.8327C60.6813 43.0807 60.1773 43.2047 59.5933 43.2047ZM59.5813 42.2687C60.0853 42.2687 60.4893 42.0887 60.7933 41.7287C61.0973 41.3687 61.2493 40.8487 61.2493 40.1687C61.2493 39.4807 61.0973 38.9607 60.7933 38.6087C60.4893 38.2567 60.0853 38.0807 59.5813 38.0807C59.0853 38.0807 58.6853 38.2567 58.3813 38.6087C58.0773 38.9607 57.9253 39.4807 57.9253 40.1687C57.9253 40.8487 58.0773 41.3687 58.3813 41.7287C58.6853 42.0887 59.0853 42.2687 59.5813 42.2687ZM65.7424 43.2047C65.1024 43.2047 64.6224 43.0247 64.3024 42.6647C63.9904 42.2967 63.8344 41.7687 63.8344 41.0807V34.6367H65.0464V41.0087C65.0464 41.2647 65.0824 41.4847 65.1544 41.6687C65.2264 41.8447 65.3344 41.9767 65.4784 42.0647C65.6224 42.1527 65.8024 42.1967 66.0184 42.1967C66.1144 42.1967 66.2064 42.1927 66.2944 42.1847C66.3824 42.1767 66.4664 42.1607 66.5464 42.1367L66.5224 43.1087C66.3864 43.1407 66.2544 43.1647 66.1264 43.1807C65.9984 43.1967 65.8704 43.2047 65.7424 43.2047ZM22.95 61.2567L24.102 58.6887V59.2047L21.546 53.2407H22.842L24.81 58.1007H24.474L26.466 53.2407H27.714L24.222 61.2567H22.95ZM31.023 59.2047C30.431 59.2047 29.919 59.0807 29.487 58.8327C29.063 58.5847 28.731 58.2327 28.491 57.7767C28.251 57.3207 28.131 56.7847 28.131 56.1687C28.131 55.5447 28.251 55.0087 28.491 54.5607C28.731 54.1047 29.063 53.7527 29.487 53.5047C29.919 53.2567 30.431 53.1327 31.023 53.1327C31.607 53.1327 32.111 53.2567 32.535 53.5047C32.967 53.7527 33.303 54.1047 33.543 54.5607C33.783 55.0167 33.903 55.5527 33.903 56.1687C33.903 56.7847 33.783 57.3207 33.543 57.7767C33.303 58.2327 32.967 58.5847 32.535 58.8327C32.111 59.0807 31.607 59.2047 31.023 59.2047ZM31.011 58.2687C31.515 58.2687 31.919 58.0887 32.223 57.7287C32.527 57.3687 32.679 56.8487 32.679 56.1687C32.679 55.4807 32.527 54.9607 32.223 54.6087C31.919 54.2567 31.515 54.0807 31.011 54.0807C30.515 54.0807 30.115 54.2567 29.811 54.6087C29.507 54.9607 29.355 55.4807 29.355 56.1687C29.355 56.8487 29.507 57.3687 29.811 57.7287C30.115 58.0887 30.515 58.2687 31.011 58.2687ZM37.1721 59.2047C36.5321 59.2047 36.0521 59.0247 35.7321 58.6647C35.4201 58.2967 35.2641 57.7687 35.2641 57.0807V50.6367H36.4761V57.0087C36.4761 57.2647 36.5121 57.4847 36.5841 57.6687C36.6561 57.8447 36.7641 57.9767 36.9081 58.0647C37.0521 58.1527 37.2321 58.1967 37.4481 58.1967C37.5441 58.1967 37.6361 58.1927 37.7241 58.1847C37.8121 58.1767 37.8961 58.1607 37.9761 58.1367L37.9521 59.1087C37.8161 59.1407 37.6841 59.1647 37.5561 59.1807C37.4281 59.1967 37.3001 59.2047 37.1721 59.2047ZM41.4535 59.2047C40.8535 59.2047 40.3335 59.0807 39.8935 58.8327C39.4615 58.5767 39.1255 58.2207 38.8855 57.7647C38.6455 57.3007 38.5255 56.7567 38.5255 56.1327C38.5255 55.5167 38.6455 54.9847 38.8855 54.5367C39.1255 54.0887 39.4615 53.7447 39.8935 53.5047C40.3335 53.2567 40.8535 53.1327 41.4535 53.1327C41.8215 53.1327 42.1855 53.1967 42.5455 53.3247C42.9055 53.4447 43.2015 53.6207 43.4335 53.8527L43.0495 54.7047C42.8335 54.4967 42.5895 54.3447 42.3175 54.2487C42.0455 54.1447 41.7895 54.0927 41.5495 54.0927C40.9815 54.0927 40.5415 54.2727 40.2295 54.6327C39.9255 54.9847 39.7735 55.4887 39.7735 56.1447C39.7735 56.8007 39.9255 57.3167 40.2295 57.6927C40.5415 58.0607 40.9815 58.2447 41.5495 58.2447C41.7895 58.2447 42.0455 58.1967 42.3175 58.1007C42.5895 57.9967 42.8335 57.8407 43.0495 57.6327L43.4335 58.4967C43.2015 58.7127 42.9015 58.8847 42.5335 59.0127C42.1735 59.1407 41.8135 59.2047 41.4535 59.2047ZM46.563 59.2047C46.091 59.2047 45.695 59.1167 45.375 58.9407C45.063 58.7647 44.827 58.5047 44.667 58.1607C44.515 57.8087 44.439 57.3687 44.439 56.8407V53.2407H45.651V56.8527C45.651 57.1647 45.691 57.4247 45.771 57.6327C45.859 57.8407 45.991 57.9927 46.167 58.0887C46.351 58.1847 46.579 58.2327 46.851 58.2327C47.155 58.2327 47.423 58.1647 47.655 58.0287C47.887 57.8927 48.067 57.6967 48.195 57.4407C48.323 57.1847 48.387 56.8887 48.387 56.5527V53.2407H49.599V59.0967H48.423V57.8127H48.579C48.419 58.2607 48.163 58.6047 47.811 58.8447C47.459 59.0847 47.043 59.2047 46.563 59.2047ZM53.2151 59.2047C52.5751 59.2047 52.0951 59.0247 51.7751 58.6647C51.4631 58.2967 51.3071 57.7687 51.3071 57.0807V50.6367H52.5191V57.0087C52.5191 57.2647 52.5551 57.4847 52.6271 57.6687C52.6991 57.8447 52.8071 57.9767 52.9511 58.0647C53.0951 58.1527 53.2751 58.1967 53.4911 58.1967C53.5871 58.1967 53.6791 58.1927 53.7671 58.1847C53.8551 58.1767 53.9391 58.1607 54.0191 58.1367L53.9951 59.1087C53.8591 59.1407 53.7271 59.1647 53.5991 59.1807C53.4711 59.1967 53.3431 59.2047 53.2151 59.2047ZM57.063 59.2047C56.591 59.2047 56.195 59.1167 55.875 58.9407C55.563 58.7647 55.327 58.5047 55.167 58.1607C55.015 57.8087 54.939 57.3687 54.939 56.8407V53.2407H56.151V56.8527C56.151 57.1647 56.191 57.4247 56.271 57.6327C56.359 57.8407 56.491 57.9927 56.667 58.0887C56.851 58.1847 57.079 58.2327 57.351 58.2327C57.655 58.2327 57.923 58.1647 58.155 58.0287C58.387 57.8927 58.567 57.6967 58.695 57.4407C58.823 57.1847 58.887 56.8887 58.887 56.5527V53.2407H60.099V59.0967H58.923V57.8127H59.079C58.919 58.2607 58.663 58.6047 58.311 58.8447C57.959 59.0847 57.543 59.2047 57.063 59.2047ZM64.4591 61.3647C63.9311 61.3647 63.4391 61.3007 62.9831 61.1727C62.5271 61.0447 62.1231 60.8527 61.7711 60.5967L62.1431 59.7327C62.3751 59.8847 62.6111 60.0127 62.8511 60.1167C63.0991 60.2287 63.3471 60.3087 63.5951 60.3567C63.8511 60.4047 64.1111 60.4287 64.3751 60.4287C64.9351 60.4287 65.3551 60.2847 65.6351 59.9967C65.9151 59.7167 66.0551 59.3007 66.0551 58.7487V57.5247H66.1631C66.0431 57.9647 65.7911 58.3127 65.4071 58.5687C65.0231 58.8247 64.5791 58.9527 64.0751 58.9527C63.5471 58.9527 63.0871 58.8327 62.6951 58.5927C62.3031 58.3447 61.9991 58.0047 61.7831 57.5727C61.5671 57.1327 61.4591 56.6207 61.4591 56.0367C61.4591 55.4527 61.5671 54.9447 61.7831 54.5127C61.9991 54.0807 62.3031 53.7447 62.6951 53.5047C63.0871 53.2567 63.5471 53.1327 64.0751 53.1327C64.5871 53.1327 65.0311 53.2607 65.4071 53.5167C65.7911 53.7727 66.0391 54.1207 66.1511 54.5607H66.0551V53.2407H67.2311V58.6047C67.2311 59.2127 67.1271 59.7207 66.9191 60.1287C66.7111 60.5447 66.3991 60.8527 65.9831 61.0527C65.5751 61.2607 65.0671 61.3647 64.4591 61.3647ZM64.3631 58.0047C64.8831 58.0047 65.2911 57.8287 65.5871 57.4767C65.8911 57.1247 66.0431 56.6447 66.0431 56.0367C66.0431 55.4367 65.8911 54.9607 65.5871 54.6087C65.2911 54.2567 64.8831 54.0807 64.3631 54.0807C63.8511 54.0807 63.4431 54.2567 63.1391 54.6087C62.8351 54.9607 62.6831 55.4367 62.6831 56.0367C62.6831 56.6447 62.8351 57.1247 63.1391 57.4767C63.4431 57.8287 63.8511 58.0047 64.3631 58.0047ZM64.5311 52.4967C64.1631 52.4967 63.8351 52.4047 63.5471 52.2207C63.2671 52.0367 63.0471 51.7727 62.8871 51.4287C62.7271 51.0847 62.6351 50.6767 62.6111 50.2047L63.3311 50.1327C63.3631 50.6447 63.4831 51.0407 63.6911 51.3207C63.8991 51.5927 64.1791 51.7287 64.5311 51.7287C64.8831 51.7287 65.1631 51.5927 65.3711 51.3207C65.5791 51.0407 65.6991 50.6447 65.7311 50.1327L66.4511 50.2047C66.4351 50.6767 66.3471 51.0847 66.1871 51.4287C66.0271 51.7727 65.8031 52.0367 65.5151 52.2207C65.2351 52.4047 64.9071 52.4967 64.5311 52.4967ZM71.0201 59.2047C70.5481 59.2047 70.1521 59.1167 69.8321 58.9407C69.5201 58.7647 69.2841 58.5047 69.1241 58.1607C68.9721 57.8087 68.8961 57.3687 68.8961 56.8407V53.2407H70.1081V56.8527C70.1081 57.1647 70.1481 57.4247 70.2281 57.6327C70.3161 57.8407 70.4481 57.9927 70.6241 58.0887C70.8081 58.1847 71.0361 58.2327 71.3081 58.2327C71.6121 58.2327 71.8801 58.1647 72.1121 58.0287C72.3441 57.8927 72.5241 57.6967 72.6521 57.4407C72.7801 57.1847 72.8441 56.8887 72.8441 56.5527V53.2407H74.0561V59.0967H72.8801V57.8127H73.0361C72.8761 58.2607 72.6201 58.6047 72.2681 58.8447C71.9161 59.0847 71.5001 59.2047 71.0201 59.2047Z" fill="black"/>
<path d="M27.2778 76.2047C26.3098 76.2047 25.5538 75.9967 25.0098 75.5807C24.4738 75.1647 24.2058 74.5847 24.2058 73.8407C24.2058 73.4407 24.2858 73.0887 24.4458 72.7847C24.6058 72.4727 24.8298 72.2207 25.1178 72.0287C25.4058 71.8367 25.7378 71.7167 26.1138 71.6687V71.8847C25.7698 71.8127 25.4698 71.6807 25.2138 71.4887C24.9578 71.2887 24.7578 71.0447 24.6138 70.7567C24.4778 70.4607 24.4098 70.1367 24.4098 69.7847C24.4098 69.0807 24.6698 68.5287 25.1898 68.1287C25.7098 67.7287 26.4058 67.5287 27.2778 67.5287C28.1578 67.5287 28.8578 67.7287 29.3778 68.1287C29.8978 68.5287 30.1578 69.0807 30.1578 69.7847C30.1578 70.1367 30.0858 70.4607 29.9418 70.7567C29.8058 71.0447 29.6098 71.2887 29.3538 71.4887C29.0978 71.6807 28.7978 71.8087 28.4538 71.8727V71.6687C28.8378 71.7167 29.1698 71.8407 29.4498 72.0407C29.7298 72.2327 29.9498 72.4807 30.1098 72.7847C30.2698 73.0887 30.3498 73.4407 30.3498 73.8407C30.3498 74.5847 30.0778 75.1647 29.5338 75.5807C28.9978 75.9967 28.2458 76.2047 27.2778 76.2047ZM27.2778 75.2207C27.9098 75.2207 28.3858 75.1007 28.7058 74.8607C29.0258 74.6127 29.1858 74.2447 29.1858 73.7567C29.1858 73.2687 29.0258 72.9047 28.7058 72.6647C28.3858 72.4247 27.9098 72.3047 27.2778 72.3047C26.6538 72.3047 26.1778 72.4247 25.8498 72.6647C25.5298 72.9047 25.3698 73.2687 25.3698 73.7567C25.3698 74.2447 25.5298 74.6127 25.8498 74.8607C26.1778 75.1007 26.6538 75.2207 27.2778 75.2207ZM27.2778 71.3207C27.8138 71.3207 28.2298 71.1967 28.5258 70.9487C28.8298 70.6927 28.9818 70.3447 28.9818 69.9047C28.9818 69.4727 28.8298 69.1327 28.5258 68.8847C28.2298 68.6367 27.8138 68.5127 27.2778 68.5127C26.7418 68.5127 26.3258 68.6367 26.0298 68.8847C25.7338 69.1327 25.5858 69.4727 25.5858 69.9047C25.5858 70.3447 25.7338 70.6927 26.0298 70.9487C26.3258 71.1967 26.7418 71.3207 27.2778 71.3207ZM31.5811 76.0967V74.6687H33.0091V76.0967H31.5811ZM37.8571 76.0967V67.6367H41.3851C42.2651 67.6367 42.9451 67.8327 43.4251 68.2247C43.9131 68.6087 44.1571 69.1487 44.1571 69.8447C44.1571 70.3567 44.0051 70.7887 43.7011 71.1407C43.3971 71.4927 42.9851 71.7287 42.4651 71.8487V71.6687C42.8571 71.7247 43.1931 71.8447 43.4731 72.0287C43.7611 72.2047 43.9811 72.4407 44.1331 72.7367C44.2851 73.0247 44.3611 73.3647 44.3611 73.7567C44.3611 74.2527 44.2491 74.6767 44.0251 75.0287C43.8011 75.3807 43.4771 75.6487 43.0531 75.8327C42.6291 76.0087 42.1211 76.0967 41.5291 76.0967H37.8571ZM39.0571 75.1367H41.3851C41.6251 75.1367 41.8371 75.1207 42.0211 75.0887C42.2131 75.0487 42.3771 74.9927 42.5131 74.9207C42.6571 74.8407 42.7771 74.7447 42.8731 74.6327C42.9691 74.5127 43.0371 74.3767 43.0771 74.2247C43.1251 74.0727 43.1491 73.9007 43.1491 73.7087C43.1491 73.5167 43.1251 73.3447 43.0771 73.1927C43.0371 73.0407 42.9691 72.9087 42.8731 72.7967C42.7771 72.6847 42.6571 72.5927 42.5131 72.5207C42.3771 72.4407 42.2131 72.3847 42.0211 72.3527C41.8371 72.3127 41.6251 72.2927 41.3851 72.2927H39.0571V75.1367ZM39.0571 71.3327H41.1931C41.7691 71.3327 42.2051 71.2167 42.5011 70.9847C42.7971 70.7527 42.9451 70.4127 42.9451 69.9647C42.9451 69.5167 42.7971 69.1767 42.5011 68.9447C42.2051 68.7127 41.7691 68.5967 41.1931 68.5967H39.0571V71.3327ZM48.4488 76.2047C47.8568 76.2047 47.3448 76.0807 46.9128 75.8327C46.4888 75.5847 46.1568 75.2327 45.9168 74.7767C45.6768 74.3207 45.5568 73.7847 45.5568 73.1687C45.5568 72.5447 45.6768 72.0087 45.9168 71.5607C46.1568 71.1047 46.4888 70.7527 46.9128 70.5047C47.3448 70.2567 47.8568 70.1327 48.4488 70.1327C49.0328 70.1327 49.5368 70.2567 49.9608 70.5047C50.3928 70.7527 50.7288 71.1047 50.9688 71.5607C51.2088 72.0167 51.3288 72.5527 51.3288 73.1687C51.3288 73.7847 51.2088 74.3207 50.9688 74.7767C50.7288 75.2327 50.3928 75.5847 49.9608 75.8327C49.5368 76.0807 49.0328 76.2047 48.4488 76.2047ZM48.4368 75.2687C48.9408 75.2687 49.3448 75.0887 49.6488 74.7287C49.9528 74.3687 50.1048 73.8487 50.1048 73.1687C50.1048 72.4807 49.9528 71.9607 49.6488 71.6087C49.3448 71.2567 48.9408 71.0807 48.4368 71.0807C47.9408 71.0807 47.5408 71.2567 47.2368 71.6087C46.9328 71.9607 46.7808 72.4807 46.7808 73.1687C46.7808 73.8487 46.9328 74.3687 47.2368 74.7287C47.5408 75.0887 47.9408 75.2687 48.4368 75.2687ZM48.9288 68.8487V67.6607H50.1288V68.8487H48.9288ZM46.7688 68.8487V67.6607H47.9688V68.8487H46.7688ZM54.5979 76.2047C53.9579 76.2047 53.4779 76.0247 53.1579 75.6647C52.8459 75.2967 52.6899 74.7687 52.6899 74.0807V67.6367H53.9019V74.0087C53.9019 74.2647 53.9379 74.4847 54.0099 74.6687C54.0819 74.8447 54.1899 74.9767 54.3339 75.0647C54.4779 75.1527 54.6579 75.1967 54.8739 75.1967C54.9699 75.1967 55.0619 75.1927 55.1499 75.1847C55.2379 75.1767 55.3219 75.1607 55.4019 75.1367L55.3779 76.1087C55.2419 76.1407 55.1099 76.1647 54.9819 76.1807C54.8539 76.1967 54.7259 76.2047 54.5979 76.2047ZM58.4459 76.2047C57.9739 76.2047 57.5779 76.1167 57.2579 75.9407C56.9459 75.7647 56.7099 75.5047 56.5499 75.1607C56.3979 74.8087 56.3219 74.3687 56.3219 73.8407V70.2407H57.5339V73.8527C57.5339 74.1647 57.5739 74.4247 57.6539 74.6327C57.7419 74.8407 57.8739 74.9927 58.0499 75.0887C58.2339 75.1847 58.4619 75.2327 58.7339 75.2327C59.0379 75.2327 59.3059 75.1647 59.5379 75.0287C59.7699 74.8927 59.9499 74.6967 60.0779 74.4407C60.2059 74.1847 60.2699 73.8887 60.2699 73.5527V70.2407H61.4819V76.0967H60.3059V74.8127H60.4619C60.3019 75.2607 60.0459 75.6047 59.6939 75.8447C59.3419 76.0847 58.9259 76.2047 58.4459 76.2047ZM59.3939 68.8367V67.6487H60.5939V68.8367H59.3939ZM57.2339 68.8367V67.6487H58.4339V68.8367H57.2339ZM63.2139 76.0967V70.2407H64.3899V71.4887H64.2579C64.3619 71.2007 64.5059 70.9567 64.6899 70.7567C64.8739 70.5567 65.0939 70.4047 65.3499 70.3007C65.6139 70.1887 65.9019 70.1327 66.2139 70.1327C66.7019 70.1327 67.0979 70.2487 67.4019 70.4807C67.7059 70.7127 67.9139 71.0687 68.0259 71.5487H67.8579C68.0099 71.1087 68.2699 70.7647 68.6379 70.5167C69.0059 70.2607 69.4339 70.1327 69.9219 70.1327C70.3699 70.1327 70.7379 70.2207 71.0259 70.3967C71.3139 70.5647 71.5299 70.8247 71.6739 71.1767C71.8179 71.5207 71.8899 71.9567 71.8899 72.4847V76.0967H70.6779V72.5447C70.6779 72.0487 70.5899 71.6847 70.4139 71.4527C70.2459 71.2207 69.9659 71.1047 69.5739 71.1047C69.2859 71.1047 69.0339 71.1727 68.8179 71.3087C68.6019 71.4447 68.4339 71.6447 68.3139 71.9087C68.2019 72.1647 68.1459 72.4687 68.1459 72.8207V76.0967H66.9339V72.5447C66.9339 72.0487 66.8499 71.6847 66.6819 71.4527C66.5139 71.2207 66.2339 71.1047 65.8419 71.1047C65.5459 71.1047 65.2899 71.1727 65.0739 71.3087C64.8659 71.4447 64.7059 71.6447 64.5939 71.9087C64.4819 72.1647 64.4259 72.4687 64.4259 72.8207V76.0967H63.2139Z" fill="#667085"/>
<defs>
<filter id="filter0_d_8339_572" x="0" y="2.09668" width="96" height="85.8462" filterUnits="userSpaceOnUse" color-interpolation-filters="sRGB">
<feFlood flood-opacity="0" result="BackgroundImageFix"/>
<feColorMatrix in="SourceAlpha" type="matrix" values="0 0 0 0 0 0 0 0 0 0 0 0 0 0 0 0 0 0 127 0" result="hardAlpha"/>
<feOffset dy="4"/>
<feGaussianBlur stdDeviation="2"/>
<feComposite in2="hardAlpha" operator="out"/>
<feColorMatrix type="matrix" values="0 0 0 0 0 0 0 0 0 0 0 0 0 0 0 0 0 0 0.25 0"/>
<feBlend mode="normal" in2="BackgroundImageFix" result="effect1_dropShadow_8339_572"/>
<feBlend mode="normal" in="SourceGraphic" in2="effect1_dropShadow_8339_572" result="shape"/>
</filter>
<clipPath id="clip0_8339_572">
<rect width="30" height="30" fill="white" transform="translate(33.2051 0.0966797)"/>
</clipPath>
</defs>
</svg>
