<svg width="102" height="92" viewBox="0 0 102 92" fill="none" xmlns="http://www.w3.org/2000/svg">
<g filter="url(#filter0_d_8310_900)">
<path d="M5.49766 45.8797C4.67727 44.4665 4.2671 43.7594 4.10655 43.0082C3.96448 42.3433 3.96448 41.6565 4.10655 40.9916C4.2671 40.2404 4.67727 39.5333 5.49766 38.1201L25.371 3.87978C26.1914 2.46638 26.6016 1.75968 27.1754 1.2457C27.6832 0.790942 28.2813 0.447387 28.9311 0.237394C29.6655 -2.168e-07 30.4859 0 32.1266 0H71.8732C73.5143 0 74.3343 -2.168e-07 75.069 0.237394C75.7185 0.447387 76.3167 0.790942 76.8247 1.2457C77.3985 1.75968 77.8085 2.46638 78.6291 3.87978L98.5023 38.1201C99.3228 39.5333 99.7328 40.2404 99.8932 40.9916C100.036 41.6565 100.036 42.3433 99.8932 43.0082C99.7328 43.7594 99.3228 44.4665 98.5023 45.8797L78.6291 80.1202C77.8085 81.5334 77.3985 82.24 76.8247 82.7541C76.3167 83.209 75.7185 83.5524 75.069 83.7624C74.3343 84 73.5143 84 71.8732 84H32.1266C30.4859 84 29.6655 84 28.9311 83.7624C28.2813 83.5524 27.6832 83.209 27.1754 82.7541C26.6016 82.24 26.1914 81.5334 25.371 80.1202L5.49766 45.8797Z" fill="white"/>
</g>
<g clip-path="url(#clip0_8310_900)">
<path d="M56.2525 30.2959L56.5876 29.6493C56.694 29.4416 56.7931 29.2375 56.8862 29.0293C57.0689 28.6147 57.2182 28.1937 57.3123 27.7777C57.5036 26.938 57.404 26.1678 56.8935 25.5975C56.3831 25.0157 55.5402 24.6253 54.669 24.3532C52.8142 23.8194 50.9176 23.2254 49.0825 22.5287C48.6218 22.3538 48.1634 22.1721 47.7067 21.9785C47.257 21.7895 46.7694 21.5685 46.3232 21.2694C45.8822 20.9712 45.4197 20.574 45.1809 19.9649C45.0626 19.6654 45.0315 19.3266 45.0713 19.0188C45.1115 18.7102 45.2119 18.4293 45.3366 18.1791C45.596 17.6663 45.9142 17.2965 46.2009 16.8997L47.0936 15.7354L48.8977 13.4313L51.9692 9.56715L49.6277 9.5C49.6277 9.5 44.2941 14.4048 41.9134 17.5001C39.8436 20.1904 40.9741 22.5675 44.7183 24.1664C47.8784 25.5166 50.8363 26.5617 50.8363 26.5617C51.3459 26.8256 51.7084 27.2882 51.8289 27.8279C51.9495 28.3681 51.8162 28.9302 51.4632 29.3689L43.3156 39.5H51.4445L54.9019 32.8866L56.2525 30.2959Z" fill="#F2BB41"/>
<path d="M64.0727 24.7944C62.938 22.8963 60.9957 21.5576 58.7455 21.1224L50.7737 19.4417C50.4413 19.3778 50.1619 19.1668 50.0208 18.8737C49.8797 18.581 49.8948 18.2417 50.0605 17.9609L55.3599 9.66403L52.7787 9.59009L49.5154 13.9068L47.7721 16.2482L46.9151 17.4249C46.6393 17.8208 46.3352 18.2121 46.1676 18.5783C45.9891 18.9568 45.9443 19.3175 46.0731 19.617C46.1973 19.9239 46.5009 20.2092 46.8671 20.4385C47.2379 20.6732 47.6457 20.8498 48.0977 21.027C48.5424 21.2028 48.9936 21.3695 49.4479 21.5293C51.2734 22.1708 53.1121 22.6986 55.0143 23.1968C55.9896 23.4872 57.022 23.8762 57.8443 24.7438C58.2452 25.178 58.5443 25.7483 58.6579 26.3386C58.7748 26.9295 58.7365 27.5112 58.6342 28.0491C58.5265 28.5865 58.358 29.0915 58.1603 29.5727C58.0603 29.812 57.9525 30.049 57.842 30.2773L57.5206 30.9361L56.2325 33.5611L53.3097 39.5001H61.5495L64.6662 31.0247C65.4238 28.9636 65.2073 26.6924 64.0727 24.7944Z" fill="#F2BB41"/>
</g>
<path d="M19.1038 52.5V48.132L19.3798 48.924L15.8638 44.04H17.3038L19.8958 47.652H19.6078L22.1998 44.04H23.5798L20.0878 48.924L20.3398 48.132V52.5H19.1038ZM25.7925 52.608C25.2005 52.608 24.6885 52.484 24.2565 52.236C23.8325 51.988 23.5005 51.636 23.2605 51.18C23.0205 50.724 22.9005 50.188 22.9005 49.572C22.9005 48.948 23.0205 48.412 23.2605 47.964C23.5005 47.508 23.8325 47.156 24.2565 46.908C24.6885 46.66 25.2005 46.536 25.7925 46.536C26.3765 46.536 26.8805 46.66 27.3045 46.908C27.7365 47.156 28.0725 47.508 28.3125 47.964C28.5525 48.42 28.6725 48.956 28.6725 49.572C28.6725 50.188 28.5525 50.724 28.3125 51.18C28.0725 51.636 27.7365 51.988 27.3045 52.236C26.8805 52.484 26.3765 52.608 25.7925 52.608ZM25.7805 51.672C26.2845 51.672 26.6885 51.492 26.9925 51.132C27.2965 50.772 27.4485 50.252 27.4485 49.572C27.4485 48.884 27.2965 48.364 26.9925 48.012C26.6885 47.66 26.2845 47.484 25.7805 47.484C25.2845 47.484 24.8845 47.66 24.5805 48.012C24.2765 48.364 24.1245 48.884 24.1245 49.572C24.1245 50.252 24.2765 50.772 24.5805 51.132C24.8845 51.492 25.2845 51.672 25.7805 51.672ZM31.9416 52.608C31.3016 52.608 30.8216 52.428 30.5016 52.068C30.1896 51.7 30.0336 51.172 30.0336 50.484V44.04H31.2456V50.412C31.2456 50.668 31.2816 50.888 31.3536 51.072C31.4256 51.248 31.5336 51.38 31.6776 51.468C31.8216 51.556 32.0016 51.6 32.2176 51.6C32.3136 51.6 32.4056 51.596 32.4936 51.588C32.5816 51.58 32.6656 51.564 32.7456 51.54L32.7216 52.512C32.5856 52.544 32.4536 52.568 32.3256 52.584C32.1976 52.6 32.0696 52.608 31.9416 52.608ZM35.5736 52.608C35.1656 52.608 34.7976 52.528 34.4696 52.368C34.1496 52.208 33.8976 51.992 33.7136 51.72C33.5296 51.448 33.4376 51.14 33.4376 50.796C33.4376 50.364 33.5456 50.024 33.7616 49.776C33.9856 49.52 34.3496 49.34 34.8536 49.236C35.3656 49.124 36.0536 49.068 36.9176 49.068H37.4816V49.812H36.9296C36.4976 49.812 36.1336 49.828 35.8376 49.86C35.5416 49.892 35.3056 49.944 35.1296 50.016C34.9536 50.08 34.8256 50.172 34.7456 50.292C34.6736 50.412 34.6376 50.556 34.6376 50.724C34.6376 51.028 34.7416 51.276 34.9496 51.468C35.1576 51.652 35.4456 51.744 35.8136 51.744C36.1096 51.744 36.3696 51.676 36.5936 51.54C36.8176 51.396 36.9936 51.204 37.1216 50.964C37.2576 50.724 37.3256 50.448 37.3256 50.136V48.756C37.3256 48.3 37.2296 47.972 37.0376 47.772C36.8456 47.572 36.5296 47.472 36.0896 47.472C35.7536 47.472 35.4176 47.524 35.0816 47.628C34.7456 47.724 34.4016 47.88 34.0496 48.096L33.6776 47.244C33.8856 47.1 34.1256 46.976 34.3976 46.872C34.6696 46.768 34.9536 46.688 35.2496 46.632C35.5536 46.568 35.8456 46.536 36.1256 46.536C36.6616 46.536 37.1016 46.62 37.4456 46.788C37.7976 46.956 38.0576 47.212 38.2256 47.556C38.3936 47.9 38.4776 48.344 38.4776 48.888V52.5H37.3376V51.192H37.4456C37.3816 51.488 37.2616 51.744 37.0856 51.96C36.9176 52.168 36.7056 52.328 36.4496 52.44C36.1936 52.552 35.9016 52.608 35.5736 52.608ZM45.8793 52.608C45.2793 52.608 44.7593 52.484 44.3193 52.236C43.8873 51.98 43.5513 51.624 43.3113 51.168C43.0713 50.704 42.9513 50.16 42.9513 49.536C42.9513 48.92 43.0713 48.388 43.3113 47.94C43.5513 47.492 43.8873 47.148 44.3193 46.908C44.7593 46.66 45.2793 46.536 45.8793 46.536C46.2473 46.536 46.6113 46.6 46.9713 46.728C47.3313 46.848 47.6273 47.024 47.8593 47.256L47.4753 48.108C47.2593 47.9 47.0153 47.748 46.7433 47.652C46.4713 47.548 46.2153 47.496 45.9753 47.496C45.4073 47.496 44.9673 47.676 44.6553 48.036C44.3513 48.388 44.1993 48.892 44.1993 49.548C44.1993 50.204 44.3513 50.72 44.6553 51.096C44.9673 51.464 45.4073 51.648 45.9753 51.648C46.2153 51.648 46.4713 51.6 46.7433 51.504C47.0153 51.4 47.2593 51.244 47.4753 51.036L47.8593 51.9C47.6273 52.116 47.3273 52.288 46.9593 52.416C46.5993 52.544 46.2393 52.608 45.8793 52.608ZM45.8313 54.828C45.6153 54.828 45.4073 54.804 45.2073 54.756C45.0073 54.716 44.8353 54.656 44.6913 54.576L44.8713 53.988C45.0233 54.052 45.1633 54.1 45.2913 54.132C45.4273 54.164 45.5833 54.18 45.7593 54.18C45.9673 54.18 46.1313 54.144 46.2513 54.072C46.3793 54.008 46.4433 53.912 46.4433 53.784C46.4433 53.688 46.4073 53.612 46.3353 53.556C46.2633 53.5 46.1473 53.472 45.9873 53.472C45.9073 53.472 45.8273 53.476 45.7473 53.484C45.6673 53.5 45.5713 53.524 45.4593 53.556L45.2433 53.364L45.4113 52.26H46.1073L45.9513 53.172L45.6153 53.064C45.7113 53.04 45.8073 53.02 45.9033 53.004C45.9993 52.988 46.0873 52.98 46.1673 52.98C46.3753 52.98 46.5553 53.012 46.7073 53.076C46.8673 53.14 46.9913 53.232 47.0793 53.352C47.1673 53.48 47.2113 53.636 47.2113 53.82C47.2113 54.02 47.1513 54.196 47.0313 54.348C46.9193 54.5 46.7593 54.616 46.5513 54.696C46.3433 54.784 46.1033 54.828 45.8313 54.828ZM48.9008 52.5V46.644H50.1128V52.5H48.9008ZM51.8188 52.5V44.04H53.0308V49.2H53.0548L55.5988 46.644H57.0988L54.0148 49.74V49.176L57.3148 52.5H55.8028L53.0548 49.824H53.0308V52.5H51.8188ZM58.0063 52.5V46.644H59.2183V52.5H58.0063ZM61.5243 54.66L62.6763 52.092V52.608L60.1203 46.644H61.4163L63.3843 51.504H63.0483L65.0403 46.644H66.2883L62.7963 54.66H61.5243ZM69.5972 52.608C69.0052 52.608 68.4932 52.484 68.0612 52.236C67.6372 51.988 67.3052 51.636 67.0652 51.18C66.8252 50.724 66.7052 50.188 66.7052 49.572C66.7052 48.948 66.8252 48.412 67.0652 47.964C67.3052 47.508 67.6372 47.156 68.0612 46.908C68.4932 46.66 69.0052 46.536 69.5972 46.536C70.1812 46.536 70.6852 46.66 71.1092 46.908C71.5412 47.156 71.8772 47.508 72.1172 47.964C72.3572 48.42 72.4772 48.956 72.4772 49.572C72.4772 50.188 72.3572 50.724 72.1172 51.18C71.8772 51.636 71.5412 51.988 71.1092 52.236C70.6852 52.484 70.1812 52.608 69.5972 52.608ZM69.5852 51.672C70.0892 51.672 70.4932 51.492 70.7972 51.132C71.1012 50.772 71.2532 50.252 71.2532 49.572C71.2532 48.884 71.1012 48.364 70.7972 48.012C70.4932 47.66 70.0892 47.484 69.5852 47.484C69.0892 47.484 68.6892 47.66 68.3852 48.012C68.0812 48.364 67.9292 48.884 67.9292 49.572C67.9292 50.252 68.0812 50.772 68.3852 51.132C68.6892 51.492 69.0892 51.672 69.5852 51.672ZM73.8383 52.5V46.644H75.0143V48.048H74.8943C75.0223 47.568 75.2503 47.204 75.5783 46.956C75.9143 46.708 76.3583 46.564 76.9103 46.524L77.3063 46.5L77.3903 47.532L76.6583 47.604C76.1383 47.652 75.7423 47.816 75.4703 48.096C75.1983 48.376 75.0623 48.76 75.0623 49.248V52.5H73.8383ZM80.4029 52.608C79.9309 52.608 79.5349 52.52 79.2149 52.344C78.9029 52.168 78.6669 51.908 78.5069 51.564C78.3549 51.212 78.2789 50.772 78.2789 50.244V46.644H79.4909V50.256C79.4909 50.568 79.5309 50.828 79.6109 51.036C79.6989 51.244 79.8309 51.396 80.0069 51.492C80.1909 51.588 80.4189 51.636 80.6909 51.636C80.9949 51.636 81.2629 51.568 81.4949 51.432C81.7269 51.296 81.9069 51.1 82.0349 50.844C82.1629 50.588 82.2269 50.292 82.2269 49.956V46.644H83.4389V52.5H82.2629V51.216H82.4189C82.2589 51.664 82.0029 52.008 81.6509 52.248C81.2989 52.488 80.8829 52.608 80.4029 52.608ZM84.9189 52.5V51.708L88.3509 47.28V47.58H84.9189V46.644H89.4429V47.448L85.9869 51.9V51.576H89.5749V52.5H84.9189Z" fill="black"/>
<path d="M31.9407 69.608C31.5647 69.608 31.1967 69.572 30.8367 69.5C30.4847 69.42 30.1527 69.308 29.8407 69.164C29.5367 69.012 29.2687 68.832 29.0367 68.624L29.4687 67.664C29.8447 67.968 30.2327 68.192 30.6327 68.336C31.0327 68.48 31.4567 68.552 31.9047 68.552C32.2887 68.552 32.6127 68.496 32.8767 68.384C33.1407 68.272 33.3367 68.108 33.4647 67.892C33.6007 67.676 33.6687 67.416 33.6687 67.112C33.6687 66.656 33.5167 66.316 33.2127 66.092C32.9167 65.86 32.4847 65.744 31.9167 65.744H30.6087V64.7H31.7967C32.1407 64.7 32.4327 64.644 32.6727 64.532C32.9127 64.412 33.0967 64.248 33.2247 64.04C33.3607 63.824 33.4287 63.564 33.4287 63.26C33.4287 62.852 33.2927 62.54 33.0207 62.324C32.7567 62.1 32.3687 61.988 31.8567 61.988C31.4247 61.988 31.0247 62.064 30.6567 62.216C30.2887 62.368 29.9407 62.6 29.6127 62.912L29.1807 61.964C29.5087 61.636 29.9167 61.384 30.4047 61.208C30.9007 61.024 31.4167 60.932 31.9527 60.932C32.5127 60.932 32.9927 61.02 33.3927 61.196C33.8007 61.372 34.1087 61.624 34.3167 61.952C34.5327 62.28 34.6407 62.672 34.6407 63.128C34.6407 63.64 34.4967 64.084 34.2087 64.46C33.9287 64.828 33.5407 65.072 33.0447 65.192V65.06C33.4367 65.124 33.7687 65.252 34.0407 65.444C34.3127 65.636 34.5207 65.88 34.6647 66.176C34.8087 66.472 34.8807 66.812 34.8807 67.196C34.8807 67.692 34.7607 68.124 34.5207 68.492C34.2887 68.852 33.9527 69.128 33.5127 69.32C33.0727 69.512 32.5487 69.608 31.9407 69.608ZM36.376 69.5V68.072H37.804V69.5H36.376ZM42.652 69.5V61.04H46.18C47.06 61.04 47.74 61.236 48.22 61.628C48.708 62.012 48.952 62.552 48.952 63.248C48.952 63.76 48.8 64.192 48.496 64.544C48.192 64.896 47.78 65.132 47.26 65.252V65.072C47.652 65.128 47.988 65.248 48.268 65.432C48.556 65.608 48.776 65.844 48.928 66.14C49.08 66.428 49.156 66.768 49.156 67.16C49.156 67.656 49.044 68.08 48.82 68.432C48.596 68.784 48.272 69.052 47.848 69.236C47.424 69.412 46.916 69.5 46.324 69.5H42.652ZM43.852 68.54H46.18C46.42 68.54 46.632 68.524 46.816 68.492C47.008 68.452 47.172 68.396 47.308 68.324C47.452 68.244 47.572 68.148 47.668 68.036C47.764 67.916 47.832 67.78 47.872 67.628C47.92 67.476 47.944 67.304 47.944 67.112C47.944 66.92 47.92 66.748 47.872 66.596C47.832 66.444 47.764 66.312 47.668 66.2C47.572 66.088 47.452 65.996 47.308 65.924C47.172 65.844 47.008 65.788 46.816 65.756C46.632 65.716 46.42 65.696 46.18 65.696H43.852V68.54ZM43.852 64.736H45.988C46.564 64.736 47 64.62 47.296 64.388C47.592 64.156 47.74 63.816 47.74 63.368C47.74 62.92 47.592 62.58 47.296 62.348C47 62.116 46.564 62 45.988 62H43.852V64.736ZM53.2437 69.608C52.6517 69.608 52.1397 69.484 51.7077 69.236C51.2837 68.988 50.9517 68.636 50.7117 68.18C50.4717 67.724 50.3517 67.188 50.3517 66.572C50.3517 65.948 50.4717 65.412 50.7117 64.964C50.9517 64.508 51.2837 64.156 51.7077 63.908C52.1397 63.66 52.6517 63.536 53.2437 63.536C53.8277 63.536 54.3317 63.66 54.7557 63.908C55.1877 64.156 55.5237 64.508 55.7637 64.964C56.0037 65.42 56.1237 65.956 56.1237 66.572C56.1237 67.188 56.0037 67.724 55.7637 68.18C55.5237 68.636 55.1877 68.988 54.7557 69.236C54.3317 69.484 53.8277 69.608 53.2437 69.608ZM53.2317 68.672C53.7357 68.672 54.1397 68.492 54.4437 68.132C54.7477 67.772 54.8997 67.252 54.8997 66.572C54.8997 65.884 54.7477 65.364 54.4437 65.012C54.1397 64.66 53.7357 64.484 53.2317 64.484C52.7357 64.484 52.3357 64.66 52.0317 65.012C51.7277 65.364 51.5757 65.884 51.5757 66.572C51.5757 67.252 51.7277 67.772 52.0317 68.132C52.3357 68.492 52.7357 68.672 53.2317 68.672ZM53.7237 62.252V61.064H54.9237V62.252H53.7237ZM51.5637 62.252V61.064H52.7637V62.252H51.5637ZM59.3928 69.608C58.7528 69.608 58.2728 69.428 57.9528 69.068C57.6408 68.7 57.4848 68.172 57.4848 67.484V61.04H58.6968V67.412C58.6968 67.668 58.7328 67.888 58.8048 68.072C58.8768 68.248 58.9848 68.38 59.1288 68.468C59.2728 68.556 59.4528 68.6 59.6688 68.6C59.7648 68.6 59.8568 68.596 59.9448 68.588C60.0328 68.58 60.1168 68.564 60.1968 68.54L60.1728 69.512C60.0368 69.544 59.9048 69.568 59.7768 69.584C59.6488 69.6 59.5208 69.608 59.3928 69.608ZM63.2408 69.608C62.7688 69.608 62.3728 69.52 62.0528 69.344C61.7408 69.168 61.5048 68.908 61.3448 68.564C61.1928 68.212 61.1168 67.772 61.1168 67.244V63.644H62.3288V67.256C62.3288 67.568 62.3688 67.828 62.4488 68.036C62.5368 68.244 62.6688 68.396 62.8448 68.492C63.0288 68.588 63.2568 68.636 63.5288 68.636C63.8328 68.636 64.1008 68.568 64.3328 68.432C64.5648 68.296 64.7448 68.1 64.8728 67.844C65.0008 67.588 65.0648 67.292 65.0648 66.956V63.644H66.2768V69.5H65.1008V68.216H65.2568C65.0968 68.664 64.8408 69.008 64.4888 69.248C64.1368 69.488 63.7208 69.608 63.2408 69.608ZM64.1888 62.24V61.052H65.3888V62.24H64.1888ZM62.0288 62.24V61.052H63.2288V62.24H62.0288ZM68.0088 69.5V63.644H69.1848V64.892H69.0528C69.1568 64.604 69.3008 64.36 69.4848 64.16C69.6688 63.96 69.8888 63.808 70.1448 63.704C70.4088 63.592 70.6968 63.536 71.0088 63.536C71.4968 63.536 71.8928 63.652 72.1968 63.884C72.5008 64.116 72.7088 64.472 72.8208 64.952H72.6528C72.8048 64.512 73.0648 64.168 73.4328 63.92C73.8008 63.664 74.2288 63.536 74.7168 63.536C75.1648 63.536 75.5328 63.624 75.8208 63.8C76.1088 63.968 76.3248 64.228 76.4688 64.58C76.6128 64.924 76.6848 65.36 76.6848 65.888V69.5H75.4728V65.948C75.4728 65.452 75.3848 65.088 75.2088 64.856C75.0408 64.624 74.7608 64.508 74.3688 64.508C74.0808 64.508 73.8288 64.576 73.6128 64.712C73.3968 64.848 73.2288 65.048 73.1088 65.312C72.9968 65.568 72.9408 65.872 72.9408 66.224V69.5H71.7288V65.948C71.7288 65.452 71.6448 65.088 71.4768 64.856C71.3088 64.624 71.0288 64.508 70.6368 64.508C70.3408 64.508 70.0848 64.576 69.8688 64.712C69.6608 64.848 69.5008 65.048 69.3888 65.312C69.2768 65.568 69.2208 65.872 69.2208 66.224V69.5H68.0088Z" fill="#667085"/>
<defs>
<filter id="filter0_d_8310_900" x="0" y="0" width="104" height="92" filterUnits="userSpaceOnUse" color-interpolation-filters="sRGB">
<feFlood flood-opacity="0" result="BackgroundImageFix"/>
<feColorMatrix in="SourceAlpha" type="matrix" values="0 0 0 0 0 0 0 0 0 0 0 0 0 0 0 0 0 0 127 0" result="hardAlpha"/>
<feOffset dy="4"/>
<feGaussianBlur stdDeviation="2"/>
<feComposite in2="hardAlpha" operator="out"/>
<feColorMatrix type="matrix" values="0 0 0 0 0 0 0 0 0 0 0 0 0 0 0 0 0 0 0.25 0"/>
<feBlend mode="normal" in2="BackgroundImageFix" result="effect1_dropShadow_8310_900"/>
<feBlend mode="normal" in="SourceGraphic" in2="effect1_dropShadow_8310_900" result="shape"/>
</filter>
<clipPath id="clip0_8310_900">
<rect width="30" height="30" fill="white" transform="translate(38 9.5)"/>
</clipPath>
</defs>
</svg>
