<svg width="96" height="86" viewBox="0 0 96 86" fill="none" xmlns="http://www.w3.org/2000/svg">
<g filter="url(#filter0_d_8310_972)">
<path d="M5.37285 42.5954C4.62083 41.2858 4.24484 40.6305 4.09767 39.9343C3.96744 39.3181 3.96744 38.6817 4.09767 38.0655C4.24484 37.3693 4.62083 36.714 5.37285 35.4043L23.5901 3.67245C24.3421 2.3626 24.7181 1.70767 25.2442 1.23135C25.7096 0.809902 26.2579 0.491516 26.8535 0.296907C27.5267 0.0769041 28.2787 0.0769043 29.7827 0.0769043H66.2171C67.7214 0.0769043 68.4731 0.0769041 69.1466 0.296907C69.7419 0.491516 70.2903 0.809902 70.756 1.23135C71.282 1.70767 71.6578 2.3626 72.41 3.67245L90.6271 35.4043C91.3792 36.714 91.7551 37.3693 91.9021 38.0655C92.0326 38.6817 92.0326 39.3181 91.9021 39.9343C91.7551 40.6305 91.3792 41.2858 90.6271 42.5954L72.41 74.3275C71.6578 75.6372 71.282 76.292 70.756 76.7684C70.2903 77.19 69.7419 77.5082 69.1466 77.7028C68.4731 77.9231 67.7214 77.9231 66.2171 77.9231H29.7827C28.2787 77.9231 27.5267 77.9231 26.8535 77.7028C26.2579 77.5082 25.7096 77.19 25.2442 76.7684C24.7181 76.292 24.3421 75.6372 23.5901 74.3275L5.37285 42.5954Z" fill="white"/>
</g>
<path d="M58.2051 5.5769H38.2051C36.8244 5.5769 35.7051 6.69619 35.7051 8.0769V28.0769C35.7051 29.4576 36.8244 30.5769 38.2051 30.5769H58.2051C59.5858 30.5769 60.7051 29.4576 60.7051 28.0769V8.0769C60.7051 6.69619 59.5858 5.5769 58.2051 5.5769Z" fill="#F2BB41"/>
<path d="M54.4551 19.3268H45.7051V16.0893L46.0676 16.4643C46.1838 16.5815 46.322 16.6745 46.4743 16.7379C46.6267 16.8014 46.7901 16.8341 46.9551 16.8341C47.1201 16.8341 47.2835 16.8014 47.4358 16.7379C47.5881 16.6745 47.7264 16.5815 47.8426 16.4643C47.9597 16.3481 48.0527 16.2099 48.1162 16.0575C48.1796 15.9052 48.2123 15.7418 48.2123 15.5768C48.2123 15.4118 48.1796 15.2484 48.1162 15.0961C48.0527 14.9438 47.9597 14.8055 47.8426 14.6893L45.3426 12.1893C45.2264 12.0722 45.0881 11.9792 44.9358 11.9157C44.7835 11.8523 44.6201 11.8196 44.4551 11.8196C44.2901 11.8196 44.1267 11.8523 43.9743 11.9157C43.822 11.9792 43.6838 12.0722 43.5676 12.1893L41.0676 14.6893C40.951 14.8059 40.8586 14.9442 40.7955 15.0965C40.7324 15.2488 40.7 15.412 40.7 15.5768C40.7 15.9097 40.8322 16.2289 41.0676 16.4643C41.3029 16.6997 41.6222 16.8319 41.9551 16.8319C42.2879 16.8319 42.6072 16.6997 42.8426 16.4643L43.2051 16.0893V19.3268C43.2051 19.9899 43.4685 20.6258 43.9373 21.0946C44.4061 21.5634 45.042 21.8268 45.7051 21.8268H54.4551C54.7866 21.8268 55.1045 21.6951 55.3389 21.4607C55.5734 21.2263 55.7051 20.9083 55.7051 20.5768C55.7051 20.2453 55.5734 19.9274 55.3389 19.6929C55.1045 19.4585 54.7866 19.3268 54.4551 19.3268Z" fill="#E08838"/>
<path d="M25.1321 46.1849C24.6921 46.1849 24.2721 46.1489 23.8721 46.0769C23.4801 45.9969 23.1161 45.8849 22.7801 45.7409C22.4521 45.5889 22.1601 45.4089 21.9041 45.2009L22.3001 44.2169C22.5721 44.4169 22.8521 44.5849 23.1401 44.7209C23.4281 44.8569 23.7361 44.9609 24.0641 45.0329C24.3921 45.0969 24.7481 45.1289 25.1321 45.1289C25.8121 45.1289 26.3121 45.0089 26.6321 44.7689C26.9601 44.5209 27.1241 44.2009 27.1241 43.8089C27.1241 43.5929 27.0721 43.4089 26.9681 43.2569C26.8721 43.1049 26.7121 42.9769 26.4881 42.8729C26.2641 42.7609 25.9721 42.6689 25.6121 42.5969L24.3281 42.3329C23.5681 42.1729 23.0001 41.9089 22.6241 41.5409C22.2561 41.1729 22.0721 40.6769 22.0721 40.0529C22.0721 39.5409 22.2081 39.0929 22.4801 38.7089C22.7521 38.3249 23.1241 38.0289 23.5961 37.8209C24.0761 37.6129 24.6281 37.5089 25.2521 37.5089C25.6361 37.5089 26.0001 37.5489 26.3441 37.6289C26.6961 37.7009 27.0201 37.8129 27.3161 37.9649C27.6201 38.1169 27.8841 38.3009 28.1081 38.5169L27.7001 39.4649C27.3561 39.1609 26.9841 38.9369 26.5841 38.7929C26.1841 38.6409 25.7361 38.5649 25.2401 38.5649C24.8481 38.5649 24.5041 38.6249 24.2081 38.7449C23.9201 38.8649 23.6961 39.0329 23.5361 39.2489C23.3841 39.4649 23.3081 39.7209 23.3081 40.0169C23.3081 40.3529 23.4161 40.6209 23.6321 40.8209C23.8481 41.0209 24.2081 41.1729 24.7121 41.2769L25.9841 41.5409C26.7841 41.7089 27.3801 41.9689 27.7721 42.3209C28.1641 42.6729 28.3601 43.1409 28.3601 43.7249C28.3601 44.2129 28.2281 44.6449 27.9641 45.0209C27.7001 45.3889 27.3281 45.6769 26.8481 45.8849C26.3681 46.0849 25.7961 46.1849 25.1321 46.1849ZM31.517 46.1849C31.109 46.1849 30.741 46.1049 30.413 45.9449C30.093 45.7849 29.841 45.5689 29.657 45.2969C29.473 45.0249 29.381 44.7169 29.381 44.3729C29.381 43.9409 29.489 43.6009 29.705 43.3529C29.929 43.0969 30.293 42.9169 30.797 42.8129C31.309 42.7009 31.997 42.6449 32.861 42.6449H33.425V43.3889H32.873C32.441 43.3889 32.077 43.4049 31.781 43.4369C31.485 43.4689 31.249 43.5209 31.073 43.5929C30.897 43.6569 30.769 43.7489 30.689 43.8689C30.617 43.9889 30.581 44.1329 30.581 44.3009C30.581 44.6049 30.685 44.8529 30.893 45.0449C31.101 45.2289 31.389 45.3209 31.757 45.3209C32.053 45.3209 32.313 45.2529 32.537 45.1169C32.761 44.9729 32.937 44.7809 33.065 44.5409C33.201 44.3009 33.269 44.0249 33.269 43.7129V42.3329C33.269 41.8769 33.173 41.5489 32.981 41.3489C32.789 41.1489 32.473 41.0489 32.033 41.0489C31.697 41.0489 31.361 41.1009 31.025 41.2049C30.689 41.3009 30.345 41.4569 29.993 41.6729L29.621 40.8209C29.829 40.6769 30.069 40.5529 30.341 40.4489C30.613 40.3449 30.897 40.2649 31.193 40.2089C31.497 40.1449 31.789 40.1129 32.069 40.1129C32.605 40.1129 33.045 40.1969 33.389 40.3649C33.741 40.5329 34.001 40.7889 34.169 41.1329C34.337 41.4769 34.421 41.9209 34.421 42.4649V46.0769H33.281V44.7689H33.389C33.325 45.0649 33.205 45.3209 33.029 45.5369C32.861 45.7449 32.649 45.9049 32.393 46.0169C32.137 46.1289 31.845 46.1849 31.517 46.1849ZM36.0903 48.2369V40.2209H37.2783V41.5409H37.1463C37.2743 41.1089 37.5263 40.7649 37.9023 40.5089C38.2783 40.2449 38.7223 40.1129 39.2343 40.1129C39.7543 40.1129 40.2063 40.2369 40.5903 40.4849C40.9823 40.7329 41.2823 41.0809 41.4903 41.5289C41.7063 41.9769 41.8143 42.5169 41.8143 43.1489C41.8143 43.7649 41.7063 44.3049 41.4903 44.7689C41.2823 45.2249 40.9863 45.5769 40.6023 45.8249C40.2183 46.0649 39.7623 46.1849 39.2343 46.1849C38.7303 46.1849 38.2903 46.0569 37.9143 45.8009C37.5383 45.5449 37.2863 45.2049 37.1583 44.7809H37.3023V48.2369H36.0903ZM38.9343 45.2489C39.4383 45.2489 39.8383 45.0689 40.1343 44.7089C40.4383 44.3489 40.5903 43.8289 40.5903 43.1489C40.5903 42.4609 40.4383 41.9409 40.1343 41.5889C39.8383 41.2369 39.4383 41.0609 38.9343 41.0609C38.4383 41.0609 38.0383 41.2369 37.7343 41.5889C37.4303 41.9409 37.2783 42.4609 37.2783 43.1489C37.2783 43.8289 37.4303 44.3489 37.7343 44.7089C38.0383 45.0689 38.4383 45.2489 38.9343 45.2489ZM43.1801 46.0769V40.2209H44.3921V46.0769H43.1801ZM46.6981 48.2369L47.8501 45.6689V46.1849L45.2941 40.2209H46.5901L48.5581 45.0809H48.2221L50.2141 40.2209H51.4621L47.9701 48.2369H46.6981ZM54.771 46.1849C54.179 46.1849 53.667 46.0609 53.235 45.8129C52.811 45.5649 52.479 45.2129 52.239 44.7569C51.999 44.3009 51.879 43.7649 51.879 43.1489C51.879 42.5249 51.999 41.9889 52.239 41.5409C52.479 41.0849 52.811 40.7329 53.235 40.4849C53.667 40.2369 54.179 40.1129 54.771 40.1129C55.355 40.1129 55.859 40.2369 56.283 40.4849C56.715 40.7329 57.051 41.0849 57.291 41.5409C57.531 41.9969 57.651 42.5329 57.651 43.1489C57.651 43.7649 57.531 44.3009 57.291 44.7569C57.051 45.2129 56.715 45.5649 56.283 45.8129C55.859 46.0609 55.355 46.1849 54.771 46.1849ZM54.759 45.2489C55.263 45.2489 55.667 45.0689 55.971 44.7089C56.275 44.3489 56.427 43.8289 56.427 43.1489C56.427 42.4609 56.275 41.9409 55.971 41.5889C55.667 41.2369 55.263 41.0609 54.759 41.0609C54.263 41.0609 53.863 41.2369 53.559 41.5889C53.255 41.9409 53.103 42.4609 53.103 43.1489C53.103 43.8289 53.255 44.3489 53.559 44.7089C53.863 45.0689 54.263 45.2489 54.759 45.2489ZM59.0122 46.0769V40.2209H60.1882V41.6249H60.0682C60.1962 41.1449 60.4242 40.7809 60.7522 40.5329C61.0882 40.2849 61.5322 40.1409 62.0842 40.1009L62.4802 40.0769L62.5642 41.1089L61.8322 41.1809C61.3122 41.2289 60.9162 41.3929 60.6442 41.6729C60.3722 41.9529 60.2362 42.3369 60.2362 42.8249V46.0769H59.0122ZM65.5767 46.1849C65.1047 46.1849 64.7087 46.0969 64.3887 45.9209C64.0767 45.7449 63.8407 45.4849 63.6807 45.1409C63.5287 44.7889 63.4527 44.3489 63.4527 43.8209V40.2209H64.6647V43.8329C64.6647 44.1449 64.7047 44.4049 64.7847 44.6129C64.8727 44.8209 65.0047 44.9729 65.1807 45.0689C65.3647 45.1649 65.5927 45.2129 65.8647 45.2129C66.1687 45.2129 66.4367 45.1449 66.6687 45.0089C66.9007 44.8729 67.0807 44.6769 67.2087 44.4209C67.3367 44.1649 67.4007 43.8689 67.4007 43.5329V40.2209H68.6127V46.0769H67.4367V44.7929H67.5927C67.4327 45.2409 67.1767 45.5849 66.8247 45.8249C66.4727 46.0649 66.0567 46.1849 65.5767 46.1849ZM70.0928 46.0769V45.2849L73.5248 40.8569V41.1569H70.0928V40.2209H74.6168V41.0249L71.1608 45.4769V45.1529H74.7488V46.0769H70.0928Z" fill="black"/>
<path d="M28.0458 63.0769V61.3609H24.2418V60.4369L28.2618 54.6169H29.2818V60.3169H30.5178V61.3609H29.2818V63.0769H28.0458ZM28.0458 60.3169V56.1049H28.3698L25.2498 60.6529V60.3169H28.0458ZM31.5811 63.0769V61.6489H33.0091V63.0769H31.5811ZM37.8571 63.0769V54.6169H41.3851C42.2651 54.6169 42.9451 54.8129 43.4251 55.2049C43.9131 55.5889 44.1571 56.1289 44.1571 56.8249C44.1571 57.3369 44.0051 57.7689 43.7011 58.1209C43.3971 58.4729 42.9851 58.7089 42.4651 58.8289V58.6489C42.8571 58.7049 43.1931 58.8249 43.4731 59.0089C43.7611 59.1849 43.9811 59.4209 44.1331 59.7169C44.2851 60.0049 44.3611 60.3449 44.3611 60.7369C44.3611 61.2329 44.2491 61.6569 44.0251 62.0089C43.8011 62.3609 43.4771 62.6289 43.0531 62.8129C42.6291 62.9889 42.1211 63.0769 41.5291 63.0769H37.8571ZM39.0571 62.1169H41.3851C41.6251 62.1169 41.8371 62.1009 42.0211 62.0689C42.2131 62.0289 42.3771 61.9729 42.5131 61.9009C42.6571 61.8209 42.7771 61.7249 42.8731 61.6129C42.9691 61.4929 43.0371 61.3569 43.0771 61.2049C43.1251 61.0529 43.1491 60.8809 43.1491 60.6889C43.1491 60.4969 43.1251 60.3249 43.0771 60.1729C43.0371 60.0209 42.9691 59.8889 42.8731 59.7769C42.7771 59.6649 42.6571 59.5729 42.5131 59.5009C42.3771 59.4209 42.2131 59.3649 42.0211 59.3329C41.8371 59.2929 41.6251 59.2729 41.3851 59.2729H39.0571V62.1169ZM39.0571 58.3129H41.1931C41.7691 58.3129 42.2051 58.1969 42.5011 57.9649C42.7971 57.7329 42.9451 57.3929 42.9451 56.9449C42.9451 56.4969 42.7971 56.1569 42.5011 55.9249C42.2051 55.6929 41.7691 55.5769 41.1931 55.5769H39.0571V58.3129ZM48.4488 63.1849C47.8568 63.1849 47.3448 63.0609 46.9128 62.8129C46.4888 62.5649 46.1568 62.2129 45.9168 61.7569C45.6768 61.3009 45.5568 60.7649 45.5568 60.1489C45.5568 59.5249 45.6768 58.9889 45.9168 58.5409C46.1568 58.0849 46.4888 57.7329 46.9128 57.4849C47.3448 57.2369 47.8568 57.1129 48.4488 57.1129C49.0328 57.1129 49.5368 57.2369 49.9608 57.4849C50.3928 57.7329 50.7288 58.0849 50.9688 58.5409C51.2088 58.9969 51.3288 59.5329 51.3288 60.1489C51.3288 60.7649 51.2088 61.3009 50.9688 61.7569C50.7288 62.2129 50.3928 62.5649 49.9608 62.8129C49.5368 63.0609 49.0328 63.1849 48.4488 63.1849ZM48.4368 62.2489C48.9408 62.2489 49.3448 62.0689 49.6488 61.7089C49.9528 61.3489 50.1048 60.8289 50.1048 60.1489C50.1048 59.4609 49.9528 58.9409 49.6488 58.5889C49.3448 58.2369 48.9408 58.0609 48.4368 58.0609C47.9408 58.0609 47.5408 58.2369 47.2368 58.5889C46.9328 58.9409 46.7808 59.4609 46.7808 60.1489C46.7808 60.8289 46.9328 61.3489 47.2368 61.7089C47.5408 62.0689 47.9408 62.2489 48.4368 62.2489ZM48.9288 55.8289V54.6409H50.1288V55.8289H48.9288ZM46.7688 55.8289V54.6409H47.9688V55.8289H46.7688ZM54.5979 63.1849C53.9579 63.1849 53.4779 63.0049 53.1579 62.6449C52.8459 62.2769 52.6899 61.7489 52.6899 61.0609V54.6169H53.9019V60.9889C53.9019 61.2449 53.9379 61.4649 54.0099 61.6489C54.0819 61.8249 54.1899 61.9569 54.3339 62.0449C54.4779 62.1329 54.6579 62.1769 54.8739 62.1769C54.9699 62.1769 55.0619 62.1729 55.1499 62.1649C55.2379 62.1569 55.3219 62.1409 55.4019 62.1169L55.3779 63.0889C55.2419 63.1209 55.1099 63.1449 54.9819 63.1609C54.8539 63.1769 54.7259 63.1849 54.5979 63.1849ZM58.4459 63.1849C57.9739 63.1849 57.5779 63.0969 57.2579 62.9209C56.9459 62.7449 56.7099 62.4849 56.5499 62.1409C56.3979 61.7889 56.3219 61.3489 56.3219 60.8209V57.2209H57.5339V60.8329C57.5339 61.1449 57.5739 61.4049 57.6539 61.6129C57.7419 61.8209 57.8739 61.9729 58.0499 62.0689C58.2339 62.1649 58.4619 62.2129 58.7339 62.2129C59.0379 62.2129 59.3059 62.1449 59.5379 62.0089C59.7699 61.8729 59.9499 61.6769 60.0779 61.4209C60.2059 61.1649 60.2699 60.8689 60.2699 60.5329V57.2209H61.4819V63.0769H60.3059V61.7929H60.4619C60.3019 62.2409 60.0459 62.5849 59.6939 62.8249C59.3419 63.0649 58.9259 63.1849 58.4459 63.1849ZM59.3939 55.8169V54.6289H60.5939V55.8169H59.3939ZM57.2339 55.8169V54.6289H58.4339V55.8169H57.2339ZM63.2139 63.0769V57.2209H64.3899V58.4689H64.2579C64.3619 58.1809 64.5059 57.9369 64.6899 57.7369C64.8739 57.5369 65.0939 57.3849 65.3499 57.2809C65.6139 57.1689 65.9019 57.1129 66.2139 57.1129C66.7019 57.1129 67.0979 57.2289 67.4019 57.4609C67.7059 57.6929 67.9139 58.0489 68.0259 58.5289H67.8579C68.0099 58.0889 68.2699 57.7449 68.6379 57.4969C69.0059 57.2409 69.4339 57.1129 69.9219 57.1129C70.3699 57.1129 70.7379 57.2009 71.0259 57.3769C71.3139 57.5449 71.5299 57.8049 71.6739 58.1569C71.8179 58.5009 71.8899 58.9369 71.8899 59.4649V63.0769H70.6779V59.5249C70.6779 59.0289 70.5899 58.6649 70.4139 58.4329C70.2459 58.2009 69.9659 58.0849 69.5739 58.0849C69.2859 58.0849 69.0339 58.1529 68.8179 58.2889C68.6019 58.4249 68.4339 58.6249 68.3139 58.8889C68.2019 59.1449 68.1459 59.4489 68.1459 59.8009V63.0769H66.9339V59.5249C66.9339 59.0289 66.8499 58.6649 66.6819 58.4329C66.5139 58.2009 66.2339 58.0849 65.8419 58.0849C65.5459 58.0849 65.2899 58.1529 65.0739 58.2889C64.8659 58.4249 64.7059 58.6249 64.5939 58.8889C64.4819 59.1449 64.4259 59.4489 64.4259 59.8009V63.0769H63.2139Z" fill="#667085"/>
<defs>
<filter id="filter0_d_8310_972" x="0" y="0.0769043" width="96" height="85.8462" filterUnits="userSpaceOnUse" color-interpolation-filters="sRGB">
<feFlood flood-opacity="0" result="BackgroundImageFix"/>
<feColorMatrix in="SourceAlpha" type="matrix" values="0 0 0 0 0 0 0 0 0 0 0 0 0 0 0 0 0 0 127 0" result="hardAlpha"/>
<feOffset dy="4"/>
<feGaussianBlur stdDeviation="2"/>
<feComposite in2="hardAlpha" operator="out"/>
<feColorMatrix type="matrix" values="0 0 0 0 0 0 0 0 0 0 0 0 0 0 0 0 0 0 0.25 0"/>
<feBlend mode="normal" in2="BackgroundImageFix" result="effect1_dropShadow_8310_972"/>
<feBlend mode="normal" in="SourceGraphic" in2="effect1_dropShadow_8310_972" result="shape"/>
</filter>
</defs>
</svg>
