<svg width="96" height="87" viewBox="0 0 96 87" fill="none" xmlns="http://www.w3.org/2000/svg">
<g filter="url(#filter0_d_8310_1103)">
<path d="M5.37285 43.6152C4.62083 42.3055 4.24484 41.6502 4.09767 40.9541C3.96744 40.3379 3.96744 39.7015 4.09767 39.0853C4.24484 38.3891 4.62083 37.7338 5.37285 36.4241L23.5901 4.69223C24.3421 3.38237 24.7181 2.72744 25.2442 2.25112C25.7096 1.82968 26.2579 1.51129 26.8535 1.31668C27.5267 1.09668 28.2787 1.09668 29.7827 1.09668H66.2171C67.7214 1.09668 68.4731 1.09668 69.1466 1.31668C69.7419 1.51129 70.2903 1.82968 70.756 2.25112C71.282 2.72744 71.6578 3.38237 72.41 4.69223L90.6271 36.4241C91.3792 37.7338 91.7551 38.3891 91.9021 39.0853C92.0326 39.7015 92.0326 40.3379 91.9021 40.9541C91.7551 41.6502 91.3792 42.3055 90.6271 43.6152L72.41 75.3473C71.6578 76.657 71.282 77.3118 70.756 77.7882C70.2903 78.2098 69.7419 78.528 69.1466 78.7226C68.4731 78.9428 67.7214 78.9428 66.2171 78.9428H29.7827C28.2787 78.9428 27.5267 78.9428 26.8535 78.7226C26.2579 78.528 25.7096 78.2098 25.2442 77.7882C24.7181 77.3118 24.3421 76.657 23.5901 75.3473L5.37285 43.6152Z" fill="white"/>
</g>
<path d="M58.2051 2.59668H38.2051C36.8244 2.59668 35.7051 3.71597 35.7051 5.09668V25.0967C35.7051 26.4774 36.8244 27.5967 38.2051 27.5967H58.2051C59.5858 27.5967 60.7051 26.4774 60.7051 25.0967V5.09668C60.7051 3.71597 59.5858 2.59668 58.2051 2.59668Z" fill="#F2BB41"/>
<path d="M54.4551 16.3466H45.7051V13.1091L46.0676 13.4841C46.1838 13.6013 46.322 13.6943 46.4743 13.7577C46.6267 13.8212 46.7901 13.8539 46.9551 13.8539C47.1201 13.8539 47.2835 13.8212 47.4358 13.7577C47.5881 13.6943 47.7264 13.6013 47.8426 13.4841C47.9597 13.3679 48.0527 13.2296 48.1162 13.0773C48.1796 12.925 48.2123 12.7616 48.2123 12.5966C48.2123 12.4316 48.1796 12.2682 48.1162 12.1159C48.0527 11.9636 47.9597 11.8253 47.8426 11.7091L45.3426 9.2091C45.2264 9.09194 45.0881 8.99895 44.9358 8.93549C44.7835 8.87203 44.6201 8.83936 44.4551 8.83936C44.2901 8.83936 44.1267 8.87203 43.9743 8.93549C43.822 8.99895 43.6838 9.09194 43.5676 9.2091L41.0676 11.7091C40.951 11.8257 40.8586 11.964 40.7955 12.1163C40.7324 12.2686 40.7 12.4318 40.7 12.5966C40.7 12.9295 40.8322 13.2487 41.0676 13.4841C41.3029 13.7195 41.6222 13.8517 41.9551 13.8517C42.2879 13.8517 42.6072 13.7195 42.8426 13.4841L43.2051 13.1091V16.3466C43.2051 17.0096 43.4685 17.6455 43.9373 18.1144C44.4061 18.5832 45.042 18.8466 45.7051 18.8466H54.4551C54.7866 18.8466 55.1045 18.7149 55.3389 18.4805C55.5734 18.2461 55.7051 17.9281 55.7051 17.5966C55.7051 17.2651 55.5734 16.9471 55.3389 16.7127C55.1045 16.4783 54.7866 16.3466 54.4551 16.3466Z" fill="#E08838"/>
<path d="M17.1125 43.0967V35.6807H14.1125V34.6367H21.3485V35.6807H18.3485V43.0967H17.1125ZM24.0746 43.2047C23.4346 43.2047 22.8826 43.0847 22.4186 42.8447C21.9626 42.5967 21.6066 42.2487 21.3506 41.8007C21.1026 41.3447 20.9786 40.8047 20.9786 40.1807C20.9786 39.5727 21.1026 39.0407 21.3506 38.5847C21.5986 38.1287 21.9386 37.7727 22.3706 37.5167C22.8026 37.2607 23.2946 37.1327 23.8466 37.1327C24.3906 37.1327 24.8546 37.2527 25.2386 37.4927C25.6306 37.7247 25.9306 38.0567 26.1386 38.4887C26.3466 38.9207 26.4506 39.4367 26.4506 40.0367V40.4447H21.9386V39.7007H25.6346L25.4306 39.8687C25.4306 39.2687 25.2986 38.8047 25.0346 38.4767C24.7706 38.1487 24.3906 37.9847 23.8946 37.9847C23.5186 37.9847 23.1986 38.0727 22.9346 38.2487C22.6786 38.4247 22.4826 38.6687 22.3466 38.9807C22.2106 39.2927 22.1426 39.6567 22.1426 40.0727V40.1447C22.1426 40.6087 22.2146 41.0007 22.3586 41.3207C22.5106 41.6327 22.7306 41.8687 23.0186 42.0287C23.3066 42.1887 23.6626 42.2687 24.0866 42.2687C24.4226 42.2687 24.7506 42.2167 25.0706 42.1127C25.3986 42.0007 25.7066 41.8287 25.9946 41.5967L26.3546 42.4367C26.0906 42.6767 25.7506 42.8647 25.3346 43.0007C24.9186 43.1367 24.4986 43.2047 24.0746 43.2047ZM27.7959 43.0967V37.2407H28.9719V38.4887H28.8399C28.9439 38.2007 29.0879 37.9567 29.2719 37.7567C29.4559 37.5567 29.6759 37.4047 29.9319 37.3007C30.1959 37.1887 30.4839 37.1327 30.7959 37.1327C31.2839 37.1327 31.6799 37.2487 31.9839 37.4807C32.2879 37.7127 32.4959 38.0687 32.6079 38.5487H32.4399C32.5919 38.1087 32.8519 37.7647 33.2199 37.5167C33.5879 37.2607 34.0159 37.1327 34.5039 37.1327C34.9519 37.1327 35.3199 37.2207 35.6079 37.3967C35.8959 37.5647 36.1119 37.8247 36.2559 38.1767C36.3999 38.5207 36.4719 38.9567 36.4719 39.4847V43.0967H35.2599V39.5447C35.2599 39.0487 35.1719 38.6847 34.9959 38.4527C34.8279 38.2207 34.5479 38.1047 34.1559 38.1047C33.8679 38.1047 33.6159 38.1727 33.3999 38.3087C33.1839 38.4447 33.0159 38.6447 32.8959 38.9087C32.7839 39.1647 32.7279 39.4687 32.7279 39.8207V43.0967H31.5159V39.5447C31.5159 39.0487 31.4319 38.6847 31.2639 38.4527C31.0959 38.2207 30.8159 38.1047 30.4239 38.1047C30.1279 38.1047 29.8719 38.1727 29.6559 38.3087C29.4479 38.4447 29.2879 38.6447 29.1759 38.9087C29.0639 39.1647 29.0079 39.4687 29.0079 39.8207V43.0967H27.7959ZM40.9145 43.2047C40.2745 43.2047 39.7225 43.0847 39.2585 42.8447C38.8025 42.5967 38.4465 42.2487 38.1905 41.8007C37.9425 41.3447 37.8185 40.8047 37.8185 40.1807C37.8185 39.5727 37.9425 39.0407 38.1905 38.5847C38.4385 38.1287 38.7785 37.7727 39.2105 37.5167C39.6425 37.2607 40.1345 37.1327 40.6865 37.1327C41.2305 37.1327 41.6945 37.2527 42.0785 37.4927C42.4705 37.7247 42.7705 38.0567 42.9785 38.4887C43.1865 38.9207 43.2905 39.4367 43.2905 40.0367V40.4447H38.7785V39.7007H42.4745L42.2705 39.8687C42.2705 39.2687 42.1385 38.8047 41.8745 38.4767C41.6105 38.1487 41.2305 37.9847 40.7345 37.9847C40.3585 37.9847 40.0385 38.0727 39.7745 38.2487C39.5185 38.4247 39.3225 38.6687 39.1865 38.9807C39.0505 39.2927 38.9825 39.6567 38.9825 40.0727V40.1447C38.9825 40.6087 39.0545 41.0007 39.1985 41.3207C39.3505 41.6327 39.5705 41.8687 39.8585 42.0287C40.1465 42.1887 40.5025 42.2687 40.9265 42.2687C41.2625 42.2687 41.5905 42.2167 41.9105 42.1127C42.2385 42.0007 42.5465 41.8287 42.8345 41.5967L43.1945 42.4367C42.9305 42.6767 42.5905 42.8647 42.1745 43.0007C41.7585 43.1367 41.3385 43.2047 40.9145 43.2047ZM46.5198 43.2047C45.8798 43.2047 45.3998 43.0247 45.0798 42.6647C44.7678 42.2967 44.6118 41.7687 44.6118 41.0807V34.6367H45.8238V41.0087C45.8238 41.2647 45.8598 41.4847 45.9318 41.6687C46.0038 41.8447 46.1118 41.9767 46.2558 42.0647C46.3998 42.1527 46.5798 42.1967 46.7958 42.1967C46.8918 42.1967 46.9838 42.1927 47.0718 42.1847C47.1598 42.1767 47.2438 42.1607 47.3238 42.1367L47.2998 43.1087C47.1638 43.1407 47.0318 43.1647 46.9038 43.1807C46.7758 43.1967 46.6478 43.2047 46.5198 43.2047ZM53.4841 43.2047C53.1721 43.2047 52.8681 43.1767 52.5721 43.1207C52.2761 43.0647 52.0041 42.9847 51.7561 42.8807C51.5081 42.7767 51.2881 42.6487 51.0961 42.4967L51.4441 41.6807C51.6441 41.8167 51.8561 41.9367 52.0801 42.0407C52.3041 42.1367 52.5361 42.2087 52.7761 42.2567C53.0241 42.3047 53.2641 42.3287 53.4961 42.3287C53.9201 42.3287 54.2401 42.2527 54.4561 42.1007C54.6721 41.9487 54.7801 41.7447 54.7801 41.4887C54.7801 41.2807 54.7081 41.1207 54.5641 41.0087C54.4201 40.8887 54.2041 40.7967 53.9161 40.7327L52.7761 40.5047C52.2801 40.4007 51.9041 40.2167 51.6481 39.9527C51.3921 39.6887 51.2641 39.3527 51.2641 38.9447C51.2641 38.5767 51.3641 38.2567 51.5641 37.9847C51.7641 37.7127 52.0441 37.5047 52.4041 37.3607C52.7641 37.2087 53.1801 37.1327 53.6521 37.1327C53.9241 37.1327 54.1881 37.1607 54.4441 37.2167C54.7001 37.2727 54.9401 37.3527 55.1641 37.4567C55.3961 37.5607 55.5921 37.6927 55.7521 37.8527L55.4041 38.6687C55.2521 38.5327 55.0761 38.4167 54.8761 38.3207C54.6841 38.2247 54.4841 38.1527 54.2761 38.1047C54.0681 38.0487 53.8601 38.0207 53.6521 38.0207C53.2281 38.0207 52.9081 38.1007 52.6921 38.2607C52.4841 38.4127 52.3801 38.6207 52.3801 38.8847C52.3801 39.0847 52.4441 39.2487 52.5721 39.3767C52.7001 39.5047 52.9001 39.5967 53.1721 39.6527L54.3121 39.8807C54.8321 39.9847 55.2241 40.1607 55.4881 40.4087C55.7601 40.6567 55.8961 40.9927 55.8961 41.4167C55.8961 41.7847 55.7961 42.1047 55.5961 42.3767C55.3961 42.6487 55.1121 42.8567 54.7441 43.0007C54.3841 43.1367 53.9641 43.2047 53.4841 43.2047ZM59.3326 43.2047C58.8606 43.2047 58.4646 43.1167 58.1446 42.9407C57.8326 42.7647 57.5966 42.5047 57.4366 42.1607C57.2846 41.8087 57.2086 41.3687 57.2086 40.8407V37.2407H58.4206V40.8527C58.4206 41.1647 58.4606 41.4247 58.5406 41.6327C58.6286 41.8407 58.7606 41.9927 58.9366 42.0887C59.1206 42.1847 59.3486 42.2327 59.6206 42.2327C59.9246 42.2327 60.1926 42.1647 60.4246 42.0287C60.6566 41.8927 60.8366 41.6967 60.9646 41.4407C61.0926 41.1847 61.1566 40.8887 61.1566 40.5527V37.2407H62.3686V43.0967H61.1926V41.8127H61.3486C61.1886 42.2607 60.9326 42.6047 60.5806 42.8447C60.2286 43.0847 59.8126 43.2047 59.3326 43.2047ZM60.2806 35.8367V34.6487H61.4806V35.8367H60.2806ZM58.1206 35.8367V34.6487H59.3206V35.8367H58.1206ZM64.0766 43.0967V37.2407H65.2526V38.6447H65.1326C65.2606 38.1647 65.4886 37.8007 65.8166 37.5527C66.1526 37.3047 66.5966 37.1607 67.1486 37.1207L67.5446 37.0967L67.6286 38.1287L66.8966 38.2007C66.3766 38.2487 65.9806 38.4127 65.7086 38.6927C65.4366 38.9727 65.3006 39.3567 65.3006 39.8447V43.0967H64.0766ZM70.6412 43.2047C70.1692 43.2047 69.7732 43.1167 69.4532 42.9407C69.1412 42.7647 68.9052 42.5047 68.7452 42.1607C68.5932 41.8087 68.5172 41.3687 68.5172 40.8407V37.2407H69.7292V40.8527C69.7292 41.1647 69.7692 41.4247 69.8492 41.6327C69.9372 41.8407 70.0692 41.9927 70.2452 42.0887C70.4292 42.1847 70.6572 42.2327 70.9292 42.2327C71.2332 42.2327 71.5012 42.1647 71.7332 42.0287C71.9652 41.8927 72.1452 41.6967 72.2732 41.4407C72.4012 41.1847 72.4652 40.8887 72.4652 40.5527V37.2407H73.6772V43.0967H72.5012V41.8127H72.6572C72.4972 42.2607 72.2412 42.6047 71.8892 42.8447C71.5372 43.0847 71.1212 43.2047 70.6412 43.2047ZM71.5892 35.8367V34.6487H72.7892V35.8367H71.5892ZM69.4292 35.8367V34.6487H70.6292V35.8367H69.4292ZM77.4372 43.2047C77.1252 43.2047 76.8212 43.1767 76.5252 43.1207C76.2292 43.0647 75.9572 42.9847 75.7092 42.8807C75.4612 42.7767 75.2412 42.6487 75.0492 42.4967L75.3972 41.6807C75.5972 41.8167 75.8092 41.9367 76.0332 42.0407C76.2572 42.1367 76.4892 42.2087 76.7292 42.2567C76.9772 42.3047 77.2172 42.3287 77.4492 42.3287C77.8732 42.3287 78.1932 42.2527 78.4092 42.1007C78.6252 41.9487 78.7332 41.7447 78.7332 41.4887C78.7332 41.2807 78.6612 41.1207 78.5172 41.0087C78.3732 40.8887 78.1572 40.7967 77.8692 40.7327L76.7292 40.5047C76.2332 40.4007 75.8572 40.2167 75.6012 39.9527C75.3452 39.6887 75.2172 39.3527 75.2172 38.9447C75.2172 38.5767 75.3172 38.2567 75.5172 37.9847C75.7172 37.7127 75.9972 37.5047 76.3572 37.3607C76.7172 37.2087 77.1332 37.1327 77.6052 37.1327C77.8772 37.1327 78.1412 37.1607 78.3972 37.2167C78.6532 37.2727 78.8932 37.3527 79.1172 37.4567C79.3492 37.5607 79.5452 37.6927 79.7052 37.8527L79.3572 38.6687C79.2052 38.5327 79.0292 38.4167 78.8292 38.3207C78.6372 38.2247 78.4372 38.1527 78.2292 38.1047C78.0212 38.0487 77.8132 38.0207 77.6052 38.0207C77.1812 38.0207 76.8612 38.1007 76.6452 38.2607C76.4372 38.4127 76.3332 38.6207 76.3332 38.8847C76.3332 39.0847 76.3972 39.2487 76.5252 39.3767C76.6532 39.5047 76.8532 39.5967 77.1252 39.6527L78.2652 39.8807C78.7852 39.9847 79.1772 40.1607 79.4412 40.4087C79.7132 40.6567 79.8492 40.9927 79.8492 41.4167C79.8492 41.7847 79.7492 42.1047 79.5492 42.3767C79.3492 42.6487 79.0652 42.8567 78.6972 43.0007C78.3372 43.1367 77.9172 43.2047 77.4372 43.2047ZM77.4612 45.4247C77.2452 45.4247 77.0372 45.4007 76.8372 45.3527C76.6372 45.3127 76.4652 45.2527 76.3212 45.1727L76.5012 44.5847C76.6532 44.6487 76.7932 44.6967 76.9212 44.7287C77.0572 44.7607 77.2132 44.7767 77.3892 44.7767C77.5972 44.7767 77.7612 44.7407 77.8812 44.6687C78.0092 44.6047 78.0732 44.5087 78.0732 44.3807C78.0732 44.2847 78.0372 44.2087 77.9652 44.1527C77.8932 44.0967 77.7772 44.0687 77.6172 44.0687C77.5372 44.0687 77.4572 44.0727 77.3772 44.0807C77.2972 44.0967 77.2012 44.1207 77.0892 44.1527L76.8732 43.9607L77.0412 42.8567H77.7372L77.5812 43.7687L77.2452 43.6607C77.3412 43.6367 77.4372 43.6167 77.5332 43.6007C77.6292 43.5847 77.7172 43.5767 77.7972 43.5767C78.0052 43.5767 78.1852 43.6087 78.3372 43.6727C78.4972 43.7367 78.6212 43.8287 78.7092 43.9487C78.7972 44.0767 78.8412 44.2327 78.8412 44.4167C78.8412 44.6167 78.7812 44.7927 78.6612 44.9447C78.5492 45.0967 78.3892 45.2127 78.1812 45.2927C77.9732 45.3807 77.7332 45.4247 77.4612 45.4247ZM26.5333 61.3647C26.0053 61.3647 25.5133 61.3007 25.0573 61.1727C24.6013 61.0447 24.1973 60.8527 23.8453 60.5967L24.2173 59.7327C24.4493 59.8847 24.6853 60.0127 24.9253 60.1167C25.1733 60.2287 25.4213 60.3087 25.6693 60.3567C25.9253 60.4047 26.1853 60.4287 26.4493 60.4287C27.0093 60.4287 27.4293 60.2847 27.7093 59.9967C27.9893 59.7167 28.1293 59.3007 28.1293 58.7487V57.5247H28.2373C28.1173 57.9647 27.8653 58.3127 27.4813 58.5687C27.0973 58.8247 26.6533 58.9527 26.1493 58.9527C25.6213 58.9527 25.1613 58.8327 24.7693 58.5927C24.3773 58.3447 24.0733 58.0047 23.8573 57.5727C23.6413 57.1327 23.5333 56.6207 23.5333 56.0367C23.5333 55.4527 23.6413 54.9447 23.8573 54.5127C24.0733 54.0807 24.3773 53.7447 24.7693 53.5047C25.1613 53.2567 25.6213 53.1327 26.1493 53.1327C26.6613 53.1327 27.1053 53.2607 27.4813 53.5167C27.8653 53.7727 28.1133 54.1207 28.2253 54.5607H28.1293V53.2407H29.3053V58.6047C29.3053 59.2127 29.2013 59.7207 28.9933 60.1287C28.7853 60.5447 28.4733 60.8527 28.0573 61.0527C27.6493 61.2607 27.1413 61.3647 26.5333 61.3647ZM26.4373 58.0047C26.9573 58.0047 27.3653 57.8287 27.6613 57.4767C27.9653 57.1247 28.1173 56.6447 28.1173 56.0367C28.1173 55.4367 27.9653 54.9607 27.6613 54.6087C27.3653 54.2567 26.9573 54.0807 26.4373 54.0807C25.9253 54.0807 25.5173 54.2567 25.2133 54.6087C24.9093 54.9607 24.7573 55.4367 24.7573 56.0367C24.7573 56.6447 24.9093 57.1247 25.2133 57.4767C25.5173 57.8287 25.9253 58.0047 26.4373 58.0047ZM33.5503 59.2047C32.9583 59.2047 32.4463 59.0807 32.0143 58.8327C31.5903 58.5847 31.2583 58.2327 31.0183 57.7767C30.7783 57.3207 30.6583 56.7847 30.6583 56.1687C30.6583 55.5447 30.7783 55.0087 31.0183 54.5607C31.2583 54.1047 31.5903 53.7527 32.0143 53.5047C32.4463 53.2567 32.9583 53.1327 33.5503 53.1327C34.1343 53.1327 34.6383 53.2567 35.0623 53.5047C35.4943 53.7527 35.8303 54.1047 36.0703 54.5607C36.3103 55.0167 36.4303 55.5527 36.4303 56.1687C36.4303 56.7847 36.3103 57.3207 36.0703 57.7767C35.8303 58.2327 35.4943 58.5847 35.0623 58.8327C34.6383 59.0807 34.1343 59.2047 33.5503 59.2047ZM33.5383 58.2687C34.0423 58.2687 34.4463 58.0887 34.7503 57.7287C35.0543 57.3687 35.2063 56.8487 35.2063 56.1687C35.2063 55.4807 35.0543 54.9607 34.7503 54.6087C34.4463 54.2567 34.0423 54.0807 33.5383 54.0807C33.0423 54.0807 32.6423 54.2567 32.3383 54.6087C32.0343 54.9607 31.8823 55.4807 31.8823 56.1687C31.8823 56.8487 32.0343 57.3687 32.3383 57.7287C32.6423 58.0887 33.0423 58.2687 33.5383 58.2687ZM34.0303 51.8487V50.6607H35.2303V51.8487H34.0303ZM31.8703 51.8487V50.6607H33.0703V51.8487H31.8703ZM37.7915 59.0967V53.2407H38.9675V54.6447H38.8475C38.9755 54.1647 39.2035 53.8007 39.5315 53.5527C39.8675 53.3047 40.3115 53.1607 40.8635 53.1207L41.2595 53.0967L41.3435 54.1287L40.6115 54.2007C40.0915 54.2487 39.6955 54.4127 39.4235 54.6927C39.1515 54.9727 39.0155 55.3567 39.0155 55.8447V59.0967H37.7915ZM44.934 59.2047C44.294 59.2047 43.742 59.0847 43.278 58.8447C42.822 58.5967 42.466 58.2487 42.21 57.8007C41.962 57.3447 41.838 56.8047 41.838 56.1807C41.838 55.5727 41.962 55.0407 42.21 54.5847C42.458 54.1287 42.798 53.7727 43.23 53.5167C43.662 53.2607 44.154 53.1327 44.706 53.1327C45.25 53.1327 45.714 53.2527 46.098 53.4927C46.49 53.7247 46.79 54.0567 46.998 54.4887C47.206 54.9207 47.31 55.4367 47.31 56.0367V56.4447H42.798V55.7007H46.494L46.29 55.8687C46.29 55.2687 46.158 54.8047 45.894 54.4767C45.63 54.1487 45.25 53.9847 44.754 53.9847C44.378 53.9847 44.058 54.0727 43.794 54.2487C43.538 54.4247 43.342 54.6687 43.206 54.9807C43.07 55.2927 43.002 55.6567 43.002 56.0727V56.1447C43.002 56.6087 43.074 57.0007 43.218 57.3207C43.37 57.6327 43.59 57.8687 43.878 58.0287C44.166 58.1887 44.522 58.2687 44.946 58.2687C45.282 58.2687 45.61 58.2167 45.93 58.1127C46.258 58.0007 46.566 57.8287 46.854 57.5967L47.214 58.4367C46.95 58.6767 46.61 58.8647 46.194 59.0007C45.778 59.1367 45.358 59.2047 44.934 59.2047ZM50.2653 59.0967L47.7453 53.2407H49.0533L51.0093 58.1007H50.6733L52.6773 53.2407H53.9133L51.3573 59.0967H50.2653ZM56.6916 59.2047C56.0516 59.2047 55.5716 59.0247 55.2516 58.6647C54.9396 58.2967 54.7836 57.7687 54.7836 57.0807V50.6367H55.9956V57.0087C55.9956 57.2647 56.0316 57.4847 56.1036 57.6687C56.1756 57.8447 56.2836 57.9767 56.4276 58.0647C56.5716 58.1527 56.7516 58.1967 56.9676 58.1967C57.0636 58.1967 57.1556 58.1927 57.2436 58.1847C57.3316 58.1767 57.4156 58.1607 57.4956 58.1367L57.4716 59.1087C57.3356 59.1407 57.2036 59.1647 57.0756 59.1807C56.9476 59.1967 56.8196 59.2047 56.6916 59.2047ZM61.141 59.2047C60.501 59.2047 59.949 59.0847 59.485 58.8447C59.029 58.5967 58.673 58.2487 58.417 57.8007C58.169 57.3447 58.045 56.8047 58.045 56.1807C58.045 55.5727 58.169 55.0407 58.417 54.5847C58.665 54.1287 59.005 53.7727 59.437 53.5167C59.869 53.2607 60.361 53.1327 60.913 53.1327C61.457 53.1327 61.921 53.2527 62.305 53.4927C62.697 53.7247 62.997 54.0567 63.205 54.4887C63.413 54.9207 63.517 55.4367 63.517 56.0367V56.4447H59.005V55.7007H62.701L62.497 55.8687C62.497 55.2687 62.365 54.8047 62.101 54.4767C61.837 54.1487 61.457 53.9847 60.961 53.9847C60.585 53.9847 60.265 54.0727 60.001 54.2487C59.745 54.4247 59.549 54.6687 59.413 54.9807C59.277 55.2927 59.209 55.6567 59.209 56.0727V56.1447C59.209 56.6087 59.281 57.0007 59.425 57.3207C59.577 57.6327 59.797 57.8687 60.085 58.0287C60.373 58.1887 60.729 58.2687 61.153 58.2687C61.489 58.2687 61.817 58.2167 62.137 58.1127C62.465 58.0007 62.773 57.8287 63.061 57.5967L63.421 58.4367C63.157 58.6767 62.817 58.8647 62.401 59.0007C61.985 59.1367 61.565 59.2047 61.141 59.2047ZM64.8383 59.0967V53.2407H66.0143V54.6447H65.8943C66.0223 54.1647 66.2503 53.8007 66.5783 53.5527C66.9143 53.3047 67.3583 53.1607 67.9103 53.1207L68.3063 53.0967L68.3903 54.1287L67.6583 54.2007C67.1383 54.2487 66.7423 54.4127 66.4703 54.6927C66.1983 54.9727 66.0623 55.3567 66.0623 55.8447V59.0967H64.8383ZM69.2069 51.8847V50.6247H70.6229V51.8847H69.2069ZM69.3149 59.0967V53.2407H70.5269V59.0967H69.3149Z" fill="black"/>
<path d="M25.6658 76.2047C25.3778 76.2047 25.0818 76.1687 24.7778 76.0967C24.4818 76.0167 24.2018 75.9007 23.9378 75.7487C23.6738 75.5967 23.4418 75.4207 23.2418 75.2207L23.6738 74.2727C23.9698 74.5607 24.2898 74.7807 24.6338 74.9327C24.9778 75.0767 25.3258 75.1487 25.6778 75.1487C26.0538 75.1487 26.3858 75.0807 26.6738 74.9447C26.9618 74.8087 27.2018 74.6047 27.3938 74.3327C27.5938 74.0607 27.7418 73.7247 27.8378 73.3247C27.9418 72.9167 27.9938 72.4487 27.9938 71.9207V70.9007H28.1138C28.0578 71.3247 27.9218 71.6967 27.7058 72.0167C27.4978 72.3367 27.2258 72.5807 26.8898 72.7487C26.5618 72.9167 26.1898 73.0007 25.7738 73.0007C25.2858 73.0007 24.8498 72.8847 24.4658 72.6527C24.0898 72.4207 23.7898 72.1007 23.5658 71.6927C23.3498 71.2847 23.2418 70.8247 23.2418 70.3127C23.2418 69.7687 23.3578 69.2887 23.5898 68.8727C23.8298 68.4487 24.1538 68.1207 24.5618 67.8887C24.9698 67.6487 25.4418 67.5287 25.9778 67.5287C26.6658 67.5287 27.2458 67.6927 27.7178 68.0207C28.1898 68.3407 28.5498 68.8127 28.7978 69.4367C29.0538 70.0607 29.1818 70.8087 29.1818 71.6807C29.1818 72.6487 29.0418 73.4687 28.7618 74.1407C28.4818 74.8127 28.0818 75.3247 27.5618 75.6767C27.0418 76.0287 26.4098 76.2047 25.6658 76.2047ZM26.0618 71.9807C26.3818 71.9807 26.6658 71.9087 26.9138 71.7647C27.1618 71.6207 27.3538 71.4207 27.4898 71.1647C27.6338 70.9007 27.7058 70.5967 27.7058 70.2527C27.7058 69.9167 27.6338 69.6207 27.4898 69.3647C27.3538 69.1007 27.1618 68.8967 26.9138 68.7527C26.6658 68.6007 26.3818 68.5247 26.0618 68.5247C25.7338 68.5247 25.4458 68.6007 25.1978 68.7527C24.9578 68.8967 24.7658 69.1007 24.6218 69.3647C24.4858 69.6207 24.4178 69.9167 24.4178 70.2527C24.4178 70.5967 24.4858 70.9007 24.6218 71.1647C24.7658 71.4207 24.9578 71.6207 25.1978 71.7647C25.4458 71.9087 25.7338 71.9807 26.0618 71.9807ZM30.5811 76.0967V74.6687H32.0091V76.0967H30.5811ZM36.8571 76.0967V67.6367H40.3851C41.2651 67.6367 41.9451 67.8327 42.4251 68.2247C42.9131 68.6087 43.1571 69.1487 43.1571 69.8447C43.1571 70.3567 43.0051 70.7887 42.7011 71.1407C42.3971 71.4927 41.9851 71.7287 41.4651 71.8487V71.6687C41.8571 71.7247 42.1931 71.8447 42.4731 72.0287C42.7611 72.2047 42.9811 72.4407 43.1331 72.7367C43.2851 73.0247 43.3611 73.3647 43.3611 73.7567C43.3611 74.2527 43.2491 74.6767 43.0251 75.0287C42.8011 75.3807 42.4771 75.6487 42.0531 75.8327C41.6291 76.0087 41.1211 76.0967 40.5291 76.0967H36.8571ZM38.0571 75.1367H40.3851C40.6251 75.1367 40.8371 75.1207 41.0211 75.0887C41.2131 75.0487 41.3771 74.9927 41.5131 74.9207C41.6571 74.8407 41.7771 74.7447 41.8731 74.6327C41.9691 74.5127 42.0371 74.3767 42.0771 74.2247C42.1251 74.0727 42.1491 73.9007 42.1491 73.7087C42.1491 73.5167 42.1251 73.3447 42.0771 73.1927C42.0371 73.0407 41.9691 72.9087 41.8731 72.7967C41.7771 72.6847 41.6571 72.5927 41.5131 72.5207C41.3771 72.4407 41.2131 72.3847 41.0211 72.3527C40.8371 72.3127 40.6251 72.2927 40.3851 72.2927H38.0571V75.1367ZM38.0571 71.3327H40.1931C40.7691 71.3327 41.2051 71.2167 41.5011 70.9847C41.7971 70.7527 41.9451 70.4127 41.9451 69.9647C41.9451 69.5167 41.7971 69.1767 41.5011 68.9447C41.2051 68.7127 40.7691 68.5967 40.1931 68.5967H38.0571V71.3327ZM47.4488 76.2047C46.8568 76.2047 46.3448 76.0807 45.9128 75.8327C45.4888 75.5847 45.1568 75.2327 44.9168 74.7767C44.6768 74.3207 44.5568 73.7847 44.5568 73.1687C44.5568 72.5447 44.6768 72.0087 44.9168 71.5607C45.1568 71.1047 45.4888 70.7527 45.9128 70.5047C46.3448 70.2567 46.8568 70.1327 47.4488 70.1327C48.0328 70.1327 48.5368 70.2567 48.9608 70.5047C49.3928 70.7527 49.7288 71.1047 49.9688 71.5607C50.2088 72.0167 50.3288 72.5527 50.3288 73.1687C50.3288 73.7847 50.2088 74.3207 49.9688 74.7767C49.7288 75.2327 49.3928 75.5847 48.9608 75.8327C48.5368 76.0807 48.0328 76.2047 47.4488 76.2047ZM47.4368 75.2687C47.9408 75.2687 48.3448 75.0887 48.6488 74.7287C48.9528 74.3687 49.1048 73.8487 49.1048 73.1687C49.1048 72.4807 48.9528 71.9607 48.6488 71.6087C48.3448 71.2567 47.9408 71.0807 47.4368 71.0807C46.9408 71.0807 46.5408 71.2567 46.2368 71.6087C45.9328 71.9607 45.7808 72.4807 45.7808 73.1687C45.7808 73.8487 45.9328 74.3687 46.2368 74.7287C46.5408 75.0887 46.9408 75.2687 47.4368 75.2687ZM47.9288 68.8487V67.6607H49.1288V68.8487H47.9288ZM45.7688 68.8487V67.6607H46.9688V68.8487H45.7688ZM53.5979 76.2047C52.9579 76.2047 52.4779 76.0247 52.1579 75.6647C51.8459 75.2967 51.6899 74.7687 51.6899 74.0807V67.6367H52.9019V74.0087C52.9019 74.2647 52.9379 74.4847 53.0099 74.6687C53.0819 74.8447 53.1899 74.9767 53.3339 75.0647C53.4779 75.1527 53.6579 75.1967 53.8739 75.1967C53.9699 75.1967 54.0619 75.1927 54.1499 75.1847C54.2379 75.1767 54.3219 75.1607 54.4019 75.1367L54.3779 76.1087C54.2419 76.1407 54.1099 76.1647 53.9819 76.1807C53.8539 76.1967 53.7259 76.2047 53.5979 76.2047ZM57.4459 76.2047C56.9739 76.2047 56.5779 76.1167 56.2579 75.9407C55.9459 75.7647 55.7099 75.5047 55.5499 75.1607C55.3979 74.8087 55.3219 74.3687 55.3219 73.8407V70.2407H56.5339V73.8527C56.5339 74.1647 56.5739 74.4247 56.6539 74.6327C56.7419 74.8407 56.8739 74.9927 57.0499 75.0887C57.2339 75.1847 57.4619 75.2327 57.7339 75.2327C58.0379 75.2327 58.3059 75.1647 58.5379 75.0287C58.7699 74.8927 58.9499 74.6967 59.0779 74.4407C59.2059 74.1847 59.2699 73.8887 59.2699 73.5527V70.2407H60.4819V76.0967H59.3059V74.8127H59.4619C59.3019 75.2607 59.0459 75.6047 58.6939 75.8447C58.3419 76.0847 57.9259 76.2047 57.4459 76.2047ZM58.3939 68.8367V67.6487H59.5939V68.8367H58.3939ZM56.2339 68.8367V67.6487H57.4339V68.8367H56.2339ZM62.2139 76.0967V70.2407H63.3899V71.4887H63.2579C63.3619 71.2007 63.5059 70.9567 63.6899 70.7567C63.8739 70.5567 64.0939 70.4047 64.3499 70.3007C64.6139 70.1887 64.9019 70.1327 65.2139 70.1327C65.7019 70.1327 66.0979 70.2487 66.4019 70.4807C66.7059 70.7127 66.9139 71.0687 67.0259 71.5487H66.8579C67.0099 71.1087 67.2699 70.7647 67.6379 70.5167C68.0059 70.2607 68.4339 70.1327 68.9219 70.1327C69.3699 70.1327 69.7379 70.2207 70.0259 70.3967C70.3139 70.5647 70.5299 70.8247 70.6739 71.1767C70.8179 71.5207 70.8899 71.9567 70.8899 72.4847V76.0967H69.6779V72.5447C69.6779 72.0487 69.5899 71.6847 69.4139 71.4527C69.2459 71.2207 68.9659 71.1047 68.5739 71.1047C68.2859 71.1047 68.0339 71.1727 67.8179 71.3087C67.6019 71.4447 67.4339 71.6447 67.3139 71.9087C67.2019 72.1647 67.1459 72.4687 67.1459 72.8207V76.0967H65.9339V72.5447C65.9339 72.0487 65.8499 71.6847 65.6819 71.4527C65.5139 71.2207 65.2339 71.1047 64.8419 71.1047C64.5459 71.1047 64.2899 71.1727 64.0739 71.3087C63.8659 71.4447 63.7059 71.6447 63.5939 71.9087C63.4819 72.1647 63.4259 72.4687 63.4259 72.8207V76.0967H62.2139Z" fill="#667085"/>
<defs>
<filter id="filter0_d_8310_1103" x="0" y="1.09668" width="96" height="85.8462" filterUnits="userSpaceOnUse" color-interpolation-filters="sRGB">
<feFlood flood-opacity="0" result="BackgroundImageFix"/>
<feColorMatrix in="SourceAlpha" type="matrix" values="0 0 0 0 0 0 0 0 0 0 0 0 0 0 0 0 0 0 127 0" result="hardAlpha"/>
<feOffset dy="4"/>
<feGaussianBlur stdDeviation="2"/>
<feComposite in2="hardAlpha" operator="out"/>
<feColorMatrix type="matrix" values="0 0 0 0 0 0 0 0 0 0 0 0 0 0 0 0 0 0 0.25 0"/>
<feBlend mode="normal" in2="BackgroundImageFix" result="effect1_dropShadow_8310_1103"/>
<feBlend mode="normal" in="SourceGraphic" in2="effect1_dropShadow_8310_1103" result="shape"/>
</filter>
</defs>
</svg>
