<svg width="96" height="86" viewBox="0 0 96 86" fill="none" xmlns="http://www.w3.org/2000/svg">
<g filter="url(#filter0_d_8310_691)">
<path d="M5.37285 42.5954C4.62083 41.2858 4.24484 40.6305 4.09767 39.9343C3.96744 39.3181 3.96744 38.6817 4.09767 38.0655C4.24484 37.3693 4.62083 36.714 5.37285 35.4043L23.5901 3.67245C24.3421 2.3626 24.7181 1.70767 25.2442 1.23135C25.7096 0.809902 26.2579 0.491516 26.8535 0.296907C27.5267 0.0769041 28.2787 0.0769043 29.7827 0.0769043H66.2171C67.7214 0.0769043 68.4731 0.0769041 69.1466 0.296907C69.7419 0.491516 70.2903 0.809902 70.756 1.23135C71.282 1.70767 71.6578 2.3626 72.41 3.67245L90.6271 35.4043C91.3792 36.714 91.7551 37.3693 91.9021 38.0655C92.0326 38.6817 92.0326 39.3181 91.9021 39.9343C91.7551 40.6305 91.3792 41.2858 90.6271 42.5954L72.41 74.3275C71.6578 75.6372 71.282 76.292 70.756 76.7684C70.2903 77.19 69.7419 77.5082 69.1466 77.7028C68.4731 77.9231 67.7214 77.9231 66.2171 77.9231H29.7827C28.2787 77.9231 27.5267 77.9231 26.8535 77.7028C26.2579 77.5082 25.7096 77.19 25.2442 76.7684C24.7181 76.292 24.3421 75.6372 23.5901 74.3275L5.37285 42.5954Z" fill="white"/>
</g>
<path d="M52.2051 13.5769H41.2051C40.1051 13.5769 39.2051 14.4769 39.2051 15.5769V35.5769C39.2051 36.6769 40.1051 37.5769 41.2051 37.5769H55.2051C56.3051 37.5769 57.2051 36.6769 57.2051 35.5769V18.5769L52.2051 13.5769Z" fill="#F2BB41" stroke="#F2BB41" stroke-width="2" stroke-miterlimit="10" stroke-linecap="round" stroke-linejoin="round"/>
<path d="M52.2051 13.5769V18.5769H57.2051L52.2051 13.5769Z" fill="#E08838" stroke="#E08838" stroke-width="2" stroke-miterlimit="10" stroke-linecap="round" stroke-linejoin="round"/>
<path d="M35.3727 53.5769V45.1169H36.6207V48.9209H36.6447L40.5687 45.1169H42.1047L37.5087 49.5209L37.5327 48.9089L42.3447 53.5769H40.7847L36.6447 49.6289H36.6207V53.5769H35.3727ZM44.8236 53.6849C44.4156 53.6849 44.0476 53.6049 43.7196 53.4449C43.3996 53.2849 43.1476 53.0689 42.9636 52.7969C42.7796 52.5249 42.6876 52.2169 42.6876 51.8729C42.6876 51.4409 42.7956 51.1009 43.0116 50.8529C43.2356 50.5969 43.5996 50.4169 44.1036 50.3129C44.6156 50.2009 45.3036 50.1449 46.1676 50.1449H46.7316V50.8889H46.1796C45.7476 50.8889 45.3836 50.9049 45.0876 50.9369C44.7916 50.9689 44.5556 51.0209 44.3796 51.0929C44.2036 51.1569 44.0756 51.2489 43.9956 51.3689C43.9236 51.4889 43.8876 51.6329 43.8876 51.8009C43.8876 52.1049 43.9916 52.3529 44.1996 52.5449C44.4076 52.7289 44.6956 52.8209 45.0636 52.8209C45.3596 52.8209 45.6196 52.7529 45.8436 52.6169C46.0676 52.4729 46.2436 52.2809 46.3716 52.0409C46.5076 51.8009 46.5756 51.5249 46.5756 51.2129V49.8329C46.5756 49.3769 46.4796 49.0489 46.2876 48.8489C46.0956 48.6489 45.7796 48.5489 45.3396 48.5489C45.0036 48.5489 44.6676 48.6009 44.3316 48.7049C43.9956 48.8009 43.6516 48.9569 43.2996 49.1729L42.9276 48.3209C43.1356 48.1769 43.3756 48.0529 43.6476 47.9489C43.9196 47.8449 44.2036 47.7649 44.4996 47.7089C44.8036 47.6449 45.0956 47.6129 45.3756 47.6129C45.9116 47.6129 46.3516 47.6969 46.6956 47.8649C47.0476 48.0329 47.3076 48.2889 47.4756 48.6329C47.6436 48.9769 47.7276 49.4209 47.7276 49.9649V53.5769H46.5876V52.2689H46.6956C46.6316 52.5649 46.5116 52.8209 46.3356 53.0369C46.1676 53.2449 45.9556 53.4049 45.6996 53.5169C45.4436 53.6289 45.1516 53.6849 44.8236 53.6849ZM49.9383 55.7369L51.0903 53.1689V53.6849L48.5343 47.7209H49.8303L51.7983 52.5809H51.4623L53.4543 47.7209H54.7023L51.2103 55.7369H49.9383ZM55.5727 53.5769V47.7209H56.7847V53.5769H55.5727ZM60.9867 53.6849C60.2587 53.6849 59.7107 53.4969 59.3427 53.1209C58.9827 52.7449 58.8027 52.2009 58.8027 51.4889V48.6569H57.6627V47.7209H58.8027V45.9569H60.0147V47.7209H61.8267V48.6569H60.0147V51.3929C60.0147 51.8169 60.1027 52.1369 60.2787 52.3529C60.4627 52.5689 60.7587 52.6769 61.1667 52.6769C61.2867 52.6769 61.4067 52.6609 61.5267 52.6289C61.6547 52.5969 61.7787 52.5649 61.8987 52.5329L62.0907 53.4449C61.9707 53.5169 61.8027 53.5729 61.5867 53.6129C61.3787 53.6609 61.1787 53.6849 60.9867 53.6849Z" fill="black"/>
<defs>
<filter id="filter0_d_8310_691" x="0" y="0.0769043" width="96" height="85.8462" filterUnits="userSpaceOnUse" color-interpolation-filters="sRGB">
<feFlood flood-opacity="0" result="BackgroundImageFix"/>
<feColorMatrix in="SourceAlpha" type="matrix" values="0 0 0 0 0 0 0 0 0 0 0 0 0 0 0 0 0 0 127 0" result="hardAlpha"/>
<feOffset dy="4"/>
<feGaussianBlur stdDeviation="2"/>
<feComposite in2="hardAlpha" operator="out"/>
<feColorMatrix type="matrix" values="0 0 0 0 0 0 0 0 0 0 0 0 0 0 0 0 0 0 0.25 0"/>
<feBlend mode="normal" in2="BackgroundImageFix" result="effect1_dropShadow_8310_691"/>
<feBlend mode="normal" in="SourceGraphic" in2="effect1_dropShadow_8310_691" result="shape"/>
</filter>
</defs>
</svg>
