<svg width="102" height="93" viewBox="0 0 102 93" fill="none" xmlns="http://www.w3.org/2000/svg">
<g filter="url(#filter0_d_8334_725)">
<path d="M5.45148 48.8639C4.65639 47.5542 4.25887 46.8988 4.10327 46.2026C3.96558 45.5864 3.96558 44.9499 4.10327 44.3337C4.25887 43.6375 4.65639 42.9822 5.45148 41.6724L24.7122 9.93899C25.5072 8.62907 25.9047 7.9741 26.4609 7.49776C26.953 7.0763 27.5327 6.75789 28.1625 6.56328C28.8742 6.34326 29.6693 6.34326 31.2595 6.34326H69.7806C71.3711 6.34326 72.1659 6.34326 72.8779 6.56328C73.5073 6.75789 74.0871 7.0763 74.5794 7.49776C75.1356 7.9741 75.533 8.62907 76.3282 9.93899L95.5887 41.6724C96.3839 42.9822 96.7813 43.6375 96.9368 44.3337C97.0747 44.9499 97.0747 45.5864 96.9368 46.2026C96.7813 46.8988 96.3839 47.5542 95.5887 48.8639L76.3282 80.5975C75.533 81.9073 75.1356 82.5621 74.5794 83.0386C74.0871 83.4602 73.5073 83.7784 72.8779 83.973C72.1659 84.1933 71.3711 84.1933 69.7806 84.1933H31.2595C29.6693 84.1933 28.8742 84.1933 28.1625 83.973C27.5327 83.7784 26.953 83.4602 26.4609 83.0386C25.9047 82.5621 25.5072 81.9073 24.7122 80.5975L5.45148 48.8639Z" fill="white"/>
</g>
<path d="M57.8718 10.7388L61.2121 17.4475C61.2711 17.5357 61.3002 17.6528 61.3293 17.741C61.5346 18.2688 61.6808 19.001 61.6808 19.4697V22.6628C61.6808 23.6594 61.0068 24.4797 60.0693 24.7141V26.5891C60.0693 27.4975 59.3371 28.2007 58.4577 28.2007C57.5493 28.2007 56.8461 27.4975 56.8461 26.5891V24.7722H44.0136V26.5891C44.0136 27.4975 43.3105 28.2007 42.4021 28.2007C41.5227 28.2007 40.7905 27.4975 40.7905 26.5891V24.7141C39.853 24.4797 39.179 23.6594 39.179 22.6628V19.4697C39.179 19.001 39.3252 18.2688 39.5305 17.741C39.5596 17.6528 39.5896 17.5357 39.6477 17.4475L42.988 10.7388C43.2515 10.241 43.9546 9.77222 44.5405 9.77222H56.3183C56.9043 9.77222 57.6083 10.241 57.8718 10.7388ZM44.3652 12.76L42.5783 16.8325C42.4902 16.9788 42.4902 17.155 42.4902 17.2722H58.3696C58.3696 17.155 58.3696 16.9788 58.2815 16.8325L56.4946 12.76C56.2602 12.2322 55.5571 11.7635 55.0002 11.7635H45.8596C45.3027 11.7635 44.5996 12.2322 44.3652 12.76ZM43.5749 22.6619C44.5124 22.6619 45.2446 21.8997 45.2446 20.9332C45.2446 19.9957 44.5124 19.2635 43.5749 19.2635C42.6374 19.2635 41.8461 19.9957 41.8461 20.9332C41.8461 21.8997 42.6374 22.6619 43.5749 22.6619ZM57.2858 22.6619C58.2233 22.6619 59.0146 21.8997 59.0146 20.9332C59.0146 19.9957 58.2233 19.2635 57.2858 19.2635C56.3483 19.2635 55.6161 19.9957 55.6161 20.9332C55.6161 21.8997 56.3483 22.6619 57.2858 22.6619Z" fill="#F2BB41"/>
<path d="M35.0428 43V34.54H36.2908V38.344H36.3148L40.2388 34.54H41.7748L37.1788 38.944L37.2028 38.332L42.0148 43H40.4548L36.3148 39.052H36.2908V43H35.0428ZM44.4938 43.108C44.0858 43.108 43.7178 43.028 43.3898 42.868C43.0698 42.708 42.8178 42.492 42.6338 42.22C42.4498 41.948 42.3578 41.64 42.3578 41.296C42.3578 40.864 42.4658 40.524 42.6818 40.276C42.9058 40.02 43.2698 39.84 43.7738 39.736C44.2858 39.624 44.9738 39.568 45.8378 39.568H46.4018V40.312H45.8498C45.4178 40.312 45.0538 40.328 44.7578 40.36C44.4618 40.392 44.2258 40.444 44.0498 40.516C43.8738 40.58 43.7458 40.672 43.6658 40.792C43.5938 40.912 43.5578 41.056 43.5578 41.224C43.5578 41.528 43.6618 41.776 43.8698 41.968C44.0778 42.152 44.3658 42.244 44.7338 42.244C45.0298 42.244 45.2898 42.176 45.5138 42.04C45.7378 41.896 45.9138 41.704 46.0418 41.464C46.1778 41.224 46.2458 40.948 46.2458 40.636V39.256C46.2458 38.8 46.1498 38.472 45.9578 38.272C45.7658 38.072 45.4498 37.972 45.0098 37.972C44.6738 37.972 44.3378 38.024 44.0018 38.128C43.6658 38.224 43.3218 38.38 42.9698 38.596L42.5978 37.744C42.8058 37.6 43.0458 37.476 43.3178 37.372C43.5898 37.268 43.8738 37.188 44.1698 37.132C44.4738 37.068 44.7658 37.036 45.0458 37.036C45.5818 37.036 46.0218 37.12 46.3658 37.288C46.7178 37.456 46.9778 37.712 47.1458 38.056C47.3138 38.4 47.3978 38.844 47.3978 39.388V43H46.2578V41.692H46.3658C46.3018 41.988 46.1818 42.244 46.0058 42.46C45.8378 42.668 45.6258 42.828 45.3698 42.94C45.1138 43.052 44.8218 43.108 44.4938 43.108ZM50.9751 43.108C50.3351 43.108 49.8551 42.928 49.5351 42.568C49.2231 42.2 49.0671 41.672 49.0671 40.984V34.54H50.2791V40.912C50.2791 41.168 50.3151 41.388 50.3871 41.572C50.4591 41.748 50.5671 41.88 50.7111 41.968C50.8551 42.056 51.0351 42.1 51.2511 42.1C51.3471 42.1 51.4391 42.096 51.5271 42.088C51.6151 42.08 51.6991 42.064 51.7791 42.04L51.7551 43.012C51.6191 43.044 51.4871 43.068 51.3591 43.084C51.2311 43.1 51.1031 43.108 50.9751 43.108ZM52.7351 43V34.54H53.9471V39.7H53.9711L56.5151 37.144H58.0151L54.9311 40.24V39.676L58.2311 43H56.7191L53.9711 40.324H53.9471V43H52.7351ZM58.9226 43V37.144H60.1346V43H58.9226ZM63.8925 43.108C63.5805 43.108 63.2765 43.08 62.9805 43.024C62.6845 42.968 62.4125 42.888 62.1645 42.784C61.9165 42.68 61.6965 42.552 61.5045 42.4L61.8525 41.584C62.0525 41.72 62.2645 41.84 62.4885 41.944C62.7125 42.04 62.9445 42.112 63.1845 42.16C63.4325 42.208 63.6725 42.232 63.9045 42.232C64.3285 42.232 64.6485 42.156 64.8645 42.004C65.0805 41.852 65.1885 41.648 65.1885 41.392C65.1885 41.184 65.1165 41.024 64.9725 40.912C64.8285 40.792 64.6125 40.7 64.3245 40.636L63.1845 40.408C62.6885 40.304 62.3125 40.12 62.0565 39.856C61.8005 39.592 61.6725 39.256 61.6725 38.848C61.6725 38.48 61.7725 38.16 61.9725 37.888C62.1725 37.616 62.4525 37.408 62.8125 37.264C63.1725 37.112 63.5885 37.036 64.0605 37.036C64.3325 37.036 64.5965 37.064 64.8525 37.12C65.1085 37.176 65.3485 37.256 65.5725 37.36C65.8045 37.464 66.0005 37.596 66.1605 37.756L65.8125 38.572C65.6605 38.436 65.4845 38.32 65.2845 38.224C65.0925 38.128 64.8925 38.056 64.6845 38.008C64.4765 37.952 64.2685 37.924 64.0605 37.924C63.6365 37.924 63.3165 38.004 63.1005 38.164C62.8925 38.316 62.7885 38.524 62.7885 38.788C62.7885 38.988 62.8525 39.152 62.9805 39.28C63.1085 39.408 63.3085 39.5 63.5805 39.556L64.7205 39.784C65.2405 39.888 65.6325 40.064 65.8965 40.312C66.1685 40.56 66.3045 40.896 66.3045 41.32C66.3045 41.688 66.2045 42.008 66.0045 42.28C65.8045 42.552 65.5205 42.76 65.1525 42.904C64.7925 43.04 64.3725 43.108 63.8925 43.108ZM63.9165 45.328C63.7005 45.328 63.4925 45.304 63.2925 45.256C63.0925 45.216 62.9205 45.156 62.7765 45.076L62.9565 44.488C63.1085 44.552 63.2485 44.6 63.3765 44.632C63.5125 44.664 63.6685 44.68 63.8445 44.68C64.0525 44.68 64.2165 44.644 64.3365 44.572C64.4645 44.508 64.5285 44.412 64.5285 44.284C64.5285 44.188 64.4925 44.112 64.4205 44.056C64.3485 44 64.2325 43.972 64.0725 43.972C63.9925 43.972 63.9125 43.976 63.8325 43.984C63.7525 44 63.6565 44.024 63.5445 44.056L63.3285 43.864L63.4965 42.76H64.1925L64.0365 43.672L63.7005 43.564C63.7965 43.54 63.8925 43.52 63.9885 43.504C64.0845 43.488 64.1725 43.48 64.2525 43.48C64.4605 43.48 64.6405 43.512 64.7925 43.576C64.9525 43.64 65.0765 43.732 65.1645 43.852C65.2525 43.98 65.2965 44.136 65.2965 44.32C65.2965 44.52 65.2365 44.696 65.1165 44.848C65.0045 45 64.8445 45.116 64.6365 45.196C64.4285 45.284 64.1885 45.328 63.9165 45.328ZM27.7479 59V50.54H28.9959V54.344H29.0199L32.9439 50.54H34.4799L29.8839 54.944L29.9079 54.332L34.7199 59H33.1599L29.0199 55.052H28.9959V59H27.7479ZM37.7302 59.108C37.1382 59.108 36.6262 58.984 36.1942 58.736C35.7702 58.488 35.4382 58.136 35.1982 57.68C34.9582 57.224 34.8382 56.688 34.8382 56.072C34.8382 55.448 34.9582 54.912 35.1982 54.464C35.4382 54.008 35.7702 53.656 36.1942 53.408C36.6262 53.16 37.1382 53.036 37.7302 53.036C38.3142 53.036 38.8182 53.16 39.2422 53.408C39.6742 53.656 40.0102 54.008 40.2502 54.464C40.4902 54.92 40.6102 55.456 40.6102 56.072C40.6102 56.688 40.4902 57.224 40.2502 57.68C40.0102 58.136 39.6742 58.488 39.2422 58.736C38.8182 58.984 38.3142 59.108 37.7302 59.108ZM37.7182 58.172C38.2222 58.172 38.6262 57.992 38.9302 57.632C39.2342 57.272 39.3862 56.752 39.3862 56.072C39.3862 55.384 39.2342 54.864 38.9302 54.512C38.6262 54.16 38.2222 53.984 37.7182 53.984C37.2222 53.984 36.8222 54.16 36.5182 54.512C36.2142 54.864 36.0622 55.384 36.0622 56.072C36.0622 56.752 36.2142 57.272 36.5182 57.632C36.8222 57.992 37.2222 58.172 37.7182 58.172ZM41.9714 59V53.144H43.1474V54.392H43.0154C43.1914 53.944 43.4674 53.608 43.8434 53.384C44.2194 53.152 44.6514 53.036 45.1394 53.036C45.6034 53.036 45.9874 53.124 46.2914 53.3C46.6034 53.468 46.8354 53.728 46.9874 54.08C47.1394 54.424 47.2154 54.86 47.2154 55.388V59H46.0034V55.46C46.0034 55.124 45.9594 54.852 45.8714 54.644C45.7834 54.428 45.6514 54.268 45.4754 54.164C45.2994 54.06 45.0714 54.008 44.7914 54.008C44.4714 54.008 44.1874 54.076 43.9394 54.212C43.6994 54.348 43.5114 54.544 43.3754 54.8C43.2474 55.056 43.1834 55.352 43.1834 55.688V59H41.9714ZM51.3814 59.108C50.6534 59.108 50.1054 58.92 49.7374 58.544C49.3774 58.168 49.1974 57.624 49.1974 56.912V54.08H48.0574V53.144H49.1974V51.38H50.4094V53.144H52.2214V54.08H50.4094V56.816C50.4094 57.24 50.4974 57.56 50.6734 57.776C50.8574 57.992 51.1534 58.1 51.5614 58.1C51.6814 58.1 51.8014 58.084 51.9214 58.052C52.0494 58.02 52.1734 57.988 52.2934 57.956L52.4854 58.868C52.3654 58.94 52.1974 58.996 51.9814 59.036C51.7734 59.084 51.5734 59.108 51.3814 59.108ZM53.2683 59V53.144H54.4443V54.548H54.3243C54.4523 54.068 54.6803 53.704 55.0083 53.456C55.3443 53.208 55.7883 53.064 56.3403 53.024L56.7363 53L56.8203 54.032L56.0883 54.104C55.5683 54.152 55.1723 54.316 54.9003 54.596C54.6283 54.876 54.4923 55.26 54.4923 55.748V59H53.2683ZM60.2068 59.108C59.6148 59.108 59.1028 58.984 58.6708 58.736C58.2468 58.488 57.9148 58.136 57.6748 57.68C57.4348 57.224 57.3148 56.688 57.3148 56.072C57.3148 55.448 57.4348 54.912 57.6748 54.464C57.9148 54.008 58.2468 53.656 58.6708 53.408C59.1028 53.16 59.6148 53.036 60.2068 53.036C60.7908 53.036 61.2948 53.16 61.7188 53.408C62.1508 53.656 62.4868 54.008 62.7268 54.464C62.9668 54.92 63.0868 55.456 63.0868 56.072C63.0868 56.688 62.9668 57.224 62.7268 57.68C62.4868 58.136 62.1508 58.488 61.7188 58.736C61.2948 58.984 60.7908 59.108 60.2068 59.108ZM60.1948 58.172C60.6988 58.172 61.1028 57.992 61.4068 57.632C61.7108 57.272 61.8628 56.752 61.8628 56.072C61.8628 55.384 61.7108 54.864 61.4068 54.512C61.1028 54.16 60.6988 53.984 60.1948 53.984C59.6988 53.984 59.2988 54.16 58.9948 54.512C58.6908 54.864 58.5388 55.384 58.5388 56.072C58.5388 56.752 58.6908 57.272 58.9948 57.632C59.2988 57.992 59.6988 58.172 60.1948 58.172ZM66.3559 59.108C65.7159 59.108 65.2359 58.928 64.9159 58.568C64.6039 58.2 64.4479 57.672 64.4479 56.984V50.54H65.6599V56.912C65.6599 57.168 65.6959 57.388 65.7679 57.572C65.8399 57.748 65.9479 57.88 66.0919 57.968C66.2359 58.056 66.4159 58.1 66.6319 58.1C66.7279 58.1 66.8199 58.096 66.9079 58.088C66.9959 58.08 67.0799 58.064 67.1599 58.04L67.1359 59.012C66.9999 59.044 66.8679 59.068 66.7399 59.084C66.6119 59.1 66.4839 59.108 66.3559 59.108ZM70.2039 59.108C69.7319 59.108 69.3359 59.02 69.0159 58.844C68.7039 58.668 68.4679 58.408 68.3079 58.064C68.1559 57.712 68.0799 57.272 68.0799 56.744V53.144H69.2919V56.756C69.2919 57.068 69.3319 57.328 69.4119 57.536C69.4999 57.744 69.6319 57.896 69.8079 57.992C69.9919 58.088 70.2199 58.136 70.4919 58.136C70.7959 58.136 71.0639 58.068 71.2959 57.932C71.5279 57.796 71.7079 57.6 71.8359 57.344C71.9639 57.088 72.0279 56.792 72.0279 56.456V53.144H73.2399V59H72.0639V57.716H72.2199C72.0599 58.164 71.8039 58.508 71.4519 58.748C71.0999 58.988 70.6839 59.108 70.2039 59.108ZM71.1519 51.74V50.552H72.3519V51.74H71.1519ZM68.9919 51.74V50.552H70.1919V51.74H68.9919Z" fill="black"/>
<path d="M23.7089 76V74.956H25.6289V68.596H26.2529L24.1289 69.916L23.6249 68.992L25.9889 67.54H26.8649V74.956H28.6649V76H23.7089ZM33.1002 76.108C32.4442 76.108 31.8922 75.94 31.4442 75.604C30.9962 75.268 30.6562 74.78 30.4242 74.14C30.1922 73.492 30.0762 72.7 30.0762 71.764C30.0762 70.812 30.1922 70.016 30.4242 69.376C30.6562 68.736 30.9962 68.252 31.4442 67.924C31.8922 67.596 32.4442 67.432 33.1002 67.432C33.7642 67.432 34.3202 67.596 34.7682 67.924C35.2162 68.244 35.5522 68.724 35.7762 69.364C36.0082 70.004 36.1242 70.8 36.1242 71.752C36.1242 72.688 36.0082 73.48 35.7762 74.128C35.5442 74.776 35.2042 75.268 34.7562 75.604C34.3082 75.94 33.7562 76.108 33.1002 76.108ZM33.1002 75.076C33.7162 75.076 34.1682 74.808 34.4562 74.272C34.7522 73.736 34.9002 72.896 34.9002 71.752C34.9002 70.608 34.7522 69.776 34.4562 69.256C34.1682 68.728 33.7162 68.464 33.1002 68.464C32.4922 68.464 32.0402 68.728 31.7442 69.256C31.4482 69.776 31.3002 70.608 31.3002 71.752C31.3002 72.896 31.4482 73.736 31.7442 74.272C32.0402 74.808 32.4922 75.076 33.1002 75.076ZM37.4035 76V74.572H38.8315V76H37.4035ZM43.6795 76V67.54H47.2075C48.0875 67.54 48.7675 67.736 49.2475 68.128C49.7355 68.512 49.9795 69.052 49.9795 69.748C49.9795 70.26 49.8275 70.692 49.5235 71.044C49.2195 71.396 48.8075 71.632 48.2875 71.752V71.572C48.6795 71.628 49.0155 71.748 49.2955 71.932C49.5835 72.108 49.8035 72.344 49.9555 72.64C50.1075 72.928 50.1835 73.268 50.1835 73.66C50.1835 74.156 50.0715 74.58 49.8475 74.932C49.6235 75.284 49.2995 75.552 48.8755 75.736C48.4515 75.912 47.9435 76 47.3515 76H43.6795ZM44.8795 75.04H47.2075C47.4475 75.04 47.6595 75.024 47.8435 74.992C48.0355 74.952 48.1995 74.896 48.3355 74.824C48.4795 74.744 48.5995 74.648 48.6955 74.536C48.7915 74.416 48.8595 74.28 48.8995 74.128C48.9475 73.976 48.9715 73.804 48.9715 73.612C48.9715 73.42 48.9475 73.248 48.8995 73.096C48.8595 72.944 48.7915 72.812 48.6955 72.7C48.5995 72.588 48.4795 72.496 48.3355 72.424C48.1995 72.344 48.0355 72.288 47.8435 72.256C47.6595 72.216 47.4475 72.196 47.2075 72.196H44.8795V75.04ZM44.8795 71.236H47.0155C47.5915 71.236 48.0275 71.12 48.3235 70.888C48.6195 70.656 48.7675 70.316 48.7675 69.868C48.7675 69.42 48.6195 69.08 48.3235 68.848C48.0275 68.616 47.5915 68.5 47.0155 68.5H44.8795V71.236ZM54.2712 76.108C53.6792 76.108 53.1672 75.984 52.7352 75.736C52.3112 75.488 51.9792 75.136 51.7392 74.68C51.4992 74.224 51.3792 73.688 51.3792 73.072C51.3792 72.448 51.4992 71.912 51.7392 71.464C51.9792 71.008 52.3112 70.656 52.7352 70.408C53.1672 70.16 53.6792 70.036 54.2712 70.036C54.8552 70.036 55.3592 70.16 55.7832 70.408C56.2152 70.656 56.5512 71.008 56.7912 71.464C57.0312 71.92 57.1512 72.456 57.1512 73.072C57.1512 73.688 57.0312 74.224 56.7912 74.68C56.5512 75.136 56.2152 75.488 55.7832 75.736C55.3592 75.984 54.8552 76.108 54.2712 76.108ZM54.2592 75.172C54.7632 75.172 55.1672 74.992 55.4712 74.632C55.7752 74.272 55.9272 73.752 55.9272 73.072C55.9272 72.384 55.7752 71.864 55.4712 71.512C55.1672 71.16 54.7632 70.984 54.2592 70.984C53.7632 70.984 53.3632 71.16 53.0592 71.512C52.7552 71.864 52.6032 72.384 52.6032 73.072C52.6032 73.752 52.7552 74.272 53.0592 74.632C53.3632 74.992 53.7632 75.172 54.2592 75.172ZM54.7512 68.752V67.564H55.9512V68.752H54.7512ZM52.5912 68.752V67.564H53.7912V68.752H52.5912ZM60.4204 76.108C59.7804 76.108 59.3004 75.928 58.9804 75.568C58.6684 75.2 58.5124 74.672 58.5124 73.984V67.54H59.7244V73.912C59.7244 74.168 59.7604 74.388 59.8324 74.572C59.9044 74.748 60.0124 74.88 60.1564 74.968C60.3004 75.056 60.4804 75.1 60.6964 75.1C60.7924 75.1 60.8844 75.096 60.9724 75.088C61.0604 75.08 61.1444 75.064 61.2244 75.04L61.2004 76.012C61.0644 76.044 60.9324 76.068 60.8044 76.084C60.6764 76.1 60.5484 76.108 60.4204 76.108ZM64.2683 76.108C63.7963 76.108 63.4003 76.02 63.0803 75.844C62.7683 75.668 62.5323 75.408 62.3723 75.064C62.2203 74.712 62.1443 74.272 62.1443 73.744V70.144H63.3563V73.756C63.3563 74.068 63.3963 74.328 63.4763 74.536C63.5643 74.744 63.6963 74.896 63.8723 74.992C64.0563 75.088 64.2843 75.136 64.5563 75.136C64.8603 75.136 65.1283 75.068 65.3603 74.932C65.5923 74.796 65.7723 74.6 65.9003 74.344C66.0283 74.088 66.0923 73.792 66.0923 73.456V70.144H67.3043V76H66.1283V74.716H66.2843C66.1243 75.164 65.8683 75.508 65.5163 75.748C65.1643 75.988 64.7483 76.108 64.2683 76.108ZM65.2163 68.74V67.552H66.4163V68.74H65.2163ZM63.0563 68.74V67.552H64.2563V68.74H63.0563ZM69.0364 76V70.144H70.2124V71.392H70.0804C70.1844 71.104 70.3284 70.86 70.5124 70.66C70.6964 70.46 70.9164 70.308 71.1724 70.204C71.4364 70.092 71.7244 70.036 72.0364 70.036C72.5244 70.036 72.9204 70.152 73.2244 70.384C73.5284 70.616 73.7364 70.972 73.8484 71.452H73.6804C73.8324 71.012 74.0924 70.668 74.4604 70.42C74.8284 70.164 75.2564 70.036 75.7444 70.036C76.1924 70.036 76.5604 70.124 76.8484 70.3C77.1364 70.468 77.3524 70.728 77.4964 71.08C77.6404 71.424 77.7124 71.86 77.7124 72.388V76H76.5004V72.448C76.5004 71.952 76.4124 71.588 76.2364 71.356C76.0684 71.124 75.7884 71.008 75.3964 71.008C75.1084 71.008 74.8564 71.076 74.6404 71.212C74.4244 71.348 74.2564 71.548 74.1364 71.812C74.0244 72.068 73.9684 72.372 73.9684 72.724V76H72.7564V72.448C72.7564 71.952 72.6724 71.588 72.5044 71.356C72.3364 71.124 72.0564 71.008 71.6644 71.008C71.3684 71.008 71.1124 71.076 70.8964 71.212C70.6884 71.348 70.5284 71.548 70.4164 71.812C70.3044 72.068 70.2484 72.372 70.2484 72.724V76H69.0364Z" fill="#667085"/>
<defs>
<filter id="filter0_d_8334_725" x="0" y="6.34326" width="101.04" height="85.8501" filterUnits="userSpaceOnUse" color-interpolation-filters="sRGB">
<feFlood flood-opacity="0" result="BackgroundImageFix"/>
<feColorMatrix in="SourceAlpha" type="matrix" values="0 0 0 0 0 0 0 0 0 0 0 0 0 0 0 0 0 0 127 0" result="hardAlpha"/>
<feOffset dy="4"/>
<feGaussianBlur stdDeviation="2"/>
<feComposite in2="hardAlpha" operator="out"/>
<feColorMatrix type="matrix" values="0 0 0 0 0 0 0 0 0 0 0 0 0 0 0 0 0 0 0.25 0"/>
<feBlend mode="normal" in2="BackgroundImageFix" result="effect1_dropShadow_8334_725"/>
<feBlend mode="normal" in="SourceGraphic" in2="effect1_dropShadow_8334_725" result="shape"/>
</filter>
</defs>
</svg>
