<svg width="96" height="88" viewBox="0 0 96 88" fill="none" xmlns="http://www.w3.org/2000/svg">
<g filter="url(#filter0_d_8310_820)">
<path d="M5.37285 44.0185C4.62083 42.7089 4.24484 42.0536 4.09767 41.3574C3.96744 40.7412 3.96744 40.1048 4.09767 39.4886C4.24484 38.7924 4.62083 38.1371 5.37285 36.8274L23.5901 5.09555C24.3421 3.78569 24.7181 3.13076 25.2442 2.65444C25.7096 2.233 26.2579 1.91461 26.8535 1.72C27.5267 1.5 28.2787 1.5 29.7827 1.5H66.2171C67.7214 1.5 68.4731 1.5 69.1466 1.72C69.7419 1.91461 70.2903 2.233 70.756 2.65444C71.282 3.13076 71.6578 3.78569 72.41 5.09555L90.6271 36.8274C91.3792 38.1371 91.7551 38.7924 91.9021 39.4886C92.0326 40.1048 92.0326 40.7412 91.9021 41.3574C91.7551 42.0536 91.3792 42.7089 90.6271 44.0185L72.41 75.7506C71.6578 77.0603 71.282 77.7151 70.756 78.1915C70.2903 78.6131 69.7419 78.9313 69.1466 79.1259C68.4731 79.3462 67.7214 79.3462 66.2171 79.3462H29.7827C28.2787 79.3462 27.5267 79.3462 26.8535 79.1259C26.2579 78.9313 25.7096 78.6131 25.2442 78.1915C24.7181 77.7151 24.3421 77.0603 23.5901 75.7506L5.37285 44.0185Z" fill="white"/>
</g>
<g clip-path="url(#clip0_8310_820)">
<path d="M58.5005 20.5293C57.1402 20.1911 56.1248 18.9647 56.1248 17.4998C56.1248 15.7738 57.5239 15 59.25 15C59.4492 15 59.6571 15.0258 59.8464 15.0626C59.8552 15.2503 59.8748 15.435 59.8748 15.6248C59.8748 17.6214 59.3746 18.8762 58.5005 20.5293ZM41.0473 24.6062C42.165 23.0089 44.8598 21.8747 48 21.8747C51.1396 21.8747 53.8277 23.0147 54.9455 24.612C52.9898 26.0292 50.5945 26.8748 48 26.8748C45.4024 26.8748 43.0045 26.0265 41.0473 24.6062ZM36.1252 15C36.1252 14.8081 36.1448 14.6214 36.1536 14.4321C36.3429 14.3953 36.5504 14.3746 36.75 14.3746C38.4761 14.3746 39.8752 15.7738 39.8752 17.4998C39.8752 18.9646 38.8583 20.1889 37.4984 20.5272C36.6248 18.8746 36.1252 16.9955 36.1252 15ZM48 3.12463C53.4652 3.12463 58.0024 6.84047 59.3793 11.8965H36.6207C37.9976 6.84053 42.5348 3.12463 48 3.12463ZM48 0C39.7158 0 33 6.71537 33 15C33 23.2842 39.7158 30 48 30C56.2842 30 63 23.2842 63 15C63 6.71537 56.2842 0 48 0Z" fill="#F2BB41"/>
<path d="M52.6551 16.5516C52.6551 17.6942 50.5613 18.6206 47.9782 18.6206C45.3951 18.6206 43.3013 17.6942 43.3013 16.5516C43.3013 15.409 45.3951 14.4827 47.9782 14.4827C50.5613 14.4827 52.6551 15.409 52.6551 16.5516Z" fill="#E08838"/>
</g>
<path d="M32.8724 43.108C32.4324 43.108 32.0124 43.072 31.6124 43C31.2204 42.92 30.8564 42.808 30.5204 42.664C30.1924 42.512 29.9004 42.332 29.6444 42.124L30.0404 41.14C30.3124 41.34 30.5924 41.508 30.8804 41.644C31.1684 41.78 31.4764 41.884 31.8044 41.956C32.1324 42.02 32.4884 42.052 32.8724 42.052C33.5524 42.052 34.0524 41.932 34.3724 41.692C34.7004 41.444 34.8644 41.124 34.8644 40.732C34.8644 40.516 34.8124 40.332 34.7084 40.18C34.6124 40.028 34.4524 39.9 34.2284 39.796C34.0044 39.684 33.7124 39.592 33.3524 39.52L32.0684 39.256C31.3084 39.096 30.7404 38.832 30.3644 38.464C29.9964 38.096 29.8124 37.6 29.8124 36.976C29.8124 36.464 29.9484 36.016 30.2204 35.632C30.4924 35.248 30.8644 34.952 31.3364 34.744C31.8164 34.536 32.3684 34.432 32.9924 34.432C33.3764 34.432 33.7404 34.472 34.0844 34.552C34.4364 34.624 34.7604 34.736 35.0564 34.888C35.3604 35.04 35.6244 35.224 35.8484 35.44L35.4404 36.388C35.0964 36.084 34.7244 35.86 34.3244 35.716C33.9244 35.564 33.4764 35.488 32.9804 35.488C32.5884 35.488 32.2444 35.548 31.9484 35.668C31.6604 35.788 31.4364 35.956 31.2764 36.172C31.1244 36.388 31.0484 36.644 31.0484 36.94C31.0484 37.276 31.1564 37.544 31.3724 37.744C31.5884 37.944 31.9484 38.096 32.4524 38.2L33.7244 38.464C34.5244 38.632 35.1204 38.892 35.5124 39.244C35.9044 39.596 36.1004 40.064 36.1004 40.648C36.1004 41.136 35.9684 41.568 35.7044 41.944C35.4404 42.312 35.0684 42.6 34.5884 42.808C34.1084 43.008 33.5364 43.108 32.8724 43.108ZM39.4732 43.108C39.0012 43.108 38.6052 43.02 38.2852 42.844C37.9732 42.668 37.7372 42.408 37.5772 42.064C37.4252 41.712 37.3492 41.272 37.3492 40.744V37.144H38.5612V40.756C38.5612 41.068 38.6012 41.328 38.6812 41.536C38.7692 41.744 38.9012 41.896 39.0772 41.992C39.2612 42.088 39.4892 42.136 39.7612 42.136C40.0652 42.136 40.3332 42.068 40.5652 41.932C40.7972 41.796 40.9772 41.6 41.1052 41.344C41.2332 41.088 41.2972 40.792 41.2972 40.456V37.144H42.5092V43H41.3332V41.716H41.4892C41.3292 42.164 41.0732 42.508 40.7212 42.748C40.3692 42.988 39.9532 43.108 39.4732 43.108ZM40.4212 35.74V34.552H41.6212V35.74H40.4212ZM38.2612 35.74V34.552H39.4612V35.74H38.2612ZM44.2172 43V37.144H45.3932V38.548H45.2732C45.4012 38.068 45.6292 37.704 45.9572 37.456C46.2932 37.208 46.7372 37.064 47.2892 37.024L47.6852 37L47.7692 38.032L47.0372 38.104C46.5172 38.152 46.1212 38.316 45.8492 38.596C45.5772 38.876 45.4412 39.26 45.4412 39.748V43H44.2172ZM50.7818 43.108C50.3098 43.108 49.9138 43.02 49.5938 42.844C49.2818 42.668 49.0458 42.408 48.8858 42.064C48.7338 41.712 48.6578 41.272 48.6578 40.744V37.144H49.8698V40.756C49.8698 41.068 49.9098 41.328 49.9898 41.536C50.0778 41.744 50.2098 41.896 50.3858 41.992C50.5698 42.088 50.7978 42.136 51.0698 42.136C51.3738 42.136 51.6418 42.068 51.8738 41.932C52.1058 41.796 52.2858 41.6 52.4138 41.344C52.5418 41.088 52.6058 40.792 52.6058 40.456V37.144H53.8178V43H52.6418V41.716H52.7978C52.6378 42.164 52.3818 42.508 52.0298 42.748C51.6778 42.988 51.2618 43.108 50.7818 43.108ZM51.7298 35.74V34.552H52.9298V35.74H51.7298ZM49.5698 35.74V34.552H50.7698V35.74H49.5698ZM57.5778 43.108C57.2658 43.108 56.9618 43.08 56.6658 43.024C56.3698 42.968 56.0978 42.888 55.8498 42.784C55.6018 42.68 55.3818 42.552 55.1898 42.4L55.5378 41.584C55.7378 41.72 55.9498 41.84 56.1738 41.944C56.3978 42.04 56.6298 42.112 56.8698 42.16C57.1178 42.208 57.3578 42.232 57.5898 42.232C58.0138 42.232 58.3338 42.156 58.5498 42.004C58.7658 41.852 58.8738 41.648 58.8738 41.392C58.8738 41.184 58.8018 41.024 58.6578 40.912C58.5138 40.792 58.2978 40.7 58.0098 40.636L56.8698 40.408C56.3738 40.304 55.9978 40.12 55.7418 39.856C55.4858 39.592 55.3578 39.256 55.3578 38.848C55.3578 38.48 55.4578 38.16 55.6578 37.888C55.8578 37.616 56.1378 37.408 56.4978 37.264C56.8578 37.112 57.2738 37.036 57.7458 37.036C58.0178 37.036 58.2818 37.064 58.5378 37.12C58.7938 37.176 59.0338 37.256 59.2578 37.36C59.4898 37.464 59.6858 37.596 59.8458 37.756L59.4978 38.572C59.3458 38.436 59.1698 38.32 58.9698 38.224C58.7778 38.128 58.5778 38.056 58.3698 38.008C58.1618 37.952 57.9538 37.924 57.7458 37.924C57.3218 37.924 57.0018 38.004 56.7858 38.164C56.5778 38.316 56.4738 38.524 56.4738 38.788C56.4738 38.988 56.5378 39.152 56.6658 39.28C56.7938 39.408 56.9938 39.5 57.2658 39.556L58.4058 39.784C58.9258 39.888 59.3178 40.064 59.5818 40.312C59.8538 40.56 59.9898 40.896 59.9898 41.32C59.9898 41.688 59.8898 42.008 59.6898 42.28C59.4898 42.552 59.2058 42.76 58.8378 42.904C58.4778 43.04 58.0578 43.108 57.5778 43.108ZM57.6018 45.328C57.3858 45.328 57.1778 45.304 56.9778 45.256C56.7778 45.216 56.6058 45.156 56.4618 45.076L56.6418 44.488C56.7938 44.552 56.9338 44.6 57.0618 44.632C57.1978 44.664 57.3538 44.68 57.5298 44.68C57.7378 44.68 57.9018 44.644 58.0218 44.572C58.1498 44.508 58.2138 44.412 58.2138 44.284C58.2138 44.188 58.1778 44.112 58.1058 44.056C58.0338 44 57.9178 43.972 57.7578 43.972C57.6778 43.972 57.5978 43.976 57.5178 43.984C57.4378 44 57.3418 44.024 57.2298 44.056L57.0138 43.864L57.1818 42.76H57.8778L57.7218 43.672L57.3858 43.564C57.4818 43.54 57.5778 43.52 57.6738 43.504C57.7698 43.488 57.8578 43.48 57.9378 43.48C58.1458 43.48 58.3258 43.512 58.4778 43.576C58.6378 43.64 58.7618 43.732 58.8498 43.852C58.9378 43.98 58.9818 44.136 58.9818 44.32C58.9818 44.52 58.9218 44.696 58.8018 44.848C58.6898 45 58.5298 45.116 58.3218 45.196C58.1138 45.284 57.8738 45.328 57.6018 45.328ZM64.0863 43.108C63.4463 43.108 62.8943 42.988 62.4303 42.748C61.9743 42.5 61.6183 42.152 61.3623 41.704C61.1143 41.248 60.9903 40.708 60.9903 40.084C60.9903 39.476 61.1143 38.944 61.3623 38.488C61.6103 38.032 61.9503 37.676 62.3823 37.42C62.8143 37.164 63.3063 37.036 63.8583 37.036C64.4023 37.036 64.8663 37.156 65.2503 37.396C65.6423 37.628 65.9423 37.96 66.1503 38.392C66.3583 38.824 66.4623 39.34 66.4623 39.94V40.348H61.9503V39.604H65.6463L65.4423 39.772C65.4423 39.172 65.3103 38.708 65.0463 38.38C64.7823 38.052 64.4023 37.888 63.9063 37.888C63.5303 37.888 63.2103 37.976 62.9463 38.152C62.6903 38.328 62.4943 38.572 62.3583 38.884C62.2223 39.196 62.1543 39.56 62.1543 39.976V40.048C62.1543 40.512 62.2263 40.904 62.3703 41.224C62.5223 41.536 62.7423 41.772 63.0303 41.932C63.3183 42.092 63.6743 42.172 64.0983 42.172C64.4343 42.172 64.7623 42.12 65.0823 42.016C65.4103 41.904 65.7183 41.732 66.0063 41.5L66.3663 42.34C66.1023 42.58 65.7623 42.768 65.3463 42.904C64.9303 43.04 64.5103 43.108 64.0863 43.108ZM25.5411 61.268C25.0131 61.268 24.5211 61.204 24.0651 61.076C23.6091 60.948 23.2051 60.756 22.8531 60.5L23.2251 59.636C23.4571 59.788 23.6931 59.916 23.9331 60.02C24.1811 60.132 24.4291 60.212 24.6771 60.26C24.9331 60.308 25.1931 60.332 25.4571 60.332C26.0171 60.332 26.4371 60.188 26.7171 59.9C26.9971 59.62 27.1371 59.204 27.1371 58.652V57.428H27.2451C27.1251 57.868 26.8731 58.216 26.4891 58.472C26.1051 58.728 25.6611 58.856 25.1571 58.856C24.6291 58.856 24.1691 58.736 23.7771 58.496C23.3851 58.248 23.0811 57.908 22.8651 57.476C22.6491 57.036 22.5411 56.524 22.5411 55.94C22.5411 55.356 22.6491 54.848 22.8651 54.416C23.0811 53.984 23.3851 53.648 23.7771 53.408C24.1691 53.16 24.6291 53.036 25.1571 53.036C25.6691 53.036 26.1131 53.164 26.4891 53.42C26.8731 53.676 27.1211 54.024 27.2331 54.464H27.1371V53.144H28.3131V58.508C28.3131 59.116 28.2091 59.624 28.0011 60.032C27.7931 60.448 27.4811 60.756 27.0651 60.956C26.6571 61.164 26.1491 61.268 25.5411 61.268ZM25.4451 57.908C25.9651 57.908 26.3731 57.732 26.6691 57.38C26.9731 57.028 27.1251 56.548 27.1251 55.94C27.1251 55.34 26.9731 54.864 26.6691 54.512C26.3731 54.16 25.9651 53.984 25.4451 53.984C24.9331 53.984 24.5251 54.16 24.2211 54.512C23.9171 54.864 23.7651 55.34 23.7651 55.94C23.7651 56.548 23.9171 57.028 24.2211 57.38C24.5251 57.732 24.9331 57.908 25.4451 57.908ZM32.7621 59.108C32.1221 59.108 31.5701 58.988 31.1061 58.748C30.6501 58.5 30.2941 58.152 30.0381 57.704C29.7901 57.248 29.6661 56.708 29.6661 56.084C29.6661 55.476 29.7901 54.944 30.0381 54.488C30.2861 54.032 30.6261 53.676 31.0581 53.42C31.4901 53.164 31.9821 53.036 32.5341 53.036C33.0781 53.036 33.5421 53.156 33.9261 53.396C34.3181 53.628 34.6181 53.96 34.8261 54.392C35.0341 54.824 35.1381 55.34 35.1381 55.94V56.348H30.6261V55.604H34.3221L34.1181 55.772C34.1181 55.172 33.9861 54.708 33.7221 54.38C33.4581 54.052 33.0781 53.888 32.5821 53.888C32.2061 53.888 31.8861 53.976 31.6221 54.152C31.3661 54.328 31.1701 54.572 31.0341 54.884C30.8981 55.196 30.8301 55.56 30.8301 55.976V56.048C30.8301 56.512 30.9021 56.904 31.0461 57.224C31.1981 57.536 31.4181 57.772 31.7061 57.932C31.9941 58.092 32.3501 58.172 32.7741 58.172C33.1101 58.172 33.4381 58.12 33.7581 58.016C34.0861 57.904 34.3941 57.732 34.6821 57.5L35.0421 58.34C34.7781 58.58 34.4381 58.768 34.0221 58.904C33.6061 59.04 33.1861 59.108 32.7621 59.108ZM39.0394 59.108C38.4394 59.108 37.9194 58.984 37.4794 58.736C37.0474 58.48 36.7114 58.124 36.4714 57.668C36.2314 57.204 36.1114 56.66 36.1114 56.036C36.1114 55.42 36.2314 54.888 36.4714 54.44C36.7114 53.992 37.0474 53.648 37.4794 53.408C37.9194 53.16 38.4394 53.036 39.0394 53.036C39.4074 53.036 39.7714 53.1 40.1314 53.228C40.4914 53.348 40.7874 53.524 41.0194 53.756L40.6354 54.608C40.4194 54.4 40.1754 54.248 39.9034 54.152C39.6314 54.048 39.3754 53.996 39.1354 53.996C38.5674 53.996 38.1274 54.176 37.8154 54.536C37.5114 54.888 37.3594 55.392 37.3594 56.048C37.3594 56.704 37.5114 57.22 37.8154 57.596C38.1274 57.964 38.5674 58.148 39.1354 58.148C39.3754 58.148 39.6314 58.1 39.9034 58.004C40.1754 57.9 40.4194 57.744 40.6354 57.536L41.0194 58.4C40.7874 58.616 40.4874 58.788 40.1194 58.916C39.7594 59.044 39.3994 59.108 39.0394 59.108ZM38.9914 61.328C38.7754 61.328 38.5674 61.304 38.3674 61.256C38.1674 61.216 37.9954 61.156 37.8514 61.076L38.0314 60.488C38.1834 60.552 38.3234 60.6 38.4514 60.632C38.5874 60.664 38.7434 60.68 38.9194 60.68C39.1274 60.68 39.2914 60.644 39.4114 60.572C39.5394 60.508 39.6034 60.412 39.6034 60.284C39.6034 60.188 39.5674 60.112 39.4954 60.056C39.4234 60 39.3074 59.972 39.1474 59.972C39.0674 59.972 38.9874 59.976 38.9074 59.984C38.8274 60 38.7314 60.024 38.6194 60.056L38.4034 59.864L38.5714 58.76H39.2674L39.1114 59.672L38.7754 59.564C38.8714 59.54 38.9674 59.52 39.0634 59.504C39.1594 59.488 39.2474 59.48 39.3274 59.48C39.5354 59.48 39.7154 59.512 39.8674 59.576C40.0274 59.64 40.1514 59.732 40.2394 59.852C40.3274 59.98 40.3714 60.136 40.3714 60.32C40.3714 60.52 40.3114 60.696 40.1914 60.848C40.0794 61 39.9194 61.116 39.7114 61.196C39.5034 61.284 39.2634 61.328 38.9914 61.328ZM41.953 51.788V50.528H43.369V51.788H41.953ZM42.061 59V53.144H43.273V59H42.061ZM45.579 61.16L46.731 58.592V59.108L44.175 53.144H45.471L47.439 58.004H47.103L49.095 53.144H50.343L46.851 61.16H45.579ZM53.6519 59.108C53.0599 59.108 52.5479 58.984 52.1159 58.736C51.6919 58.488 51.3599 58.136 51.1199 57.68C50.8799 57.224 50.7599 56.688 50.7599 56.072C50.7599 55.448 50.8799 54.912 51.1199 54.464C51.3599 54.008 51.6919 53.656 52.1159 53.408C52.5479 53.16 53.0599 53.036 53.6519 53.036C54.2359 53.036 54.7399 53.16 55.1639 53.408C55.5959 53.656 55.9319 54.008 56.1719 54.464C56.4119 54.92 56.5319 55.456 56.5319 56.072C56.5319 56.688 56.4119 57.224 56.1719 57.68C55.9319 58.136 55.5959 58.488 55.1639 58.736C54.7399 58.984 54.2359 59.108 53.6519 59.108ZM53.6399 58.172C54.1439 58.172 54.5479 57.992 54.8519 57.632C55.1559 57.272 55.3079 56.752 55.3079 56.072C55.3079 55.384 55.1559 54.864 54.8519 54.512C54.5479 54.16 54.1439 53.984 53.6399 53.984C53.1439 53.984 52.7439 54.16 52.4399 54.512C52.1359 54.864 51.9839 55.384 51.9839 56.072C51.9839 56.752 52.1359 57.272 52.4399 57.632C52.7439 57.992 53.1439 58.172 53.6399 58.172ZM57.893 59V53.144H59.069V54.548H58.949C59.077 54.068 59.305 53.704 59.633 53.456C59.969 53.208 60.413 53.064 60.965 53.024L61.361 53L61.445 54.032L60.713 54.104C60.193 54.152 59.797 54.316 59.525 54.596C59.253 54.876 59.117 55.26 59.117 55.748V59H57.893ZM64.4576 59.108C63.9856 59.108 63.5896 59.02 63.2696 58.844C62.9576 58.668 62.7216 58.408 62.5616 58.064C62.4096 57.712 62.3336 57.272 62.3336 56.744V53.144H63.5456V56.756C63.5456 57.068 63.5856 57.328 63.6656 57.536C63.7536 57.744 63.8856 57.896 64.0616 57.992C64.2456 58.088 64.4736 58.136 64.7456 58.136C65.0496 58.136 65.3176 58.068 65.5496 57.932C65.7816 57.796 65.9616 57.6 66.0896 57.344C66.2176 57.088 66.2816 56.792 66.2816 56.456V53.144H67.4936V59H66.3176V57.716H66.4736C66.3136 58.164 66.0576 58.508 65.7056 58.748C65.3536 58.988 64.9376 59.108 64.4576 59.108ZM68.9736 59V58.208L72.4056 53.78V54.08H68.9736V53.144H73.4976V53.948L70.0416 58.4V58.076H73.6296V59H68.9736Z" fill="black"/>
<path d="M24.4927 76V75.076L27.3127 72.052C27.5767 71.764 27.7887 71.5 27.9487 71.26C28.1087 71.012 28.2247 70.776 28.2967 70.552C28.3767 70.32 28.4167 70.088 28.4167 69.856C28.4167 69.408 28.2807 69.068 28.0087 68.836C27.7367 68.604 27.3367 68.488 26.8087 68.488C26.4007 68.488 26.0127 68.564 25.6447 68.716C25.2847 68.868 24.9407 69.1 24.6127 69.412L24.1687 68.464C24.4887 68.152 24.8967 67.904 25.3927 67.72C25.8887 67.528 26.4047 67.432 26.9407 67.432C27.5247 67.432 28.0167 67.524 28.4167 67.708C28.8247 67.884 29.1327 68.144 29.3407 68.488C29.5487 68.832 29.6527 69.252 29.6527 69.748C29.6527 70.004 29.6207 70.256 29.5567 70.504C29.5007 70.744 29.4087 70.984 29.2807 71.224C29.1607 71.464 29.0047 71.712 28.8127 71.968C28.6287 72.224 28.4047 72.488 28.1407 72.76L25.7287 75.304V74.956H29.9887V76H24.4927ZM31.376 76V74.572H32.804V76H31.376ZM37.652 76V67.54H41.18C42.06 67.54 42.74 67.736 43.22 68.128C43.708 68.512 43.952 69.052 43.952 69.748C43.952 70.26 43.8 70.692 43.496 71.044C43.192 71.396 42.78 71.632 42.26 71.752V71.572C42.652 71.628 42.988 71.748 43.268 71.932C43.556 72.108 43.776 72.344 43.928 72.64C44.08 72.928 44.156 73.268 44.156 73.66C44.156 74.156 44.044 74.58 43.82 74.932C43.596 75.284 43.272 75.552 42.848 75.736C42.424 75.912 41.916 76 41.324 76H37.652ZM38.852 75.04H41.18C41.42 75.04 41.632 75.024 41.816 74.992C42.008 74.952 42.172 74.896 42.308 74.824C42.452 74.744 42.572 74.648 42.668 74.536C42.764 74.416 42.832 74.28 42.872 74.128C42.92 73.976 42.944 73.804 42.944 73.612C42.944 73.42 42.92 73.248 42.872 73.096C42.832 72.944 42.764 72.812 42.668 72.7C42.572 72.588 42.452 72.496 42.308 72.424C42.172 72.344 42.008 72.288 41.816 72.256C41.632 72.216 41.42 72.196 41.18 72.196H38.852V75.04ZM38.852 71.236H40.988C41.564 71.236 42 71.12 42.296 70.888C42.592 70.656 42.74 70.316 42.74 69.868C42.74 69.42 42.592 69.08 42.296 68.848C42 68.616 41.564 68.5 40.988 68.5H38.852V71.236ZM48.2437 76.108C47.6517 76.108 47.1397 75.984 46.7077 75.736C46.2837 75.488 45.9517 75.136 45.7117 74.68C45.4717 74.224 45.3517 73.688 45.3517 73.072C45.3517 72.448 45.4717 71.912 45.7117 71.464C45.9517 71.008 46.2837 70.656 46.7077 70.408C47.1397 70.16 47.6517 70.036 48.2437 70.036C48.8277 70.036 49.3317 70.16 49.7557 70.408C50.1877 70.656 50.5237 71.008 50.7637 71.464C51.0037 71.92 51.1237 72.456 51.1237 73.072C51.1237 73.688 51.0037 74.224 50.7637 74.68C50.5237 75.136 50.1877 75.488 49.7557 75.736C49.3317 75.984 48.8277 76.108 48.2437 76.108ZM48.2317 75.172C48.7357 75.172 49.1397 74.992 49.4437 74.632C49.7477 74.272 49.8997 73.752 49.8997 73.072C49.8997 72.384 49.7477 71.864 49.4437 71.512C49.1397 71.16 48.7357 70.984 48.2317 70.984C47.7357 70.984 47.3357 71.16 47.0317 71.512C46.7277 71.864 46.5757 72.384 46.5757 73.072C46.5757 73.752 46.7277 74.272 47.0317 74.632C47.3357 74.992 47.7357 75.172 48.2317 75.172ZM48.7237 68.752V67.564H49.9237V68.752H48.7237ZM46.5637 68.752V67.564H47.7637V68.752H46.5637ZM54.3928 76.108C53.7528 76.108 53.2728 75.928 52.9528 75.568C52.6408 75.2 52.4848 74.672 52.4848 73.984V67.54H53.6968V73.912C53.6968 74.168 53.7328 74.388 53.8048 74.572C53.8768 74.748 53.9848 74.88 54.1288 74.968C54.2728 75.056 54.4528 75.1 54.6688 75.1C54.7648 75.1 54.8568 75.096 54.9448 75.088C55.0328 75.08 55.1168 75.064 55.1968 75.04L55.1728 76.012C55.0368 76.044 54.9048 76.068 54.7768 76.084C54.6488 76.1 54.5208 76.108 54.3928 76.108ZM58.2408 76.108C57.7688 76.108 57.3728 76.02 57.0528 75.844C56.7408 75.668 56.5048 75.408 56.3448 75.064C56.1928 74.712 56.1168 74.272 56.1168 73.744V70.144H57.3288V73.756C57.3288 74.068 57.3688 74.328 57.4488 74.536C57.5368 74.744 57.6688 74.896 57.8448 74.992C58.0288 75.088 58.2568 75.136 58.5288 75.136C58.8328 75.136 59.1008 75.068 59.3328 74.932C59.5648 74.796 59.7448 74.6 59.8728 74.344C60.0008 74.088 60.0648 73.792 60.0648 73.456V70.144H61.2768V76H60.1008V74.716H60.2568C60.0968 75.164 59.8408 75.508 59.4888 75.748C59.1368 75.988 58.7208 76.108 58.2408 76.108ZM59.1888 68.74V67.552H60.3888V68.74H59.1888ZM57.0288 68.74V67.552H58.2288V68.74H57.0288ZM63.0088 76V70.144H64.1848V71.392H64.0528C64.1568 71.104 64.3008 70.86 64.4848 70.66C64.6688 70.46 64.8888 70.308 65.1448 70.204C65.4088 70.092 65.6968 70.036 66.0088 70.036C66.4968 70.036 66.8928 70.152 67.1968 70.384C67.5008 70.616 67.7088 70.972 67.8208 71.452H67.6528C67.8048 71.012 68.0648 70.668 68.4328 70.42C68.8008 70.164 69.2288 70.036 69.7168 70.036C70.1648 70.036 70.5328 70.124 70.8208 70.3C71.1088 70.468 71.3248 70.728 71.4688 71.08C71.6128 71.424 71.6848 71.86 71.6848 72.388V76H70.4728V72.448C70.4728 71.952 70.3848 71.588 70.2088 71.356C70.0408 71.124 69.7608 71.008 69.3688 71.008C69.0808 71.008 68.8288 71.076 68.6128 71.212C68.3968 71.348 68.2288 71.548 68.1088 71.812C67.9968 72.068 67.9408 72.372 67.9408 72.724V76H66.7288V72.448C66.7288 71.952 66.6448 71.588 66.4768 71.356C66.3088 71.124 66.0288 71.008 65.6368 71.008C65.3408 71.008 65.0848 71.076 64.8688 71.212C64.6608 71.348 64.5008 71.548 64.3888 71.812C64.2768 72.068 64.2208 72.372 64.2208 72.724V76H63.0088Z" fill="#667085"/>
<defs>
<filter id="filter0_d_8310_820" x="0" y="1.5" width="96" height="85.8462" filterUnits="userSpaceOnUse" color-interpolation-filters="sRGB">
<feFlood flood-opacity="0" result="BackgroundImageFix"/>
<feColorMatrix in="SourceAlpha" type="matrix" values="0 0 0 0 0 0 0 0 0 0 0 0 0 0 0 0 0 0 127 0" result="hardAlpha"/>
<feOffset dy="4"/>
<feGaussianBlur stdDeviation="2"/>
<feComposite in2="hardAlpha" operator="out"/>
<feColorMatrix type="matrix" values="0 0 0 0 0 0 0 0 0 0 0 0 0 0 0 0 0 0 0.25 0"/>
<feBlend mode="normal" in2="BackgroundImageFix" result="effect1_dropShadow_8310_820"/>
<feBlend mode="normal" in="SourceGraphic" in2="effect1_dropShadow_8310_820" result="shape"/>
</filter>
<clipPath id="clip0_8310_820">
<rect width="30" height="30" fill="white" transform="translate(33)"/>
</clipPath>
</defs>
</svg>
