<svg width="102" height="86" viewBox="0 0 102 86" fill="none" xmlns="http://www.w3.org/2000/svg">
<g filter="url(#filter0_d_8334_734)">
<path d="M5.45148 42.5206C4.65639 41.2109 4.25887 40.5556 4.10327 39.8593C3.96558 39.2431 3.96558 38.6067 4.10327 37.9905C4.25887 37.2942 4.65639 36.6389 5.45148 35.3292L24.7122 3.59573C25.5072 2.2858 25.9047 1.63084 26.4609 1.1545C26.953 0.733034 27.5327 0.414632 28.1625 0.220013C28.8742 -1.93715e-07 29.6693 0 31.2595 0H69.7806C71.3711 0 72.1659 -1.93715e-07 72.8779 0.220013C73.5073 0.414632 74.0871 0.733034 74.5794 1.1545C75.1356 1.63084 75.533 2.2858 76.3282 3.59573L95.5887 35.3292C96.3839 36.6389 96.7813 37.2942 96.9368 37.9905C97.0747 38.6067 97.0747 39.2431 96.9368 39.8593C96.7813 40.5556 96.3839 41.2109 95.5887 42.5206L76.3282 74.2543C75.533 75.564 75.1356 76.2189 74.5794 76.6953C74.0871 77.1169 73.5073 77.4351 72.8779 77.6298C72.1659 77.85 71.3711 77.85 69.7806 77.85H31.2595C29.6693 77.85 28.8742 77.85 28.1625 77.6298C27.5327 77.4351 26.953 77.1169 26.4609 76.6953C25.9047 76.2189 25.5072 75.564 24.7122 74.2543L5.45148 42.5206Z" fill="white"/>
</g>
<path d="M60.9148 10.8521H41.9502C41.7451 10.8527 41.5486 10.9345 41.4035 11.0796C41.2585 11.2246 41.1767 11.4211 41.176 11.6262V34.6924C41.1769 34.897 41.259 35.0928 41.4041 35.237C41.5492 35.3812 41.7456 35.4619 41.9502 35.4614H60.9148C61.0158 35.4616 61.1159 35.4418 61.2093 35.4032C61.3026 35.3646 61.3875 35.3079 61.4589 35.2365C61.5303 35.165 61.587 35.0802 61.6256 34.9868C61.6642 34.8935 61.684 34.7934 61.6838 34.6924V11.6262C61.6843 11.4216 61.6036 11.2252 61.4594 11.0801C61.3153 10.9349 61.1194 10.8529 60.9148 10.8521ZM50.4045 31.3803H45.2776C45.0736 31.3803 44.878 31.2993 44.7338 31.1551C44.5896 31.0109 44.5085 30.8153 44.5085 30.6113C44.5085 30.4073 44.5896 30.2117 44.7338 30.0675C44.878 29.9233 45.0736 29.8422 45.2776 29.8422H50.4045C51.4142 29.858 51.4168 31.3642 50.4045 31.3803ZM50.4045 25.7407H45.2776C45.0736 25.7407 44.878 25.6597 44.7338 25.5154C44.5896 25.3712 44.5085 25.1756 44.5085 24.9716C44.5085 24.7677 44.5896 24.5721 44.7338 24.4278C44.878 24.2836 45.0736 24.2026 45.2776 24.2026H50.4045C51.4142 24.2183 51.4168 25.7245 50.4045 25.7407ZM52.4758 19.5679C52.4608 20.5777 50.9534 20.5796 50.9377 19.5678V15.5842C50.9387 14.9417 51.1947 14.3259 51.6494 13.8719C52.104 13.4179 52.7203 13.1629 53.3628 13.1629C54.0053 13.1629 54.6215 13.4179 55.0762 13.8719C55.5309 14.3259 55.7868 14.9417 55.7878 15.5842V19.5679C55.7713 20.5784 54.2663 20.5795 54.2497 19.5678V18.486H52.4758V19.5679ZM58.1257 29.8935L55.6033 32.416C55.5328 32.4886 55.4483 32.546 55.3548 32.5848C55.2614 32.6236 55.161 32.6429 55.0598 32.6416C54.9588 32.6419 54.8587 32.6222 54.7654 32.5834C54.6721 32.5447 54.5874 32.4878 54.5164 32.416L53.4499 31.3496C52.7516 30.6261 53.8134 29.5545 54.5369 30.2626L55.0598 30.7855L57.0388 28.8066C57.77 28.108 58.8309 29.1719 58.1257 29.8935ZM58.1257 24.2539L55.6033 26.7763C55.5328 26.8489 55.4483 26.9063 55.3548 26.9451C55.2614 26.9839 55.161 27.0033 55.0598 27.0019C54.9588 27.0023 54.8587 26.9825 54.7654 26.9438C54.6721 26.9051 54.5874 26.8481 54.5164 26.7763L53.4499 25.7099C52.7516 24.9864 53.8134 23.9148 54.5369 24.623L55.0598 25.1459L57.0388 23.167C57.77 22.4683 58.8309 23.5322 58.1257 24.2539Z" fill="#F2BB41"/>
<path d="M54.2497 15.5841C54.2491 15.3493 54.1554 15.1243 53.9892 14.9584C53.8229 14.7926 53.5976 14.6995 53.3628 14.6995C53.1279 14.6995 52.9027 14.7926 52.7364 14.9584C52.5701 15.1243 52.4764 15.3493 52.4758 15.5841V16.9479H54.2497V15.5841Z" fill="#F2BB41"/>
<path d="M30.1031 51.2647C29.6631 51.2647 29.2431 51.2287 28.8431 51.1567C28.4511 51.0767 28.0871 50.9647 27.7511 50.8207C27.4231 50.6687 27.1311 50.4887 26.8751 50.2807L27.2711 49.2967C27.5431 49.4967 27.8231 49.6647 28.1111 49.8007C28.3991 49.9367 28.7071 50.0407 29.0351 50.1127C29.3631 50.1767 29.7191 50.2087 30.1031 50.2087C30.7831 50.2087 31.2831 50.0887 31.6031 49.8487C31.9311 49.6007 32.0951 49.2807 32.0951 48.8887C32.0951 48.6727 32.0431 48.4887 31.9391 48.3367C31.8431 48.1847 31.6831 48.0567 31.4591 47.9527C31.2351 47.8407 30.9431 47.7487 30.5831 47.6767L29.2991 47.4127C28.5391 47.2527 27.9711 46.9887 27.5951 46.6207C27.2271 46.2527 27.0431 45.7567 27.0431 45.1327C27.0431 44.6207 27.1791 44.1727 27.4511 43.7887C27.7231 43.4047 28.0951 43.1087 28.5671 42.9007C29.0471 42.6927 29.5991 42.5887 30.2231 42.5887C30.6071 42.5887 30.9711 42.6287 31.3151 42.7087C31.6671 42.7807 31.9911 42.8927 32.2871 43.0447C32.5911 43.1967 32.8551 43.3807 33.0791 43.5967L32.6711 44.5447C32.3271 44.2407 31.9551 44.0167 31.5551 43.8727C31.1551 43.7207 30.7071 43.6447 30.2111 43.6447C29.8191 43.6447 29.4751 43.7047 29.1791 43.8247C28.8911 43.9447 28.6671 44.1127 28.5071 44.3287C28.3551 44.5447 28.2791 44.8007 28.2791 45.0967C28.2791 45.4327 28.3871 45.7007 28.6031 45.9007C28.8191 46.1007 29.1791 46.2527 29.6831 46.3567L30.9551 46.6207C31.7551 46.7887 32.3511 47.0487 32.7431 47.4007C33.1351 47.7527 33.3311 48.2207 33.3311 48.8047C33.3311 49.2927 33.1991 49.7247 32.9351 50.1007C32.6711 50.4687 32.2991 50.7567 31.8191 50.9647C31.3391 51.1647 30.7671 51.2647 30.1031 51.2647ZM34.6159 51.1567V45.3007H35.8279V51.1567H34.6159ZM37.5339 51.1567V45.3007H38.7099V46.5487H38.5779C38.7539 46.1007 39.0299 45.7647 39.4059 45.5407C39.7819 45.3087 40.2139 45.1927 40.7019 45.1927C41.1659 45.1927 41.5499 45.2807 41.8539 45.4567C42.1659 45.6247 42.3979 45.8847 42.5499 46.2367C42.7019 46.5807 42.7779 47.0167 42.7779 47.5447V51.1567H41.5659V47.6167C41.5659 47.2807 41.5219 47.0087 41.4339 46.8007C41.3459 46.5847 41.2139 46.4247 41.0379 46.3207C40.8619 46.2167 40.6339 46.1647 40.3539 46.1647C40.0339 46.1647 39.7499 46.2327 39.5019 46.3687C39.2619 46.5047 39.0739 46.7007 38.9379 46.9567C38.8099 47.2127 38.7459 47.5087 38.7459 47.8447V51.1567H37.5339ZM46.3199 51.2647C45.9119 51.2647 45.5439 51.1847 45.2159 51.0247C44.8959 50.8647 44.6439 50.6487 44.4599 50.3767C44.2759 50.1047 44.1839 49.7967 44.1839 49.4527C44.1839 49.0207 44.2919 48.6807 44.5079 48.4327C44.7319 48.1767 45.0959 47.9967 45.5999 47.8927C46.1119 47.7807 46.7999 47.7247 47.6639 47.7247H48.2279V48.4687H47.6759C47.2439 48.4687 46.8799 48.4847 46.5839 48.5167C46.2879 48.5487 46.0519 48.6007 45.8759 48.6727C45.6999 48.7367 45.5719 48.8287 45.4919 48.9487C45.4199 49.0687 45.3839 49.2127 45.3839 49.3807C45.3839 49.6847 45.4879 49.9327 45.6959 50.1247C45.9039 50.3087 46.1919 50.4007 46.5599 50.4007C46.8559 50.4007 47.1159 50.3327 47.3399 50.1967C47.5639 50.0527 47.7399 49.8607 47.8679 49.6207C48.0039 49.3807 48.0719 49.1047 48.0719 48.7927V47.4127C48.0719 46.9567 47.9759 46.6287 47.7839 46.4287C47.5919 46.2287 47.2759 46.1287 46.8359 46.1287C46.4999 46.1287 46.1639 46.1807 45.8279 46.2847C45.4919 46.3807 45.1479 46.5367 44.7959 46.7527L44.4239 45.9007C44.6319 45.7567 44.8719 45.6327 45.1439 45.5287C45.4159 45.4247 45.6999 45.3447 45.9959 45.2887C46.2999 45.2247 46.5919 45.1927 46.8719 45.1927C47.4079 45.1927 47.8479 45.2767 48.1919 45.4447C48.5439 45.6127 48.8039 45.8687 48.9719 46.2127C49.1399 46.5567 49.2239 47.0007 49.2239 47.5447V51.1567H48.0839V49.8487H48.1919C48.1279 50.1447 48.0079 50.4007 47.8319 50.6167C47.6639 50.8247 47.4519 50.9847 47.1959 51.0967C46.9399 51.2087 46.6479 51.2647 46.3199 51.2647ZM52.5507 51.1567L50.0307 45.3007H51.3387L53.2947 50.1607H52.9587L54.9627 45.3007H56.1987L53.6427 51.1567H52.5507ZM59.1956 51.2647C58.6836 51.2647 58.2316 51.1447 57.8396 50.9047C57.4556 50.6567 57.1556 50.3047 56.9396 49.8487C56.7236 49.3847 56.6156 48.8447 56.6156 48.2287C56.6156 47.5967 56.7236 47.0567 56.9396 46.6087C57.1556 46.1607 57.4556 45.8127 57.8396 45.5647C58.2316 45.3167 58.6836 45.1927 59.1956 45.1927C59.7076 45.1927 60.1476 45.3207 60.5156 45.5767C60.8916 45.8247 61.1436 46.1607 61.2716 46.5847H61.1396V42.6967H62.3516V51.1567H61.1636V49.8367H61.2836C61.1556 50.2687 60.9036 50.6167 60.5276 50.8807C60.1596 51.1367 59.7156 51.2647 59.1956 51.2647ZM59.5076 50.3287C60.0036 50.3287 60.4036 50.1487 60.7076 49.7887C61.0116 49.4287 61.1636 48.9087 61.1636 48.2287C61.1636 47.5407 61.0116 47.0207 60.7076 46.6687C60.4036 46.3167 60.0036 46.1407 59.5076 46.1407C59.0036 46.1407 58.5996 46.3167 58.2956 46.6687C57.9916 47.0207 57.8396 47.5407 57.8396 48.2287C57.8396 48.9087 57.9916 49.4287 58.2956 49.7887C58.5996 50.1487 59.0036 50.3287 59.5076 50.3287ZM65.9254 51.2647C65.5174 51.2647 65.1494 51.1847 64.8214 51.0247C64.5014 50.8647 64.2494 50.6487 64.0654 50.3767C63.8814 50.1047 63.7894 49.7967 63.7894 49.4527C63.7894 49.0207 63.8974 48.6807 64.1134 48.4327C64.3374 48.1767 64.7014 47.9967 65.2054 47.8927C65.7174 47.7807 66.4054 47.7247 67.2694 47.7247H67.8334V48.4687H67.2814C66.8494 48.4687 66.4854 48.4847 66.1894 48.5167C65.8934 48.5487 65.6574 48.6007 65.4814 48.6727C65.3054 48.7367 65.1774 48.8287 65.0974 48.9487C65.0254 49.0687 64.9894 49.2127 64.9894 49.3807C64.9894 49.6847 65.0934 49.9327 65.3014 50.1247C65.5094 50.3087 65.7974 50.4007 66.1654 50.4007C66.4614 50.4007 66.7214 50.3327 66.9454 50.1967C67.1694 50.0527 67.3454 49.8607 67.4734 49.6207C67.6094 49.3807 67.6774 49.1047 67.6774 48.7927V47.4127C67.6774 46.9567 67.5814 46.6287 67.3894 46.4287C67.1974 46.2287 66.8814 46.1287 66.4414 46.1287C66.1054 46.1287 65.7694 46.1807 65.4334 46.2847C65.0974 46.3807 64.7534 46.5367 64.4014 46.7527L64.0294 45.9007C64.2374 45.7567 64.4774 45.6327 64.7494 45.5287C65.0214 45.4247 65.3054 45.3447 65.6014 45.2887C65.9054 45.2247 66.1974 45.1927 66.4774 45.1927C67.0134 45.1927 67.4534 45.2767 67.7974 45.4447C68.1494 45.6127 68.4094 45.8687 68.5774 46.2127C68.7454 46.5567 68.8294 47.0007 68.8294 47.5447V51.1567H67.6894V49.8487H67.7974C67.7334 50.1447 67.6134 50.4007 67.4374 50.6167C67.2694 50.8247 67.0574 50.9847 66.8014 51.0967C66.5454 51.2087 66.2534 51.2647 65.9254 51.2647ZM70.4987 51.1567V45.3007H71.6747V46.5487H71.5427C71.7187 46.1007 71.9947 45.7647 72.3707 45.5407C72.7467 45.3087 73.1787 45.1927 73.6667 45.1927C74.1307 45.1927 74.5147 45.2807 74.8187 45.4567C75.1307 45.6247 75.3627 45.8847 75.5147 46.2367C75.6667 46.5807 75.7427 47.0167 75.7427 47.5447V51.1567H74.5307V47.6167C74.5307 47.2807 74.4867 47.0087 74.3987 46.8007C74.3107 46.5847 74.1787 46.4247 74.0027 46.3207C73.8267 46.2167 73.5987 46.1647 73.3187 46.1647C72.9987 46.1647 72.7147 46.2327 72.4667 46.3687C72.2267 46.5047 72.0387 46.7007 71.9027 46.9567C71.7747 47.2127 71.7107 47.5087 71.7107 47.8447V51.1567H70.4987ZM42.0115 67.2647C41.4195 67.2647 40.9075 67.1407 40.4755 66.8927C40.0515 66.6447 39.7195 66.2927 39.4795 65.8367C39.2395 65.3807 39.1195 64.8447 39.1195 64.2287C39.1195 63.6047 39.2395 63.0687 39.4795 62.6207C39.7195 62.1647 40.0515 61.8127 40.4755 61.5647C40.9075 61.3167 41.4195 61.1927 42.0115 61.1927C42.5955 61.1927 43.0995 61.3167 43.5235 61.5647C43.9555 61.8127 44.2915 62.1647 44.5315 62.6207C44.7715 63.0767 44.8915 63.6127 44.8915 64.2287C44.8915 64.8447 44.7715 65.3807 44.5315 65.8367C44.2915 66.2927 43.9555 66.6447 43.5235 66.8927C43.0995 67.1407 42.5955 67.2647 42.0115 67.2647ZM41.9995 66.3287C42.5035 66.3287 42.9075 66.1487 43.2115 65.7887C43.5155 65.4287 43.6675 64.9087 43.6675 64.2287C43.6675 63.5407 43.5155 63.0207 43.2115 62.6687C42.9075 62.3167 42.5035 62.1407 41.9995 62.1407C41.5035 62.1407 41.1035 62.3167 40.7995 62.6687C40.4955 63.0207 40.3435 63.5407 40.3435 64.2287C40.3435 64.9087 40.4955 65.4287 40.7995 65.7887C41.1035 66.1487 41.5035 66.3287 41.9995 66.3287ZM42.4915 59.9087V58.7207H43.6915V59.9087H42.4915ZM40.3315 59.9087V58.7207H41.5315V59.9087H40.3315ZM46.2526 67.1567V61.3007H47.4286V62.5487H47.2966C47.4726 62.1007 47.7486 61.7647 48.1246 61.5407C48.5006 61.3087 48.9326 61.1927 49.4206 61.1927C49.8846 61.1927 50.2686 61.2807 50.5726 61.4567C50.8846 61.6247 51.1166 61.8847 51.2686 62.2367C51.4206 62.5807 51.4966 63.0167 51.4966 63.5447V67.1567H50.2846V63.6167C50.2846 63.2807 50.2406 63.0087 50.1526 62.8007C50.0646 62.5847 49.9326 62.4247 49.7566 62.3207C49.5806 62.2167 49.3526 62.1647 49.0726 62.1647C48.7526 62.1647 48.4686 62.2327 48.2206 62.3687C47.9806 62.5047 47.7926 62.7007 47.6566 62.9567C47.5286 63.2127 47.4646 63.5087 47.4646 63.8447V67.1567H46.2526ZM55.7467 67.2647C55.1467 67.2647 54.6267 67.1407 54.1867 66.8927C53.7547 66.6367 53.4187 66.2807 53.1787 65.8247C52.9387 65.3607 52.8187 64.8167 52.8187 64.1927C52.8187 63.5767 52.9387 63.0447 53.1787 62.5967C53.4187 62.1487 53.7547 61.8047 54.1867 61.5647C54.6267 61.3167 55.1467 61.1927 55.7467 61.1927C56.1147 61.1927 56.4787 61.2567 56.8387 61.3847C57.1987 61.5047 57.4947 61.6807 57.7267 61.9127L57.3427 62.7647C57.1267 62.5567 56.8827 62.4047 56.6107 62.3087C56.3387 62.2047 56.0827 62.1527 55.8427 62.1527C55.2747 62.1527 54.8347 62.3327 54.5227 62.6927C54.2187 63.0447 54.0667 63.5487 54.0667 64.2047C54.0667 64.8607 54.2187 65.3767 54.5227 65.7527C54.8347 66.1207 55.2747 66.3047 55.8427 66.3047C56.0827 66.3047 56.3387 66.2567 56.6107 66.1607C56.8827 66.0567 57.1267 65.9007 57.3427 65.6927L57.7267 66.5567C57.4947 66.7727 57.1947 66.9447 56.8267 67.0727C56.4667 67.2007 56.1067 67.2647 55.7467 67.2647ZM61.3991 67.2647C60.7591 67.2647 60.2071 67.1447 59.7431 66.9047C59.2871 66.6567 58.9311 66.3087 58.6751 65.8607C58.4271 65.4047 58.3031 64.8647 58.3031 64.2407C58.3031 63.6327 58.4271 63.1007 58.6751 62.6447C58.9231 62.1887 59.2631 61.8327 59.6951 61.5767C60.1271 61.3207 60.6191 61.1927 61.1711 61.1927C61.7151 61.1927 62.1791 61.3127 62.5631 61.5527C62.9551 61.7847 63.2551 62.1167 63.4631 62.5487C63.6711 62.9807 63.7751 63.4967 63.7751 64.0967V64.5047H59.2631V63.7607H62.9591L62.7551 63.9287C62.7551 63.3287 62.6231 62.8647 62.3591 62.5367C62.0951 62.2087 61.7151 62.0447 61.2191 62.0447C60.8431 62.0447 60.5231 62.1327 60.2591 62.3087C60.0031 62.4847 59.8071 62.7287 59.6711 63.0407C59.5351 63.3527 59.4671 63.7167 59.4671 64.1327V64.2047C59.4671 64.6687 59.5391 65.0607 59.6831 65.3807C59.8351 65.6927 60.0551 65.9287 60.3431 66.0887C60.6311 66.2487 60.9871 66.3287 61.4111 66.3287C61.7471 66.3287 62.0751 66.2767 62.3951 66.1727C62.7231 66.0607 63.0311 65.8887 63.3191 65.6567L63.6791 66.4967C63.4151 66.7367 63.0751 66.9247 62.6591 67.0607C62.2431 67.1967 61.8231 67.2647 61.3991 67.2647Z" fill="black"/>
<defs>
<filter id="filter0_d_8334_734" x="0" y="0" width="101.04" height="85.8501" filterUnits="userSpaceOnUse" color-interpolation-filters="sRGB">
<feFlood flood-opacity="0" result="BackgroundImageFix"/>
<feColorMatrix in="SourceAlpha" type="matrix" values="0 0 0 0 0 0 0 0 0 0 0 0 0 0 0 0 0 0 127 0" result="hardAlpha"/>
<feOffset dy="4"/>
<feGaussianBlur stdDeviation="2"/>
<feComposite in2="hardAlpha" operator="out"/>
<feColorMatrix type="matrix" values="0 0 0 0 0 0 0 0 0 0 0 0 0 0 0 0 0 0 0.25 0"/>
<feBlend mode="normal" in2="BackgroundImageFix" result="effect1_dropShadow_8334_734"/>
<feBlend mode="normal" in="SourceGraphic" in2="effect1_dropShadow_8334_734" result="shape"/>
</filter>
</defs>
</svg>
