<svg width="96" height="88" viewBox="0 0 96 88" fill="none" xmlns="http://www.w3.org/2000/svg">
<g filter="url(#filter0_d_8310_938)">
<path d="M5.37285 44.5185C4.62083 43.2089 4.24484 42.5536 4.09767 41.8574C3.96744 41.2412 3.96744 40.6048 4.09767 39.9886C4.24484 39.2924 4.62083 38.6371 5.37285 37.3274L23.5901 5.59555C24.3421 4.28569 24.7181 3.63076 25.2442 3.15444C25.7096 2.733 26.2579 2.41461 26.8535 2.22C27.5267 2 28.2787 2 29.7827 2H66.2171C67.7214 2 68.4731 2 69.1466 2.22C69.7419 2.41461 70.2903 2.733 70.756 3.15444C71.282 3.63076 71.6578 4.28569 72.41 5.59555L90.6271 37.3274C91.3792 38.6371 91.7551 39.2924 91.9021 39.9886C92.0326 40.6048 92.0326 41.2412 91.9021 41.8574C91.7551 42.5536 91.3792 43.2089 90.6271 44.5185L72.41 76.2506C71.6578 77.5603 71.282 78.2151 70.756 78.6915C70.2903 79.1131 69.7419 79.4313 69.1466 79.6259C68.4731 79.8462 67.7214 79.8462 66.2171 79.8462H29.7827C28.2787 79.8462 27.5267 79.8462 26.8535 79.6259C26.2579 79.4313 25.7096 79.1131 25.2442 78.6915C24.7181 78.2151 24.3421 77.5603 23.5901 76.2506L5.37285 44.5185Z" fill="white"/>
</g>
<path d="M46.5432 27.1574L36.0476 16.6618C35.1147 15.7288 35.1147 14.2711 36.0476 13.3382L46.5432 2.84253C47.4762 1.90959 48.9339 1.90959 49.8669 2.84253L60.3625 13.3382C61.2954 14.2711 61.2954 15.7288 60.3625 16.6618L49.8669 27.1574C48.9339 28.0903 47.4179 28.0903 46.5432 27.1574Z" fill="#F2BB41"/>
<path d="M46.7765 20.1021C46.7765 19.9272 46.8348 19.7523 46.8931 19.5773C46.9514 19.4024 47.068 19.2858 47.1847 19.1692C47.3013 19.0526 47.4762 18.9359 47.6511 18.8776C47.8261 18.8193 48.001 18.761 48.2342 18.761C48.4675 18.761 48.6424 18.8193 48.8173 18.8776C48.9922 18.9359 49.1672 19.0526 49.2838 19.1692C49.4004 19.2858 49.517 19.4024 49.5753 19.5773C49.6336 19.7523 49.6919 19.9272 49.6919 20.1021C49.6919 20.277 49.6336 20.452 49.5753 20.6269C49.517 20.8018 49.4004 20.9184 49.2838 21.0351C49.1672 21.1517 48.9922 21.2683 48.8173 21.3266C48.6424 21.3849 48.4675 21.4432 48.2342 21.4432C48.001 21.4432 47.8261 21.3849 47.6511 21.3266C47.4762 21.2683 47.3596 21.1517 47.1847 21.0351C47.068 20.9184 46.9514 20.8018 46.8931 20.6269C46.8348 20.452 46.7765 20.3353 46.7765 20.1021ZM49.2255 17.4199H47.1263L46.8348 8.61523H49.517L49.2255 17.4199Z" fill="#E08838"/>
<path d="M36.7956 43.108C35.8756 43.108 35.0996 42.936 34.4676 42.592C33.8356 42.24 33.3556 41.74 33.0276 41.092C32.7076 40.444 32.5476 39.672 32.5476 38.776C32.5476 37.88 32.7116 37.108 33.0396 36.46C33.3756 35.812 33.8516 35.312 34.4676 34.96C35.0916 34.608 35.8396 34.432 36.7116 34.432C37.1116 34.432 37.4916 34.472 37.8516 34.552C38.2116 34.624 38.5436 34.736 38.8476 34.888C39.1596 35.04 39.4316 35.228 39.6636 35.452L39.2196 36.424C38.8436 36.104 38.4516 35.876 38.0436 35.74C37.6436 35.596 37.1996 35.524 36.7116 35.524C35.7756 35.524 35.0636 35.808 34.5756 36.376C34.0876 36.936 33.8436 37.736 33.8436 38.776C33.8436 39.84 34.0956 40.648 34.5996 41.2C35.1036 41.752 35.8516 42.028 36.8436 42.028C37.2036 42.028 37.5556 41.996 37.8996 41.932C38.2516 41.86 38.5876 41.76 38.9076 41.632L38.6556 42.256V39.46H36.5916V38.524H39.6996V42.508C39.4676 42.628 39.1876 42.732 38.8596 42.82C38.5396 42.908 38.1996 42.976 37.8396 43.024C37.4876 43.08 37.1396 43.108 36.7956 43.108ZM44.2289 43.108C43.5889 43.108 43.0369 42.988 42.5729 42.748C42.1169 42.5 41.7609 42.152 41.5049 41.704C41.2569 41.248 41.1329 40.708 41.1329 40.084C41.1329 39.476 41.2569 38.944 41.5049 38.488C41.7529 38.032 42.0929 37.676 42.5249 37.42C42.9569 37.164 43.4489 37.036 44.0009 37.036C44.5449 37.036 45.0089 37.156 45.3929 37.396C45.7849 37.628 46.0849 37.96 46.2929 38.392C46.5009 38.824 46.6049 39.34 46.6049 39.94V40.348H42.0929V39.604H45.7889L45.5849 39.772C45.5849 39.172 45.4529 38.708 45.1889 38.38C44.9249 38.052 44.5449 37.888 44.0489 37.888C43.6729 37.888 43.3529 37.976 43.0889 38.152C42.8329 38.328 42.6369 38.572 42.5009 38.884C42.3649 39.196 42.2969 39.56 42.2969 39.976V40.048C42.2969 40.512 42.3689 40.904 42.5129 41.224C42.6649 41.536 42.8849 41.772 43.1729 41.932C43.4609 42.092 43.8169 42.172 44.2409 42.172C44.5769 42.172 44.9049 42.12 45.2249 42.016C45.5529 41.904 45.8609 41.732 46.1489 41.5L46.5089 42.34C46.2449 42.58 45.9049 42.768 45.4889 42.904C45.0729 43.04 44.6529 43.108 44.2289 43.108ZM50.5062 43.108C49.9062 43.108 49.3862 42.984 48.9462 42.736C48.5142 42.48 48.1782 42.124 47.9382 41.668C47.6982 41.204 47.5782 40.66 47.5782 40.036C47.5782 39.42 47.6982 38.888 47.9382 38.44C48.1782 37.992 48.5142 37.648 48.9462 37.408C49.3862 37.16 49.9062 37.036 50.5062 37.036C50.8742 37.036 51.2382 37.1 51.5982 37.228C51.9582 37.348 52.2542 37.524 52.4862 37.756L52.1022 38.608C51.8862 38.4 51.6422 38.248 51.3702 38.152C51.0982 38.048 50.8422 37.996 50.6022 37.996C50.0342 37.996 49.5942 38.176 49.2822 38.536C48.9782 38.888 48.8262 39.392 48.8262 40.048C48.8262 40.704 48.9782 41.22 49.2822 41.596C49.5942 41.964 50.0342 42.148 50.6022 42.148C50.8422 42.148 51.0982 42.1 51.3702 42.004C51.6422 41.9 51.8862 41.744 52.1022 41.536L52.4862 42.4C52.2542 42.616 51.9542 42.788 51.5862 42.916C51.2262 43.044 50.8662 43.108 50.5062 43.108ZM50.4582 45.328C50.2422 45.328 50.0342 45.304 49.8342 45.256C49.6342 45.216 49.4622 45.156 49.3182 45.076L49.4982 44.488C49.6502 44.552 49.7902 44.6 49.9182 44.632C50.0542 44.664 50.2102 44.68 50.3862 44.68C50.5942 44.68 50.7582 44.644 50.8782 44.572C51.0062 44.508 51.0702 44.412 51.0702 44.284C51.0702 44.188 51.0342 44.112 50.9622 44.056C50.8902 44 50.7742 43.972 50.6142 43.972C50.5342 43.972 50.4542 43.976 50.3742 43.984C50.2942 44 50.1982 44.024 50.0862 44.056L49.8702 43.864L50.0382 42.76H50.7342L50.5782 43.672L50.2422 43.564C50.3382 43.54 50.4342 43.52 50.5302 43.504C50.6262 43.488 50.7142 43.48 50.7942 43.48C51.0022 43.48 51.1822 43.512 51.3342 43.576C51.4942 43.64 51.6182 43.732 51.7062 43.852C51.7942 43.98 51.8382 44.136 51.8382 44.32C51.8382 44.52 51.7782 44.696 51.6582 44.848C51.5462 45 51.3862 45.116 51.1782 45.196C50.9702 45.284 50.7302 45.328 50.4582 45.328ZM53.4198 35.788V34.528H54.8358V35.788H53.4198ZM53.5278 43V37.144H54.7398V43H53.5278ZM58.4978 43.108C58.1858 43.108 57.8818 43.08 57.5858 43.024C57.2898 42.968 57.0178 42.888 56.7698 42.784C56.5218 42.68 56.3018 42.552 56.1098 42.4L56.4578 41.584C56.6578 41.72 56.8698 41.84 57.0938 41.944C57.3178 42.04 57.5498 42.112 57.7898 42.16C58.0378 42.208 58.2778 42.232 58.5098 42.232C58.9338 42.232 59.2538 42.156 59.4698 42.004C59.6858 41.852 59.7938 41.648 59.7938 41.392C59.7938 41.184 59.7218 41.024 59.5778 40.912C59.4338 40.792 59.2178 40.7 58.9298 40.636L57.7898 40.408C57.2938 40.304 56.9178 40.12 56.6618 39.856C56.4058 39.592 56.2778 39.256 56.2778 38.848C56.2778 38.48 56.3778 38.16 56.5778 37.888C56.7778 37.616 57.0578 37.408 57.4178 37.264C57.7778 37.112 58.1938 37.036 58.6658 37.036C58.9378 37.036 59.2018 37.064 59.4578 37.12C59.7138 37.176 59.9538 37.256 60.1778 37.36C60.4098 37.464 60.6058 37.596 60.7658 37.756L60.4178 38.572C60.2658 38.436 60.0898 38.32 59.8898 38.224C59.6978 38.128 59.4978 38.056 59.2898 38.008C59.0818 37.952 58.8738 37.924 58.6658 37.924C58.2418 37.924 57.9218 38.004 57.7058 38.164C57.4978 38.316 57.3938 38.524 57.3938 38.788C57.3938 38.988 57.4578 39.152 57.5858 39.28C57.7138 39.408 57.9138 39.5 58.1858 39.556L59.3258 39.784C59.8458 39.888 60.2378 40.064 60.5018 40.312C60.7738 40.56 60.9098 40.896 60.9098 41.32C60.9098 41.688 60.8098 42.008 60.6098 42.28C60.4098 42.552 60.1258 42.76 59.7578 42.904C59.3978 43.04 58.9778 43.108 58.4978 43.108ZM58.5218 45.328C58.3058 45.328 58.0978 45.304 57.8978 45.256C57.6978 45.216 57.5258 45.156 57.3818 45.076L57.5618 44.488C57.7138 44.552 57.8538 44.6 57.9818 44.632C58.1178 44.664 58.2738 44.68 58.4498 44.68C58.6578 44.68 58.8218 44.644 58.9418 44.572C59.0698 44.508 59.1338 44.412 59.1338 44.284C59.1338 44.188 59.0978 44.112 59.0258 44.056C58.9538 44 58.8378 43.972 58.6777 43.972C58.5978 43.972 58.5178 43.976 58.4378 43.984C58.3578 44 58.2618 44.024 58.1498 44.056L57.9338 43.864L58.1018 42.76H58.7978L58.6418 43.672L58.3058 43.564C58.4018 43.54 58.4978 43.52 58.5938 43.504C58.6898 43.488 58.7778 43.48 58.8578 43.48C59.0658 43.48 59.2458 43.512 59.3978 43.576C59.5578 43.64 59.6818 43.732 59.7698 43.852C59.8578 43.98 59.9018 44.136 59.9018 44.32C59.9018 44.52 59.8418 44.696 59.7218 44.848C59.6098 45 59.4498 45.116 59.2418 45.196C59.0338 45.284 58.7938 45.328 58.5218 45.328ZM25.2983 59.108C24.7063 59.108 24.1943 58.984 23.7623 58.736C23.3383 58.488 23.0063 58.136 22.7663 57.68C22.5263 57.224 22.4063 56.688 22.4063 56.072C22.4063 55.448 22.5263 54.912 22.7663 54.464C23.0063 54.008 23.3383 53.656 23.7623 53.408C24.1943 53.16 24.7063 53.036 25.2983 53.036C25.8823 53.036 26.3863 53.16 26.8103 53.408C27.2423 53.656 27.5783 54.008 27.8183 54.464C28.0583 54.92 28.1783 55.456 28.1783 56.072C28.1783 56.688 28.0583 57.224 27.8183 57.68C27.5783 58.136 27.2423 58.488 26.8103 58.736C26.3863 58.984 25.8823 59.108 25.2983 59.108ZM25.2863 58.172C25.7903 58.172 26.1943 57.992 26.4983 57.632C26.8023 57.272 26.9543 56.752 26.9543 56.072C26.9543 55.384 26.8023 54.864 26.4983 54.512C26.1943 54.16 25.7903 53.984 25.2863 53.984C24.7903 53.984 24.3903 54.16 24.0863 54.512C23.7823 54.864 23.6303 55.384 23.6303 56.072C23.6303 56.752 23.7823 57.272 24.0863 57.632C24.3903 57.992 24.7903 58.172 25.2863 58.172ZM25.7783 51.752V50.564H26.9783V51.752H25.7783ZM23.6183 51.752V50.564H24.8183V51.752H23.6183ZM29.5395 59V53.144H30.7155V54.392H30.5835C30.7595 53.944 31.0355 53.608 31.4115 53.384C31.7875 53.152 32.2195 53.036 32.7075 53.036C33.1715 53.036 33.5555 53.124 33.8595 53.3C34.1715 53.468 34.4035 53.728 34.5555 54.08C34.7075 54.424 34.7835 54.86 34.7835 55.388V59H33.5715V55.46C33.5715 55.124 33.5275 54.852 33.4395 54.644C33.3515 54.428 33.2195 54.268 33.0435 54.164C32.8675 54.06 32.6395 54.008 32.3595 54.008C32.0395 54.008 31.7555 54.076 31.5075 54.212C31.2675 54.348 31.0795 54.544 30.9435 54.8C30.8155 55.056 30.7515 55.352 30.7515 55.688V59H29.5395ZM39.0336 59.108C38.4336 59.108 37.9136 58.984 37.4736 58.736C37.0416 58.48 36.7056 58.124 36.4656 57.668C36.2256 57.204 36.1056 56.66 36.1056 56.036C36.1056 55.42 36.2256 54.888 36.4656 54.44C36.7056 53.992 37.0416 53.648 37.4736 53.408C37.9136 53.16 38.4336 53.036 39.0336 53.036C39.4016 53.036 39.7656 53.1 40.1256 53.228C40.4856 53.348 40.7816 53.524 41.0136 53.756L40.6296 54.608C40.4136 54.4 40.1696 54.248 39.8976 54.152C39.6256 54.048 39.3696 53.996 39.1296 53.996C38.5616 53.996 38.1216 54.176 37.8096 54.536C37.5056 54.888 37.3536 55.392 37.3536 56.048C37.3536 56.704 37.5056 57.22 37.8096 57.596C38.1216 57.964 38.5616 58.148 39.1296 58.148C39.3696 58.148 39.6256 58.1 39.8976 58.004C40.1696 57.9 40.4136 57.744 40.6296 57.536L41.0136 58.4C40.7816 58.616 40.4816 58.788 40.1136 58.916C39.7536 59.044 39.3936 59.108 39.0336 59.108ZM44.6859 59.108C44.0459 59.108 43.4939 58.988 43.0299 58.748C42.5739 58.5 42.2179 58.152 41.9619 57.704C41.7139 57.248 41.5899 56.708 41.5899 56.084C41.5899 55.476 41.7139 54.944 41.9619 54.488C42.2099 54.032 42.5499 53.676 42.9819 53.42C43.4139 53.164 43.9059 53.036 44.4579 53.036C45.0019 53.036 45.4659 53.156 45.8499 53.396C46.2419 53.628 46.5419 53.96 46.7499 54.392C46.9579 54.824 47.0619 55.34 47.0619 55.94V56.348H42.5499V55.604H46.2459L46.0419 55.772C46.0419 55.172 45.9099 54.708 45.6459 54.38C45.3819 54.052 45.0019 53.888 44.5059 53.888C44.1299 53.888 43.8099 53.976 43.5459 54.152C43.2899 54.328 43.0939 54.572 42.9579 54.884C42.8219 55.196 42.7539 55.56 42.7539 55.976V56.048C42.7539 56.512 42.8259 56.904 42.9699 57.224C43.1219 57.536 43.3419 57.772 43.6299 57.932C43.9179 58.092 44.2739 58.172 44.6979 58.172C45.0339 58.172 45.3619 58.12 45.6819 58.016C46.0099 57.904 46.3179 57.732 46.6059 57.5L46.9659 58.34C46.7019 58.58 46.3619 58.768 45.9459 58.904C45.5299 59.04 45.1099 59.108 44.6859 59.108ZM50.2913 59.108C49.6513 59.108 49.1713 58.928 48.8513 58.568C48.5393 58.2 48.3833 57.672 48.3833 56.984V50.54H49.5953V56.912C49.5953 57.168 49.6313 57.388 49.7033 57.572C49.7753 57.748 49.8833 57.88 50.0273 57.968C50.1713 58.056 50.3513 58.1 50.5673 58.1C50.6633 58.1 50.7553 58.096 50.8433 58.088C50.9313 58.08 51.0153 58.064 51.0953 58.04L51.0713 59.012C50.9353 59.044 50.8033 59.068 50.6753 59.084C50.5473 59.1 50.4193 59.108 50.2913 59.108ZM51.9432 51.788V50.528H53.3592V51.788H51.9432ZM52.0512 59V53.144H53.2632V59H52.0512ZM57.6212 61.268C57.0932 61.268 56.6012 61.204 56.1452 61.076C55.6892 60.948 55.2852 60.756 54.9332 60.5L55.3052 59.636C55.5372 59.788 55.7732 59.916 56.0132 60.02C56.2612 60.132 56.5092 60.212 56.7572 60.26C57.0132 60.308 57.2732 60.332 57.5372 60.332C58.0972 60.332 58.5172 60.188 58.7972 59.9C59.0772 59.62 59.2172 59.204 59.2172 58.652V57.428H59.3252C59.2052 57.868 58.9532 58.216 58.5692 58.472C58.1852 58.728 57.7412 58.856 57.2372 58.856C56.7092 58.856 56.2492 58.736 55.8572 58.496C55.4652 58.248 55.1612 57.908 54.9452 57.476C54.7292 57.036 54.6212 56.524 54.6212 55.94C54.6212 55.356 54.7292 54.848 54.9452 54.416C55.1612 53.984 55.4652 53.648 55.8572 53.408C56.2492 53.16 56.7092 53.036 57.2372 53.036C57.7492 53.036 58.1932 53.164 58.5692 53.42C58.9532 53.676 59.2012 54.024 59.3132 54.464H59.2172V53.144H60.3932V58.508C60.3932 59.116 60.2892 59.624 60.0812 60.032C59.8732 60.448 59.5612 60.756 59.1452 60.956C58.7372 61.164 58.2292 61.268 57.6212 61.268ZM57.5252 57.908C58.0452 57.908 58.4532 57.732 58.7492 57.38C59.0532 57.028 59.2052 56.548 59.2052 55.94C59.2052 55.34 59.0532 54.864 58.7492 54.512C58.4532 54.16 58.0452 53.984 57.5252 53.984C57.0132 53.984 56.6052 54.16 56.3012 54.512C55.9972 54.864 55.8452 55.34 55.8452 55.94C55.8452 56.548 55.9972 57.028 56.3012 57.38C56.6052 57.732 57.0132 57.908 57.5252 57.908ZM57.6932 52.4C57.3252 52.4 56.9972 52.308 56.7092 52.124C56.4292 51.94 56.2092 51.676 56.0492 51.332C55.8892 50.988 55.7972 50.58 55.7732 50.108L56.4932 50.036C56.5252 50.548 56.6452 50.944 56.8532 51.224C57.0612 51.496 57.3412 51.632 57.6932 51.632C58.0452 51.632 58.3252 51.496 58.5332 51.224C58.7412 50.944 58.8612 50.548 58.8932 50.036L59.6132 50.108C59.5972 50.58 59.5092 50.988 59.3492 51.332C59.1892 51.676 58.9652 51.94 58.6772 52.124C58.3972 52.308 58.0692 52.4 57.6932 52.4ZM61.9862 51.788V50.528H63.4022V51.788H61.9862ZM62.0942 59V53.144H63.3062V59H62.0942ZM68.3325 59V58.076L71.1525 55.052C71.4165 54.764 71.6285 54.5 71.7885 54.26C71.9485 54.012 72.0645 53.776 72.1365 53.552C72.2165 53.32 72.2565 53.088 72.2565 52.856C72.2565 52.408 72.1205 52.068 71.8485 51.836C71.5765 51.604 71.1765 51.488 70.6485 51.488C70.2405 51.488 69.8525 51.564 69.4845 51.716C69.1245 51.868 68.7805 52.1 68.4525 52.412L68.0085 51.464C68.3285 51.152 68.7365 50.904 69.2325 50.72C69.7285 50.528 70.2445 50.432 70.7805 50.432C71.3645 50.432 71.8565 50.524 72.2565 50.708C72.6645 50.884 72.9725 51.144 73.1805 51.488C73.3885 51.832 73.4925 52.252 73.4925 52.748C73.4925 53.004 73.4605 53.256 73.3965 53.504C73.3405 53.744 73.2485 53.984 73.1205 54.224C73.0005 54.464 72.8445 54.712 72.6525 54.968C72.4685 55.224 72.2445 55.488 71.9805 55.76L69.5685 58.304V57.956H73.8285V59H68.3325Z" fill="black"/>
<path d="M27.5778 76.108C26.8978 76.108 26.3178 75.944 25.8378 75.616C25.3658 75.288 25.0018 74.816 24.7458 74.2C24.4978 73.576 24.3738 72.828 24.3738 71.956C24.3738 70.98 24.5138 70.16 24.7938 69.496C25.0738 68.824 25.4778 68.312 26.0058 67.96C26.5338 67.608 27.1658 67.432 27.9018 67.432C28.1898 67.432 28.4818 67.472 28.7778 67.552C29.0738 67.632 29.3538 67.744 29.6178 67.888C29.8898 68.032 30.1218 68.208 30.3138 68.416L29.8818 69.352C29.5858 69.064 29.2658 68.848 28.9218 68.704C28.5858 68.56 28.2378 68.488 27.8778 68.488C27.5018 68.488 27.1698 68.556 26.8818 68.692C26.6018 68.828 26.3618 69.032 26.1618 69.304C25.9698 69.576 25.8218 69.912 25.7178 70.312C25.6218 70.712 25.5738 71.18 25.5738 71.716V72.736H25.4418C25.4978 72.304 25.6298 71.932 25.8378 71.62C26.0538 71.3 26.3298 71.056 26.6658 70.888C27.0018 70.72 27.3738 70.636 27.7818 70.636C28.2778 70.636 28.7138 70.752 29.0898 70.984C29.4738 71.208 29.7738 71.524 29.9898 71.932C30.2058 72.34 30.3138 72.804 30.3138 73.324C30.3138 73.86 30.1978 74.34 29.9658 74.764C29.7338 75.188 29.4098 75.52 28.9938 75.76C28.5858 75.992 28.1138 76.108 27.5778 76.108ZM27.5058 75.1C27.8338 75.1 28.1218 75.028 28.3698 74.884C28.6178 74.74 28.8098 74.54 28.9458 74.284C29.0818 74.02 29.1498 73.716 29.1498 73.372C29.1498 73.028 29.0818 72.728 28.9458 72.472C28.8098 72.216 28.6178 72.016 28.3698 71.872C28.1218 71.72 27.8338 71.644 27.5058 71.644C27.1778 71.644 26.8898 71.72 26.6418 71.872C26.4018 72.016 26.2098 72.216 26.0658 72.472C25.9298 72.728 25.8618 73.028 25.8618 73.372C25.8618 73.716 25.9298 74.02 26.0658 74.284C26.2098 74.54 26.4058 74.74 26.6538 74.884C26.9018 75.028 27.1858 75.1 27.5058 75.1ZM31.5811 76V74.572H33.0091V76H31.5811ZM37.8571 76V67.54H41.3851C42.2651 67.54 42.9451 67.736 43.4251 68.128C43.9131 68.512 44.1571 69.052 44.1571 69.748C44.1571 70.26 44.0051 70.692 43.7011 71.044C43.3971 71.396 42.9851 71.632 42.4651 71.752V71.572C42.8571 71.628 43.1931 71.748 43.4731 71.932C43.7611 72.108 43.9811 72.344 44.1331 72.64C44.2851 72.928 44.3611 73.268 44.3611 73.66C44.3611 74.156 44.2491 74.58 44.0251 74.932C43.8011 75.284 43.4771 75.552 43.0531 75.736C42.6291 75.912 42.1211 76 41.5291 76H37.8571ZM39.0571 75.04H41.3851C41.6251 75.04 41.8371 75.024 42.0211 74.992C42.2131 74.952 42.3771 74.896 42.5131 74.824C42.6571 74.744 42.7771 74.648 42.8731 74.536C42.9691 74.416 43.0371 74.28 43.0771 74.128C43.1251 73.976 43.1491 73.804 43.1491 73.612C43.1491 73.42 43.1251 73.248 43.0771 73.096C43.0371 72.944 42.9691 72.812 42.8731 72.7C42.7771 72.588 42.6571 72.496 42.5131 72.424C42.3771 72.344 42.2131 72.288 42.0211 72.256C41.8371 72.216 41.6251 72.196 41.3851 72.196H39.0571V75.04ZM39.0571 71.236H41.1931C41.7691 71.236 42.2051 71.12 42.5011 70.888C42.7971 70.656 42.9451 70.316 42.9451 69.868C42.9451 69.42 42.7971 69.08 42.5011 68.848C42.2051 68.616 41.7691 68.5 41.1931 68.5H39.0571V71.236ZM48.4488 76.108C47.8568 76.108 47.3448 75.984 46.9128 75.736C46.4888 75.488 46.1568 75.136 45.9168 74.68C45.6768 74.224 45.5568 73.688 45.5568 73.072C45.5568 72.448 45.6768 71.912 45.9168 71.464C46.1568 71.008 46.4888 70.656 46.9128 70.408C47.3448 70.16 47.8568 70.036 48.4488 70.036C49.0328 70.036 49.5368 70.16 49.9608 70.408C50.3928 70.656 50.7288 71.008 50.9688 71.464C51.2088 71.92 51.3288 72.456 51.3288 73.072C51.3288 73.688 51.2088 74.224 50.9688 74.68C50.7288 75.136 50.3928 75.488 49.9608 75.736C49.5368 75.984 49.0328 76.108 48.4488 76.108ZM48.4368 75.172C48.9408 75.172 49.3448 74.992 49.6488 74.632C49.9528 74.272 50.1048 73.752 50.1048 73.072C50.1048 72.384 49.9528 71.864 49.6488 71.512C49.3448 71.16 48.9408 70.984 48.4368 70.984C47.9408 70.984 47.5408 71.16 47.2368 71.512C46.9328 71.864 46.7808 72.384 46.7808 73.072C46.7808 73.752 46.9328 74.272 47.2368 74.632C47.5408 74.992 47.9408 75.172 48.4368 75.172ZM48.9288 68.752V67.564H50.1288V68.752H48.9288ZM46.7688 68.752V67.564H47.9688V68.752H46.7688ZM54.5979 76.108C53.9579 76.108 53.4779 75.928 53.1579 75.568C52.8459 75.2 52.6899 74.672 52.6899 73.984V67.54H53.9019V73.912C53.9019 74.168 53.9379 74.388 54.0099 74.572C54.0819 74.748 54.1899 74.88 54.3339 74.968C54.4779 75.056 54.6579 75.1 54.8739 75.1C54.9699 75.1 55.0619 75.096 55.1499 75.088C55.2379 75.08 55.3219 75.064 55.4019 75.04L55.3779 76.012C55.2419 76.044 55.1099 76.068 54.9819 76.084C54.8539 76.1 54.7259 76.108 54.5979 76.108ZM58.4459 76.108C57.9739 76.108 57.5779 76.02 57.2579 75.844C56.9459 75.668 56.7099 75.408 56.5499 75.064C56.3979 74.712 56.3219 74.272 56.3219 73.744V70.144H57.5339V73.756C57.5339 74.068 57.5739 74.328 57.6539 74.536C57.7419 74.744 57.8739 74.896 58.0499 74.992C58.2339 75.088 58.4619 75.136 58.7339 75.136C59.0379 75.136 59.3059 75.068 59.5379 74.932C59.7699 74.796 59.9499 74.6 60.0779 74.344C60.2059 74.088 60.2699 73.792 60.2699 73.456V70.144H61.4819V76H60.3059V74.716H60.4619C60.3019 75.164 60.0459 75.508 59.6939 75.748C59.3419 75.988 58.9259 76.108 58.4459 76.108ZM59.3939 68.74V67.552H60.5939V68.74H59.3939ZM57.2339 68.74V67.552H58.4339V68.74H57.2339ZM63.2139 76V70.144H64.3899V71.392H64.2579C64.3619 71.104 64.5059 70.86 64.6899 70.66C64.8739 70.46 65.0939 70.308 65.3499 70.204C65.6139 70.092 65.9019 70.036 66.2139 70.036C66.7019 70.036 67.0979 70.152 67.4019 70.384C67.7059 70.616 67.9139 70.972 68.0259 71.452H67.8579C68.0099 71.012 68.2699 70.668 68.6379 70.42C69.0059 70.164 69.4339 70.036 69.9219 70.036C70.3699 70.036 70.7379 70.124 71.0259 70.3C71.3139 70.468 71.5299 70.728 71.6739 71.08C71.8179 71.424 71.8899 71.86 71.8899 72.388V76H70.6779V72.448C70.6779 71.952 70.5899 71.588 70.4139 71.356C70.2459 71.124 69.9659 71.008 69.5739 71.008C69.2859 71.008 69.0339 71.076 68.8179 71.212C68.6019 71.348 68.4339 71.548 68.3139 71.812C68.2019 72.068 68.1459 72.372 68.1459 72.724V76H66.9339V72.448C66.9339 71.952 66.8499 71.588 66.6819 71.356C66.5139 71.124 66.2339 71.008 65.8419 71.008C65.5459 71.008 65.2899 71.076 65.0739 71.212C64.8659 71.348 64.7059 71.548 64.5939 71.812C64.4819 72.068 64.4259 72.372 64.4259 72.724V76H63.2139Z" fill="#667085"/>
<defs>
<filter id="filter0_d_8310_938" x="0" y="2" width="96" height="85.8462" filterUnits="userSpaceOnUse" color-interpolation-filters="sRGB">
<feFlood flood-opacity="0" result="BackgroundImageFix"/>
<feColorMatrix in="SourceAlpha" type="matrix" values="0 0 0 0 0 0 0 0 0 0 0 0 0 0 0 0 0 0 127 0" result="hardAlpha"/>
<feOffset dy="4"/>
<feGaussianBlur stdDeviation="2"/>
<feComposite in2="hardAlpha" operator="out"/>
<feColorMatrix type="matrix" values="0 0 0 0 0 0 0 0 0 0 0 0 0 0 0 0 0 0 0.25 0"/>
<feBlend mode="normal" in2="BackgroundImageFix" result="effect1_dropShadow_8310_938"/>
<feBlend mode="normal" in="SourceGraphic" in2="effect1_dropShadow_8310_938" result="shape"/>
</filter>
</defs>
</svg>
