<svg width="96" height="86" viewBox="0 0 96 86" fill="none" xmlns="http://www.w3.org/2000/svg">
<g filter="url(#filter0_d_8310_1103)">
<path d="M5.37285 42.5205C4.62083 41.2108 4.24484 40.5555 4.09767 39.8593C3.96744 39.2431 3.96744 38.6067 4.09767 37.9905C4.24484 37.2944 4.62083 36.6391 5.37285 35.3294L23.5901 3.5975C24.3421 2.28764 24.7181 1.63271 25.2442 1.15639C25.7096 0.734951 26.2579 0.416565 26.8535 0.221956C27.5267 0.00195292 28.2787 0.00195312 29.7827 0.00195312H66.2171C67.7214 0.00195312 68.4731 0.00195292 69.1466 0.221956C69.7419 0.416565 70.2903 0.734951 70.756 1.15639C71.282 1.63271 71.6578 2.28764 72.41 3.5975L90.6271 35.3294C91.3792 36.6391 91.7551 37.2944 91.9021 37.9905C92.0326 38.6067 92.0326 39.2431 91.9021 39.8593C91.7551 40.5555 91.3792 41.2108 90.6271 42.5205L72.41 74.2526C71.6578 75.5622 71.282 76.2171 70.756 76.6935C70.2903 77.1151 69.7419 77.4333 69.1466 77.6279C68.4731 77.8481 67.7214 77.8481 66.2171 77.8481H29.7827C28.2787 77.8481 27.5267 77.8481 26.8535 77.6279C26.2579 77.4333 25.7096 77.1151 25.2442 76.6935C24.7181 76.2171 24.3421 75.5622 23.5901 74.2526L5.37285 42.5205Z" fill="white"/>
</g>
<path d="M58.2051 15.502H38.2051C36.8244 15.502 35.7051 16.6212 35.7051 18.002V38.002C35.7051 39.3827 36.8244 40.502 38.2051 40.502H58.2051C59.5858 40.502 60.7051 39.3827 60.7051 38.002V18.002C60.7051 16.6212 59.5858 15.502 58.2051 15.502Z" fill="#F2BB41"/>
<path d="M54.4551 29.2519H45.7051V26.0144L46.0676 26.3894C46.1838 26.5065 46.322 26.5995 46.4743 26.663C46.6267 26.7265 46.7901 26.7591 46.9551 26.7591C47.1201 26.7591 47.2835 26.7265 47.4358 26.663C47.5881 26.5995 47.7264 26.5065 47.8426 26.3894C47.9597 26.2732 48.0527 26.1349 48.1162 25.9826C48.1796 25.8303 48.2123 25.6669 48.2123 25.5019C48.2123 25.3369 48.1796 25.1735 48.1162 25.0212C48.0527 24.8688 47.9597 24.7306 47.8426 24.6144L45.3426 22.1144C45.2264 21.9972 45.0881 21.9042 44.9358 21.8408C44.7835 21.7773 44.6201 21.7446 44.4551 21.7446C44.2901 21.7446 44.1267 21.7773 43.9743 21.8408C43.822 21.9042 43.6838 21.9972 43.5676 22.1144L41.0676 24.6144C40.951 24.7309 40.8586 24.8693 40.7955 25.0216C40.7324 25.1738 40.7 25.3371 40.7 25.5019C40.7 25.8348 40.8322 26.154 41.0676 26.3894C41.3029 26.6248 41.6222 26.757 41.9551 26.757C42.2879 26.757 42.6072 26.6248 42.8426 26.3894L43.2051 26.0144V29.2519C43.2051 29.9149 43.4685 30.5508 43.9373 31.0196C44.4061 31.4885 45.042 31.7519 45.7051 31.7519H54.4551C54.7866 31.7519 55.1045 31.6202 55.3389 31.3858C55.5734 31.1513 55.7051 30.8334 55.7051 30.5019C55.7051 30.1704 55.5734 29.8524 55.3389 29.618C55.1045 29.3836 54.7866 29.2519 54.4551 29.2519Z" fill="#E08838"/>
<path d="M23.3448 52.002V46.362H25.7688C26.3715 46.362 26.8381 46.49 27.1688 46.746C27.5048 46.9966 27.6728 47.3593 27.6728 47.834C27.6728 48.1753 27.5821 48.4553 27.4008 48.674C27.2248 48.8873 27.0008 49.0286 26.7288 49.098V49.09C26.9261 49.1273 27.1075 49.202 27.2728 49.314C27.4381 49.426 27.5688 49.5753 27.6648 49.762C27.7608 49.9433 27.8088 50.1673 27.8088 50.434C27.8088 50.77 27.7315 51.0553 27.5768 51.29C27.4275 51.5193 27.2061 51.6953 26.9128 51.818C26.6195 51.9406 26.2675 52.002 25.8568 52.002H23.3448ZM24.2168 51.274H25.8088C25.9581 51.274 26.0941 51.2633 26.2168 51.242C26.3395 51.2153 26.4435 51.178 26.5288 51.13C26.6195 51.082 26.6941 51.0233 26.7528 50.954C26.8115 50.8846 26.8568 50.8046 26.8888 50.714C26.9208 50.618 26.9368 50.514 26.9368 50.402C26.9368 50.274 26.9208 50.162 26.8888 50.066C26.8568 49.97 26.8088 49.8873 26.7448 49.818C26.6861 49.7486 26.6115 49.6926 26.5208 49.65C26.4301 49.602 26.3235 49.5673 26.2008 49.546C26.0835 49.5246 25.9528 49.514 25.8088 49.514H24.2168V51.274ZM24.2168 48.786H25.6728C26.0515 48.786 26.3315 48.714 26.5128 48.57C26.6995 48.426 26.7928 48.2073 26.7928 47.914C26.7928 47.642 26.7021 47.4366 26.5208 47.298C26.3395 47.1593 26.0568 47.09 25.6728 47.09H24.2168V48.786ZM30.4049 52.074C30.1169 52.074 29.8582 52.0206 29.6289 51.914C29.4049 51.8073 29.2262 51.6633 29.0929 51.482C28.9649 51.2953 28.9009 51.0846 28.9009 50.85C28.9009 50.5566 28.9862 50.322 29.1569 50.146C29.3276 49.9646 29.5889 49.834 29.9409 49.754C30.2982 49.674 30.7542 49.634 31.3089 49.634H31.8689V50.194H31.3489C31.0716 50.194 30.8316 50.2046 30.6289 50.226C30.4316 50.242 30.2689 50.274 30.1409 50.322C30.0129 50.3646 29.9169 50.426 29.8529 50.506C29.7942 50.5806 29.7649 50.6793 29.7649 50.802C29.7649 51.0046 29.8396 51.1593 29.9889 51.266C30.1436 51.3726 30.3436 51.426 30.5889 51.426C30.8022 51.426 30.9942 51.378 31.1649 51.282C31.3409 51.1806 31.4796 51.05 31.5809 50.89C31.6876 50.7246 31.7409 50.5433 31.7409 50.346V49.458C31.7409 49.1646 31.6556 48.9566 31.4849 48.834C31.3196 48.706 31.0716 48.642 30.7409 48.642C30.5116 48.642 30.2796 48.674 30.0449 48.738C29.8156 48.802 29.5756 48.906 29.3249 49.05L29.0689 48.426C29.2342 48.3246 29.4129 48.2393 29.6049 48.17C29.8022 48.1006 30.0076 48.0473 30.2209 48.01C30.4342 47.9726 30.6449 47.954 30.8529 47.954C31.2102 47.954 31.5196 48.01 31.7809 48.122C32.0422 48.234 32.2422 48.4073 32.3809 48.642C32.5196 48.8713 32.5889 49.1726 32.5889 49.546V52.002H31.8369V51.154H31.8289C31.7542 51.3246 31.6502 51.482 31.5169 51.626C31.3889 51.7646 31.2316 51.874 31.0449 51.954C30.8582 52.034 30.6449 52.074 30.4049 52.074ZM35.4241 52.074C35.1948 52.074 34.9708 52.0553 34.7521 52.018C34.5388 51.9806 34.3414 51.93 34.1601 51.866C33.9788 51.7966 33.8241 51.7086 33.6961 51.602L33.9441 50.986C34.0828 51.0873 34.2348 51.17 34.4001 51.234C34.5654 51.2926 34.7334 51.3353 34.9041 51.362C35.0748 51.3886 35.2428 51.402 35.4081 51.402C35.7174 51.402 35.9548 51.3593 36.1201 51.274C36.2908 51.1886 36.3761 51.0633 36.3761 50.898C36.3761 50.7593 36.3281 50.6553 36.2321 50.586C36.1361 50.5113 35.9788 50.4553 35.7601 50.418L34.9121 50.282C34.5388 50.218 34.2588 50.09 34.0721 49.898C33.8854 49.706 33.7921 49.466 33.7921 49.178C33.7921 48.9326 33.8588 48.7193 33.9921 48.538C34.1254 48.3566 34.3201 48.2153 34.5761 48.114C34.8321 48.0073 35.1414 47.954 35.5041 47.954C35.7014 47.954 35.8988 47.9726 36.0961 48.01C36.2934 48.0473 36.4748 48.1006 36.6401 48.17C36.8108 48.2393 36.9521 48.3246 37.0641 48.426L36.8001 49.034C36.6881 48.938 36.5601 48.8606 36.4161 48.802C36.2721 48.7433 36.1201 48.7006 35.9601 48.674C35.8054 48.6473 35.6534 48.634 35.5041 48.634C35.2054 48.634 34.9761 48.6793 34.8161 48.77C34.6614 48.8606 34.5841 48.986 34.5841 49.146C34.5841 49.2846 34.6294 49.3913 34.7201 49.466C34.8108 49.5353 34.9548 49.5886 35.1521 49.626L35.9761 49.77C36.3814 49.8393 36.6801 49.9646 36.8721 50.146C37.0641 50.3273 37.1601 50.57 37.1601 50.874C37.1601 51.1193 37.0881 51.3326 36.9441 51.514C36.8054 51.6953 36.6054 51.834 36.3441 51.93C36.0828 52.026 35.7761 52.074 35.4241 52.074ZM38.1524 47.154V46.234H39.1844V47.154H38.1524ZM38.2404 52.002V48.034H39.1124V52.002H38.2404ZM42.2752 52.074C41.8645 52.074 41.5045 51.9913 41.1952 51.826C40.8912 51.6553 40.6538 51.4153 40.4832 51.106C40.3125 50.7966 40.2272 50.4313 40.2272 50.01C40.2272 49.5886 40.3125 49.226 40.4832 48.922C40.6538 48.6126 40.8912 48.3753 41.1952 48.21C41.5045 48.0393 41.8672 47.954 42.2832 47.954C42.5605 47.954 42.8245 47.9993 43.0752 48.09C43.3312 48.1806 43.5392 48.3006 43.6992 48.45L43.4192 49.09C43.2698 48.962 43.1018 48.866 42.9152 48.802C42.7285 48.7326 42.5472 48.698 42.3712 48.698C41.9765 48.698 41.6672 48.8126 41.4432 49.042C41.2245 49.266 41.1152 49.5913 41.1152 50.018C41.1152 50.4393 41.2245 50.7646 41.4432 50.994C41.6672 51.2233 41.9738 51.338 42.3632 51.338C42.5445 51.338 42.7258 51.306 42.9072 51.242C43.0938 51.1726 43.2592 51.0766 43.4032 50.954L43.6832 51.594C43.5285 51.7433 43.3258 51.8606 43.0752 51.946C42.8245 52.0313 42.5578 52.074 42.2752 52.074ZM48.434 52.074C48.0606 52.074 47.738 51.9886 47.466 51.818C47.194 51.6473 46.9833 51.4073 46.834 51.098C46.6846 50.7833 46.61 50.4233 46.61 50.018C46.61 49.6073 46.6846 49.25 46.834 48.946C46.9833 48.6366 47.1913 48.394 47.458 48.218C47.73 48.042 48.05 47.954 48.418 47.954C48.7486 47.954 49.0313 48.0313 49.266 48.186C49.506 48.3406 49.6793 48.5486 49.786 48.81V46.362H50.666V52.002H49.866V51.162H49.858C49.7406 51.45 49.5566 51.674 49.306 51.834C49.0606 51.994 48.77 52.074 48.434 52.074ZM48.642 51.386C49.0046 51.386 49.2873 51.266 49.49 51.026C49.698 50.7806 49.802 50.4446 49.802 50.018C49.802 49.5913 49.698 49.258 49.49 49.018C49.2873 48.7726 49.0073 48.65 48.65 48.65C48.2873 48.65 48.002 48.7726 47.794 49.018C47.5913 49.258 47.49 49.5913 47.49 50.018C47.49 50.4446 47.5913 50.7806 47.794 51.026C48.002 51.266 48.2846 51.386 48.642 51.386ZM52.0138 52.002V48.034H52.7978V48.978H52.8058C52.9018 48.6793 53.0645 48.4446 53.2938 48.274C53.5285 48.098 53.8165 47.9993 54.1578 47.978L54.5578 47.946L54.6378 48.746L53.9978 48.802C53.6458 48.8286 53.3738 48.9433 53.1818 49.146C52.9898 49.3433 52.8938 49.5913 52.8938 49.89V52.002H52.0138ZM55.379 47.154V46.234H56.411V47.154H55.379ZM55.467 52.002V48.034H56.339V52.002H55.467ZM58.7817 52.002L57.1177 48.034H58.0537L59.2457 51.138H59.2057L60.4137 48.034H61.3177L59.6457 52.002H58.7817ZM61.9962 47.154V46.234H63.0282V47.154H61.9962ZM62.0842 52.002V48.034H62.9562V52.002H62.0842ZM64.3029 52.002V48.034H65.1109V48.866H65.1189C65.2469 48.578 65.4362 48.354 65.6869 48.194C65.9429 48.034 66.2309 47.954 66.5509 47.954C66.8762 47.954 67.1482 48.0153 67.3669 48.138C67.5909 48.2553 67.7562 48.4366 67.8629 48.682C67.9749 48.922 68.0309 49.2286 68.0309 49.602V52.002H67.1509V49.642C67.1509 49.4393 67.1216 49.2686 67.0629 49.13C67.0096 48.986 66.9216 48.8766 66.7989 48.802C66.6762 48.7273 66.5136 48.69 66.3109 48.69C66.0922 48.69 65.8976 48.7406 65.7269 48.842C65.5562 48.938 65.4202 49.0713 65.3189 49.242C65.2229 49.4073 65.1749 49.594 65.1749 49.802V52.002H64.3029ZM71.1176 53.514C70.7976 53.514 70.4803 53.4686 70.1656 53.378C69.8509 53.2926 69.5816 53.17 69.3576 53.01L69.6136 52.346C69.7576 52.4366 69.9123 52.5166 70.0776 52.586C70.2429 52.6553 70.4109 52.706 70.5816 52.738C70.7576 52.7753 70.9256 52.794 71.0856 52.794C71.4963 52.794 71.8109 52.6953 72.0296 52.498C72.2536 52.306 72.3656 52.026 72.3656 51.658V51.002H72.3496C72.2483 51.258 72.0749 51.4686 71.8296 51.634C71.5843 51.794 71.2989 51.874 70.9736 51.874C70.6056 51.874 70.2829 51.794 70.0056 51.634C69.7283 51.4686 69.5123 51.2393 69.3576 50.946C69.2029 50.6526 69.1256 50.3086 69.1256 49.914C69.1256 49.5246 69.2029 49.1833 69.3576 48.89C69.5123 48.5913 69.7283 48.362 70.0056 48.202C70.2829 48.0366 70.6056 47.954 70.9736 47.954C71.3043 47.954 71.5923 48.0366 71.8376 48.202C72.0829 48.3673 72.2563 48.5886 72.3576 48.866H72.3656V48.034H73.1896V51.586C73.1896 51.986 73.1069 52.33 72.9416 52.618C72.7763 52.906 72.5389 53.1273 72.2296 53.282C71.9203 53.4366 71.5496 53.514 71.1176 53.514ZM71.1656 51.178C71.5229 51.178 71.8056 51.0633 72.0136 50.834C72.2216 50.6046 72.3256 50.298 72.3256 49.914C72.3256 49.5246 72.2216 49.218 72.0136 48.994C71.8056 48.7646 71.5229 48.65 71.1656 48.65C70.8083 48.65 70.5229 48.7646 70.3096 48.994C70.1016 49.218 69.9976 49.5246 69.9976 49.914C69.9976 50.298 70.1016 50.6046 70.3096 50.834C70.5229 51.0633 70.8083 51.178 71.1656 51.178ZM39.9928 63.074C39.4808 63.074 39.0968 62.9433 38.8408 62.682C38.5901 62.4206 38.4648 62.0446 38.4648 61.554V59.746H37.6728V59.034H38.4968V57.882H39.3368V59.034H40.7368V59.746H39.3368V61.498C39.3368 61.7806 39.4008 61.9913 39.5288 62.13C39.6621 62.2633 39.8621 62.33 40.1288 62.33C40.2355 62.33 40.3395 62.3193 40.4408 62.298C40.5475 62.2766 40.6488 62.25 40.7448 62.218L40.8728 62.89C40.7555 62.954 40.6195 62.9993 40.4648 63.026C40.3101 63.058 40.1528 63.074 39.9928 63.074ZM43.0143 63.074C42.7263 63.074 42.4676 63.0206 42.2383 62.914C42.0143 62.8073 41.8356 62.6633 41.7023 62.482C41.5743 62.2953 41.5103 62.0846 41.5103 61.85C41.5103 61.5566 41.5956 61.322 41.7663 61.146C41.937 60.9646 42.1983 60.834 42.5503 60.754C42.9076 60.674 43.3636 60.634 43.9183 60.634H44.4783V61.194H43.9583C43.681 61.194 43.441 61.2046 43.2383 61.226C43.041 61.242 42.8783 61.274 42.7503 61.322C42.6223 61.3646 42.5263 61.426 42.4623 61.506C42.4036 61.5806 42.3743 61.6793 42.3743 61.802C42.3743 62.0046 42.449 62.1593 42.5983 62.266C42.753 62.3726 42.953 62.426 43.1983 62.426C43.4116 62.426 43.6036 62.378 43.7743 62.282C43.9503 62.1806 44.089 62.05 44.1903 61.89C44.297 61.7246 44.3503 61.5433 44.3503 61.346V60.458C44.3503 60.1646 44.265 59.9566 44.0943 59.834C43.929 59.706 43.681 59.642 43.3503 59.642C43.121 59.642 42.889 59.674 42.6543 59.738C42.425 59.802 42.185 59.906 41.9343 60.05L41.6783 59.426C41.8436 59.3246 42.0223 59.2393 42.2143 59.17C42.4116 59.1006 42.617 59.0473 42.8303 59.01C43.0436 58.9726 43.2543 58.954 43.4623 58.954C43.8196 58.954 44.129 59.01 44.3903 59.122C44.6516 59.234 44.8516 59.4073 44.9903 59.642C45.129 59.8713 45.1983 60.1726 45.1983 60.546V63.002H44.4463V62.154H44.4383C44.3636 62.3246 44.2596 62.482 44.1263 62.626C43.9983 62.7646 43.841 62.874 43.6543 62.954C43.4676 63.034 43.2543 63.074 43.0143 63.074ZM48.0335 63.074C47.8041 63.074 47.5801 63.0553 47.3615 63.018C47.1481 62.9806 46.9508 62.93 46.7695 62.866C46.5881 62.7966 46.4335 62.7086 46.3055 62.602L46.5535 61.986C46.6921 62.0873 46.8441 62.17 47.0095 62.234C47.1748 62.2926 47.3428 62.3353 47.5135 62.362C47.6841 62.3886 47.8521 62.402 48.0175 62.402C48.3268 62.402 48.5641 62.3593 48.7295 62.274C48.9001 62.1886 48.9855 62.0633 48.9855 61.898C48.9855 61.7593 48.9375 61.6553 48.8415 61.586C48.7455 61.5113 48.5881 61.4553 48.3695 61.418L47.5215 61.282C47.1481 61.218 46.8681 61.09 46.6815 60.898C46.4948 60.706 46.4015 60.466 46.4015 60.178C46.4015 59.9326 46.4681 59.7193 46.6015 59.538C46.7348 59.3566 46.9295 59.2153 47.1855 59.114C47.4415 59.0073 47.7508 58.954 48.1135 58.954C48.3108 58.954 48.5081 58.9726 48.7055 59.01C48.9028 59.0473 49.0841 59.1006 49.2495 59.17C49.4201 59.2393 49.5615 59.3246 49.6735 59.426L49.4095 60.034C49.2975 59.938 49.1695 59.8606 49.0255 59.802C48.8815 59.7433 48.7295 59.7006 48.5695 59.674C48.4148 59.6473 48.2628 59.634 48.1135 59.634C47.8148 59.634 47.5855 59.6793 47.4255 59.77C47.2708 59.8606 47.1935 59.986 47.1935 60.146C47.1935 60.2846 47.2388 60.3913 47.3295 60.466C47.4201 60.5353 47.5641 60.5886 47.7615 60.626L48.5855 60.77C48.9908 60.8393 49.2895 60.9646 49.4815 61.146C49.6735 61.3273 49.7695 61.57 49.7695 61.874C49.7695 62.1193 49.6975 62.3326 49.5535 62.514C49.4148 62.6953 49.2148 62.834 48.9535 62.93C48.6921 63.026 48.3855 63.074 48.0335 63.074ZM50.8498 63.002V57.362H51.7218V60.778H51.7618L53.4098 59.034H54.4658L52.4418 61.13L52.4578 60.786L54.6418 63.002H53.5698L51.7618 61.21H51.7218V63.002H50.8498ZM56.7132 63.074C56.4838 63.074 56.2598 63.0553 56.0412 63.018C55.8278 62.9806 55.6305 62.93 55.4492 62.866C55.2678 62.7966 55.1132 62.7086 54.9852 62.602L55.2332 61.986C55.3718 62.0873 55.5238 62.17 55.6892 62.234C55.8545 62.2926 56.0225 62.3353 56.1932 62.362C56.3638 62.3886 56.5318 62.402 56.6972 62.402C57.0065 62.402 57.2438 62.3593 57.4092 62.274C57.5798 62.1886 57.6652 62.0633 57.6652 61.898C57.6652 61.7593 57.6172 61.6553 57.5212 61.586C57.4252 61.5113 57.2678 61.4553 57.0492 61.418L56.2012 61.282C55.8278 61.218 55.5478 61.09 55.3612 60.898C55.1745 60.706 55.0812 60.466 55.0812 60.178C55.0812 59.9326 55.1478 59.7193 55.2812 59.538C55.4145 59.3566 55.6092 59.2153 55.8652 59.114C56.1212 59.0073 56.4305 58.954 56.7932 58.954C56.9905 58.954 57.1878 58.9726 57.3852 59.01C57.5825 59.0473 57.7638 59.1006 57.9292 59.17C58.0998 59.2393 58.2412 59.3246 58.3532 59.426L58.0892 60.034C57.9772 59.938 57.8492 59.8606 57.7052 59.802C57.5612 59.7433 57.4092 59.7006 57.2492 59.674C57.0945 59.6473 56.9425 59.634 56.7932 59.634C56.4945 59.634 56.2652 59.6793 56.1052 59.77C55.9505 59.8606 55.8732 59.986 55.8732 60.146C55.8732 60.2846 55.9185 60.3913 56.0092 60.466C56.0998 60.5353 56.2438 60.5886 56.4412 60.626L57.2652 60.77C57.6705 60.8393 57.9692 60.9646 58.1612 61.146C58.3532 61.3273 58.4492 61.57 58.4492 61.874C58.4492 62.1193 58.3772 62.3326 58.2332 62.514C58.0945 62.6953 57.8945 62.834 57.6332 62.93C57.3718 63.026 57.0652 63.074 56.7132 63.074Z" fill="black"/>
<path d="M36.2052 73.062C35.7972 73.062 35.4392 72.976 35.1312 72.804C34.8272 72.628 34.5912 72.378 34.4232 72.054C34.2552 71.726 34.1712 71.336 34.1712 70.884C34.1712 70.432 34.2552 70.044 34.4232 69.72C34.5912 69.396 34.8272 69.148 35.1312 68.976C35.4352 68.804 35.7932 68.718 36.2052 68.718C36.5012 68.718 36.7712 68.76 37.0152 68.844C37.2592 68.924 37.4672 69.048 37.6392 69.216L37.3992 69.744C37.2152 69.592 37.0292 69.484 36.8412 69.42C36.6532 69.352 36.4472 69.318 36.2232 69.318C35.8112 69.318 35.4832 69.45 35.2392 69.714C34.9952 69.978 34.8732 70.366 34.8732 70.878C34.8732 71.398 34.9932 71.792 35.2332 72.06C35.4772 72.324 35.8072 72.456 36.2232 72.456C36.4472 72.456 36.6532 72.424 36.8412 72.36C37.0292 72.292 37.2152 72.182 37.3992 72.03L37.6392 72.558C37.4672 72.726 37.2592 72.852 37.0152 72.936C36.7712 73.02 36.5012 73.062 36.2052 73.062ZM38.5791 73.002V68.772H39.2271V70.596H39.2631C39.3591 70.4 39.4991 70.242 39.6831 70.122C39.8711 70.002 40.0831 69.942 40.3191 69.942C40.5711 69.942 40.7811 69.988 40.9491 70.08C41.1211 70.172 41.2491 70.312 41.3331 70.5C41.4211 70.684 41.4651 70.918 41.4651 71.202V73.002H40.7811V71.232C40.7811 71.088 40.7591 70.964 40.7151 70.86C40.6751 70.752 40.6071 70.67 40.5111 70.614C40.4191 70.554 40.2951 70.524 40.1391 70.524C39.9711 70.524 39.8211 70.562 39.6891 70.638C39.5571 70.714 39.4531 70.816 39.3771 70.944C39.3011 71.068 39.2631 71.206 39.2631 71.358V73.002H38.5791ZM43.59 73.056C43.37 73.056 43.172 73.016 42.996 72.936C42.824 72.856 42.688 72.746 42.588 72.606C42.488 72.466 42.438 72.31 42.438 72.138C42.438 71.91 42.506 71.728 42.642 71.592C42.778 71.452 42.982 71.352 43.254 71.292C43.526 71.228 43.868 71.196 44.28 71.196H44.766V71.64H44.322C44.114 71.64 43.934 71.648 43.782 71.664C43.634 71.676 43.51 71.698 43.41 71.73C43.31 71.762 43.234 71.808 43.182 71.868C43.134 71.928 43.11 72.004 43.11 72.096C43.11 72.248 43.17 72.36 43.29 72.432C43.41 72.504 43.562 72.54 43.746 72.54C43.91 72.54 44.06 72.502 44.196 72.426C44.336 72.35 44.448 72.252 44.532 72.132C44.62 72.008 44.664 71.876 44.664 71.736V71.076C44.664 70.86 44.594 70.708 44.454 70.62C44.314 70.528 44.11 70.482 43.842 70.482C43.67 70.482 43.496 70.506 43.32 70.554C43.144 70.598 42.958 70.674 42.762 70.782L42.564 70.29C42.704 70.214 42.848 70.15 42.996 70.098C43.148 70.046 43.304 70.008 43.464 69.984C43.628 69.956 43.794 69.942 43.962 69.942C44.23 69.942 44.466 69.984 44.67 70.068C44.878 70.152 45.04 70.282 45.156 70.458C45.272 70.634 45.33 70.864 45.33 71.148V73.002H44.766V72.378H44.724C44.66 72.498 44.576 72.61 44.472 72.714C44.368 72.818 44.242 72.902 44.094 72.966C43.95 73.026 43.782 73.056 43.59 73.056ZM46.4014 74.082V69.996H47.0074V70.614H47.0434C47.1434 70.394 47.2874 70.228 47.4754 70.116C47.6674 70 47.8874 69.942 48.1354 69.942C48.4194 69.942 48.6654 70.008 48.8734 70.14C49.0854 70.272 49.2474 70.454 49.3594 70.686C49.4714 70.918 49.5274 71.188 49.5274 71.496C49.5274 71.796 49.4714 72.064 49.3594 72.3C49.2514 72.536 49.0934 72.722 48.8854 72.858C48.6774 72.99 48.4294 73.056 48.1414 73.056C47.8974 73.056 47.6894 73.002 47.5174 72.894C47.3454 72.782 47.2134 72.634 47.1214 72.45H47.0854V74.082H46.4014ZM47.9674 72.51C48.2434 72.51 48.4594 72.418 48.6154 72.234C48.7714 72.05 48.8494 71.802 48.8494 71.49C48.8494 71.182 48.7714 70.938 48.6154 70.758C48.4634 70.578 48.2474 70.488 47.9674 70.488C47.6874 70.488 47.4694 70.578 47.3134 70.758C47.1574 70.938 47.0794 71.182 47.0794 71.49C47.0794 71.802 47.1574 72.05 47.3134 72.234C47.4734 72.418 47.6914 72.51 47.9674 72.51ZM51.7772 73.056C51.3852 73.056 51.0912 72.956 50.8952 72.756C50.6992 72.556 50.6012 72.27 50.6012 71.898V70.566H49.9952V70.002H50.6432V69.144H51.2792V70.002H52.4012V70.566H51.2792V71.862C51.2792 72.07 51.3292 72.224 51.4292 72.324C51.5332 72.424 51.6852 72.474 51.8852 72.474C51.9772 72.474 52.0652 72.466 52.1492 72.45C52.2332 72.434 52.3152 72.41 52.3952 72.378L52.4912 72.912C52.3912 72.964 52.2792 73 52.1552 73.02C52.0352 73.044 51.9092 73.056 51.7772 73.056ZM54.6994 73.056C54.3394 73.056 54.0294 72.996 53.7694 72.876C53.5134 72.752 53.3174 72.572 53.1814 72.336C53.0494 72.1 52.9834 71.82 52.9834 71.496C52.9834 71.2 53.0434 70.936 53.1634 70.704C53.2874 70.468 53.4654 70.282 53.6974 70.146C53.9294 70.01 54.2074 69.942 54.5314 69.942C54.8354 69.942 55.0954 70.006 55.3114 70.134C55.5274 70.262 55.6914 70.442 55.8034 70.674C55.9194 70.906 55.9774 71.184 55.9774 71.508V71.706H53.5054V71.256H55.5034L55.3954 71.382C55.3954 71.074 55.3194 70.842 55.1674 70.686C55.0194 70.53 54.8094 70.452 54.5374 70.452C54.3614 70.452 54.2054 70.49 54.0694 70.566C53.9334 70.638 53.8254 70.744 53.7454 70.884C53.6694 71.024 53.6314 71.198 53.6314 71.406V71.49C53.6314 71.722 53.6734 71.914 53.7574 72.066C53.8454 72.214 53.9714 72.326 54.1354 72.402C54.2994 72.474 54.4954 72.51 54.7234 72.51C54.8834 72.51 55.0474 72.492 55.2154 72.456C55.3874 72.416 55.5454 72.342 55.6894 72.234L55.8994 72.714C55.7354 72.838 55.5454 72.926 55.3294 72.978C55.1134 73.03 54.9034 73.056 54.6994 73.056ZM56.8838 73.002V70.002H57.4778V70.71H57.5138C57.5898 70.498 57.7158 70.324 57.8918 70.188C58.0718 70.052 58.2858 69.978 58.5338 69.966L58.8818 69.942L58.9478 70.578L58.4078 70.62C58.1438 70.644 57.9378 70.734 57.7898 70.89C57.6418 71.042 57.5678 71.226 57.5678 71.442V73.002H56.8838ZM60.6394 73.056C60.4754 73.056 60.3194 73.04 60.1714 73.008C60.0274 72.976 59.8894 72.926 59.7574 72.858C59.6254 72.786 59.5014 72.696 59.3854 72.588L59.6314 72.09C59.7954 72.246 59.9594 72.35 60.1234 72.402C60.2874 72.454 60.4614 72.48 60.6454 72.48C60.8294 72.48 60.9934 72.446 61.1374 72.378C61.2814 72.306 61.4014 72.204 61.4974 72.072C61.5974 71.94 61.6734 71.774 61.7254 71.574C61.7774 71.374 61.8034 71.146 61.8034 70.89V70.674H61.7674C61.7274 70.838 61.6534 70.978 61.5454 71.094C61.4414 71.206 61.3154 71.292 61.1674 71.352C61.0194 71.408 60.8574 71.436 60.6814 71.436C60.4294 71.436 60.2054 71.38 60.0094 71.268C59.8134 71.156 59.6594 71.002 59.5474 70.806C59.4394 70.61 59.3854 70.38 59.3854 70.116C59.3854 69.844 59.4434 69.604 59.5594 69.396C59.6794 69.184 59.8434 69.018 60.0514 68.898C60.2634 68.778 60.5034 68.718 60.7714 68.718C61.1274 68.718 61.4254 68.8 61.6654 68.964C61.9094 69.124 62.0914 69.36 62.2114 69.672C62.3354 69.984 62.3974 70.364 62.3974 70.812C62.3974 71.288 62.3274 71.694 62.1874 72.03C62.0514 72.362 61.8514 72.616 61.5874 72.792C61.3274 72.968 61.0114 73.056 60.6394 73.056ZM60.8074 70.902C60.9674 70.902 61.1094 70.868 61.2334 70.8C61.3574 70.728 61.4534 70.632 61.5214 70.512C61.5934 70.388 61.6294 70.248 61.6294 70.092C61.6294 69.924 61.5954 69.78 61.5274 69.66C61.4594 69.536 61.3634 69.442 61.2394 69.378C61.1194 69.31 60.9714 69.276 60.7954 69.276C60.6314 69.276 60.4894 69.31 60.3694 69.378C60.2494 69.446 60.1574 69.542 60.0934 69.666C60.0294 69.786 59.9974 69.928 59.9974 70.092C59.9974 70.252 60.0294 70.394 60.0934 70.518C60.1614 70.638 60.2554 70.732 60.3754 70.8C60.4994 70.868 60.6434 70.902 60.8074 70.902Z" fill="#667085"/>
<defs>
<filter id="filter0_d_8310_1103" x="0" y="0.00195312" width="96" height="85.8462" filterUnits="userSpaceOnUse" color-interpolation-filters="sRGB">
<feFlood flood-opacity="0" result="BackgroundImageFix"/>
<feColorMatrix in="SourceAlpha" type="matrix" values="0 0 0 0 0 0 0 0 0 0 0 0 0 0 0 0 0 0 127 0" result="hardAlpha"/>
<feOffset dy="4"/>
<feGaussianBlur stdDeviation="2"/>
<feComposite in2="hardAlpha" operator="out"/>
<feColorMatrix type="matrix" values="0 0 0 0 0 0 0 0 0 0 0 0 0 0 0 0 0 0 0.25 0"/>
<feBlend mode="normal" in2="BackgroundImageFix" result="effect1_dropShadow_8310_1103"/>
<feBlend mode="normal" in="SourceGraphic" in2="effect1_dropShadow_8310_1103" result="shape"/>
</filter>
</defs>
</svg>
