<svg width="102" height="86" viewBox="0 0 102 86" fill="none" xmlns="http://www.w3.org/2000/svg">
<g filter="url(#filter0_d_8334_725)">
<path d="M5.45148 42.5206C4.65639 41.2109 4.25887 40.5556 4.10327 39.8593C3.96558 39.2431 3.96558 38.6067 4.10327 37.9905C4.25887 37.2942 4.65639 36.6389 5.45148 35.3292L24.7122 3.59573C25.5072 2.2858 25.9047 1.63084 26.4609 1.1545C26.953 0.733034 27.5327 0.414632 28.1625 0.220013C28.8742 -2.00927e-07 29.6693 0 31.2595 0H69.7806C71.3711 0 72.1659 -2.00927e-07 72.8779 0.220013C73.5073 0.414632 74.0871 0.733034 74.5794 1.1545C75.1356 1.63084 75.533 2.2858 76.3282 3.59573L95.5887 35.3292C96.3839 36.6389 96.7813 37.2942 96.9368 37.9905C97.0747 38.6067 97.0747 39.2431 96.9368 39.8593C96.7813 40.5556 96.3839 41.2109 95.5887 42.5206L76.3282 74.2543C75.533 75.564 75.1356 76.2189 74.5794 76.6953C74.0871 77.1169 73.5073 77.4351 72.8779 77.6298C72.1659 77.85 71.3711 77.85 69.7806 77.85H31.2595C29.6693 77.85 28.8742 77.85 28.1625 77.6298C27.5327 77.4351 26.953 77.1169 26.4609 76.6953C25.9047 76.2189 25.5072 75.564 24.7122 74.2543L5.45148 42.5206Z" fill="white"/>
</g>
<path d="M58.8718 15.3955L62.2121 22.1043C62.2711 22.1924 62.3002 22.3096 62.3293 22.3977C62.5346 22.9255 62.6808 23.6577 62.6808 24.1265V27.3196C62.6808 28.3161 62.0068 29.1365 61.0693 29.3708V31.2458C61.0693 32.1543 60.3371 32.8574 59.4577 32.8574C58.5493 32.8574 57.8461 32.1543 57.8461 31.2458V29.429H45.0136V31.2458C45.0136 32.1543 44.3105 32.8574 43.4021 32.8574C42.5227 32.8574 41.7905 32.1543 41.7905 31.2458V29.3708C40.853 29.1365 40.179 28.3161 40.179 27.3196V24.1265C40.179 23.6577 40.3252 22.9255 40.5305 22.3977C40.5596 22.3096 40.5896 22.1924 40.6477 22.1043L43.988 15.3955C44.2515 14.8977 44.9546 14.429 45.5405 14.429H57.3183C57.9043 14.429 58.6083 14.8977 58.8718 15.3955ZM45.3652 17.4168L43.5783 21.4893C43.4902 21.6355 43.4902 21.8118 43.4902 21.929H59.3696C59.3696 21.8118 59.3696 21.6355 59.2815 21.4893L57.4946 17.4168C57.2602 16.889 56.5571 16.4202 56.0002 16.4202H46.8596C46.3027 16.4202 45.5996 16.889 45.3652 17.4168ZM44.5749 27.3186C45.5124 27.3186 46.2446 26.5565 46.2446 25.5899C46.2446 24.6524 45.5124 23.9202 44.5749 23.9202C43.6374 23.9202 42.8461 24.6524 42.8461 25.5899C42.8461 26.5565 43.6374 27.3186 44.5749 27.3186ZM58.2858 27.3186C59.2233 27.3186 60.0146 26.5565 60.0146 25.5899C60.0146 24.6524 59.2233 23.9202 58.2858 23.9202C57.3483 23.9202 56.6161 24.6524 56.6161 25.5899C56.6161 26.5565 57.3483 27.3186 58.2858 27.3186Z" fill="#F2BB41"/>
<path d="M31.5422 47.6567V42.0167H33.6142C34.2276 42.0167 34.7476 42.1261 35.1742 42.3447C35.6009 42.5634 35.9262 42.8834 36.1502 43.3047C36.3742 43.7207 36.4862 44.2301 36.4862 44.8327C36.4862 45.4354 36.3742 45.9474 36.1502 46.3687C35.9262 46.7901 35.5982 47.1101 35.1662 47.3287C34.7396 47.5474 34.2222 47.6567 33.6142 47.6567H31.5422ZM32.4222 46.9047H33.5662C34.2222 46.9047 34.7209 46.7341 35.0622 46.3927C35.4036 46.0461 35.5742 45.5261 35.5742 44.8327C35.5742 44.1394 35.4036 43.6221 35.0622 43.2807C34.7209 42.9394 34.2222 42.7687 33.5662 42.7687H32.4222V46.9047ZM39.7187 47.7287C39.2547 47.7287 38.8574 47.6487 38.5267 47.4887C38.1961 47.3234 37.9427 47.0861 37.7667 46.7767C37.5907 46.4674 37.5027 46.0994 37.5027 45.6727C37.5027 45.2727 37.5827 44.9181 37.7427 44.6087C37.9081 44.2994 38.1427 44.0567 38.4467 43.8807C38.7507 43.6994 39.1081 43.6087 39.5187 43.6087C39.9081 43.6087 40.2414 43.6914 40.5187 43.8567C40.7961 44.0221 41.0094 44.2567 41.1587 44.5607C41.3081 44.8647 41.3827 45.2274 41.3827 45.6487V45.9207H38.1827V45.3527H40.7827L40.6387 45.4967C40.6387 45.0914 40.5427 44.7847 40.3507 44.5767C40.1587 44.3634 39.8867 44.2567 39.5347 44.2567C39.2947 44.2567 39.0841 44.3101 38.9027 44.4167C38.7267 44.5181 38.5881 44.6674 38.4867 44.8647C38.3854 45.0567 38.3347 45.2914 38.3347 45.5687V45.6567C38.3347 45.9661 38.3881 46.2221 38.4947 46.4247C38.6067 46.6274 38.7667 46.7794 38.9747 46.8807C39.1881 46.9821 39.4441 47.0327 39.7427 47.0327C39.9614 47.0327 40.1801 47.0061 40.3987 46.9527C40.6227 46.8941 40.8307 46.7901 41.0227 46.6407L41.2947 47.2487C41.0867 47.4141 40.8414 47.5367 40.5587 47.6167C40.2761 47.6914 39.9961 47.7287 39.7187 47.7287ZM42.4769 49.0967V43.6807H43.2769V44.5287C43.3996 44.2354 43.5863 44.0087 43.8369 43.8487C44.0876 43.6887 44.3809 43.6087 44.7169 43.6087C45.0849 43.6087 45.4049 43.6967 45.6769 43.8727C45.9489 44.0434 46.1569 44.2834 46.3009 44.5927C46.4503 44.8967 46.5249 45.2567 46.5249 45.6727C46.5249 46.0727 46.4529 46.4301 46.3089 46.7447C46.1649 47.0541 45.9569 47.2967 45.6849 47.4727C45.4129 47.6434 45.0903 47.7287 44.7169 47.7287C44.3916 47.7287 44.1089 47.6514 43.8689 47.4967C43.6343 47.3421 43.4609 47.1367 43.3489 46.8807V49.0967H42.4769ZM44.5009 47.0407C44.8583 47.0407 45.1383 46.9181 45.3409 46.6727C45.5489 46.4274 45.6529 46.0914 45.6529 45.6647C45.6529 45.2381 45.5489 44.9047 45.3409 44.6647C45.1383 44.4247 44.8583 44.3047 44.5009 44.3047C44.1383 44.3047 43.8529 44.4247 43.6449 44.6647C43.4423 44.9047 43.3409 45.2381 43.3409 45.6647C43.3409 46.0914 43.4449 46.4274 43.6529 46.6727C43.8609 46.9181 44.1436 47.0407 44.5009 47.0407ZM49.0008 47.7287C48.7128 47.7287 48.4541 47.6754 48.2248 47.5687C48.0008 47.4621 47.8221 47.3181 47.6888 47.1367C47.5608 46.9501 47.4968 46.7394 47.4968 46.5047C47.4968 46.2114 47.5821 45.9767 47.7528 45.8007C47.9235 45.6194 48.1848 45.4887 48.5368 45.4087C48.8941 45.3287 49.3501 45.2887 49.9048 45.2887H50.4648V45.8487H49.9448C49.6675 45.8487 49.4275 45.8594 49.2248 45.8807C49.0275 45.8967 48.8648 45.9287 48.7368 45.9767C48.6088 46.0194 48.5128 46.0807 48.4488 46.1607C48.3901 46.2354 48.3608 46.3341 48.3608 46.4567C48.3608 46.6594 48.4355 46.8141 48.5848 46.9207C48.7395 47.0274 48.9395 47.0807 49.1848 47.0807C49.3981 47.0807 49.5901 47.0327 49.7608 46.9367C49.9368 46.8354 50.0755 46.7047 50.1768 46.5447C50.2835 46.3794 50.3368 46.1981 50.3368 46.0007V45.1127C50.3368 44.8194 50.2515 44.6114 50.0808 44.4887C49.9155 44.3607 49.6675 44.2967 49.3368 44.2967C49.1075 44.2967 48.8755 44.3287 48.6408 44.3927C48.4115 44.4567 48.1715 44.5607 47.9208 44.7047L47.6648 44.0807C47.8301 43.9794 48.0088 43.8941 48.2008 43.8247C48.3981 43.7554 48.6035 43.7021 48.8168 43.6647C49.0301 43.6274 49.2408 43.6087 49.4488 43.6087C49.8061 43.6087 50.1155 43.6647 50.3768 43.7767C50.6381 43.8887 50.8381 44.0621 50.9768 44.2967C51.1155 44.5261 51.1848 44.8274 51.1848 45.2007V47.6567H50.4328V46.8087H50.4248C50.3501 46.9794 50.2461 47.1367 50.1128 47.2807C49.9848 47.4194 49.8275 47.5287 49.6408 47.6087C49.4541 47.6887 49.2408 47.7287 49.0008 47.7287ZM52.516 47.6567V43.6887H53.3V44.6327H53.308C53.404 44.3341 53.5667 44.0994 53.796 43.9287C54.0307 43.7527 54.3187 43.6541 54.66 43.6327L55.06 43.6007L55.14 44.4007L54.5 44.4567C54.148 44.4834 53.876 44.5981 53.684 44.8007C53.492 44.9981 53.396 45.2461 53.396 45.5447V47.6567H52.516ZM57.9559 47.7287C57.4439 47.7287 57.0599 47.5981 56.8039 47.3367C56.5532 47.0754 56.4279 46.6994 56.4279 46.2087V44.4007H55.6359V43.6887H56.4599V42.5367H57.2999V43.6887H58.6999V44.4007H57.2999V46.1527C57.2999 46.4354 57.3639 46.6461 57.4919 46.7847C57.6252 46.9181 57.8252 46.9847 58.0919 46.9847C58.1985 46.9847 58.3025 46.9741 58.4039 46.9527C58.5105 46.9314 58.6119 46.9047 58.7079 46.8727L58.8359 47.5447C58.7185 47.6087 58.5825 47.6541 58.4279 47.6807C58.2732 47.7127 58.1159 47.7287 57.9559 47.7287ZM61.1214 47.7287C60.7907 47.7287 60.5134 47.6701 60.2894 47.5527C60.0654 47.4301 59.8947 47.2487 59.7774 47.0087C59.6654 46.7687 59.6094 46.4674 59.6094 46.1047V43.6887H60.4894V46.0727C60.4894 46.2594 60.516 46.4247 60.5694 46.5687C60.628 46.7074 60.7187 46.8141 60.8414 46.8887C60.9694 46.9634 61.1347 47.0007 61.3374 47.0007C61.54 47.0007 61.724 46.9527 61.8894 46.8567C62.0547 46.7554 62.1854 46.6221 62.2814 46.4567C62.3774 46.2861 62.4254 46.1021 62.4254 45.9047V43.6887H63.2974V47.6567H62.4894V46.8087H62.4974C62.364 47.0967 62.18 47.3234 61.9454 47.4887C61.716 47.6487 61.4414 47.7287 61.1214 47.7287ZM64.641 47.6567V43.6887H65.425V44.6327H65.433C65.529 44.3341 65.6917 44.0994 65.921 43.9287C66.1557 43.7527 66.4437 43.6541 66.785 43.6327L67.185 43.6007L67.265 44.4007L66.625 44.4567C66.273 44.4834 66.001 44.5981 65.809 44.8007C65.617 44.9981 65.521 45.2461 65.521 45.5447V47.6567H64.641ZM70.0234 47.7287C69.5594 47.7287 69.1621 47.6487 68.8314 47.4887C68.5008 47.3234 68.2474 47.0861 68.0714 46.7767C67.8954 46.4674 67.8074 46.0994 67.8074 45.6727C67.8074 45.2727 67.8874 44.9181 68.0474 44.6087C68.2128 44.2994 68.4474 44.0567 68.7514 43.8807C69.0554 43.6994 69.4128 43.6087 69.8234 43.6087C70.2128 43.6087 70.5461 43.6914 70.8234 43.8567C71.1008 44.0221 71.3141 44.2567 71.4634 44.5607C71.6128 44.8647 71.6874 45.2274 71.6874 45.6487V45.9207H68.4874V45.3527H71.0874L70.9434 45.4967C70.9434 45.0914 70.8474 44.7847 70.6554 44.5767C70.4634 44.3634 70.1914 44.2567 69.8394 44.2567C69.5994 44.2567 69.3888 44.3101 69.2074 44.4167C69.0314 44.5181 68.8928 44.6674 68.7914 44.8647C68.6901 45.0567 68.6394 45.2914 68.6394 45.5687V45.6567C68.6394 45.9661 68.6928 46.2221 68.7994 46.4247C68.9114 46.6274 69.0714 46.7794 69.2794 46.8807C69.4928 46.9821 69.7488 47.0327 70.0474 47.0327C70.2661 47.0327 70.4848 47.0061 70.7034 46.9527C70.9274 46.8941 71.1354 46.7901 71.3274 46.6407L71.5994 47.2487C71.3914 47.4141 71.1461 47.5367 70.8634 47.6167C70.5808 47.6914 70.3008 47.7287 70.0234 47.7287ZM39.7031 58.7287C39.2924 58.7287 38.9324 58.6461 38.6231 58.4807C38.3191 58.3101 38.0818 58.0701 37.9111 57.7607C37.7404 57.4514 37.6551 57.0861 37.6551 56.6647C37.6551 56.2434 37.7404 55.8807 37.9111 55.5767C38.0818 55.2674 38.3191 55.0301 38.6231 54.8647C38.9324 54.6941 39.2951 54.6087 39.7111 54.6087C39.9884 54.6087 40.2524 54.6541 40.5031 54.7447C40.7591 54.8354 40.9671 54.9554 41.1271 55.1047L40.8471 55.7447C40.6978 55.6167 40.5298 55.5207 40.3431 55.4567C40.1564 55.3874 39.9751 55.3527 39.7991 55.3527C39.4044 55.3527 39.0951 55.4674 38.8711 55.6967C38.6524 55.9207 38.5431 56.2461 38.5431 56.6727C38.5431 57.0941 38.6524 57.4194 38.8711 57.6487C39.0951 57.8781 39.4018 57.9927 39.7911 57.9927C39.9724 57.9927 40.1538 57.9607 40.3351 57.8967C40.5218 57.8274 40.6871 57.7314 40.8311 57.6087L41.1111 58.2487C40.9564 58.3981 40.7538 58.5154 40.5031 58.6007C40.2524 58.6861 39.9858 58.7287 39.7031 58.7287ZM43.6947 58.7287C43.284 58.7287 42.9267 58.6434 42.6227 58.4727C42.3187 58.3021 42.084 58.0621 41.9187 57.7527C41.7534 57.4434 41.6707 57.0807 41.6707 56.6647C41.6707 56.2487 41.7534 55.8887 41.9187 55.5847C42.084 55.2754 42.3187 55.0354 42.6227 54.8647C42.9267 54.6941 43.284 54.6087 43.6947 54.6087C44.1107 54.6087 44.468 54.6941 44.7667 54.8647C45.0654 55.0354 45.2974 55.2754 45.4627 55.5847C45.628 55.8941 45.7107 56.2541 45.7107 56.6647C45.7107 57.0807 45.628 57.4434 45.4627 57.7527C45.3027 58.0621 45.0707 58.3021 44.7667 58.4727C44.468 58.6434 44.1107 58.7287 43.6947 58.7287ZM43.6947 58.0087C44.052 58.0087 44.332 57.8887 44.5347 57.6487C44.7427 57.4087 44.8467 57.0807 44.8467 56.6647C44.8467 56.2487 44.7427 55.9234 44.5347 55.6887C44.332 55.4541 44.052 55.3367 43.6947 55.3367C43.332 55.3367 43.0467 55.4541 42.8387 55.6887C42.636 55.9234 42.5347 56.2487 42.5347 56.6647C42.5347 57.0807 42.6387 57.4087 42.8467 57.6487C43.0547 57.8887 43.3374 58.0087 43.6947 58.0087ZM46.8246 58.6567V54.6887H47.6326V55.5207H47.6406C47.7686 55.2327 47.9579 55.0087 48.2086 54.8487C48.4646 54.6887 48.7526 54.6087 49.0726 54.6087C49.3979 54.6087 49.6699 54.6701 49.8886 54.7927C50.1126 54.9101 50.2779 55.0914 50.3846 55.3367C50.4966 55.5767 50.5526 55.8834 50.5526 56.2567V58.6567H49.6726V56.2967C49.6726 56.0941 49.6433 55.9234 49.5846 55.7847C49.5313 55.6407 49.4433 55.5314 49.3206 55.4567C49.1979 55.3821 49.0353 55.3447 48.8326 55.3447C48.6139 55.3447 48.4193 55.3954 48.2486 55.4967C48.0779 55.5927 47.9419 55.7261 47.8406 55.8967C47.7446 56.0621 47.6966 56.2487 47.6966 56.4567V58.6567H46.8246ZM53.6473 58.7287C53.1353 58.7287 52.7513 58.5981 52.4953 58.3367C52.2446 58.0754 52.1193 57.6994 52.1193 57.2087V55.4007H51.3273V54.6887H52.1513V53.5367H52.9913V54.6887H54.3913V55.4007H52.9913V57.1527C52.9913 57.4354 53.0553 57.6461 53.1833 57.7847C53.3166 57.9181 53.5166 57.9847 53.7833 57.9847C53.8899 57.9847 53.9939 57.9741 54.0953 57.9527C54.2019 57.9314 54.3033 57.9047 54.3993 57.8727L54.5273 58.5447C54.4099 58.6087 54.2739 58.6541 54.1193 58.6807C53.9646 58.7127 53.8073 58.7287 53.6473 58.7287ZM55.3168 58.6567V54.6887H56.1008V55.6327H56.1088C56.2048 55.3341 56.3674 55.0994 56.5968 54.9287C56.8314 54.7527 57.1194 54.6541 57.4608 54.6327L57.8608 54.6007L57.9408 55.4007L57.3008 55.4567C56.9488 55.4834 56.6768 55.5981 56.4848 55.8007C56.2928 55.9981 56.1968 56.2461 56.1968 56.5447V58.6567H55.3168ZM60.5072 58.7287C60.0965 58.7287 59.7392 58.6434 59.4352 58.4727C59.1312 58.3021 58.8965 58.0621 58.7312 57.7527C58.5659 57.4434 58.4832 57.0807 58.4832 56.6647C58.4832 56.2487 58.5659 55.8887 58.7312 55.5847C58.8965 55.2754 59.1312 55.0354 59.4352 54.8647C59.7392 54.6941 60.0965 54.6087 60.5072 54.6087C60.9232 54.6087 61.2805 54.6941 61.5792 54.8647C61.8779 55.0354 62.1099 55.2754 62.2752 55.5847C62.4405 55.8941 62.5232 56.2541 62.5232 56.6647C62.5232 57.0807 62.4405 57.4434 62.2752 57.7527C62.1152 58.0621 61.8832 58.3021 61.5792 58.4727C61.2805 58.6434 60.9232 58.7287 60.5072 58.7287ZM60.5072 58.0087C60.8645 58.0087 61.1445 57.8887 61.3472 57.6487C61.5552 57.4087 61.6592 57.0807 61.6592 56.6647C61.6592 56.2487 61.5552 55.9234 61.3472 55.6887C61.1445 55.4541 60.8645 55.3367 60.5072 55.3367C60.1445 55.3367 59.8592 55.4541 59.6512 55.6887C59.4485 55.9234 59.3472 56.2487 59.3472 56.6647C59.3472 57.0807 59.4512 57.4087 59.6592 57.6487C59.8672 57.8887 60.1499 58.0087 60.5072 58.0087ZM64.9171 58.7287C64.5011 58.7287 64.1838 58.6141 63.9651 58.3847C63.7464 58.1501 63.6371 57.8194 63.6371 57.3927V53.0167H64.5091V57.3127C64.5091 57.4674 64.5304 57.5981 64.5731 57.7047C64.6211 57.8114 64.6878 57.8914 64.7731 57.9447C64.8584 57.9981 64.9624 58.0247 65.0851 58.0247C65.1651 58.0247 65.2398 58.0221 65.3091 58.0167C65.3784 58.0061 65.4504 57.9901 65.5251 57.9687L65.5571 58.6327C65.4558 58.6701 65.3544 58.6941 65.2531 58.7047C65.1571 58.7207 65.0451 58.7287 64.9171 58.7287Z" fill="black"/>
<path d="M37.6311 68.7167C37.2231 68.7167 36.8651 68.6307 36.5571 68.4587C36.2531 68.2827 36.0171 68.0327 35.8491 67.7087C35.6811 67.3807 35.5971 66.9907 35.5971 66.5387C35.5971 66.0867 35.6811 65.6987 35.8491 65.3747C36.0171 65.0507 36.2531 64.8027 36.5571 64.6307C36.8611 64.4587 37.2191 64.3727 37.6311 64.3727C37.9271 64.3727 38.1971 64.4147 38.4411 64.4987C38.6851 64.5787 38.8931 64.7027 39.0651 64.8707L38.8251 65.3987C38.6411 65.2467 38.4551 65.1387 38.2671 65.0747C38.0791 65.0067 37.8731 64.9727 37.6491 64.9727C37.2371 64.9727 36.9091 65.1047 36.6651 65.3687C36.4211 65.6327 36.2991 66.0207 36.2991 66.5327C36.2991 67.0527 36.4191 67.4467 36.6591 67.7147C36.9031 67.9787 37.2331 68.1107 37.6491 68.1107C37.8731 68.1107 38.0791 68.0787 38.2671 68.0147C38.4551 67.9467 38.6411 67.8367 38.8251 67.6847L39.0651 68.2127C38.8931 68.3807 38.6851 68.5067 38.4411 68.5907C38.1971 68.6747 37.9271 68.7167 37.6311 68.7167ZM40.0051 68.6567V64.4267H40.6531V66.2507H40.6891C40.7851 66.0547 40.9251 65.8967 41.1091 65.7767C41.2971 65.6567 41.5091 65.5967 41.7451 65.5967C41.9971 65.5967 42.2071 65.6427 42.3751 65.7347C42.5471 65.8267 42.6751 65.9667 42.7591 66.1547C42.8471 66.3387 42.8911 66.5727 42.8911 66.8567V68.6567H42.2071V66.8867C42.2071 66.7427 42.1851 66.6187 42.1411 66.5147C42.1011 66.4067 42.0331 66.3247 41.9371 66.2687C41.8451 66.2087 41.7211 66.1787 41.5651 66.1787C41.3971 66.1787 41.2471 66.2167 41.1151 66.2927C40.9831 66.3687 40.8791 66.4707 40.8031 66.5987C40.7271 66.7227 40.6891 66.8607 40.6891 67.0127V68.6567H40.0051ZM45.016 68.7107C44.796 68.7107 44.598 68.6707 44.422 68.5907C44.25 68.5107 44.114 68.4007 44.014 68.2607C43.914 68.1207 43.864 67.9647 43.864 67.7927C43.864 67.5647 43.932 67.3827 44.068 67.2467C44.204 67.1067 44.408 67.0067 44.68 66.9467C44.952 66.8827 45.294 66.8507 45.706 66.8507H46.192V67.2947H45.748C45.54 67.2947 45.36 67.3027 45.208 67.3187C45.06 67.3307 44.936 67.3527 44.836 67.3847C44.736 67.4167 44.66 67.4627 44.608 67.5227C44.56 67.5827 44.536 67.6587 44.536 67.7507C44.536 67.9027 44.596 68.0147 44.716 68.0867C44.836 68.1587 44.988 68.1947 45.172 68.1947C45.336 68.1947 45.486 68.1567 45.622 68.0807C45.762 68.0047 45.874 67.9067 45.958 67.7867C46.046 67.6627 46.09 67.5307 46.09 67.3907V66.7307C46.09 66.5147 46.02 66.3627 45.88 66.2747C45.74 66.1827 45.536 66.1367 45.268 66.1367C45.096 66.1367 44.922 66.1607 44.746 66.2087C44.57 66.2527 44.384 66.3287 44.188 66.4367L43.99 65.9447C44.13 65.8687 44.274 65.8047 44.422 65.7527C44.574 65.7007 44.73 65.6627 44.89 65.6387C45.054 65.6107 45.22 65.5967 45.388 65.5967C45.656 65.5967 45.892 65.6387 46.096 65.7227C46.304 65.8067 46.466 65.9367 46.582 66.1127C46.698 66.2887 46.756 66.5187 46.756 66.8027V68.6567H46.192V68.0327H46.15C46.086 68.1527 46.002 68.2647 45.898 68.3687C45.794 68.4727 45.668 68.5567 45.52 68.6207C45.376 68.6807 45.208 68.7107 45.016 68.7107ZM47.8273 69.7367V65.6507H48.4333V66.2687H48.4693C48.5693 66.0487 48.7133 65.8827 48.9013 65.7707C49.0933 65.6547 49.3133 65.5967 49.5613 65.5967C49.8453 65.5967 50.0913 65.6627 50.2993 65.7947C50.5113 65.9267 50.6733 66.1087 50.7853 66.3407C50.8973 66.5727 50.9533 66.8427 50.9533 67.1507C50.9533 67.4507 50.8973 67.7187 50.7853 67.9547C50.6773 68.1907 50.5193 68.3767 50.3113 68.5127C50.1033 68.6447 49.8553 68.7107 49.5673 68.7107C49.3233 68.7107 49.1153 68.6567 48.9433 68.5487C48.7713 68.4367 48.6393 68.2887 48.5473 68.1047H48.5113V69.7367H47.8273ZM49.3933 68.1647C49.6693 68.1647 49.8853 68.0727 50.0413 67.8887C50.1973 67.7047 50.2753 67.4567 50.2753 67.1447C50.2753 66.8367 50.1973 66.5927 50.0413 66.4127C49.8893 66.2327 49.6733 66.1427 49.3933 66.1427C49.1133 66.1427 48.8953 66.2327 48.7393 66.4127C48.5833 66.5927 48.5053 66.8367 48.5053 67.1447C48.5053 67.4567 48.5833 67.7047 48.7393 67.8887C48.8993 68.0727 49.1173 68.1647 49.3933 68.1647ZM53.2031 68.7107C52.8111 68.7107 52.5171 68.6107 52.3211 68.4107C52.1251 68.2107 52.0271 67.9247 52.0271 67.5527V66.2207H51.4211V65.6567H52.0691V64.7987H52.7051V65.6567H53.8271V66.2207H52.7051V67.5167C52.7051 67.7247 52.7551 67.8787 52.8551 67.9787C52.9591 68.0787 53.1111 68.1287 53.3111 68.1287C53.4031 68.1287 53.4911 68.1207 53.5751 68.1047C53.6591 68.0887 53.7411 68.0647 53.8211 68.0327L53.9171 68.5667C53.8171 68.6187 53.7051 68.6547 53.5811 68.6747C53.4611 68.6987 53.3351 68.7107 53.2031 68.7107ZM56.1253 68.7107C55.7653 68.7107 55.4553 68.6507 55.1953 68.5307C54.9393 68.4067 54.7433 68.2267 54.6073 67.9907C54.4753 67.7547 54.4093 67.4747 54.4093 67.1507C54.4093 66.8547 54.4693 66.5907 54.5893 66.3587C54.7133 66.1227 54.8913 65.9367 55.1233 65.8007C55.3553 65.6647 55.6333 65.5967 55.9573 65.5967C56.2613 65.5967 56.5213 65.6607 56.7373 65.7887C56.9533 65.9167 57.1173 66.0967 57.2293 66.3287C57.3453 66.5607 57.4033 66.8387 57.4033 67.1627V67.3607H54.9313V66.9107H56.9293L56.8213 67.0367C56.8213 66.7287 56.7453 66.4967 56.5933 66.3407C56.4453 66.1847 56.2353 66.1067 55.9633 66.1067C55.7873 66.1067 55.6313 66.1447 55.4953 66.2207C55.3593 66.2927 55.2513 66.3987 55.1713 66.5387C55.0953 66.6787 55.0573 66.8527 55.0573 67.0607V67.1447C55.0573 67.3767 55.0993 67.5687 55.1833 67.7207C55.2713 67.8687 55.3973 67.9807 55.5613 68.0567C55.7253 68.1287 55.9213 68.1647 56.1493 68.1647C56.3093 68.1647 56.4733 68.1467 56.6413 68.1107C56.8133 68.0707 56.9713 67.9967 57.1153 67.8887L57.3253 68.3687C57.1613 68.4927 56.9713 68.5807 56.7553 68.6327C56.5393 68.6847 56.3293 68.7107 56.1253 68.7107ZM58.3097 68.6567V65.6567H58.9037V66.3647H58.9397C59.0157 66.1527 59.1417 65.9787 59.3177 65.8427C59.4977 65.7067 59.7117 65.6327 59.9597 65.6207L60.3077 65.5967L60.3737 66.2327L59.8337 66.2747C59.5697 66.2987 59.3637 66.3887 59.2157 66.5447C59.0677 66.6967 58.9937 66.8807 58.9937 67.0967V68.6567H58.3097ZM60.9914 68.6567V68.0807H62.2034V64.9547L62.5454 65.0147L61.2194 65.8547L60.9254 65.3327L62.3714 64.4267H62.8634V68.0807H63.9674V68.6567H60.9914ZM65.933 68.7107C65.597 68.7107 65.315 68.6287 65.087 68.4647C64.863 68.3007 64.691 68.0567 64.571 67.7327C64.455 67.4087 64.397 67.0107 64.397 66.5387C64.397 66.0667 64.455 65.6707 64.571 65.3507C64.687 65.0307 64.859 64.7887 65.087 64.6247C65.319 64.4567 65.601 64.3727 65.933 64.3727C66.273 64.3727 66.555 64.4547 66.779 64.6187C67.007 64.7827 67.179 65.0267 67.295 65.3507C67.411 65.6707 67.469 66.0647 67.469 66.5327C67.469 67.0047 67.409 67.4027 67.289 67.7267C67.173 68.0507 67.001 68.2967 66.773 68.4647C66.549 68.6287 66.269 68.7107 65.933 68.7107ZM65.933 68.1347C66.229 68.1347 66.449 68.0067 66.593 67.7507C66.741 67.4907 66.815 67.0867 66.815 66.5387C66.815 65.9907 66.743 65.5887 66.599 65.3327C66.455 65.0767 66.235 64.9487 65.939 64.9487C65.639 64.9487 65.415 65.0767 65.267 65.3327C65.123 65.5887 65.051 65.9907 65.051 66.5387C65.051 67.0827 65.123 67.4847 65.267 67.7447C65.411 68.0047 65.633 68.1347 65.933 68.1347Z" fill="#667085"/>
<defs>
<filter id="filter0_d_8334_725" x="0" y="0" width="101.04" height="85.8501" filterUnits="userSpaceOnUse" color-interpolation-filters="sRGB">
<feFlood flood-opacity="0" result="BackgroundImageFix"/>
<feColorMatrix in="SourceAlpha" type="matrix" values="0 0 0 0 0 0 0 0 0 0 0 0 0 0 0 0 0 0 127 0" result="hardAlpha"/>
<feOffset dy="4"/>
<feGaussianBlur stdDeviation="2"/>
<feComposite in2="hardAlpha" operator="out"/>
<feColorMatrix type="matrix" values="0 0 0 0 0 0 0 0 0 0 0 0 0 0 0 0 0 0 0.25 0"/>
<feBlend mode="normal" in2="BackgroundImageFix" result="effect1_dropShadow_8334_725"/>
<feBlend mode="normal" in="SourceGraphic" in2="effect1_dropShadow_8334_725" result="shape"/>
</filter>
</defs>
</svg>
