<svg width="102" height="86" viewBox="0 0 102 86" fill="none" xmlns="http://www.w3.org/2000/svg">
<g filter="url(#filter0_d_8334_734)">
<path d="M5.45148 42.5206C4.65639 41.2109 4.25887 40.5556 4.10327 39.8593C3.96558 39.2431 3.96558 38.6067 4.10327 37.9905C4.25887 37.2942 4.65639 36.6389 5.45148 35.3292L24.7122 3.59573C25.5072 2.2858 25.9047 1.63084 26.4609 1.1545C26.953 0.733034 27.5327 0.414632 28.1625 0.220013C28.8742 -2.00927e-07 29.6693 0 31.2595 0H69.7806C71.3711 0 72.1659 -2.00927e-07 72.8779 0.220013C73.5073 0.414632 74.0871 0.733034 74.5794 1.1545C75.1356 1.63084 75.533 2.2858 76.3282 3.59573L95.5887 35.3292C96.3839 36.6389 96.7813 37.2942 96.9368 37.9905C97.0747 38.6067 97.0747 39.2431 96.9368 39.8593C96.7813 40.5556 96.3839 41.2109 95.5887 42.5206L76.3282 74.2543C75.533 75.564 75.1356 76.2189 74.5794 76.6953C74.0871 77.1169 73.5073 77.4351 72.8779 77.6298C72.1659 77.85 71.3711 77.85 69.7806 77.85H31.2595C29.6693 77.85 28.8742 77.85 28.1625 77.6298C27.5327 77.4351 26.953 77.1169 26.4609 76.6953C25.9047 76.2189 25.5072 75.564 24.7122 74.2543L5.45148 42.5206Z" fill="white"/>
</g>
<path d="M60.9148 15.8521H41.9502C41.7451 15.8527 41.5486 15.9345 41.4035 16.0796C41.2585 16.2246 41.1767 16.4211 41.176 16.6262V39.6924C41.1769 39.897 41.259 40.0928 41.4041 40.237C41.5492 40.3812 41.7456 40.4619 41.9502 40.4614H60.9148C61.0158 40.4616 61.1159 40.4418 61.2093 40.4032C61.3026 40.3646 61.3875 40.3079 61.4589 40.2365C61.5303 40.165 61.587 40.0802 61.6256 39.9868C61.6642 39.8935 61.684 39.7934 61.6838 39.6924V16.6262C61.6843 16.4216 61.6036 16.2252 61.4594 16.0801C61.3153 15.9349 61.1194 15.8529 60.9148 15.8521ZM50.4045 36.3803H45.2776C45.0736 36.3803 44.878 36.2993 44.7338 36.1551C44.5896 36.0109 44.5085 35.8153 44.5085 35.6113C44.5085 35.4073 44.5896 35.2117 44.7338 35.0675C44.878 34.9233 45.0736 34.8422 45.2776 34.8422H50.4045C51.4142 34.858 51.4168 36.3642 50.4045 36.3803ZM50.4045 30.7407H45.2776C45.0736 30.7407 44.878 30.6597 44.7338 30.5154C44.5896 30.3712 44.5085 30.1756 44.5085 29.9716C44.5085 29.7677 44.5896 29.5721 44.7338 29.4278C44.878 29.2836 45.0736 29.2026 45.2776 29.2026H50.4045C51.4142 29.2183 51.4168 30.7245 50.4045 30.7407ZM52.4758 24.5679C52.4608 25.5777 50.9534 25.5796 50.9377 24.5678V20.5842C50.9387 19.9417 51.1947 19.3259 51.6494 18.8719C52.104 18.4179 52.7203 18.1629 53.3628 18.1629C54.0053 18.1629 54.6215 18.4179 55.0762 18.8719C55.5309 19.3259 55.7868 19.9417 55.7878 20.5842V24.5679C55.7713 25.5784 54.2663 25.5795 54.2497 24.5678V23.486H52.4758V24.5679ZM58.1257 34.8935L55.6033 37.416C55.5328 37.4886 55.4483 37.546 55.3548 37.5848C55.2614 37.6236 55.161 37.6429 55.0598 37.6416C54.9588 37.6419 54.8587 37.6222 54.7654 37.5834C54.6721 37.5447 54.5874 37.4878 54.5164 37.416L53.4499 36.3496C52.7516 35.6261 53.8134 34.5545 54.5369 35.2626L55.0598 35.7855L57.0388 33.8066C57.77 33.108 58.8309 34.1719 58.1257 34.8935ZM58.1257 29.2539L55.6033 31.7763C55.5328 31.8489 55.4483 31.9063 55.3548 31.9451C55.2614 31.9839 55.161 32.0033 55.0598 32.0019C54.9588 32.0023 54.8587 31.9825 54.7654 31.9438C54.6721 31.9051 54.5874 31.8481 54.5164 31.7763L53.4499 30.7099C52.7516 29.9864 53.8134 28.9148 54.5369 29.623L55.0598 30.1459L57.0388 28.167C57.77 27.4683 58.8309 28.5322 58.1257 29.2539Z" fill="#F2BB41"/>
<path d="M54.2497 20.5841C54.2491 20.3493 54.1554 20.1243 53.9892 19.9584C53.8229 19.7926 53.5976 19.6995 53.3628 19.6995C53.1279 19.6995 52.9027 19.7926 52.7364 19.9584C52.5701 20.1243 52.4764 20.3493 52.4758 20.5841V21.9479H54.2497V20.5841Z" fill="#F2BB41"/>
<path d="M31.0969 52.1567V46.5167H33.5209C34.1236 46.5167 34.5903 46.6447 34.9209 46.9007C35.2569 47.1514 35.4249 47.5141 35.4249 47.9887C35.4249 48.3301 35.3343 48.6101 35.1529 48.8287C34.9769 49.0421 34.7529 49.1834 34.4809 49.2527V49.2447C34.6783 49.2821 34.8596 49.3567 35.0249 49.4687C35.1903 49.5807 35.3209 49.7301 35.4169 49.9167C35.5129 50.0981 35.5609 50.3221 35.5609 50.5887C35.5609 50.9247 35.4836 51.2101 35.3289 51.4447C35.1796 51.6741 34.9583 51.8501 34.6649 51.9727C34.3716 52.0954 34.0196 52.1567 33.6089 52.1567H31.0969ZM31.9689 51.4287H33.5609C33.7103 51.4287 33.8463 51.4181 33.9689 51.3967C34.0916 51.3701 34.1956 51.3327 34.2809 51.2847C34.3716 51.2367 34.4463 51.1781 34.5049 51.1087C34.5636 51.0394 34.6089 50.9594 34.6409 50.8687C34.6729 50.7727 34.6889 50.6687 34.6889 50.5567C34.6889 50.4287 34.6729 50.3167 34.6409 50.2207C34.6089 50.1247 34.5609 50.0421 34.4969 49.9727C34.4383 49.9034 34.3636 49.8474 34.2729 49.8047C34.1823 49.7567 34.0756 49.7221 33.9529 49.7007C33.8356 49.6794 33.7049 49.6687 33.5609 49.6687H31.9689V51.4287ZM31.9689 48.9407H33.4249C33.8036 48.9407 34.0836 48.8687 34.2649 48.7247C34.4516 48.5807 34.5449 48.3621 34.5449 48.0687C34.5449 47.7967 34.4543 47.5914 34.2729 47.4527C34.0916 47.3141 33.8089 47.2447 33.4249 47.2447H31.9689V48.9407ZM38.7891 52.2287C38.3251 52.2287 37.9277 52.1487 37.5971 51.9887C37.2664 51.8234 37.0131 51.5861 36.8371 51.2767C36.6611 50.9674 36.5731 50.5994 36.5731 50.1727C36.5731 49.7727 36.6531 49.4181 36.8131 49.1087C36.9784 48.7994 37.2131 48.5567 37.5171 48.3807C37.8211 48.1994 38.1784 48.1087 38.5891 48.1087C38.9784 48.1087 39.3117 48.1914 39.5891 48.3567C39.8664 48.5221 40.0797 48.7567 40.2291 49.0607C40.3784 49.3647 40.4531 49.7274 40.4531 50.1487V50.4207H37.2531V49.8527H39.8531L39.7091 49.9967C39.7091 49.5914 39.6131 49.2847 39.4211 49.0767C39.2291 48.8634 38.9571 48.7567 38.6051 48.7567C38.3651 48.7567 38.1544 48.8101 37.9731 48.9167C37.7971 49.0181 37.6584 49.1674 37.5571 49.3647C37.4557 49.5567 37.4051 49.7914 37.4051 50.0687V50.1567C37.4051 50.4661 37.4584 50.7221 37.5651 50.9247C37.6771 51.1274 37.8371 51.2794 38.0451 51.3807C38.2584 51.4821 38.5144 51.5327 38.8131 51.5327C39.0317 51.5327 39.2504 51.5061 39.4691 51.4527C39.6931 51.3941 39.9011 51.2901 40.0931 51.1407L40.3651 51.7487C40.1571 51.9141 39.9117 52.0367 39.6291 52.1167C39.3464 52.1914 39.0664 52.2287 38.7891 52.2287ZM41.7874 52.1567V48.8607H40.9954V48.1887H42.0274L41.7874 48.4207V48.1727C41.7874 47.6341 41.9368 47.2261 42.2354 46.9487C42.5394 46.6714 42.9848 46.5194 43.5714 46.4927L44.0114 46.4687L44.0754 47.1727L43.5634 47.2047C43.3821 47.2101 43.2248 47.2421 43.0914 47.3007C42.9581 47.3541 42.8541 47.4394 42.7794 47.5567C42.7048 47.6741 42.6674 47.8394 42.6674 48.0527V48.2607L42.5394 48.1887H43.8834V48.8607H42.6674V52.1567H41.7874ZM46.433 52.2287C46.0223 52.2287 45.665 52.1434 45.361 51.9727C45.057 51.8021 44.8223 51.5621 44.657 51.2527C44.4917 50.9434 44.409 50.5807 44.409 50.1647C44.409 49.7487 44.4917 49.3887 44.657 49.0847C44.8223 48.7754 45.057 48.5354 45.361 48.3647C45.665 48.1941 46.0223 48.1087 46.433 48.1087C46.849 48.1087 47.2063 48.1941 47.505 48.3647C47.8037 48.5354 48.0357 48.7754 48.201 49.0847C48.3663 49.3941 48.449 49.7541 48.449 50.1647C48.449 50.5807 48.3663 50.9434 48.201 51.2527C48.041 51.5621 47.809 51.8021 47.505 51.9727C47.2063 52.1434 46.849 52.2287 46.433 52.2287ZM46.433 51.5087C46.7903 51.5087 47.0703 51.3887 47.273 51.1487C47.481 50.9087 47.585 50.5807 47.585 50.1647C47.585 49.7487 47.481 49.4234 47.273 49.1887C47.0703 48.9541 46.7903 48.8367 46.433 48.8367C46.0703 48.8367 45.785 48.9541 45.577 49.1887C45.3743 49.4234 45.273 49.7487 45.273 50.1647C45.273 50.5807 45.377 50.9087 45.585 51.1487C45.793 51.3887 46.0757 51.5087 46.433 51.5087ZM49.5629 52.1567V48.1887H50.3469V49.1327H50.3549C50.4509 48.8341 50.6135 48.5994 50.8429 48.4287C51.0775 48.2527 51.3655 48.1541 51.7069 48.1327L52.1069 48.1007L52.1869 48.9007L51.5469 48.9567C51.1949 48.9834 50.9229 49.0981 50.7309 49.3007C50.5389 49.4981 50.4429 49.7461 50.4429 50.0447V52.1567H49.5629ZM54.9453 52.2287C54.4813 52.2287 54.084 52.1487 53.7533 51.9887C53.4226 51.8234 53.1693 51.5861 52.9933 51.2767C52.8173 50.9674 52.7293 50.5994 52.7293 50.1727C52.7293 49.7727 52.8093 49.4181 52.9693 49.1087C53.1346 48.7994 53.3693 48.5567 53.6733 48.3807C53.9773 48.1994 54.3346 48.1087 54.7453 48.1087C55.1346 48.1087 55.468 48.1914 55.7453 48.3567C56.0226 48.5221 56.236 48.7567 56.3853 49.0607C56.5346 49.3647 56.6093 49.7274 56.6093 50.1487V50.4207H53.4093V49.8527H56.0093L55.8653 49.9967C55.8653 49.5914 55.7693 49.2847 55.5773 49.0767C55.3853 48.8634 55.1133 48.7567 54.7613 48.7567C54.5213 48.7567 54.3106 48.8101 54.1293 48.9167C53.9533 49.0181 53.8146 49.1674 53.7133 49.3647C53.612 49.5567 53.5613 49.7914 53.5613 50.0687V50.1567C53.5613 50.4661 53.6146 50.7221 53.7213 50.9247C53.8333 51.1274 53.9933 51.2794 54.2013 51.3807C54.4146 51.4821 54.6706 51.5327 54.9693 51.5327C55.188 51.5327 55.4066 51.5061 55.6253 51.4527C55.8493 51.3941 56.0573 51.2901 56.2493 51.1407L56.5213 51.7487C56.3133 51.9141 56.068 52.0367 55.7853 52.1167C55.5026 52.1914 55.2226 52.2287 54.9453 52.2287ZM61.7606 52.2287C61.2486 52.2287 60.8646 52.0981 60.6086 51.8367C60.3579 51.5754 60.2326 51.1994 60.2326 50.7087V48.9007H59.4406V48.1887H60.2646V47.0367H61.1046V48.1887H62.5046V48.9007H61.1046V50.6527C61.1046 50.9354 61.1686 51.1461 61.2966 51.2847C61.4299 51.4181 61.6299 51.4847 61.8966 51.4847C62.0032 51.4847 62.1072 51.4741 62.2086 51.4527C62.3152 51.4314 62.4166 51.4047 62.5126 51.3727L62.6406 52.0447C62.5232 52.1087 62.3872 52.1541 62.2326 52.1807C62.0779 52.2127 61.9206 52.2287 61.7606 52.2287ZM63.4301 52.1567V46.5167H64.2701V48.9967C64.3927 48.7247 64.5767 48.5087 64.8221 48.3487C65.0727 48.1887 65.3581 48.1087 65.6781 48.1087C66.0034 48.1087 66.2754 48.1701 66.4941 48.2927C66.7127 48.4101 66.8781 48.5914 66.9901 48.8367C67.1021 49.0767 67.1581 49.3834 67.1581 49.7567V52.1567H66.2781V49.7967C66.2781 49.5941 66.2487 49.4234 66.1901 49.2847C66.1367 49.1407 66.0487 49.0314 65.9261 48.9567C65.8034 48.8821 65.6407 48.8447 65.4381 48.8447C65.2194 48.8447 65.0247 48.8954 64.8541 48.9967C64.6834 49.0927 64.5474 49.2261 64.4461 49.3967C64.3501 49.5621 64.3021 49.7487 64.3021 49.9567V52.1567H63.4301ZM70.4687 52.2287C70.0047 52.2287 69.6074 52.1487 69.2767 51.9887C68.9461 51.8234 68.6927 51.5861 68.5167 51.2767C68.3407 50.9674 68.2527 50.5994 68.2527 50.1727C68.2527 49.7727 68.3327 49.4181 68.4927 49.1087C68.6581 48.7994 68.8927 48.5567 69.1967 48.3807C69.5007 48.1994 69.8581 48.1087 70.2687 48.1087C70.6581 48.1087 70.9914 48.1914 71.2687 48.3567C71.5461 48.5221 71.7594 48.7567 71.9087 49.0607C72.0581 49.3647 72.1327 49.7274 72.1327 50.1487V50.4207H68.9327V49.8527H71.5327L71.3887 49.9967C71.3887 49.5914 71.2927 49.2847 71.1007 49.0767C70.9087 48.8634 70.6367 48.7567 70.2847 48.7567C70.0447 48.7567 69.8341 48.8101 69.6527 48.9167C69.4767 49.0181 69.3381 49.1674 69.2367 49.3647C69.1354 49.5567 69.0847 49.7914 69.0847 50.0687V50.1567C69.0847 50.4661 69.1381 50.7221 69.2447 50.9247C69.3567 51.1274 69.5167 51.2794 69.7247 51.3807C69.9381 51.4821 70.1941 51.5327 70.4927 51.5327C70.7114 51.5327 70.9301 51.5061 71.1487 51.4527C71.3727 51.3941 71.5807 51.2901 71.7727 51.1407L72.0447 51.7487C71.8367 51.9141 71.5914 52.0367 71.3087 52.1167C71.0261 52.1914 70.7461 52.2287 70.4687 52.2287ZM41.2415 63.1567V57.5167H45.0095V58.2607H42.1135V59.9247H44.8415V60.6687H42.1135V62.4127H45.0095V63.1567H41.2415ZM45.7501 63.1567L47.3821 60.8927L47.3981 61.3647L45.8221 59.1887H46.7901L47.8381 60.6447H47.7741L48.8221 59.1887H49.7901L48.2141 61.3567L48.2381 60.9087L49.8621 63.1567H48.8861L47.7741 61.6047H47.8381L46.7261 63.1567H45.7501ZM52.0125 63.2287C51.7245 63.2287 51.4659 63.1754 51.2365 63.0687C51.0125 62.9621 50.8339 62.8181 50.7005 62.6367C50.5725 62.4501 50.5085 62.2394 50.5085 62.0047C50.5085 61.7114 50.5939 61.4767 50.7645 61.3007C50.9352 61.1194 51.1965 60.9887 51.5485 60.9087C51.9059 60.8287 52.3619 60.7887 52.9165 60.7887H53.4765V61.3487H52.9565C52.6792 61.3487 52.4392 61.3594 52.2365 61.3807C52.0392 61.3967 51.8765 61.4287 51.7485 61.4767C51.6205 61.5194 51.5245 61.5807 51.4605 61.6607C51.4019 61.7354 51.3725 61.8341 51.3725 61.9567C51.3725 62.1594 51.4472 62.3141 51.5965 62.4207C51.7512 62.5274 51.9512 62.5807 52.1965 62.5807C52.4099 62.5807 52.6019 62.5327 52.7725 62.4367C52.9485 62.3354 53.0872 62.2047 53.1885 62.0447C53.2952 61.8794 53.3485 61.6981 53.3485 61.5007V60.6127C53.3485 60.3194 53.2632 60.1114 53.0925 59.9887C52.9272 59.8607 52.6792 59.7967 52.3485 59.7967C52.1192 59.7967 51.8872 59.8287 51.6525 59.8927C51.4232 59.9567 51.1832 60.0607 50.9325 60.2047L50.6765 59.5807C50.8419 59.4794 51.0205 59.3941 51.2125 59.3247C51.4099 59.2554 51.6152 59.2021 51.8285 59.1647C52.0419 59.1274 52.2525 59.1087 52.4605 59.1087C52.8179 59.1087 53.1272 59.1647 53.3885 59.2767C53.6499 59.3887 53.8499 59.5621 53.9885 59.7967C54.1272 60.0261 54.1965 60.3274 54.1965 60.7007V63.1567H53.4445V62.3087H53.4365C53.3619 62.4794 53.2579 62.6367 53.1245 62.7807C52.9965 62.9194 52.8392 63.0287 52.6525 63.1087C52.4659 63.1887 52.2525 63.2287 52.0125 63.2287ZM55.5437 63.1567V59.1887H56.3357V60.0287H56.3437C56.413 59.8527 56.5117 59.6981 56.6397 59.5647C56.773 59.4261 56.9277 59.3167 57.1037 59.2367C57.285 59.1514 57.4824 59.1087 57.6957 59.1087C58.0317 59.1087 58.309 59.1941 58.5277 59.3647C58.7517 59.5301 58.8957 59.7487 58.9597 60.0207H58.9517C59.053 59.7647 59.221 59.5487 59.4557 59.3727C59.6904 59.1967 59.9837 59.1087 60.3357 59.1087C60.6397 59.1087 60.8957 59.1701 61.1037 59.2927C61.3117 59.4101 61.469 59.5914 61.5757 59.8367C61.6824 60.0767 61.7357 60.3834 61.7357 60.7567V63.1567H60.8717V60.7967C60.8717 60.4767 60.8157 60.2394 60.7037 60.0847C60.5917 59.9247 60.3917 59.8447 60.1037 59.8447C59.885 59.8447 59.6984 59.8927 59.5437 59.9887C59.389 60.0847 59.269 60.2181 59.1837 60.3887C59.1037 60.5541 59.0637 60.7461 59.0637 60.9647V63.1567H58.2077V60.7967C58.2077 60.4821 58.1437 60.2447 58.0157 60.0847C57.893 59.9247 57.701 59.8447 57.4397 59.8447C57.2264 59.8447 57.0424 59.8981 56.8877 60.0047C56.733 60.1061 56.613 60.2421 56.5277 60.4127C56.4477 60.5781 56.4077 60.7567 56.4077 60.9487V63.1567H55.5437Z" fill="black"/>
<defs>
<filter id="filter0_d_8334_734" x="0" y="0" width="101.04" height="85.8501" filterUnits="userSpaceOnUse" color-interpolation-filters="sRGB">
<feFlood flood-opacity="0" result="BackgroundImageFix"/>
<feColorMatrix in="SourceAlpha" type="matrix" values="0 0 0 0 0 0 0 0 0 0 0 0 0 0 0 0 0 0 127 0" result="hardAlpha"/>
<feOffset dy="4"/>
<feGaussianBlur stdDeviation="2"/>
<feComposite in2="hardAlpha" operator="out"/>
<feColorMatrix type="matrix" values="0 0 0 0 0 0 0 0 0 0 0 0 0 0 0 0 0 0 0.25 0"/>
<feBlend mode="normal" in2="BackgroundImageFix" result="effect1_dropShadow_8334_734"/>
<feBlend mode="normal" in="SourceGraphic" in2="effect1_dropShadow_8334_734" result="shape"/>
</filter>
</defs>
</svg>
