<svg width="96" height="86" viewBox="0 0 96 86" fill="none" xmlns="http://www.w3.org/2000/svg">
<g filter="url(#filter0_d_8310_792)">
<path d="M5.37285 42.5185C4.62083 41.2089 4.24484 40.5536 4.09767 39.8574C3.96744 39.2412 3.96744 38.6048 4.09767 37.9886C4.24484 37.2924 4.62083 36.6371 5.37285 35.3274L23.5901 3.59555C24.3421 2.28569 24.7181 1.63076 25.2442 1.15444C25.7096 0.732998 26.2579 0.414612 26.8535 0.220002C27.5267 -2.00917e-07 28.2787 0 29.7827 0H66.2171C67.7214 0 68.4731 -2.00917e-07 69.1466 0.220002C69.7419 0.414612 70.2903 0.732998 70.756 1.15444C71.282 1.63076 71.6578 2.28569 72.41 3.59555L90.6271 35.3274C91.3792 36.6371 91.7551 37.2924 91.9021 37.9886C92.0326 38.6048 92.0326 39.2412 91.9021 39.8574C91.7551 40.5536 91.3792 41.2089 90.6271 42.5185L72.41 74.2506C71.6578 75.5603 71.282 76.2151 70.756 76.6915C70.2903 77.1131 69.7419 77.4313 69.1466 77.6259C68.4731 77.8462 67.7214 77.8462 66.2171 77.8462H29.7827C28.2787 77.8462 27.5267 77.8462 26.8535 77.6259C26.2579 77.4313 25.7096 77.1131 25.2442 76.6915C24.7181 76.2151 24.3421 75.5603 23.5901 74.2506L5.37285 42.5185Z" fill="white"/>
</g>
<g clip-path="url(#clip0_8310_792)">
<path d="M38 35.5H44.875V37.0625C44.875 37.9742 44.5128 38.8485 43.8682 39.4932C43.2235 40.1378 42.3492 40.5 41.4375 40.5C40.5258 40.5 39.6515 40.1378 39.0068 39.4932C38.3622 38.8485 38 37.9742 38 37.0625V35.5ZM43 20.65C45.5 20.65 46.75 24.25 46.75 26.75C46.75 28 46.125 29.25 45.5 31.125L44.875 33H38C38 31.75 37.375 29.875 37.375 26.75C37.375 23.625 39.8725 20.65 43 20.65ZM58.0675 30.6225L57.7962 32.1612C57.6379 33.0592 57.1294 33.8574 56.3826 34.3804C55.6357 34.9034 54.7117 35.1083 53.8137 34.95C52.9158 34.7917 52.1176 34.2832 51.5946 33.5363C51.0716 32.7894 50.8667 31.8654 51.025 30.9675L51.2975 29.43L58.0675 30.6225ZM55.7225 15.1312C58.8025 15.6737 60.745 19.0362 60.2025 22.1137C59.66 25.1925 58.7188 26.93 58.5025 28.1612L51.7312 26.9675L51.4412 25.0125C51.1512 23.0575 50.7537 21.7175 50.97 20.4875C51.4038 18.025 53.26 14.6975 55.7225 15.1312Z" fill="#F2BB41"/>
</g>
<path d="M27.0693 52V46.36H30.8053V47.104H27.9493V48.816H30.6453V49.56H27.9493V52H27.0693ZM31.7363 47.152V46.232H32.7683V47.152H31.7363ZM31.8243 52V48.032H32.6963V52H31.8243ZM34.0431 52V48.032H34.8271V48.976H34.8351C34.9311 48.6773 35.0938 48.4427 35.3231 48.272C35.5578 48.096 35.8458 47.9973 36.1871 47.976L36.5871 47.944L36.6671 48.744L36.0271 48.8C35.6751 48.8267 35.4031 48.9413 35.2111 49.144C35.0191 49.3413 34.9231 49.5893 34.9231 49.888V52H34.0431ZM38.9612 52.072C38.7318 52.072 38.5078 52.0533 38.2892 52.016C38.0758 51.9787 37.8785 51.928 37.6972 51.864C37.5158 51.7947 37.3612 51.7067 37.2332 51.6L37.4812 50.984C37.6198 51.0853 37.7718 51.168 37.9372 51.232C38.1025 51.2907 38.2705 51.3333 38.4412 51.36C38.6118 51.3867 38.7798 51.4 38.9452 51.4C39.2545 51.4 39.4918 51.3573 39.6572 51.272C39.8278 51.1867 39.9132 51.0613 39.9132 50.896C39.9132 50.7573 39.8652 50.6533 39.7692 50.584C39.6732 50.5093 39.5158 50.4533 39.2972 50.416L38.4492 50.28C38.0758 50.216 37.7958 50.088 37.6092 49.896C37.4225 49.704 37.3292 49.464 37.3292 49.176C37.3292 48.9307 37.3958 48.7173 37.5292 48.536C37.6625 48.3547 37.8572 48.2133 38.1132 48.112C38.3692 48.0053 38.6785 47.952 39.0412 47.952C39.2385 47.952 39.4358 47.9707 39.6332 48.008C39.8305 48.0453 40.0118 48.0987 40.1772 48.168C40.3478 48.2373 40.4892 48.3227 40.6012 48.424L40.3372 49.032C40.2252 48.936 40.0972 48.8587 39.9532 48.8C39.8092 48.7413 39.6572 48.6987 39.4972 48.672C39.3425 48.6453 39.1905 48.632 39.0412 48.632C38.7425 48.632 38.5132 48.6773 38.3532 48.768C38.1985 48.8587 38.1212 48.984 38.1212 49.144C38.1212 49.2827 38.1665 49.3893 38.2572 49.464C38.3478 49.5333 38.4918 49.5867 38.6892 49.624L39.5132 49.768C39.9185 49.8373 40.2172 49.9627 40.4092 50.144C40.6012 50.3253 40.6972 50.568 40.6972 50.872C40.6972 51.1173 40.6252 51.3307 40.4812 51.512C40.3425 51.6933 40.1425 51.832 39.8812 51.928C39.6198 52.024 39.3132 52.072 38.9612 52.072ZM43.5064 52.072C42.9944 52.072 42.6104 51.9413 42.3544 51.68C42.1037 51.4187 41.9784 51.0427 41.9784 50.552V48.744H41.1864V48.032H42.0104V46.88H42.8504V48.032H44.2504V48.744H42.8504V50.496C42.8504 50.7787 42.9144 50.9893 43.0424 51.128C43.1757 51.2613 43.3757 51.328 43.6424 51.328C43.7491 51.328 43.8531 51.3173 43.9544 51.296C44.0611 51.2747 44.1624 51.248 44.2584 51.216L44.3864 51.888C44.2691 51.952 44.1331 51.9973 43.9784 52.024C43.8237 52.056 43.6664 52.072 43.5064 52.072ZM49.529 52.072C49.225 52.072 48.9316 52.048 48.649 52C48.3663 51.9573 48.1076 51.8907 47.873 51.8C47.6436 51.7093 47.441 51.5973 47.265 51.464L47.561 50.744C47.7476 50.8773 47.9423 50.9867 48.145 51.072C48.353 51.152 48.5716 51.2107 48.801 51.248C49.0356 51.2853 49.2783 51.304 49.529 51.304C49.9503 51.304 50.2703 51.2267 50.489 51.072C50.713 50.9173 50.825 50.7013 50.825 50.424C50.825 50.2747 50.7876 50.1547 50.713 50.064C50.6436 49.968 50.5343 49.8907 50.385 49.832C50.2356 49.768 50.041 49.712 49.801 49.664L48.881 49.488C48.3583 49.3867 47.977 49.2053 47.737 48.944C47.5023 48.6827 47.385 48.3493 47.385 47.944C47.385 47.608 47.481 47.3173 47.673 47.072C47.865 46.8213 48.129 46.6293 48.465 46.496C48.801 46.3573 49.185 46.288 49.617 46.288C49.8836 46.288 50.137 46.312 50.377 46.36C50.617 46.408 50.8356 46.48 51.033 46.576C51.2356 46.672 51.4116 46.7893 51.561 46.928L51.257 47.632C51.033 47.424 50.7823 47.2773 50.505 47.192C50.233 47.1013 49.9343 47.056 49.609 47.056C49.3476 47.056 49.1156 47.0907 48.913 47.16C48.7103 47.2293 48.5503 47.3307 48.433 47.464C48.321 47.592 48.265 47.752 48.265 47.944C48.265 48.1573 48.3343 48.3253 48.473 48.448C48.6116 48.5653 48.8516 48.6587 49.193 48.728L50.105 48.896C50.649 48.9973 51.0516 49.1707 51.313 49.416C51.5743 49.6613 51.705 49.984 51.705 50.384C51.705 50.7147 51.6143 51.008 51.433 51.264C51.257 51.5147 51.0063 51.712 50.681 51.856C50.3556 52 49.9716 52.072 49.529 52.072ZM54.5298 52.072C54.0178 52.072 53.6338 51.9413 53.3778 51.68C53.1272 51.4187 53.0018 51.0427 53.0018 50.552V48.744H52.2098V48.032H53.0338V46.88H53.8738V48.032H55.2738V48.744H53.8738V50.496C53.8738 50.7787 53.9378 50.9893 54.0658 51.128C54.1992 51.2613 54.3992 51.328 54.6658 51.328C54.7725 51.328 54.8765 51.3173 54.9778 51.296C55.0845 51.2747 55.1858 51.248 55.2818 51.216L55.4098 51.888C55.2925 51.952 55.1565 51.9973 55.0018 52.024C54.8472 52.056 54.6898 52.072 54.5298 52.072ZM58.1443 52.072C57.6803 52.072 57.2829 51.992 56.9523 51.832C56.6216 51.6667 56.3683 51.4293 56.1923 51.12C56.0163 50.8107 55.9283 50.4427 55.9283 50.016C55.9283 49.616 56.0083 49.2613 56.1683 48.952C56.3336 48.6427 56.5683 48.4 56.8723 48.224C57.1763 48.0427 57.5336 47.952 57.9443 47.952C58.3336 47.952 58.6669 48.0347 58.9443 48.2C59.2216 48.3653 59.4349 48.6 59.5843 48.904C59.7336 49.208 59.8083 49.5707 59.8083 49.992V50.264H56.6083V49.696H59.2083L59.0643 49.84C59.0643 49.4347 58.9683 49.128 58.7763 48.92C58.5843 48.7067 58.3123 48.6 57.9603 48.6C57.7203 48.6 57.5096 48.6533 57.3283 48.76C57.1523 48.8613 57.0136 49.0107 56.9123 49.208C56.8109 49.4 56.7603 49.6347 56.7603 49.912V50C56.7603 50.3093 56.8136 50.5653 56.9203 50.768C57.0323 50.9707 57.1923 51.1227 57.4003 51.224C57.6136 51.3253 57.8696 51.376 58.1683 51.376C58.3869 51.376 58.6056 51.3493 58.8243 51.296C59.0483 51.2373 59.2563 51.1333 59.4483 50.984L59.7203 51.592C59.5123 51.7573 59.2669 51.88 58.9843 51.96C58.7016 52.0347 58.4216 52.072 58.1443 52.072ZM60.9025 53.44V48.024H61.7025V48.872C61.8251 48.5787 62.0118 48.352 62.2625 48.192C62.5131 48.032 62.8065 47.952 63.1425 47.952C63.5105 47.952 63.8305 48.04 64.1025 48.216C64.3745 48.3867 64.5825 48.6267 64.7265 48.936C64.8758 49.24 64.9505 49.6 64.9505 50.016C64.9505 50.416 64.8785 50.7733 64.7345 51.088C64.5905 51.3973 64.3825 51.64 64.1105 51.816C63.8385 51.9867 63.5158 52.072 63.1425 52.072C62.8171 52.072 62.5345 51.9947 62.2945 51.84C62.0598 51.6853 61.8865 51.48 61.7745 51.224V53.44H60.9025ZM62.9265 51.384C63.2838 51.384 63.5638 51.2613 63.7665 51.016C63.9745 50.7707 64.0785 50.4347 64.0785 50.008C64.0785 49.5813 63.9745 49.248 63.7665 49.008C63.5638 48.768 63.2838 48.648 62.9265 48.648C62.5638 48.648 62.2785 48.768 62.0705 49.008C61.8678 49.248 61.7665 49.5813 61.7665 50.008C61.7665 50.4347 61.8705 50.7707 62.0785 51.016C62.2865 51.2613 62.5691 51.384 62.9265 51.384ZM67.5783 52.072C67.349 52.072 67.125 52.0533 66.9063 52.016C66.693 51.9787 66.4957 51.928 66.3143 51.864C66.133 51.7947 65.9783 51.7067 65.8503 51.6L66.0983 50.984C66.237 51.0853 66.389 51.168 66.5543 51.232C66.7197 51.2907 66.8877 51.3333 67.0583 51.36C67.229 51.3867 67.397 51.4 67.5623 51.4C67.8717 51.4 68.109 51.3573 68.2743 51.272C68.445 51.1867 68.5303 51.0613 68.5303 50.896C68.5303 50.7573 68.4823 50.6533 68.3863 50.584C68.2903 50.5093 68.133 50.4533 67.9143 50.416L67.0663 50.28C66.693 50.216 66.413 50.088 66.2263 49.896C66.0397 49.704 65.9463 49.464 65.9463 49.176C65.9463 48.9307 66.013 48.7173 66.1463 48.536C66.2797 48.3547 66.4743 48.2133 66.7303 48.112C66.9863 48.0053 67.2957 47.952 67.6583 47.952C67.8557 47.952 68.053 47.9707 68.2503 48.008C68.4477 48.0453 68.629 48.0987 68.7943 48.168C68.965 48.2373 69.1063 48.3227 69.2183 48.424L68.9543 49.032C68.8423 48.936 68.7143 48.8587 68.5703 48.8C68.4263 48.7413 68.2743 48.6987 68.1143 48.672C67.9597 48.6453 67.8077 48.632 67.6583 48.632C67.3597 48.632 67.1303 48.6773 66.9703 48.768C66.8157 48.8587 66.7383 48.984 66.7383 49.144C66.7383 49.2827 66.7837 49.3893 66.8743 49.464C66.965 49.5333 67.109 49.5867 67.3063 49.624L68.1303 49.768C68.5357 49.8373 68.8343 49.9627 69.0263 50.144C69.2183 50.3253 69.3143 50.568 69.3143 50.872C69.3143 51.1173 69.2423 51.3307 69.0983 51.512C68.9597 51.6933 68.7597 51.832 68.4983 51.928C68.237 52.024 67.9303 52.072 67.5783 52.072Z" fill="black"/>
<path d="M36 62.06C35.592 62.06 35.234 61.974 34.926 61.802C34.622 61.626 34.386 61.376 34.218 61.052C34.05 60.724 33.966 60.334 33.966 59.882C33.966 59.43 34.05 59.042 34.218 58.718C34.386 58.394 34.622 58.146 34.926 57.974C35.23 57.802 35.588 57.716 36 57.716C36.296 57.716 36.566 57.758 36.81 57.842C37.054 57.922 37.262 58.046 37.434 58.214L37.194 58.742C37.01 58.59 36.824 58.482 36.636 58.418C36.448 58.35 36.242 58.316 36.018 58.316C35.606 58.316 35.278 58.448 35.034 58.712C34.79 58.976 34.668 59.364 34.668 59.876C34.668 60.396 34.788 60.79 35.028 61.058C35.272 61.322 35.602 61.454 36.018 61.454C36.242 61.454 36.448 61.422 36.636 61.358C36.824 61.29 37.01 61.18 37.194 61.028L37.434 61.556C37.262 61.724 37.054 61.85 36.81 61.934C36.566 62.018 36.296 62.06 36 62.06ZM38.374 62V57.77H39.022V59.594H39.058C39.154 59.398 39.294 59.24 39.478 59.12C39.666 59 39.878 58.94 40.114 58.94C40.366 58.94 40.576 58.986 40.744 59.078C40.916 59.17 41.044 59.31 41.128 59.498C41.216 59.682 41.26 59.916 41.26 60.2V62H40.576V60.23C40.576 60.086 40.554 59.962 40.51 59.858C40.47 59.75 40.402 59.668 40.306 59.612C40.214 59.552 40.09 59.522 39.934 59.522C39.766 59.522 39.616 59.56 39.484 59.636C39.352 59.712 39.248 59.814 39.172 59.942C39.096 60.066 39.058 60.204 39.058 60.356V62H38.374ZM43.3849 62.054C43.1649 62.054 42.9669 62.014 42.7909 61.934C42.6189 61.854 42.4829 61.744 42.3829 61.604C42.2829 61.464 42.2329 61.308 42.2329 61.136C42.2329 60.908 42.3009 60.726 42.4369 60.59C42.5729 60.45 42.7769 60.35 43.0489 60.29C43.3209 60.226 43.6629 60.194 44.0749 60.194H44.5609V60.638H44.1169C43.9089 60.638 43.7289 60.646 43.5769 60.662C43.4289 60.674 43.3049 60.696 43.2049 60.728C43.1049 60.76 43.0289 60.806 42.9769 60.866C42.9289 60.926 42.9049 61.002 42.9049 61.094C42.9049 61.246 42.9649 61.358 43.0849 61.43C43.2049 61.502 43.3569 61.538 43.5409 61.538C43.7049 61.538 43.8549 61.5 43.9909 61.424C44.1309 61.348 44.2429 61.25 44.3269 61.13C44.4149 61.006 44.4589 60.874 44.4589 60.734V60.074C44.4589 59.858 44.3889 59.706 44.2489 59.618C44.1089 59.526 43.9049 59.48 43.6369 59.48C43.4649 59.48 43.2909 59.504 43.1149 59.552C42.9389 59.596 42.7529 59.672 42.5569 59.78L42.3589 59.288C42.4989 59.212 42.6429 59.148 42.7909 59.096C42.9429 59.044 43.0989 59.006 43.2589 58.982C43.4229 58.954 43.5889 58.94 43.7569 58.94C44.0249 58.94 44.2609 58.982 44.4649 59.066C44.6729 59.15 44.8349 59.28 44.9509 59.456C45.0669 59.632 45.1249 59.862 45.1249 60.146V62H44.5609V61.376H44.5189C44.4549 61.496 44.3709 61.608 44.2669 61.712C44.1629 61.816 44.0369 61.9 43.8889 61.964C43.7449 62.024 43.5769 62.054 43.3849 62.054ZM46.1963 63.08V58.994H46.8023V59.612H46.8383C46.9383 59.392 47.0823 59.226 47.2703 59.114C47.4623 58.998 47.6823 58.94 47.9303 58.94C48.2143 58.94 48.4603 59.006 48.6683 59.138C48.8803 59.27 49.0423 59.452 49.1543 59.684C49.2663 59.916 49.3223 60.186 49.3223 60.494C49.3223 60.794 49.2663 61.062 49.1543 61.298C49.0463 61.534 48.8883 61.72 48.6803 61.856C48.4723 61.988 48.2243 62.054 47.9363 62.054C47.6923 62.054 47.4843 62 47.3123 61.892C47.1403 61.78 47.0083 61.632 46.9163 61.448H46.8803V63.08H46.1963ZM47.7623 61.508C48.0383 61.508 48.2543 61.416 48.4103 61.232C48.5663 61.048 48.6443 60.8 48.6443 60.488C48.6443 60.18 48.5663 59.936 48.4103 59.756C48.2583 59.576 48.0423 59.486 47.7623 59.486C47.4823 59.486 47.2643 59.576 47.1083 59.756C46.9523 59.936 46.8743 60.18 46.8743 60.488C46.8743 60.8 46.9523 61.048 47.1083 61.232C47.2683 61.416 47.4863 61.508 47.7623 61.508ZM51.5721 62.054C51.1801 62.054 50.8861 61.954 50.6901 61.754C50.4941 61.554 50.3961 61.268 50.3961 60.896V59.564H49.7901V59H50.4381V58.142H51.0741V59H52.1961V59.564H51.0741V60.86C51.0741 61.068 51.1241 61.222 51.2241 61.322C51.3281 61.422 51.4801 61.472 51.6801 61.472C51.7721 61.472 51.8601 61.464 51.9441 61.448C52.0281 61.432 52.1101 61.408 52.1901 61.376L52.2861 61.91C52.1861 61.962 52.0741 61.998 51.9501 62.018C51.8301 62.042 51.7041 62.054 51.5721 62.054ZM54.4943 62.054C54.1343 62.054 53.8243 61.994 53.5643 61.874C53.3083 61.75 53.1123 61.57 52.9763 61.334C52.8443 61.098 52.7783 60.818 52.7783 60.494C52.7783 60.198 52.8383 59.934 52.9583 59.702C53.0823 59.466 53.2603 59.28 53.4923 59.144C53.7243 59.008 54.0023 58.94 54.3263 58.94C54.6303 58.94 54.8903 59.004 55.1063 59.132C55.3223 59.26 55.4863 59.44 55.5983 59.672C55.7143 59.904 55.7723 60.182 55.7723 60.506V60.704H53.3003V60.254H55.2983L55.1903 60.38C55.1903 60.072 55.1143 59.84 54.9623 59.684C54.8143 59.528 54.6043 59.45 54.3323 59.45C54.1563 59.45 54.0003 59.488 53.8643 59.564C53.7283 59.636 53.6203 59.742 53.5403 59.882C53.4643 60.022 53.4263 60.196 53.4263 60.404V60.488C53.4263 60.72 53.4683 60.912 53.5523 61.064C53.6403 61.212 53.7663 61.324 53.9303 61.4C54.0943 61.472 54.2903 61.508 54.5183 61.508C54.6783 61.508 54.8423 61.49 55.0103 61.454C55.1823 61.414 55.3403 61.34 55.4843 61.232L55.6943 61.712C55.5303 61.836 55.3403 61.924 55.1243 61.976C54.9083 62.028 54.6983 62.054 54.4943 62.054ZM56.6787 62V59H57.2727V59.708H57.3087C57.3847 59.496 57.5107 59.322 57.6867 59.186C57.8667 59.05 58.0807 58.976 58.3287 58.964L58.6767 58.94L58.7427 59.576L58.2027 59.618C57.9387 59.642 57.7327 59.732 57.5847 59.888C57.4367 60.04 57.3627 60.224 57.3627 60.44V62H56.6787ZM59.3603 62V61.424H60.5723V58.298L60.9143 58.358L59.5883 59.198L59.2943 58.676L60.7403 57.77H61.2323V61.424H62.3363V62H59.3603Z" fill="#667085"/>
<defs>
<filter id="filter0_d_8310_792" x="0" y="0" width="96" height="85.8462" filterUnits="userSpaceOnUse" color-interpolation-filters="sRGB">
<feFlood flood-opacity="0" result="BackgroundImageFix"/>
<feColorMatrix in="SourceAlpha" type="matrix" values="0 0 0 0 0 0 0 0 0 0 0 0 0 0 0 0 0 0 127 0" result="hardAlpha"/>
<feOffset dy="4"/>
<feGaussianBlur stdDeviation="2"/>
<feComposite in2="hardAlpha" operator="out"/>
<feColorMatrix type="matrix" values="0 0 0 0 0 0 0 0 0 0 0 0 0 0 0 0 0 0 0.25 0"/>
<feBlend mode="normal" in2="BackgroundImageFix" result="effect1_dropShadow_8310_792"/>
<feBlend mode="normal" in="SourceGraphic" in2="effect1_dropShadow_8310_792" result="shape"/>
</filter>
<clipPath id="clip0_8310_792">
<rect width="30" height="30" fill="white" transform="translate(33 13)"/>
</clipPath>
</defs>
</svg>
