<svg width="100" height="86" viewBox="0 0 100 86" fill="none" xmlns="http://www.w3.org/2000/svg">
<g filter="url(#filter0_d_8310_1158)">
<path d="M5.43525 42.5206C4.64905 41.2109 4.25597 40.5556 4.10211 39.8593C3.96596 39.2431 3.96596 38.6067 4.10211 37.9905C4.25597 37.2942 4.64905 36.6389 5.43525 35.3292L24.4806 3.59573C25.2667 2.2858 25.6598 1.63084 26.2098 1.1545C26.6964 0.733034 27.2696 0.414632 27.8923 0.220013C28.5961 -2.00927e-07 29.3823 0 30.9547 0H69.0452C70.6178 0 71.4037 -2.00927e-07 72.1078 0.220013C72.7302 0.414632 73.3035 0.733034 73.7903 1.1545C74.3402 1.63084 74.7332 2.2858 75.5195 3.59573L94.5647 35.3292C95.351 36.6389 95.744 37.2942 95.8977 37.9905C96.0341 38.6067 96.0341 39.2431 95.8977 39.8593C95.744 40.5556 95.351 41.2109 94.5647 42.5206L75.5195 74.2543C74.7332 75.564 74.3402 76.2189 73.7903 76.6953C73.3035 77.1169 72.7302 77.4351 72.1078 77.6298C71.4037 77.85 70.6178 77.85 69.0452 77.85H30.9547C29.3823 77.85 28.5961 77.85 27.8923 77.6298C27.2696 77.4351 26.6964 77.1169 26.2098 76.6953C25.6598 76.2189 25.2667 75.564 24.4806 74.2543L5.43525 42.5206Z" fill="white"/>
</g>
<path d="M60.3334 43.4583H41.5834C41.5834 43.4583 39.7084 43.3958 39.7084 38.4583H62.2084C62.2084 43.3958 60.3334 43.4583 60.3334 43.4583Z" fill="#E08838"/>
<path d="M60.9584 17.2083H40.9584V38.4583H60.9584V17.2083Z" fill="#F2BB41"/>
<path d="M57.2084 24.7083H47.2084V25.9583H57.2084V24.7083Z" fill="#E08838"/>
<path d="M57.2084 27.2083H47.2084V28.4583H57.2084V27.2083Z" fill="#E08838"/>
<path d="M57.2084 29.7083H47.2084V30.9583H57.2084V29.7083Z" fill="#E08838"/>
<path d="M57.2084 32.2083H47.2084V33.4583H57.2084V32.2083Z" fill="#E08838"/>
<path d="M57.2084 34.7083H47.2084V35.9583H57.2084V34.7083Z" fill="#E08838"/>
<path d="M45.9584 24.7083H44.7084V25.9583H45.9584V24.7083Z" fill="#E08838"/>
<path d="M45.9584 27.2083H44.7084V28.4583H45.9584V27.2083Z" fill="#E08838"/>
<path d="M45.9584 29.7083H44.7084V30.9583H45.9584V29.7083Z" fill="#E08838"/>
<path d="M45.9584 32.2083H44.7084V33.4583H45.9584V32.2083Z" fill="#E08838"/>
<path d="M45.9584 34.7083H44.7084V35.9583H45.9584V34.7083Z" fill="#E08838"/>
<path d="M19.3871 54.3333V48.6933H23.1231V49.4373H20.2671V51.1493H22.9631V51.8933H20.2671V54.3333H19.3871ZM25.7857 54.4053C25.375 54.4053 25.0177 54.3199 24.7137 54.1493C24.4097 53.9786 24.175 53.7386 24.0097 53.4293C23.8443 53.1199 23.7617 52.7573 23.7617 52.3413C23.7617 51.9253 23.8443 51.5653 24.0097 51.2613C24.175 50.9519 24.4097 50.7119 24.7137 50.5413C25.0177 50.3706 25.375 50.2853 25.7857 50.2853C26.2017 50.2853 26.559 50.3706 26.8577 50.5413C27.1563 50.7119 27.3883 50.9519 27.5537 51.2613C27.719 51.5706 27.8017 51.9306 27.8017 52.3413C27.8017 52.7573 27.719 53.1199 27.5537 53.4293C27.3937 53.7386 27.1617 53.9786 26.8577 54.1493C26.559 54.3199 26.2017 54.4053 25.7857 54.4053ZM25.7857 53.6853C26.143 53.6853 26.423 53.5653 26.6257 53.3253C26.8337 53.0853 26.9377 52.7573 26.9377 52.3413C26.9377 51.9253 26.8337 51.5999 26.6257 51.3653C26.423 51.1306 26.143 51.0133 25.7857 51.0133C25.423 51.0133 25.1377 51.1306 24.9297 51.3653C24.727 51.5999 24.6257 51.9253 24.6257 52.3413C24.6257 52.7573 24.7297 53.0853 24.9377 53.3253C25.1457 53.5653 25.4283 53.6853 25.7857 53.6853ZM30.1955 54.4053C29.7795 54.4053 29.4622 54.2906 29.2435 54.0613C29.0249 53.8266 28.9155 53.4959 28.9155 53.0693V48.6933H29.7875V52.9893C29.7875 53.1439 29.8089 53.2746 29.8515 53.3813C29.8995 53.4879 29.9662 53.5679 30.0515 53.6213C30.1369 53.6746 30.2409 53.7013 30.3635 53.7013C30.4435 53.7013 30.5182 53.6986 30.5875 53.6933C30.6569 53.6826 30.7289 53.6666 30.8035 53.6453L30.8355 54.3093C30.7342 54.3466 30.6329 54.3706 30.5315 54.3813C30.4355 54.3973 30.3235 54.4053 30.1955 54.4053ZM32.8752 54.4053C32.4592 54.4053 32.1419 54.2906 31.9232 54.0613C31.7046 53.8266 31.5952 53.4959 31.5952 53.0693V48.6933H32.4672V52.9893C32.4672 53.1439 32.4886 53.2746 32.5312 53.3813C32.5792 53.4879 32.6459 53.5679 32.7312 53.6213C32.8166 53.6746 32.9206 53.7013 33.0432 53.7013C33.1232 53.7013 33.1979 53.6986 33.2672 53.6933C33.3366 53.6826 33.4086 53.6666 33.4832 53.6453L33.5152 54.3093C33.4139 54.3466 33.3126 54.3706 33.2112 54.3813C33.1152 54.3973 33.0032 54.4053 32.8752 54.4053ZM36.0278 54.4053C35.6172 54.4053 35.2598 54.3199 34.9558 54.1493C34.6518 53.9786 34.4172 53.7386 34.2518 53.4293C34.0865 53.1199 34.0038 52.7573 34.0038 52.3413C34.0038 51.9253 34.0865 51.5653 34.2518 51.2613C34.4172 50.9519 34.6518 50.7119 34.9558 50.5413C35.2598 50.3706 35.6172 50.2853 36.0278 50.2853C36.4438 50.2853 36.8012 50.3706 37.0998 50.5413C37.3985 50.7119 37.6305 50.9519 37.7958 51.2613C37.9612 51.5706 38.0438 51.9306 38.0438 52.3413C38.0438 52.7573 37.9612 53.1199 37.7958 53.4293C37.6358 53.7386 37.4038 53.9786 37.0998 54.1493C36.8012 54.3199 36.4438 54.4053 36.0278 54.4053ZM36.0278 53.6853C36.3852 53.6853 36.6652 53.5653 36.8678 53.3253C37.0758 53.0853 37.1798 52.7573 37.1798 52.3413C37.1798 51.9253 37.0758 51.5999 36.8678 51.3653C36.6652 51.1306 36.3852 51.0133 36.0278 51.0133C35.6652 51.0133 35.3798 51.1306 35.1718 51.3653C34.9692 51.5999 34.8678 51.9253 34.8678 52.3413C34.8678 52.7573 34.9718 53.0853 35.1798 53.3253C35.3878 53.5653 35.6705 53.6853 36.0278 53.6853ZM39.9914 54.3333L38.5914 50.3653H39.4714L40.4554 53.4213H40.4234L41.5354 50.3653H42.2314L43.3274 53.4213H43.2954L44.2954 50.3653H45.1514L43.7514 54.3333H42.9754L41.8234 51.2213H41.9274L40.7674 54.3333H39.9914ZM50.0663 54.4053C49.5543 54.4053 49.1703 54.2746 48.9143 54.0133C48.6637 53.7519 48.5383 53.3759 48.5383 52.8853V51.0773H47.7463V50.3653H48.5703V49.2133H49.4103V50.3653H50.8103V51.0773H49.4103V52.8293C49.4103 53.1119 49.4743 53.3226 49.6023 53.4613C49.7357 53.5946 49.9357 53.6613 50.2023 53.6613C50.309 53.6613 50.413 53.6506 50.5143 53.6293C50.621 53.6079 50.7223 53.5813 50.8183 53.5493L50.9463 54.2213C50.829 54.2853 50.693 54.3306 50.5383 54.3573C50.3837 54.3893 50.2263 54.4053 50.0663 54.4053ZM51.7358 54.3333V48.6933H52.5758V51.1733C52.6985 50.9013 52.8825 50.6853 53.1278 50.5253C53.3785 50.3653 53.6638 50.2853 53.9838 50.2853C54.3092 50.2853 54.5812 50.3466 54.7998 50.4693C55.0185 50.5866 55.1838 50.7679 55.2958 51.0133C55.4078 51.2533 55.4638 51.5599 55.4638 51.9333V54.3333H54.5838V51.9733C54.5838 51.7706 54.5545 51.5999 54.4958 51.4613C54.4425 51.3173 54.3545 51.2079 54.2318 51.1333C54.1092 51.0586 53.9465 51.0213 53.7438 51.0213C53.5252 51.0213 53.3305 51.0719 53.1598 51.1733C52.9892 51.2693 52.8532 51.4026 52.7518 51.5733C52.6558 51.7386 52.6078 51.9253 52.6078 52.1333V54.3333H51.7358ZM58.7745 54.4053C58.3105 54.4053 57.9132 54.3253 57.5825 54.1653C57.2519 53.9999 56.9985 53.7626 56.8225 53.4533C56.6465 53.1439 56.5585 52.7759 56.5585 52.3493C56.5585 51.9493 56.6385 51.5946 56.7985 51.2853C56.9639 50.9759 57.1985 50.7333 57.5025 50.5573C57.8065 50.3759 58.1639 50.2853 58.5745 50.2853C58.9639 50.2853 59.2972 50.3679 59.5745 50.5333C59.8519 50.6986 60.0652 50.9333 60.2145 51.2373C60.3639 51.5413 60.4385 51.9039 60.4385 52.3253V52.5973H57.2385V52.0293H59.8385L59.6945 52.1733C59.6945 51.7679 59.5985 51.4613 59.4065 51.2533C59.2145 51.0399 58.9425 50.9333 58.5905 50.9333C58.3505 50.9333 58.1399 50.9866 57.9585 51.0933C57.7825 51.1946 57.6439 51.3439 57.5425 51.5413C57.4412 51.7333 57.3905 51.9679 57.3905 52.2453V52.3333C57.3905 52.6426 57.4439 52.8986 57.5505 53.1013C57.6625 53.3039 57.8225 53.4559 58.0305 53.5573C58.2439 53.6586 58.4999 53.7093 58.7985 53.7093C59.0172 53.7093 59.2359 53.6826 59.4545 53.6293C59.6785 53.5706 59.8865 53.4666 60.0785 53.3173L60.3505 53.9253C60.1425 54.0906 59.8972 54.2133 59.6145 54.2933C59.3319 54.3679 59.0519 54.4053 58.7745 54.4053ZM63.8218 54.3333V50.3653H64.6058V51.3093H64.6138C64.7098 51.0106 64.8724 50.7759 65.1018 50.6053C65.3364 50.4293 65.6244 50.3306 65.9658 50.3093L66.3658 50.2773L66.4458 51.0773L65.8058 51.1333C65.4538 51.1599 65.1818 51.2746 64.9898 51.4773C64.7978 51.6746 64.7018 51.9226 64.7018 52.2213V54.3333H63.8218ZM68.7709 54.4053C68.4402 54.4053 68.1629 54.3466 67.9389 54.2293C67.7149 54.1066 67.5442 53.9253 67.4269 53.6853C67.3149 53.4453 67.2589 53.1439 67.2589 52.7813V50.3653H68.1389V52.7493C68.1389 52.9359 68.1656 53.1013 68.2189 53.2453C68.2776 53.3839 68.3682 53.4906 68.4909 53.5653C68.6189 53.6399 68.7842 53.6773 68.9869 53.6773C69.1896 53.6773 69.3736 53.6293 69.5389 53.5333C69.7042 53.4319 69.8349 53.2986 69.9309 53.1333C70.0269 52.9626 70.0749 52.7786 70.0749 52.5813V50.3653H70.9469V54.3333H70.1389V53.4853H70.1469C70.0136 53.7733 69.8296 53.9999 69.5949 54.1653C69.3656 54.3253 69.0909 54.4053 68.7709 54.4053ZM73.5705 54.4053C73.1545 54.4053 72.8372 54.2906 72.6185 54.0613C72.3999 53.8266 72.2905 53.4959 72.2905 53.0693V48.6933H73.1625V52.9893C73.1625 53.1439 73.1839 53.2746 73.2265 53.3813C73.2745 53.4879 73.3412 53.5679 73.4265 53.6213C73.5119 53.6746 73.6159 53.7013 73.7385 53.7013C73.8185 53.7013 73.8932 53.6986 73.9625 53.6933C74.0319 53.6826 74.1039 53.6666 74.1785 53.6453L74.2105 54.3093C74.1092 54.3466 74.0079 54.3706 73.9065 54.3813C73.8105 54.3973 73.6985 54.4053 73.5705 54.4053ZM76.9152 54.4053C76.4512 54.4053 76.0538 54.3253 75.7232 54.1653C75.3925 53.9999 75.1392 53.7626 74.9632 53.4533C74.7872 53.1439 74.6992 52.7759 74.6992 52.3493C74.6992 51.9493 74.7792 51.5946 74.9392 51.2853C75.1045 50.9759 75.3392 50.7333 75.6432 50.5573C75.9472 50.3759 76.3045 50.2853 76.7152 50.2853C77.1045 50.2853 77.4378 50.3679 77.7152 50.5333C77.9925 50.6986 78.2058 50.9333 78.3552 51.2373C78.5045 51.5413 78.5792 51.9039 78.5792 52.3253V52.5973H75.3792V52.0293H77.9792L77.8352 52.1733C77.8352 51.7679 77.7392 51.4613 77.5472 51.2533C77.3552 51.0399 77.0832 50.9333 76.7312 50.9333C76.4912 50.9333 76.2805 50.9866 76.0992 51.0933C75.9232 51.1946 75.7845 51.3439 75.6832 51.5413C75.5818 51.7333 75.5312 51.9679 75.5312 52.2453V52.3333C75.5312 52.6426 75.5845 52.8986 75.6912 53.1013C75.8032 53.3039 75.9632 53.4559 76.1712 53.5573C76.3845 53.6586 76.6405 53.7093 76.9392 53.7093C77.1578 53.7093 77.3765 53.6826 77.5952 53.6293C77.8192 53.5706 78.0272 53.4666 78.2192 53.3173L78.4912 53.9253C78.2832 54.0906 78.0378 54.2133 77.7552 54.2933C77.4725 54.3679 77.1925 54.4053 76.9152 54.4053ZM81.1773 54.4053C80.948 54.4053 80.724 54.3866 80.5053 54.3493C80.292 54.3119 80.0947 54.2613 79.9133 54.1973C79.732 54.1279 79.5773 54.0399 79.4493 53.9333L79.6973 53.3173C79.836 53.4186 79.988 53.5013 80.1533 53.5653C80.3187 53.6239 80.4867 53.6666 80.6573 53.6933C80.828 53.7199 80.996 53.7333 81.1613 53.7333C81.4707 53.7333 81.708 53.6906 81.8733 53.6053C82.044 53.5199 82.1293 53.3946 82.1293 53.2293C82.1293 53.0906 82.0813 52.9866 81.9853 52.9173C81.8893 52.8426 81.732 52.7866 81.5133 52.7493L80.6653 52.6133C80.292 52.5493 80.012 52.4213 79.8253 52.2293C79.6387 52.0373 79.5453 51.7973 79.5453 51.5093C79.5453 51.2639 79.612 51.0506 79.7453 50.8693C79.8787 50.6879 80.0733 50.5466 80.3293 50.4453C80.5853 50.3386 80.8947 50.2853 81.2573 50.2853C81.4547 50.2853 81.652 50.3039 81.8493 50.3413C82.0467 50.3786 82.228 50.4319 82.3933 50.5013C82.564 50.5706 82.7053 50.6559 82.8173 50.7573L82.5533 51.3653C82.4413 51.2693 82.3133 51.1919 82.1693 51.1333C82.0253 51.0746 81.8733 51.0319 81.7133 51.0053C81.5587 50.9786 81.4067 50.9653 81.2573 50.9653C80.9587 50.9653 80.7293 51.0106 80.5693 51.1013C80.4147 51.1919 80.3373 51.3173 80.3373 51.4773C80.3373 51.6159 80.3827 51.7226 80.4733 51.7973C80.564 51.8666 80.708 51.9199 80.9053 51.9573L81.7293 52.1013C82.1347 52.1706 82.4333 52.2959 82.6253 52.4773C82.8173 52.6586 82.9133 52.9013 82.9133 53.2053C82.9133 53.4506 82.8413 53.6639 82.6973 53.8453C82.5587 54.0266 82.3587 54.1653 82.0973 54.2613C81.836 54.3573 81.5293 54.4053 81.1773 54.4053Z" fill="black"/>
<path d="M38.9584 64.3933C38.5504 64.3933 38.1924 64.3073 37.8844 64.1353C37.5804 63.9593 37.3444 63.7093 37.1764 63.3853C37.0084 63.0573 36.9244 62.6673 36.9244 62.2153C36.9244 61.7633 37.0084 61.3753 37.1764 61.0513C37.3444 60.7273 37.5804 60.4793 37.8844 60.3073C38.1884 60.1353 38.5464 60.0493 38.9584 60.0493C39.2544 60.0493 39.5244 60.0913 39.7684 60.1753C40.0124 60.2553 40.2204 60.3793 40.3924 60.5473L40.1524 61.0753C39.9684 60.9233 39.7824 60.8153 39.5944 60.7513C39.4064 60.6833 39.2004 60.6493 38.9764 60.6493C38.5644 60.6493 38.2364 60.7813 37.9924 61.0453C37.7484 61.3093 37.6264 61.6973 37.6264 62.2093C37.6264 62.7293 37.7464 63.1233 37.9864 63.3913C38.2304 63.6553 38.5604 63.7873 38.9764 63.7873C39.2004 63.7873 39.4064 63.7553 39.5944 63.6913C39.7824 63.6233 39.9684 63.5133 40.1524 63.3613L40.3924 63.8893C40.2204 64.0573 40.0124 64.1833 39.7684 64.2673C39.5244 64.3513 39.2544 64.3933 38.9584 64.3933ZM41.3323 64.3333V60.1033H41.9803V61.9273H42.0163C42.1123 61.7313 42.2523 61.5733 42.4363 61.4533C42.6243 61.3333 42.8363 61.2733 43.0723 61.2733C43.3243 61.2733 43.5343 61.3193 43.7023 61.4113C43.8743 61.5033 44.0023 61.6433 44.0863 61.8313C44.1743 62.0153 44.2183 62.2493 44.2183 62.5333V64.3333H43.5343V62.5633C43.5343 62.4193 43.5123 62.2953 43.4683 62.1913C43.4283 62.0833 43.3603 62.0013 43.2643 61.9453C43.1723 61.8853 43.0483 61.8553 42.8923 61.8553C42.7243 61.8553 42.5743 61.8933 42.4423 61.9693C42.3103 62.0453 42.2063 62.1473 42.1303 62.2753C42.0543 62.3993 42.0163 62.5373 42.0163 62.6893V64.3333H41.3323ZM46.3433 64.3873C46.1233 64.3873 45.9253 64.3473 45.7493 64.2673C45.5773 64.1873 45.4413 64.0773 45.3413 63.9373C45.2413 63.7973 45.1913 63.6413 45.1913 63.4693C45.1913 63.2413 45.2593 63.0593 45.3953 62.9233C45.5313 62.7833 45.7353 62.6833 46.0073 62.6233C46.2793 62.5593 46.6213 62.5273 47.0333 62.5273H47.5193V62.9713H47.0753C46.8673 62.9713 46.6873 62.9793 46.5353 62.9953C46.3873 63.0073 46.2633 63.0293 46.1633 63.0613C46.0633 63.0933 45.9873 63.1393 45.9353 63.1993C45.8873 63.2593 45.8633 63.3353 45.8633 63.4273C45.8633 63.5793 45.9233 63.6913 46.0433 63.7633C46.1633 63.8353 46.3153 63.8713 46.4993 63.8713C46.6633 63.8713 46.8133 63.8333 46.9493 63.7573C47.0893 63.6813 47.2013 63.5833 47.2853 63.4633C47.3733 63.3393 47.4173 63.2073 47.4173 63.0673V62.4073C47.4173 62.1913 47.3473 62.0393 47.2073 61.9513C47.0673 61.8593 46.8633 61.8133 46.5953 61.8133C46.4233 61.8133 46.2493 61.8373 46.0733 61.8853C45.8973 61.9293 45.7113 62.0053 45.5153 62.1133L45.3173 61.6213C45.4573 61.5453 45.6013 61.4813 45.7493 61.4293C45.9013 61.3773 46.0573 61.3393 46.2173 61.3153C46.3813 61.2873 46.5473 61.2733 46.7153 61.2733C46.9833 61.2733 47.2193 61.3153 47.4233 61.3993C47.6313 61.4833 47.7933 61.6133 47.9093 61.7893C48.0253 61.9653 48.0833 62.1953 48.0833 62.4793V64.3333H47.5193V63.7093H47.4773C47.4133 63.8293 47.3293 63.9413 47.2253 64.0453C47.1213 64.1493 46.9953 64.2333 46.8473 64.2973C46.7033 64.3573 46.5353 64.3873 46.3433 64.3873ZM49.1546 65.4133V61.3273H49.7606V61.9453H49.7966C49.8966 61.7253 50.0406 61.5593 50.2286 61.4473C50.4206 61.3313 50.6406 61.2733 50.8886 61.2733C51.1726 61.2733 51.4186 61.3393 51.6266 61.4713C51.8386 61.6033 52.0006 61.7853 52.1126 62.0173C52.2246 62.2493 52.2806 62.5193 52.2806 62.8273C52.2806 63.1273 52.2246 63.3953 52.1126 63.6313C52.0046 63.8673 51.8466 64.0533 51.6386 64.1893C51.4306 64.3213 51.1826 64.3873 50.8946 64.3873C50.6506 64.3873 50.4426 64.3333 50.2706 64.2253C50.0986 64.1133 49.9666 63.9653 49.8746 63.7813H49.8386V65.4133H49.1546ZM50.7206 63.8413C50.9966 63.8413 51.2126 63.7493 51.3686 63.5653C51.5246 63.3813 51.6026 63.1333 51.6026 62.8213C51.6026 62.5133 51.5246 62.2693 51.3686 62.0893C51.2166 61.9093 51.0006 61.8193 50.7206 61.8193C50.4406 61.8193 50.2226 61.9093 50.0666 62.0893C49.9106 62.2693 49.8326 62.5133 49.8326 62.8213C49.8326 63.1333 49.9106 63.3813 50.0666 63.5653C50.2266 63.7493 50.4446 63.8413 50.7206 63.8413ZM54.5304 64.3873C54.1384 64.3873 53.8444 64.2873 53.6484 64.0873C53.4524 63.8873 53.3544 63.6013 53.3544 63.2293V61.8973H52.7484V61.3333H53.3964V60.4753H54.0324V61.3333H55.1544V61.8973H54.0324V63.1933C54.0324 63.4013 54.0824 63.5553 54.1824 63.6553C54.2864 63.7553 54.4384 63.8053 54.6384 63.8053C54.7304 63.8053 54.8184 63.7973 54.9024 63.7813C54.9864 63.7653 55.0684 63.7413 55.1484 63.7093L55.2444 64.2433C55.1444 64.2953 55.0324 64.3313 54.9084 64.3513C54.7884 64.3753 54.6624 64.3873 54.5304 64.3873ZM57.4526 64.3873C57.0926 64.3873 56.7826 64.3273 56.5226 64.2073C56.2666 64.0833 56.0706 63.9033 55.9346 63.6673C55.8026 63.4313 55.7366 63.1513 55.7366 62.8273C55.7366 62.5313 55.7966 62.2673 55.9166 62.0353C56.0406 61.7993 56.2186 61.6133 56.4506 61.4773C56.6826 61.3413 56.9606 61.2733 57.2846 61.2733C57.5886 61.2733 57.8486 61.3373 58.0646 61.4653C58.2806 61.5933 58.4446 61.7733 58.5566 62.0053C58.6726 62.2373 58.7306 62.5153 58.7306 62.8393V63.0373H56.2586V62.5873H58.2566L58.1486 62.7133C58.1486 62.4053 58.0726 62.1733 57.9206 62.0173C57.7726 61.8613 57.5626 61.7833 57.2906 61.7833C57.1146 61.7833 56.9586 61.8213 56.8226 61.8973C56.6866 61.9693 56.5786 62.0753 56.4986 62.2153C56.4226 62.3553 56.3846 62.5293 56.3846 62.7373V62.8213C56.3846 63.0533 56.4266 63.2453 56.5106 63.3973C56.5986 63.5453 56.7246 63.6573 56.8886 63.7333C57.0526 63.8053 57.2486 63.8413 57.4766 63.8413C57.6366 63.8413 57.8006 63.8233 57.9686 63.7873C58.1406 63.7473 58.2986 63.6733 58.4426 63.5653L58.6526 64.0453C58.4886 64.1693 58.2986 64.2573 58.0826 64.3093C57.8666 64.3613 57.6566 64.3873 57.4526 64.3873ZM59.637 64.3333V61.3333H60.231V62.0413H60.267C60.343 61.8293 60.469 61.6553 60.645 61.5193C60.825 61.3833 61.039 61.3093 61.287 61.2973L61.635 61.2733L61.701 61.9093L61.161 61.9513C60.897 61.9753 60.691 62.0653 60.543 62.2213C60.395 62.3733 60.321 62.5573 60.321 62.7733V64.3333H59.637ZM62.4566 64.3333L64.5146 60.3973L64.5506 60.7033H62.2106V60.1033H65.1146V60.6133L63.1886 64.3333H62.4566Z" fill="#667085"/>
<defs>
<filter id="filter0_d_8310_1158" x="0" y="0" width="100" height="85.8501" filterUnits="userSpaceOnUse" color-interpolation-filters="sRGB">
<feFlood flood-opacity="0" result="BackgroundImageFix"/>
<feColorMatrix in="SourceAlpha" type="matrix" values="0 0 0 0 0 0 0 0 0 0 0 0 0 0 0 0 0 0 127 0" result="hardAlpha"/>
<feOffset dy="4"/>
<feGaussianBlur stdDeviation="2"/>
<feComposite in2="hardAlpha" operator="out"/>
<feColorMatrix type="matrix" values="0 0 0 0 0 0 0 0 0 0 0 0 0 0 0 0 0 0 0.25 0"/>
<feBlend mode="normal" in2="BackgroundImageFix" result="effect1_dropShadow_8310_1158"/>
<feBlend mode="normal" in="SourceGraphic" in2="effect1_dropShadow_8310_1158" result="shape"/>
</filter>
</defs>
</svg>
