<svg width="96" height="86" viewBox="0 0 96 86" fill="none" xmlns="http://www.w3.org/2000/svg">
<g filter="url(#filter0_d_8339_572)">
<path d="M5.37285 42.5205C4.62083 41.2108 4.24484 40.5555 4.09767 39.8593C3.96744 39.2431 3.96744 38.6067 4.09767 37.9905C4.24484 37.2944 4.62083 36.6391 5.37285 35.3294L23.5901 3.5975C24.3421 2.28764 24.7181 1.63271 25.2442 1.15639C25.7096 0.734951 26.2579 0.416565 26.8535 0.221956C27.5267 0.00195292 28.2787 0.00195312 29.7827 0.00195312H66.2171C67.7214 0.00195312 68.4731 0.00195292 69.1466 0.221956C69.7419 0.416565 70.2903 0.734951 70.756 1.15639C71.282 1.63271 71.6578 2.28764 72.41 3.5975L90.6271 35.3294C91.3792 36.6391 91.7551 37.2944 91.9021 37.9905C92.0326 38.6067 92.0326 39.2431 91.9021 39.8593C91.7551 40.5555 91.3792 41.2108 90.6271 42.5205L72.41 74.2526C71.6578 75.5622 71.282 76.2171 70.756 76.6935C70.2903 77.1151 69.7419 77.4333 69.1466 77.6279C68.4731 77.8481 67.7214 77.8481 66.2171 77.8481H29.7827C28.2787 77.8481 27.5267 77.8481 26.8535 77.6279C26.2579 77.4333 25.7096 77.1151 25.2442 76.6935C24.7181 76.2171 24.3421 75.5622 23.5901 74.2526L5.37285 42.5205Z" fill="white"/>
</g>
<g clip-path="url(#clip0_8339_572)">
<path d="M55.4134 18.7363C54.6686 15.3762 53.9238 12.0161 53.1786 8.65601C51.921 8.65601 50.6635 8.65601 49.4061 8.65601C49.5858 12.0161 49.7658 15.3763 49.9456 18.7363H55.4134Z" fill="#F2BB41"/>
<path d="M50.2325 24.1003C50.4691 28.5163 50.7054 32.932 50.9416 37.3479C53.8072 37.3479 56.6728 37.3479 59.5384 37.3479C58.5594 32.9321 57.5809 28.5163 56.6024 24.1003H50.2325Z" fill="#F2BB41"/>
<path d="M47.0039 8.65601C45.7464 8.65601 44.4888 8.65601 43.2315 8.65601C42.4866 12.0161 41.7422 15.3762 40.9974 18.7363H46.4649C46.6444 15.3762 46.824 12.0161 47.0039 8.65601Z" fill="#F2BB41"/>
<path d="M36.8717 37.3479C39.7375 37.3479 42.6029 37.3479 45.4685 37.3479C45.7056 32.9321 45.9419 28.5163 46.1778 24.1003H39.8087C38.83 28.5163 37.8512 32.9322 36.8717 37.3479Z" fill="#F2BB41"/>
<path d="M62.8569 20.1292H33.5532C33.3609 20.1292 33.2051 20.285 33.2051 20.4773V22.3594C33.2051 22.5517 33.3609 22.7076 33.5532 22.7076H35.4374V25.5267C35.4374 25.7189 35.5932 25.8749 35.7855 25.8749H37.6658C37.8251 25.8749 37.964 25.7667 38.0031 25.6125L38.7417 22.7077H57.6684L58.4068 25.6125C58.4459 25.7669 58.585 25.8749 58.7443 25.8749H60.6243C60.8168 25.8749 60.9725 25.7189 60.9725 25.5267V22.7076H62.8568C63.0491 22.7076 63.205 22.5517 63.205 22.3594V20.4773C63.2051 20.285 63.0491 20.1292 62.8569 20.1292Z" fill="#F2BB41"/>
</g>
<path d="M22.8526 47.002V41.362H23.7326V43.762H26.8206V41.362H27.7006V47.002H26.8206V44.522H23.7326V47.002H22.8526ZM29.0743 42.154V41.234H30.1063V42.154H29.0743ZM29.1623 47.002V43.034H30.0343V47.002H29.1623ZM33.141 48.514C32.821 48.514 32.5037 48.4686 32.189 48.378C31.8744 48.2926 31.605 48.17 31.381 48.01L31.637 47.346C31.781 47.4366 31.9357 47.5166 32.101 47.586C32.2664 47.6553 32.4344 47.706 32.605 47.738C32.781 47.7753 32.949 47.794 33.109 47.794C33.5197 47.794 33.8344 47.6953 34.053 47.498C34.277 47.306 34.389 47.026 34.389 46.658V46.002H34.373C34.2717 46.258 34.0984 46.4686 33.853 46.634C33.6077 46.794 33.3224 46.874 32.997 46.874C32.629 46.874 32.3064 46.794 32.029 46.634C31.7517 46.4686 31.5357 46.2393 31.381 45.946C31.2264 45.6526 31.149 45.3086 31.149 44.914C31.149 44.5246 31.2264 44.1833 31.381 43.89C31.5357 43.5913 31.7517 43.362 32.029 43.202C32.3064 43.0366 32.629 42.954 32.997 42.954C33.3277 42.954 33.6157 43.0366 33.861 43.202C34.1064 43.3673 34.2797 43.5886 34.381 43.866H34.389V43.034H35.213V46.586C35.213 46.986 35.1304 47.33 34.965 47.618C34.7997 47.906 34.5624 48.1273 34.253 48.282C33.9437 48.4366 33.573 48.514 33.141 48.514ZM33.189 46.178C33.5464 46.178 33.829 46.0633 34.037 45.834C34.245 45.6046 34.349 45.298 34.349 44.914C34.349 44.5246 34.245 44.218 34.037 43.994C33.829 43.7646 33.5464 43.65 33.189 43.65C32.8317 43.65 32.5464 43.7646 32.333 43.994C32.125 44.218 32.021 44.5246 32.021 44.914C32.021 45.298 32.125 45.6046 32.333 45.834C32.5464 46.0633 32.8317 46.178 33.189 46.178ZM36.5529 47.002V41.362H37.3929V43.842C37.5156 43.57 37.6996 43.354 37.9449 43.194C38.1956 43.034 38.4809 42.954 38.8009 42.954C39.1262 42.954 39.3982 43.0153 39.6169 43.138C39.8356 43.2553 40.0009 43.4366 40.1129 43.682C40.2249 43.922 40.2809 44.2286 40.2809 44.602V47.002H39.4009V44.642C39.4009 44.4393 39.3716 44.2686 39.3129 44.13C39.2596 43.986 39.1716 43.8766 39.0489 43.802C38.9262 43.7273 38.7636 43.69 38.5609 43.69C38.3422 43.69 38.1476 43.7406 37.9769 43.842C37.8062 43.938 37.6702 44.0713 37.5689 44.242C37.4729 44.4073 37.4249 44.594 37.4249 44.802V47.002H36.5529ZM42.4725 47.002L41.0725 43.034H41.9525L42.9365 46.09H42.9045L44.0165 43.034H44.7125L45.8085 46.09H45.7765L46.7765 43.034H47.6325L46.2325 47.002H45.4565L44.3045 43.89H44.4085L43.2485 47.002H42.4725ZM49.7643 47.074C49.4763 47.074 49.2176 47.0206 48.9883 46.914C48.7643 46.8073 48.5856 46.6633 48.4523 46.482C48.3243 46.2953 48.2603 46.0846 48.2603 45.85C48.2603 45.5566 48.3456 45.322 48.5163 45.146C48.687 44.9646 48.9483 44.834 49.3003 44.754C49.6576 44.674 50.1136 44.634 50.6683 44.634H51.2283V45.194H50.7083C50.431 45.194 50.191 45.2046 49.9883 45.226C49.791 45.242 49.6283 45.274 49.5003 45.322C49.3723 45.3646 49.2763 45.426 49.2123 45.506C49.1536 45.5806 49.1243 45.6793 49.1243 45.802C49.1243 46.0046 49.199 46.1593 49.3483 46.266C49.503 46.3726 49.703 46.426 49.9483 46.426C50.1616 46.426 50.3536 46.378 50.5243 46.282C50.7003 46.1806 50.839 46.05 50.9403 45.89C51.047 45.7246 51.1003 45.5433 51.1003 45.346V44.458C51.1003 44.1646 51.015 43.9566 50.8443 43.834C50.679 43.706 50.431 43.642 50.1003 43.642C49.871 43.642 49.639 43.674 49.4043 43.738C49.175 43.802 48.935 43.906 48.6843 44.05L48.4283 43.426C48.5936 43.3246 48.7723 43.2393 48.9643 43.17C49.1616 43.1006 49.367 43.0473 49.5803 43.01C49.7936 42.9726 50.0043 42.954 50.2123 42.954C50.5696 42.954 50.879 43.01 51.1403 43.122C51.4016 43.234 51.6016 43.4073 51.7403 43.642C51.879 43.8713 51.9483 44.1726 51.9483 44.546V47.002H51.1963V46.154H51.1883C51.1136 46.3246 51.0096 46.482 50.8763 46.626C50.7483 46.7646 50.591 46.874 50.4043 46.954C50.2176 47.034 50.0043 47.074 49.7643 47.074ZM53.6884 48.442L54.4724 46.682V47.298L52.6724 43.034H53.6084L54.8084 46.146H54.7684L55.9684 43.034H56.8724L54.6004 48.442H53.6884ZM61.2799 47.074C60.9919 47.074 60.7332 47.0206 60.5039 46.914C60.2799 46.8073 60.1012 46.6633 59.9679 46.482C59.8399 46.2953 59.7759 46.0846 59.7759 45.85C59.7759 45.5566 59.8612 45.322 60.0319 45.146C60.2026 44.9646 60.4639 44.834 60.8159 44.754C61.1732 44.674 61.6292 44.634 62.1839 44.634H62.7439V45.194H62.2239C61.9466 45.194 61.7066 45.2046 61.5039 45.226C61.3066 45.242 61.1439 45.274 61.0159 45.322C60.8879 45.3646 60.7919 45.426 60.7279 45.506C60.6692 45.5806 60.6399 45.6793 60.6399 45.802C60.6399 46.0046 60.7146 46.1593 60.8639 46.266C61.0186 46.3726 61.2186 46.426 61.4639 46.426C61.6772 46.426 61.8692 46.378 62.0399 46.282C62.2159 46.1806 62.3546 46.05 62.4559 45.89C62.5626 45.7246 62.6159 45.5433 62.6159 45.346V44.458C62.6159 44.1646 62.5306 43.9566 62.3599 43.834C62.1946 43.706 61.9466 43.642 61.6159 43.642C61.3866 43.642 61.1546 43.674 60.9199 43.738C60.6906 43.802 60.4506 43.906 60.1999 44.05L59.9439 43.426C60.1092 43.3246 60.2879 43.2393 60.4799 43.17C60.6772 43.1006 60.8826 43.0473 61.0959 43.01C61.3092 42.9726 61.5199 42.954 61.7279 42.954C62.0852 42.954 62.3946 43.01 62.6559 43.122C62.9172 43.234 63.1172 43.4073 63.2559 43.642C63.3946 43.8713 63.4639 44.1726 63.4639 44.546V47.002H62.7119V46.154H62.7039C62.6292 46.3246 62.5252 46.482 62.3919 46.626C62.2639 46.7646 62.1066 46.874 61.9199 46.954C61.7332 47.034 61.5199 47.074 61.2799 47.074ZM64.7951 47.002V43.034H65.6031V43.866H65.6111C65.7391 43.578 65.9284 43.354 66.1791 43.194C66.4351 43.034 66.7231 42.954 67.0431 42.954C67.3684 42.954 67.6404 43.0153 67.8591 43.138C68.0831 43.2553 68.2484 43.4366 68.3551 43.682C68.4671 43.922 68.5231 44.2286 68.5231 44.602V47.002H67.6431V44.642C67.6431 44.4393 67.6138 44.2686 67.5551 44.13C67.5018 43.986 67.4138 43.8766 67.2911 43.802C67.1684 43.7273 67.0058 43.69 66.8031 43.69C66.5844 43.69 66.3898 43.7406 66.2191 43.842C66.0484 43.938 65.9124 44.0713 65.8111 44.242C65.7151 44.4073 65.6671 44.594 65.6671 44.802V47.002H64.7951ZM71.4418 47.074C71.0685 47.074 70.7458 46.9886 70.4738 46.818C70.2018 46.6473 69.9911 46.4073 69.8418 46.098C69.6925 45.7833 69.6178 45.4233 69.6178 45.018C69.6178 44.6073 69.6925 44.25 69.8418 43.946C69.9911 43.6366 70.1991 43.394 70.4658 43.218C70.7378 43.042 71.0578 42.954 71.4258 42.954C71.7565 42.954 72.0391 43.0313 72.2738 43.186C72.5138 43.3406 72.6871 43.5486 72.7938 43.81V41.362H73.6738V47.002H72.8738V46.162H72.8658C72.7485 46.45 72.5645 46.674 72.3138 46.834C72.0685 46.994 71.7778 47.074 71.4418 47.074ZM71.6498 46.386C72.0125 46.386 72.2951 46.266 72.4978 46.026C72.7058 45.7806 72.8098 45.4446 72.8098 45.018C72.8098 44.5913 72.7058 44.258 72.4978 44.018C72.2951 43.7726 72.0151 43.65 71.6578 43.65C71.2951 43.65 71.0098 43.7726 70.8018 44.018C70.5991 44.258 70.4978 44.5913 70.4978 45.018C70.4978 45.4446 70.5991 45.7806 70.8018 46.026C71.0098 46.266 71.2925 46.386 71.6498 46.386ZM25.0994 58.074C24.6887 58.074 24.3287 57.9913 24.0194 57.826C23.7154 57.6553 23.478 57.4153 23.3074 57.106C23.1367 56.7966 23.0514 56.4313 23.0514 56.01C23.0514 55.5886 23.1367 55.226 23.3074 54.922C23.478 54.6126 23.7154 54.3753 24.0194 54.21C24.3287 54.0393 24.6914 53.954 25.1074 53.954C25.3847 53.954 25.6487 53.9993 25.8994 54.09C26.1554 54.1806 26.3634 54.3006 26.5234 54.45L26.2434 55.09C26.094 54.962 25.926 54.866 25.7394 54.802C25.5527 54.7326 25.3714 54.698 25.1954 54.698C24.8007 54.698 24.4914 54.8126 24.2674 55.042C24.0487 55.266 23.9394 55.5913 23.9394 56.018C23.9394 56.4393 24.0487 56.7646 24.2674 56.994C24.4914 57.2233 24.798 57.338 25.1874 57.338C25.3687 57.338 25.55 57.306 25.7314 57.242C25.918 57.1726 26.0834 57.0766 26.2274 56.954L26.5074 57.594C26.3527 57.7433 26.15 57.8606 25.8994 57.946C25.6487 58.0313 25.382 58.074 25.0994 58.074ZM29.091 58.074C28.6803 58.074 28.323 57.9886 28.019 57.818C27.715 57.6473 27.4803 57.4073 27.315 57.098C27.1497 56.7886 27.067 56.426 27.067 56.01C27.067 55.594 27.1497 55.234 27.315 54.93C27.4803 54.6206 27.715 54.3806 28.019 54.21C28.323 54.0393 28.6803 53.954 29.091 53.954C29.507 53.954 29.8643 54.0393 30.163 54.21C30.4617 54.3806 30.6937 54.6206 30.859 54.93C31.0243 55.2393 31.107 55.5993 31.107 56.01C31.107 56.426 31.0243 56.7886 30.859 57.098C30.699 57.4073 30.467 57.6473 30.163 57.818C29.8643 57.9886 29.507 58.074 29.091 58.074ZM29.091 57.354C29.4483 57.354 29.7283 57.234 29.931 56.994C30.139 56.754 30.243 56.426 30.243 56.01C30.243 55.594 30.139 55.2686 29.931 55.034C29.7283 54.7993 29.4483 54.682 29.091 54.682C28.7283 54.682 28.443 54.7993 28.235 55.034C28.0323 55.2686 27.931 55.594 27.931 56.01C27.931 56.426 28.035 56.754 28.243 56.994C28.451 57.234 28.7337 57.354 29.091 57.354ZM33.7169 58.074C33.3862 58.074 33.1089 58.0153 32.8849 57.898C32.6609 57.7753 32.4902 57.594 32.3729 57.354C32.2609 57.114 32.2049 56.8126 32.2049 56.45V54.034H33.0849V56.418C33.0849 56.6046 33.1115 56.77 33.1649 56.914C33.2235 57.0526 33.3142 57.1593 33.4369 57.234C33.5649 57.3086 33.7302 57.346 33.9329 57.346C34.1355 57.346 34.3195 57.298 34.4849 57.202C34.6502 57.1006 34.7809 56.9673 34.8769 56.802C34.9729 56.6313 35.0209 56.4473 35.0209 56.25V54.034H35.8929V58.002H35.0849V57.154H35.0929C34.9595 57.442 34.7755 57.6686 34.5409 57.834C34.3115 57.994 34.0369 58.074 33.7169 58.074ZM37.2365 58.002V54.034H38.0445V54.866H38.0525C38.1805 54.578 38.3698 54.354 38.6205 54.194C38.8765 54.034 39.1645 53.954 39.4845 53.954C39.8098 53.954 40.0818 54.0153 40.3005 54.138C40.5245 54.2553 40.6898 54.4366 40.7965 54.682C40.9085 54.922 40.9645 55.2286 40.9645 55.602V58.002H40.0845V55.642C40.0845 55.4393 40.0552 55.2686 39.9965 55.13C39.9432 54.986 39.8552 54.8766 39.7325 54.802C39.6098 54.7273 39.4472 54.69 39.2445 54.69C39.0258 54.69 38.8312 54.7406 38.6605 54.842C38.4898 54.938 38.3538 55.0713 38.2525 55.242C38.1565 55.4073 38.1085 55.594 38.1085 55.802V58.002H37.2365ZM44.0592 58.074C43.5472 58.074 43.1632 57.9433 42.9072 57.682C42.6565 57.4206 42.5312 57.0446 42.5312 56.554V54.746H41.7392V54.034H42.5632V52.882H43.4032V54.034H44.8032V54.746H43.4032V56.498C43.4032 56.7806 43.4672 56.9913 43.5952 57.13C43.7285 57.2633 43.9285 57.33 44.1952 57.33C44.3019 57.33 44.4059 57.3193 44.5072 57.298C44.6139 57.2766 44.7152 57.25 44.8112 57.218L44.9392 57.89C44.8219 57.954 44.6859 57.9993 44.5312 58.026C44.3765 58.058 44.2192 58.074 44.0592 58.074ZM45.7287 58.002V54.034H46.5127V54.978H46.5207C46.6167 54.6793 46.7794 54.4446 47.0087 54.274C47.2434 54.098 47.5314 53.9993 47.8727 53.978L48.2727 53.946L48.3527 54.746L47.7127 54.802C47.3607 54.8286 47.0887 54.9433 46.8967 55.146C46.7047 55.3433 46.6087 55.5913 46.6087 55.89V58.002H45.7287ZM49.872 59.442L50.656 57.682V58.298L48.856 54.034H49.792L50.992 57.146H50.952L52.152 54.034H53.056L50.784 59.442H49.872ZM56.1115 58.002V54.034H56.8955V54.978H56.9035C56.9995 54.6793 57.1622 54.4446 57.3915 54.274C57.6262 54.098 57.9142 53.9993 58.2555 53.978L58.6555 53.946L58.7355 54.746L58.0955 54.802C57.7435 54.8286 57.4715 54.9433 57.2795 55.146C57.0875 55.3433 56.9915 55.5913 56.9915 55.89V58.002H56.1115ZM61.3019 58.074C60.8913 58.074 60.5339 57.9886 60.2299 57.818C59.9259 57.6473 59.6913 57.4073 59.5259 57.098C59.3606 56.7886 59.2779 56.426 59.2779 56.01C59.2779 55.594 59.3606 55.234 59.5259 54.93C59.6913 54.6206 59.9259 54.3806 60.2299 54.21C60.5339 54.0393 60.8913 53.954 61.3019 53.954C61.7179 53.954 62.0753 54.0393 62.3739 54.21C62.6726 54.3806 62.9046 54.6206 63.0699 54.93C63.2353 55.2393 63.3179 55.5993 63.3179 56.01C63.3179 56.426 63.2353 56.7886 63.0699 57.098C62.9099 57.4073 62.6779 57.6473 62.3739 57.818C62.0753 57.9886 61.7179 58.074 61.3019 58.074ZM61.3019 57.354C61.6593 57.354 61.9393 57.234 62.1419 56.994C62.3499 56.754 62.4539 56.426 62.4539 56.01C62.4539 55.594 62.3499 55.2686 62.1419 55.034C61.9393 54.7993 61.6593 54.682 61.3019 54.682C60.9393 54.682 60.6539 54.7993 60.4459 55.034C60.2433 55.2686 60.1419 55.594 60.1419 56.01C60.1419 56.426 60.2459 56.754 60.4539 56.994C60.6619 57.234 60.9446 57.354 61.3019 57.354ZM65.7838 58.074C65.4958 58.074 65.2371 58.0206 65.0078 57.914C64.7838 57.8073 64.6051 57.6633 64.4718 57.482C64.3438 57.2953 64.2798 57.0846 64.2798 56.85C64.2798 56.5566 64.3651 56.322 64.5358 56.146C64.7065 55.9646 64.9678 55.834 65.3198 55.754C65.6771 55.674 66.1331 55.634 66.6878 55.634H67.2478V56.194H66.7278C66.4505 56.194 66.2105 56.2046 66.0078 56.226C65.8105 56.242 65.6478 56.274 65.5198 56.322C65.3918 56.3646 65.2958 56.426 65.2318 56.506C65.1731 56.5806 65.1438 56.6793 65.1438 56.802C65.1438 57.0046 65.2185 57.1593 65.3678 57.266C65.5225 57.3726 65.7225 57.426 65.9678 57.426C66.1811 57.426 66.3731 57.378 66.5438 57.282C66.7198 57.1806 66.8585 57.05 66.9598 56.89C67.0665 56.7246 67.1198 56.5433 67.1198 56.346V55.458C67.1198 55.1646 67.0345 54.9566 66.8638 54.834C66.6985 54.706 66.4505 54.642 66.1198 54.642C65.8905 54.642 65.6585 54.674 65.4238 54.738C65.1945 54.802 64.9545 54.906 64.7038 55.05L64.4478 54.426C64.6131 54.3246 64.7918 54.2393 64.9838 54.17C65.1811 54.1006 65.3865 54.0473 65.5998 54.01C65.8131 53.9726 66.0238 53.954 66.2318 53.954C66.5891 53.954 66.8985 54.01 67.1598 54.122C67.4211 54.234 67.6211 54.4073 67.7598 54.642C67.8985 54.8713 67.9678 55.1726 67.9678 55.546V58.002H67.2158V57.154H67.2078C67.1331 57.3246 67.0291 57.482 66.8958 57.626C66.7678 57.7646 66.6105 57.874 66.4238 57.954C66.2371 58.034 66.0238 58.074 65.7838 58.074ZM70.891 58.074C70.5177 58.074 70.195 57.9886 69.923 57.818C69.651 57.6473 69.4403 57.4073 69.291 57.098C69.1417 56.7833 69.067 56.4233 69.067 56.018C69.067 55.6073 69.1417 55.25 69.291 54.946C69.4403 54.6366 69.6483 54.394 69.915 54.218C70.187 54.042 70.507 53.954 70.875 53.954C71.2057 53.954 71.4883 54.0313 71.723 54.186C71.963 54.3406 72.1363 54.5486 72.243 54.81V52.362H73.123V58.002H72.323V57.162H72.315C72.1977 57.45 72.0137 57.674 71.763 57.834C71.5177 57.994 71.227 58.074 70.891 58.074ZM71.099 57.386C71.4617 57.386 71.7443 57.266 71.947 57.026C72.155 56.7806 72.259 56.4446 72.259 56.018C72.259 55.5913 72.155 55.258 71.947 55.018C71.7443 54.7726 71.4643 54.65 71.107 54.65C70.7443 54.65 70.459 54.7726 70.251 55.018C70.0483 55.258 69.947 55.5913 69.947 56.018C69.947 56.4446 70.0483 56.7806 70.251 57.026C70.459 57.266 70.7417 57.386 71.099 57.386Z" fill="black"/>
<path d="M36.2052 68.062C35.7972 68.062 35.4392 67.976 35.1312 67.804C34.8272 67.628 34.5912 67.378 34.4232 67.054C34.2552 66.726 34.1712 66.336 34.1712 65.884C34.1712 65.432 34.2552 65.044 34.4232 64.72C34.5912 64.396 34.8272 64.148 35.1312 63.976C35.4352 63.804 35.7932 63.718 36.2052 63.718C36.5012 63.718 36.7712 63.76 37.0152 63.844C37.2592 63.924 37.4672 64.048 37.6392 64.216L37.3992 64.744C37.2152 64.592 37.0292 64.484 36.8412 64.42C36.6532 64.352 36.4472 64.318 36.2232 64.318C35.8112 64.318 35.4832 64.45 35.2392 64.714C34.9952 64.978 34.8732 65.366 34.8732 65.878C34.8732 66.398 34.9932 66.792 35.2332 67.06C35.4772 67.324 35.8072 67.456 36.2232 67.456C36.4472 67.456 36.6532 67.424 36.8412 67.36C37.0292 67.292 37.2152 67.182 37.3992 67.03L37.6392 67.558C37.4672 67.726 37.2592 67.852 37.0152 67.936C36.7712 68.02 36.5012 68.062 36.2052 68.062ZM38.5791 68.002V63.772H39.2271V65.596H39.2631C39.3591 65.4 39.4991 65.242 39.6831 65.122C39.8711 65.002 40.0831 64.942 40.3191 64.942C40.5711 64.942 40.7811 64.988 40.9491 65.08C41.1211 65.172 41.2491 65.312 41.3331 65.5C41.4211 65.684 41.4651 65.918 41.4651 66.202V68.002H40.7811V66.232C40.7811 66.088 40.7591 65.964 40.7151 65.86C40.6751 65.752 40.6071 65.67 40.5111 65.614C40.4191 65.554 40.2951 65.524 40.1391 65.524C39.9711 65.524 39.8211 65.562 39.6891 65.638C39.5571 65.714 39.4531 65.816 39.3771 65.944C39.3011 66.068 39.2631 66.206 39.2631 66.358V68.002H38.5791ZM43.59 68.056C43.37 68.056 43.172 68.016 42.996 67.936C42.824 67.856 42.688 67.746 42.588 67.606C42.488 67.466 42.438 67.31 42.438 67.138C42.438 66.91 42.506 66.728 42.642 66.592C42.778 66.452 42.982 66.352 43.254 66.292C43.526 66.228 43.868 66.196 44.28 66.196H44.766V66.64H44.322C44.114 66.64 43.934 66.648 43.782 66.664C43.634 66.676 43.51 66.698 43.41 66.73C43.31 66.762 43.234 66.808 43.182 66.868C43.134 66.928 43.11 67.004 43.11 67.096C43.11 67.248 43.17 67.36 43.29 67.432C43.41 67.504 43.562 67.54 43.746 67.54C43.91 67.54 44.06 67.502 44.196 67.426C44.336 67.35 44.448 67.252 44.532 67.132C44.62 67.008 44.664 66.876 44.664 66.736V66.076C44.664 65.86 44.594 65.708 44.454 65.62C44.314 65.528 44.11 65.482 43.842 65.482C43.67 65.482 43.496 65.506 43.32 65.554C43.144 65.598 42.958 65.674 42.762 65.782L42.564 65.29C42.704 65.214 42.848 65.15 42.996 65.098C43.148 65.046 43.304 65.008 43.464 64.984C43.628 64.956 43.794 64.942 43.962 64.942C44.23 64.942 44.466 64.984 44.67 65.068C44.878 65.152 45.04 65.282 45.156 65.458C45.272 65.634 45.33 65.864 45.33 66.148V68.002H44.766V67.378H44.724C44.66 67.498 44.576 67.61 44.472 67.714C44.368 67.818 44.242 67.902 44.094 67.966C43.95 68.026 43.782 68.056 43.59 68.056ZM46.4014 69.082V64.996H47.0074V65.614H47.0434C47.1434 65.394 47.2874 65.228 47.4754 65.116C47.6674 65 47.8874 64.942 48.1354 64.942C48.4194 64.942 48.6654 65.008 48.8734 65.14C49.0854 65.272 49.2474 65.454 49.3594 65.686C49.4714 65.918 49.5274 66.188 49.5274 66.496C49.5274 66.796 49.4714 67.064 49.3594 67.3C49.2514 67.536 49.0934 67.722 48.8854 67.858C48.6774 67.99 48.4294 68.056 48.1414 68.056C47.8974 68.056 47.6894 68.002 47.5174 67.894C47.3454 67.782 47.2134 67.634 47.1214 67.45H47.0854V69.082H46.4014ZM47.9674 67.51C48.2434 67.51 48.4594 67.418 48.6154 67.234C48.7714 67.05 48.8494 66.802 48.8494 66.49C48.8494 66.182 48.7714 65.938 48.6154 65.758C48.4634 65.578 48.2474 65.488 47.9674 65.488C47.6874 65.488 47.4694 65.578 47.3134 65.758C47.1574 65.938 47.0794 66.182 47.0794 66.49C47.0794 66.802 47.1574 67.05 47.3134 67.234C47.4734 67.418 47.6914 67.51 47.9674 67.51ZM51.7772 68.056C51.3852 68.056 51.0912 67.956 50.8952 67.756C50.6992 67.556 50.6012 67.27 50.6012 66.898V65.566H49.9952V65.002H50.6432V64.144H51.2792V65.002H52.4012V65.566H51.2792V66.862C51.2792 67.07 51.3292 67.224 51.4292 67.324C51.5332 67.424 51.6852 67.474 51.8852 67.474C51.9772 67.474 52.0652 67.466 52.1492 67.45C52.2332 67.434 52.3152 67.41 52.3952 67.378L52.4912 67.912C52.3912 67.964 52.2792 68 52.1552 68.02C52.0352 68.044 51.9092 68.056 51.7772 68.056ZM54.6994 68.056C54.3394 68.056 54.0294 67.996 53.7694 67.876C53.5134 67.752 53.3174 67.572 53.1814 67.336C53.0494 67.1 52.9834 66.82 52.9834 66.496C52.9834 66.2 53.0434 65.936 53.1634 65.704C53.2874 65.468 53.4654 65.282 53.6974 65.146C53.9294 65.01 54.2074 64.942 54.5314 64.942C54.8354 64.942 55.0954 65.006 55.3114 65.134C55.5274 65.262 55.6914 65.442 55.8034 65.674C55.9194 65.906 55.9774 66.184 55.9774 66.508V66.706H53.5054V66.256H55.5034L55.3954 66.382C55.3954 66.074 55.3194 65.842 55.1674 65.686C55.0194 65.53 54.8094 65.452 54.5374 65.452C54.3614 65.452 54.2054 65.49 54.0694 65.566C53.9334 65.638 53.8254 65.744 53.7454 65.884C53.6694 66.024 53.6314 66.198 53.6314 66.406V66.49C53.6314 66.722 53.6734 66.914 53.7574 67.066C53.8454 67.214 53.9714 67.326 54.1354 67.402C54.2994 67.474 54.4954 67.51 54.7234 67.51C54.8834 67.51 55.0474 67.492 55.2154 67.456C55.3874 67.416 55.5454 67.342 55.6894 67.234L55.8994 67.714C55.7354 67.838 55.5454 67.926 55.3294 67.978C55.1134 68.03 54.9034 68.056 54.6994 68.056ZM56.8838 68.002V65.002H57.4778V65.71H57.5138C57.5898 65.498 57.7158 65.324 57.8918 65.188C58.0718 65.052 58.2858 64.978 58.5338 64.966L58.8818 64.942L58.9478 65.578L58.4078 65.62C58.1438 65.644 57.9378 65.734 57.7898 65.89C57.6418 66.042 57.5678 66.226 57.5678 66.442V68.002H56.8838ZM60.9094 68.056C60.4294 68.056 60.0494 67.952 59.7694 67.744C59.4894 67.536 59.3494 67.248 59.3494 66.88C59.3494 66.692 59.3854 66.528 59.4574 66.388C59.5294 66.244 59.6294 66.128 59.7574 66.04C59.8854 65.948 60.0294 65.884 60.1894 65.848V65.818C60.0534 65.778 59.9294 65.714 59.8174 65.626C59.7054 65.534 59.6174 65.424 59.5534 65.296C59.4894 65.164 59.4574 65.016 59.4574 64.852C59.4574 64.5 59.5894 64.224 59.8534 64.024C60.1174 63.82 60.4694 63.718 60.9094 63.718C61.3494 63.718 61.7014 63.82 61.9654 64.024C62.2294 64.224 62.3614 64.5 62.3614 64.852C62.3614 65.012 62.3274 65.158 62.2594 65.29C62.1954 65.422 62.1074 65.534 61.9954 65.626C61.8834 65.714 61.7594 65.778 61.6234 65.818V65.848C61.7794 65.88 61.9194 65.942 62.0434 66.034C62.1714 66.126 62.2734 66.244 62.3494 66.388C62.4294 66.528 62.4694 66.692 62.4694 66.88C62.4694 67.248 62.3294 67.536 62.0494 67.744C61.7734 67.952 61.3934 68.056 60.9094 68.056ZM60.9094 67.504C61.2134 67.504 61.4454 67.446 61.6054 67.33C61.7694 67.21 61.8514 67.042 61.8514 66.826C61.8514 66.61 61.7694 66.442 61.6054 66.322C61.4454 66.198 61.2134 66.136 60.9094 66.136C60.6054 66.136 60.3714 66.198 60.2074 66.322C60.0474 66.442 59.9674 66.61 59.9674 66.826C59.9674 67.042 60.0474 67.21 60.2074 67.33C60.3714 67.446 60.6054 67.504 60.9094 67.504ZM60.9094 65.578C61.1734 65.578 61.3794 65.52 61.5274 65.404C61.6754 65.288 61.7494 65.126 61.7494 64.918C61.7494 64.718 61.6754 64.56 61.5274 64.444C61.3794 64.328 61.1734 64.27 60.9094 64.27C60.6494 64.27 60.4434 64.328 60.2914 64.444C60.1434 64.56 60.0694 64.718 60.0694 64.918C60.0694 65.126 60.1434 65.288 60.2914 65.404C60.4434 65.52 60.6494 65.578 60.9094 65.578Z" fill="#667085"/>
<defs>
<filter id="filter0_d_8339_572" x="0" y="0.00195312" width="96" height="85.8462" filterUnits="userSpaceOnUse" color-interpolation-filters="sRGB">
<feFlood flood-opacity="0" result="BackgroundImageFix"/>
<feColorMatrix in="SourceAlpha" type="matrix" values="0 0 0 0 0 0 0 0 0 0 0 0 0 0 0 0 0 0 127 0" result="hardAlpha"/>
<feOffset dy="4"/>
<feGaussianBlur stdDeviation="2"/>
<feComposite in2="hardAlpha" operator="out"/>
<feColorMatrix type="matrix" values="0 0 0 0 0 0 0 0 0 0 0 0 0 0 0 0 0 0 0.25 0"/>
<feBlend mode="normal" in2="BackgroundImageFix" result="effect1_dropShadow_8339_572"/>
<feBlend mode="normal" in="SourceGraphic" in2="effect1_dropShadow_8339_572" result="shape"/>
</filter>
<clipPath id="clip0_8339_572">
<rect width="30" height="30" fill="white" transform="translate(33.2051 8.00195)"/>
</clipPath>
</defs>
</svg>
