<svg width="96" height="86" viewBox="0 0 96 86" fill="none" xmlns="http://www.w3.org/2000/svg">
<g filter="url(#filter0_d_8310_982)">
<path d="M5.37285 42.5185C4.62083 41.2089 4.24484 40.5536 4.09767 39.8574C3.96744 39.2412 3.96744 38.6048 4.09767 37.9886C4.24484 37.2924 4.62083 36.6371 5.37285 35.3274L23.5901 3.59555C24.3421 2.28569 24.7181 1.63076 25.2442 1.15444C25.7096 0.732998 26.2579 0.414612 26.8535 0.220002C27.5267 -2.00917e-07 28.2787 0 29.7827 0H66.2171C67.7214 0 68.4731 -2.00917e-07 69.1466 0.220002C69.7419 0.414612 70.2903 0.732998 70.756 1.15444C71.282 1.63076 71.6578 2.28569 72.41 3.59555L90.6271 35.3274C91.3792 36.6371 91.7551 37.2924 91.9021 37.9886C92.0326 38.6048 92.0326 39.2412 91.9021 39.8574C91.7551 40.5536 91.3792 41.2089 90.6271 42.5185L72.41 74.2506C71.6578 75.5603 71.282 76.2151 70.756 76.6915C70.2903 77.1131 69.7419 77.4313 69.1466 77.6259C68.4731 77.8462 67.7214 77.8462 66.2171 77.8462H29.7827C28.2787 77.8462 27.5267 77.8462 26.8535 77.6259C26.2579 77.4313 25.7096 77.1131 25.2442 76.6915C24.7181 76.2151 24.3421 75.5603 23.5901 74.2506L5.37285 42.5185Z" fill="white"/>
</g>
<path d="M46.5432 40.1574L36.0476 29.6618C35.1147 28.7288 35.1147 27.2711 36.0476 26.3382L46.5432 15.8425C47.4762 14.9096 48.9339 14.9096 49.8669 15.8425L60.3625 26.3382C61.2954 27.2711 61.2954 28.7288 60.3625 29.6618L49.8669 40.1574C48.9339 41.0903 47.4179 41.0903 46.5432 40.1574Z" fill="#F2BB41"/>
<path d="M48.1754 29.1948C48.8195 29.1948 49.3416 28.6727 49.3416 28.0287C49.3416 27.3846 48.8195 26.8625 48.1754 26.8625C47.5314 26.8625 47.0093 27.3846 47.0093 28.0287C47.0093 28.6727 47.5314 29.1948 48.1754 29.1948Z" fill="#E08838"/>
<path d="M52.84 29.1948C53.484 29.1948 54.0061 28.6727 54.0061 28.0287C54.0061 27.3846 53.484 26.8625 52.84 26.8625C52.1959 26.8625 51.6738 27.3846 51.6738 28.0287C51.6738 28.6727 52.1959 29.1948 52.84 29.1948Z" fill="#E08838"/>
<path d="M43.5109 29.1948C44.1549 29.1948 44.677 28.6727 44.677 28.0287C44.677 27.3846 44.1549 26.8625 43.5109 26.8625C42.8668 26.8625 42.3447 27.3846 42.3447 28.0287C42.3447 28.6727 42.8668 29.1948 43.5109 29.1948Z" fill="#E08838"/>
<path d="M20.9151 52V46.36H23.3391C23.7444 46.36 24.0911 46.4293 24.3791 46.568C24.6724 46.7013 24.8938 46.8987 25.0431 47.16C25.1978 47.416 25.2751 47.728 25.2751 48.096C25.2751 48.4533 25.1978 48.7627 25.0431 49.024C24.8884 49.2853 24.6671 49.488 24.3791 49.632C24.0911 49.776 23.7444 49.848 23.3391 49.848H21.7951V52H20.9151ZM21.7951 49.112H23.2031C23.5924 49.112 23.8884 49.0293 24.0911 48.864C24.2938 48.6933 24.3951 48.4373 24.3951 48.096C24.3951 47.7547 24.2938 47.504 24.0911 47.344C23.8938 47.1787 23.5978 47.096 23.2031 47.096H21.7951V49.112ZM26.2795 52V48.032H27.0635V48.976H27.0715C27.1675 48.6773 27.3301 48.4427 27.5595 48.272C27.7941 48.096 28.0821 47.9973 28.4235 47.976L28.8235 47.944L28.9035 48.744L28.2635 48.8C27.9115 48.8267 27.6395 48.9413 27.4475 49.144C27.2555 49.3413 27.1595 49.5893 27.1595 49.888V52H26.2795ZM29.6446 47.152V46.232H30.6766V47.152H29.6446ZM29.7326 52V48.032H30.6046V52H29.7326ZM33.7433 52.072C33.3327 52.072 32.9753 51.9867 32.6713 51.816C32.3673 51.6453 32.1327 51.4053 31.9673 51.096C31.802 50.7867 31.7193 50.424 31.7193 50.008C31.7193 49.592 31.802 49.232 31.9673 48.928C32.1327 48.6187 32.3673 48.3787 32.6713 48.208C32.9753 48.0373 33.3327 47.952 33.7433 47.952C34.1593 47.952 34.5167 48.0373 34.8153 48.208C35.114 48.3787 35.346 48.6187 35.5113 48.928C35.6767 49.2373 35.7593 49.5973 35.7593 50.008C35.7593 50.424 35.6767 50.7867 35.5113 51.096C35.3513 51.4053 35.1193 51.6453 34.8153 51.816C34.5167 51.9867 34.1593 52.072 33.7433 52.072ZM33.7433 51.352C34.1007 51.352 34.3807 51.232 34.5833 50.992C34.7913 50.752 34.8953 50.424 34.8953 50.008C34.8953 49.592 34.7913 49.2667 34.5833 49.032C34.3807 48.7973 34.1007 48.68 33.7433 48.68C33.3807 48.68 33.0953 48.7973 32.8873 49.032C32.6847 49.2667 32.5833 49.592 32.5833 50.008C32.5833 50.424 32.6873 50.752 32.8953 50.992C33.1033 51.232 33.386 51.352 33.7433 51.352ZM36.8732 52V48.032H37.6572V48.976H37.6652C37.7612 48.6773 37.9239 48.4427 38.1532 48.272C38.3879 48.096 38.6759 47.9973 39.0172 47.976L39.4172 47.944L39.4972 48.744L38.8572 48.8C38.5052 48.8267 38.2332 48.9413 38.0412 49.144C37.8492 49.3413 37.7532 49.5893 37.7532 49.888V52H36.8732ZM40.2383 47.152V46.232H41.2703V47.152H40.2383ZM40.3263 52V48.032H41.1983V52H40.3263ZM44.3131 52.072C43.8011 52.072 43.4171 51.9413 43.1611 51.68C42.9104 51.4187 42.7851 51.0427 42.7851 50.552V48.744H41.9931V48.032H42.8171V46.88H43.6571V48.032H45.0571V48.744H43.6571V50.496C43.6571 50.7787 43.7211 50.9893 43.8491 51.128C43.9824 51.2613 44.1824 51.328 44.4491 51.328C44.5558 51.328 44.6598 51.3173 44.7611 51.296C44.8678 51.2747 44.9691 51.248 45.0651 51.216L45.1931 51.888C45.0758 51.952 44.9398 51.9973 44.7851 52.024C44.6304 52.056 44.4731 52.072 44.3131 52.072ZM46.4853 53.44L47.2693 51.68V52.296L45.4693 48.032H46.4053L47.6053 51.144H47.5653L48.7653 48.032H49.6693L47.3973 53.44H46.4853ZM52.7248 53.44V48.024H53.5248V48.872C53.6475 48.5787 53.8341 48.352 54.0848 48.192C54.3355 48.032 54.6288 47.952 54.9648 47.952C55.3328 47.952 55.6528 48.04 55.9248 48.216C56.1968 48.3867 56.4048 48.6267 56.5488 48.936C56.6981 49.24 56.7728 49.6 56.7728 50.016C56.7728 50.416 56.7008 50.7733 56.5568 51.088C56.4128 51.3973 56.2048 51.64 55.9328 51.816C55.6608 51.9867 55.3381 52.072 54.9648 52.072C54.6395 52.072 54.3568 51.9947 54.1168 51.84C53.8821 51.6853 53.7088 51.48 53.5968 51.224V53.44H52.7248ZM54.7488 51.384C55.1061 51.384 55.3861 51.2613 55.5888 51.016C55.7968 50.7707 55.9008 50.4347 55.9008 50.008C55.9008 49.5813 55.7968 49.248 55.5888 49.008C55.3861 48.768 55.1061 48.648 54.7488 48.648C54.3861 48.648 54.1008 48.768 53.8928 49.008C53.6901 49.248 53.5888 49.5813 53.5888 50.008C53.5888 50.4347 53.6928 50.7707 53.9008 51.016C54.1088 51.2613 54.3915 51.384 54.7488 51.384ZM59.2487 52.072C58.9607 52.072 58.702 52.0187 58.4727 51.912C58.2487 51.8053 58.07 51.6613 57.9367 51.48C57.8087 51.2933 57.7447 51.0827 57.7447 50.848C57.7447 50.5547 57.83 50.32 58.0007 50.144C58.1713 49.9627 58.4327 49.832 58.7847 49.752C59.142 49.672 59.598 49.632 60.1527 49.632H60.7127V50.192H60.1927C59.9153 50.192 59.6753 50.2027 59.4727 50.224C59.2753 50.24 59.1127 50.272 58.9847 50.32C58.8567 50.3627 58.7607 50.424 58.6967 50.504C58.638 50.5787 58.6087 50.6773 58.6087 50.8C58.6087 51.0027 58.6833 51.1573 58.8327 51.264C58.9873 51.3707 59.1873 51.424 59.4327 51.424C59.646 51.424 59.838 51.376 60.0087 51.28C60.1847 51.1787 60.3233 51.048 60.4247 50.888C60.5313 50.7227 60.5847 50.5413 60.5847 50.344V49.456C60.5847 49.1627 60.4993 48.9547 60.3287 48.832C60.1633 48.704 59.9153 48.64 59.5847 48.64C59.3553 48.64 59.1233 48.672 58.8887 48.736C58.6593 48.8 58.4193 48.904 58.1687 49.048L57.9127 48.424C58.078 48.3227 58.2567 48.2373 58.4487 48.168C58.646 48.0987 58.8513 48.0453 59.0647 48.008C59.278 47.9707 59.4887 47.952 59.6967 47.952C60.054 47.952 60.3633 48.008 60.6247 48.12C60.886 48.232 61.086 48.4053 61.2247 48.64C61.3633 48.8693 61.4327 49.1707 61.4327 49.544V52H60.6807V51.152H60.6727C60.598 51.3227 60.494 51.48 60.3607 51.624C60.2327 51.7627 60.0753 51.872 59.8887 51.952C59.702 52.032 59.4887 52.072 59.2487 52.072ZM62.7638 52V48.032H63.5478V48.976H63.5558C63.6518 48.6773 63.8145 48.4427 64.0438 48.272C64.2785 48.096 64.5665 47.9973 64.9078 47.976L65.3078 47.944L65.3878 48.744L64.7478 48.8C64.3958 48.8267 64.1238 48.9413 63.9318 49.144C63.7398 49.3413 63.6438 49.5893 63.6438 49.888V52H62.7638ZM68.2037 52.072C67.6917 52.072 67.3077 51.9413 67.0517 51.68C66.8011 51.4187 66.6757 51.0427 66.6757 50.552V48.744H65.8837V48.032H66.7077V46.88H67.5477V48.032H68.9477V48.744H67.5477V50.496C67.5477 50.7787 67.6117 50.9893 67.7397 51.128C67.8731 51.2613 68.0731 51.328 68.3397 51.328C68.4464 51.328 68.5504 51.3173 68.6517 51.296C68.7584 51.2747 68.8597 51.248 68.9557 51.216L69.0837 51.888C68.9664 51.952 68.8304 51.9973 68.6757 52.024C68.5211 52.056 68.3637 52.072 68.2037 52.072ZM72.2103 52V51.256H73.7063V47.064L74.1543 47.12L72.5063 48.16L72.1303 47.488L73.9383 46.36H74.5703V51.256H75.9543V52H72.2103Z" fill="black"/>
<path d="M36.2052 62.06C35.7972 62.06 35.4392 61.974 35.1312 61.802C34.8272 61.626 34.5912 61.376 34.4232 61.052C34.2552 60.724 34.1712 60.334 34.1712 59.882C34.1712 59.43 34.2552 59.042 34.4232 58.718C34.5912 58.394 34.8272 58.146 35.1312 57.974C35.4352 57.802 35.7932 57.716 36.2052 57.716C36.5012 57.716 36.7712 57.758 37.0152 57.842C37.2592 57.922 37.4672 58.046 37.6392 58.214L37.3992 58.742C37.2152 58.59 37.0292 58.482 36.8412 58.418C36.6532 58.35 36.4472 58.316 36.2232 58.316C35.8112 58.316 35.4832 58.448 35.2392 58.712C34.9952 58.976 34.8732 59.364 34.8732 59.876C34.8732 60.396 34.9932 60.79 35.2332 61.058C35.4772 61.322 35.8072 61.454 36.2232 61.454C36.4472 61.454 36.6532 61.422 36.8412 61.358C37.0292 61.29 37.2152 61.18 37.3992 61.028L37.6392 61.556C37.4672 61.724 37.2592 61.85 37.0152 61.934C36.7712 62.018 36.5012 62.06 36.2052 62.06ZM38.5791 62V57.77H39.2271V59.594H39.2631C39.3591 59.398 39.4991 59.24 39.6831 59.12C39.8711 59 40.0831 58.94 40.3191 58.94C40.5711 58.94 40.7811 58.986 40.9491 59.078C41.1211 59.17 41.2491 59.31 41.3331 59.498C41.4211 59.682 41.4651 59.916 41.4651 60.2V62H40.7811V60.23C40.7811 60.086 40.7591 59.962 40.7151 59.858C40.6751 59.75 40.6071 59.668 40.5111 59.612C40.4191 59.552 40.2951 59.522 40.1391 59.522C39.9711 59.522 39.8211 59.56 39.6891 59.636C39.5571 59.712 39.4531 59.814 39.3771 59.942C39.3011 60.066 39.2631 60.204 39.2631 60.356V62H38.5791ZM43.59 62.054C43.37 62.054 43.172 62.014 42.996 61.934C42.824 61.854 42.688 61.744 42.588 61.604C42.488 61.464 42.438 61.308 42.438 61.136C42.438 60.908 42.506 60.726 42.642 60.59C42.778 60.45 42.982 60.35 43.254 60.29C43.526 60.226 43.868 60.194 44.28 60.194H44.766V60.638H44.322C44.114 60.638 43.934 60.646 43.782 60.662C43.634 60.674 43.51 60.696 43.41 60.728C43.31 60.76 43.234 60.806 43.182 60.866C43.134 60.926 43.11 61.002 43.11 61.094C43.11 61.246 43.17 61.358 43.29 61.43C43.41 61.502 43.562 61.538 43.746 61.538C43.91 61.538 44.06 61.5 44.196 61.424C44.336 61.348 44.448 61.25 44.532 61.13C44.62 61.006 44.664 60.874 44.664 60.734V60.074C44.664 59.858 44.594 59.706 44.454 59.618C44.314 59.526 44.11 59.48 43.842 59.48C43.67 59.48 43.496 59.504 43.32 59.552C43.144 59.596 42.958 59.672 42.762 59.78L42.564 59.288C42.704 59.212 42.848 59.148 42.996 59.096C43.148 59.044 43.304 59.006 43.464 58.982C43.628 58.954 43.794 58.94 43.962 58.94C44.23 58.94 44.466 58.982 44.67 59.066C44.878 59.15 45.04 59.28 45.156 59.456C45.272 59.632 45.33 59.862 45.33 60.146V62H44.766V61.376H44.724C44.66 61.496 44.576 61.608 44.472 61.712C44.368 61.816 44.242 61.9 44.094 61.964C43.95 62.024 43.782 62.054 43.59 62.054ZM46.4014 63.08V58.994H47.0074V59.612H47.0434C47.1434 59.392 47.2874 59.226 47.4754 59.114C47.6674 58.998 47.8874 58.94 48.1354 58.94C48.4194 58.94 48.6654 59.006 48.8734 59.138C49.0854 59.27 49.2474 59.452 49.3594 59.684C49.4714 59.916 49.5274 60.186 49.5274 60.494C49.5274 60.794 49.4714 61.062 49.3594 61.298C49.2514 61.534 49.0934 61.72 48.8854 61.856C48.6774 61.988 48.4294 62.054 48.1414 62.054C47.8974 62.054 47.6894 62 47.5174 61.892C47.3454 61.78 47.2134 61.632 47.1214 61.448H47.0854V63.08H46.4014ZM47.9674 61.508C48.2434 61.508 48.4594 61.416 48.6154 61.232C48.7714 61.048 48.8494 60.8 48.8494 60.488C48.8494 60.18 48.7714 59.936 48.6154 59.756C48.4634 59.576 48.2474 59.486 47.9674 59.486C47.6874 59.486 47.4694 59.576 47.3134 59.756C47.1574 59.936 47.0794 60.18 47.0794 60.488C47.0794 60.8 47.1574 61.048 47.3134 61.232C47.4734 61.416 47.6914 61.508 47.9674 61.508ZM51.7772 62.054C51.3852 62.054 51.0912 61.954 50.8952 61.754C50.6992 61.554 50.6012 61.268 50.6012 60.896V59.564H49.9952V59H50.6432V58.142H51.2792V59H52.4012V59.564H51.2792V60.86C51.2792 61.068 51.3292 61.222 51.4292 61.322C51.5332 61.422 51.6852 61.472 51.8852 61.472C51.9772 61.472 52.0652 61.464 52.1492 61.448C52.2332 61.432 52.3152 61.408 52.3952 61.376L52.4912 61.91C52.3912 61.962 52.2792 61.998 52.1552 62.018C52.0352 62.042 51.9092 62.054 51.7772 62.054ZM54.6994 62.054C54.3394 62.054 54.0294 61.994 53.7694 61.874C53.5134 61.75 53.3174 61.57 53.1814 61.334C53.0494 61.098 52.9834 60.818 52.9834 60.494C52.9834 60.198 53.0434 59.934 53.1634 59.702C53.2874 59.466 53.4654 59.28 53.6974 59.144C53.9294 59.008 54.2074 58.94 54.5314 58.94C54.8354 58.94 55.0954 59.004 55.3114 59.132C55.5274 59.26 55.6914 59.44 55.8034 59.672C55.9194 59.904 55.9774 60.182 55.9774 60.506V60.704H53.5054V60.254H55.5034L55.3954 60.38C55.3954 60.072 55.3194 59.84 55.1674 59.684C55.0194 59.528 54.8094 59.45 54.5374 59.45C54.3614 59.45 54.2054 59.488 54.0694 59.564C53.9334 59.636 53.8254 59.742 53.7454 59.882C53.6694 60.022 53.6314 60.196 53.6314 60.404V60.488C53.6314 60.72 53.6734 60.912 53.7574 61.064C53.8454 61.212 53.9714 61.324 54.1354 61.4C54.2994 61.472 54.4954 61.508 54.7234 61.508C54.8834 61.508 55.0474 61.49 55.2154 61.454C55.3874 61.414 55.5454 61.34 55.6894 61.232L55.8994 61.712C55.7354 61.836 55.5454 61.924 55.3294 61.976C55.1134 62.028 54.9034 62.054 54.6994 62.054ZM56.8838 62V59H57.4778V59.708H57.5138C57.5898 59.496 57.7158 59.322 57.8918 59.186C58.0718 59.05 58.2858 58.976 58.5338 58.964L58.8818 58.94L58.9478 59.576L58.4078 59.618C58.1438 59.642 57.9378 59.732 57.7898 59.888C57.6418 60.04 57.5678 60.224 57.5678 60.44V62H56.8838ZM60.9214 62.054C60.7294 62.054 60.5474 62.036 60.3754 62C60.2074 61.96 60.0494 61.902 59.9014 61.826C59.7534 61.746 59.6194 61.652 59.4994 61.544L59.7574 61.022C59.9334 61.182 60.1154 61.298 60.3034 61.37C60.4954 61.442 60.7014 61.478 60.9214 61.478C61.1974 61.478 61.4134 61.412 61.5694 61.28C61.7254 61.144 61.8034 60.946 61.8034 60.686C61.8034 60.43 61.7294 60.232 61.5814 60.092C61.4374 59.948 61.2374 59.876 60.9814 59.876C60.8134 59.876 60.6634 59.908 60.5314 59.972C60.3994 60.036 60.2694 60.142 60.1414 60.29H59.6194V57.77H62.2414V58.346H60.2074V59.75H60.2374C60.3254 59.63 60.4474 59.528 60.6034 59.444C60.7594 59.36 60.9314 59.318 61.1194 59.318C61.3914 59.318 61.6254 59.376 61.8214 59.492C62.0214 59.604 62.1734 59.76 62.2774 59.96C62.3854 60.16 62.4394 60.392 62.4394 60.656C62.4394 60.952 62.3754 61.206 62.2474 61.418C62.1234 61.626 61.9474 61.784 61.7194 61.892C61.4954 62 61.2294 62.054 60.9214 62.054Z" fill="#667085"/>
<defs>
<filter id="filter0_d_8310_982" x="0" y="0" width="96" height="85.8462" filterUnits="userSpaceOnUse" color-interpolation-filters="sRGB">
<feFlood flood-opacity="0" result="BackgroundImageFix"/>
<feColorMatrix in="SourceAlpha" type="matrix" values="0 0 0 0 0 0 0 0 0 0 0 0 0 0 0 0 0 0 127 0" result="hardAlpha"/>
<feOffset dy="4"/>
<feGaussianBlur stdDeviation="2"/>
<feComposite in2="hardAlpha" operator="out"/>
<feColorMatrix type="matrix" values="0 0 0 0 0 0 0 0 0 0 0 0 0 0 0 0 0 0 0.25 0"/>
<feBlend mode="normal" in2="BackgroundImageFix" result="effect1_dropShadow_8310_982"/>
<feBlend mode="normal" in="SourceGraphic" in2="effect1_dropShadow_8310_982" result="shape"/>
</filter>
</defs>
</svg>
