<svg width="96" height="86" viewBox="0 0 96 86" fill="none" xmlns="http://www.w3.org/2000/svg">
<g filter="url(#filter0_d_8310_820)">
<path d="M5.37285 42.5185C4.62083 41.2089 4.24484 40.5536 4.09767 39.8574C3.96744 39.2412 3.96744 38.6048 4.09767 37.9886C4.24484 37.2924 4.62083 36.6371 5.37285 35.3274L23.5901 3.59555C24.3421 2.28569 24.7181 1.63076 25.2442 1.15444C25.7096 0.732998 26.2579 0.414612 26.8535 0.220002C27.5267 -2.00917e-07 28.2787 0 29.7827 0H66.2171C67.7214 0 68.4731 -2.00917e-07 69.1466 0.220002C69.7419 0.414612 70.2903 0.732998 70.756 1.15444C71.282 1.63076 71.6578 2.28569 72.41 3.59555L90.6271 35.3274C91.3792 36.6371 91.7551 37.2924 91.9021 37.9886C92.0326 38.6048 92.0326 39.2412 91.9021 39.8574C91.7551 40.5536 91.3792 41.2089 90.6271 42.5185L72.41 74.2506C71.6578 75.5603 71.282 76.2151 70.756 76.6915C70.2903 77.1131 69.7419 77.4313 69.1466 77.6259C68.4731 77.8462 67.7214 77.8462 66.2171 77.8462H29.7827C28.2787 77.8462 27.5267 77.8462 26.8535 77.6259C26.2579 77.4313 25.7096 77.1131 25.2442 76.6915C24.7181 76.2151 24.3421 75.5603 23.5901 74.2506L5.37285 42.5185Z" fill="white"/>
</g>
<g clip-path="url(#clip0_8310_820)">
<path d="M58.5005 33.5293C57.1402 33.1911 56.1248 31.9647 56.1248 30.4998C56.1248 28.7738 57.5239 28 59.25 28C59.4492 28 59.6571 28.0258 59.8464 28.0626C59.8552 28.2503 59.8748 28.435 59.8748 28.6248C59.8748 30.6214 59.3746 31.8762 58.5005 33.5293ZM41.0473 37.6062C42.165 36.0089 44.8598 34.8747 48 34.8747C51.1396 34.8747 53.8277 36.0147 54.9455 37.612C52.9898 39.0292 50.5945 39.8748 48 39.8748C45.4024 39.8748 43.0045 39.0265 41.0473 37.6062ZM36.1252 28C36.1252 27.8081 36.1448 27.6214 36.1536 27.4321C36.3429 27.3953 36.5504 27.3746 36.75 27.3746C38.4761 27.3746 39.8752 28.7738 39.8752 30.4998C39.8752 31.9646 38.8583 33.1889 37.4984 33.5272C36.6248 31.8746 36.1252 29.9955 36.1252 28ZM48 16.1246C53.4652 16.1246 58.0024 19.8405 59.3793 24.8965H36.6207C37.9976 19.8405 42.5348 16.1246 48 16.1246ZM48 13C39.7158 13 33 19.7154 33 28C33 36.2842 39.7158 43 48 43C56.2842 43 63 36.2842 63 28C63 19.7154 56.2842 13 48 13Z" fill="#F2BB41"/>
<path d="M52.6551 29.5516C52.6551 30.6942 50.5613 31.6206 47.9782 31.6206C45.3951 31.6206 43.3013 30.6942 43.3013 29.5516C43.3013 28.409 45.3951 27.4827 47.9782 27.4827C50.5613 27.4827 52.6551 28.409 52.6551 29.5516Z" fill="#E08838"/>
</g>
<path d="M24.8219 52.072C24.5179 52.072 24.2246 52.048 23.9419 52C23.6593 51.9573 23.4006 51.8907 23.1659 51.8C22.9366 51.7093 22.7339 51.5973 22.5579 51.464L22.8539 50.744C23.0406 50.8773 23.2353 50.9867 23.4379 51.072C23.6459 51.152 23.8646 51.2107 24.0939 51.248C24.3286 51.2853 24.5713 51.304 24.8219 51.304C25.2433 51.304 25.5633 51.2267 25.7819 51.072C26.0059 50.9173 26.1179 50.7013 26.1179 50.424C26.1179 50.2747 26.0806 50.1547 26.0059 50.064C25.9366 49.968 25.8273 49.8907 25.6779 49.832C25.5286 49.768 25.3339 49.712 25.0939 49.664L24.1739 49.488C23.6513 49.3867 23.2699 49.2053 23.0299 48.944C22.7953 48.6827 22.6779 48.3493 22.6779 47.944C22.6779 47.608 22.7739 47.3173 22.9659 47.072C23.1579 46.8213 23.4219 46.6293 23.7579 46.496C24.0939 46.3573 24.4779 46.288 24.9099 46.288C25.1766 46.288 25.4299 46.312 25.6699 46.36C25.9099 46.408 26.1286 46.48 26.3259 46.576C26.5286 46.672 26.7046 46.7893 26.8539 46.928L26.5499 47.632C26.3259 47.424 26.0753 47.2773 25.7979 47.192C25.5259 47.1013 25.2273 47.056 24.9019 47.056C24.6406 47.056 24.4086 47.0907 24.2059 47.16C24.0033 47.2293 23.8433 47.3307 23.7259 47.464C23.6139 47.592 23.5579 47.752 23.5579 47.944C23.5579 48.1573 23.6273 48.3253 23.7659 48.448C23.9046 48.5653 24.1446 48.6587 24.4859 48.728L25.3979 48.896C25.9419 48.9973 26.3446 49.1707 26.6059 49.416C26.8673 49.6613 26.9979 49.984 26.9979 50.384C26.9979 50.7147 26.9073 51.008 26.7259 51.264C26.5499 51.5147 26.2993 51.712 25.9739 51.856C25.6486 52 25.2646 52.072 24.8219 52.072ZM29.8228 52.072C29.3108 52.072 28.9268 51.9413 28.6708 51.68C28.4201 51.4187 28.2948 51.0427 28.2948 50.552V48.744H27.5028V48.032H28.3268V46.88H29.1668V48.032H30.5668V48.744H29.1668V50.496C29.1668 50.7787 29.2308 50.9893 29.3588 51.128C29.4921 51.2613 29.6921 51.328 29.9588 51.328C30.0655 51.328 30.1695 51.3173 30.2708 51.296C30.3775 51.2747 30.4788 51.248 30.5748 51.216L30.7028 51.888C30.5855 51.952 30.4495 51.9973 30.2948 52.024C30.1401 52.056 29.9828 52.072 29.8228 52.072ZM32.8443 52.072C32.5563 52.072 32.2976 52.0187 32.0683 51.912C31.8443 51.8053 31.6656 51.6613 31.5323 51.48C31.4043 51.2933 31.3403 51.0827 31.3403 50.848C31.3403 50.5547 31.4256 50.32 31.5963 50.144C31.767 49.9627 32.0283 49.832 32.3803 49.752C32.7376 49.672 33.1936 49.632 33.7483 49.632H34.3083V50.192H33.7883C33.511 50.192 33.271 50.2027 33.0683 50.224C32.871 50.24 32.7083 50.272 32.5803 50.32C32.4523 50.3627 32.3563 50.424 32.2923 50.504C32.2336 50.5787 32.2043 50.6773 32.2043 50.8C32.2043 51.0027 32.279 51.1573 32.4283 51.264C32.583 51.3707 32.783 51.424 33.0283 51.424C33.2416 51.424 33.4336 51.376 33.6043 51.28C33.7803 51.1787 33.919 51.048 34.0203 50.888C34.127 50.7227 34.1803 50.5413 34.1803 50.344V49.456C34.1803 49.1627 34.095 48.9547 33.9243 48.832C33.759 48.704 33.511 48.64 33.1803 48.64C32.951 48.64 32.719 48.672 32.4843 48.736C32.255 48.8 32.015 48.904 31.7643 49.048L31.5083 48.424C31.6736 48.3227 31.8523 48.2373 32.0443 48.168C32.2416 48.0987 32.447 48.0453 32.6603 48.008C32.8736 47.9707 33.0843 47.952 33.2923 47.952C33.6496 47.952 33.959 48.008 34.2203 48.12C34.4816 48.232 34.6816 48.4053 34.8203 48.64C34.959 48.8693 35.0283 49.1707 35.0283 49.544V52H34.2763V51.152H34.2683C34.1936 51.3227 34.0896 51.48 33.9563 51.624C33.8283 51.7627 33.671 51.872 33.4843 51.952C33.2976 52.032 33.0843 52.072 32.8443 52.072ZM36.3595 52V48.032H37.1435V48.976H37.1515C37.2475 48.6773 37.4102 48.4427 37.6395 48.272C37.8742 48.096 38.1622 47.9973 38.5035 47.976L38.9035 47.944L38.9835 48.744L38.3435 48.8C37.9915 48.8267 37.7195 48.9413 37.5275 49.144C37.3355 49.3413 37.2395 49.5893 37.2395 49.888V52H36.3595ZM41.7994 52.072C41.2874 52.072 40.9034 51.9413 40.6474 51.68C40.3967 51.4187 40.2714 51.0427 40.2714 50.552V48.744H39.4794V48.032H40.3034V46.88H41.1434V48.032H42.5434V48.744H41.1434V50.496C41.1434 50.7787 41.2074 50.9893 41.3354 51.128C41.4687 51.2613 41.6687 51.328 41.9354 51.328C42.042 51.328 42.146 51.3173 42.2474 51.296C42.354 51.2747 42.4554 51.248 42.5514 51.216L42.6794 51.888C42.562 51.952 42.426 51.9973 42.2714 52.024C42.1167 52.056 41.9594 52.072 41.7994 52.072ZM45.8779 52V46.36H47.9499C48.5633 46.36 49.0833 46.4693 49.5099 46.688C49.9366 46.9067 50.2619 47.2267 50.4859 47.648C50.7099 48.064 50.8219 48.5733 50.8219 49.176C50.8219 49.7787 50.7099 50.2907 50.4859 50.712C50.2619 51.1333 49.9339 51.4533 49.5019 51.672C49.0753 51.8907 48.5579 52 47.9499 52H45.8779ZM46.7579 51.248H47.9019C48.5579 51.248 49.0566 51.0773 49.3979 50.736C49.7393 50.3893 49.9099 49.8693 49.9099 49.176C49.9099 48.4827 49.7393 47.9653 49.3979 47.624C49.0566 47.2827 48.5579 47.112 47.9019 47.112H46.7579V51.248ZM52.0704 52V48.032H52.8544V48.976H52.8624C52.9584 48.6773 53.1211 48.4427 53.3504 48.272C53.5851 48.096 53.8731 47.9973 54.2144 47.976L54.6144 47.944L54.6944 48.744L54.0544 48.8C53.7024 48.8267 53.4304 48.9413 53.2384 49.144C53.0464 49.3413 52.9504 49.5893 52.9504 49.888V52H52.0704ZM55.4356 47.152V46.232H56.4676V47.152H55.4356ZM55.5236 52V48.032H56.3956V52H55.5236ZM58.8383 52L57.1743 48.032H58.1103L59.3023 51.136H59.2623L60.4703 48.032H61.3743L59.7023 52H58.8383ZM62.0528 47.152V46.232H63.0848V47.152H62.0528ZM62.1408 52V48.032H63.0128V52H62.1408ZM64.3595 52V48.032H65.1675V48.864H65.1755C65.3035 48.576 65.4928 48.352 65.7435 48.192C65.9995 48.032 66.2875 47.952 66.6075 47.952C66.9328 47.952 67.2048 48.0133 67.4235 48.136C67.6475 48.2533 67.8128 48.4347 67.9195 48.68C68.0315 48.92 68.0875 49.2267 68.0875 49.6V52H67.2075V49.64C67.2075 49.4373 67.1782 49.2667 67.1195 49.128C67.0662 48.984 66.9782 48.8747 66.8555 48.8C66.7328 48.7253 66.5702 48.688 66.3675 48.688C66.1488 48.688 65.9542 48.7387 65.7835 48.84C65.6128 48.936 65.4768 49.0693 65.3755 49.24C65.2795 49.4053 65.2315 49.592 65.2315 49.8V52H64.3595ZM71.1742 53.512C70.8542 53.512 70.5369 53.4667 70.2222 53.376C69.9075 53.2907 69.6382 53.168 69.4142 53.008L69.6702 52.344C69.8142 52.4347 69.9689 52.5147 70.1342 52.584C70.2995 52.6533 70.4675 52.704 70.6382 52.736C70.8142 52.7733 70.9822 52.792 71.1422 52.792C71.5529 52.792 71.8675 52.6933 72.0862 52.496C72.3102 52.304 72.4222 52.024 72.4222 51.656V51H72.4062C72.3049 51.256 72.1315 51.4667 71.8862 51.632C71.6409 51.792 71.3555 51.872 71.0302 51.872C70.6622 51.872 70.3395 51.792 70.0622 51.632C69.7849 51.4667 69.5689 51.2373 69.4142 50.944C69.2595 50.6507 69.1822 50.3067 69.1822 49.912C69.1822 49.5227 69.2595 49.1813 69.4142 48.888C69.5689 48.5893 69.7849 48.36 70.0622 48.2C70.3395 48.0347 70.6622 47.952 71.0302 47.952C71.3609 47.952 71.6489 48.0347 71.8942 48.2C72.1395 48.3653 72.3129 48.5867 72.4142 48.864H72.4222V48.032H73.2462V51.584C73.2462 51.984 73.1635 52.328 72.9982 52.616C72.8329 52.904 72.5955 53.1253 72.2862 53.28C71.9769 53.4347 71.6062 53.512 71.1742 53.512ZM71.2222 51.176C71.5795 51.176 71.8622 51.0613 72.0702 50.832C72.2782 50.6027 72.3822 50.296 72.3822 49.912C72.3822 49.5227 72.2782 49.216 72.0702 48.992C71.8622 48.7627 71.5795 48.648 71.2222 48.648C70.8649 48.648 70.5795 48.7627 70.3662 48.992C70.1582 49.216 70.0542 49.5227 70.0542 49.912C70.0542 50.296 70.1582 50.6027 70.3662 50.832C70.5795 51.0613 70.8649 51.176 71.2222 51.176Z" fill="black"/>
<path d="M36 62.06C35.592 62.06 35.234 61.974 34.926 61.802C34.622 61.626 34.386 61.376 34.218 61.052C34.05 60.724 33.966 60.334 33.966 59.882C33.966 59.43 34.05 59.042 34.218 58.718C34.386 58.394 34.622 58.146 34.926 57.974C35.23 57.802 35.588 57.716 36 57.716C36.296 57.716 36.566 57.758 36.81 57.842C37.054 57.922 37.262 58.046 37.434 58.214L37.194 58.742C37.01 58.59 36.824 58.482 36.636 58.418C36.448 58.35 36.242 58.316 36.018 58.316C35.606 58.316 35.278 58.448 35.034 58.712C34.79 58.976 34.668 59.364 34.668 59.876C34.668 60.396 34.788 60.79 35.028 61.058C35.272 61.322 35.602 61.454 36.018 61.454C36.242 61.454 36.448 61.422 36.636 61.358C36.824 61.29 37.01 61.18 37.194 61.028L37.434 61.556C37.262 61.724 37.054 61.85 36.81 61.934C36.566 62.018 36.296 62.06 36 62.06ZM38.374 62V57.77H39.022V59.594H39.058C39.154 59.398 39.294 59.24 39.478 59.12C39.666 59 39.878 58.94 40.114 58.94C40.366 58.94 40.576 58.986 40.744 59.078C40.916 59.17 41.044 59.31 41.128 59.498C41.216 59.682 41.26 59.916 41.26 60.2V62H40.576V60.23C40.576 60.086 40.554 59.962 40.51 59.858C40.47 59.75 40.402 59.668 40.306 59.612C40.214 59.552 40.09 59.522 39.934 59.522C39.766 59.522 39.616 59.56 39.484 59.636C39.352 59.712 39.248 59.814 39.172 59.942C39.096 60.066 39.058 60.204 39.058 60.356V62H38.374ZM43.3849 62.054C43.1649 62.054 42.9669 62.014 42.7909 61.934C42.6189 61.854 42.4829 61.744 42.3829 61.604C42.2829 61.464 42.2329 61.308 42.2329 61.136C42.2329 60.908 42.3009 60.726 42.4369 60.59C42.5729 60.45 42.7769 60.35 43.0489 60.29C43.3209 60.226 43.6629 60.194 44.0749 60.194H44.5609V60.638H44.1169C43.9089 60.638 43.7289 60.646 43.5769 60.662C43.4289 60.674 43.3049 60.696 43.2049 60.728C43.1049 60.76 43.0289 60.806 42.9769 60.866C42.9289 60.926 42.9049 61.002 42.9049 61.094C42.9049 61.246 42.9649 61.358 43.0849 61.43C43.2049 61.502 43.3569 61.538 43.5409 61.538C43.7049 61.538 43.8549 61.5 43.9909 61.424C44.1309 61.348 44.2429 61.25 44.3269 61.13C44.4149 61.006 44.4589 60.874 44.4589 60.734V60.074C44.4589 59.858 44.3889 59.706 44.2489 59.618C44.1089 59.526 43.9049 59.48 43.6369 59.48C43.4649 59.48 43.2909 59.504 43.1149 59.552C42.9389 59.596 42.7529 59.672 42.5569 59.78L42.3589 59.288C42.4989 59.212 42.6429 59.148 42.7909 59.096C42.9429 59.044 43.0989 59.006 43.2589 58.982C43.4229 58.954 43.5889 58.94 43.7569 58.94C44.0249 58.94 44.2609 58.982 44.4649 59.066C44.6729 59.15 44.8349 59.28 44.9509 59.456C45.0669 59.632 45.1249 59.862 45.1249 60.146V62H44.5609V61.376H44.5189C44.4549 61.496 44.3709 61.608 44.2669 61.712C44.1629 61.816 44.0369 61.9 43.8889 61.964C43.7449 62.024 43.5769 62.054 43.3849 62.054ZM46.1963 63.08V58.994H46.8023V59.612H46.8383C46.9383 59.392 47.0823 59.226 47.2703 59.114C47.4623 58.998 47.6823 58.94 47.9303 58.94C48.2143 58.94 48.4603 59.006 48.6683 59.138C48.8803 59.27 49.0423 59.452 49.1543 59.684C49.2663 59.916 49.3223 60.186 49.3223 60.494C49.3223 60.794 49.2663 61.062 49.1543 61.298C49.0463 61.534 48.8883 61.72 48.6803 61.856C48.4723 61.988 48.2243 62.054 47.9363 62.054C47.6923 62.054 47.4843 62 47.3123 61.892C47.1403 61.78 47.0083 61.632 46.9163 61.448H46.8803V63.08H46.1963ZM47.7623 61.508C48.0383 61.508 48.2543 61.416 48.4103 61.232C48.5663 61.048 48.6443 60.8 48.6443 60.488C48.6443 60.18 48.5663 59.936 48.4103 59.756C48.2583 59.576 48.0423 59.486 47.7623 59.486C47.4823 59.486 47.2643 59.576 47.1083 59.756C46.9523 59.936 46.8743 60.18 46.8743 60.488C46.8743 60.8 46.9523 61.048 47.1083 61.232C47.2683 61.416 47.4863 61.508 47.7623 61.508ZM51.5721 62.054C51.1801 62.054 50.8861 61.954 50.6901 61.754C50.4941 61.554 50.3961 61.268 50.3961 60.896V59.564H49.7901V59H50.4381V58.142H51.0741V59H52.1961V59.564H51.0741V60.86C51.0741 61.068 51.1241 61.222 51.2241 61.322C51.3281 61.422 51.4801 61.472 51.6801 61.472C51.7721 61.472 51.8601 61.464 51.9441 61.448C52.0281 61.432 52.1101 61.408 52.1901 61.376L52.2861 61.91C52.1861 61.962 52.0741 61.998 51.9501 62.018C51.8301 62.042 51.7041 62.054 51.5721 62.054ZM54.4943 62.054C54.1343 62.054 53.8243 61.994 53.5643 61.874C53.3083 61.75 53.1123 61.57 52.9763 61.334C52.8443 61.098 52.7783 60.818 52.7783 60.494C52.7783 60.198 52.8383 59.934 52.9583 59.702C53.0823 59.466 53.2603 59.28 53.4923 59.144C53.7243 59.008 54.0023 58.94 54.3263 58.94C54.6303 58.94 54.8903 59.004 55.1063 59.132C55.3223 59.26 55.4863 59.44 55.5983 59.672C55.7143 59.904 55.7723 60.182 55.7723 60.506V60.704H53.3003V60.254H55.2983L55.1903 60.38C55.1903 60.072 55.1143 59.84 54.9623 59.684C54.8143 59.528 54.6043 59.45 54.3323 59.45C54.1563 59.45 54.0003 59.488 53.8643 59.564C53.7283 59.636 53.6203 59.742 53.5403 59.882C53.4643 60.022 53.4263 60.196 53.4263 60.404V60.488C53.4263 60.72 53.4683 60.912 53.5523 61.064C53.6403 61.212 53.7663 61.324 53.9303 61.4C54.0943 61.472 54.2903 61.508 54.5183 61.508C54.6783 61.508 54.8423 61.49 55.0103 61.454C55.1823 61.414 55.3403 61.34 55.4843 61.232L55.6943 61.712C55.5303 61.836 55.3403 61.924 55.1243 61.976C54.9083 62.028 54.6983 62.054 54.4943 62.054ZM56.6787 62V59H57.2727V59.708H57.3087C57.3847 59.496 57.5107 59.322 57.6867 59.186C57.8667 59.05 58.0807 58.976 58.3287 58.964L58.6767 58.94L58.7427 59.576L58.2027 59.618C57.9387 59.642 57.7327 59.732 57.5847 59.888C57.4367 60.04 57.3627 60.224 57.3627 60.44V62H56.6787ZM59.3543 62V61.508L60.8243 59.996C60.9683 59.848 61.0783 59.718 61.1543 59.606C61.2303 59.49 61.2823 59.38 61.3103 59.276C61.3423 59.172 61.3583 59.066 61.3583 58.958C61.3583 58.746 61.2863 58.582 61.1423 58.466C60.9983 58.35 60.8083 58.292 60.5723 58.292C60.3843 58.292 60.1923 58.328 59.9963 58.4C59.8043 58.472 59.6223 58.59 59.4503 58.754L59.2043 58.232C59.3923 58.064 59.6103 57.936 59.8583 57.848C60.1103 57.76 60.3683 57.716 60.6323 57.716C60.9163 57.716 61.1603 57.766 61.3643 57.866C61.5723 57.962 61.7323 58.1 61.8443 58.28C61.9563 58.46 62.0123 58.672 62.0123 58.916C62.0123 59.04 61.9983 59.162 61.9703 59.282C61.9423 59.398 61.8983 59.514 61.8383 59.63C61.7783 59.742 61.7023 59.858 61.6103 59.978C61.5183 60.094 61.4103 60.218 61.2863 60.35L60.2723 61.388V61.424H62.1803V62H59.3543Z" fill="#667085"/>
<defs>
<filter id="filter0_d_8310_820" x="0" y="0" width="96" height="85.8462" filterUnits="userSpaceOnUse" color-interpolation-filters="sRGB">
<feFlood flood-opacity="0" result="BackgroundImageFix"/>
<feColorMatrix in="SourceAlpha" type="matrix" values="0 0 0 0 0 0 0 0 0 0 0 0 0 0 0 0 0 0 127 0" result="hardAlpha"/>
<feOffset dy="4"/>
<feGaussianBlur stdDeviation="2"/>
<feComposite in2="hardAlpha" operator="out"/>
<feColorMatrix type="matrix" values="0 0 0 0 0 0 0 0 0 0 0 0 0 0 0 0 0 0 0.25 0"/>
<feBlend mode="normal" in2="BackgroundImageFix" result="effect1_dropShadow_8310_820"/>
<feBlend mode="normal" in="SourceGraphic" in2="effect1_dropShadow_8310_820" result="shape"/>
</filter>
<clipPath id="clip0_8310_820">
<rect width="30" height="30" fill="white" transform="translate(33 13)"/>
</clipPath>
</defs>
</svg>
