<svg width="102" height="92" viewBox="0 0 102 92" fill="none" xmlns="http://www.w3.org/2000/svg">
<g filter="url(#filter0_d_8310_900)">
<path d="M5.49766 45.8797C4.67727 44.4665 4.2671 43.7594 4.10655 43.0082C3.96448 42.3433 3.96448 41.6565 4.10655 40.9916C4.2671 40.2404 4.67727 39.5333 5.49766 38.1201L25.371 3.87978C26.1914 2.46638 26.6016 1.75968 27.1754 1.2457C27.6832 0.790942 28.2813 0.447387 28.9311 0.237394C29.6655 -2.168e-07 30.4859 0 32.1266 0H71.8732C73.5143 0 74.3343 -2.168e-07 75.069 0.237394C75.7185 0.447387 76.3167 0.790942 76.8247 1.2457C77.3985 1.75968 77.8085 2.46638 78.6291 3.87978L98.5023 38.1201C99.3228 39.5333 99.7328 40.2404 99.8932 40.9916C100.036 41.6565 100.036 42.3433 99.8932 43.0082C99.7328 43.7594 99.3228 44.4665 98.5023 45.8797L78.6291 80.1202C77.8085 81.5334 77.3985 82.24 76.8247 82.7541C76.3167 83.209 75.7185 83.5524 75.069 83.7624C74.3343 84 73.5143 84 71.8732 84H32.1266C30.4859 84 29.6655 84 28.9311 83.7624C28.2813 83.5524 27.6832 83.209 27.1754 82.7541C26.6016 82.24 26.1914 81.5334 25.371 80.1202L5.49766 45.8797Z" fill="white"/>
</g>
<path d="M56.2525 36.7959L56.5876 36.1493C56.694 35.9416 56.7931 35.7375 56.8862 35.5293C57.0689 35.1147 57.2182 34.6937 57.3123 34.2777C57.5036 33.438 57.404 32.6678 56.8935 32.0975C56.3831 31.5157 55.5402 31.1253 54.669 30.8532C52.8142 30.3194 50.9176 29.7254 49.0825 29.0287C48.6218 28.8538 48.1634 28.6721 47.7067 28.4785C47.257 28.2895 46.7694 28.0685 46.3232 27.7694C45.8822 27.4712 45.4197 27.074 45.1809 26.4649C45.0626 26.1654 45.0315 25.8266 45.0713 25.5188C45.1115 25.2102 45.2119 24.9293 45.3366 24.6791C45.596 24.1663 45.9142 23.7965 46.2009 23.3997L47.0936 22.2354L48.8977 19.9313L51.9692 16.0671L49.6277 16C49.6277 16 44.2941 20.9048 41.9134 24.0001C39.8436 26.6904 40.9741 29.0675 44.7183 30.6664C47.8784 32.0166 50.8363 33.0617 50.8363 33.0617C51.3459 33.3256 51.7084 33.7882 51.8289 34.3279C51.9495 34.8681 51.8162 35.4302 51.4632 35.8689L43.3156 46H51.4445L54.9019 39.3866L56.2525 36.7959Z" fill="#F2BB41"/>
<path d="M64.0727 31.2944C62.938 29.3963 60.9957 28.0576 58.7455 27.6224L50.7737 25.9417C50.4413 25.8778 50.1619 25.6668 50.0208 25.3737C49.8797 25.081 49.8948 24.7417 50.0605 24.4609L55.3599 16.164L52.7787 16.0901L49.5154 20.4068L47.7721 22.7482L46.9151 23.9249C46.6393 24.3208 46.3352 24.7121 46.1676 25.0783C45.9891 25.4568 45.9443 25.8175 46.0731 26.117C46.1973 26.4239 46.5009 26.7092 46.8671 26.9385C47.2379 27.1732 47.6457 27.3498 48.0977 27.527C48.5424 27.7028 48.9936 27.8695 49.4479 28.0293C51.2734 28.6708 53.1121 29.1986 55.0143 29.6968C55.9896 29.9872 57.022 30.3762 57.8443 31.2438C58.2452 31.678 58.5443 32.2483 58.6579 32.8386C58.7748 33.4295 58.7365 34.0112 58.6342 34.5491C58.5265 35.0865 58.358 35.5915 58.1603 36.0727C58.0603 36.312 57.9525 36.549 57.842 36.7773L57.5206 37.4361L56.2325 40.0611L53.3097 46.0001H61.5495L64.6662 37.5247C65.4238 35.4636 65.2073 33.1924 64.0727 31.2944Z" fill="#F2BB41"/>
<path d="M19.445 55L17.629 49.36H18.557L19.949 53.928H19.869L21.437 49.36H22.125L23.669 53.936H23.613L25.021 49.36H25.909L24.085 55H23.261L21.757 50.576H21.781L20.245 55H19.445ZM28.4099 55.072C27.9459 55.072 27.5486 54.992 27.2179 54.832C26.8872 54.6667 26.6339 54.4293 26.4579 54.12C26.2819 53.8107 26.1939 53.4427 26.1939 53.016C26.1939 52.616 26.2739 52.2613 26.4339 51.952C26.5992 51.6427 26.8339 51.4 27.1379 51.224C27.4419 51.0427 27.7992 50.952 28.2099 50.952C28.5992 50.952 28.9326 51.0347 29.2099 51.2C29.4872 51.3653 29.7006 51.6 29.8499 51.904C29.9992 52.208 30.0739 52.5707 30.0739 52.992V53.264H26.8739V52.696H29.4739L29.3299 52.84C29.3299 52.4347 29.2339 52.128 29.0419 51.92C28.8499 51.7067 28.5779 51.6 28.2259 51.6C27.9859 51.6 27.7752 51.6533 27.5939 51.76C27.4179 51.8613 27.2792 52.0107 27.1779 52.208C27.0766 52.4 27.0259 52.6347 27.0259 52.912V53C27.0259 53.3093 27.0792 53.5653 27.1859 53.768C27.2979 53.9707 27.4579 54.1227 27.6659 54.224C27.8792 54.3253 28.1352 54.376 28.4339 54.376C28.6526 54.376 28.8712 54.3493 29.0899 54.296C29.3139 54.2373 29.5219 54.1333 29.7139 53.984L29.9859 54.592C29.7779 54.7573 29.5326 54.88 29.2499 54.96C28.9672 55.0347 28.6872 55.072 28.4099 55.072ZM34.9532 55.072C34.6225 55.072 34.3452 55.0133 34.1212 54.896C33.8972 54.7733 33.7265 54.592 33.6092 54.352C33.4972 54.112 33.4412 53.8107 33.4412 53.448V51.032H34.3212V53.416C34.3212 53.6027 34.3478 53.768 34.4012 53.912C34.4598 54.0507 34.5505 54.1573 34.6732 54.232C34.8012 54.3067 34.9665 54.344 35.1692 54.344C35.3718 54.344 35.5558 54.296 35.7212 54.2C35.8865 54.0987 36.0172 53.9653 36.1132 53.8C36.2092 53.6293 36.2572 53.4453 36.2572 53.248V51.032H37.1292V55H36.3212V54.152H36.3292C36.1958 54.44 36.0118 54.6667 35.7772 54.832C35.5478 54.992 35.2732 55.072 34.9532 55.072ZM39.9768 55.072C39.7474 55.072 39.5234 55.0533 39.3048 55.016C39.0914 54.9787 38.8941 54.928 38.7128 54.864C38.5314 54.7947 38.3768 54.7067 38.2488 54.6L38.4968 53.984C38.6354 54.0853 38.7874 54.168 38.9528 54.232C39.1181 54.2907 39.2861 54.3333 39.4568 54.36C39.6274 54.3867 39.7954 54.4 39.9608 54.4C40.2701 54.4 40.5074 54.3573 40.6728 54.272C40.8434 54.1867 40.9288 54.0613 40.9288 53.896C40.9288 53.7573 40.8808 53.6533 40.7848 53.584C40.6888 53.5093 40.5314 53.4533 40.3128 53.416L39.4648 53.28C39.0914 53.216 38.8114 53.088 38.6248 52.896C38.4381 52.704 38.3448 52.464 38.3448 52.176C38.3448 51.9307 38.4114 51.7173 38.5448 51.536C38.6781 51.3547 38.8728 51.2133 39.1288 51.112C39.3848 51.0053 39.6941 50.952 40.0568 50.952C40.2541 50.952 40.4514 50.9707 40.6488 51.008C40.8461 51.0453 41.0274 51.0987 41.1928 51.168C41.3634 51.2373 41.5048 51.3227 41.6168 51.424L41.3528 52.032C41.2408 51.936 41.1128 51.8587 40.9688 51.8C40.8248 51.7413 40.6728 51.6987 40.5128 51.672C40.3581 51.6453 40.2061 51.632 40.0568 51.632C39.7581 51.632 39.5288 51.6773 39.3688 51.768C39.2141 51.8587 39.1368 51.984 39.1368 52.144C39.1368 52.2827 39.1821 52.3893 39.2728 52.464C39.3634 52.5333 39.5074 52.5867 39.7048 52.624L40.5288 52.768C40.9341 52.8373 41.2328 52.9627 41.4248 53.144C41.6168 53.3253 41.7128 53.568 41.7128 53.872C41.7128 54.1173 41.6408 54.3307 41.4968 54.512C41.3581 54.6933 41.1581 54.832 40.8968 54.928C40.6354 55.024 40.3288 55.072 39.9768 55.072ZM44.7771 55.072C44.3131 55.072 43.9158 54.992 43.5851 54.832C43.2544 54.6667 43.0011 54.4293 42.8251 54.12C42.6491 53.8107 42.5611 53.4427 42.5611 53.016C42.5611 52.616 42.6411 52.2613 42.8011 51.952C42.9664 51.6427 43.2011 51.4 43.5051 51.224C43.8091 51.0427 44.1664 50.952 44.5771 50.952C44.9664 50.952 45.2998 51.0347 45.5771 51.2C45.8544 51.3653 46.0678 51.6 46.2171 51.904C46.3664 52.208 46.4411 52.5707 46.4411 52.992V53.264H43.2411V52.696H45.8411L45.6971 52.84C45.6971 52.4347 45.6011 52.128 45.4091 51.92C45.2171 51.7067 44.9451 51.6 44.5931 51.6C44.3531 51.6 44.1424 51.6533 43.9611 51.76C43.7851 51.8613 43.6464 52.0107 43.5451 52.208C43.4438 52.4 43.3931 52.6347 43.3931 52.912V53C43.3931 53.3093 43.4464 53.5653 43.5531 53.768C43.6651 53.9707 43.8251 54.1227 44.0331 54.224C44.2464 54.3253 44.5024 54.376 44.8011 54.376C45.0198 54.376 45.2384 54.3493 45.4571 54.296C45.6811 54.2373 45.8891 54.1333 46.0811 53.984L46.3531 54.592C46.1451 54.7573 45.8998 54.88 45.6171 54.96C45.3344 55.0347 45.0544 55.072 44.7771 55.072ZM51.5923 55.072C51.0803 55.072 50.6963 54.9413 50.4403 54.68C50.1897 54.4187 50.0643 54.0427 50.0643 53.552V51.744H49.2723V51.032H50.0963V49.88H50.9363V51.032H52.3363V51.744H50.9363V53.496C50.9363 53.7787 51.0003 53.9893 51.1283 54.128C51.2617 54.2613 51.4617 54.328 51.7283 54.328C51.835 54.328 51.939 54.3173 52.0403 54.296C52.147 54.2747 52.2483 54.248 52.3443 54.216L52.4723 54.888C52.355 54.952 52.219 54.9973 52.0643 55.024C51.9097 55.056 51.7523 55.072 51.5923 55.072ZM53.2618 55V49.36H54.1018V51.84C54.2245 51.568 54.4085 51.352 54.6538 51.192C54.9045 51.032 55.1898 50.952 55.5098 50.952C55.8352 50.952 56.1072 51.0133 56.3258 51.136C56.5445 51.2533 56.7098 51.4347 56.8218 51.68C56.9338 51.92 56.9898 52.2267 56.9898 52.6V55H56.1098V52.64C56.1098 52.4373 56.0805 52.2667 56.0218 52.128C55.9685 51.984 55.8805 51.8747 55.7578 51.8C55.6352 51.7253 55.4725 51.688 55.2698 51.688C55.0512 51.688 54.8565 51.7387 54.6858 51.84C54.5152 51.936 54.3792 52.0693 54.2778 52.24C54.1818 52.4053 54.1338 52.592 54.1338 52.8V55H53.2618ZM60.3005 55.072C59.8365 55.072 59.4392 54.992 59.1085 54.832C58.7779 54.6667 58.5245 54.4293 58.3485 54.12C58.1725 53.8107 58.0845 53.4427 58.0845 53.016C58.0845 52.616 58.1645 52.2613 58.3245 51.952C58.4899 51.6427 58.7245 51.4 59.0285 51.224C59.3325 51.0427 59.6899 50.952 60.1005 50.952C60.4899 50.952 60.8232 51.0347 61.1005 51.2C61.3779 51.3653 61.5912 51.6 61.7405 51.904C61.8899 52.208 61.9645 52.5707 61.9645 52.992V53.264H58.7645V52.696H61.3645L61.2205 52.84C61.2205 52.4347 61.1245 52.128 60.9325 51.92C60.7405 51.7067 60.4685 51.6 60.1165 51.6C59.8765 51.6 59.6659 51.6533 59.4845 51.76C59.3085 51.8613 59.1699 52.0107 59.0685 52.208C58.9672 52.4 58.9165 52.6347 58.9165 52.912V53C58.9165 53.3093 58.9699 53.5653 59.0765 53.768C59.1885 53.9707 59.3485 54.1227 59.5565 54.224C59.7699 54.3253 60.0259 54.376 60.3245 54.376C60.5432 54.376 60.7619 54.3493 60.9805 54.296C61.2045 54.2373 61.4125 54.1333 61.6045 53.984L61.8765 54.592C61.6685 54.7573 61.4232 54.88 61.1405 54.96C60.8579 55.0347 60.5779 55.072 60.3005 55.072ZM66.8518 55.072C66.6224 55.072 66.3984 55.0533 66.1798 55.016C65.9664 54.9787 65.7691 54.928 65.5878 54.864C65.4064 54.7947 65.2518 54.7067 65.1238 54.6L65.3718 53.984C65.5104 54.0853 65.6624 54.168 65.8278 54.232C65.9931 54.2907 66.1611 54.3333 66.3318 54.36C66.5024 54.3867 66.6704 54.4 66.8358 54.4C67.1451 54.4 67.3824 54.3573 67.5478 54.272C67.7184 54.1867 67.8038 54.0613 67.8038 53.896C67.8038 53.7573 67.7558 53.6533 67.6598 53.584C67.5638 53.5093 67.4064 53.4533 67.1878 53.416L66.3398 53.28C65.9664 53.216 65.6864 53.088 65.4998 52.896C65.3131 52.704 65.2198 52.464 65.2198 52.176C65.2198 51.9307 65.2864 51.7173 65.4198 51.536C65.5531 51.3547 65.7478 51.2133 66.0038 51.112C66.2598 51.0053 66.5691 50.952 66.9318 50.952C67.1291 50.952 67.3264 50.9707 67.5238 51.008C67.7211 51.0453 67.9024 51.0987 68.0678 51.168C68.2384 51.2373 68.3798 51.3227 68.4918 51.424L68.2278 52.032C68.1158 51.936 67.9878 51.8587 67.8438 51.8C67.6998 51.7413 67.5478 51.6987 67.3878 51.672C67.2331 51.6453 67.0811 51.632 66.9318 51.632C66.6331 51.632 66.4038 51.6773 66.2438 51.768C66.0891 51.8587 66.0118 51.984 66.0118 52.144C66.0118 52.2827 66.0571 52.3893 66.1478 52.464C66.2384 52.5333 66.3824 52.5867 66.5798 52.624L67.4038 52.768C67.8091 52.8373 68.1078 52.9627 68.2998 53.144C68.4918 53.3253 68.5878 53.568 68.5878 53.872C68.5878 54.1173 68.5158 54.3307 68.3718 54.512C68.2331 54.6933 68.0331 54.832 67.7718 54.928C67.5104 55.024 67.2038 55.072 66.8518 55.072ZM71.397 55.072C70.885 55.072 70.501 54.9413 70.245 54.68C69.9944 54.4187 69.869 54.0427 69.869 53.552V51.744H69.077V51.032H69.901V49.88H70.741V51.032H72.141V51.744H70.741V53.496C70.741 53.7787 70.805 53.9893 70.933 54.128C71.0664 54.2613 71.2664 54.328 71.533 54.328C71.6397 54.328 71.7437 54.3173 71.845 54.296C71.9517 54.2747 72.053 54.248 72.149 54.216L72.277 54.888C72.1597 54.952 72.0237 54.9973 71.869 55.024C71.7144 55.056 71.557 55.072 71.397 55.072ZM73.0665 55V51.032H73.8505V51.976H73.8585C73.9545 51.6773 74.1172 51.4427 74.3465 51.272C74.5812 51.096 74.8692 50.9973 75.2105 50.976L75.6105 50.944L75.6905 51.744L75.0505 51.8C74.6985 51.8267 74.4265 51.9413 74.2345 52.144C74.0425 52.3413 73.9465 52.5893 73.9465 52.888V55H73.0665ZM78.449 55.072C77.985 55.072 77.5876 54.992 77.257 54.832C76.9263 54.6667 76.673 54.4293 76.497 54.12C76.321 53.8107 76.233 53.4427 76.233 53.016C76.233 52.616 76.313 52.2613 76.473 51.952C76.6383 51.6427 76.873 51.4 77.177 51.224C77.481 51.0427 77.8383 50.952 78.249 50.952C78.6383 50.952 78.9716 51.0347 79.249 51.2C79.5263 51.3653 79.7396 51.6 79.889 51.904C80.0383 52.208 80.113 52.5707 80.113 52.992V53.264H76.913V52.696H79.513L79.369 52.84C79.369 52.4347 79.273 52.128 79.081 51.92C78.889 51.7067 78.617 51.6 78.265 51.6C78.025 51.6 77.8143 51.6533 77.633 51.76C77.457 51.8613 77.3183 52.0107 77.217 52.208C77.1156 52.4 77.065 52.6347 77.065 52.912V53C77.065 53.3093 77.1183 53.5653 77.225 53.768C77.337 53.9707 77.497 54.1227 77.705 54.224C77.9183 54.3253 78.1743 54.376 78.473 54.376C78.6916 54.376 78.9103 54.3493 79.129 54.296C79.353 54.2373 79.561 54.1333 79.753 53.984L80.025 54.592C79.817 54.7573 79.5716 54.88 79.289 54.96C79.0063 55.0347 78.7263 55.072 78.449 55.072ZM83.1912 55.072C82.7272 55.072 82.3298 54.992 81.9992 54.832C81.6685 54.6667 81.4152 54.4293 81.2392 54.12C81.0632 53.8107 80.9752 53.4427 80.9752 53.016C80.9752 52.616 81.0552 52.2613 81.2152 51.952C81.3805 51.6427 81.6152 51.4 81.9192 51.224C82.2232 51.0427 82.5805 50.952 82.9912 50.952C83.3805 50.952 83.7138 51.0347 83.9912 51.2C84.2685 51.3653 84.4818 51.6 84.6312 51.904C84.7805 52.208 84.8552 52.5707 84.8552 52.992V53.264H81.6552V52.696H84.2552L84.1112 52.84C84.1112 52.4347 84.0152 52.128 83.8232 51.92C83.6312 51.7067 83.3592 51.6 83.0072 51.6C82.7672 51.6 82.5565 51.6533 82.3752 51.76C82.1992 51.8613 82.0605 52.0107 81.9592 52.208C81.8578 52.4 81.8072 52.6347 81.8072 52.912V53C81.8072 53.3093 81.8605 53.5653 81.9672 53.768C82.0792 53.9707 82.2392 54.1227 82.4472 54.224C82.6605 54.3253 82.9165 54.376 83.2152 54.376C83.4338 54.376 83.6525 54.3493 83.8712 54.296C84.0952 54.2373 84.3032 54.1333 84.4952 53.984L84.7672 54.592C84.5592 54.7573 84.3138 54.88 84.0312 54.96C83.7485 55.0347 83.4685 55.072 83.1912 55.072ZM87.7095 55.072C87.1975 55.072 86.8135 54.9413 86.5575 54.68C86.3069 54.4187 86.1815 54.0427 86.1815 53.552V51.744H85.3895V51.032H86.2135V49.88H87.0535V51.032H88.4535V51.744H87.0535V53.496C87.0535 53.7787 87.1175 53.9893 87.2455 54.128C87.3789 54.2613 87.5789 54.328 87.8455 54.328C87.9522 54.328 88.0562 54.3173 88.1575 54.296C88.2642 54.2747 88.3655 54.248 88.4615 54.216L88.5895 54.888C88.4722 54.952 88.3362 54.9973 88.1815 55.024C88.0269 55.056 87.8695 55.072 87.7095 55.072Z" fill="black"/>
<path d="M41 65.06C40.592 65.06 40.234 64.974 39.926 64.802C39.622 64.626 39.386 64.376 39.218 64.052C39.05 63.724 38.966 63.334 38.966 62.882C38.966 62.43 39.05 62.042 39.218 61.718C39.386 61.394 39.622 61.146 39.926 60.974C40.23 60.802 40.588 60.716 41 60.716C41.296 60.716 41.566 60.758 41.81 60.842C42.054 60.922 42.262 61.046 42.434 61.214L42.194 61.742C42.01 61.59 41.824 61.482 41.636 61.418C41.448 61.35 41.242 61.316 41.018 61.316C40.606 61.316 40.278 61.448 40.034 61.712C39.79 61.976 39.668 62.364 39.668 62.876C39.668 63.396 39.788 63.79 40.028 64.058C40.272 64.322 40.602 64.454 41.018 64.454C41.242 64.454 41.448 64.422 41.636 64.358C41.824 64.29 42.01 64.18 42.194 64.028L42.434 64.556C42.262 64.724 42.054 64.85 41.81 64.934C41.566 65.018 41.296 65.06 41 65.06ZM43.374 65V60.77H44.022V62.594H44.058C44.154 62.398 44.294 62.24 44.478 62.12C44.666 62 44.878 61.94 45.114 61.94C45.366 61.94 45.576 61.986 45.744 62.078C45.916 62.17 46.044 62.31 46.128 62.498C46.216 62.682 46.26 62.916 46.26 63.2V65H45.576V63.23C45.576 63.086 45.554 62.962 45.51 62.858C45.47 62.75 45.402 62.668 45.306 62.612C45.214 62.552 45.09 62.522 44.934 62.522C44.766 62.522 44.616 62.56 44.484 62.636C44.352 62.712 44.248 62.814 44.172 62.942C44.096 63.066 44.058 63.204 44.058 63.356V65H43.374ZM48.3849 65.054C48.1649 65.054 47.9669 65.014 47.7909 64.934C47.6189 64.854 47.4829 64.744 47.3829 64.604C47.2829 64.464 47.2329 64.308 47.2329 64.136C47.2329 63.908 47.3009 63.726 47.4369 63.59C47.5729 63.45 47.7769 63.35 48.0489 63.29C48.3209 63.226 48.6629 63.194 49.0749 63.194H49.5609V63.638H49.1169C48.9089 63.638 48.7289 63.646 48.5769 63.662C48.4289 63.674 48.3049 63.696 48.2049 63.728C48.1049 63.76 48.0289 63.806 47.9769 63.866C47.9289 63.926 47.9049 64.002 47.9049 64.094C47.9049 64.246 47.9649 64.358 48.0849 64.43C48.2049 64.502 48.3569 64.538 48.5409 64.538C48.7049 64.538 48.8549 64.5 48.9909 64.424C49.1309 64.348 49.2429 64.25 49.3269 64.13C49.4149 64.006 49.4589 63.874 49.4589 63.734V63.074C49.4589 62.858 49.3889 62.706 49.2489 62.618C49.1089 62.526 48.9049 62.48 48.6369 62.48C48.4649 62.48 48.2909 62.504 48.1149 62.552C47.9389 62.596 47.7529 62.672 47.5569 62.78L47.3589 62.288C47.4989 62.212 47.6429 62.148 47.7909 62.096C47.9429 62.044 48.0989 62.006 48.2589 61.982C48.4229 61.954 48.5889 61.94 48.7569 61.94C49.0249 61.94 49.2609 61.982 49.4649 62.066C49.6729 62.15 49.8349 62.28 49.9509 62.456C50.0669 62.632 50.1249 62.862 50.1249 63.146V65H49.5609V64.376H49.5189C49.4549 64.496 49.3709 64.608 49.2669 64.712C49.1629 64.816 49.0369 64.9 48.8889 64.964C48.7449 65.024 48.5769 65.054 48.3849 65.054ZM51.1963 66.08V61.994H51.8023V62.612H51.8383C51.9383 62.392 52.0823 62.226 52.2703 62.114C52.4623 61.998 52.6823 61.94 52.9303 61.94C53.2143 61.94 53.4603 62.006 53.6683 62.138C53.8803 62.27 54.0423 62.452 54.1543 62.684C54.2663 62.916 54.3223 63.186 54.3223 63.494C54.3223 63.794 54.2663 64.062 54.1543 64.298C54.0463 64.534 53.8883 64.72 53.6803 64.856C53.4723 64.988 53.2243 65.054 52.9363 65.054C52.6923 65.054 52.4843 65 52.3123 64.892C52.1403 64.78 52.0083 64.632 51.9163 64.448H51.8803V66.08H51.1963ZM52.7623 64.508C53.0383 64.508 53.2543 64.416 53.4103 64.232C53.5663 64.048 53.6443 63.8 53.6443 63.488C53.6443 63.18 53.5663 62.936 53.4103 62.756C53.2583 62.576 53.0423 62.486 52.7623 62.486C52.4823 62.486 52.2643 62.576 52.1083 62.756C51.9523 62.936 51.8743 63.18 51.8743 63.488C51.8743 63.8 51.9523 64.048 52.1083 64.232C52.2683 64.416 52.4863 64.508 52.7623 64.508ZM56.5721 65.054C56.1801 65.054 55.8861 64.954 55.6901 64.754C55.4941 64.554 55.3961 64.268 55.3961 63.896V62.564H54.7901V62H55.4381V61.142H56.0741V62H57.1961V62.564H56.0741V63.86C56.0741 64.068 56.1241 64.222 56.2241 64.322C56.3281 64.422 56.4801 64.472 56.6801 64.472C56.7721 64.472 56.8601 64.464 56.9441 64.448C57.0281 64.432 57.1101 64.408 57.1901 64.376L57.2861 64.91C57.1861 64.962 57.0741 64.998 56.9501 65.018C56.8301 65.042 56.7041 65.054 56.5721 65.054ZM59.4943 65.054C59.1343 65.054 58.8243 64.994 58.5643 64.874C58.3083 64.75 58.1123 64.57 57.9763 64.334C57.8443 64.098 57.7783 63.818 57.7783 63.494C57.7783 63.198 57.8383 62.934 57.9583 62.702C58.0823 62.466 58.2603 62.28 58.4923 62.144C58.7243 62.008 59.0023 61.94 59.3263 61.94C59.6303 61.94 59.8903 62.004 60.1063 62.132C60.3223 62.26 60.4863 62.44 60.5983 62.672C60.7143 62.904 60.7723 63.182 60.7723 63.506V63.704H58.3003V63.254H60.2983L60.1903 63.38C60.1903 63.072 60.1143 62.84 59.9623 62.684C59.8143 62.528 59.6043 62.45 59.3323 62.45C59.1563 62.45 59.0003 62.488 58.8643 62.564C58.7283 62.636 58.6203 62.742 58.5403 62.882C58.4643 63.022 58.4263 63.196 58.4263 63.404V63.488C58.4263 63.72 58.4683 63.912 58.5523 64.064C58.6403 64.212 58.7663 64.324 58.9303 64.4C59.0943 64.472 59.2903 64.508 59.5183 64.508C59.6783 64.508 59.8423 64.49 60.0103 64.454C60.1823 64.414 60.3403 64.34 60.4843 64.232L60.6943 64.712C60.5303 64.836 60.3403 64.924 60.1243 64.976C59.9083 65.028 59.6983 65.054 59.4943 65.054ZM61.6787 65V62H62.2727V62.708H62.3087C62.3847 62.496 62.5107 62.322 62.6867 62.186C62.8667 62.05 63.0807 61.976 63.3287 61.964L63.6767 61.94L63.7427 62.576L63.2027 62.618C62.9387 62.642 62.7327 62.732 62.5847 62.888C62.4367 63.04 62.3627 63.224 62.3627 63.44V65H61.6787ZM65.6323 65.054C65.4523 65.054 65.2723 65.036 65.0923 65C64.9163 64.968 64.7483 64.916 64.5883 64.844C64.4323 64.768 64.2923 64.674 64.1683 64.562L64.4143 64.04C64.5983 64.2 64.7943 64.314 65.0023 64.382C65.2143 64.446 65.4203 64.478 65.6203 64.478C65.7803 64.478 65.9263 64.456 66.0583 64.412C66.1943 64.368 66.3003 64.298 66.3763 64.202C66.4563 64.102 66.4963 63.972 66.4963 63.812C66.4963 63.592 66.4203 63.426 66.2683 63.314C66.1203 63.198 65.9023 63.14 65.6143 63.14H64.9303V62.576H65.5123C65.6803 62.576 65.8303 62.55 65.9623 62.498C66.0983 62.446 66.2043 62.37 66.2803 62.27C66.3563 62.166 66.3943 62.034 66.3943 61.874C66.3943 61.674 66.3223 61.528 66.1783 61.436C66.0383 61.34 65.8603 61.292 65.6443 61.292C65.4443 61.292 65.2423 61.326 65.0383 61.394C64.8343 61.462 64.6483 61.58 64.4803 61.748L64.2403 61.232C64.4163 61.056 64.6323 60.926 64.8883 60.842C65.1443 60.758 65.4083 60.716 65.6803 60.716C65.9563 60.716 66.1963 60.76 66.4003 60.848C66.6043 60.932 66.7603 61.056 66.8683 61.22C66.9803 61.38 67.0363 61.576 67.0363 61.808C67.0363 62.04 66.9743 62.246 66.8503 62.426C66.7263 62.602 66.5523 62.73 66.3283 62.81V62.846C66.4803 62.878 66.6163 62.938 66.7363 63.026C66.8603 63.11 66.9583 63.222 67.0303 63.362C67.1023 63.498 67.1383 63.658 67.1383 63.842C67.1383 64.102 67.0743 64.322 66.9463 64.502C66.8223 64.682 66.6463 64.82 66.4183 64.916C66.1943 65.008 65.9323 65.054 65.6323 65.054Z" fill="#667085"/>
<defs>
<filter id="filter0_d_8310_900" x="0" y="0" width="104" height="92" filterUnits="userSpaceOnUse" color-interpolation-filters="sRGB">
<feFlood flood-opacity="0" result="BackgroundImageFix"/>
<feColorMatrix in="SourceAlpha" type="matrix" values="0 0 0 0 0 0 0 0 0 0 0 0 0 0 0 0 0 0 127 0" result="hardAlpha"/>
<feOffset dy="4"/>
<feGaussianBlur stdDeviation="2"/>
<feComposite in2="hardAlpha" operator="out"/>
<feColorMatrix type="matrix" values="0 0 0 0 0 0 0 0 0 0 0 0 0 0 0 0 0 0 0.25 0"/>
<feBlend mode="normal" in2="BackgroundImageFix" result="effect1_dropShadow_8310_900"/>
<feBlend mode="normal" in="SourceGraphic" in2="effect1_dropShadow_8310_900" result="shape"/>
</filter>
</defs>
</svg>
