<svg width="96" height="86" viewBox="0 0 96 86" fill="none" xmlns="http://www.w3.org/2000/svg">
<g filter="url(#filter0_d_8310_972)">
<path d="M5.37285 42.5185C4.62083 41.2089 4.24484 40.5536 4.09767 39.8574C3.96744 39.2412 3.96744 38.6048 4.09767 37.9886C4.24484 37.2924 4.62083 36.6371 5.37285 35.3274L23.5901 3.59555C24.3421 2.28569 24.7181 1.63076 25.2442 1.15444C25.7096 0.732998 26.2579 0.414612 26.8535 0.220002C27.5267 -2.00917e-07 28.2787 0 29.7827 0H66.2171C67.7214 0 68.4731 -2.00917e-07 69.1466 0.220002C69.7419 0.414612 70.2903 0.732998 70.756 1.15444C71.282 1.63076 71.6578 2.28569 72.41 3.59555L90.6271 35.3274C91.3792 36.6371 91.7551 37.2924 91.9021 37.9886C92.0326 38.6048 92.0326 39.2412 91.9021 39.8574C91.7551 40.5536 91.3792 41.2089 90.6271 42.5185L72.41 74.2506C71.6578 75.5603 71.282 76.2151 70.756 76.6915C70.2903 77.1131 69.7419 77.4313 69.1466 77.6259C68.4731 77.8462 67.7214 77.8462 66.2171 77.8462H29.7827C28.2787 77.8462 27.5267 77.8462 26.8535 77.6259C26.2579 77.4313 25.7096 77.1131 25.2442 76.6915C24.7181 76.2151 24.3421 75.5603 23.5901 74.2506L5.37285 42.5185Z" fill="white"/>
</g>
<path d="M58.2051 15.5H38.2051C36.8244 15.5 35.7051 16.6193 35.7051 18V38C35.7051 39.3807 36.8244 40.5 38.2051 40.5H58.2051C59.5858 40.5 60.7051 39.3807 60.7051 38V18C60.7051 16.6193 59.5858 15.5 58.2051 15.5Z" fill="#F2BB41"/>
<path d="M54.4551 29.2499H45.7051V26.0124L46.0676 26.3874C46.1838 26.5046 46.322 26.5976 46.4743 26.661C46.6267 26.7245 46.7901 26.7572 46.9551 26.7572C47.1201 26.7572 47.2835 26.7245 47.4358 26.661C47.5881 26.5976 47.7264 26.5046 47.8426 26.3874C47.9597 26.2712 48.0527 26.133 48.1162 25.9806C48.1796 25.8283 48.2123 25.6649 48.2123 25.4999C48.2123 25.3349 48.1796 25.1715 48.1162 25.0192C48.0527 24.8669 47.9597 24.7286 47.8426 24.6124L45.3426 22.1124C45.2264 21.9953 45.0881 21.9023 44.9358 21.8388C44.7835 21.7753 44.6201 21.7427 44.4551 21.7427C44.2901 21.7427 44.1267 21.7753 43.9743 21.8388C43.822 21.9023 43.6838 21.9953 43.5676 22.1124L41.0676 24.6124C40.951 24.729 40.8586 24.8673 40.7955 25.0196C40.7324 25.1719 40.7 25.3351 40.7 25.4999C40.7 25.8328 40.8322 26.152 41.0676 26.3874C41.3029 26.6228 41.6222 26.755 41.9551 26.755C42.2879 26.755 42.6072 26.6228 42.8426 26.3874L43.2051 26.0124V29.2499C43.2051 29.913 43.4685 30.5488 43.9373 31.0177C44.4061 31.4865 45.042 31.7499 45.7051 31.7499H54.4551C54.7866 31.7499 55.1045 31.6182 55.3389 31.3838C55.5734 31.1494 55.7051 30.8314 55.7051 30.4999C55.7051 30.1684 55.5734 29.8505 55.3389 29.616C55.1045 29.3816 54.7866 29.2499 54.4551 29.2499Z" fill="#E08838"/>
<path d="M34.1306 52L32.3146 46.36H33.2426L34.6346 50.928H34.5546L36.1226 46.36H36.8106L38.3546 50.936H38.2986L39.7066 46.36H40.5946L38.7706 52H37.9466L36.4426 47.576H36.4666L34.9306 52H34.1306ZM43.0955 52.072C42.6315 52.072 42.2342 51.992 41.9035 51.832C41.5728 51.6667 41.3195 51.4293 41.1435 51.12C40.9675 50.8107 40.8795 50.4427 40.8795 50.016C40.8795 49.616 40.9595 49.2613 41.1195 48.952C41.2848 48.6427 41.5195 48.4 41.8235 48.224C42.1275 48.0427 42.4848 47.952 42.8955 47.952C43.2848 47.952 43.6182 48.0347 43.8955 48.2C44.1728 48.3653 44.3862 48.6 44.5355 48.904C44.6848 49.208 44.7595 49.5707 44.7595 49.992V50.264H41.5595V49.696H44.1595L44.0155 49.84C44.0155 49.4347 43.9195 49.128 43.7275 48.92C43.5355 48.7067 43.2635 48.6 42.9115 48.6C42.6715 48.6 42.4608 48.6533 42.2795 48.76C42.1035 48.8613 41.9648 49.0107 41.8635 49.208C41.7622 49.4 41.7115 49.6347 41.7115 49.912V50C41.7115 50.3093 41.7648 50.5653 41.8715 50.768C41.9835 50.9707 42.1435 51.1227 42.3515 51.224C42.5648 51.3253 42.8208 51.376 43.1195 51.376C43.3382 51.376 43.5568 51.3493 43.7755 51.296C43.9995 51.2373 44.2075 51.1333 44.3995 50.984L44.6715 51.592C44.4635 51.7573 44.2182 51.88 43.9355 51.96C43.6528 52.0347 43.3728 52.072 43.0955 52.072ZM49.9108 52.072C49.3988 52.072 49.0148 51.9413 48.7588 51.68C48.5081 51.4187 48.3828 51.0427 48.3828 50.552V48.744H47.5908V48.032H48.4148V46.88H49.2548V48.032H50.6548V48.744H49.2548V50.496C49.2548 50.7787 49.3188 50.9893 49.4468 51.128C49.5801 51.2613 49.7801 51.328 50.0468 51.328C50.1534 51.328 50.2574 51.3173 50.3588 51.296C50.4654 51.2747 50.5668 51.248 50.6628 51.216L50.7908 51.888C50.6734 51.952 50.5374 51.9973 50.3828 52.024C50.2281 52.056 50.0708 52.072 49.9108 52.072ZM53.0763 52.072C52.7456 52.072 52.4683 52.0133 52.2443 51.896C52.0203 51.7733 51.8496 51.592 51.7323 51.352C51.6203 51.112 51.5643 50.8107 51.5643 50.448V48.032H52.4443V50.416C52.4443 50.6027 52.4709 50.768 52.5243 50.912C52.5829 51.0507 52.6736 51.1573 52.7963 51.232C52.9243 51.3067 53.0896 51.344 53.2923 51.344C53.4949 51.344 53.6789 51.296 53.8443 51.2C54.0096 51.0987 54.1403 50.9653 54.2363 50.8C54.3323 50.6293 54.3803 50.4453 54.3803 50.248V48.032H55.2523V52H54.4443V51.152H54.4523C54.3189 51.44 54.1349 51.6667 53.9003 51.832C53.6709 51.992 53.3963 52.072 53.0763 52.072ZM56.5959 52V48.032H57.3799V48.976H57.3879C57.4839 48.6773 57.6465 48.4427 57.8759 48.272C58.1105 48.096 58.3985 47.9973 58.7399 47.976L59.1399 47.944L59.2199 48.744L58.5799 48.8C58.2279 48.8267 57.9559 48.9413 57.7639 49.144C57.5719 49.3413 57.4759 49.5893 57.4759 49.888V52H56.5959ZM60.049 52V48.032H60.857V48.864H60.865C60.993 48.576 61.1823 48.352 61.433 48.192C61.689 48.032 61.977 47.952 62.297 47.952C62.6223 47.952 62.8943 48.0133 63.113 48.136C63.337 48.2533 63.5023 48.4347 63.609 48.68C63.721 48.92 63.777 49.2267 63.777 49.6V52H62.897V49.64C62.897 49.4373 62.8677 49.2667 62.809 49.128C62.7557 48.984 62.6677 48.8747 62.545 48.8C62.4223 48.7253 62.2597 48.688 62.057 48.688C61.8383 48.688 61.6437 48.7387 61.473 48.84C61.3023 48.936 61.1663 49.0693 61.065 49.24C60.969 49.4053 60.921 49.592 60.921 49.8V52H60.049Z" fill="black"/>
<path d="M35.3145 62.06C34.9065 62.06 34.5485 61.974 34.2405 61.802C33.9365 61.626 33.7005 61.376 33.5325 61.052C33.3645 60.724 33.2805 60.334 33.2805 59.882C33.2805 59.43 33.3645 59.042 33.5325 58.718C33.7005 58.394 33.9365 58.146 34.2405 57.974C34.5445 57.802 34.9025 57.716 35.3145 57.716C35.6105 57.716 35.8805 57.758 36.1245 57.842C36.3685 57.922 36.5765 58.046 36.7485 58.214L36.5085 58.742C36.3245 58.59 36.1385 58.482 35.9505 58.418C35.7625 58.35 35.5565 58.316 35.3325 58.316C34.9205 58.316 34.5925 58.448 34.3485 58.712C34.1045 58.976 33.9825 59.364 33.9825 59.876C33.9825 60.396 34.1025 60.79 34.3425 61.058C34.5865 61.322 34.9165 61.454 35.3325 61.454C35.5565 61.454 35.7625 61.422 35.9505 61.358C36.1385 61.29 36.3245 61.18 36.5085 61.028L36.7485 61.556C36.5765 61.724 36.3685 61.85 36.1245 61.934C35.8805 62.018 35.6105 62.06 35.3145 62.06ZM37.6885 62V57.77H38.3365V59.594H38.3725C38.4685 59.398 38.6085 59.24 38.7925 59.12C38.9805 59 39.1925 58.94 39.4285 58.94C39.6805 58.94 39.8905 58.986 40.0585 59.078C40.2305 59.17 40.3585 59.31 40.4425 59.498C40.5305 59.682 40.5745 59.916 40.5745 60.2V62H39.8905V60.23C39.8905 60.086 39.8685 59.962 39.8245 59.858C39.7845 59.75 39.7165 59.668 39.6205 59.612C39.5285 59.552 39.4045 59.522 39.2485 59.522C39.0805 59.522 38.9305 59.56 38.7985 59.636C38.6665 59.712 38.5625 59.814 38.4865 59.942C38.4105 60.066 38.3725 60.204 38.3725 60.356V62H37.6885ZM42.6994 62.054C42.4794 62.054 42.2814 62.014 42.1054 61.934C41.9334 61.854 41.7974 61.744 41.6974 61.604C41.5974 61.464 41.5474 61.308 41.5474 61.136C41.5474 60.908 41.6154 60.726 41.7514 60.59C41.8874 60.45 42.0914 60.35 42.3634 60.29C42.6354 60.226 42.9774 60.194 43.3894 60.194H43.8754V60.638H43.4314C43.2234 60.638 43.0434 60.646 42.8914 60.662C42.7434 60.674 42.6194 60.696 42.5194 60.728C42.4194 60.76 42.3434 60.806 42.2914 60.866C42.2434 60.926 42.2194 61.002 42.2194 61.094C42.2194 61.246 42.2794 61.358 42.3994 61.43C42.5194 61.502 42.6714 61.538 42.8554 61.538C43.0194 61.538 43.1694 61.5 43.3054 61.424C43.4454 61.348 43.5574 61.25 43.6414 61.13C43.7294 61.006 43.7734 60.874 43.7734 60.734V60.074C43.7734 59.858 43.7034 59.706 43.5634 59.618C43.4234 59.526 43.2194 59.48 42.9514 59.48C42.7794 59.48 42.6054 59.504 42.4294 59.552C42.2534 59.596 42.0674 59.672 41.8714 59.78L41.6734 59.288C41.8134 59.212 41.9574 59.148 42.1054 59.096C42.2574 59.044 42.4134 59.006 42.5734 58.982C42.7374 58.954 42.9034 58.94 43.0714 58.94C43.3394 58.94 43.5754 58.982 43.7794 59.066C43.9874 59.15 44.1494 59.28 44.2654 59.456C44.3814 59.632 44.4394 59.862 44.4394 60.146V62H43.8754V61.376H43.8334C43.7694 61.496 43.6854 61.608 43.5814 61.712C43.4774 61.816 43.3514 61.9 43.2034 61.964C43.0594 62.024 42.8914 62.054 42.6994 62.054ZM45.5108 63.08V58.994H46.1168V59.612H46.1528C46.2528 59.392 46.3968 59.226 46.5848 59.114C46.7768 58.998 46.9968 58.94 47.2448 58.94C47.5288 58.94 47.7748 59.006 47.9828 59.138C48.1948 59.27 48.3568 59.452 48.4688 59.684C48.5808 59.916 48.6368 60.186 48.6368 60.494C48.6368 60.794 48.5808 61.062 48.4688 61.298C48.3608 61.534 48.2028 61.72 47.9948 61.856C47.7868 61.988 47.5388 62.054 47.2508 62.054C47.0068 62.054 46.7988 62 46.6268 61.892C46.4548 61.78 46.3228 61.632 46.2308 61.448H46.1948V63.08H45.5108ZM47.0768 61.508C47.3528 61.508 47.5688 61.416 47.7248 61.232C47.8808 61.048 47.9588 60.8 47.9588 60.488C47.9588 60.18 47.8808 59.936 47.7248 59.756C47.5728 59.576 47.3568 59.486 47.0768 59.486C46.7968 59.486 46.5788 59.576 46.4228 59.756C46.2668 59.936 46.1888 60.18 46.1888 60.488C46.1888 60.8 46.2668 61.048 46.4228 61.232C46.5828 61.416 46.8008 61.508 47.0768 61.508ZM50.8866 62.054C50.4946 62.054 50.2006 61.954 50.0046 61.754C49.8086 61.554 49.7106 61.268 49.7106 60.896V59.564H49.1046V59H49.7526V58.142H50.3886V59H51.5106V59.564H50.3886V60.86C50.3886 61.068 50.4386 61.222 50.5386 61.322C50.6426 61.422 50.7946 61.472 50.9946 61.472C51.0866 61.472 51.1746 61.464 51.2586 61.448C51.3426 61.432 51.4246 61.408 51.5046 61.376L51.6006 61.91C51.5006 61.962 51.3886 61.998 51.2646 62.018C51.1446 62.042 51.0186 62.054 50.8866 62.054ZM53.8088 62.054C53.4488 62.054 53.1388 61.994 52.8788 61.874C52.6228 61.75 52.4268 61.57 52.2908 61.334C52.1588 61.098 52.0928 60.818 52.0928 60.494C52.0928 60.198 52.1528 59.934 52.2728 59.702C52.3968 59.466 52.5748 59.28 52.8068 59.144C53.0388 59.008 53.3168 58.94 53.6408 58.94C53.9448 58.94 54.2048 59.004 54.4208 59.132C54.6368 59.26 54.8008 59.44 54.9128 59.672C55.0288 59.904 55.0868 60.182 55.0868 60.506V60.704H52.6148V60.254H54.6128L54.5048 60.38C54.5048 60.072 54.4288 59.84 54.2768 59.684C54.1288 59.528 53.9188 59.45 53.6468 59.45C53.4708 59.45 53.3148 59.488 53.1788 59.564C53.0428 59.636 52.9348 59.742 52.8548 59.882C52.7788 60.022 52.7408 60.196 52.7408 60.404V60.488C52.7408 60.72 52.7828 60.912 52.8668 61.064C52.9548 61.212 53.0808 61.324 53.2448 61.4C53.4088 61.472 53.6048 61.508 53.8328 61.508C53.9928 61.508 54.1568 61.49 54.3248 61.454C54.4968 61.414 54.6548 61.34 54.7988 61.232L55.0088 61.712C54.8448 61.836 54.6548 61.924 54.4388 61.976C54.2228 62.028 54.0128 62.054 53.8088 62.054ZM55.9932 62V59H56.5872V59.708H56.6232C56.6992 59.496 56.8252 59.322 57.0012 59.186C57.1812 59.05 57.3952 58.976 57.6432 58.964L57.9912 58.94L58.0572 59.576L57.5172 59.618C57.2532 59.642 57.0472 59.732 56.8992 59.888C56.7512 60.04 56.6772 60.224 56.6772 60.44V62H55.9932ZM62.244 62V61.166H60.282V60.68L62.154 57.77H62.862V60.632H63.408V61.166H62.862V62H62.244ZM62.274 60.632V58.586H62.244L60.876 60.716L60.792 60.632H62.274Z" fill="#667085"/>
<defs>
<filter id="filter0_d_8310_972" x="0" y="0" width="96" height="85.8462" filterUnits="userSpaceOnUse" color-interpolation-filters="sRGB">
<feFlood flood-opacity="0" result="BackgroundImageFix"/>
<feColorMatrix in="SourceAlpha" type="matrix" values="0 0 0 0 0 0 0 0 0 0 0 0 0 0 0 0 0 0 127 0" result="hardAlpha"/>
<feOffset dy="4"/>
<feGaussianBlur stdDeviation="2"/>
<feComposite in2="hardAlpha" operator="out"/>
<feColorMatrix type="matrix" values="0 0 0 0 0 0 0 0 0 0 0 0 0 0 0 0 0 0 0.25 0"/>
<feBlend mode="normal" in2="BackgroundImageFix" result="effect1_dropShadow_8310_972"/>
<feBlend mode="normal" in="SourceGraphic" in2="effect1_dropShadow_8310_972" result="shape"/>
</filter>
</defs>
</svg>
