<svg width="96" height="86" viewBox="0 0 96 86" fill="none" xmlns="http://www.w3.org/2000/svg">
<g filter="url(#filter0_d_8310_691)">
<path d="M5.37285 42.5185C4.62083 41.2089 4.24484 40.5536 4.09767 39.8574C3.96744 39.2412 3.96744 38.6048 4.09767 37.9886C4.24484 37.2924 4.62083 36.6371 5.37285 35.3274L23.5901 3.59555C24.3421 2.28569 24.7181 1.63076 25.2442 1.15444C25.7096 0.732998 26.2579 0.414612 26.8535 0.220002C27.5267 -2.00917e-07 28.2787 0 29.7827 0H66.2171C67.7214 0 68.4731 -2.00917e-07 69.1466 0.220002C69.7419 0.414612 70.2903 0.732998 70.756 1.15444C71.282 1.63076 71.6578 2.28569 72.41 3.59555L90.6271 35.3274C91.3792 36.6371 91.7551 37.2924 91.9021 37.9886C92.0326 38.6048 92.0326 39.2412 91.9021 39.8574C91.7551 40.5536 91.3792 41.2089 90.6271 42.5185L72.41 74.2506C71.6578 75.5603 71.282 76.2151 70.756 76.6915C70.2903 77.1131 69.7419 77.4313 69.1466 77.6259C68.4731 77.8462 67.7214 77.8462 66.2171 77.8462H29.7827C28.2787 77.8462 27.5267 77.8462 26.8535 77.6259C26.2579 77.4313 25.7096 77.1131 25.2442 76.6915C24.7181 76.2151 24.3421 75.5603 23.5901 74.2506L5.37285 42.5185Z" fill="white"/>
</g>
<path d="M52.2051 18.5H41.2051C40.1051 18.5 39.2051 19.4 39.2051 20.5V40.5C39.2051 41.6 40.1051 42.5 41.2051 42.5H55.2051C56.3051 42.5 57.2051 41.6 57.2051 40.5V23.5L52.2051 18.5Z" fill="#F2BB41" stroke="#F2BB41" stroke-width="2" stroke-miterlimit="10" stroke-linecap="round" stroke-linejoin="round"/>
<path d="M52.2051 18.5V23.5H57.2051L52.2051 18.5Z" fill="#E08838" stroke="#E08838" stroke-width="2" stroke-miterlimit="10" stroke-linecap="round" stroke-linejoin="round"/>
<path d="M26.4548 58.5V50.04H29.9588C30.8708 50.04 31.5748 50.256 32.0708 50.688C32.5668 51.12 32.8148 51.732 32.8148 52.524C32.8148 53.036 32.7028 53.476 32.4788 53.844C32.2548 54.212 31.9268 54.492 31.4948 54.684C31.0708 54.876 30.5588 54.972 29.9588 54.972L30.0668 54.804H30.3788C30.6988 54.804 30.9748 54.884 31.2068 55.044C31.4468 55.204 31.6628 55.46 31.8548 55.812L33.3188 58.5H31.9508L30.4868 55.8C30.3748 55.592 30.2508 55.432 30.1148 55.32C29.9868 55.2 29.8348 55.12 29.6588 55.08C29.4908 55.032 29.2908 55.008 29.0588 55.008H27.7028V58.5H26.4548ZM27.7028 54.072H29.7548C30.3628 54.072 30.8228 53.944 31.1348 53.688C31.4468 53.432 31.6028 53.052 31.6028 52.548C31.6028 52.052 31.4468 51.676 31.1348 51.42C30.8228 51.164 30.3628 51.036 29.7548 51.036H27.7028V54.072ZM37.0512 58.608C36.4112 58.608 35.8592 58.488 35.3952 58.248C34.9392 58 34.5832 57.652 34.3272 57.204C34.0792 56.748 33.9552 56.208 33.9552 55.584C33.9552 54.976 34.0792 54.444 34.3272 53.988C34.5752 53.532 34.9152 53.176 35.3472 52.92C35.7792 52.664 36.2712 52.536 36.8232 52.536C37.3672 52.536 37.8312 52.656 38.2152 52.896C38.6072 53.128 38.9072 53.46 39.1152 53.892C39.3232 54.324 39.4272 54.84 39.4272 55.44V55.848H34.9152V55.104H38.6112L38.4072 55.272C38.4072 54.672 38.2752 54.208 38.0112 53.88C37.7472 53.552 37.3672 53.388 36.8712 53.388C36.4952 53.388 36.1752 53.476 35.9112 53.652C35.6552 53.828 35.4592 54.072 35.3232 54.384C35.1872 54.696 35.1192 55.06 35.1192 55.476V55.548C35.1192 56.012 35.1912 56.404 35.3352 56.724C35.4872 57.036 35.7072 57.272 35.9952 57.432C36.2832 57.592 36.6392 57.672 37.0632 57.672C37.3992 57.672 37.7272 57.62 38.0472 57.516C38.3752 57.404 38.6832 57.232 38.9712 57L39.3312 57.84C39.0672 58.08 38.7272 58.268 38.3112 58.404C37.8952 58.54 37.4752 58.608 37.0512 58.608ZM43.4005 60.768C42.8725 60.768 42.3805 60.704 41.9245 60.576C41.4685 60.448 41.0645 60.256 40.7125 60L41.0845 59.136C41.3165 59.288 41.5525 59.416 41.7925 59.52C42.0405 59.632 42.2885 59.712 42.5365 59.76C42.7925 59.808 43.0525 59.832 43.3165 59.832C43.8765 59.832 44.2965 59.688 44.5765 59.4C44.8565 59.12 44.9965 58.704 44.9965 58.152V56.928H45.1045C44.9845 57.368 44.7325 57.716 44.3485 57.972C43.9645 58.228 43.5205 58.356 43.0165 58.356C42.4885 58.356 42.0285 58.236 41.6365 57.996C41.2445 57.748 40.9405 57.408 40.7245 56.976C40.5085 56.536 40.4005 56.024 40.4005 55.44C40.4005 54.856 40.5085 54.348 40.7245 53.916C40.9405 53.484 41.2445 53.148 41.6365 52.908C42.0285 52.66 42.4885 52.536 43.0165 52.536C43.5285 52.536 43.9725 52.664 44.3485 52.92C44.7325 53.176 44.9805 53.524 45.0925 53.964H44.9965V52.644H46.1725V58.008C46.1725 58.616 46.0685 59.124 45.8605 59.532C45.6525 59.948 45.3405 60.256 44.9245 60.456C44.5165 60.664 44.0085 60.768 43.4005 60.768ZM43.3045 57.408C43.8245 57.408 44.2325 57.232 44.5285 56.88C44.8325 56.528 44.9845 56.048 44.9845 55.44C44.9845 54.84 44.8325 54.364 44.5285 54.012C44.2325 53.66 43.8245 53.484 43.3045 53.484C42.7925 53.484 42.3845 53.66 42.0805 54.012C41.7765 54.364 41.6245 54.84 41.6245 55.44C41.6245 56.048 41.7765 56.528 42.0805 56.88C42.3845 57.232 42.7925 57.408 43.3045 57.408ZM47.7655 51.288V50.028H49.1815V51.288H47.7655ZM47.8735 58.5V52.644H49.0855V58.5H47.8735ZM52.8435 58.608C52.5315 58.608 52.2275 58.58 51.9315 58.524C51.6355 58.468 51.3635 58.388 51.1155 58.284C50.8675 58.18 50.6475 58.052 50.4555 57.9L50.8035 57.084C51.0035 57.22 51.2155 57.34 51.4395 57.444C51.6635 57.54 51.8955 57.612 52.1355 57.66C52.3835 57.708 52.6235 57.732 52.8555 57.732C53.2795 57.732 53.5995 57.656 53.8155 57.504C54.0315 57.352 54.1395 57.148 54.1395 56.892C54.1395 56.684 54.0675 56.524 53.9235 56.412C53.7795 56.292 53.5635 56.2 53.2755 56.136L52.1355 55.908C51.6395 55.804 51.2635 55.62 51.0075 55.356C50.7515 55.092 50.6235 54.756 50.6235 54.348C50.6235 53.98 50.7235 53.66 50.9235 53.388C51.1235 53.116 51.4035 52.908 51.7635 52.764C52.1235 52.612 52.5395 52.536 53.0115 52.536C53.2835 52.536 53.5475 52.564 53.8035 52.62C54.0595 52.676 54.2995 52.756 54.5235 52.86C54.7555 52.964 54.9515 53.096 55.1115 53.256L54.7635 54.072C54.6115 53.936 54.4355 53.82 54.2355 53.724C54.0435 53.628 53.8435 53.556 53.6355 53.508C53.4275 53.452 53.2195 53.424 53.0115 53.424C52.5875 53.424 52.2675 53.504 52.0515 53.664C51.8435 53.816 51.7395 54.024 51.7395 54.288C51.7395 54.488 51.8035 54.652 51.9315 54.78C52.0595 54.908 52.2595 55 52.5315 55.056L53.6715 55.284C54.1915 55.388 54.5835 55.564 54.8475 55.812C55.1195 56.06 55.2555 56.396 55.2555 56.82C55.2555 57.188 55.1555 57.508 54.9555 57.78C54.7555 58.052 54.4715 58.26 54.1035 58.404C53.7435 58.54 53.3235 58.608 52.8435 58.608ZM59.0414 58.608C58.3134 58.608 57.7654 58.42 57.3974 58.044C57.0374 57.668 56.8574 57.124 56.8574 56.412V53.58H55.7174V52.644H56.8574V50.88H58.0694V52.644H59.8814V53.58H58.0694V56.316C58.0694 56.74 58.1574 57.06 58.3334 57.276C58.5174 57.492 58.8134 57.6 59.2214 57.6C59.3414 57.6 59.4614 57.584 59.5814 57.552C59.7094 57.52 59.8334 57.488 59.9534 57.456L60.1454 58.368C60.0254 58.44 59.8574 58.496 59.6414 58.536C59.4334 58.584 59.2334 58.608 59.0414 58.608ZM63.6176 58.608C62.9776 58.608 62.4256 58.488 61.9616 58.248C61.5056 58 61.1496 57.652 60.8936 57.204C60.6456 56.748 60.5216 56.208 60.5216 55.584C60.5216 54.976 60.6456 54.444 60.8936 53.988C61.1416 53.532 61.4816 53.176 61.9136 52.92C62.3456 52.664 62.8376 52.536 63.3896 52.536C63.9336 52.536 64.3976 52.656 64.7816 52.896C65.1736 53.128 65.4736 53.46 65.6816 53.892C65.8896 54.324 65.9936 54.84 65.9936 55.44V55.848H61.4816V55.104H65.1776L64.9736 55.272C64.9736 54.672 64.8416 54.208 64.5776 53.88C64.3136 53.552 63.9336 53.388 63.4376 53.388C63.0616 53.388 62.7416 53.476 62.4776 53.652C62.2216 53.828 62.0256 54.072 61.8896 54.384C61.7536 54.696 61.6856 55.06 61.6856 55.476V55.548C61.6856 56.012 61.7576 56.404 61.9016 56.724C62.0536 57.036 62.2736 57.272 62.5616 57.432C62.8496 57.592 63.2056 57.672 63.6296 57.672C63.9656 57.672 64.2936 57.62 64.6136 57.516C64.9416 57.404 65.2496 57.232 65.5376 57L65.8976 57.84C65.6336 58.08 65.2936 58.268 64.8776 58.404C64.4616 58.54 64.0416 58.608 63.6176 58.608ZM67.3149 58.5V52.644H68.4909V54.048H68.3709C68.4989 53.568 68.7269 53.204 69.0549 52.956C69.3909 52.708 69.8349 52.564 70.3869 52.524L70.7829 52.5L70.8669 53.532L70.1349 53.604C69.6149 53.652 69.2189 53.816 68.9469 54.096C68.6749 54.376 68.5389 54.76 68.5389 55.248V58.5H67.3149Z" fill="black"/>
<defs>
<filter id="filter0_d_8310_691" x="0" y="0" width="96" height="85.8462" filterUnits="userSpaceOnUse" color-interpolation-filters="sRGB">
<feFlood flood-opacity="0" result="BackgroundImageFix"/>
<feColorMatrix in="SourceAlpha" type="matrix" values="0 0 0 0 0 0 0 0 0 0 0 0 0 0 0 0 0 0 127 0" result="hardAlpha"/>
<feOffset dy="4"/>
<feGaussianBlur stdDeviation="2"/>
<feComposite in2="hardAlpha" operator="out"/>
<feColorMatrix type="matrix" values="0 0 0 0 0 0 0 0 0 0 0 0 0 0 0 0 0 0 0.25 0"/>
<feBlend mode="normal" in2="BackgroundImageFix" result="effect1_dropShadow_8310_691"/>
<feBlend mode="normal" in="SourceGraphic" in2="effect1_dropShadow_8310_691" result="shape"/>
</filter>
</defs>
</svg>
