<svg width="102" height="86" viewBox="0 0 102 86" fill="none" xmlns="http://www.w3.org/2000/svg">
<g filter="url(#filter0_d_8334_734)">
<path d="M5.45148 42.5206C4.65639 41.2109 4.25887 40.5556 4.10327 39.8593C3.96558 39.2431 3.96558 38.6067 4.10327 37.9905C4.25887 37.2942 4.65639 36.6389 5.45148 35.3292L24.7122 3.59573C25.5072 2.2858 25.9047 1.63084 26.4609 1.1545C26.953 0.733034 27.5327 0.414632 28.1625 0.220013C28.8742 -2.00927e-07 29.6693 0 31.2595 0H69.7806C71.3711 0 72.1659 -2.00927e-07 72.8779 0.220013C73.5073 0.414632 74.0871 0.733034 74.5794 1.1545C75.1356 1.63084 75.533 2.2858 76.3282 3.59573L95.5887 35.3292C96.3839 36.6389 96.7813 37.2942 96.9368 37.9905C97.0747 38.6067 97.0747 39.2431 96.9368 39.8593C96.7813 40.5556 96.3839 41.2109 95.5887 42.5206L76.3282 74.2543C75.533 75.564 75.1356 76.2189 74.5794 76.6953C74.0871 77.1169 73.5073 77.4351 72.8779 77.6298C72.1659 77.85 71.3711 77.85 69.7806 77.85H31.2595C29.6693 77.85 28.8742 77.85 28.1625 77.6298C27.5327 77.4351 26.953 77.1169 26.4609 76.6953C25.9047 76.2189 25.5072 75.564 24.7122 74.2543L5.45148 42.5206Z" fill="white"/>
</g>
<path d="M60.9148 10.8521H41.9502C41.7451 10.8527 41.5486 10.9345 41.4035 11.0796C41.2585 11.2246 41.1767 11.4211 41.176 11.6262V34.6924C41.1769 34.897 41.259 35.0928 41.4041 35.237C41.5492 35.3812 41.7456 35.4619 41.9502 35.4614H60.9148C61.0158 35.4616 61.1159 35.4418 61.2093 35.4032C61.3026 35.3646 61.3875 35.3079 61.4589 35.2365C61.5303 35.165 61.587 35.0802 61.6256 34.9868C61.6642 34.8935 61.684 34.7934 61.6838 34.6924V11.6262C61.6843 11.4216 61.6036 11.2252 61.4594 11.0801C61.3153 10.9349 61.1194 10.8529 60.9148 10.8521ZM50.4045 31.3803H45.2776C45.0736 31.3803 44.878 31.2993 44.7338 31.1551C44.5896 31.0109 44.5085 30.8153 44.5085 30.6113C44.5085 30.4073 44.5896 30.2117 44.7338 30.0675C44.878 29.9233 45.0736 29.8422 45.2776 29.8422H50.4045C51.4142 29.858 51.4168 31.3642 50.4045 31.3803ZM50.4045 25.7407H45.2776C45.0736 25.7407 44.878 25.6597 44.7338 25.5154C44.5896 25.3712 44.5085 25.1756 44.5085 24.9716C44.5085 24.7677 44.5896 24.5721 44.7338 24.4278C44.878 24.2836 45.0736 24.2026 45.2776 24.2026H50.4045C51.4142 24.2183 51.4168 25.7245 50.4045 25.7407ZM52.4758 19.5679C52.4608 20.5777 50.9534 20.5796 50.9377 19.5678V15.5842C50.9387 14.9417 51.1947 14.3259 51.6494 13.8719C52.104 13.4179 52.7203 13.1629 53.3628 13.1629C54.0053 13.1629 54.6215 13.4179 55.0762 13.8719C55.5309 14.3259 55.7868 14.9417 55.7878 15.5842V19.5679C55.7713 20.5784 54.2663 20.5795 54.2497 19.5678V18.486H52.4758V19.5679ZM58.1257 29.8935L55.6033 32.416C55.5328 32.4886 55.4483 32.546 55.3548 32.5848C55.2614 32.6236 55.161 32.6429 55.0598 32.6416C54.9588 32.6419 54.8587 32.6222 54.7654 32.5834C54.6721 32.5447 54.5874 32.4878 54.5164 32.416L53.4499 31.3496C52.7516 30.6261 53.8134 29.5545 54.5369 30.2626L55.0598 30.7855L57.0388 28.8066C57.77 28.108 58.8309 29.1719 58.1257 29.8935ZM58.1257 24.2539L55.6033 26.7763C55.5328 26.8489 55.4483 26.9063 55.3548 26.9451C55.2614 26.9839 55.161 27.0033 55.0598 27.0019C54.9588 27.0023 54.8587 26.9825 54.7654 26.9438C54.6721 26.9051 54.5874 26.8481 54.5164 26.7763L53.4499 25.7099C52.7516 24.9864 53.8134 23.9148 54.5369 24.623L55.0598 25.1459L57.0388 23.167C57.77 22.4683 58.8309 23.5322 58.1257 24.2539Z" fill="#F2BB41"/>
<path d="M54.2497 15.5841C54.2491 15.3493 54.1554 15.1243 53.9892 14.9584C53.8229 14.7926 53.5976 14.6995 53.3628 14.6995C53.1279 14.6995 52.9027 14.7926 52.7364 14.9584C52.5701 15.1243 52.4764 15.3493 52.4758 15.5841V16.9479H54.2497V15.5841Z" fill="#F2BB41"/>
<path d="M23.8495 51.1567V42.6967H27.3775C28.2575 42.6967 28.9375 42.8927 29.4175 43.2847C29.9055 43.6687 30.1495 44.2087 30.1495 44.9047C30.1495 45.4167 29.9975 45.8487 29.6935 46.2007C29.3895 46.5527 28.9775 46.7887 28.4575 46.9087V46.7287C28.8495 46.7847 29.1855 46.9047 29.4655 47.0887C29.7535 47.2647 29.9735 47.5007 30.1255 47.7967C30.2775 48.0847 30.3535 48.4247 30.3535 48.8167C30.3535 49.3127 30.2415 49.7367 30.0175 50.0887C29.7935 50.4407 29.4695 50.7087 29.0455 50.8927C28.6215 51.0687 28.1135 51.1567 27.5215 51.1567H23.8495ZM25.0495 50.1967H27.3775C27.6175 50.1967 27.8295 50.1807 28.0135 50.1487C28.2055 50.1087 28.3695 50.0527 28.5055 49.9807C28.6495 49.9007 28.7695 49.8047 28.8655 49.6927C28.9615 49.5727 29.0295 49.4367 29.0695 49.2847C29.1175 49.1327 29.1415 48.9607 29.1415 48.7687C29.1415 48.5767 29.1175 48.4047 29.0695 48.2527C29.0295 48.1007 28.9615 47.9687 28.8655 47.8567C28.7695 47.7447 28.6495 47.6527 28.5055 47.5807C28.3695 47.5007 28.2055 47.4447 28.0135 47.4127C27.8295 47.3727 27.6175 47.3527 27.3775 47.3527H25.0495V50.1967ZM25.0495 46.3927H27.1855C27.7615 46.3927 28.1975 46.2767 28.4935 46.0447C28.7895 45.8127 28.9375 45.4727 28.9375 45.0247C28.9375 44.5767 28.7895 44.2367 28.4935 44.0047C28.1975 43.7727 27.7615 43.6567 27.1855 43.6567H25.0495V46.3927ZM34.6452 51.2647C34.0052 51.2647 33.4532 51.1447 32.9892 50.9047C32.5332 50.6567 32.1772 50.3087 31.9212 49.8607C31.6732 49.4047 31.5492 48.8647 31.5492 48.2407C31.5492 47.6327 31.6732 47.1007 31.9212 46.6447C32.1692 46.1887 32.5092 45.8327 32.9412 45.5767C33.3732 45.3207 33.8652 45.1927 34.4172 45.1927C34.9612 45.1927 35.4252 45.3127 35.8092 45.5527C36.2012 45.7847 36.5012 46.1167 36.7092 46.5487C36.9172 46.9807 37.0212 47.4967 37.0212 48.0967V48.5047H32.5092V47.7607H36.2052L36.0012 47.9287C36.0012 47.3287 35.8692 46.8647 35.6052 46.5367C35.3412 46.2087 34.9612 46.0447 34.4652 46.0447C34.0892 46.0447 33.7692 46.1327 33.5052 46.3087C33.2492 46.4847 33.0532 46.7287 32.9172 47.0407C32.7812 47.3527 32.7132 47.7167 32.7132 48.1327V48.2047C32.7132 48.6687 32.7852 49.0607 32.9292 49.3807C33.0812 49.6927 33.3012 49.9287 33.5892 50.0887C33.8772 50.2487 34.2332 50.3287 34.6572 50.3287C34.9932 50.3287 35.3212 50.2767 35.6412 50.1727C35.9692 50.0607 36.2772 49.8887 36.5652 49.6567L36.9252 50.4967C36.6612 50.7367 36.3212 50.9247 35.9052 51.0607C35.4892 51.1967 35.0692 51.2647 34.6452 51.2647ZM38.6788 51.1567V46.2367H37.5388V45.3007H39.0268L38.6788 45.6247V45.1927C38.6788 44.3927 38.8828 43.7887 39.2908 43.3807C39.7068 42.9647 40.3428 42.7327 41.1988 42.6847L41.7268 42.6487L41.8108 43.5607L41.2588 43.5967C40.9308 43.6127 40.6668 43.6767 40.4668 43.7887C40.2668 43.9007 40.1188 44.0607 40.0228 44.2687C39.9348 44.4687 39.8908 44.7207 39.8908 45.0247V45.4927L39.7228 45.3007H41.5348V46.2367H39.8908V51.1567H38.6788ZM44.8709 51.2647C44.2789 51.2647 43.7669 51.1407 43.3349 50.8927C42.9109 50.6447 42.5789 50.2927 42.3389 49.8367C42.0989 49.3807 41.9789 48.8447 41.9789 48.2287C41.9789 47.6047 42.0989 47.0687 42.3389 46.6207C42.5789 46.1647 42.9109 45.8127 43.3349 45.5647C43.7669 45.3167 44.2789 45.1927 44.8709 45.1927C45.4549 45.1927 45.9589 45.3167 46.3829 45.5647C46.8149 45.8127 47.1509 46.1647 47.3909 46.6207C47.6309 47.0767 47.7509 47.6127 47.7509 48.2287C47.7509 48.8447 47.6309 49.3807 47.3909 49.8367C47.1509 50.2927 46.8149 50.6447 46.3829 50.8927C45.9589 51.1407 45.4549 51.2647 44.8709 51.2647ZM44.8589 50.3287C45.3629 50.3287 45.7669 50.1487 46.0709 49.7887C46.3749 49.4287 46.5269 48.9087 46.5269 48.2287C46.5269 47.5407 46.3749 47.0207 46.0709 46.6687C45.7669 46.3167 45.3629 46.1407 44.8589 46.1407C44.3629 46.1407 43.9629 46.3167 43.6589 46.6687C43.3549 47.0207 43.2029 47.5407 43.2029 48.2287C43.2029 48.9087 43.3549 49.4287 43.6589 49.7887C43.9629 50.1487 44.3629 50.3287 44.8589 50.3287ZM49.112 51.1567V45.3007H50.288V46.7047H50.168C50.296 46.2247 50.524 45.8607 50.852 45.6127C51.188 45.3647 51.632 45.2207 52.184 45.1807L52.58 45.1567L52.664 46.1887L51.932 46.2607C51.412 46.3087 51.016 46.4727 50.744 46.7527C50.472 47.0327 50.336 47.4167 50.336 47.9047V51.1567H49.112ZM56.2545 51.2647C55.6145 51.2647 55.0625 51.1447 54.5985 50.9047C54.1425 50.6567 53.7865 50.3087 53.5305 49.8607C53.2825 49.4047 53.1585 48.8647 53.1585 48.2407C53.1585 47.6327 53.2825 47.1007 53.5305 46.6447C53.7785 46.1887 54.1185 45.8327 54.5505 45.5767C54.9825 45.3207 55.4745 45.1927 56.0265 45.1927C56.5705 45.1927 57.0345 45.3127 57.4185 45.5527C57.8105 45.7847 58.1105 46.1167 58.3185 46.5487C58.5265 46.9807 58.6305 47.4967 58.6305 48.0967V48.5047H54.1185V47.7607H57.8145L57.6105 47.9287C57.6105 47.3287 57.4785 46.8647 57.2145 46.5367C56.9505 46.2087 56.5705 46.0447 56.0745 46.0447C55.6985 46.0447 55.3785 46.1327 55.1145 46.3087C54.8585 46.4847 54.6625 46.7287 54.5265 47.0407C54.3905 47.3527 54.3225 47.7167 54.3225 48.1327V48.2047C54.3225 48.6687 54.3945 49.0607 54.5385 49.3807C54.6905 49.6927 54.9105 49.9287 55.1985 50.0887C55.4865 50.2487 55.8425 50.3287 56.2665 50.3287C56.6025 50.3287 56.9305 50.2767 57.2505 50.1727C57.5785 50.0607 57.8865 49.8887 58.1745 49.6567L58.5345 50.4967C58.2705 50.7367 57.9305 50.9247 57.5145 51.0607C57.0985 51.1967 56.6785 51.2647 56.2545 51.2647ZM65.6002 51.2647C64.8722 51.2647 64.3242 51.0767 63.9562 50.7007C63.5962 50.3247 63.4162 49.7807 63.4162 49.0687V46.2367H62.2762V45.3007H63.4162V43.5367H64.6282V45.3007H66.4402V46.2367H64.6282V48.9727C64.6282 49.3967 64.7162 49.7167 64.8922 49.9327C65.0762 50.1487 65.3722 50.2567 65.7802 50.2567C65.9002 50.2567 66.0202 50.2407 66.1402 50.2087C66.2682 50.1767 66.3922 50.1447 66.5122 50.1127L66.7042 51.0247C66.5842 51.0967 66.4162 51.1527 66.2002 51.1927C65.9922 51.2407 65.7922 51.2647 65.6002 51.2647ZM67.487 51.1567V42.6967H68.699V46.5487H68.531C68.707 46.1007 68.983 45.7647 69.359 45.5407C69.735 45.3087 70.167 45.1927 70.655 45.1927C71.119 45.1927 71.503 45.2807 71.807 45.4567C72.119 45.6247 72.351 45.8847 72.503 46.2367C72.655 46.5807 72.731 47.0167 72.731 47.5447V51.1567H71.519V47.6167C71.519 47.2807 71.475 47.0087 71.387 46.8007C71.299 46.5847 71.167 46.4247 70.991 46.3207C70.815 46.2167 70.587 46.1647 70.307 46.1647C69.987 46.1647 69.703 46.2327 69.455 46.3687C69.215 46.5047 69.027 46.7007 68.891 46.9567C68.763 47.2127 68.699 47.5087 68.699 47.8447V51.1567H67.487ZM77.1491 51.2647C76.5091 51.2647 75.9571 51.1447 75.4931 50.9047C75.0371 50.6567 74.6811 50.3087 74.4251 49.8607C74.1771 49.4047 74.0531 48.8647 74.0531 48.2407C74.0531 47.6327 74.1771 47.1007 74.4251 46.6447C74.6731 46.1887 75.0131 45.8327 75.4451 45.5767C75.8771 45.3207 76.3691 45.1927 76.9211 45.1927C77.4651 45.1927 77.9291 45.3127 78.3131 45.5527C78.7051 45.7847 79.0051 46.1167 79.2131 46.5487C79.4211 46.9807 79.5251 47.4967 79.5251 48.0967V48.5047H75.0131V47.7607H78.7091L78.5051 47.9287C78.5051 47.3287 78.3731 46.8647 78.1091 46.5367C77.8451 46.2087 77.4651 46.0447 76.9691 46.0447C76.5931 46.0447 76.2731 46.1327 76.0091 46.3087C75.7531 46.4847 75.5571 46.7287 75.4211 47.0407C75.2851 47.3527 75.2171 47.7167 75.2171 48.1327V48.2047C75.2171 48.6687 75.2891 49.0607 75.4331 49.3807C75.5851 49.6927 75.8051 49.9287 76.0931 50.0887C76.3811 50.2487 76.7371 50.3287 77.1611 50.3287C77.4971 50.3287 77.8251 50.2767 78.1451 50.1727C78.4731 50.0607 78.7811 49.8887 79.0691 49.6567L79.4291 50.4967C79.1651 50.7367 78.8251 50.9247 78.4091 51.0607C77.9931 51.1967 77.5731 51.2647 77.1491 51.2647ZM40.2292 67.2647C39.5892 67.2647 39.0372 67.1447 38.5732 66.9047C38.1172 66.6567 37.7612 66.3087 37.5052 65.8607C37.2572 65.4047 37.1332 64.8647 37.1332 64.2407C37.1332 63.6327 37.2572 63.1007 37.5052 62.6447C37.7532 62.1887 38.0932 61.8327 38.5252 61.5767C38.9572 61.3207 39.4492 61.1927 40.0012 61.1927C40.5452 61.1927 41.0092 61.3127 41.3932 61.5527C41.7852 61.7847 42.0852 62.1167 42.2932 62.5487C42.5012 62.9807 42.6052 63.4967 42.6052 64.0967V64.5047H38.0932V63.7607H41.7892L41.5852 63.9287C41.5852 63.3287 41.4532 62.8647 41.1892 62.5367C40.9252 62.2087 40.5452 62.0447 40.0492 62.0447C39.6732 62.0447 39.3532 62.1327 39.0892 62.3087C38.8332 62.4847 38.6372 62.7287 38.5012 63.0407C38.3652 63.3527 38.2972 63.7167 38.2972 64.1327V64.2047C38.2972 64.6687 38.3692 65.0607 38.5132 65.3807C38.6652 65.6927 38.8852 65.9287 39.1732 66.0887C39.4612 66.2487 39.8172 66.3287 40.2412 66.3287C40.5772 66.3287 40.9052 66.2767 41.2252 66.1727C41.5532 66.0607 41.8612 65.8887 42.1492 65.6567L42.5092 66.4967C42.2452 66.7367 41.9052 66.9247 41.4892 67.0607C41.0732 67.1967 40.6532 67.2647 40.2292 67.2647ZM43.0996 67.1567L45.7756 63.8327V64.4327L43.2556 61.3007H44.6716L46.4596 63.5807H46.0276L47.8156 61.3007H49.2316L46.7116 64.4087V63.8687L49.3876 67.1567H47.9476L46.0276 64.7327H46.4356L44.5276 67.1567H43.0996ZM52.1149 67.2647C51.7069 67.2647 51.3389 67.1847 51.0109 67.0247C50.6909 66.8647 50.4389 66.6487 50.2549 66.3767C50.0709 66.1047 49.9789 65.7967 49.9789 65.4527C49.9789 65.0207 50.0869 64.6807 50.3029 64.4327C50.5269 64.1767 50.8909 63.9967 51.3949 63.8927C51.9069 63.7807 52.5949 63.7247 53.4589 63.7247H54.0229V64.4687H53.4709C53.0389 64.4687 52.6749 64.4847 52.3789 64.5167C52.0829 64.5487 51.8469 64.6007 51.6709 64.6727C51.4949 64.7367 51.3669 64.8287 51.2869 64.9487C51.2149 65.0687 51.1789 65.2127 51.1789 65.3807C51.1789 65.6847 51.2829 65.9327 51.4909 66.1247C51.6989 66.3087 51.9869 66.4007 52.3549 66.4007C52.6509 66.4007 52.9109 66.3327 53.1349 66.1967C53.3589 66.0527 53.5349 65.8607 53.6629 65.6207C53.7989 65.3807 53.8669 65.1047 53.8669 64.7927V63.4127C53.8669 62.9567 53.7709 62.6287 53.5789 62.4287C53.3869 62.2287 53.0709 62.1287 52.6309 62.1287C52.2949 62.1287 51.9589 62.1807 51.6229 62.2847C51.2869 62.3807 50.9429 62.5367 50.5909 62.7527L50.2189 61.9007C50.4269 61.7567 50.6669 61.6327 50.9389 61.5287C51.2109 61.4247 51.4949 61.3447 51.7909 61.2887C52.0949 61.2247 52.3869 61.1927 52.6669 61.1927C53.2029 61.1927 53.6429 61.2767 53.9869 61.4447C54.3389 61.6127 54.5989 61.8687 54.7669 62.2127C54.9349 62.5567 55.0189 63.0007 55.0189 63.5447V67.1567H53.8789V65.8487H53.9869C53.9229 66.1447 53.8029 66.4007 53.6269 66.6167C53.4589 66.8247 53.2469 66.9847 52.9909 67.0967C52.7349 67.2087 52.4429 67.2647 52.1149 67.2647ZM56.7122 67.1567V61.3007H57.8882V62.5487H57.7562C57.8602 62.2607 58.0042 62.0167 58.1882 61.8167C58.3722 61.6167 58.5922 61.4647 58.8482 61.3607C59.1122 61.2487 59.4002 61.1927 59.7122 61.1927C60.2002 61.1927 60.5962 61.3087 60.9002 61.5407C61.2042 61.7727 61.4122 62.1287 61.5242 62.6087H61.3562C61.5082 62.1687 61.7682 61.8247 62.1362 61.5767C62.5042 61.3207 62.9322 61.1927 63.4202 61.1927C63.8682 61.1927 64.2362 61.2807 64.5242 61.4567C64.8122 61.6247 65.0282 61.8847 65.1722 62.2367C65.3162 62.5807 65.3882 63.0167 65.3882 63.5447V67.1567H64.1762V63.6047C64.1762 63.1087 64.0882 62.7447 63.9122 62.5127C63.7442 62.2807 63.4642 62.1647 63.0722 62.1647C62.7842 62.1647 62.5322 62.2327 62.3162 62.3687C62.1002 62.5047 61.9322 62.7047 61.8122 62.9687C61.7002 63.2247 61.6442 63.5287 61.6442 63.8807V67.1567H60.4322V63.6047C60.4322 63.1087 60.3482 62.7447 60.1802 62.5127C60.0122 62.2807 59.7322 62.1647 59.3402 62.1647C59.0442 62.1647 58.7882 62.2327 58.5722 62.3687C58.3642 62.5047 58.2042 62.7047 58.0922 62.9687C57.9802 63.2247 57.9242 63.5287 57.9242 63.8807V67.1567H56.7122Z" fill="black"/>
<defs>
<filter id="filter0_d_8334_734" x="0" y="0" width="101.04" height="85.8501" filterUnits="userSpaceOnUse" color-interpolation-filters="sRGB">
<feFlood flood-opacity="0" result="BackgroundImageFix"/>
<feColorMatrix in="SourceAlpha" type="matrix" values="0 0 0 0 0 0 0 0 0 0 0 0 0 0 0 0 0 0 127 0" result="hardAlpha"/>
<feOffset dy="4"/>
<feGaussianBlur stdDeviation="2"/>
<feComposite in2="hardAlpha" operator="out"/>
<feColorMatrix type="matrix" values="0 0 0 0 0 0 0 0 0 0 0 0 0 0 0 0 0 0 0.25 0"/>
<feBlend mode="normal" in2="BackgroundImageFix" result="effect1_dropShadow_8334_734"/>
<feBlend mode="normal" in="SourceGraphic" in2="effect1_dropShadow_8334_734" result="shape"/>
</filter>
</defs>
</svg>
