<svg width="96" height="86" viewBox="0 0 96 86" fill="none" xmlns="http://www.w3.org/2000/svg">
<g filter="url(#filter0_d_8310_820)">
<path d="M5.37285 42.5185C4.62083 41.2089 4.24484 40.5536 4.09767 39.8574C3.96744 39.2412 3.96744 38.6048 4.09767 37.9886C4.24484 37.2924 4.62083 36.6371 5.37285 35.3274L23.5901 3.59555C24.3421 2.28569 24.7181 1.63076 25.2442 1.15444C25.7096 0.732998 26.2579 0.414612 26.8535 0.220002C27.5267 -2.00917e-07 28.2787 0 29.7827 0H66.2171C67.7214 0 68.4731 -2.00917e-07 69.1466 0.220002C69.7419 0.414612 70.2903 0.732998 70.756 1.15444C71.282 1.63076 71.6578 2.28569 72.41 3.59555L90.6271 35.3274C91.3792 36.6371 91.7551 37.2924 91.9021 37.9886C92.0326 38.6048 92.0326 39.2412 91.9021 39.8574C91.7551 40.5536 91.3792 41.2089 90.6271 42.5185L72.41 74.2506C71.6578 75.5603 71.282 76.2151 70.756 76.6915C70.2903 77.1131 69.7419 77.4313 69.1466 77.6259C68.4731 77.8462 67.7214 77.8462 66.2171 77.8462H29.7827C28.2787 77.8462 27.5267 77.8462 26.8535 77.6259C26.2579 77.4313 25.7096 77.1131 25.2442 76.6915C24.7181 76.2151 24.3421 75.5603 23.5901 74.2506L5.37285 42.5185Z" fill="white"/>
</g>
<g clip-path="url(#clip0_8310_820)">
<path d="M58.5005 28.0293C57.1402 27.6911 56.1248 26.4647 56.1248 24.9998C56.1248 23.2738 57.5239 22.5 59.25 22.5C59.4492 22.5 59.6571 22.5258 59.8464 22.5626C59.8552 22.7503 59.8748 22.935 59.8748 23.1248C59.8748 25.1214 59.3746 26.3762 58.5005 28.0293ZM41.0473 32.1062C42.165 30.5089 44.8598 29.3747 48 29.3747C51.1396 29.3747 53.8277 30.5147 54.9455 32.112C52.9898 33.5292 50.5945 34.3748 48 34.3748C45.4024 34.3748 43.0045 33.5265 41.0473 32.1062ZM36.1252 22.5C36.1252 22.3081 36.1448 22.1214 36.1536 21.9321C36.3429 21.8953 36.5504 21.8746 36.75 21.8746C38.4761 21.8746 39.8752 23.2738 39.8752 24.9998C39.8752 26.4646 38.8583 27.6889 37.4984 28.0272C36.6248 26.3746 36.1252 24.4955 36.1252 22.5ZM48 10.6246C53.4652 10.6246 58.0024 14.3405 59.3793 19.3965H36.6207C37.9976 14.3405 42.5348 10.6246 48 10.6246ZM48 7.5C39.7158 7.5 33 14.2154 33 22.5C33 30.7842 39.7158 37.5 48 37.5C56.2842 37.5 63 30.7842 63 22.5C63 14.2154 56.2842 7.5 48 7.5Z" fill="#F2BB41"/>
<path d="M52.6551 24.0516C52.6551 25.1942 50.5613 26.1206 47.9782 26.1206C45.3951 26.1206 43.3013 25.1942 43.3013 24.0516C43.3013 22.909 45.3951 21.9827 47.9782 21.9827C50.5613 21.9827 52.6551 22.909 52.6551 24.0516Z" fill="#E08838"/>
</g>
<path d="M17.6673 50.608C17.2273 50.608 16.8073 50.572 16.4073 50.5C16.0153 50.42 15.6513 50.308 15.3153 50.164C14.9873 50.012 14.6953 49.832 14.4393 49.624L14.8353 48.64C15.1073 48.84 15.3873 49.008 15.6753 49.144C15.9633 49.28 16.2713 49.384 16.5993 49.456C16.9273 49.52 17.2833 49.552 17.6673 49.552C18.3473 49.552 18.8473 49.432 19.1673 49.192C19.4953 48.944 19.6593 48.624 19.6593 48.232C19.6593 48.016 19.6073 47.832 19.5033 47.68C19.4073 47.528 19.2473 47.4 19.0233 47.296C18.7993 47.184 18.5073 47.092 18.1473 47.02L16.8633 46.756C16.1033 46.596 15.5353 46.332 15.1593 45.964C14.7913 45.596 14.6073 45.1 14.6073 44.476C14.6073 43.964 14.7433 43.516 15.0153 43.132C15.2873 42.748 15.6593 42.452 16.1313 42.244C16.6113 42.036 17.1633 41.932 17.7873 41.932C18.1713 41.932 18.5353 41.972 18.8793 42.052C19.2313 42.124 19.5553 42.236 19.8513 42.388C20.1553 42.54 20.4193 42.724 20.6433 42.94L20.2353 43.888C19.8913 43.584 19.5193 43.36 19.1193 43.216C18.7193 43.064 18.2713 42.988 17.7753 42.988C17.3833 42.988 17.0393 43.048 16.7433 43.168C16.4553 43.288 16.2313 43.456 16.0713 43.672C15.9193 43.888 15.8433 44.144 15.8433 44.44C15.8433 44.776 15.9513 45.044 16.1673 45.244C16.3833 45.444 16.7433 45.596 17.2473 45.7L18.5193 45.964C19.3193 46.132 19.9153 46.392 20.3073 46.744C20.6993 47.096 20.8953 47.564 20.8953 48.148C20.8953 48.636 20.7633 49.068 20.4993 49.444C20.2353 49.812 19.8633 50.1 19.3833 50.308C18.9033 50.508 18.3313 50.608 17.6673 50.608ZM24.641 50.608C23.913 50.608 23.365 50.42 22.997 50.044C22.637 49.668 22.457 49.124 22.457 48.412V45.58H21.317V44.644H22.457V42.88H23.669V44.644H25.481V45.58H23.669V48.316C23.669 48.74 23.757 49.06 23.933 49.276C24.117 49.492 24.413 49.6 24.821 49.6C24.941 49.6 25.061 49.584 25.181 49.552C25.309 49.52 25.433 49.488 25.553 49.456L25.745 50.368C25.625 50.44 25.457 50.496 25.241 50.536C25.033 50.584 24.833 50.608 24.641 50.608ZM28.3998 50.608C27.9918 50.608 27.6238 50.528 27.2958 50.368C26.9758 50.208 26.7238 49.992 26.5398 49.72C26.3558 49.448 26.2638 49.14 26.2638 48.796C26.2638 48.364 26.3718 48.024 26.5878 47.776C26.8118 47.52 27.1758 47.34 27.6798 47.236C28.1918 47.124 28.8798 47.068 29.7438 47.068H30.3078V47.812H29.7558C29.3238 47.812 28.9598 47.828 28.6638 47.86C28.3678 47.892 28.1318 47.944 27.9558 48.016C27.7798 48.08 27.6518 48.172 27.5718 48.292C27.4998 48.412 27.4638 48.556 27.4638 48.724C27.4638 49.028 27.5678 49.276 27.7758 49.468C27.9838 49.652 28.2718 49.744 28.6398 49.744C28.9358 49.744 29.1958 49.676 29.4198 49.54C29.6438 49.396 29.8198 49.204 29.9478 48.964C30.0838 48.724 30.1518 48.448 30.1518 48.136V46.756C30.1518 46.3 30.0558 45.972 29.8638 45.772C29.6718 45.572 29.3558 45.472 28.9158 45.472C28.5798 45.472 28.2438 45.524 27.9078 45.628C27.5718 45.724 27.2278 45.88 26.8758 46.096L26.5038 45.244C26.7118 45.1 26.9518 44.976 27.2238 44.872C27.4958 44.768 27.7798 44.688 28.0758 44.632C28.3798 44.568 28.6718 44.536 28.9518 44.536C29.4878 44.536 29.9278 44.62 30.2718 44.788C30.6238 44.956 30.8838 45.212 31.0518 45.556C31.2198 45.9 31.3038 46.344 31.3038 46.888V50.5H30.1638V49.192H30.2718C30.2078 49.488 30.0878 49.744 29.9118 49.96C29.7438 50.168 29.5318 50.328 29.2758 50.44C29.0198 50.552 28.7278 50.608 28.3998 50.608ZM32.9731 50.5V44.644H34.1491V46.048H34.0291C34.1571 45.568 34.3851 45.204 34.7131 44.956C35.0491 44.708 35.4931 44.564 36.0451 44.524L36.4411 44.5L36.5251 45.532L35.7931 45.604C35.2731 45.652 34.8771 45.816 34.6051 46.096C34.3331 46.376 34.1971 46.76 34.1971 47.248V50.5H32.9731ZM40.2738 50.608C39.5458 50.608 38.9978 50.42 38.6298 50.044C38.2698 49.668 38.0898 49.124 38.0898 48.412V45.58H36.9498V44.644H38.0898V42.88H39.3018V44.644H41.1138V45.58H39.3018V48.316C39.3018 48.74 39.3898 49.06 39.5658 49.276C39.7498 49.492 40.0458 49.6 40.4538 49.6C40.5738 49.6 40.6938 49.584 40.8138 49.552C40.9418 49.52 41.0658 49.488 41.1858 49.456L41.3778 50.368C41.2578 50.44 41.0898 50.496 40.8738 50.536C40.6658 50.584 40.4658 50.608 40.2738 50.608ZM47.5449 50.608C47.0329 50.608 46.5809 50.488 46.1889 50.248C45.8049 50 45.5049 49.648 45.2889 49.192C45.0729 48.728 44.9649 48.188 44.9649 47.572C44.9649 46.94 45.0729 46.4 45.2889 45.952C45.5049 45.504 45.8049 45.156 46.1889 44.908C46.5809 44.66 47.0329 44.536 47.5449 44.536C48.0569 44.536 48.4969 44.664 48.8649 44.92C49.2409 45.168 49.4929 45.504 49.6209 45.928H49.4889V42.04H50.7009V50.5H49.5129V49.18H49.6329C49.5049 49.612 49.2529 49.96 48.8769 50.224C48.5089 50.48 48.0649 50.608 47.5449 50.608ZM47.8569 49.672C48.3529 49.672 48.7529 49.492 49.0569 49.132C49.3609 48.772 49.5129 48.252 49.5129 47.572C49.5129 46.884 49.3609 46.364 49.0569 46.012C48.7529 45.66 48.3529 45.484 47.8569 45.484C47.3529 45.484 46.9489 45.66 46.6449 46.012C46.3409 46.364 46.1889 46.884 46.1889 47.572C46.1889 48.252 46.3409 48.772 46.6449 49.132C46.9489 49.492 47.3529 49.672 47.8569 49.672ZM52.4028 50.5V44.644H53.5788V46.048H53.4588C53.5868 45.568 53.8148 45.204 54.1428 44.956C54.4788 44.708 54.9228 44.564 55.4748 44.524L55.8708 44.5L55.9548 45.532L55.2228 45.604C54.7028 45.652 54.3068 45.816 54.0348 46.096C53.7628 46.376 53.6268 46.76 53.6268 47.248V50.5H52.4028ZM56.7713 43.288V42.028H58.1873V43.288H56.7713ZM56.8793 50.5V44.644H58.0913V50.5H56.8793ZM61.5133 50.5L58.9933 44.644H60.3013L62.2573 49.504H61.9213L63.9253 44.644H65.1613L62.6053 50.5H61.5133ZM65.9237 43.288V42.028H67.3397V43.288H65.9237ZM66.0317 50.5V44.644H67.2437V50.5H66.0317ZM68.9497 50.5V44.644H70.1257V45.892H69.9937C70.1697 45.444 70.4457 45.108 70.8217 44.884C71.1977 44.652 71.6297 44.536 72.1177 44.536C72.5817 44.536 72.9657 44.624 73.2697 44.8C73.5817 44.968 73.8137 45.228 73.9657 45.58C74.1177 45.924 74.1937 46.36 74.1937 46.888V50.5H72.9817V46.96C72.9817 46.624 72.9377 46.352 72.8497 46.144C72.7617 45.928 72.6297 45.768 72.4537 45.664C72.2777 45.56 72.0497 45.508 71.7697 45.508C71.4497 45.508 71.1657 45.576 70.9177 45.712C70.6777 45.848 70.4897 46.044 70.3537 46.3C70.2257 46.556 70.1617 46.852 70.1617 47.188V50.5H68.9497ZM78.5157 52.768C77.9877 52.768 77.4957 52.704 77.0397 52.576C76.5837 52.448 76.1797 52.256 75.8277 52L76.1997 51.136C76.4317 51.288 76.6677 51.416 76.9077 51.52C77.1557 51.632 77.4037 51.712 77.6517 51.76C77.9077 51.808 78.1677 51.832 78.4317 51.832C78.9917 51.832 79.4117 51.688 79.6917 51.4C79.9717 51.12 80.1117 50.704 80.1117 50.152V48.928H80.2197C80.0997 49.368 79.8477 49.716 79.4637 49.972C79.0797 50.228 78.6357 50.356 78.1317 50.356C77.6037 50.356 77.1437 50.236 76.7517 49.996C76.3597 49.748 76.0557 49.408 75.8397 48.976C75.6237 48.536 75.5157 48.024 75.5157 47.44C75.5157 46.856 75.6237 46.348 75.8397 45.916C76.0557 45.484 76.3597 45.148 76.7517 44.908C77.1437 44.66 77.6037 44.536 78.1317 44.536C78.6437 44.536 79.0877 44.664 79.4637 44.92C79.8477 45.176 80.0957 45.524 80.2077 45.964H80.1117V44.644H81.2877V50.008C81.2877 50.616 81.1837 51.124 80.9757 51.532C80.7677 51.948 80.4557 52.256 80.0397 52.456C79.6317 52.664 79.1237 52.768 78.5157 52.768ZM78.4197 49.408C78.9397 49.408 79.3477 49.232 79.6437 48.88C79.9477 48.528 80.0997 48.048 80.0997 47.44C80.0997 46.84 79.9477 46.364 79.6437 46.012C79.3477 45.66 78.9397 45.484 78.4197 45.484C77.9077 45.484 77.4997 45.66 77.1957 46.012C76.8917 46.364 76.7397 46.84 76.7397 47.44C76.7397 48.048 76.8917 48.528 77.1957 48.88C77.4997 49.232 77.9077 49.408 78.4197 49.408Z" fill="black"/>
<path d="M28.4511 65.6C27.7511 65.6 27.1478 65.4533 26.6411 65.16C26.1345 64.8667 25.7445 64.45 25.4711 63.91C25.1978 63.3633 25.0611 62.7167 25.0611 61.97C25.0611 61.2233 25.1978 60.58 25.4711 60.04C25.7445 59.5 26.1345 59.0867 26.6411 58.8C27.1478 58.5067 27.7511 58.36 28.4511 58.36C28.9378 58.36 29.3878 58.4333 29.8011 58.58C30.2145 58.7267 30.5611 58.94 30.8411 59.22L30.4711 60.06C30.1645 59.8 29.8511 59.61 29.5311 59.49C29.2111 59.37 28.8611 59.31 28.4811 59.31C27.7478 59.31 27.1811 59.54 26.7811 60C26.3811 60.4533 26.1811 61.11 26.1811 61.97C26.1811 62.83 26.3811 63.49 26.7811 63.95C27.1811 64.41 27.7478 64.64 28.4811 64.64C28.8611 64.64 29.2111 64.58 29.5311 64.46C29.8511 64.34 30.1645 64.15 30.4711 63.89L30.8411 64.73C30.5611 65.01 30.2145 65.2267 29.8011 65.38C29.3878 65.5267 28.9378 65.6 28.4511 65.6ZM32.0952 65.5V58.45H33.1252V61.6H33.0652C33.2119 61.2467 33.4419 60.9733 33.7552 60.78C34.0685 60.5867 34.4252 60.49 34.8252 60.49C35.2252 60.49 35.5552 60.5633 35.8152 60.71C36.0819 60.8567 36.2819 61.08 36.4152 61.38C36.5485 61.6733 36.6152 62.0433 36.6152 62.49V65.5H35.5552V62.55C35.5552 62.2833 35.5185 62.0633 35.4452 61.89C35.3785 61.71 35.2685 61.5767 35.1152 61.49C34.9685 61.3967 34.7752 61.35 34.5352 61.35C34.2619 61.35 34.0219 61.41 33.8152 61.53C33.6085 61.65 33.4452 61.8167 33.3252 62.03C33.2119 62.2367 33.1552 62.4767 33.1552 62.75V65.5H32.0952ZM39.7604 65.59C39.4137 65.59 39.1004 65.5233 38.8204 65.39C38.5404 65.2567 38.3204 65.0767 38.1604 64.85C38.007 64.6167 37.9304 64.3567 37.9304 64.07C37.9304 63.7033 38.027 63.4133 38.2204 63.2C38.4204 62.9867 38.737 62.8333 39.1704 62.74C39.6037 62.64 40.177 62.59 40.8904 62.59H41.4704V63.25H40.9204C40.5604 63.25 40.257 63.2633 40.0104 63.29C39.7637 63.31 39.5637 63.35 39.4104 63.41C39.257 63.47 39.1437 63.55 39.0704 63.65C39.0037 63.7433 38.9704 63.8633 38.9704 64.01C38.9704 64.2633 39.0604 64.4633 39.2404 64.61C39.427 64.75 39.6704 64.82 39.9704 64.82C40.2304 64.82 40.4604 64.7633 40.6604 64.65C40.8604 64.53 41.0204 64.37 41.1404 64.17C41.2604 63.9633 41.3204 63.7333 41.3204 63.48V62.35C41.3204 61.9767 41.227 61.71 41.0404 61.55C40.8604 61.39 40.577 61.31 40.1904 61.31C39.9037 61.31 39.617 61.35 39.3304 61.43C39.0504 61.51 38.757 61.64 38.4504 61.82L38.1304 61.08C38.3237 60.9533 38.537 60.8467 38.7704 60.76C39.0104 60.6733 39.257 60.6067 39.5104 60.56C39.7704 60.5133 40.0237 60.49 40.2704 60.49C40.717 60.49 41.0937 60.56 41.4004 60.7C41.707 60.84 41.9404 61.0533 42.1004 61.34C42.2604 61.6267 42.3404 62 42.3404 62.46V65.5H41.3904V64.43H41.4304C41.357 64.6567 41.2437 64.86 41.0904 65.04C40.937 65.2133 40.747 65.35 40.5204 65.45C40.3004 65.5433 40.047 65.59 39.7604 65.59ZM43.8628 67.3V60.58H44.8628V61.65H44.8128C44.9394 61.29 45.1594 61.0067 45.4728 60.8C45.7861 60.5933 46.1561 60.49 46.5828 60.49C47.0228 60.49 47.4094 60.5967 47.7428 60.81C48.0761 61.0167 48.3328 61.31 48.5128 61.69C48.6928 62.07 48.7828 62.52 48.7828 63.04C48.7828 63.5467 48.6928 63.9933 48.5128 64.38C48.3328 64.7667 48.0794 65.0667 47.7528 65.28C47.4261 65.4867 47.0361 65.59 46.5828 65.59C46.1628 65.59 45.7994 65.49 45.4928 65.29C45.1928 65.0833 44.9828 64.8133 44.8628 64.48H44.9228V67.3H43.8628ZM46.3128 64.77C46.7461 64.77 47.0894 64.62 47.3428 64.32C47.6028 64.0133 47.7328 63.5833 47.7328 63.03C47.7328 62.4833 47.6061 62.0633 47.3528 61.77C47.0994 61.47 46.7528 61.32 46.3128 61.32C45.8794 61.32 45.5361 61.47 45.2828 61.77C45.0294 62.0633 44.9028 62.4833 44.9028 63.03C44.9028 63.5833 45.0294 64.0133 45.2828 64.32C45.5428 64.62 45.8861 64.77 46.3128 64.77ZM52.1456 65.59C51.5189 65.59 51.0489 65.43 50.7356 65.11C50.4289 64.79 50.2756 64.3267 50.2756 63.72V61.41H49.3156V60.58H50.3056V59.12H51.3356V60.58H52.9556V61.41H51.3356V63.65C51.3356 64.0033 51.4123 64.27 51.5656 64.45C51.7256 64.6233 51.9723 64.71 52.3056 64.71C52.4256 64.71 52.5423 64.6967 52.6556 64.67C52.7689 64.6433 52.8823 64.61 52.9956 64.57L53.1556 65.37C53.0356 65.4433 52.8823 65.4967 52.6956 65.53C52.5089 65.57 52.3256 65.59 52.1456 65.59ZM56.3211 65.59C55.7678 65.59 55.2911 65.49 54.8911 65.29C54.4911 65.0833 54.1845 64.79 53.9711 64.41C53.7578 64.0233 53.6511 63.5667 53.6511 63.04C53.6511 62.54 53.7511 62.1 53.9511 61.72C54.1578 61.3333 54.4445 61.0333 54.8111 60.82C55.1845 60.6 55.6145 60.49 56.1011 60.49C56.5745 60.49 56.9778 60.59 57.3111 60.79C57.6445 60.99 57.9011 61.2767 58.0811 61.65C58.2611 62.0167 58.3511 62.4567 58.3511 62.97V63.31H54.4711V62.64H57.6311L57.4611 62.81C57.4611 62.3033 57.3445 61.9167 57.1111 61.65C56.8845 61.3833 56.5578 61.25 56.1311 61.25C55.8245 61.25 55.5611 61.32 55.3411 61.46C55.1211 61.5933 54.9511 61.7867 54.8311 62.04C54.7111 62.2867 54.6511 62.5833 54.6511 62.93V63.02C54.6511 63.4067 54.7145 63.73 54.8411 63.99C54.9745 64.25 55.1678 64.4433 55.4211 64.57C55.6745 64.6967 55.9811 64.76 56.3411 64.76C56.6145 64.76 56.8878 64.7233 57.1611 64.65C57.4411 64.57 57.6978 64.4333 57.9311 64.24L58.2611 64.97C58.0145 65.17 57.7145 65.3233 57.3611 65.43C57.0145 65.5367 56.6678 65.59 56.3211 65.59ZM59.5854 65.5V60.58H60.5754V61.75H60.5254C60.6388 61.37 60.8354 61.0733 61.1154 60.86C61.4021 60.6467 61.7688 60.5233 62.2154 60.49L62.6254 60.47L62.7054 61.39L62.0054 61.46C61.5721 61.5 61.2388 61.64 61.0054 61.88C60.7721 62.12 60.6554 62.4367 60.6554 62.83V65.5H59.5854ZM66.4128 65.5V64.72L68.7928 62.19C69.0194 61.95 69.1961 61.7333 69.3228 61.54C69.4561 61.34 69.5528 61.1467 69.6128 60.96C69.6728 60.7733 69.7028 60.5867 69.7028 60.4C69.7028 60.0333 69.5861 59.7533 69.3528 59.56C69.1261 59.3667 68.7994 59.27 68.3728 59.27C68.0461 59.27 67.7261 59.3333 67.4128 59.46C67.0994 59.58 66.8028 59.77 66.5228 60.03L66.1428 59.22C66.4294 58.9533 66.7794 58.7433 67.1928 58.59C67.6061 58.4367 68.0361 58.36 68.4828 58.36C68.9628 58.36 69.3728 58.4367 69.7128 58.59C70.0528 58.7433 70.3094 58.9667 70.4828 59.26C70.6628 59.5533 70.7528 59.9033 70.7528 60.31C70.7528 60.5233 70.7261 60.73 70.6728 60.93C70.6261 61.13 70.5528 61.33 70.4528 61.53C70.3528 61.7233 70.2228 61.9267 70.0628 62.14C69.9094 62.3467 69.7261 62.56 69.5128 62.78L67.6028 64.77V64.6H71.0328V65.5H66.4128Z" fill="#667085"/>
<defs>
<filter id="filter0_d_8310_820" x="0" y="0" width="96" height="85.8462" filterUnits="userSpaceOnUse" color-interpolation-filters="sRGB">
<feFlood flood-opacity="0" result="BackgroundImageFix"/>
<feColorMatrix in="SourceAlpha" type="matrix" values="0 0 0 0 0 0 0 0 0 0 0 0 0 0 0 0 0 0 127 0" result="hardAlpha"/>
<feOffset dy="4"/>
<feGaussianBlur stdDeviation="2"/>
<feComposite in2="hardAlpha" operator="out"/>
<feColorMatrix type="matrix" values="0 0 0 0 0 0 0 0 0 0 0 0 0 0 0 0 0 0 0.25 0"/>
<feBlend mode="normal" in2="BackgroundImageFix" result="effect1_dropShadow_8310_820"/>
<feBlend mode="normal" in="SourceGraphic" in2="effect1_dropShadow_8310_820" result="shape"/>
</filter>
<clipPath id="clip0_8310_820">
<rect width="30" height="30" fill="white" transform="translate(33 7.5)"/>
</clipPath>
</defs>
</svg>
