<svg width="96" height="86" viewBox="0 0 96 86" fill="none" xmlns="http://www.w3.org/2000/svg">
<g filter="url(#filter0_d_8310_972)">
<path d="M5.37285 42.5185C4.62083 41.2089 4.24484 40.5536 4.09767 39.8574C3.96744 39.2412 3.96744 38.6048 4.09767 37.9886C4.24484 37.2924 4.62083 36.6371 5.37285 35.3274L23.5901 3.59555C24.3421 2.28569 24.7181 1.63076 25.2442 1.15444C25.7096 0.732998 26.2579 0.414612 26.8535 0.220002C27.5267 -2.00917e-07 28.2787 0 29.7827 0H66.2171C67.7214 0 68.4731 -2.00917e-07 69.1466 0.220002C69.7419 0.414612 70.2903 0.732998 70.756 1.15444C71.282 1.63076 71.6578 2.28569 72.41 3.59555L90.6271 35.3274C91.3792 36.6371 91.7551 37.2924 91.9021 37.9886C92.0326 38.6048 92.0326 39.2412 91.9021 39.8574C91.7551 40.5536 91.3792 41.2089 90.6271 42.5185L72.41 74.2506C71.6578 75.5603 71.282 76.2151 70.756 76.6915C70.2903 77.1131 69.7419 77.4313 69.1466 77.6259C68.4731 77.8462 67.7214 77.8462 66.2171 77.8462H29.7827C28.2787 77.8462 27.5267 77.8462 26.8535 77.6259C26.2579 77.4313 25.7096 77.1131 25.2442 76.6915C24.7181 76.2151 24.3421 75.5603 23.5901 74.2506L5.37285 42.5185Z" fill="white"/>
</g>
<path d="M58.2051 12.5H38.2051C36.8244 12.5 35.7051 13.6193 35.7051 15V35C35.7051 36.3807 36.8244 37.5 38.2051 37.5H58.2051C59.5858 37.5 60.7051 36.3807 60.7051 35V15C60.7051 13.6193 59.5858 12.5 58.2051 12.5Z" fill="#F2BB41"/>
<path d="M54.4551 26.2499H45.7051V23.0124L46.0676 23.3874C46.1838 23.5046 46.322 23.5976 46.4743 23.661C46.6267 23.7245 46.7901 23.7572 46.9551 23.7572C47.1201 23.7572 47.2835 23.7245 47.4358 23.661C47.5881 23.5976 47.7264 23.5046 47.8426 23.3874C47.9597 23.2712 48.0527 23.133 48.1162 22.9806C48.1796 22.8283 48.2123 22.6649 48.2123 22.4999C48.2123 22.3349 48.1796 22.1715 48.1162 22.0192C48.0527 21.8669 47.9597 21.7286 47.8426 21.6124L45.3426 19.1124C45.2264 18.9953 45.0881 18.9023 44.9358 18.8388C44.7835 18.7753 44.6201 18.7427 44.4551 18.7427C44.2901 18.7427 44.1267 18.7753 43.9743 18.8388C43.822 18.9023 43.6838 18.9953 43.5676 19.1124L41.0676 21.6124C40.951 21.729 40.8586 21.8673 40.7955 22.0196C40.7324 22.1719 40.7 22.3351 40.7 22.4999C40.7 22.8328 40.8322 23.152 41.0676 23.3874C41.3029 23.6228 41.6222 23.755 41.9551 23.755C42.2879 23.755 42.6072 23.6228 42.8426 23.3874L43.2051 23.0124V26.2499C43.2051 26.913 43.4685 27.5488 43.9373 28.0177C44.4061 28.4865 45.042 28.7499 45.7051 28.7499H54.4551C54.7866 28.7499 55.1045 28.6182 55.3389 28.3838C55.5734 28.1494 55.7051 27.8314 55.7051 27.4999C55.7051 27.1684 55.5734 26.8505 55.3389 26.616C55.1045 26.3816 54.7866 26.2499 54.4551 26.2499Z" fill="#E08838"/>
<path d="M29.1103 53L26.1463 44.54H27.4183L29.9023 51.848H29.4583L32.0143 44.54H32.9623L35.4703 51.848H35.0743L37.5823 44.54H38.7943L35.8063 53H34.7623L32.3383 46.052H32.6023L30.1543 53H29.1103ZM41.9848 53.108C41.3448 53.108 40.7928 52.988 40.3288 52.748C39.8728 52.5 39.5168 52.152 39.2608 51.704C39.0128 51.248 38.8888 50.708 38.8888 50.084C38.8888 49.476 39.0128 48.944 39.2608 48.488C39.5088 48.032 39.8488 47.676 40.2808 47.42C40.7128 47.164 41.2048 47.036 41.7568 47.036C42.3008 47.036 42.7648 47.156 43.1488 47.396C43.5408 47.628 43.8408 47.96 44.0488 48.392C44.2568 48.824 44.3608 49.34 44.3608 49.94V50.348H39.8488V49.604H43.5448L43.3408 49.772C43.3408 49.172 43.2088 48.708 42.9448 48.38C42.6808 48.052 42.3008 47.888 41.8048 47.888C41.4288 47.888 41.1088 47.976 40.8448 48.152C40.5888 48.328 40.3928 48.572 40.2568 48.884C40.1208 49.196 40.0528 49.56 40.0528 49.976V50.048C40.0528 50.512 40.1248 50.904 40.2688 51.224C40.4208 51.536 40.6408 51.772 40.9288 51.932C41.2168 52.092 41.5728 52.172 41.9968 52.172C42.3328 52.172 42.6608 52.12 42.9808 52.016C43.3088 51.904 43.6168 51.732 43.9048 51.5L44.2648 52.34C44.0008 52.58 43.6608 52.768 43.2448 52.904C42.8288 53.04 42.4088 53.108 41.9848 53.108ZM51.3304 53.108C50.6024 53.108 50.0544 52.92 49.6864 52.544C49.3264 52.168 49.1464 51.624 49.1464 50.912V48.08H48.0064V47.144H49.1464V45.38H50.3584V47.144H52.1704V48.08H50.3584V50.816C50.3584 51.24 50.4464 51.56 50.6224 51.776C50.8064 51.992 51.1024 52.1 51.5104 52.1C51.6304 52.1 51.7504 52.084 51.8704 52.052C51.9984 52.02 52.1224 51.988 52.2424 51.956L52.4344 52.868C52.3144 52.94 52.1464 52.996 51.9304 53.036C51.7224 53.084 51.5224 53.108 51.3304 53.108ZM55.3052 53.108C54.8332 53.108 54.4372 53.02 54.1172 52.844C53.8052 52.668 53.5692 52.408 53.4092 52.064C53.2572 51.712 53.1812 51.272 53.1812 50.744V47.144H54.3932V50.756C54.3932 51.068 54.4332 51.328 54.5132 51.536C54.6012 51.744 54.7332 51.896 54.9092 51.992C55.0932 52.088 55.3212 52.136 55.5932 52.136C55.8972 52.136 56.1652 52.068 56.3972 51.932C56.6292 51.796 56.8092 51.6 56.9372 51.344C57.0652 51.088 57.1292 50.792 57.1292 50.456V47.144H58.3412V53H57.1652V51.716H57.3212C57.1612 52.164 56.9052 52.508 56.5532 52.748C56.2012 52.988 55.7852 53.108 55.3052 53.108ZM60.0493 53V47.144H61.2253V48.548H61.1053C61.2333 48.068 61.4613 47.704 61.7893 47.456C62.1253 47.208 62.5693 47.064 63.1213 47.024L63.5173 47L63.6013 48.032L62.8693 48.104C62.3493 48.152 61.9533 48.316 61.6813 48.596C61.4093 48.876 61.2733 49.26 61.2733 49.748V53H60.0493ZM64.5258 53V47.144H65.7018V48.392H65.5698C65.7458 47.944 66.0218 47.608 66.3978 47.384C66.7738 47.152 67.2058 47.036 67.6938 47.036C68.1578 47.036 68.5418 47.124 68.8458 47.3C69.1578 47.468 69.3898 47.728 69.5418 48.08C69.6938 48.424 69.7698 48.86 69.7698 49.388V53H68.5578V49.46C68.5578 49.124 68.5138 48.852 68.4258 48.644C68.3378 48.428 68.2058 48.268 68.0298 48.164C67.8538 48.06 67.6258 48.008 67.3458 48.008C67.0258 48.008 66.7418 48.076 66.4938 48.212C66.2538 48.348 66.0658 48.544 65.9298 48.8C65.8018 49.056 65.7378 49.352 65.7378 49.688V53H64.5258Z" fill="black"/>
<path d="M28.6563 68.1C27.9563 68.1 27.3529 67.9533 26.8463 67.66C26.3396 67.3667 25.9496 66.95 25.6763 66.41C25.4029 65.8633 25.2663 65.2167 25.2663 64.47C25.2663 63.7233 25.4029 63.08 25.6763 62.54C25.9496 62 26.3396 61.5867 26.8463 61.3C27.3529 61.0067 27.9563 60.86 28.6563 60.86C29.1429 60.86 29.5929 60.9333 30.0063 61.08C30.4196 61.2267 30.7663 61.44 31.0463 61.72L30.6763 62.56C30.3696 62.3 30.0563 62.11 29.7363 61.99C29.4163 61.87 29.0663 61.81 28.6863 61.81C27.9529 61.81 27.3863 62.04 26.9863 62.5C26.5863 62.9533 26.3863 63.61 26.3863 64.47C26.3863 65.33 26.5863 65.99 26.9863 66.45C27.3863 66.91 27.9529 67.14 28.6863 67.14C29.0663 67.14 29.4163 67.08 29.7363 66.96C30.0563 66.84 30.3696 66.65 30.6763 66.39L31.0463 67.23C30.7663 67.51 30.4196 67.7267 30.0063 67.88C29.5929 68.0267 29.1429 68.1 28.6563 68.1ZM32.3003 68V60.95H33.3303V64.1H33.2703C33.417 63.7467 33.647 63.4733 33.9603 63.28C34.2737 63.0867 34.6303 62.99 35.0303 62.99C35.4303 62.99 35.7603 63.0633 36.0203 63.21C36.287 63.3567 36.487 63.58 36.6203 63.88C36.7537 64.1733 36.8203 64.5433 36.8203 64.99V68H35.7603V65.05C35.7603 64.7833 35.7237 64.5633 35.6503 64.39C35.5837 64.21 35.4737 64.0767 35.3203 63.99C35.1737 63.8967 34.9803 63.85 34.7403 63.85C34.467 63.85 34.227 63.91 34.0203 64.03C33.8137 64.15 33.6503 64.3167 33.5303 64.53C33.417 64.7367 33.3603 64.9767 33.3603 65.25V68H32.3003ZM39.9655 68.09C39.6188 68.09 39.3055 68.0233 39.0255 67.89C38.7455 67.7567 38.5255 67.5767 38.3655 67.35C38.2121 67.1167 38.1355 66.8567 38.1355 66.57C38.1355 66.2033 38.2321 65.9133 38.4255 65.7C38.6255 65.4867 38.9421 65.3333 39.3755 65.24C39.8088 65.14 40.3821 65.09 41.0955 65.09H41.6755V65.75H41.1255C40.7655 65.75 40.4621 65.7633 40.2155 65.79C39.9688 65.81 39.7688 65.85 39.6155 65.91C39.4621 65.97 39.3488 66.05 39.2755 66.15C39.2088 66.2433 39.1755 66.3633 39.1755 66.51C39.1755 66.7633 39.2655 66.9633 39.4455 67.11C39.6321 67.25 39.8755 67.32 40.1755 67.32C40.4355 67.32 40.6655 67.2633 40.8655 67.15C41.0655 67.03 41.2255 66.87 41.3455 66.67C41.4655 66.4633 41.5255 66.2333 41.5255 65.98V64.85C41.5255 64.4767 41.4321 64.21 41.2455 64.05C41.0655 63.89 40.7821 63.81 40.3955 63.81C40.1088 63.81 39.8221 63.85 39.5355 63.93C39.2555 64.01 38.9621 64.14 38.6555 64.32L38.3355 63.58C38.5288 63.4533 38.7421 63.3467 38.9755 63.26C39.2155 63.1733 39.4621 63.1067 39.7155 63.06C39.9755 63.0133 40.2288 62.99 40.4755 62.99C40.9221 62.99 41.2988 63.06 41.6055 63.2C41.9121 63.34 42.1455 63.5533 42.3055 63.84C42.4655 64.1267 42.5455 64.5 42.5455 64.96V68H41.5955V66.93H41.6355C41.5621 67.1567 41.4488 67.36 41.2955 67.54C41.1421 67.7133 40.9521 67.85 40.7255 67.95C40.5055 68.0433 40.2521 68.09 39.9655 68.09ZM44.0679 69.8V63.08H45.0679V64.15H45.0179C45.1446 63.79 45.3646 63.5067 45.6779 63.3C45.9912 63.0933 46.3612 62.99 46.7879 62.99C47.2279 62.99 47.6146 63.0967 47.9479 63.31C48.2812 63.5167 48.5379 63.81 48.7179 64.19C48.8979 64.57 48.9879 65.02 48.9879 65.54C48.9879 66.0467 48.8979 66.4933 48.7179 66.88C48.5379 67.2667 48.2846 67.5667 47.9579 67.78C47.6312 67.9867 47.2412 68.09 46.7879 68.09C46.3679 68.09 46.0046 67.99 45.6979 67.79C45.3979 67.5833 45.1879 67.3133 45.0679 66.98H45.1279V69.8H44.0679ZM46.5179 67.27C46.9512 67.27 47.2946 67.12 47.5479 66.82C47.8079 66.5133 47.9379 66.0833 47.9379 65.53C47.9379 64.9833 47.8112 64.5633 47.5579 64.27C47.3046 63.97 46.9579 63.82 46.5179 63.82C46.0846 63.82 45.7412 63.97 45.4879 64.27C45.2346 64.5633 45.1079 64.9833 45.1079 65.53C45.1079 66.0833 45.2346 66.5133 45.4879 66.82C45.7479 67.12 46.0912 67.27 46.5179 67.27ZM52.3507 68.09C51.724 68.09 51.254 67.93 50.9407 67.61C50.634 67.29 50.4807 66.8267 50.4807 66.22V63.91H49.5207V63.08H50.5107V61.62H51.5407V63.08H53.1607V63.91H51.5407V66.15C51.5407 66.5033 51.6174 66.77 51.7707 66.95C51.9307 67.1233 52.1774 67.21 52.5107 67.21C52.6307 67.21 52.7474 67.1967 52.8607 67.17C52.974 67.1433 53.0874 67.11 53.2007 67.07L53.3607 67.87C53.2407 67.9433 53.0874 67.9967 52.9007 68.03C52.714 68.07 52.5307 68.09 52.3507 68.09ZM56.5263 68.09C55.9729 68.09 55.4963 67.99 55.0963 67.79C54.6963 67.5833 54.3896 67.29 54.1763 66.91C53.9629 66.5233 53.8563 66.0667 53.8563 65.54C53.8563 65.04 53.9563 64.6 54.1563 64.22C54.3629 63.8333 54.6496 63.5333 55.0163 63.32C55.3896 63.1 55.8196 62.99 56.3063 62.99C56.7796 62.99 57.1829 63.09 57.5163 63.29C57.8496 63.49 58.1063 63.7767 58.2863 64.15C58.4663 64.5167 58.5563 64.9567 58.5563 65.47V65.81H54.6763V65.14H57.8363L57.6663 65.31C57.6663 64.8033 57.5496 64.4167 57.3163 64.15C57.0896 63.8833 56.7629 63.75 56.3363 63.75C56.0296 63.75 55.7663 63.82 55.5463 63.96C55.3263 64.0933 55.1563 64.2867 55.0363 64.54C54.9163 64.7867 54.8563 65.0833 54.8563 65.43V65.52C54.8563 65.9067 54.9196 66.23 55.0463 66.49C55.1796 66.75 55.3729 66.9433 55.6263 67.07C55.8796 67.1967 56.1863 67.26 56.5463 67.26C56.8196 67.26 57.0929 67.2233 57.3663 67.15C57.6463 67.07 57.9029 66.9333 58.1363 66.74L58.4663 67.47C58.2196 67.67 57.9196 67.8233 57.5663 67.93C57.2196 68.0367 56.8729 68.09 56.5263 68.09ZM59.7906 68V63.08H60.7806V64.25H60.7306C60.8439 63.87 61.0406 63.5733 61.3206 63.36C61.6072 63.1467 61.9739 63.0233 62.4206 62.99L62.8306 62.97L62.9106 63.89L62.2106 63.96C61.7772 64 61.4439 64.14 61.2106 64.38C60.9772 64.62 60.8606 64.9367 60.8606 65.33V68H59.7906ZM69.4779 68V66.58H66.2679V65.8L69.5379 60.95H70.5079V65.71H71.4879V66.58H70.5079V68H69.4779ZM69.4879 65.71V62.23H69.6479L67.1579 65.94L67.1079 65.71H69.4879Z" fill="#667085"/>
<defs>
<filter id="filter0_d_8310_972" x="0" y="0" width="96" height="85.8462" filterUnits="userSpaceOnUse" color-interpolation-filters="sRGB">
<feFlood flood-opacity="0" result="BackgroundImageFix"/>
<feColorMatrix in="SourceAlpha" type="matrix" values="0 0 0 0 0 0 0 0 0 0 0 0 0 0 0 0 0 0 127 0" result="hardAlpha"/>
<feOffset dy="4"/>
<feGaussianBlur stdDeviation="2"/>
<feComposite in2="hardAlpha" operator="out"/>
<feColorMatrix type="matrix" values="0 0 0 0 0 0 0 0 0 0 0 0 0 0 0 0 0 0 0.25 0"/>
<feBlend mode="normal" in2="BackgroundImageFix" result="effect1_dropShadow_8310_972"/>
<feBlend mode="normal" in="SourceGraphic" in2="effect1_dropShadow_8310_972" result="shape"/>
</filter>
</defs>
</svg>
