<svg width="100" height="87" viewBox="0 0 100 87" fill="none" xmlns="http://www.w3.org/2000/svg">
<g filter="url(#filter0_d_8358_581)">
<path d="M5.43525 43.0956C4.64905 41.7858 4.25597 41.1305 4.10211 40.4343C3.96596 39.8181 3.96596 39.1816 4.10211 38.5654C4.25597 37.8692 4.64905 37.2139 5.43525 35.9041L24.4806 4.17068C25.2667 2.86076 25.6598 2.20579 26.2098 1.72945C26.6964 1.30799 27.2696 0.989583 27.8923 0.794964C28.5961 0.574951 29.3823 0.574951 30.9547 0.574951H69.0452C70.6178 0.574951 71.4037 0.574951 72.1078 0.794964C72.7302 0.989583 73.3035 1.30799 73.7903 1.72945C74.3402 2.20579 74.7332 2.86076 75.5195 4.17068L94.5647 35.9041C95.351 37.2139 95.744 37.8692 95.8977 38.5654C96.0341 39.1816 96.0341 39.8181 95.8977 40.4343C95.744 41.1305 95.351 41.7858 94.5647 43.0956L75.5195 74.8292C74.7332 76.139 74.3402 76.7938 73.7903 77.2703C73.3035 77.6919 72.7302 78.0101 72.1078 78.2047C71.4037 78.4249 70.6178 78.4249 69.0452 78.4249H30.9547C29.3823 78.4249 28.5961 78.4249 27.8923 78.2047C27.2696 78.0101 26.6964 77.6919 26.2098 77.2703C25.6598 76.7938 25.2667 76.139 24.4806 74.8292L5.43525 43.0956Z" fill="white"/>
</g>
<path d="M60.375 33.7H41.625C41.625 33.7 39.75 33.6375 39.75 28.7H62.25C62.25 33.6375 60.375 33.7 60.375 33.7Z" fill="#E08838"/>
<path d="M61 7.44995H41V28.7H61V7.44995Z" fill="#F2BB41"/>
<path d="M57.25 14.95H47.25V16.2H57.25V14.95Z" fill="#E08838"/>
<path d="M57.25 17.45H47.25V18.7H57.25V17.45Z" fill="#E08838"/>
<path d="M57.25 19.95H47.25V21.2H57.25V19.95Z" fill="#E08838"/>
<path d="M57.25 22.45H47.25V23.7H57.25V22.45Z" fill="#E08838"/>
<path d="M57.25 24.95H47.25V26.2H57.25V24.95Z" fill="#E08838"/>
<path d="M46 14.95H44.75V16.2H46V14.95Z" fill="#E08838"/>
<path d="M46 17.45H44.75V18.7H46V17.45Z" fill="#E08838"/>
<path d="M46 19.95H44.75V21.2H46V19.95Z" fill="#E08838"/>
<path d="M46 22.45H44.75V23.7H46V22.45Z" fill="#E08838"/>
<path d="M46 24.95H44.75V26.2H46V24.95Z" fill="#E08838"/>
<path d="M18.1637 48.575V40.115H23.5397V41.123H19.4117V43.823H23.2877V44.831H19.4117V48.575H18.1637ZM26.9976 48.683C26.4056 48.683 25.8936 48.559 25.4616 48.311C25.0376 48.063 24.7056 47.711 24.4656 47.255C24.2256 46.799 24.1056 46.263 24.1056 45.647C24.1056 45.023 24.2256 44.487 24.4656 44.039C24.7056 43.583 25.0376 43.231 25.4616 42.983C25.8936 42.735 26.4056 42.611 26.9976 42.611C27.5816 42.611 28.0856 42.735 28.5096 42.983C28.9416 43.231 29.2776 43.583 29.5176 44.039C29.7576 44.495 29.8776 45.031 29.8776 45.647C29.8776 46.263 29.7576 46.799 29.5176 47.255C29.2776 47.711 28.9416 48.063 28.5096 48.311C28.0856 48.559 27.5816 48.683 26.9976 48.683ZM26.9856 47.747C27.4896 47.747 27.8936 47.567 28.1976 47.207C28.5016 46.847 28.6536 46.327 28.6536 45.647C28.6536 44.959 28.5016 44.439 28.1976 44.087C27.8936 43.735 27.4896 43.559 26.9856 43.559C26.4896 43.559 26.0896 43.735 25.7856 44.087C25.4816 44.439 25.3296 44.959 25.3296 45.647C25.3296 46.327 25.4816 46.847 25.7856 47.207C26.0896 47.567 26.4896 47.747 26.9856 47.747ZM33.1467 48.683C32.5067 48.683 32.0267 48.503 31.7067 48.143C31.3947 47.775 31.2387 47.247 31.2387 46.559V40.115H32.4507V46.487C32.4507 46.743 32.4867 46.963 32.5587 47.147C32.6307 47.323 32.7387 47.455 32.8827 47.543C33.0267 47.631 33.2067 47.675 33.4227 47.675C33.5187 47.675 33.6107 47.671 33.6987 47.663C33.7867 47.655 33.8707 47.639 33.9507 47.615L33.9267 48.587C33.7907 48.619 33.6587 48.643 33.5307 48.659C33.4027 48.675 33.2747 48.683 33.1467 48.683ZM36.8147 48.683C36.1747 48.683 35.6947 48.503 35.3747 48.143C35.0627 47.775 34.9067 47.247 34.9067 46.559V40.115H36.1187V46.487C36.1187 46.743 36.1547 46.963 36.2267 47.147C36.2987 47.323 36.4067 47.455 36.5507 47.543C36.6947 47.631 36.8747 47.675 37.0907 47.675C37.1867 47.675 37.2787 47.671 37.3667 47.663C37.4547 47.655 37.5387 47.639 37.6187 47.615L37.5947 48.587C37.4587 48.619 37.3267 48.643 37.1987 48.659C37.0707 48.675 36.9427 48.683 36.8147 48.683ZM41.0601 48.683C40.4681 48.683 39.9561 48.559 39.5241 48.311C39.1001 48.063 38.7681 47.711 38.5281 47.255C38.2881 46.799 38.1681 46.263 38.1681 45.647C38.1681 45.023 38.2881 44.487 38.5281 44.039C38.7681 43.583 39.1001 43.231 39.5241 42.983C39.9561 42.735 40.4681 42.611 41.0601 42.611C41.6441 42.611 42.1481 42.735 42.5721 42.983C43.0041 43.231 43.3401 43.583 43.5801 44.039C43.8201 44.495 43.9401 45.031 43.9401 45.647C43.9401 46.263 43.8201 46.799 43.5801 47.255C43.3401 47.711 43.0041 48.063 42.5721 48.311C42.1481 48.559 41.6441 48.683 41.0601 48.683ZM41.0481 47.747C41.5521 47.747 41.9561 47.567 42.2601 47.207C42.5641 46.847 42.7161 46.327 42.7161 45.647C42.7161 44.959 42.5641 44.439 42.2601 44.087C41.9561 43.735 41.5521 43.559 41.0481 43.559C40.5521 43.559 40.1521 43.735 39.8481 44.087C39.5441 44.439 39.3921 44.959 39.3921 45.647C39.3921 46.327 39.5441 46.847 39.8481 47.207C40.1521 47.567 40.5521 47.747 41.0481 47.747ZM46.7798 48.575L44.5478 42.719H45.7958L47.5117 47.555H47.2238L48.9878 42.719H49.9238L51.6518 47.555H51.3878L53.1158 42.719H54.3038L52.0718 48.575H50.9678L49.1198 43.583H49.7198L47.8838 48.575H46.7798ZM58.4965 48.575V42.719H59.6725V44.123H59.5525C59.6805 43.643 59.9085 43.279 60.2365 43.031C60.5725 42.783 61.0165 42.639 61.5685 42.599L61.9645 42.575L62.0485 43.607L61.3165 43.679C60.7965 43.727 60.4005 43.891 60.1285 44.171C59.8565 44.451 59.7205 44.835 59.7205 45.323V48.575H58.4965ZM65.0611 48.683C64.5891 48.683 64.1931 48.595 63.8731 48.419C63.5611 48.243 63.3251 47.983 63.1651 47.639C63.0131 47.287 62.9371 46.847 62.9371 46.319V42.719H64.1491V46.331C64.1491 46.643 64.1891 46.903 64.2691 47.111C64.3571 47.319 64.4891 47.471 64.6651 47.567C64.8491 47.663 65.0771 47.711 65.3491 47.711C65.6531 47.711 65.9211 47.643 66.1531 47.507C66.3851 47.371 66.5651 47.175 66.6931 46.919C66.8211 46.663 66.8851 46.367 66.8851 46.031V42.719H68.0971V48.575H66.9211V47.291H67.0771C66.9171 47.739 66.6611 48.083 66.3091 48.323C65.9571 48.563 65.5411 48.683 65.0611 48.683ZM71.7131 48.683C71.0731 48.683 70.5931 48.503 70.2731 48.143C69.9611 47.775 69.8051 47.247 69.8051 46.559V40.115H71.0171V46.487C71.0171 46.743 71.0531 46.963 71.1251 47.147C71.1971 47.323 71.3051 47.455 71.4491 47.543C71.5931 47.631 71.7731 47.675 71.9891 47.675C72.0851 47.675 72.1771 47.671 72.2651 47.663C72.3531 47.655 72.4371 47.639 72.5171 47.615L72.4931 48.587C72.3571 48.619 72.2251 48.643 72.0971 48.659C71.9691 48.675 71.8411 48.683 71.7131 48.683ZM76.1625 48.683C75.5225 48.683 74.9705 48.563 74.5065 48.323C74.0505 48.075 73.6945 47.727 73.4385 47.279C73.1905 46.823 73.0665 46.283 73.0665 45.659C73.0665 45.051 73.1905 44.519 73.4385 44.063C73.6865 43.607 74.0265 43.251 74.4585 42.995C74.8905 42.739 75.3825 42.611 75.9345 42.611C76.4785 42.611 76.9425 42.731 77.3265 42.971C77.7185 43.203 78.0185 43.535 78.2265 43.967C78.4345 44.399 78.5385 44.915 78.5385 45.515V45.923H74.0265V45.179H77.7225L77.5185 45.347C77.5185 44.747 77.3865 44.283 77.1225 43.955C76.8585 43.627 76.4785 43.463 75.9825 43.463C75.6065 43.463 75.2865 43.551 75.0225 43.727C74.7665 43.903 74.5705 44.147 74.4345 44.459C74.2985 44.771 74.2305 45.135 74.2305 45.551V45.623C74.2305 46.087 74.3025 46.479 74.4465 46.799C74.5985 47.111 74.8185 47.347 75.1065 47.507C75.3945 47.667 75.7505 47.747 76.1745 47.747C76.5105 47.747 76.8385 47.695 77.1585 47.591C77.4865 47.479 77.7945 47.307 78.0825 47.075L78.4425 47.915C78.1785 48.155 77.8385 48.343 77.4225 48.479C77.0065 48.615 76.5865 48.683 76.1625 48.683ZM81.9118 48.683C81.5998 48.683 81.2958 48.655 80.9998 48.599C80.7038 48.543 80.4318 48.463 80.1838 48.359C79.9358 48.255 79.7158 48.127 79.5238 47.975L79.8718 47.159C80.0718 47.295 80.2838 47.415 80.5078 47.519C80.7318 47.615 80.9638 47.687 81.2038 47.735C81.4518 47.783 81.6918 47.807 81.9238 47.807C82.3478 47.807 82.6678 47.731 82.8838 47.579C83.0998 47.427 83.2078 47.223 83.2078 46.967C83.2078 46.759 83.1358 46.599 82.9918 46.487C82.8478 46.367 82.6318 46.275 82.3438 46.211L81.2038 45.983C80.7078 45.879 80.3318 45.695 80.0758 45.431C79.8198 45.167 79.6918 44.831 79.6918 44.423C79.6918 44.055 79.7918 43.735 79.9918 43.463C80.1918 43.191 80.4718 42.983 80.8318 42.839C81.1918 42.687 81.6078 42.611 82.0798 42.611C82.3518 42.611 82.6158 42.639 82.8718 42.695C83.1278 42.751 83.3678 42.831 83.5918 42.935C83.8238 43.039 84.0198 43.171 84.1798 43.331L83.8318 44.147C83.6798 44.011 83.5038 43.895 83.3038 43.799C83.1118 43.703 82.9118 43.631 82.7038 43.583C82.4958 43.527 82.2878 43.499 82.0798 43.499C81.6558 43.499 81.3358 43.579 81.1198 43.739C80.9118 43.891 80.8078 44.099 80.8078 44.363C80.8078 44.563 80.8718 44.727 80.9998 44.855C81.1278 44.983 81.3278 45.075 81.5998 45.131L82.7398 45.359C83.2598 45.463 83.6518 45.639 83.9158 45.887C84.1878 46.135 84.3238 46.471 84.3238 46.895C84.3238 47.263 84.2238 47.583 84.0238 47.855C83.8238 48.127 83.5398 48.335 83.1718 48.479C82.8118 48.615 82.3918 48.683 81.9118 48.683Z" fill="black"/>
<path d="M31.4511 64.675C30.7511 64.675 30.1478 64.5283 29.6411 64.235C29.1345 63.9416 28.7445 63.525 28.4711 62.985C28.1978 62.4383 28.0611 61.7916 28.0611 61.045C28.0611 60.2983 28.1978 59.655 28.4711 59.115C28.7445 58.575 29.1345 58.1616 29.6411 57.875C30.1478 57.5816 30.7511 57.435 31.4511 57.435C31.9378 57.435 32.3878 57.5083 32.8011 57.655C33.2145 57.8016 33.5611 58.015 33.8411 58.295L33.4711 59.135C33.1645 58.875 32.8511 58.685 32.5311 58.565C32.2111 58.445 31.8611 58.385 31.4811 58.385C30.7478 58.385 30.1811 58.615 29.7811 59.075C29.3811 59.5283 29.1811 60.185 29.1811 61.045C29.1811 61.905 29.3811 62.565 29.7811 63.025C30.1811 63.485 30.7478 63.715 31.4811 63.715C31.8611 63.715 32.2111 63.655 32.5311 63.535C32.8511 63.415 33.1645 63.225 33.4711 62.965L33.8411 63.805C33.5611 64.085 33.2145 64.3016 32.8011 64.455C32.3878 64.6016 31.9378 64.675 31.4511 64.675ZM35.0952 64.575V57.525H36.1252V60.675H36.0652C36.2119 60.3216 36.4419 60.0483 36.7552 59.855C37.0685 59.6616 37.4252 59.565 37.8252 59.565C38.2252 59.565 38.5552 59.6383 38.8152 59.785C39.0819 59.9316 39.2819 60.155 39.4152 60.455C39.5485 60.7483 39.6152 61.1183 39.6152 61.565V64.575H38.5552V61.625C38.5552 61.3583 38.5185 61.1383 38.4452 60.965C38.3785 60.785 38.2685 60.6516 38.1152 60.565C37.9685 60.4716 37.7752 60.425 37.5352 60.425C37.2619 60.425 37.0219 60.485 36.8152 60.605C36.6085 60.725 36.4452 60.8916 36.3252 61.105C36.2119 61.3116 36.1552 61.5516 36.1552 61.825V64.575H35.0952ZM42.7604 64.665C42.4137 64.665 42.1004 64.5983 41.8204 64.465C41.5404 64.3316 41.3204 64.1516 41.1604 63.925C41.007 63.6916 40.9304 63.4316 40.9304 63.145C40.9304 62.7783 41.027 62.4883 41.2204 62.275C41.4204 62.0616 41.737 61.9083 42.1704 61.815C42.6037 61.715 43.177 61.665 43.8904 61.665H44.4704V62.325H43.9204C43.5604 62.325 43.257 62.3383 43.0104 62.365C42.7637 62.385 42.5637 62.425 42.4104 62.485C42.257 62.545 42.1437 62.625 42.0704 62.725C42.0037 62.8183 41.9704 62.9383 41.9704 63.085C41.9704 63.3383 42.0604 63.5383 42.2404 63.685C42.427 63.825 42.6704 63.895 42.9704 63.895C43.2304 63.895 43.4604 63.8383 43.6604 63.725C43.8604 63.605 44.0204 63.445 44.1404 63.245C44.2604 63.0383 44.3204 62.8083 44.3204 62.555V61.425C44.3204 61.0516 44.227 60.785 44.0404 60.625C43.8604 60.465 43.577 60.385 43.1904 60.385C42.9037 60.385 42.617 60.425 42.3304 60.505C42.0504 60.585 41.757 60.715 41.4504 60.895L41.1304 60.155C41.3237 60.0283 41.537 59.9216 41.7704 59.835C42.0104 59.7483 42.257 59.6816 42.5104 59.635C42.7704 59.5883 43.0237 59.565 43.2704 59.565C43.717 59.565 44.0937 59.635 44.4004 59.775C44.707 59.915 44.9404 60.1283 45.1004 60.415C45.2604 60.7016 45.3404 61.075 45.3404 61.535V64.575H44.3904V63.505H44.4304C44.357 63.7316 44.2437 63.935 44.0904 64.115C43.937 64.2883 43.747 64.425 43.5204 64.525C43.3004 64.6183 43.047 64.665 42.7604 64.665ZM46.8628 66.375V59.655H47.8628V60.725H47.8128C47.9394 60.365 48.1594 60.0816 48.4728 59.875C48.7861 59.6683 49.1561 59.565 49.5828 59.565C50.0228 59.565 50.4094 59.6716 50.7428 59.885C51.0761 60.0916 51.3328 60.385 51.5128 60.765C51.6928 61.145 51.7828 61.595 51.7828 62.115C51.7828 62.6216 51.6928 63.0683 51.5128 63.455C51.3328 63.8416 51.0794 64.1416 50.7528 64.355C50.4261 64.5616 50.0361 64.665 49.5828 64.665C49.1628 64.665 48.7994 64.565 48.4928 64.365C48.1928 64.1583 47.9828 63.8883 47.8628 63.555H47.9228V66.375H46.8628ZM49.3128 63.845C49.7461 63.845 50.0894 63.695 50.3428 63.395C50.6028 63.0883 50.7328 62.6583 50.7328 62.105C50.7328 61.5583 50.6061 61.1383 50.3528 60.845C50.0994 60.545 49.7528 60.395 49.3128 60.395C48.8794 60.395 48.5361 60.545 48.2828 60.845C48.0294 61.1383 47.9028 61.5583 47.9028 62.105C47.9028 62.6583 48.0294 63.0883 48.2828 63.395C48.5428 63.695 48.8861 63.845 49.3128 63.845ZM55.1456 64.665C54.5189 64.665 54.0489 64.505 53.7356 64.185C53.4289 63.865 53.2756 63.4016 53.2756 62.795V60.485H52.3156V59.655H53.3056V58.195H54.3356V59.655H55.9556V60.485H54.3356V62.725C54.3356 63.0783 54.4123 63.345 54.5656 63.525C54.7256 63.6983 54.9723 63.785 55.3056 63.785C55.4256 63.785 55.5423 63.7716 55.6556 63.745C55.7689 63.7183 55.8823 63.685 55.9956 63.645L56.1556 64.445C56.0356 64.5183 55.8823 64.5716 55.6956 64.605C55.5089 64.645 55.3256 64.665 55.1456 64.665ZM59.3211 64.665C58.7678 64.665 58.2911 64.565 57.8911 64.365C57.4911 64.1583 57.1845 63.865 56.9711 63.485C56.7578 63.0983 56.6511 62.6416 56.6511 62.115C56.6511 61.615 56.7511 61.175 56.9511 60.795C57.1578 60.4083 57.4445 60.1083 57.8111 59.895C58.1845 59.675 58.6145 59.565 59.1011 59.565C59.5745 59.565 59.9778 59.665 60.3111 59.865C60.6445 60.065 60.9011 60.3516 61.0811 60.725C61.2611 61.0916 61.3511 61.5316 61.3511 62.045V62.385H57.4711V61.715H60.6311L60.4611 61.885C60.4611 61.3783 60.3445 60.9916 60.1111 60.725C59.8845 60.4583 59.5578 60.325 59.1311 60.325C58.8245 60.325 58.5611 60.395 58.3411 60.535C58.1211 60.6683 57.9511 60.8616 57.8311 61.115C57.7111 61.3616 57.6511 61.6583 57.6511 62.005V62.095C57.6511 62.4816 57.7145 62.805 57.8411 63.065C57.9745 63.325 58.1678 63.5183 58.4211 63.645C58.6745 63.7716 58.9811 63.835 59.3411 63.835C59.6145 63.835 59.8878 63.7983 60.1611 63.725C60.4411 63.645 60.6978 63.5083 60.9311 63.315L61.2611 64.045C61.0145 64.245 60.7145 64.3983 60.3611 64.505C60.0145 64.6116 59.6678 64.665 59.3211 64.665ZM62.5854 64.575V59.655H63.5754V60.825H63.5254C63.6388 60.445 63.8354 60.1483 64.1154 59.935C64.4021 59.7216 64.7688 59.5983 65.2154 59.565L65.6254 59.545L65.7054 60.465L65.0054 60.535C64.5721 60.575 64.2388 60.715 64.0054 60.955C63.7721 61.195 63.6554 61.5116 63.6554 61.905V64.575H62.5854ZM69.5928 64.575L73.0228 58.005L73.0428 58.445H69.1928V57.525H73.9928V58.325L70.7528 64.575H69.5928Z" fill="#667085"/>
<defs>
<filter id="filter0_d_8358_581" x="0" y="0.574951" width="100" height="85.8501" filterUnits="userSpaceOnUse" color-interpolation-filters="sRGB">
<feFlood flood-opacity="0" result="BackgroundImageFix"/>
<feColorMatrix in="SourceAlpha" type="matrix" values="0 0 0 0 0 0 0 0 0 0 0 0 0 0 0 0 0 0 127 0" result="hardAlpha"/>
<feOffset dy="4"/>
<feGaussianBlur stdDeviation="2"/>
<feComposite in2="hardAlpha" operator="out"/>
<feColorMatrix type="matrix" values="0 0 0 0 0 0 0 0 0 0 0 0 0 0 0 0 0 0 0.25 0"/>
<feBlend mode="normal" in2="BackgroundImageFix" result="effect1_dropShadow_8358_581"/>
<feBlend mode="normal" in="SourceGraphic" in2="effect1_dropShadow_8358_581" result="shape"/>
</filter>
</defs>
</svg>
