<svg width="102" height="89" viewBox="0 0 102 89" fill="none" xmlns="http://www.w3.org/2000/svg">
<g filter="url(#filter0_d_8334_725)">
<path d="M5.45148 44.7672C4.65639 43.4575 4.25887 42.8022 4.10327 42.1059C3.96558 41.4897 3.96558 40.8533 4.10327 40.237C4.25887 39.5408 4.65639 38.8855 5.45148 37.5758L24.7122 5.84231C25.5072 4.53239 25.9047 3.87742 26.4609 3.40108C26.953 2.97962 27.5327 2.66121 28.1625 2.4666C28.8742 2.24658 29.6693 2.24658 31.2595 2.24658H69.7806C71.3711 2.24658 72.1659 2.24658 72.8779 2.4666C73.5073 2.66121 74.0871 2.97962 74.5794 3.40108C75.1356 3.87742 75.533 4.53239 76.3282 5.84231L95.5887 37.5758C96.3839 38.8855 96.7813 39.5408 96.9368 40.237C97.0747 40.8533 97.0747 41.4897 96.9368 42.1059C96.7813 42.8022 96.3839 43.4575 95.5887 44.7672L76.3282 76.5008C75.533 77.8106 75.1356 78.4655 74.5794 78.9419C74.0871 79.3635 73.5073 79.6817 72.8779 79.8763C72.1659 80.0966 71.3711 80.0966 69.7806 80.0966H31.2595C29.6693 80.0966 28.8742 80.0966 28.1625 79.8763C27.5327 79.6817 26.953 79.3635 26.4609 78.9419C25.9047 78.4655 25.5072 77.8106 24.7122 76.5008L5.45148 44.7672Z" fill="white"/>
</g>
<path d="M58.8718 7.6421L62.2121 14.3508C62.2711 14.439 62.3002 14.5562 62.3293 14.6443C62.5346 15.1721 62.6808 15.9043 62.6808 16.373V19.5662C62.6808 20.5627 62.0068 21.383 61.0693 21.6174V23.4924C61.0693 24.4008 60.3371 25.104 59.4577 25.104C58.5493 25.104 57.8461 24.4008 57.8461 23.4924V21.6755H45.0136V23.4924C45.0136 24.4008 44.3105 25.104 43.4021 25.104C42.5227 25.104 41.7905 24.4008 41.7905 23.4924V21.6174C40.853 21.383 40.179 20.5627 40.179 19.5662V16.373C40.179 15.9043 40.3252 15.1721 40.5305 14.6443C40.5596 14.5562 40.5896 14.439 40.6477 14.3508L43.988 7.6421C44.2515 7.14429 44.9546 6.67554 45.5405 6.67554H57.3183C57.9043 6.67554 58.6083 7.14429 58.8718 7.6421ZM45.3652 9.66335L43.5783 13.7358C43.4902 13.8821 43.4902 14.0583 43.4902 14.1755H59.3696C59.3696 14.0583 59.3696 13.8821 59.2815 13.7358L57.4946 9.66335C57.2602 9.13554 56.5571 8.66679 56.0002 8.66679H46.8596C46.3027 8.66679 45.5996 9.13554 45.3652 9.66335ZM44.5749 19.5652C45.5124 19.5652 46.2446 18.803 46.2446 17.8365C46.2446 16.899 45.5124 16.1668 44.5749 16.1668C43.6374 16.1668 42.8461 16.899 42.8461 17.8365C42.8461 18.803 43.6374 19.5652 44.5749 19.5652ZM58.2858 19.5652C59.2233 19.5652 60.0146 18.803 60.0146 17.8365C60.0146 16.899 59.2233 16.1668 58.2858 16.1668C57.3483 16.1668 56.6161 16.899 56.6161 17.8365C56.6161 18.803 57.3483 19.5652 58.2858 19.5652Z" fill="#F2BB41"/>
<path d="M24.4882 43.9033V35.4433H27.4762C28.4042 35.4433 29.1922 35.6073 29.8402 35.9353C30.4882 36.2553 30.9802 36.7313 31.3162 37.3633C31.6602 37.9873 31.8322 38.7553 31.8322 39.6673C31.8322 40.5793 31.6602 41.3513 31.3162 41.9833C30.9802 42.6073 30.4882 43.0833 29.8402 43.4113C29.1922 43.7393 28.4042 43.9033 27.4762 43.9033H24.4882ZM25.7362 42.8593H27.4042C28.4522 42.8593 29.2362 42.5953 29.7562 42.0673C30.2762 41.5313 30.5362 40.7313 30.5362 39.6673C30.5362 38.6033 30.2722 37.8073 29.7442 37.2793C29.2242 36.7513 28.4442 36.4873 27.4042 36.4873H25.7362V42.8593ZM36.1159 44.0113C35.4759 44.0113 34.9239 43.8913 34.4599 43.6513C34.0039 43.4033 33.6479 43.0553 33.3919 42.6073C33.1439 42.1513 33.0199 41.6113 33.0199 40.9873C33.0199 40.3793 33.1439 39.8473 33.3919 39.3913C33.6399 38.9353 33.9799 38.5793 34.4119 38.3233C34.8439 38.0673 35.3359 37.9393 35.8879 37.9393C36.4319 37.9393 36.8959 38.0593 37.2799 38.2993C37.6719 38.5313 37.9719 38.8633 38.1799 39.2953C38.3879 39.7273 38.4919 40.2433 38.4919 40.8433V41.2513H33.9799V40.5073H37.6759L37.4719 40.6753C37.4719 40.0753 37.3399 39.6113 37.0759 39.2833C36.8119 38.9553 36.4319 38.7913 35.9359 38.7913C35.5599 38.7913 35.2399 38.8793 34.9759 39.0553C34.7199 39.2313 34.5239 39.4753 34.3879 39.7873C34.2519 40.0993 34.1839 40.4633 34.1839 40.8793V40.9513C34.1839 41.4153 34.2559 41.8073 34.3999 42.1273C34.5519 42.4393 34.7719 42.6753 35.0599 42.8353C35.3479 42.9953 35.7039 43.0753 36.1279 43.0753C36.4639 43.0753 36.7919 43.0233 37.1119 42.9193C37.4399 42.8073 37.7479 42.6353 38.0359 42.4033L38.3959 43.2433C38.1319 43.4833 37.7919 43.6713 37.3759 43.8073C36.9599 43.9433 36.5399 44.0113 36.1159 44.0113ZM39.8132 46.0633V38.0473H41.0012V39.3673H40.8692C40.9972 38.9353 41.2492 38.5913 41.6252 38.3353C42.0012 38.0713 42.4452 37.9393 42.9572 37.9393C43.4772 37.9393 43.9292 38.0633 44.3132 38.3113C44.7052 38.5593 45.0052 38.9073 45.2132 39.3553C45.4292 39.8033 45.5372 40.3433 45.5372 40.9753C45.5372 41.5913 45.4292 42.1313 45.2132 42.5953C45.0052 43.0513 44.7092 43.4033 44.3252 43.6513C43.9412 43.8913 43.4852 44.0113 42.9572 44.0113C42.4532 44.0113 42.0132 43.8833 41.6372 43.6273C41.2612 43.3713 41.0092 43.0313 40.8812 42.6073H41.0252V46.0633H39.8132ZM42.6572 43.0753C43.1612 43.0753 43.5612 42.8953 43.8572 42.5353C44.1612 42.1753 44.3132 41.6553 44.3132 40.9753C44.3132 40.2873 44.1612 39.7673 43.8572 39.4153C43.5612 39.0633 43.1612 38.8873 42.6572 38.8873C42.1612 38.8873 41.7612 39.0633 41.4572 39.4153C41.1532 39.7673 41.0012 40.2873 41.0012 40.9753C41.0012 41.6553 41.1532 42.1753 41.4572 42.5353C41.7612 42.8953 42.1612 43.0753 42.6572 43.0753ZM48.775 44.0113C48.367 44.0113 47.999 43.9313 47.671 43.7713C47.351 43.6113 47.099 43.3953 46.915 43.1233C46.731 42.8513 46.639 42.5433 46.639 42.1993C46.639 41.7673 46.747 41.4273 46.963 41.1793C47.187 40.9233 47.551 40.7433 48.055 40.6393C48.567 40.5273 49.255 40.4713 50.119 40.4713H50.683V41.2153H50.131C49.699 41.2153 49.335 41.2313 49.039 41.2633C48.743 41.2953 48.507 41.3473 48.331 41.4193C48.155 41.4833 48.027 41.5753 47.947 41.6953C47.875 41.8153 47.839 41.9593 47.839 42.1273C47.839 42.4313 47.943 42.6793 48.151 42.8713C48.359 43.0553 48.647 43.1473 49.015 43.1473C49.311 43.1473 49.571 43.0793 49.795 42.9433C50.019 42.7993 50.195 42.6073 50.323 42.3673C50.459 42.1273 50.527 41.8513 50.527 41.5393V40.1593C50.527 39.7033 50.431 39.3753 50.239 39.1753C50.047 38.9753 49.731 38.8753 49.291 38.8753C48.955 38.8753 48.619 38.9273 48.283 39.0313C47.947 39.1273 47.603 39.2833 47.251 39.4993L46.879 38.6473C47.087 38.5033 47.327 38.3793 47.599 38.2753C47.871 38.1713 48.155 38.0913 48.451 38.0353C48.755 37.9713 49.047 37.9393 49.327 37.9393C49.863 37.9393 50.303 38.0233 50.647 38.1913C50.999 38.3593 51.259 38.6153 51.427 38.9593C51.595 39.3033 51.679 39.7473 51.679 40.2913V43.9033H50.539V42.5953H50.647C50.583 42.8913 50.463 43.1473 50.287 43.3633C50.119 43.5713 49.907 43.7313 49.651 43.8433C49.395 43.9553 49.103 44.0113 48.775 44.0113ZM53.3483 43.9033V38.0473H54.5243V39.4513H54.4043C54.5323 38.9713 54.7603 38.6073 55.0883 38.3593C55.4243 38.1113 55.8683 37.9673 56.4203 37.9273L56.8163 37.9033L56.9003 38.9353L56.1683 39.0073C55.6483 39.0553 55.2523 39.2193 54.9803 39.4993C54.7083 39.7793 54.5723 40.1633 54.5723 40.6513V43.9033H53.3483ZM60.649 44.0113C59.921 44.0113 59.373 43.8233 59.005 43.4473C58.645 43.0713 58.465 42.5273 58.465 41.8153V38.9833H57.325V38.0473H58.465V36.2833H59.677V38.0473H61.489V38.9833H59.677V41.7193C59.677 42.1433 59.765 42.4633 59.941 42.6793C60.125 42.8953 60.421 43.0033 60.829 43.0033C60.949 43.0033 61.069 42.9873 61.189 42.9553C61.317 42.9233 61.441 42.8913 61.561 42.8593L61.753 43.7713C61.633 43.8433 61.465 43.8993 61.249 43.9393C61.041 43.9873 60.841 44.0113 60.649 44.0113ZM64.6238 44.0113C64.1518 44.0113 63.7558 43.9233 63.4358 43.7473C63.1238 43.5713 62.8878 43.3113 62.7278 42.9673C62.5758 42.6153 62.4998 42.1753 62.4998 41.6473V38.0473H63.7118V41.6593C63.7118 41.9713 63.7518 42.2313 63.8318 42.4393C63.9198 42.6473 64.0518 42.7993 64.2278 42.8953C64.4118 42.9913 64.6398 43.0393 64.9118 43.0393C65.2158 43.0393 65.4838 42.9713 65.7158 42.8353C65.9478 42.6993 66.1278 42.5033 66.2558 42.2473C66.3838 41.9913 66.4478 41.6953 66.4478 41.3593V38.0473H67.6598V43.9033H66.4838V42.6193H66.6398C66.4798 43.0673 66.2238 43.4113 65.8718 43.6513C65.5198 43.8913 65.1038 44.0113 64.6238 44.0113ZM69.3679 43.9033V38.0473H70.5439V39.4513H70.4239C70.5519 38.9713 70.7799 38.6073 71.1079 38.3593C71.4439 38.1113 71.8879 37.9673 72.4399 37.9273L72.8359 37.9033L72.9199 38.9353L72.1879 39.0073C71.6679 39.0553 71.2719 39.2193 70.9999 39.4993C70.7279 39.7793 70.5919 40.1633 70.5919 40.6513V43.9033H69.3679ZM76.5104 44.0113C75.8704 44.0113 75.3184 43.8913 74.8544 43.6513C74.3984 43.4033 74.0424 43.0553 73.7864 42.6073C73.5384 42.1513 73.4144 41.6113 73.4144 40.9873C73.4144 40.3793 73.5384 39.8473 73.7864 39.3913C74.0344 38.9353 74.3744 38.5793 74.8064 38.3233C75.2384 38.0673 75.7304 37.9393 76.2824 37.9393C76.8264 37.9393 77.2904 38.0593 77.6744 38.2993C78.0664 38.5313 78.3664 38.8633 78.5744 39.2953C78.7824 39.7273 78.8864 40.2433 78.8864 40.8433V41.2513H74.3744V40.5073H78.0704L77.8664 40.6753C77.8664 40.0753 77.7344 39.6113 77.4704 39.2833C77.2064 38.9553 76.8264 38.7913 76.3304 38.7913C75.9544 38.7913 75.6344 38.8793 75.3704 39.0553C75.1144 39.2313 74.9184 39.4753 74.7824 39.7873C74.6464 40.0993 74.5784 40.4633 74.5784 40.8793V40.9513C74.5784 41.4153 74.6504 41.8073 74.7944 42.1273C74.9464 42.4393 75.1664 42.6753 75.4544 42.8353C75.7424 42.9953 76.0984 43.0753 76.5224 43.0753C76.8584 43.0753 77.1864 43.0233 77.5064 42.9193C77.8344 42.8073 78.1424 42.6353 78.4304 42.4033L78.7904 43.2433C78.5264 43.4833 78.1864 43.6713 77.7704 43.8073C77.3544 43.9433 76.9344 44.0113 76.5104 44.0113ZM35.6549 60.0113C35.0549 60.0113 34.5349 59.8873 34.0949 59.6393C33.6629 59.3833 33.3269 59.0273 33.0869 58.5713C32.8469 58.1073 32.7269 57.5633 32.7269 56.9393C32.7269 56.3233 32.8469 55.7913 33.0869 55.3433C33.3269 54.8953 33.6629 54.5513 34.0949 54.3113C34.5349 54.0633 35.0549 53.9393 35.6549 53.9393C36.0229 53.9393 36.3869 54.0033 36.7469 54.1313C37.1069 54.2513 37.4029 54.4273 37.6349 54.6593L37.2509 55.5113C37.0349 55.3033 36.7909 55.1513 36.5189 55.0553C36.2469 54.9513 35.9909 54.8993 35.7509 54.8993C35.1829 54.8993 34.7429 55.0793 34.4309 55.4393C34.1269 55.7913 33.9749 56.2953 33.9749 56.9513C33.9749 57.6073 34.1269 58.1233 34.4309 58.4993C34.7429 58.8673 35.1829 59.0513 35.7509 59.0513C35.9909 59.0513 36.2469 59.0033 36.5189 58.9073C36.7909 58.8033 37.0349 58.6473 37.2509 58.4393L37.6349 59.3033C37.4029 59.5193 37.1029 59.6913 36.7349 59.8193C36.3749 59.9473 36.0149 60.0113 35.6549 60.0113ZM41.1033 60.0113C40.5113 60.0113 39.9993 59.8873 39.5673 59.6393C39.1433 59.3913 38.8113 59.0393 38.5713 58.5833C38.3313 58.1273 38.2113 57.5913 38.2113 56.9753C38.2113 56.3513 38.3313 55.8153 38.5713 55.3673C38.8113 54.9113 39.1433 54.5593 39.5673 54.3113C39.9993 54.0633 40.5113 53.9393 41.1033 53.9393C41.6873 53.9393 42.1913 54.0633 42.6153 54.3113C43.0473 54.5593 43.3833 54.9113 43.6233 55.3673C43.8633 55.8233 43.9833 56.3593 43.9833 56.9753C43.9833 57.5913 43.8633 58.1273 43.6233 58.5833C43.3833 59.0393 43.0473 59.3913 42.6153 59.6393C42.1913 59.8873 41.6873 60.0113 41.1033 60.0113ZM41.0913 59.0753C41.5953 59.0753 41.9993 58.8953 42.3033 58.5353C42.6073 58.1753 42.7593 57.6553 42.7593 56.9753C42.7593 56.2873 42.6073 55.7673 42.3033 55.4153C41.9993 55.0633 41.5953 54.8873 41.0913 54.8873C40.5953 54.8873 40.1953 55.0633 39.8913 55.4153C39.5873 55.7673 39.4353 56.2873 39.4353 56.9753C39.4353 57.6553 39.5873 58.1753 39.8913 58.5353C40.1953 58.8953 40.5953 59.0753 41.0913 59.0753ZM45.3444 59.9033V54.0473H46.5204V55.2953H46.3884C46.5644 54.8473 46.8404 54.5113 47.2164 54.2873C47.5924 54.0553 48.0244 53.9393 48.5124 53.9393C48.9764 53.9393 49.3604 54.0273 49.6644 54.2033C49.9764 54.3713 50.2084 54.6313 50.3604 54.9833C50.5124 55.3273 50.5884 55.7633 50.5884 56.2913V59.9033H49.3764V56.3633C49.3764 56.0273 49.3324 55.7553 49.2444 55.5473C49.1564 55.3313 49.0244 55.1713 48.8484 55.0673C48.6724 54.9633 48.4444 54.9113 48.1644 54.9113C47.8444 54.9113 47.5604 54.9793 47.3124 55.1153C47.0724 55.2513 46.8844 55.4473 46.7484 55.7033C46.6204 55.9593 46.5564 56.2553 46.5564 56.5913V59.9033H45.3444ZM54.7545 60.0113C54.0265 60.0113 53.4785 59.8233 53.1105 59.4473C52.7505 59.0713 52.5705 58.5273 52.5705 57.8153V54.9833H51.4305V54.0473H52.5705V52.2833H53.7825V54.0473H55.5945V54.9833H53.7825V57.7193C53.7825 58.1433 53.8705 58.4633 54.0465 58.6793C54.2305 58.8953 54.5265 59.0033 54.9345 59.0033C55.0545 59.0033 55.1745 58.9873 55.2945 58.9553C55.4225 58.9233 55.5465 58.8913 55.6665 58.8593L55.8585 59.7713C55.7385 59.8433 55.5705 59.8993 55.3545 59.9393C55.1465 59.9873 54.9465 60.0113 54.7545 60.0113ZM56.6413 59.9033V54.0473H57.8173V55.4513H57.6973C57.8253 54.9713 58.0533 54.6073 58.3813 54.3593C58.7173 54.1113 59.1613 53.9673 59.7133 53.9273L60.1093 53.9033L60.1933 54.9353L59.4613 55.0073C58.9413 55.0553 58.5453 55.2193 58.2733 55.4993C58.0013 55.7793 57.8653 56.1633 57.8653 56.6513V59.9033H56.6413ZM63.5798 60.0113C62.9878 60.0113 62.4758 59.8873 62.0438 59.6393C61.6198 59.3913 61.2878 59.0393 61.0478 58.5833C60.8078 58.1273 60.6878 57.5913 60.6878 56.9753C60.6878 56.3513 60.8078 55.8153 61.0478 55.3673C61.2878 54.9113 61.6198 54.5593 62.0438 54.3113C62.4758 54.0633 62.9878 53.9393 63.5798 53.9393C64.1638 53.9393 64.6678 54.0633 65.0918 54.3113C65.5238 54.5593 65.8598 54.9113 66.0998 55.3673C66.3398 55.8233 66.4598 56.3593 66.4598 56.9753C66.4598 57.5913 66.3398 58.1273 66.0998 58.5833C65.8598 59.0393 65.5238 59.3913 65.0918 59.6393C64.6678 59.8873 64.1638 60.0113 63.5798 60.0113ZM63.5678 59.0753C64.0718 59.0753 64.4758 58.8953 64.7798 58.5353C65.0838 58.1753 65.2358 57.6553 65.2358 56.9753C65.2358 56.2873 65.0838 55.7673 64.7798 55.4153C64.4758 55.0633 64.0718 54.8873 63.5678 54.8873C63.0718 54.8873 62.6718 55.0633 62.3678 55.4153C62.0638 55.7673 61.9118 56.2873 61.9118 56.9753C61.9118 57.6553 62.0638 58.1753 62.3678 58.5353C62.6718 58.8953 63.0718 59.0753 63.5678 59.0753ZM69.729 60.0113C69.089 60.0113 68.609 59.8313 68.289 59.4713C67.977 59.1033 67.821 58.5753 67.821 57.8873V51.4433H69.033V57.8153C69.033 58.0713 69.069 58.2913 69.141 58.4753C69.213 58.6513 69.321 58.7833 69.465 58.8713C69.609 58.9593 69.789 59.0033 70.005 59.0033C70.101 59.0033 70.193 58.9993 70.281 58.9913C70.369 58.9833 70.453 58.9673 70.533 58.9433L70.509 59.9153C70.373 59.9473 70.241 59.9713 70.113 59.9873C69.985 60.0033 69.857 60.0113 69.729 60.0113Z" fill="black"/>
<path d="M28.883 75.0033C28.183 75.0033 27.5797 74.8567 27.073 74.5633C26.5663 74.27 26.1763 73.8533 25.903 73.3133C25.6297 72.7667 25.493 72.12 25.493 71.3733C25.493 70.6267 25.6297 69.9833 25.903 69.4433C26.1763 68.9033 26.5663 68.49 27.073 68.2033C27.5797 67.91 28.183 67.7633 28.883 67.7633C29.3697 67.7633 29.8197 67.8367 30.233 67.9833C30.6463 68.13 30.993 68.3433 31.273 68.6233L30.903 69.4633C30.5963 69.2033 30.283 69.0133 29.963 68.8933C29.643 68.7733 29.293 68.7133 28.913 68.7133C28.1797 68.7133 27.613 68.9433 27.213 69.4033C26.813 69.8567 26.613 70.5133 26.613 71.3733C26.613 72.2333 26.813 72.8933 27.213 73.3533C27.613 73.8133 28.1797 74.0433 28.913 74.0433C29.293 74.0433 29.643 73.9833 29.963 73.8633C30.283 73.7433 30.5963 73.5533 30.903 73.2933L31.273 74.1333C30.993 74.4133 30.6463 74.63 30.233 74.7833C29.8197 74.93 29.3697 75.0033 28.883 75.0033ZM32.5271 74.9033V67.8533H33.5571V71.0033H33.4971C33.6437 70.65 33.8737 70.3767 34.1871 70.1833C34.5004 69.99 34.8571 69.8933 35.2571 69.8933C35.6571 69.8933 35.9871 69.9667 36.2471 70.1133C36.5137 70.26 36.7137 70.4833 36.8471 70.7833C36.9804 71.0767 37.0471 71.4467 37.0471 71.8933V74.9033H35.9871V71.9533C35.9871 71.6867 35.9504 71.4667 35.8771 71.2933C35.8104 71.1133 35.7004 70.98 35.5471 70.8933C35.4004 70.8 35.2071 70.7533 34.9671 70.7533C34.6937 70.7533 34.4537 70.8133 34.2471 70.9333C34.0404 71.0533 33.8771 71.22 33.7571 71.4333C33.6437 71.64 33.5871 71.88 33.5871 72.1533V74.9033H32.5271ZM40.1922 74.9933C39.8455 74.9933 39.5322 74.9267 39.2522 74.7933C38.9722 74.66 38.7522 74.48 38.5922 74.2533C38.4389 74.02 38.3622 73.76 38.3622 73.4733C38.3622 73.1067 38.4589 72.8167 38.6522 72.6033C38.8522 72.39 39.1689 72.2367 39.6022 72.1433C40.0355 72.0433 40.6089 71.9933 41.3222 71.9933H41.9022V72.6533H41.3522C40.9922 72.6533 40.6889 72.6667 40.4422 72.6933C40.1955 72.7133 39.9955 72.7533 39.8422 72.8133C39.6889 72.8733 39.5755 72.9533 39.5022 73.0533C39.4355 73.1467 39.4022 73.2667 39.4022 73.4133C39.4022 73.6667 39.4922 73.8667 39.6722 74.0133C39.8589 74.1533 40.1022 74.2233 40.4022 74.2233C40.6622 74.2233 40.8922 74.1667 41.0922 74.0533C41.2922 73.9333 41.4522 73.7733 41.5722 73.5733C41.6922 73.3667 41.7522 73.1367 41.7522 72.8833V71.7533C41.7522 71.38 41.6589 71.1133 41.4722 70.9533C41.2922 70.7933 41.0089 70.7133 40.6222 70.7133C40.3355 70.7133 40.0489 70.7533 39.7622 70.8333C39.4822 70.9133 39.1889 71.0433 38.8822 71.2233L38.5622 70.4833C38.7555 70.3567 38.9689 70.25 39.2022 70.1633C39.4422 70.0767 39.6889 70.01 39.9422 69.9633C40.2022 69.9167 40.4555 69.8933 40.7022 69.8933C41.1489 69.8933 41.5255 69.9633 41.8322 70.1033C42.1389 70.2433 42.3722 70.4567 42.5322 70.7433C42.6922 71.03 42.7722 71.4033 42.7722 71.8633V74.9033H41.8222V73.8333H41.8622C41.7889 74.06 41.6755 74.2633 41.5222 74.4433C41.3689 74.6167 41.1789 74.7533 40.9522 74.8533C40.7322 74.9467 40.4789 74.9933 40.1922 74.9933ZM44.2946 76.7033V69.9833H45.2946V71.0533H45.2446C45.3713 70.6933 45.5913 70.41 45.9046 70.2033C46.218 69.9967 46.588 69.8933 47.0146 69.8933C47.4546 69.8933 47.8413 70 48.1746 70.2133C48.508 70.42 48.7646 70.7133 48.9446 71.0933C49.1246 71.4733 49.2146 71.9233 49.2146 72.4433C49.2146 72.95 49.1246 73.3967 48.9446 73.7833C48.7646 74.17 48.5113 74.47 48.1846 74.6833C47.858 74.89 47.468 74.9933 47.0146 74.9933C46.5946 74.9933 46.2313 74.8933 45.9246 74.6933C45.6246 74.4867 45.4146 74.2167 45.2946 73.8833H45.3546V76.7033H44.2946ZM46.7446 74.1733C47.178 74.1733 47.5213 74.0233 47.7746 73.7233C48.0346 73.4167 48.1646 72.9867 48.1646 72.4333C48.1646 71.8867 48.038 71.4667 47.7846 71.1733C47.5313 70.8733 47.1846 70.7233 46.7446 70.7233C46.3113 70.7233 45.968 70.8733 45.7146 71.1733C45.4613 71.4667 45.3346 71.8867 45.3346 72.4333C45.3346 72.9867 45.4613 73.4167 45.7146 73.7233C45.9746 74.0233 46.318 74.1733 46.7446 74.1733ZM52.5774 74.9933C51.9508 74.9933 51.4808 74.8333 51.1674 74.5133C50.8608 74.1933 50.7074 73.73 50.7074 73.1233V70.8133H49.7474V69.9833H50.7374V68.5233H51.7674V69.9833H53.3874V70.8133H51.7674V73.0533C51.7674 73.4067 51.8441 73.6733 51.9974 73.8533C52.1574 74.0267 52.4041 74.1133 52.7374 74.1133C52.8574 74.1133 52.9741 74.1 53.0874 74.0733C53.2008 74.0467 53.3141 74.0133 53.4274 73.9733L53.5874 74.7733C53.4674 74.8467 53.3141 74.9 53.1274 74.9333C52.9408 74.9733 52.7574 74.9933 52.5774 74.9933ZM56.753 74.9933C56.1997 74.9933 55.723 74.8933 55.323 74.6933C54.923 74.4867 54.6163 74.1933 54.403 73.8133C54.1897 73.4267 54.083 72.97 54.083 72.4433C54.083 71.9433 54.183 71.5033 54.383 71.1233C54.5897 70.7367 54.8763 70.4367 55.243 70.2233C55.6163 70.0033 56.0463 69.8933 56.533 69.8933C57.0063 69.8933 57.4097 69.9933 57.743 70.1933C58.0763 70.3933 58.333 70.68 58.513 71.0533C58.693 71.42 58.783 71.86 58.783 72.3733V72.7133H54.903V72.0433H58.063L57.893 72.2133C57.893 71.7067 57.7763 71.32 57.543 71.0533C57.3163 70.7867 56.9897 70.6533 56.563 70.6533C56.2563 70.6533 55.993 70.7233 55.773 70.8633C55.553 70.9967 55.383 71.19 55.263 71.4433C55.143 71.69 55.083 71.9867 55.083 72.3333V72.4233C55.083 72.81 55.1463 73.1333 55.273 73.3933C55.4063 73.6533 55.5997 73.8467 55.853 73.9733C56.1063 74.1 56.413 74.1633 56.773 74.1633C57.0463 74.1633 57.3197 74.1267 57.593 74.0533C57.873 73.9733 58.1297 73.8367 58.363 73.6433L58.693 74.3733C58.4463 74.5733 58.1463 74.7267 57.793 74.8333C57.4463 74.94 57.0997 74.9933 56.753 74.9933ZM60.0173 74.9033V69.9833H61.0073V71.1533H60.9573C61.0706 70.7733 61.2673 70.4767 61.5473 70.2633C61.834 70.05 62.2006 69.9267 62.6473 69.8933L63.0573 69.8733L63.1373 70.7933L62.4373 70.8633C62.004 70.9033 61.6706 71.0433 61.4373 71.2833C61.204 71.5233 61.0873 71.84 61.0873 72.2333V74.9033H60.0173ZM67.0646 74.9033V74.0033H68.7946V68.7333L69.3346 68.7633L67.4146 69.9633L66.9746 69.1633L69.0846 67.8533H69.8546V74.0033H71.4646V74.9033H67.0646ZM75.0207 74.9933C74.4741 74.9933 74.0107 74.8567 73.6307 74.5833C73.2574 74.3033 72.9741 73.8933 72.7807 73.3533C72.5874 72.8133 72.4907 72.1533 72.4907 71.3733C72.4907 70.5867 72.5874 69.9267 72.7807 69.3933C72.9741 68.8533 73.2574 68.4467 73.6307 68.1733C74.0107 67.9 74.4741 67.7633 75.0207 67.7633C75.5741 67.7633 76.0374 67.9 76.4107 68.1733C76.7907 68.4467 77.0741 68.85 77.2607 69.3833C77.4541 69.9167 77.5507 70.5767 77.5507 71.3633C77.5507 72.1433 77.4541 72.8067 77.2607 73.3533C77.0674 73.8933 76.7841 74.3033 76.4107 74.5833C76.0374 74.8567 75.5741 74.9933 75.0207 74.9933ZM75.0207 74.1033C75.5274 74.1033 75.9007 73.8833 76.1407 73.4433C76.3874 72.9967 76.5107 72.3033 76.5107 71.3633C76.5107 70.4233 76.3874 69.7367 76.1407 69.3033C75.9007 68.87 75.5274 68.6533 75.0207 68.6533C74.5207 68.6533 74.1474 68.8733 73.9007 69.3133C73.6541 69.7467 73.5307 70.43 73.5307 71.3633C73.5307 72.3033 73.6507 72.9967 73.8907 73.4433C74.1374 73.8833 74.5141 74.1033 75.0207 74.1033Z" fill="#667085"/>
<defs>
<filter id="filter0_d_8334_725" x="0" y="2.24658" width="101.04" height="85.8501" filterUnits="userSpaceOnUse" color-interpolation-filters="sRGB">
<feFlood flood-opacity="0" result="BackgroundImageFix"/>
<feColorMatrix in="SourceAlpha" type="matrix" values="0 0 0 0 0 0 0 0 0 0 0 0 0 0 0 0 0 0 127 0" result="hardAlpha"/>
<feOffset dy="4"/>
<feGaussianBlur stdDeviation="2"/>
<feComposite in2="hardAlpha" operator="out"/>
<feColorMatrix type="matrix" values="0 0 0 0 0 0 0 0 0 0 0 0 0 0 0 0 0 0 0.25 0"/>
<feBlend mode="normal" in2="BackgroundImageFix" result="effect1_dropShadow_8334_725"/>
<feBlend mode="normal" in="SourceGraphic" in2="effect1_dropShadow_8334_725" result="shape"/>
</filter>
</defs>
</svg>
