<svg width="96" height="86" viewBox="0 0 96 86" fill="none" xmlns="http://www.w3.org/2000/svg">
<g filter="url(#filter0_d_8310_1103)">
<path d="M5.37285 42.5185C4.62083 41.2089 4.24484 40.5536 4.09767 39.8574C3.96744 39.2412 3.96744 38.6048 4.09767 37.9886C4.24484 37.2924 4.62083 36.6371 5.37285 35.3274L23.5901 3.59555C24.3421 2.28569 24.7181 1.63076 25.2442 1.15444C25.7096 0.732998 26.2579 0.414612 26.8535 0.220002C27.5267 -2.00917e-07 28.2787 0 29.7827 0H66.2171C67.7214 0 68.4731 -2.00917e-07 69.1466 0.220002C69.7419 0.414612 70.2903 0.732998 70.756 1.15444C71.282 1.63076 71.6578 2.28569 72.41 3.59555L90.6271 35.3274C91.3792 36.6371 91.7551 37.2924 91.9021 37.9886C92.0326 38.6048 92.0326 39.2412 91.9021 39.8574C91.7551 40.5536 91.3792 41.2089 90.6271 42.5185L72.41 74.2506C71.6578 75.5603 71.282 76.2151 70.756 76.6915C70.2903 77.1131 69.7419 77.4313 69.1466 77.6259C68.4731 77.8462 67.7214 77.8462 66.2171 77.8462H29.7827C28.2787 77.8462 27.5267 77.8462 26.8535 77.6259C26.2579 77.4313 25.7096 77.1131 25.2442 76.6915C24.7181 76.2151 24.3421 75.5603 23.5901 74.2506L5.37285 42.5185Z" fill="white"/>
</g>
<path d="M58.2051 5.5H38.2051C36.8244 5.5 35.7051 6.61929 35.7051 8V28C35.7051 29.3807 36.8244 30.5 38.2051 30.5H58.2051C59.5858 30.5 60.7051 29.3807 60.7051 28V8C60.7051 6.61929 59.5858 5.5 58.2051 5.5Z" fill="#F2BB41"/>
<path d="M54.4551 19.2499H45.7051V16.0124L46.0676 16.3874C46.1838 16.5046 46.322 16.5976 46.4743 16.661C46.6267 16.7245 46.7901 16.7572 46.9551 16.7572C47.1201 16.7572 47.2835 16.7245 47.4358 16.661C47.5881 16.5976 47.7264 16.5046 47.8426 16.3874C47.9597 16.2712 48.0527 16.133 48.1162 15.9806C48.1796 15.8283 48.2123 15.6649 48.2123 15.4999C48.2123 15.3349 48.1796 15.1715 48.1162 15.0192C48.0527 14.8669 47.9597 14.7286 47.8426 14.6124L45.3426 12.1124C45.2264 11.9953 45.0881 11.9023 44.9358 11.8388C44.7835 11.7753 44.6201 11.7427 44.4551 11.7427C44.2901 11.7427 44.1267 11.7753 43.9743 11.8388C43.822 11.9023 43.6838 11.9953 43.5676 12.1124L41.0676 14.6124C40.951 14.729 40.8586 14.8673 40.7955 15.0196C40.7324 15.1719 40.7 15.3351 40.7 15.4999C40.7 15.8328 40.8322 16.152 41.0676 16.3874C41.3029 16.6228 41.6222 16.755 41.9551 16.755C42.2879 16.755 42.6072 16.6228 42.8426 16.3874L43.2051 16.0124V19.2499C43.2051 19.913 43.4685 20.5488 43.9373 21.0177C44.4061 21.4865 45.042 21.7499 45.7051 21.7499H54.4551C54.7866 21.7499 55.1045 21.6182 55.3389 21.3838C55.5734 21.1494 55.7051 20.8314 55.7051 20.4999C55.7051 20.1684 55.5734 19.8505 55.3389 19.616C55.1045 19.3816 54.7866 19.2499 54.4551 19.2499Z" fill="#E08838"/>
<path d="M14.2965 46V37.54H17.8245C18.7045 37.54 19.3845 37.736 19.8645 38.128C20.3525 38.512 20.5965 39.052 20.5965 39.748C20.5965 40.26 20.4445 40.692 20.1405 41.044C19.8365 41.396 19.4245 41.632 18.9045 41.752V41.572C19.2965 41.628 19.6325 41.748 19.9125 41.932C20.2005 42.108 20.4205 42.344 20.5725 42.64C20.7245 42.928 20.8005 43.268 20.8005 43.66C20.8005 44.156 20.6885 44.58 20.4645 44.932C20.2405 45.284 19.9165 45.552 19.4925 45.736C19.0685 45.912 18.5605 46 17.9685 46H14.2965ZM15.4965 45.04H17.8245C18.0645 45.04 18.2765 45.024 18.4605 44.992C18.6525 44.952 18.8165 44.896 18.9525 44.824C19.0965 44.744 19.2165 44.648 19.3125 44.536C19.4085 44.416 19.4765 44.28 19.5165 44.128C19.5645 43.976 19.5885 43.804 19.5885 43.612C19.5885 43.42 19.5645 43.248 19.5165 43.096C19.4765 42.944 19.4085 42.812 19.3125 42.7C19.2165 42.588 19.0965 42.496 18.9525 42.424C18.8165 42.344 18.6525 42.288 18.4605 42.256C18.2765 42.216 18.0645 42.196 17.8245 42.196H15.4965V45.04ZM15.4965 41.236H17.6325C18.2085 41.236 18.6445 41.12 18.9405 40.888C19.2365 40.656 19.3845 40.316 19.3845 39.868C19.3845 39.42 19.2365 39.08 18.9405 38.848C18.6445 38.616 18.2085 38.5 17.6325 38.5H15.4965V41.236ZM24.2162 46.108C23.8082 46.108 23.4402 46.028 23.1122 45.868C22.7922 45.708 22.5402 45.492 22.3562 45.22C22.1722 44.948 22.0802 44.64 22.0802 44.296C22.0802 43.864 22.1882 43.524 22.4042 43.276C22.6282 43.02 22.9922 42.84 23.4962 42.736C24.0082 42.624 24.6962 42.568 25.5602 42.568H26.1242V43.312H25.5722C25.1402 43.312 24.7762 43.328 24.4802 43.36C24.1842 43.392 23.9482 43.444 23.7722 43.516C23.5962 43.58 23.4682 43.672 23.3882 43.792C23.3162 43.912 23.2802 44.056 23.2802 44.224C23.2802 44.528 23.3842 44.776 23.5922 44.968C23.8002 45.152 24.0882 45.244 24.4562 45.244C24.7522 45.244 25.0122 45.176 25.2362 45.04C25.4602 44.896 25.6362 44.704 25.7642 44.464C25.9002 44.224 25.9682 43.948 25.9682 43.636V42.256C25.9682 41.8 25.8722 41.472 25.6802 41.272C25.4882 41.072 25.1722 40.972 24.7322 40.972C24.3962 40.972 24.0602 41.024 23.7242 41.128C23.3882 41.224 23.0442 41.38 22.6922 41.596L22.3202 40.744C22.5282 40.6 22.7682 40.476 23.0402 40.372C23.3122 40.268 23.5962 40.188 23.8922 40.132C24.1962 40.068 24.4882 40.036 24.7682 40.036C25.3042 40.036 25.7442 40.12 26.0882 40.288C26.4402 40.456 26.7002 40.712 26.8682 41.056C27.0362 41.4 27.1202 41.844 27.1202 42.388V46H25.9802V44.692H26.0882C26.0242 44.988 25.9042 45.244 25.7282 45.46C25.5602 45.668 25.3482 45.828 25.0922 45.94C24.8362 46.052 24.5442 46.108 24.2162 46.108ZM30.8415 46.108C30.5295 46.108 30.2255 46.08 29.9295 46.024C29.6335 45.968 29.3615 45.888 29.1135 45.784C28.8655 45.68 28.6455 45.552 28.4535 45.4L28.8015 44.584C29.0015 44.72 29.2135 44.84 29.4375 44.944C29.6615 45.04 29.8935 45.112 30.1335 45.16C30.3815 45.208 30.6215 45.232 30.8535 45.232C31.2775 45.232 31.5975 45.156 31.8135 45.004C32.0295 44.852 32.1375 44.648 32.1375 44.392C32.1375 44.184 32.0655 44.024 31.9215 43.912C31.7775 43.792 31.5615 43.7 31.2735 43.636L30.1335 43.408C29.6375 43.304 29.2615 43.12 29.0055 42.856C28.7495 42.592 28.6215 42.256 28.6215 41.848C28.6215 41.48 28.7215 41.16 28.9215 40.888C29.1215 40.616 29.4015 40.408 29.7615 40.264C30.1215 40.112 30.5375 40.036 31.0095 40.036C31.2815 40.036 31.5455 40.064 31.8015 40.12C32.0575 40.176 32.2975 40.256 32.5215 40.36C32.7535 40.464 32.9495 40.596 33.1095 40.756L32.7615 41.572C32.6095 41.436 32.4335 41.32 32.2335 41.224C32.0415 41.128 31.8415 41.056 31.6335 41.008C31.4255 40.952 31.2175 40.924 31.0095 40.924C30.5855 40.924 30.2655 41.004 30.0495 41.164C29.8415 41.316 29.7375 41.524 29.7375 41.788C29.7375 41.988 29.8015 42.152 29.9295 42.28C30.0575 42.408 30.2575 42.5 30.5295 42.556L31.6695 42.784C32.1895 42.888 32.5815 43.064 32.8455 43.312C33.1175 43.56 33.2535 43.896 33.2535 44.32C33.2535 44.688 33.1535 45.008 32.9535 45.28C32.7535 45.552 32.4695 45.76 32.1015 45.904C31.7415 46.04 31.3215 46.108 30.8415 46.108ZM34.494 38.788V37.528H35.91V38.788H34.494ZM34.602 46V40.144H35.814V46H34.602ZM40.1 46.108C39.5 46.108 38.98 45.984 38.54 45.736C38.108 45.48 37.772 45.124 37.532 44.668C37.292 44.204 37.172 43.66 37.172 43.036C37.172 42.42 37.292 41.888 37.532 41.44C37.772 40.992 38.108 40.648 38.54 40.408C38.98 40.16 39.5 40.036 40.1 40.036C40.468 40.036 40.832 40.1 41.192 40.228C41.552 40.348 41.848 40.524 42.08 40.756L41.696 41.608C41.48 41.4 41.236 41.248 40.964 41.152C40.692 41.048 40.436 40.996 40.196 40.996C39.628 40.996 39.188 41.176 38.876 41.536C38.572 41.888 38.42 42.392 38.42 43.048C38.42 43.704 38.572 44.22 38.876 44.596C39.188 44.964 39.628 45.148 40.196 45.148C40.436 45.148 40.692 45.1 40.964 45.004C41.236 44.9 41.48 44.744 41.696 44.536L42.08 45.4C41.848 45.616 41.548 45.788 41.18 45.916C40.82 46.044 40.46 46.108 40.1 46.108ZM48.5059 46.108C47.9939 46.108 47.5419 45.988 47.1499 45.748C46.7659 45.5 46.4659 45.148 46.2499 44.692C46.0339 44.228 45.9259 43.688 45.9259 43.072C45.9259 42.44 46.0339 41.9 46.2499 41.452C46.4659 41.004 46.7659 40.656 47.1499 40.408C47.5419 40.16 47.9939 40.036 48.5059 40.036C49.0179 40.036 49.4579 40.164 49.8259 40.42C50.2019 40.668 50.4539 41.004 50.5819 41.428H50.4499V37.54H51.6619V46H50.4739V44.68H50.5939C50.4659 45.112 50.2139 45.46 49.8379 45.724C49.4699 45.98 49.0259 46.108 48.5059 46.108ZM48.8179 45.172C49.3139 45.172 49.7139 44.992 50.0179 44.632C50.3219 44.272 50.4739 43.752 50.4739 43.072C50.4739 42.384 50.3219 41.864 50.0179 41.512C49.7139 41.16 49.3139 40.984 48.8179 40.984C48.3139 40.984 47.9099 41.16 47.6059 41.512C47.3019 41.864 47.1499 42.384 47.1499 43.072C47.1499 43.752 47.3019 44.272 47.6059 44.632C47.9099 44.992 48.3139 45.172 48.8179 45.172ZM53.3637 46V40.144H54.5397V41.548H54.4197C54.5477 41.068 54.7757 40.704 55.1037 40.456C55.4397 40.208 55.8837 40.064 56.4357 40.024L56.8317 40L56.9157 41.032L56.1837 41.104C55.6637 41.152 55.2677 41.316 54.9957 41.596C54.7237 41.876 54.5877 42.26 54.5877 42.748V46H53.3637ZM57.7323 38.788V37.528H59.1483V38.788H57.7323ZM57.8403 46V40.144H59.0523V46H57.8403ZM62.4743 46L59.9543 40.144H61.2623L63.2183 45.004H62.8823L64.8863 40.144H66.1223L63.5663 46H62.4743ZM66.8846 38.788V37.528H68.3006V38.788H66.8846ZM66.9926 46V40.144H68.2046V46H66.9926ZM69.9106 46V40.144H71.0866V41.392H70.9546C71.1306 40.944 71.4066 40.608 71.7826 40.384C72.1586 40.152 72.5906 40.036 73.0786 40.036C73.5426 40.036 73.9266 40.124 74.2306 40.3C74.5426 40.468 74.7746 40.728 74.9266 41.08C75.0786 41.424 75.1546 41.86 75.1546 42.388V46H73.9426V42.46C73.9426 42.124 73.8986 41.852 73.8106 41.644C73.7226 41.428 73.5906 41.268 73.4146 41.164C73.2386 41.06 73.0106 41.008 72.7306 41.008C72.4106 41.008 72.1266 41.076 71.8786 41.212C71.6386 41.348 71.4506 41.544 71.3146 41.8C71.1866 42.056 71.1226 42.352 71.1226 42.688V46H69.9106ZM79.4767 48.268C78.9487 48.268 78.4567 48.204 78.0007 48.076C77.5447 47.948 77.1407 47.756 76.7887 47.5L77.1607 46.636C77.3927 46.788 77.6287 46.916 77.8687 47.02C78.1167 47.132 78.3647 47.212 78.6127 47.26C78.8687 47.308 79.1287 47.332 79.3927 47.332C79.9527 47.332 80.3727 47.188 80.6527 46.9C80.9327 46.62 81.0727 46.204 81.0727 45.652V44.428H81.1807C81.0607 44.868 80.8087 45.216 80.4247 45.472C80.0407 45.728 79.5967 45.856 79.0927 45.856C78.5647 45.856 78.1047 45.736 77.7127 45.496C77.3207 45.248 77.0167 44.908 76.8007 44.476C76.5847 44.036 76.4767 43.524 76.4767 42.94C76.4767 42.356 76.5847 41.848 76.8007 41.416C77.0167 40.984 77.3207 40.648 77.7127 40.408C78.1047 40.16 78.5647 40.036 79.0927 40.036C79.6047 40.036 80.0487 40.164 80.4247 40.42C80.8087 40.676 81.0567 41.024 81.1687 41.464H81.0727V40.144H82.2487V45.508C82.2487 46.116 82.1447 46.624 81.9367 47.032C81.7287 47.448 81.4167 47.756 81.0007 47.956C80.5927 48.164 80.0847 48.268 79.4767 48.268ZM79.3807 44.908C79.9007 44.908 80.3087 44.732 80.6047 44.38C80.9087 44.028 81.0607 43.548 81.0607 42.94C81.0607 42.34 80.9087 41.864 80.6047 41.512C80.3087 41.16 79.9007 40.984 79.3807 40.984C78.8687 40.984 78.4607 41.16 78.1567 41.512C77.8527 41.864 77.7007 42.34 77.7007 42.94C77.7007 43.548 77.8527 44.028 78.1567 44.38C78.4607 44.732 78.8687 44.908 79.3807 44.908ZM37.2855 62.108C36.5575 62.108 36.0095 61.92 35.6415 61.544C35.2815 61.168 35.1015 60.624 35.1015 59.912V57.08H33.9615V56.144H35.1015V54.38H36.3135V56.144H38.1255V57.08H36.3135V59.816C36.3135 60.24 36.4015 60.56 36.5775 60.776C36.7615 60.992 37.0575 61.1 37.4655 61.1C37.5855 61.1 37.7055 61.084 37.8255 61.052C37.9535 61.02 38.0775 60.988 38.1975 60.956L38.3895 61.868C38.2695 61.94 38.1015 61.996 37.8855 62.036C37.6775 62.084 37.4775 62.108 37.2855 62.108ZM41.0443 62.108C40.6363 62.108 40.2683 62.028 39.9403 61.868C39.6203 61.708 39.3683 61.492 39.1843 61.22C39.0003 60.948 38.9083 60.64 38.9083 60.296C38.9083 59.864 39.0163 59.524 39.2323 59.276C39.4563 59.02 39.8203 58.84 40.3243 58.736C40.8363 58.624 41.5243 58.568 42.3883 58.568H42.9523V59.312H42.4003C41.9683 59.312 41.6043 59.328 41.3083 59.36C41.0123 59.392 40.7763 59.444 40.6003 59.516C40.4243 59.58 40.2963 59.672 40.2163 59.792C40.1443 59.912 40.1083 60.056 40.1083 60.224C40.1083 60.528 40.2123 60.776 40.4203 60.968C40.6283 61.152 40.9163 61.244 41.2843 61.244C41.5803 61.244 41.8403 61.176 42.0643 61.04C42.2883 60.896 42.4643 60.704 42.5923 60.464C42.7283 60.224 42.7963 59.948 42.7963 59.636V58.256C42.7963 57.8 42.7003 57.472 42.5083 57.272C42.3163 57.072 42.0003 56.972 41.5603 56.972C41.2243 56.972 40.8883 57.024 40.5523 57.128C40.2163 57.224 39.8723 57.38 39.5203 57.596L39.1483 56.744C39.3563 56.6 39.5963 56.476 39.8683 56.372C40.1403 56.268 40.4243 56.188 40.7203 56.132C41.0243 56.068 41.3163 56.036 41.5963 56.036C42.1323 56.036 42.5723 56.12 42.9163 56.288C43.2683 56.456 43.5283 56.712 43.6963 57.056C43.8643 57.4 43.9483 57.844 43.9483 58.388V62H42.8083V60.692H42.9163C42.8523 60.988 42.7323 61.244 42.5563 61.46C42.3883 61.668 42.1763 61.828 41.9203 61.94C41.6643 62.052 41.3723 62.108 41.0443 62.108ZM47.6696 62.108C47.3576 62.108 47.0536 62.08 46.7576 62.024C46.4616 61.968 46.1896 61.888 45.9416 61.784C45.6936 61.68 45.4736 61.552 45.2816 61.4L45.6296 60.584C45.8296 60.72 46.0416 60.84 46.2656 60.944C46.4896 61.04 46.7216 61.112 46.9616 61.16C47.2096 61.208 47.4496 61.232 47.6816 61.232C48.1056 61.232 48.4256 61.156 48.6416 61.004C48.8576 60.852 48.9656 60.648 48.9656 60.392C48.9656 60.184 48.8936 60.024 48.7496 59.912C48.6056 59.792 48.3896 59.7 48.1016 59.636L46.9616 59.408C46.4656 59.304 46.0896 59.12 45.8336 58.856C45.5776 58.592 45.4496 58.256 45.4496 57.848C45.4496 57.48 45.5496 57.16 45.7496 56.888C45.9496 56.616 46.2296 56.408 46.5896 56.264C46.9496 56.112 47.3656 56.036 47.8376 56.036C48.1096 56.036 48.3736 56.064 48.6296 56.12C48.8856 56.176 49.1256 56.256 49.3496 56.36C49.5816 56.464 49.7776 56.596 49.9376 56.756L49.5896 57.572C49.4376 57.436 49.2616 57.32 49.0616 57.224C48.8696 57.128 48.6696 57.056 48.4616 57.008C48.2536 56.952 48.0456 56.924 47.8376 56.924C47.4136 56.924 47.0936 57.004 46.8776 57.164C46.6696 57.316 46.5656 57.524 46.5656 57.788C46.5656 57.988 46.6296 58.152 46.7576 58.28C46.8856 58.408 47.0856 58.5 47.3576 58.556L48.4976 58.784C49.0176 58.888 49.4096 59.064 49.6736 59.312C49.9456 59.56 50.0816 59.896 50.0816 60.32C50.0816 60.688 49.9816 61.008 49.7816 61.28C49.5816 61.552 49.2976 61.76 48.9296 61.904C48.5696 62.04 48.1496 62.108 47.6696 62.108ZM51.4301 62V53.54H52.6421V58.7H52.6661L55.2101 56.144H56.7101L53.6261 59.24V58.676L56.9261 62H55.4141L52.6661 59.324H52.6421V62H51.4301ZM59.5642 62.108C59.2522 62.108 58.9482 62.08 58.6522 62.024C58.3562 61.968 58.0842 61.888 57.8362 61.784C57.5882 61.68 57.3682 61.552 57.1762 61.4L57.5242 60.584C57.7242 60.72 57.9362 60.84 58.1602 60.944C58.3842 61.04 58.6162 61.112 58.8562 61.16C59.1042 61.208 59.3442 61.232 59.5762 61.232C60.0002 61.232 60.3202 61.156 60.5362 61.004C60.7522 60.852 60.8602 60.648 60.8602 60.392C60.8602 60.184 60.7882 60.024 60.6442 59.912C60.5002 59.792 60.2842 59.7 59.9962 59.636L58.8562 59.408C58.3602 59.304 57.9842 59.12 57.7282 58.856C57.4722 58.592 57.3442 58.256 57.3442 57.848C57.3442 57.48 57.4442 57.16 57.6442 56.888C57.8442 56.616 58.1242 56.408 58.4842 56.264C58.8442 56.112 59.2602 56.036 59.7322 56.036C60.0042 56.036 60.2682 56.064 60.5242 56.12C60.7802 56.176 61.0202 56.256 61.2442 56.36C61.4762 56.464 61.6722 56.596 61.8322 56.756L61.4842 57.572C61.3322 57.436 61.1562 57.32 60.9562 57.224C60.7642 57.128 60.5642 57.056 60.3562 57.008C60.1482 56.952 59.9402 56.924 59.7322 56.924C59.3082 56.924 58.9882 57.004 58.7722 57.164C58.5642 57.316 58.4602 57.524 58.4602 57.788C58.4602 57.988 58.5242 58.152 58.6522 58.28C58.7802 58.408 58.9802 58.5 59.2522 58.556L60.3922 58.784C60.9122 58.888 61.3042 59.064 61.5682 59.312C61.8402 59.56 61.9762 59.896 61.9762 60.32C61.9762 60.688 61.8762 61.008 61.6762 61.28C61.4762 61.552 61.1922 61.76 60.8242 61.904C60.4642 62.04 60.0442 62.108 59.5642 62.108Z" fill="black"/>
<path d="M28.6563 77.1C27.9563 77.1 27.3529 76.9533 26.8463 76.66C26.3396 76.3667 25.9496 75.95 25.6763 75.41C25.4029 74.8633 25.2663 74.2167 25.2663 73.47C25.2663 72.7233 25.4029 72.08 25.6763 71.54C25.9496 71 26.3396 70.5867 26.8463 70.3C27.3529 70.0067 27.9563 69.86 28.6563 69.86C29.1429 69.86 29.5929 69.9333 30.0063 70.08C30.4196 70.2267 30.7663 70.44 31.0463 70.72L30.6763 71.56C30.3696 71.3 30.0563 71.11 29.7363 70.99C29.4163 70.87 29.0663 70.81 28.6863 70.81C27.9529 70.81 27.3863 71.04 26.9863 71.5C26.5863 71.9533 26.3863 72.61 26.3863 73.47C26.3863 74.33 26.5863 74.99 26.9863 75.45C27.3863 75.91 27.9529 76.14 28.6863 76.14C29.0663 76.14 29.4163 76.08 29.7363 75.96C30.0563 75.84 30.3696 75.65 30.6763 75.39L31.0463 76.23C30.7663 76.51 30.4196 76.7267 30.0063 76.88C29.5929 77.0267 29.1429 77.1 28.6563 77.1ZM32.3003 77V69.95H33.3303V73.1H33.2703C33.417 72.7467 33.647 72.4733 33.9603 72.28C34.2737 72.0867 34.6303 71.99 35.0303 71.99C35.4303 71.99 35.7603 72.0633 36.0203 72.21C36.287 72.3567 36.487 72.58 36.6203 72.88C36.7537 73.1733 36.8203 73.5433 36.8203 73.99V77H35.7603V74.05C35.7603 73.7833 35.7237 73.5633 35.6503 73.39C35.5837 73.21 35.4737 73.0767 35.3203 72.99C35.1737 72.8967 34.9803 72.85 34.7403 72.85C34.467 72.85 34.227 72.91 34.0203 73.03C33.8137 73.15 33.6503 73.3167 33.5303 73.53C33.417 73.7367 33.3603 73.9767 33.3603 74.25V77H32.3003ZM39.9655 77.09C39.6188 77.09 39.3055 77.0233 39.0255 76.89C38.7455 76.7567 38.5255 76.5767 38.3655 76.35C38.2121 76.1167 38.1355 75.8567 38.1355 75.57C38.1355 75.2033 38.2321 74.9133 38.4255 74.7C38.6255 74.4867 38.9421 74.3333 39.3755 74.24C39.8088 74.14 40.3821 74.09 41.0955 74.09H41.6755V74.75H41.1255C40.7655 74.75 40.4621 74.7633 40.2155 74.79C39.9688 74.81 39.7688 74.85 39.6155 74.91C39.4621 74.97 39.3488 75.05 39.2755 75.15C39.2088 75.2433 39.1755 75.3633 39.1755 75.51C39.1755 75.7633 39.2655 75.9633 39.4455 76.11C39.6321 76.25 39.8755 76.32 40.1755 76.32C40.4355 76.32 40.6655 76.2633 40.8655 76.15C41.0655 76.03 41.2255 75.87 41.3455 75.67C41.4655 75.4633 41.5255 75.2333 41.5255 74.98V73.85C41.5255 73.4767 41.4321 73.21 41.2455 73.05C41.0655 72.89 40.7821 72.81 40.3955 72.81C40.1088 72.81 39.8221 72.85 39.5355 72.93C39.2555 73.01 38.9621 73.14 38.6555 73.32L38.3355 72.58C38.5288 72.4533 38.7421 72.3467 38.9755 72.26C39.2155 72.1733 39.4621 72.1067 39.7155 72.06C39.9755 72.0133 40.2288 71.99 40.4755 71.99C40.9221 71.99 41.2988 72.06 41.6055 72.2C41.9121 72.34 42.1455 72.5533 42.3055 72.84C42.4655 73.1267 42.5455 73.5 42.5455 73.96V77H41.5955V75.93H41.6355C41.5621 76.1567 41.4488 76.36 41.2955 76.54C41.1421 76.7133 40.9521 76.85 40.7255 76.95C40.5055 77.0433 40.2521 77.09 39.9655 77.09ZM44.0679 78.8V72.08H45.0679V73.15H45.0179C45.1446 72.79 45.3646 72.5067 45.6779 72.3C45.9912 72.0933 46.3612 71.99 46.7879 71.99C47.2279 71.99 47.6146 72.0967 47.9479 72.31C48.2812 72.5167 48.5379 72.81 48.7179 73.19C48.8979 73.57 48.9879 74.02 48.9879 74.54C48.9879 75.0467 48.8979 75.4933 48.7179 75.88C48.5379 76.2667 48.2846 76.5667 47.9579 76.78C47.6312 76.9867 47.2412 77.09 46.7879 77.09C46.3679 77.09 46.0046 76.99 45.6979 76.79C45.3979 76.5833 45.1879 76.3133 45.0679 75.98H45.1279V78.8H44.0679ZM46.5179 76.27C46.9512 76.27 47.2946 76.12 47.5479 75.82C47.8079 75.5133 47.9379 75.0833 47.9379 74.53C47.9379 73.9833 47.8112 73.5633 47.5579 73.27C47.3046 72.97 46.9579 72.82 46.5179 72.82C46.0846 72.82 45.7412 72.97 45.4879 73.27C45.2346 73.5633 45.1079 73.9833 45.1079 74.53C45.1079 75.0833 45.2346 75.5133 45.4879 75.82C45.7479 76.12 46.0912 76.27 46.5179 76.27ZM52.3507 77.09C51.724 77.09 51.254 76.93 50.9407 76.61C50.634 76.29 50.4807 75.8267 50.4807 75.22V72.91H49.5207V72.08H50.5107V70.62H51.5407V72.08H53.1607V72.91H51.5407V75.15C51.5407 75.5033 51.6174 75.77 51.7707 75.95C51.9307 76.1233 52.1774 76.21 52.5107 76.21C52.6307 76.21 52.7474 76.1967 52.8607 76.17C52.974 76.1433 53.0874 76.11 53.2007 76.07L53.3607 76.87C53.2407 76.9433 53.0874 76.9967 52.9007 77.03C52.714 77.07 52.5307 77.09 52.3507 77.09ZM56.5263 77.09C55.9729 77.09 55.4963 76.99 55.0963 76.79C54.6963 76.5833 54.3896 76.29 54.1763 75.91C53.9629 75.5233 53.8563 75.0667 53.8563 74.54C53.8563 74.04 53.9563 73.6 54.1563 73.22C54.3629 72.8333 54.6496 72.5333 55.0163 72.32C55.3896 72.1 55.8196 71.99 56.3063 71.99C56.7796 71.99 57.1829 72.09 57.5163 72.29C57.8496 72.49 58.1063 72.7767 58.2863 73.15C58.4663 73.5167 58.5563 73.9567 58.5563 74.47V74.81H54.6763V74.14H57.8363L57.6663 74.31C57.6663 73.8033 57.5496 73.4167 57.3163 73.15C57.0896 72.8833 56.7629 72.75 56.3363 72.75C56.0296 72.75 55.7663 72.82 55.5463 72.96C55.3263 73.0933 55.1563 73.2867 55.0363 73.54C54.9163 73.7867 54.8563 74.0833 54.8563 74.43V74.52C54.8563 74.9067 54.9196 75.23 55.0463 75.49C55.1796 75.75 55.3729 75.9433 55.6263 76.07C55.8796 76.1967 56.1863 76.26 56.5463 76.26C56.8196 76.26 57.0929 76.2233 57.3663 76.15C57.6463 76.07 57.9029 75.9333 58.1363 75.74L58.4663 76.47C58.2196 76.67 57.9196 76.8233 57.5663 76.93C57.2196 77.0367 56.8729 77.09 56.5263 77.09ZM59.7906 77V72.08H60.7806V73.25H60.7306C60.8439 72.87 61.0406 72.5733 61.3206 72.36C61.6072 72.1467 61.9739 72.0233 62.4206 71.99L62.8306 71.97L62.9106 72.89L62.2106 72.96C61.7772 73 61.4439 73.14 61.2106 73.38C60.9772 73.62 60.8606 73.9367 60.8606 74.33V77H59.7906ZM68.3079 77.09C68.0546 77.09 67.8046 77.06 67.5579 77C67.3112 76.94 67.0779 76.85 66.8579 76.73C66.6379 76.6033 66.4412 76.4533 66.2679 76.28L66.6379 75.48C66.8912 75.7267 67.1579 75.9067 67.4379 76.02C67.7246 76.1267 68.0179 76.18 68.3179 76.18C68.6312 76.18 68.9046 76.1233 69.1379 76.01C69.3779 75.8967 69.5812 75.73 69.7479 75.51C69.9146 75.2833 70.0379 75.0033 70.1179 74.67C70.2046 74.33 70.2479 73.9433 70.2479 73.51V72.82H70.2979C70.2446 73.1467 70.1279 73.43 69.9479 73.67C69.7746 73.91 69.5546 74.0933 69.2879 74.22C69.0212 74.3467 68.7212 74.41 68.3879 74.41C67.9812 74.41 67.6179 74.3167 67.2979 74.13C66.9779 73.9367 66.7246 73.6733 66.5379 73.34C66.3512 73 66.2579 72.6133 66.2579 72.18C66.2579 71.7267 66.3546 71.3267 66.5479 70.98C66.7479 70.6333 67.0212 70.36 67.3679 70.16C67.7146 69.96 68.1079 69.86 68.5479 69.86C69.1279 69.86 69.6179 69.9967 70.0179 70.27C70.4179 70.5367 70.7212 70.93 70.9279 71.45C71.1346 71.97 71.2379 72.5967 71.2379 73.33C71.2379 74.13 71.1212 74.81 70.8879 75.37C70.6546 75.93 70.3212 76.3567 69.8879 76.65C69.4546 76.9433 68.9279 77.09 68.3079 77.09ZM68.6179 73.55C68.8912 73.55 69.1312 73.49 69.3379 73.37C69.5446 73.25 69.7046 73.0867 69.8179 72.88C69.9312 72.6667 69.9879 72.42 69.9879 72.14C69.9879 71.8533 69.9312 71.6067 69.8179 71.4C69.7046 71.1867 69.5446 71.02 69.3379 70.9C69.1312 70.78 68.8912 70.72 68.6179 70.72C68.3446 70.72 68.1046 70.78 67.8979 70.9C67.6979 71.02 67.5412 71.1867 67.4279 71.4C67.3146 71.6133 67.2579 71.86 67.2579 72.14C67.2579 72.42 67.3146 72.6667 67.4279 72.88C67.5412 73.0933 67.7012 73.26 67.9079 73.38C68.1146 73.4933 68.3512 73.55 68.6179 73.55Z" fill="#667085"/>
<defs>
<filter id="filter0_d_8310_1103" x="0" y="0" width="96" height="85.8462" filterUnits="userSpaceOnUse" color-interpolation-filters="sRGB">
<feFlood flood-opacity="0" result="BackgroundImageFix"/>
<feColorMatrix in="SourceAlpha" type="matrix" values="0 0 0 0 0 0 0 0 0 0 0 0 0 0 0 0 0 0 127 0" result="hardAlpha"/>
<feOffset dy="4"/>
<feGaussianBlur stdDeviation="2"/>
<feComposite in2="hardAlpha" operator="out"/>
<feColorMatrix type="matrix" values="0 0 0 0 0 0 0 0 0 0 0 0 0 0 0 0 0 0 0.25 0"/>
<feBlend mode="normal" in2="BackgroundImageFix" result="effect1_dropShadow_8310_1103"/>
<feBlend mode="normal" in="SourceGraphic" in2="effect1_dropShadow_8310_1103" result="shape"/>
</filter>
</defs>
</svg>
