<svg width="96" height="86" viewBox="0 0 96 86" fill="none" xmlns="http://www.w3.org/2000/svg">
<g filter="url(#filter0_d_8310_982)">
<path d="M5.37285 42.5185C4.62083 41.2089 4.24484 40.5536 4.09767 39.8574C3.96744 39.2412 3.96744 38.6048 4.09767 37.9886C4.24484 37.2924 4.62083 36.6371 5.37285 35.3274L23.5901 3.59555C24.3421 2.28569 24.7181 1.63076 25.2442 1.15444C25.7096 0.732998 26.2579 0.414612 26.8535 0.220002C27.5267 -2.00917e-07 28.2787 0 29.7827 0H66.2171C67.7214 0 68.4731 -2.00917e-07 69.1466 0.220002C69.7419 0.414612 70.2903 0.732998 70.756 1.15444C71.282 1.63076 71.6578 2.28569 72.41 3.59555L90.6271 35.3274C91.3792 36.6371 91.7551 37.2924 91.9021 37.9886C92.0326 38.6048 92.0326 39.2412 91.9021 39.8574C91.7551 40.5536 91.3792 41.2089 90.6271 42.5185L72.41 74.2506C71.6578 75.5603 71.282 76.2151 70.756 76.6915C70.2903 77.1131 69.7419 77.4313 69.1466 77.6259C68.4731 77.8462 67.7214 77.8462 66.2171 77.8462H29.7827C28.2787 77.8462 27.5267 77.8462 26.8535 77.6259C26.2579 77.4313 25.7096 77.1131 25.2442 76.6915C24.7181 76.2151 24.3421 75.5603 23.5901 74.2506L5.37285 42.5185Z" fill="white"/>
</g>
<path d="M46.5432 36.1574L36.0476 25.6618C35.1147 24.7288 35.1147 23.2711 36.0476 22.3382L46.5432 11.8425C47.4762 10.9096 48.9339 10.9096 49.8669 11.8425L60.3625 22.3382C61.2954 23.2711 61.2954 24.7288 60.3625 25.6618L49.8669 36.1574C48.9339 37.0903 47.4179 37.0903 46.5432 36.1574Z" fill="#F2BB41"/>
<path d="M48.1754 25.1948C48.8195 25.1948 49.3416 24.6727 49.3416 24.0287C49.3416 23.3846 48.8195 22.8625 48.1754 22.8625C47.5314 22.8625 47.0093 23.3846 47.0093 24.0287C47.0093 24.6727 47.5314 25.1948 48.1754 25.1948Z" fill="#E08838"/>
<path d="M52.84 25.1948C53.484 25.1948 54.0061 24.6727 54.0061 24.0287C54.0061 23.3846 53.484 22.8625 52.84 22.8625C52.1959 22.8625 51.6738 23.3846 51.6738 24.0287C51.6738 24.6727 52.1959 25.1948 52.84 25.1948Z" fill="#E08838"/>
<path d="M43.5109 25.1948C44.1549 25.1948 44.677 24.6727 44.677 24.0287C44.677 23.3846 44.1549 22.8625 43.5109 22.8625C42.8668 22.8625 42.3447 23.3846 42.3447 24.0287C42.3447 24.6727 42.8668 25.1948 43.5109 25.1948Z" fill="#E08838"/>
<path d="M24.0876 52V43.54H27.5916C28.2076 43.54 28.7276 43.644 29.1516 43.852C29.5756 44.052 29.8956 44.344 30.1116 44.728C30.3356 45.112 30.4476 45.576 30.4476 46.12C30.4476 46.664 30.3356 47.132 30.1116 47.524C29.8956 47.908 29.5756 48.204 29.1516 48.412C28.7276 48.612 28.2076 48.712 27.5916 48.712H25.3356V52H24.0876ZM25.3356 47.716H27.4116C28.0116 47.716 28.4636 47.584 28.7676 47.32C29.0796 47.048 29.2356 46.648 29.2356 46.12C29.2356 45.6 29.0796 45.208 28.7676 44.944C28.4636 44.672 28.0116 44.536 27.4116 44.536H25.3356V47.716ZM31.5376 52V46.144H32.7136V47.548H32.5936C32.7216 47.068 32.9496 46.704 33.2776 46.456C33.6136 46.208 34.0576 46.064 34.6096 46.024L35.0056 46L35.0896 47.032L34.3576 47.104C33.8376 47.152 33.4416 47.316 33.1696 47.596C32.8976 47.876 32.7616 48.26 32.7616 48.748V52H31.5376ZM35.9062 44.788V43.528H37.3222V44.788H35.9062ZM36.0142 52V46.144H37.2262V52H36.0142ZM41.4761 52.108C40.8841 52.108 40.3721 51.984 39.9401 51.736C39.5161 51.488 39.1841 51.136 38.9441 50.68C38.7041 50.224 38.5841 49.688 38.5841 49.072C38.5841 48.448 38.7041 47.912 38.9441 47.464C39.1841 47.008 39.5161 46.656 39.9401 46.408C40.3721 46.16 40.8841 46.036 41.4761 46.036C42.0601 46.036 42.5641 46.16 42.9881 46.408C43.4201 46.656 43.7561 47.008 43.9961 47.464C44.2361 47.92 44.3561 48.456 44.3561 49.072C44.3561 49.688 44.2361 50.224 43.9961 50.68C43.7561 51.136 43.4201 51.488 42.9881 51.736C42.5641 51.984 42.0601 52.108 41.4761 52.108ZM41.4641 51.172C41.9681 51.172 42.3721 50.992 42.6761 50.632C42.9801 50.272 43.1321 49.752 43.1321 49.072C43.1321 48.384 42.9801 47.864 42.6761 47.512C42.3721 47.16 41.9681 46.984 41.4641 46.984C40.9681 46.984 40.5681 47.16 40.2641 47.512C39.9601 47.864 39.8081 48.384 39.8081 49.072C39.8081 49.752 39.9601 50.272 40.2641 50.632C40.5681 50.992 40.9681 51.172 41.4641 51.172ZM45.7173 52V46.144H46.8933V47.548H46.7733C46.9013 47.068 47.1293 46.704 47.4573 46.456C47.7933 46.208 48.2373 46.064 48.7893 46.024L49.1853 46L49.2693 47.032L48.5373 47.104C48.0173 47.152 47.6213 47.316 47.3493 47.596C47.0773 47.876 46.9413 48.26 46.9413 48.748V52H45.7173ZM50.0858 44.788V43.528H51.5018V44.788H50.0858ZM50.1938 52V46.144H51.4058V52H50.1938ZM55.6078 52.108C54.8798 52.108 54.3318 51.92 53.9638 51.544C53.6038 51.168 53.4238 50.624 53.4238 49.912V47.08H52.2838V46.144H53.4238V44.38H54.6358V46.144H56.4478V47.08H54.6358V49.816C54.6358 50.24 54.7238 50.56 54.8998 50.776C55.0838 50.992 55.3798 51.1 55.7878 51.1C55.9078 51.1 56.0278 51.084 56.1478 51.052C56.2758 51.02 56.3998 50.988 56.5198 50.956L56.7118 51.868C56.5918 51.94 56.4238 51.996 56.2078 52.036C55.9998 52.084 55.7998 52.108 55.6078 52.108ZM58.1767 54.16L59.3287 51.592V52.108L56.7727 46.144H58.0687L60.0367 51.004H59.7007L61.6927 46.144H62.9407L59.4487 54.16H58.1767ZM67.5154 52V50.956H69.4354V44.596H70.0594L67.9354 45.916L67.4314 44.992L69.7954 43.54H70.6714V50.956H72.4714V52H67.5154Z" fill="black"/>
<path d="M28.6563 67.1C27.9563 67.1 27.3529 66.9533 26.8463 66.66C26.3396 66.3667 25.9496 65.95 25.6763 65.41C25.4029 64.8633 25.2663 64.2167 25.2663 63.47C25.2663 62.7233 25.4029 62.08 25.6763 61.54C25.9496 61 26.3396 60.5867 26.8463 60.3C27.3529 60.0067 27.9563 59.86 28.6563 59.86C29.1429 59.86 29.5929 59.9333 30.0063 60.08C30.4196 60.2267 30.7663 60.44 31.0463 60.72L30.6763 61.56C30.3696 61.3 30.0563 61.11 29.7363 60.99C29.4163 60.87 29.0663 60.81 28.6863 60.81C27.9529 60.81 27.3863 61.04 26.9863 61.5C26.5863 61.9533 26.3863 62.61 26.3863 63.47C26.3863 64.33 26.5863 64.99 26.9863 65.45C27.3863 65.91 27.9529 66.14 28.6863 66.14C29.0663 66.14 29.4163 66.08 29.7363 65.96C30.0563 65.84 30.3696 65.65 30.6763 65.39L31.0463 66.23C30.7663 66.51 30.4196 66.7267 30.0063 66.88C29.5929 67.0267 29.1429 67.1 28.6563 67.1ZM32.3003 67V59.95H33.3303V63.1H33.2703C33.417 62.7467 33.647 62.4733 33.9603 62.28C34.2737 62.0867 34.6303 61.99 35.0303 61.99C35.4303 61.99 35.7603 62.0633 36.0203 62.21C36.287 62.3567 36.487 62.58 36.6203 62.88C36.7537 63.1733 36.8203 63.5433 36.8203 63.99V67H35.7603V64.05C35.7603 63.7833 35.7237 63.5633 35.6503 63.39C35.5837 63.21 35.4737 63.0767 35.3203 62.99C35.1737 62.8967 34.9803 62.85 34.7403 62.85C34.467 62.85 34.227 62.91 34.0203 63.03C33.8137 63.15 33.6503 63.3167 33.5303 63.53C33.417 63.7367 33.3603 63.9767 33.3603 64.25V67H32.3003ZM39.9655 67.09C39.6188 67.09 39.3055 67.0233 39.0255 66.89C38.7455 66.7567 38.5255 66.5767 38.3655 66.35C38.2121 66.1167 38.1355 65.8567 38.1355 65.57C38.1355 65.2033 38.2321 64.9133 38.4255 64.7C38.6255 64.4867 38.9421 64.3333 39.3755 64.24C39.8088 64.14 40.3821 64.09 41.0955 64.09H41.6755V64.75H41.1255C40.7655 64.75 40.4621 64.7633 40.2155 64.79C39.9688 64.81 39.7688 64.85 39.6155 64.91C39.4621 64.97 39.3488 65.05 39.2755 65.15C39.2088 65.2433 39.1755 65.3633 39.1755 65.51C39.1755 65.7633 39.2655 65.9633 39.4455 66.11C39.6321 66.25 39.8755 66.32 40.1755 66.32C40.4355 66.32 40.6655 66.2633 40.8655 66.15C41.0655 66.03 41.2255 65.87 41.3455 65.67C41.4655 65.4633 41.5255 65.2333 41.5255 64.98V63.85C41.5255 63.4767 41.4321 63.21 41.2455 63.05C41.0655 62.89 40.7821 62.81 40.3955 62.81C40.1088 62.81 39.8221 62.85 39.5355 62.93C39.2555 63.01 38.9621 63.14 38.6555 63.32L38.3355 62.58C38.5288 62.4533 38.7421 62.3467 38.9755 62.26C39.2155 62.1733 39.4621 62.1067 39.7155 62.06C39.9755 62.0133 40.2288 61.99 40.4755 61.99C40.9221 61.99 41.2988 62.06 41.6055 62.2C41.9121 62.34 42.1455 62.5533 42.3055 62.84C42.4655 63.1267 42.5455 63.5 42.5455 63.96V67H41.5955V65.93H41.6355C41.5621 66.1567 41.4488 66.36 41.2955 66.54C41.1421 66.7133 40.9521 66.85 40.7255 66.95C40.5055 67.0433 40.2521 67.09 39.9655 67.09ZM44.0679 68.8V62.08H45.0679V63.15H45.0179C45.1446 62.79 45.3646 62.5067 45.6779 62.3C45.9912 62.0933 46.3612 61.99 46.7879 61.99C47.2279 61.99 47.6146 62.0967 47.9479 62.31C48.2812 62.5167 48.5379 62.81 48.7179 63.19C48.8979 63.57 48.9879 64.02 48.9879 64.54C48.9879 65.0467 48.8979 65.4933 48.7179 65.88C48.5379 66.2667 48.2846 66.5667 47.9579 66.78C47.6312 66.9867 47.2412 67.09 46.7879 67.09C46.3679 67.09 46.0046 66.99 45.6979 66.79C45.3979 66.5833 45.1879 66.3133 45.0679 65.98H45.1279V68.8H44.0679ZM46.5179 66.27C46.9512 66.27 47.2946 66.12 47.5479 65.82C47.8079 65.5133 47.9379 65.0833 47.9379 64.53C47.9379 63.9833 47.8112 63.5633 47.5579 63.27C47.3046 62.97 46.9579 62.82 46.5179 62.82C46.0846 62.82 45.7412 62.97 45.4879 63.27C45.2346 63.5633 45.1079 63.9833 45.1079 64.53C45.1079 65.0833 45.2346 65.5133 45.4879 65.82C45.7479 66.12 46.0912 66.27 46.5179 66.27ZM52.3507 67.09C51.724 67.09 51.254 66.93 50.9407 66.61C50.634 66.29 50.4807 65.8267 50.4807 65.22V62.91H49.5207V62.08H50.5107V60.62H51.5407V62.08H53.1607V62.91H51.5407V65.15C51.5407 65.5033 51.6174 65.77 51.7707 65.95C51.9307 66.1233 52.1774 66.21 52.5107 66.21C52.6307 66.21 52.7474 66.1967 52.8607 66.17C52.974 66.1433 53.0874 66.11 53.2007 66.07L53.3607 66.87C53.2407 66.9433 53.0874 66.9967 52.9007 67.03C52.714 67.07 52.5307 67.09 52.3507 67.09ZM56.5263 67.09C55.9729 67.09 55.4963 66.99 55.0963 66.79C54.6963 66.5833 54.3896 66.29 54.1763 65.91C53.9629 65.5233 53.8563 65.0667 53.8563 64.54C53.8563 64.04 53.9563 63.6 54.1563 63.22C54.3629 62.8333 54.6496 62.5333 55.0163 62.32C55.3896 62.1 55.8196 61.99 56.3063 61.99C56.7796 61.99 57.1829 62.09 57.5163 62.29C57.8496 62.49 58.1063 62.7767 58.2863 63.15C58.4663 63.5167 58.5563 63.9567 58.5563 64.47V64.81H54.6763V64.14H57.8363L57.6663 64.31C57.6663 63.8033 57.5496 63.4167 57.3163 63.15C57.0896 62.8833 56.7629 62.75 56.3363 62.75C56.0296 62.75 55.7663 62.82 55.5463 62.96C55.3263 63.0933 55.1563 63.2867 55.0363 63.54C54.9163 63.7867 54.8563 64.0833 54.8563 64.43V64.52C54.8563 64.9067 54.9196 65.23 55.0463 65.49C55.1796 65.75 55.3729 65.9433 55.6263 66.07C55.8796 66.1967 56.1863 66.26 56.5463 66.26C56.8196 66.26 57.0929 66.2233 57.3663 66.15C57.6463 66.07 57.9029 65.9333 58.1363 65.74L58.4663 66.47C58.2196 66.67 57.9196 66.8233 57.5663 66.93C57.2196 67.0367 56.8729 67.09 56.5263 67.09ZM59.7906 67V62.08H60.7806V63.25H60.7306C60.8439 62.87 61.0406 62.5733 61.3206 62.36C61.6072 62.1467 61.9739 62.0233 62.4206 61.99L62.8306 61.97L62.9106 62.89L62.2106 62.96C61.7772 63 61.4439 63.14 61.2106 63.38C60.9772 63.62 60.8606 63.9367 60.8606 64.33V67H59.7906ZM68.8779 67.09C68.5712 67.09 68.2712 67.06 67.9779 67C67.6912 66.9333 67.4212 66.8367 67.1679 66.71C66.9212 66.5833 66.7012 66.4333 66.5079 66.26L66.8879 65.44C67.1946 65.6933 67.5112 65.88 67.8379 66C68.1646 66.12 68.5079 66.18 68.8679 66.18C69.3279 66.18 69.6879 66.06 69.9479 65.82C70.2079 65.58 70.3379 65.2533 70.3379 64.84C70.3379 64.4133 70.2146 64.0733 69.9679 63.82C69.7212 63.5667 69.3812 63.44 68.9479 63.44C68.6479 63.44 68.3779 63.5 68.1379 63.62C67.9046 63.7333 67.6879 63.92 67.4879 64.18H66.7179V59.95H70.9679V60.85H67.7179V63.33H67.5479C67.7146 63.09 67.9379 62.9 68.2179 62.76C68.5046 62.62 68.8212 62.55 69.1679 62.55C69.6146 62.55 70.0012 62.6467 70.3279 62.84C70.6546 63.0267 70.9079 63.2867 71.0879 63.62C71.2679 63.9533 71.3579 64.3433 71.3579 64.79C71.3579 65.25 71.2579 65.6533 71.0579 66C70.8579 66.3467 70.5712 66.6167 70.1979 66.81C69.8246 66.9967 69.3846 67.09 68.8779 67.09Z" fill="#667085"/>
<defs>
<filter id="filter0_d_8310_982" x="0" y="0" width="96" height="85.8462" filterUnits="userSpaceOnUse" color-interpolation-filters="sRGB">
<feFlood flood-opacity="0" result="BackgroundImageFix"/>
<feColorMatrix in="SourceAlpha" type="matrix" values="0 0 0 0 0 0 0 0 0 0 0 0 0 0 0 0 0 0 127 0" result="hardAlpha"/>
<feOffset dy="4"/>
<feGaussianBlur stdDeviation="2"/>
<feComposite in2="hardAlpha" operator="out"/>
<feColorMatrix type="matrix" values="0 0 0 0 0 0 0 0 0 0 0 0 0 0 0 0 0 0 0.25 0"/>
<feBlend mode="normal" in2="BackgroundImageFix" result="effect1_dropShadow_8310_982"/>
<feBlend mode="normal" in="SourceGraphic" in2="effect1_dropShadow_8310_982" result="shape"/>
</filter>
</defs>
</svg>
