<svg width="96" height="86" viewBox="0 0 96 86" fill="none" xmlns="http://www.w3.org/2000/svg">
<g filter="url(#filter0_d_8310_792)">
<path d="M5.37285 42.5185C4.62083 41.2089 4.24484 40.5536 4.09767 39.8574C3.96744 39.2412 3.96744 38.6048 4.09767 37.9886C4.24484 37.2924 4.62083 36.6371 5.37285 35.3274L23.5901 3.59555C24.3421 2.28569 24.7181 1.63076 25.2442 1.15444C25.7096 0.732998 26.2579 0.414612 26.8535 0.220002C27.5267 -2.00917e-07 28.2787 0 29.7827 0H66.2171C67.7214 0 68.4731 -2.00917e-07 69.1466 0.220002C69.7419 0.414612 70.2903 0.732998 70.756 1.15444C71.282 1.63076 71.6578 2.28569 72.41 3.59555L90.6271 35.3274C91.3792 36.6371 91.7551 37.2924 91.9021 37.9886C92.0326 38.6048 92.0326 39.2412 91.9021 39.8574C91.7551 40.5536 91.3792 41.2089 90.6271 42.5185L72.41 74.2506C71.6578 75.5603 71.282 76.2151 70.756 76.6915C70.2903 77.1131 69.7419 77.4313 69.1466 77.6259C68.4731 77.8462 67.7214 77.8462 66.2171 77.8462H29.7827C28.2787 77.8462 27.5267 77.8462 26.8535 77.6259C26.2579 77.4313 25.7096 77.1131 25.2442 76.6915C24.7181 76.2151 24.3421 75.5603 23.5901 74.2506L5.37285 42.5185Z" fill="white"/>
</g>
<g clip-path="url(#clip0_8310_792)">
<path d="M38 30H44.875V31.5625C44.875 32.4742 44.5128 33.3485 43.8682 33.9932C43.2235 34.6378 42.3492 35 41.4375 35C40.5258 35 39.6515 34.6378 39.0068 33.9932C38.3622 33.3485 38 32.4742 38 31.5625V30ZM43 15.15C45.5 15.15 46.75 18.75 46.75 21.25C46.75 22.5 46.125 23.75 45.5 25.625L44.875 27.5H38C38 26.25 37.375 24.375 37.375 21.25C37.375 18.125 39.8725 15.15 43 15.15ZM58.0675 25.1225L57.7962 26.6612C57.6379 27.5592 57.1294 28.3574 56.3826 28.8804C55.6357 29.4034 54.7117 29.6083 53.8137 29.45C52.9158 29.2917 52.1176 28.7832 51.5946 28.0363C51.0716 27.2894 50.8667 26.3654 51.025 25.4675L51.2975 23.93L58.0675 25.1225ZM55.7225 9.63123C58.8025 10.1737 60.745 13.5362 60.2025 16.6137C59.66 19.6925 58.7188 21.43 58.5025 22.6612L51.7312 21.4675L51.4412 19.5125C51.1512 17.5575 50.7537 16.2175 50.97 14.9875C51.4038 12.525 53.26 9.19748 55.7225 9.63123Z" fill="#F2BB41"/>
</g>
<path d="M20.6363 50.5V42.04H26.0123V43.048H21.8843V45.748H25.7603V46.756H21.8843V50.5H20.6363ZM27.0409 43.288V42.028H28.4569V43.288H27.0409ZM27.1489 50.5V44.644H28.3609V50.5H27.1489ZM30.0668 50.5V44.644H31.2428V46.048H31.1228C31.2508 45.568 31.4788 45.204 31.8068 44.956C32.1428 44.708 32.5868 44.564 33.1388 44.524L33.5348 44.5L33.6188 45.532L32.8868 45.604C32.3668 45.652 31.9708 45.816 31.6988 46.096C31.4268 46.376 31.2908 46.76 31.2908 47.248V50.5H30.0668ZM36.5368 50.608C36.2248 50.608 35.9208 50.58 35.6248 50.524C35.3288 50.468 35.0568 50.388 34.8088 50.284C34.5608 50.18 34.3408 50.052 34.1488 49.9L34.4968 49.084C34.6968 49.22 34.9088 49.34 35.1328 49.444C35.3568 49.54 35.5888 49.612 35.8288 49.66C36.0768 49.708 36.3168 49.732 36.5488 49.732C36.9728 49.732 37.2928 49.656 37.5088 49.504C37.7248 49.352 37.8328 49.148 37.8328 48.892C37.8328 48.684 37.7608 48.524 37.6168 48.412C37.4728 48.292 37.2568 48.2 36.9688 48.136L35.8288 47.908C35.3328 47.804 34.9568 47.62 34.7008 47.356C34.4448 47.092 34.3168 46.756 34.3168 46.348C34.3168 45.98 34.4168 45.66 34.6168 45.388C34.8168 45.116 35.0968 44.908 35.4568 44.764C35.8168 44.612 36.2328 44.536 36.7048 44.536C36.9768 44.536 37.2408 44.564 37.4968 44.62C37.7528 44.676 37.9928 44.756 38.2168 44.86C38.4488 44.964 38.6448 45.096 38.8048 45.256L38.4568 46.072C38.3048 45.936 38.1288 45.82 37.9288 45.724C37.7368 45.628 37.5368 45.556 37.3288 45.508C37.1208 45.452 36.9128 45.424 36.7048 45.424C36.2808 45.424 35.9608 45.504 35.7448 45.664C35.5368 45.816 35.4328 46.024 35.4328 46.288C35.4328 46.488 35.4968 46.652 35.6248 46.78C35.7528 46.908 35.9528 47 36.2248 47.056L37.3648 47.284C37.8848 47.388 38.2768 47.564 38.5408 47.812C38.8128 48.06 38.9488 48.396 38.9488 48.82C38.9488 49.188 38.8488 49.508 38.6488 49.78C38.4488 50.052 38.1648 50.26 37.7968 50.404C37.4368 50.54 37.0168 50.608 36.5368 50.608ZM42.7347 50.608C42.0067 50.608 41.4587 50.42 41.0907 50.044C40.7307 49.668 40.5507 49.124 40.5507 48.412V45.58H39.4107V44.644H40.5507V42.88H41.7627V44.644H43.5747V45.58H41.7627V48.316C41.7627 48.74 41.8507 49.06 42.0267 49.276C42.2107 49.492 42.5067 49.6 42.9147 49.6C43.0347 49.6 43.1547 49.584 43.2747 49.552C43.4027 49.52 43.5267 49.488 43.6467 49.456L43.8387 50.368C43.7187 50.44 43.5507 50.496 43.3347 50.536C43.1267 50.584 42.9267 50.608 42.7347 50.608ZM49.8259 50.608C49.5139 50.608 49.2099 50.58 48.9139 50.524C48.6179 50.468 48.3459 50.388 48.0979 50.284C47.8499 50.18 47.6299 50.052 47.4379 49.9L47.7859 49.084C47.9859 49.22 48.1979 49.34 48.4219 49.444C48.6459 49.54 48.8779 49.612 49.1179 49.66C49.3659 49.708 49.6059 49.732 49.8379 49.732C50.2619 49.732 50.5819 49.656 50.7979 49.504C51.0139 49.352 51.1219 49.148 51.1219 48.892C51.1219 48.684 51.0499 48.524 50.9059 48.412C50.7619 48.292 50.5459 48.2 50.2579 48.136L49.1179 47.908C48.6219 47.804 48.2459 47.62 47.9899 47.356C47.7339 47.092 47.6059 46.756 47.6059 46.348C47.6059 45.98 47.7059 45.66 47.9059 45.388C48.1059 45.116 48.3859 44.908 48.7459 44.764C49.1059 44.612 49.5219 44.536 49.9939 44.536C50.2659 44.536 50.5299 44.564 50.7859 44.62C51.0419 44.676 51.2819 44.756 51.5059 44.86C51.7379 44.964 51.9339 45.096 52.0939 45.256L51.7459 46.072C51.5939 45.936 51.4179 45.82 51.2179 45.724C51.0259 45.628 50.8259 45.556 50.6179 45.508C50.4099 45.452 50.2019 45.424 49.9939 45.424C49.5699 45.424 49.2499 45.504 49.0339 45.664C48.8259 45.816 48.7219 46.024 48.7219 46.288C48.7219 46.488 48.7859 46.652 48.9139 46.78C49.0419 46.908 49.2419 47 49.5139 47.056L50.6539 47.284C51.1739 47.388 51.5659 47.564 51.8299 47.812C52.1019 48.06 52.2379 48.396 52.2379 48.82C52.2379 49.188 52.1379 49.508 51.9379 49.78C51.7379 50.052 51.4539 50.26 51.0859 50.404C50.7259 50.54 50.3059 50.608 49.8259 50.608ZM56.0238 50.608C55.2958 50.608 54.7478 50.42 54.3798 50.044C54.0198 49.668 53.8398 49.124 53.8398 48.412V45.58H52.6998V44.644H53.8398V42.88H55.0518V44.644H56.8638V45.58H55.0518V48.316C55.0518 48.74 55.1398 49.06 55.3158 49.276C55.4998 49.492 55.7958 49.6 56.2038 49.6C56.3238 49.6 56.4438 49.584 56.5638 49.552C56.6918 49.52 56.8158 49.488 56.9358 49.456L57.1278 50.368C57.0078 50.44 56.8398 50.496 56.6238 50.536C56.4158 50.584 56.2158 50.608 56.0238 50.608ZM60.6 50.608C59.96 50.608 59.408 50.488 58.944 50.248C58.488 50 58.132 49.652 57.876 49.204C57.628 48.748 57.504 48.208 57.504 47.584C57.504 46.976 57.628 46.444 57.876 45.988C58.124 45.532 58.464 45.176 58.896 44.92C59.328 44.664 59.82 44.536 60.372 44.536C60.916 44.536 61.38 44.656 61.764 44.896C62.156 45.128 62.456 45.46 62.664 45.892C62.872 46.324 62.976 46.84 62.976 47.44V47.848H58.464V47.104H62.16L61.956 47.272C61.956 46.672 61.824 46.208 61.56 45.88C61.296 45.552 60.916 45.388 60.42 45.388C60.044 45.388 59.724 45.476 59.46 45.652C59.204 45.828 59.008 46.072 58.872 46.384C58.736 46.696 58.668 47.06 58.668 47.476V47.548C58.668 48.012 58.74 48.404 58.884 48.724C59.036 49.036 59.256 49.272 59.544 49.432C59.832 49.592 60.188 49.672 60.612 49.672C60.948 49.672 61.276 49.62 61.596 49.516C61.924 49.404 62.232 49.232 62.52 49L62.88 49.84C62.616 50.08 62.276 50.268 61.86 50.404C61.444 50.54 61.024 50.608 60.6 50.608ZM64.2973 52.66V44.644H65.4853V45.964H65.3533C65.4813 45.532 65.7333 45.188 66.1093 44.932C66.4853 44.668 66.9293 44.536 67.4413 44.536C67.9613 44.536 68.4133 44.66 68.7973 44.908C69.1893 45.156 69.4893 45.504 69.6973 45.952C69.9133 46.4 70.0213 46.94 70.0213 47.572C70.0213 48.188 69.9133 48.728 69.6973 49.192C69.4893 49.648 69.1933 50 68.8093 50.248C68.4253 50.488 67.9693 50.608 67.4413 50.608C66.9373 50.608 66.4973 50.48 66.1213 50.224C65.7453 49.968 65.4933 49.628 65.3653 49.204H65.5093V52.66H64.2973ZM67.1413 49.672C67.6453 49.672 68.0453 49.492 68.3413 49.132C68.6453 48.772 68.7973 48.252 68.7973 47.572C68.7973 46.884 68.6453 46.364 68.3413 46.012C68.0453 45.66 67.6453 45.484 67.1413 45.484C66.6453 45.484 66.2453 45.66 65.9413 46.012C65.6373 46.364 65.4853 46.884 65.4853 47.572C65.4853 48.252 65.6373 48.772 65.9413 49.132C66.2453 49.492 66.6453 49.672 67.1413 49.672ZM73.4392 50.608C73.1272 50.608 72.8232 50.58 72.5272 50.524C72.2312 50.468 71.9592 50.388 71.7112 50.284C71.4632 50.18 71.2432 50.052 71.0512 49.9L71.3992 49.084C71.5992 49.22 71.8112 49.34 72.0352 49.444C72.2592 49.54 72.4912 49.612 72.7312 49.66C72.9792 49.708 73.2192 49.732 73.4512 49.732C73.8752 49.732 74.1952 49.656 74.4112 49.504C74.6272 49.352 74.7352 49.148 74.7352 48.892C74.7352 48.684 74.6632 48.524 74.5192 48.412C74.3752 48.292 74.1592 48.2 73.8712 48.136L72.7312 47.908C72.2352 47.804 71.8592 47.62 71.6032 47.356C71.3472 47.092 71.2192 46.756 71.2192 46.348C71.2192 45.98 71.3192 45.66 71.5192 45.388C71.7192 45.116 71.9992 44.908 72.3592 44.764C72.7192 44.612 73.1352 44.536 73.6072 44.536C73.8792 44.536 74.1432 44.564 74.3992 44.62C74.6552 44.676 74.8952 44.756 75.1192 44.86C75.3512 44.964 75.5472 45.096 75.7072 45.256L75.3592 46.072C75.2072 45.936 75.0312 45.82 74.8312 45.724C74.6392 45.628 74.4392 45.556 74.2312 45.508C74.0232 45.452 73.8152 45.424 73.6072 45.424C73.1832 45.424 72.8632 45.504 72.6472 45.664C72.4392 45.816 72.3352 46.024 72.3352 46.288C72.3352 46.488 72.3992 46.652 72.5272 46.78C72.6552 46.908 72.8552 47 73.1272 47.056L74.2672 47.284C74.7872 47.388 75.1792 47.564 75.4432 47.812C75.7152 48.06 75.8512 48.396 75.8512 48.82C75.8512 49.188 75.7512 49.508 75.5512 49.78C75.3512 50.052 75.0672 50.26 74.6992 50.404C74.3392 50.54 73.9192 50.608 73.4392 50.608Z" fill="black"/>
<path d="M28.4511 65.6C27.7511 65.6 27.1478 65.4533 26.6411 65.16C26.1345 64.8667 25.7445 64.45 25.4711 63.91C25.1978 63.3633 25.0611 62.7167 25.0611 61.97C25.0611 61.2233 25.1978 60.58 25.4711 60.04C25.7445 59.5 26.1345 59.0867 26.6411 58.8C27.1478 58.5067 27.7511 58.36 28.4511 58.36C28.9378 58.36 29.3878 58.4333 29.8011 58.58C30.2145 58.7267 30.5611 58.94 30.8411 59.22L30.4711 60.06C30.1645 59.8 29.8511 59.61 29.5311 59.49C29.2111 59.37 28.8611 59.31 28.4811 59.31C27.7478 59.31 27.1811 59.54 26.7811 60C26.3811 60.4533 26.1811 61.11 26.1811 61.97C26.1811 62.83 26.3811 63.49 26.7811 63.95C27.1811 64.41 27.7478 64.64 28.4811 64.64C28.8611 64.64 29.2111 64.58 29.5311 64.46C29.8511 64.34 30.1645 64.15 30.4711 63.89L30.8411 64.73C30.5611 65.01 30.2145 65.2267 29.8011 65.38C29.3878 65.5267 28.9378 65.6 28.4511 65.6ZM32.0952 65.5V58.45H33.1252V61.6H33.0652C33.2119 61.2467 33.4419 60.9733 33.7552 60.78C34.0685 60.5867 34.4252 60.49 34.8252 60.49C35.2252 60.49 35.5552 60.5633 35.8152 60.71C36.0819 60.8567 36.2819 61.08 36.4152 61.38C36.5485 61.6733 36.6152 62.0433 36.6152 62.49V65.5H35.5552V62.55C35.5552 62.2833 35.5185 62.0633 35.4452 61.89C35.3785 61.71 35.2685 61.5767 35.1152 61.49C34.9685 61.3967 34.7752 61.35 34.5352 61.35C34.2619 61.35 34.0219 61.41 33.8152 61.53C33.6085 61.65 33.4452 61.8167 33.3252 62.03C33.2119 62.2367 33.1552 62.4767 33.1552 62.75V65.5H32.0952ZM39.7604 65.59C39.4137 65.59 39.1004 65.5233 38.8204 65.39C38.5404 65.2567 38.3204 65.0767 38.1604 64.85C38.007 64.6167 37.9304 64.3567 37.9304 64.07C37.9304 63.7033 38.027 63.4133 38.2204 63.2C38.4204 62.9867 38.737 62.8333 39.1704 62.74C39.6037 62.64 40.177 62.59 40.8904 62.59H41.4704V63.25H40.9204C40.5604 63.25 40.257 63.2633 40.0104 63.29C39.7637 63.31 39.5637 63.35 39.4104 63.41C39.257 63.47 39.1437 63.55 39.0704 63.65C39.0037 63.7433 38.9704 63.8633 38.9704 64.01C38.9704 64.2633 39.0604 64.4633 39.2404 64.61C39.427 64.75 39.6704 64.82 39.9704 64.82C40.2304 64.82 40.4604 64.7633 40.6604 64.65C40.8604 64.53 41.0204 64.37 41.1404 64.17C41.2604 63.9633 41.3204 63.7333 41.3204 63.48V62.35C41.3204 61.9767 41.227 61.71 41.0404 61.55C40.8604 61.39 40.577 61.31 40.1904 61.31C39.9037 61.31 39.617 61.35 39.3304 61.43C39.0504 61.51 38.757 61.64 38.4504 61.82L38.1304 61.08C38.3237 60.9533 38.537 60.8467 38.7704 60.76C39.0104 60.6733 39.257 60.6067 39.5104 60.56C39.7704 60.5133 40.0237 60.49 40.2704 60.49C40.717 60.49 41.0937 60.56 41.4004 60.7C41.707 60.84 41.9404 61.0533 42.1004 61.34C42.2604 61.6267 42.3404 62 42.3404 62.46V65.5H41.3904V64.43H41.4304C41.357 64.6567 41.2437 64.86 41.0904 65.04C40.937 65.2133 40.747 65.35 40.5204 65.45C40.3004 65.5433 40.047 65.59 39.7604 65.59ZM43.8628 67.3V60.58H44.8628V61.65H44.8128C44.9394 61.29 45.1594 61.0067 45.4728 60.8C45.7861 60.5933 46.1561 60.49 46.5828 60.49C47.0228 60.49 47.4094 60.5967 47.7428 60.81C48.0761 61.0167 48.3328 61.31 48.5128 61.69C48.6928 62.07 48.7828 62.52 48.7828 63.04C48.7828 63.5467 48.6928 63.9933 48.5128 64.38C48.3328 64.7667 48.0794 65.0667 47.7528 65.28C47.4261 65.4867 47.0361 65.59 46.5828 65.59C46.1628 65.59 45.7994 65.49 45.4928 65.29C45.1928 65.0833 44.9828 64.8133 44.8628 64.48H44.9228V67.3H43.8628ZM46.3128 64.77C46.7461 64.77 47.0894 64.62 47.3428 64.32C47.6028 64.0133 47.7328 63.5833 47.7328 63.03C47.7328 62.4833 47.6061 62.0633 47.3528 61.77C47.0994 61.47 46.7528 61.32 46.3128 61.32C45.8794 61.32 45.5361 61.47 45.2828 61.77C45.0294 62.0633 44.9028 62.4833 44.9028 63.03C44.9028 63.5833 45.0294 64.0133 45.2828 64.32C45.5428 64.62 45.8861 64.77 46.3128 64.77ZM52.1456 65.59C51.5189 65.59 51.0489 65.43 50.7356 65.11C50.4289 64.79 50.2756 64.3267 50.2756 63.72V61.41H49.3156V60.58H50.3056V59.12H51.3356V60.58H52.9556V61.41H51.3356V63.65C51.3356 64.0033 51.4123 64.27 51.5656 64.45C51.7256 64.6233 51.9723 64.71 52.3056 64.71C52.4256 64.71 52.5423 64.6967 52.6556 64.67C52.7689 64.6433 52.8823 64.61 52.9956 64.57L53.1556 65.37C53.0356 65.4433 52.8823 65.4967 52.6956 65.53C52.5089 65.57 52.3256 65.59 52.1456 65.59ZM56.3211 65.59C55.7678 65.59 55.2911 65.49 54.8911 65.29C54.4911 65.0833 54.1845 64.79 53.9711 64.41C53.7578 64.0233 53.6511 63.5667 53.6511 63.04C53.6511 62.54 53.7511 62.1 53.9511 61.72C54.1578 61.3333 54.4445 61.0333 54.8111 60.82C55.1845 60.6 55.6145 60.49 56.1011 60.49C56.5745 60.49 56.9778 60.59 57.3111 60.79C57.6445 60.99 57.9011 61.2767 58.0811 61.65C58.2611 62.0167 58.3511 62.4567 58.3511 62.97V63.31H54.4711V62.64H57.6311L57.4611 62.81C57.4611 62.3033 57.3445 61.9167 57.1111 61.65C56.8845 61.3833 56.5578 61.25 56.1311 61.25C55.8245 61.25 55.5611 61.32 55.3411 61.46C55.1211 61.5933 54.9511 61.7867 54.8311 62.04C54.7111 62.2867 54.6511 62.5833 54.6511 62.93V63.02C54.6511 63.4067 54.7145 63.73 54.8411 63.99C54.9745 64.25 55.1678 64.4433 55.4211 64.57C55.6745 64.6967 55.9811 64.76 56.3411 64.76C56.6145 64.76 56.8878 64.7233 57.1611 64.65C57.4411 64.57 57.6978 64.4333 57.9311 64.24L58.2611 64.97C58.0145 65.17 57.7145 65.3233 57.3611 65.43C57.0145 65.5367 56.6678 65.59 56.3211 65.59ZM59.5854 65.5V60.58H60.5754V61.75H60.5254C60.6388 61.37 60.8354 61.0733 61.1154 60.86C61.4021 60.6467 61.7688 60.5233 62.2154 60.49L62.6254 60.47L62.7054 61.39L62.0054 61.46C61.5721 61.5 61.2388 61.64 61.0054 61.88C60.7721 62.12 60.6554 62.4367 60.6554 62.83V65.5H59.5854ZM66.6328 65.5V64.6H68.3628V59.33L68.9028 59.36L66.9828 60.56L66.5428 59.76L68.6528 58.45H69.4228V64.6H71.0328V65.5H66.6328Z" fill="#667085"/>
<defs>
<filter id="filter0_d_8310_792" x="0" y="0" width="96" height="85.8462" filterUnits="userSpaceOnUse" color-interpolation-filters="sRGB">
<feFlood flood-opacity="0" result="BackgroundImageFix"/>
<feColorMatrix in="SourceAlpha" type="matrix" values="0 0 0 0 0 0 0 0 0 0 0 0 0 0 0 0 0 0 127 0" result="hardAlpha"/>
<feOffset dy="4"/>
<feGaussianBlur stdDeviation="2"/>
<feComposite in2="hardAlpha" operator="out"/>
<feColorMatrix type="matrix" values="0 0 0 0 0 0 0 0 0 0 0 0 0 0 0 0 0 0 0.25 0"/>
<feBlend mode="normal" in2="BackgroundImageFix" result="effect1_dropShadow_8310_792"/>
<feBlend mode="normal" in="SourceGraphic" in2="effect1_dropShadow_8310_792" result="shape"/>
</filter>
<clipPath id="clip0_8310_792">
<rect width="30" height="30" fill="white" transform="translate(33 7.5)"/>
</clipPath>
</defs>
</svg>
