<svg width="96" height="86" viewBox="0 0 96 86" fill="none" xmlns="http://www.w3.org/2000/svg">
<g filter="url(#filter0_d_8310_938)">
<path d="M5.37285 42.5185C4.62083 41.2089 4.24484 40.5536 4.09767 39.8574C3.96744 39.2412 3.96744 38.6048 4.09767 37.9886C4.24484 37.2924 4.62083 36.6371 5.37285 35.3274L23.5901 3.59555C24.3421 2.28569 24.7181 1.63076 25.2442 1.15444C25.7096 0.732998 26.2579 0.414612 26.8535 0.220002C27.5267 -2.00917e-07 28.2787 0 29.7827 0H66.2171C67.7214 0 68.4731 -2.00917e-07 69.1466 0.220002C69.7419 0.414612 70.2903 0.732998 70.756 1.15444C71.282 1.63076 71.6578 2.28569 72.41 3.59555L90.6271 35.3274C91.3792 36.6371 91.7551 37.2924 91.9021 37.9886C92.0326 38.6048 92.0326 39.2412 91.9021 39.8574C91.7551 40.5536 91.3792 41.2089 90.6271 42.5185L72.41 74.2506C71.6578 75.5603 71.282 76.2151 70.756 76.6915C70.2903 77.1131 69.7419 77.4313 69.1466 77.6259C68.4731 77.8462 67.7214 77.8462 66.2171 77.8462H29.7827C28.2787 77.8462 27.5267 77.8462 26.8535 77.6259C26.2579 77.4313 25.7096 77.1131 25.2442 76.6915C24.7181 76.2151 24.3421 75.5603 23.5901 74.2506L5.37285 42.5185Z" fill="white"/>
</g>
<path d="M46.5432 37.1574L36.0476 26.6618C35.1147 25.7288 35.1147 24.2711 36.0476 23.3382L46.5432 12.8425C47.4762 11.9096 48.9339 11.9096 49.8669 12.8425L60.3625 23.3382C61.2954 24.2711 61.2954 25.7288 60.3625 26.6618L49.8669 37.1574C48.9339 38.0903 47.4179 38.0903 46.5432 37.1574Z" fill="#F2BB41"/>
<path d="M46.7765 30.1021C46.7765 29.9272 46.8348 29.7523 46.8931 29.5773C46.9514 29.4024 47.068 29.2858 47.1847 29.1692C47.3013 29.0526 47.4762 28.9359 47.6511 28.8776C47.8261 28.8193 48.001 28.761 48.2342 28.761C48.4675 28.761 48.6424 28.8193 48.8173 28.8776C48.9922 28.9359 49.1672 29.0526 49.2838 29.1692C49.4004 29.2858 49.517 29.4024 49.5753 29.5773C49.6336 29.7523 49.6919 29.9272 49.6919 30.1021C49.6919 30.277 49.6336 30.452 49.5753 30.6269C49.517 30.8018 49.4004 30.9184 49.2838 31.0351C49.1672 31.1517 48.9922 31.2683 48.8173 31.3266C48.6424 31.3849 48.4675 31.4432 48.2342 31.4432C48.001 31.4432 47.8261 31.3849 47.6511 31.3266C47.4762 31.2683 47.3596 31.1517 47.1847 31.0351C47.068 30.9184 46.9514 30.8018 46.8931 30.6269C46.8348 30.452 46.7765 30.3353 46.7765 30.1021ZM49.2255 27.4199H47.1263L46.8348 18.6152H49.517L49.2255 27.4199Z" fill="#E08838"/>
<path d="M24.0876 53V44.54H27.5916C28.2076 44.54 28.7276 44.644 29.1516 44.852C29.5756 45.052 29.8956 45.344 30.1116 45.728C30.3356 46.112 30.4476 46.576 30.4476 47.12C30.4476 47.664 30.3356 48.132 30.1116 48.524C29.8956 48.908 29.5756 49.204 29.1516 49.412C28.7276 49.612 28.2076 49.712 27.5916 49.712H25.3356V53H24.0876ZM25.3356 48.716H27.4116C28.0116 48.716 28.4636 48.584 28.7676 48.32C29.0796 48.048 29.2356 47.648 29.2356 47.12C29.2356 46.6 29.0796 46.208 28.7676 45.944C28.4636 45.672 28.0116 45.536 27.4116 45.536H25.3356V48.716ZM31.5376 53V47.144H32.7136V48.548H32.5936C32.7216 48.068 32.9496 47.704 33.2776 47.456C33.6136 47.208 34.0576 47.064 34.6096 47.024L35.0056 47L35.0896 48.032L34.3576 48.104C33.8376 48.152 33.4416 48.316 33.1696 48.596C32.8976 48.876 32.7616 49.26 32.7616 49.748V53H31.5376ZM35.9062 45.788V44.528H37.3222V45.788H35.9062ZM36.0142 53V47.144H37.2262V53H36.0142ZM41.4761 53.108C40.8841 53.108 40.3721 52.984 39.9401 52.736C39.5161 52.488 39.1841 52.136 38.9441 51.68C38.7041 51.224 38.5841 50.688 38.5841 50.072C38.5841 49.448 38.7041 48.912 38.9441 48.464C39.1841 48.008 39.5161 47.656 39.9401 47.408C40.3721 47.16 40.8841 47.036 41.4761 47.036C42.0601 47.036 42.5641 47.16 42.9881 47.408C43.4201 47.656 43.7561 48.008 43.9961 48.464C44.2361 48.92 44.3561 49.456 44.3561 50.072C44.3561 50.688 44.2361 51.224 43.9961 51.68C43.7561 52.136 43.4201 52.488 42.9881 52.736C42.5641 52.984 42.0601 53.108 41.4761 53.108ZM41.4641 52.172C41.9681 52.172 42.3721 51.992 42.6761 51.632C42.9801 51.272 43.1321 50.752 43.1321 50.072C43.1321 49.384 42.9801 48.864 42.6761 48.512C42.3721 48.16 41.9681 47.984 41.4641 47.984C40.9681 47.984 40.5681 48.16 40.2641 48.512C39.9601 48.864 39.8081 49.384 39.8081 50.072C39.8081 50.752 39.9601 51.272 40.2641 51.632C40.5681 51.992 40.9681 52.172 41.4641 52.172ZM45.7173 53V47.144H46.8933V48.548H46.7733C46.9013 48.068 47.1293 47.704 47.4573 47.456C47.7933 47.208 48.2373 47.064 48.7893 47.024L49.1853 47L49.2693 48.032L48.5373 48.104C48.0173 48.152 47.6213 48.316 47.3493 48.596C47.0773 48.876 46.9413 49.26 46.9413 49.748V53H45.7173ZM50.0858 45.788V44.528H51.5018V45.788H50.0858ZM50.1938 53V47.144H51.4058V53H50.1938ZM55.6078 53.108C54.8798 53.108 54.3318 52.92 53.9638 52.544C53.6038 52.168 53.4238 51.624 53.4238 50.912V48.08H52.2838V47.144H53.4238V45.38H54.6358V47.144H56.4478V48.08H54.6358V50.816C54.6358 51.24 54.7238 51.56 54.8998 51.776C55.0838 51.992 55.3798 52.1 55.7878 52.1C55.9078 52.1 56.0278 52.084 56.1478 52.052C56.2758 52.02 56.3998 51.988 56.5198 51.956L56.7118 52.868C56.5918 52.94 56.4238 52.996 56.2078 53.036C55.9998 53.084 55.7998 53.108 55.6078 53.108ZM58.1767 55.16L59.3287 52.592V53.108L56.7727 47.144H58.0687L60.0367 52.004H59.7007L61.6927 47.144H62.9407L59.4487 55.16H58.1767ZM67.1314 53V52.076L69.9514 49.052C70.2154 48.764 70.4274 48.5 70.5874 48.26C70.7474 48.012 70.8634 47.776 70.9354 47.552C71.0154 47.32 71.0554 47.088 71.0554 46.856C71.0554 46.408 70.9194 46.068 70.6474 45.836C70.3754 45.604 69.9754 45.488 69.4474 45.488C69.0394 45.488 68.6514 45.564 68.2834 45.716C67.9234 45.868 67.5794 46.1 67.2514 46.412L66.8074 45.464C67.1274 45.152 67.5354 44.904 68.0314 44.72C68.5274 44.528 69.0434 44.432 69.5794 44.432C70.1634 44.432 70.6554 44.524 71.0554 44.708C71.4634 44.884 71.7714 45.144 71.9794 45.488C72.1874 45.832 72.2914 46.252 72.2914 46.748C72.2914 47.004 72.2594 47.256 72.1954 47.504C72.1394 47.744 72.0474 47.984 71.9194 48.224C71.7994 48.464 71.6434 48.712 71.4514 48.968C71.2674 49.224 71.0434 49.488 70.7794 49.76L68.3674 52.304V51.956H72.6274V53H67.1314Z" fill="black"/>
<path d="M28.6563 68.1C27.9563 68.1 27.3529 67.9533 26.8463 67.66C26.3396 67.3667 25.9496 66.95 25.6763 66.41C25.4029 65.8633 25.2663 65.2167 25.2663 64.47C25.2663 63.7233 25.4029 63.08 25.6763 62.54C25.9496 62 26.3396 61.5867 26.8463 61.3C27.3529 61.0067 27.9563 60.86 28.6563 60.86C29.1429 60.86 29.5929 60.9333 30.0063 61.08C30.4196 61.2267 30.7663 61.44 31.0463 61.72L30.6763 62.56C30.3696 62.3 30.0563 62.11 29.7363 61.99C29.4163 61.87 29.0663 61.81 28.6863 61.81C27.9529 61.81 27.3863 62.04 26.9863 62.5C26.5863 62.9533 26.3863 63.61 26.3863 64.47C26.3863 65.33 26.5863 65.99 26.9863 66.45C27.3863 66.91 27.9529 67.14 28.6863 67.14C29.0663 67.14 29.4163 67.08 29.7363 66.96C30.0563 66.84 30.3696 66.65 30.6763 66.39L31.0463 67.23C30.7663 67.51 30.4196 67.7267 30.0063 67.88C29.5929 68.0267 29.1429 68.1 28.6563 68.1ZM32.3003 68V60.95H33.3303V64.1H33.2703C33.417 63.7467 33.647 63.4733 33.9603 63.28C34.2737 63.0867 34.6303 62.99 35.0303 62.99C35.4303 62.99 35.7603 63.0633 36.0203 63.21C36.287 63.3567 36.487 63.58 36.6203 63.88C36.7537 64.1733 36.8203 64.5433 36.8203 64.99V68H35.7603V65.05C35.7603 64.7833 35.7237 64.5633 35.6503 64.39C35.5837 64.21 35.4737 64.0767 35.3203 63.99C35.1737 63.8967 34.9803 63.85 34.7403 63.85C34.467 63.85 34.227 63.91 34.0203 64.03C33.8137 64.15 33.6503 64.3167 33.5303 64.53C33.417 64.7367 33.3603 64.9767 33.3603 65.25V68H32.3003ZM39.9655 68.09C39.6188 68.09 39.3055 68.0233 39.0255 67.89C38.7455 67.7567 38.5255 67.5767 38.3655 67.35C38.2121 67.1167 38.1355 66.8567 38.1355 66.57C38.1355 66.2033 38.2321 65.9133 38.4255 65.7C38.6255 65.4867 38.9421 65.3333 39.3755 65.24C39.8088 65.14 40.3821 65.09 41.0955 65.09H41.6755V65.75H41.1255C40.7655 65.75 40.4621 65.7633 40.2155 65.79C39.9688 65.81 39.7688 65.85 39.6155 65.91C39.4621 65.97 39.3488 66.05 39.2755 66.15C39.2088 66.2433 39.1755 66.3633 39.1755 66.51C39.1755 66.7633 39.2655 66.9633 39.4455 67.11C39.6321 67.25 39.8755 67.32 40.1755 67.32C40.4355 67.32 40.6655 67.2633 40.8655 67.15C41.0655 67.03 41.2255 66.87 41.3455 66.67C41.4655 66.4633 41.5255 66.2333 41.5255 65.98V64.85C41.5255 64.4767 41.4321 64.21 41.2455 64.05C41.0655 63.89 40.7821 63.81 40.3955 63.81C40.1088 63.81 39.8221 63.85 39.5355 63.93C39.2555 64.01 38.9621 64.14 38.6555 64.32L38.3355 63.58C38.5288 63.4533 38.7421 63.3467 38.9755 63.26C39.2155 63.1733 39.4621 63.1067 39.7155 63.06C39.9755 63.0133 40.2288 62.99 40.4755 62.99C40.9221 62.99 41.2988 63.06 41.6055 63.2C41.9121 63.34 42.1455 63.5533 42.3055 63.84C42.4655 64.1267 42.5455 64.5 42.5455 64.96V68H41.5955V66.93H41.6355C41.5621 67.1567 41.4488 67.36 41.2955 67.54C41.1421 67.7133 40.9521 67.85 40.7255 67.95C40.5055 68.0433 40.2521 68.09 39.9655 68.09ZM44.0679 69.8V63.08H45.0679V64.15H45.0179C45.1446 63.79 45.3646 63.5067 45.6779 63.3C45.9912 63.0933 46.3612 62.99 46.7879 62.99C47.2279 62.99 47.6146 63.0967 47.9479 63.31C48.2812 63.5167 48.5379 63.81 48.7179 64.19C48.8979 64.57 48.9879 65.02 48.9879 65.54C48.9879 66.0467 48.8979 66.4933 48.7179 66.88C48.5379 67.2667 48.2846 67.5667 47.9579 67.78C47.6312 67.9867 47.2412 68.09 46.7879 68.09C46.3679 68.09 46.0046 67.99 45.6979 67.79C45.3979 67.5833 45.1879 67.3133 45.0679 66.98H45.1279V69.8H44.0679ZM46.5179 67.27C46.9512 67.27 47.2946 67.12 47.5479 66.82C47.8079 66.5133 47.9379 66.0833 47.9379 65.53C47.9379 64.9833 47.8112 64.5633 47.5579 64.27C47.3046 63.97 46.9579 63.82 46.5179 63.82C46.0846 63.82 45.7412 63.97 45.4879 64.27C45.2346 64.5633 45.1079 64.9833 45.1079 65.53C45.1079 66.0833 45.2346 66.5133 45.4879 66.82C45.7479 67.12 46.0912 67.27 46.5179 67.27ZM52.3507 68.09C51.724 68.09 51.254 67.93 50.9407 67.61C50.634 67.29 50.4807 66.8267 50.4807 66.22V63.91H49.5207V63.08H50.5107V61.62H51.5407V63.08H53.1607V63.91H51.5407V66.15C51.5407 66.5033 51.6174 66.77 51.7707 66.95C51.9307 67.1233 52.1774 67.21 52.5107 67.21C52.6307 67.21 52.7474 67.1967 52.8607 67.17C52.974 67.1433 53.0874 67.11 53.2007 67.07L53.3607 67.87C53.2407 67.9433 53.0874 67.9967 52.9007 68.03C52.714 68.07 52.5307 68.09 52.3507 68.09ZM56.5263 68.09C55.9729 68.09 55.4963 67.99 55.0963 67.79C54.6963 67.5833 54.3896 67.29 54.1763 66.91C53.9629 66.5233 53.8563 66.0667 53.8563 65.54C53.8563 65.04 53.9563 64.6 54.1563 64.22C54.3629 63.8333 54.6496 63.5333 55.0163 63.32C55.3896 63.1 55.8196 62.99 56.3063 62.99C56.7796 62.99 57.1829 63.09 57.5163 63.29C57.8496 63.49 58.1063 63.7767 58.2863 64.15C58.4663 64.5167 58.5563 64.9567 58.5563 65.47V65.81H54.6763V65.14H57.8363L57.6663 65.31C57.6663 64.8033 57.5496 64.4167 57.3163 64.15C57.0896 63.8833 56.7629 63.75 56.3363 63.75C56.0296 63.75 55.7663 63.82 55.5463 63.96C55.3263 64.0933 55.1563 64.2867 55.0363 64.54C54.9163 64.7867 54.8563 65.0833 54.8563 65.43V65.52C54.8563 65.9067 54.9196 66.23 55.0463 66.49C55.1796 66.75 55.3729 66.9433 55.6263 67.07C55.8796 67.1967 56.1863 67.26 56.5463 67.26C56.8196 67.26 57.0929 67.2233 57.3663 67.15C57.6463 67.07 57.9029 66.9333 58.1363 66.74L58.4663 67.47C58.2196 67.67 57.9196 67.8233 57.5663 67.93C57.2196 68.0367 56.8729 68.09 56.5263 68.09ZM59.7906 68V63.08H60.7806V64.25H60.7306C60.8439 63.87 61.0406 63.5733 61.3206 63.36C61.6072 63.1467 61.9739 63.0233 62.4206 62.99L62.8306 62.97L62.9106 63.89L62.2106 63.96C61.7772 64 61.4439 64.14 61.2106 64.38C60.9772 64.62 60.8606 64.9367 60.8606 65.33V68H59.7906ZM69.0479 68.09C68.4746 68.09 67.9879 67.9533 67.5879 67.68C67.1879 67.4067 66.8812 67.0133 66.6679 66.5C66.4612 65.98 66.3579 65.3533 66.3579 64.62C66.3579 63.8133 66.4746 63.1333 66.7079 62.58C66.9412 62.02 67.2779 61.5933 67.7179 61.3C68.1579 61.0067 68.6846 60.86 69.2979 60.86C69.5512 60.86 69.8012 60.8933 70.0479 60.96C70.2946 61.02 70.5246 61.11 70.7379 61.23C70.9579 61.35 71.1546 61.5 71.3279 61.68L70.9579 62.48C70.7112 62.2333 70.4446 62.0533 70.1579 61.94C69.8779 61.8267 69.5879 61.77 69.2879 61.77C68.9746 61.77 68.6979 61.8267 68.4579 61.94C68.2179 62.0533 68.0146 62.2233 67.8479 62.45C67.6879 62.67 67.5646 62.9467 67.4779 63.28C67.3912 63.6133 67.3479 64 67.3479 64.44V65.13H67.2979C67.3579 64.7967 67.4746 64.51 67.6479 64.27C67.8212 64.03 68.0412 63.8467 68.3079 63.72C68.5812 63.5933 68.8812 63.53 69.2079 63.53C69.6212 63.53 69.9879 63.6267 70.3079 63.82C70.6279 64.0067 70.8779 64.27 71.0579 64.61C71.2446 64.9433 71.3379 65.33 71.3379 65.77C71.3379 66.2167 71.2379 66.6167 71.0379 66.97C70.8446 67.3233 70.5746 67.6 70.2279 67.8C69.8879 67.9933 69.4946 68.09 69.0479 68.09ZM68.9879 67.22C69.2546 67.22 69.4912 67.1633 69.6979 67.05C69.9046 66.93 70.0646 66.7633 70.1779 66.55C70.2912 66.3367 70.3479 66.0867 70.3479 65.8C70.3479 65.52 70.2912 65.2767 70.1779 65.07C70.0646 64.8567 69.9046 64.6933 69.6979 64.58C69.4912 64.46 69.2546 64.4 68.9879 64.4C68.7146 64.4 68.4746 64.46 68.2679 64.58C68.0612 64.6933 67.8979 64.8567 67.7779 65.07C67.6646 65.2833 67.6079 65.5267 67.6079 65.8C67.6079 66.0867 67.6646 66.3367 67.7779 66.55C67.8979 66.7633 68.0612 66.93 68.2679 67.05C68.4746 67.1633 68.7146 67.22 68.9879 67.22Z" fill="#667085"/>
<defs>
<filter id="filter0_d_8310_938" x="0" y="0" width="96" height="85.8462" filterUnits="userSpaceOnUse" color-interpolation-filters="sRGB">
<feFlood flood-opacity="0" result="BackgroundImageFix"/>
<feColorMatrix in="SourceAlpha" type="matrix" values="0 0 0 0 0 0 0 0 0 0 0 0 0 0 0 0 0 0 127 0" result="hardAlpha"/>
<feOffset dy="4"/>
<feGaussianBlur stdDeviation="2"/>
<feComposite in2="hardAlpha" operator="out"/>
<feColorMatrix type="matrix" values="0 0 0 0 0 0 0 0 0 0 0 0 0 0 0 0 0 0 0.25 0"/>
<feBlend mode="normal" in2="BackgroundImageFix" result="effect1_dropShadow_8310_938"/>
<feBlend mode="normal" in="SourceGraphic" in2="effect1_dropShadow_8310_938" result="shape"/>
</filter>
</defs>
</svg>
