<svg width="102" height="92" viewBox="0 0 102 92" fill="none" xmlns="http://www.w3.org/2000/svg">
<g filter="url(#filter0_d_8310_900)">
<path d="M5.49766 45.8797C4.67727 44.4665 4.2671 43.7594 4.10655 43.0082C3.96448 42.3433 3.96448 41.6565 4.10655 40.9916C4.2671 40.2404 4.67727 39.5333 5.49766 38.1201L25.371 3.87978C26.1914 2.46638 26.6016 1.75968 27.1754 1.2457C27.6832 0.790942 28.2813 0.447387 28.9311 0.237394C29.6655 -2.168e-07 30.4859 0 32.1266 0H71.8732C73.5143 0 74.3343 -2.168e-07 75.069 0.237394C75.7185 0.447387 76.3167 0.790942 76.8247 1.2457C77.3985 1.75968 77.8085 2.46638 78.6291 3.87978L98.5023 38.1201C99.3228 39.5333 99.7328 40.2404 99.8932 40.9916C100.036 41.6565 100.036 42.3433 99.8932 43.0082C99.7328 43.7594 99.3228 44.4665 98.5023 45.8797L78.6291 80.1202C77.8085 81.5334 77.3985 82.24 76.8247 82.7541C76.3167 83.209 75.7185 83.5524 75.069 83.7624C74.3343 84 73.5143 84 71.8732 84H32.1266C30.4859 84 29.6655 84 28.9311 83.7624C28.2813 83.5524 27.6832 83.209 27.1754 82.7541C26.6016 82.24 26.1914 81.5334 25.371 80.1202L5.49766 45.8797Z" fill="white"/>
</g>
<g clip-path="url(#clip0_8310_900)">
<path d="M56.2525 31.2959L56.5876 30.6493C56.694 30.4416 56.7931 30.2375 56.8862 30.0293C57.0689 29.6147 57.2182 29.1937 57.3123 28.7777C57.5036 27.938 57.404 27.1678 56.8935 26.5975C56.3831 26.0157 55.5402 25.6253 54.669 25.3532C52.8142 24.8194 50.9176 24.2254 49.0825 23.5287C48.6218 23.3538 48.1634 23.1721 47.7067 22.9785C47.257 22.7895 46.7694 22.5685 46.3232 22.2694C45.8822 21.9712 45.4197 21.574 45.1809 20.9649C45.0626 20.6654 45.0315 20.3266 45.0713 20.0188C45.1115 19.7102 45.2119 19.4293 45.3366 19.1791C45.596 18.6663 45.9142 18.2965 46.2009 17.8997L47.0936 16.7354L48.8977 14.4313L51.9692 10.5671L49.6277 10.5C49.6277 10.5 44.2941 15.4048 41.9134 18.5001C39.8436 21.1904 40.9741 23.5675 44.7183 25.1664C47.8784 26.5166 50.8363 27.5617 50.8363 27.5617C51.3459 27.8256 51.7084 28.2882 51.8289 28.8279C51.9495 29.3681 51.8162 29.9302 51.4632 30.3689L43.3156 40.5H51.4445L54.9019 33.8866L56.2525 31.2959Z" fill="#F2BB41"/>
<path d="M64.0727 25.7944C62.938 23.8963 60.9957 22.5576 58.7455 22.1224L50.7737 20.4417C50.4413 20.3778 50.1619 20.1668 50.0208 19.8737C49.8797 19.581 49.8948 19.2417 50.0605 18.9609L55.3599 10.664L52.7787 10.5901L49.5154 14.9068L47.7721 17.2482L46.9151 18.4249C46.6393 18.8208 46.3352 19.2121 46.1676 19.5783C45.9891 19.9568 45.9443 20.3175 46.0731 20.617C46.1973 20.9239 46.5009 21.2092 46.8671 21.4385C47.2379 21.6732 47.6457 21.8498 48.0977 22.027C48.5424 22.2028 48.9936 22.3695 49.4479 22.5293C51.2734 23.1708 53.1121 23.6986 55.0143 24.1968C55.9896 24.4872 57.022 24.8762 57.8443 25.7438C58.2452 26.178 58.5443 26.7483 58.6579 27.3386C58.7748 27.9295 58.7365 28.5112 58.6342 29.0491C58.5265 29.5865 58.358 30.0915 58.1603 30.5727C58.0603 30.812 57.9525 31.049 57.842 31.2773L57.5206 31.9361L56.2325 34.5611L53.3097 40.5001H61.5495L64.6662 32.0247C65.4238 29.9636 65.2073 27.6924 64.0727 25.7944Z" fill="#F2BB41"/>
</g>
<path d="M21.6267 53.608C21.0267 53.608 20.4827 53.508 19.9947 53.308C19.5067 53.108 19.0867 52.816 18.7347 52.432C18.3907 52.048 18.1267 51.592 17.9427 51.064C17.7587 50.528 17.6667 49.928 17.6667 49.264C17.6667 48.6 17.7587 48.004 17.9427 47.476C18.1267 46.94 18.3907 46.484 18.7347 46.108C19.0787 45.724 19.4947 45.432 19.9827 45.232C20.4707 45.032 21.0187 44.932 21.6267 44.932C22.2267 44.932 22.7707 45.032 23.2587 45.232C23.7467 45.432 24.1627 45.72 24.5067 46.096C24.8587 46.472 25.1267 46.928 25.3107 47.464C25.4947 47.992 25.5867 48.588 25.5867 49.252C25.5867 49.916 25.4947 50.516 25.3107 51.052C25.1267 51.588 24.8587 52.048 24.5067 52.432C24.1627 52.816 23.7467 53.108 23.2587 53.308C22.7707 53.508 22.2267 53.608 21.6267 53.608ZM21.6267 52.528C22.1867 52.528 22.6627 52.4 23.0547 52.144C23.4547 51.888 23.7587 51.516 23.9667 51.028C24.1827 50.54 24.2907 49.952 24.2907 49.264C24.2907 48.576 24.1867 47.988 23.9787 47.5C23.7707 47.012 23.4667 46.644 23.0667 46.396C22.6747 46.14 22.1947 46.012 21.6267 46.012C21.0667 46.012 20.5867 46.14 20.1867 46.396C19.7947 46.644 19.4907 47.012 19.2747 47.5C19.0667 47.988 18.9627 48.576 18.9627 49.264C18.9627 49.944 19.0667 50.532 19.2747 51.028C19.4907 51.516 19.7947 51.888 20.1867 52.144C20.5867 52.4 21.0667 52.528 21.6267 52.528ZM27.1274 53.5V47.644H28.3034V48.892H28.1714C28.3474 48.444 28.6234 48.108 28.9994 47.884C29.3754 47.652 29.8074 47.536 30.2954 47.536C30.7594 47.536 31.1434 47.624 31.4474 47.8C31.7594 47.968 31.9914 48.228 32.1434 48.58C32.2954 48.924 32.3714 49.36 32.3714 49.888V53.5H31.1594V49.96C31.1594 49.624 31.1154 49.352 31.0274 49.144C30.9394 48.928 30.8074 48.768 30.6314 48.664C30.4554 48.56 30.2274 48.508 29.9474 48.508C29.6274 48.508 29.3434 48.576 29.0954 48.712C28.8554 48.848 28.6674 49.044 28.5314 49.3C28.4034 49.556 28.3394 49.852 28.3394 50.188V53.5H27.1274ZM39.6898 53.608C38.9618 53.608 38.4138 53.42 38.0458 53.044C37.6858 52.668 37.5058 52.124 37.5058 51.412V48.58H36.3658V47.644H37.5058V45.88H38.7178V47.644H40.5298V48.58H38.7178V51.316C38.7178 51.74 38.8058 52.06 38.9818 52.276C39.1658 52.492 39.4618 52.6 39.8698 52.6C39.9898 52.6 40.1098 52.584 40.2298 52.552C40.3578 52.52 40.4818 52.488 40.6018 52.456L40.7938 53.368C40.6738 53.44 40.5058 53.496 40.2898 53.536C40.0818 53.584 39.8818 53.608 39.6898 53.608ZM41.5766 53.5V45.04H42.7886V48.892H42.6206C42.7966 48.444 43.0726 48.108 43.4486 47.884C43.8246 47.652 44.2566 47.536 44.7446 47.536C45.2086 47.536 45.5926 47.624 45.8966 47.8C46.2086 47.968 46.4406 48.228 46.5926 48.58C46.7446 48.924 46.8206 49.36 46.8206 49.888V53.5H45.6086V49.96C45.6086 49.624 45.5646 49.352 45.4766 49.144C45.3886 48.928 45.2566 48.768 45.0806 48.664C44.9046 48.56 44.6766 48.508 44.3966 48.508C44.0766 48.508 43.7926 48.576 43.5446 48.712C43.3046 48.848 43.1166 49.044 42.9806 49.3C42.8526 49.556 42.7886 49.852 42.7886 50.188V53.5H41.5766ZM51.2387 53.608C50.5987 53.608 50.0467 53.488 49.5827 53.248C49.1267 53 48.7707 52.652 48.5147 52.204C48.2667 51.748 48.1427 51.208 48.1427 50.584C48.1427 49.976 48.2667 49.444 48.5147 48.988C48.7627 48.532 49.1027 48.176 49.5347 47.92C49.9667 47.664 50.4587 47.536 51.0107 47.536C51.5547 47.536 52.0187 47.656 52.4027 47.896C52.7947 48.128 53.0947 48.46 53.3027 48.892C53.5107 49.324 53.6147 49.84 53.6147 50.44V50.848H49.1027V50.104H52.7987L52.5947 50.272C52.5947 49.672 52.4627 49.208 52.1987 48.88C51.9347 48.552 51.5547 48.388 51.0587 48.388C50.6827 48.388 50.3627 48.476 50.0987 48.652C49.8427 48.828 49.6467 49.072 49.5107 49.384C49.3747 49.696 49.3067 50.06 49.3067 50.476V50.548C49.3067 51.012 49.3787 51.404 49.5227 51.724C49.6747 52.036 49.8947 52.272 50.1827 52.432C50.4707 52.592 50.8267 52.672 51.2507 52.672C51.5867 52.672 51.9147 52.62 52.2347 52.516C52.5627 52.404 52.8707 52.232 53.1587 52L53.5187 52.84C53.2547 53.08 52.9147 53.268 52.4987 53.404C52.0827 53.54 51.6627 53.608 51.2387 53.608ZM60.1403 53.608C59.8283 53.608 59.5243 53.58 59.2283 53.524C58.9323 53.468 58.6603 53.388 58.4123 53.284C58.1643 53.18 57.9443 53.052 57.7523 52.9L58.1003 52.084C58.3003 52.22 58.5123 52.34 58.7363 52.444C58.9603 52.54 59.1923 52.612 59.4323 52.66C59.6803 52.708 59.9203 52.732 60.1523 52.732C60.5763 52.732 60.8963 52.656 61.1123 52.504C61.3283 52.352 61.4363 52.148 61.4363 51.892C61.4363 51.684 61.3643 51.524 61.2203 51.412C61.0763 51.292 60.8603 51.2 60.5723 51.136L59.4323 50.908C58.9363 50.804 58.5603 50.62 58.3043 50.356C58.0483 50.092 57.9203 49.756 57.9203 49.348C57.9203 48.98 58.0203 48.66 58.2203 48.388C58.4203 48.116 58.7003 47.908 59.0603 47.764C59.4203 47.612 59.8363 47.536 60.3083 47.536C60.5803 47.536 60.8443 47.564 61.1003 47.62C61.3563 47.676 61.5963 47.756 61.8203 47.86C62.0523 47.964 62.2483 48.096 62.4083 48.256L62.0603 49.072C61.9083 48.936 61.7323 48.82 61.5323 48.724C61.3403 48.628 61.1403 48.556 60.9323 48.508C60.7243 48.452 60.5163 48.424 60.3083 48.424C59.8843 48.424 59.5643 48.504 59.3483 48.664C59.1403 48.816 59.0363 49.024 59.0363 49.288C59.0363 49.488 59.1003 49.652 59.2283 49.78C59.3563 49.908 59.5563 50 59.8283 50.056L60.9683 50.284C61.4883 50.388 61.8803 50.564 62.1443 50.812C62.4163 51.06 62.5523 51.396 62.5523 51.82C62.5523 52.188 62.4523 52.508 62.2523 52.78C62.0523 53.052 61.7683 53.26 61.4003 53.404C61.0403 53.54 60.6203 53.608 60.1403 53.608ZM66.3382 53.608C65.6102 53.608 65.0622 53.42 64.6942 53.044C64.3342 52.668 64.1542 52.124 64.1542 51.412V48.58H63.0142V47.644H64.1542V45.88H65.3662V47.644H67.1782V48.58H65.3662V51.316C65.3662 51.74 65.4542 52.06 65.6302 52.276C65.8142 52.492 66.1102 52.6 66.5182 52.6C66.6382 52.6 66.7582 52.584 66.8782 52.552C67.0062 52.52 67.1302 52.488 67.2502 52.456L67.4422 53.368C67.3222 53.44 67.1542 53.496 66.9382 53.536C66.7302 53.584 66.5302 53.608 66.3382 53.608ZM68.225 53.5V47.644H69.401V49.048H69.281C69.409 48.568 69.637 48.204 69.965 47.956C70.301 47.708 70.745 47.564 71.297 47.524L71.693 47.5L71.777 48.532L71.045 48.604C70.525 48.652 70.129 48.816 69.857 49.096C69.585 49.376 69.449 49.76 69.449 50.248V53.5H68.225ZM75.3676 53.608C74.7276 53.608 74.1756 53.488 73.7116 53.248C73.2556 53 72.8996 52.652 72.6436 52.204C72.3956 51.748 72.2716 51.208 72.2716 50.584C72.2716 49.976 72.3956 49.444 72.6436 48.988C72.8916 48.532 73.2316 48.176 73.6636 47.92C74.0956 47.664 74.5876 47.536 75.1396 47.536C75.6836 47.536 76.1476 47.656 76.5316 47.896C76.9236 48.128 77.2236 48.46 77.4316 48.892C77.6396 49.324 77.7436 49.84 77.7436 50.44V50.848H73.2316V50.104H76.9276L76.7236 50.272C76.7236 49.672 76.5916 49.208 76.3276 48.88C76.0636 48.552 75.6836 48.388 75.1876 48.388C74.8116 48.388 74.4916 48.476 74.2276 48.652C73.9716 48.828 73.7756 49.072 73.6396 49.384C73.5036 49.696 73.4356 50.06 73.4356 50.476V50.548C73.4356 51.012 73.5076 51.404 73.6516 51.724C73.8036 52.036 74.0236 52.272 74.3116 52.432C74.5996 52.592 74.9556 52.672 75.3796 52.672C75.7156 52.672 76.0436 52.62 76.3636 52.516C76.6916 52.404 76.9996 52.232 77.2876 52L77.6476 52.84C77.3836 53.08 77.0436 53.268 76.6276 53.404C76.2116 53.54 75.7916 53.608 75.3676 53.608ZM81.8129 53.608C81.1729 53.608 80.6209 53.488 80.1569 53.248C79.7009 53 79.3449 52.652 79.0889 52.204C78.8409 51.748 78.7169 51.208 78.7169 50.584C78.7169 49.976 78.8409 49.444 79.0889 48.988C79.3369 48.532 79.6769 48.176 80.1089 47.92C80.5409 47.664 81.0329 47.536 81.5849 47.536C82.1289 47.536 82.5929 47.656 82.9769 47.896C83.3689 48.128 83.6689 48.46 83.8769 48.892C84.0849 49.324 84.1889 49.84 84.1889 50.44V50.848H79.6769V50.104H83.3729L83.1689 50.272C83.1689 49.672 83.0369 49.208 82.7729 48.88C82.5089 48.552 82.1289 48.388 81.6329 48.388C81.2569 48.388 80.9369 48.476 80.6729 48.652C80.4169 48.828 80.2209 49.072 80.0849 49.384C79.9489 49.696 79.8809 50.06 79.8809 50.476V50.548C79.8809 51.012 79.9529 51.404 80.0969 51.724C80.2489 52.036 80.4689 52.272 80.7569 52.432C81.0449 52.592 81.4009 52.672 81.8249 52.672C82.1609 52.672 82.4889 52.62 82.8089 52.516C83.1369 52.404 83.4449 52.232 83.7329 52L84.0929 52.84C83.8289 53.08 83.4889 53.268 83.0729 53.404C82.6569 53.54 82.2369 53.608 81.8129 53.608ZM87.9945 53.608C87.2665 53.608 86.7185 53.42 86.3505 53.044C85.9905 52.668 85.8105 52.124 85.8105 51.412V48.58H84.6705V47.644H85.8105V45.88H87.0225V47.644H88.8345V48.58H87.0225V51.316C87.0225 51.74 87.1105 52.06 87.2865 52.276C87.4705 52.492 87.7665 52.6 88.1745 52.6C88.2945 52.6 88.4145 52.584 88.5345 52.552C88.6625 52.52 88.7865 52.488 88.9065 52.456L89.0985 53.368C88.9785 53.44 88.8105 53.496 88.5945 53.536C88.3865 53.584 88.1865 53.608 87.9945 53.608Z" fill="black"/>
<path d="M33.4511 68.6C32.7511 68.6 32.1478 68.4533 31.6411 68.16C31.1345 67.8667 30.7445 67.45 30.4711 66.91C30.1978 66.3633 30.0611 65.7167 30.0611 64.97C30.0611 64.2233 30.1978 63.58 30.4711 63.04C30.7445 62.5 31.1345 62.0867 31.6411 61.8C32.1478 61.5067 32.7511 61.36 33.4511 61.36C33.9378 61.36 34.3878 61.4333 34.8011 61.58C35.2145 61.7267 35.5611 61.94 35.8411 62.22L35.4711 63.06C35.1645 62.8 34.8511 62.61 34.5311 62.49C34.2111 62.37 33.8611 62.31 33.4811 62.31C32.7478 62.31 32.1811 62.54 31.7811 63C31.3811 63.4533 31.1811 64.11 31.1811 64.97C31.1811 65.83 31.3811 66.49 31.7811 66.95C32.1811 67.41 32.7478 67.64 33.4811 67.64C33.8611 67.64 34.2111 67.58 34.5311 67.46C34.8511 67.34 35.1645 67.15 35.4711 66.89L35.8411 67.73C35.5611 68.01 35.2145 68.2267 34.8011 68.38C34.3878 68.5267 33.9378 68.6 33.4511 68.6ZM37.0952 68.5V61.45H38.1252V64.6H38.0652C38.2119 64.2467 38.4419 63.9733 38.7552 63.78C39.0685 63.5867 39.4252 63.49 39.8252 63.49C40.2252 63.49 40.5552 63.5633 40.8152 63.71C41.0819 63.8567 41.2819 64.08 41.4152 64.38C41.5485 64.6733 41.6152 65.0433 41.6152 65.49V68.5H40.5552V65.55C40.5552 65.2833 40.5185 65.0633 40.4452 64.89C40.3785 64.71 40.2685 64.5767 40.1152 64.49C39.9685 64.3967 39.7752 64.35 39.5352 64.35C39.2619 64.35 39.0219 64.41 38.8152 64.53C38.6085 64.65 38.4452 64.8167 38.3252 65.03C38.2119 65.2367 38.1552 65.4767 38.1552 65.75V68.5H37.0952ZM44.7604 68.59C44.4137 68.59 44.1004 68.5233 43.8204 68.39C43.5404 68.2567 43.3204 68.0767 43.1604 67.85C43.007 67.6167 42.9304 67.3567 42.9304 67.07C42.9304 66.7033 43.027 66.4133 43.2204 66.2C43.4204 65.9867 43.737 65.8333 44.1704 65.74C44.6037 65.64 45.177 65.59 45.8904 65.59H46.4704V66.25H45.9204C45.5604 66.25 45.257 66.2633 45.0104 66.29C44.7637 66.31 44.5637 66.35 44.4104 66.41C44.257 66.47 44.1437 66.55 44.0704 66.65C44.0037 66.7433 43.9704 66.8633 43.9704 67.01C43.9704 67.2633 44.0604 67.4633 44.2404 67.61C44.427 67.75 44.6704 67.82 44.9704 67.82C45.2304 67.82 45.4604 67.7633 45.6604 67.65C45.8604 67.53 46.0204 67.37 46.1404 67.17C46.2604 66.9633 46.3204 66.7333 46.3204 66.48V65.35C46.3204 64.9767 46.227 64.71 46.0404 64.55C45.8604 64.39 45.577 64.31 45.1904 64.31C44.9037 64.31 44.617 64.35 44.3304 64.43C44.0504 64.51 43.757 64.64 43.4504 64.82L43.1304 64.08C43.3237 63.9533 43.537 63.8467 43.7704 63.76C44.0104 63.6733 44.257 63.6067 44.5104 63.56C44.7704 63.5133 45.0237 63.49 45.2704 63.49C45.717 63.49 46.0937 63.56 46.4004 63.7C46.707 63.84 46.9404 64.0533 47.1004 64.34C47.2604 64.6267 47.3404 65 47.3404 65.46V68.5H46.3904V67.43H46.4304C46.357 67.6567 46.2437 67.86 46.0904 68.04C45.937 68.2133 45.747 68.35 45.5204 68.45C45.3004 68.5433 45.047 68.59 44.7604 68.59ZM48.8628 70.3V63.58H49.8628V64.65H49.8128C49.9394 64.29 50.1594 64.0067 50.4728 63.8C50.7861 63.5933 51.1561 63.49 51.5828 63.49C52.0228 63.49 52.4094 63.5967 52.7428 63.81C53.0761 64.0167 53.3328 64.31 53.5128 64.69C53.6928 65.07 53.7828 65.52 53.7828 66.04C53.7828 66.5467 53.6928 66.9933 53.5128 67.38C53.3328 67.7667 53.0794 68.0667 52.7528 68.28C52.4261 68.4867 52.0361 68.59 51.5828 68.59C51.1628 68.59 50.7994 68.49 50.4928 68.29C50.1928 68.0833 49.9828 67.8133 49.8628 67.48H49.9228V70.3H48.8628ZM51.3128 67.77C51.7461 67.77 52.0894 67.62 52.3428 67.32C52.6028 67.0133 52.7328 66.5833 52.7328 66.03C52.7328 65.4833 52.6061 65.0633 52.3528 64.77C52.0994 64.47 51.7528 64.32 51.3128 64.32C50.8794 64.32 50.5361 64.47 50.2828 64.77C50.0294 65.0633 49.9028 65.4833 49.9028 66.03C49.9028 66.5833 50.0294 67.0133 50.2828 67.32C50.5428 67.62 50.8861 67.77 51.3128 67.77ZM57.1456 68.59C56.5189 68.59 56.0489 68.43 55.7356 68.11C55.4289 67.79 55.2756 67.3267 55.2756 66.72V64.41H54.3156V63.58H55.3056V62.12H56.3356V63.58H57.9556V64.41H56.3356V66.65C56.3356 67.0033 56.4123 67.27 56.5656 67.45C56.7256 67.6233 56.9723 67.71 57.3056 67.71C57.4256 67.71 57.5423 67.6967 57.6556 67.67C57.7689 67.6433 57.8823 67.61 57.9956 67.57L58.1556 68.37C58.0356 68.4433 57.8823 68.4967 57.6956 68.53C57.5089 68.57 57.3256 68.59 57.1456 68.59ZM61.3211 68.59C60.7678 68.59 60.2911 68.49 59.8911 68.29C59.4911 68.0833 59.1845 67.79 58.9711 67.41C58.7578 67.0233 58.6511 66.5667 58.6511 66.04C58.6511 65.54 58.7511 65.1 58.9511 64.72C59.1578 64.3333 59.4445 64.0333 59.8111 63.82C60.1845 63.6 60.6145 63.49 61.1011 63.49C61.5745 63.49 61.9778 63.59 62.3111 63.79C62.6445 63.99 62.9011 64.2767 63.0811 64.65C63.2611 65.0167 63.3511 65.4567 63.3511 65.97V66.31H59.4711V65.64H62.6311L62.4611 65.81C62.4611 65.3033 62.3445 64.9167 62.1111 64.65C61.8845 64.3833 61.5578 64.25 61.1311 64.25C60.8245 64.25 60.5611 64.32 60.3411 64.46C60.1211 64.5933 59.9511 64.7867 59.8311 65.04C59.7111 65.2867 59.6511 65.5833 59.6511 65.93V66.02C59.6511 66.4067 59.7145 66.73 59.8411 66.99C59.9745 67.25 60.1678 67.4433 60.4211 67.57C60.6745 67.6967 60.9811 67.76 61.3411 67.76C61.6145 67.76 61.8878 67.7233 62.1611 67.65C62.4411 67.57 62.6978 67.4333 62.9311 67.24L63.2611 67.97C63.0145 68.17 62.7145 68.3233 62.3611 68.43C62.0145 68.5367 61.6678 68.59 61.3211 68.59ZM64.5854 68.5V63.58H65.5754V64.75H65.5254C65.6388 64.37 65.8354 64.0733 66.1154 63.86C66.4021 63.6467 66.7688 63.5233 67.2154 63.49L67.6254 63.47L67.7054 64.39L67.0054 64.46C66.5721 64.5 66.2388 64.64 66.0054 64.88C65.7721 65.12 65.6554 65.4367 65.6554 65.83V68.5H64.5854ZM73.4828 68.59C73.1694 68.59 72.8628 68.56 72.5628 68.5C72.2694 68.44 71.9928 68.35 71.7328 68.23C71.4794 68.1033 71.2528 67.95 71.0528 67.77L71.4228 66.95C71.7428 67.21 72.0694 67.3967 72.4028 67.51C72.7428 67.6233 73.0928 67.68 73.4528 67.68C73.7528 67.68 74.0128 67.64 74.2328 67.56C74.4528 67.4733 74.6228 67.3433 74.7428 67.17C74.8628 66.99 74.9228 66.77 74.9228 66.51C74.9228 66.1367 74.7961 65.8567 74.5428 65.67C74.2961 65.4767 73.9328 65.38 73.4528 65.38H72.3528V64.49H73.3328C73.6128 64.49 73.8561 64.4433 74.0628 64.35C74.2761 64.2567 74.4394 64.1233 74.5528 63.95C74.6728 63.77 74.7328 63.5533 74.7328 63.3C74.7328 62.96 74.6161 62.7033 74.3828 62.53C74.1561 62.3567 73.8428 62.27 73.4428 62.27C73.0894 62.27 72.7528 62.33 72.4328 62.45C72.1194 62.57 71.8228 62.7633 71.5428 63.03L71.1728 62.22C71.4528 61.94 71.7994 61.7267 72.2128 61.58C72.6328 61.4333 73.0661 61.36 73.5128 61.36C73.9794 61.36 74.3794 61.4333 74.7128 61.58C75.0528 61.72 75.3128 61.9267 75.4928 62.2C75.6728 62.4733 75.7628 62.8033 75.7628 63.19C75.7628 63.6033 75.6494 63.9633 75.4228 64.27C75.1961 64.57 74.8828 64.7767 74.4828 64.89V64.83C74.7828 64.89 75.0428 64.9967 75.2628 65.15C75.4828 65.3033 75.6528 65.5 75.7728 65.74C75.8928 65.98 75.9528 66.26 75.9528 66.58C75.9528 67 75.8494 67.36 75.6428 67.66C75.4428 67.96 75.1594 68.19 74.7928 68.35C74.4261 68.51 73.9894 68.59 73.4828 68.59Z" fill="#667085"/>
<defs>
<filter id="filter0_d_8310_900" x="0" y="0" width="104" height="92" filterUnits="userSpaceOnUse" color-interpolation-filters="sRGB">
<feFlood flood-opacity="0" result="BackgroundImageFix"/>
<feColorMatrix in="SourceAlpha" type="matrix" values="0 0 0 0 0 0 0 0 0 0 0 0 0 0 0 0 0 0 127 0" result="hardAlpha"/>
<feOffset dy="4"/>
<feGaussianBlur stdDeviation="2"/>
<feComposite in2="hardAlpha" operator="out"/>
<feColorMatrix type="matrix" values="0 0 0 0 0 0 0 0 0 0 0 0 0 0 0 0 0 0 0.25 0"/>
<feBlend mode="normal" in2="BackgroundImageFix" result="effect1_dropShadow_8310_900"/>
<feBlend mode="normal" in="SourceGraphic" in2="effect1_dropShadow_8310_900" result="shape"/>
</filter>
<clipPath id="clip0_8310_900">
<rect width="30" height="30" fill="white" transform="translate(38 10.5)"/>
</clipPath>
</defs>
</svg>
