<svg width="96" height="87" viewBox="0 0 96 87" fill="none" xmlns="http://www.w3.org/2000/svg">
<g filter="url(#filter0_d_8339_572)">
<path d="M5.37285 43.0185C4.62083 41.7089 4.24484 41.0536 4.09767 40.3574C3.96744 39.7412 3.96744 39.1048 4.09767 38.4886C4.24484 37.7924 4.62083 37.1371 5.37285 35.8274L23.5901 4.09555C24.3421 2.78569 24.7181 2.13076 25.2442 1.65444C25.7096 1.233 26.2579 0.914612 26.8535 0.720002C27.5267 0.5 28.2787 0.5 29.7827 0.5H66.2171C67.7214 0.5 68.4731 0.5 69.1466 0.720002C69.7419 0.914612 70.2903 1.233 70.756 1.65444C71.282 2.13076 71.6578 2.78569 72.41 4.09555L90.6271 35.8274C91.3792 37.1371 91.7551 37.7924 91.9021 38.4886C92.0326 39.1048 92.0326 39.7412 91.9021 40.3574C91.7551 41.0536 91.3792 41.7089 90.6271 43.0185L72.41 74.7506C71.6578 76.0603 71.282 76.7151 70.756 77.1915C70.2903 77.6131 69.7419 77.9313 69.1466 78.1259C68.4731 78.3462 67.7214 78.3462 66.2171 78.3462H29.7827C28.2787 78.3462 27.5267 78.3462 26.8535 78.1259C26.2579 77.9313 25.7096 77.6131 25.2442 77.1915C24.7181 76.7151 24.3421 76.0603 23.5901 74.7506L5.37285 43.0185Z" fill="white"/>
</g>
<g clip-path="url(#clip0_8339_572)">
<path d="M55.4134 11.2344C54.6686 7.87425 53.9238 4.51412 53.1786 1.15405C51.921 1.15405 50.6635 1.15405 49.4061 1.15405C49.5858 4.51419 49.7658 7.87433 49.9456 11.2344H55.4134Z" fill="#F2BB41"/>
<path d="M50.2325 16.5984C50.4691 21.0143 50.7054 25.4301 50.9416 29.846C53.8072 29.846 56.6728 29.846 59.5384 29.846C58.5594 25.4301 57.5809 21.0143 56.6024 16.5984H50.2325Z" fill="#F2BB41"/>
<path d="M47.0039 1.15405C45.7464 1.15405 44.4888 1.15405 43.2315 1.15405C42.4866 4.51412 41.7422 7.87425 40.9974 11.2344H46.4649C46.6444 7.87425 46.824 4.51412 47.0039 1.15405Z" fill="#F2BB41"/>
<path d="M36.8717 29.846C39.7375 29.846 42.6029 29.846 45.4685 29.846C45.7056 25.4301 45.9419 21.0143 46.1778 16.5984H39.8087C38.83 21.0143 37.8512 25.4302 36.8717 29.846Z" fill="#F2BB41"/>
<path d="M62.8569 12.6272H33.5532C33.3609 12.6272 33.2051 12.7831 33.2051 12.9753V14.8575C33.2051 15.0497 33.3609 15.2056 33.5532 15.2056H35.4374V18.0247C35.4374 18.217 35.5932 18.3729 35.7855 18.3729H37.6658C37.8251 18.3729 37.964 18.2648 38.0031 18.1106L38.7417 15.2058H57.6684L58.4068 18.1106C58.4459 18.2649 58.585 18.3729 58.7443 18.3729H60.6243C60.8168 18.3729 60.9725 18.217 60.9725 18.0247V15.2056H62.8568C63.0491 15.2056 63.205 15.0497 63.205 14.8575V12.9753C63.2051 12.7831 63.0491 12.6272 62.8569 12.6272Z" fill="#F2BB41"/>
</g>
<path d="M13.0133 43.5V35.04H14.2613V38.688H19.0013V35.04H20.2373V43.5H19.0013V39.732H14.2613V43.5H13.0133ZM21.9725 36.288V35.028H23.3885V36.288H21.9725ZM22.0805 43.5V37.644H23.2925V43.5H22.0805ZM27.6505 45.768C27.1225 45.768 26.6305 45.704 26.1745 45.576C25.7185 45.448 25.3145 45.256 24.9625 45L25.3345 44.136C25.5665 44.288 25.8025 44.416 26.0425 44.52C26.2905 44.632 26.5385 44.712 26.7865 44.76C27.0425 44.808 27.3025 44.832 27.5665 44.832C28.1265 44.832 28.5465 44.688 28.8265 44.4C29.1065 44.12 29.2465 43.704 29.2465 43.152V41.928H29.3545C29.2345 42.368 28.9825 42.716 28.5985 42.972C28.2145 43.228 27.7705 43.356 27.2665 43.356C26.7385 43.356 26.2785 43.236 25.8865 42.996C25.4945 42.748 25.1905 42.408 24.9745 41.976C24.7585 41.536 24.6505 41.024 24.6505 40.44C24.6505 39.856 24.7585 39.348 24.9745 38.916C25.1905 38.484 25.4945 38.148 25.8865 37.908C26.2785 37.66 26.7385 37.536 27.2665 37.536C27.7785 37.536 28.2225 37.664 28.5985 37.92C28.9825 38.176 29.2305 38.524 29.3425 38.964H29.2465V37.644H30.4225V43.008C30.4225 43.616 30.3185 44.124 30.1105 44.532C29.9025 44.948 29.5905 45.256 29.1745 45.456C28.7665 45.664 28.2585 45.768 27.6505 45.768ZM27.5545 42.408C28.0745 42.408 28.4825 42.232 28.7785 41.88C29.0825 41.528 29.2345 41.048 29.2345 40.44C29.2345 39.84 29.0825 39.364 28.7785 39.012C28.4825 38.66 28.0745 38.484 27.5545 38.484C27.0425 38.484 26.6345 38.66 26.3305 39.012C26.0265 39.364 25.8745 39.84 25.8745 40.44C25.8745 41.048 26.0265 41.528 26.3305 41.88C26.6345 42.232 27.0425 42.408 27.5545 42.408ZM32.1235 43.5V35.04H33.3355V38.892H33.1675C33.3435 38.444 33.6195 38.108 33.9955 37.884C34.3715 37.652 34.8035 37.536 35.2915 37.536C35.7555 37.536 36.1395 37.624 36.4435 37.8C36.7555 37.968 36.9875 38.228 37.1395 38.58C37.2915 38.924 37.3675 39.36 37.3675 39.888V43.5H36.1555V39.96C36.1555 39.624 36.1115 39.352 36.0235 39.144C35.9355 38.928 35.8035 38.768 35.6275 38.664C35.4515 38.56 35.2235 38.508 34.9435 38.508C34.6235 38.508 34.3395 38.576 34.0915 38.712C33.8515 38.848 33.6635 39.044 33.5275 39.3C33.3995 39.556 33.3355 39.852 33.3355 40.188V43.5H32.1235ZM40.563 43.5L38.331 37.644H39.579L41.295 42.48H41.007L42.771 37.644H43.707L45.435 42.48H45.171L46.899 37.644H48.087L45.855 43.5H44.751L42.903 38.508H43.503L41.667 43.5H40.563ZM50.8822 43.608C50.4742 43.608 50.1062 43.528 49.7782 43.368C49.4582 43.208 49.2062 42.992 49.0222 42.72C48.8382 42.448 48.7462 42.14 48.7462 41.796C48.7462 41.364 48.8542 41.024 49.0702 40.776C49.2942 40.52 49.6582 40.34 50.1622 40.236C50.6742 40.124 51.3622 40.068 52.2262 40.068H52.7902V40.812H52.2382C51.8062 40.812 51.4422 40.828 51.1462 40.86C50.8502 40.892 50.6142 40.944 50.4382 41.016C50.2622 41.08 50.1342 41.172 50.0542 41.292C49.9822 41.412 49.9462 41.556 49.9462 41.724C49.9462 42.028 50.0502 42.276 50.2582 42.468C50.4662 42.652 50.7542 42.744 51.1222 42.744C51.4182 42.744 51.6782 42.676 51.9022 42.54C52.1262 42.396 52.3022 42.204 52.4302 41.964C52.5662 41.724 52.6342 41.448 52.6342 41.136V39.756C52.6342 39.3 52.5382 38.972 52.3462 38.772C52.1542 38.572 51.8382 38.472 51.3982 38.472C51.0622 38.472 50.7262 38.524 50.3902 38.628C50.0542 38.724 49.7102 38.88 49.3582 39.096L48.9862 38.244C49.1942 38.1 49.4342 37.976 49.7062 37.872C49.9782 37.768 50.2622 37.688 50.5582 37.632C50.8622 37.568 51.1542 37.536 51.4342 37.536C51.9702 37.536 52.4102 37.62 52.7542 37.788C53.1062 37.956 53.3662 38.212 53.5342 38.556C53.7022 38.9 53.7862 39.344 53.7862 39.888V43.5H52.6462V42.192H52.7542C52.6902 42.488 52.5702 42.744 52.3942 42.96C52.2262 43.168 52.0142 43.328 51.7582 43.44C51.5022 43.552 51.2102 43.608 50.8822 43.608ZM55.9969 45.66L57.1489 43.092V43.608L54.5929 37.644H55.8889L57.8569 42.504H57.5209L59.5129 37.644H60.7609L57.2689 45.66H55.9969ZM66.6556 43.608C66.2476 43.608 65.8796 43.528 65.5516 43.368C65.2316 43.208 64.9796 42.992 64.7956 42.72C64.6116 42.448 64.5196 42.14 64.5196 41.796C64.5196 41.364 64.6276 41.024 64.8436 40.776C65.0676 40.52 65.4316 40.34 65.9356 40.236C66.4476 40.124 67.1356 40.068 67.9996 40.068H68.5636V40.812H68.0116C67.5796 40.812 67.2156 40.828 66.9196 40.86C66.6236 40.892 66.3876 40.944 66.2116 41.016C66.0356 41.08 65.9076 41.172 65.8276 41.292C65.7556 41.412 65.7196 41.556 65.7196 41.724C65.7196 42.028 65.8236 42.276 66.0316 42.468C66.2396 42.652 66.5276 42.744 66.8956 42.744C67.1916 42.744 67.4516 42.676 67.6756 42.54C67.8996 42.396 68.0756 42.204 68.2036 41.964C68.3396 41.724 68.4076 41.448 68.4076 41.136V39.756C68.4076 39.3 68.3116 38.972 68.1196 38.772C67.9276 38.572 67.6116 38.472 67.1716 38.472C66.8356 38.472 66.4996 38.524 66.1636 38.628C65.8276 38.724 65.4836 38.88 65.1316 39.096L64.7596 38.244C64.9676 38.1 65.2076 37.976 65.4796 37.872C65.7516 37.768 66.0356 37.688 66.3316 37.632C66.6356 37.568 66.9276 37.536 67.2076 37.536C67.7436 37.536 68.1836 37.62 68.5276 37.788C68.8796 37.956 69.1396 38.212 69.3076 38.556C69.4756 38.9 69.5596 39.344 69.5596 39.888V43.5H68.4196V42.192H68.5276C68.4636 42.488 68.3436 42.744 68.1676 42.96C67.9996 43.168 67.7876 43.328 67.5316 43.44C67.2756 43.552 66.9836 43.608 66.6556 43.608ZM71.229 43.5V37.644H72.405V38.892H72.273C72.449 38.444 72.725 38.108 73.101 37.884C73.477 37.652 73.909 37.536 74.397 37.536C74.861 37.536 75.245 37.624 75.549 37.8C75.861 37.968 76.093 38.228 76.245 38.58C76.397 38.924 76.473 39.36 76.473 39.888V43.5H75.261V39.96C75.261 39.624 75.217 39.352 75.129 39.144C75.041 38.928 74.909 38.768 74.733 38.664C74.557 38.56 74.329 38.508 74.049 38.508C73.729 38.508 73.445 38.576 73.197 38.712C72.957 38.848 72.769 39.044 72.633 39.3C72.505 39.556 72.441 39.852 72.441 40.188V43.5H71.229ZM80.375 43.608C79.863 43.608 79.411 43.488 79.019 43.248C78.635 43 78.335 42.648 78.119 42.192C77.903 41.728 77.795 41.188 77.795 40.572C77.795 39.94 77.903 39.4 78.119 38.952C78.335 38.504 78.635 38.156 79.019 37.908C79.411 37.66 79.863 37.536 80.375 37.536C80.887 37.536 81.327 37.664 81.695 37.92C82.071 38.168 82.323 38.504 82.451 38.928H82.319V35.04H83.531V43.5H82.343V42.18H82.463C82.335 42.612 82.083 42.96 81.707 43.224C81.339 43.48 80.895 43.608 80.375 43.608ZM80.687 42.672C81.183 42.672 81.583 42.492 81.887 42.132C82.191 41.772 82.343 41.252 82.343 40.572C82.343 39.884 82.191 39.364 81.887 39.012C81.583 38.66 81.183 38.484 80.687 38.484C80.183 38.484 79.779 38.66 79.475 39.012C79.171 39.364 79.019 39.884 79.019 40.572C79.019 41.252 79.171 41.772 79.475 42.132C79.779 42.492 80.183 42.672 80.687 42.672ZM18.1918 59.608C17.5918 59.608 17.0718 59.484 16.6318 59.236C16.1998 58.98 15.8638 58.624 15.6238 58.168C15.3838 57.704 15.2638 57.16 15.2638 56.536C15.2638 55.92 15.3838 55.388 15.6238 54.94C15.8638 54.492 16.1998 54.148 16.6318 53.908C17.0718 53.66 17.5918 53.536 18.1918 53.536C18.5598 53.536 18.9238 53.6 19.2838 53.728C19.6438 53.848 19.9398 54.024 20.1718 54.256L19.7878 55.108C19.5718 54.9 19.3278 54.748 19.0558 54.652C18.7838 54.548 18.5278 54.496 18.2878 54.496C17.7198 54.496 17.2798 54.676 16.9678 55.036C16.6638 55.388 16.5118 55.892 16.5118 56.548C16.5118 57.204 16.6638 57.72 16.9678 58.096C17.2798 58.464 17.7198 58.648 18.2878 58.648C18.5278 58.648 18.7838 58.6 19.0558 58.504C19.3278 58.4 19.5718 58.244 19.7878 58.036L20.1718 58.9C19.9398 59.116 19.6398 59.288 19.2718 59.416C18.9118 59.544 18.5518 59.608 18.1918 59.608ZM23.6401 59.608C23.0481 59.608 22.5361 59.484 22.1041 59.236C21.6801 58.988 21.3481 58.636 21.1081 58.18C20.8681 57.724 20.7481 57.188 20.7481 56.572C20.7481 55.948 20.8681 55.412 21.1081 54.964C21.3481 54.508 21.6801 54.156 22.1041 53.908C22.5361 53.66 23.0481 53.536 23.6401 53.536C24.2241 53.536 24.7281 53.66 25.1521 53.908C25.5841 54.156 25.9201 54.508 26.1601 54.964C26.4001 55.42 26.5201 55.956 26.5201 56.572C26.5201 57.188 26.4001 57.724 26.1601 58.18C25.9201 58.636 25.5841 58.988 25.1521 59.236C24.7281 59.484 24.2241 59.608 23.6401 59.608ZM23.6281 58.672C24.1321 58.672 24.5361 58.492 24.8401 58.132C25.1441 57.772 25.2961 57.252 25.2961 56.572C25.2961 55.884 25.1441 55.364 24.8401 55.012C24.5361 54.66 24.1321 54.484 23.6281 54.484C23.1321 54.484 22.7321 54.66 22.4281 55.012C22.1241 55.364 21.9721 55.884 21.9721 56.572C21.9721 57.252 22.1241 57.772 22.4281 58.132C22.7321 58.492 23.1321 58.672 23.6281 58.672ZM29.9693 59.608C29.4973 59.608 29.1013 59.52 28.7813 59.344C28.4693 59.168 28.2333 58.908 28.0733 58.564C27.9213 58.212 27.8453 57.772 27.8453 57.244V53.644H29.0573V57.256C29.0573 57.568 29.0973 57.828 29.1773 58.036C29.2653 58.244 29.3973 58.396 29.5733 58.492C29.7573 58.588 29.9853 58.636 30.2573 58.636C30.5613 58.636 30.8293 58.568 31.0613 58.432C31.2933 58.296 31.4733 58.1 31.6013 57.844C31.7293 57.588 31.7933 57.292 31.7933 56.956V53.644H33.0053V59.5H31.8293V58.216H31.9853C31.8253 58.664 31.5693 59.008 31.2173 59.248C30.8653 59.488 30.4493 59.608 29.9693 59.608ZM34.7133 59.5V53.644H35.8893V54.892H35.7573C35.9333 54.444 36.2093 54.108 36.5853 53.884C36.9613 53.652 37.3933 53.536 37.8813 53.536C38.3453 53.536 38.7293 53.624 39.0333 53.8C39.3453 53.968 39.5773 54.228 39.7293 54.58C39.8813 54.924 39.9573 55.36 39.9573 55.888V59.5H38.7453V55.96C38.7453 55.624 38.7013 55.352 38.6133 55.144C38.5253 54.928 38.3933 54.768 38.2173 54.664C38.0413 54.56 37.8133 54.508 37.5333 54.508C37.2133 54.508 36.9293 54.576 36.6813 54.712C36.4413 54.848 36.2533 55.044 36.1173 55.3C35.9893 55.556 35.9253 55.852 35.9253 56.188V59.5H34.7133ZM44.1234 59.608C43.3954 59.608 42.8474 59.42 42.4794 59.044C42.1194 58.668 41.9394 58.124 41.9394 57.412V54.58H40.7994V53.644H41.9394V51.88H43.1514V53.644H44.9634V54.58H43.1514V57.316C43.1514 57.74 43.2394 58.06 43.4154 58.276C43.5994 58.492 43.8954 58.6 44.3034 58.6C44.4234 58.6 44.5434 58.584 44.6634 58.552C44.7914 58.52 44.9154 58.488 45.0354 58.456L45.2274 59.368C45.1074 59.44 44.9394 59.496 44.7234 59.536C44.5154 59.584 44.3154 59.608 44.1234 59.608ZM46.0102 59.5V53.644H47.1862V55.048H47.0662C47.1942 54.568 47.4222 54.204 47.7502 53.956C48.0862 53.708 48.5302 53.564 49.0822 53.524L49.4782 53.5L49.5622 54.532L48.8302 54.604C48.3102 54.652 47.9142 54.816 47.6422 55.096C47.3702 55.376 47.2342 55.76 47.2342 56.248V59.5H46.0102ZM51.45 61.66L52.602 59.092V59.608L50.046 53.644H51.342L53.31 58.504H52.974L54.966 53.644H56.214L52.722 61.66H51.45ZM62.2888 59.608C61.9768 59.608 61.6728 59.58 61.3768 59.524C61.0808 59.468 60.8088 59.388 60.5608 59.284C60.3128 59.18 60.0928 59.052 59.9008 58.9L60.2488 58.084C60.4488 58.22 60.6608 58.34 60.8848 58.444C61.1088 58.54 61.3408 58.612 61.5808 58.66C61.8288 58.708 62.0688 58.732 62.3008 58.732C62.7248 58.732 63.0448 58.656 63.2608 58.504C63.4768 58.352 63.5848 58.148 63.5848 57.892C63.5848 57.684 63.5128 57.524 63.3688 57.412C63.2248 57.292 63.0088 57.2 62.7208 57.136L61.5808 56.908C61.0848 56.804 60.7088 56.62 60.4528 56.356C60.1968 56.092 60.0688 55.756 60.0688 55.348C60.0688 54.98 60.1688 54.66 60.3688 54.388C60.5688 54.116 60.8488 53.908 61.2088 53.764C61.5688 53.612 61.9848 53.536 62.4568 53.536C62.7288 53.536 62.9928 53.564 63.2488 53.62C63.5048 53.676 63.7448 53.756 63.9688 53.86C64.2008 53.964 64.3968 54.096 64.5568 54.256L64.2088 55.072C64.0568 54.936 63.8808 54.82 63.6808 54.724C63.4888 54.628 63.2888 54.556 63.0808 54.508C62.8728 54.452 62.6648 54.424 62.4568 54.424C62.0328 54.424 61.7128 54.504 61.4968 54.664C61.2888 54.816 61.1848 55.024 61.1848 55.288C61.1848 55.488 61.2488 55.652 61.3768 55.78C61.5048 55.908 61.7048 56 61.9768 56.056L63.1168 56.284C63.6368 56.388 64.0288 56.564 64.2928 56.812C64.5648 57.06 64.7008 57.396 64.7008 57.82C64.7008 58.188 64.6008 58.508 64.4008 58.78C64.2008 59.052 63.9168 59.26 63.5488 59.404C63.1888 59.54 62.7688 59.608 62.2888 59.608ZM65.9413 52.288V51.028H67.3573V52.288H65.9413ZM66.0493 59.5V53.644H67.2613V59.5H66.0493ZM71.1992 59.608C70.6872 59.608 70.2352 59.488 69.8432 59.248C69.4592 59 69.1592 58.648 68.9432 58.192C68.7272 57.728 68.6192 57.188 68.6192 56.572C68.6192 55.94 68.7272 55.4 68.9432 54.952C69.1592 54.504 69.4592 54.156 69.8432 53.908C70.2352 53.66 70.6872 53.536 71.1992 53.536C71.7112 53.536 72.1512 53.664 72.5192 53.92C72.8952 54.168 73.1472 54.504 73.2752 54.928H73.1432V51.04H74.3552V59.5H73.1672V58.18H73.2872C73.1592 58.612 72.9072 58.96 72.5312 59.224C72.1632 59.48 71.7192 59.608 71.1992 59.608ZM71.5112 58.672C72.0072 58.672 72.4072 58.492 72.7112 58.132C73.0152 57.772 73.1672 57.252 73.1672 56.572C73.1672 55.884 73.0152 55.364 72.7112 55.012C72.4072 54.66 72.0072 54.484 71.5112 54.484C71.0072 54.484 70.6032 54.66 70.2992 55.012C69.9952 55.364 69.8432 55.884 69.8432 56.572C69.8432 57.252 69.9952 57.772 70.2992 58.132C70.6032 58.492 71.0072 58.672 71.5112 58.672ZM78.8051 59.608C78.1651 59.608 77.6131 59.488 77.1491 59.248C76.6931 59 76.3371 58.652 76.0811 58.204C75.8331 57.748 75.7091 57.208 75.7091 56.584C75.7091 55.976 75.8331 55.444 76.0811 54.988C76.3291 54.532 76.6691 54.176 77.1011 53.92C77.5331 53.664 78.0251 53.536 78.5771 53.536C79.1211 53.536 79.5851 53.656 79.9691 53.896C80.3611 54.128 80.6611 54.46 80.8691 54.892C81.0771 55.324 81.1811 55.84 81.1811 56.44V56.848H76.6691V56.104H80.3651L80.1611 56.272C80.1611 55.672 80.0291 55.208 79.7651 54.88C79.5011 54.552 79.1211 54.388 78.6251 54.388C78.2491 54.388 77.9291 54.476 77.6651 54.652C77.4091 54.828 77.2131 55.072 77.0771 55.384C76.9411 55.696 76.8731 56.06 76.8731 56.476V56.548C76.8731 57.012 76.9451 57.404 77.0891 57.724C77.2411 58.036 77.4611 58.272 77.7491 58.432C78.0371 58.592 78.3931 58.672 78.8171 58.672C79.1531 58.672 79.4811 58.62 79.8011 58.516C80.1291 58.404 80.4371 58.232 80.7251 58L81.0851 58.84C80.8211 59.08 80.4811 59.268 80.0651 59.404C79.6491 59.54 79.2291 59.608 78.8051 59.608Z" fill="black"/>
<path d="M28.6563 74.6C27.9563 74.6 27.3529 74.4533 26.8463 74.16C26.3396 73.8667 25.9496 73.45 25.6763 72.91C25.4029 72.3633 25.2663 71.7167 25.2663 70.97C25.2663 70.2233 25.4029 69.58 25.6763 69.04C25.9496 68.5 26.3396 68.0867 26.8463 67.8C27.3529 67.5067 27.9563 67.36 28.6563 67.36C29.1429 67.36 29.5929 67.4333 30.0063 67.58C30.4196 67.7267 30.7663 67.94 31.0463 68.22L30.6763 69.06C30.3696 68.8 30.0563 68.61 29.7363 68.49C29.4163 68.37 29.0663 68.31 28.6863 68.31C27.9529 68.31 27.3863 68.54 26.9863 69C26.5863 69.4533 26.3863 70.11 26.3863 70.97C26.3863 71.83 26.5863 72.49 26.9863 72.95C27.3863 73.41 27.9529 73.64 28.6863 73.64C29.0663 73.64 29.4163 73.58 29.7363 73.46C30.0563 73.34 30.3696 73.15 30.6763 72.89L31.0463 73.73C30.7663 74.01 30.4196 74.2267 30.0063 74.38C29.5929 74.5267 29.1429 74.6 28.6563 74.6ZM32.3003 74.5V67.45H33.3303V70.6H33.2703C33.417 70.2467 33.647 69.9733 33.9603 69.78C34.2737 69.5867 34.6303 69.49 35.0303 69.49C35.4303 69.49 35.7603 69.5633 36.0203 69.71C36.287 69.8567 36.487 70.08 36.6203 70.38C36.7537 70.6733 36.8203 71.0433 36.8203 71.49V74.5H35.7603V71.55C35.7603 71.2833 35.7237 71.0633 35.6503 70.89C35.5837 70.71 35.4737 70.5767 35.3203 70.49C35.1737 70.3967 34.9803 70.35 34.7403 70.35C34.467 70.35 34.227 70.41 34.0203 70.53C33.8137 70.65 33.6503 70.8167 33.5303 71.03C33.417 71.2367 33.3603 71.4767 33.3603 71.75V74.5H32.3003ZM39.9655 74.59C39.6188 74.59 39.3055 74.5233 39.0255 74.39C38.7455 74.2567 38.5255 74.0767 38.3655 73.85C38.2121 73.6167 38.1355 73.3567 38.1355 73.07C38.1355 72.7033 38.2321 72.4133 38.4255 72.2C38.6255 71.9867 38.9421 71.8333 39.3755 71.74C39.8088 71.64 40.3821 71.59 41.0955 71.59H41.6755V72.25H41.1255C40.7655 72.25 40.4621 72.2633 40.2155 72.29C39.9688 72.31 39.7688 72.35 39.6155 72.41C39.4621 72.47 39.3488 72.55 39.2755 72.65C39.2088 72.7433 39.1755 72.8633 39.1755 73.01C39.1755 73.2633 39.2655 73.4633 39.4455 73.61C39.6321 73.75 39.8755 73.82 40.1755 73.82C40.4355 73.82 40.6655 73.7633 40.8655 73.65C41.0655 73.53 41.2255 73.37 41.3455 73.17C41.4655 72.9633 41.5255 72.7333 41.5255 72.48V71.35C41.5255 70.9767 41.4321 70.71 41.2455 70.55C41.0655 70.39 40.7821 70.31 40.3955 70.31C40.1088 70.31 39.8221 70.35 39.5355 70.43C39.2555 70.51 38.9621 70.64 38.6555 70.82L38.3355 70.08C38.5288 69.9533 38.7421 69.8467 38.9755 69.76C39.2155 69.6733 39.4621 69.6067 39.7155 69.56C39.9755 69.5133 40.2288 69.49 40.4755 69.49C40.9221 69.49 41.2988 69.56 41.6055 69.7C41.9121 69.84 42.1455 70.0533 42.3055 70.34C42.4655 70.6267 42.5455 71 42.5455 71.46V74.5H41.5955V73.43H41.6355C41.5621 73.6567 41.4488 73.86 41.2955 74.04C41.1421 74.2133 40.9521 74.35 40.7255 74.45C40.5055 74.5433 40.2521 74.59 39.9655 74.59ZM44.0679 76.3V69.58H45.0679V70.65H45.0179C45.1446 70.29 45.3646 70.0067 45.6779 69.8C45.9912 69.5933 46.3612 69.49 46.7879 69.49C47.2279 69.49 47.6146 69.5967 47.9479 69.81C48.2812 70.0167 48.5379 70.31 48.7179 70.69C48.8979 71.07 48.9879 71.52 48.9879 72.04C48.9879 72.5467 48.8979 72.9933 48.7179 73.38C48.5379 73.7667 48.2846 74.0667 47.9579 74.28C47.6312 74.4867 47.2412 74.59 46.7879 74.59C46.3679 74.59 46.0046 74.49 45.6979 74.29C45.3979 74.0833 45.1879 73.8133 45.0679 73.48H45.1279V76.3H44.0679ZM46.5179 73.77C46.9512 73.77 47.2946 73.62 47.5479 73.32C47.8079 73.0133 47.9379 72.5833 47.9379 72.03C47.9379 71.4833 47.8112 71.0633 47.5579 70.77C47.3046 70.47 46.9579 70.32 46.5179 70.32C46.0846 70.32 45.7412 70.47 45.4879 70.77C45.2346 71.0633 45.1079 71.4833 45.1079 72.03C45.1079 72.5833 45.2346 73.0133 45.4879 73.32C45.7479 73.62 46.0912 73.77 46.5179 73.77ZM52.3507 74.59C51.724 74.59 51.254 74.43 50.9407 74.11C50.634 73.79 50.4807 73.3267 50.4807 72.72V70.41H49.5207V69.58H50.5107V68.12H51.5407V69.58H53.1607V70.41H51.5407V72.65C51.5407 73.0033 51.6174 73.27 51.7707 73.45C51.9307 73.6233 52.1774 73.71 52.5107 73.71C52.6307 73.71 52.7474 73.6967 52.8607 73.67C52.974 73.6433 53.0874 73.61 53.2007 73.57L53.3607 74.37C53.2407 74.4433 53.0874 74.4967 52.9007 74.53C52.714 74.57 52.5307 74.59 52.3507 74.59ZM56.5263 74.59C55.9729 74.59 55.4963 74.49 55.0963 74.29C54.6963 74.0833 54.3896 73.79 54.1763 73.41C53.9629 73.0233 53.8563 72.5667 53.8563 72.04C53.8563 71.54 53.9563 71.1 54.1563 70.72C54.3629 70.3333 54.6496 70.0333 55.0163 69.82C55.3896 69.6 55.8196 69.49 56.3063 69.49C56.7796 69.49 57.1829 69.59 57.5163 69.79C57.8496 69.99 58.1063 70.2767 58.2863 70.65C58.4663 71.0167 58.5563 71.4567 58.5563 71.97V72.31H54.6763V71.64H57.8363L57.6663 71.81C57.6663 71.3033 57.5496 70.9167 57.3163 70.65C57.0896 70.3833 56.7629 70.25 56.3363 70.25C56.0296 70.25 55.7663 70.32 55.5463 70.46C55.3263 70.5933 55.1563 70.7867 55.0363 71.04C54.9163 71.2867 54.8563 71.5833 54.8563 71.93V72.02C54.8563 72.4067 54.9196 72.73 55.0463 72.99C55.1796 73.25 55.3729 73.4433 55.6263 73.57C55.8796 73.6967 56.1863 73.76 56.5463 73.76C56.8196 73.76 57.0929 73.7233 57.3663 73.65C57.6463 73.57 57.9029 73.4333 58.1363 73.24L58.4663 73.97C58.2196 74.17 57.9196 74.3233 57.5663 74.43C57.2196 74.5367 56.8729 74.59 56.5263 74.59ZM59.7906 74.5V69.58H60.7806V70.75H60.7306C60.8439 70.37 61.0406 70.0733 61.3206 69.86C61.6072 69.6467 61.9739 69.5233 62.4206 69.49L62.8306 69.47L62.9106 70.39L62.2106 70.46C61.7772 70.5 61.4439 70.64 61.2106 70.88C60.9772 71.12 60.8606 71.4367 60.8606 71.83V74.5H59.7906ZM68.7979 74.59C67.9912 74.59 67.3612 74.4167 66.9079 74.07C66.4546 73.7233 66.2279 73.24 66.2279 72.62C66.2279 72.2933 66.2912 72.0067 66.4179 71.76C66.5512 71.5133 66.7312 71.31 66.9579 71.15C67.1912 70.99 67.4546 70.89 67.7479 70.85V70.95C67.4879 70.8833 67.2546 70.77 67.0479 70.61C66.8412 70.45 66.6812 70.2533 66.5679 70.02C66.4546 69.7867 66.3979 69.53 66.3979 69.25C66.3979 68.6567 66.6146 68.1933 67.0479 67.86C67.4812 67.5267 68.0646 67.36 68.7979 67.36C69.5312 67.36 70.1146 67.5267 70.5479 67.86C70.9812 68.1933 71.1979 68.6567 71.1979 69.25C71.1979 69.53 71.1412 69.79 71.0279 70.03C70.9146 70.2633 70.7546 70.46 70.5479 70.62C70.3479 70.7733 70.1146 70.88 69.8479 70.94V70.85C70.1479 70.89 70.4112 70.99 70.6379 71.15C70.8646 71.31 71.0412 71.5167 71.1679 71.77C71.3012 72.0167 71.3679 72.3 71.3679 72.62C71.3679 73.24 71.1412 73.7233 70.6879 74.07C70.2346 74.4167 69.6046 74.59 68.7979 74.59ZM68.7979 73.74C69.3179 73.74 69.7112 73.64 69.9779 73.44C70.2446 73.2333 70.3779 72.9367 70.3779 72.55C70.3779 72.1567 70.2446 71.86 69.9779 71.66C69.7112 71.46 69.3179 71.36 68.7979 71.36C68.2846 71.36 67.8912 71.46 67.6179 71.66C67.3512 71.86 67.2179 72.1567 67.2179 72.55C67.2179 72.9367 67.3512 73.2333 67.6179 73.44C67.8912 73.64 68.2846 73.74 68.7979 73.74ZM68.7979 70.5C69.2446 70.5 69.5912 70.4 69.8379 70.2C70.0846 69.9933 70.2079 69.71 70.2079 69.35C70.2079 68.9967 70.0846 68.72 69.8379 68.52C69.5912 68.3133 69.2446 68.21 68.7979 68.21C68.3579 68.21 68.0112 68.3133 67.7579 68.52C67.5112 68.72 67.3879 68.9967 67.3879 69.35C67.3879 69.71 67.5112 69.9933 67.7579 70.2C68.0112 70.4 68.3579 70.5 68.7979 70.5Z" fill="#667085"/>
<defs>
<filter id="filter0_d_8339_572" x="0" y="0.5" width="96" height="85.8462" filterUnits="userSpaceOnUse" color-interpolation-filters="sRGB">
<feFlood flood-opacity="0" result="BackgroundImageFix"/>
<feColorMatrix in="SourceAlpha" type="matrix" values="0 0 0 0 0 0 0 0 0 0 0 0 0 0 0 0 0 0 127 0" result="hardAlpha"/>
<feOffset dy="4"/>
<feGaussianBlur stdDeviation="2"/>
<feComposite in2="hardAlpha" operator="out"/>
<feColorMatrix type="matrix" values="0 0 0 0 0 0 0 0 0 0 0 0 0 0 0 0 0 0 0.25 0"/>
<feBlend mode="normal" in2="BackgroundImageFix" result="effect1_dropShadow_8339_572"/>
<feBlend mode="normal" in="SourceGraphic" in2="effect1_dropShadow_8339_572" result="shape"/>
</filter>
<clipPath id="clip0_8339_572">
<rect width="30" height="30" fill="white" transform="translate(33.2051 0.5)"/>
</clipPath>
</defs>
</svg>
