<svg width="96" height="86" viewBox="0 0 96 86" fill="none" xmlns="http://www.w3.org/2000/svg">
<g filter="url(#filter0_d_8310_792)">
<path d="M5.37285 42.5185C4.62083 41.2089 4.24484 40.5536 4.09767 39.8574C3.96744 39.2412 3.96744 38.6048 4.09767 37.9886C4.24484 37.2924 4.62083 36.6371 5.37285 35.3274L23.5901 3.59555C24.3421 2.28569 24.7181 1.63076 25.2442 1.15444C25.7096 0.732998 26.2579 0.414612 26.8535 0.220002C27.5267 -2.00917e-07 28.2787 0 29.7827 0H66.2171C67.7214 0 68.4731 -2.00917e-07 69.1466 0.220002C69.7419 0.414612 70.2903 0.732998 70.756 1.15444C71.282 1.63076 71.6578 2.28569 72.41 3.59555L90.6271 35.3274C91.3792 36.6371 91.7551 37.2924 91.9021 37.9886C92.0326 38.6048 92.0326 39.2412 91.9021 39.8574C91.7551 40.5536 91.3792 41.2089 90.6271 42.5185L72.41 74.2506C71.6578 75.5603 71.282 76.2151 70.756 76.6915C70.2903 77.1131 69.7419 77.4313 69.1466 77.6259C68.4731 77.8462 67.7214 77.8462 66.2171 77.8462H29.7827C28.2787 77.8462 27.5267 77.8462 26.8535 77.6259C26.2579 77.4313 25.7096 77.1131 25.2442 76.6915C24.7181 76.2151 24.3421 75.5603 23.5901 74.2506L5.37285 42.5185Z" fill="white"/>
</g>
<g clip-path="url(#clip0_8310_792)">
<path d="M38 28.5H44.875V30.0625C44.875 30.9742 44.5128 31.8485 43.8682 32.4932C43.2235 33.1378 42.3492 33.5 41.4375 33.5C40.5258 33.5 39.6515 33.1378 39.0068 32.4932C38.3622 31.8485 38 30.9742 38 30.0625V28.5ZM43 13.65C45.5 13.65 46.75 17.25 46.75 19.75C46.75 21 46.125 22.25 45.5 24.125L44.875 26H38C38 24.75 37.375 22.875 37.375 19.75C37.375 16.625 39.8725 13.65 43 13.65ZM58.0675 23.6225L57.7962 25.1612C57.6379 26.0592 57.1294 26.8574 56.3826 27.3804C55.6357 27.9034 54.7117 28.1083 53.8137 27.95C52.9158 27.7917 52.1176 27.2832 51.5946 26.5363C51.0716 25.7894 50.8667 24.8654 51.025 23.9675L51.2975 22.43L58.0675 23.6225ZM55.7225 8.13123C58.8025 8.67373 60.745 12.0362 60.2025 15.1137C59.66 18.1925 58.7188 19.93 58.5025 21.1612L51.7312 19.9675L51.4412 18.0125C51.1512 16.0575 50.7537 14.7175 50.97 13.4875C51.4038 11.025 53.26 7.69748 55.7225 8.13123Z" fill="#F2BB41"/>
</g>
<path d="M30.262 45.19H37.528V44.322H28.82V42.964H39.18V46.562H30.262V45.19ZM29.338 45.19H31.018C30.752 46.52 30.388 48.088 30.094 49.11L28.414 48.914C28.736 47.92 29.114 46.422 29.338 45.19ZM29.926 47.388H38.746V48.788H29.506L29.926 47.388ZM38.312 47.388H39.992C39.992 47.388 39.978 47.78 39.95 47.99C39.81 49.852 39.642 50.762 39.292 51.154C38.984 51.476 38.648 51.588 38.214 51.63C37.822 51.686 37.15 51.686 36.436 51.672C36.408 51.182 36.212 50.552 35.96 50.132C36.548 50.202 37.136 50.216 37.388 50.202C37.612 50.202 37.738 50.188 37.878 50.076C38.074 49.88 38.2 49.208 38.312 47.584V47.388ZM33.132 43.286H34.784V52.26H33.132V43.286ZM32.796 47.892L34.098 48.452C32.838 50.034 30.724 51.42 28.694 52.12C28.456 51.714 27.98 51.112 27.63 50.79C29.604 50.244 31.732 49.124 32.796 47.892ZM29.38 40.192H33.79V41.48H29.38V40.192ZM34.938 40.192H40.37V41.48H34.938V40.192ZM29.45 39.002L31.004 39.422C30.43 40.808 29.492 42.236 28.61 43.104C28.302 42.852 27.63 42.418 27.238 42.208C28.148 41.438 28.974 40.206 29.45 39.002ZM35.148 39.002L36.73 39.408C36.198 40.794 35.288 42.138 34.378 42.992C34.07 42.712 33.384 42.264 32.992 42.054C33.93 41.34 34.728 40.178 35.148 39.002ZM29.898 41.214L31.242 40.64C31.606 41.186 32.026 41.956 32.208 42.446L30.78 43.076C30.64 42.572 30.262 41.802 29.898 41.214ZM35.974 41.2L37.36 40.71C37.808 41.228 38.326 41.956 38.564 42.46L37.108 43.02C36.912 42.53 36.422 41.76 35.974 41.2ZM41.532 44.63H54.496V46.464H41.532V44.63ZM61.188 44.49H62.882V47.346C62.882 48.116 62.728 48.522 62.168 48.76C61.608 48.984 60.866 48.984 59.9 48.984C59.83 48.536 59.592 47.906 59.396 47.486C59.984 47.514 60.726 47.514 60.936 47.5C61.132 47.5 61.188 47.458 61.188 47.304V44.49ZM58.304 44.868L60.054 45.442C59.27 46.674 58.01 47.92 56.946 48.676C56.61 48.354 55.896 47.808 55.476 47.542C56.568 46.912 57.688 45.89 58.304 44.868ZM65.346 45.288L67.068 45.834C65.542 49.936 62.616 51.504 57.534 52.274C57.366 51.77 57.03 51.098 56.68 50.692C61.384 50.16 64.1 48.83 65.346 45.288ZM55.672 43.076H68.328V44.658H55.672V43.076ZM62.196 40.458H66.858V42.026H62.196V40.458ZM61.174 39.114H62.91V44.07H61.174V39.114ZM57.59 40.024H59.298V43.93H57.59V40.024Z" fill="black"/>
<path d="M34.0599 65.92H43.1899V66.87H34.0599V65.92ZM37.9699 65.08H39.2299V67.9H37.9699V65.08ZM36.3099 64.21V64.68H40.8999V64.21H36.3099ZM36.3099 62.99V63.46H40.8999V62.99H36.3099ZM35.1399 62.19H42.1199V65.48H35.1399V62.19ZM34.7399 59.17H42.5599V60.11H34.7399V59.17ZM34.0999 60.85H43.1399V61.79H34.0999V60.85ZM37.9599 58.51H39.2299V59.84H37.9599V58.51ZM40.0099 59.9L41.2899 60.12C41.0799 60.53 40.8899 60.88 40.7399 61.14L39.5999 60.93C39.7399 60.63 39.9199 60.2 40.0099 59.9ZM36.0599 60.15L37.2199 59.95C37.4099 60.23 37.5899 60.63 37.6499 60.91L36.4399 61.16C36.3899 60.88 36.2299 60.45 36.0599 60.15ZM51.0899 62.09H52.3499V65.28C52.3499 65.92 52.2199 66.28 51.7499 66.47C51.2899 66.67 50.6299 66.67 49.6899 66.67C49.6499 66.29 49.4999 65.76 49.3499 65.4C49.9199 65.43 50.6499 65.43 50.8299 65.42C51.0199 65.42 51.0899 65.38 51.0899 65.24V62.09ZM46.9399 62.86H48.2099V67.87H46.9399V62.86ZM44.5699 62.09H51.6399V63.24H44.5699V62.09ZM44.1199 59.5H53.1499V60.64H44.1199V59.5ZM46.2699 58.51H47.5099V61.6H46.2699V58.51ZM49.7899 58.51H51.0599V61.6H49.7899V58.51ZM57.414 67V66.1H59.144V60.83L59.684 60.86L57.764 62.06L57.324 61.26L59.434 59.95H60.204V66.1H61.814V67H57.414Z" fill="#667085"/>
<defs>
<filter id="filter0_d_8310_792" x="0" y="0" width="96" height="85.8462" filterUnits="userSpaceOnUse" color-interpolation-filters="sRGB">
<feFlood flood-opacity="0" result="BackgroundImageFix"/>
<feColorMatrix in="SourceAlpha" type="matrix" values="0 0 0 0 0 0 0 0 0 0 0 0 0 0 0 0 0 0 127 0" result="hardAlpha"/>
<feOffset dy="4"/>
<feGaussianBlur stdDeviation="2"/>
<feComposite in2="hardAlpha" operator="out"/>
<feColorMatrix type="matrix" values="0 0 0 0 0 0 0 0 0 0 0 0 0 0 0 0 0 0 0.25 0"/>
<feBlend mode="normal" in2="BackgroundImageFix" result="effect1_dropShadow_8310_792"/>
<feBlend mode="normal" in="SourceGraphic" in2="effect1_dropShadow_8310_792" result="shape"/>
</filter>
<clipPath id="clip0_8310_792">
<rect width="30" height="30" fill="white" transform="translate(33 6)"/>
</clipPath>
</defs>
</svg>
