<svg width="96" height="86" viewBox="0 0 96 86" fill="none" xmlns="http://www.w3.org/2000/svg">
<g filter="url(#filter0_d_8310_938)">
<path d="M5.37285 42.5185C4.62083 41.2089 4.24484 40.5536 4.09767 39.8574C3.96744 39.2412 3.96744 38.6048 4.09767 37.9886C4.24484 37.2924 4.62083 36.6371 5.37285 35.3274L23.5901 3.59555C24.3421 2.28569 24.7181 1.63076 25.2442 1.15444C25.7096 0.732998 26.2579 0.414612 26.8535 0.220002C27.5267 -2.00917e-07 28.2787 0 29.7827 0H66.2171C67.7214 0 68.4731 -2.00917e-07 69.1466 0.220002C69.7419 0.414612 70.2903 0.732998 70.756 1.15444C71.282 1.63076 71.6578 2.28569 72.41 3.59555L90.6271 35.3274C91.3792 36.6371 91.7551 37.2924 91.9021 37.9886C92.0326 38.6048 92.0326 39.2412 91.9021 39.8574C91.7551 40.5536 91.3792 41.2089 90.6271 42.5185L72.41 74.2506C71.6578 75.5603 71.282 76.2151 70.756 76.6915C70.2903 77.1131 69.7419 77.4313 69.1466 77.6259C68.4731 77.8462 67.7214 77.8462 66.2171 77.8462H29.7827C28.2787 77.8462 27.5267 77.8462 26.8535 77.6259C26.2579 77.4313 25.7096 77.1131 25.2442 76.6915C24.7181 76.2151 24.3421 75.5603 23.5901 74.2506L5.37285 42.5185Z" fill="white"/>
</g>
<path d="M46.5432 37.1574L36.0476 26.6618C35.1147 25.7288 35.1147 24.2711 36.0476 23.3382L46.5432 12.8425C47.4762 11.9096 48.9339 11.9096 49.8669 12.8425L60.3625 23.3382C61.2954 24.2711 61.2954 25.7288 60.3625 26.6618L49.8669 37.1574C48.9339 38.0903 47.4179 38.0903 46.5432 37.1574Z" fill="#F2BB41"/>
<path d="M46.7765 30.1021C46.7765 29.9272 46.8348 29.7523 46.8931 29.5773C46.9514 29.4024 47.068 29.2858 47.1847 29.1692C47.3013 29.0526 47.4762 28.9359 47.6511 28.8776C47.8261 28.8193 48.001 28.761 48.2342 28.761C48.4675 28.761 48.6424 28.8193 48.8173 28.8776C48.9922 28.9359 49.1672 29.0526 49.2838 29.1692C49.4004 29.2858 49.517 29.4024 49.5753 29.5773C49.6336 29.7523 49.6919 29.9272 49.6919 30.1021C49.6919 30.277 49.6336 30.452 49.5753 30.6269C49.517 30.8018 49.4004 30.9184 49.2838 31.0351C49.1672 31.1517 48.9922 31.2683 48.8173 31.3266C48.6424 31.3849 48.4675 31.4432 48.2342 31.4432C48.001 31.4432 47.8261 31.3849 47.6511 31.3266C47.4762 31.2683 47.3596 31.1517 47.1847 31.0351C47.068 30.9184 46.9514 30.8018 46.8931 30.6269C46.8348 30.452 46.7765 30.3353 46.7765 30.1021ZM49.2255 27.4199H47.1263L46.8348 18.6152H49.517L49.2255 27.4199Z" fill="#E08838"/>
<path d="M30.1816 48.756H31.8196V53.838C31.8196 54.314 31.8756 54.398 32.1976 54.398C32.3376 54.398 32.9116 54.398 33.0936 54.398C33.4296 54.398 33.4996 54.09 33.5556 52.228C33.8776 52.508 34.5916 52.788 35.0256 52.9C34.8856 55.252 34.4796 55.924 33.2616 55.924C32.9816 55.924 32.1976 55.924 31.9176 55.924C30.5176 55.924 30.1816 55.406 30.1816 53.838V48.756ZM25.5616 46.32H34.8156V47.916H25.5616V46.32ZM28.4036 43.31H30.0836C30.0556 48.686 29.9856 53.572 26.2616 56.274C25.9956 55.84 25.4636 55.266 25.0296 54.958C28.5016 52.578 28.3756 48.266 28.4036 43.31ZM31.1896 44.22L32.3656 43.394C32.9956 44.01 33.8076 44.878 34.1996 45.452L32.9536 46.39C32.6176 45.802 31.8196 44.878 31.1896 44.22ZM24.8336 43.156L26.4156 43.66C25.5476 46.026 24.1336 48.56 22.6496 50.17C22.4956 49.764 22.0336 48.84 21.7396 48.42C22.9716 47.146 24.1476 45.158 24.8336 43.156ZM23.4196 47.048L25.0156 45.452V45.466V56.246H23.4196V47.048ZM43.3276 50.142H45.0216V53.936C45.0216 54.398 45.0916 54.454 45.5256 54.454C45.7216 54.454 46.5056 54.454 46.7436 54.454C47.1636 54.454 47.2336 54.202 47.2896 52.55C47.6396 52.816 48.3676 53.096 48.8296 53.208C48.6616 55.448 48.2136 56.05 46.8976 56.05C46.5756 56.05 45.5816 56.05 45.2736 56.05C43.6916 56.05 43.3276 55.518 43.3276 53.936V50.142ZM36.1876 48.896H48.6896V50.52H36.1876V48.896ZM38.4976 45.004H47.5836V46.614H38.4976V45.004ZM39.5616 50.17H41.3256C41.0596 52.816 40.4016 55.056 37.0276 56.33C36.8316 55.882 36.3556 55.196 35.9636 54.86C38.9596 53.894 39.3516 52.158 39.5616 50.17ZM38.4836 43.31L40.1916 43.646C39.7436 45.298 39.0296 47.314 38.0916 48.546C37.6996 48.294 37.0136 47.944 36.5936 47.79C37.5176 46.642 38.1756 44.752 38.4836 43.31ZM41.5916 43.114H43.2996V49.4H41.5916V43.114ZM56.4456 44.626L58.1116 44.696C57.8736 49.736 57.2716 53.768 55.2696 56.302C54.9896 56.05 54.2056 55.504 53.7996 55.294C55.7876 53.096 56.3056 49.246 56.4456 44.626ZM55.0456 43.982H60.5896V45.536H55.0456V43.982ZM59.8616 47.58H61.5136V49.022H59.4276L59.8616 47.58ZM61.0656 47.58H61.3736L61.6676 47.51L62.7036 47.916C61.9056 52.074 59.9316 54.86 57.4256 56.274C57.1876 55.896 56.5996 55.266 56.2496 55C58.6856 53.782 60.4496 51.388 61.0656 47.902V47.58ZM57.7476 48.28C58.6576 51.136 60.5336 53.684 63.1376 54.86C62.7736 55.168 62.2696 55.784 62.0316 56.204C59.2736 54.79 57.4256 52.032 56.3196 48.686L57.7476 48.28ZM59.8196 43.982H61.5136C61.1076 45.676 60.5476 47.734 60.1556 49.022H58.5036C58.9516 47.678 59.4836 45.606 59.8196 43.982ZM50.2856 52.774C50.2016 52.466 49.9636 51.724 49.7816 51.318C50.1456 51.234 50.4676 50.912 50.9156 50.38C51.4056 49.862 52.8756 47.874 53.8136 45.928L55.1576 46.782C54.0936 48.672 52.6936 50.576 51.3216 51.962V51.99C51.3216 51.99 50.2856 52.48 50.2856 52.774ZM50.2856 52.774L50.1316 51.402L50.8036 50.87L54.7796 49.834C54.7516 50.254 54.7936 50.898 54.8496 51.248C51.2376 52.284 50.6636 52.508 50.2856 52.774ZM50.2016 49.218C50.1176 48.896 49.8656 48.126 49.6836 47.706C49.9776 47.622 50.2156 47.328 50.5376 46.866C50.8456 46.418 51.8256 44.668 52.3436 43.016L53.8836 43.744C53.1836 45.396 52.1196 47.16 51.0836 48.392V48.42C51.0836 48.42 50.2016 48.938 50.2016 49.218ZM50.2016 49.218L50.1596 48.042L50.8456 47.594L53.1976 47.412C53.1136 47.818 53.0436 48.42 53.0296 48.756C50.9296 48.98 50.4816 49.092 50.2016 49.218ZM49.9636 53.964C51.1536 53.586 53.0016 52.872 54.7376 52.186L55.0736 53.628C53.4636 54.328 51.7416 55.056 50.3696 55.63L49.9636 53.964ZM67.774 55V53.922L71.064 50.394C71.372 50.058 71.6193 49.75 71.806 49.47C71.9927 49.1807 72.128 48.9053 72.212 48.644C72.3053 48.3733 72.352 48.1027 72.352 47.832C72.352 47.3093 72.1933 46.9127 71.876 46.642C71.5587 46.3713 71.092 46.236 70.476 46.236C70 46.236 69.5473 46.3247 69.118 46.502C68.698 46.6793 68.2967 46.95 67.914 47.314L67.396 46.208C67.7693 45.844 68.2453 45.5547 68.824 45.34C69.4027 45.116 70.0047 45.004 70.63 45.004C71.3113 45.004 71.8853 45.1113 72.352 45.326C72.828 45.5313 73.1873 45.8347 73.43 46.236C73.6727 46.6373 73.794 47.1273 73.794 47.706C73.794 48.0047 73.7567 48.2987 73.682 48.588C73.6167 48.868 73.5093 49.148 73.36 49.428C73.22 49.708 73.038 49.9973 72.814 50.296C72.5993 50.5947 72.338 50.9027 72.03 51.22L69.216 54.188V53.782H74.186V55H67.774Z" fill="black"/>
<path d="M34.265 69.92H43.395V70.87H34.265V69.92ZM38.175 69.08H39.435V71.9H38.175V69.08ZM36.515 68.21V68.68H41.105V68.21H36.515ZM36.515 66.99V67.46H41.105V66.99H36.515ZM35.345 66.19H42.325V69.48H35.345V66.19ZM34.945 63.17H42.765V64.11H34.945V63.17ZM34.305 64.85H43.345V65.79H34.305V64.85ZM38.165 62.51H39.435V63.84H38.165V62.51ZM40.215 63.9L41.495 64.12C41.285 64.53 41.095 64.88 40.945 65.14L39.805 64.93C39.945 64.63 40.125 64.2 40.215 63.9ZM36.265 64.15L37.425 63.95C37.615 64.23 37.795 64.63 37.855 64.91L36.645 65.16C36.595 64.88 36.435 64.45 36.265 64.15ZM51.295 66.09H52.555V69.28C52.555 69.92 52.425 70.28 51.955 70.47C51.495 70.67 50.835 70.67 49.895 70.67C49.855 70.29 49.705 69.76 49.555 69.4C50.125 69.43 50.855 69.43 51.035 69.42C51.225 69.42 51.295 69.38 51.295 69.24V66.09ZM47.145 66.86H48.415V71.87H47.145V66.86ZM44.775 66.09H51.845V67.24H44.775V66.09ZM44.325 63.5H53.355V64.64H44.325V63.5ZM46.475 62.51H47.715V65.6H46.475V62.51ZM49.995 62.51H51.265V65.6H49.995V62.51ZM59.8292 71.09C59.2558 71.09 58.7692 70.9533 58.3692 70.68C57.9692 70.4067 57.6625 70.0133 57.4492 69.5C57.2425 68.98 57.1392 68.3533 57.1392 67.62C57.1392 66.8133 57.2558 66.1333 57.4892 65.58C57.7225 65.02 58.0592 64.5933 58.4992 64.3C58.9392 64.0067 59.4658 63.86 60.0792 63.86C60.3325 63.86 60.5825 63.8933 60.8292 63.96C61.0758 64.02 61.3058 64.11 61.5192 64.23C61.7392 64.35 61.9358 64.5 62.1092 64.68L61.7392 65.48C61.4925 65.2333 61.2258 65.0533 60.9392 64.94C60.6592 64.8267 60.3692 64.77 60.0692 64.77C59.7558 64.77 59.4792 64.8267 59.2392 64.94C58.9992 65.0533 58.7958 65.2233 58.6292 65.45C58.4692 65.67 58.3458 65.9467 58.2592 66.28C58.1725 66.6133 58.1292 67 58.1292 67.44V68.13H58.0792C58.1392 67.7967 58.2558 67.51 58.4292 67.27C58.6025 67.03 58.8225 66.8467 59.0892 66.72C59.3625 66.5933 59.6625 66.53 59.9892 66.53C60.4025 66.53 60.7692 66.6267 61.0892 66.82C61.4092 67.0067 61.6592 67.27 61.8392 67.61C62.0258 67.9433 62.1192 68.33 62.1192 68.77C62.1192 69.2167 62.0192 69.6167 61.8192 69.97C61.6258 70.3233 61.3558 70.6 61.0092 70.8C60.6692 70.9933 60.2758 71.09 59.8292 71.09ZM59.7692 70.22C60.0358 70.22 60.2725 70.1633 60.4792 70.05C60.6858 69.93 60.8458 69.7633 60.9592 69.55C61.0725 69.3367 61.1292 69.0867 61.1292 68.8C61.1292 68.52 61.0725 68.2767 60.9592 68.07C60.8458 67.8567 60.6858 67.6933 60.4792 67.58C60.2725 67.46 60.0358 67.4 59.7692 67.4C59.4958 67.4 59.2558 67.46 59.0492 67.58C58.8425 67.6933 58.6792 67.8567 58.5592 68.07C58.4458 68.2833 58.3892 68.5267 58.3892 68.8C58.3892 69.0867 58.4458 69.3367 58.5592 69.55C58.6792 69.7633 58.8425 69.93 59.0492 70.05C59.2558 70.1633 59.4958 70.22 59.7692 70.22Z" fill="#667085"/>
<defs>
<filter id="filter0_d_8310_938" x="0" y="0" width="96" height="85.8462" filterUnits="userSpaceOnUse" color-interpolation-filters="sRGB">
<feFlood flood-opacity="0" result="BackgroundImageFix"/>
<feColorMatrix in="SourceAlpha" type="matrix" values="0 0 0 0 0 0 0 0 0 0 0 0 0 0 0 0 0 0 127 0" result="hardAlpha"/>
<feOffset dy="4"/>
<feGaussianBlur stdDeviation="2"/>
<feComposite in2="hardAlpha" operator="out"/>
<feColorMatrix type="matrix" values="0 0 0 0 0 0 0 0 0 0 0 0 0 0 0 0 0 0 0.25 0"/>
<feBlend mode="normal" in2="BackgroundImageFix" result="effect1_dropShadow_8310_938"/>
<feBlend mode="normal" in="SourceGraphic" in2="effect1_dropShadow_8310_938" result="shape"/>
</filter>
</defs>
</svg>
