<svg width="102" height="86" viewBox="0 0 102 86" fill="none" xmlns="http://www.w3.org/2000/svg">
<g filter="url(#filter0_d_8334_725)">
<path d="M5.45148 42.5956C4.65639 41.2858 4.25887 40.6305 4.10327 39.9343C3.96558 39.3181 3.96558 38.6816 4.10327 38.0654C4.25887 37.3692 4.65639 36.7139 5.45148 35.4041L24.7122 3.67068C25.5072 2.36076 25.9047 1.70579 26.4609 1.22945C26.953 0.807985 27.5327 0.489583 28.1625 0.294964C28.8742 0.074951 29.6693 0.0749512 31.2595 0.0749512H69.7806C71.3711 0.0749512 72.1659 0.074951 72.8779 0.294964C73.5073 0.489583 74.0871 0.807985 74.5794 1.22945C75.1356 1.70579 75.533 2.36076 76.3282 3.67068L95.5887 35.4041C96.3839 36.7139 96.7813 37.3692 96.9368 38.0654C97.0747 38.6816 97.0747 39.3181 96.9368 39.9343C96.7813 40.6305 96.3839 41.2858 95.5887 42.5956L76.3282 74.3292C75.533 75.639 75.1356 76.2938 74.5794 76.7703C74.0871 77.1919 73.5073 77.5101 72.8779 77.7047C72.1659 77.9249 71.3711 77.9249 69.7806 77.9249H31.2595C29.6693 77.9249 28.8742 77.9249 28.1625 77.7047C27.5327 77.5101 26.953 77.1919 26.4609 76.7703C25.9047 76.2938 25.5072 75.639 24.7122 74.3292L5.45148 42.5956Z" fill="white"/>
</g>
<path d="M58.8718 16.4705L62.2121 23.1792C62.2711 23.2673 62.3002 23.3845 62.3293 23.4727C62.5346 24.0005 62.6808 24.7327 62.6808 25.2014V28.3945C62.6808 29.3911 62.0068 30.2114 61.0693 30.4458V32.3208C61.0693 33.2292 60.3371 33.9323 59.4577 33.9323C58.5493 33.9323 57.8461 33.2292 57.8461 32.3208V30.5039H45.0136V32.3208C45.0136 33.2292 44.3105 33.9323 43.4021 33.9323C42.5227 33.9323 41.7905 33.2292 41.7905 32.3208V30.4458C40.853 30.2114 40.179 29.3911 40.179 28.3945V25.2014C40.179 24.7327 40.3252 24.0005 40.5305 23.4727C40.5596 23.3845 40.5896 23.2673 40.6477 23.1792L43.988 16.4705C44.2515 15.9727 44.9546 15.5039 45.5405 15.5039H57.3183C57.9043 15.5039 58.6083 15.9727 58.8718 16.4705ZM45.3652 18.4917L43.5783 22.5642C43.4902 22.7105 43.4902 22.8867 43.4902 23.0039H59.3696C59.3696 22.8867 59.3696 22.7105 59.2815 22.5642L57.4946 18.4917C57.2602 17.9639 56.5571 17.4952 56.0002 17.4952H46.8596C46.3027 17.4952 45.5996 17.9639 45.3652 18.4917ZM44.5749 28.3936C45.5124 28.3936 46.2446 27.6314 46.2446 26.6648C46.2446 25.7273 45.5124 24.9952 44.5749 24.9952C43.6374 24.9952 42.8461 25.7273 42.8461 26.6648C42.8461 27.6314 43.6374 28.3936 44.5749 28.3936ZM58.2858 28.3936C59.2233 28.3936 60.0146 27.6314 60.0146 26.6648C60.0146 25.7273 59.2233 24.9952 58.2858 24.9952C57.3483 24.9952 56.6161 25.7273 56.6161 26.6648C56.6161 27.6314 57.3483 28.3936 58.2858 28.3936Z" fill="#F2BB41"/>
<path d="M29.3379 47.6997H37.5459V49.1157H29.3379V47.6997ZM32.6019 38.6637H34.1019V48.5637H32.6019V38.6637ZM28.6299 44.6997H30.0939V49.8117H28.6299V44.6997ZM36.7779 44.6997H38.2779V49.7997H36.7779V44.6997ZM29.1099 39.6717H30.5499V42.6597H36.2739V39.6717H37.7979V44.0517H29.1099V39.6717ZM44.5659 43.9317C45.5979 46.3797 47.7699 47.9637 51.1659 48.5277C50.8659 48.8277 50.4699 49.4397 50.2659 49.8357C46.7139 49.1037 44.6019 47.2797 43.3299 44.2917L44.5659 43.9317ZM48.4659 43.4517H48.7539L49.0299 43.3917L50.0259 43.8477C48.9219 47.2797 46.3059 48.9837 43.0299 49.8237C42.8739 49.4397 42.5379 48.8757 42.2619 48.5637C45.2019 47.9397 47.6379 46.3557 48.4659 43.6917V43.4517ZM44.1219 43.4517H48.6819V44.8317H43.7019L44.1219 43.4517ZM44.7099 38.4597L46.3179 38.7237C45.6939 43.4877 44.3019 46.8837 40.7139 48.8877C40.5219 48.5757 40.0059 47.9877 39.6579 47.7237C42.8979 45.9837 44.1939 42.7437 44.7099 38.4597ZM47.4339 39.2517L48.5619 38.5797C49.0179 39.0837 49.6899 39.7917 50.0019 40.2237L48.8379 40.9797C48.5379 40.5357 47.9019 39.7917 47.4339 39.2517ZM41.0259 42.7317C40.9419 42.4317 40.7139 41.7837 40.5579 41.4357C40.7379 41.3757 40.9179 41.2077 41.0739 40.9317C41.2179 40.6797 41.6859 39.7437 41.9139 38.7957L43.4259 39.0357C43.1259 40.0917 42.5499 41.2437 42.1179 41.9397V41.9637C42.1179 41.9637 41.0259 42.4317 41.0259 42.7317ZM41.0259 42.7317V41.6757L41.8779 41.0877H50.7699L50.7579 42.4557H42.2859C41.6499 42.4557 41.1339 42.5517 41.0259 42.7317ZM51.8859 40.7037H55.5459V42.0357H51.8859V40.7037ZM53.2899 38.5437H54.5979V49.8117H53.2899V38.5437ZM53.2659 41.6877L54.0339 41.9877C53.7459 43.8597 53.1339 46.1277 52.3899 47.3157C52.2699 46.8957 51.9579 46.2357 51.7419 45.8517C52.4139 44.9037 53.0139 43.1037 53.2659 41.6877ZM54.5499 42.3717C54.8139 42.6957 55.7739 44.1117 55.9659 44.4597L55.1499 45.4317C54.8979 44.7597 54.2379 43.4397 53.9019 42.8757L54.5499 42.3717ZM59.4219 38.9037C60.2379 39.9837 61.8339 41.2677 63.2019 41.9277C62.9499 42.2877 62.6619 42.9237 62.5299 43.3197C61.0299 42.4077 59.3619 40.8837 58.3659 39.6117L59.4219 38.9037ZM58.7379 38.3997L59.9739 38.8797C58.9659 40.6677 57.3459 42.4197 55.7979 43.5117C55.6419 43.2237 55.2339 42.5997 54.9819 42.3237C56.4339 41.4357 57.8859 39.9597 58.7379 38.3997ZM57.0099 42.2157H61.2819V43.4277H57.0099V42.2157ZM56.1339 44.5797L57.2379 44.2917C57.5379 45.1917 57.8379 46.3557 57.9459 47.1237L56.7819 47.4597C56.6859 46.6797 56.4099 45.4797 56.1339 44.5797ZM58.4259 44.2197L59.5299 44.0637C59.7579 44.9757 59.9619 46.1157 60.0459 46.8837L58.8699 47.0757C58.8219 46.2957 58.6179 45.1197 58.4259 44.2197ZM61.3179 44.0517L62.5659 44.3397C62.0019 45.7797 61.2459 47.4837 60.6219 48.5397L59.6019 48.2517C60.2139 47.1477 60.9339 45.3477 61.3179 44.0517ZM55.5699 48.0717H62.7099V49.3317H55.5699V48.0717ZM67.3059 46.0917V46.7037H71.3739V46.0917H67.3059ZM67.3059 44.5797V45.1797H71.3739V44.5797H67.3059ZM65.8899 43.6317H72.8739V47.6517H65.8899V43.6317ZM64.0539 39.8877H74.8059V41.1237H64.0539V39.8877ZM68.6619 38.5437H70.0899V43.2957H68.6619V38.5437ZM68.0019 40.2717L69.2019 40.7277C68.1699 42.3357 66.4659 43.7037 64.6299 44.4237C64.4259 44.0757 64.0059 43.5477 63.7059 43.2717C65.4459 42.7197 67.1379 41.5437 68.0019 40.2717ZM70.6899 40.2597C71.5659 41.5077 73.3179 42.6357 75.1059 43.1637C74.7939 43.4277 74.3739 43.9797 74.1699 44.3397C72.3219 43.6557 70.5819 42.2997 69.5259 40.7037L70.6899 40.2597ZM64.1619 48.2037H74.7099V49.4757H64.1619V48.2037Z" fill="black"/>
<path d="M34.4917 62.6517H43.6217V63.6017H34.4917V62.6517ZM38.4017 61.8117H39.6617V64.6317H38.4017V61.8117ZM36.7417 60.9417V61.4117H41.3317V60.9417H36.7417ZM36.7417 59.7217V60.1917H41.3317V59.7217H36.7417ZM35.5717 58.9217H42.5517V62.2117H35.5717V58.9217ZM35.1717 55.9017H42.9917V56.8417H35.1717V55.9017ZM34.5317 57.5817H43.5717V58.5217H34.5317V57.5817ZM38.3917 55.2417H39.6617V56.5717H38.3917V55.2417ZM40.4417 56.6317L41.7217 56.8517C41.5117 57.2617 41.3217 57.6117 41.1717 57.8717L40.0317 57.6617C40.1717 57.3617 40.3517 56.9317 40.4417 56.6317ZM36.4917 56.8817L37.6517 56.6817C37.8417 56.9617 38.0217 57.3617 38.0817 57.6417L36.8717 57.8917C36.8217 57.6117 36.6617 57.1817 36.4917 56.8817ZM51.5217 58.8217H52.7817V62.0117C52.7817 62.6517 52.6517 63.0117 52.1817 63.2017C51.7217 63.4017 51.0617 63.4017 50.1217 63.4017C50.0817 63.0217 49.9317 62.4917 49.7817 62.1317C50.3517 62.1617 51.0817 62.1617 51.2617 62.1517C51.4517 62.1517 51.5217 62.1117 51.5217 61.9717V58.8217ZM47.3717 59.5917H48.6417V64.6017H47.3717V59.5917ZM45.0017 58.8217H52.0717V59.9717H45.0017V58.8217ZM44.5517 56.2317H53.5817V57.3717H44.5517V56.2317ZM46.7017 55.2417H47.9417V58.3317H46.7017V55.2417ZM50.2217 55.2417H51.4917V58.3317H50.2217V55.2417ZM57.8459 63.7317V62.8317H59.5759V57.5617L60.1159 57.5917L58.1959 58.7917L57.7559 57.9917L59.8659 56.6817H60.6359V62.8317H62.2459V63.7317H57.8459ZM65.802 63.8217C65.2553 63.8217 64.792 63.685 64.412 63.4117C64.0386 63.1317 63.7553 62.7217 63.562 62.1817C63.3686 61.6417 63.272 60.9817 63.272 60.2017C63.272 59.415 63.3686 58.755 63.562 58.2217C63.7553 57.6817 64.0386 57.275 64.412 57.0017C64.792 56.7284 65.2553 56.5917 65.802 56.5917C66.3553 56.5917 66.8186 56.7284 67.192 57.0017C67.572 57.275 67.8553 57.6784 68.042 58.2117C68.2353 58.745 68.332 59.405 68.332 60.1917C68.332 60.9717 68.2353 61.635 68.042 62.1817C67.8486 62.7217 67.5653 63.1317 67.192 63.4117C66.8186 63.685 66.3553 63.8217 65.802 63.8217ZM65.802 62.9317C66.3086 62.9317 66.682 62.7117 66.922 62.2717C67.1686 61.825 67.292 61.1317 67.292 60.1917C67.292 59.2517 67.1686 58.565 66.922 58.1317C66.682 57.6984 66.3086 57.4817 65.802 57.4817C65.302 57.4817 64.9286 57.7017 64.682 58.1417C64.4353 58.575 64.312 59.2584 64.312 60.1917C64.312 61.1317 64.432 61.825 64.672 62.2717C64.9186 62.7117 65.2953 62.9317 65.802 62.9317Z" fill="#667085"/>
<defs>
<filter id="filter0_d_8334_725" x="0" y="0.0749512" width="101.04" height="85.8501" filterUnits="userSpaceOnUse" color-interpolation-filters="sRGB">
<feFlood flood-opacity="0" result="BackgroundImageFix"/>
<feColorMatrix in="SourceAlpha" type="matrix" values="0 0 0 0 0 0 0 0 0 0 0 0 0 0 0 0 0 0 127 0" result="hardAlpha"/>
<feOffset dy="4"/>
<feGaussianBlur stdDeviation="2"/>
<feComposite in2="hardAlpha" operator="out"/>
<feColorMatrix type="matrix" values="0 0 0 0 0 0 0 0 0 0 0 0 0 0 0 0 0 0 0.25 0"/>
<feBlend mode="normal" in2="BackgroundImageFix" result="effect1_dropShadow_8334_725"/>
<feBlend mode="normal" in="SourceGraphic" in2="effect1_dropShadow_8334_725" result="shape"/>
</filter>
</defs>
</svg>
