<svg width="96" height="86" viewBox="0 0 96 86" fill="none" xmlns="http://www.w3.org/2000/svg">
<g filter="url(#filter0_d_8310_982)">
<path d="M5.37285 42.5185C4.62083 41.2089 4.24484 40.5536 4.09767 39.8574C3.96744 39.2412 3.96744 38.6048 4.09767 37.9886C4.24484 37.2924 4.62083 36.6371 5.37285 35.3274L23.5901 3.59555C24.3421 2.28569 24.7181 1.63076 25.2442 1.15444C25.7096 0.732998 26.2579 0.414612 26.8535 0.220002C27.5267 -2.00917e-07 28.2787 0 29.7827 0H66.2171C67.7214 0 68.4731 -2.00917e-07 69.1466 0.220002C69.7419 0.414612 70.2903 0.732998 70.756 1.15444C71.282 1.63076 71.6578 2.28569 72.41 3.59555L90.6271 35.3274C91.3792 36.6371 91.7551 37.2924 91.9021 37.9886C92.0326 38.6048 92.0326 39.2412 91.9021 39.8574C91.7551 40.5536 91.3792 41.2089 90.6271 42.5185L72.41 74.2506C71.6578 75.5603 71.282 76.2151 70.756 76.6915C70.2903 77.1131 69.7419 77.4313 69.1466 77.6259C68.4731 77.8462 67.7214 77.8462 66.2171 77.8462H29.7827C28.2787 77.8462 27.5267 77.8462 26.8535 77.6259C26.2579 77.4313 25.7096 77.1131 25.2442 76.6915C24.7181 76.2151 24.3421 75.5603 23.5901 74.2506L5.37285 42.5185Z" fill="white"/>
</g>
<path d="M46.5432 36.1574L36.0476 25.6618C35.1147 24.7288 35.1147 23.2711 36.0476 22.3382L46.5432 11.8425C47.4762 10.9096 48.9339 10.9096 49.8669 11.8425L60.3625 22.3382C61.2954 23.2711 61.2954 24.7288 60.3625 25.6618L49.8669 36.1574C48.9339 37.0903 47.4179 37.0903 46.5432 36.1574Z" fill="#F2BB41"/>
<path d="M48.1754 25.1948C48.8195 25.1948 49.3416 24.6727 49.3416 24.0287C49.3416 23.3846 48.8195 22.8625 48.1754 22.8625C47.5314 22.8625 47.0093 23.3846 47.0093 24.0287C47.0093 24.6727 47.5314 25.1948 48.1754 25.1948Z" fill="#E08838"/>
<path d="M52.84 25.1948C53.484 25.1948 54.0061 24.6727 54.0061 24.0287C54.0061 23.3846 53.484 22.8625 52.84 22.8625C52.1959 22.8625 51.6738 23.3846 51.6738 24.0287C51.6738 24.6727 52.1959 25.1948 52.84 25.1948Z" fill="#E08838"/>
<path d="M43.5109 25.1948C44.1549 25.1948 44.677 24.6727 44.677 24.0287C44.677 23.3846 44.1549 22.8625 43.5109 22.8625C42.8668 22.8625 42.3447 23.3846 42.3447 24.0287C42.3447 24.6727 42.8668 25.1948 43.5109 25.1948Z" fill="#E08838"/>
<path d="M29.9189 47.756H31.5569V52.838C31.5569 53.314 31.6129 53.398 31.9349 53.398C32.0749 53.398 32.6489 53.398 32.8309 53.398C33.1669 53.398 33.2369 53.09 33.2929 51.228C33.6149 51.508 34.3289 51.788 34.7629 51.9C34.6229 54.252 34.2169 54.924 32.9989 54.924C32.7189 54.924 31.9349 54.924 31.6549 54.924C30.2549 54.924 29.9189 54.406 29.9189 52.838V47.756ZM25.2989 45.32H34.5529V46.916H25.2989V45.32ZM28.1409 42.31H29.8209C29.7929 47.686 29.7229 52.572 25.9989 55.274C25.7329 54.84 25.2009 54.266 24.7669 53.958C28.2389 51.578 28.1129 47.266 28.1409 42.31ZM30.9269 43.22L32.1029 42.394C32.7329 43.01 33.5449 43.878 33.9369 44.452L32.6909 45.39C32.3549 44.802 31.5569 43.878 30.9269 43.22ZM24.5709 42.156L26.1529 42.66C25.2849 45.026 23.8709 47.56 22.3869 49.17C22.2329 48.764 21.7709 47.84 21.4769 47.42C22.7089 46.146 23.8849 44.158 24.5709 42.156ZM23.1569 46.048L24.7529 44.452V44.466V55.246H23.1569V46.048ZM43.0649 49.142H44.7589V52.936C44.7589 53.398 44.8289 53.454 45.2629 53.454C45.4589 53.454 46.2429 53.454 46.4809 53.454C46.9009 53.454 46.9709 53.202 47.0269 51.55C47.3769 51.816 48.1049 52.096 48.5669 52.208C48.3989 54.448 47.9509 55.05 46.6349 55.05C46.3129 55.05 45.3189 55.05 45.0109 55.05C43.4289 55.05 43.0649 54.518 43.0649 52.936V49.142ZM35.9249 47.896H48.4269V49.52H35.9249V47.896ZM38.2349 44.004H47.3209V45.614H38.2349V44.004ZM39.2989 49.17H41.0629C40.7969 51.816 40.1389 54.056 36.7649 55.33C36.5689 54.882 36.0929 54.196 35.7009 53.86C38.6969 52.894 39.0889 51.158 39.2989 49.17ZM38.2209 42.31L39.9289 42.646C39.4809 44.298 38.7669 46.314 37.8289 47.546C37.4369 47.294 36.7509 46.944 36.3309 46.79C37.2549 45.642 37.9129 43.752 38.2209 42.31ZM41.3289 42.114H43.0369V48.4H41.3289V42.114ZM56.1829 43.626L57.8489 43.696C57.6109 48.736 57.0089 52.768 55.0069 55.302C54.7269 55.05 53.9429 54.504 53.5369 54.294C55.5249 52.096 56.0429 48.246 56.1829 43.626ZM54.7829 42.982H60.3269V44.536H54.7829V42.982ZM59.5989 46.58H61.2509V48.022H59.1649L59.5989 46.58ZM60.8029 46.58H61.1109L61.4049 46.51L62.4409 46.916C61.6429 51.074 59.6689 53.86 57.1629 55.274C56.9249 54.896 56.3369 54.266 55.9869 54C58.4229 52.782 60.1869 50.388 60.8029 46.902V46.58ZM57.4849 47.28C58.3949 50.136 60.2709 52.684 62.8749 53.86C62.5109 54.168 62.0069 54.784 61.7689 55.204C59.0109 53.79 57.1629 51.032 56.0569 47.686L57.4849 47.28ZM59.5569 42.982H61.2509C60.8449 44.676 60.2849 46.734 59.8929 48.022H58.2409C58.6889 46.678 59.2209 44.606 59.5569 42.982ZM50.0229 51.774C49.9389 51.466 49.7009 50.724 49.5189 50.318C49.8829 50.234 50.2049 49.912 50.6529 49.38C51.1429 48.862 52.6129 46.874 53.5509 44.928L54.8949 45.782C53.8309 47.672 52.4309 49.576 51.0589 50.962V50.99C51.0589 50.99 50.0229 51.48 50.0229 51.774ZM50.0229 51.774L49.8689 50.402L50.5409 49.87L54.5169 48.834C54.4889 49.254 54.5309 49.898 54.5869 50.248C50.9749 51.284 50.4009 51.508 50.0229 51.774ZM49.9389 48.218C49.8549 47.896 49.6029 47.126 49.4209 46.706C49.7149 46.622 49.9529 46.328 50.2749 45.866C50.5829 45.418 51.5629 43.668 52.0809 42.016L53.6209 42.744C52.9209 44.396 51.8569 46.16 50.8209 47.392V47.42C50.8209 47.42 49.9389 47.938 49.9389 48.218ZM49.9389 48.218L49.8969 47.042L50.5829 46.594L52.9349 46.412C52.8509 46.818 52.7809 47.42 52.7669 47.756C50.6669 47.98 50.2189 48.092 49.9389 48.218ZM49.7009 52.964C50.8909 52.586 52.7389 51.872 54.4749 51.186L54.8109 52.628C53.2009 53.328 51.4789 54.056 50.1069 54.63L49.7009 52.964ZM68.4847 54V52.782H70.7247V45.362H71.4527L68.9747 46.902L68.3867 45.824L71.1447 44.13H72.1667V52.782H74.2667V54H68.4847Z" fill="black"/>
<path d="M34.265 68.92H43.395V69.87H34.265V68.92ZM38.175 68.08H39.435V70.9H38.175V68.08ZM36.515 67.21V67.68H41.105V67.21H36.515ZM36.515 65.99V66.46H41.105V65.99H36.515ZM35.345 65.19H42.325V68.48H35.345V65.19ZM34.945 62.17H42.765V63.11H34.945V62.17ZM34.305 63.85H43.345V64.79H34.305V63.85ZM38.165 61.51H39.435V62.84H38.165V61.51ZM40.215 62.9L41.495 63.12C41.285 63.53 41.095 63.88 40.945 64.14L39.805 63.93C39.945 63.63 40.125 63.2 40.215 62.9ZM36.265 63.15L37.425 62.95C37.615 63.23 37.795 63.63 37.855 63.91L36.645 64.16C36.595 63.88 36.435 63.45 36.265 63.15ZM51.295 65.09H52.555V68.28C52.555 68.92 52.425 69.28 51.955 69.47C51.495 69.67 50.835 69.67 49.895 69.67C49.855 69.29 49.705 68.76 49.555 68.4C50.125 68.43 50.855 68.43 51.035 68.42C51.225 68.42 51.295 68.38 51.295 68.24V65.09ZM47.145 65.86H48.415V70.87H47.145V65.86ZM44.775 65.09H51.845V66.24H44.775V65.09ZM44.325 62.5H53.355V63.64H44.325V62.5ZM46.475 61.51H47.715V64.6H46.475V61.51ZM49.995 61.51H51.265V64.6H49.995V61.51ZM59.6592 70.09C59.3525 70.09 59.0525 70.06 58.7592 70C58.4725 69.9333 58.2025 69.8367 57.9492 69.71C57.7025 69.5833 57.4825 69.4333 57.2892 69.26L57.6692 68.44C57.9758 68.6933 58.2925 68.88 58.6192 69C58.9458 69.12 59.2892 69.18 59.6492 69.18C60.1092 69.18 60.4692 69.06 60.7292 68.82C60.9892 68.58 61.1192 68.2533 61.1192 67.84C61.1192 67.4133 60.9958 67.0733 60.7492 66.82C60.5025 66.5667 60.1625 66.44 59.7292 66.44C59.4292 66.44 59.1592 66.5 58.9192 66.62C58.6858 66.7333 58.4692 66.92 58.2692 67.18H57.4992V62.95H61.7492V63.85H58.4992V66.33H58.3292C58.4958 66.09 58.7192 65.9 58.9992 65.76C59.2858 65.62 59.6025 65.55 59.9492 65.55C60.3958 65.55 60.7825 65.6467 61.1092 65.84C61.4358 66.0267 61.6892 66.2867 61.8692 66.62C62.0492 66.9533 62.1392 67.3433 62.1392 67.79C62.1392 68.25 62.0392 68.6533 61.8392 69C61.6392 69.3467 61.3525 69.6167 60.9792 69.81C60.6058 69.9967 60.1658 70.09 59.6592 70.09Z" fill="#667085"/>
<defs>
<filter id="filter0_d_8310_982" x="0" y="0" width="96" height="85.8462" filterUnits="userSpaceOnUse" color-interpolation-filters="sRGB">
<feFlood flood-opacity="0" result="BackgroundImageFix"/>
<feColorMatrix in="SourceAlpha" type="matrix" values="0 0 0 0 0 0 0 0 0 0 0 0 0 0 0 0 0 0 127 0" result="hardAlpha"/>
<feOffset dy="4"/>
<feGaussianBlur stdDeviation="2"/>
<feComposite in2="hardAlpha" operator="out"/>
<feColorMatrix type="matrix" values="0 0 0 0 0 0 0 0 0 0 0 0 0 0 0 0 0 0 0.25 0"/>
<feBlend mode="normal" in2="BackgroundImageFix" result="effect1_dropShadow_8310_982"/>
<feBlend mode="normal" in="SourceGraphic" in2="effect1_dropShadow_8310_982" result="shape"/>
</filter>
</defs>
</svg>
