<svg width="102" height="92" viewBox="0 0 102 92" fill="none" xmlns="http://www.w3.org/2000/svg">
<g filter="url(#filter0_d_8310_900)">
<path d="M5.49766 45.8797C4.67727 44.4665 4.2671 43.7594 4.10655 43.0082C3.96448 42.3433 3.96448 41.6565 4.10655 40.9916C4.2671 40.2404 4.67727 39.5333 5.49766 38.1201L25.371 3.87978C26.1914 2.46638 26.6016 1.75968 27.1754 1.2457C27.6832 0.790942 28.2813 0.447387 28.9311 0.237394C29.6655 -2.168e-07 30.4859 0 32.1266 0H71.8732C73.5143 0 74.3343 -2.168e-07 75.069 0.237394C75.7185 0.447387 76.3167 0.790942 76.8247 1.2457C77.3985 1.75968 77.8085 2.46638 78.6291 3.87978L98.5023 38.1201C99.3228 39.5333 99.7328 40.2404 99.8932 40.9916C100.036 41.6565 100.036 42.3433 99.8932 43.0082C99.7328 43.7594 99.3228 44.4665 98.5023 45.8797L78.6291 80.1202C77.8085 81.5334 77.3985 82.24 76.8247 82.7541C76.3167 83.209 75.7185 83.5524 75.069 83.7624C74.3343 84 73.5143 84 71.8732 84H32.1266C30.4859 84 29.6655 84 28.9311 83.7624C28.2813 83.5524 27.6832 83.209 27.1754 82.7541C26.6016 82.24 26.1914 81.5334 25.371 80.1202L5.49766 45.8797Z" fill="white"/>
</g>
<path d="M56.2525 29.7959L56.5876 29.1493C56.694 28.9416 56.7931 28.7375 56.8862 28.5293C57.0689 28.1147 57.2182 27.6937 57.3123 27.2777C57.5036 26.438 57.404 25.6678 56.8935 25.0975C56.3831 24.5157 55.5402 24.1253 54.669 23.8532C52.8142 23.3194 50.9176 22.7254 49.0825 22.0287C48.6218 21.8538 48.1634 21.6721 47.7067 21.4785C47.257 21.2895 46.7694 21.0685 46.3232 20.7694C45.8822 20.4712 45.4197 20.074 45.1809 19.4649C45.0626 19.1654 45.0315 18.8266 45.0713 18.5188C45.1115 18.2102 45.2119 17.9293 45.3366 17.6791C45.596 17.1663 45.9142 16.7965 46.2009 16.3997L47.0936 15.2354L48.8977 12.9313L51.9692 9.06715L49.6277 9C49.6277 9 44.2941 13.9048 41.9134 17.0001C39.8436 19.6904 40.9741 22.0675 44.7183 23.6664C47.8784 25.0166 50.8363 26.0617 50.8363 26.0617C51.3459 26.3256 51.7084 26.7882 51.8289 27.3279C51.9495 27.8681 51.8162 28.4302 51.4632 28.8689L43.3156 39H51.4445L54.9019 32.3866L56.2525 29.7959Z" fill="#F2BB41"/>
<path d="M64.0727 24.2944C62.938 22.3963 60.9957 21.0576 58.7455 20.6224L50.7737 18.9417C50.4413 18.8778 50.1619 18.6668 50.0208 18.3737C49.8797 18.081 49.8948 17.7417 50.0605 17.4609L55.3599 9.16403L52.7787 9.09009L49.5154 13.4068L47.7721 15.7482L46.9151 16.9249C46.6393 17.3208 46.3352 17.7121 46.1676 18.0783C45.9891 18.4568 45.9443 18.8175 46.0731 19.117C46.1973 19.4239 46.5009 19.7092 46.8671 19.9385C47.2379 20.1732 47.6457 20.3498 48.0977 20.527C48.5424 20.7028 48.9936 20.8695 49.4479 21.0293C51.2734 21.6708 53.1121 22.1986 55.0143 22.6968C55.9896 22.9872 57.022 23.3762 57.8443 24.2438C58.2452 24.678 58.5443 25.2483 58.6579 25.8386C58.7748 26.4295 58.7365 27.0112 58.6342 27.5491C58.5265 28.0865 58.358 28.5915 58.1603 29.0727C58.0603 29.312 57.9525 29.549 57.842 29.7773L57.5206 30.4361L56.2325 33.0611L53.3097 39.0001H61.5495L64.6662 30.5247C65.4238 28.4636 65.2073 26.1924 64.0727 24.2944Z" fill="#F2BB41"/>
<path d="M29.634 43.486H38.566V45.012H29.634V43.486ZM31.468 47.364V48.75H36.578V47.364H31.468ZM29.942 45.992H38.188V50.122H29.942V45.992ZM31.258 50.262C32.504 52.278 35.15 53.412 38.776 53.748C38.426 54.112 38.006 54.784 37.796 55.246C34.002 54.728 31.412 53.314 29.886 50.682L31.258 50.262ZM33.176 42.198H34.828V48.596C34.828 51.452 34.114 54.056 30.096 55.26C29.9 54.882 29.41 54.21 29.046 53.86C32.812 53.02 33.176 50.878 33.176 48.582V42.198ZM28.57 42.072L30.138 42.576C29.186 44.956 27.646 47.462 26.05 49.044C25.91 48.652 25.462 47.728 25.182 47.322C26.512 46.062 27.814 44.074 28.57 42.072ZM27.212 45.978L28.794 44.382L28.808 44.396V55.288H27.212V45.978ZM41.94 43.052H50.536V44.648H41.94V43.052ZM41.94 46.272H50.564V47.84H41.94V46.272ZM41.912 49.576H50.62V51.158H41.912V49.576ZM40.974 43.052H42.64V48.092C42.64 50.318 42.36 53.468 40.638 55.344C40.372 55.022 39.686 54.462 39.322 54.252C40.848 52.558 40.974 50.052 40.974 48.078V43.052ZM49.948 43.052H51.614V53.286C51.614 54.182 51.418 54.63 50.858 54.896C50.27 55.162 49.43 55.19 48.156 55.176C48.086 54.728 47.834 54 47.61 53.566C48.408 53.622 49.332 53.608 49.584 53.608C49.85 53.594 49.948 53.51 49.948 53.272V43.052ZM45.286 43.682H46.994V55.092H45.286V43.682ZM57.368 43.64H66.342V44.998H57.368V43.64ZM60.868 44.298L62.8 44.41C62.52 45.166 62.142 45.922 61.876 46.426L60.518 46.188C60.658 45.628 60.812 44.844 60.868 44.298ZM63.234 42.1L64.928 42.464C64.536 43.08 64.158 43.668 63.85 44.074L62.45 43.724C62.716 43.262 63.066 42.576 63.234 42.1ZM58.67 42.618L59.986 42.128C60.378 42.548 60.77 43.15 60.91 43.57L59.524 44.116C59.398 43.71 59.034 43.066 58.67 42.618ZM56.878 47.574V52.726H55.24V49.128H53.602V47.574H56.878ZM56.878 51.998C57.438 52.922 58.502 53.328 59.958 53.384C61.596 53.454 64.774 53.412 66.664 53.258C66.482 53.65 66.202 54.462 66.132 54.966C64.438 55.05 61.61 55.078 59.93 55.008C58.208 54.938 57.046 54.532 56.136 53.44C55.52 53.986 54.89 54.518 54.134 55.134L53.308 53.384C53.938 52.992 54.694 52.502 55.338 51.998H56.878ZM53.63 43.444L54.876 42.436C55.716 43.024 56.738 43.906 57.228 44.564L55.884 45.67C55.464 45.012 54.456 44.074 53.63 43.444ZM59.902 48.806V49.534H63.724V48.806H59.902ZM59.902 50.654V51.396H63.724V50.654H59.902ZM59.902 46.958V47.686H63.724V46.958H59.902ZM58.32 45.74H65.376V52.614H58.32V45.74ZM74.616 53.314H79.026V54.756H74.616V53.314ZM75.218 43.444H78.774V44.872H75.218V43.444ZM73.93 50.038H79.712V55.176H78.116V51.452H75.47V55.218H73.93V50.038ZM78.186 43.444H78.48L78.774 43.388L79.838 43.836C78.816 47.35 76.45 49.59 73.608 50.794C73.412 50.402 72.992 49.828 72.656 49.52C75.19 48.596 77.402 46.454 78.186 43.71V43.444ZM75.274 42.1L76.87 42.492C76.24 44.382 75.204 46.202 74.07 47.35C73.79 47.056 73.146 46.51 72.768 46.272C73.86 45.292 74.784 43.724 75.274 42.1ZM75.316 44.228C76.114 46.118 77.934 48.288 80.79 49.184C80.454 49.506 79.978 50.164 79.754 50.598C76.87 49.478 75.036 47.028 74.182 44.956L75.316 44.228ZM67.98 48.288H69.352V53.384H67.98V48.288ZM69.548 44.074V45.852H71.396V44.074H69.548ZM68.092 42.632H72.936V47.294H68.092V42.632ZM70.052 46.706H71.536V52.964H70.052V46.706ZM67.364 53.118C68.848 52.852 71.088 52.362 73.188 51.886L73.342 53.37C71.368 53.86 69.24 54.364 67.644 54.728L67.364 53.118ZM70.64 48.932H73.076V50.402H70.64V48.932Z" fill="black"/>
<path d="M39.0599 68.92H48.1899V69.87H39.0599V68.92ZM42.9699 68.08H44.2299V70.9H42.9699V68.08ZM41.3099 67.21V67.68H45.8999V67.21H41.3099ZM41.3099 65.99V66.46H45.8999V65.99H41.3099ZM40.1399 65.19H47.1199V68.48H40.1399V65.19ZM39.7399 62.17H47.5599V63.11H39.7399V62.17ZM39.0999 63.85H48.1399V64.79H39.0999V63.85ZM42.9599 61.51H44.2299V62.84H42.9599V61.51ZM45.0099 62.9L46.2899 63.12C46.0799 63.53 45.8899 63.88 45.7399 64.14L44.5999 63.93C44.7399 63.63 44.9199 63.2 45.0099 62.9ZM41.0599 63.15L42.2199 62.95C42.4099 63.23 42.5899 63.63 42.6499 63.91L41.4399 64.16C41.3899 63.88 41.2299 63.45 41.0599 63.15ZM56.0899 65.09H57.3499V68.28C57.3499 68.92 57.2199 69.28 56.7499 69.47C56.2899 69.67 55.6299 69.67 54.6899 69.67C54.6499 69.29 54.4999 68.76 54.3499 68.4C54.9199 68.43 55.6499 68.43 55.8299 68.42C56.0199 68.42 56.0899 68.38 56.0899 68.24V65.09ZM51.9399 65.86H53.2099V70.87H51.9399V65.86ZM49.5699 65.09H56.6399V66.24H49.5699V65.09ZM49.1199 62.5H58.1499V63.64H49.1199V62.5ZM51.2699 61.51H52.5099V64.6H51.2699V61.51ZM54.7899 61.51H56.0599V64.6H54.7899V61.51ZM64.264 70.09C63.9507 70.09 63.644 70.06 63.344 70C63.0507 69.94 62.774 69.85 62.514 69.73C62.2607 69.6033 62.034 69.45 61.834 69.27L62.204 68.45C62.524 68.71 62.8507 68.8967 63.184 69.01C63.524 69.1233 63.874 69.18 64.234 69.18C64.534 69.18 64.794 69.14 65.014 69.06C65.234 68.9733 65.404 68.8433 65.524 68.67C65.644 68.49 65.704 68.27 65.704 68.01C65.704 67.6367 65.5774 67.3567 65.324 67.17C65.0774 66.9767 64.714 66.88 64.234 66.88H63.134V65.99H64.114C64.394 65.99 64.6374 65.9433 64.844 65.85C65.0574 65.7567 65.2207 65.6233 65.334 65.45C65.454 65.27 65.514 65.0533 65.514 64.8C65.514 64.46 65.3974 64.2033 65.164 64.03C64.9374 63.8567 64.624 63.77 64.224 63.77C63.8707 63.77 63.534 63.83 63.214 63.95C62.9007 64.07 62.604 64.2633 62.324 64.53L61.954 63.72C62.234 63.44 62.5807 63.2267 62.994 63.08C63.414 62.9333 63.8474 62.86 64.294 62.86C64.7607 62.86 65.1607 62.9333 65.494 63.08C65.834 63.22 66.094 63.4267 66.274 63.7C66.454 63.9733 66.544 64.3033 66.544 64.69C66.544 65.1033 66.4307 65.4633 66.204 65.77C65.9774 66.07 65.664 66.2767 65.264 66.39V66.33C65.564 66.39 65.824 66.4967 66.044 66.65C66.264 66.8033 66.434 67 66.554 67.24C66.674 67.48 66.734 67.76 66.734 68.08C66.734 68.5 66.6307 68.86 66.424 69.16C66.224 69.46 65.9407 69.69 65.574 69.85C65.2074 70.01 64.7707 70.09 64.264 70.09Z" fill="#667085"/>
<defs>
<filter id="filter0_d_8310_900" x="0" y="0" width="104" height="92" filterUnits="userSpaceOnUse" color-interpolation-filters="sRGB">
<feFlood flood-opacity="0" result="BackgroundImageFix"/>
<feColorMatrix in="SourceAlpha" type="matrix" values="0 0 0 0 0 0 0 0 0 0 0 0 0 0 0 0 0 0 127 0" result="hardAlpha"/>
<feOffset dy="4"/>
<feGaussianBlur stdDeviation="2"/>
<feComposite in2="hardAlpha" operator="out"/>
<feColorMatrix type="matrix" values="0 0 0 0 0 0 0 0 0 0 0 0 0 0 0 0 0 0 0.25 0"/>
<feBlend mode="normal" in2="BackgroundImageFix" result="effect1_dropShadow_8310_900"/>
<feBlend mode="normal" in="SourceGraphic" in2="effect1_dropShadow_8310_900" result="shape"/>
</filter>
</defs>
</svg>
