<svg width="96" height="89" viewBox="0 0 96 89" fill="none" xmlns="http://www.w3.org/2000/svg">
<g filter="url(#filter0_d_8339_572)">
<path d="M5.37285 45.5185C4.62083 44.2089 4.24484 43.5536 4.09767 42.8574C3.96744 42.2412 3.96744 41.6048 4.09767 40.9886C4.24484 40.2924 4.62083 39.6371 5.37285 38.3274L23.5901 6.59555C24.3421 5.28569 24.7181 4.63076 25.2442 4.15444C25.7096 3.733 26.2579 3.41461 26.8535 3.22C27.5267 3 28.2787 3 29.7827 3H66.2171C67.7214 3 68.4731 3 69.1466 3.22C69.7419 3.41461 70.2903 3.733 70.756 4.15444C71.282 4.63076 71.6578 5.28569 72.41 6.59555L90.6271 38.3274C91.3792 39.6371 91.7551 40.2924 91.9021 40.9886C92.0326 41.6048 92.0326 42.2412 91.9021 42.8574C91.7551 43.5536 91.3792 44.2089 90.6271 45.5185L72.41 77.2506C71.6578 78.5603 71.282 79.2151 70.756 79.6915C70.2903 80.1131 69.7419 80.4313 69.1466 80.6259C68.4731 80.8462 67.7214 80.8462 66.2171 80.8462H29.7827C28.2787 80.8462 27.5267 80.8462 26.8535 80.6259C26.2579 80.4313 25.7096 80.1131 25.2442 79.6915C24.7181 79.2151 24.3421 78.5603 23.5901 77.2506L5.37285 45.5185Z" fill="white"/>
</g>
<g clip-path="url(#clip0_8339_572)">
<path d="M55.4134 14.7344C54.6686 11.3743 53.9238 8.01412 53.1786 4.65405C51.921 4.65405 50.6635 4.65405 49.4061 4.65405C49.5858 8.01419 49.7658 11.3743 49.9456 14.7344H55.4134Z" fill="#F2BB41"/>
<path d="M50.2325 20.0984C50.4691 24.5143 50.7054 28.9301 50.9416 33.346C53.8072 33.346 56.6728 33.346 59.5384 33.346C58.5594 28.9301 57.5809 24.5143 56.6024 20.0984H50.2325Z" fill="#F2BB41"/>
<path d="M47.0039 4.65405C45.7464 4.65405 44.4888 4.65405 43.2315 4.65405C42.4866 8.01412 41.7422 11.3743 40.9974 14.7344H46.4649C46.6444 11.3743 46.824 8.01412 47.0039 4.65405Z" fill="#F2BB41"/>
<path d="M36.8717 33.346C39.7375 33.346 42.6029 33.346 45.4685 33.346C45.7056 28.9301 45.9419 24.5143 46.1778 20.0984H39.8087C38.83 24.5143 37.8512 28.9302 36.8717 33.346Z" fill="#F2BB41"/>
<path d="M62.8569 16.1272H33.5532C33.3609 16.1272 33.2051 16.2831 33.2051 16.4753V18.3575C33.2051 18.5497 33.3609 18.7056 33.5532 18.7056H35.4374V21.5247C35.4374 21.717 35.5932 21.8729 35.7855 21.8729H37.6658C37.8251 21.8729 37.964 21.7648 38.0031 21.6106L38.7417 18.7058H57.6684L58.4068 21.6106C58.4459 21.7649 58.585 21.8729 58.7443 21.8729H60.6243C60.8168 21.8729 60.9725 21.717 60.9725 21.5247V18.7056H62.8568C63.0491 18.7056 63.205 18.5497 63.205 18.3575V16.4753C63.2051 16.2831 63.0491 16.1272 62.8569 16.1272Z" fill="#F2BB41"/>
</g>
<path d="M14.0451 34.276H26.3371V35.704H14.0451V34.276ZM19.2391 33.086H20.9751V34.99H19.2391V33.086ZM14.6051 39.932H24.8391V41.318H16.2431V46.274H14.6051V39.932ZM24.2091 39.932H25.9031V44.496C25.9031 45.266 25.7491 45.714 25.2031 45.966C24.6711 46.218 23.9291 46.246 22.9211 46.246C22.8651 45.77 22.6271 45.098 22.4031 44.664C23.0331 44.692 23.7471 44.692 23.9431 44.678C24.1531 44.678 24.2091 44.622 24.2091 44.454V39.932ZM17.5031 41.962H18.9591V45.742H17.5031V41.962ZM18.2311 41.962H22.8791V45.098H18.2311V43.978H21.3951V43.082H18.2311V41.962ZM17.9371 37.37V38.21H22.3471V37.37H17.9371ZM16.3411 36.25H24.0411V39.344H16.3411V36.25ZM31.0831 38.574V43.726H29.4451V40.128H27.8071V38.574H31.0831ZM31.0831 42.998C31.6431 43.922 32.7071 44.328 34.1631 44.384C35.8011 44.454 38.9791 44.412 40.8691 44.258C40.6871 44.65 40.4071 45.462 40.3371 45.966C38.6431 46.05 35.8151 46.078 34.1351 46.008C32.4131 45.938 31.2511 45.532 30.3411 44.44C29.7251 44.986 29.0951 45.518 28.3391 46.134L27.5131 44.384C28.1431 43.992 28.8991 43.502 29.5431 42.998H31.0831ZM27.8351 34.444L29.0811 33.436C29.9211 34.024 30.9431 34.906 31.4331 35.564L30.0891 36.67C29.6691 36.012 28.6611 35.074 27.8351 34.444ZM33.6871 37.776V38.994H38.3491V37.776H33.6871ZM32.1331 36.488H39.9871V40.268H32.1331V36.488ZM31.6991 34.332H40.4631V35.732H31.6991V34.332ZM35.1571 33.128H36.7811V44.006H35.1571V33.128ZM34.7091 39.834L35.9271 40.268C35.1431 41.71 33.7851 43.068 32.3711 43.782C32.1471 43.39 31.6571 42.802 31.3071 42.508C32.6371 41.976 34.0091 40.912 34.7091 39.834ZM36.9771 39.82C37.7891 40.856 39.3151 41.892 40.6731 42.424C40.2951 42.746 39.7911 43.334 39.5391 43.74C38.1811 43.026 36.6971 41.64 35.8291 40.31L36.9771 39.82ZM46.8051 38.224L48.8211 38.714C47.8971 40.912 46.6511 43.376 45.6151 44.986L44.0611 44.496C45.0691 42.802 46.2031 40.226 46.8051 38.224ZM42.4371 43.978C45.0831 43.894 49.1851 43.698 52.8531 43.516L52.8111 45.154C49.2131 45.406 45.3211 45.616 42.6611 45.756L42.4371 43.978ZM49.5211 41.318L51.1591 40.562C52.3911 42.074 53.7071 44.062 54.3791 45.406L52.6431 46.33C52.0551 44.986 50.6971 42.858 49.5211 41.318ZM45.3211 33.436L47.2391 33.968C46.3431 36.18 44.8731 38.35 43.4451 39.694C43.0811 39.344 42.2691 38.728 41.8071 38.448C43.2631 37.3 44.5931 35.382 45.3211 33.436ZM50.9631 33.45C51.7891 35.102 53.3851 37.062 54.6731 38.238C54.2111 38.588 53.5671 39.26 53.2451 39.708C51.9291 38.294 50.3191 36.082 49.2831 34.136L50.9631 33.45ZM62.8211 44.314H67.2311V45.756H62.8211V44.314ZM63.4231 34.444H66.9791V35.872H63.4231V34.444ZM62.1351 41.038H67.9171V46.176H66.3211V42.452H63.6751V46.218H62.1351V41.038ZM66.3911 34.444H66.6851L66.9791 34.388L68.0431 34.836C67.0211 38.35 64.6551 40.59 61.8131 41.794C61.6171 41.402 61.1971 40.828 60.8611 40.52C63.3951 39.596 65.6071 37.454 66.3911 34.71V34.444ZM63.4791 33.1L65.0751 33.492C64.4451 35.382 63.4091 37.202 62.2751 38.35C61.9951 38.056 61.3511 37.51 60.9731 37.272C62.0651 36.292 62.9891 34.724 63.4791 33.1ZM63.5211 35.228C64.3191 37.118 66.1391 39.288 68.9951 40.184C68.6591 40.506 68.1831 41.164 67.9591 41.598C65.0751 40.478 63.2411 38.028 62.3871 35.956L63.5211 35.228ZM56.1851 39.288H57.5571V44.384H56.1851V39.288ZM57.7531 35.074V36.852H59.6011V35.074H57.7531ZM56.2971 33.632H61.1411V38.294H56.2971V33.632ZM58.2571 37.706H59.7411V43.964H58.2571V37.706ZM55.5691 44.118C57.0531 43.852 59.2931 43.362 61.3931 42.886L61.5471 44.37C59.5731 44.86 57.4451 45.364 55.8491 45.728L55.5691 44.118ZM58.8451 39.932H61.2811V41.402H58.8451V39.932ZM77.0311 42.858H81.2171V44.468H77.0311V42.858ZM76.4291 34.43H82.0431V45.476H80.3211V36.026H78.0671V45.574H76.4291V34.43ZM72.3271 34.5H74.0071V46.246H72.3271V34.5ZM69.8071 37.286H76.0511V38.84H69.8071V37.286ZM72.2151 37.874L73.3351 38.252C72.7331 40.52 71.6411 43.166 70.3531 44.594C70.1851 44.104 69.7931 43.446 69.5131 43.012C70.6751 41.78 71.7391 39.666 72.2151 37.874ZM75.0151 33.226L76.1071 34.542C74.4551 35.13 72.2291 35.536 70.3251 35.76C70.2551 35.382 70.0451 34.808 69.8631 34.444C71.6971 34.192 73.7411 33.744 75.0151 33.226ZM73.8531 38.924C74.2871 39.33 75.8131 41.08 76.1491 41.5L75.1831 42.886C74.7211 42.032 73.6011 40.436 73.0551 39.722L73.8531 38.924ZM36.1791 60.99C36.1091 60.654 35.8291 59.8 35.6191 59.338C36.2491 59.24 36.7951 58.988 37.7471 58.512C38.8111 58.008 41.9891 56.174 44.2991 54.074L45.7971 55.222C43.1651 57.42 40.1411 59.072 37.3551 60.234V60.29C37.3551 60.29 36.1791 60.682 36.1791 60.99ZM36.1791 60.99L36.1371 59.674L37.2011 59.1L45.3911 58.554C45.1531 58.988 44.9011 59.702 44.8031 60.052C37.8031 60.598 36.8371 60.738 36.1791 60.99ZM36.6831 57.448C36.5991 57.112 36.3331 56.272 36.1511 55.81C36.5571 55.74 36.9211 55.516 37.4391 55.166C38.0131 54.788 39.7211 53.444 40.9111 52.016L42.4371 52.996C41.0511 54.396 39.3571 55.726 37.7611 56.636V56.678C37.7611 56.678 36.6831 57.14 36.6831 57.448ZM36.6831 57.448L36.6411 56.23L37.5091 55.74L43.1091 55.376C42.9971 55.81 42.8991 56.426 42.8851 56.776C37.8731 57.168 37.1591 57.266 36.6831 57.448ZM45.3491 57.532L47.1831 58.12C45.1671 62.474 41.2891 64.364 35.9411 65.26C35.7871 64.812 35.3111 64 35.0031 63.58C40.1831 62.936 43.8091 61.326 45.3491 57.532ZM54.8971 54.97H61.8551V56.566H54.8971V54.97ZM58.7051 52.128H60.4271V63.188C60.4271 64.182 60.2171 64.658 59.6291 64.924C59.0551 65.204 58.1311 65.274 56.8711 65.26C56.8011 64.77 56.5351 63.986 56.2831 63.496C57.1651 63.524 58.0471 63.524 58.3411 63.524C58.6071 63.524 58.7051 63.44 58.7051 63.174V52.128ZM55.0091 58.274L56.3951 57.616C57.1231 58.61 57.8511 59.926 58.1031 60.836L56.5911 61.592C56.3671 60.71 55.6951 59.324 55.0091 58.274ZM48.8351 54.998H54.4911V56.594H48.8351V54.998ZM51.0051 52.114H52.6291V65.26H51.0051V52.114ZM50.9351 56.076L51.9991 56.454C51.4811 58.75 50.4871 61.452 49.2971 62.894C49.1291 62.404 48.7231 61.704 48.4431 61.27C49.5351 60.038 50.5151 57.896 50.9351 56.076ZM52.5731 57.336C52.9931 57.728 54.4071 59.394 54.7151 59.786L53.6931 61.186C53.2591 60.346 52.2371 58.862 51.7191 58.162L52.5731 57.336Z" fill="black"/>
<path d="M34.265 78.92H43.395V79.87H34.265V78.92ZM38.175 78.08H39.435V80.9H38.175V78.08ZM36.515 77.21V77.68H41.105V77.21H36.515ZM36.515 75.99V76.46H41.105V75.99H36.515ZM35.345 75.19H42.325V78.48H35.345V75.19ZM34.945 72.17H42.765V73.11H34.945V72.17ZM34.305 73.85H43.345V74.79H34.305V73.85ZM38.165 71.51H39.435V72.84H38.165V71.51ZM40.215 72.9L41.495 73.12C41.285 73.53 41.095 73.88 40.945 74.14L39.805 73.93C39.945 73.63 40.125 73.2 40.215 72.9ZM36.265 73.15L37.425 72.95C37.615 73.23 37.795 73.63 37.855 73.91L36.645 74.16C36.595 73.88 36.435 73.45 36.265 73.15ZM51.295 75.09H52.555V78.28C52.555 78.92 52.425 79.28 51.955 79.47C51.495 79.67 50.835 79.67 49.895 79.67C49.855 79.29 49.705 78.76 49.555 78.4C50.125 78.43 50.855 78.43 51.035 78.42C51.225 78.42 51.295 78.38 51.295 78.24V75.09ZM47.145 75.86H48.415V80.87H47.145V75.86ZM44.775 75.09H51.845V76.24H44.775V75.09ZM44.325 72.5H53.355V73.64H44.325V72.5ZM46.475 71.51H47.715V74.6H46.475V71.51ZM49.995 71.51H51.265V74.6H49.995V71.51ZM59.5792 80.09C58.7725 80.09 58.1425 79.9167 57.6892 79.57C57.2358 79.2233 57.0092 78.74 57.0092 78.12C57.0092 77.7933 57.0725 77.5067 57.1992 77.26C57.3325 77.0133 57.5125 76.81 57.7392 76.65C57.9725 76.49 58.2358 76.39 58.5292 76.35V76.45C58.2692 76.3833 58.0358 76.27 57.8292 76.11C57.6225 75.95 57.4625 75.7533 57.3492 75.52C57.2358 75.2867 57.1792 75.03 57.1792 74.75C57.1792 74.1567 57.3958 73.6933 57.8292 73.36C58.2625 73.0267 58.8458 72.86 59.5792 72.86C60.3125 72.86 60.8958 73.0267 61.3292 73.36C61.7625 73.6933 61.9792 74.1567 61.9792 74.75C61.9792 75.03 61.9225 75.29 61.8092 75.53C61.6958 75.7633 61.5358 75.96 61.3292 76.12C61.1292 76.2733 60.8958 76.38 60.6292 76.44V76.35C60.9292 76.39 61.1925 76.49 61.4192 76.65C61.6458 76.81 61.8225 77.0167 61.9492 77.27C62.0825 77.5167 62.1492 77.8 62.1492 78.12C62.1492 78.74 61.9225 79.2233 61.4692 79.57C61.0158 79.9167 60.3858 80.09 59.5792 80.09ZM59.5792 79.24C60.0992 79.24 60.4925 79.14 60.7592 78.94C61.0258 78.7333 61.1592 78.4367 61.1592 78.05C61.1592 77.6567 61.0258 77.36 60.7592 77.16C60.4925 76.96 60.0992 76.86 59.5792 76.86C59.0658 76.86 58.6725 76.96 58.3992 77.16C58.1325 77.36 57.9992 77.6567 57.9992 78.05C57.9992 78.4367 58.1325 78.7333 58.3992 78.94C58.6725 79.14 59.0658 79.24 59.5792 79.24ZM59.5792 76C60.0258 76 60.3725 75.9 60.6192 75.7C60.8658 75.4933 60.9892 75.21 60.9892 74.85C60.9892 74.4967 60.8658 74.22 60.6192 74.02C60.3725 73.8133 60.0258 73.71 59.5792 73.71C59.1392 73.71 58.7925 73.8133 58.5392 74.02C58.2925 74.22 58.1692 74.4967 58.1692 74.85C58.1692 75.21 58.2925 75.4933 58.5392 75.7C58.7925 75.9 59.1392 76 59.5792 76Z" fill="#667085"/>
<defs>
<filter id="filter0_d_8339_572" x="0" y="3" width="96" height="85.8462" filterUnits="userSpaceOnUse" color-interpolation-filters="sRGB">
<feFlood flood-opacity="0" result="BackgroundImageFix"/>
<feColorMatrix in="SourceAlpha" type="matrix" values="0 0 0 0 0 0 0 0 0 0 0 0 0 0 0 0 0 0 127 0" result="hardAlpha"/>
<feOffset dy="4"/>
<feGaussianBlur stdDeviation="2"/>
<feComposite in2="hardAlpha" operator="out"/>
<feColorMatrix type="matrix" values="0 0 0 0 0 0 0 0 0 0 0 0 0 0 0 0 0 0 0.25 0"/>
<feBlend mode="normal" in2="BackgroundImageFix" result="effect1_dropShadow_8339_572"/>
<feBlend mode="normal" in="SourceGraphic" in2="effect1_dropShadow_8339_572" result="shape"/>
</filter>
<clipPath id="clip0_8339_572">
<rect width="30" height="30" fill="white" transform="translate(33.2051)"/>
</clipPath>
</defs>
</svg>
