<svg width="96" height="87" viewBox="0 0 96 87" fill="none" xmlns="http://www.w3.org/2000/svg">
<g filter="url(#filter0_d_8310_1103)">
<path d="M5.37285 43.0185C4.62083 41.7089 4.24484 41.0536 4.09767 40.3574C3.96744 39.7412 3.96744 39.1048 4.09767 38.4886C4.24484 37.7924 4.62083 37.1371 5.37285 35.8274L23.5901 4.09555C24.3421 2.78569 24.7181 2.13076 25.2442 1.65444C25.7096 1.233 26.2579 0.914612 26.8535 0.720002C27.5267 0.5 28.2787 0.5 29.7827 0.5H66.2171C67.7214 0.5 68.4731 0.5 69.1466 0.720002C69.7419 0.914612 70.2903 1.233 70.756 1.65444C71.282 2.13076 71.6578 2.78569 72.41 4.09555L90.6271 35.8274C91.3792 37.1371 91.7551 37.7924 91.9021 38.4886C92.0326 39.1048 92.0326 39.7412 91.9021 40.3574C91.7551 41.0536 91.3792 41.7089 90.6271 43.0185L72.41 74.7506C71.6578 76.0603 71.282 76.7151 70.756 77.1915C70.2903 77.6131 69.7419 77.9313 69.1466 78.1259C68.4731 78.3462 67.7214 78.3462 66.2171 78.3462H29.7827C28.2787 78.3462 27.5267 78.3462 26.8535 78.1259C26.2579 77.9313 25.7096 77.6131 25.2442 77.1915C24.7181 76.7151 24.3421 76.0603 23.5901 74.7506L5.37285 43.0185Z" fill="white"/>
</g>
<path d="M58.2051 4H38.2051C36.8244 4 35.7051 5.11929 35.7051 6.5V26.5C35.7051 27.8807 36.8244 29 38.2051 29H58.2051C59.5858 29 60.7051 27.8807 60.7051 26.5V6.5C60.7051 5.11929 59.5858 4 58.2051 4Z" fill="#F2BB41"/>
<path d="M54.4551 17.7499H45.7051V14.5124L46.0676 14.8874C46.1838 15.0046 46.322 15.0976 46.4743 15.161C46.6267 15.2245 46.7901 15.2572 46.9551 15.2572C47.1201 15.2572 47.2835 15.2245 47.4358 15.161C47.5881 15.0976 47.7264 15.0046 47.8426 14.8874C47.9597 14.7712 48.0527 14.633 48.1162 14.4806C48.1796 14.3283 48.2123 14.1649 48.2123 13.9999C48.2123 13.8349 48.1796 13.6715 48.1162 13.5192C48.0527 13.3669 47.9597 13.2286 47.8426 13.1124L45.3426 10.6124C45.2264 10.4953 45.0881 10.4023 44.9358 10.3388C44.7835 10.2753 44.6201 10.2427 44.4551 10.2427C44.2901 10.2427 44.1267 10.2753 43.9743 10.3388C43.822 10.4023 43.6838 10.4953 43.5676 10.6124L41.0676 13.1124C40.951 13.229 40.8586 13.3673 40.7955 13.5196C40.7324 13.6719 40.7 13.8351 40.7 13.9999C40.7 14.3328 40.8322 14.652 41.0676 14.8874C41.3029 15.1228 41.6222 15.255 41.9551 15.255C42.2879 15.255 42.6072 15.1228 42.8426 14.8874L43.2051 14.5124V17.7499C43.2051 18.413 43.4685 19.0488 43.9373 19.5177C44.4061 19.9865 45.042 20.2499 45.7051 20.2499H54.4551C54.7866 20.2499 55.1045 20.1182 55.3389 19.8838C55.5734 19.6494 55.7051 19.3314 55.7051 18.9999C55.7051 18.6684 55.5734 18.3505 55.3389 18.116C55.1045 17.8816 54.7866 17.7499 54.4551 17.7499Z" fill="#E08838"/>
<path d="M19.2251 35.224H29.2331V36.388H19.2251V35.224ZM19.6691 44.068H28.8491V45.244H19.6691V44.068ZM21.7331 36.904H26.6291V37.912H21.7331V36.904ZM21.7331 38.44H26.6291V39.448H21.7331V38.44ZM18.5891 39.976H29.8091V41.152H18.5891V39.976ZM21.3131 42.16H27.1091V43.288H21.3131V42.16ZM20.8811 34.312H22.3331V40.624H20.8811V34.312ZM26.1131 34.324H27.5771V40.624H26.1131V34.324ZM23.4371 41.404H24.9131V44.752H23.4371V41.404ZM21.6251 40.312L22.8251 40.756C22.0571 42.028 20.7611 43.156 19.3931 43.768C19.1891 43.432 18.7811 42.928 18.4811 42.664C19.7291 42.208 20.9891 41.284 21.6251 40.312ZM26.8331 40.312C27.4691 41.236 28.7051 42.1 29.9411 42.544C29.6291 42.808 29.2091 43.324 28.9931 43.66C27.6971 43.084 26.4491 41.944 25.6931 40.744L26.8331 40.312ZM30.9011 36.64H41.5211V38.104H30.9011V36.64ZM33.3731 42.088H38.9411V43.552H33.3731V42.088ZM35.4251 34.312H36.9611V45.58H35.4251V34.312ZM34.9931 37.168L36.3131 37.588C35.2811 40.204 33.5771 42.496 31.4771 43.816C31.2371 43.456 30.7571 42.904 30.4331 42.616C32.4011 41.536 34.1411 39.376 34.9931 37.168ZM37.3931 37.204C38.2691 39.34 40.0211 41.428 42.0371 42.472C41.6771 42.772 41.1611 43.372 40.9211 43.78C38.8091 42.484 37.1291 40.192 36.0851 37.636L37.3931 37.204ZM42.9011 35.248H47.4611V36.34H42.9011V35.248ZM47.0171 35.248H48.3371C48.3371 35.248 48.3251 35.548 48.3131 35.704C48.2051 37.204 48.0731 37.888 47.7971 38.176C47.5811 38.404 47.3291 38.488 47.0291 38.524C46.7531 38.548 46.2731 38.56 45.7691 38.536C45.7571 38.212 45.6251 37.756 45.4691 37.468C45.8531 37.516 46.1891 37.516 46.3451 37.516C46.5131 37.516 46.5971 37.504 46.6811 37.408C46.8251 37.252 46.9331 36.724 47.0171 35.416V35.248ZM50.1131 35.98V37.336H51.7331V35.98H50.1131ZM48.8531 34.96H53.0651V38.368H48.8531V34.96ZM44.6891 34.336H46.0211C45.8651 36.52 45.4571 38.092 43.2251 38.98C43.0931 38.668 42.7571 38.212 42.4811 37.984C44.3291 37.276 44.5811 36.064 44.6891 34.336ZM45.2411 41.596H52.4531V42.64H45.2411V41.596ZM51.9851 41.596H53.4251C53.4251 41.596 53.4131 41.944 53.3891 42.112C53.2331 43.936 53.0291 44.764 52.6931 45.1C52.4411 45.364 52.1531 45.448 51.7811 45.496C51.4691 45.532 50.9291 45.532 50.3291 45.508C50.3171 45.16 50.1731 44.668 49.9811 44.356C50.4491 44.404 50.8931 44.404 51.1091 44.404C51.2771 44.404 51.3851 44.392 51.4931 44.296C51.6971 44.092 51.8651 43.408 51.9851 41.776V41.596ZM44.9651 40.372L46.4291 40.504C46.2971 41.224 46.1051 42.088 45.9611 42.64H44.4491C44.6291 42.028 44.8331 41.116 44.9651 40.372ZM44.1851 38.872H50.8571V40.156H44.1851V38.872ZM50.3411 38.872H50.5091L50.7491 38.824L51.8411 38.968C51.6971 40.036 51.4571 41.164 51.2411 42.1L49.7771 41.908C50.0051 40.948 50.2331 39.724 50.3411 39.028V38.872ZM43.0691 43.096H50.8091V44.236H43.0691V43.096ZM60.9251 37.372V39.256H64.1531V37.372H60.9251ZM59.6651 36.16H65.4851V40.456H59.6651V36.16ZM61.8611 34.408H63.1931V39.604C63.1931 41.98 62.6531 44.38 59.6771 45.64C59.5091 45.34 59.1131 44.8 58.8131 44.536C61.6451 43.624 61.8611 41.548 61.8611 39.592V34.408ZM60.7331 40.78C61.6571 42.508 63.5411 43.828 65.9051 44.38C65.6051 44.668 65.2091 45.22 65.0171 45.58C62.5451 44.86 60.6851 43.312 59.5811 41.164L60.7331 40.78ZM58.1171 39.88H59.4251C59.4251 39.88 59.4131 40.24 59.3891 40.396C59.1611 43.468 58.9451 44.68 58.5491 45.112C58.2971 45.4 58.0331 45.508 57.6851 45.556C57.3731 45.604 56.8811 45.604 56.3531 45.58C56.3291 45.232 56.2091 44.728 56.0051 44.404C56.4491 44.452 56.8451 44.464 57.0371 44.464C57.2291 44.464 57.3371 44.428 57.4571 44.296C57.7091 44.02 57.9371 42.94 58.1171 40.096V39.88ZM54.4931 42.568C55.3331 42.436 56.5211 42.184 57.7091 41.944L57.8411 43.12C56.7731 43.36 55.6811 43.612 54.7571 43.816L54.4931 42.568ZM54.9251 34.888H58.2371V36.112H54.9251V34.888ZM57.6611 34.888H58.9811C58.8731 36.628 58.7051 38.848 58.5371 40.18L57.2411 40.168C57.4211 38.788 57.6011 36.592 57.6611 34.888ZM55.2491 36.748L56.4491 36.82C56.3531 38.188 56.1971 39.94 56.0411 40.996H54.8531C55.0211 39.904 55.1771 38.104 55.2491 36.748ZM55.3211 39.88H58.2611V40.996H55.3211V39.88ZM76.4291 34.48L77.4851 35.692C75.5891 36.328 73.0211 36.748 70.7891 36.988C70.7291 36.64 70.5251 36.088 70.3691 35.752C72.5291 35.488 74.9171 35.02 76.4291 34.48ZM70.0211 39.328H77.7731V40.708H70.0211V39.328ZM70.5131 43.792H77.6411V45.172H70.5131V43.792ZM73.2971 36.244H74.7611V44.224H73.2971V36.244ZM68.1971 37.804L69.6131 36.4L69.6251 36.424V45.568H68.1971V37.804ZM69.3971 34.348L70.8131 34.804C69.9851 36.904 68.6171 39.124 67.2131 40.516C67.0691 40.156 66.6371 39.364 66.3731 38.992C67.5731 37.888 68.7131 36.124 69.3971 34.348ZM43.6091 56.996H51.9011V58.22H43.6091V56.996ZM51.4451 56.996H52.8731C52.8731 56.996 52.8371 57.38 52.8011 57.572C52.5371 59.624 52.2371 60.584 51.7811 60.992C51.4331 61.316 51.0611 61.4 50.4971 61.436C50.0651 61.46 49.2851 61.46 48.4931 61.424C48.4691 61.052 48.2891 60.524 48.0371 60.176C48.8291 60.248 49.7051 60.26 50.0531 60.26C50.3171 60.26 50.4851 60.248 50.6411 60.14C50.9531 59.9 51.2291 58.988 51.4331 57.176L51.4451 56.996ZM47.2091 55.976L48.7091 56.096C48.1451 59.252 46.5851 60.764 43.6571 61.568C43.5011 61.256 43.0811 60.644 42.8171 60.38C45.5291 59.828 46.8851 58.58 47.2091 55.976ZM45.9731 51.452H51.9851V52.652H45.9731V51.452ZM51.6251 51.452H51.9011L52.1291 51.392L53.0171 51.968C51.2051 54.656 47.2331 55.868 43.2731 56.336C43.1771 55.976 42.9371 55.4 42.7091 55.088C46.4651 54.764 50.2571 53.684 51.6251 51.632V51.452ZM46.1771 52.688C47.5331 54.14 50.3891 54.788 53.8571 54.932C53.5691 55.244 53.2331 55.82 53.0651 56.204C49.4891 55.94 46.7051 55.1 45.0011 53.168L46.1771 52.688ZM46.5251 50.3L47.9891 50.588C47.1131 52.028 45.8531 53.288 43.9211 54.284C43.7531 53.948 43.3571 53.408 43.0811 53.18C44.7851 52.412 45.9131 51.32 46.5251 50.3Z" fill="black"/>
<path d="M34.265 74.42H43.395V75.37H34.265V74.42ZM38.175 73.58H39.435V76.4H38.175V73.58ZM36.515 72.71V73.18H41.105V72.71H36.515ZM36.515 71.49V71.96H41.105V71.49H36.515ZM35.345 70.69H42.325V73.98H35.345V70.69ZM34.945 67.67H42.765V68.61H34.945V67.67ZM34.305 69.35H43.345V70.29H34.305V69.35ZM38.165 67.01H39.435V68.34H38.165V67.01ZM40.215 68.4L41.495 68.62C41.285 69.03 41.095 69.38 40.945 69.64L39.805 69.43C39.945 69.13 40.125 68.7 40.215 68.4ZM36.265 68.65L37.425 68.45C37.615 68.73 37.795 69.13 37.855 69.41L36.645 69.66C36.595 69.38 36.435 68.95 36.265 68.65ZM51.295 70.59H52.555V73.78C52.555 74.42 52.425 74.78 51.955 74.97C51.495 75.17 50.835 75.17 49.895 75.17C49.855 74.79 49.705 74.26 49.555 73.9C50.125 73.93 50.855 73.93 51.035 73.92C51.225 73.92 51.295 73.88 51.295 73.74V70.59ZM47.145 71.36H48.415V76.37H47.145V71.36ZM44.775 70.59H51.845V71.74H44.775V70.59ZM44.325 68H53.355V69.14H44.325V68ZM46.475 67.01H47.715V70.1H46.475V67.01ZM49.995 67.01H51.265V70.1H49.995V67.01ZM59.0892 75.59C58.8358 75.59 58.5858 75.56 58.3392 75.5C58.0925 75.44 57.8592 75.35 57.6392 75.23C57.4192 75.1033 57.2225 74.9533 57.0492 74.78L57.4192 73.98C57.6725 74.2267 57.9392 74.4067 58.2192 74.52C58.5058 74.6267 58.7992 74.68 59.0992 74.68C59.4125 74.68 59.6858 74.6233 59.9192 74.51C60.1592 74.3967 60.3625 74.23 60.5292 74.01C60.6958 73.7833 60.8192 73.5033 60.8992 73.17C60.9858 72.83 61.0292 72.4433 61.0292 72.01V71.32H61.0792C61.0258 71.6467 60.9092 71.93 60.7292 72.17C60.5558 72.41 60.3358 72.5933 60.0692 72.72C59.8025 72.8467 59.5025 72.91 59.1692 72.91C58.7625 72.91 58.3992 72.8167 58.0792 72.63C57.7592 72.4367 57.5058 72.1733 57.3192 71.84C57.1325 71.5 57.0392 71.1133 57.0392 70.68C57.0392 70.2267 57.1358 69.8267 57.3292 69.48C57.5292 69.1333 57.8025 68.86 58.1492 68.66C58.4958 68.46 58.8892 68.36 59.3292 68.36C59.9092 68.36 60.3992 68.4967 60.7992 68.77C61.1992 69.0367 61.5025 69.43 61.7092 69.95C61.9158 70.47 62.0192 71.0967 62.0192 71.83C62.0192 72.63 61.9025 73.31 61.6692 73.87C61.4358 74.43 61.1025 74.8567 60.6692 75.15C60.2358 75.4433 59.7092 75.59 59.0892 75.59ZM59.3992 72.05C59.6725 72.05 59.9125 71.99 60.1192 71.87C60.3258 71.75 60.4858 71.5867 60.5992 71.38C60.7125 71.1667 60.7692 70.92 60.7692 70.64C60.7692 70.3533 60.7125 70.1067 60.5992 69.9C60.4858 69.6867 60.3258 69.52 60.1192 69.4C59.9125 69.28 59.6725 69.22 59.3992 69.22C59.1258 69.22 58.8858 69.28 58.6792 69.4C58.4792 69.52 58.3225 69.6867 58.2092 69.9C58.0958 70.1133 58.0392 70.36 58.0392 70.64C58.0392 70.92 58.0958 71.1667 58.2092 71.38C58.3225 71.5933 58.4825 71.76 58.6892 71.88C58.8958 71.9933 59.1325 72.05 59.3992 72.05Z" fill="#667085"/>
<defs>
<filter id="filter0_d_8310_1103" x="0" y="0.5" width="96" height="85.8462" filterUnits="userSpaceOnUse" color-interpolation-filters="sRGB">
<feFlood flood-opacity="0" result="BackgroundImageFix"/>
<feColorMatrix in="SourceAlpha" type="matrix" values="0 0 0 0 0 0 0 0 0 0 0 0 0 0 0 0 0 0 127 0" result="hardAlpha"/>
<feOffset dy="4"/>
<feGaussianBlur stdDeviation="2"/>
<feComposite in2="hardAlpha" operator="out"/>
<feColorMatrix type="matrix" values="0 0 0 0 0 0 0 0 0 0 0 0 0 0 0 0 0 0 0.25 0"/>
<feBlend mode="normal" in2="BackgroundImageFix" result="effect1_dropShadow_8310_1103"/>
<feBlend mode="normal" in="SourceGraphic" in2="effect1_dropShadow_8310_1103" result="shape"/>
</filter>
</defs>
</svg>
