<svg width="102" height="86" viewBox="0 0 102 86" fill="none" xmlns="http://www.w3.org/2000/svg">
<g filter="url(#filter0_d_8334_734)">
<path d="M5.45148 42.5206C4.65639 41.2109 4.25887 40.5556 4.10327 39.8593C3.96558 39.2431 3.96558 38.6067 4.10327 37.9905C4.25887 37.2942 4.65639 36.6389 5.45148 35.3292L24.7122 3.59573C25.5072 2.2858 25.9047 1.63084 26.4609 1.1545C26.953 0.733034 27.5327 0.414632 28.1625 0.220013C28.8742 -1.93715e-07 29.6693 0 31.2595 0H69.7806C71.3711 0 72.1659 -1.93715e-07 72.8779 0.220013C73.5073 0.414632 74.0871 0.733034 74.5794 1.1545C75.1356 1.63084 75.533 2.2858 76.3282 3.59573L95.5887 35.3292C96.3839 36.6389 96.7813 37.2942 96.9368 37.9905C97.0747 38.6067 97.0747 39.2431 96.9368 39.8593C96.7813 40.5556 96.3839 41.2109 95.5887 42.5206L76.3282 74.2543C75.533 75.564 75.1356 76.2189 74.5794 76.6953C74.0871 77.1169 73.5073 77.4351 72.8779 77.6298C72.1659 77.85 71.3711 77.85 69.7806 77.85H31.2595C29.6693 77.85 28.8742 77.85 28.1625 77.6298C27.5327 77.4351 26.953 77.1169 26.4609 76.6953C25.9047 76.2189 25.5072 75.564 24.7122 74.2543L5.45148 42.5206Z" fill="white"/>
</g>
<path d="M60.9148 17.3521H41.9502C41.7451 17.3527 41.5486 17.4345 41.4035 17.5796C41.2585 17.7246 41.1767 17.9211 41.176 18.1262V41.1924C41.1769 41.397 41.259 41.5928 41.4041 41.737C41.5492 41.8812 41.7456 41.9619 41.9502 41.9614H60.9148C61.0158 41.9616 61.1159 41.9418 61.2093 41.9032C61.3026 41.8646 61.3875 41.8079 61.4589 41.7365C61.5303 41.665 61.587 41.5802 61.6256 41.4868C61.6642 41.3935 61.684 41.2934 61.6838 41.1924V18.1262C61.6843 17.9216 61.6036 17.7252 61.4594 17.5801C61.3153 17.4349 61.1194 17.3529 60.9148 17.3521ZM50.4045 37.8803H45.2776C45.0736 37.8803 44.878 37.7993 44.7338 37.6551C44.5896 37.5109 44.5085 37.3153 44.5085 37.1113C44.5085 36.9073 44.5896 36.7117 44.7338 36.5675C44.878 36.4233 45.0736 36.3422 45.2776 36.3422H50.4045C51.4142 36.358 51.4168 37.8642 50.4045 37.8803ZM50.4045 32.2407H45.2776C45.0736 32.2407 44.878 32.1597 44.7338 32.0154C44.5896 31.8712 44.5085 31.6756 44.5085 31.4716C44.5085 31.2677 44.5896 31.0721 44.7338 30.9278C44.878 30.7836 45.0736 30.7026 45.2776 30.7026H50.4045C51.4142 30.7183 51.4168 32.2245 50.4045 32.2407ZM52.4758 26.0679C52.4608 27.0777 50.9534 27.0796 50.9377 26.0678V22.0842C50.9387 21.4417 51.1947 20.8259 51.6494 20.3719C52.104 19.9179 52.7203 19.6629 53.3628 19.6629C54.0053 19.6629 54.6215 19.9179 55.0762 20.3719C55.5309 20.8259 55.7868 21.4417 55.7878 22.0842V26.0679C55.7713 27.0784 54.2663 27.0795 54.2497 26.0678V24.986H52.4758V26.0679ZM58.1257 36.3935L55.6033 38.916C55.5328 38.9886 55.4483 39.046 55.3548 39.0848C55.2614 39.1236 55.161 39.1429 55.0598 39.1416C54.9588 39.1419 54.8587 39.1222 54.7654 39.0834C54.6721 39.0447 54.5874 38.9878 54.5164 38.916L53.4499 37.8496C52.7516 37.1261 53.8134 36.0545 54.5369 36.7626L55.0598 37.2855L57.0388 35.3066C57.77 34.608 58.8309 35.6719 58.1257 36.3935ZM58.1257 30.7539L55.6033 33.2763C55.5328 33.3489 55.4483 33.4063 55.3548 33.4451C55.2614 33.4839 55.161 33.5033 55.0598 33.5019C54.9588 33.5023 54.8587 33.4825 54.7654 33.4438C54.6721 33.4051 54.5874 33.3481 54.5164 33.2763L53.4499 32.2099C52.7516 31.4864 53.8134 30.4148 54.5369 31.123L55.0598 31.6459L57.0388 29.667C57.77 28.9683 58.8309 30.0322 58.1257 30.7539Z" fill="#F2BB41"/>
<path d="M54.2497 22.0841C54.2491 21.8493 54.1554 21.6243 53.9892 21.4584C53.8229 21.2926 53.5976 21.1995 53.3628 21.1995C53.1279 21.1995 52.9027 21.2926 52.7364 21.4584C52.5701 21.6243 52.4764 21.8493 52.4758 22.0841V23.4479H54.2497V22.0841Z" fill="#F2BB41"/>
<path d="M31.2559 51.7047H43.5059V53.1187H31.2559V51.7047ZM32.3339 49.2267H40.2019V50.5987H32.3339V49.2267ZM35.5819 47.7707H37.2479V52.4047H35.5819V47.7707ZM41.0139 53.7067L42.0359 54.8127C40.1739 55.3167 37.5139 55.5967 35.2599 55.7367C35.2179 55.4007 35.0359 54.8967 34.8959 54.6027C37.0519 54.4487 39.5439 54.1127 41.0139 53.7067ZM41.5879 48.3307L42.9459 49.0727C40.1739 52.6147 35.9319 55.3727 31.6759 57.0527C31.4519 56.7167 30.9479 56.0587 30.6399 55.7647C34.9519 54.2667 39.0819 51.6067 41.5879 48.3307ZM34.4759 53.8047L36.1419 53.9867C35.8199 55.4707 35.3719 57.2767 35.0359 58.4247L33.3559 58.2007C33.7339 57.0527 34.1959 55.2187 34.4759 53.8047ZM40.3699 56.4367H42.0639C42.0639 56.4367 42.0359 56.8847 41.9799 57.1227C41.6579 59.0407 41.3079 59.9927 40.8319 60.4267C40.4539 60.7767 40.0759 60.8747 39.4739 60.9027C39.0119 60.9447 38.2139 60.9447 37.3599 60.9167C37.3319 60.4407 37.1219 59.7967 36.8419 59.3627C37.6399 59.4327 38.5359 59.4607 38.8999 59.4607C39.1659 59.4607 39.3479 59.4327 39.5019 59.3207C39.8239 59.0827 40.1319 58.2567 40.3559 56.6327L40.3699 56.4367ZM34.7279 56.4367H40.7619V57.7947H34.3359L34.7279 56.4367ZM45.7739 48.9747L46.8659 47.9527C47.6219 48.5687 48.6299 49.4507 49.0919 50.0527L47.9439 51.2147C47.5099 50.5847 46.5299 49.6327 45.7739 48.9747ZM46.7959 60.6787L46.4879 59.2367L46.8799 58.7187L49.5959 56.9967C49.6939 57.4447 49.8759 58.1027 50.0299 58.4387C47.5239 60.0907 47.0479 60.3847 46.7959 60.6787ZM45.1019 52.0827H47.6359V53.6927H45.1019V52.0827ZM49.3299 50.4587H57.9539V52.0547H49.3299V50.4587ZM49.7499 53.6647H53.4879V55.2187H49.7499V53.6647ZM50.8979 54.6727H52.4239V58.7047L50.8979 58.8447V54.6727ZM49.5119 58.5647C50.6179 58.3127 52.2559 57.8787 53.8379 57.4447L54.0619 58.9007C52.6479 59.3347 51.1499 59.7687 49.9459 60.1187L49.5119 58.5647ZM55.4339 48.6107L56.5679 47.9247C57.0859 48.4987 57.6739 49.2687 57.9259 49.8007L56.7219 50.5707C56.4979 50.0387 55.9379 49.2127 55.4339 48.6107ZM53.6419 47.8687H55.3499C55.3079 53.4967 55.7979 58.5367 56.4559 58.5647C56.6379 58.5647 56.7499 57.8647 56.7919 56.6047C57.0859 56.9547 57.8419 57.4167 58.1079 57.5707C57.7579 60.3007 56.9739 60.8327 56.3859 60.8327C54.2159 60.8047 53.7399 55.7927 53.6419 47.8687ZM46.7959 60.6787C46.6699 60.2727 46.2779 59.5447 46.0119 59.2087C46.3199 59.0267 46.7539 58.5647 46.7539 57.9487V52.0827H48.3499V59.1387C48.3499 59.1387 46.7959 60.1047 46.7959 60.6787ZM59.0599 49.8427H71.7999V51.3687H59.0599V49.8427ZM60.7119 54.6167H64.3519V55.8487H60.7119V54.6167ZM60.7119 56.7587H64.3519V58.0047H60.7119V56.7587ZM66.5779 52.4747H68.1319V58.2147H66.5779V52.4747ZM63.7639 52.3347H65.3879V59.2647C65.3879 59.9787 65.2479 60.3707 64.7719 60.6087C64.3099 60.8607 63.6659 60.8747 62.7979 60.8747C62.7139 60.4547 62.4759 59.8387 62.2659 59.4467C62.7839 59.4747 63.3579 59.4747 63.5259 59.4607C63.7079 59.4607 63.7639 59.4047 63.7639 59.2367V52.3347ZM69.3919 52.0967H71.0439V59.0827C71.0439 59.8947 70.8899 60.3287 70.3299 60.5807C69.7979 60.8327 69.0419 60.8887 68.0059 60.8747C67.9219 60.4267 67.6559 59.7127 67.4179 59.2787C68.1319 59.3207 68.8599 59.3207 69.0979 59.3067C69.3219 59.3067 69.3919 59.2507 69.3919 59.0547V52.0967ZM60.9919 48.3167L62.5879 47.7567C63.0919 48.3027 63.6519 49.0447 63.8899 49.5767L62.1959 50.1787C61.9999 49.6747 61.4819 48.8767 60.9919 48.3167ZM68.1739 47.7287L70.0079 48.2747C69.4339 49.1707 68.8179 50.0667 68.3279 50.6827L66.8159 50.1647C67.2919 49.5067 67.8659 48.4847 68.1739 47.7287ZM59.8299 52.3347H64.2399V53.7347H61.4119V60.8327H59.8299V52.3347Z" fill="black"/>
<defs>
<filter id="filter0_d_8334_734" x="0" y="0" width="101.04" height="85.8501" filterUnits="userSpaceOnUse" color-interpolation-filters="sRGB">
<feFlood flood-opacity="0" result="BackgroundImageFix"/>
<feColorMatrix in="SourceAlpha" type="matrix" values="0 0 0 0 0 0 0 0 0 0 0 0 0 0 0 0 0 0 127 0" result="hardAlpha"/>
<feOffset dy="4"/>
<feGaussianBlur stdDeviation="2"/>
<feComposite in2="hardAlpha" operator="out"/>
<feColorMatrix type="matrix" values="0 0 0 0 0 0 0 0 0 0 0 0 0 0 0 0 0 0 0.25 0"/>
<feBlend mode="normal" in2="BackgroundImageFix" result="effect1_dropShadow_8334_734"/>
<feBlend mode="normal" in="SourceGraphic" in2="effect1_dropShadow_8334_734" result="shape"/>
</filter>
</defs>
</svg>
