<svg width="101" height="87" viewBox="0 0 101 87" fill="none" xmlns="http://www.w3.org/2000/svg">
<g filter="url(#filter0_d_8358_581)">
<path d="M5.93525 43.0953C5.14905 41.7856 4.75597 41.1303 4.60211 40.4341C4.46596 39.8178 4.46596 39.1814 4.60211 38.5652C4.75597 37.8689 5.14905 37.2136 5.93525 35.9039L24.9806 4.17043C25.7667 2.86051 26.1598 2.20555 26.7098 1.72921C27.1964 1.30774 27.7696 0.989339 28.3923 0.79472C29.0961 0.574707 29.8823 0.574707 31.4547 0.574707H69.5452C71.1178 0.574707 71.9037 0.574707 72.6078 0.79472C73.2302 0.989339 73.8035 1.30774 74.2903 1.72921C74.8402 2.20555 75.2332 2.86051 76.0195 4.17043L95.0647 35.9039C95.851 37.2136 96.244 37.8689 96.3977 38.5652C96.5341 39.1814 96.5341 39.8178 96.3977 40.4341C96.244 41.1303 95.851 41.7856 95.0647 43.0953L76.0195 74.829C75.2332 76.1387 74.8402 76.7936 74.2903 77.27C73.8035 77.6916 73.2302 78.0098 72.6078 78.2045C71.9037 78.4247 71.1178 78.4247 69.5452 78.4247H31.4547C29.8823 78.4247 29.0961 78.4247 28.3923 78.2045C27.7696 78.0098 27.1964 77.6916 26.7098 77.27C26.1598 76.7936 25.7667 76.1387 24.9806 74.829L5.93525 43.0953Z" fill="white"/>
</g>
<path d="M60.875 30.6997H42.125C42.125 30.6997 40.25 30.6372 40.25 25.6997H62.75C62.75 30.6372 60.875 30.6997 60.875 30.6997Z" fill="#E08838"/>
<path d="M61.5 4.44971H41.5V25.6997H61.5V4.44971Z" fill="#F2BB41"/>
<path d="M57.75 11.9497H47.75V13.1997H57.75V11.9497Z" fill="#E08838"/>
<path d="M57.75 14.4497H47.75V15.6997H57.75V14.4497Z" fill="#E08838"/>
<path d="M57.75 16.9497H47.75V18.1997H57.75V16.9497Z" fill="#E08838"/>
<path d="M57.75 19.4497H47.75V20.6997H57.75V19.4497Z" fill="#E08838"/>
<path d="M57.75 21.9497H47.75V23.1997H57.75V21.9497Z" fill="#E08838"/>
<path d="M46.5 11.9497H45.25V13.1997H46.5V11.9497Z" fill="#E08838"/>
<path d="M46.5 14.4497H45.25V15.6997H46.5V14.4497Z" fill="#E08838"/>
<path d="M46.5 16.9497H45.25V18.1997H46.5V16.9497Z" fill="#E08838"/>
<path d="M46.5 19.4497H45.25V20.6997H46.5V19.4497Z" fill="#E08838"/>
<path d="M46.5 21.9497H45.25V23.1997H46.5V21.9497Z" fill="#E08838"/>
<path d="M26.028 42.574V47.74H24.46V44.128H23.004V42.574H26.028ZM26.028 47.096C26.574 48.034 27.596 48.454 29.038 48.51C30.774 48.594 34.218 48.552 36.206 48.398C36.024 48.762 35.772 49.49 35.702 49.966C33.91 50.05 30.802 50.078 29.052 50.008C27.344 49.938 26.196 49.504 25.356 48.426C24.824 48.986 24.264 49.518 23.606 50.134L22.808 48.538C23.368 48.132 24.04 47.614 24.628 47.096H26.028ZM22.92 38.262L24.236 37.422C24.978 38.094 25.846 39.046 26.224 39.746L24.796 40.684C24.474 39.998 23.634 38.976 22.92 38.262ZM28.142 37.45L29.5 37.072C29.78 37.394 30.074 37.842 30.2 38.164L28.786 38.57C28.674 38.262 28.408 37.8 28.142 37.45ZM27.82 46.676L28.926 45.892C29.458 46.256 30.116 46.816 30.438 47.222L29.276 48.076C28.996 47.67 28.352 47.082 27.82 46.676ZM28.478 40.81V43.862H33.784V40.81H28.478ZM27.078 39.9H35.268V44.758H27.078V39.9ZM26.63 38.192H35.772V39.312H26.63V38.192ZM26.49 45.262H35.884V46.382H26.49V45.262ZM28.058 42.616H34.176V43.428H28.058V42.616ZM32.076 44.492H33.616V47.068C33.616 47.698 33.49 47.978 33.028 48.146C32.58 48.3 31.964 48.3 31.11 48.3C31.04 47.936 30.858 47.502 30.704 47.18C31.166 47.208 31.712 47.208 31.852 47.208C32.02 47.194 32.076 47.152 32.076 47.012V44.492ZM31.418 38.906H32.65V41.02C32.65 41.286 32.692 41.314 32.902 41.314C32.986 41.314 33.406 41.314 33.532 41.314C33.7 41.314 33.756 41.314 33.784 41.23C34.008 41.37 34.456 41.496 34.778 41.566C34.68 42.042 34.372 42.21 33.7 42.21C33.49 42.21 32.902 42.21 32.692 42.21C31.642 42.21 31.418 41.958 31.418 41.02V38.906ZM32.636 37.1L34.232 37.38C33.924 37.828 33.658 38.178 33.434 38.43L32.034 38.164C32.244 37.842 32.496 37.408 32.636 37.1ZM29.556 38.878H30.774V40.236C30.774 41.062 30.564 42.084 29.276 42.56C29.066 42.35 28.632 42.028 28.38 41.874C29.402 41.496 29.556 40.754 29.556 40.222V38.878ZM37.228 42.392H49.758V44.03H37.228V42.392ZM44.592 40.67H46.314V48.314C46.314 49.266 46.104 49.728 45.46 49.98C44.816 50.246 43.864 50.274 42.548 50.274C42.478 49.784 42.198 49.042 41.96 48.566C42.87 48.608 43.906 48.608 44.2 48.608C44.494 48.608 44.592 48.524 44.592 48.286V40.67ZM38.768 45.22L40.098 44.366C40.952 45.192 41.918 46.34 42.324 47.166L40.882 48.132C40.518 47.32 39.594 46.102 38.768 45.22ZM42.562 37.114H44.354V39.662H42.562V37.114ZM37.466 38.472H49.464V41.804H47.658V40.068H39.174V41.804H37.466V38.472ZM51.27 39.27H56.352V40.81H51.27V39.27ZM50.99 42.518H56.52V44.1H50.99V42.518ZM53.076 37.254H54.658V41.706C54.658 44.31 54.364 47.852 52.04 50.12C51.802 49.798 51.242 49.238 50.836 48.972C52.95 47.082 53.076 43.848 53.076 41.72V37.254ZM54.42 44.268C54.91 44.702 56.436 46.508 56.786 46.942L55.652 48.16C55.134 47.292 53.986 45.752 53.398 45.038L54.42 44.268ZM56.982 37.744H63.492V45.206H61.812V39.186H58.592V45.206H56.982V37.744ZM59.81 44.772H61.294V48.202C61.294 48.566 61.406 48.664 61.672 48.664H62.33C62.68 48.664 62.764 48.286 62.806 46.578C63.17 46.858 63.73 47.082 64.108 47.166C63.968 49.322 63.716 49.952 62.344 49.952H61.378C60.258 49.952 59.81 49.616 59.81 48.398V44.772ZM59.432 40.054H60.986V42.294C60.986 44.786 60.286 48.244 56.506 50.232C56.31 49.91 55.778 49.294 55.456 49.042C59.04 47.194 59.432 44.408 59.432 42.266V40.054ZM68.784 47.544L69.792 46.508C70.646 47.18 71.878 48.174 72.48 48.79L71.416 49.98C70.856 49.336 69.666 48.272 68.784 47.544ZM65.522 37.772H72.074V46.34H70.436V39.27H67.076V46.41H65.522V37.772ZM75.798 37.282H77.45V48.146C77.45 49.126 77.254 49.588 76.68 49.868C76.092 50.134 75.168 50.19 73.88 50.19C73.81 49.7 73.53 48.93 73.292 48.454C74.216 48.496 75.126 48.482 75.42 48.482C75.686 48.482 75.798 48.398 75.798 48.132V37.282ZM73.166 38.402H74.734V47.026H73.166V38.402ZM67.944 40.068H69.526V44.156C69.526 46.298 68.98 48.888 65.83 50.274C65.662 49.924 65.13 49.252 64.836 49C67.65 47.754 67.944 45.878 67.944 44.128V40.068Z" fill="black"/>
<path d="M37.5599 66.4947H46.6899V67.4447H37.5599V66.4947ZM41.4699 65.6547H42.7299V68.4747H41.4699V65.6547ZM39.8099 64.7847V65.2547H44.3999V64.7847H39.8099ZM39.8099 63.5647V64.0347H44.3999V63.5647H39.8099ZM38.6399 62.7647H45.6199V66.0547H38.6399V62.7647ZM38.2399 59.7447H46.0599V60.6847H38.2399V59.7447ZM37.5999 61.4247H46.6399V62.3647H37.5999V61.4247ZM41.4599 59.0847H42.7299V60.4147H41.4599V59.0847ZM43.5099 60.4747L44.7899 60.6947C44.5799 61.1047 44.3899 61.4547 44.2399 61.7147L43.0999 61.5047C43.2399 61.2047 43.4199 60.7747 43.5099 60.4747ZM39.5599 60.7247L40.7199 60.5247C40.9099 60.8047 41.0899 61.2047 41.1499 61.4847L39.9399 61.7347C39.8899 61.4547 39.7299 61.0247 39.5599 60.7247ZM54.5899 62.6647H55.8499V65.8547C55.8499 66.4947 55.7199 66.8547 55.2499 67.0447C54.7899 67.2447 54.1299 67.2447 53.1899 67.2447C53.1499 66.8647 52.9999 66.3347 52.8499 65.9747C53.4199 66.0047 54.1499 66.0047 54.3299 65.9947C54.5199 65.9947 54.5899 65.9547 54.5899 65.8147V62.6647ZM50.4399 63.4347H51.7099V68.4447H50.4399V63.4347ZM48.0699 62.6647H55.1399V63.8147H48.0699V62.6647ZM47.6199 60.0747H56.6499V61.2147H47.6199V60.0747ZM49.7699 59.0847H51.0099V62.1747H49.7699V59.0847ZM53.2899 59.0847H54.5599V62.1747H53.2899V59.0847ZM60.874 67.5747L64.304 61.0047L64.324 61.4447H60.474V60.5247H65.274V61.3247L62.034 67.5747H60.874Z" fill="#667085"/>
<defs>
<filter id="filter0_d_8358_581" x="0.5" y="0.574707" width="100" height="85.8501" filterUnits="userSpaceOnUse" color-interpolation-filters="sRGB">
<feFlood flood-opacity="0" result="BackgroundImageFix"/>
<feColorMatrix in="SourceAlpha" type="matrix" values="0 0 0 0 0 0 0 0 0 0 0 0 0 0 0 0 0 0 127 0" result="hardAlpha"/>
<feOffset dy="4"/>
<feGaussianBlur stdDeviation="2"/>
<feComposite in2="hardAlpha" operator="out"/>
<feColorMatrix type="matrix" values="0 0 0 0 0 0 0 0 0 0 0 0 0 0 0 0 0 0 0.25 0"/>
<feBlend mode="normal" in2="BackgroundImageFix" result="effect1_dropShadow_8358_581"/>
<feBlend mode="normal" in="SourceGraphic" in2="effect1_dropShadow_8358_581" result="shape"/>
</filter>
</defs>
</svg>
