<svg width="96" height="86" viewBox="0 0 96 86" fill="none" xmlns="http://www.w3.org/2000/svg">
<g filter="url(#filter0_d_8310_691)">
<path d="M5.37285 42.5185C4.62083 41.2089 4.24484 40.5536 4.09767 39.8574C3.96744 39.2412 3.96744 38.6048 4.09767 37.9886C4.24484 37.2924 4.62083 36.6371 5.37285 35.3274L23.5901 3.59555C24.3421 2.28569 24.7181 1.63076 25.2442 1.15444C25.7096 0.732998 26.2579 0.414612 26.8535 0.220002C27.5267 -2.00917e-07 28.2787 0 29.7827 0H66.2171C67.7214 0 68.4731 -2.00917e-07 69.1466 0.220002C69.7419 0.414612 70.2903 0.732998 70.756 1.15444C71.282 1.63076 71.6578 2.28569 72.41 3.59555L90.6271 35.3274C91.3792 36.6371 91.7551 37.2924 91.9021 37.9886C92.0326 38.6048 92.0326 39.2412 91.9021 39.8574C91.7551 40.5536 91.3792 41.2089 90.6271 42.5185L72.41 74.2506C71.6578 75.5603 71.282 76.2151 70.756 76.6915C70.2903 77.1131 69.7419 77.4313 69.1466 77.6259C68.4731 77.8462 67.7214 77.8462 66.2171 77.8462H29.7827C28.2787 77.8462 27.5267 77.8462 26.8535 77.6259C26.2579 77.4313 25.7096 77.1131 25.2442 76.6915C24.7181 76.2151 24.3421 75.5603 23.5901 74.2506L5.37285 42.5185Z" fill="white"/>
</g>
<path d="M52.2051 12H41.2051C40.1051 12 39.2051 12.9 39.2051 14V34C39.2051 35.1 40.1051 36 41.2051 36H55.2051C56.3051 36 57.2051 35.1 57.2051 34V17L52.2051 12Z" fill="#F2BB41" stroke="#F2BB41" stroke-width="2" stroke-miterlimit="10" stroke-linecap="round" stroke-linejoin="round"/>
<path d="M52.2051 12V17H57.2051L52.2051 12Z" fill="#E08838" stroke="#E08838" stroke-width="2" stroke-miterlimit="10" stroke-linecap="round" stroke-linejoin="round"/>
<path d="M40.6311 43.374L41.7371 42.086C42.8711 42.618 44.3551 43.5 45.0691 44.186L43.8651 45.628C43.2211 44.928 41.7791 43.976 40.6311 43.374ZM39.7071 49.058H46.9731V50.668H39.7071V49.058ZM38.6991 53.216H47.7851V54.812H38.6991V53.216ZM39.2031 45.166H47.4911V46.762H39.2031V45.166ZM42.3951 45.698H44.1451V53.93H42.3951V45.698ZM35.5211 43.416L36.4311 42.184C37.3271 42.506 38.5171 43.108 39.1051 43.612L38.1251 44.984C37.5791 44.48 36.4311 43.808 35.5211 43.416ZM34.5831 47.224L35.4511 45.95C36.3611 46.258 37.5791 46.832 38.1811 47.294L37.2571 48.694C36.6971 48.218 35.5071 47.588 34.5831 47.224ZM35.1851 53.958C35.9271 52.908 37.0051 51.158 37.8451 49.548L39.0771 50.654C38.3351 52.138 37.4391 53.734 36.5991 55.092L35.1851 53.958ZM51.0331 42.982H53.8471V44.536H51.0331V42.982ZM48.6671 47.588H61.7151V49.198H48.6671V47.588ZM50.1371 42.982H51.7471V47.56C51.7471 49.87 51.4671 53.314 49.8291 55.386C49.5911 55.05 48.9471 54.406 48.6251 54.196C50.0251 52.334 50.1371 49.604 50.1371 47.56V42.982ZM52.9931 42.982H54.6031V53.482C54.6031 54.224 54.4631 54.644 53.9871 54.91C53.5251 55.162 52.8671 55.19 51.9151 55.19C51.8591 54.784 51.6211 54.098 51.4111 53.706C51.9431 53.734 52.5451 53.734 52.7271 53.72C52.9231 53.72 52.9931 53.65 52.9931 53.454V42.982ZM56.5631 42.982H59.4191V44.536H56.5631V42.982ZM55.6531 42.982H57.2771V47.63C57.2771 49.898 57.0531 53.286 55.5971 55.344C55.3451 55.022 54.6591 54.392 54.3371 54.182C55.5551 52.348 55.6531 49.646 55.6531 47.63V42.982ZM58.7331 42.982H60.3991V53.412C60.3991 54.196 60.2451 54.644 59.7691 54.924C59.2931 55.19 58.6211 55.218 57.6551 55.218C57.5851 54.784 57.3611 54.056 57.1371 53.65C57.6831 53.678 58.2991 53.678 58.4671 53.664C58.6771 53.65 58.7331 53.58 58.7331 53.398V42.982Z" fill="black"/>
<defs>
<filter id="filter0_d_8310_691" x="0" y="0" width="96" height="85.8462" filterUnits="userSpaceOnUse" color-interpolation-filters="sRGB">
<feFlood flood-opacity="0" result="BackgroundImageFix"/>
<feColorMatrix in="SourceAlpha" type="matrix" values="0 0 0 0 0 0 0 0 0 0 0 0 0 0 0 0 0 0 127 0" result="hardAlpha"/>
<feOffset dy="4"/>
<feGaussianBlur stdDeviation="2"/>
<feComposite in2="hardAlpha" operator="out"/>
<feColorMatrix type="matrix" values="0 0 0 0 0 0 0 0 0 0 0 0 0 0 0 0 0 0 0.25 0"/>
<feBlend mode="normal" in2="BackgroundImageFix" result="effect1_dropShadow_8310_691"/>
<feBlend mode="normal" in="SourceGraphic" in2="effect1_dropShadow_8310_691" result="shape"/>
</filter>
</defs>
</svg>
