<svg width="96" height="86" viewBox="0 0 96 86" fill="none" xmlns="http://www.w3.org/2000/svg">
<g filter="url(#filter0_d_8310_820)">
<path d="M5.37285 42.5185C4.62083 41.2089 4.24484 40.5536 4.09767 39.8574C3.96744 39.2412 3.96744 38.6048 4.09767 37.9886C4.24484 37.2924 4.62083 36.6371 5.37285 35.3274L23.5901 3.59555C24.3421 2.28569 24.7181 1.63076 25.2442 1.15444C25.7096 0.732998 26.2579 0.414612 26.8535 0.220002C27.5267 -2.00917e-07 28.2787 0 29.7827 0H66.2171C67.7214 0 68.4731 -2.00917e-07 69.1466 0.220002C69.7419 0.414612 70.2903 0.732998 70.756 1.15444C71.282 1.63076 71.6578 2.28569 72.41 3.59555L90.6271 35.3274C91.3792 36.6371 91.7551 37.2924 91.9021 37.9886C92.0326 38.6048 92.0326 39.2412 91.9021 39.8574C91.7551 40.5536 91.3792 41.2089 90.6271 42.5185L72.41 74.2506C71.6578 75.5603 71.282 76.2151 70.756 76.6915C70.2903 77.1131 69.7419 77.4313 69.1466 77.6259C68.4731 77.8462 67.7214 77.8462 66.2171 77.8462H29.7827C28.2787 77.8462 27.5267 77.8462 26.8535 77.6259C26.2579 77.4313 25.7096 77.1131 25.2442 76.6915C24.7181 76.2151 24.3421 75.5603 23.5901 74.2506L5.37285 42.5185Z" fill="white"/>
</g>
<g clip-path="url(#clip0_8310_820)">
<path d="M58.5005 26.5293C57.1402 26.1911 56.1248 24.9647 56.1248 23.4998C56.1248 21.7738 57.5239 21 59.25 21C59.4492 21 59.6571 21.0258 59.8464 21.0626C59.8552 21.2503 59.8748 21.435 59.8748 21.6248C59.8748 23.6214 59.3746 24.8762 58.5005 26.5293ZM41.0473 30.6062C42.165 29.0089 44.8598 27.8747 48 27.8747C51.1396 27.8747 53.8277 29.0147 54.9455 30.612C52.9898 32.0292 50.5945 32.8748 48 32.8748C45.4024 32.8748 43.0045 32.0265 41.0473 30.6062ZM36.1252 21C36.1252 20.8081 36.1448 20.6214 36.1536 20.4321C36.3429 20.3953 36.5504 20.3746 36.75 20.3746C38.4761 20.3746 39.8752 21.7738 39.8752 23.4998C39.8752 24.9646 38.8583 26.1889 37.4984 26.5272C36.6248 24.8746 36.1252 22.9955 36.1252 21ZM48 9.12463C53.4652 9.12463 58.0024 12.8405 59.3793 17.8965H36.6207C37.9976 12.8405 42.5348 9.12463 48 9.12463ZM48 6C39.7158 6 33 12.7154 33 21C33 29.2842 39.7158 36 48 36C56.2842 36 63 29.2842 63 21C63 12.7154 56.2842 6 48 6Z" fill="#F2BB41"/>
<path d="M52.6551 22.5516C52.6551 23.6942 50.5613 24.6206 47.9782 24.6206C45.3951 24.6206 43.3013 23.6942 43.3013 22.5516C43.3013 21.409 45.3951 20.4827 47.9782 20.4827C50.5613 20.4827 52.6551 21.409 52.6551 22.5516Z" fill="#E08838"/>
</g>
<path d="M21.092 39.926H32.978V41.508H21.092V39.926ZM20.63 44.938H33.384V46.548H20.63V44.938ZM28.75 40.85H30.5V52.274H28.75V40.85ZM23.808 40.85H25.53V44.532C25.53 47.234 25.18 50.3 21.96 52.33C21.652 51.938 21.022 51.35 20.588 51.07C23.486 49.32 23.808 46.8 23.808 44.532V40.85ZM41.672 50.202H46.138V51.714H41.672V50.202ZM40.832 46.394H47.034V52.204H45.368V47.906H42.428V52.26H40.832V46.394ZM39.936 43.734C41.602 43.664 44.136 43.524 46.516 43.37L46.502 44.868C44.248 45.05 41.84 45.232 40.104 45.358L39.936 43.734ZM44.346 41.97L45.676 41.298C46.558 42.474 47.482 44.042 47.818 45.106L46.362 45.876C46.068 44.826 45.2 43.202 44.346 41.97ZM42.372 39.1L44.234 39.45C43.66 41.242 42.904 43.286 42.274 44.602L40.86 44.238C41.434 42.852 42.064 40.696 42.372 39.1ZM34.532 41.9H39.068V43.454H34.532V41.9ZM36.422 39.1L38.004 39.282C37.416 42.25 36.548 46.016 35.862 48.536L34.49 47.794C35.134 45.596 35.946 41.886 36.422 39.1ZM35.33 47.584L36.24 46.408C37.71 47.318 39.558 48.676 40.37 49.726L39.362 51.07C38.578 50.02 36.8 48.55 35.33 47.584ZM38.452 41.9H38.732L39.026 41.858L40.02 42.04C39.698 47.5 38.354 50.594 35.568 52.316C35.344 51.91 34.896 51.294 34.56 50.972C36.94 49.726 38.186 46.632 38.452 42.208V41.9ZM48.812 40.206H54.132V41.48H48.812V40.206ZM53.614 40.206H55.154C55.154 40.206 55.14 40.556 55.126 40.738C55 42.488 54.846 43.286 54.524 43.622C54.272 43.888 53.978 43.986 53.628 44.028C53.306 44.056 52.746 44.07 52.158 44.042C52.144 43.664 51.99 43.132 51.808 42.796C52.256 42.852 52.648 42.852 52.83 42.852C53.026 42.852 53.124 42.838 53.222 42.726C53.39 42.544 53.516 41.928 53.614 40.402V40.206ZM57.226 41.06V42.642H59.116V41.06H57.226ZM55.756 39.87H60.67V43.846H55.756V39.87ZM50.898 39.142H52.452C52.27 41.69 51.794 43.524 49.19 44.56C49.036 44.196 48.644 43.664 48.322 43.398C50.478 42.572 50.772 41.158 50.898 39.142ZM51.542 47.612H59.956V48.83H51.542V47.612ZM59.41 47.612H61.09C61.09 47.612 61.076 48.018 61.048 48.214C60.866 50.342 60.628 51.308 60.236 51.7C59.942 52.008 59.606 52.106 59.172 52.162C58.808 52.204 58.178 52.204 57.478 52.176C57.464 51.77 57.296 51.196 57.072 50.832C57.618 50.888 58.136 50.888 58.388 50.888C58.584 50.888 58.71 50.874 58.836 50.762C59.074 50.524 59.27 49.726 59.41 47.822V47.612ZM51.22 46.184L52.928 46.338C52.774 47.178 52.55 48.186 52.382 48.83H50.618C50.828 48.116 51.066 47.052 51.22 46.184ZM50.31 44.434H58.094V45.932H50.31V44.434ZM57.492 44.434H57.688L57.968 44.378L59.242 44.546C59.074 45.792 58.794 47.108 58.542 48.2L56.834 47.976C57.1 46.856 57.366 45.428 57.492 44.616V44.434ZM49.008 49.362H58.038V50.692H49.008V49.362ZM69.84 42.684V44.882H73.606V42.684H69.84ZM68.37 41.27H75.16V46.282H68.37V41.27ZM70.932 39.226H72.486V45.288C72.486 48.06 71.856 50.86 68.384 52.33C68.188 51.98 67.726 51.35 67.376 51.042C70.68 49.978 70.932 47.556 70.932 45.274V39.226ZM69.616 46.66C70.694 48.676 72.892 50.216 75.65 50.86C75.3 51.196 74.838 51.84 74.614 52.26C71.73 51.42 69.56 49.614 68.272 47.108L69.616 46.66ZM66.564 45.61H68.09C68.09 45.61 68.076 46.03 68.048 46.212C67.782 49.796 67.53 51.21 67.068 51.714C66.774 52.05 66.466 52.176 66.06 52.232C65.696 52.288 65.122 52.288 64.506 52.26C64.478 51.854 64.338 51.266 64.1 50.888C64.618 50.944 65.08 50.958 65.304 50.958C65.528 50.958 65.654 50.916 65.794 50.762C66.088 50.44 66.354 49.18 66.564 45.862V45.61ZM62.336 48.746C63.316 48.592 64.702 48.298 66.088 48.018L66.242 49.39C64.996 49.67 63.722 49.964 62.644 50.202L62.336 48.746ZM62.84 39.786H66.704V41.214H62.84V39.786ZM66.032 39.786H67.572C67.446 41.816 67.25 44.406 67.054 45.96L65.542 45.946C65.752 44.336 65.962 41.774 66.032 39.786ZM63.218 41.956L64.618 42.04C64.506 43.636 64.324 45.68 64.142 46.912H62.756C62.952 45.638 63.134 43.538 63.218 41.956ZM63.302 45.61H66.732V46.912H63.302V45.61Z" fill="black"/>
<path d="M34.0599 65.92H43.1899V66.87H34.0599V65.92ZM37.9699 65.08H39.2299V67.9H37.9699V65.08ZM36.3099 64.21V64.68H40.8999V64.21H36.3099ZM36.3099 62.99V63.46H40.8999V62.99H36.3099ZM35.1399 62.19H42.1199V65.48H35.1399V62.19ZM34.7399 59.17H42.5599V60.11H34.7399V59.17ZM34.0999 60.85H43.1399V61.79H34.0999V60.85ZM37.9599 58.51H39.2299V59.84H37.9599V58.51ZM40.0099 59.9L41.2899 60.12C41.0799 60.53 40.8899 60.88 40.7399 61.14L39.5999 60.93C39.7399 60.63 39.9199 60.2 40.0099 59.9ZM36.0599 60.15L37.2199 59.95C37.4099 60.23 37.5899 60.63 37.6499 60.91L36.4399 61.16C36.3899 60.88 36.2299 60.45 36.0599 60.15ZM51.0899 62.09H52.3499V65.28C52.3499 65.92 52.2199 66.28 51.7499 66.47C51.2899 66.67 50.6299 66.67 49.6899 66.67C49.6499 66.29 49.4999 65.76 49.3499 65.4C49.9199 65.43 50.6499 65.43 50.8299 65.42C51.0199 65.42 51.0899 65.38 51.0899 65.24V62.09ZM46.9399 62.86H48.2099V67.87H46.9399V62.86ZM44.5699 62.09H51.6399V63.24H44.5699V62.09ZM44.1199 59.5H53.1499V60.64H44.1199V59.5ZM46.2699 58.51H47.5099V61.6H46.2699V58.51ZM49.7899 58.51H51.0599V61.6H49.7899V58.51ZM57.194 67V66.22L59.574 63.69C59.8007 63.45 59.9774 63.2333 60.104 63.04C60.2374 62.84 60.334 62.6467 60.394 62.46C60.454 62.2733 60.484 62.0867 60.484 61.9C60.484 61.5333 60.3674 61.2533 60.134 61.06C59.9074 60.8667 59.5807 60.77 59.154 60.77C58.8274 60.77 58.5074 60.8333 58.194 60.96C57.8807 61.08 57.584 61.27 57.304 61.53L56.924 60.72C57.2107 60.4533 57.5607 60.2433 57.974 60.09C58.3874 59.9367 58.8174 59.86 59.264 59.86C59.744 59.86 60.154 59.9367 60.494 60.09C60.834 60.2433 61.0907 60.4667 61.264 60.76C61.444 61.0533 61.534 61.4033 61.534 61.81C61.534 62.0233 61.5074 62.23 61.454 62.43C61.4074 62.63 61.334 62.83 61.234 63.03C61.134 63.2233 61.004 63.4267 60.844 63.64C60.6907 63.8467 60.5074 64.06 60.294 64.28L58.384 66.27V66.1H61.814V67H57.194Z" fill="#667085"/>
<defs>
<filter id="filter0_d_8310_820" x="0" y="0" width="96" height="85.8462" filterUnits="userSpaceOnUse" color-interpolation-filters="sRGB">
<feFlood flood-opacity="0" result="BackgroundImageFix"/>
<feColorMatrix in="SourceAlpha" type="matrix" values="0 0 0 0 0 0 0 0 0 0 0 0 0 0 0 0 0 0 127 0" result="hardAlpha"/>
<feOffset dy="4"/>
<feGaussianBlur stdDeviation="2"/>
<feComposite in2="hardAlpha" operator="out"/>
<feColorMatrix type="matrix" values="0 0 0 0 0 0 0 0 0 0 0 0 0 0 0 0 0 0 0.25 0"/>
<feBlend mode="normal" in2="BackgroundImageFix" result="effect1_dropShadow_8310_820"/>
<feBlend mode="normal" in="SourceGraphic" in2="effect1_dropShadow_8310_820" result="shape"/>
</filter>
<clipPath id="clip0_8310_820">
<rect width="30" height="30" fill="white" transform="translate(33 6)"/>
</clipPath>
</defs>
</svg>
