<svg width="96" height="86" viewBox="0 0 96 86" fill="none" xmlns="http://www.w3.org/2000/svg">
<g filter="url(#filter0_d_8310_972)">
<path d="M5.37285 42.5185C4.62083 41.2089 4.24484 40.5536 4.09767 39.8574C3.96744 39.2412 3.96744 38.6048 4.09767 37.9886C4.24484 37.2924 4.62083 36.6371 5.37285 35.3274L23.5901 3.59555C24.3421 2.28569 24.7181 1.63076 25.2442 1.15444C25.7096 0.732998 26.2579 0.414612 26.8535 0.220002C27.5267 -2.00917e-07 28.2787 0 29.7827 0H66.2171C67.7214 0 68.4731 -2.00917e-07 69.1466 0.220002C69.7419 0.414612 70.2903 0.732998 70.756 1.15444C71.282 1.63076 71.6578 2.28569 72.41 3.59555L90.6271 35.3274C91.3792 36.6371 91.7551 37.2924 91.9021 37.9886C92.0326 38.6048 92.0326 39.2412 91.9021 39.8574C91.7551 40.5536 91.3792 41.2089 90.6271 42.5185L72.41 74.2506C71.6578 75.5603 71.282 76.2151 70.756 76.6915C70.2903 77.1131 69.7419 77.4313 69.1466 77.6259C68.4731 77.8462 67.7214 77.8462 66.2171 77.8462H29.7827C28.2787 77.8462 27.5267 77.8462 26.8535 77.6259C26.2579 77.4313 25.7096 77.1131 25.2442 76.6915C24.7181 76.2151 24.3421 75.5603 23.5901 74.2506L5.37285 42.5185Z" fill="white"/>
</g>
<path d="M58.2051 5.5H38.2051C36.8244 5.5 35.7051 6.61929 35.7051 8V28C35.7051 29.3807 36.8244 30.5 38.2051 30.5H58.2051C59.5858 30.5 60.7051 29.3807 60.7051 28V8C60.7051 6.61929 59.5858 5.5 58.2051 5.5Z" fill="#F2BB41"/>
<path d="M54.4551 19.2499H45.7051V16.0124L46.0676 16.3874C46.1838 16.5046 46.322 16.5976 46.4743 16.661C46.6267 16.7245 46.7901 16.7572 46.9551 16.7572C47.1201 16.7572 47.2835 16.7245 47.4358 16.661C47.5881 16.5976 47.7264 16.5046 47.8426 16.3874C47.9597 16.2712 48.0527 16.133 48.1162 15.9806C48.1796 15.8283 48.2123 15.6649 48.2123 15.4999C48.2123 15.3349 48.1796 15.1715 48.1162 15.0192C48.0527 14.8669 47.9597 14.7286 47.8426 14.6124L45.3426 12.1124C45.2264 11.9953 45.0881 11.9023 44.9358 11.8388C44.7835 11.7753 44.6201 11.7427 44.4551 11.7427C44.2901 11.7427 44.1267 11.7753 43.9743 11.8388C43.822 11.9023 43.6838 11.9953 43.5676 12.1124L41.0676 14.6124C40.951 14.729 40.8586 14.8673 40.7955 15.0196C40.7324 15.1719 40.7 15.3351 40.7 15.4999C40.7 15.8328 40.8322 16.152 41.0676 16.3874C41.3029 16.6228 41.6222 16.755 41.9551 16.755C42.2879 16.755 42.6072 16.6228 42.8426 16.3874L43.2051 16.0124V19.2499C43.2051 19.913 43.4685 20.5488 43.9373 21.0177C44.4061 21.4865 45.042 21.7499 45.7051 21.7499H54.4551C54.7866 21.7499 55.1045 21.6182 55.3389 21.3838C55.5734 21.1494 55.7051 20.8314 55.7051 20.4999C55.7051 20.1684 55.5734 19.8505 55.3389 19.616C55.1045 19.3816 54.7866 19.2499 54.4551 19.2499Z" fill="#E08838"/>
<path d="M30.0611 37.36L31.3211 36.492C32.0911 37.15 33.0011 38.088 33.4211 38.746L32.0631 39.698C31.6991 39.026 30.8171 38.046 30.0611 37.36ZM20.8911 40.09H33.5331V41.686H20.8911V40.09ZM20.6251 44.052C22.3191 43.8 24.9791 43.338 27.4291 42.89L27.5551 44.416C25.2871 44.892 22.8511 45.382 21.0451 45.746L20.6251 44.052ZM23.5511 37.836H25.2451V47.3C25.2451 48.21 25.0631 48.672 24.4891 48.938C23.9291 49.204 23.1031 49.26 21.9551 49.26C21.8851 48.784 21.6051 48.028 21.3531 47.552C22.1511 47.594 22.9631 47.594 23.2151 47.58C23.4671 47.58 23.5511 47.51 23.5511 47.272V37.836ZM26.4211 36.198L27.5551 37.626C25.7351 38.186 23.3411 38.564 21.3111 38.788C21.2271 38.396 21.0171 37.766 20.8211 37.388C22.7951 37.122 24.9791 36.688 26.4211 36.198ZM27.7931 36.226H29.5571C29.4591 41.868 30.7191 47.608 31.9931 47.608C32.2871 47.608 32.4411 46.922 32.5251 45.256C32.8751 45.648 33.4491 46.04 33.8971 46.222C33.6311 48.7 33.0991 49.316 31.8251 49.316C28.9271 49.316 27.8351 42.512 27.7931 36.226ZM31.6011 42.148L33.0851 42.778C31.6291 45.382 29.3471 47.468 26.8131 48.812C26.5611 48.392 26.0991 47.832 25.6791 47.454C28.0731 46.362 30.3551 44.458 31.6011 42.148ZM42.2131 36.576H46.2451V38.088H42.2131V36.576ZM45.6151 36.576H47.2811V47.426C47.2811 48.252 47.1131 48.672 46.5951 48.938C46.0771 49.19 45.3211 49.218 44.2151 49.218C44.1591 48.798 43.9211 48.084 43.7111 47.678C44.3551 47.72 45.0971 47.72 45.3211 47.706C45.5451 47.692 45.6151 47.622 45.6151 47.398V36.576ZM39.2311 36.842L40.5051 36.1C41.1071 36.912 41.8911 38.032 42.2271 38.746L40.8551 39.586C40.5611 38.858 39.8331 37.696 39.2311 36.842ZM38.6151 39.208H40.2531V49.246H38.6151V39.208ZM37.0191 36.156L38.5731 36.604C37.8591 39.054 36.6831 41.7 35.3391 43.394C35.2271 42.988 34.7931 42.022 34.5271 41.588C35.5631 40.244 36.4871 38.2 37.0191 36.156ZM35.8851 40.02L37.4251 38.466L37.4811 38.494V49.246H35.8851V40.02ZM48.6951 37.584H54.1271V39.124H48.6951V37.584ZM51.3411 39.978H52.9511V49.232H51.3411V39.978ZM48.5831 45.424C50.0671 45.242 52.3211 44.92 54.4631 44.598L54.5331 46.054C52.5731 46.404 50.4871 46.768 48.9051 47.034L48.5831 45.424ZM49.2131 43.66C49.1431 43.366 48.9051 42.638 48.7091 42.246C49.0031 42.162 49.1991 41.756 49.4511 41.154C49.7031 40.594 50.4591 38.214 50.7251 36.1L52.3491 36.408C51.8451 38.718 50.9351 41.154 50.0811 42.834V42.862C50.0811 42.862 49.2131 43.394 49.2131 43.66ZM49.2131 43.66V42.33L49.9411 41.938H53.9871V43.45H50.3051C49.8571 43.45 49.3391 43.534 49.2131 43.66ZM56.0731 42.862H60.1751V44.43H56.0731V42.862ZM59.7691 42.862H60.0351L60.2871 42.778L61.4631 43.366C60.5811 44.668 59.3771 46.25 58.2991 47.566L56.8711 46.894C57.9071 45.634 59.1391 43.968 59.7691 43.03V42.862ZM55.2051 46.348L56.2831 45.284C57.8231 46.082 59.5871 47.216 60.5111 48.028L59.4191 49.344C58.5371 48.518 56.7311 47.202 55.2051 46.348ZM57.3191 36.128L58.9851 36.338C58.3411 39.012 57.4451 42.428 56.8291 44.43H55.0371C55.7651 42.302 56.7451 38.788 57.3191 36.128ZM54.6591 37.598H61.2391V39.138H54.6591V37.598ZM54.1691 40.216H61.7291V41.77H54.1691V40.216ZM68.3231 36.114H69.9891V37.808H68.3231V36.114ZM63.1571 37.29H75.3511V38.564H63.1571V37.29ZM67.2031 37.892H68.7711C68.4631 40.342 67.7071 42.246 64.4031 43.31C64.2491 42.932 63.8711 42.358 63.5351 42.078C66.4611 41.252 66.9511 39.768 67.2031 37.892ZM64.7531 38.718L66.1951 39.11C65.7051 40.034 64.8231 40.916 63.9971 41.462C63.7311 41.196 63.1711 40.72 62.8211 40.51C63.6191 40.076 64.3751 39.418 64.7531 38.718ZM70.0871 37.892H71.6131V40.692C71.6131 41.378 71.4871 41.728 70.9831 41.938C70.4931 42.148 69.8631 42.176 69.0091 42.176C68.9251 41.77 68.6451 41.196 68.4351 40.832C69.0091 40.846 69.6671 40.846 69.8491 40.846C70.0311 40.846 70.0871 40.804 70.0871 40.664V37.892ZM72.0471 39.306L73.3351 38.732C74.0631 39.432 74.9871 40.44 75.4211 41.112L74.0491 41.756C73.6571 41.098 72.7751 40.062 72.0471 39.306ZM65.4531 43.814H72.2151V43.142H65.5231V41.952H73.7971V45.004H65.4531V43.814ZM64.6691 43.814H66.4051C66.0691 45.06 65.6351 46.53 65.2991 47.496L63.6191 47.23C63.9831 46.306 64.3891 44.934 64.6691 43.814ZM64.8791 45.62H73.7271V46.81H64.5151L64.8791 45.62ZM73.0971 45.62H74.8191C74.8191 45.62 74.7771 46.068 74.7071 46.292C74.4691 47.678 74.1751 48.434 73.7411 48.798C73.3631 49.12 72.9571 49.204 72.3411 49.246C71.8511 49.26 70.9691 49.274 70.0311 49.232C70.0031 48.784 69.7931 48.168 69.5131 47.748C70.3671 47.818 71.3891 47.846 71.7811 47.846C72.0611 47.846 72.2571 47.832 72.4111 47.734C72.6771 47.538 72.9011 46.936 73.0971 45.802V45.62Z" fill="black"/>
<path d="M34.265 62.92H43.395V63.87H34.265V62.92ZM38.175 62.08H39.435V64.9H38.175V62.08ZM36.515 61.21V61.68H41.105V61.21H36.515ZM36.515 59.99V60.46H41.105V59.99H36.515ZM35.345 59.19H42.325V62.48H35.345V59.19ZM34.945 56.17H42.765V57.11H34.945V56.17ZM34.305 57.85H43.345V58.79H34.305V57.85ZM38.165 55.51H39.435V56.84H38.165V55.51ZM40.215 56.9L41.495 57.12C41.285 57.53 41.095 57.88 40.945 58.14L39.805 57.93C39.945 57.63 40.125 57.2 40.215 56.9ZM36.265 57.15L37.425 56.95C37.615 57.23 37.795 57.63 37.855 57.91L36.645 58.16C36.595 57.88 36.435 57.45 36.265 57.15ZM51.295 59.09H52.555V62.28C52.555 62.92 52.425 63.28 51.955 63.47C51.495 63.67 50.835 63.67 49.895 63.67C49.855 63.29 49.705 62.76 49.555 62.4C50.125 62.43 50.855 62.43 51.035 62.42C51.225 62.42 51.295 62.38 51.295 62.24V59.09ZM47.145 59.86H48.415V64.87H47.145V59.86ZM44.775 59.09H51.845V60.24H44.775V59.09ZM44.325 56.5H53.355V57.64H44.325V56.5ZM46.475 55.51H47.715V58.6H46.475V55.51ZM49.995 55.51H51.265V58.6H49.995V55.51ZM60.2592 64V62.58H57.0492V61.8L60.3192 56.95H61.2892V61.71H62.2692V62.58H61.2892V64H60.2592ZM60.2692 61.71V58.23H60.4292L57.9392 61.94L57.8892 61.71H60.2692Z" fill="#667085"/>
<defs>
<filter id="filter0_d_8310_972" x="0" y="0" width="96" height="85.8462" filterUnits="userSpaceOnUse" color-interpolation-filters="sRGB">
<feFlood flood-opacity="0" result="BackgroundImageFix"/>
<feColorMatrix in="SourceAlpha" type="matrix" values="0 0 0 0 0 0 0 0 0 0 0 0 0 0 0 0 0 0 127 0" result="hardAlpha"/>
<feOffset dy="4"/>
<feGaussianBlur stdDeviation="2"/>
<feComposite in2="hardAlpha" operator="out"/>
<feColorMatrix type="matrix" values="0 0 0 0 0 0 0 0 0 0 0 0 0 0 0 0 0 0 0.25 0"/>
<feBlend mode="normal" in2="BackgroundImageFix" result="effect1_dropShadow_8310_972"/>
<feBlend mode="normal" in="SourceGraphic" in2="effect1_dropShadow_8310_972" result="shape"/>
</filter>
</defs>
</svg>
